<!-- Generator: Adobe Illustrator 22.1.0, SVG Export Plug-In  -->
<svg version="1.1"
	 xmlns="http://www.w3.org/2000/svg" xmlns:xlink="http://www.w3.org/1999/xlink" xmlns:a="http://ns.adobe.com/AdobeSVGViewerExtensions/3.0/"
	 x="0px" y="0px" width="650.8px" height="36.3px" viewBox="0 0 650.8 36.3" style="enable-background:new 0 0 650.8 36.3;"
	 xml:space="preserve">
<style type="text/css">
	.st0{fill:#490E67;}
	.st1{fill:#C29FD8;}
</style>
<defs>
</defs>
<g id="XMLID_46_">
	<g id="XMLID_48_">
		<path id="XMLID_161_" d="M169,12.3h8.5v2.5h-5.4v2.4h3.5v2.4h-3.5v2.7h5.4v2.5H169V12.3z"/>
		<path id="XMLID_159_" d="M179.4,12.3h4.2c3.7,0,5.3,1.5,5.3,4.2c0,2.7-1.6,4.7-5.3,4.7H183v-2.2h0.5c1.5,0,2.2-0.8,2.2-2.2
			c0-1.4-0.7-2.1-2.3-2.1h-1v10.2h-3V12.3z"/>
		<path id="XMLID_157_" d="M190,24.1v-3c0.6,0.7,1.8,1.4,3.3,1.4c1.4,0,2-0.5,2-1.4c0-0.7-0.5-1-1.7-1.3l-0.5-0.1
			c-2-0.4-3.3-1.5-3.3-3.8c0-2.5,1.8-4,4.7-4c1.9,0,2.9,0.5,3.4,0.9v3c-0.6-0.8-1.8-1.4-3.4-1.4c-1.1,0-1.8,0.4-1.8,1.2
			c0,0.7,0.3,1.1,1.5,1.3l0.5,0.1c2.1,0.4,3.5,1.3,3.5,3.7c0,2.5-1.7,4.2-5,4.2C191.5,25,190.5,24.6,190,24.1z"/>
		<path id="XMLID_155_" d="M204.6,12.3h4.2c3.7,0,5.3,1.5,5.3,4.2c0,2.7-1.6,4.7-5.3,4.7h-0.6v-2.2h0.5c1.5,0,2.2-0.8,2.2-2.2
			c0-1.4-0.7-2.1-2.3-2.1h-1v10.2h-3V12.3z"/>
		<path id="XMLID_153_" d="M215.5,14.6h2.5l0.2,1.3c0.1-1.1,1-1.6,2-1.6c0.5,0,0.9,0.1,1,0.3v2.7c-0.3-0.2-0.6-0.3-1.2-0.3
			c-0.7,0-1.2,0.3-1.5,0.8v6.9h-3V14.6z"/>
		<path id="XMLID_150_" d="M221.9,19.7c0-3.7,2.4-5.4,5.2-5.4c2.9,0,5,1.6,5,5.4c0,3.8-2.4,5.4-5.2,5.4
			C224,25,221.9,23.4,221.9,19.7z M229.1,19.7c0-1.8-0.6-2.9-2.1-2.9c-1.4,0-2,1.2-2,2.9c0,1.8,0.6,2.9,2,2.9
			C228.5,22.6,229.1,21.5,229.1,19.7z"/>
		<path id="XMLID_147_" d="M234.3,16.9h-1.2V16l1.1-1c-0.2-0.4-0.3-0.9-0.3-1.5c0-1.9,1.6-2.9,3.4-2.9c1.1,0,1.8,0.3,2,0.5v2.5
			c-0.3-0.5-0.7-0.7-1.4-0.7c-0.7,0-1.1,0.3-1.1,1c0,0.3,0.1,0.6,0.2,0.8h6.2v10h-3v-7.8h-3v7.8h-3V16.9z M240.2,12.3
			c0-0.9,0.6-1.4,1.5-1.4c0.9,0,1.6,0.5,1.6,1.4c0,0.9-0.6,1.4-1.6,1.4C240.8,13.7,240.2,13.2,240.2,12.3z"/>
		<path id="XMLID_145_" d="M245.3,22.2V10.9h3v10.9c0,0.6,0.2,0.8,0.6,0.8s0.7-0.2,0.9-0.4v2.3c-0.2,0.2-0.8,0.5-1.8,0.5
			C246.3,25,245.3,24.1,245.3,22.2z"/>
		<path id="XMLID_142_" d="M250.7,19.7c0-3.7,2.4-5.4,4.9-5.4c2.4,0,4.7,1,4.7,4.9v1.3h-6.5c0.1,1.1,0.8,2.1,2.7,2.1
			c1.7,0,2.7-0.6,3.3-1.2v2.5c-0.5,0.5-1.7,1.1-3.8,1.1C252.7,25,250.7,23.3,250.7,19.7z M257.4,18.7L257.4,18.7c0-1.3-0.5-2-1.8-2
			c-1.2,0-1.8,1-1.9,2H257.4z"/>
		<path id="XMLID_139_" d="M266.2,12.2c0-0.9,0.6-1.4,1.5-1.4c0.9,0,1.6,0.5,1.6,1.4s-0.6,1.4-1.6,1.4
			C266.8,13.6,266.2,13.1,266.2,12.2z M266.3,14.6h3v10.1h-3V14.6z"/>
		<path id="XMLID_137_" d="M271.1,24.2v-2.7c0.6,0.6,1.6,1.1,3,1.1c1.3,0,1.7-0.4,1.7-0.9c0-0.5-0.2-0.7-1.4-0.9l-0.5-0.1
			c-2.1-0.3-3-1.3-3-3.1c0-1.8,1.2-3.3,4.2-3.3c1.5,0,2.6,0.4,3.2,0.8v2.6c-0.6-0.7-1.7-1.1-3.1-1.1c-1.2,0-1.6,0.3-1.6,0.9
			s0.2,0.8,1.3,0.9l0.5,0.1c2.2,0.3,3.2,1.1,3.2,3c0,1.7-1.2,3.5-4.4,3.5C272.7,25,271.7,24.7,271.1,24.2z"/>
		<path id="XMLID_135_" d="M284.2,18.5c0-4.3,2.7-6.5,6-6.5c2.1,0,3.1,0.6,3.6,1v3.1c-0.7-1-1.7-1.5-3.2-1.5c-2.1,0-3.3,1.3-3.3,3.8
			c0,2.5,1.1,4,3.3,4c1.4,0,2.5-0.5,3.2-1.4v2.8c-0.7,0.7-2,1.2-3.6,1.2C286.5,25,284.2,22.9,284.2,18.5z"/>
		<path id="XMLID_132_" d="M295.1,19.7c0-3.7,2.4-5.4,5.2-5.4c2.9,0,5,1.6,5,5.4c0,3.8-2.4,5.4-5.2,5.4
			C297.2,25,295.1,23.4,295.1,19.7z M302.3,19.7c0-1.8-0.6-2.9-2.1-2.9c-1.4,0-2,1.2-2,2.9c0,1.8,0.6,2.9,2,2.9
			C301.6,22.6,302.3,21.5,302.3,19.7z"/>
		<path id="XMLID_130_" d="M306.9,14.6h2.7l0.2,0.9c0.4-0.7,1.4-1.2,2.5-1.2c1.4,0,2.4,0.5,2.9,1.4c0.5-0.7,1.5-1.4,3-1.4
			c2.5,0,3.4,1.4,3.4,4.1v6.3h-3v-5.8c0-1.6-0.4-2.2-1.4-2.2c-0.7,0-1.3,0.4-1.6,0.8c0.1,0.3,0.1,0.6,0.1,0.9v6.3h-3v-5.8
			c0-1.6-0.4-2.2-1.3-2.2c-0.8,0-1.3,0.4-1.5,0.8v7.2h-3V14.6z"/>
		<path id="XMLID_127_" d="M323.7,14.6h2.6l0.2,0.9c0.3-0.6,1.2-1.2,2.7-1.2c2.5,0,4.1,1.4,4.1,5.1c0,3.7-2,5.6-4.5,5.6
			c-0.8,0-1.7-0.2-2.2-0.7v3.9h-3V14.6z M330.3,19.6c0-1.8-0.5-2.8-1.9-2.8c-0.9,0-1.4,0.3-1.7,0.8v4.6c0.4,0.5,1,0.6,1.6,0.6
			C329.7,22.7,330.3,21.3,330.3,19.6z"/>
		<path id="XMLID_124_" d="M334.5,22.1c0-2,1.4-2.9,4.2-3.3l1.5-0.2c0-1.4-0.7-1.8-2-1.8c-1.4,0-2.8,0.7-3.3,1.8v-2.8
			c0.4-0.6,1.5-1.3,3.8-1.3c2.9,0,4.5,1.3,4.5,4.3v6.1h-2.6l-0.2-0.9c-0.3,0.5-1.1,1.1-2.5,1.1C335.9,25,334.5,24.1,334.5,22.1z
			 M340.2,20.4l-1.1,0.3c-1.3,0.3-1.8,0.6-1.8,1.3c0,0.7,0.5,1,1.2,1c0.8,0,1.5-0.3,1.7-0.7V20.4z"/>
		<path id="XMLID_122_" d="M345.2,14.6h2.5l0.2,1.3c0.1-1.1,1-1.6,2-1.6c0.5,0,0.9,0.1,1,0.3v2.7c-0.3-0.2-0.6-0.3-1.2-0.3
			c-0.7,0-1.2,0.3-1.5,0.8v6.9h-3V14.6z"/>
		<path id="XMLID_119_" d="M351.7,22.1c0-2,1.4-2.9,4.2-3.3l1.5-0.2c0-1.4-0.7-1.8-2-1.8c-1.4,0-2.8,0.7-3.3,1.8v-2.8
			c0.4-0.6,1.5-1.3,3.8-1.3c2.9,0,4.5,1.3,4.5,4.3v6.1h-2.6l-0.2-0.9c-0.3,0.5-1.1,1.1-2.5,1.1C353.1,25,351.7,24.1,351.7,22.1z
			 M357.4,20.4l-1.1,0.3c-1.3,0.3-1.8,0.6-1.8,1.3c0,0.7,0.5,1,1.2,1c0.8,0,1.5-0.3,1.7-0.7V20.4z"/>
		<path id="XMLID_116_" d="M365.1,24l-0.4,0.7h-2.3V10.9h3v4.5c0.3-0.5,1.2-1.1,2.6-1.1c2.5,0,4.1,1.4,4.1,5.1c0,3.7-2,5.6-4.5,5.6
			C366.2,25,365.5,24.5,365.1,24z M365.4,22.1c0.4,0.5,1,0.7,1.6,0.7c1.4,0,2-1.4,2-3.2c0-1.8-0.5-2.8-1.9-2.8
			c-0.8,0-1.4,0.3-1.7,0.8V22.1z"/>
		<path id="XMLID_114_" d="M373.7,22.2V10.9h3v10.9c0,0.6,0.2,0.8,0.6,0.8s0.7-0.2,0.9-0.4v2.3c-0.2,0.2-0.8,0.5-1.8,0.5
			C374.6,25,373.7,24.1,373.7,22.2z"/>
		<path id="XMLID_111_" d="M379.1,19.7c0-3.7,2.4-5.4,4.9-5.4c2.4,0,4.7,1,4.7,4.9v1.3h-6.5c0.1,1.1,0.8,2.1,2.7,2.1
			c1.7,0,2.7-0.6,3.3-1.2v2.5c-0.5,0.5-1.7,1.1-3.8,1.1C381,25,379.1,23.3,379.1,19.7z M385.8,18.7L385.8,18.7c0-1.3-0.5-2-1.8-2
			c-1.2,0-1.8,1-1.9,2H385.8z"/>
		<path id="XMLID_109_" d="M395.1,21.8v-4.9H394v-1.1l1-1.3l1.8-2.4h1.4v2.4h2.4v2.3h-2.4v4.6c0,0.7,0.2,1.1,0.9,1.1
			c0.7,0,1.2-0.3,1.5-0.9v2.4c-0.3,0.4-1,0.8-2.3,0.8C396,25,395.1,23.8,395.1,21.8z"/>
		<path id="XMLID_106_" d="M401.6,19.7c0-3.7,2.4-5.4,5.2-5.4c2.9,0,5,1.6,5,5.4c0,3.8-2.4,5.4-5.2,5.4
			C403.6,25,401.6,23.4,401.6,19.7z M408.7,19.7c0-1.8-0.6-2.9-2.1-2.9c-1.4,0-2,1.2-2,2.9c0,1.8,0.6,2.9,2,2.9
			C408.1,22.6,408.7,21.5,408.7,19.7z"/>
		<path id="XMLID_103_" d="M417.3,18.5c0-4.3,3-6.5,6.4-6.5c3.7,0,6.3,2.2,6.3,6.5c0,4.3-3,6.5-6.4,6.5
			C419.9,25,417.3,22.8,417.3,18.5z M426.9,18.6c0-2.6-1.2-4-3.2-4c-2,0-3.2,1.4-3.2,3.9c0,2.6,1.2,4,3.2,4
			C425.7,22.5,426.9,21,426.9,18.6z"/>
		<path id="XMLID_101_" d="M432.2,21.8v-4.9H431v-1.1l1-1.3l1.8-2.4h1.4v2.4h2.4v2.3h-2.4v4.6c0,0.7,0.2,1.1,0.9,1.1
			c0.7,0,1.2-0.3,1.5-0.9v2.4c-0.3,0.4-1,0.8-2.3,0.8C433.1,25,432.2,23.8,432.2,21.8z"/>
		<path id="XMLID_99_" d="M439.1,10.9h3v4.4c0.5-0.6,1.4-1,2.6-1c2.6,0,3.6,1.4,3.6,4.1v6.3h-3V19c0-1.7-0.4-2.3-1.5-2.3
			c-0.9,0-1.4,0.4-1.7,0.8v7.3h-3V10.9z"/>
		<path id="XMLID_96_" d="M449.9,19.7c0-3.7,2.4-5.4,4.9-5.4c2.4,0,4.7,1,4.7,4.9v1.3H453c0.1,1.1,0.8,2.1,2.7,2.1
			c1.7,0,2.7-0.6,3.3-1.2v2.5c-0.5,0.5-1.7,1.1-3.8,1.1C451.9,25,449.9,23.3,449.9,19.7z M456.7,18.7L456.7,18.7c0-1.3-0.5-2-1.8-2
			c-1.2,0-1.8,1-1.9,2H456.7z"/>
		<path id="XMLID_94_" d="M461.1,14.6h2.5l0.2,1.3c0.1-1.1,1-1.6,2-1.6c0.5,0,0.9,0.1,1,0.3v2.7c-0.3-0.2-0.6-0.3-1.2-0.3
			c-0.7,0-1.2,0.3-1.5,0.8v6.9h-3V14.6z"/>
		<path id="XMLID_91_" d="M476,13.5l-0.5-1.3h3.2c0.4,1.1,4.5,11.4,5,12.5h-3.2l-0.9-2.3h-4.4l-0.8,2.3h-2.9L476,13.5z M476,20.3
			h2.8l-1.1-2.8l-0.3-1.1l-0.3,1.1L476,20.3z"/>
		<path id="XMLID_89_" d="M484.8,14.6h2.6l0.2,0.9c0.4-0.7,1.3-1.2,2.7-1.2c2.6,0,3.7,1.4,3.7,4.1v6.3h-3V19c0-1.7-0.4-2.3-1.5-2.3
			c-0.9,0-1.4,0.4-1.7,0.8v7.2h-3V14.6z"/>
		<path id="XMLID_87_" d="M496.5,21.8v-4.9h-1.2v-1.1l1-1.3l1.8-2.4h1.4v2.4h2.4v2.3h-2.4v4.6c0,0.7,0.2,1.1,0.9,1.1
			c0.7,0,1.2-0.3,1.5-0.9v2.4c-0.3,0.4-1,0.8-2.3,0.8C497.4,25,496.5,23.8,496.5,21.8z"/>
		<path id="XMLID_84_" d="M503.4,12.2c0-0.9,0.6-1.4,1.5-1.4c0.9,0,1.6,0.5,1.6,1.4s-0.6,1.4-1.6,1.4
			C504,13.6,503.4,13.1,503.4,12.2z M503.5,14.6h3v10.1h-3V14.6z"/>
		<path id="XMLID_81_" d="M508.6,14.6h2.6l0.2,0.9c0.3-0.6,1.2-1.2,2.7-1.2c2.5,0,4.1,1.4,4.1,5.1c0,3.7-2,5.6-4.5,5.6
			c-0.8,0-1.7-0.2-2.2-0.7v3.9h-3V14.6z M515.2,19.6c0-1.8-0.5-2.8-1.9-2.8c-0.9,0-1.4,0.3-1.7,0.8v4.6c0.4,0.5,1,0.6,1.6,0.6
			C514.6,22.7,515.2,21.3,515.2,19.6z"/>
		<path id="XMLID_79_" d="M519.6,24.2v-2.7c0.6,0.6,1.6,1.1,3,1.1c1.3,0,1.7-0.4,1.7-0.9c0-0.5-0.2-0.7-1.4-0.9l-0.5-0.1
			c-2.1-0.3-3-1.3-3-3.1c0-1.8,1.2-3.3,4.2-3.3c1.5,0,2.6,0.4,3.2,0.8v2.6c-0.6-0.7-1.7-1.1-3.1-1.1c-1.2,0-1.6,0.3-1.6,0.9
			s0.2,0.8,1.3,0.9l0.5,0.1c2.2,0.3,3.2,1.1,3.2,3c0,1.7-1.2,3.5-4.4,3.5C521.2,25,520.2,24.7,519.6,24.2z"/>
		<path id="XMLID_77_" d="M528.2,28v-2.4c0.4,0.4,1.1,0.7,1.7,0.7c0.7,0,1.3-0.2,1.8-1.3l-4-10.4h3.3l2.1,6.6l1.8-6.6h2.9l-2.8,9.6
			c-0.7,2.5-2,4.4-4.7,4.4C529.3,28.6,528.6,28.3,528.2,28z"/>
		<path id="XMLID_75_" d="M538.4,19.7c0-3.7,2.3-5.4,5.1-5.4c1.5,0,2.6,0.4,3,0.9v2.7c-0.7-0.7-1.4-1-2.6-1c-1.6,0-2.4,1-2.4,2.8
			c0,1.8,0.9,2.8,2.4,2.8c1.1,0,2-0.4,2.6-1.1V24c-0.5,0.5-1.6,1.1-3.1,1.1C540.5,25,538.4,23.4,538.4,19.7z"/>
		<path id="XMLID_73_" d="M548.2,10.9h3v4.4c0.5-0.6,1.4-1,2.6-1c2.6,0,3.6,1.4,3.6,4.1v6.3h-3V19c0-1.7-0.4-2.3-1.5-2.3
			c-0.9,0-1.4,0.4-1.7,0.8v7.3h-3V10.9z"/>
		<path id="XMLID_70_" d="M559,19.7c0-3.7,2.4-5.4,5.2-5.4c2.9,0,5,1.6,5,5.4c0,3.8-2.4,5.4-5.2,5.4C561,25,559,23.4,559,19.7z
			 M566.1,19.7c0-1.8-0.6-2.9-2.1-2.9c-1.4,0-2,1.2-2,2.9c0,1.8,0.6,2.9,2,2.9C565.5,22.6,566.1,21.5,566.1,19.7z"/>
		<path id="XMLID_68_" d="M571.3,21.8v-4.9h-1.2v-1.1l1-1.3l1.8-2.4h1.4v2.4h2.4v2.3h-2.4v4.6c0,0.7,0.2,1.1,0.9,1.1
			c0.7,0,1.2-0.3,1.5-0.9v2.4c-0.3,0.4-1,0.8-2.3,0.8C572.1,25,571.3,23.8,571.3,21.8z"/>
		<path id="XMLID_65_" d="M578.2,12.2c0-0.9,0.6-1.4,1.5-1.4c0.9,0,1.6,0.5,1.6,1.4s-0.6,1.4-1.6,1.4
			C578.7,13.6,578.2,13.1,578.2,12.2z M578.2,14.6h3v10.1h-3V14.6z"/>
		<path id="XMLID_63_" d="M582.8,19.7c0-3.7,2.3-5.4,5.1-5.4c1.5,0,2.6,0.4,3,0.9v2.7c-0.7-0.7-1.4-1-2.6-1c-1.6,0-2.4,1-2.4,2.8
			c0,1.8,0.9,2.8,2.4,2.8c1.1,0,2-0.4,2.6-1.1V24c-0.5,0.5-1.6,1.1-3.1,1.1C584.9,25,582.8,23.4,582.8,19.7z"/>
		<path id="XMLID_60_" d="M597.2,12.3h4c4.2,0,6.7,1.6,6.7,6.2s-3,6.3-6.7,6.3h-4V12.3z M601.2,22.2c2.7,0,3.6-1.1,3.6-3.7
			c0-2.6-0.9-3.8-3.6-3.8h-1v7.4H601.2z"/>
		<path id="XMLID_58_" d="M609.6,14.6h2.5l0.2,1.3c0.1-1.1,1-1.6,2-1.6c0.5,0,0.9,0.1,1,0.3v2.7c-0.3-0.2-0.6-0.3-1.2-0.3
			c-0.7,0-1.2,0.3-1.5,0.8v6.9h-3V14.6z"/>
		<path id="XMLID_56_" d="M616.6,20.9v-6.3h3v5.8c0,1.7,0.3,2.3,1.5,2.3c0.9,0,1.3-0.4,1.6-0.8v-7.2h3v10.1H623l-0.2-0.9
			c-0.4,0.6-1.3,1.2-2.6,1.2C617.5,25,616.6,23.7,616.6,20.9z"/>
		<path id="XMLID_53_" d="M627.2,27.7v-2.2c1,0.6,2.2,0.9,4.3,0.9c2.4,0,3.4-0.3,3.4-1c0-0.6-0.6-0.8-2.1-0.8
			c-1.5,0-3.8,0.3-4.5,0.7v-2l1.4-2.1c-1.5-0.5-2.4-1.6-2.4-3.2c0-2.2,1.8-3.6,4.5-3.6c1.2,0,2.2,0.3,2.9,0.7
			c0.3-0.5,1.1-0.8,1.9-0.8c0.3,0,0.6,0,0.9,0.1v2.3c-0.2-0.1-0.4-0.2-0.7-0.2c-0.3,0-0.7,0.1-0.9,0.3c0.1,0.3,0.2,0.7,0.2,1.1
			c0,2.2-1.8,3.5-4.5,3.5h-0.2l-0.8,1.3c0.4-0.1,1.6-0.3,2.6-0.3c2.5,0,4.2,0.6,4.2,2.8c0,2.2-2,3.5-5.8,3.5
			C629.7,28.6,628.1,28.2,627.2,27.7z M633.4,17.9c0-0.9-0.6-1.4-1.6-1.4c-1,0-1.6,0.5-1.6,1.4s0.6,1.4,1.6,1.4
			C632.8,19.2,633.4,18.8,633.4,17.9z"/>
		<path id="XMLID_51_" d="M638.5,24.2v-2.7c0.6,0.6,1.6,1.1,3,1.1c1.3,0,1.7-0.4,1.7-0.9c0-0.5-0.2-0.7-1.4-0.9l-0.5-0.1
			c-2.1-0.3-3-1.3-3-3.1c0-1.8,1.2-3.3,4.2-3.3c1.5,0,2.6,0.4,3.2,0.8v2.6c-0.6-0.7-1.7-1.1-3.1-1.1c-1.2,0-1.6,0.3-1.6,0.9
			s0.2,0.8,1.3,0.9l0.5,0.1c2.2,0.3,3.2,1.1,3.2,3c0,1.7-1.2,3.5-4.4,3.5C640.1,25,639,24.7,638.5,24.2z"/>
		<path id="XMLID_49_" d="M647.2,23.2c0-1,0.7-1.8,1.8-1.8c1,0,1.8,0.8,1.8,1.8c0,1-0.8,1.8-1.8,1.8C648,25,647.2,24.3,647.2,23.2z"
			/>
	</g>
</g>
<g id="XMLID_1_">
	<path id="XMLID_45_" class="st0" d="M14.2,23.5h11.7c1.8,0,2.6-0.4,2.6-1.2c0-0.9-0.6-1.1-1.8-1.2c-5.6-0.5-7.1-2-7.1-5.6
		c0-3.6,2.3-6,7.7-6c3.2,0,4.7,0.4,5.9,0.9V15c-1.6-0.7-3.6-1.1-5.7-1.1c-1.6,0-2.5,0.4-2.5,1.2c0,0.9,0.6,1.1,1.8,1.2
		c5.6,0.5,7.1,2,7.1,5.6c0,3.4-2,6-8,6H15.2"/>
	<path id="XMLID_42_" class="st0" d="M40.4,20.6c-0.1,2.3,1.1,3,3.8,3c2.6,0,4.6-0.5,5.9-1.2v4.4c-2,0.8-4.5,1.2-6.6,1.2
		c-5.8,0-8.6-3-8.6-9.3c0-6.3,2.8-9.3,8.2-9.3c7.5,0,8.1,5.6,7.6,11.2H40.4z M40.4,17.1h5c0.3-1.9-0.1-3.5-2.3-3.5
		C41.2,13.6,40.4,14.9,40.4,17.1"/>
	<path id="XMLID_41_" class="st0" d="M55.7,9.9l0.7,1.3c2-1.2,4.2-1.8,6.1-1.8c4.8,0,6.2,2.5,6.2,5.9v12.2h-5.6V16.2
		c0-1.3-0.5-2.2-2-2.2c-1.4,0-2.6,0.6-3.1,0.9v12.6h-5.6V9.9H55.7z"/>
	<path id="XMLID_38_" class="st0" d="M79.6,15.2c0-0.8-0.6-1.2-2.1-1.2c-2.2,0-4.8,0.7-6.3,1.3v-4.7c1.2-0.5,3.8-1.2,6.3-1.2
		c6.3,0,7.5,2.7,7.5,6.7v11.4h-3.4l-0.8-1.3c-1.3,1.1-3.1,1.8-5.2,1.8c-4.5,0-6-3-6-5.6c0-4.8,3.5-5.5,6.7-5.8l3.2-0.3V15.2z
		 M77.3,19.7c-1.6,0.2-2.2,1-2.2,2.4c0,1.3,0.8,2.1,2,2.1c1,0,2-0.3,2.5-0.8v-3.9L77.3,19.7z"/>
	<path id="XMLID_35_" class="st0" d="M90.4,9.9l1,1.4c1.2-1.1,2.9-1.9,5.7-1.9c4.6,0,6.8,2.8,6.8,9.3c0,6.5-2.3,9.3-6.8,9.3
		c-1.9,0-3.3-0.5-4.4-1.1v9.4H87V9.9H90.4z M92.6,22.7c0,0,1.1,0.7,2.5,0.7c2.6,0,3.2-1.8,3.2-4.8c0-3-0.6-4.7-3.2-4.7
		c-1.4,0-2.5,0.7-2.5,0.7V22.7z"/>
	<path id="XMLID_34_" class="st0" d="M112.4,27.6c0,0-0.7,0.1-1.6,0.1c-3,0-5.4-1.5-5.4-5V9.9h5.6V22c0,0.7,0.3,1.1,1.4,1.1V27.6z"
		/>
	<path id="XMLID_33_" class="st0" d="M117.1,9.9l0.7,1.3c2-1.2,4.2-1.8,6.1-1.8c4.8,0,6.2,2.5,6.2,5.9v12.2h-5.6V16.2
		c0-1.3-0.5-2.2-2-2.2c-1.4,0-2.6,0.6-3.1,0.9v12.6h-5.6V9.9H117.1z"/>
	<path id="XMLID_30_" class="st0" d="M136.9,20.6c-0.1,2.3,1.1,3,3.8,3c2.6,0,4.6-0.5,5.9-1.2v4.4c-2,0.8-4.5,1.2-6.6,1.2
		c-5.8,0-8.6-3-8.6-9.3c0-6.3,2.8-9.3,8.2-9.3c7.5,0,8.1,5.6,7.6,11.2H136.9z M136.9,17.1h5c0.3-1.9-0.1-3.5-2.3-3.5
		C137.7,13.6,136.9,14.9,136.9,17.1"/>
	<polyline id="XMLID_29_" class="st0" points="8.3,22.1 9.4,17.6 12.8,17.6 10.6,7.6 8.3,17.6 7.2,22.1 6,27.5 0,27.5 7.3,0.9 
		13.8,0.9 21.1,27.5 15.1,27.5 13.9,22.1 	"/>
	<g id="XMLID_7_">
		<polygon id="XMLID_28_" class="st0" points="98.2,36 98.2,32.8 94.9,32.8 94.9,36 94.3,36 94.3,29.4 94.9,29.4 94.9,32.3 
			98.2,32.3 98.2,29.4 98.8,29.4 98.8,36 		"/>
		<path id="XMLID_25_" class="st0" d="M100.5,29.8c0.2,0,0.4,0.2,0.4,0.4c0,0.2-0.2,0.4-0.4,0.4c-0.2,0-0.4-0.2-0.4-0.4
			C100,30,100.2,29.8,100.5,29.8 M100.2,35.1v-3.5h0.6v3.6c0,0.3,0.1,0.4,0.4,0.4v0.5C100.5,36.1,100.2,35.8,100.2,35.1"/>
		<polygon id="XMLID_24_" class="st0" points="103.7,33.4 105.8,36 105.1,36 103.3,33.8 102.8,34.3 102.8,36 102.2,36 102.2,29.4 
			102.8,29.4 102.8,33.6 104.8,31.6 105.6,31.6 		"/>
		<path id="XMLID_23_" class="st0" d="M111.8,32.8c0-0.6-0.3-0.8-0.8-0.8c-0.5,0-0.8,0.1-1.2,0.3c0,0.1,0.1,0.3,0.1,0.5V36h-0.6
			v-3.2c0-0.6-0.3-0.8-0.8-0.8c-0.5,0-0.8,0.1-1.1,0.3V36h-0.6v-4.4h0.3l0.1,0.4c0.4-0.3,0.9-0.4,1.3-0.4c0.6,0,1,0.2,1.2,0.5
			c0.5-0.3,0.9-0.5,1.4-0.5c0.9,0,1.5,0.4,1.5,1.3V36h-0.6V32.8z"/>
		<path id="XMLID_20_" class="st0" d="M115.1,32.1c-0.6,0-1,0.1-1.3,0.2v-0.5c0.4-0.2,0.9-0.2,1.3-0.2c1.3,0,1.7,0.6,1.7,1.5v3h-0.3
			l-0.1-0.4c-0.4,0.3-0.9,0.4-1.3,0.4c-1.2,0-1.6-0.7-1.6-1.4c0-0.7,0.4-1.3,1.6-1.4l1.2-0.1V33C116.1,32.3,115.9,32.1,115.1,32.1
			 M114.9,33.8c-0.6,0.1-0.9,0.4-0.9,0.9c0,0.4,0.1,0.9,0.9,0.9c0.5,0,0.8-0.1,1.2-0.4v-1.5L114.9,33.8z"/>
		<path id="XMLID_17_" class="st0" d="M120.1,36h-0.6v-6.6h2c1.7,0,2.2,1,2.2,2c0,1-0.6,2-2.2,2h-1.4V36z M120.1,32.8h1.5
			c1.2,0,1.5-0.8,1.5-1.4c0-0.6-0.2-1.4-1.5-1.4h-1.5V32.8z"/>
		<path id="XMLID_16_" class="st0" d="M126.4,32.1c-0.6,0-0.9,0.1-1.2,0.3V36h-0.6v-6.6h0.6v2.5c0.4-0.2,0.8-0.4,1.2-0.4
			c1,0,1.5,0.5,1.5,1.3V36h-0.6v-3.2C127.3,32.2,127,32.1,126.4,32.1"/>
		<path id="XMLID_13_" class="st0" d="M130.6,32.1c-0.6,0-1,0.1-1.3,0.2v-0.5c0.4-0.2,0.9-0.2,1.3-0.2c1.3,0,1.7,0.6,1.7,1.5v3h-0.3
			l-0.1-0.4c-0.4,0.3-0.9,0.4-1.3,0.4c-1.2,0-1.5-0.7-1.5-1.4c0-0.7,0.4-1.3,1.6-1.4l1.2-0.1V33C131.7,32.3,131.4,32.1,130.6,32.1
			 M130.5,33.8c-0.6,0.1-0.9,0.4-0.9,0.9c0,0.4,0.1,0.9,0.9,0.9c0.5,0,0.8-0.1,1.2-0.4v-1.5L130.5,33.8z"/>
		<path id="XMLID_12_" class="st0" d="M135.9,32.1c-0.1,0-0.3-0.1-0.5-0.1c-0.6,0-1,0.1-1.3,0.3V36h-0.6v-4.4h0.3l0.1,0.4
			c0.4-0.3,0.9-0.5,1.4-0.5c0.2,0,0.4,0,0.5,0V32.1z"/>
		<path id="XMLID_11_" class="st0" d="M141.9,32.8c0-0.6-0.3-0.8-0.8-0.8c-0.5,0-0.8,0.1-1.2,0.3c0,0.1,0.1,0.3,0.1,0.5V36h-0.6
			v-3.2c0-0.6-0.3-0.8-0.8-0.8c-0.5,0-0.8,0.1-1.2,0.3V36h-0.6v-4.4h0.3l0.1,0.4c0.4-0.3,0.9-0.4,1.3-0.4c0.6,0,1,0.2,1.2,0.5
			c0.5-0.3,0.9-0.5,1.4-0.5c0.9,0,1.5,0.4,1.5,1.3V36h-0.6V32.8z"/>
		<path id="XMLID_8_" class="st0" d="M145.1,32.1c-0.6,0-1,0.1-1.3,0.2v-0.5c0.4-0.2,0.9-0.2,1.3-0.2c1.3,0,1.7,0.6,1.7,1.5v3h-0.3
			l-0.1-0.4c-0.4,0.3-0.9,0.4-1.3,0.4c-1.2,0-1.5-0.7-1.5-1.4c0-0.7,0.4-1.3,1.6-1.4l1.2-0.1V33C146.2,32.3,146,32.1,145.1,32.1
			 M145,33.8c-0.6,0.1-0.9,0.4-0.9,0.9c0,0.4,0.1,0.9,0.9,0.9c0.5,0,0.8-0.1,1.2-0.4v-1.5L145,33.8z"/>
	</g>
	<g id="XMLID_2_">
		<path id="XMLID_6_" class="st0" d="M110.2,0c-0.8,0-1.5,0.2-2.1,0.5c0.3,0.1,0.5,0.3,0.8,0.5c1.5,0.3,2.6,1.6,2.6,3.3
			c0,1.6-1.1,2.9-2.6,3.3c-0.2,0.2-0.5,0.4-0.8,0.5c0.6,0.3,1.3,0.5,2.1,0.5c2.4,0,4.3-1.9,4.3-4.3C114.5,1.9,112.6,0,110.2,0z"/>
		<path id="XMLID_5_" class="st1" d="M104.8,4.3c0-1.6,1.1-2.9,2.6-3.3c0.2-0.2,0.5-0.4,0.8-0.5c-0.6-0.3-1.3-0.5-2-0.5
			c-2.4,0-4.3,1.9-4.3,4.3c0,2.4,1.8,4.3,4.3,4.3c0.7,0,1.4-0.2,2-0.5c-0.3-0.1-0.5-0.3-0.8-0.5C105.9,7.2,104.8,5.9,104.8,4.3z"/>
		<path id="XMLID_4_" class="st1" d="M108.2,7.6c-0.3,0-0.5,0-0.8-0.1c0.2,0.2,0.5,0.4,0.8,0.5c0.3-0.1,0.5-0.3,0.8-0.5
			C108.7,7.6,108.5,7.6,108.2,7.6z"/>
		<path id="XMLID_3_" class="st1" d="M108.2,0.9c0.3,0,0.5,0,0.7,0.1c-0.2-0.2-0.5-0.4-0.8-0.5c-0.3,0.1-0.5,0.3-0.8,0.5
			C107.7,1,107.9,0.9,108.2,0.9z"/>
	</g>
</g>
</svg>
