<!-- Generator: Adobe Illustrator 22.1.0, SVG Export Plug-In  -->
<svg version="1.1"
	 xmlns="http://www.w3.org/2000/svg" xmlns:xlink="http://www.w3.org/1999/xlink" xmlns:a="http://ns.adobe.com/AdobeSVGViewerExtensions/3.0/"
	 x="0px" y="0px" width="397.4px" height="282.6px" viewBox="0 0 397.4 282.6" style="enable-background:new 0 0 397.4 282.6;"
	 xml:space="preserve">
<style type="text/css">
	.st0{fill:url(#XMLID_820_);}
	.st1{fill:#FFFFFF;stroke:#8B3C95;stroke-width:1.4744;stroke-miterlimit:10;}
	.st2{fill:#E4EA91;}
	.st3{fill:none;stroke:#EE2A7B;stroke-width:0.8618;stroke-miterlimit:10;stroke-dasharray:2.7183,2.7183;}
	.st4{fill:#FFFFFF;}
	.st5{fill:#0C3B60;}
	.st6{fill:none;stroke:#8B3C95;stroke-width:0.9486;stroke-miterlimit:10;}
	.st7{fill:none;stroke:#808184;stroke-width:0.9906;stroke-miterlimit:10;}
	.st8{fill:#808184;}
	.st9{fill:none;stroke:#490E67;stroke-width:0.9906;stroke-miterlimit:10;}
	.st10{fill:#490E67;}
	.st11{fill:none;stroke:#292D73;stroke-width:0.9906;stroke-miterlimit:10;}
	.st12{fill:none;stroke:#292D73;stroke-width:0.5432;stroke-miterlimit:10;}
	.st13{fill:none;stroke:#8B3C95;stroke-width:0.3993;stroke-miterlimit:10;}
	.st14{font-family:'Altis-Medium';}
	.st15{font-size:8.5106px;}
	.st16{fill:#C29FD8;}
	.st17{fill:#231F20;}
	.st18{fill:#292D73;}
	.st19{fill:none;stroke:#8B3C95;stroke-width:0.25;stroke-miterlimit:10;}
	.st20{fill:url(#XMLID_821_);}
</style>
<defs>
</defs>
<linearGradient id="XMLID_820_" gradientUnits="userSpaceOnUse" x1="0.7372" y1="140.6881" x2="396.4525" y2="140.6881">
	<stop  offset="0" style="stop-color:#C3A0CB"/>
	<stop  offset="1" style="stop-color:#4A2365"/>
</linearGradient>
<path id="XMLID_819_" class="st0" d="M396.5,13.3C396.5,5.9,391,0,384.2,0H12.9C6.2,0,0.7,5.9,0.7,13.3v254.8
	c0,7.3,5.5,13.3,12.2,13.3h371.3c6.7,0,12.2-6,12.2-13.3V13.3z"/>
<path id="XMLID_818_" class="st1" d="M0.7,267.3c0,8,6,14.5,13.3,14.5h369.3c7.3,0,13.3-6.5,13.3-14.5V52.8c0-8-5.9-14.5-13.3-14.5
	H14c-7.3,0-13.3,6.5-13.3,14.5V267.3z"/>
<path id="XMLID_817_" class="st2" d="M295.7,38.9h87.5c7.3,0,13.3,6.5,13.3,14.5v214.5c0,8-5.9,14.5-13.3,14.5h-87.5V38.9z"/>
<line id="XMLID_816_" class="st3" x1="295.7" y1="282.2" x2="295.7" y2="38"/>
<g id="XMLID_619_">
	<g id="XMLID_621_">
		<path id="XMLID_717_" class="st4" d="M96.3,7.9h3c2.6,0,3.7,1.1,3.7,2.9c0,1.9-1.1,3.2-3.7,3.2h-0.4v-1.6h0.4
			c1.1,0,1.6-0.6,1.6-1.5c0-1-0.5-1.5-1.6-1.5h-0.7v7h-2.2V7.9z"/>
		<path id="XMLID_715_" class="st4" d="M104,9.5h1.7l0.2,0.9c0.1-0.7,0.7-1.1,1.4-1.1c0.4,0,0.6,0.1,0.7,0.2v1.9
			c-0.2-0.1-0.4-0.2-0.8-0.2c-0.5,0-0.9,0.2-1.1,0.6v4.8H104V9.5z"/>
		<path id="XMLID_712_" class="st4" d="M108.9,7.8c0-0.6,0.4-1,1.1-1c0.7,0,1.1,0.4,1.1,1c0,0.6-0.4,1-1.1,1
			C109.3,8.8,108.9,8.5,108.9,7.8z M109,9.5h2.1v7H109V9.5z"/>
		<path id="XMLID_710_" class="st4" d="M112.6,9.5h1.9l0.1,0.6c0.3-0.5,1-0.8,1.8-0.8c1,0,1.7,0.3,2.1,1c0.4-0.5,1-1,2.1-1
			c1.8,0,2.4,0.9,2.4,2.9v4.3h-2.1v-4c0-1.1-0.3-1.6-1-1.6c-0.5,0-0.9,0.3-1.1,0.6c0,0.2,0.1,0.4,0.1,0.7v4.3h-2.1v-4
			c0-1.1-0.3-1.6-1-1.6c-0.5,0-0.9,0.3-1.1,0.6v5h-2.1V9.5z"/>
		<path id="XMLID_707_" class="st4" d="M124.1,14.7c0-1.4,1-2,3-2.3l1-0.2c0-0.9-0.5-1.2-1.4-1.2c-1,0-2,0.5-2.3,1.2v-2
			c0.3-0.4,1.1-0.9,2.7-0.9c2.1,0,3.2,0.9,3.2,3v4.2h-1.8l-0.2-0.6c-0.2,0.4-0.8,0.8-1.8,0.8C125.1,16.7,124.1,16.1,124.1,14.7z
			 M128.2,13.5l-0.8,0.2c-0.9,0.2-1.3,0.4-1.3,0.9c0,0.5,0.3,0.7,0.9,0.7c0.6,0,1-0.2,1.2-0.5V13.5z"/>
		<path id="XMLID_705_" class="st4" d="M131.7,9.5h1.7l0.2,0.9c0.1-0.7,0.7-1.1,1.4-1.1c0.4,0,0.6,0.1,0.7,0.2v1.9
			c-0.2-0.1-0.4-0.2-0.8-0.2c-0.5,0-0.9,0.2-1.1,0.6v4.8h-2.1V9.5z"/>
		<path id="XMLID_703_" class="st4" d="M136.4,18.8v-1.7c0.3,0.3,0.7,0.5,1.2,0.5c0.5,0,0.9-0.2,1.3-0.9l-2.8-7.2h2.3l1.5,4.6
			l1.2-4.6h2l-2,6.6c-0.5,1.7-1.4,3-3.3,3C137.2,19.2,136.7,19,136.4,18.8z"/>
		<path id="XMLID_701_" class="st4" d="M147.1,9.5h1.9l0.1,0.6c0.3-0.5,1-0.8,1.8-0.8c1,0,1.7,0.3,2.1,1c0.4-0.5,1-1,2.1-1
			c1.8,0,2.4,0.9,2.4,2.9v4.3h-2.1v-4c0-1.1-0.3-1.6-1-1.6c-0.5,0-0.9,0.3-1.1,0.6c0,0.2,0.1,0.4,0.1,0.7v4.3h-2.1v-4
			c0-1.1-0.3-1.6-1-1.6c-0.5,0-0.9,0.3-1.1,0.6v5h-2.1V9.5z"/>
		<path id="XMLID_698_" class="st4" d="M158.6,13c0-2.6,1.7-3.7,3.5-3.7c1.7,0,3.3,0.7,3.3,3.4v0.9h-4.6c0.1,0.8,0.6,1.4,1.9,1.4
			c1.2,0,1.9-0.4,2.3-0.8V16c-0.4,0.4-1.2,0.8-2.7,0.8C160.1,16.7,158.6,15.6,158.6,13z M163.4,12.3L163.4,12.3
			c0-0.9-0.4-1.4-1.3-1.4c-0.8,0-1.3,0.7-1.3,1.4H163.4z"/>
		<path id="XMLID_695_" class="st4" d="M166.2,14.7c0-1.4,1-2,3-2.3l1-0.2c0-0.9-0.5-1.2-1.4-1.2c-1,0-2,0.5-2.3,1.2v-2
			c0.3-0.4,1.1-0.9,2.7-0.9c2.1,0,3.2,0.9,3.2,3v4.2h-1.8l-0.2-0.6c-0.2,0.4-0.8,0.8-1.8,0.8C167.2,16.7,166.2,16.1,166.2,14.7z
			 M170.3,13.5l-0.8,0.2c-0.9,0.2-1.3,0.4-1.3,0.9c0,0.5,0.3,0.7,0.9,0.7c0.6,0,1-0.2,1.2-0.5V13.5z"/>
		<path id="XMLID_693_" class="st4" d="M173.7,16.2v-1.8c0.5,0.4,1.2,0.8,2.1,0.8c0.9,0,1.2-0.3,1.2-0.6c0-0.4-0.2-0.5-1-0.6
			l-0.4-0.1c-1.5-0.2-2.1-0.9-2.1-2.2c0-1.2,0.9-2.3,3-2.3c1.1,0,1.9,0.3,2.2,0.6v1.8c-0.5-0.5-1.2-0.8-2.2-0.8
			c-0.8,0-1.1,0.2-1.1,0.6c0,0.4,0.2,0.5,0.9,0.6l0.4,0.1c1.6,0.2,2.3,0.8,2.3,2.1c0,1.2-0.9,2.4-3.1,2.4
			C174.8,16.7,174.1,16.5,173.7,16.2z"/>
		<path id="XMLID_691_" class="st4" d="M180.1,13.9V9.5h2.1v4c0,1.2,0.2,1.6,1,1.6c0.6,0,1-0.3,1.1-0.6v-5h2.1v7h-1.9l-0.1-0.6
			c-0.3,0.4-1,0.8-1.9,0.8C180.8,16.7,180.1,15.8,180.1,13.9z"/>
		<path id="XMLID_689_" class="st4" d="M188,9.5h1.7l0.2,0.9c0.1-0.7,0.7-1.1,1.4-1.1c0.4,0,0.6,0.1,0.7,0.2v1.9
			c-0.2-0.1-0.4-0.2-0.8-0.2c-0.5,0-0.9,0.2-1.1,0.6v4.8H188V9.5z"/>
		<path id="XMLID_686_" class="st4" d="M192.5,13c0-2.6,1.7-3.7,3.5-3.7c1.7,0,3.3,0.7,3.3,3.4v0.9h-4.6c0.1,0.8,0.6,1.4,1.9,1.4
			c1.2,0,1.9-0.4,2.3-0.8V16c-0.4,0.4-1.2,0.8-2.7,0.8C193.9,16.7,192.5,15.6,192.5,13z M197.3,12.3L197.3,12.3
			c0-0.9-0.4-1.4-1.3-1.4c-0.8,0-1.3,0.7-1.3,1.4H197.3z"/>
		<path id="XMLID_683_" class="st4" d="M203.2,13c0-2.6,1.7-3.7,3.7-3.7c2.1,0,3.5,1.1,3.5,3.7c0,2.6-1.7,3.7-3.7,3.7
			C204.7,16.7,203.2,15.6,203.2,13z M208.3,13c0-1.2-0.5-2-1.5-2c-1,0-1.4,0.8-1.4,2c0,1.2,0.5,2,1.4,2
			C207.8,15,208.3,14.3,208.3,13z"/>
		<path id="XMLID_681_" class="st4" d="M211.9,11.2h-0.8v-0.7l0.8-0.7c-0.1-0.2-0.2-0.6-0.2-1c0-1.3,1.2-2,2.5-2
			c1,0,1.5,0.2,1.8,0.4v1.7c-0.3-0.4-0.8-0.5-1.3-0.5c-0.6,0-0.9,0.2-0.9,0.7c0,0.2,0.1,0.4,0.2,0.5h1.4v1.6h-1.3v5.4h-2.1V11.2z"/>
		<path id="XMLID_678_" class="st4" d="M219.1,13c0-2.6,1.7-3.7,3.5-3.7c1.7,0,3.3,0.7,3.3,3.4v0.9h-4.6c0.1,0.8,0.6,1.4,1.9,1.4
			c1.2,0,1.9-0.4,2.3-0.8V16c-0.4,0.4-1.2,0.8-2.7,0.8C220.5,16.7,219.1,15.6,219.1,13z M223.9,12.3L223.9,12.3
			c0-0.9-0.4-1.4-1.3-1.4c-0.8,0-1.3,0.7-1.3,1.4H223.9z"/>
		<path id="XMLID_675_" class="st4" d="M227.4,11.1h-0.8v-0.7l0.8-0.7c-0.1-0.2-0.2-0.6-0.2-1c0-1.3,1.2-2,2.3-2
			c0.9,0,1.3,0.2,1.5,0.4v1.7c-0.2-0.3-0.5-0.5-1-0.5c-0.4,0-0.8,0.2-0.8,0.7c0,0.2,0.1,0.4,0.2,0.5h2.2c-0.1-0.2-0.2-0.5-0.2-0.8
			c0-1.3,1.1-2,2.4-2c0.8,0,1.2,0.2,1.4,0.4v1.7c-0.2-0.3-0.5-0.5-1-0.5c-0.5,0-0.8,0.2-0.8,0.7c0,0.2,0.1,0.4,0.2,0.5h4.4v6.9h-2.1
			v-5.4h-2.1v5.4h-2.1v-5.4h-2.1v5.4h-2.1V11.1z M235.9,7.9c0-0.6,0.4-1,1.1-1c0.7,0,1.1,0.4,1.1,1c0,0.6-0.4,1-1.1,1
			C236.3,8.9,235.9,8.5,235.9,7.9z"/>
		<path id="XMLID_673_" class="st4" d="M239.2,13c0-2.5,1.7-3.7,3.6-3.7c1,0,1.8,0.3,2.1,0.6v1.9c-0.5-0.5-1-0.7-1.8-0.7
			c-1.1,0-1.7,0.7-1.7,2c0,1.2,0.6,2,1.7,2c0.8,0,1.4-0.3,1.9-0.8V16c-0.3,0.3-1.1,0.7-2.2,0.7C240.6,16.7,239.2,15.6,239.2,13z"/>
		<path id="XMLID_670_" class="st4" d="M245.8,14.7c0-1.4,1-2,3-2.3l1-0.2c0-0.9-0.5-1.2-1.4-1.2c-1,0-2,0.5-2.3,1.2v-2
			c0.3-0.4,1.1-0.9,2.7-0.9c2.1,0,3.2,0.9,3.2,3v4.2h-1.8l-0.2-0.6c-0.2,0.4-0.8,0.8-1.8,0.8C246.8,16.7,245.8,16.1,245.8,14.7z
			 M249.9,13.5l-0.8,0.2c-0.9,0.2-1.3,0.4-1.3,0.9c0,0.5,0.3,0.7,0.9,0.7c0.6,0,1-0.2,1.2-0.5V13.5z"/>
		<path id="XMLID_668_" class="st4" d="M253.1,13c0-2.5,1.7-3.7,3.6-3.7c1,0,1.8,0.3,2.1,0.6v1.9c-0.5-0.5-1-0.7-1.8-0.7
			c-1.1,0-1.7,0.7-1.7,2c0,1.2,0.6,2,1.7,2c0.8,0,1.4-0.3,1.9-0.8V16c-0.3,0.3-1.1,0.7-2.2,0.7C254.5,16.7,253.1,15.6,253.1,13z"/>
		<path id="XMLID_666_" class="st4" d="M259.7,18.8v-1.7c0.3,0.3,0.7,0.5,1.2,0.5c0.5,0,0.9-0.2,1.3-0.9l-2.8-7.2h2.3l1.5,4.6
			l1.2-4.6h2l-2,6.6c-0.5,1.7-1.4,3-3.3,3C260.4,19.2,259.9,19,259.7,18.8z"/>
		<path id="XMLID_663_" class="st4" d="M267.1,10.9c0-0.7,0.5-1.2,1.2-1.2c0.7,0,1.2,0.5,1.2,1.2c0,0.7-0.5,1.2-1.2,1.2
			C267.7,12.1,267.1,11.6,267.1,10.9z M267.1,15.5c0-0.7,0.5-1.2,1.2-1.2c0.7,0,1.2,0.5,1.2,1.2c0,0.7-0.5,1.2-1.2,1.2
			C267.7,16.7,267.1,16.2,267.1,15.5z"/>
		<path id="XMLID_661_" class="st4" d="M122.4,24.8H120V23h7v1.8h-2.4v6.9h-2.2V24.8z"/>
		<path id="XMLID_658_" class="st4" d="M126.9,28.1c0-2.6,1.7-3.7,3.7-3.7c2.1,0,3.5,1.1,3.5,3.7c0,2.6-1.7,3.7-3.7,3.7
			C128.4,31.9,126.9,30.7,126.9,28.1z M132,28.1c0-1.2-0.5-2-1.5-2c-1,0-1.4,0.8-1.4,2c0,1.2,0.5,2,1.4,2
			C131.5,30.2,132,29.4,132,28.1z"/>
		<path id="XMLID_656_" class="st4" d="M135.7,29.6v-3.4h-0.8v-0.7l0.7-0.9l1.3-1.7h1v1.7h1.7v1.6h-1.7v3.2c0,0.5,0.2,0.8,0.6,0.8
			c0.5,0,0.8-0.2,1-0.6v1.7c-0.2,0.3-0.7,0.6-1.6,0.6C136.3,31.9,135.7,31,135.7,29.6z"/>
		<path id="XMLID_653_" class="st4" d="M140.2,29.8c0-1.4,1-2,3-2.3l1-0.2c0-0.9-0.5-1.2-1.4-1.2c-1,0-2,0.5-2.3,1.2v-2
			c0.3-0.4,1.1-0.9,2.7-0.9c2.1,0,3.2,0.9,3.2,3v4.2h-1.8l-0.2-0.6c-0.2,0.4-0.8,0.8-1.8,0.8C141.2,31.9,140.2,31.2,140.2,29.8z
			 M144.3,28.6l-0.8,0.2c-0.9,0.2-1.3,0.4-1.3,0.9c0,0.5,0.3,0.7,0.9,0.7c0.6,0,1-0.2,1.2-0.5V28.6z"/>
		<path id="XMLID_651_" class="st4" d="M147.8,29.9v-7.8h2.1v7.5c0,0.4,0.1,0.5,0.4,0.5c0.3,0,0.5-0.1,0.6-0.3v1.6
			c-0.2,0.2-0.6,0.4-1.3,0.4C148.5,31.9,147.8,31.2,147.8,29.9z"/>
		<path id="XMLID_649_" class="st4" d="M154.9,31.2v-2.1c0.4,0.5,1.3,1,2.4,1c1,0,1.4-0.4,1.4-1c0-0.5-0.3-0.7-1.2-0.9l-0.3-0.1
			c-1.4-0.3-2.4-1.1-2.4-2.6c0-1.7,1.3-2.8,3.3-2.8c1.3,0,2.1,0.3,2.4,0.6v2.1c-0.4-0.5-1.3-1-2.4-1c-0.8,0-1.2,0.3-1.2,0.8
			c0,0.5,0.2,0.7,1,0.9l0.3,0.1c1.5,0.3,2.5,0.9,2.5,2.5c0,1.7-1.2,2.9-3.5,2.9C156,31.9,155.2,31.5,154.9,31.2z"/>
		<path id="XMLID_647_" class="st4" d="M161.7,28.1c0-2.5,1.7-3.7,3.6-3.7c1,0,1.8,0.3,2.1,0.6v1.9c-0.5-0.5-1-0.7-1.8-0.7
			c-1.1,0-1.7,0.7-1.7,2c0,1.2,0.6,2,1.7,2c0.8,0,1.4-0.3,1.9-0.8v1.8c-0.3,0.3-1.1,0.7-2.2,0.7C163.1,31.9,161.7,30.7,161.7,28.1z"
			/>
		<path id="XMLID_644_" class="st4" d="M168.3,28.1c0-2.6,1.7-3.7,3.7-3.7c2.1,0,3.5,1.1,3.5,3.7c0,2.6-1.7,3.7-3.7,3.7
			C169.7,31.9,168.3,30.7,168.3,28.1z M173.3,28.1c0-1.2-0.5-2-1.5-2c-1,0-1.4,0.8-1.4,2c0,1.2,0.5,2,1.4,2
			C172.9,30.2,173.3,29.4,173.3,28.1z"/>
		<path id="XMLID_642_" class="st4" d="M176.6,24.6h1.7l0.2,0.9c0.1-0.7,0.7-1.1,1.4-1.1c0.4,0,0.6,0.1,0.7,0.2v1.9
			c-0.2-0.1-0.4-0.2-0.8-0.2c-0.5,0-0.9,0.2-1.1,0.6v4.8h-2.1V24.6z"/>
		<path id="XMLID_639_" class="st4" d="M181.1,28.1c0-2.6,1.7-3.7,3.5-3.7c1.7,0,3.3,0.7,3.3,3.4v0.9h-4.6c0.1,0.8,0.6,1.4,1.9,1.4
			c1.2,0,1.9-0.4,2.3-0.8v1.7c-0.4,0.4-1.2,0.8-2.7,0.8C182.5,31.9,181.1,30.7,181.1,28.1z M185.9,27.5L185.9,27.5
			c0-0.9-0.4-1.4-1.3-1.4c-0.8,0-1.3,0.7-1.3,1.4H185.9z"/>
		<path id="XMLID_637_" class="st4" d="M191.8,27.8c0-2.2,1.1-4.3,2.7-5.1h1.8c-1.6,0.9-2.7,2.7-2.7,5.1c0,2.6,1.2,4.5,2.6,5.4h-1.8
			C192.9,32.3,191.8,30.1,191.8,27.8z"/>
		<path id="XMLID_635_" class="st4" d="M197.1,23h3c2.6,0,3.7,1.1,3.7,2.9c0,1.9-1.1,3.2-3.7,3.2h-0.4v-1.6h0.4
			c1.1,0,1.6-0.6,1.6-1.5c0-1-0.5-1.5-1.6-1.5h-0.7v7h-2.2V23z"/>
		<path id="XMLID_632_" class="st4" d="M206.6,23.9l-0.3-0.9h2.2c0.3,0.7,3.2,7.9,3.5,8.6h-2.2l-0.6-1.6h-3.1l-0.6,1.6h-2.1
			L206.6,23.9z M206.6,28.6h2l-0.8-2l-0.2-0.7l-0.2,0.7L206.6,28.6z"/>
		<path id="XMLID_630_" class="st4" d="M213,23.8l-0.6-0.8h2.6l3.6,5h0v-5h1.9v8.6h-1.7l-3.8-5.4h0v5.4H213V23.8z"/>
		<path id="XMLID_628_" class="st4" d="M221.9,31.2v-2.1c0.4,0.5,1.3,1,2.4,1c1,0,1.4-0.4,1.4-1c0-0.5-0.3-0.7-1.2-0.9l-0.3-0.1
			c-1.4-0.3-2.4-1.1-2.4-2.6c0-1.7,1.3-2.8,3.3-2.8c1.3,0,2.1,0.3,2.4,0.6v2.1c-0.4-0.5-1.3-1-2.4-1c-0.8,0-1.2,0.3-1.2,0.8
			c0,0.5,0.2,0.7,1,0.9l0.3,0.1c1.5,0.3,2.5,0.9,2.5,2.5c0,1.7-1.2,2.9-3.5,2.9C223,31.9,222.3,31.5,221.9,31.2z"/>
		<path id="XMLID_626_" class="st4" d="M228.9,31.2v-2.1c0.4,0.5,1.3,1,2.4,1c1,0,1.4-0.4,1.4-1c0-0.5-0.3-0.7-1.2-0.9l-0.3-0.1
			c-1.4-0.3-2.4-1.1-2.4-2.6c0-1.7,1.3-2.8,3.3-2.8c1.3,0,2.1,0.3,2.4,0.6v2.1c-0.4-0.5-1.3-1-2.4-1c-0.8,0-1.2,0.3-1.2,0.8
			c0,0.5,0.2,0.7,1,0.9l0.3,0.1c1.5,0.3,2.5,0.9,2.5,2.5c0,1.7-1.2,2.9-3.5,2.9C230,31.9,229.2,31.5,228.9,31.2z"/>
		<path id="XMLID_624_" class="st4" d="M237.7,28c0-2.5-1.2-4.4-2.6-5.3h1.8c1.6,0.8,2.7,3,2.7,5.3c0,2.2-1.1,4.4-2.7,5.2H235
			C236.6,32.3,237.7,30.4,237.7,28z"/>
		<path id="XMLID_622_" class="st4" d="M244.2,23.9c-0.2,0.2-0.6,0.2-1.1,0.2v-1c0.7,0,1.3-0.2,1.7-0.7h0.7v5h-1.2V23.9z"/>
	</g>
</g>
<g id="XMLID_466_">
	<g id="XMLID_610_">
		<g id="XMLID_612_">
			<path id="XMLID_613_" class="st5" d="M13.6,60.9c0-1.9,1.3-2.9,2.7-2.9c1.7,0,2.7,1,2.7,2.9c0,1.8-1.3,2.9-2.7,2.9
				C14.7,63.8,13.6,62.8,13.6,60.9z M18,60.9c0-1.3-0.7-2-1.6-2c-0.9,0-1.7,0.7-1.7,2c0,1.3,0.7,2,1.7,2C17.3,62.9,18,62.2,18,60.9z
				"/>
		</g>
	</g>
	<g id="XMLID_599_">
		<g id="XMLID_601_">
			<path id="XMLID_604_" class="st5" d="M13.8,83.8h2.1v0.9h-2.1V83.8z"/>
			<path id="XMLID_602_" class="st5" d="M16.7,86.6l1.7-2.3c0.3-0.4,0.6-0.9,0.6-1.4c0-0.6-0.3-0.9-0.9-0.9c-0.5,0-1.1,0.3-1.4,0.7
				v-1c0.3-0.3,0.8-0.6,1.6-0.6c1.3,0,1.8,0.7,1.8,1.7c0,0.9-0.6,1.6-1.1,2.3l-0.5,0.7h1.6v1h-3.4V86.6z"/>
		</g>
	</g>
	<g id="XMLID_588_">
		<g id="XMLID_590_">
			<path id="XMLID_593_" class="st5" d="M13.8,106.8h2.1v0.9h-2.1V106.8z"/>
			<path id="XMLID_591_" class="st5" d="M19.2,108.6h-2.7v-0.1l1.6-4.3h1l-1.2,3.4h1.3v-2h1v2h0.6v1h-0.6v1.1h-1V108.6z"/>
		</g>
	</g>
	<g id="XMLID_575_">
		<g id="XMLID_577_">
			<path id="XMLID_581_" class="st5" d="M13.8,129.8h2.1v0.9h-2.1V129.8z"/>
			<path id="XMLID_578_" class="st5" d="M16.7,130.7c0-1.9,1.2-3.1,2.1-3.5h1.4v0c-1,0.4-1.8,1-2.2,1.9c0.2-0.1,0.5-0.2,0.9-0.2
				c1.1,0,1.8,0.7,1.8,1.9c0,1.1-0.8,2-2,2S16.7,131.9,16.7,130.7z M19.7,130.8c0-0.6-0.3-1.1-0.9-1.1c-0.5,0-0.7,0.2-0.9,0.4
				c0,0.2,0,0.4,0,0.6c0,0.7,0.3,1.1,0.9,1.1S19.7,131.4,19.7,130.8z"/>
		</g>
	</g>
	<g id="XMLID_560_">
		<g id="XMLID_562_">
			<path id="XMLID_567_" class="st5" d="M13.8,152.7h2.1v0.9h-2.1V152.7z"/>
			<path id="XMLID_563_" class="st5" d="M16.7,154.2c0-0.7,0.4-1.1,0.9-1.3c-0.4-0.2-0.8-0.6-0.8-1.3c0-1,0.7-1.6,1.9-1.6
				c1.1,0,1.8,0.6,1.8,1.6c0,0.6-0.4,1-0.8,1.2c0.5,0.2,0.9,0.6,0.9,1.4c0,0.9-0.7,1.6-2,1.6S16.7,155.1,16.7,154.2z M19.6,154.1
				c0-0.5-0.3-0.8-0.9-0.8c-0.6,0-0.9,0.3-0.9,0.8c0,0.5,0.3,0.8,0.9,0.8C19.3,154.9,19.6,154.6,19.6,154.1z M19.5,151.7
				c0-0.5-0.3-0.8-0.8-0.8c-0.5,0-0.8,0.3-0.8,0.8s0.3,0.8,0.8,0.8C19.2,152.5,19.5,152.2,19.5,151.7z"/>
		</g>
	</g>
	<g id="XMLID_543_">
		<g id="XMLID_545_">
			<path id="XMLID_551_" class="st5" d="M13.8,175.7h2.1v0.9h-2.1V175.7z"/>
			<path id="XMLID_549_" class="st5" d="M17.8,174.5c-0.2,0.2-0.7,0.3-1.2,0.3v-0.9c0.8,0,1.4-0.2,1.8-0.7h0.5v5.5h-1V174.5z"/>
			<path id="XMLID_546_" class="st5" d="M19.7,175.9c0-1.9,1.3-2.9,2.7-2.9c1.7,0,2.7,1,2.7,2.9c0,1.8-1.3,2.9-2.7,2.9
				C20.8,178.8,19.7,177.8,19.7,175.9z M24.1,175.9c0-1.3-0.7-2-1.6-2c-0.9,0-1.7,0.7-1.7,2c0,1.3,0.7,2,1.7,2
				C23.4,177.9,24.1,177.2,24.1,175.9z"/>
		</g>
	</g>
	<g id="XMLID_528_">
		<g id="XMLID_530_">
			<path id="XMLID_535_" class="st5" d="M13.8,198.7h2.1v0.9h-2.1V198.7z"/>
			<path id="XMLID_533_" class="st5" d="M17.8,197.5c-0.2,0.2-0.7,0.3-1.2,0.3v-0.9c0.8,0,1.4-0.2,1.8-0.7h0.5v5.5h-1V197.5z"/>
			<path id="XMLID_531_" class="st5" d="M19.8,201.6l1.7-2.3c0.3-0.4,0.6-0.9,0.6-1.4c0-0.6-0.3-0.9-0.9-0.9c-0.5,0-1.1,0.3-1.4,0.7
				v-1c0.3-0.3,0.8-0.6,1.6-0.6c1.3,0,1.8,0.7,1.8,1.7c0,0.9-0.6,1.6-1.1,2.3l-0.5,0.7h1.6v1h-3.4V201.6z"/>
		</g>
	</g>
	<g id="XMLID_513_">
		<g id="XMLID_515_">
			<path id="XMLID_520_" class="st5" d="M13.8,221.7h2.1v0.9h-2.1V221.7z"/>
			<path id="XMLID_518_" class="st5" d="M17.8,220.5c-0.2,0.2-0.7,0.3-1.2,0.3v-0.9c0.8,0,1.4-0.2,1.8-0.7h0.5v5.5h-1V220.5z"/>
			<path id="XMLID_516_" class="st5" d="M22.2,223.6h-2.7v-0.1l1.6-4.3h1l-1.2,3.4h1.3v-2h1v2h0.6v1h-0.6v1.1h-1V223.6z"/>
		</g>
	</g>
	<g id="XMLID_496_">
		<g id="XMLID_498_">
			<path id="XMLID_504_" class="st5" d="M13.8,244.7h2.1v0.9h-2.1V244.7z"/>
			<path id="XMLID_502_" class="st5" d="M17.8,243.5c-0.2,0.2-0.7,0.3-1.2,0.3v-0.9c0.8,0,1.4-0.2,1.8-0.7h0.5v5.5h-1V243.5z"/>
			<path id="XMLID_499_" class="st5" d="M19.7,245.7c0-1.9,1.2-3.1,2.1-3.5h1.4v0c-1,0.4-1.8,1-2.2,1.9c0.2-0.1,0.5-0.2,0.9-0.2
				c1.1,0,1.8,0.7,1.8,1.9c0,1.1-0.8,2-2,2S19.7,246.9,19.7,245.7z M22.7,245.8c0-0.6-0.3-1.1-0.9-1.1c-0.5,0-0.7,0.2-0.9,0.4
				c0,0.2,0,0.4,0,0.6c0,0.7,0.3,1.1,0.9,1.1S22.7,246.4,22.7,245.8z"/>
		</g>
	</g>
	<g id="XMLID_477_">
		<g id="XMLID_479_">
			<path id="XMLID_486_" class="st5" d="M13.8,264.9h2.1v0.9h-2.1V264.9z"/>
			<path id="XMLID_484_" class="st5" d="M17.8,263.7c-0.2,0.2-0.7,0.3-1.2,0.3v-0.9c0.8,0,1.4-0.2,1.8-0.7h0.5v5.5h-1V263.7z"/>
			<path id="XMLID_480_" class="st5" d="M19.7,266.4c0-0.7,0.4-1.1,0.9-1.3c-0.4-0.2-0.8-0.6-0.8-1.3c0-1,0.7-1.6,1.9-1.6
				c1.1,0,1.8,0.6,1.8,1.6c0,0.6-0.4,1-0.8,1.2c0.5,0.2,0.9,0.6,0.9,1.4c0,0.9-0.7,1.6-2,1.6S19.7,267.3,19.7,266.4z M22.6,266.3
				c0-0.5-0.3-0.8-0.9-0.8c-0.6,0-0.9,0.3-0.9,0.8c0,0.5,0.3,0.8,0.9,0.8C22.3,267.1,22.6,266.8,22.6,266.3z M22.5,263.9
				c0-0.5-0.3-0.8-0.8-0.8c-0.5,0-0.8,0.3-0.8,0.8s0.3,0.8,0.8,0.8C22.2,264.6,22.5,264.4,22.5,263.9z"/>
		</g>
	</g>
	<line id="XMLID_476_" class="st6" x1="30.6" y1="155.7" x2="27.9" y2="155.7"/>
	<line id="XMLID_475_" class="st6" x1="30.6" y1="178.7" x2="27.9" y2="178.7"/>
	<line id="XMLID_474_" class="st6" x1="30.6" y1="201.7" x2="27.9" y2="201.7"/>
	<line id="XMLID_473_" class="st6" x1="30.6" y1="224.7" x2="27.9" y2="224.7"/>
	<line id="XMLID_472_" class="st6" x1="30.6" y1="247.7" x2="27.9" y2="247.7"/>
	<line id="XMLID_471_" class="st6" x1="30.6" y1="267.9" x2="27.9" y2="267.9"/>
	<line id="XMLID_470_" class="st6" x1="30.6" y1="132.1" x2="27.9" y2="132.1"/>
	<line id="XMLID_469_" class="st6" x1="30.6" y1="109.7" x2="27.9" y2="109.7"/>
	<line id="XMLID_468_" class="st6" x1="30.6" y1="87.2" x2="27.9" y2="87.2"/>
	<line id="XMLID_467_" class="st6" x1="30.6" y1="66" x2="27.9" y2="66"/>
</g>
<polyline id="XMLID_465_" class="st7" points="52.5,66.3 85.7,131.9 119.5,158.2 152.7,166.6 186.9,169 218.4,179.2 253.5,186.2 "/>
<rect id="XMLID_464_" x="249.6" y="182.6" transform="matrix(0.6967 -0.7174 0.7174 0.6967 -56.6805 237.8919)" class="st8" width="6.8" height="6.8"/>
<rect id="XMLID_463_" x="182.1" y="165.8" transform="matrix(0.6967 -0.7174 0.7174 0.6967 -65.1365 184.436)" class="st8" width="6.8" height="6.8"/>
<rect id="XMLID_462_" x="149.1" y="163.5" transform="matrix(0.6966 -0.7174 0.7174 0.6966 -73.4893 160.0371)" class="st8" width="6.8" height="6.8"/>
<rect id="XMLID_461_" x="115.2" y="154.7" transform="matrix(0.6966 -0.7174 0.7174 0.6966 -77.4044 133.0793)" class="st8" width="6.8" height="6.8"/>
<rect id="XMLID_460_" x="81.5" y="128" transform="matrix(0.6967 -0.7174 0.7174 0.6967 -68.5122 100.7823)" class="st8" width="6.8" height="6.8"/>
<polyline id="XMLID_459_" class="st9" points="253.5,245.7 219.5,236.4 186.5,223.1 152.2,213.4 118.4,182.4 85.7,146 50.9,65.1 "/>
<rect id="XMLID_458_" x="47.9" y="62.3" class="st10" width="8" height="8"/>
<rect id="XMLID_457_" x="81.2" y="142.1" class="st10" width="8" height="8"/>
<rect id="XMLID_456_" x="115.2" y="178.3" class="st10" width="8" height="8"/>
<rect id="XMLID_455_" x="148" y="208.6" class="st10" width="8" height="8"/>
<rect id="XMLID_454_" x="182.2" y="219.1" class="st10" width="8" height="8"/>
<rect id="XMLID_453_" x="215.4" y="231.7" class="st10" width="8" height="8"/>
<rect id="XMLID_452_" x="249" y="241.9" class="st10" width="8" height="8"/>
<polyline id="XMLID_451_" class="st11" points="252.2,238.9 219,229.1 186.2,226 151.5,219 83.9,150.8 51.9,68.8 "/>
<g id="XMLID_448_">
	<line id="XMLID_450_" class="st12" x1="254.6" y1="236.6" x2="249.2" y2="241.4"/>
	<line id="XMLID_449_" class="st12" x1="249.2" y1="236.5" x2="254.6" y2="241.3"/>
</g>
<g id="XMLID_445_">
	<line id="XMLID_447_" class="st12" x1="222.1" y1="226.6" x2="216.7" y2="231.4"/>
	<line id="XMLID_446_" class="st12" x1="216.7" y1="226.5" x2="222.1" y2="231.3"/>
</g>
<g id="XMLID_442_">
	<line id="XMLID_444_" class="st12" x1="188.8" y1="223.6" x2="183.4" y2="228.4"/>
	<line id="XMLID_443_" class="st12" x1="183.4" y1="223.5" x2="188.8" y2="228.3"/>
</g>
<g id="XMLID_439_">
	<line id="XMLID_441_" class="st12" x1="155.3" y1="216.9" x2="149.9" y2="221.7"/>
	<line id="XMLID_440_" class="st12" x1="149.9" y1="216.8" x2="155.3" y2="221.6"/>
</g>
<g id="XMLID_436_">
	<line id="XMLID_438_" class="st12" x1="121.2" y1="185.3" x2="115.9" y2="190.1"/>
	<line id="XMLID_437_" class="st12" x1="115.9" y1="185.2" x2="121.2" y2="190"/>
</g>
<g id="XMLID_433_">
	<line id="XMLID_435_" class="st12" x1="86.3" y1="148.2" x2="81" y2="153"/>
	<line id="XMLID_434_" class="st12" x1="81" y1="148.1" x2="86.3" y2="152.9"/>
</g>
<line id="XMLID_432_" class="st13" x1="65.4" y1="66" x2="65.4" y2="61.7"/>
<line id="XMLID_431_" class="st13" x1="97.1" y1="66" x2="97.1" y2="61.7"/>
<line id="XMLID_430_" class="st13" x1="132.2" y1="66" x2="132.2" y2="61.7"/>
<line id="XMLID_429_" class="st13" x1="163.9" y1="66" x2="163.9" y2="61.7"/>
<line id="XMLID_428_" class="st13" x1="200.2" y1="66" x2="200.2" y2="61.7"/>
<line id="XMLID_427_" class="st13" x1="234" y1="66" x2="234" y2="61.7"/>
<g id="XMLID_398_">
	<g id="XMLID_400_">
		<path id="XMLID_412_" class="st5" d="M40.4,54.9h1l0.6,2.8l0.9-2.8h0.4l1,2.8l0.6-2.8H46l-1.1,4.7h-0.6l-1-2.8l-1,2.8h-0.6
			L40.4,54.9z"/>
		<path id="XMLID_409_" class="st5" d="M46.4,57.2c0-1.7,1-2.5,2-2.5c1,0,1.9,0.5,1.9,2.2v0.6h-2.9c0,0.7,0.4,1.2,1.2,1.2
			c0.8,0,1.2-0.3,1.4-0.7v1c-0.2,0.3-0.7,0.6-1.5,0.6C47.3,59.7,46.4,58.9,46.4,57.2z M49.3,56.8L49.3,56.8c0-0.8-0.3-1.2-0.9-1.2
			c-0.6,0-0.9,0.6-0.9,1.2H49.3z"/>
		<path id="XMLID_406_" class="st5" d="M50.9,57.2c0-1.7,1-2.5,2-2.5c1,0,1.9,0.5,1.9,2.2v0.6h-2.9c0,0.7,0.4,1.2,1.2,1.2
			c0.8,0,1.2-0.3,1.4-0.7v1c-0.2,0.3-0.7,0.6-1.5,0.6C51.7,59.7,50.9,58.9,50.9,57.2z M53.8,56.8L53.8,56.8c0-0.8-0.3-1.2-0.9-1.2
			c-0.6,0-0.9,0.6-0.9,1.2H53.8z"/>
		<path id="XMLID_404_" class="st5" d="M57.1,57.4c-0.3,0.3-0.5,0.4-0.5,0.4v1.7h-1v-6.4h1v3.6c0,0,1-0.8,1.6-1.9h1
			c-0.4,0.6-0.9,1.3-1.4,1.8l1.7,2.9h-1.2L57.1,57.4z"/>
		<path id="XMLID_401_" class="st5" d="M59.8,56.7c0-2,1.3-3,2.6-3c1.6,0,2.6,1.1,2.6,3c0,1.9-1.2,3-2.6,3
			C60.9,59.7,59.8,58.6,59.8,56.7z M64.1,56.7c0-1.4-0.7-2.1-1.6-2.1c-0.9,0-1.6,0.7-1.6,2.1c0,1.4,0.7,2.1,1.6,2.1
			C63.4,58.8,64.1,58.1,64.1,56.7z"/>
	</g>
</g>
<g id="XMLID_371_">
	<g id="XMLID_373_">
		<path id="XMLID_384_" class="st5" d="M75.1,54.9h1l0.6,2.8l0.9-2.8h0.4l1,2.8l0.6-2.8h0.9l-1.1,4.7h-0.6l-1-2.8l-1,2.8h-0.6
			L75.1,54.9z"/>
		<path id="XMLID_381_" class="st5" d="M81.1,57.2c0-1.7,1-2.5,2-2.5c1,0,1.9,0.5,1.9,2.2v0.6h-2.9c0,0.7,0.4,1.2,1.2,1.2
			c0.8,0,1.2-0.3,1.4-0.7v1c-0.2,0.3-0.7,0.6-1.5,0.6C81.9,59.7,81.1,58.9,81.1,57.2z M84,56.8L84,56.8c0-0.8-0.3-1.2-0.9-1.2
			c-0.6,0-0.9,0.6-0.9,1.2H84z"/>
		<path id="XMLID_378_" class="st5" d="M85.5,57.2c0-1.7,1-2.5,2-2.5c1,0,1.9,0.5,1.9,2.2v0.6h-2.9c0,0.7,0.4,1.2,1.2,1.2
			c0.8,0,1.2-0.3,1.4-0.7v1c-0.2,0.3-0.7,0.6-1.5,0.6C86.4,59.7,85.5,58.9,85.5,57.2z M88.4,56.8L88.4,56.8c0-0.8-0.3-1.2-0.9-1.2
			c-0.6,0-0.9,0.6-0.9,1.2H88.4z"/>
		<path id="XMLID_376_" class="st5" d="M91.7,57.4c-0.3,0.3-0.5,0.4-0.5,0.4v1.7h-1v-6.4h1v3.6c0,0,1-0.8,1.6-1.9h1
			c-0.4,0.6-0.9,1.3-1.4,1.8l1.7,2.9H93L91.7,57.4z"/>
		<path id="XMLID_374_" class="st5" d="M95.5,55.2c-0.2,0.2-0.7,0.3-1.2,0.3v-0.9c0.7,0,1.3-0.2,1.7-0.8h0.5v5.8h-1V55.2z"/>
	</g>
</g>
<g id="XMLID_344_">
	<g id="XMLID_346_">
		<path id="XMLID_357_" class="st5" d="M110.8,56h1l0.6,2.8l0.9-2.8h0.4l1,2.8l0.6-2.8h0.9l-1.1,4.7h-0.6l-1-2.8l-1,2.8H112
			L110.8,56z"/>
		<path id="XMLID_354_" class="st5" d="M116.8,58.4c0-1.7,1-2.5,2-2.5c1,0,1.9,0.5,1.9,2.2v0.6h-2.9c0,0.7,0.4,1.2,1.2,1.2
			c0.8,0,1.2-0.3,1.4-0.7v1c-0.2,0.3-0.7,0.6-1.5,0.6C117.6,60.8,116.8,60.1,116.8,58.4z M119.7,58L119.7,58c0-0.8-0.3-1.2-0.9-1.2
			c-0.6,0-0.9,0.6-0.9,1.2H119.7z"/>
		<path id="XMLID_351_" class="st5" d="M121.2,58.4c0-1.7,1-2.5,2-2.5c1,0,1.9,0.5,1.9,2.2v0.6h-2.9c0,0.7,0.4,1.2,1.2,1.2
			c0.8,0,1.2-0.3,1.4-0.7v1c-0.2,0.3-0.7,0.6-1.5,0.6C122.1,60.8,121.2,60.1,121.2,58.4z M124.1,58L124.1,58c0-0.8-0.3-1.2-0.9-1.2
			c-0.6,0-0.9,0.6-0.9,1.2H124.1z"/>
		<path id="XMLID_349_" class="st5" d="M127.4,58.6c-0.3,0.3-0.5,0.4-0.5,0.4v1.7h-1v-6.4h1v3.6c0,0,1-0.8,1.6-1.9h1
			c-0.4,0.6-0.9,1.3-1.4,1.8l1.7,2.9h-1.2L127.4,58.6z"/>
		<path id="XMLID_347_" class="st5" d="M130.3,60.6l1.6-2.4c0.3-0.5,0.6-0.9,0.6-1.5c0-0.6-0.3-1-0.9-1c-0.5,0-1.1,0.4-1.4,0.7v-1
			c0.2-0.3,0.8-0.6,1.5-0.6c1.2,0,1.7,0.7,1.7,1.8c0,0.9-0.6,1.7-1,2.4l-0.5,0.7h1.6v1h-3.3V60.6z"/>
	</g>
</g>
<g id="XMLID_317_">
	<g id="XMLID_319_">
		<path id="XMLID_330_" class="st5" d="M140.8,54.9h1l0.6,2.8l0.9-2.8h0.4l1,2.8l0.6-2.8h0.9l-1.1,4.7h-0.6l-1-2.8l-1,2.8h-0.6
			L140.8,54.9z"/>
		<path id="XMLID_327_" class="st5" d="M146.7,57.2c0-1.7,1-2.5,2-2.5c1,0,1.9,0.5,1.9,2.2v0.6h-2.9c0,0.7,0.4,1.2,1.2,1.2
			c0.8,0,1.2-0.3,1.4-0.7v1c-0.2,0.3-0.7,0.6-1.5,0.6C147.6,59.7,146.7,58.9,146.7,57.2z M149.7,56.8L149.7,56.8
			c0-0.8-0.3-1.2-0.9-1.2c-0.6,0-0.9,0.6-0.9,1.2H149.7z"/>
		<path id="XMLID_324_" class="st5" d="M151.2,57.2c0-1.7,1-2.5,2-2.5c1,0,1.9,0.5,1.9,2.2v0.6h-2.9c0,0.7,0.4,1.2,1.2,1.2
			c0.8,0,1.2-0.3,1.4-0.7v1c-0.2,0.3-0.7,0.6-1.5,0.6C152.1,59.7,151.2,58.9,151.2,57.2z M154.1,56.8L154.1,56.8
			c0-0.8-0.3-1.2-0.9-1.2c-0.6,0-0.9,0.6-0.9,1.2H154.1z"/>
		<path id="XMLID_322_" class="st5" d="M157.4,57.4c-0.3,0.3-0.5,0.4-0.5,0.4v1.7h-1v-6.4h1v3.6c0,0,1-0.8,1.6-1.9h1
			c-0.4,0.6-0.9,1.3-1.4,1.8l1.7,2.9h-1.2L157.4,57.4z"/>
		<path id="XMLID_320_" class="st5" d="M160.3,59.4v-1.1c0.2,0.2,0.5,0.4,1,0.4c0.9,0,1.2-0.4,1.2-1c0-0.5-0.3-0.9-1.1-0.9H161v-0.1
			l1.1-2.1h-1.9v-1h3.3v0.1l-1.2,2.3c0.7,0.1,1.2,0.5,1.2,1.6c0,0.9-0.6,1.9-2.2,1.9C160.8,59.7,160.5,59.6,160.3,59.4z"/>
	</g>
</g>
<g id="XMLID_315_">
	<text transform="matrix(0.9149 0 0 1 176.6023 59.5775)" class="st5 st14 st15">week4</text>
</g>
<g id="XMLID_288_">
	<g id="XMLID_290_">
		<path id="XMLID_301_" class="st5" d="M211,54.9h1l0.6,2.8l0.9-2.8h0.4l1,2.8l0.6-2.8h0.9l-1.1,4.7h-0.6l-1-2.8l-1,2.8h-0.6
			L211,54.9z"/>
		<path id="XMLID_298_" class="st5" d="M216.9,57.2c0-1.7,1-2.5,2-2.5c1,0,1.9,0.5,1.9,2.2v0.6H218c0,0.7,0.4,1.2,1.2,1.2
			c0.8,0,1.2-0.3,1.4-0.7v1c-0.2,0.3-0.7,0.6-1.5,0.6C217.8,59.7,216.9,58.9,216.9,57.2z M219.8,56.8L219.8,56.8
			c0-0.8-0.3-1.2-0.9-1.2c-0.6,0-0.9,0.6-0.9,1.2H219.8z"/>
		<path id="XMLID_295_" class="st5" d="M221.4,57.2c0-1.7,1-2.5,2-2.5c1,0,1.9,0.5,1.9,2.2v0.6h-2.9c0,0.7,0.4,1.2,1.2,1.2
			c0.8,0,1.2-0.3,1.4-0.7v1c-0.2,0.3-0.7,0.6-1.5,0.6C222.3,59.7,221.4,58.9,221.4,57.2z M224.3,56.8L224.3,56.8
			c0-0.8-0.3-1.2-0.9-1.2c-0.6,0-0.9,0.6-0.9,1.2H224.3z"/>
		<path id="XMLID_293_" class="st5" d="M227.6,57.4c-0.3,0.3-0.5,0.4-0.5,0.4v1.7h-1v-6.4h1v3.6c0,0,1-0.8,1.6-1.9h1
			c-0.4,0.6-0.9,1.3-1.4,1.8l1.7,2.9h-1.2L227.6,57.4z"/>
		<path id="XMLID_291_" class="st5" d="M230.4,59.4v-1.1c0.2,0.2,0.6,0.4,1.1,0.4c0.8,0,1.1-0.3,1.1-0.9c0-0.5-0.3-0.9-1.1-0.9
			c-0.4,0-0.8,0.1-1,0.2l0.1-3.5h2.9v1h-2l0,1.4c0.1,0,0.3-0.1,0.4-0.1c1.1,0,1.8,0.5,1.8,1.7c0,1.2-0.9,1.9-2.1,1.9
			C230.9,59.7,230.6,59.6,230.4,59.4z"/>
	</g>
</g>
<g id="XMLID_259_">
	<g id="XMLID_261_">
		<path id="XMLID_273_" class="st5" d="M241,54.9h1l0.6,2.8l0.9-2.8h0.4l1,2.8l0.6-2.8h0.9l-1.1,4.7h-0.6l-1-2.8l-1,2.8h-0.6
			L241,54.9z"/>
		<path id="XMLID_270_" class="st5" d="M246.9,57.2c0-1.7,1-2.5,2-2.5c1,0,1.9,0.5,1.9,2.2v0.6H248c0,0.7,0.4,1.2,1.2,1.2
			c0.8,0,1.2-0.3,1.4-0.7v1c-0.2,0.3-0.7,0.6-1.5,0.6C247.8,59.7,246.9,58.9,246.9,57.2z M249.8,56.8L249.8,56.8
			c0-0.8-0.3-1.2-0.9-1.2c-0.6,0-0.9,0.6-0.9,1.2H249.8z"/>
		<path id="XMLID_267_" class="st5" d="M251.4,57.2c0-1.7,1-2.5,2-2.5c1,0,1.9,0.5,1.9,2.2v0.6h-2.9c0,0.7,0.4,1.2,1.2,1.2
			c0.8,0,1.2-0.3,1.4-0.7v1c-0.2,0.3-0.7,0.6-1.5,0.6C252.3,59.7,251.4,58.9,251.4,57.2z M254.3,56.8L254.3,56.8
			c0-0.8-0.3-1.2-0.9-1.2c-0.6,0-0.9,0.6-0.9,1.2H254.3z"/>
		<path id="XMLID_265_" class="st5" d="M257.6,57.4c-0.3,0.3-0.5,0.4-0.5,0.4v1.7h-1v-6.4h1v3.6c0,0,1-0.8,1.6-1.9h1
			c-0.4,0.6-0.9,1.3-1.4,1.8l1.7,2.9h-1.2L257.6,57.4z"/>
		<path id="XMLID_262_" class="st5" d="M260.4,57.5c0-2.1,1.1-3.2,2-3.7h1.4v0.1c-0.9,0.5-1.7,1-2.1,2c0.2-0.1,0.5-0.2,0.8-0.2
			c1.1,0,1.7,0.8,1.7,2c0,1.2-0.8,2.1-2,2.1C261.1,59.7,260.4,58.8,260.4,57.5z M263.2,57.6c0-0.6-0.3-1.1-0.9-1.1
			c-0.4,0-0.7,0.2-0.9,0.4c0,0.2,0,0.4,0,0.6c0,0.7,0.3,1.2,0.9,1.2S263.2,58.3,263.2,57.6z"/>
	</g>
</g>
<g id="XMLID_142_">
	<g id="XMLID_255_">
		<g id="XMLID_257_">
			<path id="XMLID_258_" class="st10" d="M312.2,220.6c6.9,0,13.8,0,20.8,0c1.2,0,1.2-2,0-2c-6.9,0-13.8,0-20.8,0
				C311,218.6,311,220.6,312.2,220.6L312.2,220.6z"/>
		</g>
		<rect id="XMLID_256_" x="319.7" y="216.5" class="st10" width="5.8" height="6.3"/>
	</g>
	<g id="XMLID_143_">
		<g id="XMLID_162_">
			<g id="XMLID_164_">
				<g id="XMLID_165_">
					<path id="XMLID_209_" class="st10" d="M343.5,219.7h3.5c0.5,0,0.8-0.1,0.8-0.4c0-0.3-0.2-0.3-0.5-0.4c-1.7-0.1-2.1-0.6-2.1-1.7
						c0-1.1,0.7-1.8,2.3-1.8c1,0,1.4,0.1,1.8,0.3v1.4c-0.5-0.2-1.1-0.3-1.7-0.3c-0.5,0-0.7,0.1-0.7,0.4c0,0.3,0.2,0.3,0.5,0.4
						c1.7,0.1,2.1,0.6,2.1,1.7c0,1-0.6,1.8-2.4,1.8h-3.3"/>
					<path id="XMLID_206_" class="st10" d="M351.4,218.8c0,0.7,0.3,0.9,1.1,0.9c0.8,0,1.4-0.2,1.8-0.4v1.3c-0.6,0.3-1.4,0.4-2,0.4
						c-1.8,0-2.6-0.9-2.6-2.8s0.8-2.8,2.5-2.8c2.3,0,2.4,1.7,2.3,3.4H351.4z M351.4,217.8h1.5c0.1-0.6,0-1.1-0.7-1.1
						C351.7,216.7,351.4,217.1,351.4,217.8"/>
					<path id="XMLID_205_" class="st10" d="M356,215.6l0.2,0.4c0.6-0.4,1.3-0.5,1.9-0.5c1.4,0,1.9,0.8,1.9,1.8v3.7h-1.7v-3.4
						c0-0.4-0.1-0.7-0.6-0.7c-0.4,0-0.8,0.2-0.9,0.3v3.8H355v-5.3H356z"/>
					<path id="XMLID_202_" class="st10" d="M363.3,217.2c0-0.2-0.2-0.4-0.6-0.4c-0.7,0-1.4,0.2-1.9,0.4v-1.4
						c0.4-0.2,1.2-0.4,1.9-0.4c1.9,0,2.3,0.8,2.3,2v3.5h-1l-0.2-0.4c-0.4,0.3-0.9,0.6-1.6,0.6c-1.4,0-1.8-0.9-1.8-1.7
						c0-1.4,1.1-1.6,2-1.7l1-0.1V217.2z M362.6,218.6c-0.5,0.1-0.7,0.3-0.7,0.7c0,0.4,0.3,0.6,0.6,0.6c0.3,0,0.6-0.1,0.8-0.3v-1.2
						L362.6,218.6z"/>
					<path id="XMLID_199_" class="st10" d="M366.5,215.6l0.3,0.4c0.4-0.3,0.9-0.6,1.7-0.6c1.4,0,2.1,0.9,2.1,2.8
						c0,2-0.7,2.8-2.1,2.8c-0.6,0-1-0.1-1.3-0.3v2.9h-1.7v-8H366.5z M367.2,219.5c0,0,0.3,0.2,0.8,0.2c0.8,0,1-0.5,1-1.4
						c0-0.9-0.2-1.4-1-1.4c-0.4,0-0.8,0.2-0.8,0.2V219.5z"/>
					<path id="XMLID_198_" class="st10" d="M373.2,221c0,0-0.2,0-0.5,0c-0.9,0-1.6-0.5-1.6-1.5v-3.9h1.7v3.7c0,0.2,0.1,0.3,0.4,0.3
						V221z"/>
					<path id="XMLID_197_" class="st10" d="M374.6,215.6l0.2,0.4c0.6-0.4,1.3-0.5,1.9-0.5c1.4,0,1.9,0.8,1.9,1.8v3.7h-1.7v-3.4
						c0-0.4-0.1-0.7-0.6-0.7c-0.4,0-0.8,0.2-0.9,0.3v3.8h-1.7v-5.3H374.6z"/>
					<path id="XMLID_194_" class="st10" d="M380.6,218.8c0,0.7,0.3,0.9,1.1,0.9c0.8,0,1.4-0.2,1.8-0.4v1.3c-0.6,0.3-1.4,0.4-2,0.4
						c-1.8,0-2.6-0.9-2.6-2.8s0.8-2.8,2.5-2.8c2.3,0,2.4,1.7,2.3,3.4H380.6z M380.6,217.8h1.5c0.1-0.6,0-1.1-0.7-1.1
						C380.8,216.7,380.6,217.1,380.6,217.8"/>
					<polyline id="XMLID_193_" class="st10" points="341.7,219.3 342.1,218 343.1,218 342.4,214.9 341.7,218 341.4,219.3 341,220.9 
						339.2,220.9 341.4,212.9 343.4,212.9 345.6,220.9 343.8,220.9 343.4,219.3 					"/>
					<g id="XMLID_171_">
						<polygon id="XMLID_192_" class="st10" points="368.9,223.5 368.9,222.6 367.9,222.6 367.9,223.5 367.7,223.5 367.7,221.5 
							367.9,221.5 367.9,222.4 368.9,222.4 368.9,221.5 369.1,221.5 369.1,223.5 						"/>
						<path id="XMLID_189_" class="st10" d="M369.6,221.6c0.1,0,0.1,0.1,0.1,0.1c0,0.1-0.1,0.1-0.1,0.1c-0.1,0-0.1-0.1-0.1-0.1
							C369.4,221.7,369.5,221.6,369.6,221.6 M369.5,223.2v-1.1h0.2v1.1c0,0.1,0,0.1,0.1,0.1v0.2
							C369.6,223.5,369.5,223.5,369.5,223.2"/>
						<polygon id="XMLID_188_" class="st10" points="370.5,222.7 371.2,223.5 371,223.5 370.4,222.8 370.3,223 370.3,223.5 
							370.1,223.5 370.1,221.5 370.3,221.5 370.3,222.8 370.9,222.2 371.1,222.2 						"/>
						<path id="XMLID_187_" class="st10" d="M373,222.5c0-0.2-0.1-0.2-0.3-0.2c-0.2,0-0.3,0-0.4,0.1c0,0,0,0.1,0,0.1v1h-0.2v-1
							c0-0.2-0.1-0.2-0.3-0.2c-0.2,0-0.2,0-0.3,0.1v1.1h-0.2v-1.3h0.1l0,0.1c0.1-0.1,0.3-0.1,0.4-0.1c0.2,0,0.3,0.1,0.4,0.2
							c0.1-0.1,0.3-0.2,0.4-0.2c0.3,0,0.4,0.1,0.4,0.4v1H373V222.5z"/>
						<path id="XMLID_184_" class="st10" d="M374,222.3c-0.2,0-0.3,0-0.4,0.1v-0.2c0.1-0.1,0.3-0.1,0.4-0.1c0.4,0,0.5,0.2,0.5,0.4
							v0.9h-0.1l0-0.1c-0.1,0.1-0.3,0.1-0.4,0.1c-0.4,0-0.5-0.2-0.5-0.4c0-0.2,0.1-0.4,0.5-0.4l0.4,0v-0.1
							C374.3,222.4,374.2,222.3,374,222.3 M373.9,222.8c-0.2,0-0.3,0.1-0.3,0.3c0,0.1,0,0.3,0.3,0.3c0.1,0,0.2,0,0.4-0.1v-0.5
							L373.9,222.8z"/>
						<path id="XMLID_181_" class="st10" d="M375.5,223.5h-0.2v-2h0.6c0.5,0,0.7,0.3,0.7,0.6c0,0.3-0.2,0.6-0.7,0.6h-0.4V223.5z
							 M375.5,222.5h0.5c0.4,0,0.4-0.2,0.4-0.4c0-0.2-0.1-0.4-0.4-0.4h-0.5V222.5z"/>
						<path id="XMLID_180_" class="st10" d="M377.4,222.3c-0.2,0-0.3,0-0.4,0.1v1.1h-0.2v-2h0.2v0.8c0.1-0.1,0.2-0.1,0.4-0.1
							c0.3,0,0.5,0.1,0.5,0.4v1h-0.2v-1C377.7,222.4,377.6,222.3,377.4,222.3"/>
						<path id="XMLID_177_" class="st10" d="M378.7,222.3c-0.2,0-0.3,0-0.4,0.1v-0.2c0.1-0.1,0.3-0.1,0.4-0.1c0.4,0,0.5,0.2,0.5,0.4
							v0.9h-0.1l0-0.1c-0.1,0.1-0.3,0.1-0.4,0.1c-0.3,0-0.5-0.2-0.5-0.4c0-0.2,0.1-0.4,0.5-0.4l0.4,0v-0.1
							C379,222.4,378.9,222.3,378.7,222.3 M378.6,222.8c-0.2,0-0.3,0.1-0.3,0.3c0,0.1,0,0.3,0.3,0.3c0.1,0,0.2,0,0.4-0.1v-0.5
							L378.6,222.8z"/>
						<path id="XMLID_176_" class="st10" d="M380.3,222.3c0,0-0.1,0-0.2,0c-0.2,0-0.3,0-0.4,0.1v1.1h-0.2v-1.3h0.1l0,0.1
							c0.1-0.1,0.3-0.1,0.4-0.1c0.1,0,0.1,0,0.2,0V222.3z"/>
						<path id="XMLID_175_" class="st10" d="M382.1,222.5c0-0.2-0.1-0.2-0.3-0.2c-0.2,0-0.3,0-0.4,0.1c0,0,0,0.1,0,0.1v1h-0.2v-1
							c0-0.2-0.1-0.2-0.3-0.2c-0.2,0-0.2,0-0.3,0.1v1.1h-0.2v-1.3h0.1l0,0.1c0.1-0.1,0.3-0.1,0.4-0.1c0.2,0,0.3,0.1,0.4,0.2
							c0.1-0.1,0.3-0.2,0.4-0.2c0.3,0,0.4,0.1,0.4,0.4v1h-0.2V222.5z"/>
						<path id="XMLID_172_" class="st10" d="M383.1,222.3c-0.2,0-0.3,0-0.4,0.1v-0.2c0.1-0.1,0.3-0.1,0.4-0.1c0.4,0,0.5,0.2,0.5,0.4
							v0.9h-0.1l0-0.1c-0.1,0.1-0.3,0.1-0.4,0.1c-0.4,0-0.5-0.2-0.5-0.4c0-0.2,0.1-0.4,0.5-0.4l0.4,0v-0.1
							C383.4,222.4,383.3,222.3,383.1,222.3 M383,222.8c-0.2,0-0.3,0.1-0.3,0.3c0,0.1,0,0.3,0.3,0.3c0.1,0,0.2,0,0.4-0.1v-0.5
							L383,222.8z"/>
					</g>
					<g id="XMLID_166_">
						<path id="XMLID_170_" class="st10" d="M372.5,212.6c-0.2,0-0.4,0.1-0.6,0.2c0.1,0,0.2,0.1,0.2,0.2c0.5,0.1,0.8,0.5,0.8,1
							c0,0.5-0.3,0.9-0.8,1c-0.1,0.1-0.1,0.1-0.2,0.2c0.2,0.1,0.4,0.2,0.6,0.2c0.7,0,1.3-0.6,1.3-1.3
							C373.8,213.2,373.2,212.6,372.5,212.6z"/>
						<path id="XMLID_169_" class="st16" d="M370.9,213.9c0-0.5,0.3-0.9,0.8-1c0.1-0.1,0.1-0.1,0.2-0.2c-0.2-0.1-0.4-0.2-0.6-0.2
							c-0.7,0-1.3,0.6-1.3,1.3c0,0.7,0.6,1.3,1.3,1.3c0.2,0,0.4-0.1,0.6-0.2c-0.1,0-0.2-0.1-0.2-0.2
							C371.2,214.8,370.9,214.4,370.9,213.9z"/>
						<path id="XMLID_168_" class="st16" d="M371.9,214.9c-0.1,0-0.2,0-0.2,0c0.1,0.1,0.1,0.1,0.2,0.2c0.1,0,0.2-0.1,0.2-0.2
							C372.1,214.9,372,214.9,371.9,214.9z"/>
						<path id="XMLID_167_" class="st16" d="M371.9,212.9c0.1,0,0.2,0,0.2,0c-0.1-0.1-0.1-0.1-0.2-0.2c-0.1,0-0.2,0.1-0.2,0.2
							C371.7,212.9,371.8,212.9,371.9,212.9z"/>
					</g>
				</g>
			</g>
		</g>
		<g id="XMLID_144_">
			<g id="XMLID_152_">
				<path id="XMLID_158_" class="st10" d="M364.9,227.5h2c1.8,0,2.6,0.5,2.6,1.5c0,0.8-0.5,1.2-1.3,1.4v0c0.8,0.1,1.4,0.5,1.4,1.4
					c0,1-0.7,1.7-2.6,1.7h-2V227.5z M366.9,230c1,0,1.3-0.3,1.3-0.8c0-0.5-0.4-0.7-1.3-0.7h-0.7v1.5H366.9z M366.9,232.6
					c1,0,1.3-0.3,1.3-0.8c0-0.5-0.3-0.8-1.3-0.8h-0.8v1.6H366.9z"/>
				<path id="XMLID_156_" class="st10" d="M370.7,227.5h1.3v6h-1.3V227.5z"/>
				<path id="XMLID_153_" class="st10" d="M373.5,227.5h1.9c2.2,0,3.6,0.8,3.6,3c0,2.2-1.6,3-3.6,3h-1.9V227.5z M375.4,232.5
					c1.7,0,2.2-0.6,2.2-1.9c0-1.4-0.5-2-2.2-2h-0.6v4H375.4z"/>
			</g>
			<path id="XMLID_150_" class="st10" d="M349.1,225.9h-2.3l-0.4,1.3c0,0,0.1,0,0.1,0c0.1,0,0.1,0,0.2,0c0.7,0,1.3,0.3,1.8,0.8
				c0.5,0.5,0.7,1.1,0.7,1.9c0,0.8-0.3,1.5-0.8,2c-0.5,0.5-1.2,0.8-2,0.8c-1,0-1.8-0.5-2.4-1.4l0.8-0.7c0.3,0.4,0.5,0.7,0.8,0.9
				c0.2,0.2,0.5,0.2,0.9,0.2c0.5,0,0.9-0.1,1.2-0.5c0.3-0.3,0.5-0.7,0.5-1.2c0-0.5-0.1-0.9-0.5-1.2c-0.3-0.3-0.7-0.5-1.1-0.5
				c-0.5,0-1,0.2-1.3,0.7h-0.4l1.2-4h3.1V225.9z"/>
			<path id="XMLID_148_" class="st10" d="M350.5,227.6h1.1v0.4c0.2-0.2,0.4-0.4,0.6-0.4c0.1-0.1,0.4-0.1,0.6-0.1
				c0.5,0,1,0.2,1.3,0.7c0.3-0.5,0.8-0.7,1.4-0.7c1.1,0,1.6,0.6,1.6,2v3H356v-2.7c0-0.5-0.1-0.8-0.2-1c-0.1-0.2-0.3-0.3-0.6-0.3
				c-0.3,0-0.5,0.1-0.7,0.3c-0.1,0.2-0.2,0.6-0.2,1.1v2.5h-1.1v-2.6c0-0.9-0.3-1.3-0.7-1.3c-0.3,0-0.5,0.1-0.7,0.3
				c-0.1,0.2-0.2,0.6-0.2,1.1v2.5h-1.1V227.6z"/>
			<path id="XMLID_145_" class="st10" d="M362.5,232.3c0,0.2,0,0.4,0,0.6c0,0.2,0,0.3-0.1,0.5c-0.1,0.4-0.2,0.7-0.5,0.9
				c-0.4,0.5-1,0.8-1.8,0.8c-0.6,0-1.2-0.2-1.6-0.5c-0.4-0.3-0.7-0.8-0.7-1.5h1.1c0,0.2,0.1,0.4,0.2,0.5c0.2,0.3,0.6,0.4,1,0.4
				c0.8,0,1.2-0.5,1.2-1.5v-0.7c-0.4,0.5-1,0.7-1.5,0.7c-0.7,0-1.2-0.2-1.6-0.7c-0.4-0.5-0.6-1.1-0.6-1.8c0-0.7,0.2-1.3,0.6-1.8
				c0.4-0.5,1-0.8,1.7-0.8c0.6,0,1.1,0.2,1.5,0.7v-0.5h1.1V232.3z M361.4,230c0-0.5-0.1-0.8-0.4-1.1c-0.3-0.3-0.6-0.4-1-0.4
				c-0.4,0-0.8,0.2-1,0.5c-0.2,0.3-0.3,0.6-0.3,1.1c0,0.4,0.1,0.8,0.3,1.1c0.2,0.3,0.6,0.4,1,0.4c0.4,0,0.8-0.1,1-0.4
				C361.3,230.8,361.4,230.5,361.4,230z"/>
		</g>
	</g>
</g>
<g id="XMLID_97_">
	<g id="XMLID_137_">
		<g id="XMLID_138_">
			<g id="XMLID_140_">
				<path id="XMLID_141_" class="st8" d="M312.2,111.6c6.9,0,13.8,0,20.8,0c1.2,0,1.2-2,0-2c-6.9,0-13.8,0-20.8,0
					C311,109.6,311,111.6,312.2,111.6L312.2,111.6z"/>
			</g>
			<polygon id="XMLID_139_" class="st8" points="318.5,110.6 322.6,115.1 326.7,110.6 322.6,106.1 			"/>
		</g>
	</g>
	<g id="XMLID_98_">
		<g id="XMLID_100_">
			<path id="XMLID_117_" class="st17" d="M339.6,107.1h1.6c1.6,0,2.2,0.7,2.2,1.9c0,1.2-0.7,2.2-2.2,2.2h-0.3v-0.9h0.3
				c0.8,0,1.2-0.5,1.2-1.2c0-0.7-0.4-1.1-1.2-1.1h-0.5v4.9h-1V107.1z"/>
			<path id="XMLID_115_" class="st17" d="M344.2,107.1h1v4.9h2v1h-3V107.1z"/>
			<path id="XMLID_112_" class="st17" d="M349.3,107.7l-0.2-0.6h1.1l2.1,5.9h-1.1l-0.4-1.2h-2l-0.4,1.2h-1L349.3,107.7z
				 M349.1,110.9h1.4l-0.6-1.6l-0.1-0.5l-0.1,0.5L349.1,110.9z"/>
			<path id="XMLID_110_" class="st17" d="M352.5,110c0-2,1.1-3.1,2.5-3.1c0.9,0,1.3,0.3,1.5,0.5v1.3c-0.3-0.5-0.7-0.8-1.4-0.8
				c-1,0-1.6,0.7-1.6,2s0.6,2.1,1.6,2.1c0.6,0,1.1-0.2,1.4-0.7v1.1c-0.3,0.4-0.9,0.6-1.5,0.6C353.5,113.1,352.5,112.1,352.5,110z"/>
			<path id="XMLID_108_" class="st17" d="M357.5,107.1h3.4v1h-2.4v1.4h1.6v0.9h-1.6v1.6h2.4v1h-3.4V107.1z"/>
			<path id="XMLID_104_" class="st17" d="M361.8,107.1h1.6c1.5,0,2.1,0.5,2.1,1.5c0,0.8-0.4,1.2-1,1.4v0c0.6,0.1,1.1,0.4,1.1,1.4
				c0,0.9-0.6,1.7-2.1,1.7h-1.6V107.1z M363.4,109.5c0.8,0,1-0.3,1-0.8s-0.3-0.7-1-0.7h-0.6v1.5H363.4z M363.5,112
				c0.8,0,1-0.3,1-0.8s-0.3-0.8-1-0.8h-0.6v1.6H363.5z"/>
			<path id="XMLID_101_" class="st17" d="M366.2,110c0-2,1.3-3.1,2.6-3.1c1.6,0,2.6,1.1,2.6,3.1s-1.3,3.1-2.6,3.1
				C367.3,113.1,366.2,112,366.2,110z M370.4,110.1c0-1.4-0.6-2.1-1.6-2.1c-1,0-1.6,0.7-1.6,2c0,1.4,0.6,2.2,1.6,2.2
				C369.8,112.1,370.4,111.4,370.4,110.1z"/>
		</g>
	</g>
</g>
<g id="XMLID_3_">
	<g id="XMLID_90_">
		<g id="XMLID_94_">
			<g id="XMLID_95_">
				<path id="XMLID_96_" class="st18" d="M312.1,168c5.8,0,11.5,0,17.3,0c1,0,1-1.7,0-1.7c-5.8,0-11.5,0-17.3,0
					C311.1,166.3,311.1,168,312.1,168L312.1,168z"/>
			</g>
		</g>
		<g id="XMLID_91_">
			<line id="XMLID_93_" class="st11" x1="322.8" y1="164.1" x2="318.5" y2="170.2"/>
			<line id="XMLID_92_" class="st11" x1="322.9" y1="170.1" x2="318.3" y2="164.3"/>
		</g>
	</g>
	<g id="XMLID_4_">
		<g id="XMLID_6_">
			<path id="XMLID_47_" class="st17" d="M339.6,158.5h1v2.4h2.2v-2.4h1v5.9h-1v-2.5h-2.2v2.5h-1V158.5z"/>
			<path id="XMLID_43_" class="st17" d="M346.5,159.1l-0.2-0.6h1.1l2.1,5.9h-1.1l-0.4-1.2h-2l-0.4,1.2h-1L346.5,159.1z M346.3,162.3
				h1.4l-0.6-1.6l-0.1-0.5l-0.1,0.5L346.3,162.3z"/>
			<path id="XMLID_41_" class="st17" d="M350.1,158.5h1v4.9h2v1h-3V158.5z"/>
			<path id="XMLID_38_" class="st17" d="M353.5,161.5c0-2,1.3-3.1,2.6-3.1c1.6,0,2.6,1.1,2.6,3.1s-1.3,3.1-2.6,3.1
				C354.6,164.5,353.5,163.5,353.5,161.5z M357.7,161.5c0-1.4-0.6-2.1-1.6-2.1c-1,0-1.6,0.7-1.6,2c0,1.4,0.6,2.2,1.6,2.2
				C357.1,163.6,357.7,162.8,357.7,161.5z"/>
			<path id="XMLID_36_" class="st17" d="M359.7,158.5h1.6c1.6,0,2.2,0.7,2.2,1.9c0,1.2-0.7,2.2-2.2,2.2h-0.3v-0.9h0.3
				c0.8,0,1.2-0.5,1.2-1.2c0-0.7-0.4-1.1-1.2-1.1h-0.5v4.9h-1V158.5z"/>
			<path id="XMLID_33_" class="st17" d="M365.3,162.2L365.3,162.2l-0.1,2.2h-1v-5.9h1.5c1.2,0,2.1,0.5,2.1,1.7c0,1-0.6,1.6-1.4,1.9
				l1.8,2.3H367L365.3,162.2z M365.7,161.4c0.7,0,1-0.3,1-1c0-0.7-0.4-0.9-1-0.9h-0.5v2H365.7z"/>
			<path id="XMLID_31_" class="st17" d="M368.8,158.5h1v5.9h-1V158.5z"/>
			<path id="XMLID_28_" class="st17" d="M371,158.5h1.5c1.8,0,2.8,0.8,2.8,2.9c0,2.1-1.3,2.9-2.8,2.9H371V158.5z M372.6,163.4
				c1.4,0,1.8-0.6,1.8-1.9c0-1.3-0.4-2-1.8-2h-0.5v3.9H372.6z"/>
			<path id="XMLID_25_" class="st17" d="M376,161.5c0-2,1.3-3.1,2.6-3.1c1.6,0,2.6,1.1,2.6,3.1s-1.3,3.1-2.6,3.1
				C377.1,164.5,376,163.5,376,161.5z M380.2,161.5c0-1.4-0.6-2.1-1.6-2.1c-1,0-1.6,0.7-1.6,2c0,1.4,0.6,2.2,1.6,2.2
				C379.6,163.6,380.2,162.8,380.2,161.5z"/>
			<path id="XMLID_23_" class="st17" d="M382.2,158.5h1v4.9h2v1h-3V158.5z"/>
			<path id="XMLID_21_" class="st17" d="M349.8,173.5h-2.6v-0.1l1.5-4.6h1l-1.2,3.6h1.3v-2.1h1v2.1h0.6v1h-0.6v1.2h-1V173.5z"/>
			<path id="XMLID_19_" class="st17" d="M352.1,170h1l0,0.4c0.2-0.3,0.5-0.6,1-0.6c0.6,0,1,0.2,1.3,0.7c0.2-0.3,0.6-0.7,1.3-0.7
				c1.1,0,1.5,0.6,1.5,1.9v3h-1V172c0-0.9-0.2-1.3-0.7-1.3c-0.4,0-0.7,0.2-0.8,0.5c0,0.2,0,0.4,0,0.6v3h-1V172
				c0-0.9-0.2-1.3-0.7-1.3c-0.4,0-0.7,0.2-0.8,0.5v3.5h-1V170z"/>
			<path id="XMLID_16_" class="st17" d="M359,176v-0.9c0.4,0.3,1,0.5,1.8,0.5c1,0,1.5-0.2,1.5-0.6c0-0.4-0.3-0.5-1-0.5
				c-0.6,0-1.5,0.1-1.8,0.3v-0.8l0.6-1.1c-0.6-0.2-1-0.7-1-1.5c0-1,0.8-1.7,1.8-1.7c0.5,0,0.9,0.1,1.2,0.4c0.1-0.2,0.5-0.4,0.8-0.4
				c0.1,0,0.2,0,0.3,0v0.9c-0.1,0-0.2-0.1-0.3-0.1c-0.2,0-0.3,0.1-0.4,0.1c0.1,0.2,0.1,0.4,0.1,0.7c0,1-0.7,1.6-1.8,1.6h-0.1
				l-0.4,0.7c0.2-0.1,0.7-0.1,1.1-0.1c1.1,0,1.7,0.3,1.7,1.2c0,0.9-0.8,1.6-2.4,1.6C360,176.5,359.3,176.3,359,176z M361.6,171.5
				c0-0.5-0.3-0.8-0.8-0.8s-0.8,0.3-0.8,0.8c0,0.5,0.3,0.8,0.8,0.8S361.6,172,361.6,171.5z"/>
			<path id="XMLID_12_" class="st17" d="M365.7,168.9h1.6c1.5,0,2.1,0.5,2.1,1.5c0,0.8-0.4,1.2-1,1.4v0c0.6,0.1,1.1,0.4,1.1,1.4
				c0,0.9-0.6,1.7-2.1,1.7h-1.6V168.9z M367.3,171.3c0.8,0,1-0.3,1-0.8s-0.3-0.7-1-0.7h-0.6v1.5H367.3z M367.4,173.8
				c0.8,0,1-0.3,1-0.8s-0.3-0.8-1-0.8h-0.6v1.6H367.4z"/>
			<path id="XMLID_10_" class="st17" d="M370.4,168.9h1v5.9h-1V168.9z"/>
			<path id="XMLID_7_" class="st17" d="M372.6,168.9h1.5c1.8,0,2.8,0.8,2.8,2.9c0,2.1-1.3,2.9-2.8,2.9h-1.5V168.9z M374.1,173.7
				c1.4,0,1.8-0.6,1.8-1.9c0-1.3-0.4-2-1.8-2h-0.5v3.9H374.1z"/>
		</g>
	</g>
</g>
<line id="XMLID_2_" class="st19" x1="30.6" y1="66" x2="30.6" y2="272"/>
<line id="XMLID_1_" class="st19" x1="30.6" y1="66" x2="268.7" y2="66"/>
</svg>
