<!-- Generator: Adobe Illustrator 22.1.0, SVG Export Plug-In  -->
<svg version="1.1"
	 xmlns="http://www.w3.org/2000/svg" xmlns:xlink="http://www.w3.org/1999/xlink" xmlns:a="http://ns.adobe.com/AdobeSVGViewerExtensions/3.0/"
	 x="0px" y="0px" width="182px" height="182.5px" viewBox="0 0 182 182.5" style="enable-background:new 0 0 182 182.5;"
	 xml:space="preserve">
<style type="text/css">
	.st0{fill:#E42E48;}
	.st1{fill:#EE4770;}
	.st2{fill:#FFFFFF;}
	.st3{fill:#2263AE;}
	.st4{fill:#2671B8;}
	.st5{fill:#42BB9F;}
	.st6{fill:#5BC0A2;}
	.st7{fill:#28A8E0;}
	.st8{fill:#33B2DE;}
	.st9{fill:#5E5F5E;}
	.st10{font-family:'MyriadPro-Bold';}
	.st11{font-size:6.2044px;}
	.st12{fill:url(#XMLID_63_);}
	.st13{font-family:'Altis-Bold';}
	.st14{font-size:19.2615px;}
	.st15{font-size:7.7555px;}
	.st16{font-size:7.2385px;}
	.st17{fill:none;stroke:#FFFFFF;stroke-width:0.6217;stroke-miterlimit:10;}
	.st18{fill:#A14197;}
	.st19{fill:#A33191;}
	.st20{fill:url(#XMLID_220_);}
</style>
<defs>
</defs>
<g id="XMLID_180_">
	<path id="XMLID_188_" class="st0" d="M33.5,133.2c3.9-6.2,2.1-14.3-4.1-18.2l-14.1,22.3C21.5,141.2,29.6,139.3,33.5,133.2z"/>
	<path id="XMLID_187_" class="st1" d="M11.2,119.1c-3.9,6.2-2.1,14.3,4.1,18.2L29.4,115C23.3,111.1,15.1,112.9,11.2,119.1z"/>
	<g id="XMLID_186_">
		<g>
			<path class="st0" d="M9.6,118.1c-4.7,8.2-1.5,19,7.8,22.3c10.2,3.6,19.8-4.3,20.1-14.7c0-0.6-0.9-0.6-0.9,0
				c-0.3,10.1-9.8,17.5-19.5,13.6c-8.4-3.4-11.1-13.1-6.7-20.8C10.6,118,9.9,117.6,9.6,118.1L9.6,118.1z"/>
		</g>
	</g>
	<g id="XMLID_182_">
		<path id="XMLID_183_" class="st2" d="M32.8,132.7c-3.6,5.7-11.2,7.5-17,3.8c-5.7-3.6-7.5-11.2-3.8-17c3.6-5.7,11.2-7.5,17-3.8
			C34.7,119.3,36.4,127,32.8,132.7z M31.9,132.1c3.3-5.3,1.7-12.2-3.5-15.5c-5.3-3.3-12.2-1.7-15.5,3.5c-3.3,5.3-1.7,12.2,3.5,15.5
			C21.6,139,28.6,137.4,31.9,132.1z"/>
	</g>
	<path id="XMLID_181_" class="st0" d="M36.1,124.5c0.3-0.5,1.1-0.7,1.6-0.4c0.5,0.3,0.7,1.1,0.4,1.6c-0.3,0.5-1.1,0.7-1.6,0.4
		C35.9,125.8,35.8,125.1,36.1,124.5z"/>
</g>
<g id="XMLID_170_">
	<path id="XMLID_179_" class="st3" d="M41.4,156.5c-1.7,7,2.5,14.2,9.6,16l6.4-25.6C50.2,145.2,43.1,149.5,41.4,156.5z"/>
	<path id="XMLID_178_" class="st4" d="M67,162.9c1.8-7.1-2.6-14.2-9.6-16c0,0-0.1,0-0.1,0l-6.4,25.6c0,0,0.1,0,0.1,0
		C58.1,174.3,65.3,170,67,162.9z"/>
	<g id="XMLID_175_">
		<g id="XMLID_177_">
			<g>
				<path class="st3" d="M57.8,145.1c-12.7-2.5-23.6,10.7-16.6,22.4c7,11.7,23.9,8.2,27.6-4.1c0.2-0.5-0.7-0.8-0.8-0.2
					c-3.5,11.6-19.3,15-26,3.9c-6.6-11,3.7-23.5,15.6-21.1C58.2,146,58.4,145.2,57.8,145.1L57.8,145.1z"/>
			</g>
		</g>
		<path id="XMLID_176_" class="st3" d="M59,145.7c-0.2,0.6-0.8,1-1.4,0.8c-0.6-0.2-1-0.8-0.8-1.4c0.2-0.6,0.8-1,1.4-0.8
			C58.8,144.4,59.2,145.1,59,145.7z"/>
	</g>
	<g id="XMLID_171_">
		<path id="XMLID_172_" class="st2" d="M66.1,162.7c-1.6,6.6-8.3,10.6-14.9,9c-6.6-1.6-10.6-8.3-9-14.9c1.6-6.6,8.3-10.6,14.9-9
			C63.8,149.4,67.8,156.1,66.1,162.7z M65.1,162.4c1.5-6-2.2-12.2-8.2-13.6c-6-1.5-12.2,2.2-13.7,8.2c-1.5,6,2.2,12.2,8.2,13.7
			C57.5,172.1,63.6,168.4,65.1,162.4z"/>
	</g>
</g>
<g id="XMLID_160_">
	<path id="XMLID_169_" class="st5" d="M154.9,90.9c0.2,7,6,12.5,13,12.3l-0.7-25.3C160.2,78.1,154.7,83.9,154.9,90.9z"/>
	<path id="XMLID_168_" class="st6" d="M180.2,90.2c-0.2-7-6-12.5-13-12.3l0.7,25.3C174.9,103,180.4,97.2,180.2,90.2z"/>
	<g id="XMLID_164_">
		<path id="XMLID_165_" class="st2" d="M155.7,90.9c-0.2-6.5,5-11.9,11.5-12.1c6.5-0.2,11.9,5,12.1,11.5c0.2,6.5-5,11.9-11.5,12.1
			C161.4,102.6,155.9,97.4,155.7,90.9z M156.7,90.9c0.2,6,5.1,10.7,11.1,10.5c6-0.2,10.7-5.1,10.5-11.1c-0.2-6-5.1-10.7-11.1-10.5
			C161.3,79.9,156.6,84.9,156.7,90.9z"/>
	</g>
	<g id="XMLID_161_">
		<g id="XMLID_163_">
			<g>
				<path class="st5" d="M167.9,105c12.3-0.9,19-16,9.6-25c-9.5-9-24.2-1.5-24.4,10.9c0,0.5,0.8,0.5,0.8,0c0.2-11.6,14-18.7,23-10.3
					c8.9,8.4,2.7,22.7-9,23.5C167.4,104.2,167.4,105.1,167.9,105L167.9,105z"/>
			</g>
		</g>
		<path id="XMLID_162_" class="st5" d="M154.5,91c0,0.6-0.5,1.1-1.1,1.1c-0.6,0-1.1-0.5-1.1-1.1c0-0.6,0.5-1.1,1.1-1.1
			C154,89.9,154.5,90.4,154.5,91z"/>
	</g>
</g>
<g id="XMLID_150_">
	<path id="XMLID_159_" class="st5" d="M137.5,48.1c5.5,4.3,13.5,3.3,17.8-2.2l-19.9-15.6C131,35.8,132,43.8,137.5,48.1z"/>
	<path id="XMLID_158_" class="st6" d="M153.1,28.2c-5.5-4.3-13.5-3.3-17.8,2.2l19.9,15.6C159.6,40.4,158.6,32.5,153.1,28.2z"/>
	<g id="XMLID_154_">
		<path id="XMLID_155_" class="st2" d="M138,47.4c-5.1-4-6-11.4-2-16.6c4-5.1,11.4-6,16.6-2c5.1,4,6,11.4,2,16.6
			C150.6,50.5,143.2,51.4,138,47.4z M138.7,46.6c4.7,3.7,11.5,2.8,15.2-1.8c3.7-4.7,2.8-11.5-1.8-15.2c-4.7-3.7-11.5-2.8-15.2,1.8
			C133.1,36.1,134,43,138.7,46.6z"/>
	</g>
	<g id="XMLID_151_">
		<g id="XMLID_153_">
			<g>
				<path class="st5" d="M156.7,47c7.3-10.2-0.6-25.3-13.7-23.2c-12.5,2-16,17.7-6.7,25.6c0.4,0.3,1-0.2,0.6-0.6
					c-9-7.7-5.3-23.3,7.2-24.4c12.1-1,18.5,12.8,11.8,22C155.7,47,156.4,47.4,156.7,47L156.7,47z"/>
			</g>
		</g>
		<path id="XMLID_152_" class="st5" d="M137.3,48.4c0.5,0.4,0.6,1.1,0.2,1.6c-0.4,0.5-1.1,0.6-1.6,0.2c-0.5-0.4-0.6-1.1-0.2-1.6
			C136.2,48.1,136.9,48.1,137.3,48.4z"/>
	</g>
</g>
<g id="XMLID_138_">
	<path id="XMLID_149_" class="st7" d="M80.6,172c2.3,6.6,9.5,10.2,16.1,7.9c6.6-2.3,10.2-9.5,7.9-16.1c0-0.1,0-0.1-0.1-0.2l-24,8.2
		C80.6,171.9,80.6,171.9,80.6,172z"/>
	<path id="XMLID_148_" class="st8" d="M88.6,155.9c-6.6,2.2-10.1,9.3-8,15.9l24-8.2C102.3,157.1,95.2,153.6,88.6,155.9z"/>
	<g id="XMLID_145_">
		<g id="XMLID_147_">
			<g>
				<path class="st7" d="M88,154.1c-11.6,4.6-13.5,20.9-1.8,26.7c11.7,5.9,23.6-5.7,20.2-17.6c-0.1-0.5-1-0.3-0.8,0.2
					c3.2,11-7.4,21.7-18.4,16.9c-11.5-5.1-10.1-21,1.1-25.4C88.7,154.8,88.5,153.9,88,154.1L88,154.1z"/>
			</g>
		</g>
		<path id="XMLID_146_" class="st7" d="M87.9,153.4c0.6-0.2,1.2,0.1,1.4,0.7c0.2,0.6-0.1,1.2-0.7,1.4c-0.6,0.2-1.2-0.1-1.4-0.7
			C87,154.3,87.3,153.6,87.9,153.4z"/>
	</g>
	<path id="XMLID_144_" class="st9" d="M89,157c-0.1,0-0.1,0.1-0.1,0.2c0.1-0.1,0.1-0.1,0.2-0.2C89.1,157,89,157,89,157z"/>
	<g id="XMLID_140_">
		<path id="XMLID_141_" class="st2" d="M103.9,164.1c2.1,6.2-1.2,12.9-7.4,15c-6.2,2.1-12.9-1.2-15-7.4c-2.1-6.2,1.2-12.9,7.4-15
			C95,154.6,101.8,157.9,103.9,164.1z M82.4,171.4c1.9,5.7,8.1,8.7,13.8,6.8c5.7-1.9,8.7-8.1,6.8-13.7c-1.9-5.7-8.1-8.7-13.7-6.8
			C83.5,159.5,80.5,165.7,82.4,171.4z"/>
	</g>
	<path id="XMLID_139_" class="st9" d="M94,171.7C94,171.7,94,171.6,94,171.7c0-0.1-0.1-0.1-0.2-0.1C93.9,171.7,93.9,171.7,94,171.7z
		"/>
</g>
<g id="XMLID_126_">
	<path id="XMLID_137_" class="st7" d="M111.1,168.3c3.3,6.2,11,8.5,17.2,5.2c6.2-3.3,8.5-11,5.2-17.2c0-0.1-0.1-0.1-0.1-0.2
		l-22.4,12C111.1,168.2,111.1,168.3,111.1,168.3z"/>
	<path id="XMLID_136_" class="st8" d="M116.3,151.1c-6.1,3.3-8.5,10.9-5.3,17l22.4-12C130.1,150.1,122.5,147.9,116.3,151.1z"/>
	<g id="XMLID_133_">
		<g id="XMLID_135_">
			<g>
				<path class="st7" d="M115.5,149.5c-10.7,6.4-9.9,22.9,2.7,26.7c12.6,3.8,22.3-9.5,17-20.8c-0.2-0.5-1-0.1-0.7,0.4
					c5,10.5-4.2,23.1-16,19.5c-11.8-3.6-12.5-19.1-2.5-25.1C116.4,150,115.9,149.3,115.5,149.5L115.5,149.5z"/>
			</g>
		</g>
		<path id="XMLID_134_" class="st7" d="M115.3,148.9c0.5-0.3,1.2-0.1,1.5,0.5c0.3,0.5,0.1,1.2-0.5,1.5c-0.5,0.3-1.2,0.1-1.5-0.5
			C114.5,149.8,114.7,149.1,115.3,148.9z"/>
	</g>
	<path id="XMLID_132_" class="st9" d="M116.9,152.2c0,0-0.1,0.1-0.1,0.2c0.1-0.1,0.1-0.1,0.2-0.2C117,152.2,117,152.2,116.9,152.2z"
		/>
	<g id="XMLID_128_">
		<path id="XMLID_129_" class="st2" d="M132.8,156.7c3.1,5.8,0.9,12.9-4.9,16c-5.8,3.1-12.9,0.9-16-4.9c-3.1-5.8-0.9-12.9,4.8-16
			C122.5,148.8,129.7,151,132.8,156.7z M112.8,167.4c2.8,5.3,9.4,7.3,14.7,4.4c5.3-2.8,7.3-9.4,4.4-14.7c-2.8-5.3-9.4-7.3-14.7-4.4
			C112,155.6,110,162.2,112.8,167.4z"/>
	</g>
	<path id="XMLID_127_" class="st9" d="M124.3,165.8C124.3,165.8,124.3,165.8,124.3,165.8c0-0.1-0.1-0.1-0.2,0
		C124.1,165.8,124.2,165.9,124.3,165.8z"/>
</g>
<g id="XMLID_114_">
	<path id="XMLID_125_" class="st7" d="M140.7,155.6c6.2,3.3,13.9,1,17.2-5.1c3.3-6.2,1-13.9-5.1-17.2c-0.1,0-0.1-0.1-0.2-0.1
		l-12.1,22.3C140.6,155.5,140.6,155.6,140.7,155.6z"/>
	<path id="XMLID_124_" class="st8" d="M135.5,138.4c-3.3,6.1-1.1,13.7,5,17.1l12.1-22.3C146.4,130,138.8,132.3,135.5,138.4z"/>
	<g id="XMLID_121_">
		<g id="XMLID_123_">
			<g>
				<path class="st7" d="M134,137.5c-5.4,11.2,4.3,24.6,16.9,20.8c12.5-3.7,13.4-20.3,2.8-26.7c-0.5-0.3-0.9,0.4-0.4,0.7
					c10,6,9.3,21.6-2.6,25.1c-11.8,3.5-21-9-16-19.6C134.9,137.4,134.2,137,134,137.5L134,137.5z"/>
			</g>
		</g>
		<path id="XMLID_122_" class="st7" d="M133.4,137.1c0.3-0.5,1-0.7,1.5-0.4c0.5,0.3,0.7,1,0.5,1.5c-0.3,0.5-1,0.7-1.5,0.5
			C133.3,138.3,133.1,137.6,133.4,137.1z"/>
	</g>
	<path id="XMLID_120_" class="st9" d="M136.6,138.9c0,0,0,0.1,0,0.2C136.7,139,136.7,139,136.6,138.9
		C136.7,138.9,136.6,138.9,136.6,138.9z"/>
	<g id="XMLID_116_">
		<path id="XMLID_117_" class="st2" d="M152.3,134c5.7,3.1,7.9,10.3,4.8,16c-3.1,5.7-10.3,7.9-16,4.8c-5.7-3.1-7.9-10.3-4.8-16
			C139.4,133,146.6,130.9,152.3,134z M141.6,154c5.3,2.8,11.8,0.9,14.7-4.4c2.8-5.3,0.9-11.9-4.4-14.7c-5.3-2.8-11.8-0.9-14.7,4.4
			C134.3,144.5,136.3,151.1,141.6,154z"/>
	</g>
	<path id="XMLID_115_" class="st9" d="M150.3,146.3c0,0,0-0.1,0-0.1c-0.1,0.1-0.1,0.1-0.2,0.2C150.2,146.4,150.2,146.3,150.3,146.3z
		"/>
</g>
<g id="XMLID_97_">
	<path id="XMLID_113_" class="st7" d="M156,129.2c5.9,3.8,13.8,2,17.5-3.9c3.8-5.9,2-13.8-3.9-17.5c-0.1,0-0.1-0.1-0.2-0.1
		l-13.6,21.5C155.9,129.2,156,129.2,156,129.2z"/>
	<path id="XMLID_112_" class="st8" d="M152.1,111.7c-3.7,5.9-2,13.6,3.8,17.4l13.6-21.5C163.5,104.1,155.8,105.8,152.1,111.7z"/>
	<g id="XMLID_109_">
		<g id="XMLID_111_">
			<g>
				<path class="st7" d="M150.5,110.8c-6.2,10.8,2.7,24.8,15.5,21.9c12.8-2.9,14.7-19.4,4.5-26.4c-0.4-0.3-0.9,0.4-0.4,0.7
					c9.7,6.8,7.6,22.1-4.3,24.9c-12,2.8-20.3-10.6-14.5-20.7C151.5,110.7,150.8,110.3,150.5,110.8L150.5,110.8z"/>
			</g>
		</g>
		<path id="XMLID_110_" class="st7" d="M150,110.3c0.3-0.5,1-0.7,1.5-0.3c0.5,0.3,0.7,1,0.3,1.5c-0.3,0.5-1,0.7-1.5,0.3
			C149.9,111.5,149.7,110.8,150,110.3z"/>
	</g>
	<path id="XMLID_108_" class="st9" d="M153.1,112.3c0,0,0,0.1,0,0.2C153.2,112.5,153.2,112.4,153.1,112.3
		C153.2,112.3,153.1,112.3,153.1,112.3z"/>
	<g id="XMLID_99_">
		<path id="XMLID_100_" class="st2" d="M169.1,108.5c5.5,3.5,7.2,10.8,3.7,16.3c-3.5,5.5-10.8,7.2-16.3,3.7
			c-5.5-3.5-7.2-10.8-3.7-16.3C156.3,106.7,163.6,105,169.1,108.5z M157,127.7c5.1,3.2,11.8,1.7,15-3.4c3.2-5.1,1.7-11.8-3.4-15
			c-5.1-3.2-11.8-1.7-15,3.4C150.5,117.8,152,124.5,157,127.7z"/>
	</g>
	<path id="XMLID_98_" class="st9" d="M166.2,120.6c0,0,0-0.1,0-0.1c-0.1,0.1-0.1,0.1-0.2,0.2C166.1,120.7,166.2,120.7,166.2,120.6z"
		/>
</g>
<g id="XMLID_88_">
	<path id="XMLID_96_" class="st0" d="M22.4,107.3c6-4.1,7.6-12.3,3.5-18.3L4.1,103.8C8.2,109.9,16.4,111.4,22.4,107.3z"/>
	<path id="XMLID_95_" class="st1" d="M7.6,85.5c-6,4.1-7.6,12.3-3.5,18.3L25.9,89C21.8,83,13.6,81.4,7.6,85.5z"/>
	<g id="XMLID_94_">
		<g>
			<path class="st0" d="M6.5,83.9c-7.8,5.9-9.1,17.6-1.2,24.1c8,6.6,19.5,3.1,23.6-6c0.2-0.5-0.5-0.9-0.8-0.4
				c-3.7,8.1-13.6,11.8-21.2,6.5c-8.4-5.7-7.8-17.6,0-23.5C7.4,84.3,7,83.6,6.5,83.9L6.5,83.9z"/>
		</g>
	</g>
	<g id="XMLID_90_">
		<path id="XMLID_91_" class="st2" d="M21.9,106.6c-5.6,3.8-13.3,2.4-17.1-3.2C1,97.7,2.4,90.1,8.1,86.2c5.6-3.8,13.3-2.4,17.1,3.2
			C29,95.1,27.5,102.8,21.9,106.6z M21.3,105.7c5.1-3.5,6.5-10.5,3-15.7c-3.5-5.1-10.5-6.5-15.7-3c-5.1,3.5-6.5,10.5-3,15.7
			C9.2,107.9,16.2,109.2,21.3,105.7z"/>
	</g>
	<path id="XMLID_89_" class="st0" d="M28.2,100.4c0.5-0.4,1.2-0.2,1.6,0.3c0.4,0.5,0.2,1.2-0.3,1.6c-0.5,0.4-1.2,0.2-1.6-0.3
		C27.5,101.5,27.7,100.8,28.2,100.4z"/>
</g>
<g id="XMLID_79_">
	<path id="XMLID_87_" class="st0" d="M22.7,79.3c6.8-2.5,10.3-10.1,7.8-17L5.8,71.5C8.3,78.3,15.9,81.8,22.7,79.3z"/>
	<path id="XMLID_86_" class="st1" d="M13.6,54.5C6.7,57,3.2,64.6,5.8,71.5l24.8-9.2C28,55.5,20.4,52,13.6,54.5z"/>
	<g id="XMLID_85_">
		<g>
			<path class="st0" d="M12.9,52.7C4,56.5-0.1,67.4,5.9,75.7c6.1,8.5,18.2,8,24.5,0.1c0.3-0.4-0.3-1.1-0.6-0.6
				c-5.6,7.1-16.3,8.1-22.4,1c-6.5-7.6-3.1-18.8,5.8-22.6C13.7,53.4,13.5,52.5,12.9,52.7L12.9,52.7z"/>
		</g>
	</g>
	<g id="XMLID_81_">
		<path id="XMLID_82_" class="st2" d="M22.4,78.5C16,80.8,8.9,77.5,6.6,71.2c-2.4-6.4,0.9-13.5,7.3-15.8c6.4-2.4,13.5,0.9,15.8,7.3
			C32,69,28.8,76.1,22.4,78.5z M22,77.5c5.8-2.2,8.8-8.6,6.7-14.5c-2.2-5.8-8.6-8.8-14.5-6.7C8.4,58.5,5.4,65,7.6,70.8
			C9.7,76.6,16.2,79.6,22,77.5z"/>
	</g>
	<path id="XMLID_80_" class="st0" d="M30,74c0.6-0.2,1.3,0.1,1.5,0.7c0.2,0.6-0.1,1.3-0.7,1.5c-0.6,0.2-1.3-0.1-1.5-0.7
		C29.1,74.9,29.4,74.2,30,74z"/>
</g>
<text id="XMLID_78_" transform="matrix(1 0 0 1 8.517 69.304)" class="st2 st10 st11">5HT2A</text>
<text id="XMLID_77_" transform="matrix(1 0 0 1 5.5058 99.3773)" class="st2 st10 st11">5HT2B</text>
<text id="XMLID_76_" transform="matrix(1 0 0 1 13.9271 129.3471)" class="st2 st10 st11">5HT2C</text>
<g id="XMLID_72_">
	
		<radialGradient id="XMLID_63_" cx="29.0211" cy="218.2194" r="120.1355" gradientTransform="matrix(0.514 0 0 0.514 75.7277 -20.0519)" gradientUnits="userSpaceOnUse">
		<stop  offset="0" style="stop-color:#2CABE1"/>
		<stop  offset="0.8349" style="stop-color:#306AB3"/>
	</radialGradient>
	<path id="XMLID_75_" class="st12" d="M152.4,92.1c0,34.1-27.6,61.8-61.8,61.8c-34.1,0-61.7-27.6-61.7-61.8
		c0-34.1,27.6-61.7,61.7-61.7C124.7,30.4,152.4,58,152.4,92.1z"/>
	<g id="XMLID_73_">
		<text transform="matrix(1 0 0 1 40.4491 98.0024)" class="st2 st13 st14">Olanzapine</text>
	</g>
</g>
<text id="XMLID_71_" transform="matrix(1 0 0 1 140.7289 39.7328)" class="st2 st10 st15">H1</text>
<text id="XMLID_70_" transform="matrix(1 0 0 1 158.1556 120.6781)" class="st2 st10 st15">D1</text>
<g id="XMLID_68_">
	<text transform="matrix(1 0 0 1 142.0638 146.3627)" class="st2 st10 st15">D2</text>
</g>
<g id="XMLID_66_">
	<text transform="matrix(1 0 0 1 118.1488 164.0776)" class="st2 st10 st15">D3</text>
</g>
<g id="XMLID_64_">
	<text transform="matrix(1 0 0 1 88.0834 170.4946)" class="st2 st10 st15">D4</text>
</g>
<g id="XMLID_62_">
	<text transform="matrix(1 0 0 1 46.2171 161.2113)" class="st2 st10 st16">5HT6</text>
</g>
<g id="XMLID_52_">
	<path id="XMLID_61_" class="st5" d="M150.6,69.2c3.6,6,11.3,8,17.3,4.4L155,51.8C149,55.4,147,63.1,150.6,69.2z"/>
	<path id="XMLID_60_" class="st6" d="M172.4,56.3c-3.6-6-11.3-8-17.3-4.4l12.9,21.8C173.9,70,175.9,62.3,172.4,56.3z"/>
	<g id="XMLID_56_">
		<path id="XMLID_57_" class="st2" d="M151.3,68.7c-3.3-5.6-1.5-12.9,4.1-16.2c5.6-3.3,12.9-1.5,16.2,4.1c3.3,5.6,1.5,12.9-4.1,16.2
			C161.9,76.2,154.6,74.3,151.3,68.7z M152.2,68.2c3,5.1,9.7,6.8,14.8,3.8c5.1-3,6.8-9.7,3.8-14.8c-3-5.1-9.7-6.8-14.8-3.8
			C150.8,56.5,149.1,63.1,152.2,68.2z"/>
	</g>
	<g id="XMLID_53_">
		<g id="XMLID_55_">
			<g>
				<path class="st5" d="M168.8,75.2c10.3-6.8,8.9-23.2-3.8-26.5c-12.6-3.2-21.8,10.4-16.1,21.4c0.3,0.5,1,0.1,0.7-0.4
					c-5.4-10.3,3.2-23.2,15.1-20.1c11.9,3,13.3,18.5,3.6,24.9C168,74.7,168.4,75.5,168.8,75.2L168.8,75.2z"/>
			</g>
		</g>
		<path id="XMLID_54_" class="st5" d="M150.3,69.4c0.3,0.5,0.1,1.2-0.4,1.5c-0.5,0.3-1.2,0.1-1.5-0.4c-0.3-0.5-0.1-1.2,0.4-1.5
			C149.3,68.7,150,68.9,150.3,69.4z"/>
	</g>
</g>
<g id="XMLID_49_">
	<text id="XMLID_51_" transform="matrix(1 0 0 1 157.368 68.6772)" class="st2 st10 st15">1</text>
	<path id="XMLID_50_" class="st17" d="M166.4,62.1c0,0-2.7-4.5-5.8-6c-3.1-1.4-2.4,1.7-1,3.7c1.4,2.1,6.5-0.6,8-0.9"/>
</g>
<g id="XMLID_46_">
	<text id="XMLID_48_" transform="matrix(1 0 0 1 162.3451 95.6039)" class="st2 st10 st15">2C</text>
	<path id="XMLID_47_" class="st17" d="M172.7,88.8c0,0-2.7-4.5-5.8-6c-3.1-1.4-2.4,1.7-1,3.7c1.4,2.1,6.5-0.6,8-0.9"/>
</g>
<g id="XMLID_36_">
	<path id="XMLID_45_" class="st18" d="M52,40.9c2.5-6.7-0.8-14.2-7.3-16.9l-9.3,24.7C42.1,51,49.5,47.6,52,40.9z"/>
	<path id="XMLID_44_" class="st19" d="M27.3,31.5c-2.6,6.8,0.9,14.5,7.7,17c0.1,0,0.2,0.1,0.4,0.1L44.7,24c-0.1,0-0.2-0.1-0.4-0.1
		C37.5,21.3,29.9,24.7,27.3,31.5z"/>
	<g id="XMLID_41_">
		<g id="XMLID_43_">
			<g>
				<path class="st19" d="M45,22.1c-9.3-3-19.4,2.7-20.3,12.8c-1,10.8,9.2,18.2,19.3,15.8c0.5-0.1,0.3-1-0.2-0.8
					c-10,2.4-19.9-5.6-18-16.2c1.6-8.9,10.8-13.5,19.1-10.8C45.3,23.1,45.5,22.2,45,22.1L45,22.1z"/>
			</g>
		</g>
		<path id="XMLID_42_" class="st19" d="M42.9,49.8c0.2-0.6,0.9-0.9,1.5-0.7c0.6,0.2,0.9,0.9,0.7,1.5c-0.2,0.6-0.9,0.9-1.5,0.7
			C42.9,51.1,42.6,50.4,42.9,49.8z"/>
	</g>
	<g id="XMLID_37_">
		<path id="XMLID_38_" class="st2" d="M35.3,47.7c-6.4-2.4-9.6-9.5-7.2-15.9c2.4-6.4,9.5-9.6,15.9-7.2c6.4,2.4,9.6,9.5,7.2,15.9
			C48.8,46.9,41.7,50.1,35.3,47.7z M43.7,25.7c-5.8-2.2-12.3,0.8-14.5,6.6c-2.2,5.8,0.8,12.3,6.6,14.5C41.5,49,48,46,50.2,40.2
			C52.4,34.4,49.5,27.8,43.7,25.7z"/>
	</g>
</g>
<g id="XMLID_26_">
	<path id="XMLID_35_" class="st18" d="M103.1,24.2c5-5.1,5.1-13.3,0.2-18.4L84.7,24.6C89.9,29.5,98.1,29.3,103.1,24.2z"/>
	<path id="XMLID_34_" class="st19" d="M84.3,5.6c-5.1,5.2-5.1,13.6,0.1,18.7c0.1,0.1,0.2,0.2,0.3,0.3l18.6-18.8
		c-0.1-0.1-0.2-0.2-0.3-0.3C97.8,0.4,89.4,0.5,84.3,5.6z"/>
	<g id="XMLID_31_">
		<g id="XMLID_33_">
			<g>
				<path class="st19" d="M104.3,4.2c-7.3-6.6-19-5.5-23.9,3.5c-5.1,9.4,1.1,20.2,11.2,22.2c0.5,0.1,0.8-0.7,0.2-0.8
					c-9.4-1.8-15.6-12-10.6-20.9c4.7-8.5,15.6-9.6,22.5-3.4C104.1,5.2,104.8,4.6,104.3,4.2L104.3,4.2z"/>
			</g>
		</g>
		<path id="XMLID_32_" class="st19" d="M91.1,28.6c0.4-0.5,1.2-0.5,1.6,0c0.5,0.5,0.5,1.2,0,1.6c-0.5,0.5-1.2,0.5-1.6,0
			C90.6,29.8,90.6,29.1,91.1,28.6z"/>
	</g>
	<g id="XMLID_27_">
		<path id="XMLID_28_" class="st2" d="M85,23.7c-4.8-4.8-4.9-12.6-0.1-17.4c4.8-4.8,12.6-4.9,17.4-0.1c4.8,4.8,4.9,12.6,0.1,17.4
			C97.7,28.4,89.9,28.5,85,23.7z M101.6,6.9c-4.4-4.4-11.6-4.3-16,0.1c-4.4,4.4-4.3,11.6,0.1,16c4.4,4.4,11.6,4.3,16-0.1
			C106.1,18.5,106.1,11.3,101.6,6.9z"/>
	</g>
</g>
<g id="XMLID_16_">
	<path id="XMLID_25_" class="st18" d="M130.7,31.6c5.4-4.7,6.2-12.8,1.7-18.3l-20.1,17.2C117.1,35.7,125.2,36.3,130.7,31.6z"/>
	<path id="XMLID_24_" class="st19" d="M113.5,11.5c-5.5,4.7-6.2,13.1-1.5,18.6c0.1,0.1,0.2,0.2,0.3,0.3l20.1-17.2
		c-0.1-0.1-0.2-0.2-0.2-0.3C127.4,7.4,119,6.8,113.5,11.5z"/>
	<g id="XMLID_21_">
		<g id="XMLID_23_">
			<g>
				<path class="st19" d="M133.5,11.7c-6.7-7.2-18.5-7-24.1,1.6c-5.8,9-0.5,20.2,9.3,23c0.5,0.2,0.8-0.7,0.2-0.8
					c-9.4-2.6-14.4-13.2-8.8-21.7c5.3-8.1,16.4-8.2,22.8-1.4C133.3,12.8,133.9,12.1,133.5,11.7L133.5,11.7z"/>
			</g>
		</g>
		<path id="XMLID_22_" class="st19" d="M118.3,35c0.5-0.4,1.2-0.4,1.6,0.1c0.4,0.5,0.4,1.2-0.1,1.6c-0.5,0.4-1.2,0.4-1.6-0.1
			C117.8,36.2,117.8,35.4,118.3,35z"/>
	</g>
	<g id="XMLID_17_">
		<path id="XMLID_18_" class="st2" d="M112.7,29.6c-4.4-5.2-3.8-13,1.4-17.4c5.2-4.4,13-3.8,17.4,1.4c4.4,5.2,3.8,13-1.4,17.4
			C124.9,35.4,117.1,34.7,112.7,29.6z M130.6,14.2c-4-4.7-11.2-5.3-15.9-1.2c-4.7,4-5.3,11.2-1.2,15.9c4,4.7,11.2,5.3,15.9,1.2
			C134.1,26.1,134.7,19,130.6,14.2z"/>
	</g>
</g>
<text id="XMLID_15_" transform="matrix(1 0 0 1 34.9217 37.6586)" class="st2 st10 st15">M1</text>
<g id="XMLID_3_">
	<g id="XMLID_5_">
		<path id="XMLID_14_" class="st18" d="M75,27.6c4.1-5.9,2.7-13.9-3.1-18.1L57,31.2C63,35.1,71,33.5,75,27.6z"/>
		<path id="XMLID_13_" class="st19" d="M53.3,12.6c-4.1,6-2.6,14.2,3.4,18.4c0.1,0.1,0.2,0.1,0.3,0.2l15-21.8
			c-0.1-0.1-0.2-0.2-0.3-0.2C65.6,5.1,57.4,6.6,53.3,12.6z"/>
		<g id="XMLID_10_">
			<g id="XMLID_12_">
				<g>
					<path class="st19" d="M72.7,7.6c-8.4-5.2-19.7-2-22.9,7.8c-3.3,10.2,4.7,19.7,15,19.8c0.6,0,0.6-0.9,0-0.9
						c-9.7-0.1-17.3-9.1-14.1-18.7c3.1-9.2,13.7-12.1,21.6-7.3C72.7,8.7,73.1,7.9,72.7,7.6L72.7,7.6z"/>
				</g>
			</g>
			<path id="XMLID_11_" class="st19" d="M64,34c0.4-0.5,1.1-0.7,1.6-0.3c0.5,0.4,0.7,1.1,0.3,1.6c-0.4,0.5-1.1,0.7-1.6,0.3
				C63.8,35.3,63.6,34.6,64,34z"/>
		</g>
		<g id="XMLID_6_">
			<path id="XMLID_7_" class="st2" d="M57.2,30.2c-5.6-3.8-7-11.5-3.2-17.1c3.8-5.6,11.5-7,17.1-3.2c5.6,3.9,7,11.5,3.2,17.1
				C70.5,32.7,62.8,34.1,57.2,30.2z M70.5,10.8c-5.1-3.5-12.2-2.2-15.7,2.9c-3.5,5.1-2.2,12.2,2.9,15.7c5.1,3.5,12.2,2.2,15.7-2.9
				C77,21.4,75.7,14.3,70.5,10.8z"/>
		</g>
	</g>
	<text id="XMLID_4_" transform="matrix(1 0 0 1 59.0272 22.5971)" class="st2 st10 st15">M2</text>
</g>
<text id="XMLID_2_" transform="matrix(1 0 0 1 88.4037 16.9954)" class="st2 st10 st15">M3</text>
<text id="XMLID_1_" transform="matrix(1 0 0 1 116.8973 23.1918)" class="st2 st10 st15">M4</text>
</svg>
