<!-- Generator: Adobe Illustrator 22.1.0, SVG Export Plug-In  -->
<svg version="1.1"
	 xmlns="http://www.w3.org/2000/svg" xmlns:xlink="http://www.w3.org/1999/xlink" xmlns:a="http://ns.adobe.com/AdobeSVGViewerExtensions/3.0/"
	 x="0px" y="0px" width="573.4px" height="36.3px" viewBox="0 0 573.4 36.3" style="enable-background:new 0 0 573.4 36.3;"
	 xml:space="preserve">
<style type="text/css">
	.st0{fill:#490E67;}
	.st1{fill:#C29FD8;}
</style>
<defs>
</defs>
<g id="XMLID_46_">
	<g id="XMLID_48_">
		<path id="XMLID_144_" d="M169,14.8h3.1v12.5H169V14.8z"/>
		<path id="XMLID_142_" d="M174.3,17.1h2.6l0.2,0.9c0.4-0.7,1.3-1.2,2.7-1.2c2.6,0,3.7,1.4,3.7,4.1v6.3h-3v-5.8
			c0-1.7-0.4-2.3-1.5-2.3c-0.9,0-1.4,0.4-1.7,0.8v7.2h-3V17.1z"/>
		<path id="XMLID_140_" d="M185.3,26.7v-2.7c0.6,0.6,1.6,1.1,3,1.1c1.3,0,1.7-0.4,1.7-0.9c0-0.5-0.2-0.7-1.4-0.9l-0.5-0.1
			c-2.1-0.3-3-1.3-3-3.1c0-1.8,1.2-3.3,4.2-3.3c1.5,0,2.6,0.4,3.2,0.8v2.6c-0.6-0.7-1.7-1.1-3.1-1.1c-1.2,0-1.6,0.3-1.6,0.9
			s0.2,0.8,1.3,0.9l0.5,0.1c2.2,0.3,3.2,1.1,3.2,3c0,1.7-1.2,3.5-4.4,3.5C186.9,27.5,185.9,27.2,185.3,26.7z"/>
		<path id="XMLID_138_" d="M194.4,23.4v-6.3h3v5.8c0,1.7,0.3,2.3,1.5,2.3c0.9,0,1.3-0.4,1.6-0.8v-7.2h3v10.1h-2.6l-0.2-0.9
			c-0.4,0.6-1.3,1.2-2.6,1.2C195.3,27.5,194.4,26.2,194.4,23.4z"/>
		<path id="XMLID_136_" d="M205.5,17.1h2.5l0.2,1.3c0.1-1.1,1-1.6,2-1.6c0.5,0,0.9,0.1,1,0.3v2.7c-0.3-0.2-0.6-0.3-1.2-0.3
			c-0.7,0-1.2,0.3-1.5,0.8v6.9h-3V17.1z"/>
		<path id="XMLID_133_" d="M212,22.2c0-3.7,2.4-5.4,4.9-5.4c2.4,0,4.7,1,4.7,4.9V23h-6.5c0.1,1.1,0.8,2.1,2.7,2.1
			c1.7,0,2.7-0.6,3.3-1.2v2.5c-0.5,0.5-1.7,1.1-3.8,1.1C214,27.5,212,25.9,212,22.2z M218.8,21.2L218.8,21.2c0-1.3-0.5-2-1.8-2
			c-1.2,0-1.8,1-1.9,2H218.8z"/>
		<path id="XMLID_131_" d="M227.7,14.8h3.1v4.8h4.5v-4.8h3.1v12.5h-3.1v-5.1h-4.5v5.1h-3.1V14.8z"/>
		<path id="XMLID_128_" d="M240.6,14.7c0-0.9,0.6-1.4,1.5-1.4c0.9,0,1.6,0.5,1.6,1.4s-0.6,1.4-1.6,1.4
			C241.2,16.1,240.6,15.6,240.6,14.7z M240.6,17.1h3v10.1h-3V17.1z"/>
		<path id="XMLID_125_" d="M245.3,30.2v-2.2c1,0.6,2.2,0.9,4.3,0.9c2.4,0,3.4-0.3,3.4-1c0-0.6-0.6-0.8-2.1-0.8
			c-1.5,0-3.8,0.3-4.5,0.7v-2l1.4-2.1c-1.5-0.5-2.4-1.6-2.4-3.2c0-2.2,1.8-3.6,4.5-3.6c1.2,0,2.2,0.3,2.9,0.7
			c0.3-0.5,1.1-0.8,1.9-0.8c0.3,0,0.6,0,0.9,0.1v2.3c-0.2-0.1-0.4-0.2-0.7-0.2c-0.3,0-0.7,0.1-0.9,0.3c0.1,0.3,0.2,0.7,0.2,1.1
			c0,2.2-1.8,3.5-4.5,3.5h-0.2l-0.8,1.3c0.4-0.1,1.6-0.3,2.6-0.3c2.5,0,4.2,0.6,4.2,2.8c0,2.2-2,3.5-5.8,3.5
			C247.7,31.1,246.1,30.7,245.3,30.2z M251.4,20.4c0-0.9-0.6-1.4-1.6-1.4c-1,0-1.6,0.5-1.6,1.4s0.6,1.4,1.6,1.4
			C250.8,21.7,251.4,21.3,251.4,20.4z"/>
		<path id="XMLID_123_" d="M256.7,13.5h3v4.4c0.5-0.6,1.4-1,2.6-1c2.6,0,3.6,1.4,3.6,4.1v6.3h-3v-5.8c0-1.7-0.4-2.3-1.5-2.3
			c-0.9,0-1.4,0.4-1.7,0.8v7.3h-3V13.5z"/>
		<path id="XMLID_121_" d="M271.9,21c0-4.3,2.7-6.5,6-6.5c2.1,0,3.1,0.6,3.6,1v3.1c-0.7-1-1.7-1.5-3.2-1.5c-2.1,0-3.3,1.3-3.3,3.8
			c0,2.5,1.1,4,3.3,4c1.4,0,2.5-0.5,3.2-1.4v2.8c-0.7,0.7-2,1.2-3.6,1.2C274.2,27.5,271.9,25.4,271.9,21z"/>
		<path id="XMLID_118_" d="M282.9,22.2c0-3.7,2.4-5.4,5.2-5.4c2.9,0,5,1.6,5,5.4c0,3.8-2.4,5.4-5.2,5.4
			C284.9,27.5,282.9,25.9,282.9,22.2z M290,22.2c0-1.8-0.6-2.9-2.1-2.9c-1.4,0-2,1.2-2,2.9c0,1.8,0.6,2.9,2,2.9
			C289.4,25.1,290,24,290,22.2z"/>
		<path id="XMLID_116_" d="M294.7,17.1h2.7l0.2,0.9c0.4-0.7,1.4-1.2,2.5-1.2c1.4,0,2.4,0.5,2.9,1.4c0.5-0.7,1.5-1.4,3-1.4
			c2.5,0,3.4,1.4,3.4,4.1v6.3h-3v-5.8c0-1.6-0.4-2.2-1.4-2.2c-0.7,0-1.3,0.4-1.6,0.8c0.1,0.3,0.1,0.6,0.1,0.9v6.3h-3v-5.8
			c0-1.6-0.4-2.2-1.3-2.2c-0.8,0-1.3,0.4-1.5,0.8v7.2h-3V17.1z"/>
		<path id="XMLID_113_" d="M311.4,17.1h2.6l0.2,0.9c0.3-0.6,1.2-1.2,2.7-1.2c2.5,0,4.1,1.4,4.1,5.1c0,3.7-2,5.6-4.5,5.6
			c-0.8,0-1.7-0.2-2.2-0.7v3.9h-3V17.1z M318,22.1c0-1.8-0.5-2.8-1.9-2.8c-0.9,0-1.4,0.3-1.7,0.8v4.6c0.4,0.5,1,0.6,1.6,0.6
			C317.5,25.2,318,23.8,318,22.1z"/>
		<path id="XMLID_111_" d="M322.7,24.7V13.5h3v10.9c0,0.6,0.2,0.8,0.6,0.8s0.7-0.2,0.9-0.4V27c-0.2,0.2-0.8,0.5-1.8,0.5
			C323.6,27.5,322.7,26.6,322.7,24.7z"/>
		<path id="XMLID_108_" d="M328.5,14.7c0-0.9,0.6-1.4,1.5-1.4c0.9,0,1.6,0.5,1.6,1.4s-0.6,1.4-1.6,1.4
			C329.1,16.1,328.5,15.6,328.5,14.7z M328.5,17.1h3v10.1h-3V17.1z"/>
		<path id="XMLID_105_" d="M333.1,24.6c0-2,1.4-2.9,4.2-3.3l1.5-0.2c0-1.4-0.7-1.8-2-1.8c-1.4,0-2.8,0.7-3.3,1.8v-2.8
			c0.4-0.6,1.5-1.3,3.8-1.3c2.9,0,4.5,1.3,4.5,4.3v6.1h-2.6l-0.2-0.9c-0.3,0.5-1.1,1.1-2.5,1.1C334.6,27.5,333.1,26.6,333.1,24.6z
			 M338.9,22.9l-1.1,0.3c-1.3,0.3-1.8,0.6-1.8,1.3c0,0.7,0.5,1,1.2,1c0.8,0,1.5-0.3,1.7-0.7V22.9z"/>
		<path id="XMLID_103_" d="M343.9,17.1h2.6l0.2,0.9c0.4-0.7,1.3-1.2,2.7-1.2c2.6,0,3.7,1.4,3.7,4.1v6.3h-3v-5.8
			c0-1.7-0.4-2.3-1.5-2.3c-0.9,0-1.4,0.4-1.7,0.8v7.2h-3V17.1z"/>
		<path id="XMLID_101_" d="M354.6,22.2c0-3.7,2.3-5.4,5.1-5.4c1.5,0,2.6,0.4,3,0.9v2.7c-0.7-0.7-1.4-1-2.6-1c-1.6,0-2.4,1-2.4,2.8
			c0,1.8,0.9,2.8,2.4,2.8c1.1,0,2-0.4,2.6-1.1v2.6c-0.5,0.5-1.6,1.1-3.1,1.1C356.7,27.5,354.6,25.9,354.6,22.2z"/>
		<path id="XMLID_98_" d="M364,22.2c0-3.7,2.4-5.4,4.9-5.4c2.4,0,4.7,1,4.7,4.9V23H367c0.1,1.1,0.8,2.1,2.7,2.1
			c1.7,0,2.7-0.6,3.3-1.2v2.5c-0.5,0.5-1.7,1.1-3.8,1.1C365.9,27.5,364,25.9,364,22.2z M370.7,21.2L370.7,21.2c0-1.3-0.5-2-1.8-2
			c-1.2,0-1.8,1-1.9,2H370.7z"/>
		<path id="XMLID_95_" d="M379,24.6c0-2,1.4-2.9,4.2-3.3l1.5-0.2c0-1.4-0.7-1.8-2-1.8c-1.4,0-2.8,0.7-3.3,1.8v-2.8
			c0.4-0.6,1.5-1.3,3.8-1.3c2.9,0,4.5,1.3,4.5,4.3v6.1h-2.6l-0.2-0.9c-0.3,0.5-1.1,1.1-2.5,1.1C380.5,27.5,379,26.6,379,24.6z
			 M384.8,22.9l-1.1,0.3c-1.3,0.3-1.8,0.6-1.8,1.3c0,0.7,0.5,1,1.2,1c0.8,0,1.5-0.3,1.7-0.7V22.9z"/>
		<path id="XMLID_93_" d="M389.8,17.1h2.6l0.2,0.9c0.4-0.7,1.3-1.2,2.7-1.2c2.6,0,3.7,1.4,3.7,4.1v6.3h-3v-5.8
			c0-1.7-0.4-2.3-1.5-2.3c-0.9,0-1.4,0.4-1.7,0.8v7.2h-3V17.1z"/>
		<path id="XMLID_90_" d="M400.6,22.3c0-3.7,1.8-5.5,4.5-5.5c0.8,0,1.7,0.2,2.2,0.6v-4h3v13.8h-2.6l-0.2-0.9
			c-0.3,0.6-1.2,1.2-2.6,1.2C402.3,27.5,400.6,26,400.6,22.3z M407.2,19.8c-0.4-0.5-1-0.7-1.6-0.7c-1.4,0-2,1.4-2,3.2
			c0,1.8,0.5,2.8,1.9,2.8c0.9,0,1.4-0.3,1.7-0.8V19.8z"/>
		<path id="XMLID_86_" d="M416.8,14.8h4.2c3.6,0,5.1,1.1,5.1,3.2c0,1.8-1,2.6-2.3,2.9v0c1.4,0.2,2.5,0.9,2.5,2.9
			c0,2.1-1.4,3.5-5.1,3.5h-4.3V14.8z M421.2,19.8c1.5,0,1.9-0.5,1.9-1.4c0-0.9-0.6-1.2-1.9-1.2h-1.3v2.6H421.2z M421.3,24.9
			c1.5,0,2-0.5,2-1.4s-0.5-1.4-2-1.4h-1.4v2.8H421.3z"/>
		<path id="XMLID_83_" d="M427.5,22.2c0-3.7,2.4-5.4,4.9-5.4c2.4,0,4.7,1,4.7,4.9V23h-6.5c0.1,1.1,0.8,2.1,2.7,2.1
			c1.7,0,2.7-0.6,3.3-1.2v2.5c-0.5,0.5-1.7,1.1-3.8,1.1C429.5,27.5,427.5,25.9,427.5,22.2z M434.3,21.2L434.3,21.2
			c0-1.3-0.5-2-1.8-2c-1.2,0-1.8,1-1.9,2H434.3z"/>
		<path id="XMLID_81_" d="M439.2,24.3v-4.9H438v-1.1l1-1.3l1.8-2.4h1.4v2.4h2.4v2.3h-2.4V24c0,0.7,0.2,1.1,0.9,1.1
			c0.7,0,1.2-0.3,1.5-0.9v2.4c-0.3,0.4-1,0.8-2.3,0.8C440.1,27.5,439.2,26.3,439.2,24.3z"/>
		<path id="XMLID_79_" d="M446.7,24.3v-4.9h-1.2v-1.1l1-1.3l1.8-2.4h1.4v2.4h2.4v2.3h-2.4V24c0,0.7,0.2,1.1,0.9,1.1
			c0.7,0,1.2-0.3,1.5-0.9v2.4c-0.3,0.4-1,0.8-2.3,0.8C447.5,27.5,446.7,26.3,446.7,24.3z"/>
		<path id="XMLID_76_" d="M453.1,22.2c0-3.7,2.4-5.4,4.9-5.4c2.4,0,4.7,1,4.7,4.9V23h-6.5c0.1,1.1,0.8,2.1,2.7,2.1
			c1.7,0,2.7-0.6,3.3-1.2v2.5c-0.5,0.5-1.7,1.1-3.8,1.1C455.1,27.5,453.1,25.9,453.1,22.2z M459.9,21.2L459.9,21.2
			c0-1.3-0.5-2-1.8-2c-1.2,0-1.8,1-1.9,2H459.9z"/>
		<path id="XMLID_74_" d="M464.3,17.1h2.5l0.2,1.3c0.1-1.1,1-1.6,2-1.6c0.5,0,0.9,0.1,1,0.3v2.7c-0.3-0.2-0.6-0.3-1.2-0.3
			c-0.7,0-1.2,0.3-1.5,0.8v6.9h-3V17.1z"/>
		<path id="XMLID_71_" d="M479.2,16l-0.5-1.3h3.2c0.4,1.1,4.5,11.4,5,12.5h-3.2l-0.9-2.3h-4.4l-0.8,2.3h-2.9L479.2,16z M479.2,22.8
			h2.8L481,20l-0.3-1.1l-0.3,1.1L479.2,22.8z"/>
		<path id="XMLID_68_" d="M487.5,22.3c0-3.7,1.8-5.5,4.5-5.5c0.8,0,1.7,0.2,2.2,0.6v-4h3v13.8h-2.6l-0.2-0.9
			c-0.3,0.6-1.2,1.2-2.6,1.2C489.2,27.5,487.5,26,487.5,22.3z M494.2,19.8c-0.4-0.5-1-0.7-1.6-0.7c-1.4,0-2,1.4-2,3.2
			c0,1.8,0.5,2.8,1.9,2.8c0.9,0,1.4-0.3,1.7-0.8V19.8z"/>
		<path id="XMLID_66_" d="M499.3,13.5h3v4.4c0.5-0.6,1.4-1,2.6-1c2.6,0,3.6,1.4,3.6,4.1v6.3h-3v-5.8c0-1.7-0.4-2.3-1.5-2.3
			c-0.9,0-1.4,0.4-1.7,0.8v7.3h-3V13.5z"/>
		<path id="XMLID_63_" d="M510,22.2c0-3.7,2.4-5.4,4.9-5.4c2.4,0,4.7,1,4.7,4.9V23h-6.5c0.1,1.1,0.8,2.1,2.7,2.1
			c1.7,0,2.7-0.6,3.3-1.2v2.5c-0.5,0.5-1.7,1.1-3.8,1.1C512,27.5,510,25.9,510,22.2z M516.8,21.2L516.8,21.2c0-1.3-0.5-2-1.8-2
			c-1.2,0-1.8,1-1.9,2H516.8z"/>
		<path id="XMLID_61_" d="M521.2,17.1h2.5l0.2,1.3c0.1-1.1,1-1.6,2-1.6c0.5,0,0.9,0.1,1,0.3v2.7c-0.3-0.2-0.6-0.3-1.2-0.3
			c-0.7,0-1.2,0.3-1.5,0.8v6.9h-3V17.1z"/>
		<path id="XMLID_58_" d="M527.7,22.2c0-3.7,2.4-5.4,4.9-5.4c2.4,0,4.7,1,4.7,4.9V23h-6.5c0.1,1.1,0.8,2.1,2.7,2.1
			c1.7,0,2.7-0.6,3.3-1.2v2.5c-0.5,0.5-1.7,1.1-3.8,1.1C529.7,27.5,527.7,25.9,527.7,22.2z M534.5,21.2L534.5,21.2
			c0-1.3-0.5-2-1.8-2c-1.2,0-1.8,1-1.9,2H534.5z"/>
		<path id="XMLID_56_" d="M538.9,17.1h2.6l0.2,0.9c0.4-0.7,1.3-1.2,2.7-1.2c2.6,0,3.7,1.4,3.7,4.1v6.3h-3v-5.8
			c0-1.7-0.4-2.3-1.5-2.3c-0.9,0-1.4,0.4-1.7,0.8v7.2h-3V17.1z"/>
		<path id="XMLID_54_" d="M549.7,22.2c0-3.7,2.3-5.4,5.1-5.4c1.5,0,2.6,0.4,3,0.9v2.7c-0.7-0.7-1.4-1-2.6-1c-1.6,0-2.4,1-2.4,2.8
			c0,1.8,0.9,2.8,2.4,2.8c1.1,0,2-0.4,2.6-1.1v2.6c-0.5,0.5-1.6,1.1-3.1,1.1C551.7,27.5,549.7,25.9,549.7,22.2z"/>
		<path id="XMLID_51_" d="M559,22.2c0-3.7,2.4-5.4,4.9-5.4c2.4,0,4.7,1,4.7,4.9V23H562c0.1,1.1,0.8,2.1,2.7,2.1
			c1.7,0,2.7-0.6,3.3-1.2v2.5c-0.5,0.5-1.7,1.1-3.8,1.1C561,27.5,559,25.9,559,22.2z M565.7,21.2L565.7,21.2c0-1.3-0.5-2-1.8-2
			c-1.2,0-1.8,1-1.9,2H565.7z"/>
		<path id="XMLID_49_" d="M569.8,25.7c0-1,0.7-1.8,1.8-1.8c1,0,1.8,0.8,1.8,1.8c0,1-0.8,1.8-1.8,1.8
			C570.6,27.5,569.8,26.8,569.8,25.7z"/>
	</g>
</g>
<g id="XMLID_1_">
	<path id="XMLID_45_" class="st0" d="M14.2,23.5h11.7c1.8,0,2.6-0.4,2.6-1.2c0-0.9-0.6-1.1-1.8-1.2c-5.6-0.5-7.1-2-7.1-5.6
		c0-3.6,2.3-6,7.7-6c3.2,0,4.7,0.4,5.9,0.9V15c-1.6-0.7-3.6-1.1-5.7-1.1c-1.6,0-2.5,0.4-2.5,1.2c0,0.9,0.6,1.1,1.8,1.2
		c5.6,0.5,7.1,2,7.1,5.6c0,3.4-2,6-8,6H15.2"/>
	<path id="XMLID_42_" class="st0" d="M40.4,20.6c-0.1,2.3,1.1,3,3.8,3c2.6,0,4.6-0.5,5.9-1.2v4.4c-2,0.8-4.5,1.2-6.6,1.2
		c-5.8,0-8.6-3-8.6-9.3c0-6.3,2.8-9.3,8.2-9.3c7.5,0,8.1,5.6,7.6,11.2H40.4z M40.4,17.1h5c0.3-1.9-0.1-3.5-2.3-3.5
		C41.2,13.6,40.4,14.9,40.4,17.1"/>
	<path id="XMLID_41_" class="st0" d="M55.7,9.9l0.7,1.3c2-1.2,4.2-1.8,6.1-1.8c4.8,0,6.2,2.5,6.2,5.9v12.2h-5.6V16.2
		c0-1.3-0.5-2.2-2-2.2c-1.4,0-2.6,0.6-3.1,0.9v12.6h-5.6V9.9H55.7z"/>
	<path id="XMLID_38_" class="st0" d="M79.6,15.2c0-0.8-0.6-1.2-2.1-1.2c-2.2,0-4.8,0.7-6.3,1.3v-4.7c1.2-0.5,3.8-1.2,6.3-1.2
		c6.3,0,7.5,2.7,7.5,6.7v11.4h-3.4l-0.8-1.3c-1.3,1.1-3.1,1.8-5.2,1.8c-4.5,0-6-3-6-5.6c0-4.8,3.5-5.5,6.7-5.8l3.2-0.3V15.2z
		 M77.3,19.7c-1.6,0.2-2.2,1-2.2,2.4c0,1.3,0.8,2.1,2,2.1c1,0,2-0.3,2.5-0.8v-3.9L77.3,19.7z"/>
	<path id="XMLID_35_" class="st0" d="M90.4,9.9l1,1.4c1.2-1.1,2.9-1.9,5.7-1.9c4.6,0,6.8,2.8,6.8,9.3c0,6.5-2.3,9.3-6.8,9.3
		c-1.9,0-3.3-0.5-4.4-1.1v9.4H87V9.9H90.4z M92.6,22.7c0,0,1.1,0.7,2.5,0.7c2.6,0,3.2-1.8,3.2-4.8c0-3-0.6-4.7-3.2-4.7
		c-1.4,0-2.5,0.7-2.5,0.7V22.7z"/>
	<path id="XMLID_34_" class="st0" d="M112.4,27.6c0,0-0.7,0.1-1.6,0.1c-3,0-5.4-1.5-5.4-5V9.9h5.6V22c0,0.7,0.3,1.1,1.4,1.1V27.6z"
		/>
	<path id="XMLID_33_" class="st0" d="M117.1,9.9l0.7,1.3c2-1.2,4.2-1.8,6.1-1.8c4.8,0,6.2,2.5,6.2,5.9v12.2h-5.6V16.2
		c0-1.3-0.5-2.2-2-2.2c-1.4,0-2.6,0.6-3.1,0.9v12.6h-5.6V9.9H117.1z"/>
	<path id="XMLID_30_" class="st0" d="M136.9,20.6c-0.1,2.3,1.1,3,3.8,3c2.6,0,4.6-0.5,5.9-1.2v4.4c-2,0.8-4.5,1.2-6.6,1.2
		c-5.8,0-8.6-3-8.6-9.3c0-6.3,2.8-9.3,8.2-9.3c7.5,0,8.1,5.6,7.6,11.2H136.9z M136.9,17.1h5c0.3-1.9-0.1-3.5-2.3-3.5
		C137.7,13.6,136.9,14.9,136.9,17.1"/>
	<polyline id="XMLID_29_" class="st0" points="8.3,22.1 9.4,17.6 12.8,17.6 10.6,7.6 8.3,17.6 7.2,22.1 6,27.5 0,27.5 7.3,0.9 
		13.8,0.9 21.1,27.5 15.1,27.5 13.9,22.1 	"/>
	<g id="XMLID_7_">
		<polygon id="XMLID_28_" class="st0" points="98.2,36 98.2,32.8 94.9,32.8 94.9,36 94.3,36 94.3,29.4 94.9,29.4 94.9,32.3 
			98.2,32.3 98.2,29.4 98.8,29.4 98.8,36 		"/>
		<path id="XMLID_25_" class="st0" d="M100.5,29.8c0.2,0,0.4,0.2,0.4,0.4c0,0.2-0.2,0.4-0.4,0.4c-0.2,0-0.4-0.2-0.4-0.4
			C100,30,100.2,29.8,100.5,29.8 M100.2,35.1v-3.5h0.6v3.6c0,0.3,0.1,0.4,0.4,0.4v0.5C100.5,36.1,100.2,35.8,100.2,35.1"/>
		<polygon id="XMLID_24_" class="st0" points="103.7,33.4 105.8,36 105.1,36 103.3,33.8 102.8,34.3 102.8,36 102.2,36 102.2,29.4 
			102.8,29.4 102.8,33.6 104.8,31.6 105.6,31.6 		"/>
		<path id="XMLID_23_" class="st0" d="M111.8,32.8c0-0.6-0.3-0.8-0.8-0.8c-0.5,0-0.8,0.1-1.2,0.3c0,0.1,0.1,0.3,0.1,0.5V36h-0.6
			v-3.2c0-0.6-0.3-0.8-0.8-0.8c-0.5,0-0.8,0.1-1.1,0.3V36h-0.6v-4.4h0.3l0.1,0.4c0.4-0.3,0.9-0.4,1.3-0.4c0.6,0,1,0.2,1.2,0.5
			c0.5-0.3,0.9-0.5,1.4-0.5c0.9,0,1.5,0.4,1.5,1.3V36h-0.6V32.8z"/>
		<path id="XMLID_20_" class="st0" d="M115.1,32.1c-0.6,0-1,0.1-1.3,0.2v-0.5c0.4-0.2,0.9-0.2,1.3-0.2c1.3,0,1.7,0.6,1.7,1.5v3h-0.3
			l-0.1-0.4c-0.4,0.3-0.9,0.4-1.3,0.4c-1.2,0-1.6-0.7-1.6-1.4c0-0.7,0.4-1.3,1.6-1.4l1.2-0.1V33C116.1,32.3,115.9,32.1,115.1,32.1
			 M114.9,33.8c-0.6,0.1-0.9,0.4-0.9,0.9c0,0.4,0.1,0.9,0.9,0.9c0.5,0,0.8-0.1,1.2-0.4v-1.5L114.9,33.8z"/>
		<path id="XMLID_17_" class="st0" d="M120.1,36h-0.6v-6.6h2c1.7,0,2.2,1,2.2,2c0,1-0.6,2-2.2,2h-1.4V36z M120.1,32.8h1.5
			c1.2,0,1.5-0.8,1.5-1.4c0-0.6-0.2-1.4-1.5-1.4h-1.5V32.8z"/>
		<path id="XMLID_16_" class="st0" d="M126.4,32.1c-0.6,0-0.9,0.1-1.2,0.3V36h-0.6v-6.6h0.6v2.5c0.4-0.2,0.8-0.4,1.2-0.4
			c1,0,1.5,0.5,1.5,1.3V36h-0.6v-3.2C127.3,32.2,127,32.1,126.4,32.1"/>
		<path id="XMLID_13_" class="st0" d="M130.6,32.1c-0.6,0-1,0.1-1.3,0.2v-0.5c0.4-0.2,0.9-0.2,1.3-0.2c1.3,0,1.7,0.6,1.7,1.5v3h-0.3
			l-0.1-0.4c-0.4,0.3-0.9,0.4-1.3,0.4c-1.2,0-1.5-0.7-1.5-1.4c0-0.7,0.4-1.3,1.6-1.4l1.2-0.1V33C131.7,32.3,131.4,32.1,130.6,32.1
			 M130.5,33.8c-0.6,0.1-0.9,0.4-0.9,0.9c0,0.4,0.1,0.9,0.9,0.9c0.5,0,0.8-0.1,1.2-0.4v-1.5L130.5,33.8z"/>
		<path id="XMLID_12_" class="st0" d="M135.9,32.1c-0.1,0-0.3-0.1-0.5-0.1c-0.6,0-1,0.1-1.3,0.3V36h-0.6v-4.4h0.3l0.1,0.4
			c0.4-0.3,0.9-0.5,1.4-0.5c0.2,0,0.4,0,0.5,0V32.1z"/>
		<path id="XMLID_11_" class="st0" d="M141.9,32.8c0-0.6-0.3-0.8-0.8-0.8c-0.5,0-0.8,0.1-1.2,0.3c0,0.1,0.1,0.3,0.1,0.5V36h-0.6
			v-3.2c0-0.6-0.3-0.8-0.8-0.8c-0.5,0-0.8,0.1-1.2,0.3V36h-0.6v-4.4h0.3l0.1,0.4c0.4-0.3,0.9-0.4,1.3-0.4c0.6,0,1,0.2,1.2,0.5
			c0.5-0.3,0.9-0.5,1.4-0.5c0.9,0,1.5,0.4,1.5,1.3V36h-0.6V32.8z"/>
		<path id="XMLID_8_" class="st0" d="M145.1,32.1c-0.6,0-1,0.1-1.3,0.2v-0.5c0.4-0.2,0.9-0.2,1.3-0.2c1.3,0,1.7,0.6,1.7,1.5v3h-0.3
			l-0.1-0.4c-0.4,0.3-0.9,0.4-1.3,0.4c-1.2,0-1.5-0.7-1.5-1.4c0-0.7,0.4-1.3,1.6-1.4l1.2-0.1V33C146.2,32.3,146,32.1,145.1,32.1
			 M145,33.8c-0.6,0.1-0.9,0.4-0.9,0.9c0,0.4,0.1,0.9,0.9,0.9c0.5,0,0.8-0.1,1.2-0.4v-1.5L145,33.8z"/>
	</g>
	<g id="XMLID_2_">
		<path id="XMLID_6_" class="st0" d="M110.2,0c-0.8,0-1.5,0.2-2.1,0.5c0.3,0.1,0.5,0.3,0.8,0.5c1.5,0.3,2.6,1.6,2.6,3.3
			c0,1.6-1.1,2.9-2.6,3.3c-0.2,0.2-0.5,0.4-0.8,0.5c0.6,0.3,1.3,0.5,2.1,0.5c2.4,0,4.3-1.9,4.3-4.3C114.5,1.9,112.6,0,110.2,0z"/>
		<path id="XMLID_5_" class="st1" d="M104.8,4.3c0-1.6,1.1-2.9,2.6-3.3c0.2-0.2,0.5-0.4,0.8-0.5c-0.6-0.3-1.3-0.5-2-0.5
			c-2.4,0-4.3,1.9-4.3,4.3c0,2.4,1.8,4.3,4.3,4.3c0.7,0,1.4-0.2,2-0.5c-0.3-0.1-0.5-0.3-0.8-0.5C105.9,7.2,104.8,5.9,104.8,4.3z"/>
		<path id="XMLID_4_" class="st1" d="M108.2,7.6c-0.3,0-0.5,0-0.8-0.1c0.2,0.2,0.5,0.4,0.8,0.5c0.3-0.1,0.5-0.3,0.8-0.5
			C108.7,7.6,108.5,7.6,108.2,7.6z"/>
		<path id="XMLID_3_" class="st1" d="M108.2,0.9c0.3,0,0.5,0,0.7,0.1c-0.2-0.2-0.5-0.4-0.8-0.5c-0.3,0.1-0.5,0.3-0.8,0.5
			C107.7,1,107.9,0.9,108.2,0.9z"/>
	</g>
</g>
</svg>
