<!-- Generator: Adobe Illustrator 22.1.0, SVG Export Plug-In  -->
<svg version="1.1"
	 xmlns="http://www.w3.org/2000/svg" xmlns:xlink="http://www.w3.org/1999/xlink" xmlns:a="http://ns.adobe.com/AdobeSVGViewerExtensions/3.0/"
	 x="0px" y="0px" width="164.3px" height="141.8px" viewBox="0 0 164.3 141.8" style="enable-background:new 0 0 164.3 141.8;"
	 xml:space="preserve">
<style type="text/css">
	.st0{fill:#2263AE;}
	.st1{fill:#2671B8;}
	.st2{fill:#FFFFFF;}
	.st3{fill:#28A8E0;}
	.st4{fill:#33B2DE;}
	.st5{fill:#5E5F5E;}
	.st6{fill:#E42E48;}
	.st7{fill:#EE4770;}
	.st8{fill:url(#XMLID_153_);}
	.st9{fill:url(#XMLID_162_);}
</style>
<defs>
</defs>
<g id="XMLID_143_">
	<path id="XMLID_152_" class="st0" d="M62.7,126.3c0,7.5,6,13.5,13.5,13.6v-27.1C68.8,112.8,62.7,118.9,62.7,126.3z"/>
	<path id="XMLID_151_" class="st1" d="M89.9,126.3c0-7.5-6.1-13.6-13.6-13.6c0,0-0.1,0-0.1,0v27.1c0,0,0.1,0,0.1,0
		C83.8,139.9,89.9,133.8,89.9,126.3z"/>
	<g id="XMLID_148_">
		<g id="XMLID_150_">
			<g>
				<path class="st0" d="M76.3,110.8c-13.2,0.6-20.8,16.6-11,26.5c9.9,9.9,25.9,2.3,26.5-11c0-0.6-0.9-0.6-0.9,0
					C90.3,138.8,75.3,146,66,136.6c-9.3-9.3-2.1-24.4,10.3-24.9C76.9,111.7,76.9,110.8,76.3,110.8L76.3,110.8z"/>
			</g>
		</g>
		<path id="XMLID_149_" class="st0" d="M77.6,111.2c0,0.7-0.5,1.2-1.2,1.2s-1.2-0.5-1.2-1.2c0-0.7,0.5-1.2,1.2-1.2
			S77.6,110.5,77.6,111.2z"/>
	</g>
	<g id="XMLID_144_">
		<path id="XMLID_145_" class="st2" d="M88.9,126.3c0,7-5.7,12.6-12.6,12.6c-7,0-12.6-5.7-12.6-12.6c0-7,5.7-12.6,12.6-12.6
			C83.3,113.7,88.9,119.3,88.9,126.3z M87.9,126.3c0-6.4-5.2-11.6-11.6-11.6c-6.4,0-11.6,5.2-11.6,11.6c0,6.4,5.2,11.6,11.6,11.6
			C82.7,137.9,87.9,132.7,87.9,126.3z"/>
	</g>
</g>
<g id="XMLID_131_">
	<path id="XMLID_142_" class="st3" d="M113.9,122.9c5,5.2,13.2,5.4,18.4,0.4c5.2-5,5.4-13.2,0.4-18.4c0,0-0.1-0.1-0.1-0.1l-18.8,18
		C113.9,122.8,113.9,122.8,113.9,122.9z"/>
	<path id="XMLID_141_" class="st4" d="M114.4,104.4c-5.2,4.9-5.4,13.1-0.5,18.3l18.9-18C127.7,99.6,119.5,99.5,114.4,104.4z"/>
	<g id="XMLID_138_">
		<g id="XMLID_140_">
			<g>
				<path class="st3" d="M113.1,103.1c-8.9,9.2-3.4,25.3,10,25.7c13.4,0.3,19.5-15.7,11.1-25.2c-0.4-0.4-1,0.2-0.6,0.6
					c8,9.1,2.1,23.9-10.5,23.7c-12.7-0.2-17.7-15.6-9.4-24.2C114.1,103.3,113.4,102.7,113.1,103.1L113.1,103.1z"/>
			</g>
		</g>
		<path id="XMLID_139_" class="st3" d="M112.7,102.5c0.5-0.4,1.2-0.4,1.6,0c0.4,0.5,0.4,1.2,0,1.6c-0.5,0.4-1.2,0.4-1.6,0
			C112.2,103.6,112.2,102.9,112.7,102.5z"/>
	</g>
	<path id="XMLID_137_" class="st5" d="M115.2,105.3c0,0,0,0.1,0,0.2c0-0.1,0.1-0.2,0.1-0.2C115.3,105.3,115.3,105.3,115.2,105.3z"/>
	<g id="XMLID_133_">
		<path id="XMLID_134_" class="st2" d="M132.2,105.5c4.6,4.8,4.5,12.6-0.4,17.2c-4.8,4.6-12.6,4.5-17.2-0.4
			c-4.6-4.8-4.5-12.6,0.4-17.2C119.8,100.4,127.5,100.6,132.2,105.5z M115.3,121.6c4.2,4.4,11.3,4.6,15.7,0.4
			c4.4-4.2,4.6-11.3,0.4-15.7c-4.2-4.4-11.3-4.6-15.7-0.4C111.2,110.1,111.1,117.1,115.3,121.6z"/>
	</g>
	<path id="XMLID_132_" class="st5" d="M126.2,116.8c0,0,0-0.1,0-0.1c-0.1,0-0.2,0.1-0.3,0.1C126.1,116.8,126.2,116.8,126.2,116.8z"
		/>
</g>
<g id="XMLID_119_">
	<path id="XMLID_130_" class="st3" d="M143.5,92.7c6.3,3.4,14.3,1.1,17.7-5.3c3.4-6.3,1.1-14.3-5.3-17.7c-0.1,0-0.1-0.1-0.2-0.1
		l-12.4,22.9C143.4,92.6,143.4,92.6,143.5,92.7z"/>
	<path id="XMLID_129_" class="st4" d="M138.2,75c-3.4,6.3-1.1,14.1,5.1,17.6l12.4-22.9C149.4,66.3,141.6,68.7,138.2,75z"/>
	<g id="XMLID_126_">
		<g id="XMLID_128_">
			<g>
				<path class="st3" d="M136.6,74.1c-5.5,11.5,4.4,25.2,17.4,21.4c12.9-3.8,13.8-20.8,2.8-27.4c-0.5-0.3-0.9,0.5-0.4,0.7
					c10.3,6.2,9.6,22.2-2.6,25.8c-12.1,3.6-21.6-9.3-16.4-20.1C137.5,74,136.8,73.6,136.6,74.1L136.6,74.1z"/>
			</g>
		</g>
		<path id="XMLID_127_" class="st3" d="M136,73.6c0.3-0.6,1-0.8,1.6-0.5c0.6,0.3,0.8,1,0.5,1.5c-0.3,0.6-1,0.8-1.5,0.5
			C135.9,74.9,135.7,74.2,136,73.6z"/>
	</g>
	<path id="XMLID_125_" class="st5" d="M139.3,75.6c0,0,0,0.1,0,0.2C139.4,75.7,139.4,75.6,139.3,75.6
		C139.3,75.5,139.3,75.5,139.3,75.6z"/>
	<g id="XMLID_121_">
		<path id="XMLID_122_" class="st2" d="M155.5,70.5c5.9,3.2,8.1,10.6,4.9,16.5c-3.2,5.9-10.6,8.1-16.5,4.9
			c-5.9-3.2-8.1-10.6-4.9-16.5C142.2,69.5,149.6,67.3,155.5,70.5z M144.4,91c5.4,2.9,12.2,0.9,15.1-4.5c2.9-5.4,0.9-12.2-4.5-15.1
			c-5.4-2.9-12.2-0.9-15.1,4.5C137,81.3,139,88.1,144.4,91z"/>
	</g>
	<path id="XMLID_120_" class="st5" d="M153.3,83.1c0,0,0-0.1,0-0.1c-0.1,0.1-0.1,0.1-0.2,0.2C153.2,83.2,153.3,83.2,153.3,83.1z"/>
</g>
<g id="XMLID_110_">
	<path id="XMLID_118_" class="st6" d="M20.9,51.8c6.9-3,10-11,7-17.9L3,44.8C6,51.7,14,54.8,20.9,51.8z"/>
	<path id="XMLID_117_" class="st7" d="M10,27C3.2,30,0,38,3,44.8L27.9,34C24.9,27.1,16.9,24,10,27z"/>
	<g id="XMLID_116_">
		<g>
			<path class="st6" d="M9.2,25.2c-9,4.4-12.3,15.9-5.8,24c6.8,8.3,19.2,6.9,25.1-1.5c0.3-0.5-0.4-0.9-0.8-0.5
				c-5.9,8.4-18.5,9.2-24.4,0.3C-1.9,39.8,1.6,29.9,9.6,26C10.2,25.7,9.7,25,9.2,25.2L9.2,25.2z"/>
		</g>
	</g>
	<g id="XMLID_112_">
		<path id="XMLID_113_" class="st2" d="M20.5,51c-6.4,2.8-13.9-0.1-16.6-6.5C1.1,38.1,4,30.6,10.4,27.8c6.4-2.8,13.9,0.1,16.6,6.5
			C29.8,40.7,26.9,48.2,20.5,51z M20.1,50c5.8-2.6,8.5-9.4,6-15.2c-2.6-5.8-9.4-8.5-15.2-6C5,31.3,2.3,38.2,4.8,44
			C7.4,49.9,14.2,52.5,20.1,50z"/>
	</g>
	<path id="XMLID_111_" class="st6" d="M28,45.9c0.6-0.3,1.3,0,1.6,0.6c0.3,0.6,0,1.3-0.6,1.6c-0.6,0.3-1.3,0-1.6-0.6
		C27.2,46.9,27.4,46.2,28,45.9z"/>
</g>
<g id="XMLID_97_">
	<path id="XMLID_108_" class="st2" d="M8.7,38.4H7.1L7,39c0.1,0,0.2,0,0.3,0c0.4,0,0.8,0.1,1.1,0.3c0.3,0.2,0.5,0.6,0.5,1
		c0,0.8-0.7,1.5-1.8,1.5c-0.5,0-0.9-0.1-1.2-0.2l0.2-0.7C6.3,40.9,6.6,41,7,41c0.4,0,0.8-0.2,0.8-0.6c0-0.4-0.3-0.7-1.2-0.7
		c-0.2,0-0.4,0-0.6,0l0.3-2.2h2.3V38.4z"/>
	<path id="XMLID_106_" class="st2" d="M10.6,37.4v1.7h1.6v-1.7h1v4.3h-1v-1.8h-1.6v1.8h-1v-4.3H10.6z"/>
	<path id="XMLID_104_" class="st2" d="M14.8,38.3h-1.2v-0.8H17v0.8h-1.2v3.5h-1V38.3z"/>
	<path id="XMLID_102_" class="st2" d="M17.3,41.7v-0.6l0.5-0.5c0.9-0.8,1.3-1.3,1.4-1.8c0-0.3-0.2-0.6-0.7-0.6
		c-0.4,0-0.7,0.2-0.9,0.3l-0.3-0.7c0.3-0.2,0.8-0.4,1.4-0.4c0.9,0,1.5,0.5,1.5,1.3c0,0.7-0.5,1.3-1.1,1.8l-0.4,0.3v0h1.6v0.8H17.3z"
		/>
	<path id="XMLID_98_" class="st2" d="M21,37.5c0.3-0.1,0.8-0.1,1.3-0.1c0.6,0,1,0.1,1.3,0.2c0.3,0.2,0.5,0.5,0.5,0.8
		c0,0.4-0.2,0.7-0.7,0.9v0c0.5,0.1,0.9,0.5,0.9,1.1c0,0.4-0.2,0.7-0.4,0.9c-0.3,0.2-0.8,0.4-1.7,0.4c-0.5,0-0.8,0-1.1-0.1V37.5z
		 M22,39.1h0.3c0.5,0,0.8-0.2,0.8-0.5c0-0.3-0.2-0.5-0.7-0.5c-0.2,0-0.3,0-0.4,0V39.1z M22,41c0.1,0,0.2,0,0.4,0
		c0.4,0,0.8-0.2,0.8-0.6c0-0.4-0.4-0.6-0.9-0.6H22V41z"/>
</g>
<g id="XMLID_36_">
	
		<radialGradient id="XMLID_153_" cx="402.6395" cy="1538.028" r="140.3595" gradientTransform="matrix(0.3934 0 0 0.3934 -74.4751 -549.8429)" gradientUnits="userSpaceOnUse">
		<stop  offset="0" style="stop-color:#2CABE1"/>
		<stop  offset="0.8349" style="stop-color:#306AB3"/>
	</radialGradient>
	<path id="XMLID_96_" class="st8" d="M139.1,55.2c0,30.5-24.7,55.2-55.2,55.2S28.7,85.7,28.7,55.2C28.7,24.7,53.4,0,83.9,0
		S139.1,24.7,139.1,55.2z"/>
	<g id="XMLID_37_">
		<g id="XMLID_39_">
			<path id="XMLID_65_" class="st2" d="M39.5,50.2L39.1,49H42c0.4,1,4.2,10.5,4.6,11.5h-2.9l-0.8-2.1h-4.1l-0.8,2.1h-2.7L39.5,50.2z
				 M39.6,56.4h2.6l-1-2.6l-0.3-1l-0.3,1L39.6,56.4z"/>
			<path id="XMLID_63_" class="st2" d="M47.6,51.2h2.5l0.2,0.8c0.4-0.6,1.3-1.1,2.3-1.1c1.3,0,2.2,0.4,2.7,1.3
				c0.5-0.6,1.4-1.3,2.7-1.3c2.3,0,3.2,1.3,3.2,3.8v5.8h-2.8v-5.3c0-1.5-0.4-2.1-1.3-2.1c-0.7,0-1.2,0.4-1.5,0.8
				c0,0.3,0.1,0.6,0.1,0.9v5.8H53v-5.3c0-1.5-0.4-2.1-1.2-2.1c-0.7,0-1.2,0.4-1.4,0.8v6.7h-2.8V51.2z"/>
			<path id="XMLID_60_" class="st2" d="M63,48.9c0-0.8,0.5-1.3,1.4-1.3c0.9,0,1.4,0.5,1.4,1.3c0,0.8-0.6,1.3-1.4,1.3
				C63.5,50.2,63,49.8,63,48.9z M63.1,51.2h2.7v9.3h-2.7V51.2z"/>
			<path id="XMLID_58_" class="st2" d="M67.5,60v-2.4c0.6,0.6,1.5,1.1,2.8,1.1c1.2,0,1.6-0.4,1.6-0.9c0-0.5-0.2-0.7-1.3-0.8
				l-0.5-0.1c-1.9-0.3-2.8-1.2-2.8-2.9c0-1.6,1.1-3.1,3.8-3.1c1.4,0,2.4,0.3,2.9,0.8v2.4c-0.6-0.7-1.6-1-2.8-1
				c-1.1,0-1.4,0.3-1.4,0.8s0.2,0.7,1.2,0.9l0.5,0.1c2.1,0.3,3,1.1,3,2.8c0,1.6-1.1,3.2-4,3.2C69,60.8,68,60.4,67.5,60z"/>
			<path id="XMLID_56_" class="st2" d="M75.8,56.9v-5.8h2.8v5.3c0,1.5,0.3,2.1,1.4,2.1c0.8,0,1.2-0.4,1.5-0.8v-6.7h2.7v9.3h-2.4
				l-0.2-0.8c-0.4,0.6-1.2,1.1-2.4,1.1C76.7,60.8,75.8,59.5,75.8,56.9z"/>
			<path id="XMLID_54_" class="st2" d="M86.1,58.2V47.8h2.8v10c0,0.5,0.2,0.7,0.6,0.7c0.4,0,0.7-0.2,0.8-0.4v2.1
				c-0.2,0.2-0.8,0.5-1.6,0.5C86.9,60.8,86.1,59.8,86.1,58.2z"/>
			<path id="XMLID_51_" class="st2" d="M91.4,51.2h2.4l0.2,0.8c0.3-0.5,1.1-1.1,2.4-1.1c2.3,0,3.8,1.3,3.8,4.7
				c0,3.4-1.8,5.2-4.1,5.2c-0.7,0-1.6-0.2-2-0.6v3.6h-2.8V51.2z M97.5,55.7c0-1.6-0.5-2.6-1.8-2.6c-0.8,0-1.3,0.3-1.6,0.7V58
				c0.3,0.4,0.9,0.6,1.5,0.6C97,58.6,97.5,57.3,97.5,55.7z"/>
			<path id="XMLID_49_" class="st2" d="M101.8,51.2h2.3l0.2,1.2c0.1-1,0.9-1.5,1.8-1.5c0.5,0,0.8,0.1,0.9,0.2v2.5
				c-0.2-0.2-0.6-0.3-1.1-0.3c-0.7,0-1.1,0.3-1.4,0.8v6.4h-2.8V51.2z"/>
			<path id="XMLID_46_" class="st2" d="M108.2,48.9c0-0.8,0.5-1.3,1.4-1.3c0.9,0,1.4,0.5,1.4,1.3c0,0.8-0.6,1.3-1.4,1.3
				C108.7,50.2,108.2,49.8,108.2,48.9z M108.3,51.2h2.8v9.3h-2.8V51.2z"/>
			<path id="XMLID_43_" class="st2" d="M112.5,55.9c0-3.4,1.7-5,4.1-5c0.7,0,1.6,0.2,2,0.6v-3.7h2.8v12.7H119l-0.2-0.8
				c-0.3,0.5-1.1,1.1-2.4,1.1C114.1,60.8,112.5,59.3,112.5,55.9z M118.6,53.6c-0.3-0.4-0.9-0.6-1.5-0.6c-1.3,0-1.8,1.3-1.8,2.9
				c0,1.6,0.4,2.6,1.7,2.6c0.8,0,1.3-0.3,1.6-0.7V53.6z"/>
			<path id="XMLID_40_" class="st2" d="M122.9,55.8c0-3.4,2.2-4.9,4.5-4.9c2.2,0,4.3,1,4.3,4.5v1.2h-6c0.1,1.1,0.8,1.9,2.5,1.9
				c1.6,0,2.5-0.6,3-1.1v2.3c-0.5,0.5-1.6,1-3.5,1C124.7,60.8,122.9,59.2,122.9,55.8z M129.1,54.9L129.1,54.9c0-1.2-0.5-1.9-1.7-1.9
				c-1.1,0-1.7,0.9-1.7,1.9H129.1z"/>
		</g>
	</g>
</g>
<g id="XMLID_23_">
	<g id="XMLID_25_">
		<path id="XMLID_28_" class="st2" d="M145.4,77.9c0.4-0.1,1-0.1,1.6-0.1c1,0,1.7,0.2,2.2,0.6c0.6,0.4,0.9,1.1,0.9,2
			c0,1-0.4,1.7-0.9,2.2c-0.6,0.5-1.4,0.7-2.5,0.7c-0.6,0-1.1,0-1.4-0.1V77.9z M146.6,82.3c0.1,0,0.3,0,0.4,0c1.1,0,1.8-0.6,1.8-1.9
			c0-1.1-0.6-1.7-1.7-1.7c-0.3,0-0.4,0-0.5,0V82.3z"/>
		<path id="XMLID_26_" class="st2" d="M150.6,83.2v-0.7l0.7-0.6c1.1-1,1.7-1.6,1.7-2.2c0-0.4-0.3-0.8-0.9-0.8
			c-0.4,0-0.8,0.2-1.1,0.4l-0.3-0.9c0.4-0.3,1-0.5,1.7-0.5c1.2,0,1.8,0.7,1.8,1.6c0,0.9-0.6,1.6-1.4,2.2l-0.5,0.4v0h2v1H150.6z"/>
	</g>
</g>
<g id="XMLID_10_">
	<g id="XMLID_12_">
		<path id="XMLID_15_" class="st2" d="M119.1,111.6c0.4-0.1,1-0.1,1.6-0.1c1,0,1.7,0.2,2.2,0.6c0.6,0.4,0.9,1.1,0.9,2
			c0,1-0.4,1.7-0.9,2.2c-0.6,0.5-1.4,0.7-2.5,0.7c-0.6,0-1.1,0-1.4-0.1V111.6z M120.3,116c0.1,0,0.3,0,0.4,0c1.1,0,1.8-0.6,1.8-1.9
			c0-1.1-0.6-1.7-1.7-1.7c-0.3,0-0.4,0-0.5,0V116z"/>
		<path id="XMLID_13_" class="st2" d="M124.5,115.7c0.2,0.1,0.7,0.3,1.2,0.3c0.6,0,0.9-0.3,0.9-0.7c0-0.5-0.5-0.7-1-0.7h-0.5v-0.9
			h0.5c0.4,0,0.9-0.2,0.9-0.6c0-0.3-0.3-0.5-0.8-0.5c-0.4,0-0.9,0.2-1.1,0.3l-0.2-0.9c0.3-0.2,0.9-0.4,1.6-0.4
			c1.1,0,1.7,0.6,1.7,1.3c0,0.5-0.3,1-0.9,1.2v0c0.6,0.1,1.1,0.6,1.1,1.3c0,0.9-0.8,1.6-2.1,1.6c-0.7,0-1.2-0.2-1.5-0.4L124.5,115.7
			z"/>
	</g>
</g>
<g id="XMLID_1_">
	<path id="XMLID_8_" class="st2" d="M71.5,123.9h-1.9l-0.1,0.7c0.1,0,0.2,0,0.3,0c0.5,0,0.9,0.1,1.3,0.3c0.4,0.2,0.6,0.6,0.6,1.2
		c0,0.9-0.8,1.7-2.1,1.7c-0.6,0-1.1-0.1-1.3-0.3l0.2-0.8c0.2,0.1,0.7,0.2,1.1,0.2c0.5,0,1-0.2,1-0.7c0-0.5-0.4-0.8-1.4-0.8
		c-0.3,0-0.5,0-0.7,0l0.3-2.5h2.7V123.9z"/>
	<path id="XMLID_6_" class="st2" d="M73.5,122.8v1.9h1.9v-1.9h1.1v5h-1.1v-2.1h-1.9v2.1h-1.1v-5H73.5z"/>
	<path id="XMLID_4_" class="st2" d="M78.3,123.8h-1.3v-1h3.8v1h-1.4v4.1h-1.1V123.8z"/>
	<path id="XMLID_2_" class="st2" d="M84.5,123v0.7l-2,4.1h-1.2l2-3.9v0h-2.2V123H84.5z"/>
</g>
</svg>
