<!-- Generator: Adobe Illustrator 22.1.0, SVG Export Plug-In  -->
<svg version="1.1"
	 xmlns="http://www.w3.org/2000/svg" xmlns:xlink="http://www.w3.org/1999/xlink" xmlns:a="http://ns.adobe.com/AdobeSVGViewerExtensions/3.0/"
	 x="0px" y="0px" width="404.5px" height="251.1px" viewBox="0 0 404.5 251.1" style="enable-background:new 0 0 404.5 251.1;"
	 xml:space="preserve">
<style type="text/css">
	.st0{fill:none;stroke:#EE2A7B;stroke-width:0.8814;stroke-miterlimit:10;stroke-dasharray:2.7803,2.7803;}
	.st1{fill:url(#XMLID_150_);}
	.st2{fill:#FFFFFF;stroke:#8B3C95;stroke-width:1.4354;stroke-miterlimit:10;}
	.st3{fill:#E4EA91;}
	.st4{fill:none;stroke:#EE2A7B;stroke-width:0.8021;stroke-miterlimit:10;stroke-dasharray:2.5302,2.5302;}
	.st5{fill:#669552;}
	.st6{fill:#231F20;}
	.st7{font-family:'Altis-Medium';}
	.st8{font-size:6.9155px;}
	.st9{fill:#808184;}
	.st10{fill:#0C3B60;}
	.st11{fill:none;stroke:#8B3C95;stroke-width:0.6144;stroke-miterlimit:10;}
	.st12{fill:none;stroke:#808184;stroke-width:1.1809;stroke-miterlimit:10;}
	.st13{fill:none;stroke:#8B3C96;stroke-width:0.9447;stroke-miterlimit:10;}
	.st14{fill:none;stroke:#669552;stroke-width:1.1809;stroke-miterlimit:10;}
	.st15{fill:none;stroke:#8B3C96;stroke-width:1.1809;stroke-miterlimit:10;}
	.st16{fill:none;stroke:#5089C3;stroke-width:0.7837;stroke-miterlimit:10;}
	.st17{fill:#8B3C96;}
	.st18{font-family:'MyriadPro-Regular';}
	.st19{font-size:9.0349px;}
	.st20{font-size:5.4464px;}
	.st21{fill:none;stroke:#8B3C95;stroke-width:0.7837;stroke-miterlimit:10;}
	.st22{fill:#FFFFFF;}
	.st23{font-size:5.7269px;}
	.st24{fill:none;stroke:#8B3C95;stroke-width:0.25;stroke-miterlimit:10;}
	.st25{fill:url(#XMLID_568_);}
</style>
<defs>
</defs>
<g id="XMLID_1_">
	<path id="XMLID_566_" class="st0" d="M265.4,87.3"/>
	<linearGradient id="XMLID_150_" gradientUnits="userSpaceOnUse" x1="0.7177" y1="125.2125" x2="404.1192" y2="125.2125">
		<stop  offset="0" style="stop-color:#C3A0CB"/>
		<stop  offset="1" style="stop-color:#4A2365"/>
	</linearGradient>
	<path id="XMLID_565_" class="st1" d="M404.1,11.8c0-6.5-5-11.8-11.2-11.8h-381C5.7,0,0.7,5.3,0.7,11.8v226.8
		c0,6.5,5,11.8,11.2,11.8h381c6.2,0,11.2-5.3,11.2-11.8V11.8z"/>
	<g id="XMLID_562_">
		<path id="XMLID_564_" class="st2" d="M0.7,237.3c0,7.2,5.9,13.1,13.1,13.1h376.9c7.2,0,13.1-5.9,13.1-13.1V44.2
			c0-7.2-5.9-13.1-13.1-13.1H13.8C6.6,31.1,0.7,37,0.7,44.2V237.3z"/>
		<path id="XMLID_563_" class="st3" d="M304.5,30.6h86.1c7.2,0,13.1,5.9,13.1,13.1v193.1c0,7.2-5.9,13.1-13.1,13.1h-86.1V30.6z"/>
	</g>
	<line id="XMLID_561_" class="st4" x1="304.5" y1="250.7" x2="304.5" y2="30.9"/>
	<g id="XMLID_553_">
		<g id="XMLID_556_">
			<g id="XMLID_558_">
				<g id="XMLID_559_">
					<path id="XMLID_560_" class="st5" d="M322.1,140.8c6.1,0,12.2,0,18.2,0c1,0,1-1.6,0-1.6c-6.1,0-12.2,0-18.2,0
						C321.1,139.2,321.1,140.8,322.1,140.8L322.1,140.8z"/>
				</g>
			</g>
			<polygon id="XMLID_557_" class="st5" points="327.6,143.1 331.2,136.8 334.8,143.1 			"/>
		</g>
		<g id="XMLID_554_">
			<text id="XMLID_555_" transform="matrix(1 0 0 1 344.6689 142.1866)"><tspan x="0" y="0" class="st6 st7 st8">RISPERIDONE</tspan><tspan x="7.8" y="8.3" class="st6 st7 st8">3mg BID</tspan></text>
		</g>
	</g>
	<g id="XMLID_545_">
		<g id="XMLID_546_">
			<g id="XMLID_551_">
				<text id="XMLID_552_" transform="matrix(1 0 0 1 346.6195 90.6407)" class="st6 st7 st8">PLACEBO </text>
			</g>
			<g id="XMLID_547_">
				<g id="XMLID_549_">
					<path id="XMLID_550_" class="st9" d="M316.3,87.7c6.1,0,12.2,0,18.2,0c1,0,1-1.6,0-1.6c-6.1,0-12.2,0-18.2,0
						C315.3,86.1,315.3,87.7,316.3,87.7L316.3,87.7z"/>
				</g>
				<rect id="XMLID_548_" x="322.9" y="84.4" class="st9" width="5.1" height="5.1"/>
			</g>
		</g>
	</g>
	<g id="XMLID_536_">
		<g id="XMLID_538_">
			<path id="XMLID_539_" class="st10" d="M29.7,48.6c0-1.5,1.1-2.4,2.3-2.4c1.4,0,2.3,0.9,2.3,2.4c0,1.5-1.1,2.4-2.3,2.4
				C30.7,51,29.7,50.2,29.7,48.6z M33.4,48.6c0-1.1-0.6-1.7-1.4-1.7c-0.8,0-1.4,0.6-1.4,1.7c0,1.1,0.6,1.7,1.4,1.7
				C32.8,50.3,33.4,49.7,33.4,48.6z"/>
		</g>
	</g>
	<g id="XMLID_525_">
		<g id="XMLID_527_">
			<path id="XMLID_530_" class="st10" d="M29.9,67.7h1.8v0.7h-1.8V67.7z"/>
			<path id="XMLID_528_" class="st10" d="M32.4,70l1.4-1.9c0.3-0.4,0.5-0.7,0.5-1.2c0-0.5-0.2-0.8-0.8-0.8c-0.5,0-0.9,0.3-1.2,0.6
				v-0.8c0.2-0.3,0.7-0.5,1.3-0.5c1,0,1.5,0.6,1.5,1.5c0,0.7-0.5,1.4-0.9,1.9l-0.4,0.6h1.4v0.8L32.4,70L32.4,70z"/>
		</g>
	</g>
	<g id="XMLID_514_">
		<g id="XMLID_516_">
			<path id="XMLID_519_" class="st10" d="M29.9,86.9h1.8v0.7h-1.8V86.9z"/>
			<path id="XMLID_517_" class="st10" d="M34.4,88.4h-2.3v-0.1l1.3-3.6h0.8l-1,2.9h1.1v-1.7h0.8v1.7h0.5v0.8h-0.5v0.9h-0.8V88.4z"/>
		</g>
	</g>
	<g id="XMLID_501_">
		<g id="XMLID_503_">
			<path id="XMLID_507_" class="st10" d="M29.9,106.1h1.8v0.7h-1.8V106.1z"/>
			<path id="XMLID_504_" class="st10" d="M32.3,106.9c0-1.6,1-2.6,1.8-2.9h1.2v0c-0.8,0.4-1.5,0.8-1.8,1.6c0.2-0.1,0.4-0.2,0.7-0.2
				c1,0,1.5,0.6,1.5,1.6c0,0.9-0.7,1.7-1.7,1.7S32.3,107.9,32.3,106.9z M34.8,107c0-0.5-0.3-0.9-0.8-0.9c-0.4,0-0.6,0.1-0.8,0.3
				c0,0.2,0,0.3,0,0.5c0,0.6,0.3,0.9,0.8,0.9S34.8,107.5,34.8,107z"/>
		</g>
	</g>
	<g id="XMLID_486_">
		<g id="XMLID_488_">
			<path id="XMLID_493_" class="st10" d="M29.9,125.3h1.8v0.7h-1.8V125.3z"/>
			<path id="XMLID_489_" class="st10" d="M32.3,126.5c0-0.6,0.3-0.9,0.8-1.1c-0.4-0.2-0.6-0.5-0.6-1.1c0-0.8,0.6-1.3,1.6-1.3
				c0.9,0,1.5,0.5,1.5,1.3c0,0.5-0.3,0.9-0.6,1c0.4,0.1,0.8,0.5,0.8,1.1c0,0.8-0.6,1.3-1.7,1.3C32.9,127.9,32.3,127.3,32.3,126.5z
				 M34.8,126.5c0-0.4-0.2-0.6-0.8-0.6c-0.5,0-0.8,0.3-0.8,0.6c0,0.4,0.2,0.7,0.8,0.7C34.5,127.1,34.8,126.9,34.8,126.5z
				 M34.7,124.5c0-0.4-0.3-0.6-0.7-0.6c-0.4,0-0.7,0.2-0.7,0.6c0,0.4,0.2,0.6,0.7,0.6C34.4,125.1,34.7,124.8,34.7,124.5z"/>
		</g>
	</g>
	<g id="XMLID_469_">
		<g id="XMLID_471_">
			<path id="XMLID_477_" class="st10" d="M29.9,144.5h1.8v0.7h-1.8V144.5z"/>
			<path id="XMLID_475_" class="st10" d="M33.2,143.5c-0.2,0.2-0.6,0.2-1,0.2V143c0.6,0,1.1-0.2,1.5-0.6h0.4v4.6h-0.9V143.5z"/>
			<path id="XMLID_472_" class="st10" d="M34.8,144.7c0-1.5,1.1-2.4,2.3-2.4c1.4,0,2.3,0.9,2.3,2.4c0,1.5-1.1,2.4-2.3,2.4
				C35.8,147.1,34.8,146.2,34.8,144.7z M38.5,144.7c0-1.1-0.6-1.7-1.4-1.7c-0.8,0-1.4,0.6-1.4,1.7c0,1.1,0.6,1.7,1.4,1.7
				C37.9,146.3,38.5,145.8,38.5,144.7z"/>
		</g>
	</g>
	<g id="XMLID_454_">
		<g id="XMLID_456_">
			<path id="XMLID_461_" class="st10" d="M29.9,163.8h1.8v0.7h-1.8V163.8z"/>
			<path id="XMLID_459_" class="st10" d="M33.2,162.7c-0.2,0.2-0.6,0.2-1,0.2v-0.7c0.6,0,1.1-0.2,1.5-0.6h0.4v4.6h-0.9V162.7z"/>
			<path id="XMLID_457_" class="st10" d="M34.9,166.1l1.4-1.9c0.3-0.4,0.5-0.7,0.5-1.2c0-0.5-0.2-0.8-0.8-0.8
				c-0.5,0-0.9,0.3-1.2,0.6V162c0.2-0.3,0.7-0.5,1.3-0.5c1,0,1.5,0.6,1.5,1.5c0,0.7-0.5,1.4-0.9,1.9l-0.4,0.6h1.4v0.8L34.9,166.1
				L34.9,166.1z"/>
		</g>
	</g>
	<g id="XMLID_439_">
		<g id="XMLID_441_">
			<path id="XMLID_446_" class="st10" d="M29.9,183h1.8v0.7h-1.8V183z"/>
			<path id="XMLID_444_" class="st10" d="M33.2,181.9c-0.2,0.2-0.6,0.2-1,0.2v-0.7c0.6,0,1.1-0.2,1.5-0.6h0.4v4.6h-0.9V181.9z"/>
			<path id="XMLID_442_" class="st10" d="M36.9,184.5h-2.3v-0.1l1.3-3.6h0.8l-1,2.9h1.1V182h0.8v1.7h0.5v0.8h-0.5v0.9h-0.8V184.5z"
				/>
		</g>
	</g>
	<g id="XMLID_422_">
		<g id="XMLID_424_">
			<path id="XMLID_430_" class="st10" d="M29.9,202.2h1.8v0.7h-1.8V202.2z"/>
			<path id="XMLID_428_" class="st10" d="M33.2,201.2c-0.2,0.2-0.6,0.2-1,0.2v-0.7c0.6,0,1.1-0.2,1.5-0.6h0.4v4.6h-0.9V201.2z"/>
			<path id="XMLID_425_" class="st10" d="M34.8,202.9c0-1.6,1-2.6,1.8-2.9h1.2v0c-0.8,0.4-1.5,0.8-1.8,1.6c0.2-0.1,0.4-0.2,0.7-0.2
				c1,0,1.5,0.6,1.5,1.6c0,0.9-0.7,1.7-1.7,1.7S34.8,204,34.8,202.9z M37.3,203.1c0-0.5-0.3-0.9-0.8-0.9c-0.4,0-0.6,0.1-0.8,0.3
				c0,0.2,0,0.3,0,0.5c0,0.6,0.3,0.9,0.8,0.9S37.3,203.6,37.3,203.1z"/>
		</g>
	</g>
	<g id="XMLID_403_">
		<g id="XMLID_405_">
			<path id="XMLID_412_" class="st10" d="M29.9,219h1.8v0.7h-1.8V219z"/>
			<path id="XMLID_410_" class="st10" d="M33.2,218c-0.2,0.2-0.6,0.2-1,0.2v-0.7c0.6,0,1.1-0.2,1.5-0.6h0.4v4.6h-0.9V218z"/>
			<path id="XMLID_406_" class="st10" d="M34.9,220.3c0-0.6,0.3-0.9,0.8-1.1c-0.4-0.2-0.6-0.5-0.6-1.1c0-0.8,0.6-1.3,1.6-1.3
				c0.9,0,1.5,0.5,1.5,1.3c0,0.5-0.3,0.9-0.6,1c0.4,0.1,0.8,0.5,0.8,1.1c0,0.8-0.6,1.3-1.7,1.3C35.4,221.6,34.9,221,34.9,220.3z
				 M37.3,220.2c0-0.4-0.2-0.6-0.8-0.6c-0.5,0-0.8,0.3-0.8,0.6c0,0.4,0.2,0.7,0.8,0.7C37,220.8,37.3,220.6,37.3,220.2z M37.2,218.2
				c0-0.4-0.3-0.6-0.7-0.6c-0.4,0-0.7,0.2-0.7,0.6c0,0.4,0.2,0.6,0.7,0.6C36.9,218.8,37.2,218.6,37.2,218.2z"/>
		</g>
	</g>
	<g id="XMLID_386_">
		<g id="XMLID_388_">
			<path id="XMLID_394_" class="st10" d="M29.9,238.3h1.8v0.7h-1.8V238.3z"/>
			<path id="XMLID_392_" class="st10" d="M32.4,240.6l1.4-1.9c0.3-0.4,0.5-0.7,0.5-1.2c0-0.5-0.2-0.8-0.8-0.8
				c-0.5,0-0.9,0.3-1.2,0.6v-0.8c0.2-0.3,0.7-0.5,1.3-0.5c1,0,1.5,0.6,1.5,1.5c0,0.7-0.5,1.4-0.9,1.9l-0.4,0.6h1.4v0.8L32.4,240.6
				L32.4,240.6z"/>
			<path id="XMLID_389_" class="st10" d="M35.8,238.4c0-1.5,1.1-2.4,2.3-2.4c1.4,0,2.3,0.9,2.3,2.4c0,1.5-1.1,2.4-2.3,2.4
				C36.7,240.8,35.8,239.9,35.8,238.4z M39.4,238.4c0-1.1-0.6-1.7-1.4-1.7c-0.8,0-1.4,0.6-1.4,1.7c0,1.1,0.6,1.7,1.4,1.7
				C38.8,240.1,39.4,239.5,39.4,238.4z"/>
		</g>
	</g>
	<g id="XMLID_357_">
		<g id="XMLID_359_">
			<path id="XMLID_371_" class="st10" d="M32.9,37.4h1.1l0.7,2.7l1-2.7H36l1,2.7l0.7-2.7h1l-1.2,4.5h-0.6l-1.1-2.7l-1.1,2.7h-0.6
				L32.9,37.4z"/>
			<path id="XMLID_368_" class="st10" d="M39.1,39.7c0-1.6,1.1-2.4,2.1-2.4c1,0,2,0.5,2,2.1V40h-3c0,0.6,0.4,1.2,1.3,1.2
				c0.8,0,1.3-0.3,1.5-0.6v1c-0.2,0.3-0.7,0.6-1.6,0.6C40.1,42.1,39.1,41.3,39.1,39.7z M42.2,39.3L42.2,39.3c0-0.7-0.3-1.1-1-1.1
				c-0.6,0-1,0.6-1,1.1H42.2z"/>
			<path id="XMLID_365_" class="st10" d="M43.9,39.7c0-1.6,1.1-2.4,2.1-2.4c1,0,2,0.5,2,2.1V40h-3c0,0.6,0.4,1.2,1.3,1.2
				c0.8,0,1.3-0.3,1.5-0.6v1c-0.2,0.3-0.7,0.6-1.6,0.6C44.8,42.1,43.9,41.3,43.9,39.7z M46.9,39.3L46.9,39.3c0-0.7-0.3-1.1-1-1.1
				c-0.6,0-1,0.6-1,1.1H46.9z"/>
			<path id="XMLID_363_" class="st10" d="M50.4,39.9c-0.3,0.3-0.5,0.4-0.5,0.4v1.7h-1.1v-6.2h1.1v3.5c0,0,1-0.8,1.7-1.8h1.1
				c-0.4,0.6-1,1.2-1.5,1.8l1.8,2.8h-1.2L50.4,39.9z"/>
			<path id="XMLID_360_" class="st10" d="M55.3,39.1c0-1.9,1.3-2.9,2.8-2.9c1.7,0,2.8,1,2.8,2.9c0,1.9-1.3,2.9-2.8,2.9
				C56.4,42.1,55.3,41,55.3,39.1z M59.7,39.1c0-1.3-0.7-2-1.7-2c-1,0-1.7,0.7-1.7,2c0,1.3,0.7,2,1.7,2C59,41.2,59.7,40.5,59.7,39.1z
				"/>
		</g>
	</g>
	<g id="XMLID_330_">
		<g id="XMLID_332_">
			<path id="XMLID_343_" class="st10" d="M71,37.4h1.1l0.7,2.7l1-2.7h0.4l1,2.7l0.7-2.7h1l-1.2,4.5H75L74,39.2l-1.1,2.7h-0.6
				L71,37.4z"/>
			<path id="XMLID_340_" class="st10" d="M77.3,39.7c0-1.6,1.1-2.4,2.1-2.4c1,0,2,0.5,2,2.1V40h-3c0,0.6,0.4,1.2,1.3,1.2
				c0.8,0,1.3-0.3,1.5-0.6v1c-0.2,0.3-0.7,0.6-1.6,0.6C78.2,42.1,77.3,41.3,77.3,39.7z M80.4,39.3L80.4,39.3c0-0.7-0.3-1.1-1-1.1
				c-0.6,0-1,0.6-1,1.1H80.4z"/>
			<path id="XMLID_337_" class="st10" d="M82,39.7c0-1.6,1.1-2.4,2.1-2.4c1,0,2,0.5,2,2.1V40h-3c0,0.6,0.4,1.2,1.3,1.2
				c0.8,0,1.3-0.3,1.5-0.6v1c-0.2,0.3-0.7,0.6-1.6,0.6C83,42.1,82,41.3,82,39.7z M85.1,39.3L85.1,39.3c0-0.7-0.3-1.1-1-1.1
				c-0.6,0-1,0.6-1,1.1H85.1z"/>
			<path id="XMLID_335_" class="st10" d="M88.6,39.9c-0.3,0.3-0.5,0.4-0.5,0.4v1.7H87v-6.2h1.1v3.5c0,0,1-0.8,1.7-1.8h1.1
				c-0.4,0.6-1,1.2-1.5,1.8l1.8,2.8h-1.2L88.6,39.9z"/>
			<path id="XMLID_333_" class="st10" d="M94.5,37.7c-0.2,0.2-0.8,0.3-1.3,0.3v-0.9c0.8,0,1.4-0.2,1.8-0.7h0.5v5.6h-1V37.7z"/>
		</g>
	</g>
	<g id="XMLID_303_">
		<g id="XMLID_305_">
			<path id="XMLID_316_" class="st10" d="M106.7,37.4h1.1l0.7,2.7l1-2.7h0.4l1,2.7l0.7-2.7h1l-1.2,4.5h-0.6l-1.1-2.7l-1.1,2.7h-0.6
				L106.7,37.4z"/>
			<path id="XMLID_313_" class="st10" d="M112.9,39.7c0-1.6,1.1-2.4,2.1-2.4c1,0,2,0.5,2,2.1V40h-3c0,0.6,0.4,1.2,1.3,1.2
				c0.8,0,1.3-0.3,1.5-0.6v1c-0.2,0.3-0.7,0.6-1.6,0.6C113.9,42.1,112.9,41.3,112.9,39.7z M116,39.3L116,39.3c0-0.7-0.3-1.1-1-1.1
				c-0.6,0-1,0.6-1,1.1H116z"/>
			<path id="XMLID_310_" class="st10" d="M117.7,39.7c0-1.6,1.1-2.4,2.1-2.4c1,0,2,0.5,2,2.1V40h-3c0,0.6,0.4,1.2,1.3,1.2
				c0.8,0,1.3-0.3,1.5-0.6v1c-0.2,0.3-0.7,0.6-1.6,0.6C118.6,42.1,117.7,41.3,117.7,39.7z M120.7,39.3L120.7,39.3
				c0-0.7-0.3-1.1-1-1.1c-0.6,0-1,0.6-1,1.1H120.7z"/>
			<path id="XMLID_308_" class="st10" d="M124.2,39.9c-0.3,0.3-0.5,0.4-0.5,0.4v1.7h-1.1v-6.2h1.1v3.5c0,0,1-0.8,1.7-1.8h1.1
				c-0.4,0.6-1,1.2-1.5,1.8l1.8,2.8h-1.2L124.2,39.9z"/>
			<path id="XMLID_306_" class="st10" d="M129.1,41.8l1.7-2.3c0.3-0.4,0.6-0.9,0.6-1.4c0-0.6-0.3-0.9-1-0.9c-0.6,0-1.1,0.4-1.4,0.7
				v-1c0.3-0.3,0.8-0.6,1.6-0.6c1.3,0,1.8,0.7,1.8,1.8c0,0.9-0.6,1.7-1.1,2.3l-0.5,0.7h1.7v1h-3.4V41.8z"/>
		</g>
	</g>
	<g id="XMLID_276_">
		<g id="XMLID_278_">
			<path id="XMLID_289_" class="st10" d="M143.7,37.4h1.1l0.7,2.7l1-2.7h0.4l1,2.7l0.7-2.7h1l-1.2,4.5h-0.6l-1.1-2.7l-1.1,2.7h-0.6
				L143.7,37.4z"/>
			<path id="XMLID_286_" class="st10" d="M150,39.7c0-1.6,1.1-2.4,2.1-2.4c1,0,2,0.5,2,2.1V40h-3c0,0.6,0.4,1.2,1.3,1.2
				c0.8,0,1.3-0.3,1.5-0.6v1c-0.2,0.3-0.7,0.6-1.6,0.6C150.9,42.1,150,41.3,150,39.7z M153,39.3L153,39.3c0-0.7-0.3-1.1-1-1.1
				c-0.6,0-1,0.6-1,1.1H153z"/>
			<path id="XMLID_283_" class="st10" d="M154.7,39.7c0-1.6,1.1-2.4,2.1-2.4c1,0,2,0.5,2,2.1V40h-3c0,0.6,0.4,1.2,1.3,1.2
				c0.8,0,1.3-0.3,1.5-0.6v1c-0.2,0.3-0.7,0.6-1.6,0.6C155.6,42.1,154.7,41.3,154.7,39.7z M157.7,39.3L157.7,39.3
				c0-0.7-0.3-1.1-1-1.1c-0.6,0-1,0.6-1,1.1H157.7z"/>
			<path id="XMLID_281_" class="st10" d="M161.2,39.9c-0.3,0.3-0.5,0.4-0.5,0.4v1.7h-1.1v-6.2h1.1v3.5c0,0,1-0.8,1.7-1.8h1.1
				c-0.4,0.6-1,1.2-1.5,1.8l1.8,2.8h-1.2L161.2,39.9z"/>
			<path id="XMLID_279_" class="st10" d="M166.2,41.8v-1c0.2,0.2,0.6,0.4,1.1,0.4c0.9,0,1.3-0.4,1.3-0.9c0-0.5-0.3-0.8-1.2-0.8H167
				v-0.1l1.1-2h-2v-0.9h3.4v0.1l-1.2,2.2c0.8,0.1,1.3,0.5,1.3,1.6c0,0.9-0.7,1.8-2.3,1.8C166.7,42.1,166.4,41.9,166.2,41.8z"/>
		</g>
	</g>
	<g id="XMLID_249_">
		<g id="XMLID_251_">
			<path id="XMLID_262_" class="st10" d="M180.3,37.4h1.1l0.7,2.7l1-2.7h0.4l1,2.7l0.7-2.7h1l-1.2,4.5h-0.6l-1.1-2.7l-1.1,2.7h-0.6
				L180.3,37.4z"/>
			<path id="XMLID_259_" class="st10" d="M186.6,39.7c0-1.6,1.1-2.4,2.1-2.4c1,0,2,0.5,2,2.1V40h-3c0,0.6,0.4,1.2,1.3,1.2
				c0.8,0,1.3-0.3,1.5-0.6v1c-0.2,0.3-0.7,0.6-1.6,0.6C187.5,42.1,186.6,41.3,186.6,39.7z M189.7,39.3L189.7,39.3
				c0-0.7-0.3-1.1-1-1.1c-0.6,0-1,0.6-1,1.1H189.7z"/>
			<path id="XMLID_256_" class="st10" d="M191.3,39.7c0-1.6,1.1-2.4,2.1-2.4c1,0,2,0.5,2,2.1V40h-3c0,0.6,0.4,1.2,1.3,1.2
				c0.8,0,1.3-0.3,1.5-0.6v1c-0.2,0.3-0.7,0.6-1.6,0.6C192.2,42.1,191.3,41.3,191.3,39.7z M194.4,39.3L194.4,39.3
				c0-0.7-0.3-1.1-1-1.1c-0.6,0-1,0.6-1,1.1H194.4z"/>
			<path id="XMLID_254_" class="st10" d="M197.9,39.9c-0.3,0.3-0.5,0.4-0.5,0.4v1.7h-1.1v-6.2h1.1v3.5c0,0,1-0.8,1.7-1.8h1.1
				c-0.4,0.6-1,1.2-1.5,1.8l1.8,2.8h-1.2L197.9,39.9z"/>
			<path id="XMLID_252_" class="st10" d="M205.3,40.8h-2.7v-0.1l1.6-4.4h1l-1.2,3.5h1.3v-2h1v2h0.6v1h-0.6v1.1h-1V40.8z"/>
		</g>
	</g>
	<g id="XMLID_222_">
		<g id="XMLID_224_">
			<path id="XMLID_235_" class="st10" d="M216.9,37.4h1.1l0.7,2.7l1-2.7h0.4l1,2.7l0.7-2.7h1l-1.2,4.5h-0.6l-1.1-2.7l-1.1,2.7h-0.6
				L216.9,37.4z"/>
			<path id="XMLID_232_" class="st10" d="M223.2,39.7c0-1.6,1.1-2.4,2.1-2.4c1,0,2,0.5,2,2.1V40h-3c0,0.6,0.4,1.2,1.3,1.2
				c0.8,0,1.3-0.3,1.5-0.6v1c-0.2,0.3-0.7,0.6-1.6,0.6C224.1,42.1,223.2,41.3,223.2,39.7z M226.2,39.3L226.2,39.3
				c0-0.7-0.3-1.1-1-1.1c-0.6,0-1,0.6-1,1.1H226.2z"/>
			<path id="XMLID_229_" class="st10" d="M227.9,39.7c0-1.6,1.1-2.4,2.1-2.4c1,0,2,0.5,2,2.1V40h-3c0,0.6,0.4,1.2,1.3,1.2
				c0.8,0,1.3-0.3,1.5-0.6v1c-0.2,0.3-0.7,0.6-1.6,0.6C228.8,42.1,227.9,41.3,227.9,39.7z M230.9,39.3L230.9,39.3
				c0-0.7-0.3-1.1-1-1.1c-0.6,0-1,0.6-1,1.1H230.9z"/>
			<path id="XMLID_227_" class="st10" d="M234.4,39.9c-0.3,0.3-0.5,0.4-0.5,0.4v1.7h-1.1v-6.2h1.1v3.5c0,0,1-0.8,1.7-1.8h1.1
				c-0.4,0.6-1,1.2-1.5,1.8l1.8,2.8h-1.2L234.4,39.9z"/>
			<path id="XMLID_225_" class="st10" d="M239.4,41.8v-1c0.2,0.2,0.6,0.4,1.2,0.4c0.8,0,1.2-0.3,1.2-0.9c0-0.5-0.3-0.8-1.2-0.8
				c-0.5,0-0.8,0.1-1,0.2l0.1-3.3h3v0.9h-2.1l0,1.4c0.1,0,0.3,0,0.5,0c1.2,0,1.9,0.5,1.9,1.6c0,1.1-1,1.9-2.2,1.9
				C239.9,42.1,239.6,41.9,239.4,41.8z"/>
		</g>
	</g>
	<g id="XMLID_193_">
		<g id="XMLID_195_">
			<path id="XMLID_207_" class="st10" d="M253.2,37.4h1.1l0.7,2.7l1-2.7h0.4l1,2.7l0.7-2.7h1l-1.2,4.5h-0.6l-1.1-2.7l-1.1,2.7h-0.6
				L253.2,37.4z"/>
			<path id="XMLID_204_" class="st10" d="M259.5,39.7c0-1.6,1.1-2.4,2.1-2.4c1,0,2,0.5,2,2.1V40h-3c0,0.6,0.4,1.2,1.3,1.2
				c0.8,0,1.3-0.3,1.5-0.6v1c-0.2,0.3-0.7,0.6-1.6,0.6C260.4,42.1,259.5,41.3,259.5,39.7z M262.6,39.3L262.6,39.3
				c0-0.7-0.3-1.1-1-1.1c-0.6,0-1,0.6-1,1.1H262.6z"/>
			<path id="XMLID_201_" class="st10" d="M264.2,39.7c0-1.6,1.1-2.4,2.1-2.4c1,0,2,0.5,2,2.1V40h-3c0,0.6,0.4,1.2,1.3,1.2
				c0.8,0,1.3-0.3,1.5-0.6v1c-0.2,0.3-0.7,0.6-1.6,0.6C265.2,42.1,264.2,41.3,264.2,39.7z M267.3,39.3L267.3,39.3
				c0-0.7-0.3-1.1-1-1.1c-0.6,0-1,0.6-1,1.1H267.3z"/>
			<path id="XMLID_199_" class="st10" d="M270.8,39.9c-0.3,0.3-0.5,0.4-0.5,0.4v1.7h-1.1v-6.2h1.1v3.5c0,0,1-0.8,1.7-1.8h1.1
				c-0.4,0.6-1,1.2-1.5,1.8l1.8,2.8h-1.2L270.8,39.9z"/>
			<path id="XMLID_196_" class="st10" d="M275.7,39.9c0-2,1.2-3.1,2.1-3.5h1.5v0c-1,0.4-1.8,1-2.2,2c0.2-0.1,0.5-0.2,0.9-0.2
				c1.2,0,1.8,0.7,1.8,1.9c0,1.1-0.8,2-2.1,2S275.7,41.2,275.7,39.9z M278.7,40.1c0-0.6-0.3-1.1-1-1.1c-0.5,0-0.8,0.2-0.9,0.4
				c0,0.2,0,0.4,0,0.6c0,0.7,0.3,1.1,1,1.1S278.7,40.7,278.7,40.1z"/>
		</g>
	</g>
	<line id="XMLID_192_" class="st11" x1="62.1" y1="51" x2="62.1" y2="48"/>
	<line id="XMLID_191_" class="st11" x1="98.8" y1="51" x2="98.8" y2="48"/>
	<line id="XMLID_190_" class="st11" x1="135.5" y1="51" x2="135.5" y2="48"/>
	<line id="XMLID_189_" class="st11" x1="172.2" y1="51" x2="172.2" y2="48"/>
	<line id="XMLID_188_" class="st11" x1="208.9" y1="51" x2="208.9" y2="48"/>
	<line id="XMLID_187_" class="st11" x1="245.6" y1="51" x2="245.6" y2="48"/>
	<line id="XMLID_186_" class="st11" x1="282.2" y1="51" x2="282.2" y2="48"/>
	<g id="XMLID_177_">
		<rect id="XMLID_185_" x="41.4" y="44.4" class="st9" width="6.2" height="6.2"/>
		<polyline id="XMLID_184_" class="st12" points="45.6,48.3 80.9,87.5 118.8,107.3 154.1,116.8 191.6,122 227.5,97.2 265.1,107.7 		
			"/>
		<rect id="XMLID_183_" x="261.4" y="104.4" class="st9" width="6.2" height="6.2"/>
		<rect id="XMLID_182_" x="224.6" y="94.4" class="st9" width="6.2" height="6.2"/>
		<rect id="XMLID_181_" x="187.7" y="118.9" class="st9" width="6.2" height="6.2"/>
		<rect id="XMLID_180_" x="151.4" y="113.8" class="st9" width="6.2" height="6.2"/>
		<rect id="XMLID_179_" x="77.9" y="84.4" class="st9" width="6.2" height="6.2"/>
		<rect id="XMLID_178_" x="114.2" y="104" class="st9" width="6.2" height="6.2"/>
	</g>
	<g id="XMLID_167_">
		<line id="XMLID_176_" class="st13" x1="44.3" y1="49.4" x2="81" y2="110.2"/>
		<polygon id="XMLID_175_" class="st5" points="44.1,44.9 47,49.3 41.8,49.6 		"/>
		<polygon id="XMLID_174_" class="st5" points="80.2,102.1 83.1,106.4 77.9,106.8 		"/>
		<polygon id="XMLID_173_" class="st5" points="116.7,130.7 119.6,135 114.4,135.4 		"/>
		<polygon id="XMLID_172_" class="st5" points="153.9,149.5 156.6,154 151.4,154.1 		"/>
		<polygon id="XMLID_171_" class="st5" points="190.2,145.3 192.9,149.7 187.7,149.9 		"/>
		<polygon id="XMLID_170_" class="st5" points="227.2,147.2 229.9,151.7 224.7,151.8 		"/>
		<polygon id="XMLID_169_" class="st5" points="263.6,155.2 266.3,159.7 261.1,159.8 		"/>
		<polyline id="XMLID_168_" class="st14" points="45.1,49 81,105 117.4,134.4 153.3,152.1 190.8,147.7 227.7,150.1 265.1,158.8 		
			"/>
	</g>
	<g id="XMLID_158_">
		<polyline id="XMLID_166_" class="st15" points="81,110.2 117.4,157.4 154,215.4 191.2,213.1 228.3,204.1 264.6,201.7 		"/>
		<path id="XMLID_165_" class="st16" d="M44.3,49.4"/>
		
			<rect id="XMLID_164_" x="261.8" y="198.8" transform="matrix(0.6741 -0.7386 0.7386 0.6741 -62.4229 260.4886)" class="st17" width="4.4" height="4.4"/>
		
			<rect id="XMLID_163_" x="224.7" y="201" transform="matrix(0.6739 -0.7388 0.7388 0.6739 -76.1213 233.8905)" class="st17" width="4.4" height="4.4"/>
		
			<rect id="XMLID_162_" x="188.2" y="210.2" transform="matrix(0.6742 -0.7385 0.7385 0.6742 -94.8251 209.7688)" class="st17" width="4.4" height="4.4"/>
		
			<rect id="XMLID_161_" x="151.8" y="212.8" transform="matrix(0.6734 -0.7393 0.7393 0.6734 -108.6099 184.0733)" class="st17" width="4.4" height="4.4"/>
		
			<rect id="XMLID_160_" x="115" y="154.7" transform="matrix(0.6739 -0.7388 0.7388 0.6739 -77.7082 137.7717)" class="st17" width="4.4" height="4.4"/>
		
			<rect id="XMLID_159_" x="78.3" y="106.9" transform="matrix(0.6736 -0.7391 0.7391 0.6736 -54.3637 95.0679)" class="st17" width="4.4" height="4.4"/>
	</g>
	<text id="XMLID_157_" transform="matrix(1 0 0 1 110.6362 170.9217)" class="st6 st18 st19">**</text>
	<g id="XMLID_155_">
		<text transform="matrix(1 0 0 1 151.1918 227.993)" class="st6 st18 st20">§§</text>
	</g>
	<g id="XMLID_153_">
		<text transform="matrix(1 0 0 1 223.0082 214.3396)" class="st6 st18 st20">§§</text>
	</g>
	<g id="XMLID_151_">
		<text transform="matrix(1 0 0 1 260.9892 214.3396)" class="st6 st18 st20">##</text>
	</g>
	<g id="XMLID_149_">
		<text transform="matrix(1 0 0 1 188.0781 227.993)" class="st6 st18 st20">##</text>
	</g>
	<line id="XMLID_148_" class="st21" x1="43.9" y1="127.8" x2="41.7" y2="127.8"/>
	<line id="XMLID_147_" class="st21" x1="43.9" y1="147" x2="41.7" y2="147"/>
	<line id="XMLID_146_" class="st21" x1="43.9" y1="166.2" x2="41.7" y2="166.2"/>
	<line id="XMLID_145_" class="st21" x1="43.9" y1="185.4" x2="41.7" y2="185.4"/>
	<line id="XMLID_144_" class="st21" x1="43.9" y1="204.6" x2="41.7" y2="204.6"/>
	<line id="XMLID_143_" class="st21" x1="43.9" y1="221.5" x2="41.7" y2="221.5"/>
	<line id="XMLID_142_" class="st21" x1="43.9" y1="240.7" x2="41.7" y2="240.7"/>
	<line id="XMLID_141_" class="st21" x1="43.9" y1="108.1" x2="41.7" y2="108.1"/>
	<line id="XMLID_140_" class="st21" x1="43.9" y1="89.3" x2="41.7" y2="89.3"/>
	<line id="XMLID_139_" class="st21" x1="43.9" y1="70.6" x2="41.7" y2="70.6"/>
	<line id="XMLID_138_" class="st21" x1="43.9" y1="52.9" x2="41.7" y2="52.9"/>
	<g id="XMLID_42_">
		<path id="XMLID_136_" class="st22" d="M14.4,11.3h3.8c3.3,0,4.8,1.2,4.8,3.4c0,2.2-1.4,3.7-4.8,3.7h-0.6v-1.8h0.5
			c1.4,0,2-0.6,2-1.7c0-1.1-0.7-1.7-2-1.7h-0.9v8.2h-2.7V11.3z"/>
		<path id="XMLID_134_" class="st22" d="M24.2,13.2h2.2l0.2,1.1c0.1-0.8,0.9-1.3,1.8-1.3c0.5,0,0.8,0.1,0.9,0.2v2.2
			c-0.2-0.1-0.6-0.2-1-0.2c-0.7,0-1.1,0.2-1.3,0.7v5.6h-2.7V13.2z"/>
		<path id="XMLID_131_" class="st22" d="M30.5,11.2c0-0.7,0.5-1.1,1.4-1.1c0.9,0,1.4,0.4,1.4,1.1s-0.6,1.1-1.4,1.1
			C31,12.3,30.5,11.9,30.5,11.2z M30.5,13.2h2.7v8.1h-2.7V13.2z"/>
		<path id="XMLID_129_" class="st22" d="M35.1,13.2h2.4l0.1,0.7c0.4-0.5,1.2-0.9,2.3-0.9c1.3,0,2.1,0.4,2.6,1.1
			c0.5-0.6,1.3-1.1,2.7-1.1c2.2,0,3.1,1.1,3.1,3.3v5h-2.7v-4.7c0-1.3-0.3-1.8-1.2-1.8c-0.7,0-1.2,0.3-1.4,0.7c0,0.2,0.1,0.5,0.1,0.8
			v5h-2.7v-4.7c0-1.3-0.3-1.8-1.2-1.8c-0.7,0-1.1,0.3-1.4,0.7v5.8h-2.7V13.2z"/>
		<path id="XMLID_126_" class="st22" d="M49.7,19.1c0-1.6,1.3-2.3,3.8-2.7l1.3-0.2c0-1.1-0.6-1.4-1.8-1.4c-1.3,0-2.5,0.6-3,1.4V14
			c0.4-0.5,1.4-1.1,3.4-1.1c2.6,0,4.1,1,4.1,3.5v4.9h-2.3L55,20.6c-0.2,0.4-1,0.9-2.2,0.9C51,21.5,49.7,20.7,49.7,19.1z M54.9,17.8
			l-1,0.2c-1.2,0.2-1.6,0.5-1.6,1.1c0,0.5,0.4,0.8,1.1,0.8c0.7,0,1.3-0.2,1.6-0.6V17.8z"/>
		<path id="XMLID_124_" class="st22" d="M59.4,13.2h2.2l0.2,1.1c0.1-0.8,0.9-1.3,1.8-1.3c0.5,0,0.8,0.1,0.9,0.2v2.2
			c-0.2-0.1-0.6-0.2-1-0.2c-0.7,0-1.1,0.2-1.3,0.7v5.6h-2.7V13.2z"/>
		<path id="XMLID_122_" class="st22" d="M65.3,23.9V22c0.4,0.4,1,0.6,1.6,0.6c0.6,0,1.2-0.2,1.6-1.1l-3.6-8.3h2.9l1.9,5.3l1.6-5.3
			h2.6l-2.6,7.7c-0.7,2-1.8,3.5-4.2,3.5C66.3,24.4,65.7,24.2,65.3,23.9z"/>
		<path id="XMLID_120_" class="st22" d="M78.9,13.2h2.4l0.1,0.7c0.4-0.5,1.2-0.9,2.3-0.9c1.3,0,2.1,0.4,2.6,1.1
			c0.5-0.6,1.3-1.1,2.7-1.1c2.2,0,3.1,1.1,3.1,3.3v5h-2.7v-4.7c0-1.3-0.3-1.8-1.2-1.8c-0.7,0-1.2,0.3-1.4,0.7c0,0.2,0.1,0.5,0.1,0.8
			v5h-2.7v-4.7c0-1.3-0.3-1.8-1.2-1.8c-0.7,0-1.1,0.3-1.4,0.7v5.8h-2.7V13.2z"/>
		<path id="XMLID_117_" class="st22" d="M93.5,17.2c0-3,2.2-4.3,4.4-4.3c2.2,0,4.2,0.8,4.2,3.9v1.1h-5.9c0.1,0.9,0.8,1.7,2.5,1.7
			c1.5,0,2.5-0.5,3-0.9v2c-0.5,0.4-1.6,0.9-3.4,0.9C95.3,21.5,93.5,20.2,93.5,17.2z M99.6,16.4L99.6,16.4c0-1.1-0.5-1.6-1.6-1.6
			c-1,0-1.6,0.8-1.7,1.6H99.6z"/>
		<path id="XMLID_114_" class="st22" d="M103.2,19.1c0-1.6,1.3-2.3,3.8-2.7l1.3-0.2c0-1.1-0.6-1.4-1.8-1.4c-1.3,0-2.5,0.6-3,1.4V14
			c0.4-0.5,1.4-1.1,3.4-1.1c2.6,0,4.1,1,4.1,3.5v4.9h-2.3l-0.2-0.7c-0.2,0.4-1,0.9-2.2,0.9C104.4,21.5,103.2,20.7,103.2,19.1z
			 M108.3,17.8l-1,0.2c-1.2,0.2-1.6,0.5-1.6,1.1c0,0.5,0.4,0.8,1.1,0.8c0.7,0,1.3-0.2,1.6-0.6V17.8z"/>
		<path id="XMLID_112_" class="st22" d="M112.6,20.9v-2.1c0.6,0.5,1.5,0.9,2.7,0.9c1.2,0,1.5-0.3,1.5-0.7c0-0.4-0.2-0.6-1.2-0.7
			l-0.5-0.1c-1.9-0.2-2.7-1.1-2.7-2.5c0-1.4,1.1-2.7,3.8-2.7c1.4,0,2.4,0.3,2.8,0.7v2.1c-0.6-0.6-1.5-0.9-2.8-0.9
			c-1.1,0-1.4,0.3-1.4,0.7c0,0.4,0.2,0.6,1.1,0.7l0.5,0.1c2,0.3,2.9,0.9,2.9,2.4c0,1.4-1.1,2.8-4,2.8
			C114,21.5,113.1,21.2,112.6,20.9z"/>
		<path id="XMLID_110_" class="st22" d="M120.7,18.2v-5h2.7v4.6c0,1.3,0.3,1.8,1.3,1.8c0.8,0,1.2-0.4,1.4-0.7v-5.8h2.7v8.1h-2.4
			l-0.2-0.7c-0.4,0.5-1.2,0.9-2.4,0.9C121.6,21.5,120.7,20.4,120.7,18.2z"/>
		<path id="XMLID_108_" class="st22" d="M130.8,13.2h2.2l0.2,1.1c0.1-0.8,0.9-1.3,1.8-1.3c0.5,0,0.8,0.1,0.9,0.2v2.2
			c-0.2-0.1-0.6-0.2-1-0.2c-0.7,0-1.1,0.2-1.3,0.7v5.6h-2.7V13.2z"/>
		<path id="XMLID_105_" class="st22" d="M136.5,17.2c0-3,2.2-4.3,4.4-4.3c2.2,0,4.2,0.8,4.2,3.9v1.1h-5.9c0.1,0.9,0.8,1.7,2.5,1.7
			c1.5,0,2.5-0.5,3-0.9v2c-0.5,0.4-1.6,0.9-3.4,0.9C138.3,21.5,136.5,20.2,136.5,17.2z M142.6,16.4L142.6,16.4
			c0-1.1-0.5-1.6-1.6-1.6c-1,0-1.6,0.8-1.7,1.6H142.6z"/>
		<path id="XMLID_102_" class="st22" d="M150.1,17.2c0-3,2.2-4.3,4.7-4.3c2.6,0,4.5,1.3,4.5,4.3c0,3-2.2,4.3-4.7,4.3
			C151.9,21.5,150.1,20.2,150.1,17.2z M156.5,17.2c0-1.4-0.6-2.3-1.9-2.3c-1.3,0-1.8,0.9-1.8,2.3c0,1.4,0.6,2.3,1.8,2.3
			C155.9,19.6,156.5,18.6,156.5,17.2z"/>
		<path id="XMLID_100_" class="st22" d="M161.1,15.1h-1v-0.8l1-0.8c-0.2-0.3-0.3-0.7-0.3-1.2c0-1.5,1.5-2.3,3.2-2.3
			c1.3,0,2,0.3,2.2,0.5v2c-0.3-0.4-1-0.6-1.7-0.6c-0.8,0-1.1,0.3-1.1,0.8c0,0.2,0.1,0.5,0.2,0.6h1.8v1.9h-1.6v6.2h-2.7V15.1z"/>
		<path id="XMLID_97_" class="st22" d="M170.2,17.2c0-3,2.2-4.3,4.4-4.3c2.2,0,4.2,0.8,4.2,3.9v1.1H173c0.1,0.9,0.8,1.7,2.5,1.7
			c1.5,0,2.5-0.5,3-0.9v2c-0.5,0.4-1.6,0.9-3.4,0.9C172,21.5,170.2,20.2,170.2,17.2z M176.3,16.4L176.3,16.4c0-1.1-0.5-1.6-1.6-1.6
			c-1,0-1.6,0.8-1.7,1.6H176.3z"/>
		<path id="XMLID_94_" class="st22" d="M180.8,15h-1v-0.8l1-0.8c-0.2-0.3-0.3-0.7-0.3-1.2c0-1.5,1.5-2.3,3-2.3
			c1.1,0,1.6,0.3,1.9,0.5v1.9c-0.3-0.4-0.7-0.6-1.2-0.6c-0.6,0-1,0.3-1,0.8c0,0.3,0.1,0.5,0.2,0.6h2.8c-0.1-0.2-0.2-0.6-0.2-1
			c0-1.5,1.4-2.3,3-2.3c1,0,1.6,0.3,1.8,0.4v2c-0.2-0.4-0.7-0.6-1.2-0.6c-0.6,0-1,0.3-1,0.8c0,0.3,0.1,0.5,0.2,0.6h5.6v8.1h-2.7V15
			h-2.7v6.3h-2.7V15h-2.7v6.3h-2.7V15z M191.5,11.3c0-0.7,0.5-1.1,1.4-1.1c0.9,0,1.4,0.4,1.4,1.1c0,0.7-0.6,1.1-1.4,1.1
			C192,12.4,191.5,12,191.5,11.3z"/>
		<path id="XMLID_92_" class="st22" d="M195.7,17.2c0-3,2.1-4.3,4.5-4.3c1.3,0,2.3,0.4,2.7,0.7v2.2c-0.6-0.6-1.3-0.8-2.3-0.8
			c-1.4,0-2.2,0.8-2.2,2.3c0,1.4,0.8,2.3,2.2,2.3c1,0,1.8-0.3,2.4-0.9v2.1c-0.4,0.4-1.4,0.9-2.8,0.9
			C197.5,21.5,195.7,20.2,195.7,17.2z"/>
		<path id="XMLID_89_" class="st22" d="M204.1,19.1c0-1.6,1.3-2.3,3.8-2.7l1.3-0.2c0-1.1-0.6-1.4-1.8-1.4c-1.3,0-2.5,0.6-3,1.4V14
			c0.4-0.5,1.4-1.1,3.4-1.1c2.6,0,4.1,1,4.1,3.5v4.9h-2.3l-0.2-0.7c-0.2,0.4-1,0.9-2.2,0.9C205.4,21.5,204.1,20.7,204.1,19.1z
			 M209.2,17.8l-1,0.2c-1.2,0.2-1.6,0.5-1.6,1.1c0,0.5,0.4,0.8,1.1,0.8c0.7,0,1.3-0.2,1.6-0.6V17.8z"/>
		<path id="XMLID_87_" class="st22" d="M213.3,17.2c0-3,2.1-4.3,4.5-4.3c1.3,0,2.3,0.4,2.7,0.7v2.2c-0.6-0.6-1.3-0.8-2.3-0.8
			c-1.4,0-2.2,0.8-2.2,2.3c0,1.4,0.8,2.3,2.2,2.3c1,0,1.8-0.3,2.4-0.9v2.1c-0.4,0.4-1.4,0.9-2.8,0.9
			C215.1,21.5,213.3,20.2,213.3,17.2z"/>
		<path id="XMLID_85_" class="st22" d="M221.7,23.9V22c0.4,0.4,1,0.6,1.6,0.6c0.6,0,1.2-0.2,1.6-1.1l-3.6-8.3h2.9l1.9,5.3l1.6-5.3
			h2.6l-2.6,7.7c-0.7,2-1.8,3.5-4.2,3.5C222.7,24.4,222,24.2,221.7,23.9z"/>
		<path id="XMLID_82_" class="st22" d="M231.2,14.8c0-0.8,0.7-1.4,1.6-1.4c0.9,0,1.6,0.6,1.6,1.4c0,0.8-0.7,1.4-1.6,1.4
			C231.8,16.2,231.2,15.6,231.2,14.8z M231.2,20.1c0-0.8,0.7-1.4,1.6-1.4c0.9,0,1.6,0.6,1.6,1.4c0,0.8-0.7,1.4-1.6,1.4
			C231.8,21.5,231.2,20.9,231.2,20.1z"/>
		<path id="XMLID_80_" class="st22" d="M242.5,13.3h-3.1v-2.1h8.9v2.1h-3.1v8h-2.8V13.3z"/>
		<path id="XMLID_77_" class="st22" d="M248.2,17.2c0-3,2.2-4.3,4.7-4.3c2.6,0,4.5,1.3,4.5,4.3c0,3-2.2,4.3-4.7,4.3
			C250,21.5,248.2,20.2,248.2,17.2z M254.6,17.2c0-1.4-0.6-2.3-1.9-2.3c-1.3,0-1.8,0.9-1.8,2.3c0,1.4,0.6,2.3,1.8,2.3
			C254,19.6,254.6,18.6,254.6,17.2z"/>
		<path id="XMLID_75_" class="st22" d="M259.2,18.9V15h-1.1v-0.9l0.9-1l1.6-1.9h1.2v1.9h2.1V15h-2.1v3.7c0,0.6,0.2,0.9,0.8,0.9
			c0.6,0,1.1-0.3,1.3-0.7v2c-0.3,0.3-0.9,0.7-2.1,0.7C260,21.5,259.2,20.6,259.2,18.9z"/>
		<path id="XMLID_72_" class="st22" d="M265,19.1c0-1.6,1.3-2.3,3.8-2.7l1.3-0.2c0-1.1-0.6-1.4-1.8-1.4c-1.3,0-2.5,0.6-3,1.4V14
			c0.4-0.5,1.4-1.1,3.4-1.1c2.6,0,4.1,1,4.1,3.5v4.9h-2.3l-0.2-0.7c-0.2,0.4-1,0.9-2.2,0.9C266.3,21.5,265,20.7,265,19.1z
			 M270.2,17.8l-1,0.2c-1.2,0.2-1.6,0.5-1.6,1.1c0,0.5,0.4,0.8,1.1,0.8c0.7,0,1.3-0.2,1.6-0.6V17.8z"/>
		<path id="XMLID_70_" class="st22" d="M274.7,19.3v-9.1h2.7V19c0,0.5,0.2,0.6,0.6,0.6s0.6-0.2,0.8-0.4v1.8
			c-0.2,0.2-0.7,0.4-1.6,0.4C275.5,21.5,274.7,20.7,274.7,19.3z"/>
		<path id="XMLID_68_" class="st22" d="M283.6,20.8v-2.4c0.6,0.6,1.6,1.1,3,1.1c1.2,0,1.8-0.4,1.8-1.1c0-0.6-0.4-0.8-1.5-1l-0.4-0.1
			c-1.8-0.3-3-1.2-3-3c0-2,1.6-3.2,4.2-3.2c1.7,0,2.6,0.4,3.1,0.7v2.4c-0.5-0.6-1.6-1.1-3.1-1.1c-1,0-1.6,0.3-1.6,1
			c0,0.6,0.3,0.9,1.3,1.1l0.4,0.1c1.9,0.3,3.1,1.1,3.1,2.9c0,2-1.6,3.4-4.5,3.4C285,21.5,284.1,21.1,283.6,20.8z"/>
		<path id="XMLID_66_" class="st22" d="M292.2,17.2c0-3,2.1-4.3,4.5-4.3c1.3,0,2.3,0.4,2.7,0.7v2.2c-0.6-0.6-1.3-0.8-2.3-0.8
			c-1.4,0-2.2,0.8-2.2,2.3c0,1.4,0.8,2.3,2.2,2.3c1,0,1.8-0.3,2.4-0.9v2.1c-0.4,0.4-1.4,0.9-2.8,0.9
			C294.1,21.5,292.2,20.2,292.2,17.2z"/>
		<path id="XMLID_63_" class="st22" d="M300.6,17.2c0-3,2.2-4.3,4.7-4.3c2.6,0,4.5,1.3,4.5,4.3c0,3-2.2,4.3-4.7,4.3
			C302.5,21.5,300.6,20.2,300.6,17.2z M307,17.2c0-1.4-0.6-2.3-1.9-2.3c-1.3,0-1.8,0.9-1.8,2.3c0,1.4,0.6,2.3,1.8,2.3
			C306.5,19.6,307,18.6,307,17.2z"/>
		<path id="XMLID_61_" class="st22" d="M311.2,13.2h2.2l0.2,1.1c0.1-0.8,0.9-1.3,1.8-1.3c0.5,0,0.8,0.1,0.9,0.2v2.2
			c-0.2-0.1-0.6-0.2-1-0.2c-0.7,0-1.1,0.2-1.3,0.7v5.6h-2.7V13.2z"/>
		<path id="XMLID_58_" class="st22" d="M316.9,17.2c0-3,2.2-4.3,4.4-4.3c2.2,0,4.2,0.8,4.2,3.9v1.1h-5.9c0.1,0.9,0.8,1.7,2.5,1.7
			c1.5,0,2.5-0.5,3-0.9v2c-0.5,0.4-1.6,0.9-3.4,0.9C318.7,21.5,316.9,20.2,316.9,17.2z M323,16.4L323,16.4c0-1.1-0.5-1.6-1.6-1.6
			c-1,0-1.6,0.8-1.7,1.6H323z"/>
		<path id="XMLID_56_" class="st22" d="M330.5,16.8c0-2.5,1.4-5,3.4-6h2.3c-2,1-3.4,3.1-3.4,6c0,3,1.6,5.2,3.4,6.3h-2.3
			C331.9,22.1,330.5,19.5,330.5,16.8z"/>
		<path id="XMLID_54_" class="st22" d="M337.2,11.3h3.8c3.3,0,4.8,1.2,4.8,3.4c0,2.2-1.4,3.7-4.8,3.7h-0.6v-1.8h0.5
			c1.4,0,2-0.6,2-1.7c0-1.1-0.7-1.7-2-1.7H340v8.2h-2.7V11.3z"/>
		<path id="XMLID_51_" class="st22" d="M349.3,12.3l-0.4-1h2.8c0.4,0.9,4.1,9.2,4.5,10h-2.9l-0.8-1.8h-4l-0.8,1.8h-2.6L349.3,12.3z
			 M349.3,17.7h2.5l-1-2.3l-0.3-0.8l-0.3,0.8L349.3,17.7z"/>
		<path id="XMLID_49_" class="st22" d="M357.3,12.2l-0.7-0.9h3.3l4.5,5.8h0v-5.8h2.4v10h-2.2l-4.9-6.2h0v6.2h-2.5V12.2z"/>
		<path id="XMLID_47_" class="st22" d="M368.7,20.8v-2.4c0.6,0.6,1.6,1.1,3,1.1c1.2,0,1.8-0.4,1.8-1.1c0-0.6-0.4-0.8-1.5-1l-0.4-0.1
			c-1.8-0.3-3-1.2-3-3c0-2,1.6-3.2,4.2-3.2c1.7,0,2.6,0.4,3.1,0.7v2.4c-0.5-0.6-1.6-1.1-3.1-1.1c-1,0-1.6,0.3-1.6,1
			c0,0.6,0.3,0.9,1.3,1.1l0.4,0.1c1.9,0.3,3.1,1.1,3.1,2.9c0,2-1.6,3.4-4.5,3.4C370.1,21.5,369.1,21.1,368.7,20.8z"/>
		<path id="XMLID_45_" class="st22" d="M377.5,20.8v-2.4c0.6,0.6,1.6,1.1,3,1.1c1.2,0,1.8-0.4,1.8-1.1c0-0.6-0.4-0.8-1.5-1l-0.4-0.1
			c-1.8-0.3-3-1.2-3-3c0-2,1.6-3.2,4.2-3.2c1.7,0,2.6,0.4,3.1,0.7v2.4c-0.5-0.6-1.6-1.1-3.1-1.1c-1,0-1.6,0.3-1.6,1
			c0,0.6,0.3,0.9,1.3,1.1l0.4,0.1c1.9,0.3,3.1,1.1,3.1,2.9c0,2-1.6,3.4-4.5,3.4C378.9,21.5,377.9,21.1,377.5,20.8z"/>
		<path id="XMLID_43_" class="st22" d="M388.7,17c0-3-1.5-5.2-3.4-6.2h2.3c2,0.9,3.4,3.5,3.4,6.2c0,2.6-1.4,5.1-3.4,6h-2.3
			C387.2,22,388.7,19.9,388.7,17z"/>
	</g>
	<g id="XMLID_4_">
		<g id="XMLID_37_">
			<g id="XMLID_38_">
				<g id="XMLID_40_">
					<path id="XMLID_41_" class="st17" d="M314.1,215.4c6.1,0,12.2,0,18.2,0c1,0,1-1.6,0-1.6c-6.1,0-12.2,0-18.2,0
						C313.1,213.8,313.1,215.4,314.1,215.4L314.1,215.4z"/>
				</g>
				
					<rect id="XMLID_39_" x="320.7" y="212.1" transform="matrix(0.707 -0.7072 0.7072 0.707 -57.0847 291.4486)" class="st17" width="5.1" height="5.1"/>
			</g>
		</g>
		<path id="XMLID_34_" class="st17" d="M338.5,216h-2.1l-0.5,1.2H335l2.5-5.3l2.4,5.3H339L338.5,216z M338.2,215.3l-0.7-1.7
			l-0.8,1.7H338.2z"/>
		<path id="XMLID_32_" class="st17" d="M341.7,214.6l-0.6,0.3c-0.1-0.2-0.2-0.3-0.4-0.3c-0.1,0-0.1,0-0.2,0.1c0,0-0.1,0.1-0.1,0.2
			c0,0.1,0.1,0.2,0.4,0.4c0.4,0.2,0.6,0.3,0.8,0.5c0.1,0.1,0.2,0.3,0.2,0.6c0,0.3-0.1,0.6-0.3,0.8c-0.2,0.2-0.5,0.3-0.8,0.3
			c-0.5,0-0.9-0.2-1.1-0.8l0.6-0.3c0.1,0.2,0.2,0.2,0.2,0.3c0.1,0.1,0.2,0.1,0.3,0.1c0.2,0,0.4-0.1,0.4-0.3c0-0.1-0.1-0.3-0.3-0.4
			c-0.1,0-0.1-0.1-0.2-0.1c-0.1,0-0.1-0.1-0.2-0.1c-0.2-0.1-0.4-0.2-0.4-0.3c-0.1-0.1-0.2-0.3-0.2-0.5c0-0.3,0.1-0.5,0.3-0.7
			c0.2-0.2,0.4-0.3,0.7-0.3C341.2,214,341.5,214.2,341.7,214.6z"/>
		<path id="XMLID_29_" class="st17" d="M344.9,215.8h-2.2c0,0.2,0.1,0.5,0.2,0.6c0.1,0.1,0.3,0.2,0.6,0.2c0.2,0,0.3,0,0.5-0.1
			c0.1-0.1,0.2-0.2,0.4-0.5l0.6,0.3c-0.1,0.2-0.2,0.3-0.3,0.4c-0.1,0.1-0.2,0.2-0.3,0.3c-0.1,0.1-0.2,0.1-0.4,0.2
			c-0.1,0-0.3,0.1-0.4,0.1c-0.5,0-0.8-0.1-1.1-0.4c-0.3-0.3-0.4-0.7-0.4-1.2c0-0.5,0.1-0.9,0.4-1.2c0.3-0.3,0.7-0.5,1.1-0.5
			c0.5,0,0.8,0.1,1.1,0.4c0.3,0.3,0.4,0.7,0.4,1.2V215.8z M344.2,215.2c-0.1-0.4-0.4-0.6-0.7-0.6c-0.1,0-0.2,0-0.3,0
			c-0.1,0-0.2,0.1-0.2,0.1c-0.1,0-0.1,0.1-0.2,0.2c0,0.1-0.1,0.2-0.1,0.2H344.2z"/>
		<path id="XMLID_27_" class="st17" d="M345.3,214h0.7v0.3c0.3-0.2,0.5-0.4,0.9-0.4c0.4,0,0.6,0.1,0.8,0.3c0.2,0.2,0.3,0.5,0.3,1
			v1.9h-0.7v-1.8c0-0.3,0-0.5-0.1-0.6c-0.1-0.1-0.2-0.2-0.5-0.2c-0.2,0-0.4,0.1-0.5,0.2c-0.1,0.2-0.2,0.4-0.2,0.8v1.5h-0.7V214z"/>
		<path id="XMLID_24_" class="st17" d="M350.7,214h0.7v3.1h-0.7v-0.3c-0.3,0.3-0.6,0.4-1,0.4c-0.4,0-0.8-0.2-1.1-0.5
			c-0.3-0.3-0.4-0.7-0.4-1.2c0-0.5,0.1-0.9,0.4-1.2c0.3-0.3,0.6-0.5,1-0.5c0.4,0,0.7,0.1,1,0.5V214z M349,215.6
			c0,0.3,0.1,0.6,0.2,0.7c0.2,0.2,0.4,0.3,0.6,0.3c0.3,0,0.5-0.1,0.6-0.3c0.2-0.2,0.2-0.4,0.2-0.7c0-0.3-0.1-0.5-0.2-0.7
			c-0.2-0.2-0.4-0.3-0.6-0.3c-0.3,0-0.5,0.1-0.6,0.3C349.1,215.1,349,215.3,349,215.6z"/>
		<path id="XMLID_21_" class="st17" d="M352.6,218.9h-0.7V214h0.7v0.3c0.3-0.3,0.6-0.4,1-0.4c0.4,0,0.8,0.2,1.1,0.5
			c0.3,0.3,0.4,0.7,0.4,1.2c0,0.5-0.1,0.9-0.4,1.2c-0.3,0.3-0.6,0.5-1,0.5c-0.4,0-0.7-0.1-1-0.4V218.9z M354.4,215.6
			c0-0.3-0.1-0.5-0.2-0.7c-0.2-0.2-0.4-0.3-0.6-0.3c-0.3,0-0.5,0.1-0.6,0.3c-0.2,0.2-0.3,0.4-0.3,0.7c0,0.3,0.1,0.5,0.3,0.7
			c0.2,0.2,0.4,0.3,0.6,0.3c0.3,0,0.5-0.1,0.6-0.3C354.3,216.1,354.4,215.9,354.4,215.6z"/>
		<path id="XMLID_18_" class="st17" d="M355.3,212.7c0-0.1,0-0.2,0.1-0.3c0.1-0.1,0.2-0.1,0.3-0.1c0.1,0,0.2,0.1,0.3,0.1
			c0.1,0.1,0.1,0.2,0.1,0.3c0,0.1-0.1,0.2-0.1,0.3c-0.1,0.1-0.2,0.1-0.3,0.1c-0.1,0-0.2,0-0.3-0.1
			C355.3,213,355.3,212.9,355.3,212.7z M356.1,214v3.1h-0.7V214H356.1z"/>
		<path id="XMLID_16_" class="st17" d="M356.6,214h0.7v0.3c0.3-0.2,0.5-0.4,0.9-0.4c0.4,0,0.7,0.1,0.9,0.3c0.2,0.2,0.3,0.5,0.3,1
			v1.9h-0.7v-1.8c0-0.3,0-0.5-0.1-0.6c-0.1-0.1-0.2-0.2-0.5-0.2c-0.2,0-0.4,0.1-0.5,0.2c-0.1,0.2-0.2,0.4-0.2,0.8v1.5h-0.7V214z"/>
		<path id="XMLID_13_" class="st17" d="M362.6,215.8h-2.2c0,0.2,0.1,0.5,0.3,0.6c0.1,0.1,0.3,0.2,0.6,0.2c0.2,0,0.3,0,0.4-0.1
			c0.1-0.1,0.2-0.2,0.4-0.5l0.6,0.3c-0.1,0.2-0.2,0.3-0.3,0.4c-0.1,0.1-0.2,0.2-0.3,0.3c-0.1,0.1-0.3,0.1-0.4,0.2
			c-0.1,0-0.3,0.1-0.5,0.1c-0.5,0-0.8-0.1-1.1-0.4c-0.3-0.3-0.4-0.7-0.4-1.2c0-0.5,0.1-0.9,0.4-1.2c0.3-0.3,0.6-0.5,1.1-0.5
			c0.5,0,0.8,0.1,1.1,0.4c0.3,0.3,0.4,0.7,0.4,1.2V215.8z M361.8,215.2c-0.1-0.4-0.3-0.6-0.7-0.6c-0.1,0-0.2,0-0.2,0
			c-0.1,0-0.2,0.1-0.2,0.1c-0.1,0-0.1,0.1-0.2,0.2c0,0.1-0.1,0.2-0.1,0.2H361.8z"/>
		<path id="XMLID_11_" class="st17" d="M367.5,212.9H366l-0.2,0.8c0,0,0.1,0,0.1,0c0,0,0.1,0,0.1,0c0.5,0,0.9,0.2,1.2,0.5
			c0.3,0.3,0.5,0.7,0.5,1.3c0,0.5-0.2,1-0.5,1.3c-0.3,0.3-0.8,0.5-1.3,0.5c-0.7,0-1.2-0.3-1.6-0.9l0.6-0.5c0.2,0.3,0.3,0.5,0.5,0.6
			c0.2,0.1,0.3,0.2,0.6,0.2c0.3,0,0.6-0.1,0.8-0.3c0.2-0.2,0.3-0.5,0.3-0.8c0-0.3-0.1-0.6-0.3-0.8c-0.2-0.2-0.5-0.3-0.8-0.3
			c-0.3,0-0.6,0.1-0.9,0.4h-0.3l0.8-2.6h2.1V212.9z"/>
		<path id="XMLID_9_" class="st17" d="M368.4,214h0.7v0.3c0.1-0.1,0.3-0.2,0.4-0.3c0.1-0.1,0.2-0.1,0.4-0.1c0.4,0,0.6,0.2,0.8,0.5
			c0.2-0.3,0.5-0.5,0.9-0.5c0.7,0,1.1,0.4,1.1,1.3v1.9H372v-1.7c0-0.3,0-0.5-0.1-0.6c-0.1-0.1-0.2-0.2-0.4-0.2
			c-0.2,0-0.3,0.1-0.4,0.2c-0.1,0.1-0.1,0.4-0.1,0.7v1.6h-0.7v-1.7c0-0.6-0.2-0.8-0.5-0.8c-0.2,0-0.4,0.1-0.4,0.2
			c-0.1,0.2-0.1,0.4-0.1,0.7v1.6h-0.7V214z"/>
		<path id="XMLID_6_" class="st17" d="M376.2,217.1c0,0.1,0,0.3,0,0.4c0,0.1,0,0.2,0,0.3c0,0.2-0.2,0.4-0.3,0.6
			c-0.3,0.3-0.7,0.5-1.2,0.5c-0.4,0-0.8-0.1-1-0.3c-0.3-0.2-0.4-0.5-0.5-1h0.7c0,0.1,0.1,0.3,0.1,0.4c0.2,0.2,0.4,0.3,0.7,0.3
			c0.5,0,0.8-0.3,0.8-1v-0.4c-0.3,0.3-0.6,0.4-1,0.4c-0.4,0-0.8-0.1-1-0.5c-0.3-0.3-0.4-0.7-0.4-1.2c0-0.4,0.1-0.8,0.4-1.2
			c0.3-0.3,0.6-0.5,1.1-0.5c0.4,0,0.7,0.1,1,0.4V214h0.7V217.1z M375.5,215.6c0-0.3-0.1-0.5-0.2-0.7c-0.2-0.2-0.4-0.3-0.6-0.3
			c-0.3,0-0.5,0.1-0.7,0.3c-0.1,0.2-0.2,0.4-0.2,0.7c0,0.3,0.1,0.5,0.2,0.7c0.1,0.2,0.4,0.3,0.7,0.3c0.3,0,0.5-0.1,0.6-0.3
			C375.5,216.1,375.5,215.9,375.5,215.6z"/>
		<text id="XMLID_5_" transform="matrix(1.1216 0 0 1 377.3007 217.8915)" class="st17 st7 st23">BID</text>
	</g>
	<line id="XMLID_3_" class="st24" x1="44.3" y1="51.3" x2="44.3" y2="243.2"/>
	<line id="XMLID_2_" class="st24" x1="44.3" y1="51.1" x2="284.2" y2="51.1"/>
</g>
</svg>
