<!-- Generator: Adobe Illustrator 22.1.0, SVG Export Plug-In  -->
<svg version="1.1"
	 xmlns="http://www.w3.org/2000/svg" xmlns:xlink="http://www.w3.org/1999/xlink" xmlns:a="http://ns.adobe.com/AdobeSVGViewerExtensions/3.0/"
	 x="0px" y="0px" width="653.1px" height="389.1px" viewBox="0 0 653.1 389.1" style="enable-background:new 0 0 653.1 389.1;"
	 xml:space="preserve">
<style type="text/css">
	.st0{fill:none;stroke:#231F20;stroke-width:0.9283;stroke-miterlimit:10;}
	.st1{fill:#231F20;}
	.st2{fill:#808184;}
	.st3{fill:#490E67;}
	.st4{fill:#DB5D27;}
	.st5{fill:#669552;}
	.st6{fill:#292D73;}
	.st7{fill:#C29FD8;}
</style>
<defs>
</defs>
<g id="XMLID_1_">
	<line id="XMLID_601_" class="st0" x1="23.3" y1="49.9" x2="23.3" y2="385"/>
	<line id="XMLID_600_" class="st0" x1="231.6" y1="49.9" x2="231.6" y2="385"/>
	<line id="XMLID_599_" class="st0" x1="443.5" y1="49.9" x2="443.5" y2="385"/>
	<line id="XMLID_598_" class="st0" x1="652.6" y1="49.9" x2="652.6" y2="385"/>
	<line id="XMLID_597_" class="st0" x1="23.3" y1="80.2" x2="652.6" y2="80.2"/>
	<line id="XMLID_596_" class="st0" x1="23.3" y1="109" x2="652.6" y2="109"/>
	<line id="XMLID_595_" class="st0" x1="23.3" y1="138.9" x2="652.6" y2="138.9"/>
	<line id="XMLID_594_" class="st0" x1="23.3" y1="169.6" x2="652.6" y2="169.6"/>
	<line id="XMLID_593_" class="st0" x1="23.3" y1="199.5" x2="652.6" y2="199.5"/>
	<line id="XMLID_592_" class="st0" x1="23.3" y1="230.1" x2="652.6" y2="230.1"/>
	<line id="XMLID_591_" class="st0" x1="23.3" y1="49.9" x2="652.6" y2="49.9"/>
	<g id="XMLID_571_">
		<path id="XMLID_588_" class="st1" d="M44.8,316c-1.4,0-2.5,0-3.5,0.1v-2.8l1.4-0.1v0c-1.1-0.8-1.7-1.9-1.7-3.4
			c0-2.3,2-4.3,5.3-4.3c3.8,0,5.5,2.4,5.5,4.7c0,1.2-0.5,2.2-1.2,2.7v0h5.1v3.2H44.8z M47.2,312.8c0.3,0,0.5,0,0.7-0.1
			c0.9-0.2,1.5-1,1.5-1.9c0-1.4-1.2-2.2-2.9-2.2c-1.6,0-2.9,0.7-2.9,2.2c0,0.9,0.7,1.7,1.6,1.9c0.2,0,0.4,0.1,0.6,0.1H47.2z"/>
		<path id="XMLID_586_" class="st1" d="M36.6,303.4v-3.2h15v3.2H36.6z"/>
		<path id="XMLID_583_" class="st1" d="M51.6,291.7l-1,0.2v0.1c0.8,0.7,1.3,1.7,1.3,3c0,2.1-1.5,3.3-3.2,3.3c-2.7,0-4-2.4-3.9-6.1
			h-0.1c-0.5,0-1.3,0.3-1.3,1.9c0,1.1,0.4,2.2,0.8,2.9l-2.1,0.6c-0.4-0.7-0.9-2.1-0.9-4c0-3.4,2-4.5,4.5-4.5h3.6c1,0,1.9,0,2.5-0.1
			V291.7z M46.8,292.1c0,1.7,0.4,3,1.6,3c0.8,0,1.2-0.5,1.2-1.3c0-0.8-0.5-1.5-1.2-1.7c-0.2,0-0.4-0.1-0.5-0.1H46.8z"/>
		<path id="XMLID_581_" class="st1" d="M51.4,278.7c0.3,0.6,0.5,1.6,0.5,2.9c0,3.3-2,5.5-5.3,5.5c-3,0-5.5-2.1-5.5-5.9
			c0-0.8,0.1-1.8,0.4-2.4l2.4,0.5c-0.2,0.4-0.3,1-0.3,1.8c0,1.7,1.2,2.8,2.9,2.8c1.9,0,2.9-1.3,2.9-2.8c0-0.8-0.1-1.4-0.3-1.8
			L51.4,278.7z"/>
		<path id="XMLID_578_" class="st1" d="M47.5,274.7c1.3-0.1,2-1.4,2-2.9c0-1.1-0.1-2-0.4-2.9l2.2-0.4c0.4,1.1,0.6,2.3,0.6,3.7
			c0,3.5-2,5.5-5.3,5.5c-2.6,0-5.5-1.6-5.5-5.2c0-3.3,2.6-4.6,5.2-4.6c0.5,0,1,0.1,1.3,0.1V274.7z M45.3,270.9
			c-0.8,0-2.1,0.3-2.1,1.8c0,1.4,1.2,1.9,2.1,2V270.9z"/>
		<path id="XMLID_575_" class="st1" d="M51.6,266.1c-0.7,0-1.9-0.1-3.1-0.1H36.6v-3.2h5.9v0c-0.9-0.6-1.5-1.7-1.5-3.1
			c0-2.5,2-4.3,5.2-4.3c3.7,0,5.6,2.4,5.6,4.7c0,1.2-0.4,2.4-1.7,3.1v0l1.4,0.1V266.1z M47.2,262.8c0.2,0,0.4,0,0.6-0.1
			c0.9-0.2,1.5-1,1.5-1.9c0-1.4-1.1-2.2-2.9-2.2c-1.6,0-2.9,0.7-2.9,2.2c0,0.9,0.7,1.7,1.6,1.9c0.2,0,0.4,0.1,0.6,0.1H47.2z"/>
		<path id="XMLID_572_" class="st1" d="M46.4,243.1c3.8,0,5.5,2.7,5.5,5.4c0,3-2,5.3-5.3,5.3c-3.3,0-5.5-2.2-5.5-5.5
			C41.1,245.2,43.3,243.1,46.4,243.1z M46.5,250.6c1.8,0,3.1-0.7,3.1-2.1c0-1.2-1.2-2-3.1-2c-1.5,0-3.1,0.6-3.1,2
			C43.4,250,44.9,250.6,46.5,250.6z"/>
	</g>
	<g id="XMLID_545_">
		<path id="XMLID_568_" class="st1" d="M76.3,372.9c1-0.2,2.3-0.3,3.7-0.3c2.3,0,3.8,0.4,5,1.3c1.3,0.9,2.1,2.5,2.1,4.6
			c0,2.3-0.9,4-2,5c-1.3,1.1-3.3,1.6-5.7,1.6c-1.4,0-2.5-0.1-3.1-0.2V372.9z M79.1,382.9c0.2,0.1,0.6,0.1,1,0.1
			c2.5,0,4.2-1.4,4.2-4.3c0-2.5-1.5-3.9-3.9-3.9c-0.6,0-1,0.1-1.3,0.1V382.9z"/>
		<path id="XMLID_566_" class="st1" d="M91.1,376.1l1.3,4.4c0.1,0.5,0.3,1.2,0.4,1.7H93c0.1-0.5,0.3-1.1,0.4-1.7l1.1-4.4h3l-2.1,5.9
			c-1.3,3.5-2.1,5-3.1,5.8c-1,0.8-2,1.1-2.7,1.2l-0.6-2.3c0.3-0.1,0.8-0.2,1.2-0.5c0.4-0.2,0.9-0.7,1.1-1.1c0.1-0.1,0.1-0.3,0.1-0.4
			c0-0.1,0-0.2-0.1-0.5l-3.3-8.1H91.1z"/>
		<path id="XMLID_564_" class="st1" d="M98.3,382.6c0.5,0.3,1.6,0.7,2.4,0.7c0.8,0,1.2-0.3,1.2-0.7s-0.3-0.7-1.3-1
			c-1.8-0.6-2.5-1.6-2.5-2.7c0-1.7,1.4-2.9,3.6-2.9c1,0,2,0.2,2.5,0.5l-0.5,1.9c-0.4-0.2-1.2-0.5-1.9-0.5c-0.7,0-1.1,0.3-1.1,0.7
			c0,0.4,0.3,0.6,1.4,1c1.7,0.6,2.4,1.4,2.4,2.7c0,1.7-1.3,2.9-3.9,2.9c-1.2,0-2.2-0.3-2.9-0.6L98.3,382.6z"/>
		<path id="XMLID_562_" class="st1" d="M109,379.9L109,379.9c0.2-0.4,0.5-0.7,0.7-1.1l1.8-2.7h3.3l-3.2,3.6l3.6,5.3h-3.4l-2.1-3.7
			l-0.7,0.9v2.8h-2.8v-12.9h2.8V379.9z"/>
		<path id="XMLID_559_" class="st1" d="M119.1,373.7c0,0.8-0.6,1.4-1.5,1.4c-0.9,0-1.5-0.6-1.4-1.4c0-0.8,0.6-1.4,1.5-1.4
			C118.5,372.3,119.1,372.9,119.1,373.7z M116.2,385v-8.9h2.8v8.9H116.2z"/>
		<path id="XMLID_557_" class="st1" d="M121.2,379c0-1.1,0-2.1-0.1-2.8h2.4l0.1,1.2h0.1c0.4-0.6,1.3-1.4,2.7-1.4
			c1.8,0,3.2,1.2,3.2,3.8v5.3h-2.8v-4.9c0-1.1-0.4-1.9-1.4-1.9c-0.8,0-1.2,0.5-1.4,1c-0.1,0.2-0.1,0.4-0.1,0.7v5.1h-2.8V379z"/>
		<path id="XMLID_554_" class="st1" d="M134,381.5c0.1,1.1,1.2,1.7,2.5,1.7c0.9,0,1.7-0.1,2.5-0.4l0.4,1.9c-0.9,0.4-2,0.5-3.2,0.5
			c-3,0-4.8-1.7-4.8-4.5c0-2.3,1.4-4.8,4.5-4.8c2.9,0,4,2.2,4,4.4c0,0.5-0.1,0.9-0.1,1.1H134z M137.3,379.6c0-0.7-0.3-1.8-1.6-1.8
			c-1.2,0-1.6,1.1-1.7,1.8H137.3z"/>
		<path id="XMLID_552_" class="st1" d="M141.5,382.6c0.5,0.3,1.6,0.7,2.4,0.7c0.8,0,1.2-0.3,1.2-0.7s-0.3-0.7-1.3-1
			c-1.8-0.6-2.5-1.6-2.5-2.7c0-1.7,1.4-2.9,3.6-2.9c1,0,2,0.2,2.5,0.5l-0.5,1.9c-0.4-0.2-1.2-0.5-1.9-0.5c-0.7,0-1.1,0.3-1.1,0.7
			c0,0.4,0.3,0.6,1.4,1c1.7,0.6,2.4,1.4,2.4,2.7c0,1.7-1.3,2.9-3.9,2.9c-1.2,0-2.2-0.3-2.9-0.6L141.5,382.6z"/>
		<path id="XMLID_549_" class="st1" d="M152.3,373.7c0,0.8-0.6,1.4-1.5,1.4c-0.9,0-1.5-0.6-1.4-1.4c0-0.8,0.6-1.4,1.5-1.4
			C151.7,372.3,152.2,372.9,152.3,373.7z M149.4,385v-8.9h2.8v8.9H149.4z"/>
		<path id="XMLID_546_" class="st1" d="M159.4,385l-0.2-0.9h-0.1c-0.6,0.7-1.5,1.1-2.5,1.1c-1.8,0-2.9-1.3-2.9-2.7
			c0-2.3,2.1-3.4,5.2-3.4V379c0-0.5-0.3-1.1-1.6-1.1c-0.9,0-1.9,0.3-2.5,0.7l-0.5-1.8c0.6-0.3,1.8-0.8,3.5-0.8c3,0,3.9,1.7,3.9,3.8
			v3.1c0,0.9,0,1.7,0.1,2.2H159.4z M159.1,380.8c-1.5,0-2.6,0.3-2.6,1.4c0,0.7,0.5,1.1,1.1,1.1c0.7,0,1.3-0.5,1.4-1
			c0-0.1,0.1-0.3,0.1-0.5V380.8z"/>
	</g>
	<g id="XMLID_541_">
		<path id="XMLID_542_" class="st1" d="M12,230.2c0,3.2-1.3,5.3-3.9,5.3c-2.6,0-3.8-2.4-3.8-5.3c0-3,1.3-5.3,3.9-5.3
			C10.9,225,12,227.4,12,230.2z M6.7,230.3c0,2.3,0.5,3.5,1.5,3.5s1.4-1.2,1.4-3.5c0-2.3-0.5-3.5-1.4-3.5
			C7.3,226.8,6.7,227.9,6.7,230.3z"/>
	</g>
	<g id="XMLID_538_">
		<path id="XMLID_539_" class="st1" d="M11.2,193.9h-4l-0.2,1.6c0.2,0,0.4,0,0.7,0c1,0,2,0.2,2.7,0.7c0.8,0.5,1.2,1.4,1.2,2.6
			c0,1.9-1.6,3.6-4.4,3.6c-1.2,0-2.3-0.3-2.8-0.6l0.4-1.8c0.5,0.2,1.4,0.5,2.3,0.5c1,0,2-0.5,2-1.6c0-1.1-0.8-1.7-2.9-1.7
			c-0.6,0-1,0-1.4,0.1l0.7-5.4h5.6V193.9z"/>
	</g>
	<g id="XMLID_532_">
		<path id="XMLID_536_" class="st1" d="M3.1,163.9L3.1,163.9l-2,0.9l-0.4-1.8l2.7-1.3h2V172H3.1V163.9z"/>
		<path id="XMLID_533_" class="st1" d="M16.3,166.9c0,3.2-1.3,5.3-3.9,5.3c-2.6,0-3.8-2.4-3.8-5.3c0-3,1.3-5.3,3.9-5.3
			C15.3,161.6,16.3,164.1,16.3,166.9z M11,166.9c0,2.3,0.5,3.5,1.5,3.5s1.4-1.2,1.4-3.5c0-2.3-0.5-3.5-1.4-3.5
			C11.6,163.4,11,164.6,11,166.9z"/>
	</g>
	<g id="XMLID_527_">
		<path id="XMLID_530_" class="st1" d="M3.1,133.8L3.1,133.8l-2,0.9L0.7,133l2.7-1.3h2v10.2H3.1V133.8z"/>
		<path id="XMLID_528_" class="st1" d="M15.6,133.7h-4l-0.2,1.6c0.2,0,0.4,0,0.7,0c1,0,2,0.2,2.7,0.7c0.8,0.5,1.2,1.4,1.2,2.6
			c0,1.9-1.6,3.6-4.4,3.6c-1.2,0-2.3-0.3-2.8-0.6l0.4-1.8c0.5,0.2,1.4,0.5,2.3,0.5c1,0,2-0.5,2-1.6c0-1.1-0.8-1.7-2.9-1.7
			c-0.6,0-1,0-1.4,0.1l0.7-5.4h5.6V133.7z"/>
	</g>
	<g id="XMLID_521_">
		<path id="XMLID_525_" class="st1" d="M0.1,111.8v-1.4l1.3-1.2c2.2-2,3.3-3.1,3.3-4.3c0-0.8-0.5-1.5-1.7-1.5
			c-0.9,0-1.7,0.4-2.2,0.8l-0.7-1.7c0.8-0.6,2-1.1,3.3-1.1c2.3,0,3.6,1.4,3.6,3.2c0,1.7-1.2,3.1-2.7,4.4l-0.9,0.8v0h3.9v2H0.1z"/>
		<path id="XMLID_522_" class="st1" d="M16.3,106.7c0,3.2-1.3,5.3-3.9,5.3c-2.6,0-3.8-2.4-3.8-5.3c0-3,1.3-5.3,3.9-5.3
			C15.3,101.5,16.3,103.9,16.3,106.7z M11,106.7c0,2.3,0.5,3.5,1.5,3.5s1.4-1.2,1.4-3.5c0-2.3-0.5-3.5-1.4-3.5
			C11.6,103.3,11,104.4,11,106.7z"/>
	</g>
	<g id="XMLID_516_">
		<path id="XMLID_519_" class="st1" d="M0.1,81.7v-1.4l1.3-1.2c2.2-2,3.3-3.1,3.3-4.3c0-0.8-0.5-1.5-1.7-1.5c-0.9,0-1.7,0.4-2.2,0.8
			l-0.7-1.7c0.8-0.6,2-1.1,3.3-1.1c2.3,0,3.6,1.4,3.6,3.2c0,1.7-1.2,3.1-2.7,4.4l-0.9,0.8v0h3.9v2H0.1z"/>
		<path id="XMLID_517_" class="st1" d="M15.6,73.5h-4l-0.2,1.6c0.2,0,0.4,0,0.7,0c1,0,2,0.2,2.7,0.7c0.8,0.5,1.2,1.4,1.2,2.6
			c0,1.9-1.6,3.6-4.4,3.6c-1.2,0-2.3-0.3-2.8-0.6l0.4-1.8c0.5,0.2,1.4,0.5,2.3,0.5c1,0,2-0.5,2-1.6c0-1.1-0.8-1.7-2.9-1.7
			c-0.6,0-1,0-1.4,0.1l0.7-5.4h5.6V73.5z"/>
	</g>
	<g id="XMLID_510_">
		<path id="XMLID_514_" class="st1" d="M0.5,52c0.4,0.2,1.4,0.6,2.4,0.6c1.2,0,1.9-0.6,1.9-1.4c0-1-1-1.5-2.1-1.5h-1V48h0.9
			c0.8,0,1.8-0.3,1.8-1.2c0-0.6-0.5-1.1-1.5-1.1c-0.8,0-1.7,0.4-2.1,0.6l-0.5-1.7c0.6-0.4,1.8-0.8,3.2-0.8c2.2,0,3.4,1.1,3.4,2.5
			c0,1.1-0.6,1.9-1.9,2.4v0c1.2,0.2,2.2,1.1,2.2,2.5c0,1.8-1.6,3.1-4.2,3.1c-1.3,0-2.4-0.3-3-0.7L0.5,52z"/>
		<path id="XMLID_511_" class="st1" d="M16.3,49.1c0,3.2-1.3,5.3-3.9,5.3c-2.6,0-3.8-2.4-3.8-5.3c0-3,1.3-5.3,3.9-5.3
			C15.3,43.9,16.3,46.3,16.3,49.1z M11,49.2c0,2.3,0.5,3.5,1.5,3.5s1.4-1.2,1.4-3.5c0-2.3-0.5-3.5-1.4-3.5
			C11.6,45.7,11,46.8,11,49.2z"/>
	</g>
	<g>
		<path class="st1" d="M246.6,0.7c0.9-0.1,2.1-0.3,3.8-0.3c1.7,0,2.9,0.3,3.7,1c0.8,0.6,1.3,1.6,1.3,2.8c0,1.2-0.4,2.2-1.1,2.9
			c-0.9,0.9-2.3,1.3-4,1.3c-0.4,0-0.7,0-0.9-0.1v4.4h-2.7V0.7z M249.4,6.2c0.2,0.1,0.5,0.1,0.9,0.1c1.5,0,2.4-0.7,2.4-2
			c0-1.1-0.8-1.8-2.2-1.8c-0.5,0-0.9,0-1.1,0.1V6.2z"/>
		<path class="st1" d="M264.2,10.6c0,0.8,0,1.7,0.1,2.1h-2.5l-0.2-0.9h-0.1c-0.6,0.7-1.5,1.1-2.5,1.1c-1.8,0-2.9-1.3-2.9-2.7
			c0-2.3,2.1-3.4,5.2-3.4V6.7c0-0.5-0.3-1.2-1.6-1.2c-0.9,0-1.9,0.3-2.5,0.7l-0.5-1.8c0.6-0.3,1.8-0.8,3.5-0.8c3,0,3.9,1.7,3.9,3.9
			V10.6z M261.5,8.6c-1.5,0-2.6,0.3-2.6,1.4c0,0.7,0.5,1.1,1.1,1.1c0.7,0,1.3-0.5,1.4-1c0-0.1,0.1-0.3,0.1-0.5V8.6z"/>
		<path class="st1" d="M269.3,1.5v2.4h2v2h-2v3.2c0,1.1,0.3,1.6,1.1,1.6c0.4,0,0.6,0,0.8-0.1l0,2.1c-0.3,0.1-1,0.2-1.8,0.2
			c-0.9,0-1.6-0.3-2.1-0.8c-0.5-0.5-0.8-1.4-0.8-2.6V5.9h-1.2v-2h1.2V2.2L269.3,1.5z"/>
		<path class="st1" d="M275.8,1.4c0,0.8-0.6,1.4-1.5,1.4c-0.9,0-1.4-0.6-1.4-1.4c0-0.8,0.6-1.4,1.5-1.4S275.8,0.6,275.8,1.4z
			 M272.9,12.8V3.9h2.8v8.9H272.9z"/>
		<path class="st1" d="M280,9.2c0.1,1.1,1.2,1.7,2.5,1.7c0.9,0,1.7-0.1,2.5-0.4l0.4,1.9c-0.9,0.4-2,0.6-3.2,0.6
			c-3,0-4.8-1.7-4.8-4.5c0-2.3,1.4-4.8,4.5-4.8c2.9,0,4,2.2,4,4.4c0,0.5-0.1,0.9-0.1,1.1H280z M283.3,7.3c0-0.7-0.3-1.8-1.6-1.8
			c-1.2,0-1.6,1.1-1.7,1.8H283.3z"/>
		<path class="st1" d="M287.5,6.7c0-1.1,0-2-0.1-2.8h2.4l0.1,1.2h0.1c0.4-0.6,1.3-1.4,2.7-1.4c1.8,0,3.2,1.2,3.2,3.8v5.3h-2.8V7.8
			c0-1.1-0.4-1.9-1.4-1.9c-0.8,0-1.2,0.5-1.4,1c-0.1,0.2-0.1,0.4-0.1,0.7v5.1h-2.8V6.7z"/>
		<path class="st1" d="M301.2,1.5v2.4h2v2h-2v3.2c0,1.1,0.3,1.6,1.1,1.6c0.4,0,0.6,0,0.8-0.1l0,2.1c-0.3,0.1-1,0.2-1.8,0.2
			c-0.9,0-1.6-0.3-2.1-0.8c-0.5-0.5-0.8-1.4-0.8-2.6V5.9h-1.2v-2h1.2V2.2L301.2,1.5z"/>
		<path class="st1" d="M308.4,6.8c0-1.2,0-2.1-0.1-3h2.4l0.1,1.2h0c0.7-0.9,1.7-1.4,3-1.4c1.9,0,3.7,1.7,3.7,4.5
			c0,3.2-2.1,4.8-4,4.8c-1.1,0-1.9-0.4-2.3-1h0v4.4h-2.8V6.8z M311.2,8.9c0,0.2,0,0.4,0.1,0.6c0.2,0.7,0.8,1.3,1.6,1.3
			c1.2,0,1.9-1,1.9-2.5c0-1.4-0.6-2.5-1.9-2.5c-0.8,0-1.5,0.6-1.7,1.4c0,0.1-0.1,0.3-0.1,0.5V8.9z"/>
		<path class="st1" d="M321.5,9.2c0.1,1.1,1.2,1.7,2.5,1.7c0.9,0,1.7-0.1,2.5-0.4l0.4,1.9c-0.9,0.4-2,0.6-3.2,0.6
			c-3,0-4.8-1.7-4.8-4.5c0-2.3,1.4-4.8,4.5-4.8c2.9,0,4,2.2,4,4.4c0,0.5-0.1,0.9-0.1,1.1H321.5z M324.7,7.3c0-0.7-0.3-1.8-1.6-1.8
			c-1.2,0-1.6,1.1-1.7,1.8H324.7z"/>
		<path class="st1" d="M329,6.8c0-1.3,0-2.2-0.1-2.9h2.4l0.1,1.6h0.1c0.5-1.3,1.5-1.9,2.4-1.9c0.3,0,0.4,0,0.6,0.1v2.6
			c-0.2,0-0.4-0.1-0.7-0.1c-1,0-1.7,0.5-1.9,1.4c0,0.2-0.1,0.4-0.1,0.6v4.5H329V6.8z"/>
		<path class="st1" d="M342.4,12.5c-0.5,0.2-1.4,0.4-2.5,0.4c-2.9,0-4.7-1.8-4.7-4.6c0-2.6,1.8-4.7,5.1-4.7c0.7,0,1.5,0.1,2.1,0.3
			L342,6.1c-0.3-0.1-0.8-0.3-1.5-0.3c-1.5,0-2.4,1-2.4,2.5c0,1.6,1.1,2.5,2.4,2.5c0.7,0,1.2-0.1,1.6-0.3L342.4,12.5z"/>
		<path class="st1" d="M345.9,9.2c0.1,1.1,1.2,1.7,2.5,1.7c0.9,0,1.7-0.1,2.5-0.4l0.4,1.9c-0.9,0.4-2,0.6-3.2,0.6
			c-3,0-4.8-1.7-4.8-4.5c0-2.3,1.4-4.8,4.5-4.8c2.9,0,4,2.2,4,4.4c0,0.5-0.1,0.9-0.1,1.1H345.9z M349.1,7.3c0-0.7-0.3-1.8-1.6-1.8
			c-1.2,0-1.6,1.1-1.7,1.8H349.1z"/>
		<path class="st1" d="M353.4,6.7c0-1.1,0-2-0.1-2.8h2.4l0.1,1.2h0.1c0.4-0.6,1.3-1.4,2.7-1.4c1.8,0,3.2,1.2,3.2,3.8v5.3H359V7.8
			c0-1.1-0.4-1.9-1.4-1.9c-0.8,0-1.2,0.5-1.4,1c-0.1,0.2-0.1,0.4-0.1,0.7v5.1h-2.8V6.7z"/>
		<path class="st1" d="M367,1.5v2.4h2v2h-2v3.2c0,1.1,0.3,1.6,1.1,1.6c0.4,0,0.6,0,0.8-0.1l0,2.1c-0.3,0.1-1,0.2-1.8,0.2
			c-0.9,0-1.6-0.3-2.1-0.8c-0.5-0.5-0.8-1.4-0.8-2.6V5.9h-1.2v-2h1.2V2.2L367,1.5z"/>
		<path class="st1" d="M378,10.6c0,0.8,0,1.7,0.1,2.1h-2.5l-0.2-0.9h-0.1c-0.6,0.7-1.5,1.1-2.5,1.1c-1.8,0-2.9-1.3-2.9-2.7
			c0-2.3,2.1-3.4,5.2-3.4V6.7c0-0.5-0.3-1.2-1.6-1.2c-0.9,0-1.9,0.3-2.5,0.7l-0.5-1.8c0.6-0.3,1.8-0.8,3.5-0.8c3,0,3.9,1.7,3.9,3.9
			V10.6z M375.3,8.6c-1.5,0-2.6,0.3-2.6,1.4c0,0.7,0.5,1.1,1.1,1.1c0.7,0,1.3-0.5,1.4-1c0-0.1,0.1-0.3,0.1-0.5V8.6z"/>
		<path class="st1" d="M388.6,11.5c0,1.7-0.3,3.1-1.4,4c-1,0.8-2.3,1.1-3.6,1.1c-1.2,0-2.4-0.2-3.2-0.7l0.5-2.1
			c0.6,0.3,1.5,0.7,2.6,0.7c1.3,0,2.3-0.7,2.3-2.3v-0.6h0c-0.5,0.7-1.4,1.1-2.4,1.1c-2.2,0-3.8-1.8-3.8-4.3c0-2.9,1.8-4.7,4-4.7
			c1.2,0,2,0.5,2.4,1.3h0l0.1-1.1h2.4c0,0.6-0.1,1.3-0.1,2.7V11.5z M385.9,7.5c0-0.2,0-0.3-0.1-0.5c-0.2-0.7-0.7-1.2-1.5-1.2
			c-1,0-1.8,0.9-1.8,2.5c0,1.3,0.7,2.4,1.8,2.4c0.7,0,1.3-0.5,1.5-1.1c0.1-0.2,0.1-0.5,0.1-0.7V7.5z"/>
		<path class="st1" d="M393,9.2c0.1,1.1,1.2,1.7,2.5,1.7c0.9,0,1.7-0.1,2.5-0.4l0.4,1.9c-0.9,0.4-2,0.6-3.2,0.6
			c-3,0-4.8-1.7-4.8-4.5c0-2.3,1.4-4.8,4.5-4.8c2.9,0,4,2.2,4,4.4c0,0.5-0.1,0.9-0.1,1.1H393z M396.2,7.3c0-0.7-0.3-1.8-1.6-1.8
			c-1.2,0-1.6,1.1-1.7,1.8H396.2z"/>
		<path class="st1" d="M408.1,0.2c-1,1.7-1.8,4.1-1.8,7.4c0,3.2,0.8,5.6,1.8,7.3h-1.9c-1-1.4-2.1-3.8-2.1-7.3c0-3.5,1.1-6,2.1-7.4
			H408.1z"/>
		<path class="st1" d="M415.7,4.2c0,2.5-1.6,3.8-3.3,3.8c-1.8,0-3.2-1.3-3.2-3.6c0-2.1,1.3-3.7,3.3-3.7
			C414.6,0.7,415.7,2.2,415.7,4.2z M411.3,4.4c0,1.2,0.4,2.1,1.2,2.1c0.8,0,1.2-0.8,1.2-2.1c0-1.2-0.3-2.1-1.2-2.1
			C411.6,2.2,411.3,3.2,411.3,4.4z M412.6,13l6.8-12.2h1.5L414.1,13H412.6z M424.2,9.2c0,2.5-1.6,3.8-3.3,3.8
			c-1.8,0-3.2-1.3-3.2-3.6c0-2.1,1.3-3.7,3.3-3.7S424.2,7.1,424.2,9.2z M419.8,9.3c0,1.2,0.4,2.1,1.2,2.1c0.8,0,1.2-0.8,1.2-2.1
			c0-1.2-0.3-2.1-1.2-2.1C420.2,7.2,419.8,8.1,419.8,9.3z"/>
		<path class="st1" d="M425.4,14.9c1-1.7,1.8-4.2,1.8-7.4c0-3.2-0.8-5.6-1.8-7.3h1.9c1,1.4,2.1,3.8,2.1,7.4c0,3.5-1.1,5.9-2.1,7.4
			H425.4z"/>
	</g>
	<g id="XMLID_486_">
		<path id="XMLID_507_" class="st1" d="M304,381.9l-0.9,3.1h-2.9l3.8-12.3h3.6l3.8,12.3h-3l-0.9-3.1H304z M307.1,379.8l-0.8-2.6
			c-0.2-0.7-0.4-1.6-0.6-2.4h0c-0.2,0.7-0.4,1.7-0.6,2.4l-0.7,2.6H307.1z"/>
		<path id="XMLID_505_" class="st1" d="M315.6,379.9L315.6,379.9c0.2-0.4,0.5-0.7,0.7-1.1l1.8-2.7h3.3l-3.2,3.6l3.6,5.3h-3.4
			l-2.1-3.7l-0.7,0.9v2.8h-2.8v-12.9h2.8V379.9z"/>
		<path id="XMLID_502_" class="st1" d="M327.9,385l-0.2-0.9h-0.1c-0.6,0.7-1.5,1.1-2.5,1.1c-1.8,0-2.9-1.3-2.9-2.7
			c0-2.3,2.1-3.4,5.2-3.4V379c0-0.5-0.3-1.1-1.6-1.1c-0.9,0-1.9,0.3-2.5,0.7l-0.5-1.8c0.6-0.3,1.8-0.8,3.5-0.8c3,0,3.9,1.7,3.9,3.8
			v3.1c0,0.9,0,1.7,0.1,2.2H327.9z M327.5,380.8c-1.5,0-2.6,0.3-2.6,1.4c0,0.7,0.5,1.1,1.1,1.1c0.7,0,1.3-0.5,1.4-1
			c0-0.1,0.1-0.3,0.1-0.5V380.8z"/>
		<path id="XMLID_500_" class="st1" d="M335.4,373.6v2.5h2v2h-2v3.2c0,1.1,0.3,1.6,1.1,1.6c0.3,0,0.6,0,0.8-0.1l0,2.1
			c-0.4,0.1-1,0.2-1.8,0.2c-0.9,0-1.6-0.3-2.1-0.8c-0.5-0.5-0.8-1.4-0.8-2.6v-3.6h-1.2v-2h1.2v-1.9L335.4,373.6z"/>
		<path id="XMLID_498_" class="st1" d="M338.9,372.1h2.8v5.1h0c0.3-0.4,0.7-0.7,1.1-0.9c0.4-0.2,0.9-0.3,1.4-0.3
			c1.8,0,3.1,1.2,3.1,3.9v5.2h-2.8v-4.9c0-1.2-0.4-2-1.4-2c-0.7,0-1.2,0.5-1.4,1c-0.1,0.2-0.1,0.4-0.1,0.6v5.3h-2.8V372.1z"/>
		<path id="XMLID_495_" class="st1" d="M352.5,373.7c0,0.8-0.6,1.4-1.5,1.4c-0.9,0-1.5-0.6-1.4-1.4c0-0.8,0.6-1.4,1.5-1.4
			C351.9,372.3,352.4,372.9,352.5,373.7z M349.6,385v-8.9h2.8v8.9H349.6z"/>
		<path id="XMLID_493_" class="st1" d="M354.6,382.6c0.5,0.3,1.6,0.7,2.4,0.7c0.8,0,1.2-0.3,1.2-0.7s-0.3-0.7-1.3-1
			c-1.8-0.6-2.5-1.6-2.5-2.7c0-1.7,1.4-2.9,3.6-2.9c1,0,2,0.2,2.5,0.5l-0.5,1.9c-0.4-0.2-1.2-0.5-1.9-0.5c-0.7,0-1.1,0.3-1.1,0.7
			c0,0.4,0.3,0.6,1.4,1c1.7,0.6,2.4,1.4,2.4,2.7c0,1.7-1.3,2.9-3.9,2.9c-1.2,0-2.2-0.3-2.9-0.6L354.6,382.6z"/>
		<path id="XMLID_490_" class="st1" d="M365.3,373.7c0,0.8-0.6,1.4-1.5,1.4c-0.9,0-1.5-0.6-1.4-1.4c0-0.8,0.6-1.4,1.5-1.4
			C364.8,372.3,365.3,372.9,365.3,373.7z M362.5,385v-8.9h2.8v8.9H362.5z"/>
		<path id="XMLID_487_" class="st1" d="M372.5,385l-0.2-0.9h-0.1c-0.6,0.7-1.5,1.1-2.5,1.1c-1.8,0-2.9-1.3-2.9-2.7
			c0-2.3,2.1-3.4,5.2-3.4V379c0-0.5-0.3-1.1-1.6-1.1c-0.9,0-1.9,0.3-2.5,0.7l-0.5-1.8c0.6-0.3,1.8-0.8,3.5-0.8c3,0,3.9,1.7,3.9,3.8
			v3.1c0,0.9,0,1.7,0.1,2.2H372.5z M372.2,380.8c-1.5,0-2.6,0.3-2.6,1.4c0,0.7,0.5,1.1,1.1,1.1c0.7,0,1.3-0.5,1.4-1
			c0-0.1,0.1-0.3,0.1-0.5V380.8z"/>
	</g>
	<g id="XMLID_456_">
		<path id="XMLID_483_" class="st1" d="M487.1,372.8c0.9-0.1,2.1-0.3,3.8-0.3c1.7,0,2.9,0.3,3.8,1c0.8,0.6,1.3,1.6,1.3,2.8
			c0,1.2-0.4,2.2-1.1,2.9c-0.9,0.9-2.3,1.3-4,1.3c-0.4,0-0.7,0-0.9-0.1v4.4h-2.7V372.8z M489.8,378.4c0.2,0.1,0.5,0.1,0.9,0.1
			c1.5,0,2.4-0.7,2.4-2c0-1.1-0.8-1.8-2.2-1.8c-0.6,0-0.9,0.1-1.1,0.1V378.4z"/>
		<path id="XMLID_480_" class="st1" d="M502.3,384.9l-0.2-0.9h-0.1c-0.6,0.7-1.5,1.1-2.5,1.1c-1.8,0-2.9-1.3-2.9-2.7
			c0-2.3,2.1-3.4,5.2-3.4v-0.1c0-0.5-0.3-1.1-1.6-1.1c-0.9,0-1.9,0.3-2.5,0.7l-0.5-1.8c0.6-0.3,1.8-0.8,3.5-0.8c3,0,3.9,1.7,3.9,3.8
			v3.1c0,0.9,0,1.7,0.1,2.2H502.3z M501.9,380.7c-1.5,0-2.6,0.3-2.6,1.4c0,0.7,0.5,1.1,1.1,1.1c0.7,0,1.3-0.5,1.4-1
			c0-0.1,0.1-0.3,0.1-0.5V380.7z"/>
		<path id="XMLID_478_" class="st1" d="M506.8,378.9c0-1.3,0-2.2-0.1-2.9h2.4l0.1,1.6h0.1c0.5-1.3,1.5-1.8,2.4-1.8
			c0.3,0,0.4,0,0.6,0v2.6c-0.2,0-0.4-0.1-0.7-0.1c-1,0-1.7,0.5-1.9,1.4c0,0.2-0.1,0.4-0.1,0.6v4.5h-2.8V378.9z"/>
		<path id="XMLID_476_" class="st1" d="M516.4,379.8L516.4,379.8c0.2-0.4,0.5-0.7,0.7-1.1l1.8-2.7h3.3l-3.2,3.6l3.6,5.3h-3.4
			l-2.1-3.7l-0.7,0.9v2.8h-2.8V372h2.8V379.8z"/>
		<path id="XMLID_473_" class="st1" d="M526.6,373.5c0,0.8-0.6,1.4-1.5,1.4c-0.9,0-1.5-0.6-1.4-1.4c0-0.8,0.6-1.4,1.5-1.4
			C526,372.1,526.6,372.7,526.6,373.5z M523.7,384.9V376h2.8v8.9H523.7z"/>
		<path id="XMLID_471_" class="st1" d="M528.7,378.9c0-1.1,0-2.1-0.1-2.8h2.4l0.1,1.2h0.1c0.4-0.6,1.3-1.4,2.7-1.4
			c1.8,0,3.2,1.2,3.2,3.8v5.3h-2.8V380c0-1.1-0.4-1.9-1.4-1.9c-0.8,0-1.2,0.5-1.4,1c-0.1,0.2-0.1,0.4-0.1,0.7v5.1h-2.8V378.9z"/>
		<path id="XMLID_469_" class="st1" d="M539.4,382.5c0.5,0.3,1.6,0.7,2.4,0.7c0.8,0,1.2-0.3,1.2-0.7s-0.3-0.7-1.3-1
			c-1.8-0.6-2.5-1.6-2.5-2.7c0-1.7,1.4-2.9,3.6-2.9c1,0,2,0.2,2.5,0.5l-0.5,1.9c-0.4-0.2-1.2-0.5-1.9-0.5c-0.7,0-1.1,0.3-1.1,0.7
			c0,0.4,0.3,0.6,1.4,1c1.7,0.6,2.4,1.4,2.4,2.7c0,1.7-1.3,2.9-3.9,2.9c-1.2,0-2.2-0.3-2.9-0.6L539.4,382.5z"/>
		<path id="XMLID_466_" class="st1" d="M556.1,380.4c0,3.3-2.3,4.8-4.7,4.8c-2.6,0-4.6-1.7-4.6-4.6c0-2.9,1.9-4.7,4.8-4.7
			C554.2,375.8,556.1,377.7,556.1,380.4z M549.6,380.5c0,1.5,0.6,2.7,1.8,2.7c1.1,0,1.8-1.1,1.8-2.7c0-1.3-0.5-2.7-1.8-2.7
			C550.1,377.8,549.6,379.1,549.6,380.5z"/>
		<path id="XMLID_464_" class="st1" d="M557.8,378.9c0-1.1,0-2.1-0.1-2.8h2.4l0.1,1.2h0.1c0.4-0.6,1.3-1.4,2.7-1.4
			c1.8,0,3.2,1.2,3.2,3.8v5.3h-2.8V380c0-1.1-0.4-1.9-1.4-1.9c-0.8,0-1.2,0.5-1.4,1c-0.1,0.2-0.1,0.4-0.1,0.7v5.1h-2.8V378.9z"/>
		<path id="XMLID_461_" class="st1" d="M571.3,373.5c0,0.8-0.6,1.4-1.5,1.4c-0.9,0-1.5-0.6-1.4-1.4c0-0.8,0.6-1.4,1.5-1.4
			C570.7,372.1,571.3,372.7,571.3,373.5z M568.4,384.9V376h2.8v8.9H568.4z"/>
		<path id="XMLID_459_" class="st1" d="M573.4,382.5c0.5,0.3,1.6,0.7,2.4,0.7c0.8,0,1.2-0.3,1.2-0.7s-0.3-0.7-1.3-1
			c-1.8-0.6-2.5-1.6-2.5-2.7c0-1.7,1.4-2.9,3.6-2.9c1,0,2,0.2,2.5,0.5l-0.5,1.9c-0.4-0.2-1.2-0.5-1.9-0.5c-0.7,0-1.1,0.3-1.1,0.7
			c0,0.4,0.3,0.6,1.4,1c1.7,0.6,2.4,1.4,2.4,2.7c0,1.7-1.3,2.9-3.9,2.9c-1.2,0-2.2-0.3-2.9-0.6L573.4,382.5z"/>
		<path id="XMLID_457_" class="st1" d="M581.3,378.9c0-1.1,0-2.1-0.1-2.8h2.3l0.1,1.2h0.1c0.4-0.6,1.2-1.4,2.7-1.4
			c1.1,0,2.1,0.6,2.4,1.5h0c0.3-0.5,0.7-0.8,1.1-1.1c0.5-0.3,1-0.4,1.7-0.4c1.7,0,3,1.2,3,3.9v5.2h-2.7v-4.8c0-1.3-0.4-2-1.3-2
			c-0.6,0-1.1,0.4-1.3,1c-0.1,0.2-0.1,0.5-0.1,0.7v5.2h-2.7v-5c0-1.1-0.4-1.9-1.3-1.9c-0.7,0-1.1,0.5-1.3,1
			c-0.1,0.2-0.1,0.5-0.1,0.7v5.2h-2.7V378.9z"/>
	</g>
	<g id="XMLID_429_">
		<path id="XMLID_453_" class="st1" d="M131.7,335.4c3.8,0,5.5,2.7,5.5,5.4c0,3-2,5.3-5.3,5.3c-3.3,0-5.5-2.2-5.5-5.5
			C126.4,337.6,128.6,335.4,131.7,335.4z M131.8,342.9c1.8,0,3.1-0.7,3.1-2.1c0-1.2-1.2-2-3.1-2c-1.5,0-3.1,0.6-3.1,2
			C128.7,342.4,130.3,342.9,131.8,342.9z"/>
		<path id="XMLID_451_" class="st1" d="M122,333.5v-3.2h15v3.2H122z"/>
		<path id="XMLID_448_" class="st1" d="M137,321.8l-1,0.2v0.1c0.8,0.7,1.3,1.7,1.3,3c0,2.1-1.5,3.3-3.2,3.3c-2.7,0-4-2.4-3.9-6.1
			h-0.1c-0.5,0-1.3,0.3-1.3,1.9c0,1.1,0.4,2.2,0.8,2.9l-2.1,0.6c-0.4-0.7-0.9-2.1-0.9-4c0-3.4,2-4.5,4.5-4.5h3.6c1,0,1.9,0,2.5-0.1
			V321.8z M132.1,322.2c0,1.7,0.4,3,1.6,3c0.8,0,1.2-0.5,1.2-1.3c0-0.8-0.5-1.5-1.2-1.7c-0.2,0-0.4-0.1-0.5-0.1H132.1z"/>
		<path id="XMLID_446_" class="st1" d="M129.9,316.5c-1.3,0-2.4,0-3.3,0.1v-2.8l1.4-0.1v-0.1c-0.7-0.4-1.6-1.5-1.6-3.2
			c0-2.1,1.4-3.7,4.4-3.7h6.1v3.2h-5.7c-1.3,0-2.2,0.5-2.2,1.6c0,0.9,0.6,1.4,1.2,1.6c0.2,0.1,0.5,0.1,0.8,0.1h6v3.2H129.9z"/>
		<path id="XMLID_444_" class="st1" d="M135.1,305l-4.1-3.3c-0.7-0.6-1.2-1.1-1.8-1.6h0v4.5h-2.5v-8.4h1.9l3.9,3.1
			c0.7,0.6,1.3,1.1,1.9,1.7h0v-5h2.6v9H135.1z"/>
		<path id="XMLID_441_" class="st1" d="M137,288.4l-1,0.2v0.1c0.8,0.7,1.3,1.7,1.3,3c0,2.1-1.5,3.3-3.2,3.3c-2.7,0-4-2.4-3.9-6.1
			h-0.1c-0.5,0-1.3,0.3-1.3,1.9c0,1.1,0.4,2.2,0.8,2.9l-2.1,0.6c-0.4-0.7-0.9-2.1-0.9-4c0-3.4,2-4.5,4.5-4.5h3.6c1,0,1.9,0,2.5-0.1
			V288.4z M132.1,288.7c0,1.7,0.4,3,1.6,3c0.8,0,1.2-0.5,1.2-1.3c0-0.8-0.5-1.5-1.2-1.7c-0.2,0-0.4-0.1-0.5-0.1H132.1z"/>
		<path id="XMLID_438_" class="st1" d="M130.1,283.1c-1.4,0-2.5,0-3.5,0.1v-2.8l1.4-0.1v0c-1.1-0.8-1.7-1.9-1.7-3.4
			c0-2.3,2-4.3,5.3-4.3c3.8,0,5.5,2.4,5.5,4.7c0,1.2-0.5,2.2-1.2,2.7v0h5.1v3.2H130.1z M132.5,279.9c0.3,0,0.5,0,0.7-0.1
			c0.9-0.2,1.5-1,1.5-1.9c0-1.4-1.2-2.2-2.9-2.2c-1.6,0-2.9,0.7-2.9,2.2c0,0.9,0.7,1.7,1.6,1.9c0.2,0,0.4,0.1,0.6,0.1H132.5z"/>
		<path id="XMLID_435_" class="st1" d="M123.8,267.1c0.9,0,1.6,0.7,1.6,1.7c0,1-0.7,1.7-1.6,1.7c-0.9,0-1.6-0.7-1.6-1.7
			C122.1,267.8,122.8,267.2,123.8,267.1z M137,270.4h-10.3v-3.2H137V270.4z"/>
		<path id="XMLID_433_" class="st1" d="M129.9,264.7c-1.3,0-2.4,0-3.3,0.1V262l1.4-0.1v-0.1c-0.7-0.4-1.6-1.5-1.6-3.2
			c0-2.1,1.4-3.7,4.4-3.7h6.1v3.2h-5.7c-1.3,0-2.2,0.5-2.2,1.6c0,0.9,0.6,1.4,1.2,1.6c0.2,0.1,0.5,0.1,0.8,0.1h6v3.2H129.9z"/>
		<path id="XMLID_430_" class="st1" d="M132.8,249.8c1.3-0.1,2-1.4,2-2.9c0-1.1-0.1-2-0.4-2.9l2.2-0.4c0.4,1.1,0.6,2.3,0.6,3.7
			c0,3.5-2,5.5-5.3,5.5c-2.6,0-5.5-1.6-5.5-5.2c0-3.3,2.6-4.6,5.2-4.6c0.5,0,1,0.1,1.3,0.1V249.8z M130.6,246
			c-0.8,0-2.1,0.3-2.1,1.8c0,1.4,1.2,1.9,2.1,2V246z"/>
	</g>
	<g id="XMLID_398_">
		<path id="XMLID_426_" class="st1" d="M164.3,354.7c-0.2-1-0.3-2.6-0.3-4.3c0-2.1,0.3-3.6,1.1-4.6c0.7-0.8,1.7-1.3,3-1.3
			c1.8,0,3.1,1.3,3.5,2.5h0.1c0.4-1,1.4-1.5,2.7-1.9c1.6-0.4,3.5-0.9,4-1.2v3.3c-0.4,0.2-1.6,0.6-3.3,1c-1.8,0.4-2.3,1-2.3,2.3v1
			h5.6v3.2H164.3z M170.4,351.5v-1.3c0-1.6-0.8-2.6-2-2.6c-1.3,0-2,0.9-2,2.4c0,0.8,0.1,1.2,0.1,1.5H170.4z"/>
		<path id="XMLID_423_" class="st1" d="M165.2,338.7c0.9,0,1.6,0.7,1.6,1.7c0,1-0.7,1.7-1.6,1.7c-0.9,0-1.6-0.7-1.6-1.7
			C163.5,339.4,164.2,338.7,165.2,338.7z M178.4,342H168v-3.2h10.3V342z"/>
		<path id="XMLID_421_" class="st1" d="M175.5,336.3c0.4-0.6,0.8-1.8,0.8-2.8c0-1-0.3-1.4-0.9-1.4s-0.8,0.3-1.2,1.5
			c-0.7,2.1-1.9,3-3.1,2.9c-1.9,0-3.4-1.6-3.4-4.2c0-1.2,0.3-2.3,0.6-2.9l2.2,0.6c-0.3,0.5-0.6,1.4-0.6,2.2c0,0.8,0.3,1.2,0.8,1.2
			c0.5,0,0.7-0.4,1.2-1.7c0.7-2,1.7-2.8,3.2-2.8c1.9,0,3.3,1.5,3.3,4.5c0,1.4-0.3,2.6-0.7,3.3L175.5,336.3z"/>
		<path id="XMLID_418_" class="st1" d="M171.5,327.1c-1.4,0-2.5,0-3.5,0.1v-2.8l1.4-0.1v0c-1.1-0.8-1.7-1.9-1.7-3.4
			c0-2.3,2-4.3,5.3-4.3c3.8,0,5.5,2.4,5.5,4.7c0,1.2-0.5,2.2-1.2,2.7v0h5.1v3.2H171.5z M173.9,323.9c0.3,0,0.5,0,0.7-0.1
			c0.9-0.2,1.5-1,1.5-1.9c0-1.4-1.2-2.2-2.9-2.2c-1.6,0-2.9,0.7-2.9,2.2c0,0.9,0.7,1.7,1.6,1.9c0.2,0,0.4,0.1,0.6,0.1H173.9z"/>
		<path id="XMLID_415_" class="st1" d="M174.2,311.9c1.3-0.1,2-1.4,2-2.9c0-1.1-0.1-2-0.4-2.9l2.2-0.4c0.4,1.1,0.6,2.3,0.6,3.7
			c0,3.5-2,5.5-5.3,5.5c-2.6,0-5.5-1.6-5.5-5.2c0-3.3,2.6-4.6,5.2-4.6c0.5,0,1,0.1,1.3,0.1V311.9z M172,308.1
			c-0.8,0-2.1,0.3-2.1,1.8c0,1.4,1.2,1.9,2.1,2V308.1z"/>
		<path id="XMLID_413_" class="st1" d="M171.4,303.2c-1.5,0-2.5,0-3.4,0.1v-2.8l1.9-0.1v-0.1c-1.5-0.5-2.1-1.8-2.1-2.8
			c0-0.3,0-0.4,0-0.7h3c0,0.2-0.1,0.5-0.1,0.9c0,1.2,0.6,2,1.6,2.2c0.2,0,0.5,0.1,0.7,0.1h5.2v3.2H171.4z"/>
		<path id="XMLID_410_" class="st1" d="M165.2,291.9c0.9,0,1.6,0.7,1.6,1.7c0,1-0.7,1.7-1.6,1.7c-0.9,0-1.6-0.7-1.6-1.7
			C163.5,292.6,164.2,291.9,165.2,291.9z M178.4,295.2H168V292h10.3V295.2z"/>
		<path id="XMLID_407_" class="st1" d="M163.4,279.4h11.9c1.2,0,2.4,0,3.1-0.1v2.9l-1.5,0.1v0c1.2,0.7,1.8,1.9,1.8,3.2
			c0,2.4-2.1,4.4-5.3,4.4c-3.5,0-5.5-2.2-5.5-4.6c0-1.3,0.4-2.3,1.2-2.7v0h-5.6V279.4z M172.4,282.6c-0.2,0-0.4,0-0.6,0
			c-0.9,0.2-1.6,0.9-1.6,1.9c0,1.5,1.3,2.2,2.9,2.2c1.8,0,2.9-0.9,2.9-2.2c0-0.9-0.6-1.7-1.5-1.9c-0.2-0.1-0.5-0.1-0.7-0.1H172.4z"
			/>
		<path id="XMLID_404_" class="st1" d="M173.1,266.6c3.8,0,5.5,2.7,5.5,5.4c0,3-2,5.3-5.3,5.3c-3.3,0-5.5-2.2-5.5-5.5
			C167.8,268.8,170,266.6,173.1,266.6z M173.2,274.1c1.8,0,3.1-0.7,3.1-2.1c0-1.2-1.2-2-3.1-2c-1.5,0-3.1,0.6-3.1,2
			C170.1,273.5,171.7,274.1,173.2,274.1z"/>
		<path id="XMLID_402_" class="st1" d="M171.3,264.7c-1.3,0-2.4,0-3.3,0.1V262l1.4-0.1v-0.1c-0.7-0.4-1.6-1.5-1.6-3.2
			c0-2.1,1.4-3.7,4.4-3.7h6.1v3.2h-5.7c-1.3,0-2.2,0.5-2.2,1.6c0,0.9,0.6,1.4,1.2,1.6c0.2,0.1,0.5,0.1,0.8,0.1h6v3.2H171.3z"/>
		<path id="XMLID_399_" class="st1" d="M174.2,249.8c1.3-0.1,2-1.4,2-2.9c0-1.1-0.1-2-0.4-2.9l2.2-0.4c0.4,1.1,0.6,2.3,0.6,3.7
			c0,3.5-2,5.5-5.3,5.5c-2.6,0-5.5-1.6-5.5-5.2c0-3.3,2.6-4.6,5.2-4.6c0.5,0,1,0.1,1.3,0.1V249.8z M172,246c-0.8,0-2.1,0.3-2.1,1.8
			c0,1.4,1.2,1.9,2.1,2V246z"/>
	</g>
	<g id="XMLID_368_">
		<path id="XMLID_396_" class="st1" d="M206.9,349.7h5.5v-5.3h-5.5v-3.2h14.2v3.2h-6v5.3h6v3.2h-14.2V349.7z"/>
		<path id="XMLID_393_" class="st1" d="M221.1,332.6l-1,0.2v0.1c0.8,0.7,1.3,1.7,1.3,3c0,2.1-1.5,3.3-3.2,3.3c-2.7,0-4-2.4-3.9-6.1
			h-0.1c-0.5,0-1.3,0.3-1.3,1.9c0,1.1,0.4,2.2,0.8,2.9l-2.1,0.6c-0.4-0.7-0.9-2.1-0.9-4c0-3.4,2-4.5,4.5-4.5h3.6c1,0,1.9,0,2.5-0.1
			V332.6z M216.2,333c0,1.7,0.4,3,1.6,3c0.8,0,1.2-0.5,1.2-1.3c0-0.8-0.5-1.5-1.2-1.7c-0.2,0-0.4-0.1-0.5-0.1H216.2z"/>
		<path id="XMLID_391_" class="st1" d="M206.1,327.4v-3.2h15v3.2H206.1z"/>
		<path id="XMLID_388_" class="st1" d="M215.8,311.3c3.8,0,5.5,2.7,5.5,5.4c0,3-2,5.3-5.3,5.3c-3.3,0-5.5-2.2-5.5-5.5
			C210.6,313.5,212.7,311.3,215.8,311.3z M215.9,318.8c1.8,0,3.1-0.7,3.1-2.1c0-1.2-1.2-2-3.1-2c-1.5,0-3.1,0.6-3.1,2
			C212.8,318.3,214.4,318.8,215.9,318.8z"/>
		<path id="XMLID_385_" class="st1" d="M214.3,309.4c-1.4,0-2.5,0-3.5,0.1v-2.8l1.4-0.1v0c-1.1-0.8-1.7-1.9-1.7-3.4
			c0-2.3,2-4.3,5.3-4.3c3.8,0,5.5,2.4,5.5,4.7c0,1.2-0.5,2.2-1.2,2.7v0h5.1v3.2H214.3z M216.7,306.2c0.3,0,0.5,0,0.7-0.1
			c0.9-0.2,1.5-1,1.5-1.9c0-1.4-1.2-2.2-2.9-2.2c-1.6,0-2.9,0.7-2.9,2.2c0,0.9,0.7,1.7,1.6,1.9c0.2,0,0.4,0.1,0.6,0.1H216.7z"/>
		<path id="XMLID_382_" class="st1" d="M217,294.2c1.3-0.1,2-1.4,2-2.9c0-1.1-0.1-2-0.4-2.9l2.2-0.4c0.4,1.1,0.6,2.3,0.6,3.7
			c0,3.5-2,5.5-5.3,5.5c-2.6,0-5.5-1.6-5.5-5.2c0-3.3,2.6-4.6,5.2-4.6c0.5,0,1,0.1,1.3,0.1V294.2z M214.8,290.4
			c-0.8,0-2.1,0.3-2.1,1.8c0,1.4,1.2,1.9,2.1,2V290.4z"/>
		<path id="XMLID_380_" class="st1" d="M214.2,285.5c-1.5,0-2.5,0-3.4,0.1v-2.8l1.9-0.1v-0.1c-1.5-0.5-2.1-1.8-2.1-2.8
			c0-0.3,0-0.4,0-0.7h3c0,0.2-0.1,0.5-0.1,0.9c0,1.2,0.6,2,1.6,2.2c0.2,0,0.5,0.1,0.7,0.1h5.2v3.2H214.2z"/>
		<path id="XMLID_377_" class="st1" d="M207.9,274.2c0.9,0,1.6,0.7,1.6,1.7c0,1-0.7,1.7-1.6,1.7c-0.9,0-1.6-0.7-1.6-1.7
			C206.3,274.9,207,274.2,207.9,274.2z M221.1,277.5h-10.3v-3.2h10.3V277.5z"/>
		<path id="XMLID_374_" class="st1" d="M206.1,261.7H218c1.2,0,2.4,0,3.1-0.1v2.9l-1.5,0.1v0c1.2,0.7,1.8,1.9,1.8,3.2
			c0,2.4-2.1,4.4-5.3,4.4c-3.5,0-5.5-2.2-5.5-4.6c0-1.3,0.4-2.3,1.2-2.7v0h-5.6V261.7z M215.2,264.9c-0.2,0-0.4,0-0.6,0
			c-0.9,0.2-1.6,0.9-1.6,1.9c0,1.5,1.3,2.2,2.9,2.2c1.8,0,2.9-0.9,2.9-2.2c0-0.9-0.6-1.7-1.5-1.9c-0.2-0.1-0.5-0.1-0.7-0.1H215.2z"
			/>
		<path id="XMLID_371_" class="st1" d="M215.8,248.9c3.8,0,5.5,2.7,5.5,5.4c0,3-2,5.3-5.3,5.3c-3.3,0-5.5-2.2-5.5-5.5
			C210.6,251,212.7,248.9,215.8,248.9z M215.9,256.4c1.8,0,3.1-0.7,3.1-2.1c0-1.2-1.2-2-3.1-2c-1.5,0-3.1,0.6-3.1,2
			C212.8,255.8,214.4,256.4,215.9,256.4z"/>
		<path id="XMLID_369_" class="st1" d="M206.1,246.9v-3.2h15v3.2H206.1z"/>
	</g>
	<g id="XMLID_348_">
		<path id="XMLID_365_" class="st1" d="M256,316c-1.4,0-2.5,0-3.5,0.1v-2.8l1.4-0.1v0c-1.1-0.8-1.7-1.9-1.7-3.4c0-2.3,2-4.3,5.3-4.3
			c3.8,0,5.5,2.4,5.5,4.7c0,1.2-0.5,2.2-1.2,2.7v0h5.1v3.2H256z M258.4,312.8c0.3,0,0.5,0,0.7-0.1c0.9-0.2,1.5-1,1.5-1.9
			c0-1.4-1.2-2.2-2.9-2.2c-1.6,0-2.9,0.7-2.9,2.2c0,0.9,0.7,1.7,1.6,1.9c0.2,0,0.4,0.1,0.6,0.1H258.4z"/>
		<path id="XMLID_363_" class="st1" d="M247.8,303.4v-3.2h15v3.2H247.8z"/>
		<path id="XMLID_360_" class="st1" d="M262.8,291.7l-1,0.2v0.1c0.8,0.7,1.3,1.7,1.3,3c0,2.1-1.5,3.3-3.2,3.3c-2.7,0-4-2.4-3.9-6.1
			h-0.1c-0.5,0-1.3,0.3-1.3,1.9c0,1.1,0.4,2.2,0.8,2.9l-2.1,0.6c-0.4-0.7-0.9-2.1-0.9-4c0-3.4,2-4.5,4.5-4.5h3.6c1,0,1.9,0,2.5-0.1
			V291.7z M257.9,292.1c0,1.7,0.4,3,1.6,3c0.8,0,1.2-0.5,1.2-1.3c0-0.8-0.5-1.5-1.2-1.7c-0.2,0-0.4-0.1-0.5-0.1H257.9z"/>
		<path id="XMLID_358_" class="st1" d="M262.6,278.7c0.3,0.6,0.5,1.6,0.5,2.9c0,3.3-2,5.5-5.3,5.5c-3,0-5.5-2.1-5.5-5.9
			c0-0.8,0.1-1.8,0.4-2.4l2.4,0.5c-0.2,0.4-0.3,1-0.3,1.8c0,1.7,1.2,2.8,2.9,2.8c1.9,0,2.9-1.3,2.9-2.8c0-0.8-0.1-1.4-0.3-1.8
			L262.6,278.7z"/>
		<path id="XMLID_355_" class="st1" d="M258.7,274.7c1.3-0.1,2-1.4,2-2.9c0-1.1-0.1-2-0.4-2.9l2.2-0.4c0.4,1.1,0.6,2.3,0.6,3.7
			c0,3.5-2,5.5-5.3,5.5c-2.6,0-5.5-1.6-5.5-5.2c0-3.3,2.6-4.6,5.2-4.6c0.5,0,1,0.1,1.3,0.1V274.7z M256.5,270.9
			c-0.8,0-2.1,0.3-2.1,1.8c0,1.4,1.2,1.9,2.1,2V270.9z"/>
		<path id="XMLID_352_" class="st1" d="M262.8,266.1c-0.7,0-1.9-0.1-3.1-0.1h-11.9v-3.2h5.9v0c-0.9-0.6-1.5-1.7-1.5-3.1
			c0-2.5,2-4.3,5.2-4.3c3.7,0,5.6,2.4,5.6,4.7c0,1.2-0.4,2.4-1.7,3.1v0l1.4,0.1V266.1z M258.4,262.8c0.2,0,0.4,0,0.6-0.1
			c0.9-0.2,1.5-1,1.5-1.9c0-1.4-1.1-2.2-2.9-2.2c-1.6,0-2.9,0.7-2.9,2.2c0,0.9,0.7,1.7,1.6,1.9c0.2,0,0.4,0.1,0.6,0.1H258.4z"/>
		<path id="XMLID_349_" class="st1" d="M257.5,243.1c3.8,0,5.5,2.7,5.5,5.4c0,3-2,5.3-5.3,5.3c-3.3,0-5.5-2.2-5.5-5.5
			C252.3,245.2,254.4,243.1,257.5,243.1z M257.7,250.6c1.8,0,3.1-0.7,3.1-2.1c0-1.2-1.2-2-3.1-2c-1.5,0-3.1,0.6-3.1,2
			C254.5,250,256.1,250.6,257.7,250.6z"/>
	</g>
	<g id="XMLID_321_">
		<path id="XMLID_345_" class="st1" d="M342.9,335.4c3.8,0,5.5,2.7,5.5,5.4c0,3-2,5.3-5.3,5.3c-3.3,0-5.5-2.2-5.5-5.5
			C337.6,337.6,339.8,335.4,342.9,335.4z M343,342.9c1.8,0,3.1-0.7,3.1-2.1c0-1.2-1.2-2-3.1-2c-1.5,0-3.1,0.6-3.1,2
			C339.9,342.4,341.5,342.9,343,342.9z"/>
		<path id="XMLID_343_" class="st1" d="M333.2,333.5v-3.2h15v3.2H333.2z"/>
		<path id="XMLID_340_" class="st1" d="M348.1,321.8l-1,0.2v0.1c0.8,0.7,1.3,1.7,1.3,3c0,2.1-1.5,3.3-3.2,3.3c-2.7,0-4-2.4-3.9-6.1
			h-0.1c-0.5,0-1.3,0.3-1.3,1.9c0,1.1,0.4,2.2,0.8,2.9l-2.1,0.6c-0.4-0.7-0.9-2.1-0.9-4c0-3.4,2-4.5,4.5-4.5h3.6c1,0,1.9,0,2.5-0.1
			V321.8z M343.3,322.2c0,1.7,0.4,3,1.6,3c0.8,0,1.2-0.5,1.2-1.3c0-0.8-0.5-1.5-1.2-1.7c-0.2,0-0.4-0.1-0.5-0.1H343.3z"/>
		<path id="XMLID_338_" class="st1" d="M341.1,316.5c-1.3,0-2.4,0-3.3,0.1v-2.8l1.4-0.1v-0.1c-0.7-0.4-1.6-1.5-1.6-3.2
			c0-2.1,1.4-3.7,4.4-3.7h6.1v3.2h-5.7c-1.3,0-2.2,0.5-2.2,1.6c0,0.9,0.6,1.4,1.2,1.6c0.2,0.1,0.5,0.1,0.8,0.1h6v3.2H341.1z"/>
		<path id="XMLID_336_" class="st1" d="M346.3,305l-4.1-3.3c-0.7-0.6-1.2-1.1-1.8-1.6h0v4.5h-2.5v-8.4h1.9l3.9,3.1
			c0.7,0.6,1.3,1.1,1.9,1.7h0v-5h2.6v9H346.3z"/>
		<path id="XMLID_333_" class="st1" d="M348.1,288.4l-1,0.2v0.1c0.8,0.7,1.3,1.7,1.3,3c0,2.1-1.5,3.3-3.2,3.3c-2.7,0-4-2.4-3.9-6.1
			h-0.1c-0.5,0-1.3,0.3-1.3,1.9c0,1.1,0.4,2.2,0.8,2.9l-2.1,0.6c-0.4-0.7-0.9-2.1-0.9-4c0-3.4,2-4.5,4.5-4.5h3.6c1,0,1.9,0,2.5-0.1
			V288.4z M343.3,288.7c0,1.7,0.4,3,1.6,3c0.8,0,1.2-0.5,1.2-1.3c0-0.8-0.5-1.5-1.2-1.7c-0.2,0-0.4-0.1-0.5-0.1H343.3z"/>
		<path id="XMLID_330_" class="st1" d="M341.3,283.1c-1.4,0-2.5,0-3.5,0.1v-2.8l1.4-0.1v0c-1.1-0.8-1.7-1.9-1.7-3.4
			c0-2.3,2-4.3,5.3-4.3c3.8,0,5.5,2.4,5.5,4.7c0,1.2-0.5,2.2-1.2,2.7v0h5.1v3.2H341.3z M343.7,279.9c0.3,0,0.5,0,0.7-0.1
			c0.9-0.2,1.5-1,1.5-1.9c0-1.4-1.2-2.2-2.9-2.2c-1.6,0-2.9,0.7-2.9,2.2c0,0.9,0.7,1.7,1.6,1.9c0.2,0,0.4,0.1,0.6,0.1H343.7z"/>
		<path id="XMLID_327_" class="st1" d="M334.9,267.1c0.9,0,1.6,0.7,1.6,1.7c0,1-0.7,1.7-1.6,1.7c-0.9,0-1.6-0.7-1.6-1.7
			C333.3,267.8,334,267.2,334.9,267.1z M348.1,270.4h-10.3v-3.2h10.3V270.4z"/>
		<path id="XMLID_325_" class="st1" d="M341.1,264.7c-1.3,0-2.4,0-3.3,0.1V262l1.4-0.1v-0.1c-0.7-0.4-1.6-1.5-1.6-3.2
			c0-2.1,1.4-3.7,4.4-3.7h6.1v3.2h-5.7c-1.3,0-2.2,0.5-2.2,1.6c0,0.9,0.6,1.4,1.2,1.6c0.2,0.1,0.5,0.1,0.8,0.1h6v3.2H341.1z"/>
		<path id="XMLID_322_" class="st1" d="M344,249.8c1.3-0.1,2-1.4,2-2.9c0-1.1-0.1-2-0.4-2.9l2.2-0.4c0.4,1.1,0.6,2.3,0.6,3.7
			c0,3.5-2,5.5-5.3,5.5c-2.6,0-5.5-1.6-5.5-5.2c0-3.3,2.6-4.6,5.2-4.6c0.5,0,1,0.1,1.3,0.1V249.8z M341.8,246
			c-0.8,0-2.1,0.3-2.1,1.8c0,1.4,1.2,1.9,2.1,2V246z"/>
	</g>
	<g id="XMLID_290_">
		<path id="XMLID_318_" class="st1" d="M375.5,354.7c-0.2-1-0.3-2.6-0.3-4.3c0-2.1,0.3-3.6,1.1-4.6c0.7-0.8,1.7-1.3,3-1.3
			c1.8,0,3.1,1.3,3.5,2.5h0.1c0.4-1,1.4-1.5,2.7-1.9c1.6-0.4,3.5-0.9,4-1.2v3.3c-0.4,0.2-1.6,0.6-3.3,1c-1.8,0.4-2.3,1-2.3,2.3v1
			h5.6v3.2H375.5z M381.6,351.5v-1.3c0-1.6-0.8-2.6-2-2.6c-1.3,0-2,0.9-2,2.4c0,0.8,0.1,1.2,0.1,1.5H381.6z"/>
		<path id="XMLID_315_" class="st1" d="M376.3,338.7c0.9,0,1.6,0.7,1.6,1.7c0,1-0.7,1.7-1.6,1.7c-0.9,0-1.6-0.7-1.6-1.7
			C374.7,339.4,375.4,338.7,376.3,338.7z M389.5,342h-10.3v-3.2h10.3V342z"/>
		<path id="XMLID_313_" class="st1" d="M386.7,336.3c0.4-0.6,0.8-1.8,0.8-2.8c0-1-0.3-1.4-0.9-1.4c-0.5,0-0.8,0.3-1.2,1.5
			c-0.7,2.1-1.9,3-3.1,2.9c-1.9,0-3.4-1.6-3.4-4.2c0-1.2,0.3-2.3,0.6-2.9l2.2,0.6c-0.3,0.5-0.6,1.4-0.6,2.2c0,0.8,0.3,1.2,0.8,1.2
			c0.5,0,0.7-0.4,1.2-1.7c0.7-2,1.7-2.8,3.2-2.8c1.9,0,3.3,1.5,3.3,4.5c0,1.4-0.3,2.6-0.7,3.3L386.7,336.3z"/>
		<path id="XMLID_310_" class="st1" d="M382.7,327.1c-1.4,0-2.5,0-3.5,0.1v-2.8l1.4-0.1v0c-1.1-0.8-1.7-1.9-1.7-3.4
			c0-2.3,2-4.3,5.3-4.3c3.8,0,5.5,2.4,5.5,4.7c0,1.2-0.5,2.2-1.2,2.7v0h5.1v3.2H382.7z M385.1,323.9c0.3,0,0.5,0,0.7-0.1
			c0.9-0.2,1.5-1,1.5-1.9c0-1.4-1.2-2.2-2.9-2.2c-1.6,0-2.9,0.7-2.9,2.2c0,0.9,0.7,1.7,1.6,1.9c0.2,0,0.4,0.1,0.6,0.1H385.1z"/>
		<path id="XMLID_307_" class="st1" d="M385.4,311.9c1.3-0.1,2-1.4,2-2.9c0-1.1-0.1-2-0.4-2.9l2.2-0.4c0.4,1.1,0.6,2.3,0.6,3.7
			c0,3.5-2,5.5-5.3,5.5c-2.6,0-5.5-1.6-5.5-5.2c0-3.3,2.6-4.6,5.2-4.6c0.5,0,1,0.1,1.3,0.1V311.9z M383.2,308.1
			c-0.8,0-2.1,0.3-2.1,1.8c0,1.4,1.2,1.9,2.1,2V308.1z"/>
		<path id="XMLID_305_" class="st1" d="M382.6,303.2c-1.5,0-2.5,0-3.4,0.1v-2.8l1.9-0.1v-0.1c-1.5-0.5-2.1-1.8-2.1-2.8
			c0-0.3,0-0.4,0-0.7h3c0,0.2-0.1,0.5-0.1,0.9c0,1.2,0.6,2,1.6,2.2c0.2,0,0.5,0.1,0.7,0.1h5.2v3.2H382.6z"/>
		<path id="XMLID_302_" class="st1" d="M376.3,291.9c0.9,0,1.6,0.7,1.6,1.7c0,1-0.7,1.7-1.6,1.7c-0.9,0-1.6-0.7-1.6-1.7
			C374.7,292.6,375.4,291.9,376.3,291.9z M389.5,295.2h-10.3V292h10.3V295.2z"/>
		<path id="XMLID_299_" class="st1" d="M374.5,279.4h11.9c1.2,0,2.4,0,3.1-0.1v2.9l-1.5,0.1v0c1.2,0.7,1.8,1.9,1.8,3.2
			c0,2.4-2.1,4.4-5.3,4.4c-3.5,0-5.5-2.2-5.5-4.6c0-1.3,0.4-2.3,1.2-2.7v0h-5.6V279.4z M383.6,282.6c-0.2,0-0.4,0-0.6,0
			c-0.9,0.2-1.6,0.9-1.6,1.9c0,1.5,1.3,2.2,2.9,2.2c1.8,0,2.9-0.9,2.9-2.2c0-0.9-0.6-1.7-1.5-1.9c-0.2-0.1-0.5-0.1-0.7-0.1H383.6z"
			/>
		<path id="XMLID_296_" class="st1" d="M384.3,266.6c3.8,0,5.5,2.7,5.5,5.4c0,3-2,5.3-5.3,5.3c-3.3,0-5.5-2.2-5.5-5.5
			C379,268.8,381.2,266.6,384.3,266.6z M384.4,274.1c1.8,0,3.1-0.7,3.1-2.1c0-1.2-1.2-2-3.1-2c-1.5,0-3.1,0.6-3.1,2
			C381.3,273.5,382.8,274.1,384.4,274.1z"/>
		<path id="XMLID_294_" class="st1" d="M382.5,264.7c-1.3,0-2.4,0-3.3,0.1V262l1.4-0.1v-0.1c-0.7-0.4-1.6-1.5-1.6-3.2
			c0-2.1,1.4-3.7,4.4-3.7h6.1v3.2h-5.7c-1.3,0-2.2,0.5-2.2,1.6c0,0.9,0.6,1.4,1.2,1.6c0.2,0.1,0.5,0.1,0.8,0.1h6v3.2H382.5z"/>
		<path id="XMLID_291_" class="st1" d="M385.4,249.8c1.3-0.1,2-1.4,2-2.9c0-1.1-0.1-2-0.4-2.9l2.2-0.4c0.4,1.1,0.6,2.3,0.6,3.7
			c0,3.5-2,5.5-5.3,5.5c-2.6,0-5.5-1.6-5.5-5.2c0-3.3,2.6-4.6,5.2-4.6c0.5,0,1,0.1,1.3,0.1V249.8z M383.2,246
			c-0.8,0-2.1,0.3-2.1,1.8c0,1.4,1.2,1.9,2.1,2V246z"/>
	</g>
	<g id="XMLID_260_">
		<path id="XMLID_288_" class="st1" d="M418.1,349.7h5.5v-5.3h-5.5v-3.2h14.2v3.2h-6v5.3h6v3.2h-14.2V349.7z"/>
		<path id="XMLID_285_" class="st1" d="M432.3,332.6l-1,0.2v0.1c0.8,0.7,1.3,1.7,1.3,3c0,2.1-1.5,3.3-3.2,3.3c-2.7,0-4-2.4-3.9-6.1
			h-0.1c-0.5,0-1.3,0.3-1.3,1.9c0,1.1,0.4,2.2,0.8,2.9l-2.1,0.6c-0.4-0.7-0.9-2.1-0.9-4c0-3.4,2-4.5,4.5-4.5h3.6c1,0,1.9,0,2.5-0.1
			V332.6z M427.4,333c0,1.7,0.4,3,1.6,3c0.8,0,1.2-0.5,1.2-1.3c0-0.8-0.5-1.5-1.2-1.7c-0.2,0-0.4-0.1-0.5-0.1H427.4z"/>
		<path id="XMLID_283_" class="st1" d="M417.3,327.4v-3.2h15v3.2H417.3z"/>
		<path id="XMLID_280_" class="st1" d="M427,311.3c3.8,0,5.5,2.7,5.5,5.4c0,3-2,5.3-5.3,5.3c-3.3,0-5.5-2.2-5.5-5.5
			C421.7,313.5,423.9,311.3,427,311.3z M427.1,318.8c1.8,0,3.1-0.7,3.1-2.1c0-1.2-1.2-2-3.1-2c-1.5,0-3.1,0.6-3.1,2
			C424,318.3,425.6,318.8,427.1,318.8z"/>
		<path id="XMLID_277_" class="st1" d="M425.4,309.4c-1.4,0-2.5,0-3.5,0.1v-2.8l1.4-0.1v0c-1.1-0.8-1.7-1.9-1.7-3.4
			c0-2.3,2-4.3,5.3-4.3c3.8,0,5.5,2.4,5.5,4.7c0,1.2-0.5,2.2-1.2,2.7v0h5.1v3.2H425.4z M427.9,306.2c0.3,0,0.5,0,0.7-0.1
			c0.9-0.2,1.5-1,1.5-1.9c0-1.4-1.2-2.2-2.9-2.2c-1.6,0-2.9,0.7-2.9,2.2c0,0.9,0.7,1.7,1.6,1.9c0.2,0,0.4,0.1,0.6,0.1H427.9z"/>
		<path id="XMLID_274_" class="st1" d="M428.2,294.2c1.3-0.1,2-1.4,2-2.9c0-1.1-0.1-2-0.4-2.9l2.2-0.4c0.4,1.1,0.6,2.3,0.6,3.7
			c0,3.5-2,5.5-5.3,5.5c-2.6,0-5.5-1.6-5.5-5.2c0-3.3,2.6-4.6,5.2-4.6c0.5,0,1,0.1,1.3,0.1V294.2z M426,290.4
			c-0.8,0-2.1,0.3-2.1,1.8c0,1.4,1.2,1.9,2.1,2V290.4z"/>
		<path id="XMLID_272_" class="st1" d="M425.4,285.5c-1.5,0-2.5,0-3.4,0.1v-2.8l1.9-0.1v-0.1c-1.5-0.5-2.1-1.8-2.1-2.8
			c0-0.3,0-0.4,0-0.7h3c0,0.2-0.1,0.5-0.1,0.9c0,1.2,0.6,2,1.6,2.2c0.2,0,0.5,0.1,0.7,0.1h5.2v3.2H425.4z"/>
		<path id="XMLID_269_" class="st1" d="M419.1,274.2c0.9,0,1.6,0.7,1.6,1.7c0,1-0.7,1.7-1.6,1.7c-0.9,0-1.6-0.7-1.6-1.7
			C417.5,274.9,418.2,274.2,419.1,274.2z M432.3,277.5H422v-3.2h10.3V277.5z"/>
		<path id="XMLID_266_" class="st1" d="M417.3,261.7h11.9c1.2,0,2.4,0,3.1-0.1v2.9l-1.5,0.1v0c1.2,0.7,1.8,1.9,1.8,3.2
			c0,2.4-2.1,4.4-5.3,4.4c-3.5,0-5.5-2.2-5.5-4.6c0-1.3,0.4-2.3,1.2-2.7v0h-5.6V261.7z M426.3,264.9c-0.2,0-0.4,0-0.6,0
			c-0.9,0.2-1.6,0.9-1.6,1.9c0,1.5,1.3,2.2,2.9,2.2c1.8,0,2.9-0.9,2.9-2.2c0-0.9-0.6-1.7-1.5-1.9c-0.2-0.1-0.5-0.1-0.7-0.1H426.3z"
			/>
		<path id="XMLID_263_" class="st1" d="M427,248.9c3.8,0,5.5,2.7,5.5,5.4c0,3-2,5.3-5.3,5.3c-3.3,0-5.5-2.2-5.5-5.5
			C421.7,251,423.9,248.9,427,248.9z M427.1,256.4c1.8,0,3.1-0.7,3.1-2.1c0-1.2-1.2-2-3.1-2c-1.5,0-3.1,0.6-3.1,2
			C424,255.8,425.6,256.4,427.1,256.4z"/>
		<path id="XMLID_261_" class="st1" d="M417.3,246.9v-3.2h15v3.2H417.3z"/>
	</g>
	<g id="XMLID_240_">
		<path id="XMLID_257_" class="st1" d="M460.9,316c-1.4,0-2.5,0-3.5,0.1v-2.8l1.4-0.1v0c-1.1-0.8-1.7-1.9-1.7-3.4
			c0-2.3,2-4.3,5.3-4.3c3.8,0,5.5,2.4,5.5,4.7c0,1.2-0.5,2.2-1.2,2.7v0h5.1v3.2H460.9z M463.3,312.8c0.3,0,0.5,0,0.7-0.1
			c0.9-0.2,1.5-1,1.5-1.9c0-1.4-1.2-2.2-2.9-2.2c-1.6,0-2.9,0.7-2.9,2.2c0,0.9,0.7,1.7,1.6,1.9c0.2,0,0.4,0.1,0.6,0.1H463.3z"/>
		<path id="XMLID_255_" class="st1" d="M452.7,303.4v-3.2h15v3.2H452.7z"/>
		<path id="XMLID_252_" class="st1" d="M467.7,291.7l-1,0.2v0.1c0.8,0.7,1.3,1.7,1.3,3c0,2.1-1.5,3.3-3.2,3.3c-2.7,0-4-2.4-3.9-6.1
			h-0.1c-0.5,0-1.3,0.3-1.3,1.9c0,1.1,0.4,2.2,0.8,2.9l-2.1,0.6c-0.4-0.7-0.9-2.1-0.9-4c0-3.4,2-4.5,4.5-4.5h3.6c1,0,1.9,0,2.5-0.1
			V291.7z M462.8,292.1c0,1.7,0.4,3,1.6,3c0.8,0,1.2-0.5,1.2-1.3c0-0.8-0.5-1.5-1.2-1.7c-0.2,0-0.4-0.1-0.5-0.1H462.8z"/>
		<path id="XMLID_250_" class="st1" d="M467.5,278.7c0.3,0.6,0.5,1.6,0.5,2.9c0,3.3-2,5.5-5.3,5.5c-3,0-5.5-2.1-5.5-5.9
			c0-0.8,0.1-1.8,0.4-2.4l2.4,0.5c-0.2,0.4-0.3,1-0.3,1.8c0,1.7,1.2,2.8,2.9,2.8c1.9,0,2.9-1.3,2.9-2.8c0-0.8-0.1-1.4-0.3-1.8
			L467.5,278.7z"/>
		<path id="XMLID_247_" class="st1" d="M463.6,274.7c1.3-0.1,2-1.4,2-2.9c0-1.1-0.1-2-0.4-2.9l2.2-0.4c0.4,1.1,0.6,2.3,0.6,3.7
			c0,3.5-2,5.5-5.3,5.5c-2.6,0-5.5-1.6-5.5-5.2c0-3.3,2.6-4.6,5.2-4.6c0.5,0,1,0.1,1.3,0.1V274.7z M461.4,270.9
			c-0.8,0-2.1,0.3-2.1,1.8c0,1.4,1.2,1.9,2.1,2V270.9z"/>
		<path id="XMLID_244_" class="st1" d="M467.7,266.1c-0.7,0-1.9-0.1-3.1-0.1h-11.9v-3.2h5.9v0c-0.9-0.6-1.5-1.7-1.5-3.1
			c0-2.5,2-4.3,5.2-4.3c3.7,0,5.6,2.4,5.6,4.7c0,1.2-0.4,2.4-1.7,3.1v0l1.4,0.1V266.1z M463.3,262.8c0.2,0,0.4,0,0.6-0.1
			c0.9-0.2,1.5-1,1.5-1.9c0-1.4-1.1-2.2-2.9-2.2c-1.6,0-2.9,0.7-2.9,2.2c0,0.9,0.7,1.7,1.6,1.9c0.2,0,0.4,0.1,0.6,0.1H463.3z"/>
		<path id="XMLID_241_" class="st1" d="M462.4,243.1c3.8,0,5.5,2.7,5.5,5.4c0,3-2,5.3-5.3,5.3c-3.3,0-5.5-2.2-5.5-5.5
			C457.2,245.2,459.3,243.1,462.4,243.1z M462.5,250.6c1.8,0,3.1-0.7,3.1-2.1c0-1.2-1.2-2-3.1-2c-1.5,0-3.1,0.6-3.1,2
			C459.4,250,461,250.6,462.5,250.6z"/>
	</g>
	<g id="XMLID_213_">
		<path id="XMLID_237_" class="st1" d="M547.8,335.4c3.8,0,5.5,2.7,5.5,5.4c0,3-2,5.3-5.3,5.3c-3.3,0-5.5-2.2-5.5-5.5
			C542.5,337.6,544.7,335.4,547.8,335.4z M547.9,342.9c1.8,0,3.1-0.7,3.1-2.1c0-1.2-1.2-2-3.1-2c-1.5,0-3.1,0.6-3.1,2
			C544.8,342.4,546.3,342.9,547.9,342.9z"/>
		<path id="XMLID_235_" class="st1" d="M538,333.5v-3.2h15v3.2H538z"/>
		<path id="XMLID_232_" class="st1" d="M553,321.8l-1,0.2v0.1c0.8,0.7,1.3,1.7,1.3,3c0,2.1-1.5,3.3-3.2,3.3c-2.7,0-4-2.4-3.9-6.1
			H546c-0.5,0-1.3,0.3-1.3,1.9c0,1.1,0.4,2.2,0.8,2.9l-2.1,0.6c-0.4-0.7-0.9-2.1-0.9-4c0-3.4,2-4.5,4.5-4.5h3.6c1,0,1.9,0,2.5-0.1
			V321.8z M548.2,322.2c0,1.7,0.4,3,1.6,3c0.8,0,1.2-0.5,1.2-1.3c0-0.8-0.5-1.5-1.2-1.7c-0.2,0-0.4-0.1-0.5-0.1H548.2z"/>
		<path id="XMLID_230_" class="st1" d="M546,316.5c-1.3,0-2.4,0-3.3,0.1v-2.8l1.4-0.1v-0.1c-0.7-0.4-1.6-1.5-1.6-3.2
			c0-2.1,1.4-3.7,4.4-3.7h6.1v3.2h-5.7c-1.3,0-2.2,0.5-2.2,1.6c0,0.9,0.6,1.4,1.2,1.6c0.2,0.1,0.5,0.1,0.8,0.1h6v3.2H546z"/>
		<path id="XMLID_228_" class="st1" d="M551.2,305l-4.1-3.3c-0.7-0.6-1.2-1.1-1.8-1.6h0v4.5h-2.5v-8.4h1.9l3.9,3.1
			c0.7,0.6,1.3,1.1,1.9,1.7h0v-5h2.6v9H551.2z"/>
		<path id="XMLID_225_" class="st1" d="M553,288.4l-1,0.2v0.1c0.8,0.7,1.3,1.7,1.3,3c0,2.1-1.5,3.3-3.2,3.3c-2.7,0-4-2.4-3.9-6.1
			H546c-0.5,0-1.3,0.3-1.3,1.9c0,1.1,0.4,2.2,0.8,2.9l-2.1,0.6c-0.4-0.7-0.9-2.1-0.9-4c0-3.4,2-4.5,4.5-4.5h3.6c1,0,1.9,0,2.5-0.1
			V288.4z M548.2,288.7c0,1.7,0.4,3,1.6,3c0.8,0,1.2-0.5,1.2-1.3c0-0.8-0.5-1.5-1.2-1.7c-0.2,0-0.4-0.1-0.5-0.1H548.2z"/>
		<path id="XMLID_222_" class="st1" d="M546.2,283.1c-1.4,0-2.5,0-3.5,0.1v-2.8l1.4-0.1v0c-1.1-0.8-1.7-1.9-1.7-3.4
			c0-2.3,2-4.3,5.3-4.3c3.8,0,5.5,2.4,5.5,4.7c0,1.2-0.5,2.2-1.2,2.7v0h5.1v3.2H546.2z M548.6,279.9c0.3,0,0.5,0,0.7-0.1
			c0.9-0.2,1.5-1,1.5-1.9c0-1.4-1.2-2.2-2.9-2.2c-1.6,0-2.9,0.7-2.9,2.2c0,0.9,0.7,1.7,1.6,1.9c0.2,0,0.4,0.1,0.6,0.1H548.6z"/>
		<path id="XMLID_219_" class="st1" d="M539.8,267.1c0.9,0,1.6,0.7,1.6,1.7c0,1-0.7,1.7-1.6,1.7c-0.9,0-1.6-0.7-1.6-1.7
			C538.2,267.8,538.9,267.2,539.8,267.1z M553,270.4h-10.3v-3.2H553V270.4z"/>
		<path id="XMLID_217_" class="st1" d="M546,264.7c-1.3,0-2.4,0-3.3,0.1V262l1.4-0.1v-0.1c-0.7-0.4-1.6-1.5-1.6-3.2
			c0-2.1,1.4-3.7,4.4-3.7h6.1v3.2h-5.7c-1.3,0-2.2,0.5-2.2,1.6c0,0.9,0.6,1.4,1.2,1.6c0.2,0.1,0.5,0.1,0.8,0.1h6v3.2H546z"/>
		<path id="XMLID_214_" class="st1" d="M548.9,249.8c1.3-0.1,2-1.4,2-2.9c0-1.1-0.1-2-0.4-2.9l2.2-0.4c0.4,1.1,0.6,2.3,0.6,3.7
			c0,3.5-2,5.5-5.3,5.5c-2.6,0-5.5-1.6-5.5-5.2c0-3.3,2.6-4.6,5.2-4.6c0.5,0,1,0.1,1.3,0.1V249.8z M546.7,246
			c-0.8,0-2.1,0.3-2.1,1.8c0,1.4,1.2,1.9,2.1,2V246z"/>
	</g>
	<g id="XMLID_182_">
		<path id="XMLID_210_" class="st1" d="M580.4,354.7c-0.2-1-0.3-2.6-0.3-4.3c0-2.1,0.3-3.6,1.1-4.6c0.7-0.8,1.7-1.3,3-1.3
			c1.8,0,3.1,1.3,3.5,2.5h0.1c0.4-1,1.4-1.5,2.7-1.9c1.6-0.4,3.5-0.9,4-1.2v3.3c-0.4,0.2-1.6,0.6-3.3,1c-1.8,0.4-2.3,1-2.3,2.3v1
			h5.6v3.2H580.4z M586.5,351.5v-1.3c0-1.6-0.8-2.6-2-2.6c-1.3,0-2,0.9-2,2.4c0,0.8,0.1,1.2,0.1,1.5H586.5z"/>
		<path id="XMLID_207_" class="st1" d="M581.2,338.7c0.9,0,1.6,0.7,1.6,1.7c0,1-0.7,1.7-1.6,1.7c-0.9,0-1.6-0.7-1.6-1.7
			C579.6,339.4,580.3,338.7,581.2,338.7z M594.4,342h-10.3v-3.2h10.3V342z"/>
		<path id="XMLID_205_" class="st1" d="M591.6,336.3c0.4-0.6,0.8-1.8,0.8-2.8c0-1-0.3-1.4-0.9-1.4c-0.5,0-0.8,0.3-1.2,1.5
			c-0.7,2.1-1.9,3-3.1,2.9c-1.9,0-3.4-1.6-3.4-4.2c0-1.2,0.3-2.3,0.6-2.9l2.2,0.6c-0.3,0.5-0.6,1.4-0.6,2.2c0,0.8,0.3,1.2,0.8,1.2
			c0.5,0,0.7-0.4,1.2-1.7c0.7-2,1.7-2.8,3.2-2.8c1.9,0,3.3,1.5,3.3,4.5c0,1.4-0.3,2.6-0.7,3.3L591.6,336.3z"/>
		<path id="XMLID_202_" class="st1" d="M587.6,327.1c-1.4,0-2.5,0-3.5,0.1v-2.8l1.4-0.1v0c-1.1-0.8-1.7-1.9-1.7-3.4
			c0-2.3,2-4.3,5.3-4.3c3.8,0,5.5,2.4,5.5,4.7c0,1.2-0.5,2.2-1.2,2.7v0h5.1v3.2H587.6z M590,323.9c0.3,0,0.5,0,0.7-0.1
			c0.9-0.2,1.5-1,1.5-1.9c0-1.4-1.2-2.2-2.9-2.2c-1.6,0-2.9,0.7-2.9,2.2c0,0.9,0.7,1.7,1.6,1.9c0.2,0,0.4,0.1,0.6,0.1H590z"/>
		<path id="XMLID_199_" class="st1" d="M590.3,311.9c1.3-0.1,2-1.4,2-2.9c0-1.1-0.1-2-0.4-2.9l2.2-0.4c0.4,1.1,0.6,2.3,0.6,3.7
			c0,3.5-2,5.5-5.3,5.5c-2.6,0-5.5-1.6-5.5-5.2c0-3.3,2.6-4.6,5.2-4.6c0.5,0,1,0.1,1.3,0.1V311.9z M588.1,308.1
			c-0.8,0-2.1,0.3-2.1,1.8c0,1.4,1.2,1.9,2.1,2V308.1z"/>
		<path id="XMLID_197_" class="st1" d="M587.5,303.2c-1.5,0-2.5,0-3.4,0.1v-2.8l1.9-0.1v-0.1c-1.5-0.5-2.1-1.8-2.1-2.8
			c0-0.3,0-0.4,0-0.7h3c0,0.2-0.1,0.5-0.1,0.9c0,1.2,0.6,2,1.6,2.2c0.2,0,0.5,0.1,0.7,0.1h5.2v3.2H587.5z"/>
		<path id="XMLID_194_" class="st1" d="M581.2,291.9c0.9,0,1.6,0.7,1.6,1.7c0,1-0.7,1.7-1.6,1.7c-0.9,0-1.6-0.7-1.6-1.7
			C579.6,292.6,580.3,291.9,581.2,291.9z M594.4,295.2h-10.3V292h10.3V295.2z"/>
		<path id="XMLID_191_" class="st1" d="M579.4,279.4h11.9c1.2,0,2.4,0,3.1-0.1v2.9l-1.5,0.1v0c1.2,0.7,1.8,1.9,1.8,3.2
			c0,2.4-2.1,4.4-5.3,4.4c-3.5,0-5.5-2.2-5.5-4.6c0-1.3,0.4-2.3,1.2-2.7v0h-5.6V279.4z M588.5,282.6c-0.2,0-0.4,0-0.6,0
			c-0.9,0.2-1.6,0.9-1.6,1.9c0,1.5,1.3,2.2,2.9,2.2c1.8,0,2.9-0.9,2.9-2.2c0-0.9-0.6-1.7-1.5-1.9c-0.2-0.1-0.5-0.1-0.7-0.1H588.5z"
			/>
		<path id="XMLID_188_" class="st1" d="M589.1,266.6c3.8,0,5.5,2.7,5.5,5.4c0,3-2,5.3-5.3,5.3c-3.3,0-5.5-2.2-5.5-5.5
			C583.9,268.8,586,266.6,589.1,266.6z M589.3,274.1c1.8,0,3.1-0.7,3.1-2.1c0-1.2-1.2-2-3.1-2c-1.5,0-3.1,0.6-3.1,2
			C586.2,273.5,587.7,274.1,589.3,274.1z"/>
		<path id="XMLID_186_" class="st1" d="M587.4,264.7c-1.3,0-2.4,0-3.3,0.1V262l1.4-0.1v-0.1c-0.7-0.4-1.6-1.5-1.6-3.2
			c0-2.1,1.4-3.7,4.4-3.7h6.1v3.2h-5.7c-1.3,0-2.2,0.5-2.2,1.6c0,0.9,0.6,1.4,1.2,1.6c0.2,0.1,0.5,0.1,0.8,0.1h6v3.2H587.4z"/>
		<path id="XMLID_183_" class="st1" d="M590.3,249.8c1.3-0.1,2-1.4,2-2.9c0-1.1-0.1-2-0.4-2.9l2.2-0.4c0.4,1.1,0.6,2.3,0.6,3.7
			c0,3.5-2,5.5-5.3,5.5c-2.6,0-5.5-1.6-5.5-5.2c0-3.3,2.6-4.6,5.2-4.6c0.5,0,1,0.1,1.3,0.1V249.8z M588.1,246
			c-0.8,0-2.1,0.3-2.1,1.8c0,1.4,1.2,1.9,2.1,2V246z"/>
	</g>
	<g id="XMLID_152_">
		<path id="XMLID_180_" class="st1" d="M623,349.7h5.5v-5.3H623v-3.2h14.2v3.2h-6v5.3h6v3.2H623V349.7z"/>
		<path id="XMLID_177_" class="st1" d="M637.2,332.6l-1,0.2v0.1c0.8,0.7,1.3,1.7,1.3,3c0,2.1-1.5,3.3-3.2,3.3c-2.7,0-4-2.4-3.9-6.1
			h-0.1c-0.5,0-1.3,0.3-1.3,1.9c0,1.1,0.4,2.2,0.8,2.9l-2.1,0.6c-0.4-0.7-0.9-2.1-0.9-4c0-3.4,2-4.5,4.5-4.5h3.6c1,0,1.9,0,2.5-0.1
			V332.6z M632.3,333c0,1.7,0.4,3,1.6,3c0.8,0,1.2-0.5,1.2-1.3c0-0.8-0.5-1.5-1.2-1.7c-0.2,0-0.4-0.1-0.5-0.1H632.3z"/>
		<path id="XMLID_175_" class="st1" d="M622.2,327.4v-3.2h15v3.2H622.2z"/>
		<path id="XMLID_172_" class="st1" d="M631.9,311.3c3.8,0,5.5,2.7,5.5,5.4c0,3-2,5.3-5.3,5.3c-3.3,0-5.5-2.2-5.5-5.5
			C626.6,313.5,628.8,311.3,631.9,311.3z M632,318.8c1.8,0,3.1-0.7,3.1-2.1c0-1.2-1.2-2-3.1-2c-1.5,0-3.1,0.6-3.1,2
			C628.9,318.3,630.5,318.8,632,318.8z"/>
		<path id="XMLID_169_" class="st1" d="M630.3,309.4c-1.4,0-2.5,0-3.5,0.1v-2.8l1.4-0.1v0c-1.1-0.8-1.7-1.9-1.7-3.4
			c0-2.3,2-4.3,5.3-4.3c3.8,0,5.5,2.4,5.5,4.7c0,1.2-0.5,2.2-1.2,2.7v0h5.1v3.2H630.3z M632.8,306.2c0.3,0,0.5,0,0.7-0.1
			c0.9-0.2,1.5-1,1.5-1.9c0-1.4-1.2-2.2-2.9-2.2c-1.6,0-2.9,0.7-2.9,2.2c0,0.9,0.7,1.7,1.6,1.9c0.2,0,0.4,0.1,0.6,0.1H632.8z"/>
		<path id="XMLID_166_" class="st1" d="M633.1,294.2c1.3-0.1,2-1.4,2-2.9c0-1.1-0.1-2-0.4-2.9l2.2-0.4c0.4,1.1,0.6,2.3,0.6,3.7
			c0,3.5-2,5.5-5.3,5.5c-2.6,0-5.5-1.6-5.5-5.2c0-3.3,2.6-4.6,5.2-4.6c0.5,0,1,0.1,1.3,0.1V294.2z M630.9,290.4
			c-0.8,0-2.1,0.3-2.1,1.8c0,1.4,1.2,1.9,2.1,2V290.4z"/>
		<path id="XMLID_164_" class="st1" d="M630.3,285.5c-1.5,0-2.5,0-3.4,0.1v-2.8l1.9-0.1v-0.1c-1.5-0.5-2.1-1.8-2.1-2.8
			c0-0.3,0-0.4,0-0.7h3c0,0.2-0.1,0.5-0.1,0.9c0,1.2,0.6,2,1.6,2.2c0.2,0,0.5,0.1,0.7,0.1h5.2v3.2H630.3z"/>
		<path id="XMLID_161_" class="st1" d="M624,274.2c0.9,0,1.6,0.7,1.6,1.7c0,1-0.7,1.7-1.6,1.7c-0.9,0-1.6-0.7-1.6-1.7
			C622.4,274.9,623.1,274.2,624,274.2z M637.2,277.5h-10.3v-3.2h10.3V277.5z"/>
		<path id="XMLID_158_" class="st1" d="M622.2,261.7h11.9c1.2,0,2.4,0,3.1-0.1v2.9l-1.5,0.1v0c1.2,0.7,1.8,1.9,1.8,3.2
			c0,2.4-2.1,4.4-5.3,4.4c-3.5,0-5.5-2.2-5.5-4.6c0-1.3,0.4-2.3,1.2-2.7v0h-5.6V261.7z M631.2,264.9c-0.2,0-0.4,0-0.6,0
			c-0.9,0.2-1.6,0.9-1.6,1.9c0,1.5,1.3,2.2,2.9,2.2c1.8,0,2.9-0.9,2.9-2.2c0-0.9-0.6-1.7-1.5-1.9c-0.2-0.1-0.5-0.1-0.7-0.1H631.2z"
			/>
		<path id="XMLID_155_" class="st1" d="M631.9,248.9c3.8,0,5.5,2.7,5.5,5.4c0,3-2,5.3-5.3,5.3c-3.3,0-5.5-2.2-5.5-5.5
			C626.6,251,628.8,248.9,631.9,248.9z M632,256.4c1.8,0,3.1-0.7,3.1-2.1c0-1.2-1.2-2-3.1-2c-1.5,0-3.1,0.6-3.1,2
			C628.9,255.8,630.5,256.4,632,256.4z"/>
		<path id="XMLID_153_" class="st1" d="M622.2,246.9v-3.2h15v3.2H622.2z"/>
	</g>
	<rect id="XMLID_151_" x="39.5" y="197" class="st2" width="17.2" height="29.9"/>
	<rect id="XMLID_150_" x="81.7" y="210.4" class="st3" width="17.2" height="16.5"/>
	<rect id="XMLID_149_" x="123.6" y="210.4" class="st4" width="17.2" height="16.5"/>
	<rect id="XMLID_148_" x="165.1" y="186.8" class="st5" width="17.2" height="41.9"/>
	<rect id="XMLID_147_" x="207.4" y="207.8" class="st6" width="17.2" height="20.9"/>
	<rect id="XMLID_146_" x="249.2" y="210.4" class="st2" width="17.2" height="16.5"/>
	<rect id="XMLID_145_" x="291.5" y="210.4" class="st3" width="17.2" height="16.5"/>
	<rect id="XMLID_144_" x="333.4" y="210.4" class="st4" width="17.2" height="16.5"/>
	<rect id="XMLID_143_" x="376.3" y="199.1" class="st5" width="15.8" height="29.6"/>
	<rect id="XMLID_142_" x="418" y="175.5" class="st6" width="17.2" height="53.1"/>
	<rect id="XMLID_141_" x="460" y="192.3" class="st2" width="17.2" height="34.6"/>
	<rect id="XMLID_140_" x="502.3" y="185.2" class="st3" width="17.2" height="41.7"/>
	<rect id="XMLID_139_" x="544.1" y="190" class="st4" width="17.2" height="37"/>
	<rect id="XMLID_138_" x="587.1" y="183.3" class="st5" width="15.8" height="45.4"/>
	<rect id="XMLID_137_" x="622.4" y="74.4" class="st6" width="17.2" height="154.3"/>
	<g id="XMLID_92_">
		<path id="XMLID_136_" class="st3" d="M93.2,325.7v-7.3c0-1.1-0.2-1.6-0.8-1.6c-0.6,0-0.7,0.4-0.8,1.1c-0.3,3.5-1.2,4.4-3.5,4.4
			c-2.2,0-3.7-1.5-3.7-4.8c0-2,0.3-3,0.6-3.7h3c-0.4,1-0.7,2.3-0.7,3.5c0,1,0.2,1.5,0.8,1.5c0.6,0,0.7-0.4,0.8-1.1
			c0.3-3.5,1.2-4.4,3.5-4.4c2.1,0,3.7,1.3,3.7,5v6.8"/>
		<path id="XMLID_133_" class="st3" d="M91.3,309.3c1.4,0.1,1.9-0.7,1.9-2.4c0-1.7-0.3-2.9-0.7-3.7h2.8c0.5,1.3,0.8,2.8,0.8,4.1
			c0,3.6-1.9,5.4-5.8,5.4s-5.8-1.7-5.8-5.2c0-4.7,3.5-5,7-4.8V309.3z M89.2,309.3v-3.1c-1.2-0.2-2.2,0.1-2.2,1.4
			C87,308.8,87.8,309.3,89.2,309.3"/>
		<path id="XMLID_132_" class="st3" d="M84.7,299.7l0.8-0.4c-0.7-1.2-1.1-2.6-1.1-3.8c0-3,1.6-3.9,3.7-3.9h7.6v3.5h-7.1
			c-0.8,0-1.4,0.3-1.4,1.2c0,0.9,0.4,1.6,0.6,2h7.9v3.5h-11V299.7z"/>
		<path id="XMLID_129_" class="st3" d="M88,284.7c-0.5,0-0.8,0.4-0.8,1.3c0,1.4,0.4,3,0.8,4h-3c-0.3-0.8-0.7-2.4-0.7-4
			c0-4,1.7-4.7,4.2-4.7h7.2v2.1l-0.8,0.5c0.7,0.8,1.1,1.9,1.1,3.2c0,2.8-1.9,3.7-3.5,3.7c-3,0-3.4-2.2-3.6-4.2l-0.2-2H88z
			 M90.8,286.2c0.1,1,0.6,1.4,1.5,1.4c0.8,0,1.3-0.5,1.3-1.3c0-0.6-0.2-1.2-0.5-1.6h-2.4L90.8,286.2z"/>
		<path id="XMLID_126_" class="st3" d="M84.7,278l0.9-0.6c-0.7-0.8-1.2-1.8-1.2-3.6c0-2.9,1.8-4.3,5.8-4.3c4.1,0,5.8,1.4,5.8,4.3
			c0,1.2-0.3,2.1-0.7,2.8h5.9v3.5H84.7V278z M92.7,276.6c0,0,0.5-0.7,0.5-1.6c0-1.6-1.1-2-3-2c-1.9,0-2.9,0.4-2.9,2
			c0,0.9,0.5,1.6,0.5,1.6H92.7z"/>
		<path id="XMLID_125_" class="st3" d="M95.8,264.2c0,0,0.1,0.5,0.1,1c0,1.9-1,3.4-3.1,3.4h-8.1v-3.5h7.6c0.4,0,0.7-0.2,0.7-0.9
			H95.8z"/>
		<path id="XMLID_124_" class="st3" d="M84.7,261.3l0.8-0.4c-0.7-1.2-1.1-2.6-1.1-3.8c0-3,1.6-3.9,3.7-3.9h7.6v3.5h-7.1
			c-0.8,0-1.4,0.3-1.4,1.2c0,0.9,0.4,1.6,0.6,2h7.9v3.5h-11V261.3z"/>
		<path id="XMLID_121_" class="st3" d="M91.3,248.9c1.4,0.1,1.9-0.7,1.9-2.4c0-1.7-0.3-2.9-0.7-3.7h2.8c0.5,1.3,0.8,2.8,0.8,4.1
			c0,3.6-1.9,5.4-5.8,5.4s-5.8-1.7-5.8-5.2c0-4.7,3.5-5,7-4.8V248.9z M89.2,248.9v-3.1c-1.2-0.2-2.2,0.1-2.2,1.4
			C87,248.4,87.8,248.9,89.2,248.9"/>
		<polyline id="XMLID_120_" class="st3" points="92.3,329.4 89.5,328.7 89.5,326.6 83.2,328 89.5,329.4 92.3,330.1 95.7,330.8 
			95.7,334.6 79.1,330 79.1,326 95.7,321.4 95.7,325.1 92.3,325.9 		"/>
		<g id="XMLID_98_">
			<polygon id="XMLID_119_" class="st3" points="101,273.1 99,273.1 99,275.2 101,275.2 101,275.6 96.9,275.6 96.9,275.2 
				98.7,275.2 98.7,273.1 96.9,273.1 96.9,272.8 101,272.8 			"/>
			<path id="XMLID_116_" class="st3" d="M97.1,271.7c0-0.2,0.1-0.3,0.3-0.3c0.2,0,0.3,0.1,0.3,0.3c0,0.2-0.1,0.3-0.3,0.3
				C97.3,272,97.1,271.9,97.1,271.7 M100.5,271.9h-2.2v-0.4h2.3c0.2,0,0.3-0.1,0.3-0.2h0.3C101.1,271.7,100.9,271.9,100.5,271.9"/>
			<polygon id="XMLID_115_" class="st3" points="99.4,269.7 101,268.4 101,268.8 99.6,269.9 99.9,270.3 101,270.3 101,270.7 
				96.9,270.7 96.9,270.3 99.5,270.3 98.3,269 98.3,268.5 			"/>
			<path id="XMLID_114_" class="st3" d="M99,264.6c-0.4,0-0.5,0.2-0.5,0.5c0,0.3,0.1,0.5,0.2,0.8c0.1,0,0.2,0,0.3,0h2v0.4h-2
				c-0.4,0-0.5,0.2-0.5,0.5c0,0.3,0.1,0.5,0.2,0.7h2.3v0.4h-2.8v-0.2l0.2-0.1c-0.2-0.3-0.3-0.6-0.3-0.8c0-0.4,0.1-0.6,0.3-0.8
				c-0.2-0.3-0.3-0.6-0.3-0.9c0-0.6,0.3-0.9,0.8-0.9h2v0.4H99z"/>
			<path id="XMLID_111_" class="st3" d="M98.5,262.6c0,0.4,0.1,0.6,0.1,0.8h-0.3c-0.1-0.2-0.1-0.6-0.1-0.8c0-0.8,0.4-1,0.9-1h1.9
				v0.2l-0.2,0.1c0.2,0.2,0.3,0.6,0.3,0.8c0,0.7-0.4,1-0.9,1c-0.5,0-0.8-0.3-0.9-1l0-0.7h-0.2C98.7,261.9,98.5,262.1,98.5,262.6
				 M99.6,262.7c0,0.4,0.2,0.6,0.6,0.6c0.2,0,0.5-0.1,0.5-0.6c0-0.3-0.1-0.5-0.2-0.7h-1L99.6,262.7z"/>
			<path id="XMLID_108_" class="st3" d="M101,259.4v0.4h-4.2v-1.3c0-1,0.6-1.4,1.2-1.4s1.2,0.4,1.2,1.4v0.9H101z M99,259.4v-0.9
				c0-0.8-0.5-0.9-0.9-0.9c-0.4,0-0.9,0.2-0.9,0.9v0.9H99z"/>
			<path id="XMLID_107_" class="st3" d="M98.5,255.5c0,0.4,0.1,0.6,0.2,0.8h2.3v0.4h-4.2v-0.4h1.6c-0.2-0.2-0.2-0.5-0.2-0.8
				c0-0.7,0.3-0.9,0.8-0.9h2v0.4h-2C98.6,254.9,98.5,255.1,98.5,255.5"/>
			<path id="XMLID_104_" class="st3" d="M98.5,252.8c0,0.4,0.1,0.6,0.1,0.8h-0.3c-0.1-0.2-0.1-0.6-0.1-0.8c0-0.8,0.4-1,0.9-1h1.9
				v0.2l-0.2,0.1c0.2,0.2,0.3,0.6,0.3,0.8c0,0.7-0.4,1-0.9,1c-0.5,0-0.8-0.3-0.9-1l0-0.7h-0.2C98.7,252.2,98.5,252.3,98.5,252.8
				 M99.6,252.9c0,0.4,0.2,0.6,0.6,0.6c0.2,0,0.5-0.1,0.5-0.6c0-0.3-0.1-0.5-0.2-0.7h-1L99.6,252.9z"/>
			<path id="XMLID_103_" class="st3" d="M98.6,249.6c0,0.1,0,0.2,0,0.3c0,0.4,0.1,0.6,0.2,0.8h2.3v0.4h-2.8v-0.2l0.2-0.1
				c-0.2-0.3-0.3-0.6-0.3-0.9c0-0.1,0-0.2,0-0.3H98.6z"/>
			<path id="XMLID_102_" class="st3" d="M99,245.8c-0.4,0-0.5,0.2-0.5,0.5c0,0.3,0.1,0.5,0.2,0.8c0.1,0,0.2,0,0.3,0h2v0.4h-2
				c-0.4,0-0.5,0.2-0.5,0.5c0,0.3,0.1,0.5,0.2,0.7h2.3v0.4h-2.8v-0.2l0.2-0.1c-0.2-0.3-0.3-0.6-0.3-0.8c0-0.4,0.1-0.6,0.3-0.8
				c-0.2-0.3-0.3-0.6-0.3-0.9c0-0.6,0.3-0.9,0.8-0.9h2v0.4H99z"/>
			<path id="XMLID_99_" class="st3" d="M98.5,243.8c0,0.4,0.1,0.6,0.1,0.8h-0.3c-0.1-0.2-0.1-0.6-0.1-0.8c0-0.8,0.4-1,0.9-1h1.9v0.2
				l-0.2,0.1c0.2,0.2,0.3,0.6,0.3,0.8c0,0.7-0.4,1-0.9,1c-0.5,0-0.8-0.3-0.9-1l0-0.7h-0.2C98.7,243.1,98.5,243.2,98.5,243.8
				 M99.6,243.9c0,0.4,0.2,0.6,0.6,0.6c0.2,0,0.5-0.1,0.5-0.6c0-0.3-0.1-0.5-0.2-0.7h-1L99.6,243.9z"/>
		</g>
		<g id="XMLID_93_">
			<path id="XMLID_97_" class="st3" d="M78.5,265.6c0,0.5,0.1,0.9,0.3,1.3c0.1-0.2,0.2-0.3,0.3-0.5c0.2-0.9,1-1.6,2-1.6
				c1,0,1.8,0.7,2,1.6c0.1,0.1,0.2,0.3,0.3,0.5c0.2-0.4,0.3-0.8,0.3-1.3c0-1.5-1.2-2.7-2.7-2.7C79.7,262.9,78.5,264.1,78.5,265.6z"
				/>
			<path id="XMLID_96_" class="st7" d="M81.2,269c-1,0-1.8-0.7-2-1.6c-0.1-0.1-0.2-0.3-0.3-0.5c-0.2,0.4-0.3,0.8-0.3,1.3
				c0,1.5,1.2,2.7,2.7,2.7c1.5,0,2.7-1.2,2.7-2.7c0-0.5-0.1-0.9-0.3-1.3c-0.1,0.2-0.2,0.3-0.3,0.5C83,268.3,82.2,269,81.2,269z"/>
			<path id="XMLID_95_" class="st7" d="M83.3,266.9c0,0.2,0,0.3-0.1,0.5c0.1-0.1,0.2-0.3,0.3-0.5c-0.1-0.2-0.2-0.3-0.3-0.5
				C83.2,266.6,83.3,266.7,83.3,266.9z"/>
			<path id="XMLID_94_" class="st7" d="M79.1,266.9c0-0.2,0-0.3,0.1-0.5c-0.1,0.1-0.2,0.3-0.3,0.5c0.1,0.2,0.2,0.3,0.3,0.5
				C79.1,267.2,79.1,267,79.1,266.9z"/>
		</g>
	</g>
	<g id="XMLID_47_">
		<path id="XMLID_91_" class="st3" d="M304,325.7v-7.3c0-1.1-0.2-1.6-0.8-1.6c-0.6,0-0.7,0.4-0.8,1.1c-0.3,3.5-1.2,4.4-3.5,4.4
			c-2.2,0-3.7-1.5-3.7-4.8c0-2,0.3-3,0.6-3.7h3c-0.4,1-0.7,2.3-0.7,3.5c0,1,0.2,1.5,0.8,1.5c0.6,0,0.7-0.4,0.8-1.1
			c0.3-3.5,1.2-4.4,3.5-4.4c2.1,0,3.7,1.3,3.7,5v6.8"/>
		<path id="XMLID_88_" class="st3" d="M302.1,309.3c1.4,0.1,1.9-0.7,1.9-2.4c0-1.7-0.3-2.9-0.7-3.7h2.8c0.5,1.3,0.8,2.8,0.8,4.1
			c0,3.6-1.9,5.4-5.8,5.4s-5.8-1.7-5.8-5.2c0-4.7,3.5-5,7-4.8V309.3z M300,309.3v-3.1c-1.2-0.2-2.2,0.1-2.2,1.4
			C297.8,308.8,298.6,309.3,300,309.3"/>
		<path id="XMLID_87_" class="st3" d="M295.5,299.7l0.8-0.4c-0.7-1.2-1.1-2.6-1.1-3.8c0-3,1.6-3.9,3.7-3.9h7.6v3.5h-7.1
			c-0.8,0-1.4,0.3-1.4,1.2c0,0.9,0.4,1.6,0.6,2h7.9v3.5h-11V299.7z"/>
		<path id="XMLID_84_" class="st3" d="M298.8,284.7c-0.5,0-0.8,0.4-0.8,1.3c0,1.4,0.4,3,0.8,4h-3c-0.3-0.8-0.7-2.4-0.7-4
			c0-4,1.7-4.7,4.2-4.7h7.2v2.1l-0.8,0.5c0.7,0.8,1.1,1.9,1.1,3.2c0,2.8-1.9,3.7-3.5,3.7c-3,0-3.4-2.2-3.6-4.2l-0.2-2H298.8z
			 M301.6,286.2c0.1,1,0.6,1.4,1.5,1.4c0.8,0,1.3-0.5,1.3-1.3c0-0.6-0.2-1.2-0.5-1.6h-2.4L301.6,286.2z"/>
		<path id="XMLID_81_" class="st3" d="M295.5,278l0.9-0.6c-0.7-0.8-1.2-1.8-1.2-3.6c0-2.9,1.8-4.3,5.8-4.3c4.1,0,5.8,1.4,5.8,4.3
			c0,1.2-0.3,2.1-0.7,2.8h5.9v3.5h-16.5V278z M303.5,276.6c0,0,0.5-0.7,0.5-1.6c0-1.6-1.1-2-3-2c-1.9,0-2.9,0.4-2.9,2
			c0,0.9,0.5,1.6,0.5,1.6H303.5z"/>
		<path id="XMLID_80_" class="st3" d="M306.6,264.2c0,0,0.1,0.5,0.1,1c0,1.9-1,3.4-3.1,3.4h-8.1v-3.5h7.6c0.4,0,0.7-0.2,0.7-0.9
			H306.6z"/>
		<path id="XMLID_79_" class="st3" d="M295.5,261.3l0.8-0.4c-0.7-1.2-1.1-2.6-1.1-3.8c0-3,1.6-3.9,3.7-3.9h7.6v3.5h-7.1
			c-0.8,0-1.4,0.3-1.4,1.2c0,0.9,0.4,1.6,0.6,2h7.9v3.5h-11V261.3z"/>
		<path id="XMLID_76_" class="st3" d="M302.1,248.9c1.4,0.1,1.9-0.7,1.9-2.4c0-1.7-0.3-2.9-0.7-3.7h2.8c0.5,1.3,0.8,2.8,0.8,4.1
			c0,3.6-1.9,5.4-5.8,5.4s-5.8-1.7-5.8-5.2c0-4.7,3.5-5,7-4.8V248.9z M300,248.9v-3.1c-1.2-0.2-2.2,0.1-2.2,1.4
			C297.8,248.4,298.6,248.9,300,248.9"/>
		<polyline id="XMLID_75_" class="st3" points="303.1,329.4 300.3,328.7 300.3,326.6 294,328 300.3,329.4 303.1,330.1 306.5,330.8 
			306.5,334.6 289.9,330 289.9,326 306.5,321.4 306.5,325.1 303.1,325.9 		"/>
		<g id="XMLID_53_">
			<polygon id="XMLID_74_" class="st3" points="311.8,273.1 309.8,273.1 309.8,275.2 311.8,275.2 311.8,275.6 307.7,275.6 
				307.7,275.2 309.5,275.2 309.5,273.1 307.7,273.1 307.7,272.8 311.8,272.8 			"/>
			<path id="XMLID_71_" class="st3" d="M307.9,271.7c0-0.2,0.1-0.3,0.3-0.3c0.2,0,0.3,0.1,0.3,0.3c0,0.2-0.1,0.3-0.3,0.3
				C308.1,272,307.9,271.9,307.9,271.7 M311.3,271.9h-2.2v-0.4h2.3c0.2,0,0.2-0.1,0.2-0.2h0.3C311.9,271.7,311.7,271.9,311.3,271.9"
				/>
			<polygon id="XMLID_70_" class="st3" points="310.2,269.7 311.8,268.4 311.8,268.8 310.4,269.9 310.8,270.3 311.8,270.3 
				311.8,270.7 307.7,270.7 307.7,270.3 310.3,270.3 309.1,269 309.1,268.5 			"/>
			<path id="XMLID_69_" class="st3" d="M309.8,264.6c-0.4,0-0.5,0.2-0.5,0.5c0,0.3,0.1,0.5,0.2,0.8c0.1,0,0.2,0,0.3,0h2v0.4h-2
				c-0.4,0-0.5,0.2-0.5,0.5c0,0.3,0.1,0.5,0.2,0.7h2.3v0.4h-2.8v-0.2l0.2-0.1c-0.2-0.3-0.3-0.6-0.3-0.8c0-0.4,0.1-0.6,0.3-0.8
				c-0.2-0.3-0.3-0.6-0.3-0.9c0-0.6,0.3-0.9,0.8-0.9h2v0.4H309.8z"/>
			<path id="XMLID_66_" class="st3" d="M309.3,262.6c0,0.4,0.1,0.6,0.1,0.8h-0.3c-0.1-0.2-0.1-0.6-0.1-0.8c0-0.8,0.4-1,0.9-1h1.9
				v0.2l-0.2,0.1c0.2,0.2,0.3,0.6,0.3,0.8c0,0.7-0.4,1-0.9,1c-0.5,0-0.8-0.3-0.9-1l0-0.7h-0.2C309.5,261.9,309.3,262.1,309.3,262.6
				 M310.4,262.7c0,0.4,0.2,0.6,0.6,0.6c0.2,0,0.5-0.1,0.5-0.6c0-0.3-0.1-0.5-0.2-0.7h-1L310.4,262.7z"/>
			<path id="XMLID_63_" class="st3" d="M311.8,259.4v0.4h-4.2v-1.3c0-1,0.6-1.4,1.2-1.4s1.2,0.4,1.2,1.4v0.9H311.8z M309.8,259.4
				v-0.9c0-0.8-0.5-0.9-0.9-0.9s-0.9,0.2-0.9,0.9v0.9H309.8z"/>
			<path id="XMLID_62_" class="st3" d="M309.3,255.5c0,0.4,0.1,0.6,0.2,0.8h2.3v0.4h-4.2v-0.4h1.6c-0.2-0.2-0.2-0.5-0.2-0.8
				c0-0.7,0.3-0.9,0.8-0.9h2v0.4h-2C309.5,254.9,309.3,255.1,309.3,255.5"/>
			<path id="XMLID_59_" class="st3" d="M309.3,252.8c0,0.4,0.1,0.6,0.1,0.8h-0.3c-0.1-0.2-0.1-0.6-0.1-0.8c0-0.8,0.4-1,0.9-1h1.9
				v0.2l-0.2,0.1c0.2,0.2,0.3,0.6,0.3,0.8c0,0.7-0.4,1-0.9,1c-0.5,0-0.8-0.3-0.9-1l0-0.7h-0.2C309.5,252.2,309.3,252.3,309.3,252.8
				 M310.4,252.9c0,0.4,0.2,0.6,0.6,0.6c0.2,0,0.5-0.1,0.5-0.6c0-0.3-0.1-0.5-0.2-0.7h-1L310.4,252.9z"/>
			<path id="XMLID_58_" class="st3" d="M309.4,249.6c0,0.1,0,0.2,0,0.3c0,0.4,0.1,0.6,0.2,0.8h2.3v0.4h-2.8v-0.2l0.2-0.1
				c-0.2-0.3-0.3-0.6-0.3-0.9c0-0.1,0-0.2,0-0.3H309.4z"/>
			<path id="XMLID_57_" class="st3" d="M309.8,245.8c-0.4,0-0.5,0.2-0.5,0.5c0,0.3,0.1,0.5,0.2,0.8c0.1,0,0.2,0,0.3,0h2v0.4h-2
				c-0.4,0-0.5,0.2-0.5,0.5c0,0.3,0.1,0.5,0.2,0.7h2.3v0.4h-2.8v-0.2l0.2-0.1c-0.2-0.3-0.3-0.6-0.3-0.8c0-0.4,0.1-0.6,0.3-0.8
				c-0.2-0.3-0.3-0.6-0.3-0.9c0-0.6,0.3-0.9,0.8-0.9h2v0.4H309.8z"/>
			<path id="XMLID_54_" class="st3" d="M309.3,243.8c0,0.4,0.1,0.6,0.1,0.8h-0.3c-0.1-0.2-0.1-0.6-0.1-0.8c0-0.8,0.4-1,0.9-1h1.9
				v0.2l-0.2,0.1c0.2,0.2,0.3,0.6,0.3,0.8c0,0.7-0.4,1-0.9,1c-0.5,0-0.8-0.3-0.9-1l0-0.7h-0.2C309.5,243.1,309.3,243.2,309.3,243.8
				 M310.4,243.9c0,0.4,0.2,0.6,0.6,0.6c0.2,0,0.5-0.1,0.5-0.6c0-0.3-0.1-0.5-0.2-0.7h-1L310.4,243.9z"/>
		</g>
		<g id="XMLID_48_">
			<path id="XMLID_52_" class="st3" d="M289.3,265.6c0,0.5,0.1,0.9,0.3,1.3c0.1-0.2,0.2-0.3,0.3-0.5c0.2-0.9,1-1.6,2-1.6
				c1,0,1.8,0.7,2,1.6c0.1,0.1,0.2,0.3,0.3,0.5c0.2-0.4,0.3-0.8,0.3-1.3c0-1.5-1.2-2.7-2.7-2.7C290.5,262.9,289.3,264.1,289.3,265.6
				z"/>
			<path id="XMLID_51_" class="st7" d="M292,269c-1,0-1.8-0.7-2-1.6c-0.1-0.1-0.2-0.3-0.3-0.5c-0.2,0.4-0.3,0.8-0.3,1.3
				c0,1.5,1.2,2.7,2.7,2.7c1.5,0,2.7-1.2,2.7-2.7c0-0.5-0.1-0.9-0.3-1.3c-0.1,0.2-0.2,0.3-0.3,0.5C293.8,268.3,293,269,292,269z"/>
			<path id="XMLID_50_" class="st7" d="M294.1,266.9c0,0.2,0,0.3-0.1,0.5c0.1-0.1,0.2-0.3,0.3-0.5c-0.1-0.2-0.2-0.3-0.3-0.5
				C294,266.6,294.1,266.7,294.1,266.9z"/>
			<path id="XMLID_49_" class="st7" d="M289.9,266.9c0-0.2,0-0.3,0.1-0.5c-0.1,0.1-0.2,0.3-0.3,0.5c0.1,0.2,0.2,0.3,0.3,0.5
				C289.9,267.2,289.9,267,289.9,266.9z"/>
		</g>
	</g>
	<g id="XMLID_2_">
		<path id="XMLID_46_" class="st3" d="M508,325.7v-7.3c0-1.1-0.2-1.6-0.8-1.6c-0.6,0-0.7,0.4-0.8,1.1c-0.3,3.5-1.2,4.4-3.5,4.4
			c-2.2,0-3.7-1.5-3.7-4.8c0-2,0.3-3,0.6-3.7h3c-0.4,1-0.7,2.3-0.7,3.5c0,1,0.2,1.5,0.8,1.5c0.6,0,0.7-0.4,0.8-1.1
			c0.3-3.5,1.2-4.4,3.5-4.4c2.1,0,3.7,1.3,3.7,5v6.8"/>
		<path id="XMLID_43_" class="st3" d="M506.1,309.3c1.4,0.1,1.9-0.7,1.9-2.4c0-1.7-0.3-2.9-0.7-3.7h2.8c0.5,1.3,0.8,2.8,0.8,4.1
			c0,3.6-1.9,5.4-5.8,5.4s-5.8-1.7-5.8-5.2c0-4.7,3.5-5,7-4.8V309.3z M504,309.3v-3.1c-1.2-0.2-2.2,0.1-2.2,1.4
			C501.8,308.8,502.6,309.3,504,309.3"/>
		<path id="XMLID_42_" class="st3" d="M499.5,299.7l0.8-0.4c-0.7-1.2-1.1-2.6-1.1-3.8c0-3,1.6-3.9,3.7-3.9h7.6v3.5h-7.1
			c-0.8,0-1.4,0.3-1.4,1.2c0,0.9,0.4,1.6,0.6,2h7.9v3.5h-11V299.7z"/>
		<path id="XMLID_39_" class="st3" d="M502.8,284.7c-0.5,0-0.8,0.4-0.8,1.3c0,1.4,0.4,3,0.8,4h-3c-0.3-0.8-0.7-2.4-0.7-4
			c0-4,1.7-4.7,4.2-4.7h7.2v2.1l-0.8,0.5c0.7,0.8,1.1,1.9,1.1,3.2c0,2.8-1.9,3.7-3.5,3.7c-3,0-3.4-2.2-3.6-4.2l-0.2-2H502.8z
			 M505.6,286.2c0.1,1,0.6,1.4,1.5,1.4c0.8,0,1.3-0.5,1.3-1.3c0-0.6-0.2-1.2-0.5-1.6h-2.4L505.6,286.2z"/>
		<path id="XMLID_36_" class="st3" d="M499.5,278l0.9-0.6c-0.7-0.8-1.2-1.8-1.2-3.6c0-2.9,1.8-4.3,5.8-4.3c4.1,0,5.8,1.4,5.8,4.3
			c0,1.2-0.3,2.1-0.7,2.8h5.9v3.5h-16.5V278z M507.5,276.6c0,0,0.5-0.7,0.5-1.6c0-1.6-1.1-2-3-2c-1.9,0-2.9,0.4-2.9,2
			c0,0.9,0.5,1.6,0.5,1.6H507.5z"/>
		<path id="XMLID_35_" class="st3" d="M510.6,264.2c0,0,0.1,0.5,0.1,1c0,1.9-1,3.4-3.1,3.4h-8.1v-3.5h7.6c0.4,0,0.7-0.2,0.7-0.9
			H510.6z"/>
		<path id="XMLID_34_" class="st3" d="M499.5,261.3l0.8-0.4c-0.7-1.2-1.1-2.6-1.1-3.8c0-3,1.6-3.9,3.7-3.9h7.6v3.5h-7.1
			c-0.8,0-1.4,0.3-1.4,1.2c0,0.9,0.4,1.6,0.6,2h7.9v3.5h-11V261.3z"/>
		<path id="XMLID_31_" class="st3" d="M506.1,248.9c1.4,0.1,1.9-0.7,1.9-2.4c0-1.7-0.3-2.9-0.7-3.7h2.8c0.5,1.3,0.8,2.8,0.8,4.1
			c0,3.6-1.9,5.4-5.8,5.4s-5.8-1.7-5.8-5.2c0-4.7,3.5-5,7-4.8V248.9z M504,248.9v-3.1c-1.2-0.2-2.2,0.1-2.2,1.4
			C501.8,248.4,502.6,248.9,504,248.9"/>
		<polyline id="XMLID_30_" class="st3" points="507.1,329.4 504.3,328.7 504.3,326.6 498,328 504.3,329.4 507.1,330.1 510.5,330.8 
			510.5,334.6 493.9,330 493.9,326 510.5,321.4 510.5,325.1 507.1,325.9 		"/>
		<g id="XMLID_8_">
			<polygon id="XMLID_29_" class="st3" points="515.8,273.1 513.8,273.1 513.8,275.2 515.8,275.2 515.8,275.6 511.7,275.6 
				511.7,275.2 513.5,275.2 513.5,273.1 511.7,273.1 511.7,272.8 515.8,272.8 			"/>
			<path id="XMLID_26_" class="st3" d="M511.9,271.7c0-0.2,0.1-0.3,0.3-0.3c0.2,0,0.3,0.1,0.3,0.3c0,0.2-0.1,0.3-0.3,0.3
				C512.1,272,511.9,271.9,511.9,271.7 M515.3,271.9h-2.2v-0.4h2.3c0.2,0,0.2-0.1,0.2-0.2h0.3C515.9,271.7,515.7,271.9,515.3,271.9"
				/>
			<polygon id="XMLID_25_" class="st3" points="514.2,269.7 515.8,268.4 515.8,268.8 514.4,269.9 514.7,270.3 515.8,270.3 
				515.8,270.7 511.7,270.7 511.7,270.3 514.3,270.3 513.1,269 513.1,268.5 			"/>
			<path id="XMLID_24_" class="st3" d="M513.8,264.6c-0.4,0-0.5,0.2-0.5,0.5c0,0.3,0.1,0.5,0.2,0.8c0.1,0,0.2,0,0.3,0h2v0.4h-2
				c-0.4,0-0.5,0.2-0.5,0.5c0,0.3,0.1,0.5,0.2,0.7h2.3v0.4h-2.8v-0.2l0.2-0.1c-0.2-0.3-0.3-0.6-0.3-0.8c0-0.4,0.1-0.6,0.3-0.8
				c-0.2-0.3-0.3-0.6-0.3-0.9c0-0.6,0.3-0.9,0.8-0.9h2v0.4H513.8z"/>
			<path id="XMLID_21_" class="st3" d="M513.3,262.6c0,0.4,0.1,0.6,0.1,0.8h-0.3c-0.1-0.2-0.1-0.6-0.1-0.8c0-0.8,0.4-1,0.9-1h1.9
				v0.2l-0.2,0.1c0.2,0.2,0.3,0.6,0.3,0.8c0,0.7-0.4,1-0.9,1c-0.5,0-0.8-0.3-0.9-1l0-0.7h-0.2C513.5,261.9,513.3,262.1,513.3,262.6
				 M514.4,262.7c0,0.4,0.2,0.6,0.6,0.6c0.2,0,0.5-0.1,0.5-0.6c0-0.3-0.1-0.5-0.2-0.7h-1L514.4,262.7z"/>
			<path id="XMLID_18_" class="st3" d="M515.8,259.4v0.4h-4.2v-1.3c0-1,0.6-1.4,1.2-1.4c0.6,0,1.2,0.4,1.2,1.4v0.9H515.8z
				 M513.8,259.4v-0.9c0-0.8-0.5-0.9-0.9-0.9s-0.9,0.2-0.9,0.9v0.9H513.8z"/>
			<path id="XMLID_17_" class="st3" d="M513.3,255.5c0,0.4,0.1,0.6,0.2,0.8h2.3v0.4h-4.2v-0.4h1.6c-0.2-0.2-0.2-0.5-0.2-0.8
				c0-0.7,0.3-0.9,0.8-0.9h2v0.4h-2C513.5,254.9,513.3,255.1,513.3,255.5"/>
			<path id="XMLID_14_" class="st3" d="M513.3,252.8c0,0.4,0.1,0.6,0.1,0.8h-0.3c-0.1-0.2-0.1-0.6-0.1-0.8c0-0.8,0.4-1,0.9-1h1.9
				v0.2l-0.2,0.1c0.2,0.2,0.3,0.6,0.3,0.8c0,0.7-0.4,1-0.9,1c-0.5,0-0.8-0.3-0.9-1l0-0.7h-0.2C513.5,252.2,513.3,252.3,513.3,252.8
				 M514.4,252.9c0,0.4,0.2,0.6,0.6,0.6c0.2,0,0.5-0.1,0.5-0.6c0-0.3-0.1-0.5-0.2-0.7h-1L514.4,252.9z"/>
			<path id="XMLID_13_" class="st3" d="M513.4,249.6c0,0.1,0,0.2,0,0.3c0,0.4,0.1,0.6,0.2,0.8h2.3v0.4h-2.8v-0.2l0.2-0.1
				c-0.2-0.3-0.3-0.6-0.3-0.9c0-0.1,0-0.2,0-0.3H513.4z"/>
			<path id="XMLID_12_" class="st3" d="M513.8,245.8c-0.4,0-0.5,0.2-0.5,0.5c0,0.3,0.1,0.5,0.2,0.8c0.1,0,0.2,0,0.3,0h2v0.4h-2
				c-0.4,0-0.5,0.2-0.5,0.5c0,0.3,0.1,0.5,0.2,0.7h2.3v0.4h-2.8v-0.2l0.2-0.1c-0.2-0.3-0.3-0.6-0.3-0.8c0-0.4,0.1-0.6,0.3-0.8
				c-0.2-0.3-0.3-0.6-0.3-0.9c0-0.6,0.3-0.9,0.8-0.9h2v0.4H513.8z"/>
			<path id="XMLID_9_" class="st3" d="M513.3,243.8c0,0.4,0.1,0.6,0.1,0.8h-0.3c-0.1-0.2-0.1-0.6-0.1-0.8c0-0.8,0.4-1,0.9-1h1.9v0.2
				l-0.2,0.1c0.2,0.2,0.3,0.6,0.3,0.8c0,0.7-0.4,1-0.9,1c-0.5,0-0.8-0.3-0.9-1l0-0.7h-0.2C513.5,243.1,513.3,243.2,513.3,243.8
				 M514.4,243.9c0,0.4,0.2,0.6,0.6,0.6c0.2,0,0.5-0.1,0.5-0.6c0-0.3-0.1-0.5-0.2-0.7h-1L514.4,243.9z"/>
		</g>
		<g id="XMLID_3_">
			<path id="XMLID_7_" class="st3" d="M493.3,265.6c0,0.5,0.1,0.9,0.3,1.3c0.1-0.2,0.2-0.3,0.3-0.5c0.2-0.9,1-1.6,2-1.6
				c1,0,1.8,0.7,2,1.6c0.1,0.1,0.2,0.3,0.3,0.5c0.2-0.4,0.3-0.8,0.3-1.3c0-1.5-1.2-2.7-2.7-2.7C494.5,262.9,493.3,264.1,493.3,265.6
				z"/>
			<path id="XMLID_6_" class="st7" d="M496,269c-1,0-1.8-0.7-2-1.6c-0.1-0.1-0.2-0.3-0.3-0.5c-0.2,0.4-0.3,0.8-0.3,1.3
				c0,1.5,1.2,2.7,2.7,2.7c1.5,0,2.7-1.2,2.7-2.7c0-0.5-0.1-0.9-0.3-1.3c-0.1,0.2-0.2,0.3-0.3,0.5C497.8,268.3,497,269,496,269z"/>
			<path id="XMLID_5_" class="st7" d="M498.1,266.9c0,0.2,0,0.3-0.1,0.5c0.1-0.1,0.2-0.3,0.3-0.5c-0.1-0.2-0.2-0.3-0.3-0.5
				C498,266.6,498.1,266.7,498.1,266.9z"/>
			<path id="XMLID_4_" class="st7" d="M493.9,266.9c0-0.2,0-0.3,0.1-0.5c-0.1,0.1-0.2,0.3-0.3,0.5c0.1,0.2,0.2,0.3,0.3,0.5
				C493.9,267.2,493.9,267,493.9,266.9z"/>
		</g>
	</g>
</g>
</svg>
