<!-- Generator: Adobe Illustrator 22.1.0, SVG Export Plug-In  -->
<svg version="1.1"
	 xmlns="http://www.w3.org/2000/svg" xmlns:xlink="http://www.w3.org/1999/xlink" xmlns:a="http://ns.adobe.com/AdobeSVGViewerExtensions/3.0/"
	 x="0px" y="0px" width="535.3px" height="36.3px" viewBox="0 0 535.3 36.3" style="enable-background:new 0 0 535.3 36.3;"
	 xml:space="preserve">
<style type="text/css">
	.st0{fill:#490E67;}
	.st1{fill:#C29FD8;}
</style>
<defs>
</defs>
<g id="XMLID_46_">
	<g id="XMLID_48_">
		<path id="XMLID_131_" d="M168.6,27.2v-3c0.6,0.7,1.8,1.4,3.3,1.4c1.4,0,2-0.5,2-1.4c0-0.7-0.5-1-1.7-1.3l-0.5-0.1
			c-2-0.4-3.3-1.5-3.3-3.8c0-2.5,1.8-4,4.7-4c1.9,0,2.9,0.5,3.4,0.9v3c-0.6-0.8-1.8-1.4-3.4-1.4c-1.1,0-1.8,0.4-1.8,1.2
			c0,0.7,0.3,1.1,1.5,1.3l0.5,0.1c2.1,0.4,3.5,1.3,3.5,3.7c0,2.5-1.7,4.2-5,4.2C170.1,28.1,169.1,27.6,168.6,27.2z"/>
		<path id="XMLID_129_" d="M178.7,14h3v4.4c0.5-0.6,1.4-1,2.6-1c2.6,0,3.6,1.4,3.6,4.1v6.3h-3v-5.8c0-1.7-0.4-2.3-1.5-2.3
			c-0.9,0-1.4,0.4-1.7,0.8v7.3h-3V14z"/>
		<path id="XMLID_126_" d="M189.4,22.8c0-3.7,2.4-5.4,5.2-5.4c2.9,0,5,1.6,5,5.4c0,3.8-2.4,5.4-5.2,5.4
			C191.5,28.1,189.4,26.5,189.4,22.8z M196.6,22.8c0-1.8-0.6-2.9-2.1-2.9c-1.4,0-2,1.2-2,2.9c0,1.8,0.6,2.9,2,2.9
			C195.9,25.7,196.6,24.5,196.6,22.8z"/>
		<path id="XMLID_124_" d="M200.4,17.7h3l1.3,5.4l2-5.4h1.1l2.1,5.4l1.3-5.4h2.8l-2.8,10.1h-1.8l-2.2-5.5l-2.2,5.5h-1.8L200.4,17.7z
			"/>
		<path id="XMLID_122_" d="M215.1,27.3v-2.7c0.6,0.6,1.6,1.1,3,1.1c1.3,0,1.7-0.4,1.7-0.9c0-0.5-0.2-0.7-1.4-0.9l-0.5-0.1
			c-2.1-0.3-3-1.3-3-3.1c0-1.8,1.2-3.3,4.2-3.3c1.5,0,2.6,0.4,3.2,0.8v2.6c-0.6-0.7-1.7-1.1-3.1-1.1c-1.2,0-1.6,0.3-1.6,0.9
			s0.2,0.8,1.3,0.9l0.5,0.1c2.2,0.3,3.2,1.1,3.2,3c0,1.7-1.2,3.5-4.4,3.5C216.6,28.1,215.6,27.8,215.1,27.3z"/>
		<path id="XMLID_120_" d="M228.7,15.4h8.5v2.5h-5.4v2.4h3.5v2.4h-3.5v2.7h5.4v2.5h-8.5V15.4z"/>
		<path id="XMLID_117_" d="M239.5,20h-1.2v-0.9l1.1-1c-0.2-0.3-0.3-0.8-0.3-1.5c0-1.9,1.6-2.9,3.3-2.9c1.2,0,1.8,0.3,2.1,0.6v2.4
			c-0.3-0.5-0.7-0.7-1.3-0.7c-0.6,0-1.1,0.3-1.1,1c0,0.3,0.1,0.6,0.2,0.8h3.1c-0.1-0.3-0.2-0.7-0.2-1.2c0-1.9,1.6-2.9,3.4-2.9
			c1.1,0,1.8,0.3,2,0.5v2.5c-0.3-0.5-0.7-0.7-1.4-0.7c-0.7,0-1.1,0.3-1.1,1c0,0.3,0.1,0.6,0.2,0.8h6.2v10h-3V20h-3v7.8h-3V20h-3v7.8
			h-3V20z M251.4,15.4c0-0.9,0.6-1.4,1.5-1.4c0.9,0,1.6,0.5,1.6,1.4c0,0.9-0.6,1.4-1.6,1.4C252,16.8,251.4,16.3,251.4,15.4z"/>
		<path id="XMLID_115_" d="M256.1,22.8c0-3.7,2.3-5.4,5.1-5.4c1.5,0,2.6,0.4,3,0.9V21c-0.7-0.7-1.4-1-2.6-1c-1.6,0-2.4,1-2.4,2.8
			c0,1.8,0.9,2.8,2.4,2.8c1.1,0,2-0.4,2.6-1.1v2.6c-0.5,0.5-1.6,1.1-3.1,1.1C258.1,28.1,256.1,26.5,256.1,22.8z"/>
		<path id="XMLID_112_" d="M265.4,25.2c0-2,1.4-2.9,4.2-3.3l1.5-0.2c0-1.4-0.7-1.8-2-1.8c-1.4,0-2.8,0.7-3.3,1.8v-2.8
			c0.4-0.6,1.5-1.3,3.8-1.3c2.9,0,4.5,1.3,4.5,4.3v6.1h-2.6l-0.2-0.9c-0.3,0.5-1.1,1.1-2.5,1.1C266.8,28.1,265.4,27.2,265.4,25.2z
			 M271.1,23.5l-1.1,0.3c-1.3,0.3-1.8,0.6-1.8,1.3c0,0.7,0.5,1,1.2,1c0.8,0,1.5-0.3,1.7-0.7V23.5z"/>
		<path id="XMLID_110_" d="M275.6,22.8c0-3.7,2.3-5.4,5.1-5.4c1.5,0,2.6,0.4,3,0.9V21c-0.7-0.7-1.4-1-2.6-1c-1.6,0-2.4,1-2.4,2.8
			c0,1.8,0.9,2.8,2.4,2.8c1.1,0,2-0.4,2.6-1.1v2.6c-0.5,0.5-1.6,1.1-3.1,1.1C277.7,28.1,275.6,26.5,275.6,22.8z"/>
		<path id="XMLID_108_" d="M284.9,31.1v-2.4c0.4,0.4,1.1,0.7,1.7,0.7c0.7,0,1.3-0.2,1.8-1.3l-4-10.4h3.3l2.1,6.6l1.8-6.6h2.9
			l-2.8,9.6c-0.7,2.5-2,4.4-4.7,4.4C286,31.7,285.3,31.4,284.9,31.1z"/>
		<path id="XMLID_106_" d="M299.6,21.6c0-4.3,2.7-6.5,6-6.5c2.1,0,3.1,0.6,3.6,1v3.1c-0.7-1-1.7-1.5-3.2-1.5c-2.1,0-3.3,1.3-3.3,3.8
			c0,2.5,1.1,4,3.3,4c1.4,0,2.5-0.5,3.2-1.4v2.8c-0.7,0.7-2,1.2-3.6,1.2C301.9,28.1,299.6,26,299.6,21.6z"/>
		<path id="XMLID_103_" d="M310.5,22.8c0-3.7,2.4-5.4,5.2-5.4c2.9,0,5,1.6,5,5.4c0,3.8-2.4,5.4-5.2,5.4
			C312.6,28.1,310.5,26.5,310.5,22.8z M317.7,22.8c0-1.8-0.6-2.9-2.1-2.9c-1.4,0-2,1.2-2,2.9c0,1.8,0.6,2.9,2,2.9
			C317,25.7,317.7,24.5,317.7,22.8z"/>
		<path id="XMLID_101_" d="M322.3,17.7h2.7l0.2,0.9c0.4-0.7,1.4-1.2,2.5-1.2c1.4,0,2.4,0.5,2.9,1.4c0.5-0.7,1.5-1.4,3-1.4
			c2.5,0,3.4,1.4,3.4,4.1v6.3h-3V22c0-1.6-0.4-2.2-1.4-2.2c-0.7,0-1.3,0.4-1.6,0.8c0.1,0.3,0.1,0.6,0.1,0.9v6.3h-3V22
			c0-1.6-0.4-2.2-1.3-2.2c-0.8,0-1.3,0.4-1.5,0.8v7.2h-3V17.7z"/>
		<path id="XMLID_98_" d="M339.1,17.7h2.6l0.2,0.9c0.3-0.6,1.2-1.2,2.7-1.2c2.5,0,4.1,1.4,4.1,5.1c0,3.7-2,5.6-4.5,5.6
			c-0.8,0-1.7-0.2-2.2-0.7v3.9h-3V17.7z M345.7,22.6c0-1.8-0.5-2.8-1.9-2.8c-0.9,0-1.4,0.3-1.7,0.8v4.6c0.4,0.5,1,0.6,1.6,0.6
			C345.1,25.8,345.7,24.4,345.7,22.6z"/>
		<path id="XMLID_95_" d="M349.9,25.2c0-2,1.4-2.9,4.2-3.3l1.5-0.2c0-1.4-0.7-1.8-2-1.8c-1.4,0-2.8,0.7-3.3,1.8v-2.8
			c0.4-0.6,1.5-1.3,3.8-1.3c2.9,0,4.5,1.3,4.5,4.3v6.1H356l-0.2-0.9c-0.3,0.5-1.1,1.1-2.5,1.1C351.3,28.1,349.9,27.2,349.9,25.2z
			 M355.6,23.5l-1.1,0.3c-1.3,0.3-1.8,0.6-1.8,1.3c0,0.7,0.5,1,1.2,1c0.8,0,1.5-0.3,1.7-0.7V23.5z"/>
		<path id="XMLID_93_" d="M360.6,17.7h2.5l0.2,1.3c0.1-1.1,1-1.6,2-1.6c0.5,0,0.9,0.1,1,0.3v2.7c-0.3-0.2-0.6-0.3-1.2-0.3
			c-0.7,0-1.2,0.3-1.5,0.8v6.9h-3V17.7z"/>
		<path id="XMLID_90_" d="M367.1,25.2c0-2,1.4-2.9,4.2-3.3l1.5-0.2c0-1.4-0.7-1.8-2-1.8c-1.4,0-2.8,0.7-3.3,1.8v-2.8
			c0.4-0.6,1.5-1.3,3.8-1.3c2.9,0,4.5,1.3,4.5,4.3v6.1h-2.6L373,27c-0.3,0.5-1.1,1.1-2.5,1.1C368.5,28.1,367.1,27.2,367.1,25.2z
			 M372.8,23.5l-1.1,0.3c-1.3,0.3-1.8,0.6-1.8,1.3c0,0.7,0.5,1,1.2,1c0.8,0,1.5-0.3,1.7-0.7V23.5z"/>
		<path id="XMLID_87_" d="M380.5,27.1l-0.4,0.7h-2.3V14h3v4.5c0.3-0.5,1.2-1.1,2.6-1.1c2.5,0,4.1,1.4,4.1,5.1c0,3.7-2,5.6-4.5,5.6
			C381.6,28.1,380.9,27.6,380.5,27.1z M380.8,25.2c0.4,0.5,1,0.7,1.6,0.7c1.4,0,2-1.4,2-3.2c0-1.8-0.5-2.8-1.9-2.8
			c-0.8,0-1.4,0.3-1.7,0.8V25.2z"/>
		<path id="XMLID_85_" d="M389.1,25.3V14h3v10.9c0,0.6,0.2,0.8,0.6,0.8s0.7-0.2,0.9-0.4v2.3c-0.2,0.2-0.8,0.5-1.8,0.5
			C390,28.1,389.1,27.1,389.1,25.3z"/>
		<path id="XMLID_82_" d="M394.5,22.8c0-3.7,2.4-5.4,4.9-5.4c2.4,0,4.7,1,4.7,4.9v1.3h-6.5c0.1,1.1,0.8,2.1,2.7,2.1
			c1.7,0,2.7-0.6,3.3-1.2V27c-0.5,0.5-1.7,1.1-3.8,1.1C396.4,28.1,394.5,26.4,394.5,22.8z M401.2,21.8L401.2,21.8c0-1.3-0.5-2-1.8-2
			c-1.2,0-1.8,1-1.9,2H401.2z"/>
		<path id="XMLID_80_" d="M410.5,24.9V20h-1.2V19l1-1.3l1.8-2.4h1.4v2.4h2.4V20h-2.4v4.6c0,0.7,0.2,1.1,0.9,1.1
			c0.7,0,1.2-0.3,1.5-0.9v2.4c-0.3,0.4-1,0.8-2.3,0.8C411.4,28.1,410.5,26.9,410.5,24.9z"/>
		<path id="XMLID_77_" d="M417,22.8c0-3.7,2.4-5.4,5.2-5.4c2.9,0,5,1.6,5,5.4c0,3.8-2.4,5.4-5.2,5.4C419,28.1,417,26.5,417,22.8z
			 M424.1,22.8c0-1.8-0.6-2.9-2.1-2.9c-1.4,0-2,1.2-2,2.9c0,1.8,0.6,2.9,2,2.9C423.5,25.7,424.1,24.5,424.1,22.8z"/>
		<path id="XMLID_74_" d="M432.7,21.6c0-4.3,3-6.5,6.4-6.5c3.7,0,6.3,2.2,6.3,6.5c0,4.3-3,6.5-6.4,6.5
			C435.3,28.1,432.7,25.9,432.7,21.6z M442.3,21.7c0-2.6-1.2-4-3.2-4c-2,0-3.2,1.4-3.2,3.9c0,2.6,1.2,4,3.2,4
			C441.1,25.5,442.3,24.1,442.3,21.7z"/>
		<path id="XMLID_72_" d="M447,25.3V14h3v10.9c0,0.6,0.2,0.8,0.6,0.8s0.7-0.2,0.9-0.4v2.3c-0.2,0.2-0.8,0.5-1.8,0.5
			C448,28.1,447,27.1,447,25.3z"/>
		<path id="XMLID_69_" d="M452.4,25.2c0-2,1.4-2.9,4.2-3.3l1.5-0.2c0-1.4-0.7-1.8-2-1.8c-1.4,0-2.8,0.7-3.3,1.8v-2.8
			c0.4-0.6,1.5-1.3,3.8-1.3c2.9,0,4.5,1.3,4.5,4.3v6.1h-2.6l-0.2-0.9c-0.3,0.5-1.1,1.1-2.5,1.1C453.8,28.1,452.4,27.2,452.4,25.2z
			 M458.1,23.5l-1.1,0.3c-1.3,0.3-1.8,0.6-1.8,1.3c0,0.7,0.5,1,1.2,1c0.8,0,1.5-0.3,1.7-0.7V23.5z"/>
		<path id="XMLID_67_" d="M463.1,17.7h2.6l0.2,0.9c0.4-0.7,1.3-1.2,2.7-1.2c2.6,0,3.7,1.4,3.7,4.1v6.3h-3v-5.8
			c0-1.7-0.4-2.3-1.5-2.3c-0.9,0-1.4,0.4-1.7,0.8v7.2h-3V17.7z"/>
		<path id="XMLID_65_" d="M473.9,26.9l4.3-6.9h-4.2v-2.3h7.9v0.9l-4.1,6.9h4.1v2.3h-8V26.9z"/>
		<path id="XMLID_62_" d="M483,25.2c0-2,1.4-2.9,4.2-3.3l1.5-0.2c0-1.4-0.7-1.8-2-1.8c-1.4,0-2.8,0.7-3.3,1.8v-2.8
			c0.4-0.6,1.5-1.3,3.8-1.3c2.9,0,4.5,1.3,4.5,4.3v6.1h-2.6l-0.2-0.9c-0.3,0.5-1.1,1.1-2.5,1.1C484.4,28.1,483,27.2,483,25.2z
			 M488.7,23.5l-1.1,0.3c-1.3,0.3-1.8,0.6-1.8,1.3c0,0.7,0.5,1,1.2,1c0.8,0,1.5-0.3,1.7-0.7V23.5z"/>
		<path id="XMLID_59_" d="M493.7,17.7h2.6l0.2,0.9c0.3-0.6,1.2-1.2,2.7-1.2c2.5,0,4.1,1.4,4.1,5.1c0,3.7-2,5.6-4.5,5.6
			c-0.8,0-1.7-0.2-2.2-0.7v3.9h-3V17.7z M500.3,22.6c0-1.8-0.5-2.8-1.9-2.8c-0.9,0-1.4,0.3-1.7,0.8v4.6c0.4,0.5,1,0.6,1.6,0.6
			C499.8,25.8,500.3,24.4,500.3,22.6z"/>
		<path id="XMLID_56_" d="M505,15.3c0-0.9,0.6-1.4,1.5-1.4c0.9,0,1.6,0.5,1.6,1.4c0,0.9-0.6,1.4-1.6,1.4
			C505.5,16.7,505,16.2,505,15.3z M505,17.7h3v10.1h-3V17.7z"/>
		<path id="XMLID_54_" d="M510.1,17.7h2.6l0.2,0.9c0.4-0.7,1.3-1.2,2.7-1.2c2.6,0,3.7,1.4,3.7,4.1v6.3h-3v-5.8
			c0-1.7-0.4-2.3-1.5-2.3c-0.9,0-1.4,0.4-1.7,0.8v7.2h-3V17.7z"/>
		<path id="XMLID_51_" d="M520.9,22.8c0-3.7,2.4-5.4,4.9-5.4c2.4,0,4.7,1,4.7,4.9v1.3h-6.5c0.1,1.1,0.8,2.1,2.7,2.1
			c1.7,0,2.7-0.6,3.3-1.2V27c-0.5,0.5-1.7,1.1-3.8,1.1C522.9,28.1,520.9,26.4,520.9,22.8z M527.7,21.8L527.7,21.8c0-1.3-0.5-2-1.8-2
			c-1.2,0-1.8,1-1.9,2H527.7z"/>
		<path id="XMLID_49_" d="M531.7,26.3c0-1,0.7-1.8,1.8-1.8c1,0,1.8,0.8,1.8,1.8c0,1-0.8,1.8-1.8,1.8
			C532.5,28.1,531.7,27.4,531.7,26.3z"/>
	</g>
</g>
<g id="XMLID_1_">
	<path id="XMLID_45_" class="st0" d="M14.2,23.5h11.7c1.8,0,2.6-0.4,2.6-1.2c0-0.9-0.6-1.1-1.8-1.2c-5.6-0.5-7.1-2-7.1-5.6
		c0-3.6,2.3-6,7.7-6c3.2,0,4.7,0.4,5.9,0.9V15c-1.6-0.7-3.6-1.1-5.7-1.1c-1.6,0-2.5,0.4-2.5,1.2c0,0.9,0.6,1.1,1.8,1.2
		c5.6,0.5,7.1,2,7.1,5.6c0,3.4-2,6-8,6H15.2"/>
	<path id="XMLID_42_" class="st0" d="M40.4,20.6c-0.1,2.3,1.1,3,3.8,3c2.6,0,4.6-0.5,5.9-1.2v4.4c-2,0.8-4.5,1.2-6.6,1.2
		c-5.8,0-8.6-3-8.6-9.3c0-6.3,2.8-9.3,8.2-9.3c7.5,0,8.1,5.6,7.6,11.2H40.4z M40.4,17.1h5c0.3-1.9-0.1-3.5-2.3-3.5
		C41.2,13.6,40.4,14.9,40.4,17.1"/>
	<path id="XMLID_41_" class="st0" d="M55.7,9.9l0.7,1.3c2-1.2,4.2-1.8,6.1-1.8c4.8,0,6.2,2.5,6.2,5.9v12.2h-5.6V16.2
		c0-1.3-0.5-2.2-2-2.2c-1.4,0-2.6,0.6-3.1,0.9v12.6h-5.6V9.9H55.7z"/>
	<path id="XMLID_38_" class="st0" d="M79.6,15.2c0-0.8-0.6-1.2-2.1-1.2c-2.2,0-4.8,0.7-6.3,1.3v-4.7c1.2-0.5,3.8-1.2,6.3-1.2
		c6.3,0,7.5,2.7,7.5,6.7v11.4h-3.4l-0.8-1.3c-1.3,1.1-3.1,1.8-5.2,1.8c-4.5,0-6-3-6-5.6c0-4.8,3.5-5.5,6.7-5.8l3.2-0.3V15.2z
		 M77.3,19.7c-1.6,0.2-2.2,1-2.2,2.4c0,1.3,0.8,2.1,2,2.1c1,0,2-0.3,2.5-0.8v-3.9L77.3,19.7z"/>
	<path id="XMLID_35_" class="st0" d="M90.4,9.9l1,1.4c1.2-1.1,2.9-1.9,5.7-1.9c4.6,0,6.8,2.8,6.8,9.3c0,6.5-2.3,9.3-6.8,9.3
		c-1.9,0-3.3-0.5-4.4-1.1v9.4H87V9.9H90.4z M92.6,22.7c0,0,1.1,0.7,2.5,0.7c2.6,0,3.2-1.8,3.2-4.8c0-3-0.6-4.7-3.2-4.7
		c-1.4,0-2.5,0.7-2.5,0.7V22.7z"/>
	<path id="XMLID_34_" class="st0" d="M112.4,27.6c0,0-0.7,0.1-1.6,0.1c-3,0-5.4-1.5-5.4-5V9.9h5.6V22c0,0.7,0.3,1.1,1.4,1.1V27.6z"
		/>
	<path id="XMLID_33_" class="st0" d="M117.1,9.9l0.7,1.3c2-1.2,4.2-1.8,6.1-1.8c4.8,0,6.2,2.5,6.2,5.9v12.2h-5.6V16.2
		c0-1.3-0.5-2.2-2-2.2c-1.4,0-2.6,0.6-3.1,0.9v12.6h-5.6V9.9H117.1z"/>
	<path id="XMLID_30_" class="st0" d="M136.9,20.6c-0.1,2.3,1.1,3,3.8,3c2.6,0,4.6-0.5,5.9-1.2v4.4c-2,0.8-4.5,1.2-6.6,1.2
		c-5.8,0-8.6-3-8.6-9.3c0-6.3,2.8-9.3,8.2-9.3c7.5,0,8.1,5.6,7.6,11.2H136.9z M136.9,17.1h5c0.3-1.9-0.1-3.5-2.3-3.5
		C137.7,13.6,136.9,14.9,136.9,17.1"/>
	<polyline id="XMLID_29_" class="st0" points="8.3,22.1 9.4,17.6 12.8,17.6 10.6,7.6 8.3,17.6 7.2,22.1 6,27.5 0,27.5 7.3,0.9 
		13.8,0.9 21.1,27.5 15.1,27.5 13.9,22.1 	"/>
	<g id="XMLID_7_">
		<polygon id="XMLID_28_" class="st0" points="98.2,36 98.2,32.8 94.9,32.8 94.9,36 94.3,36 94.3,29.4 94.9,29.4 94.9,32.3 
			98.2,32.3 98.2,29.4 98.8,29.4 98.8,36 		"/>
		<path id="XMLID_25_" class="st0" d="M100.5,29.8c0.2,0,0.4,0.2,0.4,0.4c0,0.2-0.2,0.4-0.4,0.4c-0.2,0-0.4-0.2-0.4-0.4
			C100,30,100.2,29.8,100.5,29.8 M100.2,35.1v-3.5h0.6v3.6c0,0.3,0.1,0.4,0.4,0.4v0.5C100.5,36.1,100.2,35.8,100.2,35.1"/>
		<polygon id="XMLID_24_" class="st0" points="103.7,33.4 105.8,36 105.1,36 103.3,33.8 102.8,34.3 102.8,36 102.2,36 102.2,29.4 
			102.8,29.4 102.8,33.6 104.8,31.6 105.6,31.6 		"/>
		<path id="XMLID_23_" class="st0" d="M111.8,32.8c0-0.6-0.3-0.8-0.8-0.8c-0.5,0-0.8,0.1-1.2,0.3c0,0.1,0.1,0.3,0.1,0.5V36h-0.6
			v-3.2c0-0.6-0.3-0.8-0.8-0.8c-0.5,0-0.8,0.1-1.1,0.3V36h-0.6v-4.4h0.3l0.1,0.4c0.4-0.3,0.9-0.4,1.3-0.4c0.6,0,1,0.2,1.2,0.5
			c0.5-0.3,0.9-0.5,1.4-0.5c0.9,0,1.5,0.4,1.5,1.3V36h-0.6V32.8z"/>
		<path id="XMLID_20_" class="st0" d="M115.1,32.1c-0.6,0-1,0.1-1.3,0.2v-0.5c0.4-0.2,0.9-0.2,1.3-0.2c1.3,0,1.7,0.6,1.7,1.5v3h-0.3
			l-0.1-0.4c-0.4,0.3-0.9,0.4-1.3,0.4c-1.2,0-1.6-0.7-1.6-1.4c0-0.7,0.4-1.3,1.6-1.4l1.2-0.1V33C116.1,32.3,115.9,32.1,115.1,32.1
			 M114.9,33.8c-0.6,0.1-0.9,0.4-0.9,0.9c0,0.4,0.1,0.9,0.9,0.9c0.5,0,0.8-0.1,1.2-0.4v-1.5L114.9,33.8z"/>
		<path id="XMLID_17_" class="st0" d="M120.1,36h-0.6v-6.6h2c1.7,0,2.2,1,2.2,2c0,1-0.6,2-2.2,2h-1.4V36z M120.1,32.8h1.5
			c1.2,0,1.5-0.8,1.5-1.4c0-0.6-0.2-1.4-1.5-1.4h-1.5V32.8z"/>
		<path id="XMLID_16_" class="st0" d="M126.4,32.1c-0.6,0-0.9,0.1-1.2,0.3V36h-0.6v-6.6h0.6v2.5c0.4-0.2,0.8-0.4,1.2-0.4
			c1,0,1.5,0.5,1.5,1.3V36h-0.6v-3.2C127.3,32.2,127,32.1,126.4,32.1"/>
		<path id="XMLID_13_" class="st0" d="M130.6,32.1c-0.6,0-1,0.1-1.3,0.2v-0.5c0.4-0.2,0.9-0.2,1.3-0.2c1.3,0,1.7,0.6,1.7,1.5v3h-0.3
			l-0.1-0.4c-0.4,0.3-0.9,0.4-1.3,0.4c-1.2,0-1.5-0.7-1.5-1.4c0-0.7,0.4-1.3,1.6-1.4l1.2-0.1V33C131.7,32.3,131.4,32.1,130.6,32.1
			 M130.5,33.8c-0.6,0.1-0.9,0.4-0.9,0.9c0,0.4,0.1,0.9,0.9,0.9c0.5,0,0.8-0.1,1.2-0.4v-1.5L130.5,33.8z"/>
		<path id="XMLID_12_" class="st0" d="M135.9,32.1c-0.1,0-0.3-0.1-0.5-0.1c-0.6,0-1,0.1-1.3,0.3V36h-0.6v-4.4h0.3l0.1,0.4
			c0.4-0.3,0.9-0.5,1.4-0.5c0.2,0,0.4,0,0.5,0V32.1z"/>
		<path id="XMLID_11_" class="st0" d="M141.9,32.8c0-0.6-0.3-0.8-0.8-0.8c-0.5,0-0.8,0.1-1.2,0.3c0,0.1,0.1,0.3,0.1,0.5V36h-0.6
			v-3.2c0-0.6-0.3-0.8-0.8-0.8c-0.5,0-0.8,0.1-1.2,0.3V36h-0.6v-4.4h0.3l0.1,0.4c0.4-0.3,0.9-0.4,1.3-0.4c0.6,0,1,0.2,1.2,0.5
			c0.5-0.3,0.9-0.5,1.4-0.5c0.9,0,1.5,0.4,1.5,1.3V36h-0.6V32.8z"/>
		<path id="XMLID_8_" class="st0" d="M145.1,32.1c-0.6,0-1,0.1-1.3,0.2v-0.5c0.4-0.2,0.9-0.2,1.3-0.2c1.3,0,1.7,0.6,1.7,1.5v3h-0.3
			l-0.1-0.4c-0.4,0.3-0.9,0.4-1.3,0.4c-1.2,0-1.5-0.7-1.5-1.4c0-0.7,0.4-1.3,1.6-1.4l1.2-0.1V33C146.2,32.3,146,32.1,145.1,32.1
			 M145,33.8c-0.6,0.1-0.9,0.4-0.9,0.9c0,0.4,0.1,0.9,0.9,0.9c0.5,0,0.8-0.1,1.2-0.4v-1.5L145,33.8z"/>
	</g>
	<g id="XMLID_2_">
		<path id="XMLID_6_" class="st0" d="M110.2,0c-0.8,0-1.5,0.2-2.1,0.5c0.3,0.1,0.5,0.3,0.8,0.5c1.5,0.3,2.6,1.6,2.6,3.3
			c0,1.6-1.1,2.9-2.6,3.3c-0.2,0.2-0.5,0.4-0.8,0.5c0.6,0.3,1.3,0.5,2.1,0.5c2.4,0,4.3-1.9,4.3-4.3C114.5,1.9,112.6,0,110.2,0z"/>
		<path id="XMLID_5_" class="st1" d="M104.8,4.3c0-1.6,1.1-2.9,2.6-3.3c0.2-0.2,0.5-0.4,0.8-0.5c-0.6-0.3-1.3-0.5-2-0.5
			c-2.4,0-4.3,1.9-4.3,4.3c0,2.4,1.8,4.3,4.3,4.3c0.7,0,1.4-0.2,2-0.5c-0.3-0.1-0.5-0.3-0.8-0.5C105.9,7.2,104.8,5.9,104.8,4.3z"/>
		<path id="XMLID_4_" class="st1" d="M108.2,7.6c-0.3,0-0.5,0-0.8-0.1c0.2,0.2,0.5,0.4,0.8,0.5c0.3-0.1,0.5-0.3,0.8-0.5
			C108.7,7.6,108.5,7.6,108.2,7.6z"/>
		<path id="XMLID_3_" class="st1" d="M108.2,0.9c0.3,0,0.5,0,0.7,0.1c-0.2-0.2-0.5-0.4-0.8-0.5c-0.3,0.1-0.5,0.3-0.8,0.5
			C107.7,1,107.9,0.9,108.2,0.9z"/>
	</g>
</g>
</svg>
