<!-- Generator: Adobe Illustrator 22.1.0, SVG Export Plug-In  -->
<svg version="1.1"
	 xmlns="http://www.w3.org/2000/svg" xmlns:xlink="http://www.w3.org/1999/xlink" xmlns:a="http://ns.adobe.com/AdobeSVGViewerExtensions/3.0/"
	 x="0px" y="0px" width="633.6px" height="36.3px" viewBox="0 0 633.6 36.3" style="enable-background:new 0 0 633.6 36.3;"
	 xml:space="preserve">
<style type="text/css">
	.st0{fill:#490E67;}
	.st1{fill:#C29FD8;}
</style>
<defs>
</defs>
<g id="XMLID_46_">
	<g id="XMLID_48_">
		<path id="XMLID_158_" d="M170,17.5h8.5V20h-5.4v2.4h3.5v2.4h-3.5v2.7h5.4V30H170V17.5z"/>
		<path id="XMLID_156_" d="M180.8,22.1h-1.2v-0.9l1.1-1c-0.2-0.3-0.3-0.8-0.3-1.5c0-1.9,1.6-2.9,3.3-2.9c1.2,0,1.8,0.3,2.1,0.6v2.4
			c-0.3-0.5-0.7-0.7-1.3-0.7c-0.6,0-1.1,0.3-1.1,1c0,0.3,0.1,0.6,0.2,0.8h3.1c-0.1-0.3-0.2-0.7-0.2-1.2c0-1.9,1.6-2.9,3.5-2.9
			c1.4,0,2.2,0.3,2.5,0.6v2.5c-0.4-0.5-1-0.8-1.8-0.8c-0.9,0-1.3,0.3-1.3,1c0,0.3,0.1,0.6,0.2,0.8h2.1v2.2h-1.9V30h-3v-7.8h-3V30h-3
			V22.1z"/>
		<path id="XMLID_153_" d="M192.6,24.9c0-3.7,2.4-5.4,4.9-5.4c2.4,0,4.7,1,4.7,4.9v1.3h-6.5c0.1,1.1,0.8,2.1,2.7,2.1
			c1.7,0,2.7-0.6,3.3-1.2v2.5c-0.5,0.5-1.7,1.1-3.8,1.1C194.6,30.3,192.6,28.6,192.6,24.9z M199.4,23.9L199.4,23.9
			c0-1.3-0.5-2-1.8-2c-1.2,0-1.8,1-1.9,2H199.4z"/>
		<path id="XMLID_151_" d="M203.3,24.9c0-3.7,2.3-5.4,5.1-5.4c1.5,0,2.6,0.4,3,0.9v2.7c-0.7-0.7-1.4-1-2.6-1c-1.6,0-2.4,1-2.4,2.8
			c0,1.8,0.9,2.8,2.4,2.8c1.1,0,2-0.4,2.6-1.1v2.6c-0.5,0.5-1.6,1.1-3.1,1.1C205.4,30.3,203.3,28.6,203.3,24.9z"/>
		<path id="XMLID_149_" d="M213.6,27v-4.9h-1.2v-1.1l1-1.3l1.8-2.4h1.4v2.4h2.4v2.3h-2.4v4.6c0,0.7,0.2,1.1,0.9,1.1
			c0.7,0,1.2-0.3,1.5-0.9v2.4c-0.3,0.4-1,0.8-2.3,0.8C214.5,30.3,213.6,29.1,213.6,27z"/>
		<path id="XMLID_146_" d="M220.5,17.4c0-0.9,0.6-1.4,1.5-1.4c0.9,0,1.6,0.5,1.6,1.4s-0.6,1.4-1.6,1.4
			C221.1,18.8,220.5,18.3,220.5,17.4z M220.6,19.8h3V30h-3V19.8z"/>
		<path id="XMLID_144_" d="M224.7,19.8h3.2l1.6,4.8l0.3,1.1c0.1-0.3,0.3-0.8,0.3-1.1l1.7-4.8h2.9L230.7,30h-2L224.7,19.8z"/>
		<path id="XMLID_141_" d="M235.4,24.9c0-3.7,2.4-5.4,4.9-5.4c2.4,0,4.7,1,4.7,4.9v1.3h-6.5c0.1,1.1,0.8,2.1,2.7,2.1
			c1.7,0,2.7-0.6,3.3-1.2v2.5c-0.5,0.5-1.7,1.1-3.8,1.1C237.4,30.3,235.4,28.6,235.4,24.9z M242.1,23.9L242.1,23.9
			c0-1.3-0.5-2-1.8-2c-1.2,0-1.8,1-1.9,2H242.1z"/>
		<path id="XMLID_138_" d="M250.9,17.4c0-0.9,0.6-1.4,1.5-1.4c0.9,0,1.6,0.5,1.6,1.4s-0.6,1.4-1.6,1.4
			C251.5,18.8,250.9,18.3,250.9,17.4z M250.9,19.8h3V30h-3V19.8z"/>
		<path id="XMLID_136_" d="M256,19.8h2.6l0.2,0.9c0.4-0.7,1.3-1.2,2.7-1.2c2.6,0,3.7,1.4,3.7,4.1V30h-3v-5.8c0-1.7-0.4-2.3-1.5-2.3
			c-0.9,0-1.4,0.4-1.7,0.8V30h-3V19.8z"/>
		<path id="XMLID_134_" d="M271.8,17.5h2.8l3.7,5.3l3.5-5.3h2.8V30h-3.1v-7.9l-3.2,4.9h-0.1l-3.3-4.8V30h-3.1V17.5z"/>
		<path id="XMLID_131_" d="M286.3,27.3c0-2,1.4-2.9,4.2-3.3l1.5-0.2c0-1.4-0.7-1.8-2-1.8c-1.4,0-2.8,0.7-3.3,1.8v-2.8
			c0.4-0.6,1.5-1.3,3.8-1.3c2.9,0,4.5,1.3,4.5,4.3V30h-2.6l-0.2-0.9c-0.3,0.5-1.1,1.1-2.5,1.1C287.7,30.3,286.3,29.3,286.3,27.3z
			 M292,25.6l-1.1,0.3c-1.3,0.3-1.8,0.6-1.8,1.3c0,0.7,0.5,1,1.2,1c0.8,0,1.5-0.3,1.7-0.7V25.6z"/>
		<path id="XMLID_128_" d="M297,17.4c0-0.9,0.6-1.4,1.5-1.4c0.9,0,1.6,0.5,1.6,1.4s-0.6,1.4-1.6,1.4C297.6,18.8,297,18.3,297,17.4z
			 M297.1,19.8h3V30h-3V19.8z"/>
		<path id="XMLID_126_" d="M302.2,19.8h2.6l0.2,0.9c0.4-0.7,1.3-1.2,2.7-1.2c2.6,0,3.7,1.4,3.7,4.1V30h-3v-5.8
			c0-1.7-0.4-2.3-1.5-2.3c-0.9,0-1.4,0.4-1.7,0.8V30h-3V19.8z"/>
		<path id="XMLID_124_" d="M313.9,27v-4.9h-1.2v-1.1l1-1.3l1.8-2.4h1.4v2.4h2.4v2.3h-2.4v4.6c0,0.7,0.2,1.1,0.9,1.1
			c0.7,0,1.2-0.3,1.5-0.9v2.4c-0.3,0.4-1,0.8-2.3,0.8C314.8,30.3,313.9,29.1,313.9,27z"/>
		<path id="XMLID_121_" d="M320.4,24.9c0-3.7,2.4-5.4,4.9-5.4c2.4,0,4.7,1,4.7,4.9v1.3h-6.5c0.1,1.1,0.8,2.1,2.7,2.1
			c1.7,0,2.7-0.6,3.3-1.2v2.5c-0.5,0.5-1.7,1.1-3.8,1.1C322.4,30.3,320.4,28.6,320.4,24.9z M327.1,23.9L327.1,23.9
			c0-1.3-0.5-2-1.8-2c-1.2,0-1.8,1-1.9,2H327.1z"/>
		<path id="XMLID_119_" d="M331.6,19.8h2.6l0.2,0.9c0.4-0.7,1.3-1.2,2.7-1.2c2.6,0,3.7,1.4,3.7,4.1V30h-3v-5.8
			c0-1.7-0.4-2.3-1.5-2.3c-0.9,0-1.4,0.4-1.7,0.8V30h-3V19.8z"/>
		<path id="XMLID_116_" d="M342.3,27.3c0-2,1.4-2.9,4.2-3.3l1.5-0.2c0-1.4-0.7-1.8-2-1.8c-1.4,0-2.8,0.7-3.3,1.8v-2.8
			c0.4-0.6,1.5-1.3,3.8-1.3c2.9,0,4.5,1.3,4.5,4.3V30h-2.6l-0.2-0.9c-0.3,0.5-1.1,1.1-2.5,1.1C343.7,30.3,342.3,29.3,342.3,27.3z
			 M348.1,25.6l-1.1,0.3c-1.3,0.3-1.8,0.6-1.8,1.3c0,0.7,0.5,1,1.2,1c0.8,0,1.5-0.3,1.7-0.7V25.6z"/>
		<path id="XMLID_114_" d="M353.1,19.8h2.6l0.2,0.9c0.4-0.7,1.3-1.2,2.7-1.2c2.6,0,3.7,1.4,3.7,4.1V30h-3v-5.8
			c0-1.7-0.4-2.3-1.5-2.3c-0.9,0-1.4,0.4-1.7,0.8V30h-3V19.8z"/>
		<path id="XMLID_112_" d="M363.8,24.9c0-3.7,2.3-5.4,5.1-5.4c1.5,0,2.6,0.4,3,0.9v2.7c-0.7-0.7-1.4-1-2.6-1c-1.6,0-2.4,1-2.4,2.8
			c0,1.8,0.9,2.8,2.4,2.8c1.1,0,2-0.4,2.6-1.1v2.6c-0.5,0.5-1.6,1.1-3.1,1.1C365.9,30.3,363.8,28.6,363.8,24.9z"/>
		<path id="XMLID_109_" d="M373.1,24.9c0-3.7,2.4-5.4,4.9-5.4c2.4,0,4.7,1,4.7,4.9v1.3h-6.5c0.1,1.1,0.8,2.1,2.7,2.1
			c1.7,0,2.7-0.6,3.3-1.2v2.5c-0.5,0.5-1.7,1.1-3.8,1.1C375.1,30.3,373.1,28.6,373.1,24.9z M379.9,23.9L379.9,23.9
			c0-1.3-0.5-2-1.8-2c-1.2,0-1.8,1-1.9,2H379.9z"/>
		<path id="XMLID_107_" d="M391.5,20H388v-2.6h9.9V20h-3.4V30h-3.1V20z"/>
		<path id="XMLID_105_" d="M399.3,19.8h2.5l0.2,1.3c0.1-1.1,1-1.6,2-1.6c0.5,0,0.9,0.1,1,0.3v2.7c-0.3-0.2-0.6-0.3-1.2-0.3
			c-0.7,0-1.2,0.3-1.5,0.8V30h-3V19.8z"/>
		<path id="XMLID_102_" d="M405.8,24.9c0-3.7,2.4-5.4,4.9-5.4c2.4,0,4.7,1,4.7,4.9v1.3h-6.5c0.1,1.1,0.8,2.1,2.7,2.1
			c1.7,0,2.7-0.6,3.3-1.2v2.5c-0.5,0.5-1.7,1.1-3.8,1.1C407.8,30.3,405.8,28.6,405.8,24.9z M412.6,23.9L412.6,23.9
			c0-1.3-0.5-2-1.8-2c-1.2,0-1.8,1-1.9,2H412.6z"/>
		<path id="XMLID_99_" d="M416.5,27.3c0-2,1.4-2.9,4.2-3.3l1.5-0.2c0-1.4-0.7-1.8-2-1.8c-1.4,0-2.8,0.7-3.3,1.8v-2.8
			c0.4-0.6,1.5-1.3,3.8-1.3c2.9,0,4.5,1.3,4.5,4.3V30h-2.6l-0.2-0.9c-0.3,0.5-1.1,1.1-2.5,1.1C418,30.3,416.5,29.3,416.5,27.3z
			 M422.3,25.6l-1.1,0.3c-1.3,0.3-1.8,0.6-1.8,1.3c0,0.7,0.5,1,1.2,1c0.8,0,1.5-0.3,1.7-0.7V25.6z"/>
		<path id="XMLID_97_" d="M427.8,27v-4.9h-1.2v-1.1l1-1.3l1.8-2.4h1.4v2.4h2.4v2.3h-2.4v4.6c0,0.7,0.2,1.1,0.9,1.1
			c0.7,0,1.2-0.3,1.5-0.9v2.4c-0.3,0.4-1,0.8-2.3,0.8C428.6,30.3,427.8,29.1,427.8,27z"/>
		<path id="XMLID_95_" d="M434.7,19.8h2.7l0.2,0.9c0.4-0.7,1.4-1.2,2.5-1.2c1.4,0,2.4,0.5,2.9,1.4c0.5-0.7,1.5-1.4,3-1.4
			c2.5,0,3.4,1.4,3.4,4.1V30h-3v-5.8c0-1.6-0.4-2.2-1.4-2.2c-0.7,0-1.3,0.4-1.6,0.8c0.1,0.3,0.1,0.6,0.1,0.9V30h-3v-5.8
			c0-1.6-0.4-2.2-1.3-2.2c-0.8,0-1.3,0.4-1.5,0.8V30h-3V19.8z"/>
		<path id="XMLID_92_" d="M451,24.9c0-3.7,2.4-5.4,4.9-5.4c2.4,0,4.7,1,4.7,4.9v1.3H454c0.1,1.1,0.8,2.1,2.7,2.1
			c1.7,0,2.7-0.6,3.3-1.2v2.5c-0.5,0.5-1.7,1.1-3.8,1.1C453,30.3,451,28.6,451,24.9z M457.7,23.9L457.7,23.9c0-1.3-0.5-2-1.8-2
			c-1.2,0-1.8,1-1.9,2H457.7z"/>
		<path id="XMLID_90_" d="M462.2,19.8h2.6l0.2,0.9c0.4-0.7,1.3-1.2,2.7-1.2c2.6,0,3.7,1.4,3.7,4.1V30h-3v-5.8c0-1.7-0.4-2.3-1.5-2.3
			c-0.9,0-1.4,0.4-1.7,0.8V30h-3V19.8z"/>
		<path id="XMLID_88_" d="M473.9,27v-4.9h-1.2v-1.1l1-1.3l1.8-2.4h1.4v2.4h2.4v2.3h-2.4v4.6c0,0.7,0.2,1.1,0.9,1.1
			c0.7,0,1.2-0.3,1.5-0.9v2.4c-0.3,0.4-1,0.8-2.3,0.8C474.8,30.3,473.9,29.1,473.9,27z"/>
		<path id="XMLID_85_" d="M484.8,24.9c0-3.7,2.4-5.4,5.2-5.4c2.9,0,5,1.6,5,5.4c0,3.8-2.4,5.4-5.2,5.4
			C486.8,30.3,484.8,28.7,484.8,24.9z M491.9,24.9c0-1.8-0.6-2.9-2.1-2.9c-1.4,0-2,1.2-2,2.9c0,1.8,0.6,2.9,2,2.9
			C491.3,27.8,491.9,26.7,491.9,24.9z"/>
		<path id="XMLID_83_" d="M497.1,22.2h-1.2v-1l1.1-1c-0.2-0.3-0.3-0.8-0.3-1.5c0-1.9,1.7-2.9,3.6-2.9c1.4,0,2.2,0.3,2.5,0.6v2.5
			c-0.4-0.5-1.1-0.8-1.8-0.8c-0.9,0-1.3,0.3-1.3,1c0,0.3,0.1,0.6,0.2,0.7h2v2.3h-1.8V30h-3V22.2z"/>
		<path id="XMLID_81_" d="M507.4,29.4v-3c0.6,0.7,1.8,1.4,3.3,1.4c1.4,0,2-0.5,2-1.4c0-0.7-0.5-1-1.7-1.3l-0.5-0.1
			c-2-0.4-3.3-1.5-3.3-3.8c0-2.5,1.8-4,4.7-4c1.9,0,2.9,0.5,3.4,0.9v3c-0.6-0.8-1.8-1.4-3.4-1.4c-1.1,0-1.8,0.4-1.8,1.2
			c0,0.7,0.3,1.1,1.5,1.3l0.5,0.1c2.1,0.4,3.5,1.3,3.5,3.7c0,2.5-1.7,4.2-5,4.2C509,30.3,507.9,29.8,507.4,29.4z"/>
		<path id="XMLID_79_" d="M517,24.9c0-3.7,2.3-5.4,5.1-5.4c1.5,0,2.6,0.4,3,0.9v2.7c-0.7-0.7-1.4-1-2.6-1c-1.6,0-2.4,1-2.4,2.8
			c0,1.8,0.9,2.8,2.4,2.8c1.1,0,2-0.4,2.6-1.1v2.6c-0.5,0.5-1.6,1.1-3.1,1.1C519,30.3,517,28.6,517,24.9z"/>
		<path id="XMLID_77_" d="M526.8,16.2h3v4.4c0.5-0.6,1.4-1,2.6-1c2.6,0,3.6,1.4,3.6,4.1V30h-3v-5.8c0-1.7-0.4-2.3-1.5-2.3
			c-0.9,0-1.4,0.4-1.7,0.8V30h-3V16.2z"/>
		<path id="XMLID_74_" d="M538,17.4c0-0.9,0.6-1.4,1.5-1.4c0.9,0,1.6,0.5,1.6,1.4s-0.6,1.4-1.6,1.4C538.6,18.8,538,18.3,538,17.4z
			 M538,19.8h3V30h-3V19.8z"/>
		<path id="XMLID_72_" d="M542.6,29.1l4.3-6.9h-4.2v-2.3h7.9v0.9l-4.1,6.9h4.1V30h-8V29.1z"/>
		<path id="XMLID_69_" d="M551.7,24.9c0-3.7,2.4-5.4,5.2-5.4c2.9,0,5,1.6,5,5.4c0,3.8-2.4,5.4-5.2,5.4
			C553.8,30.3,551.7,28.7,551.7,24.9z M558.9,24.9c0-1.8-0.6-2.9-2.1-2.9c-1.4,0-2,1.2-2,2.9c0,1.8,0.6,2.9,2,2.9
			C558.2,27.8,558.9,26.7,558.9,24.9z"/>
		<path id="XMLID_66_" d="M563.5,19.8h2.6l0.2,0.9c0.3-0.6,1.2-1.2,2.7-1.2c2.5,0,4.1,1.4,4.1,5.1c0,3.7-2,5.6-4.5,5.6
			c-0.8,0-1.7-0.2-2.2-0.7v3.9h-3V19.8z M570.1,24.8c0-1.8-0.5-2.8-1.9-2.8c-0.9,0-1.4,0.3-1.7,0.8v4.6c0.4,0.5,1,0.6,1.6,0.6
			C569.6,27.9,570.1,26.5,570.1,24.8z"/>
		<path id="XMLID_64_" d="M574.8,16.2h3v4.4c0.5-0.6,1.4-1,2.6-1c2.6,0,3.6,1.4,3.6,4.1V30h-3v-5.8c0-1.7-0.4-2.3-1.5-2.3
			c-0.9,0-1.4,0.4-1.7,0.8V30h-3V16.2z"/>
		<path id="XMLID_62_" d="M586.1,19.8h2.5l0.2,1.3c0.1-1.1,1-1.6,2-1.6c0.5,0,0.9,0.1,1,0.3v2.7c-0.3-0.2-0.6-0.3-1.2-0.3
			c-0.7,0-1.2,0.3-1.5,0.8V30h-3V19.8z"/>
		<path id="XMLID_59_" d="M592.6,24.9c0-3.7,2.4-5.4,4.9-5.4c2.4,0,4.7,1,4.7,4.9v1.3h-6.5c0.1,1.1,0.8,2.1,2.7,2.1
			c1.7,0,2.7-0.6,3.3-1.2v2.5c-0.5,0.5-1.7,1.1-3.8,1.1C594.5,30.3,592.6,28.6,592.6,24.9z M599.3,23.9L599.3,23.9
			c0-1.3-0.5-2-1.8-2c-1.2,0-1.8,1-1.9,2H599.3z"/>
		<path id="XMLID_57_" d="M603.7,19.8h2.6l0.2,0.9c0.4-0.7,1.3-1.2,2.7-1.2c2.6,0,3.7,1.4,3.7,4.1V30h-3v-5.8c0-1.7-0.4-2.3-1.5-2.3
			c-0.9,0-1.4,0.4-1.7,0.8V30h-3V19.8z"/>
		<path id="XMLID_54_" d="M615,17.4c0-0.9,0.6-1.4,1.5-1.4c0.9,0,1.6,0.5,1.6,1.4s-0.6,1.4-1.6,1.4C615.5,18.8,615,18.3,615,17.4z
			 M615,19.8h3V30h-3V19.8z"/>
		<path id="XMLID_51_" d="M619.6,27.3c0-2,1.4-2.9,4.2-3.3l1.5-0.2c0-1.4-0.7-1.8-2-1.8c-1.4,0-2.8,0.7-3.3,1.8v-2.8
			c0.4-0.6,1.5-1.3,3.8-1.3c2.9,0,4.5,1.3,4.5,4.3V30h-2.6l-0.2-0.9c-0.3,0.5-1.1,1.1-2.5,1.1C621,30.3,619.6,29.3,619.6,27.3z
			 M625.3,25.6l-1.1,0.3c-1.3,0.3-1.8,0.6-1.8,1.3c0,0.7,0.5,1,1.2,1c0.8,0,1.5-0.3,1.7-0.7V25.6z"/>
		<path id="XMLID_49_" d="M630,28.5c0-1,0.7-1.8,1.8-1.8c1,0,1.8,0.8,1.8,1.8c0,1-0.8,1.8-1.8,1.8C630.7,30.3,630,29.5,630,28.5z"/>
	</g>
</g>
<g id="XMLID_1_">
	<path id="XMLID_45_" class="st0" d="M14.2,23.5h11.7c1.8,0,2.6-0.4,2.6-1.2c0-0.9-0.6-1.1-1.8-1.2c-5.6-0.5-7.1-2-7.1-5.6
		c0-3.6,2.3-6,7.7-6c3.2,0,4.7,0.4,5.9,0.9V15c-1.6-0.7-3.6-1.1-5.7-1.1c-1.6,0-2.5,0.4-2.5,1.2c0,0.9,0.6,1.1,1.8,1.2
		c5.6,0.5,7.1,2,7.1,5.6c0,3.4-2,6-8,6H15.2"/>
	<path id="XMLID_42_" class="st0" d="M40.4,20.6c-0.1,2.3,1.1,3,3.8,3c2.6,0,4.6-0.5,5.9-1.2v4.4c-2,0.8-4.5,1.2-6.6,1.2
		c-5.8,0-8.6-3-8.6-9.3c0-6.3,2.8-9.3,8.2-9.3c7.5,0,8.1,5.6,7.6,11.2H40.4z M40.4,17.1h5c0.3-1.9-0.1-3.5-2.3-3.5
		C41.2,13.6,40.4,14.9,40.4,17.1"/>
	<path id="XMLID_41_" class="st0" d="M55.7,9.9l0.7,1.3c2-1.2,4.2-1.8,6.1-1.8c4.8,0,6.2,2.5,6.2,5.9v12.2h-5.6V16.2
		c0-1.3-0.5-2.2-2-2.2c-1.4,0-2.6,0.6-3.1,0.9v12.6h-5.6V9.9H55.7z"/>
	<path id="XMLID_38_" class="st0" d="M79.6,15.2c0-0.8-0.6-1.2-2.1-1.2c-2.2,0-4.8,0.7-6.3,1.3v-4.7c1.2-0.5,3.8-1.2,6.3-1.2
		c6.3,0,7.5,2.7,7.5,6.7v11.4h-3.4l-0.8-1.3c-1.3,1.1-3.1,1.8-5.2,1.8c-4.5,0-6-3-6-5.6c0-4.8,3.5-5.5,6.7-5.8l3.2-0.3V15.2z
		 M77.3,19.7c-1.6,0.2-2.2,1-2.2,2.4c0,1.3,0.8,2.1,2,2.1c1,0,2-0.3,2.5-0.8v-3.9L77.3,19.7z"/>
	<path id="XMLID_35_" class="st0" d="M90.4,9.9l1,1.4c1.2-1.1,2.9-1.9,5.7-1.9c4.6,0,6.8,2.8,6.8,9.3c0,6.5-2.3,9.3-6.8,9.3
		c-1.9,0-3.3-0.5-4.4-1.1v9.4H87V9.9H90.4z M92.6,22.7c0,0,1.1,0.7,2.5,0.7c2.6,0,3.2-1.8,3.2-4.8c0-3-0.6-4.7-3.2-4.7
		c-1.4,0-2.5,0.7-2.5,0.7V22.7z"/>
	<path id="XMLID_34_" class="st0" d="M112.4,27.6c0,0-0.7,0.1-1.6,0.1c-3,0-5.4-1.5-5.4-5V9.9h5.6V22c0,0.7,0.3,1.1,1.4,1.1V27.6z"
		/>
	<path id="XMLID_33_" class="st0" d="M117.1,9.9l0.7,1.3c2-1.2,4.2-1.8,6.1-1.8c4.8,0,6.2,2.5,6.2,5.9v12.2h-5.6V16.2
		c0-1.3-0.5-2.2-2-2.2c-1.4,0-2.6,0.6-3.1,0.9v12.6h-5.6V9.9H117.1z"/>
	<path id="XMLID_30_" class="st0" d="M136.9,20.6c-0.1,2.3,1.1,3,3.8,3c2.6,0,4.6-0.5,5.9-1.2v4.4c-2,0.8-4.5,1.2-6.6,1.2
		c-5.8,0-8.6-3-8.6-9.3c0-6.3,2.8-9.3,8.2-9.3c7.5,0,8.1,5.6,7.6,11.2H136.9z M136.9,17.1h5c0.3-1.9-0.1-3.5-2.3-3.5
		C137.7,13.6,136.9,14.9,136.9,17.1"/>
	<polyline id="XMLID_29_" class="st0" points="8.3,22.1 9.4,17.6 12.8,17.6 10.6,7.6 8.3,17.6 7.2,22.1 6,27.5 0,27.5 7.3,0.9 
		13.8,0.9 21.1,27.5 15.1,27.5 13.9,22.1 	"/>
	<g id="XMLID_7_">
		<polygon id="XMLID_28_" class="st0" points="98.2,36 98.2,32.8 94.9,32.8 94.9,36 94.3,36 94.3,29.4 94.9,29.4 94.9,32.3 
			98.2,32.3 98.2,29.4 98.8,29.4 98.8,36 		"/>
		<path id="XMLID_25_" class="st0" d="M100.5,29.8c0.2,0,0.4,0.2,0.4,0.4c0,0.2-0.2,0.4-0.4,0.4c-0.2,0-0.4-0.2-0.4-0.4
			C100,30,100.2,29.8,100.5,29.8 M100.2,35.1v-3.5h0.6v3.6c0,0.3,0.1,0.4,0.4,0.4v0.5C100.5,36.1,100.2,35.8,100.2,35.1"/>
		<polygon id="XMLID_24_" class="st0" points="103.7,33.4 105.8,36 105.1,36 103.3,33.8 102.8,34.3 102.8,36 102.2,36 102.2,29.4 
			102.8,29.4 102.8,33.6 104.8,31.6 105.6,31.6 		"/>
		<path id="XMLID_23_" class="st0" d="M111.8,32.8c0-0.6-0.3-0.8-0.8-0.8c-0.5,0-0.8,0.1-1.2,0.3c0,0.1,0.1,0.3,0.1,0.5V36h-0.6
			v-3.2c0-0.6-0.3-0.8-0.8-0.8c-0.5,0-0.8,0.1-1.1,0.3V36h-0.6v-4.4h0.3l0.1,0.4c0.4-0.3,0.9-0.4,1.3-0.4c0.6,0,1,0.2,1.2,0.5
			c0.5-0.3,0.9-0.5,1.4-0.5c0.9,0,1.5,0.4,1.5,1.3V36h-0.6V32.8z"/>
		<path id="XMLID_20_" class="st0" d="M115.1,32.1c-0.6,0-1,0.1-1.3,0.2v-0.5c0.4-0.2,0.9-0.2,1.3-0.2c1.3,0,1.7,0.6,1.7,1.5v3h-0.3
			l-0.1-0.4c-0.4,0.3-0.9,0.4-1.3,0.4c-1.2,0-1.6-0.7-1.6-1.4c0-0.7,0.4-1.3,1.6-1.4l1.2-0.1V33C116.1,32.3,115.9,32.1,115.1,32.1
			 M114.9,33.8c-0.6,0.1-0.9,0.4-0.9,0.9c0,0.4,0.1,0.9,0.9,0.9c0.5,0,0.8-0.1,1.2-0.4v-1.5L114.9,33.8z"/>
		<path id="XMLID_17_" class="st0" d="M120.1,36h-0.6v-6.6h2c1.7,0,2.2,1,2.2,2c0,1-0.6,2-2.2,2h-1.4V36z M120.1,32.8h1.5
			c1.2,0,1.5-0.8,1.5-1.4c0-0.6-0.2-1.4-1.5-1.4h-1.5V32.8z"/>
		<path id="XMLID_16_" class="st0" d="M126.4,32.1c-0.6,0-0.9,0.1-1.2,0.3V36h-0.6v-6.6h0.6v2.5c0.4-0.2,0.8-0.4,1.2-0.4
			c1,0,1.5,0.5,1.5,1.3V36h-0.6v-3.2C127.3,32.2,127,32.1,126.4,32.1"/>
		<path id="XMLID_13_" class="st0" d="M130.6,32.1c-0.6,0-1,0.1-1.3,0.2v-0.5c0.4-0.2,0.9-0.2,1.3-0.2c1.3,0,1.7,0.6,1.7,1.5v3h-0.3
			l-0.1-0.4c-0.4,0.3-0.9,0.4-1.3,0.4c-1.2,0-1.5-0.7-1.5-1.4c0-0.7,0.4-1.3,1.6-1.4l1.2-0.1V33C131.7,32.3,131.4,32.1,130.6,32.1
			 M130.5,33.8c-0.6,0.1-0.9,0.4-0.9,0.9c0,0.4,0.1,0.9,0.9,0.9c0.5,0,0.8-0.1,1.2-0.4v-1.5L130.5,33.8z"/>
		<path id="XMLID_12_" class="st0" d="M135.9,32.1c-0.1,0-0.3-0.1-0.5-0.1c-0.6,0-1,0.1-1.3,0.3V36h-0.6v-4.4h0.3l0.1,0.4
			c0.4-0.3,0.9-0.5,1.4-0.5c0.2,0,0.4,0,0.5,0V32.1z"/>
		<path id="XMLID_11_" class="st0" d="M141.9,32.8c0-0.6-0.3-0.8-0.8-0.8c-0.5,0-0.8,0.1-1.2,0.3c0,0.1,0.1,0.3,0.1,0.5V36h-0.6
			v-3.2c0-0.6-0.3-0.8-0.8-0.8c-0.5,0-0.8,0.1-1.2,0.3V36h-0.6v-4.4h0.3l0.1,0.4c0.4-0.3,0.9-0.4,1.3-0.4c0.6,0,1,0.2,1.2,0.5
			c0.5-0.3,0.9-0.5,1.4-0.5c0.9,0,1.5,0.4,1.5,1.3V36h-0.6V32.8z"/>
		<path id="XMLID_8_" class="st0" d="M145.1,32.1c-0.6,0-1,0.1-1.3,0.2v-0.5c0.4-0.2,0.9-0.2,1.3-0.2c1.3,0,1.7,0.6,1.7,1.5v3h-0.3
			l-0.1-0.4c-0.4,0.3-0.9,0.4-1.3,0.4c-1.2,0-1.5-0.7-1.5-1.4c0-0.7,0.4-1.3,1.6-1.4l1.2-0.1V33C146.2,32.3,146,32.1,145.1,32.1
			 M145,33.8c-0.6,0.1-0.9,0.4-0.9,0.9c0,0.4,0.1,0.9,0.9,0.9c0.5,0,0.8-0.1,1.2-0.4v-1.5L145,33.8z"/>
	</g>
	<g id="XMLID_2_">
		<path id="XMLID_6_" class="st0" d="M110.2,0c-0.8,0-1.5,0.2-2.1,0.5c0.3,0.1,0.5,0.3,0.8,0.5c1.5,0.3,2.6,1.6,2.6,3.3
			c0,1.6-1.1,2.9-2.6,3.3c-0.2,0.2-0.5,0.4-0.8,0.5c0.6,0.3,1.3,0.5,2.1,0.5c2.4,0,4.3-1.9,4.3-4.3C114.5,1.9,112.6,0,110.2,0z"/>
		<path id="XMLID_5_" class="st1" d="M104.8,4.3c0-1.6,1.1-2.9,2.6-3.3c0.2-0.2,0.5-0.4,0.8-0.5c-0.6-0.3-1.3-0.5-2-0.5
			c-2.4,0-4.3,1.9-4.3,4.3c0,2.4,1.8,4.3,4.3,4.3c0.7,0,1.4-0.2,2-0.5c-0.3-0.1-0.5-0.3-0.8-0.5C105.9,7.2,104.8,5.9,104.8,4.3z"/>
		<path id="XMLID_4_" class="st1" d="M108.2,7.6c-0.3,0-0.5,0-0.8-0.1c0.2,0.2,0.5,0.4,0.8,0.5c0.3-0.1,0.5-0.3,0.8-0.5
			C108.7,7.6,108.5,7.6,108.2,7.6z"/>
		<path id="XMLID_3_" class="st1" d="M108.2,0.9c0.3,0,0.5,0,0.7,0.1c-0.2-0.2-0.5-0.4-0.8-0.5c-0.3,0.1-0.5,0.3-0.8,0.5
			C107.7,1,107.9,0.9,108.2,0.9z"/>
	</g>
</g>
</svg>
