<!-- Generator: Adobe Illustrator 22.1.0, SVG Export Plug-In  -->
<svg version="1.1"
	 xmlns="http://www.w3.org/2000/svg" xmlns:xlink="http://www.w3.org/1999/xlink" xmlns:a="http://ns.adobe.com/AdobeSVGViewerExtensions/3.0/"
	 x="0px" y="0px" width="144.5px" height="145.1px" viewBox="0 0 144.5 145.1" style="enable-background:new 0 0 144.5 145.1;"
	 xml:space="preserve">
<style type="text/css">
	.st0{fill:none;stroke:#669552;stroke-width:4;stroke-miterlimit:10;}
	.st1{fill:#669552;}
	.st2{fill:#FFFFFF;}
	.st3{fill:#684629;}
	.st4{fill:#E99F6D;}
	.st5{fill:#FBC297;}
	.st6{fill:#7C9269;}
	.st7{fill:#7C5833;}
	.st8{fill:#F8AE89;}
	.st9{fill:#343433;}
	.st10{fill:#C6523C;}
	.st11{fill:#F27366;}
	.st12{fill:#B97A4F;}
	.st13{fill:#E25D53;}
	.st14{fill:#575757;}
	.st15{fill:#E26A55;}
	.st16{fill:#A07045;}
</style>
<defs>
</defs>
<circle id="XMLID_108_" class="st0" cx="72.2" cy="72.2" r="70.2"/>
<rect id="XMLID_107_" x="19.8" y="118.3" class="st1" width="104.8" height="26.8"/>
<path id="XMLID_106_" class="st1" d="M116.4,73.4c0,23.8-19.3,43.1-43.1,43.1c-23.8,0-43.1-19.3-43.1-43.1
	c0-23.8,19.3-43.1,43.1-43.1C97,30.3,116.4,49.6,116.4,73.4z"/>
<g id="XMLID_53_">
	<g id="XMLID_55_">
		<path id="XMLID_78_" class="st2" d="M31.7,126.4l-0.3-1h1.9l3.8,9.6h-2l-0.8-2h-3.6l-0.7,2h-1.8L31.7,126.4z M31.3,131.6h2.5
			l-1-2.6l-0.3-0.8l-0.3,0.8L31.3,131.6z"/>
		<path id="XMLID_76_" class="st2" d="M38.1,127.2h1.7l0.1,0.7c0.3-0.5,1-0.9,1.9-0.9c1.1,0,1.9,0.4,2.3,1.1
			c0.3-0.5,1.1-1.1,2.3-1.1c1.9,0,2.7,1.1,2.7,3.2v4.9h-1.8v-4.5c0-1.5-0.4-2.1-1.3-2.1c-0.7,0-1.3,0.4-1.5,0.8
			c0.1,0.3,0.1,0.6,0.1,1v4.9h-1.8v-4.5c0-1.5-0.4-2.1-1.3-2.1c-0.7,0-1.2,0.4-1.4,0.8v5.8h-1.8V127.2z"/>
		<path id="XMLID_73_" class="st2" d="M50.4,131.1c0-2.8,1.8-4.1,3.6-4.1c1.7,0,3.4,0.8,3.4,3.7v1h-5.2c0.1,1.1,0.8,2,2.2,2
			c1.4,0,2.2-0.6,2.6-1.1v1.7c-0.4,0.5-1.3,1-2.8,1C52,135.2,50.4,133.9,50.4,131.1z M55.7,130.4L55.7,130.4c0-1.3-0.6-2-1.7-2
			c-1,0-1.7,1-1.7,2H55.7z"/>
		<path id="XMLID_71_" class="st2" d="M59,127.2h1.7l0.1,0.7c0.3-0.5,1-0.9,2-0.9c2,0,2.8,1.1,2.8,3.2v4.9h-1.8v-4.5
			c0-1.5-0.4-2.1-1.4-2.1c-0.9,0-1.4,0.4-1.6,0.8v5.8H59V127.2z"/>
		<path id="XMLID_68_" class="st2" d="M67,131.1c0-2.8,1.8-4.1,3.8-4.1c2.1,0,3.6,1.3,3.6,4.1c0,2.8-1.8,4.1-3.8,4.1
			C68.5,135.2,67,133.9,67,131.1z M72.7,131.1c0-1.5-0.6-2.6-1.9-2.6c-1.3,0-1.9,1.1-1.9,2.6c0,1.6,0.6,2.6,1.9,2.6
			C72.1,133.7,72.7,132.6,72.7,131.1z"/>
		<path id="XMLID_66_" class="st2" d="M76,127.2h1.6l0.1,1.1c0.1-0.8,0.8-1.3,1.5-1.3c0.4,0,0.7,0.1,0.8,0.2v1.7
			c-0.2-0.1-0.5-0.2-0.9-0.2c-0.6,0-1.1,0.3-1.3,0.8v5.6H76V127.2z"/>
		<path id="XMLID_64_" class="st2" d="M81.2,127.2h1.6l0.1,1.1c0.1-0.8,0.8-1.3,1.5-1.3c0.4,0,0.7,0.1,0.8,0.2v1.7
			c-0.2-0.1-0.5-0.2-0.9-0.2c-0.6,0-1.1,0.3-1.3,0.8v5.6h-1.8V127.2z"/>
		<path id="XMLID_62_" class="st2" d="M86.5,124.3h1.8v3.5c0.3-0.5,1-0.9,2-0.9c2,0,2.8,1.1,2.8,3.2v4.9h-1.8v-4.5
			c0-1.5-0.4-2.1-1.4-2.1c-0.8,0-1.4,0.4-1.6,0.8v5.8h-1.8V124.3z"/>
		<path id="XMLID_59_" class="st2" d="M94.5,131.1c0-2.8,1.8-4.1,3.6-4.1c1.7,0,3.4,0.8,3.4,3.7v1h-5.2c0.1,1.1,0.8,2,2.2,2
			c1.4,0,2.2-0.6,2.6-1.1v1.7c-0.4,0.5-1.3,1-2.8,1C96.1,135.2,94.5,133.9,94.5,131.1z M99.8,130.4L99.8,130.4c0-1.3-0.6-2-1.7-2
			c-1,0-1.7,1-1.7,2H99.8z"/>
		<path id="XMLID_56_" class="st2" d="M102.6,133c0-1.6,1.2-2.2,3.4-2.6l1.2-0.2c0-1.4-0.7-1.8-1.8-1.8c-1.1,0-2.1,0.6-2.5,1.5v-1.9
			c0.3-0.5,1.1-1.1,2.8-1.1c2.1,0,3.3,1.1,3.3,3.3v4.7h-1.7l-0.1-0.7c-0.2,0.4-0.8,0.9-1.9,0.9C103.8,135.2,102.6,134.6,102.6,133z
			 M107.1,131.4l-1,0.2c-1.3,0.3-1.7,0.6-1.7,1.3c0,0.6,0.4,0.9,1.1,0.9c0.7,0,1.4-0.3,1.6-0.7V131.4z"/>
	</g>
</g>
<g id="XMLID_1_">
	<path id="XMLID_52_" class="st3" d="M87.7,38.1c0,8.1-6.3,14.7-14.1,14.7c-9.9-0.1-14.1-6.6-14.1-14.7c0-8.1,6.3-14.7,14.1-14.7
		C81.4,23.4,87.7,30,87.7,38.1z"/>
	<path id="XMLID_51_" class="st4" d="M68.7,52.4v2.5c1.7,1.2,3.2,1.9,4,2.3c0.3,0.2,0.7,0.2,1,0c0.8-0.3,2.6-1.1,4.6-2.4v-2.4H68.7z
		"/>
	<path id="XMLID_50_" class="st5" d="M84.7,40.2c-0.3-0.1-0.6-0.1-1,0.1c0.3-3.3,0.5-6.6,0-7.4c-2.4-3.7-6.4-5.9-10.5-6.1h0l0,0
		c-4.1,0.2-8.1,2.3-10.5,6.1c-0.5,0.8-0.3,4,0,7.3c-0.2-0.1-0.5-0.1-0.7,0c-1,0.3-1.3,1.9-0.8,3.5c0.5,1.3,1.4,2.3,2.2,2.4
		c0.1,0.9,0.2,1.5,0.2,1.5c2,5.3,7.2,7.9,9,8.6c0.3,0.1,0.7,0.2,1,0c1.7-0.7,7-3.3,9-8.6c0,0,0.1-0.6,0.2-1.5c0.9,0.1,2-0.9,2.5-2.4
		C86,42.1,85.6,40.5,84.7,40.2z"/>
	<path id="XMLID_49_" class="st3" d="M76,38.9c0.3-0.2,2.6-2,5.1-0.2c1.5,1.1-0.8-0.5-1.9-0.4c-1.4,0.2-2.5,0.9-2.9,1.2
		C75.8,39.7,75.6,39.2,76,38.9z"/>
	<path id="XMLID_48_" class="st3" d="M70.6,38.9c-0.3-0.2-2.5-2-4.9-0.2c-1.5,1.1,0.8-0.5,1.9-0.4c1.4,0.2,2.4,0.8,2.8,1.1
		C70.7,39.7,70.9,39.2,70.6,38.9z"/>
	<path id="XMLID_47_" class="st5" d="M94.1,66.2c-1-1.9-3.1-3-4.5-3l-7.1-1.1c-2.2-0.7-4.2-3-4.2-4.4c0,0,0-3.9,0-3.9
		c-2.7,1.3-5.1,2-5.1,2s-2-0.6-4.5-2c0,0,0,3.8,0,3.8c0,1.4-2.4,3.8-4.7,4.5l-7.1,1.1c-1.4,0-4.1,1.7-5,4c-1.4,3.1-3.5,9.3-8.6,21.6
		c0.3,4.3,4.9,7.1,7.4,4.3c2.2-2.4,5.4-11.3,7.2-16.6h31.4c2.7,4.6,6.7,11.8,6.8,14.9c0,2.5,6.9,4.1,6.7-2.3
		C102.9,83.4,96.6,70.4,94.1,66.2z"/>
	<path id="XMLID_46_" class="st2" d="M70.7,41.8c-1.2,0.4-1.7,0.7-2.4,0.7c-1,0-1.8-0.5-1.8-1.1c0-0.6,0.8-1.1,1.7-1.1
		C69.3,40.3,70.6,41.4,70.7,41.8z"/>
	<path id="XMLID_45_" class="st6" d="M69.3,41.4c0,0.6-0.5,1.1-1,1.1c-0.6,0-1-0.5-1-1.1c0-0.6,0.5-1.1,1-1.1
		C68.9,40.4,69.3,40.8,69.3,41.4z"/>
	<path id="XMLID_44_" d="M69,41.3c0,0.4-0.3,0.7-0.7,0.7c-0.4,0-0.7-0.3-0.7-0.7c0-0.4,0.3-0.7,0.7-0.7C68.7,40.6,69,40.9,69,41.3z"
		/>
	<path id="XMLID_43_" class="st2" d="M69.1,41.2c0,0.1-0.1,0.3-0.3,0.3c-0.2,0-0.3-0.1-0.3-0.3c0-0.1,0.1-0.3,0.3-0.3
		C69,41,69.1,41.1,69.1,41.2z"/>
	<path id="XMLID_42_" d="M70.6,41.6c-0.8-1.4-2.6-1.5-3.7-1c-1,0.4-1.2,0.2-1.3,0.1c0,0.4,0.5,1.2,1.6,1.6c-0.3-0.2-0.5-0.4-0.6-0.6
		c0.1-0.6,1.5-1,2.4-0.7c1.3,0.4,1.7,0.9,1.7,0.9C70.7,41.7,70.6,41.6,70.6,41.6z"/>
	<path id="XMLID_41_" class="st2" d="M75.8,41.8c1.2,0.4,1.7,0.7,2.4,0.7c1,0,1.8-0.5,1.8-1.1c0-0.6-0.8-1.1-1.8-1.1
		C77.2,40.3,75.9,41.4,75.8,41.8z"/>
	<path id="XMLID_40_" class="st6" d="M77.2,41.4c0,0.6,0.5,1.1,1,1.1c0.6,0,1-0.5,1-1.1c0-0.6-0.5-1.1-1-1.1
		C77.7,40.4,77.2,40.8,77.2,41.4z"/>
	<path id="XMLID_39_" d="M77.5,41.3c0,0.4,0.3,0.7,0.7,0.7c0.4,0,0.7-0.3,0.7-0.7c0-0.4-0.3-0.7-0.7-0.7
		C77.8,40.6,77.5,40.9,77.5,41.3z"/>
	<path id="XMLID_38_" class="st2" d="M78.5,41.3c0,0.1,0.1,0.3,0.3,0.3c0.2,0,0.3-0.1,0.3-0.3c0-0.1-0.1-0.3-0.3-0.3
		C78.6,41,78.5,41.1,78.5,41.3z"/>
	<path id="XMLID_37_" d="M81,40.6c0,0.1-0.2,0.2-1.3-0.1c-1.2-0.4-3-0.4-3.8,1c0,0.1-0.1,0.2-0.1,0.3c0,0,0.3-0.5,1.7-0.9
		c0.9-0.3,2.3,0.1,2.4,0.7c-0.1,0.2-0.3,0.5-0.6,0.6C80,42,81,41.4,81,40.6z"/>
	<path id="XMLID_36_" class="st7" d="M87.7,36.1c0-7-6.3-12.7-14.1-12.7c-7.8,0-14.1,5.7-14.1,12.7c0,2.4,0.5,4.5,1.5,6.4
		c-0.1-1.1,0.3-2.1,1-2.3c0.2-0.1,0.3-0.1,0.5,0c0.4,1.5,0.8,2.5,0.8,1.7c0-1,0.2-2.7,0.4-4.1c2.3-2.6,5.5-5.1,10-6.2
		c3.9,0.8,7.9,3.9,9.6,6.6c0.1,1.2,0.3,2.8,0.3,3.6c0,0.8,0.4-0.2,0.7-1.6c0.1,0,0.3,0,0.4,0.1c0.8,0.3,1.1,1.3,1,2.5
		C86.9,40.8,87.7,38.5,87.7,36.1z"/>
	<path id="XMLID_35_" class="st4" d="M73.9,46.9h-1.3c-0.4,0-0.8-0.3-1-0.7c0,0.1-0.1,0.3-0.1,0.4c0,0.6,0.8,0.8,1.3,0.8h0.7
		c0.6,0,1.3-0.2,1.3-0.8c0-0.1,0-0.3-0.1-0.4C74.7,46.6,74.3,46.9,73.9,46.9z"/>
	<path id="XMLID_34_" class="st4" d="M61.4,41.4c0-0.1,0.2-0.7,0.6-0.6c0.5,0.2,0.8,1.1,1,2.1c0.2,1,0.1,1.6,0,1.4
		c-0.2-0.4-0.3-1.5-0.9-2.6C61.7,40.9,61.5,42.4,61.4,41.4z"/>
	<path id="XMLID_33_" class="st4" d="M85.3,41.4c0-0.1-0.2-0.7-0.6-0.6c-0.5,0.2-0.8,1.1-1,2.1c-0.2,1-0.1,1.6,0,1.4
		c0.2-0.4,0.3-1.5,0.9-2.6C85,40.9,85.3,42.4,85.3,41.4z"/>
	<path id="XMLID_32_" class="st8" d="M69.4,46c-0.3,0.8-1.5,1.1-2.8,0.7c-1.3-0.4-2.2-1.4-1.9-2.2c0.3-0.8,1.5-1.1,2.8-0.7
		C68.8,44.2,69.6,45.1,69.4,46z"/>
	<path id="XMLID_31_" class="st8" d="M77,46c0.3,0.8,1.5,1.1,2.8,0.7c1.3-0.4,2.2-1.4,1.9-2.2c-0.3-0.8-1.5-1.1-2.8-0.7
		C77.6,44.2,76.7,45.1,77,46z"/>
	<path id="XMLID_30_" class="st9" d="M89.5,63.2l-6-0.9c0.4,6.3-21.1,5.7-20.8,0l-5.9,0.9c1.5,6.3,0.2,14.1,0.4,14.4
		c-0.3,0.8-0.5,1.7-0.5,2.6c0,3.1,1.9,5.8,4.6,6.9c0.4,1.6,0.8,3.3,1,5c0.5,3.4,0.7,6.7,0.6,9.8c-2.1,1.6-3.8,3.5-5,5.8
		c-1,1.8-1.7,3.7-2.1,5.8c5.3,2.3,11.1,3.6,17.2,3.6c6.3,0,12.3-1.3,17.7-3.8c-0.4-2-1.1-4-2.1-5.7c-1.3-2.3-3-4.3-5.1-5.8
		c-0.1-3,0.1-6.3,0.6-9.7c0.2-1.7,0.6-3.3,1-4.9c2.7-1.1,4.5-3.8,4.5-6.8c0-0.9-0.2-1.7-0.4-2.5C89.6,77.5,88.3,67.7,89.5,63.2z"/>
	<path id="XMLID_29_" class="st10" d="M70,49.4c-0.4-0.2-0.5-0.1-0.5,0c-0.1,0.1-0.1,0.1,0.2,0.4c0.1,0.2,0.5,0.7,0.5,0.7
		s1.1,2.1,3.2,2c2.1-0.1,2.9-1.8,3.1-2.1c0.1-0.2,0.3-0.5,0.4-0.6c0.2-0.4,0.2-0.4,0.1-0.4c-0.1-0.2-0.2-0.1-0.4,0.1
		c-0.1,0-1.7,0.3-3.4,0.3C71.5,49.6,70.3,49.5,70,49.4z"/>
	<path id="XMLID_28_" class="st2" d="M75.1,50.6c0.5-0.2,0.6-0.6,0.8-1.1c-0.6,0.1-1.8,0.2-3,0.2c-0.9,0-1.9-0.1-2.6-0.2
		c0.1,0.6,0.2,0.7,0.8,0.9c-0.4,0-0.5,0.4-0.4,0.9c0.6,0.5,1.7,1.1,2.6,1c1.3,0,2.1-0.4,2.5-1C75.7,51,75.5,50.6,75.1,50.6z"/>
	<path id="XMLID_27_" class="st11" d="M70.1,49.4c0,0,0.1,0.6,2.9,0.5c2.7,0,3.3-0.5,3.3-0.5s-2.1-0.2-3.2-0.2
		C72,49.2,70.1,49.4,70.1,49.4z"/>
	<path id="XMLID_26_" class="st11" d="M69.8,50c0,0,0.5,2.6,3.2,2.7c2.6,0.1,3.6-2.7,3.6-2.7s-1,1.5-3.4,1.6
		C70.9,51.6,69.8,50,69.8,50z"/>
	<path id="XMLID_25_" class="st4" d="M53.1,75.6c-0.3,0-3.2-0.3-3.4,0.3c0,0.1-0.1,0.9-0.1,0.9c-0.2,0-0.4,0-0.5,0
		c-0.5,0-1.6-0.1-1.4,0.8c0,0,0,0.2,0.1,0.3c-0.4,0.2-1.4,0.8-1.6,1c-0.2,0.2-0.1,0.4,0.1,0.8c0.4,1.2,1.1,2.6,1.3,3.1l-3.5,4.4l0,0
		c-0.1,0.1-0.1,0.2-0.2,0.4c-0.7,1.7-0.5,4.3,0.9,6.5c1.2,1.9,2.5,2,4.3,0c1.2-1.3,2.8-3.4,4-5.2V75.7
		C53.2,75.6,53.2,75.6,53.1,75.6z"/>
	<path id="XMLID_24_" class="st5" d="M54.1,78.6c-0.4-0.1-0.6-0.3-0.8-0.5c-0.6,0.7-1.3,1.8-1.3,1.8s-2.6,0.4-3.1,1.1
		c-0.4,0.7-1.3,0.6-1.1,1.3c0,0.1,0.1,0.3,0.3,0.6c0.4,0.7,1.2,1.8,1.8,2.7c0.3,0.4-5.1-0.4-6.2,2.4c-0.7,1.7-0.5,4.3,0.9,6.5
		c1.2,1.9,3.4,2,5.2,0c1.3-1.4,3-3.7,4.3-5.6V78.6z"/>
	<path id="XMLID_23_" class="st5" d="M53.7,76c-0.3,0-3.3-0.2-3.4,0.2c0,0.2-0.1,0.6-0.1,1.1c0.5,0,2.5,0.1,2.8,0.1
		c0.2,0.1,0.6,1.5,1.9,0.9c0,0-0.6-1.5-0.8-1.8C54,76.1,53.9,76,53.7,76z"/>
	<path id="XMLID_22_" class="st4" d="M52,77.4c0-0.2-0.4-0.4-0.5-0.4c-0.2,0-0.7-0.1-1.2-0.1c0,0.4-0.1,0.7,0.2,1.8
		c0,0,0.1,0,0.1,0.1c0.1,0.1,0.2,0.5,0.3,0.8c0.2,0.5,0.7,0.6,1.1,0.6c0.2,0,0.5,0,0.5,0S52,77.7,52,77.4z"/>
	<path id="XMLID_21_" class="st5" d="M51.3,77.2c-0.2,0-1.2-0.1-1.6-0.1c-0.5,0-1.6-0.1-1.4,0.8c0,0,0.2,0,0.2,0
		c0.2-0.1,0.5-0.2,0.7,0.1c0.2,0.2,1.1,1.3,1.2,1.5l-0.4-0.9c0,0,0.3-0.2,0.5,0c0.1,0.1,0.2,0.5,0.3,0.8c0.4,0.9,1.3,0.7,1.3,0.7
		s-0.3-2-0.4-2.3C51.7,77.4,51.5,77.2,51.3,77.2z"/>
	<path id="XMLID_20_" class="st12" d="M50.7,80.1C50.7,80.1,50.7,80.1,50.7,80.1L50.7,80.1C50.7,80.1,50.7,80.1,50.7,80.1z"/>
	<path id="XMLID_19_" class="st4" d="M48.4,77.6c0,0-0.2,0.1-0.3,0.1c0.1,0.4,0.5,1.4,0.7,2c0.1,0.1,0.3,0.3,0.5,0.6
		c0.4,0.4,1.6-0.2,1.7-0.2c0,0-1.6-2.2-1.8-2.4C48.9,77.4,48.6,77.5,48.4,77.6z"/>
	<path id="XMLID_18_" class="st5" d="M46.8,80c-0.2-0.5-0.3-0.6-0.1-0.8s1.6-1,1.8-1.1c0.2-0.1,0.5-0.2,0.7,0.1
		c0.2,0.2,1.4,1.8,1.4,1.8s-1.1,0.5-1.5,0c-0.5-0.5-0.5-0.5-0.5-0.5l-0.3,0.3l0.9,1.4L48,82.5C48,82.5,47.3,81.3,46.8,80z"/>
	<path id="XMLID_17_" class="st13" d="M52.2,80L52,78.6c0,0-0.1,0-0.3,0c-0.1,0.1,0,1.2,0.1,1.3C51.9,80,52.2,80,52.2,80z"/>
	<path id="XMLID_16_" class="st13" d="M50.7,79.9l-0.8-1c0,0-0.1,0-0.2,0.1c-0.1,0.1,0.5,0.9,0.6,0.9C50.5,80,50.7,79.9,50.7,79.9z"
		/>
	<path id="XMLID_15_" class="st14" d="M74.8,89.5H53.6c-0.3,0-0.5-0.2-0.5-0.5V74.2c0-0.3,0.2-0.5,0.5-0.5h21.1
		c0.3,0,0.5,0.2,0.5,0.5V89C75.3,89.3,75.1,89.5,74.8,89.5z"/>
	<path id="XMLID_14_" class="st5" d="M69.8,81.5c0,0,0.1,0.8,0.9,1c0.8,0.2,3.4-0.5,3.4-0.5l2.2,2c0,0,1.7-0.2,1.5-1
		c-0.7-0.6-1.9-2-2.4-2.3c-0.5-0.3-1-0.4-1.6-0.2C73.2,80.6,69.8,81.5,69.8,81.5z"/>
	<path id="XMLID_13_" class="st5" d="M101.6,86.3c-2-0.8-6.8-0.7-9.3,0.2c-4.8,1.7-10.7,0-10.7,0l0,0c-0.1-0.1-3.8-3.6-3.8-3.6
		l-2.3,0.5l-2.8,4.1c0,0,0.5,0.2,0.8,0.4c0.3,0.2,3.6,2.8,5,2.8c0.2,0,0.5,0,0.7-0.1c1.9,0.6,10.2,3.3,17.5,3.3c4.4,0,4.7-1,6-2.5
		C103.3,88.6,102.3,86.1,101.6,86.3z"/>
	<path id="XMLID_12_" class="st15" d="M69.8,81.5l1.5-0.4c0,0,0.1,0.1,0.1,0.3c0,0.2-1.1,0.5-1.3,0.4C69.9,81.7,69.8,81.5,69.8,81.5
		z"/>
	<path id="XMLID_11_" class="st5" d="M74.9,86.7c-0.3-0.1-0.6-0.1-0.8-0.2c-0.1,0.1-0.1,0.1-0.2,0.2c-0.4-0.1-4.9-1.3-5.5-1.5
		c-0.1,0-0.3-0.1-0.4-0.1c-0.1,0-0.2,0.2-0.2,0.2c-0.1,0.4,0.6,0.8,1.1,1c0.5,0.2,5.1,1.8,5.5,1.9C74.9,88,76.1,87,74.9,86.7z"/>
	<path id="XMLID_10_" class="st4" d="M73.9,86.7c0,0,0.1-0.1,0.2-0.2c-1.3-0.3-2.1-0.6-2.7-0.8c-0.7-0.2-1.9-0.5-2.6-0.7
		c-0.2,0-0.5-0.1-0.7,0.1c0.1,0.1,0.3,0.1,0.4,0.1C69,85.4,73.5,86.6,73.9,86.7z"/>
	<path id="XMLID_9_" class="st15" d="M68.8,85.9c0,0,0.2-0.4,0.2-0.5c-0.1-0.1-0.7-0.3-0.8-0.3C68,85,67.8,85.2,68,85.5
		C68.2,85.7,68.8,85.9,68.8,85.9z"/>
	<path id="XMLID_8_" class="st5" d="M75.6,84.8c-2.1-0.2-3.3-0.5-4.2-0.6c-0.8-0.1-2.2-0.3-3.1-0.4c-0.3,0-0.8,0.1-0.9,0.5
		c-0.1,0.5,0.8,0.8,1.4,1c0.6,0.2,6.1,1.4,6.6,1.5C75.8,86.4,77,85,75.6,84.8z"/>
	<path id="XMLID_7_" class="st15" d="M68.5,85c0,0,0.2-0.4,0.1-0.6c-0.2-0.1-0.8-0.4-1-0.4c-0.2,0-0.5,0.4-0.2,0.7
		C67.7,84.9,68.5,85,68.5,85z"/>
	<path id="XMLID_6_" class="st4" d="M74.8,83.3c-1.9,0-3-0.1-3.9-0.2c-0.7,0-2.1-0.1-2.9-0.1c-0.3,0-0.7,0.2-0.7,0.6
		c0,0.5,0.7,0.6,1.3,0.7c0.3,0,1.3,0.2,2.8,0.4c1.5,0.1,3.1,0.4,3.3,0.4C75.1,84.8,76.1,83.3,74.8,83.3z"/>
	<path id="XMLID_5_" class="st5" d="M75.5,83.1c-2.1,0-3.3,0-4.3,0c-0.8,0-2.3,0-3.1,0c-0.3,0-0.8,0.2-0.8,0.6
		c0,0.5,0.9,0.7,1.6,0.8c0.3,0,1.5,0,2.8,0.1c1.7,0.1,3.6,0.3,3.9,0.4C75.9,84.5,77,83,75.5,83.1z"/>
	<path id="XMLID_4_" class="st15" d="M68.7,84c0,0,0.1-0.5,0.1-0.7c-0.2-0.1-1-0.1-1.1-0.1c-0.3,0-0.6,0.4-0.2,0.7
		C67.7,84,68.7,84,68.7,84z"/>
	<path id="XMLID_3_" class="st16" d="M73.7,29.6c0,0,6.5,1.2,8.6,4.9c-0.3-0.8-1.2-3.4-7.8-5.5c3.9,0.4,7.2,2.1,9.4,4
		c-1-1.4-2.1-2.8-6.3-5.1c0.9-0.1,4.2,1.3,4.7,1.7c-0.5-0.5-0.7-1.5-4.5-3.2c1.4,0.3,4.4,1.9,5.3,2.4c-2.5-3-6.9-4.2-9.5-4.2
		C73.7,25.6,73.7,29.6,73.7,29.6z"/>
	<path id="XMLID_2_" class="st16" d="M73.3,29.6c0,0-6.5,1.3-8.6,4.9c0.3-0.9,1.2-3.4,7.7-5.5c-3.9,0.5-7.2,2.1-9.4,4
		c1-1.4,2.1-2.8,6.3-5.1c-0.9-0.1-4.2,1.3-4.7,1.7c0.5-0.5,0.7-1.5,4.4-3.3c-1.4,0.3-4.4,1.9-5.3,2.4c2.5-3,6.7-4.2,9.3-4.2
		C73.2,25.6,73.3,29.6,73.3,29.6z"/>
</g>
</svg>
