<!-- Generator: Adobe Illustrator 22.1.0, SVG Export Plug-In  -->
<svg version="1.1"
	 xmlns="http://www.w3.org/2000/svg" xmlns:xlink="http://www.w3.org/1999/xlink" xmlns:a="http://ns.adobe.com/AdobeSVGViewerExtensions/3.0/"
	 x="0px" y="0px" width="144.5px" height="145.1px" viewBox="0 0 144.5 145.1" style="enable-background:new 0 0 144.5 145.1;"
	 xml:space="preserve">
<style type="text/css">
	.st0{fill:none;stroke:#669552;stroke-width:4;stroke-miterlimit:10;}
	.st1{fill:#669552;}
	.st2{fill-rule:evenodd;clip-rule:evenodd;fill:#FFFFFF;}
	.st3{fill:#FFFFFF;}
</style>
<defs>
</defs>
<circle id="XMLID_75_" class="st0" cx="72.2" cy="72.2" r="70.2"/>
<rect id="XMLID_74_" x="19.8" y="118.3" class="st1" width="104.8" height="26.8"/>
<path id="XMLID_73_" class="st1" d="M116.4,73.4c0,23.8-19.3,43.1-43.1,43.1c-23.8,0-43.1-19.3-43.1-43.1
	c0-23.8,19.3-43.1,43.1-43.1C97,30.3,116.4,49.6,116.4,73.4z"/>
<g id="XMLID_66_">
	<path id="XMLID_70_" class="st2" d="M91.3,70.4c2.2-2.2,4.4-4.4,6.6-6.6c-1.6,0-3.2,0-4.8,0c0-1.1,0-2.1,0-3.2c3.4,0,6.8,0,10.3,0
		c0,3.4,0,6.9,0,10.4c-1,0-2,0-3.1,0c0-1.6,0-3.3,0-5c-0.1,0.1-0.2,0.1-0.3,0.2c-2.1,2.1-4.1,4.1-6.2,6.2c-0.2,0.2-0.2,0.4,0,0.6
		c5.4,7.2,2.1,17.6-6.4,20.4C79.5,96.1,71.2,91,70,82.8c-1-7.1,3.9-13.8,10.9-14.9c3.7-0.6,7,0.2,10.1,2.4
		C91.1,70.3,91.2,70.4,91.3,70.4z M83.1,91c5.5,0,10.1-4.5,10.2-9.9c0.1-5.5-4.3-10.3-10.2-10.3c-5.5,0-10,4.6-10,10
		C73,86.5,77.5,91,83.1,91z"/>
	<path id="XMLID_67_" class="st2" d="M57.9,79.1c0,1.8,0,3.5,0,5.3c1.5,0,3,0,4.5,0c0,1.1,0,2.1,0,3.1c-1.5,0-3,0-4.5,0
		c0,1.6,0,3.2,0,4.9c-1,0-2.1,0-3.1,0c0-1.6,0-3.2,0-4.9c-1.5,0-3,0-4.5,0c0-1.1,0-2.1,0-3.1c1.5,0,3,0,4.5,0c0-1.8,0-3.5,0-5.3
		c-7.4-1-12.3-7.5-11.6-14.6c0.7-6.9,6.7-12.2,13.8-11.8c6.7,0.3,12,5.5,12.6,12C70.2,71.9,65.1,78.2,57.9,79.1z M56.2,76.1
		c5.5,0.1,10.1-4.4,10.2-9.9c0.1-5.8-4.5-10.2-9.8-10.4c-5.5-0.1-10.3,4.2-10.4,9.9C46.1,71.4,50.6,76,56.2,76.1z"/>
</g>
<g id="XMLID_1_">
	<g id="XMLID_3_">
		<path id="XMLID_33_" class="st3" d="M24,135.1v-2c0.4,0.6,1.3,1.1,2.4,1.1c1.1,0,1.8-0.5,1.8-1.4c0-0.7-0.4-1-1.5-1.3l-0.4-0.1
			c-1.5-0.4-2.4-1.2-2.4-2.8c0-1.9,1.3-3,3.4-3c1.3,0,2.1,0.4,2.4,0.7v2c-0.4-0.6-1.3-1.1-2.5-1.1c-1,0-1.6,0.4-1.6,1.2
			c0,0.7,0.3,1,1.4,1.3l0.4,0.1c1.6,0.4,2.4,1.2,2.4,2.7c0,1.9-1.3,3.2-3.6,3.2C25,135.8,24.3,135.4,24,135.1z"/>
		<path id="XMLID_30_" class="st3" d="M31.1,131.7c0-2.8,1.8-4.1,3.6-4.1c1.7,0,3.4,0.8,3.4,3.7v1H33c0.1,1.1,0.8,2,2.2,2
			c1.4,0,2.2-0.6,2.6-1.1v1.7c-0.4,0.5-1.3,1-2.8,1C32.7,135.8,31.1,134.5,31.1,131.7z M36.4,131L36.4,131c0-1.3-0.6-2-1.7-2
			c-1,0-1.7,1-1.7,2H36.4z"/>
		<path id="XMLID_28_" class="st3" d="M41.6,131.5l-2.5-3.7h2l1.6,2.4l1.5-2.4H46l-2.5,3.6l2.8,4.2h-2l-1.9-2.8l-1.8,2.8h-1.9
			L41.6,131.5z"/>
		<path id="XMLID_26_" class="st3" d="M47.3,132.6v-4.9h1.8v4.5c0,1.5,0.3,2.1,1.4,2.1c0.9,0,1.3-0.4,1.5-0.8v-5.8h1.8v7.8h-1.7
			l-0.1-0.7c-0.3,0.5-1,0.9-2,0.9C48,135.8,47.3,134.7,47.3,132.6z"/>
		<path id="XMLID_23_" class="st3" d="M55.3,133.6c0-1.6,1.2-2.2,3.4-2.6l1.2-0.2c0-1.4-0.7-1.8-1.8-1.8c-1.1,0-2.1,0.6-2.5,1.5
			v-1.9c0.3-0.5,1.1-1.1,2.8-1.1c2.1,0,3.3,1.1,3.3,3.3v4.7H60l-0.1-0.7c-0.2,0.4-0.8,0.9-1.9,0.9C56.5,135.8,55.3,135.1,55.3,133.6
			z M59.8,132l-1,0.2c-1.3,0.3-1.7,0.6-1.7,1.3c0,0.6,0.4,0.9,1.1,0.9c0.7,0,1.4-0.3,1.6-0.7V132z"/>
		<path id="XMLID_21_" class="st3" d="M63.4,133.8v-8.9h1.8v8.7c0,0.5,0.2,0.7,0.6,0.7c0.4,0,0.6-0.2,0.7-0.4v1.4
			c-0.1,0.2-0.5,0.5-1.2,0.5C64,135.8,63.4,135.1,63.4,133.8z"/>
		<path id="XMLID_19_" class="st3" d="M73.3,127.6h-2.8V126h7.4v1.6h-2.7v8h-1.9V127.6z"/>
		<path id="XMLID_17_" class="st3" d="M79.1,127.8h1.6l0.1,1.1c0.1-0.8,0.8-1.3,1.5-1.3c0.4,0,0.7,0.1,0.8,0.2v1.7
			c-0.2-0.1-0.5-0.2-0.9-0.2c-0.6,0-1.1,0.3-1.3,0.8v5.6h-1.8V127.8z"/>
		<path id="XMLID_14_" class="st3" d="M83.9,131.7c0-2.8,1.8-4.1,3.8-4.1c2.1,0,3.6,1.3,3.6,4.1c0,2.8-1.8,4.1-3.8,4.1
			C85.4,135.8,83.9,134.5,83.9,131.7z M89.6,131.7c0-1.5-0.6-2.6-1.9-2.6c-1.3,0-1.9,1.1-1.9,2.6c0,1.6,0.6,2.6,1.9,2.6
			C89,134.3,89.6,133.2,89.6,131.7z"/>
		<path id="XMLID_12_" class="st3" d="M92.8,132.6v-4.9h1.8v4.5c0,1.5,0.3,2.1,1.4,2.1c0.9,0,1.3-0.4,1.5-0.8v-5.8h1.8v7.8h-1.7
			l-0.1-0.7c-0.3,0.5-1,0.9-2,0.9C93.6,135.8,92.8,134.7,92.8,132.6z"/>
		<path id="XMLID_9_" class="st3" d="M102.9,135.1l-0.3,0.5h-1.4v-10.6h1.8v3.5c0.2-0.4,0.9-0.9,2-0.9c1.9,0,3.2,1.1,3.2,3.9
			c0,2.8-1.6,4.3-3.5,4.3C103.8,135.8,103.2,135.4,102.9,135.1z M103.1,133.8c0.4,0.5,0.9,0.6,1.5,0.6c1.3,0,1.8-1.3,1.8-2.8
			s-0.5-2.5-1.7-2.5c-0.8,0-1.3,0.3-1.6,0.7V133.8z"/>
		<path id="XMLID_7_" class="st3" d="M109.7,133.8v-8.9h1.8v8.7c0,0.5,0.2,0.7,0.6,0.7c0.4,0,0.6-0.2,0.7-0.4v1.4
			c-0.1,0.2-0.5,0.5-1.2,0.5C110.3,135.8,109.7,135.1,109.7,133.8z"/>
		<path id="XMLID_4_" class="st3" d="M113.6,131.7c0-2.8,1.8-4.1,3.6-4.1c1.7,0,3.4,0.8,3.4,3.7v1h-5.2c0.1,1.1,0.8,2,2.2,2
			c1.4,0,2.2-0.6,2.6-1.1v1.7c-0.4,0.5-1.3,1-2.8,1C115.2,135.8,113.6,134.5,113.6,131.7z M118.9,131L118.9,131c0-1.3-0.6-2-1.7-2
			c-1,0-1.7,1-1.7,2H118.9z"/>
	</g>
</g>
</svg>
