<!-- Generator: Adobe Illustrator 22.1.0, SVG Export Plug-In  -->
<svg version="1.1"
	 xmlns="http://www.w3.org/2000/svg" xmlns:xlink="http://www.w3.org/1999/xlink" xmlns:a="http://ns.adobe.com/AdobeSVGViewerExtensions/3.0/"
	 x="0px" y="0px" width="409.7px" height="249.8px" viewBox="0 0 409.7 249.8" style="enable-background:new 0 0 409.7 249.8;"
	 xml:space="preserve">
<style type="text/css">
	.st0{fill:#0C3B60;}
	.st1{font-family:'Altis-Medium';}
	.st2{font-size:5.6899px;}
	.st3{fill:none;stroke:#8B3C95;stroke-width:0.5895;stroke-miterlimit:10;}
	.st4{font-family:'MyriadPro-Regular';}
	.st5{clip-path:url(#XMLID_208_);fill:#C3A0CB;}
	.st6{clip-path:url(#XMLID_208_);fill:#C29FCA;}
	.st7{clip-path:url(#XMLID_208_);fill:#C19EC9;}
	.st8{clip-path:url(#XMLID_208_);fill:#C09DC9;}
	.st9{clip-path:url(#XMLID_208_);fill:#BF9CC8;}
	.st10{clip-path:url(#XMLID_208_);fill:#BE9BC7;}
	.st11{clip-path:url(#XMLID_208_);fill:#BD9AC6;}
	.st12{clip-path:url(#XMLID_208_);fill:#BC99C5;}
	.st13{clip-path:url(#XMLID_208_);fill:#BB98C4;}
	.st14{clip-path:url(#XMLID_208_);fill:#BA97C4;}
	.st15{clip-path:url(#XMLID_208_);fill:#B996C3;}
	.st16{clip-path:url(#XMLID_208_);fill:#B895C2;}
	.st17{clip-path:url(#XMLID_208_);fill:#B794C1;}
	.st18{clip-path:url(#XMLID_208_);fill:#B693C0;}
	.st19{clip-path:url(#XMLID_208_);fill:#B592BF;}
	.st20{clip-path:url(#XMLID_208_);fill:#B491BF;}
	.st21{clip-path:url(#XMLID_208_);fill:#B390BE;}
	.st22{clip-path:url(#XMLID_208_);fill:#B28FBD;}
	.st23{clip-path:url(#XMLID_208_);fill:#B18EBC;}
	.st24{clip-path:url(#XMLID_208_);fill:#B08DBB;}
	.st25{clip-path:url(#XMLID_208_);fill:#AF8CBB;}
	.st26{clip-path:url(#XMLID_208_);fill:#AF8BBA;}
	.st27{clip-path:url(#XMLID_208_);fill:#AE8AB9;}
	.st28{clip-path:url(#XMLID_208_);fill:#AD89B8;}
	.st29{clip-path:url(#XMLID_208_);fill:#AC88B7;}
	.st30{clip-path:url(#XMLID_208_);fill:#AB87B6;}
	.st31{clip-path:url(#XMLID_208_);fill:#AA86B6;}
	.st32{clip-path:url(#XMLID_208_);fill:#A985B5;}
	.st33{clip-path:url(#XMLID_208_);fill:#A884B4;}
	.st34{clip-path:url(#XMLID_208_);fill:#A783B3;}
	.st35{clip-path:url(#XMLID_208_);fill:#A682B2;}
	.st36{clip-path:url(#XMLID_208_);fill:#A581B2;}
	.st37{clip-path:url(#XMLID_208_);fill:#A480B1;}
	.st38{clip-path:url(#XMLID_208_);fill:#A37FB0;}
	.st39{clip-path:url(#XMLID_208_);fill:#A27EAF;}
	.st40{clip-path:url(#XMLID_208_);fill:#A17DAE;}
	.st41{clip-path:url(#XMLID_208_);fill:#A07CAD;}
	.st42{clip-path:url(#XMLID_208_);fill:#9F7BAD;}
	.st43{clip-path:url(#XMLID_208_);fill:#9E7AAC;}
	.st44{clip-path:url(#XMLID_208_);fill:#9D79AB;}
	.st45{clip-path:url(#XMLID_208_);fill:#9C78AA;}
	.st46{clip-path:url(#XMLID_208_);fill:#9B77A9;}
	.st47{clip-path:url(#XMLID_208_);fill:#9A76A8;}
	.st48{clip-path:url(#XMLID_208_);fill:#9975A8;}
	.st49{clip-path:url(#XMLID_208_);fill:#9874A7;}
	.st50{clip-path:url(#XMLID_208_);fill:#9773A6;}
	.st51{clip-path:url(#XMLID_208_);fill:#9672A5;}
	.st52{clip-path:url(#XMLID_208_);fill:#9571A4;}
	.st53{clip-path:url(#XMLID_208_);fill:#9470A4;}
	.st54{clip-path:url(#XMLID_208_);fill:#936FA3;}
	.st55{clip-path:url(#XMLID_208_);fill:#926EA2;}
	.st56{clip-path:url(#XMLID_208_);fill:#916DA1;}
	.st57{clip-path:url(#XMLID_208_);fill:#906CA0;}
	.st58{clip-path:url(#XMLID_208_);fill:#8F6B9F;}
	.st59{clip-path:url(#XMLID_208_);fill:#8E6A9F;}
	.st60{clip-path:url(#XMLID_208_);fill:#8D699E;}
	.st61{clip-path:url(#XMLID_208_);fill:#8C689D;}
	.st62{clip-path:url(#XMLID_208_);fill:#8B679C;}
	.st63{clip-path:url(#XMLID_208_);fill:#8A669B;}
	.st64{clip-path:url(#XMLID_208_);fill:#89659A;}
	.st65{clip-path:url(#XMLID_208_);fill:#88649A;}
	.st66{clip-path:url(#XMLID_208_);fill:#876399;}
	.st67{clip-path:url(#XMLID_208_);fill:#876298;}
	.st68{clip-path:url(#XMLID_208_);fill:#866097;}
	.st69{clip-path:url(#XMLID_208_);fill:#855F96;}
	.st70{clip-path:url(#XMLID_208_);fill:#845E96;}
	.st71{clip-path:url(#XMLID_208_);fill:#835D95;}
	.st72{clip-path:url(#XMLID_208_);fill:#825C94;}
	.st73{clip-path:url(#XMLID_208_);fill:#815B93;}
	.st74{clip-path:url(#XMLID_208_);fill:#805A92;}
	.st75{clip-path:url(#XMLID_208_);fill:#7F5991;}
	.st76{clip-path:url(#XMLID_208_);fill:#7E5891;}
	.st77{clip-path:url(#XMLID_208_);fill:#7D5790;}
	.st78{clip-path:url(#XMLID_208_);fill:#7C568F;}
	.st79{clip-path:url(#XMLID_208_);fill:#7B558E;}
	.st80{clip-path:url(#XMLID_208_);fill:#7A548D;}
	.st81{clip-path:url(#XMLID_208_);fill:#79538C;}
	.st82{clip-path:url(#XMLID_208_);fill:#78528C;}
	.st83{clip-path:url(#XMLID_208_);fill:#77518B;}
	.st84{clip-path:url(#XMLID_208_);fill:#76508A;}
	.st85{clip-path:url(#XMLID_208_);fill:#754F89;}
	.st86{clip-path:url(#XMLID_208_);fill:#744E88;}
	.st87{clip-path:url(#XMLID_208_);fill:#734D88;}
	.st88{clip-path:url(#XMLID_208_);fill:#724C87;}
	.st89{clip-path:url(#XMLID_208_);fill:#714B86;}
	.st90{clip-path:url(#XMLID_208_);fill:#704A85;}
	.st91{clip-path:url(#XMLID_208_);fill:#6F4984;}
	.st92{clip-path:url(#XMLID_208_);fill:#6E4883;}
	.st93{clip-path:url(#XMLID_208_);fill:#6D4783;}
	.st94{clip-path:url(#XMLID_208_);fill:#6C4682;}
	.st95{clip-path:url(#XMLID_208_);fill:#6B4581;}
	.st96{clip-path:url(#XMLID_208_);fill:#6A4480;}
	.st97{clip-path:url(#XMLID_208_);fill:#69437F;}
	.st98{clip-path:url(#XMLID_208_);fill:#68427F;}
	.st99{clip-path:url(#XMLID_208_);fill:#67417E;}
	.st100{clip-path:url(#XMLID_208_);fill:#66407D;}
	.st101{clip-path:url(#XMLID_208_);fill:#653F7C;}
	.st102{clip-path:url(#XMLID_208_);fill:#643E7B;}
	.st103{clip-path:url(#XMLID_208_);fill:#633D7A;}
	.st104{clip-path:url(#XMLID_208_);fill:#623C7A;}
	.st105{clip-path:url(#XMLID_208_);fill:#613B79;}
	.st106{clip-path:url(#XMLID_208_);fill:#603A78;}
	.st107{clip-path:url(#XMLID_208_);fill:#5F3977;}
	.st108{clip-path:url(#XMLID_208_);fill:#5E3876;}
	.st109{clip-path:url(#XMLID_208_);fill:#5E3775;}
	.st110{clip-path:url(#XMLID_208_);fill:#5D3675;}
	.st111{clip-path:url(#XMLID_208_);fill:#5C3574;}
	.st112{clip-path:url(#XMLID_208_);fill:#5B3473;}
	.st113{clip-path:url(#XMLID_208_);fill:#5A3372;}
	.st114{clip-path:url(#XMLID_208_);fill:#593271;}
	.st115{clip-path:url(#XMLID_208_);fill:#583171;}
	.st116{clip-path:url(#XMLID_208_);fill:#573070;}
	.st117{clip-path:url(#XMLID_208_);fill:#562F6F;}
	.st118{clip-path:url(#XMLID_208_);fill:#552E6E;}
	.st119{clip-path:url(#XMLID_208_);fill:#542D6D;}
	.st120{clip-path:url(#XMLID_208_);fill:#532C6C;}
	.st121{clip-path:url(#XMLID_208_);fill:#522B6C;}
	.st122{clip-path:url(#XMLID_208_);fill:#512A6B;}
	.st123{clip-path:url(#XMLID_208_);fill:#50296A;}
	.st124{clip-path:url(#XMLID_208_);fill:#4F2869;}
	.st125{clip-path:url(#XMLID_208_);fill:#4E2768;}
	.st126{clip-path:url(#XMLID_208_);fill:#4D2667;}
	.st127{clip-path:url(#XMLID_208_);fill:#4C2567;}
	.st128{clip-path:url(#XMLID_208_);fill:#4B2466;}
	.st129{clip-path:url(#XMLID_208_);fill:#4A2365;}
	.st130{fill:#FFFFFF;}
	.st131{fill:#8B3C95;}
	.st132{fill:#E4EA91;}
	.st133{fill:none;stroke:#8B3C95;stroke-width:0.5458;stroke-miterlimit:10;}
	.st134{fill:none;stroke:#C14B48;stroke-width:0.7528;stroke-miterlimit:10;}
	.st135{fill:none;stroke:#EE2A7B;stroke-width:0.809;stroke-miterlimit:10;stroke-dasharray:2.552,2.552;}
	.st136{fill:none;stroke:#8B3C96;stroke-width:1.1809;stroke-miterlimit:10;}
	.st137{fill:#4E80BD;}
	.st138{opacity:0;fill:none;stroke:#000000;stroke-width:0.1886;stroke-linecap:round;stroke-linejoin:round;stroke-miterlimit:10;}
	.st139{opacity:0;fill-rule:evenodd;clip-rule:evenodd;}
	.st140{fill:none;stroke:#4B7FBB;stroke-width:0.461;stroke-linejoin:round;stroke-miterlimit:10;}
	.st141{opacity:0;fill-rule:evenodd;clip-rule:evenodd;fill:#8B3C96;}
	.st142{fill:#8B3C96;}
	.st143{fill:none;stroke:#808184;stroke-width:1.1809;stroke-linecap:round;stroke-linejoin:round;stroke-miterlimit:10;}
	.st144{fill-rule:evenodd;clip-rule:evenodd;fill:#C0514E;}
	.st145{opacity:0;fill-rule:evenodd;clip-rule:evenodd;fill:#808184;}
	.st146{fill:#808184;}
	.st147{fill:none;stroke:#669552;stroke-width:1.1809;stroke-miterlimit:10;}
	.st148{fill:#9BBA5A;}
	.st149{opacity:0;fill-rule:evenodd;clip-rule:evenodd;fill:#669552;}
	.st150{fill:#669552;}
	.st151{opacity:0;fill:#669552;}
	.st152{fill:#231F20;}
	.st153{font-size:5.3887px;}
	.st154{font-size:7.5471px;}
	.st155{fill:none;stroke:#8B3C95;stroke-width:0.25;stroke-miterlimit:10;}
	.st156{clip-path:url(#XMLID_864_);fill:#C3A0CB;}
	.st157{clip-path:url(#XMLID_864_);fill:#C29FCA;}
	.st158{clip-path:url(#XMLID_864_);fill:#C19EC9;}
	.st159{clip-path:url(#XMLID_864_);fill:#C09DC9;}
	.st160{clip-path:url(#XMLID_864_);fill:#BF9CC8;}
	.st161{clip-path:url(#XMLID_864_);fill:#BE9BC7;}
	.st162{clip-path:url(#XMLID_864_);fill:#BD9AC6;}
	.st163{clip-path:url(#XMLID_864_);fill:#BC99C5;}
	.st164{clip-path:url(#XMLID_864_);fill:#BB98C4;}
	.st165{clip-path:url(#XMLID_864_);fill:#BA97C4;}
	.st166{clip-path:url(#XMLID_864_);fill:#B996C3;}
	.st167{clip-path:url(#XMLID_864_);fill:#B895C2;}
	.st168{clip-path:url(#XMLID_864_);fill:#B794C1;}
	.st169{clip-path:url(#XMLID_864_);fill:#B693C0;}
	.st170{clip-path:url(#XMLID_864_);fill:#B592BF;}
	.st171{clip-path:url(#XMLID_864_);fill:#B491BF;}
	.st172{clip-path:url(#XMLID_864_);fill:#B390BE;}
	.st173{clip-path:url(#XMLID_864_);fill:#B28FBD;}
	.st174{clip-path:url(#XMLID_864_);fill:#B18EBC;}
	.st175{clip-path:url(#XMLID_864_);fill:#B08DBB;}
	.st176{clip-path:url(#XMLID_864_);fill:#AF8CBB;}
	.st177{clip-path:url(#XMLID_864_);fill:#AF8BBA;}
	.st178{clip-path:url(#XMLID_864_);fill:#AE8AB9;}
	.st179{clip-path:url(#XMLID_864_);fill:#AD89B8;}
	.st180{clip-path:url(#XMLID_864_);fill:#AC88B7;}
	.st181{clip-path:url(#XMLID_864_);fill:#AB87B6;}
	.st182{clip-path:url(#XMLID_864_);fill:#AA86B6;}
	.st183{clip-path:url(#XMLID_864_);fill:#A985B5;}
	.st184{clip-path:url(#XMLID_864_);fill:#A884B4;}
	.st185{clip-path:url(#XMLID_864_);fill:#A783B3;}
	.st186{clip-path:url(#XMLID_864_);fill:#A682B2;}
	.st187{clip-path:url(#XMLID_864_);fill:#A581B2;}
	.st188{clip-path:url(#XMLID_864_);fill:#A480B1;}
	.st189{clip-path:url(#XMLID_864_);fill:#A37FB0;}
	.st190{clip-path:url(#XMLID_864_);fill:#A27EAF;}
	.st191{clip-path:url(#XMLID_864_);fill:#A17DAE;}
	.st192{clip-path:url(#XMLID_864_);fill:#A07CAD;}
	.st193{clip-path:url(#XMLID_864_);fill:#9F7BAD;}
	.st194{clip-path:url(#XMLID_864_);fill:#9E7AAC;}
	.st195{clip-path:url(#XMLID_864_);fill:#9D79AB;}
	.st196{clip-path:url(#XMLID_864_);fill:#9C78AA;}
	.st197{clip-path:url(#XMLID_864_);fill:#9B77A9;}
	.st198{clip-path:url(#XMLID_864_);fill:#9A76A8;}
	.st199{clip-path:url(#XMLID_864_);fill:#9975A8;}
	.st200{clip-path:url(#XMLID_864_);fill:#9874A7;}
	.st201{clip-path:url(#XMLID_864_);fill:#9773A6;}
	.st202{clip-path:url(#XMLID_864_);fill:#9672A5;}
	.st203{clip-path:url(#XMLID_864_);fill:#9571A4;}
	.st204{clip-path:url(#XMLID_864_);fill:#9470A4;}
	.st205{clip-path:url(#XMLID_864_);fill:#936FA3;}
	.st206{clip-path:url(#XMLID_864_);fill:#926EA2;}
	.st207{clip-path:url(#XMLID_864_);fill:#916DA1;}
	.st208{clip-path:url(#XMLID_864_);fill:#906CA0;}
	.st209{clip-path:url(#XMLID_864_);fill:#8F6B9F;}
	.st210{clip-path:url(#XMLID_864_);fill:#8E6A9F;}
	.st211{clip-path:url(#XMLID_864_);fill:#8D699E;}
	.st212{clip-path:url(#XMLID_864_);fill:#8C689D;}
	.st213{clip-path:url(#XMLID_864_);fill:#8B679C;}
	.st214{clip-path:url(#XMLID_864_);fill:#8A669B;}
	.st215{clip-path:url(#XMLID_864_);fill:#89659A;}
	.st216{clip-path:url(#XMLID_864_);fill:#88649A;}
	.st217{clip-path:url(#XMLID_864_);fill:#876399;}
	.st218{clip-path:url(#XMLID_864_);fill:#876298;}
	.st219{clip-path:url(#XMLID_864_);fill:#866097;}
	.st220{clip-path:url(#XMLID_864_);fill:#855F96;}
	.st221{clip-path:url(#XMLID_864_);fill:#845E96;}
	.st222{clip-path:url(#XMLID_864_);fill:#835D95;}
	.st223{clip-path:url(#XMLID_864_);fill:#825C94;}
	.st224{clip-path:url(#XMLID_864_);fill:#815B93;}
	.st225{clip-path:url(#XMLID_864_);fill:#805A92;}
	.st226{clip-path:url(#XMLID_864_);fill:#7F5991;}
	.st227{clip-path:url(#XMLID_864_);fill:#7E5891;}
	.st228{clip-path:url(#XMLID_864_);fill:#7D5790;}
	.st229{clip-path:url(#XMLID_864_);fill:#7C568F;}
	.st230{clip-path:url(#XMLID_864_);fill:#7B558E;}
	.st231{clip-path:url(#XMLID_864_);fill:#7A548D;}
	.st232{clip-path:url(#XMLID_864_);fill:#79538C;}
	.st233{clip-path:url(#XMLID_864_);fill:#78528C;}
	.st234{clip-path:url(#XMLID_864_);fill:#77518B;}
	.st235{clip-path:url(#XMLID_864_);fill:#76508A;}
	.st236{clip-path:url(#XMLID_864_);fill:#754F89;}
	.st237{clip-path:url(#XMLID_864_);fill:#744E88;}
	.st238{clip-path:url(#XMLID_864_);fill:#734D88;}
	.st239{clip-path:url(#XMLID_864_);fill:#724C87;}
	.st240{clip-path:url(#XMLID_864_);fill:#714B86;}
	.st241{clip-path:url(#XMLID_864_);fill:#704A85;}
	.st242{clip-path:url(#XMLID_864_);fill:#6F4984;}
	.st243{clip-path:url(#XMLID_864_);fill:#6E4883;}
	.st244{clip-path:url(#XMLID_864_);fill:#6D4783;}
	.st245{clip-path:url(#XMLID_864_);fill:#6C4682;}
	.st246{clip-path:url(#XMLID_864_);fill:#6B4581;}
	.st247{clip-path:url(#XMLID_864_);fill:#6A4480;}
	.st248{clip-path:url(#XMLID_864_);fill:#69437F;}
	.st249{clip-path:url(#XMLID_864_);fill:#68427F;}
	.st250{clip-path:url(#XMLID_864_);fill:#67417E;}
	.st251{clip-path:url(#XMLID_864_);fill:#66407D;}
	.st252{clip-path:url(#XMLID_864_);fill:#653F7C;}
	.st253{clip-path:url(#XMLID_864_);fill:#643E7B;}
	.st254{clip-path:url(#XMLID_864_);fill:#633D7A;}
	.st255{clip-path:url(#XMLID_864_);fill:#623C7A;}
	.st256{clip-path:url(#XMLID_864_);fill:#613B79;}
	.st257{clip-path:url(#XMLID_864_);fill:#603A78;}
	.st258{clip-path:url(#XMLID_864_);fill:#5F3977;}
	.st259{clip-path:url(#XMLID_864_);fill:#5E3876;}
	.st260{clip-path:url(#XMLID_864_);fill:#5E3775;}
	.st261{clip-path:url(#XMLID_864_);fill:#5D3675;}
	.st262{clip-path:url(#XMLID_864_);fill:#5C3574;}
	.st263{clip-path:url(#XMLID_864_);fill:#5B3473;}
	.st264{clip-path:url(#XMLID_864_);fill:#5A3372;}
	.st265{clip-path:url(#XMLID_864_);fill:#593271;}
	.st266{clip-path:url(#XMLID_864_);fill:#583171;}
	.st267{clip-path:url(#XMLID_864_);fill:#573070;}
	.st268{clip-path:url(#XMLID_864_);fill:#562F6F;}
	.st269{clip-path:url(#XMLID_864_);fill:#552E6E;}
	.st270{clip-path:url(#XMLID_864_);fill:#542D6D;}
	.st271{clip-path:url(#XMLID_864_);fill:#532C6C;}
	.st272{clip-path:url(#XMLID_864_);fill:#522B6C;}
	.st273{clip-path:url(#XMLID_864_);fill:#512A6B;}
	.st274{clip-path:url(#XMLID_864_);fill:#50296A;}
	.st275{clip-path:url(#XMLID_864_);fill:#4F2869;}
	.st276{clip-path:url(#XMLID_864_);fill:#4E2768;}
	.st277{clip-path:url(#XMLID_864_);fill:#4D2667;}
	.st278{clip-path:url(#XMLID_864_);fill:#4C2567;}
	.st279{clip-path:url(#XMLID_864_);fill:#4B2466;}
	.st280{clip-path:url(#XMLID_864_);fill:#4A2365;}
</style>
<defs>
</defs>
<g id="XMLID_858_">
	<g id="XMLID_860_">
		<text transform="matrix(1 0 0 1 9.687 70.2023)" class="st0 st1 st2">0</text>
	</g>
	<line id="XMLID_859_" class="st3" x1="24" y1="67.6" x2="21.1" y2="67.6"/>
</g>
<g id="XMLID_854_">
	<g id="XMLID_856_">
		<text transform="matrix(1 0 0 1 9.687 96.9641)" class="st0 st4 st2">-1</text>
	</g>
	<line id="XMLID_855_" class="st3" x1="24" y1="94.3" x2="21.1" y2="94.3"/>
</g>
<g id="XMLID_850_">
	<g id="XMLID_852_">
		<text transform="matrix(1 0 0 1 9.687 123.7258)" class="st0 st1 st2">-2</text>
	</g>
	<line id="XMLID_851_" class="st3" x1="24" y1="121.1" x2="21.1" y2="121.1"/>
</g>
<g id="XMLID_843_">
	<g id="XMLID_846_">
		<text transform="matrix(1 0 0 1 9.687 150.4875)" class="st0 st1 st2">-3</text>
	</g>
	<line id="XMLID_844_" class="st3" x1="24" y1="147.9" x2="21.1" y2="147.9"/>
</g>
<g id="XMLID_839_">
	<g id="XMLID_841_">
		<text transform="matrix(1 0 0 1 9.687 177.2482)" class="st0 st1 st2">-4</text>
	</g>
	<line id="XMLID_840_" class="st3" x1="24" y1="174.6" x2="21.1" y2="174.6"/>
</g>
<g id="XMLID_835_">
	<g id="XMLID_837_">
		<text transform="matrix(1 0 0 1 9.687 204.01)" class="st0 st1 st2">-5</text>
	</g>
	<line id="XMLID_836_" class="st3" x1="24" y1="201.4" x2="21.1" y2="201.4"/>
</g>
<g id="XMLID_830_">
	<g id="XMLID_833_">
		<text transform="matrix(1 0 0 1 9.687 230.7717)" class="st0 st1 st2">-6</text>
	</g>
	<line id="XMLID_832_" class="st3" x1="24" y1="228.1" x2="21.1" y2="228.1"/>
</g>
<g id="XMLID_649_">
	<g id="XMLID_650_">
		<defs>
			<path id="XMLID_653_" d="M409.7,12.2c0-6.7-5.5-12.2-12.2-12.2H12.2C5.5,0,0,5.4,0,12.2v224.7c0,6.7,5.5,12.2,12.2,12.2h385.3
				c6.7,0,12.2-5.4,12.2-12.2V12.2z"/>
		</defs>
		<clipPath id="XMLID_208_">
			<use xlink:href="#XMLID_653_"  style="overflow:visible;"/>
		</clipPath>
		<path id="XMLID_828_" class="st5" d="M0,0v249.1V0z"/>
		<rect id="XMLID_826_" x="0" class="st5" width="3.3" height="249.1"/>
		<rect id="XMLID_825_" x="3.3" class="st6" width="3.3" height="249.1"/>
		<rect id="XMLID_824_" x="6.6" class="st7" width="3.3" height="249.1"/>
		<rect id="XMLID_823_" x="9.9" class="st8" width="3.3" height="249.1"/>
		<rect id="XMLID_822_" x="13.2" class="st9" width="3.3" height="249.1"/>
		<rect id="XMLID_821_" x="16.4" class="st10" width="3.3" height="249.1"/>
		<rect id="XMLID_820_" x="19.7" class="st11" width="3.3" height="249.1"/>
		<rect id="XMLID_819_" x="23" class="st12" width="3.3" height="249.1"/>
		<rect id="XMLID_818_" x="26.3" class="st13" width="3.3" height="249.1"/>
		<rect id="XMLID_817_" x="29.5" class="st14" width="3.3" height="249.1"/>
		<rect id="XMLID_816_" x="32.8" class="st15" width="3.3" height="249.1"/>
		<rect id="XMLID_815_" x="36.1" class="st16" width="3.3" height="249.1"/>
		<rect id="XMLID_814_" x="39.4" class="st17" width="3.3" height="249.1"/>
		<rect id="XMLID_813_" x="42.6" class="st18" width="3.3" height="249.1"/>
		<rect id="XMLID_812_" x="45.9" class="st19" width="3.3" height="249.1"/>
		<rect id="XMLID_811_" x="49.2" class="st20" width="3.3" height="249.1"/>
		<rect id="XMLID_810_" x="52.5" class="st21" width="3.3" height="249.1"/>
		<rect id="XMLID_809_" x="55.8" class="st22" width="3.3" height="249.1"/>
		<rect id="XMLID_808_" x="59" class="st23" width="3.3" height="249.1"/>
		<rect id="XMLID_807_" x="62.3" class="st24" width="3.3" height="249.1"/>
		<rect id="XMLID_806_" x="65.6" class="st25" width="3.3" height="249.1"/>
		<rect id="XMLID_804_" x="68.9" class="st26" width="3.3" height="249.1"/>
		<rect id="XMLID_801_" x="72.1" class="st27" width="3.3" height="249.1"/>
		<rect id="XMLID_800_" x="75.4" class="st28" width="3.3" height="249.1"/>
		<rect id="XMLID_799_" x="78.7" class="st29" width="3.3" height="249.1"/>
		<rect id="XMLID_798_" x="82" class="st30" width="3.3" height="249.1"/>
		<rect id="XMLID_797_" x="85.2" class="st31" width="3.3" height="249.1"/>
		<rect id="XMLID_796_" x="88.5" class="st32" width="3.3" height="249.1"/>
		<rect id="XMLID_795_" x="91.8" class="st33" width="3.3" height="249.1"/>
		<rect id="XMLID_794_" x="95.1" class="st34" width="3.3" height="249.1"/>
		<rect id="XMLID_793_" x="98.4" class="st35" width="3.3" height="249.1"/>
		<rect id="XMLID_792_" x="101.6" class="st36" width="3.3" height="249.1"/>
		<rect id="XMLID_785_" x="104.9" class="st37" width="3.3" height="249.1"/>
		<rect id="XMLID_784_" x="108.2" class="st38" width="3.3" height="249.1"/>
		<rect id="XMLID_783_" x="111.5" class="st39" width="3.3" height="249.1"/>
		<rect id="XMLID_782_" x="114.7" class="st40" width="3.3" height="249.1"/>
		<rect id="XMLID_781_" x="118" class="st41" width="3.3" height="249.1"/>
		<rect id="XMLID_780_" x="121.3" class="st42" width="3.3" height="249.1"/>
		<rect id="XMLID_779_" x="124.6" class="st43" width="3.3" height="249.1"/>
		<rect id="XMLID_778_" x="127.9" class="st44" width="3.3" height="249.1"/>
		<rect id="XMLID_777_" x="131.1" class="st45" width="3.3" height="249.1"/>
		<rect id="XMLID_770_" x="134.4" class="st46" width="3.3" height="249.1"/>
		<rect id="XMLID_769_" x="137.7" class="st47" width="3.3" height="249.1"/>
		<rect id="XMLID_768_" x="141" class="st48" width="3.3" height="249.1"/>
		<rect id="XMLID_767_" x="144.2" class="st49" width="3.3" height="249.1"/>
		<rect id="XMLID_766_" x="147.5" class="st50" width="3.3" height="249.1"/>
		<rect id="XMLID_765_" x="150.8" class="st51" width="3.3" height="249.1"/>
		<rect id="XMLID_764_" x="154.1" class="st52" width="3.3" height="249.1"/>
		<rect id="XMLID_763_" x="157.3" class="st53" width="3.3" height="249.1"/>
		<rect id="XMLID_762_" x="160.6" class="st54" width="3.3" height="249.1"/>
		<rect id="XMLID_761_" x="163.9" class="st55" width="3.3" height="249.1"/>
		<rect id="XMLID_760_" x="167.2" class="st56" width="3.3" height="249.1"/>
		<rect id="XMLID_759_" x="170.5" class="st57" width="3.3" height="249.1"/>
		<rect id="XMLID_758_" x="173.7" class="st58" width="3.3" height="249.1"/>
		<rect id="XMLID_757_" x="177" class="st59" width="3.3" height="249.1"/>
		<rect id="XMLID_755_" x="180.3" class="st60" width="3.3" height="249.1"/>
		<rect id="XMLID_750_" x="183.6" class="st61" width="3.3" height="249.1"/>
		<rect id="XMLID_749_" x="186.8" class="st62" width="3.3" height="249.1"/>
		<rect id="XMLID_748_" x="190.1" class="st63" width="3.3" height="249.1"/>
		<rect id="XMLID_747_" x="193.4" class="st64" width="3.3" height="249.1"/>
		<rect id="XMLID_746_" x="196.7" class="st65" width="3.3" height="249.1"/>
		<rect id="XMLID_745_" x="200" class="st66" width="3.3" height="249.1"/>
		<rect id="XMLID_744_" x="203.2" class="st67" width="3.3" height="249.1"/>
		<rect id="XMLID_743_" x="206.5" class="st68" width="3.3" height="249.1"/>
		<rect id="XMLID_742_" x="209.8" class="st69" width="3.3" height="249.1"/>
		<rect id="XMLID_741_" x="213.1" class="st70" width="3.3" height="249.1"/>
		<rect id="XMLID_734_" x="216.3" class="st71" width="3.3" height="249.1"/>
		<rect id="XMLID_733_" x="219.6" class="st72" width="3.3" height="249.1"/>
		<rect id="XMLID_732_" x="222.9" class="st73" width="3.3" height="249.1"/>
		<rect id="XMLID_731_" x="226.2" class="st74" width="3.3" height="249.1"/>
		<rect id="XMLID_730_" x="229.4" class="st75" width="3.3" height="249.1"/>
		<rect id="XMLID_729_" x="232.7" class="st76" width="3.3" height="249.1"/>
		<rect id="XMLID_722_" x="236" class="st77" width="3.3" height="249.1"/>
		<rect id="XMLID_721_" x="239.3" class="st78" width="3.3" height="249.1"/>
		<rect id="XMLID_720_" x="242.6" class="st79" width="3.3" height="249.1"/>
		<rect id="XMLID_719_" x="245.8" class="st80" width="3.3" height="249.1"/>
		<rect id="XMLID_718_" x="249.1" class="st81" width="3.3" height="249.1"/>
		<rect id="XMLID_717_" x="252.4" class="st82" width="3.3" height="249.1"/>
		<rect id="XMLID_716_" x="255.7" class="st83" width="3.3" height="249.1"/>
		<rect id="XMLID_715_" x="258.9" class="st84" width="3.3" height="249.1"/>
		<rect id="XMLID_714_" x="262.2" class="st85" width="3.3" height="249.1"/>
		<rect id="XMLID_713_" x="265.5" class="st86" width="3.3" height="249.1"/>
		<rect id="XMLID_712_" x="268.8" class="st87" width="3.3" height="249.1"/>
		<rect id="XMLID_711_" x="272" class="st88" width="3.3" height="249.1"/>
		<rect id="XMLID_706_" x="275.3" class="st89" width="3.3" height="249.1"/>
		<rect id="XMLID_704_" x="278.6" class="st90" width="3.3" height="249.1"/>
		<rect id="XMLID_703_" x="281.9" class="st91" width="3.3" height="249.1"/>
		<rect id="XMLID_702_" x="285.2" class="st92" width="3.3" height="249.1"/>
		<rect id="XMLID_701_" x="288.4" class="st93" width="3.3" height="249.1"/>
		<rect id="XMLID_700_" x="291.7" class="st94" width="3.3" height="249.1"/>
		<rect id="XMLID_699_" x="295" class="st95" width="3.3" height="249.1"/>
		<rect id="XMLID_698_" x="298.3" class="st96" width="3.3" height="249.1"/>
		<rect id="XMLID_697_" x="301.5" class="st97" width="3.3" height="249.1"/>
		<rect id="XMLID_696_" x="304.8" class="st98" width="3.3" height="249.1"/>
		<rect id="XMLID_695_" x="308.1" class="st99" width="3.3" height="249.1"/>
		<rect id="XMLID_694_" x="311.4" class="st100" width="3.3" height="249.1"/>
		<rect id="XMLID_693_" x="314.7" class="st101" width="3.3" height="249.1"/>
		<rect id="XMLID_687_" x="317.9" class="st102" width="3.3" height="249.1"/>
		<rect id="XMLID_686_" x="321.2" class="st103" width="3.3" height="249.1"/>
		<rect id="XMLID_685_" x="324.5" class="st104" width="3.3" height="249.1"/>
		<rect id="XMLID_684_" x="327.8" class="st105" width="3.3" height="249.1"/>
		<rect id="XMLID_683_" x="331" class="st106" width="3.3" height="249.1"/>
		<rect id="XMLID_682_" x="334.3" class="st107" width="3.3" height="249.1"/>
		<rect id="XMLID_681_" x="337.6" class="st108" width="3.3" height="249.1"/>
		<rect id="XMLID_680_" x="340.9" class="st109" width="3.3" height="249.1"/>
		<rect id="XMLID_679_" x="344.1" class="st110" width="3.3" height="249.1"/>
		<rect id="XMLID_678_" x="347.4" class="st111" width="3.3" height="249.1"/>
		<rect id="XMLID_677_" x="350.7" class="st112" width="3.3" height="249.1"/>
		<rect id="XMLID_676_" x="354" class="st113" width="3.3" height="249.1"/>
		<rect id="XMLID_675_" x="357.3" class="st114" width="3.3" height="249.1"/>
		<rect id="XMLID_673_" x="360.5" class="st115" width="3.3" height="249.1"/>
		<rect id="XMLID_671_" x="363.8" class="st116" width="3.3" height="249.1"/>
		<rect id="XMLID_669_" x="367.1" class="st117" width="3.3" height="249.1"/>
		<rect id="XMLID_668_" x="370.4" class="st118" width="3.3" height="249.1"/>
		<rect id="XMLID_667_" x="373.6" class="st119" width="3.3" height="249.1"/>
		<rect id="XMLID_666_" x="376.9" class="st120" width="3.3" height="249.1"/>
		<rect id="XMLID_665_" x="380.2" class="st121" width="3.3" height="249.1"/>
		<rect id="XMLID_664_" x="383.5" class="st122" width="3.3" height="249.1"/>
		<rect id="XMLID_663_" x="386.8" class="st123" width="3.3" height="249.1"/>
		<rect id="XMLID_662_" x="390" class="st124" width="3.3" height="249.1"/>
		<rect id="XMLID_661_" x="393.3" class="st125" width="3.3" height="249.1"/>
		<rect id="XMLID_660_" x="396.6" class="st126" width="3.3" height="249.1"/>
		<rect id="XMLID_659_" x="399.9" class="st127" width="3.3" height="249.1"/>
		<rect id="XMLID_658_" x="403.1" class="st128" width="3.3" height="249.1"/>
		<rect id="XMLID_657_" x="406.4" class="st129" width="3.3" height="249.1"/>
		<path id="XMLID_655_" class="st129" d="M409.7,249.1V0V249.1z"/>
	</g>
</g>
<g id="XMLID_517_">
	<path id="XMLID_647_" class="st130" d="M17.2,18.6l0-1.9c0.4,0.4,1.2,0.9,2.3,0.9c0.9,0,1.4-0.3,1.4-0.9c0-0.5-0.3-0.6-1.1-0.8
		l-0.3-0.1c-1.4-0.2-2.3-0.9-2.3-2.3c0-1.5,1.2-2.4,3.2-2.4c1.3,0,2,0.3,2.3,0.5l0,1.8c-0.4-0.5-1.2-0.8-2.3-0.8
		c-0.8,0-1.2,0.2-1.2,0.7c0,0.4,0.2,0.7,1,0.8l0.3,0.1c1.5,0.3,2.4,0.8,2.4,2.2c0,1.5-1.2,2.6-3.4,2.6
		C18.3,19.1,17.6,18.8,17.2,18.6z"/>
	<path id="XMLID_644_" class="st130" d="M23.8,15.8c0-2.3,1.7-3.3,3.4-3.3c1.6,0,3.2,0.6,3.2,3l0,0.8l-4.5,0
		c0.1,0.7,0.6,1.3,1.9,1.3c1.2,0,1.9-0.4,2.3-0.7l0,1.5c-0.4,0.3-1.2,0.7-2.6,0.7C25.1,19.1,23.8,18.1,23.8,15.8z M28.4,15.2
		L28.4,15.2c0-0.8-0.4-1.2-1.2-1.2c-0.8,0-1.2,0.6-1.3,1.2L28.4,15.2z"/>
	<path id="XMLID_642_" class="st130" d="M31.1,15.8c0-2.3,1.6-3.3,3.5-3.3c1,0,1.8,0.3,2.1,0.5l0,1.6c-0.5-0.4-1-0.6-1.8-0.6
		c-1.1,0-1.6,0.6-1.6,1.7c0,1.1,0.6,1.7,1.7,1.7c0.8,0,1.3-0.3,1.8-0.7l0,1.6c-0.3,0.3-1.1,0.7-2.1,0.7
		C32.5,19.1,31.1,18.1,31.1,15.8z"/>
	<path id="XMLID_636_" class="st130" d="M37.5,15.8c0-2.3,1.6-3.3,3.6-3.3c2,0,3.4,1,3.4,3.3c0,2.3-1.6,3.3-3.6,3.3
		C38.9,19.1,37.5,18.1,37.5,15.8z M42.4,15.8c0-1.1-0.4-1.8-1.4-1.8c-1,0-1.4,0.7-1.4,1.8c0,1.1,0.4,1.8,1.4,1.8
		C42,17.6,42.4,16.8,42.4,15.8z"/>
	<path id="XMLID_634_" class="st130" d="M45.6,12.7l1.8,0l0.2,0.5c0.3-0.4,0.9-0.7,1.8-0.7c1.8,0,2.5,0.8,2.5,2.5l0,3.8l-2,0l0-3.5
		c0-1-0.3-1.4-1.1-1.4c-0.6,0-1,0.3-1.1,0.5l0,4.4l-2,0L45.6,12.7z"/>
	<path id="XMLID_631_" class="st130" d="M53,15.8c0-2.3,1.2-3.4,3.1-3.4c0.5,0,1.2,0.1,1.5,0.4l0-2.5l2,0l0,8.4l-1.8,0l-0.2-0.5
		c-0.2,0.3-0.8,0.7-1.8,0.7C54.2,19,53,18.1,53,15.8z M57.5,14.3c-0.3-0.3-0.7-0.4-1.1-0.4c-1,0-1.3,0.9-1.3,1.9
		c0,1.1,0.3,1.7,1.3,1.7c0.6,0,1-0.2,1.2-0.5L57.5,14.3z"/>
	<path id="XMLID_628_" class="st130" d="M60.7,17.2c0-1.2,1-1.8,2.9-2l1-0.1c0-0.8-0.5-1.1-1.4-1.1c-1,0-1.9,0.4-2.2,1.1l0-1.7
		c0.3-0.4,1.1-0.8,2.6-0.8c2,0,3.1,0.8,3.1,2.6l0,3.7l-1.8,0l-0.2-0.5C64.5,18.6,64,19,63,19C61.7,19,60.7,18.4,60.7,17.2z
		 M64.6,16.1l-0.8,0.2c-0.9,0.2-1.2,0.4-1.2,0.8c0,0.4,0.3,0.6,0.8,0.6c0.5,0,1-0.2,1.2-0.4L64.6,16.1z"/>
	<path id="XMLID_626_" class="st130" d="M68.1,12.6l1.7,0l0.2,0.8c0.1-0.6,0.7-1,1.3-1c0.4,0,0.6,0.1,0.7,0.2l0,1.7
		c-0.2-0.1-0.4-0.2-0.8-0.2c-0.5,0-0.8,0.2-1,0.5l0,4.2l-2,0L68.1,12.6z"/>
	<path id="XMLID_624_" class="st130" d="M72.6,20.8l0-1.5c0.3,0.3,0.7,0.4,1.2,0.4c0.5,0,0.9-0.1,1.2-0.8l-2.8-6.3l2.2,0l1.4,4
		l1.2-4l2,0l-1.9,5.9c-0.5,1.5-1.4,2.7-3.2,2.7C73.4,21.1,72.9,21,72.6,20.8z"/>
	<path id="XMLID_622_" class="st130" d="M82.9,12.6l1.8,0l0.1,0.5c0.3-0.4,0.9-0.7,1.7-0.7c1,0,1.6,0.3,2,0.9c0.3-0.4,1-0.9,2-0.9
		c1.7,0,2.4,0.8,2.4,2.5l0,3.8l-2,0l0-3.6c0-1-0.3-1.4-0.9-1.4c-0.5,0-0.9,0.2-1.1,0.5c0,0.2,0.1,0.4,0.1,0.6l0,3.8l-2,0l0-3.6
		c0-1-0.3-1.4-0.9-1.4c-0.5,0-0.9,0.2-1,0.5l0,4.4l-2,0L82.9,12.6z"/>
	<path id="XMLID_619_" class="st130" d="M94.1,15.6c0-2.3,1.7-3.3,3.4-3.3c1.6,0,3.2,0.6,3.2,3l0,0.8l-4.5,0
		c0.1,0.7,0.6,1.3,1.9,1.3c1.2,0,1.9-0.4,2.3-0.7l0,1.5c-0.4,0.3-1.2,0.7-2.6,0.7C95.4,18.9,94.1,17.9,94.1,15.6z M98.7,15L98.7,15
		c0-0.8-0.4-1.2-1.2-1.2c-0.8,0-1.2,0.6-1.3,1.2L98.7,15z"/>
	<path id="XMLID_616_" class="st130" d="M101.4,17.1c0-1.2,1-1.8,2.9-2l1-0.1c0-0.8-0.5-1.1-1.4-1.1c-1,0-1.9,0.4-2.2,1.1l0-1.7
		c0.3-0.4,1.1-0.8,2.6-0.8c2,0,3.1,0.8,3.1,2.6l0,3.7l-1.8,0l-0.2-0.5c-0.2,0.3-0.7,0.7-1.7,0.7C102.4,18.9,101.4,18.3,101.4,17.1z
		 M105.3,16l-0.8,0.2c-0.9,0.2-1.2,0.4-1.2,0.8c0,0.4,0.3,0.6,0.8,0.6c0.5,0,1-0.2,1.2-0.4L105.3,16z"/>
	<path id="XMLID_614_" class="st130" d="M108.6,18.3l0-1.6c0.4,0.4,1.1,0.7,2.1,0.7c0.9,0,1.2-0.3,1.2-0.6c0-0.3-0.2-0.5-0.9-0.6
		l-0.4-0.1c-1.4-0.2-2.1-0.8-2.1-1.9c0-1.1,0.8-2,2.9-2c1,0,1.8,0.2,2.2,0.5l0,1.6c-0.4-0.4-1.2-0.7-2.1-0.7c-0.8,0-1.1,0.2-1.1,0.5
		c0,0.3,0.2,0.5,0.9,0.6l0.4,0.1c1.5,0.2,2.2,0.7,2.2,1.8c0,1.1-0.8,2.1-3,2.1C109.7,18.8,109,18.6,108.6,18.3z"/>
	<path id="XMLID_612_" class="st130" d="M114.8,16.3l0-3.8l2,0l0,3.5c0,1,0.2,1.4,1,1.4c0.6,0,0.9-0.3,1.1-0.5l0-4.4l2,0l0,6.2
		l-1.8,0l-0.1-0.5c-0.3,0.4-0.9,0.7-1.8,0.7C115.5,18.8,114.8,18,114.8,16.3z"/>
	<path id="XMLID_610_" class="st130" d="M122.4,12.4l1.7,0l0.2,0.8c0.1-0.6,0.7-1,1.3-1c0.4,0,0.6,0.1,0.7,0.2l0,1.7
		c-0.2-0.1-0.4-0.2-0.8-0.2c-0.5,0-0.8,0.2-1,0.5l0,4.2l-2,0L122.4,12.4z"/>
	<path id="XMLID_607_" class="st130" d="M126.8,15.5c0-2.3,1.7-3.3,3.4-3.3c1.6,0,3.2,0.6,3.2,3l0,0.8l-4.5,0
		c0.1,0.7,0.6,1.3,1.9,1.3c1.2,0,1.9-0.4,2.3-0.7l0,1.5c-0.4,0.3-1.2,0.7-2.6,0.7C128.2,18.8,126.8,17.8,126.8,15.5z M131.4,14.9
		L131.4,14.9c0-0.8-0.4-1.2-1.2-1.2c-0.8,0-1.2,0.6-1.3,1.2L131.4,14.9z"/>
	<path id="XMLID_605_" class="st130" d="M134.3,18.3l0-1.6c0.4,0.4,1.1,0.7,2.1,0.7c0.9,0,1.2-0.3,1.2-0.6c0-0.3-0.2-0.5-0.9-0.6
		l-0.4-0.1c-1.4-0.2-2.1-0.8-2.1-1.9c0-1.1,0.8-2,2.9-2c1,0,1.8,0.2,2.2,0.5l0,1.6c-0.4-0.4-1.2-0.7-2.1-0.7c-0.8,0-1.1,0.2-1.1,0.5
		c0,0.3,0.2,0.5,0.9,0.6l0.4,0.1c1.5,0.2,2.2,0.7,2.2,1.8c0,1.1-0.8,2.1-3,2.1C135.4,18.8,134.7,18.5,134.3,18.3z"/>
	<path id="XMLID_602_" class="st130" d="M143.2,15.5c0-2.3,1.6-3.3,3.6-3.3c2,0,3.4,1,3.4,3.3c0,2.3-1.6,3.3-3.6,3.3
		C144.6,18.7,143.2,17.8,143.2,15.5z M148.1,15.5c0-1.1-0.4-1.8-1.4-1.8c-1,0-1.4,0.7-1.4,1.8c0,1.1,0.4,1.8,1.4,1.8
		C147.7,17.2,148.1,16.5,148.1,15.5z"/>
	<path id="XMLID_600_" class="st130" d="M151.7,13.8l-0.8,0l0-0.6l0.8-0.6c-0.1-0.2-0.2-0.5-0.2-0.9c0-1.2,1.1-1.8,2.5-1.8
		c1,0,1.5,0.2,1.7,0.4l0,1.5c-0.3-0.3-0.7-0.5-1.3-0.5c-0.6,0-0.9,0.2-0.9,0.6c0,0.2,0.1,0.3,0.2,0.4l1.4,0l0,1.4l-1.2,0l0,4.7l-2,0
		L151.7,13.8z"/>
	<path id="XMLID_597_" class="st130" d="M158.6,15.4c0-2.3,1.7-3.3,3.4-3.3c1.6,0,3.2,0.6,3.2,3l0,0.8l-4.5,0
		c0.1,0.7,0.6,1.3,1.9,1.3c1.2,0,1.9-0.4,2.3-0.7l0,1.5c-0.4,0.3-1.2,0.7-2.6,0.7C160,18.7,158.6,17.7,158.6,15.4z M163.2,14.8
		L163.2,14.8c0-0.8-0.4-1.2-1.2-1.2c-0.8,0-1.2,0.6-1.3,1.2L163.2,14.8z"/>
	<path id="XMLID_594_" class="st130" d="M166.6,13.7l-0.8,0l0-0.6l0.8-0.6c-0.1-0.2-0.2-0.5-0.2-0.9c0-1.2,1.1-1.8,2.3-1.8
		c0.8,0,1.2,0.2,1.4,0.4l0,1.5c-0.2-0.3-0.5-0.4-0.9-0.4c-0.4,0-0.7,0.2-0.7,0.6c0,0.2,0.1,0.4,0.2,0.5l2.1,0
		c-0.1-0.2-0.2-0.4-0.2-0.7c0-1.2,1.1-1.8,2.3-1.8c0.8,0,1.2,0.2,1.4,0.3l0,1.5c-0.2-0.3-0.5-0.4-1-0.4c-0.5,0-0.8,0.2-0.7,0.6
		c0,0.2,0.1,0.4,0.2,0.5l4.2,0l0,6.1l-2,0l0-4.8l-2.1,0l0,4.8l-2,0l0-4.8l-2.1,0l0,4.8l-2,0L166.6,13.7z M174.8,10.9
		c0-0.5,0.4-0.9,1-0.9c0.7,0,1.1,0.3,1.1,0.9c0,0.5-0.4,0.9-1.1,0.9C175.2,11.7,174.8,11.4,174.8,10.9z"/>
	<path id="XMLID_592_" class="st130" d="M178,15.4c0-2.3,1.6-3.3,3.5-3.3c1,0,1.8,0.3,2.1,0.5l0,1.6c-0.5-0.4-1-0.6-1.8-0.6
		c-1.1,0-1.6,0.6-1.6,1.7c0,1.1,0.6,1.7,1.7,1.7c0.8,0,1.3-0.3,1.8-0.7l0,1.6c-0.3,0.3-1.1,0.7-2.1,0.7
		C179.4,18.6,178,17.6,178,15.4z"/>
	<path id="XMLID_589_" class="st130" d="M184.4,16.8c0-1.2,1-1.8,2.9-2l1-0.1c0-0.8-0.5-1.1-1.4-1.1c-1,0-1.9,0.4-2.2,1.1l0-1.7
		c0.3-0.4,1.1-0.8,2.6-0.8c2,0,3.1,0.8,3.1,2.6l0,3.7l-1.8,0l-0.2-0.5c-0.2,0.3-0.7,0.7-1.7,0.7C185.4,18.6,184.4,18,184.4,16.8z
		 M188.3,15.8l-0.8,0.2c-0.9,0.2-1.2,0.4-1.2,0.8c0,0.4,0.3,0.6,0.8,0.6c0.5,0,1-0.2,1.2-0.4L188.3,15.8z"/>
	<path id="XMLID_587_" class="st130" d="M191.4,15.3c0-2.3,1.6-3.3,3.5-3.3c1,0,1.8,0.3,2.1,0.5l0,1.6c-0.5-0.4-1-0.6-1.8-0.6
		c-1.1,0-1.6,0.6-1.6,1.7c0,1.1,0.6,1.7,1.7,1.7c0.8,0,1.3-0.3,1.8-0.7l0,1.6c-0.3,0.3-1.1,0.7-2.1,0.7
		C192.8,18.6,191.4,17.6,191.4,15.3z"/>
	<path id="XMLID_585_" class="st130" d="M197.8,20.4l0-1.5c0.3,0.3,0.7,0.4,1.2,0.4c0.5,0,0.9-0.1,1.2-0.8l-2.8-6.3l2.2,0l1.4,4
		l1.2-4l2,0l-1.9,5.9c-0.5,1.5-1.4,2.7-3.2,2.7C198.5,20.7,198,20.6,197.8,20.4z"/>
	<path id="XMLID_582_" class="st130" d="M205,13.4c0-0.6,0.5-1.1,1.2-1.1c0.7,0,1.2,0.5,1.2,1.1c0,0.6-0.5,1.1-1.2,1.1
		C205.5,14.5,205,14.1,205,13.4z M205,17.5c0-0.6,0.5-1.1,1.2-1.1c0.7,0,1.2,0.5,1.2,1.1c0,0.6-0.5,1.1-1.2,1.1
		C205.5,18.6,205,18.1,205,17.5z"/>
	<path id="XMLID_580_" class="st130" d="M214.8,10.7l2.9,0c2.5,0,3.6,0.9,3.6,2.6c0,1.6-1.1,2.9-3.6,2.9l-0.4,0l0-1.4l0.4,0
		c1,0,1.5-0.5,1.5-1.3c0-0.9-0.5-1.3-1.6-1.3l-0.7,0l0,6.2l-2.1,0L214.8,10.7z"/>
	<path id="XMLID_577_" class="st130" d="M224,11.5l-0.3-0.8l2.2,0c0.3,0.7,3.1,7,3.4,7.6l-2.2,0l-0.6-1.4l-3,0l-0.6,1.4l-2,0
		L224,11.5z M224,15.6l1.9,0l-0.7-1.7l-0.2-0.6l-0.2,0.6L224,15.6z"/>
	<path id="XMLID_575_" class="st130" d="M230.1,11.4l-0.5-0.7l2.5,0l3.4,4.4h0l0-4.4l1.9,0l0,7.6l-1.7,0l-3.7-4.7h0l0,4.7l-1.9,0
		L230.1,11.4z"/>
	<path id="XMLID_573_" class="st130" d="M238.8,17.9l0-1.9c0.4,0.4,1.2,0.9,2.3,0.9c0.9,0,1.4-0.3,1.4-0.9c0-0.5-0.3-0.6-1.1-0.8
		l-0.3-0.1c-1.4-0.2-2.3-0.9-2.3-2.3c0-1.5,1.2-2.4,3.2-2.4c1.3,0,2,0.3,2.3,0.5l0,1.8c-0.4-0.5-1.2-0.8-2.3-0.8
		c-0.8,0-1.2,0.2-1.2,0.7c0,0.4,0.2,0.7,1,0.8l0.3,0.1c1.5,0.3,2.4,0.8,2.4,2.2c0,1.5-1.2,2.6-3.4,2.6
		C239.9,18.5,239.1,18.2,238.8,17.9z"/>
	<path id="XMLID_571_" class="st130" d="M245.5,17.9l0-1.9c0.4,0.4,1.2,0.9,2.3,0.9c0.9,0,1.4-0.3,1.4-0.9c0-0.5-0.3-0.6-1.1-0.8
		l-0.3-0.1c-1.4-0.2-2.3-0.9-2.3-2.3c0-1.5,1.2-2.4,3.2-2.4c1.3,0,2,0.3,2.3,0.5l0,1.8c-0.4-0.5-1.2-0.8-2.3-0.8
		c-0.8,0-1.2,0.2-1.2,0.7c0,0.4,0.2,0.7,1,0.8l0.3,0.1c1.5,0.3,2.4,0.8,2.4,2.2c0,1.5-1.2,2.6-3.4,2.6
		C246.6,18.4,245.8,18.1,245.5,17.9z"/>
	<path id="XMLID_569_" class="st130" d="M255.5,10.6l2.9,0c2.5,0,3.6,0.9,3.6,2.6c0,1.6-1.1,2.9-3.6,2.9l-0.4,0l0-1.4l0.4,0
		c1,0,1.5-0.5,1.5-1.3c0-0.9-0.5-1.3-1.6-1.3l-0.7,0l0,6.2l-2.1,0L255.5,10.6z"/>
	<path id="XMLID_566_" class="st130" d="M262.6,15.1c0-2.3,1.6-3.3,3.6-3.3c2,0,3.4,1,3.4,3.3c0,2.3-1.6,3.3-3.6,3.3
		C264,18.4,262.6,17.4,262.6,15.1z M267.5,15.1c0-1.1-0.4-1.8-1.4-1.8c-1,0-1.4,0.7-1.4,1.8c0,1.1,0.4,1.8,1.4,1.8
		C267.1,16.9,267.5,16.2,267.5,15.1z"/>
	<path id="XMLID_564_" class="st130" d="M270.5,17.9l0-1.6c0.4,0.4,1.1,0.7,2.1,0.7c0.9,0,1.2-0.3,1.2-0.6c0-0.3-0.2-0.5-0.9-0.6
		l-0.4-0.1c-1.4-0.2-2.1-0.8-2.1-1.9c0-1.1,0.8-2,2.9-2c1,0,1.8,0.2,2.2,0.5l0,1.6c-0.4-0.4-1.2-0.7-2.1-0.7c-0.8,0-1.1,0.2-1.1,0.5
		c0,0.3,0.2,0.5,0.9,0.6l0.4,0.1c1.5,0.2,2.2,0.7,2.2,1.8c0,1.1-0.8,2.1-3,2.1C271.6,18.4,270.9,18.1,270.5,17.9z"/>
	<path id="XMLID_561_" class="st130" d="M276.7,10.5c0-0.5,0.4-0.9,1-0.9c0.6,0,1.1,0.3,1.1,0.9c0,0.5-0.4,0.9-1.1,0.9
		C277.1,11.4,276.7,11.1,276.7,10.5z M276.8,12l2,0l0,6.2l-2,0L276.8,12z"/>
	<path id="XMLID_559_" class="st130" d="M280.6,16.4l0-3l-0.8,0l0-0.7l0.7-0.8l1.2-1.5l0.9,0l0,1.5l1.6,0l0,1.4l-1.6,0l0,2.8
		c0,0.4,0.2,0.7,0.6,0.7c0.5,0,0.8-0.2,1-0.5l0,1.5c-0.2,0.2-0.7,0.5-1.6,0.5C281.2,18.3,280.6,17.6,280.6,16.4z"/>
	<path id="XMLID_556_" class="st130" d="M285.3,10.5c0-0.5,0.4-0.9,1-0.9c0.6,0,1.1,0.3,1.1,0.9c0,0.5-0.4,0.9-1.1,0.9
		C285.7,11.3,285.3,11,285.3,10.5z M285.4,12l2,0l0,6.2l-2,0L285.4,12z"/>
	<path id="XMLID_554_" class="st130" d="M288.2,12l2.2,0l1.1,2.9l0.2,0.7c0.1-0.2,0.2-0.5,0.2-0.7l1.2-2.9l2,0l-2.8,6.2l-1.4,0
		L288.2,12z"/>
	<path id="XMLID_551_" class="st130" d="M295.3,15c0-2.3,1.7-3.3,3.4-3.3c1.6,0,3.2,0.6,3.2,3l0,0.8l-4.5,0c0.1,0.7,0.6,1.3,1.9,1.3
		c1.2,0,1.9-0.4,2.3-0.7l0,1.5c-0.4,0.3-1.2,0.7-2.6,0.7C296.7,18.3,295.3,17.3,295.3,15z M299.9,14.4L299.9,14.4
		c0-0.8-0.4-1.2-1.2-1.2c-0.8,0-1.2,0.6-1.3,1.2L299.9,14.4z"/>
	<path id="XMLID_549_" class="st130" d="M305.8,17.7l0-1.9c0.4,0.4,1.2,0.9,2.3,0.9c0.9,0,1.4-0.3,1.4-0.9c0-0.5-0.3-0.6-1.1-0.8
		L308,15c-1.4-0.2-2.3-0.9-2.3-2.3c0-1.5,1.2-2.4,3.2-2.4c1.3,0,2,0.3,2.3,0.5l0,1.8c-0.4-0.5-1.2-0.8-2.3-0.8
		c-0.8,0-1.2,0.2-1.2,0.7c0,0.4,0.2,0.7,1,0.8l0.3,0.1c1.5,0.3,2.4,0.8,2.4,2.2c0,1.5-1.2,2.6-3.4,2.6
		C306.8,18.3,306.1,18,305.8,17.7z"/>
	<path id="XMLID_547_" class="st130" d="M312.6,15.7l0-3.8l2,0l0,3.5c0,1,0.2,1.4,1,1.4c0.6,0,0.9-0.3,1.1-0.5l0-4.4l2,0l0,6.2
		l-1.8,0l-0.1-0.5c-0.3,0.4-0.9,0.7-1.8,0.7C313.3,18.3,312.6,17.4,312.6,15.7z"/>
	<path id="XMLID_544_" class="st130" d="M322.1,17.6l-0.2,0.4l-1.6,0l0-8.4l2,0l0,2.7c0.2-0.3,0.8-0.7,1.8-0.7
		c1.7,0,2.8,0.8,2.8,3.1c0,2.3-1.3,3.4-3.1,3.5C322.9,18.2,322.4,17.9,322.1,17.6z M322.3,16.4c0.3,0.3,0.7,0.4,1.1,0.4
		c1,0,1.3-0.9,1.3-1.9s-0.3-1.7-1.3-1.7c-0.6,0-1,0.2-1.2,0.5L322.3,16.4z"/>
	<path id="XMLID_542_" class="st130" d="M327.9,13.8l3.4,0l0,1.5l-3.4,0L327.9,13.8z"/>
	<path id="XMLID_540_" class="st130" d="M332.6,17.7l0-1.6c0.4,0.4,1.1,0.7,2.1,0.7c0.9,0,1.2-0.3,1.2-0.6c0-0.3-0.2-0.5-0.9-0.6
		l-0.4-0.1c-1.4-0.2-2.1-0.8-2.1-1.9c0-1.1,0.8-2,2.9-2c1,0,1.8,0.2,2.2,0.5l0,1.6c-0.4-0.4-1.2-0.7-2.1-0.7c-0.8,0-1.1,0.2-1.1,0.5
		c0,0.3,0.2,0.5,0.9,0.6l0.4,0.1c1.5,0.2,2.2,0.7,2.2,1.8c0,1.1-0.8,2.1-3,2.1C333.7,18.2,332.9,18,332.6,17.7z"/>
	<path id="XMLID_538_" class="st130" d="M338.5,14.9c0-2.3,1.6-3.3,3.5-3.3c1,0,1.8,0.3,2.1,0.5l0,1.6c-0.5-0.4-1-0.6-1.8-0.6
		c-1.1,0-1.6,0.6-1.6,1.7c0,1.1,0.6,1.7,1.7,1.7c0.8,0,1.3-0.3,1.8-0.7l0,1.6c-0.3,0.3-1.1,0.7-2.1,0.7
		C339.9,18.2,338.5,17.2,338.5,14.9z"/>
	<path id="XMLID_535_" class="st130" d="M344.9,16.3c0-1.2,1-1.8,2.9-2l1-0.1c0-0.8-0.5-1.1-1.4-1.1c-1,0-1.9,0.4-2.2,1.1l0-1.7
		c0.3-0.4,1.1-0.8,2.6-0.8c2,0,3.1,0.8,3.1,2.6l0,3.7l-1.8,0l-0.2-0.5c-0.2,0.3-0.7,0.7-1.7,0.7C345.8,18.2,344.9,17.6,344.9,16.3z
		 M348.8,15.3l-0.8,0.2c-0.9,0.2-1.2,0.4-1.2,0.8c0,0.4,0.3,0.6,0.8,0.6c0.5,0,1-0.2,1.2-0.4L348.8,15.3z"/>
	<path id="XMLID_533_" class="st130" d="M352.2,16.4l0-6.9l2,0l0,6.7c0,0.3,0.1,0.5,0.4,0.5c0.3,0,0.5-0.1,0.6-0.3l0,1.4
		c-0.2,0.1-0.6,0.3-1.2,0.3C352.8,18.1,352.2,17.5,352.2,16.4z"/>
	<path id="XMLID_530_" class="st130" d="M355.9,14.9c0-2.3,1.7-3.3,3.4-3.3c1.6,0,3.2,0.6,3.2,3l0,0.8l-4.5,0
		c0.1,0.7,0.6,1.3,1.9,1.3c1.2,0,1.9-0.4,2.3-0.7l0,1.5c-0.4,0.3-1.2,0.7-2.6,0.7C357.2,18.1,355.9,17.1,355.9,14.9z M360.5,14.2
		L360.5,14.2c0-0.8-0.4-1.2-1.2-1.2c-0.8,0-1.2,0.6-1.3,1.2L360.5,14.2z"/>
	<path id="XMLID_528_" class="st130" d="M366.4,17.6l0-1.9c0.4,0.4,1.2,0.9,2.3,0.9c0.9,0,1.4-0.3,1.4-0.9c0-0.5-0.3-0.6-1.1-0.8
		l-0.3-0.1c-1.4-0.2-2.3-0.9-2.3-2.3c0-1.5,1.2-2.4,3.2-2.4c1.3,0,2,0.3,2.3,0.5l0,1.8c-0.4-0.5-1.2-0.8-2.3-0.8
		c-0.8,0-1.2,0.2-1.2,0.7c0,0.4,0.2,0.7,1,0.8l0.3,0.1c1.5,0.3,2.4,0.8,2.4,2.2c0,1.5-1.2,2.6-3.4,2.6
		C367.4,18.1,366.7,17.8,366.4,17.6z"/>
	<path id="XMLID_526_" class="st130" d="M372.9,14.8c0-2.3,1.6-3.3,3.5-3.3c1,0,1.8,0.3,2.1,0.5l0,1.6c-0.5-0.4-1-0.6-1.8-0.6
		c-1.1,0-1.6,0.6-1.6,1.7c0,1.1,0.6,1.7,1.7,1.7c0.8,0,1.3-0.3,1.8-0.7l0,1.6c-0.3,0.3-1.1,0.7-2.1,0.7
		C374.3,18.1,372.9,17.1,372.9,14.8z"/>
	<path id="XMLID_523_" class="st130" d="M379.3,14.8c0-2.3,1.6-3.3,3.6-3.3c2,0,3.4,1,3.4,3.3c0,2.3-1.6,3.3-3.6,3.3
		C380.7,18.1,379.3,17.1,379.3,14.8z M384.2,14.8c0-1.1-0.4-1.8-1.4-1.8c-1,0-1.4,0.7-1.4,1.8c0,1.1,0.4,1.8,1.4,1.8
		C383.8,16.6,384.2,15.9,384.2,14.8z"/>
	<path id="XMLID_521_" class="st130" d="M387.4,11.7l1.7,0l0.2,0.8c0.1-0.6,0.7-1,1.3-1c0.4,0,0.6,0.1,0.7,0.2l0,1.7
		c-0.2-0.1-0.4-0.2-0.8-0.2c-0.5,0-0.8,0.2-1,0.5l0,4.2l-2,0L387.4,11.7z"/>
	<path id="XMLID_518_" class="st130" d="M391.7,14.7c0-2.3,1.7-3.3,3.4-3.3c1.6,0,3.2,0.6,3.2,3l0,0.8l-4.5,0
		c0.1,0.7,0.6,1.3,1.9,1.3c1.2,0,1.9-0.4,2.3-0.7l0,1.5c-0.4,0.3-1.2,0.7-2.6,0.7C393.1,18,391.7,17,391.7,14.7z M396.4,14.1
		L396.4,14.1c0-0.8-0.4-1.2-1.2-1.2c-0.8,0-1.2,0.6-1.3,1.2L396.4,14.1z"/>
</g>
<g id="XMLID_512_">
	<path id="XMLID_516_" class="st130" d="M0.7,235.9c0,7.3,5.9,13.2,13.2,13.2h381.4c7.3,0,13.2-5.9,13.2-13.2V41.2
		c0-7.3-5.9-13.2-13.2-13.2H13.9C6.6,28,0.7,33.9,0.7,41.2V235.9z"/>
	<path id="XMLID_513_" class="st131" d="M395.3,249.8H13.9c-7.7,0-13.9-6.2-13.9-13.9V41.2c0-7.7,6.2-13.9,13.9-13.9h381.4
		c7.7,0,13.9,6.2,13.9,13.9v194.8C409.2,243.6,403,249.8,395.3,249.8z M13.9,28.7C7,28.7,1.4,34.3,1.4,41.2v194.8
		c0,6.9,5.6,12.5,12.5,12.5h381.4c6.9,0,12.5-5.6,12.5-12.5V41.2c0-6.9-5.6-12.5-12.5-12.5H13.9z"/>
</g>
<path id="XMLID_511_" class="st132" d="M299.4,28.1h95.2c7.3,0,13.2,5.9,13.2,13.2v194.8c0,7.3-5.9,13.2-13.2,13.2h-95.2V28.1z"/>
<g id="XMLID_498_">
	<path id="XMLID_509_" class="st0" d="M193.3,40h1l0.7,2.6l1-2.6h0.4l1,2.6l0.6-2.6h1l-1.2,4.5h-0.6l-1-2.7l-1,2.7h-0.6L193.3,40z"
		/>
	<path id="XMLID_506_" class="st0" d="M199.6,42.3c0-1.6,1.1-2.4,2.1-2.4c1,0,2,0.5,2,2.1v0.6h-3c0,0.6,0.4,1.2,1.3,1.2
		c0.8,0,1.3-0.3,1.5-0.6v1c-0.2,0.3-0.7,0.6-1.6,0.6C200.5,44.6,199.6,43.9,199.6,42.3z M202.6,41.9L202.6,41.9c0-0.7-0.3-1.1-1-1.1
		c-0.6,0-1,0.6-1,1.1H202.6z"/>
	<path id="XMLID_503_" class="st0" d="M204.2,42.3c0-1.6,1.1-2.4,2.1-2.4c1,0,2,0.5,2,2.1v0.6h-3c0,0.6,0.4,1.2,1.3,1.2
		c0.8,0,1.3-0.3,1.5-0.6v1c-0.2,0.3-0.7,0.6-1.6,0.6C205.1,44.6,204.2,43.9,204.2,42.3z M207.3,41.9L207.3,41.9c0-0.7-0.3-1.1-1-1.1
		c-0.6,0-1,0.6-1,1.1H207.3z"/>
	<path id="XMLID_501_" class="st0" d="M210.7,42.5c-0.3,0.3-0.5,0.4-0.5,0.4v1.6h-1v-6.1h1v3.4c0,0,1-0.8,1.7-1.8h1.1
		c-0.4,0.6-1,1.2-1.5,1.7l1.7,2.7H212L210.7,42.5z"/>
	<path id="XMLID_499_" class="st0" d="M215.6,44.4v-1c0.2,0.2,0.6,0.4,1.2,0.4c0.8,0,1.2-0.3,1.2-0.9c0-0.5-0.3-0.8-1.2-0.8
		c-0.4,0-0.8,0.1-1,0.2l0.1-3.3h3v0.9h-2.1l0,1.3c0.1,0,0.3,0,0.5,0c1.2,0,1.8,0.5,1.8,1.6c0,1.1-0.9,1.8-2.2,1.8
		C216.1,44.6,215.8,44.5,215.6,44.4z"/>
</g>
<g id="XMLID_469_">
	<g id="XMLID_471_">
		<path id="XMLID_483_" class="st0" d="M226.5,40h1l0.7,2.6l1-2.6h0.4l1,2.6l0.6-2.6h1l-1.2,4.5h-0.6l-1-2.7l-1,2.7h-0.6L226.5,40z"
			/>
		<path id="XMLID_480_" class="st0" d="M232.7,42.3c0-1.6,1.1-2.4,2.1-2.4c1,0,2,0.5,2,2.1v0.6h-3c0,0.6,0.4,1.2,1.3,1.2
			c0.8,0,1.3-0.3,1.5-0.6v1c-0.2,0.3-0.7,0.6-1.6,0.6C233.6,44.6,232.7,43.9,232.7,42.3z M235.7,41.9L235.7,41.9
			c0-0.7-0.3-1.1-1-1.1c-0.6,0-1,0.6-1,1.1H235.7z"/>
		<path id="XMLID_477_" class="st0" d="M237.3,42.3c0-1.6,1.1-2.4,2.1-2.4c1,0,2,0.5,2,2.1v0.6h-3c0,0.6,0.4,1.2,1.3,1.2
			c0.8,0,1.3-0.3,1.5-0.6v1c-0.2,0.3-0.7,0.6-1.6,0.6C238.3,44.6,237.3,43.9,237.3,42.3z M240.4,41.9L240.4,41.9
			c0-0.7-0.3-1.1-1-1.1c-0.6,0-1,0.6-1,1.1H240.4z"/>
		<path id="XMLID_475_" class="st0" d="M243.8,42.5c-0.3,0.3-0.5,0.4-0.5,0.4v1.6h-1v-6.1h1v3.4c0,0,1-0.8,1.7-1.8h1.1
			c-0.4,0.6-1,1.2-1.5,1.7l1.7,2.7h-1.2L243.8,42.5z"/>
		<path id="XMLID_472_" class="st0" d="M248.7,42.5c0-2,1.2-3.1,2.1-3.5h1.5v0c-1,0.4-1.8,1-2.2,1.9c0.2-0.1,0.5-0.2,0.9-0.2
			c1.2,0,1.8,0.7,1.8,1.9c0,1.1-0.8,2-2,2C249.4,44.6,248.7,43.7,248.7,42.5z M251.6,42.7c0-0.6-0.3-1.1-1-1.1
			c-0.5,0-0.7,0.2-0.9,0.4c0,0.2,0,0.4,0,0.6c0,0.7,0.3,1.1,1,1.1S251.6,43.3,251.6,42.7z"/>
	</g>
</g>
<line id="XMLID_468_" class="st133" x1="221.8" y1="56" x2="221.8" y2="53.3"/>
<line id="XMLID_467_" class="st133" x1="255" y1="56" x2="255" y2="53.3"/>
<g id="XMLID_438_">
	<g id="XMLID_440_">
		<path id="XMLID_452_" class="st0" d="M30.9,41h1l0.7,2.6l1-2.6h0.4l1,2.6l0.6-2.6h1l-1.2,4.5h-0.6l-1-2.7l-1,2.7h-0.6L30.9,41z"/>
		<path id="XMLID_449_" class="st0" d="M37.2,43.2c0-1.6,1.1-2.4,2.1-2.4c1,0,2,0.5,2,2.1v0.6h-3c0,0.6,0.4,1.2,1.3,1.2
			c0.8,0,1.3-0.3,1.5-0.6v1c-0.2,0.3-0.7,0.6-1.6,0.6C38.1,45.6,37.2,44.8,37.2,43.2z M40.2,42.8L40.2,42.8c0-0.7-0.3-1.1-1-1.1
			c-0.6,0-1,0.6-1,1.1H40.2z"/>
		<path id="XMLID_446_" class="st0" d="M41.8,43.2c0-1.6,1.1-2.4,2.1-2.4c1,0,2,0.5,2,2.1v0.6h-3c0,0.6,0.4,1.2,1.3,1.2
			c0.8,0,1.3-0.3,1.5-0.6v1c-0.2,0.3-0.7,0.6-1.6,0.6C42.7,45.6,41.8,44.8,41.8,43.2z M44.9,42.8L44.9,42.8c0-0.7-0.3-1.1-1-1.1
			c-0.6,0-1,0.6-1,1.1H44.9z"/>
		<path id="XMLID_444_" class="st0" d="M48.3,43.4c-0.3,0.3-0.5,0.4-0.5,0.4v1.6h-1v-6.1h1v3.4c0,0,1-0.8,1.7-1.8h1.1
			c-0.4,0.6-1,1.2-1.5,1.7l1.7,2.7h-1.2L48.3,43.4z"/>
		<path id="XMLID_441_" class="st0" d="M53.1,42.7c0-1.9,1.3-2.9,2.8-2.9c1.7,0,2.8,1,2.8,2.9c0,1.9-1.3,2.9-2.8,2.9
			C54.2,45.6,53.1,44.5,53.1,42.7z M57.5,42.7c0-1.3-0.7-2-1.7-2c-0.9,0-1.7,0.7-1.7,2c0,1.3,0.7,2,1.7,2
			C56.8,44.7,57.5,44,57.5,42.7z"/>
	</g>
</g>
<g id="XMLID_411_">
	<g id="XMLID_413_">
		<path id="XMLID_424_" class="st0" d="M63.5,40h1l0.7,2.6l1-2.6h0.4l1,2.6l0.6-2.6h1l-1.2,4.5h-0.6l-1-2.7l-1,2.7h-0.6L63.5,40z"/>
		<path id="XMLID_421_" class="st0" d="M69.7,42.3c0-1.6,1.1-2.4,2.1-2.4c1,0,2,0.5,2,2.1v0.6h-3c0,0.6,0.4,1.2,1.3,1.2
			c0.8,0,1.3-0.3,1.5-0.6v1c-0.2,0.3-0.7,0.6-1.6,0.6C70.6,44.6,69.7,43.9,69.7,42.3z M72.8,41.9L72.8,41.9c0-0.7-0.3-1.1-1-1.1
			c-0.6,0-1,0.6-1,1.1H72.8z"/>
		<path id="XMLID_418_" class="st0" d="M74.4,42.3c0-1.6,1.1-2.4,2.1-2.4c1,0,2,0.5,2,2.1v0.6h-3c0,0.6,0.4,1.2,1.3,1.2
			c0.8,0,1.3-0.3,1.5-0.6v1c-0.2,0.3-0.7,0.6-1.6,0.6C75.3,44.6,74.4,43.9,74.4,42.3z M77.4,41.9L77.4,41.9c0-0.7-0.3-1.1-1-1.1
			c-0.6,0-1,0.6-1,1.1H77.4z"/>
		<path id="XMLID_416_" class="st0" d="M80.9,42.5c-0.3,0.3-0.5,0.4-0.5,0.4v1.6h-1v-6.1h1v3.4c0,0,1-0.8,1.7-1.8h1.1
			c-0.4,0.6-1,1.2-1.5,1.7l1.7,2.7h-1.2L80.9,42.5z"/>
		<path id="XMLID_414_" class="st0" d="M86.8,40.3c-0.2,0.2-0.7,0.3-1.3,0.3v-0.9c0.8,0,1.4-0.2,1.8-0.7h0.5v5.5h-1V40.3z"/>
	</g>
</g>
<g id="XMLID_384_">
	<g id="XMLID_386_">
		<path id="XMLID_397_" class="st0" d="M95.7,40h1l0.7,2.6l1-2.6h0.4l1,2.6l0.6-2.6h1l-1.2,4.5h-0.6l-1-2.7l-1,2.7h-0.6L95.7,40z"/>
		<path id="XMLID_394_" class="st0" d="M101.9,42.3c0-1.6,1.1-2.4,2.1-2.4c1,0,2,0.5,2,2.1v0.6h-3c0,0.6,0.4,1.2,1.3,1.2
			c0.8,0,1.3-0.3,1.5-0.6v1c-0.2,0.3-0.7,0.6-1.6,0.6C102.8,44.6,101.9,43.9,101.9,42.3z M104.9,41.9L104.9,41.9
			c0-0.7-0.3-1.1-1-1.1c-0.6,0-1,0.6-1,1.1H104.9z"/>
		<path id="XMLID_391_" class="st0" d="M106.6,42.3c0-1.6,1.1-2.4,2.1-2.4c1,0,2,0.5,2,2.1v0.6h-3c0,0.6,0.4,1.2,1.3,1.2
			c0.8,0,1.3-0.3,1.5-0.6v1c-0.2,0.3-0.7,0.6-1.6,0.6C107.5,44.6,106.6,43.9,106.6,42.3z M109.6,41.9L109.6,41.9
			c0-0.7-0.3-1.1-1-1.1c-0.6,0-1,0.6-1,1.1H109.6z"/>
		<path id="XMLID_389_" class="st0" d="M113,42.5c-0.3,0.3-0.5,0.4-0.5,0.4v1.6h-1v-6.1h1v3.4c0,0,1-0.8,1.7-1.8h1.1
			c-0.4,0.6-1,1.2-1.5,1.7l1.7,2.7h-1.2L113,42.5z"/>
		<path id="XMLID_387_" class="st0" d="M117.9,44.4l1.7-2.3c0.3-0.4,0.6-0.9,0.6-1.4c0-0.6-0.3-0.9-0.9-0.9c-0.5,0-1.1,0.3-1.4,0.7
			v-1c0.3-0.3,0.8-0.6,1.6-0.6c1.3,0,1.8,0.7,1.8,1.7c0,0.9-0.6,1.7-1.1,2.3l-0.5,0.7h1.7v1h-3.4V44.4z"/>
	</g>
</g>
<g id="XMLID_371_">
	<path id="XMLID_382_" class="st0" d="M128.5,40h1l0.7,2.6l1-2.6h0.4l1,2.6l0.6-2.6h1l-1.2,4.5h-0.6l-1-2.7l-1,2.7h-0.6L128.5,40z"
		/>
	<path id="XMLID_379_" class="st0" d="M134.7,42.3c0-1.6,1.1-2.4,2.1-2.4c1,0,2,0.5,2,2.1v0.6h-3c0,0.6,0.4,1.2,1.3,1.2
		c0.8,0,1.3-0.3,1.5-0.6v1c-0.2,0.3-0.7,0.6-1.6,0.6C135.6,44.6,134.7,43.9,134.7,42.3z M137.8,41.9L137.8,41.9c0-0.7-0.3-1.1-1-1.1
		c-0.6,0-1,0.6-1,1.1H137.8z"/>
	<path id="XMLID_376_" class="st0" d="M139.4,42.3c0-1.6,1.1-2.4,2.1-2.4c1,0,2,0.5,2,2.1v0.6h-3c0,0.6,0.4,1.2,1.3,1.2
		c0.8,0,1.3-0.3,1.5-0.6v1c-0.2,0.3-0.7,0.6-1.6,0.6C140.3,44.6,139.4,43.9,139.4,42.3z M142.4,41.9L142.4,41.9c0-0.7-0.3-1.1-1-1.1
		c-0.6,0-1,0.6-1,1.1H142.4z"/>
	<path id="XMLID_374_" class="st0" d="M145.9,42.5c-0.3,0.3-0.5,0.4-0.5,0.4v1.6h-1v-6.1h1v3.4c0,0,1-0.8,1.7-1.8h1.1
		c-0.4,0.6-1,1.2-1.5,1.7l1.7,2.7h-1.2L145.9,42.5z"/>
	<path id="XMLID_372_" class="st0" d="M150.8,44.4v-1c0.2,0.2,0.6,0.4,1.1,0.4c0.9,0,1.3-0.3,1.3-0.9c0-0.5-0.3-0.8-1.2-0.8h-0.4
		v-0.1l1.1-2h-2V39h3.4v0.1l-1.2,2.2c0.7,0.1,1.3,0.5,1.3,1.6c0,0.9-0.7,1.8-2.3,1.8C151.3,44.6,151,44.5,150.8,44.4z"/>
</g>
<g id="XMLID_358_">
	<path id="XMLID_369_" class="st0" d="M161.3,40h1l0.7,2.6l1-2.6h0.4l1,2.6l0.6-2.6h1l-1.2,4.5h-0.6l-1-2.7l-1,2.7h-0.6L161.3,40z"
		/>
	<path id="XMLID_366_" class="st0" d="M167.5,42.3c0-1.6,1.1-2.4,2.1-2.4c1,0,2,0.5,2,2.1v0.6h-3c0,0.6,0.4,1.2,1.3,1.2
		c0.8,0,1.3-0.3,1.5-0.6v1c-0.2,0.3-0.7,0.6-1.6,0.6C168.4,44.6,167.5,43.9,167.5,42.3z M170.5,41.9L170.5,41.9c0-0.7-0.3-1.1-1-1.1
		c-0.6,0-1,0.6-1,1.1H170.5z"/>
	<path id="XMLID_363_" class="st0" d="M172.2,42.3c0-1.6,1.1-2.4,2.1-2.4c1,0,2,0.5,2,2.1v0.6h-3c0,0.6,0.4,1.2,1.3,1.2
		c0.8,0,1.3-0.3,1.5-0.6v1c-0.2,0.3-0.7,0.6-1.6,0.6C173.1,44.6,172.2,43.9,172.2,42.3z M175.2,41.9L175.2,41.9c0-0.7-0.3-1.1-1-1.1
		c-0.6,0-1,0.6-1,1.1H175.2z"/>
	<path id="XMLID_361_" class="st0" d="M178.6,42.5c-0.3,0.3-0.5,0.4-0.5,0.4v1.6h-1v-6.1h1v3.4c0,0,1-0.8,1.7-1.8h1.1
		c-0.4,0.6-1,1.2-1.5,1.7l1.7,2.7h-1.2L178.6,42.5z"/>
	<path id="XMLID_359_" class="st0" d="M185.9,43.4h-2.7v-0.1l1.6-4.3h1l-1.2,3.4h1.3v-2h1v2h0.6v1h-0.6v1.1h-1V43.4z"/>
</g>
<line id="XMLID_357_" class="st133" x1="58.9" y1="56.2" x2="58.9" y2="53.5"/>
<line id="XMLID_356_" class="st133" x1="124.1" y1="56" x2="124.1" y2="53.3"/>
<line id="XMLID_355_" class="st133" x1="92.7" y1="56" x2="92.7" y2="53.3"/>
<line id="XMLID_354_" class="st133" x1="156.6" y1="56" x2="156.6" y2="53.3"/>
<line id="XMLID_353_" class="st133" x1="189.2" y1="56" x2="189.2" y2="53.3"/>
<path id="XMLID_352_" class="st134" d="M80.1,101.7"/>
<path id="XMLID_351_" class="st134" d="M118.1,106.6"/>
<line id="XMLID_350_" class="st135" x1="299.4" y1="249.3" x2="299.4" y2="28.2"/>
<g id="XMLID_223_">
	<polyline id="XMLID_349_" class="st136" points="43,57.6 79.8,126.6 116.1,168.2 152.9,225.1 189.7,227.7 226.5,218.7 263.3,217.2 
			"/>
	<g id="XMLID_346_">
		<polygon id="XMLID_348_" class="st137" points="43,55.5 45.2,57.6 43,59.7 40.8,57.6 		"/>
		<polygon id="XMLID_347_" class="st138" points="43,55.5 45.2,57.6 43,59.7 40.8,57.6 		"/>
	</g>
	<g id="XMLID_343_">
		<polygon id="XMLID_345_" class="st139" points="43,55.5 45.2,57.6 43,59.7 40.8,57.6 		"/>
		<polygon id="XMLID_344_" class="st140" points="43,55.5 45.2,57.6 43,59.7 40.8,57.6 		"/>
	</g>
	<g id="XMLID_340_">
		<polygon id="XMLID_342_" class="st137" points="79.8,124.5 82,126.6 79.8,128.7 77.6,126.6 		"/>
		<polygon id="XMLID_341_" class="st138" points="79.8,124.5 82,126.6 79.8,128.7 77.6,126.6 		"/>
	</g>
	<g id="XMLID_337_">
		
			<rect id="XMLID_339_" x="77.6" y="124.4" transform="matrix(0.7071 -0.7072 0.7072 0.7071 -66.1377 93.5103)" class="st141" width="4.4" height="4.4"/>
		
			<rect id="XMLID_338_" x="77.6" y="124.4" transform="matrix(0.7071 -0.7072 0.7072 0.7071 -66.1377 93.5103)" class="st142" width="4.4" height="4.4"/>
	</g>
	<g id="XMLID_334_">
		<polygon id="XMLID_336_" class="st137" points="116.1,166.1 118.2,168.2 116.1,170.3 113.9,168.2 		"/>
		<polygon id="XMLID_335_" class="st138" points="116.1,166.1 118.2,168.2 116.1,170.3 113.9,168.2 		"/>
	</g>
	<g id="XMLID_331_">
		
			<rect id="XMLID_333_" x="113.9" y="166" transform="matrix(0.7069 -0.7073 0.7073 0.7069 -84.9434 131.3866)" class="st141" width="4.4" height="4.4"/>
		
			<rect id="XMLID_332_" x="113.9" y="166" transform="matrix(0.7069 -0.7073 0.7073 0.7069 -84.9434 131.3866)" class="st142" width="4.4" height="4.4"/>
	</g>
	<g id="XMLID_328_">
		<polygon id="XMLID_330_" class="st137" points="152.9,223 155,225.1 152.9,227.2 150.7,225.1 		"/>
		<polygon id="XMLID_329_" class="st138" points="152.9,223 155,225.1 152.9,227.2 150.7,225.1 		"/>
	</g>
	<g id="XMLID_325_">
		
			<rect id="XMLID_327_" x="150.7" y="222.9" transform="matrix(0.7066 -0.7076 0.7076 0.7066 -114.4092 174.2122)" class="st141" width="4.4" height="4.4"/>
		
			<rect id="XMLID_326_" x="150.7" y="222.9" transform="matrix(0.7066 -0.7076 0.7076 0.7066 -114.4092 174.2122)" class="st142" width="4.4" height="4.4"/>
	</g>
	<g id="XMLID_322_">
		<polygon id="XMLID_324_" class="st137" points="189.7,225.6 191.8,227.7 189.7,229.8 187.5,227.7 		"/>
		<polygon id="XMLID_323_" class="st138" points="189.7,225.6 191.8,227.7 189.7,229.8 187.5,227.7 		"/>
	</g>
	<g id="XMLID_319_">
		
			<rect id="XMLID_321_" x="187.5" y="225.5" transform="matrix(0.7071 -0.7071 0.7071 0.7071 -105.4526 200.8135)" class="st141" width="4.4" height="4.4"/>
		
			<rect id="XMLID_320_" x="187.5" y="225.5" transform="matrix(0.7071 -0.7071 0.7071 0.7071 -105.4526 200.8135)" class="st142" width="4.4" height="4.4"/>
	</g>
	<g id="XMLID_316_">
		<polygon id="XMLID_318_" class="st137" points="226.5,216.6 228.7,218.7 226.5,220.9 224.3,218.7 		"/>
		<polygon id="XMLID_317_" class="st138" points="226.5,216.6 228.7,218.7 226.5,220.9 224.3,218.7 		"/>
	</g>
	<g id="XMLID_313_">
		
			<rect id="XMLID_315_" x="224.3" y="216.6" transform="matrix(0.7072 -0.707 0.707 0.7072 -88.3408 224.1953)" class="st141" width="4.4" height="4.4"/>
		
			<rect id="XMLID_314_" x="224.3" y="216.6" transform="matrix(0.7072 -0.707 0.707 0.7072 -88.3408 224.1953)" class="st142" width="4.4" height="4.4"/>
	</g>
	<g id="XMLID_310_">
		<polygon id="XMLID_312_" class="st137" points="263.3,215.1 265.5,217.2 263.3,219.3 261.1,217.2 		"/>
		<polygon id="XMLID_311_" class="st138" points="263.3,215.1 265.5,217.2 263.3,219.3 261.1,217.2 		"/>
	</g>
	<g id="XMLID_307_">
		
			<rect id="XMLID_309_" x="261.1" y="215" transform="matrix(0.7071 -0.7071 0.7071 0.7071 -76.4425 249.7932)" class="st141" width="4.4" height="4.4"/>
		
			<rect id="XMLID_308_" x="261.1" y="215" transform="matrix(0.7071 -0.7071 0.7071 0.7071 -76.4425 249.7932)" class="st142" width="4.4" height="4.4"/>
	</g>
	<polyline id="XMLID_306_" class="st143" points="43,57.6 79.8,90.8 116.1,120.3 152.9,126.6 189.7,135.5 226.5,123.4 263.3,129.2 	
		"/>
	<g id="XMLID_303_">
		<rect id="XMLID_305_" x="40.3" y="55" class="st144" width="4.3" height="4.2"/>
		<rect id="XMLID_304_" x="40.3" y="55" class="st138" width="4.3" height="4.2"/>
	</g>
	<g id="XMLID_300_">
		<rect id="XMLID_302_" x="40.3" y="55" class="st145" width="4.3" height="4.2"/>
		<rect id="XMLID_301_" x="40.3" y="55" class="st146" width="4.3" height="4.2"/>
	</g>
	<g id="XMLID_297_">
		<rect id="XMLID_299_" x="77.1" y="88.1" class="st144" width="4.3" height="4.2"/>
		<rect id="XMLID_298_" x="77.1" y="88.1" class="st138" width="4.3" height="4.2"/>
	</g>
	<g id="XMLID_294_">
		<rect id="XMLID_296_" x="76.2" y="87.1" class="st145" width="6.2" height="6.2"/>
		<rect id="XMLID_295_" x="76.2" y="87.1" class="st146" width="6.2" height="6.2"/>
	</g>
	<g id="XMLID_291_">
		<rect id="XMLID_293_" x="113.4" y="117.6" class="st144" width="4.3" height="4.2"/>
		<rect id="XMLID_292_" x="113.4" y="117.6" class="st138" width="4.3" height="4.2"/>
	</g>
	<g id="XMLID_288_">
		<rect id="XMLID_290_" x="112.4" y="116.6" class="st145" width="6.2" height="6.2"/>
		<rect id="XMLID_289_" x="112.4" y="116.6" class="st146" width="6.2" height="6.2"/>
	</g>
	<g id="XMLID_285_">
		<rect id="XMLID_287_" x="150.2" y="123.9" class="st144" width="4.3" height="4.2"/>
		<rect id="XMLID_286_" x="150.2" y="123.9" class="st138" width="4.3" height="4.2"/>
	</g>
	<g id="XMLID_282_">
		<rect id="XMLID_284_" x="149.2" y="123" class="st145" width="6.2" height="6.2"/>
		<rect id="XMLID_283_" x="149.2" y="123" class="st146" width="6.2" height="6.2"/>
	</g>
	<g id="XMLID_279_">
		<rect id="XMLID_281_" x="187" y="132.9" class="st144" width="4.3" height="4.2"/>
		<rect id="XMLID_280_" x="187" y="132.9" class="st138" width="4.3" height="4.2"/>
	</g>
	<g id="XMLID_276_">
		<rect id="XMLID_278_" x="186" y="131.9" class="st145" width="6.2" height="6.2"/>
		<rect id="XMLID_277_" x="186" y="131.9" class="st146" width="6.2" height="6.2"/>
	</g>
	<g id="XMLID_273_">
		<rect id="XMLID_275_" x="224.1" y="121.8" class="st144" width="4.3" height="4.2"/>
		<rect id="XMLID_274_" x="224.1" y="121.8" class="st138" width="4.3" height="4.2"/>
	</g>
	<g id="XMLID_270_">
		<rect id="XMLID_272_" x="223.2" y="120.8" class="st145" width="6.2" height="6.2"/>
		<rect id="XMLID_271_" x="223.2" y="120.8" class="st146" width="6.2" height="6.2"/>
	</g>
	<g id="XMLID_267_">
		<rect id="XMLID_269_" x="260.6" y="126.6" class="st144" width="4.3" height="4.2"/>
		<rect id="XMLID_268_" x="260.6" y="126.6" class="st138" width="4.3" height="4.2"/>
	</g>
	<g id="XMLID_264_">
		<rect id="XMLID_266_" x="259.7" y="125.6" class="st145" width="6.2" height="6.2"/>
		<rect id="XMLID_265_" x="259.7" y="125.6" class="st146" width="6.2" height="6.2"/>
	</g>
	<polyline id="XMLID_263_" class="st147" points="43,57.6 79.8,130.8 116.1,165.8 152.9,189 189.7,183.3 226.5,192.1 263.3,204 	"/>
	<g id="XMLID_260_">
		<polygon id="XMLID_262_" class="st148" points="43,55.5 45.2,59.7 40.8,59.7 		"/>
		<polygon id="XMLID_261_" class="st138" points="43,55.5 45.2,59.7 40.8,59.7 		"/>
	</g>
	<g id="XMLID_257_">
		<polygon id="XMLID_259_" class="st149" points="43,55.5 45.2,59.7 40.8,59.7 		"/>
		<polygon id="XMLID_258_" class="st150" points="43,55.5 45.2,59.7 40.8,59.7 		"/>
	</g>
	<g id="XMLID_254_">
		<polygon id="XMLID_256_" class="st148" points="79.8,130.3 82,134.5 77.6,134.5 		"/>
		<polygon id="XMLID_255_" class="st138" points="79.8,130.3 82,134.5 77.6,134.5 		"/>
	</g>
	<g id="XMLID_251_">
		<polygon id="XMLID_253_" class="st149" points="79.8,130.3 82,134.5 77.6,134.5 		"/>
		<polygon id="XMLID_252_" class="st150" points="79.8,130.3 82,134.5 77.6,134.5 		"/>
	</g>
	<g id="XMLID_248_">
		<polygon id="XMLID_250_" class="st148" points="116.4,164.1 118.6,168.3 114.2,168.3 		"/>
		<polygon id="XMLID_249_" class="st138" points="116.4,164.1 118.6,168.3 114.2,168.3 		"/>
	</g>
	<g id="XMLID_245_">
		<polygon id="XMLID_247_" class="st149" points="116.2,164.6 118.4,168.8 114.1,168.8 		"/>
		<polygon id="XMLID_246_" class="st150" points="116.2,163.6 118.4,167.9 114.1,167.9 		"/>
	</g>
	<g id="XMLID_242_">
		<polygon id="XMLID_244_" class="st148" points="153.1,186.3 155.3,190.5 151,190.5 		"/>
		<polygon id="XMLID_243_" class="st138" points="153.1,186.3 155.3,190.5 151,190.5 		"/>
	</g>
	<g id="XMLID_239_">
		<polygon id="XMLID_241_" class="st149" points="153.1,186.3 155.3,190.5 151,190.5 		"/>
		<polygon id="XMLID_240_" class="st150" points="153.1,186.3 155.3,190.5 151,190.5 		"/>
	</g>
	<g id="XMLID_236_">
		<polygon id="XMLID_238_" class="st148" points="189.7,181.6 191.8,185.8 187.5,185.8 		"/>
		<polygon id="XMLID_237_" class="st138" points="189.7,181.6 191.8,185.8 187.5,185.8 		"/>
	</g>
	<g id="XMLID_233_">
		<polygon id="XMLID_235_" class="st149" points="189.7,181.6 191.8,185.8 187.5,185.8 		"/>
		<polygon id="XMLID_234_" class="st150" points="189.7,181.6 191.8,185.8 187.5,185.8 		"/>
	</g>
	<g id="XMLID_230_">
		<polygon id="XMLID_232_" class="st148" points="226.8,190 228.9,194.2 224.6,194.2 		"/>
		<polygon id="XMLID_231_" class="st138" points="226.8,190 228.9,194.2 224.6,194.2 		"/>
	</g>
	<g id="XMLID_227_">
		<polygon id="XMLID_229_" class="st149" points="226.8,190 228.9,194.2 224.6,194.2 		"/>
		<polygon id="XMLID_228_" class="st150" points="226.8,190 228.9,194.2 224.6,194.2 		"/>
	</g>
	<g id="XMLID_224_">
		<polygon id="XMLID_226_" class="st150" points="263,202.1 265.2,206.3 260.9,206.3 		"/>
		<polygon id="XMLID_225_" class="st151" points="263,202.1 265.2,206.3 260.9,206.3 		"/>
	</g>
</g>
<g id="XMLID_221_">
	<text transform="matrix(1 0 0 1 224.3223 228.9895)" class="st152 st4 st153">##</text>
</g>
<g id="XMLID_219_">
	<text transform="matrix(1 0 0 1 186.6992 236.2971)" class="st152 st4 st153">##</text>
</g>
<g id="XMLID_217_">
	<text transform="matrix(1 0 0 1 148.8057 232.508)" class="st152 st4 st153">##</text>
</g>
<g id="XMLID_215_">
	<text transform="matrix(1 0 0 1 260.4736 225.7404)" class="st152 st4 st153"></text>
</g>
<g id="XMLID_213_">
	<text transform="matrix(1 0 0 1 262.2813 202.5959)" class="st152 st4 st154">*</text>
</g>
<g id="XMLID_211_">
	<text transform="matrix(1 0 0 1 225.7412 189.1506)" class="st152 st4 st154">*</text>
</g>
<g id="XMLID_209_">
	<text transform="matrix(1 0 0 1 76.2637 141.0422)" class="st152 st4 st154">*</text>
</g>
<g id="XMLID_207_">
	<text transform="matrix(1 0 0 1 152.1191 181.0295)" class="st152 st4 st154">*</text>
</g>
<g id="XMLID_187_">
	<g id="XMLID_188_">
		<path id="XMLID_205_" class="st152" d="M339.8,65.3h1.4c1.4,0,2,0.6,2,1.5c0,1-0.6,1.7-2,1.7h-0.2v-0.7h0.2c0.7,0,1-0.4,1-0.9
			c0-0.6-0.3-0.9-1-0.9h-0.4v4h-0.9V65.3z"/>
		<path id="XMLID_203_" class="st152" d="M343.8,65.3h0.9v3.9h1.8v0.8h-2.7V65.3z"/>
		<path id="XMLID_200_" class="st152" d="M348.4,65.8l-0.2-0.5h1l1.9,4.7h-1l-0.4-1h-1.8l-0.4,1h-0.9L348.4,65.8z M348.2,68.4h1.3
			l-0.5-1.3l-0.1-0.4l-0.1,0.4L348.2,68.4z"/>
		<path id="XMLID_198_" class="st152" d="M351.2,67.7c0-1.6,1-2.5,2.2-2.5c0.8,0,1.1,0.2,1.3,0.4v1c-0.3-0.4-0.7-0.6-1.2-0.6
			c-0.9,0-1.4,0.6-1.4,1.7c0,1.1,0.5,1.7,1.4,1.7c0.5,0,1-0.2,1.2-0.6v0.9c-0.3,0.3-0.8,0.5-1.3,0.5
			C352.1,70.2,351.2,69.3,351.2,67.7z"/>
		<path id="XMLID_196_" class="st152" d="M355.6,65.3h3v0.8h-2.1v1.1h1.4V68h-1.4v1.3h2.1v0.8h-3V65.3z"/>
		<path id="XMLID_192_" class="st152" d="M359.4,65.3h1.4c1.3,0,1.8,0.4,1.8,1.2c0,0.6-0.4,1-0.9,1.1v0c0.6,0.1,1,0.4,1,1.1
			c0,0.8-0.5,1.3-1.9,1.3h-1.5V65.3z M360.9,67.3c0.7,0,0.9-0.2,0.9-0.6s-0.3-0.6-0.9-0.6h-0.5v1.2H360.9z M360.9,69.3
			c0.7,0,0.9-0.2,0.9-0.7c0-0.4-0.2-0.6-0.9-0.6h-0.6v1.3H360.9z"/>
		<path id="XMLID_189_" class="st152" d="M363.4,67.7c0-1.6,1.2-2.5,2.3-2.5c1.4,0,2.3,0.9,2.3,2.5s-1.2,2.5-2.3,2.5
			C364.3,70.2,363.4,69.3,363.4,67.7z M367.1,67.7c0-1.1-0.5-1.7-1.4-1.7c-0.8,0-1.4,0.6-1.4,1.7c0,1.1,0.5,1.7,1.4,1.7
			C366.5,69.4,367.1,68.8,367.1,67.7z"/>
	</g>
</g>
<g id="XMLID_183_">
	<g id="XMLID_185_">
		<path id="XMLID_186_" class="st146" d="M316.5,68.3c6.1,0,12.3,0,18.4,0c1,0,1-1.6,0-1.6c-6.1,0-12.3,0-18.4,0
			C315.4,66.7,315.4,68.3,316.5,68.3L316.5,68.3z"/>
	</g>
	<rect id="XMLID_184_" x="323.1" y="64.9" class="st146" width="5.1" height="5.1"/>
</g>
<g id="XMLID_133_">
	<g id="XMLID_178_">
		<g id="XMLID_180_">
			<g id="XMLID_181_">
				<path id="XMLID_182_" class="st150" d="M306,142.3c6.1,0,12.3,0,18.4,0c1,0,1-1.6,0-1.6c-6.1,0-12.3,0-18.4,0
					C304.9,140.7,304.9,142.3,306,142.3L306,142.3z"/>
			</g>
		</g>
		<polygon id="XMLID_179_" class="st150" points="311.5,144.7 315.2,138.4 318.8,144.7 		"/>
	</g>
	<g id="XMLID_134_">
		<g id="XMLID_135_">
			<path id="XMLID_175_" class="st152" d="M330,139.3L330,139.3l0,1.7h-0.9v-4.6h1.3c1.1,0,1.8,0.4,1.8,1.4c0,0.8-0.5,1.3-1.2,1.5
				l1.6,1.8h-1.1L330,139.3z M330.4,138.7c0.6,0,0.9-0.3,0.9-0.8c0-0.5-0.3-0.8-0.9-0.8H330v1.6H330.4z"/>
			<path id="XMLID_173_" class="st152" d="M333.1,136.4h0.9v4.6h-0.9V136.4z"/>
			<path id="XMLID_171_" class="st152" d="M334.9,140.8v-1c0.2,0.3,0.6,0.6,1.2,0.6c0.5,0,0.8-0.3,0.8-0.7c0-0.3-0.2-0.5-0.7-0.6
				l-0.2,0c-0.7-0.2-1.1-0.6-1.1-1.3c0-0.9,0.6-1.4,1.7-1.4c0.6,0,1,0.2,1.2,0.3v1c-0.2-0.3-0.6-0.5-1.2-0.5c-0.5,0-0.8,0.2-0.8,0.6
				c0,0.3,0.1,0.5,0.7,0.6l0.2,0c0.8,0.2,1.2,0.6,1.2,1.3c0,0.9-0.6,1.5-1.7,1.5C335.4,141.1,335,140.9,334.9,140.8z"/>
			<path id="XMLID_169_" class="st152" d="M338.6,136.4h1.3c1.4,0,1.9,0.6,1.9,1.5c0,1-0.6,1.7-1.9,1.7h-0.2v-0.7h0.2
				c0.7,0,1-0.4,1-0.9c0-0.6-0.3-0.9-1-0.9h-0.4v3.9h-0.9V136.4z"/>
			<path id="XMLID_167_" class="st152" d="M342.5,136.4h3v0.8h-2.1v1.1h1.4v0.7h-1.4v1.3h2.1v0.8h-3V136.4z"/>
			<path id="XMLID_164_" class="st152" d="M347.2,139.3L347.2,139.3l0,1.7h-0.9v-4.6h1.3c1.1,0,1.8,0.4,1.8,1.4
				c0,0.8-0.5,1.3-1.2,1.5l1.6,1.8h-1.1L347.2,139.3z M347.6,138.7c0.6,0,0.9-0.3,0.9-0.8c0-0.5-0.3-0.8-0.9-0.8h-0.4v1.6H347.6z"/>
			<path id="XMLID_162_" class="st152" d="M350.3,136.4h0.9v4.6h-0.9V136.4z"/>
			<path id="XMLID_159_" class="st152" d="M352.3,136.4h1.3c1.5,0,2.5,0.6,2.5,2.3s-1.1,2.3-2.5,2.3h-1.3V136.4z M353.6,140.3
				c1.2,0,1.6-0.5,1.6-1.5c0-1.1-0.4-1.6-1.6-1.6h-0.4v3.1H353.6z"/>
			<path id="XMLID_156_" class="st152" d="M356.6,138.7c0-1.6,1.1-2.4,2.3-2.4c1.4,0,2.3,0.8,2.3,2.4s-1.1,2.4-2.3,2.4
				C357.5,141.1,356.6,140.3,356.6,138.7z M360.3,138.7c0-1.1-0.5-1.7-1.4-1.7c-0.8,0-1.4,0.6-1.4,1.6c0,1.1,0.5,1.7,1.4,1.7
				C359.7,140.4,360.3,139.8,360.3,138.7z"/>
			<path id="XMLID_154_" class="st152" d="M362,136.8l-0.3-0.4h1l2.1,3h0v-3h0.8v4.6H365l-2.2-3.2h0v3.2H362V136.8z"/>
			<path id="XMLID_152_" class="st152" d="M366.7,136.4h3v0.8h-2.1v1.1h1.4v0.7h-1.4v1.3h2.1v0.8h-3V136.4z"/>
			<path id="XMLID_150_" class="st152" d="M336.6,149.1v-0.9c0.2,0.2,0.5,0.3,0.9,0.3c0.8,0,1.1-0.3,1.1-0.8c0-0.4-0.2-0.7-1-0.7
				h-0.3v-0.1l0.9-1.7h-1.6v-0.8h2.9v0.1l-1,1.8c0.6,0.1,1.1,0.4,1.1,1.3c0,0.7-0.6,1.5-1.9,1.5
				C337.1,149.4,336.8,149.2,336.6,149.1z"/>
			<path id="XMLID_148_" class="st152" d="M340.3,145.5h0.8l0,0.3c0.1-0.2,0.5-0.4,0.9-0.4c0.5,0,0.9,0.2,1.1,0.6
				c0.2-0.2,0.5-0.6,1.1-0.6c0.9,0,1.3,0.5,1.3,1.5v2.4h-0.9v-2.2c0-0.7-0.2-1-0.6-1c-0.3,0-0.6,0.2-0.7,0.4c0,0.2,0,0.3,0,0.5v2.4
				h-0.9v-2.2c0-0.7-0.2-1-0.6-1c-0.3,0-0.6,0.2-0.7,0.4v2.8h-0.9V145.5z"/>
			<path id="XMLID_145_" class="st152" d="M346.3,150.3v-0.7c0.3,0.3,0.8,0.4,1.6,0.4c0.9,0,1.3-0.1,1.3-0.5c0-0.3-0.3-0.4-0.8-0.4
				c-0.5,0-1.3,0.1-1.6,0.2v-0.6l0.5-0.8c-0.5-0.2-0.8-0.6-0.8-1.2c0-0.8,0.7-1.3,1.6-1.3c0.4,0,0.8,0.1,1,0.3
				c0.1-0.2,0.4-0.3,0.7-0.3c0.1,0,0.2,0,0.3,0v0.7c-0.1,0-0.2,0-0.2,0c-0.2,0-0.3,0-0.4,0.1c0.1,0.2,0.1,0.3,0.1,0.5
				c0,0.8-0.6,1.3-1.6,1.3h-0.1l-0.3,0.6c0.2,0,0.6-0.1,1-0.1c0.9,0,1.5,0.2,1.5,1s-0.7,1.3-2,1.3
				C347.1,150.7,346.6,150.5,346.3,150.3z M348.6,146.7c0-0.4-0.3-0.6-0.7-0.6s-0.7,0.2-0.7,0.6s0.3,0.6,0.7,0.6
				S348.6,147.1,348.6,146.7z"/>
			<path id="XMLID_141_" class="st152" d="M352.1,144.6h1.4c1.3,0,1.8,0.4,1.8,1.2c0,0.6-0.4,1-0.9,1.1v0c0.6,0.1,0.9,0.4,0.9,1.1
				c0,0.7-0.5,1.3-1.8,1.3h-1.4V144.6z M353.5,146.5c0.7,0,0.9-0.2,0.9-0.6s-0.3-0.6-0.9-0.6H353v1.2H353.5z M353.6,148.5
				c0.7,0,0.9-0.2,0.9-0.6s-0.2-0.6-0.9-0.6H353v1.3H353.6z"/>
			<path id="XMLID_139_" class="st152" d="M356.2,144.6h0.9v4.6h-0.9V144.6z"/>
			<path id="XMLID_136_" class="st152" d="M358.1,144.6h1.3c1.5,0,2.5,0.6,2.5,2.3s-1.1,2.3-2.5,2.3h-1.3V144.6z M359.5,148.5
				c1.2,0,1.6-0.5,1.6-1.5c0-1.1-0.4-1.6-1.6-1.6H359v3.1H359.5z"/>
		</g>
	</g>
</g>
<g id="XMLID_87_">
	<g id="XMLID_129_">
		<g id="XMLID_131_">
			<path id="XMLID_132_" class="st142" d="M305.8,217.9c6.7,0,13.3,0,20,0c1.1,0,1.1-1.9,0-1.9c-6.7,0-13.3,0-20,0
				C304.7,215.9,304.7,217.9,305.8,217.9L305.8,217.9z"/>
		</g>
		<rect id="XMLID_130_" x="313.1" y="213.8" class="st142" width="5.6" height="6.1"/>
	</g>
	<g id="XMLID_88_">
		<path id="XMLID_126_" class="st142" d="M334.9,211.6l-0.2-0.6h1l2,5.6h-1l-0.4-1.2h-1.9l-0.4,1.2h-1L334.9,211.6z M334.7,214.7
			h1.4l-0.5-1.6l-0.1-0.5l-0.1,0.5L334.7,214.7z"/>
		<path id="XMLID_124_" class="st142" d="M338.2,216.4v-1c0.3,0.3,0.6,0.6,1.2,0.6s0.8-0.3,0.8-0.5c0-0.3-0.1-0.4-0.6-0.5l-0.2,0
			c-0.8-0.2-1.2-0.6-1.2-1.4c0-0.8,0.5-1.5,1.6-1.5c0.6,0,1,0.2,1.2,0.4v1c-0.3-0.4-0.6-0.6-1.2-0.6c-0.5,0-0.7,0.2-0.7,0.5
			c0,0.3,0.1,0.4,0.6,0.5l0.2,0c0.8,0.2,1.3,0.5,1.3,1.4c0,0.8-0.5,1.5-1.7,1.5C338.8,216.8,338.4,216.6,338.2,216.4z"/>
		<path id="XMLID_121_" class="st142" d="M341.7,214.4c0-1.7,1-2.4,1.9-2.4c0.9,0,1.9,0.5,1.9,2.2v0.6h-2.8c0,0.6,0.4,1.2,1.2,1.2
			c0.7,0,1.2-0.3,1.4-0.7v1c-0.2,0.3-0.7,0.6-1.5,0.6C342.5,216.8,341.7,216.1,341.7,214.4z M344.5,214L344.5,214
			c0-0.7-0.3-1.1-0.9-1.1c-0.6,0-0.9,0.6-0.9,1.1H344.5z"/>
		<path id="XMLID_119_" class="st142" d="M346.2,212.1h0.9l0.1,0.4c0.2-0.3,0.5-0.5,1.1-0.5c1.1,0,1.5,0.6,1.5,1.9v2.9h-1v-2.6
			c0-0.9-0.2-1.2-0.8-1.2c-0.5,0-0.7,0.3-0.8,0.5v3.4h-1V212.1z"/>
		<path id="XMLID_116_" class="st142" d="M350.6,215.5c0-0.9,0.7-1.3,1.8-1.5l0.6-0.1c0-0.8-0.3-1-0.9-1c-0.6,0-1.1,0.3-1.3,0.9
			v-1.1c0.2-0.3,0.6-0.6,1.5-0.6c1.1,0,1.8,0.6,1.8,1.9v2.8h-0.9l-0.1-0.4c-0.1,0.3-0.4,0.5-1,0.5
			C351.2,216.8,350.6,216.4,350.6,215.5z M353,214.6l-0.6,0.1c-0.7,0.2-0.9,0.4-0.9,0.7s0.2,0.5,0.6,0.5c0.4,0,0.7-0.2,0.9-0.4
			V214.6z"/>
		<path id="XMLID_113_" class="st142" d="M355,212.1h0.9l0.1,0.4c0.1-0.2,0.4-0.5,1.1-0.5c1,0,1.7,0.6,1.7,2.3s-0.9,2.5-1.9,2.5
			c-0.3,0-0.7-0.1-0.9-0.3v1.8h-1V212.1z M357.7,214.3c0-0.9-0.3-1.5-0.9-1.5c-0.4,0-0.7,0.2-0.8,0.4v2.4c0.2,0.3,0.5,0.3,0.8,0.3
			C357.4,216,357.7,215.2,357.7,214.3z"/>
		<path id="XMLID_110_" class="st142" d="M359.5,211c0-0.4,0.2-0.5,0.5-0.5s0.6,0.2,0.6,0.5c0,0.3-0.2,0.5-0.6,0.5
			S359.5,211.4,359.5,211z M359.5,212.1h1v4.6h-1V212.1z"/>
		<path id="XMLID_108_" class="st142" d="M361.6,212.1h0.9l0.1,0.4c0.2-0.3,0.5-0.5,1.1-0.5c1.1,0,1.5,0.6,1.5,1.9v2.9h-1v-2.6
			c0-0.9-0.2-1.2-0.8-1.2c-0.5,0-0.7,0.3-0.8,0.5v3.4h-1V212.1z"/>
		<path id="XMLID_105_" class="st142" d="M365.9,214.4c0-1.7,1-2.4,1.9-2.4c0.9,0,1.9,0.5,1.9,2.2v0.6h-2.8c0,0.6,0.4,1.2,1.2,1.2
			c0.7,0,1.2-0.3,1.4-0.7v1c-0.2,0.3-0.7,0.6-1.5,0.6C366.7,216.8,365.9,216.1,365.9,214.4z M368.7,214L368.7,214
			c0-0.7-0.3-1.1-0.9-1.1c-0.6,0-0.9,0.6-0.9,1.1H368.7z"/>
		<path id="XMLID_103_" class="st142" d="M337.5,226.5v-1.1c0.2,0.2,0.5,0.4,1.1,0.4c0.7,0,1.1-0.3,1.1-0.9c0-0.5-0.3-0.8-1.1-0.8
			c-0.4,0-0.7,0.1-1,0.2l0.1-3.4h2.8v0.9h-2l0,1.4c0.1,0,0.3,0,0.4,0c1.1,0,1.7,0.5,1.7,1.6c0,1.2-0.9,1.9-2,1.9
			C338,226.8,337.7,226.6,337.5,226.5z"/>
		<path id="XMLID_101_" class="st142" d="M341.5,222.1h0.9l0,0.4c0.2-0.3,0.5-0.5,1-0.5c0.6,0,1,0.2,1.2,0.7
			c0.2-0.3,0.6-0.7,1.2-0.7c1,0,1.4,0.6,1.4,1.9v2.9h-1V224c0-0.9-0.2-1.2-0.7-1.2c-0.4,0-0.7,0.2-0.8,0.5c0,0.2,0,0.4,0,0.6v2.9h-1
			V224c0-0.9-0.2-1.2-0.7-1.2c-0.4,0-0.7,0.2-0.8,0.5v3.4h-1V222.1z"/>
		<path id="XMLID_98_" class="st142" d="M348.1,227.9V227c0.4,0.3,0.9,0.5,1.7,0.5c1,0,1.4-0.2,1.4-0.6c0-0.3-0.3-0.4-0.9-0.4
			c-0.6,0-1.5,0.1-1.8,0.3V226l0.6-1c-0.6-0.2-0.9-0.7-0.9-1.5c0-1,0.7-1.6,1.8-1.6c0.5,0,0.8,0.1,1.1,0.3c0.1-0.2,0.5-0.3,0.8-0.3
			c0.1,0,0.2,0,0.3,0v0.8c-0.1,0-0.2,0-0.3,0c-0.2,0-0.3,0-0.4,0.1c0.1,0.2,0.1,0.4,0.1,0.6c0,1-0.7,1.6-1.8,1.6h-0.1l-0.4,0.7
			c0.2-0.1,0.7-0.1,1.1-0.1c1,0,1.7,0.3,1.7,1.2c0,0.9-0.8,1.5-2.3,1.5C349.1,228.4,348.5,228.2,348.1,227.9z M350.7,223.5
			c0-0.5-0.3-0.8-0.8-0.8c-0.5,0-0.8,0.3-0.8,0.8s0.3,0.8,0.8,0.8C350.4,224.3,350.7,224,350.7,223.5z"/>
		<path id="XMLID_94_" class="st142" d="M354.6,221h1.5c1.4,0,2,0.5,2,1.4c0,0.8-0.4,1.2-1,1.3v0c0.6,0.1,1,0.4,1,1.3
			c0,0.9-0.6,1.6-2,1.6h-1.6V221z M356.2,223.3c0.8,0,1-0.3,1-0.8c0-0.5-0.3-0.7-1-0.7h-0.6v1.4H356.2z M356.3,225.8
			c0.8,0,1-0.3,1-0.8s-0.3-0.8-1-0.8h-0.6v1.6H356.3z"/>
		<path id="XMLID_92_" class="st142" d="M359.2,221h1v5.6h-1V221z"/>
		<path id="XMLID_89_" class="st142" d="M361.3,221h1.5c1.7,0,2.7,0.8,2.7,2.8s-1.2,2.8-2.7,2.8h-1.5V221z M362.8,225.7
			c1.3,0,1.7-0.6,1.7-1.8c0-1.3-0.4-1.9-1.7-1.9h-0.5v3.8H362.8z"/>
	</g>
</g>
<line id="XMLID_86_" class="st155" x1="26.6" y1="56.2" x2="26.6" y2="242.7"/>
<line id="XMLID_85_" class="st155" x1="26.6" y1="56.1" x2="266.5" y2="56.1"/>
<line id="XMLID_84_" class="st133" x1="26.6" y1="56.2" x2="22.3" y2="56.2"/>
<line id="XMLID_83_" class="st133" x1="26.6" y1="86.9" x2="22.3" y2="86.9"/>
<line id="XMLID_82_" class="st133" x1="26.6" y1="117.6" x2="22.3" y2="117.6"/>
<line id="XMLID_81_" class="st133" x1="26.6" y1="148.3" x2="22.3" y2="148.3"/>
<line id="XMLID_80_" class="st133" x1="26.6" y1="179" x2="22.3" y2="179"/>
<line id="XMLID_79_" class="st133" x1="26.6" y1="209.7" x2="22.3" y2="209.7"/>
<line id="XMLID_78_" class="st133" x1="26.6" y1="240.4" x2="22.3" y2="240.4"/>
<g id="XMLID_69_">
	<g id="XMLID_71_">
		<path id="XMLID_72_" class="st0" d="M12.6,56.6c0-1.5,1.1-2.4,2.3-2.4c1.4,0,2.3,0.9,2.3,2.4c0,1.5-1.1,2.4-2.3,2.4
			C13.5,59,12.6,58.1,12.6,56.6z M16.3,56.6c0-1.1-0.6-1.7-1.4-1.7c-0.8,0-1.4,0.6-1.4,1.7c0,1.1,0.6,1.7,1.4,1.7
			C15.7,58.3,16.3,57.7,16.3,56.6z"/>
	</g>
</g>
<g id="XMLID_58_">
	<g id="XMLID_60_">
		<path id="XMLID_63_" class="st0" d="M12.7,85.7h1.8v0.7h-1.8V85.7z"/>
		<path id="XMLID_61_" class="st0" d="M16.1,84.7c-0.2,0.2-0.6,0.2-1,0.2v-0.7c0.6,0,1.1-0.2,1.5-0.6h0.4v4.6h-0.9V84.7z"/>
	</g>
</g>
<g id="XMLID_47_">
	<g id="XMLID_49_">
		<path id="XMLID_52_" class="st0" d="M12.7,116.1h1.8v0.7h-1.8V116.1z"/>
		<path id="XMLID_50_" class="st0" d="M15.2,118.5l1.4-1.9c0.3-0.4,0.5-0.7,0.5-1.2c0-0.5-0.2-0.8-0.8-0.8c-0.5,0-0.9,0.3-1.2,0.6
			v-0.8c0.2-0.3,0.7-0.5,1.3-0.5c1,0,1.5,0.6,1.5,1.5c0,0.7-0.5,1.4-0.9,1.9l-0.4,0.6H18v0.8L15.2,118.5L15.2,118.5z"/>
	</g>
</g>
<g id="XMLID_36_">
	<g id="XMLID_38_">
		<path id="XMLID_41_" class="st0" d="M12.7,148.5h1.8v0.7h-1.8V148.5z"/>
		<path id="XMLID_39_" class="st0" d="M15.2,150.9V150c0.2,0.2,0.5,0.3,0.9,0.3c0.8,0,1.1-0.3,1.1-0.8c0-0.4-0.2-0.7-1-0.7h-0.3
			v-0.1l0.9-1.7h-1.6v-0.8H18v0.1l-1,1.8c0.6,0.1,1.1,0.4,1.1,1.3c0,0.7-0.6,1.5-1.9,1.5C15.7,151.1,15.4,150.9,15.2,150.9z"/>
	</g>
</g>
<g id="XMLID_25_">
	<g id="XMLID_27_">
		<path id="XMLID_30_" class="st0" d="M12.7,178.9h1.8v0.7h-1.8V178.9z"/>
		<path id="XMLID_28_" class="st0" d="M17.2,180.4H15v-0.1l1.3-3.6h0.8l-1,2.9h1.1V178H18v1.7h0.5v0.8H18v0.9h-0.8V180.4z"/>
	</g>
</g>
<g id="XMLID_14_">
	<g id="XMLID_16_">
		<path id="XMLID_19_" class="st0" d="M12.7,210.3h1.8v0.7h-1.8V210.3z"/>
		<path id="XMLID_17_" class="st0" d="M15.2,212.7v-0.9c0.2,0.1,0.5,0.3,1,0.3c0.7,0,1-0.3,1-0.7c0-0.4-0.2-0.7-1-0.7
			c-0.4,0-0.7,0.1-0.9,0.2l0.1-2.8h2.5v0.8h-1.8l0,1.1c0.1,0,0.3,0,0.4,0c1,0,1.5,0.4,1.5,1.3c0,0.9-0.8,1.5-1.8,1.5
			C15.7,212.9,15.4,212.7,15.2,212.7z"/>
	</g>
</g>
<g id="XMLID_1_">
	<g id="XMLID_3_">
		<path id="XMLID_7_" class="st0" d="M12.7,239.7h1.8v0.7h-1.8V239.7z"/>
		<path id="XMLID_4_" class="st0" d="M15.2,240.5c0-1.6,1-2.6,1.8-2.9h1.2v0c-0.8,0.4-1.5,0.8-1.8,1.6c0.2-0.1,0.4-0.2,0.7-0.2
			c1,0,1.5,0.6,1.5,1.6c0,0.9-0.7,1.7-1.7,1.7C15.8,242.3,15.2,241.5,15.2,240.5z M17.6,240.6c0-0.5-0.3-0.9-0.8-0.9
			c-0.4,0-0.6,0.1-0.8,0.3c0,0.2,0,0.3,0,0.5c0,0.6,0.3,0.9,0.8,0.9S17.6,241.1,17.6,240.6z"/>
	</g>
</g>
</svg>
