<!-- Generator: Adobe Illustrator 22.1.0, SVG Export Plug-In  -->
<svg version="1.1"
	 xmlns="http://www.w3.org/2000/svg" xmlns:xlink="http://www.w3.org/1999/xlink" xmlns:a="http://ns.adobe.com/AdobeSVGViewerExtensions/3.0/"
	 x="0px" y="0px" width="679.6px" height="315.9px" viewBox="0 0 679.6 315.9" style="enable-background:new 0 0 679.6 315.9;"
	 xml:space="preserve">
<style type="text/css">
	.st0{fill:#490E67;}
	.st1{fill:#FFFFFF;}
	.st2{fill:#4A2365;}
	.st3{fill:#E4E990;}
	.st4{fill:none;stroke:#003764;stroke-width:1.0288;stroke-miterlimit:10;}
	.st5{fill:none;stroke:#FFFFFF;stroke-width:0.6855;stroke-miterlimit:10;}
	.st6{fill:none;stroke:#FFFFFF;stroke-width:0.653;stroke-miterlimit:10;}
	.st7{fill:none;stroke:#003764;stroke-width:0.6855;stroke-miterlimit:10;stroke-dasharray:2.1205,1.434;}
	.st8{fill:none;stroke:#003764;stroke-width:0.6855;stroke-miterlimit:10;}
	.st9{fill:none;stroke:#003764;stroke-width:0.653;stroke-miterlimit:10;stroke-dasharray:2.02,1.366;}
	.st10{fill:none;stroke:#003764;stroke-width:0.653;stroke-miterlimit:10;}
	.st11{fill:#231F20;}
</style>
<defs>
</defs>
<path id="XMLID_559_" class="st0" d="M16,242.5c0,0-9.5,0-9.5,13.8v45.9c0,0,0,13.8,9.5,13.8h647.6c0,0,9.5,0,9.5-13.8v-45.9
	c0,0,0-13.8-9.5-13.8H16z"/>
<g id="XMLID_408_">
	<path id="XMLID_557_" class="st1" d="M39.1,264.3h2.5l3.2,4.7l3.1-4.7h2.5v11h-2.7v-7l-2.8,4.3h-0.1l-2.9-4.3v6.9h-2.7V264.3z"/>
	<path id="XMLID_554_" class="st1" d="M51.9,273c0-1.8,1.3-2.5,3.7-2.9l1.3-0.2c0-1.2-0.6-1.6-1.8-1.6c-1.3,0-2.4,0.6-2.9,1.6v-2.5
		c0.4-0.5,1.4-1.2,3.3-1.2c2.6,0,4,1.1,4,3.8v5.4h-2.3l-0.2-0.8c-0.2,0.5-0.9,1-2.2,1C53.2,275.6,51.9,274.8,51.9,273z M57,271.5
		l-1,0.2c-1.2,0.3-1.6,0.6-1.6,1.2c0,0.6,0.4,0.9,1.1,0.9c0.7,0,1.3-0.3,1.5-0.6V271.5z"/>
	<path id="XMLID_552_" class="st1" d="M63.7,270.7l-2.9-4.2h2.9l1.6,2.4l1.5-2.4h2.7l-2.9,4.1l3.3,4.8h-2.9l-1.8-2.9l-1.8,2.9h-2.7
		L63.7,270.7z"/>
	<path id="XMLID_549_" class="st1" d="M70.7,264.3c0-0.8,0.5-1.3,1.4-1.3c0.8,0,1.4,0.5,1.4,1.3s-0.5,1.2-1.4,1.2
		C71.2,265.5,70.7,265.1,70.7,264.3z M70.7,266.4h2.6v8.9h-2.6V266.4z"/>
	<path id="XMLID_547_" class="st1" d="M75.2,266.4h2.4l0.1,0.8c0.4-0.6,1.2-1,2.2-1c1.3,0,2.1,0.4,2.6,1.2c0.5-0.6,1.3-1.2,2.6-1.2
		c2.2,0,3,1.2,3,3.7v5.5h-2.6v-5.1c0-1.4-0.3-2-1.2-2c-0.6,0-1.2,0.3-1.4,0.7c0,0.3,0.1,0.6,0.1,0.8v5.5h-2.6v-5.1
		c0-1.4-0.3-2-1.2-2c-0.7,0-1.1,0.3-1.3,0.7v6.4h-2.6V266.4z"/>
	<path id="XMLID_545_" class="st1" d="M89.9,272v-5.5h2.6v5.1c0,1.5,0.3,2,1.3,2c0.8,0,1.2-0.4,1.4-0.7v-6.4h2.6v8.9h-2.3l-0.2-0.8
		c-0.4,0.6-1.2,1-2.3,1C90.8,275.6,89.9,274.4,89.9,272z"/>
	<path id="XMLID_543_" class="st1" d="M99.8,266.4h2.4l0.1,0.8c0.4-0.6,1.2-1,2.2-1c1.3,0,2.1,0.4,2.6,1.2c0.5-0.6,1.3-1.2,2.6-1.2
		c2.2,0,3,1.2,3,3.7v5.5h-2.6v-5.1c0-1.4-0.3-2-1.2-2c-0.6,0-1.2,0.3-1.4,0.7c0,0.3,0.1,0.6,0.1,0.8v5.5h-2.6v-5.1
		c0-1.4-0.3-2-1.2-2c-0.7,0-1.1,0.3-1.3,0.7v6.4h-2.6V266.4z"/>
	<path id="XMLID_540_" class="st1" d="M118,271c0-3.2,1.6-4.8,4-4.8c0.7,0,1.5,0.1,1.9,0.6v-3.5h2.6v12.2h-2.3l-0.2-0.8
		c-0.3,0.5-1,1-2.3,1C119.5,275.6,118,274.2,118,271z M123.9,268.8c-0.3-0.4-0.9-0.6-1.4-0.6c-1.3,0-1.7,1.2-1.7,2.8
		s0.4,2.5,1.7,2.5c0.8,0,1.3-0.3,1.5-0.7V268.8z"/>
	<path id="XMLID_537_" class="st1" d="M127.9,270.9c0-3.3,2.1-4.7,4.6-4.7c2.6,0,4.4,1.4,4.4,4.7c0,3.3-2.1,4.7-4.6,4.7
		C129.7,275.6,127.9,274.2,127.9,270.9z M134.3,270.9c0-1.5-0.6-2.6-1.8-2.6c-1.2,0-1.8,1-1.8,2.6c0,1.6,0.6,2.6,1.8,2.6
		C133.7,273.5,134.3,272.4,134.3,270.9z"/>
	<path id="XMLID_535_" class="st1" d="M138.1,274.9v-2.3c0.6,0.5,1.4,1,2.7,1c1.2,0,1.5-0.4,1.5-0.8c0-0.5-0.2-0.7-1.2-0.8l-0.5-0.1
		c-1.8-0.3-2.7-1.2-2.7-2.8c0-1.5,1.1-2.9,3.7-2.9c1.4,0,2.3,0.3,2.8,0.7v2.3c-0.6-0.6-1.5-1-2.7-1c-1,0-1.4,0.3-1.4,0.8
		s0.2,0.7,1.1,0.8l0.5,0.1c2,0.3,2.8,1,2.8,2.7c0,1.5-1.1,3.1-3.9,3.1C139.5,275.6,138.6,275.3,138.1,274.9z"/>
	<path id="XMLID_532_" class="st1" d="M145.7,270.9c0-3.3,2.1-4.7,4.3-4.7c2.1,0,4.1,0.9,4.1,4.3v1.2h-5.8c0.1,1,0.7,1.8,2.4,1.8
		c1.5,0,2.4-0.5,2.9-1v2.2c-0.5,0.5-1.5,1-3.3,1C147.5,275.6,145.7,274.1,145.7,270.9z M151.7,270L151.7,270c0-1.2-0.5-1.8-1.6-1.8
		c-1,0-1.6,0.9-1.6,1.8H151.7z"/>
	<path id="XMLID_530_" class="st1" d="M159.2,274.9v-2.3c0.6,0.5,1.4,1,2.7,1c1.2,0,1.5-0.4,1.5-0.8c0-0.5-0.2-0.7-1.2-0.8l-0.5-0.1
		c-1.8-0.3-2.7-1.2-2.7-2.8c0-1.5,1.1-2.9,3.7-2.9c1.4,0,2.3,0.3,2.8,0.7v2.3c-0.6-0.6-1.5-1-2.7-1c-1,0-1.4,0.3-1.4,0.8
		s0.2,0.7,1.1,0.8l0.5,0.1c2,0.3,2.8,1,2.8,2.7c0,1.5-1.1,3.1-3.9,3.1C160.6,275.6,159.7,275.3,159.2,274.9z"/>
	<path id="XMLID_528_" class="st1" d="M167.3,263.2h2.6v3.9c0.4-0.5,1.2-0.9,2.3-0.9c2.3,0,3.2,1.2,3.2,3.7v5.5h-2.6v-5.1
		c0-1.5-0.4-2-1.4-2c-0.8,0-1.3,0.4-1.5,0.7v6.4h-2.6V263.2z"/>
	<path id="XMLID_525_" class="st1" d="M176.8,270.9c0-3.3,2.1-4.7,4.6-4.7c2.6,0,4.4,1.4,4.4,4.7c0,3.3-2.1,4.7-4.6,4.7
		C178.6,275.6,176.8,274.2,176.8,270.9z M183.1,270.9c0-1.5-0.6-2.6-1.8-2.6c-1.2,0-1.8,1-1.8,2.6c0,1.6,0.6,2.6,1.8,2.6
		C182.5,273.5,183.1,272.4,183.1,270.9z"/>
	<path id="XMLID_523_" class="st1" d="M187.1,272v-5.5h2.6v5.1c0,1.5,0.3,2,1.3,2c0.8,0,1.2-0.4,1.4-0.7v-6.4h2.6v8.9h-2.3l-0.2-0.8
		c-0.4,0.6-1.2,1-2.3,1C188,275.6,187.1,274.4,187.1,272z"/>
	<path id="XMLID_521_" class="st1" d="M196.9,273.1v-10h2.6v9.6c0,0.5,0.2,0.7,0.5,0.7c0.4,0,0.6-0.2,0.8-0.4v2
		c-0.2,0.2-0.7,0.5-1.6,0.5C197.7,275.6,196.9,274.7,196.9,273.1z"/>
	<path id="XMLID_518_" class="st1" d="M201.7,271c0-3.2,1.6-4.8,4-4.8c0.7,0,1.5,0.1,1.9,0.6v-3.5h2.6v12.2h-2.3l-0.2-0.8
		c-0.3,0.5-1,1-2.3,1C203.2,275.6,201.7,274.2,201.7,271z M207.5,268.8c-0.3-0.4-0.9-0.6-1.4-0.6c-1.3,0-1.7,1.2-1.7,2.8
		s0.4,2.5,1.7,2.5c0.8,0,1.3-0.3,1.5-0.7V268.8z"/>
	<path id="XMLID_516_" class="st1" d="M215.9,266.4h2.3l0.2,0.8c0.4-0.6,1.2-1,2.4-1c2.3,0,3.2,1.2,3.2,3.7v5.5h-2.6v-5.1
		c0-1.5-0.4-2-1.4-2c-0.8,0-1.3,0.4-1.5,0.7v6.4h-2.6V266.4z"/>
	<path id="XMLID_513_" class="st1" d="M225.4,270.9c0-3.3,2.1-4.7,4.6-4.7c2.6,0,4.4,1.4,4.4,4.7c0,3.3-2.1,4.7-4.6,4.7
		C227.2,275.6,225.4,274.2,225.4,270.9z M231.7,270.9c0-1.5-0.6-2.6-1.8-2.6c-1.2,0-1.8,1-1.8,2.6c0,1.6,0.6,2.6,1.8,2.6
		C231.2,273.5,231.7,272.4,231.7,270.9z"/>
	<path id="XMLID_511_" class="st1" d="M236.3,272.8v-4.3h-1v-0.9l0.9-1.1l1.6-2.1h1.2v2.1h2.1v2.1h-2.1v4.1c0,0.6,0.2,1,0.8,1
		c0.6,0,1-0.3,1.3-0.8v2.2c-0.3,0.4-0.9,0.7-2,0.7C237,275.6,236.3,274.5,236.3,272.8z"/>
	<path id="XMLID_508_" class="st1" d="M245.8,270.9c0-3.3,2.1-4.7,4.3-4.7c2.1,0,4.1,0.9,4.1,4.3v1.2h-5.8c0.1,1,0.7,1.8,2.4,1.8
		c1.5,0,2.4-0.5,2.9-1v2.2c-0.5,0.5-1.5,1-3.3,1C247.6,275.6,245.8,274.1,245.8,270.9z M251.8,270L251.8,270c0-1.2-0.5-1.8-1.6-1.8
		c-1,0-1.6,0.9-1.6,1.8H251.8z"/>
	<path id="XMLID_506_" class="st1" d="M257.8,270.7l-2.9-4.2h2.9l1.6,2.4l1.5-2.4h2.7l-2.9,4.1l3.3,4.8h-2.9l-1.8-2.9l-1.8,2.9h-2.7
		L257.8,270.7z"/>
	<path id="XMLID_504_" class="st1" d="M264,270.9c0-3.2,2.1-4.7,4.5-4.7c1.3,0,2.3,0.4,2.7,0.8v2.4c-0.6-0.6-1.3-0.9-2.3-0.9
		c-1.4,0-2.1,0.9-2.1,2.5c0,1.6,0.8,2.5,2.1,2.5c1,0,1.7-0.4,2.3-1v2.3c-0.4,0.4-1.4,0.9-2.7,0.9C265.8,275.6,264,274.1,264,270.9z"
		/>
	<path id="XMLID_501_" class="st1" d="M272.2,270.9c0-3.3,2.1-4.7,4.3-4.7c2.1,0,4.1,0.9,4.1,4.3v1.2h-5.8c0.1,1,0.7,1.8,2.4,1.8
		c1.5,0,2.4-0.5,2.9-1v2.2c-0.5,0.5-1.5,1-3.3,1C273.9,275.6,272.2,274.1,272.2,270.9z M278.1,270L278.1,270c0-1.2-0.5-1.8-1.6-1.8
		c-1,0-1.6,0.9-1.6,1.8H278.1z"/>
	<path id="XMLID_498_" class="st1" d="M281.6,270.9c0-3.3,2.1-4.7,4.3-4.7c2.1,0,4.1,0.9,4.1,4.3v1.2h-5.8c0.1,1,0.7,1.8,2.4,1.8
		c1.5,0,2.4-0.5,2.9-1v2.2c-0.5,0.5-1.5,1-3.3,1C283.4,275.6,281.6,274.1,281.6,270.9z M287.6,270L287.6,270c0-1.2-0.5-1.8-1.6-1.8
		c-1,0-1.6,0.9-1.6,1.8H287.6z"/>
	<path id="XMLID_495_" class="st1" d="M291.1,271c0-3.2,1.6-4.8,4-4.8c0.7,0,1.5,0.1,1.9,0.6v-3.5h2.6v12.2h-2.3l-0.2-0.8
		c-0.3,0.5-1,1-2.3,1C292.6,275.6,291.1,274.2,291.1,271z M296.9,268.8c-0.3-0.4-0.9-0.6-1.4-0.6c-1.3,0-1.7,1.2-1.7,2.8
		s0.4,2.5,1.7,2.5c0.8,0,1.3-0.3,1.5-0.7V268.8z"/>
	<path id="XMLID_493_" class="st1" d="M307,267.5c-0.4,0.4-1.4,0.5-2.3,0.5v-2.2c1.6,0,2.7-0.4,3.5-1.4h1.4v11H307V267.5z"/>
	<path id="XMLID_490_" class="st1" d="M311.2,269.8c0-3.7,2.6-5.7,5.6-5.7c3.5,0,5.6,2,5.6,5.7s-2.6,5.8-5.6,5.8
		C313.4,275.6,311.2,273.5,311.2,269.8z M319.7,269.8c0-2.3-1.2-3.5-2.8-3.5s-2.9,1.2-2.9,3.5c0,2.3,1.2,3.5,2.9,3.5
		S319.7,272.1,319.7,269.8z"/>
	<path id="XMLID_488_" class="st1" d="M327.8,266.4h2.4l0.1,0.8c0.4-0.6,1.2-1,2.2-1c1.3,0,2.1,0.4,2.6,1.2c0.5-0.6,1.3-1.2,2.6-1.2
		c2.2,0,3,1.2,3,3.7v5.5h-2.6v-5.1c0-1.4-0.3-2-1.2-2c-0.6,0-1.2,0.3-1.4,0.7c0,0.3,0.1,0.6,0.1,0.8v5.5H333v-5.1c0-1.4-0.3-2-1.2-2
		c-0.7,0-1.1,0.3-1.3,0.7v6.4h-2.6V266.4z"/>
	<path id="XMLID_485_" class="st1" d="M342.1,277.9v-2c0.9,0.5,1.9,0.8,3.8,0.8c2.1,0,3-0.3,3-0.9c0-0.5-0.5-0.7-1.8-0.7
		c-1.3,0-3.3,0.3-3.9,0.6V274l1.2-1.8c-1.3-0.4-2.1-1.4-2.1-2.8c0-2,1.6-3.1,4-3.1c1,0,1.9,0.2,2.5,0.6c0.3-0.5,1-0.7,1.7-0.7
		c0.3,0,0.5,0,0.8,0.1v2c-0.2-0.1-0.4-0.1-0.6-0.1c-0.3,0-0.6,0.1-0.8,0.2c0.1,0.3,0.2,0.6,0.2,1c0,1.9-1.5,3.1-4,3.1h-0.2l-0.7,1.1
		c0.4-0.1,1.4-0.3,2.3-0.3c2.2,0,3.7,0.5,3.7,2.4c0,1.9-1.7,3.1-5.1,3.1C344.3,278.7,342.9,278.4,342.1,277.9z M347.5,269.3
		c0-0.8-0.5-1.2-1.4-1.2c-0.9,0-1.4,0.4-1.4,1.2s0.5,1.2,1.4,1.2C347,270.5,347.5,270.1,347.5,269.3z"/>
	<path id="XMLID_481_" class="st1" d="M356.3,264.3h3.7c3.2,0,4.5,1,4.5,2.8c0,1.5-0.9,2.3-2.1,2.5v0c1.2,0.2,2.2,0.8,2.2,2.6
		c0,1.8-1.3,3.1-4.5,3.1h-3.8V264.3z M360.1,268.7c1.3,0,1.7-0.5,1.7-1.2c0-0.8-0.5-1.1-1.7-1.1h-1.2v2.3H360.1z M360.2,273.2
		c1.3,0,1.7-0.5,1.7-1.2c0-0.8-0.4-1.2-1.7-1.2h-1.3v2.5H360.2z"/>
	<path id="XMLID_479_" class="st1" d="M366.2,264.3h2.7v11h-2.7V264.3z"/>
	<path id="XMLID_476_" class="st1" d="M371,264.3h3.6c3.7,0,5.9,1.4,5.9,5.5c0,4.1-2.6,5.5-5.9,5.5H371V264.3z M374.6,273.1
		c2.4,0,3.2-0.9,3.2-3.2c0-2.3-0.8-3.3-3.2-3.3h-0.9v6.5H374.6z"/>
	<path id="XMLID_474_" class="st1" d="M381.5,274c0-0.9,0.7-1.6,1.6-1.6c0.9,0,1.6,0.7,1.6,1.6s-0.7,1.6-1.6,1.6
		C382.2,275.6,381.5,274.9,381.5,274z"/>
	<path id="XMLID_472_" class="st1" d="M389.9,274.8v-2.7c0.5,0.6,1.6,1.3,2.9,1.3c1.2,0,1.8-0.5,1.8-1.3c0-0.7-0.4-0.9-1.5-1.1
		l-0.4-0.1c-1.8-0.4-2.9-1.4-2.9-3.3c0-2.2,1.6-3.5,4.1-3.5c1.6,0,2.6,0.4,3,0.8v2.7c-0.5-0.7-1.6-1.2-3-1.2c-1,0-1.5,0.3-1.5,1.1
		c0,0.6,0.3,0.9,1.3,1.2l0.4,0.1c1.9,0.4,3.1,1.2,3.1,3.2c0,2.2-1.5,3.7-4.4,3.7C391.2,275.6,390.3,275.2,389.9,274.8z"/>
	<path id="XMLID_469_" class="st1" d="M398.3,273c0-1.8,1.3-2.5,3.7-2.9l1.3-0.2c0-1.2-0.6-1.6-1.8-1.6c-1.3,0-2.4,0.6-2.9,1.6v-2.5
		c0.4-0.5,1.4-1.2,3.3-1.2c2.6,0,4,1.1,4,3.8v5.4h-2.3l-0.2-0.8c-0.2,0.5-0.9,1-2.2,1C399.6,275.6,398.3,274.8,398.3,273z
		 M403.4,271.5l-1,0.2c-1.2,0.3-1.6,0.6-1.6,1.2c0,0.6,0.4,0.9,1.1,0.9c0.7,0,1.3-0.3,1.5-0.6V271.5z"/>
	<path id="XMLID_467_" class="st1" d="M408.2,268.5h-1v-0.9l1-0.9c-0.2-0.3-0.3-0.7-0.3-1.3c0-1.7,1.5-2.5,3.2-2.5
		c1.2,0,1.9,0.3,2.2,0.5v2.2c-0.3-0.5-0.9-0.7-1.6-0.7c-0.8,0-1.1,0.3-1.1,0.9c0,0.3,0.1,0.5,0.2,0.6h1.8v2.1h-1.6v6.9h-2.6V268.5z"
		/>
	<path id="XMLID_464_" class="st1" d="M413.2,270.9c0-3.3,2.1-4.7,4.3-4.7c2.1,0,4.1,0.9,4.1,4.3v1.2h-5.8c0.1,1,0.7,1.8,2.4,1.8
		c1.5,0,2.4-0.5,2.9-1v2.2c-0.5,0.5-1.5,1-3.3,1C414.9,275.6,413.2,274.1,413.2,270.9z M419.1,270L419.1,270c0-1.2-0.5-1.8-1.6-1.8
		c-1,0-1.6,0.9-1.6,1.8H419.1z"/>
	<path id="XMLID_462_" class="st1" d="M423.5,272.8v-4.3h-1v-0.9l0.9-1.1l1.6-2.1h1.2v2.1h2.1v2.1h-2.1v4.1c0,0.6,0.2,1,0.8,1
		c0.6,0,1-0.3,1.3-0.8v2.2c-0.3,0.4-0.9,0.7-2,0.7C424.3,275.6,423.5,274.5,423.5,272.8z"/>
	<path id="XMLID_460_" class="st1" d="M429.2,278.2v-2.1c0.4,0.4,0.9,0.6,1.5,0.6c0.6,0,1.2-0.2,1.6-1.2l-3.5-9.1h2.9l1.8,5.8
		l1.5-5.8h2.5l-2.5,8.5c-0.7,2.2-1.8,3.9-4.1,3.9C430.1,278.7,429.5,278.5,429.2,278.2z"/>
	<path id="XMLID_457_" class="st1" d="M442,270.9c0-3.3,2.1-4.7,4.6-4.7c2.6,0,4.4,1.4,4.4,4.7c0,3.3-2.1,4.7-4.6,4.7
		C443.8,275.6,442,274.2,442,270.9z M448.3,270.9c0-1.5-0.6-2.6-1.8-2.6c-1.2,0-1.8,1-1.8,2.6c0,1.6,0.6,2.6,1.8,2.6
		C447.8,273.5,448.3,272.4,448.3,270.9z"/>
	<path id="XMLID_455_" class="st1" d="M452.9,268.5h-1v-0.9l1-0.9c-0.2-0.3-0.3-0.7-0.3-1.3c0-1.7,1.5-2.5,3.2-2.5
		c1.2,0,1.9,0.3,2.2,0.5v2.2c-0.3-0.5-0.9-0.7-1.6-0.7c-0.8,0-1.1,0.3-1.1,0.9c0,0.3,0.1,0.5,0.2,0.6h1.8v2.1h-1.6v6.9h-2.6V268.5z"
		/>
	<path id="XMLID_452_" class="st1" d="M461.8,271c0-3.2,1.6-4.8,4-4.8c0.7,0,1.5,0.1,1.9,0.6v-3.5h2.6v12.2H468l-0.2-0.8
		c-0.3,0.5-1,1-2.3,1C463.3,275.6,461.8,274.2,461.8,271z M467.7,268.8c-0.3-0.4-0.9-0.6-1.4-0.6c-1.3,0-1.7,1.2-1.7,2.8
		s0.4,2.5,1.7,2.5c0.8,0,1.3-0.3,1.5-0.7V268.8z"/>
	<path id="XMLID_449_" class="st1" d="M471.8,270.9c0-3.3,2.1-4.7,4.6-4.7c2.6,0,4.4,1.4,4.4,4.7c0,3.3-2.1,4.7-4.6,4.7
		C473.6,275.6,471.8,274.2,471.8,270.9z M478.1,270.9c0-1.5-0.6-2.6-1.8-2.6c-1.2,0-1.8,1-1.8,2.6c0,1.6,0.6,2.6,1.8,2.6
		C477.5,273.5,478.1,272.4,478.1,270.9z"/>
	<path id="XMLID_447_" class="st1" d="M481.9,274.9v-2.3c0.6,0.5,1.4,1,2.7,1c1.2,0,1.5-0.4,1.5-0.8c0-0.5-0.2-0.7-1.2-0.8l-0.5-0.1
		c-1.8-0.3-2.7-1.2-2.7-2.8c0-1.5,1.1-2.9,3.7-2.9c1.4,0,2.3,0.3,2.8,0.7v2.3c-0.6-0.6-1.5-1-2.7-1c-1,0-1.4,0.3-1.4,0.8
		s0.2,0.7,1.1,0.8l0.5,0.1c2,0.3,2.8,1,2.8,2.7c0,1.5-1.1,3.1-3.9,3.1C483.3,275.6,482.4,275.3,481.9,274.9z"/>
	<path id="XMLID_444_" class="st1" d="M489.6,270.9c0-3.3,2.1-4.7,4.3-4.7c2.1,0,4.1,0.9,4.1,4.3v1.2h-5.8c0.1,1,0.7,1.8,2.4,1.8
		c1.5,0,2.4-0.5,2.9-1v2.2c-0.5,0.5-1.5,1-3.3,1C491.3,275.6,489.6,274.1,489.6,270.9z M495.5,270L495.5,270c0-1.2-0.5-1.8-1.6-1.8
		c-1,0-1.6,0.9-1.6,1.8H495.5z"/>
	<path id="XMLID_442_" class="st1" d="M499.2,274.9v-2.3c0.6,0.5,1.4,1,2.7,1c1.2,0,1.5-0.4,1.5-0.8c0-0.5-0.2-0.7-1.2-0.8l-0.5-0.1
		c-1.8-0.3-2.7-1.2-2.7-2.8c0-1.5,1.1-2.9,3.7-2.9c1.4,0,2.3,0.3,2.8,0.7v2.3c-0.6-0.6-1.5-1-2.7-1c-1,0-1.4,0.3-1.4,0.8
		s0.2,0.7,1.1,0.8l0.5,0.1c2,0.3,2.8,1,2.8,2.7c0,1.5-1.1,3.1-3.9,3.1C500.6,275.6,499.7,275.3,499.2,274.9z"/>
	<path id="XMLID_439_" class="st1" d="M510.7,273c0-1.8,1.3-2.5,3.7-2.9l1.3-0.2c0-1.2-0.6-1.6-1.8-1.6c-1.3,0-2.4,0.6-2.9,1.6v-2.5
		c0.4-0.5,1.4-1.2,3.3-1.2c2.6,0,4,1.1,4,3.8v5.4h-2.3l-0.2-0.8c-0.2,0.5-0.9,1-2.2,1C511.9,275.6,510.7,274.8,510.7,273z
		 M515.7,271.5l-1,0.2c-1.2,0.3-1.6,0.6-1.6,1.2c0,0.6,0.4,0.9,1.1,0.9c0.7,0,1.3-0.3,1.5-0.6V271.5z"/>
	<path id="XMLID_436_" class="st1" d="M522.5,274.7l-0.3,0.6h-2v-12.2h2.6v4c0.3-0.4,1-1,2.3-1c2.2,0,3.6,1.2,3.6,4.5
		c0,3.3-1.7,5-4,5C523.4,275.6,522.8,275.1,522.5,274.7z M522.8,273c0.4,0.4,0.9,0.6,1.4,0.6c1.3,0,1.7-1.3,1.7-2.8
		s-0.4-2.5-1.7-2.5c-0.7,0-1.2,0.3-1.5,0.7V273z"/>
	<path id="XMLID_433_" class="st1" d="M529.7,270.9c0-3.3,2.1-4.7,4.6-4.7c2.6,0,4.4,1.4,4.4,4.7c0,3.3-2.1,4.7-4.6,4.7
		C531.5,275.6,529.7,274.2,529.7,270.9z M536,270.9c0-1.5-0.6-2.6-1.8-2.6c-1.2,0-1.8,1-1.8,2.6c0,1.6,0.6,2.6,1.8,2.6
		C535.4,273.5,536,272.4,536,270.9z"/>
	<path id="XMLID_431_" class="st1" d="M539,266.4h2.8l1.4,4.2l0.3,1c0.1-0.2,0.2-0.7,0.3-1l1.5-4.2h2.6l-3.6,8.9h-1.8L539,266.4z"/>
	<path id="XMLID_428_" class="st1" d="M548.1,270.9c0-3.3,2.1-4.7,4.3-4.7c2.1,0,4.1,0.9,4.1,4.3v1.2h-5.8c0.1,1,0.7,1.8,2.4,1.8
		c1.5,0,2.4-0.5,2.9-1v2.2c-0.5,0.5-1.5,1-3.3,1C549.9,275.6,548.1,274.1,548.1,270.9z M554.1,270L554.1,270c0-1.2-0.5-1.8-1.6-1.8
		c-1,0-1.6,0.9-1.6,1.8H554.1z"/>
	<path id="XMLID_426_" class="st1" d="M563.6,267.5c-0.4,0.4-1.4,0.5-2.3,0.5v-2.2c1.6,0,2.7-0.4,3.5-1.4h1.4v11h-2.6V267.5z"/>
	<path id="XMLID_423_" class="st1" d="M567.8,269.8c0-3.7,2.6-5.7,5.6-5.7c3.5,0,5.6,2,5.6,5.7s-2.6,5.8-5.6,5.8
		C569.9,275.6,567.8,273.5,567.8,269.8z M576.2,269.8c0-2.3-1.2-3.5-2.8-3.5s-2.9,1.2-2.9,3.5c0,2.3,1.2,3.5,2.9,3.5
		S576.2,272.1,576.2,269.8z"/>
	<path id="XMLID_421_" class="st1" d="M584.3,266.4h2.4l0.1,0.8c0.4-0.6,1.2-1,2.2-1c1.3,0,2.1,0.4,2.6,1.2c0.5-0.6,1.3-1.2,2.6-1.2
		c2.2,0,3,1.2,3,3.7v5.5h-2.6v-5.1c0-1.4-0.3-2-1.2-2c-0.6,0-1.2,0.3-1.4,0.7c0,0.3,0.1,0.6,0.1,0.8v5.5h-2.6v-5.1
		c0-1.4-0.3-2-1.2-2c-0.7,0-1.1,0.3-1.3,0.7v6.4h-2.6V266.4z"/>
	<path id="XMLID_418_" class="st1" d="M598.7,277.9v-2c0.9,0.5,1.9,0.8,3.8,0.8c2.1,0,3-0.3,3-0.9c0-0.5-0.5-0.7-1.8-0.7
		c-1.3,0-3.3,0.3-3.9,0.6V274l1.2-1.8c-1.3-0.4-2.1-1.4-2.1-2.8c0-2,1.6-3.1,4-3.1c1,0,1.9,0.2,2.5,0.6c0.3-0.5,1-0.7,1.7-0.7
		c0.3,0,0.5,0,0.8,0.1v2c-0.2-0.1-0.4-0.1-0.6-0.1c-0.3,0-0.6,0.1-0.8,0.2c0.1,0.3,0.2,0.6,0.2,1c0,1.9-1.5,3.1-4,3.1h-0.2l-0.7,1.1
		c0.4-0.1,1.4-0.3,2.3-0.3c2.2,0,3.7,0.5,3.7,2.4c0,1.9-1.7,3.1-5.1,3.1C600.8,278.7,599.4,278.4,598.7,277.9z M604.1,269.3
		c0-0.8-0.5-1.2-1.4-1.2c-0.9,0-1.4,0.4-1.4,1.2s0.5,1.2,1.4,1.2C603.6,270.5,604.1,270.1,604.1,269.3z"/>
	<path id="XMLID_414_" class="st1" d="M612.8,264.3h3.7c3.2,0,4.5,1,4.5,2.8c0,1.5-0.9,2.3-2.1,2.5v0c1.2,0.2,2.2,0.8,2.2,2.6
		c0,1.8-1.3,3.1-4.5,3.1h-3.8V264.3z M616.6,268.7c1.3,0,1.7-0.5,1.7-1.2c0-0.8-0.5-1.1-1.7-1.1h-1.2v2.3H616.6z M616.7,273.2
		c1.3,0,1.7-0.5,1.7-1.2c0-0.8-0.4-1.2-1.7-1.2h-1.3v2.5H616.7z"/>
	<path id="XMLID_412_" class="st1" d="M622.8,264.3h2.7v11h-2.7V264.3z"/>
	<path id="XMLID_409_" class="st1" d="M627.6,264.3h3.6c3.7,0,5.9,1.4,5.9,5.5c0,4.1-2.6,5.5-5.9,5.5h-3.6V264.3z M631.1,273.1
		c2.4,0,3.2-0.9,3.2-3.2c0-2.3-0.8-3.3-3.2-3.3h-0.9v6.5H631.1z"/>
</g>
<g id="XMLID_318_">
	<path id="XMLID_406_" class="st1" d="M182.1,283.4h2.6v3.9c0.4-0.5,1.2-0.9,2.3-0.9c2.3,0,3.2,1.2,3.2,3.7v5.5h-2.6v-5.1
		c0-1.5-0.4-2-1.4-2c-0.8,0-1.3,0.4-1.5,0.7v6.4h-2.6V283.4z"/>
	<path id="XMLID_403_" class="st1" d="M191.6,293.2c0-1.8,1.3-2.5,3.7-2.9l1.3-0.2c0-1.2-0.6-1.6-1.8-1.6c-1.3,0-2.4,0.6-2.9,1.6
		v-2.5c0.4-0.5,1.4-1.2,3.3-1.2c2.6,0,4,1.1,4,3.8v5.4H197l-0.2-0.8c-0.2,0.5-0.9,1-2.2,1C192.9,295.9,191.6,295,191.6,293.2z
		 M196.7,291.8l-1,0.2c-1.2,0.3-1.6,0.6-1.6,1.2c0,0.6,0.4,0.9,1.1,0.9c0.7,0,1.3-0.3,1.5-0.6V291.8z"/>
	<path id="XMLID_401_" class="st1" d="M200.9,295.1v-2.3c0.6,0.5,1.4,1,2.7,1c1.2,0,1.5-0.4,1.5-0.8c0-0.5-0.2-0.7-1.2-0.8l-0.5-0.1
		c-1.8-0.3-2.7-1.2-2.7-2.8c0-1.5,1.1-2.9,3.7-2.9c1.4,0,2.3,0.3,2.8,0.7v2.3c-0.6-0.6-1.5-1-2.7-1c-1,0-1.4,0.3-1.4,0.8
		s0.2,0.7,1.1,0.8l0.5,0.1c2,0.3,2.8,1,2.8,2.7c0,1.5-1.1,3.1-3.9,3.1C202.3,295.9,201.3,295.5,200.9,295.1z"/>
	<path id="XMLID_399_" class="st1" d="M212.8,286.7h2.3l0.2,0.8c0.4-0.6,1.2-1,2.4-1c2.3,0,3.2,1.2,3.2,3.7v5.5h-2.6v-5.1
		c0-1.5-0.4-2-1.4-2c-0.8,0-1.3,0.4-1.5,0.7v6.4h-2.6V286.7z"/>
	<path id="XMLID_396_" class="st1" d="M222.3,291.1c0-3.3,2.1-4.7,4.6-4.7c2.6,0,4.4,1.4,4.4,4.7c0,3.3-2.1,4.7-4.6,4.7
		C224.1,295.9,222.3,294.5,222.3,291.1z M228.6,291.1c0-1.5-0.6-2.6-1.8-2.6c-1.2,0-1.8,1-1.8,2.6c0,1.6,0.6,2.6,1.8,2.6
		C228,293.7,228.6,292.7,228.6,291.1z"/>
	<path id="XMLID_394_" class="st1" d="M233.1,293v-4.3h-1v-0.9l0.9-1.1l1.6-2.1h1.2v2.1h2.1v2.1h-2.1v4.1c0,0.6,0.2,1,0.8,1
		c0.6,0,1-0.3,1.3-0.8v2.2c-0.3,0.4-0.9,0.7-2,0.7C233.9,295.9,233.1,294.8,233.1,293z"/>
	<path id="XMLID_391_" class="st1" d="M245.4,295l-0.3,0.6h-2v-12.2h2.6v4c0.3-0.4,1-1,2.3-1c2.2,0,3.6,1.2,3.6,4.5c0,3.3-1.7,5-4,5
		C246.4,295.9,245.8,295.4,245.4,295z M245.7,293.2c0.4,0.4,0.9,0.6,1.4,0.6c1.3,0,1.7-1.3,1.7-2.8s-0.4-2.5-1.7-2.5
		c-0.7,0-1.2,0.3-1.5,0.7V293.2z"/>
	<path id="XMLID_388_" class="st1" d="M252.6,291.1c0-3.3,2.1-4.7,4.3-4.7c2.1,0,4.1,0.9,4.1,4.3v1.2h-5.8c0.1,1,0.7,1.8,2.4,1.8
		c1.5,0,2.4-0.5,2.9-1v2.2c-0.5,0.5-1.5,1-3.3,1C254.4,295.9,252.6,294.4,252.6,291.1z M258.6,290.3L258.6,290.3
		c0-1.2-0.5-1.8-1.6-1.8c-1,0-1.6,0.9-1.6,1.8H258.6z"/>
	<path id="XMLID_385_" class="st1" d="M262.1,291.1c0-3.3,2.1-4.7,4.3-4.7c2.1,0,4.1,0.9,4.1,4.3v1.2h-5.8c0.1,1,0.7,1.8,2.4,1.8
		c1.5,0,2.4-0.5,2.9-1v2.2c-0.5,0.5-1.5,1-3.3,1C263.8,295.9,262.1,294.4,262.1,291.1z M268,290.3L268,290.3c0-1.2-0.5-1.8-1.6-1.8
		c-1,0-1.6,0.9-1.6,1.8H268z"/>
	<path id="XMLID_383_" class="st1" d="M271.9,286.7h2.3l0.2,0.8c0.4-0.6,1.2-1,2.4-1c2.3,0,3.2,1.2,3.2,3.7v5.5h-2.6v-5.1
		c0-1.5-0.4-2-1.4-2c-0.8,0-1.3,0.4-1.5,0.7v6.4h-2.6V286.7z"/>
	<path id="XMLID_380_" class="st1" d="M285.3,291.1c0-3.3,2.1-4.7,4.3-4.7c2.1,0,4.1,0.9,4.1,4.3v1.2H288c0.1,1,0.7,1.8,2.4,1.8
		c1.5,0,2.4-0.5,2.9-1v2.2c-0.5,0.5-1.5,1-3.3,1C287,295.9,285.3,294.4,285.3,291.1z M291.2,290.3L291.2,290.3
		c0-1.2-0.5-1.8-1.6-1.8c-1,0-1.6,0.9-1.6,1.8H291.2z"/>
	<path id="XMLID_378_" class="st1" d="M294.1,286.7h2.8l1.4,4.2l0.3,1c0.1-0.2,0.2-0.7,0.3-1l1.5-4.2h2.6l-3.6,8.9h-1.8L294.1,286.7
		z"/>
	<path id="XMLID_375_" class="st1" d="M303.4,293.2c0-1.8,1.3-2.5,3.7-2.9l1.3-0.2c0-1.2-0.6-1.6-1.8-1.6c-1.3,0-2.4,0.6-2.9,1.6
		v-2.5c0.4-0.5,1.4-1.2,3.3-1.2c2.6,0,4,1.1,4,3.8v5.4h-2.3l-0.2-0.8c-0.2,0.5-0.9,1-2.2,1C304.6,295.9,303.4,295,303.4,293.2z
		 M308.4,291.8l-1,0.2c-1.2,0.3-1.6,0.6-1.6,1.2c0,0.6,0.4,0.9,1.1,0.9c0.7,0,1.3-0.3,1.5-0.6V291.8z"/>
	<path id="XMLID_373_" class="st1" d="M312.8,293.4v-10h2.6v9.6c0,0.5,0.2,0.7,0.5,0.7c0.4,0,0.6-0.2,0.8-0.4v2
		c-0.2,0.2-0.7,0.5-1.6,0.5C313.6,295.9,312.8,295,312.8,293.4z"/>
	<path id="XMLID_371_" class="st1" d="M317.9,292.2v-5.5h2.6v5.1c0,1.5,0.3,2,1.3,2c0.8,0,1.2-0.4,1.4-0.7v-6.4h2.6v8.9h-2.3
		l-0.2-0.8c-0.4,0.6-1.2,1-2.3,1C318.8,295.9,317.9,294.7,317.9,292.2z"/>
	<path id="XMLID_368_" class="st1" d="M327.3,293.2c0-1.8,1.3-2.5,3.7-2.9l1.3-0.2c0-1.2-0.6-1.6-1.8-1.6c-1.3,0-2.4,0.6-2.9,1.6
		v-2.5c0.4-0.5,1.4-1.2,3.3-1.2c2.6,0,4,1.1,4,3.8v5.4h-2.3l-0.2-0.8c-0.2,0.5-0.9,1-2.2,1C328.6,295.9,327.3,295,327.3,293.2z
		 M332.4,291.8l-1,0.2c-1.2,0.3-1.6,0.6-1.6,1.2c0,0.6,0.4,0.9,1.1,0.9c0.7,0,1.3-0.3,1.5-0.6V291.8z"/>
	<path id="XMLID_366_" class="st1" d="M337.3,293v-4.3h-1v-0.9l0.9-1.1l1.6-2.1h1.2v2.1h2.1v2.1h-2.1v4.1c0,0.6,0.2,1,0.8,1
		c0.6,0,1-0.3,1.3-0.8v2.2c-0.3,0.4-0.9,0.7-2,0.7C338,295.9,337.3,294.8,337.3,293z"/>
	<path id="XMLID_363_" class="st1" d="M342.9,291.1c0-3.3,2.1-4.7,4.3-4.7c2.1,0,4.1,0.9,4.1,4.3v1.2h-5.8c0.1,1,0.7,1.8,2.4,1.8
		c1.5,0,2.4-0.5,2.9-1v2.2c-0.5,0.5-1.5,1-3.3,1C344.7,295.9,342.9,294.4,342.9,291.1z M348.9,290.3L348.9,290.3
		c0-1.2-0.5-1.8-1.6-1.8c-1,0-1.6,0.9-1.6,1.8H348.9z"/>
	<path id="XMLID_360_" class="st1" d="M352.4,291.3c0-3.2,1.6-4.8,4-4.8c0.7,0,1.5,0.1,1.9,0.6v-3.5h2.6v12.2h-2.3l-0.2-0.8
		c-0.3,0.5-1,1-2.3,1C353.9,295.9,352.4,294.5,352.4,291.3z M358.3,289.1c-0.3-0.4-0.9-0.6-1.4-0.6c-1.3,0-1.7,1.2-1.7,2.8
		s0.4,2.5,1.7,2.5c0.8,0,1.3-0.3,1.5-0.7V289.1z"/>
	<path id="XMLID_357_" class="st1" d="M366.6,284.5c0-0.8,0.5-1.3,1.4-1.3c0.8,0,1.4,0.5,1.4,1.3s-0.5,1.2-1.4,1.2
		C367.1,285.8,366.6,285.3,366.6,284.5z M366.6,286.7h2.6v8.9h-2.6V286.7z"/>
	<path id="XMLID_355_" class="st1" d="M371.1,286.7h2.3l0.2,0.8c0.4-0.6,1.2-1,2.4-1c2.3,0,3.2,1.2,3.2,3.7v5.5h-2.6v-5.1
		c0-1.5-0.4-2-1.4-2c-0.8,0-1.3,0.4-1.5,0.7v6.4h-2.6V286.7z"/>
	<path id="XMLID_353_" class="st1" d="M384.5,291.1c0-3.2,2.1-4.7,4.5-4.7c1.3,0,2.3,0.4,2.7,0.8v2.4c-0.6-0.6-1.3-0.9-2.3-0.9
		c-1.4,0-2.1,0.9-2.1,2.5c0,1.6,0.8,2.5,2.1,2.5c1,0,1.7-0.4,2.3-1v2.3c-0.4,0.4-1.4,0.9-2.7,0.9
		C386.3,295.9,384.5,294.4,384.5,291.1z"/>
	<path id="XMLID_351_" class="st1" d="M393.1,293.4v-10h2.6v9.6c0,0.5,0.2,0.7,0.5,0.7c0.4,0,0.6-0.2,0.8-0.4v2
		c-0.2,0.2-0.7,0.5-1.6,0.5C393.9,295.9,393.1,295,393.1,293.4z"/>
	<path id="XMLID_348_" class="st1" d="M398.2,284.5c0-0.8,0.5-1.3,1.4-1.3c0.8,0,1.4,0.5,1.4,1.3s-0.5,1.2-1.4,1.2
		C398.7,285.8,398.2,285.3,398.2,284.5z M398.2,286.7h2.6v8.9h-2.6V286.7z"/>
	<path id="XMLID_346_" class="st1" d="M402.7,286.7h2.3l0.2,0.8c0.4-0.6,1.2-1,2.4-1c2.3,0,3.2,1.2,3.2,3.7v5.5h-2.6v-5.1
		c0-1.5-0.4-2-1.4-2c-0.8,0-1.3,0.4-1.5,0.7v6.4h-2.6V286.7z"/>
	<path id="XMLID_343_" class="st1" d="M412.6,284.5c0-0.8,0.5-1.3,1.4-1.3c0.8,0,1.4,0.5,1.4,1.3s-0.5,1.2-1.4,1.2
		C413.1,285.8,412.6,285.3,412.6,284.5z M412.7,286.7h2.6v8.9h-2.6V286.7z"/>
	<path id="XMLID_341_" class="st1" d="M416.7,291.1c0-3.2,2.1-4.7,4.5-4.7c1.3,0,2.3,0.4,2.7,0.8v2.4c-0.6-0.6-1.3-0.9-2.3-0.9
		c-1.4,0-2.1,0.9-2.1,2.5c0,1.6,0.8,2.5,2.1,2.5c1,0,1.7-0.4,2.3-1v2.3c-0.4,0.4-1.4,0.9-2.7,0.9
		C418.5,295.9,416.7,294.4,416.7,291.1z"/>
	<path id="XMLID_338_" class="st1" d="M425,293.2c0-1.8,1.3-2.5,3.7-2.9l1.3-0.2c0-1.2-0.6-1.6-1.8-1.6c-1.3,0-2.4,0.6-2.9,1.6v-2.5
		c0.4-0.5,1.4-1.2,3.3-1.2c2.6,0,4,1.1,4,3.8v5.4h-2.3l-0.2-0.8c-0.2,0.5-0.9,1-2.2,1C426.2,295.9,425,295,425,293.2z M430,291.8
		l-1,0.2c-1.2,0.3-1.6,0.6-1.6,1.2c0,0.6,0.4,0.9,1.1,0.9c0.7,0,1.3-0.3,1.5-0.6V291.8z"/>
	<path id="XMLID_336_" class="st1" d="M434.4,293.4v-10h2.6v9.6c0,0.5,0.2,0.7,0.5,0.7c0.4,0,0.6-0.2,0.8-0.4v2
		c-0.2,0.2-0.7,0.5-1.6,0.5C435.2,295.9,434.4,295,434.4,293.4z"/>
	<path id="XMLID_334_" class="st1" d="M443.2,295.1v-2.3c0.6,0.5,1.4,1,2.7,1c1.2,0,1.5-0.4,1.5-0.8c0-0.5-0.2-0.7-1.2-0.8l-0.5-0.1
		c-1.8-0.3-2.7-1.2-2.7-2.8c0-1.5,1.1-2.9,3.7-2.9c1.4,0,2.3,0.3,2.8,0.7v2.3c-0.6-0.6-1.5-1-2.7-1c-1,0-1.4,0.3-1.4,0.8
		s0.2,0.7,1.1,0.8l0.5,0.1c2,0.3,2.8,1,2.8,2.7c0,1.5-1.1,3.1-3.9,3.1C444.6,295.9,443.7,295.5,443.2,295.1z"/>
	<path id="XMLID_332_" class="st1" d="M451.7,293v-4.3h-1v-0.9l0.9-1.1l1.6-2.1h1.2v2.1h2.1v2.1h-2.1v4.1c0,0.6,0.2,1,0.8,1
		c0.6,0,1-0.3,1.3-0.8v2.2c-0.3,0.4-0.9,0.7-2,0.7C452.4,295.9,451.7,294.8,451.7,293z"/>
	<path id="XMLID_330_" class="st1" d="M457.7,292.2v-5.5h2.6v5.1c0,1.5,0.3,2,1.3,2c0.8,0,1.2-0.4,1.4-0.7v-6.4h2.6v8.9h-2.3
		l-0.2-0.8c-0.4,0.6-1.2,1-2.3,1C458.6,295.9,457.7,294.7,457.7,292.2z"/>
	<path id="XMLID_327_" class="st1" d="M467.2,291.3c0-3.2,1.6-4.8,4-4.8c0.7,0,1.5,0.1,1.9,0.6v-3.5h2.6v12.2h-2.3l-0.2-0.8
		c-0.3,0.5-1,1-2.3,1C468.7,295.9,467.2,294.5,467.2,291.3z M473,289.1c-0.3-0.4-0.9-0.6-1.4-0.6c-1.3,0-1.7,1.2-1.7,2.8
		s0.4,2.5,1.7,2.5c0.8,0,1.3-0.3,1.5-0.7V289.1z"/>
	<path id="XMLID_324_" class="st1" d="M477.5,284.5c0-0.8,0.5-1.3,1.4-1.3c0.8,0,1.4,0.5,1.4,1.3s-0.5,1.2-1.4,1.2
		C478,285.8,477.5,285.3,477.5,284.5z M477.5,286.7h2.6v8.9h-2.6V286.7z"/>
	<path id="XMLID_321_" class="st1" d="M481.6,291.1c0-3.3,2.1-4.7,4.3-4.7c2.1,0,4.1,0.9,4.1,4.3v1.2h-5.8c0.1,1,0.7,1.8,2.4,1.8
		c1.5,0,2.4-0.5,2.9-1v2.2c-0.5,0.5-1.5,1-3.3,1C483.4,295.9,481.6,294.4,481.6,291.1z M487.6,290.3L487.6,290.3
		c0-1.2-0.5-1.8-1.6-1.8c-1,0-1.6,0.9-1.6,1.8H487.6z"/>
	<path id="XMLID_319_" class="st1" d="M491.3,295.1v-2.3c0.6,0.5,1.4,1,2.7,1c1.2,0,1.5-0.4,1.5-0.8c0-0.5-0.2-0.7-1.2-0.8l-0.5-0.1
		c-1.8-0.3-2.7-1.2-2.7-2.8c0-1.5,1.1-2.9,3.7-2.9c1.4,0,2.3,0.3,2.8,0.7v2.3c-0.6-0.6-1.5-1-2.7-1c-1,0-1.4,0.3-1.4,0.8
		s0.2,0.7,1.1,0.8l0.5,0.1c2,0.3,2.8,1,2.8,2.7c0,1.5-1.1,3.1-3.9,3.1C492.7,295.9,491.7,295.5,491.3,295.1z"/>
</g>
<path id="XMLID_317_" class="st2" d="M10,0c0,0-9.5,0-9.5,9.5v29.7c0,0,0,9.5,9.5,9.5h659.6c0,0,9.5,0,9.5-9.5V9.5
	c0,0,0-9.5-9.5-9.5H10z"/>
<path id="XMLID_316_" class="st3" d="M10,53.1c0,0-9.5,0-9.5,9.5v28.5c0,0,0,9.5,9.5,9.5h659.6c0,0,9.5,0,9.5-9.5V62.6
	c0,0,0-9.5-9.5-9.5H10z"/>
<path id="XMLID_315_" class="st4" d="M10,53.1c0,0-9.5,0-9.5,9.5v28.5c0,0,0,9.5,9.5,9.5h659.6c0,0,9.5,0,9.5-9.5V62.6
	c0,0,0-9.5-9.5-9.5H10z"/>
<path id="XMLID_314_" class="st4" d="M10,105.5c0,0-9.5,0-9.5,9.5v30.3c0,0,0,9.5,9.5,9.5h659.6c0,0,9.5,0,9.5-9.5v-30.3
	c0,0,0-9.5-9.5-9.5H10z"/>
<path id="XMLID_313_" class="st4" d="M10,158.9c0,0-9.5,0-9.5,9.5v28.5c0,0,0,9.5,9.5,9.5h659.6c0,0,9.5,0,9.5-9.5v-28.5
	c0,0,0-9.5-9.5-9.5H10z"/>
<line id="XMLID_312_" class="st5" x1="257.4" y1="154.4" x2="257.4" y2="105.4"/>
<line id="XMLID_311_" class="st6" x1="445.9" y1="153.1" x2="445.9" y2="106.4"/>
<line id="XMLID_310_" class="st5" x1="257.4" y1="207.1" x2="257.4" y2="158.1"/>
<line id="XMLID_309_" class="st6" x1="445.9" y1="203.3" x2="445.9" y2="156.6"/>
<line id="XMLID_308_" class="st7" x1="257.4" y1="151.5" x2="257.4" y2="107.4"/>
<path id="XMLID_305_" class="st8" d="M257.4,106.6v-1.2 M257.4,154.4v-1.2"/>
<line id="XMLID_304_" class="st9" x1="445.9" y1="150.3" x2="445.9" y2="108.3"/>
<path id="XMLID_301_" class="st10" d="M445.9,107.5v-1.2 M445.9,153.1v-1.2"/>
<line id="XMLID_300_" class="st7" x1="257.4" y1="204.2" x2="257.4" y2="160.1"/>
<path id="XMLID_297_" class="st8" d="M257.4,159.3v-1.2 M257.4,207.1v-1.2"/>
<line id="XMLID_296_" class="st9" x1="445.9" y1="200.5" x2="445.9" y2="158.5"/>
<path id="XMLID_293_" class="st10" d="M445.9,157.7v-1.2 M445.9,203.3v-1.2"/>
<g id="XMLID_255_">
	<path id="XMLID_291_" class="st1" d="M244.6,16.7h3.7v14.9h-3.7V16.7z"/>
	<path id="XMLID_288_" class="st1" d="M251,19.5h3.2l0.3,1c0.5-0.8,1.6-1.4,3.2-1.4c3.1,0,4.4,1.6,4.4,5v7.5h-3.6v-6.9
		c0-2-0.5-2.7-1.9-2.7c-1.1,0-1.7,0.5-2,1v8.7H251V19.5z"/>
	<path id="XMLID_286_" class="st1" d="M269.4,30.9v-3.6c0.7,0.9,2.2,1.7,4,1.7c1.6,0,2.4-0.6,2.4-1.7c0-0.9-0.5-1.2-2-1.5l-0.6-0.1
		c-2.4-0.5-4-1.8-4-4.5c0-3,2.1-4.8,5.6-4.8c2.2,0,3.5,0.6,4.1,1.1V21c-0.7-0.9-2.2-1.7-4.1-1.7c-1.4,0-2.1,0.5-2.1,1.4
		c0,0.9,0.3,1.3,1.8,1.6l0.6,0.1c2.5,0.5,4.2,1.6,4.2,4.4c0,3-2.1,5.1-5.9,5.1C271.2,32,270,31.4,269.4,30.9z"/>
	<path id="XMLID_284_" class="st1" d="M280.8,25.5c0-4.4,2.8-6.4,6-6.4c1.8,0,3.1,0.5,3.6,1v3.2c-0.8-0.9-1.7-1.2-3.1-1.2
		c-1.9,0-2.9,1.2-2.9,3.4c0,2.2,1,3.4,2.9,3.4c1.4,0,2.4-0.5,3.1-1.3v3.1c-0.5,0.6-1.9,1.3-3.7,1.3C283.3,32,280.8,30,280.8,25.5z"
		/>
	<path id="XMLID_282_" class="st1" d="M292.6,15.1h3.6v5.3c0.5-0.7,1.6-1.2,3.1-1.2c3.1,0,4.3,1.6,4.3,5v7.5H300v-6.9
		c0-2-0.5-2.7-1.9-2.7c-1,0-1.7,0.5-2,0.9v8.7h-3.6V15.1z"/>
	<path id="XMLID_279_" class="st1" d="M306,16.6c0-1.1,0.7-1.7,1.8-1.7c1.1,0,1.9,0.6,1.9,1.7s-0.7,1.7-1.9,1.7
		C306.6,18.3,306,17.6,306,16.6z M306,19.5h3.6v12.1H306V19.5z"/>
	<path id="XMLID_277_" class="st1" d="M311.5,30.5l5.1-8.2h-5.1v-2.8h9.5v1.1l-4.9,8.2h4.9v2.8h-9.5V30.5z"/>
	<path id="XMLID_274_" class="st1" d="M322.3,25.5c0-4.5,2.9-6.4,6.2-6.4c3.5,0,6,1.9,6,6.4c0,4.5-2.9,6.4-6.2,6.4
		C324.8,32,322.3,30,322.3,25.5z M330.9,25.5c0-2.1-0.8-3.5-2.5-3.5c-1.7,0-2.4,1.4-2.4,3.5c0,2.1,0.8,3.5,2.4,3.5
		C330.1,29,330.9,27.7,330.9,25.5z"/>
	<path id="XMLID_271_" class="st1" d="M336.5,19.5h3.2l0.3,1c0.4-0.7,1.4-1.4,3.2-1.4c3,0,4.9,1.7,4.9,6.1c0,4.4-2.3,6.7-5.4,6.7
		c-1,0-2-0.2-2.6-0.8v4.7h-3.6V19.5z M344.4,25.4c0-2.1-0.6-3.4-2.3-3.4c-1,0-1.7,0.4-2,1v5.5c0.4,0.5,1.2,0.8,2,0.8
		C343.7,29.2,344.4,27.5,344.4,25.4z"/>
	<path id="XMLID_269_" class="st1" d="M350,15.1h3.6v5.3c0.5-0.7,1.6-1.2,3.1-1.2c3.1,0,4.3,1.6,4.3,5v7.5h-3.6v-6.9
		c0-2-0.5-2.7-1.9-2.7c-1,0-1.7,0.5-2,0.9v8.7H350V15.1z"/>
	<path id="XMLID_267_" class="st1" d="M363.4,19.5h2.9l0.3,1.6c0.2-1.3,1.2-2,2.3-2c0.6,0,1,0.2,1.2,0.3v3.3
		c-0.3-0.2-0.7-0.3-1.4-0.3c-0.9,0-1.5,0.4-1.8,1v8.3h-3.6V19.5z"/>
	<path id="XMLID_264_" class="st1" d="M371,25.5c0-4.5,2.9-6.4,5.9-6.4c2.9,0,5.6,1.2,5.6,5.8v1.6h-7.8c0.1,1.4,1,2.5,3.3,2.5
		c2,0,3.3-0.7,3.9-1.4v3c-0.7,0.6-2.1,1.4-4.5,1.4C373.4,32,371,29.9,371,25.5z M379.1,24.3v-0.1c0-1.5-0.7-2.3-2.2-2.3
		c-1.4,0-2.2,1.2-2.2,2.4H379.1z"/>
	<path id="XMLID_262_" class="st1" d="M384.4,19.5h3.2l0.3,1c0.5-0.8,1.6-1.4,3.2-1.4c3.1,0,4.4,1.6,4.4,5v7.5h-3.6v-6.9
		c0-2-0.5-2.7-1.9-2.7c-1.1,0-1.7,0.5-2,1v8.7h-3.6V19.5z"/>
	<path id="XMLID_259_" class="st1" d="M397.9,16.6c0-1.1,0.7-1.7,1.8-1.7c1.1,0,1.9,0.6,1.9,1.7s-0.7,1.7-1.9,1.7
		C398.5,18.3,397.9,17.6,397.9,16.6z M397.9,19.5h3.6v12.1h-3.6V19.5z"/>
	<path id="XMLID_256_" class="st1" d="M403.4,28.4c0-2.4,1.7-3.4,5.1-4l1.8-0.3c0-1.6-0.8-2.2-2.4-2.2c-1.7,0-3.3,0.9-3.9,2.2v-3.4
		c0.5-0.7,1.9-1.6,4.5-1.6c3.5,0,5.4,1.5,5.4,5.2v7.3h-3.1l-0.3-1c-0.3,0.7-1.3,1.4-3,1.4C405.1,32,403.4,30.8,403.4,28.4z
		 M410.3,26.4l-1.4,0.3c-1.6,0.3-2.2,0.8-2.2,1.6c0,0.8,0.6,1.2,1.5,1.2c1,0,1.7-0.4,2.1-0.8V26.4z"/>
</g>
<g id="XMLID_224_">
	<path id="XMLID_253_" class="st11" d="M301.9,81.4v-2.6c0.6,0.8,1.7,1.5,3.2,1.5c1.4,0,2.3-0.7,2.3-1.8c0-0.9-0.6-1.3-1.9-1.6
		l-0.5-0.1c-2-0.5-3.1-1.6-3.1-3.6c0-2.4,1.7-3.9,4.4-3.9c1.7,0,2.7,0.5,3.1,0.9v2.6c-0.6-0.8-1.7-1.5-3.2-1.5c-1.3,0-2,0.5-2,1.5
		c0,0.9,0.4,1.3,1.8,1.7l0.5,0.1c2.1,0.5,3.2,1.5,3.2,3.5c0,2.4-1.7,4.2-4.7,4.2C303.2,82.3,302.3,81.8,301.9,81.4z"/>
	<path id="XMLID_251_" class="st11" d="M312.2,79.3v-5.6h-1.2v-0.6l1-1.3l1.8-2.4h0.8v2.4h2.5v1.9h-2.5v5.4c0,0.8,0.3,1.2,0.9,1.2
		c0.7,0,1.3-0.4,1.6-1v2.1c-0.3,0.4-1,0.8-2.1,0.8C313,82.3,312.2,81.2,312.2,79.3z"/>
	<path id="XMLID_248_" class="st11" d="M318.4,79.4c0-2.1,1.6-2.9,4.4-3.3l1.5-0.2c0-1.8-0.8-2.3-2.3-2.3c-1.5,0-2.7,0.8-3.2,1.9V73
		c0.4-0.6,1.4-1.4,3.6-1.4c2.7,0,4.3,1.4,4.3,4.3V82h-2.2l-0.2-0.9c-0.3,0.6-1.1,1.2-2.5,1.2C319.9,82.3,318.4,81.4,318.4,79.4z
		 M324.2,77.4l-1.3,0.3c-1.7,0.4-2.2,0.8-2.2,1.6s0.6,1.2,1.5,1.2c1,0,1.8-0.4,2.1-0.9V77.4z"/>
	<path id="XMLID_246_" class="st11" d="M329,71.9h2.1l0.2,1.4c0.1-1.1,1-1.7,2-1.7c0.6,0,0.9,0.2,1,0.3V74c-0.2-0.2-0.6-0.3-1.2-0.3
		c-0.8,0-1.4,0.4-1.7,1V82H329V71.9z"/>
	<path id="XMLID_244_" class="st11" d="M336.2,79.3v-5.6H335v-0.6l1-1.3l1.8-2.4h0.8v2.4h2.5v1.9h-2.5v5.4c0,0.8,0.3,1.2,0.9,1.2
		c0.7,0,1.3-0.4,1.6-1v2.1c-0.3,0.4-1,0.8-2.1,0.8C337.1,82.3,336.2,81.2,336.2,79.3z"/>
	<path id="XMLID_241_" class="st11" d="M342.9,69.5c0-0.8,0.4-1.2,1.3-1.2s1.3,0.4,1.3,1.2c0,0.8-0.5,1.2-1.3,1.2
		S342.9,70.3,342.9,69.5z M343,71.9h2.4V82H343V71.9z"/>
	<path id="XMLID_239_" class="st11" d="M347.9,71.9h2.2l0.2,0.9c0.4-0.6,1.3-1.2,2.6-1.2c2.6,0,3.7,1.4,3.7,4.1V82h-2.4v-5.9
		c0-1.9-0.5-2.7-1.9-2.7c-1.1,0-1.8,0.6-2,1V82h-2.4V71.9z"/>
	<path id="XMLID_236_" class="st11" d="M358.3,84.8v-2c0.9,0.7,2.2,1.1,4.2,1.1c2.3,0,3.4-0.4,3.4-1.3c0-0.8-0.8-1-2.3-1
		c-1.4,0-3.6,0.3-4.3,0.6v-1.7l1.4-2.3c-1.4-0.5-2.3-1.6-2.3-3.2c0-2.2,1.8-3.5,4.3-3.5c1.1,0,2.1,0.3,2.8,0.8
		c0.3-0.5,1.1-0.8,1.9-0.8c0.3,0,0.5,0,0.8,0.1v1.9c-0.2-0.1-0.4-0.1-0.6-0.1c-0.4,0-0.8,0.1-1,0.3c0.2,0.4,0.3,0.9,0.3,1.4
		c0,2.2-1.7,3.5-4.2,3.5h-0.3l-0.9,1.5c0.4-0.1,1.6-0.3,2.6-0.3c2.5,0,4.1,0.6,4.1,2.6s-1.9,3.4-5.5,3.4
		C360.7,85.9,359.2,85.5,358.3,84.8z M364.6,75.1c0-1.1-0.8-1.7-1.9-1.7s-1.9,0.6-1.9,1.7c0,1.1,0.8,1.7,1.9,1.7
		S364.6,76.2,364.6,75.1z"/>
	<path id="XMLID_233_" class="st11" d="M373.4,77.1c0-3.7,1.9-5.5,4.5-5.5c0.8,0,1.7,0.1,2.2,0.7v-4.1h2.4V82h-2.2l-0.2-0.9
		c-0.3,0.5-1.1,1.2-2.6,1.2C375.2,82.3,373.4,80.8,373.4,77.1z M380.1,74.2c-0.4-0.6-1.2-0.8-1.9-0.8c-1.7,0-2.3,1.6-2.3,3.6
		c0,2,0.6,3.3,2.2,3.3c1,0,1.7-0.4,2-0.9V74.2z"/>
	<path id="XMLID_230_" class="st11" d="M384.4,76.9c0-3.7,2.3-5.4,5-5.4c2.8,0,4.7,1.7,4.7,5.4c0,3.7-2.3,5.4-5,5.4
		C386.4,82.3,384.4,80.6,384.4,76.9z M391.8,76.9c0-2-0.8-3.4-2.4-3.4c-1.7,0-2.4,1.4-2.4,3.4c0,2,0.8,3.4,2.4,3.4
		C391,80.4,391.8,79,391.8,76.9z"/>
	<path id="XMLID_228_" class="st11" d="M395.8,81.4v-2.3c0.6,0.7,1.5,1.3,2.9,1.3s1.9-0.6,1.9-1.2c0-0.7-0.3-0.9-1.5-1.2l-0.5-0.1
		c-1.9-0.3-2.9-1.3-2.9-3.1c0-1.7,1.3-3.2,3.9-3.2c1.4,0,2.4,0.4,2.9,0.9v2.3c-0.6-0.8-1.5-1.3-2.9-1.3c-1.3,0-1.8,0.5-1.8,1.1
		s0.3,1,1.5,1.2l0.5,0.1c2,0.4,3.1,1.1,3.1,3c0,1.7-1.3,3.4-4.2,3.4C397.3,82.3,396.3,81.9,395.8,81.4z"/>
	<path id="XMLID_225_" class="st11" d="M404.2,76.9c0-3.7,2.4-5.4,4.7-5.4c2.3,0,4.5,1,4.5,4.8v1.3h-6.8c0.1,1.4,1,2.6,2.9,2.6
		c1.8,0,2.8-0.8,3.4-1.5V81c-0.5,0.6-1.6,1.3-3.6,1.3C406.3,82.3,404.2,80.6,404.2,76.9z M411.1,76.1L411.1,76.1
		c0-1.6-0.7-2.5-2.2-2.5c-1.4,0-2.2,1.3-2.2,2.5H411.1z"/>
</g>
<g id="XMLID_183_">
	<path id="XMLID_221_" class="st11" d="M480.1,79.4H480v4.7h-2.4V71.6h3.5c2.9,0,4.9,1,4.9,3.7c0,2.1-1.3,3.5-3.3,4l4.3,4.8H484
		L480.1,79.4z M481.1,77.7c1.5,0,2.4-0.7,2.4-2.2c0-1.4-0.9-2-2.4-2H480v4.2H481.1z"/>
	<path id="XMLID_218_" class="st11" d="M487.6,79c0-3.7,2.4-5.4,4.7-5.4c2.3,0,4.5,1,4.5,4.8v1.3h-6.8c0.1,1.4,1,2.6,2.9,2.6
		c1.8,0,2.8-0.8,3.4-1.5v2.2c-0.5,0.6-1.6,1.3-3.6,1.3C489.7,84.4,487.6,82.7,487.6,79z M494.5,78.1L494.5,78.1
		c0-1.6-0.7-2.5-2.2-2.5c-1.4,0-2.2,1.3-2.2,2.5H494.5z"/>
	<path id="XMLID_216_" class="st11" d="M498.2,79c0-3.7,2.3-5.4,4.9-5.4c1.4,0,2.4,0.5,2.9,0.9v2.3c-0.6-0.9-1.5-1.2-2.7-1.2
		c-1.7,0-2.7,1.3-2.7,3.3c0,2.1,1,3.3,2.7,3.3c1.2,0,2.2-0.5,2.8-1.3v2.2c-0.4,0.5-1.6,1.2-3,1.2C500.2,84.4,498.2,82.7,498.2,79z"
		/>
	<path id="XMLID_213_" class="st11" d="M507.5,79c0-3.7,2.3-5.4,5-5.4c2.8,0,4.7,1.7,4.7,5.4c0,3.7-2.3,5.4-5,5.4
		C509.5,84.4,507.5,82.7,507.5,79z M514.8,79c0-2-0.8-3.4-2.4-3.4c-1.7,0-2.4,1.4-2.4,3.4c0,2,0.8,3.4,2.4,3.4
		C514.1,82.4,514.8,81,514.8,79z"/>
	<path id="XMLID_211_" class="st11" d="M519.2,73.9h2.3l0.1,0.9c0.4-0.6,1.3-1.2,2.4-1.2c1.5,0,2.4,0.5,3,1.5c0.4-0.7,1.4-1.5,3-1.5
		c2.5,0,3.5,1.4,3.5,4.1v6.3H531v-5.9c0-1.9-0.5-2.7-1.7-2.7c-0.9,0-1.7,0.5-2,1c0.1,0.4,0.1,0.8,0.1,1.3v6.3h-2.4v-5.9
		c0-1.9-0.5-2.7-1.7-2.7c-0.9,0-1.6,0.5-1.9,1v7.6h-2.4V73.9z"/>
	<path id="XMLID_209_" class="st11" d="M535.8,73.9h2.3l0.1,0.9c0.4-0.6,1.3-1.2,2.4-1.2c1.5,0,2.4,0.5,3,1.5c0.4-0.7,1.4-1.5,3-1.5
		c2.5,0,3.5,1.4,3.5,4.1v6.3h-2.4v-5.9c0-1.9-0.5-2.7-1.7-2.7c-0.9,0-1.7,0.5-2,1c0.1,0.4,0.1,0.8,0.1,1.3v6.3h-2.4v-5.9
		c0-1.9-0.5-2.7-1.7-2.7c-0.9,0-1.6,0.5-1.9,1v7.6h-2.4V73.9z"/>
	<path id="XMLID_206_" class="st11" d="M551.8,79c0-3.7,2.4-5.4,4.7-5.4c2.3,0,4.5,1,4.5,4.8v1.3h-6.8c0.1,1.4,1,2.6,2.9,2.6
		c1.8,0,2.8-0.8,3.4-1.5v2.2c-0.5,0.6-1.6,1.3-3.6,1.3C553.9,84.4,551.8,82.7,551.8,79z M558.7,78.1L558.7,78.1
		c0-1.6-0.7-2.5-2.2-2.5c-1.4,0-2.2,1.3-2.2,2.5H558.7z"/>
	<path id="XMLID_204_" class="st11" d="M562.9,73.9h2.2l0.2,0.9c0.4-0.6,1.3-1.2,2.6-1.2c2.6,0,3.7,1.4,3.7,4.1v6.3h-2.4v-5.9
		c0-1.9-0.5-2.7-1.9-2.7c-1.1,0-1.8,0.6-2,1v7.6h-2.4V73.9z"/>
	<path id="XMLID_201_" class="st11" d="M573.4,79.2c0-3.7,1.9-5.5,4.5-5.5c0.8,0,1.7,0.1,2.2,0.7v-4.1h2.4v13.8h-2.2l-0.2-0.9
		c-0.3,0.5-1.1,1.2-2.6,1.2C575.3,84.4,573.4,82.8,573.4,79.2z M580.1,76.3c-0.4-0.6-1.2-0.8-1.9-0.8c-1.7,0-2.3,1.6-2.3,3.6
		c0,2,0.6,3.3,2.2,3.3c1,0,1.7-0.4,2-0.9V76.3z"/>
	<path id="XMLID_198_" class="st11" d="M584.4,79c0-3.7,2.4-5.4,4.7-5.4c2.3,0,4.5,1,4.5,4.8v1.3h-6.8c0.1,1.4,1,2.6,2.9,2.6
		c1.8,0,2.8-0.8,3.4-1.5v2.2c-0.5,0.6-1.6,1.3-3.6,1.3C586.5,84.4,584.4,82.7,584.4,79z M591.3,78.1L591.3,78.1
		c0-1.6-0.7-2.5-2.2-2.5c-1.4,0-2.2,1.3-2.2,2.5H591.3z"/>
	<path id="XMLID_195_" class="st11" d="M595,79.2c0-3.7,1.9-5.5,4.5-5.5c0.8,0,1.7,0.1,2.2,0.7v-4.1h2.4v13.8h-2.2l-0.2-0.9
		c-0.3,0.5-1.1,1.2-2.6,1.2C596.8,84.4,595,82.8,595,79.2z M601.7,76.3c-0.4-0.6-1.2-0.8-1.9-0.8c-1.7,0-2.3,1.6-2.3,3.6
		c0,2,0.6,3.3,2.2,3.3c1,0,1.7-0.4,2-0.9V76.3z"/>
	<path id="XMLID_192_" class="st11" d="M610.5,79.2c0-3.7,1.9-5.5,4.5-5.5c0.8,0,1.7,0.1,2.2,0.7v-4.1h2.4v13.8h-2.2l-0.2-0.9
		c-0.3,0.5-1.1,1.2-2.6,1.2C612.3,84.4,610.5,82.8,610.5,79.2z M617.2,76.3c-0.4-0.6-1.2-0.8-1.9-0.8c-1.7,0-2.3,1.6-2.3,3.6
		c0,2,0.6,3.3,2.2,3.3c1,0,1.7-0.4,2-0.9V76.3z"/>
	<path id="XMLID_189_" class="st11" d="M621.5,79c0-3.7,2.3-5.4,5-5.4c2.8,0,4.7,1.7,4.7,5.4c0,3.7-2.3,5.4-5,5.4
		C623.4,84.4,621.5,82.7,621.5,79z M628.8,79c0-2-0.8-3.4-2.4-3.4c-1.7,0-2.4,1.4-2.4,3.4c0,2,0.8,3.4,2.4,3.4
		C628,82.4,628.8,81,628.8,79z"/>
	<path id="XMLID_187_" class="st11" d="M632.8,83.5v-2.3c0.6,0.7,1.5,1.3,2.9,1.3s1.9-0.6,1.9-1.2c0-0.7-0.3-0.9-1.5-1.2l-0.5-0.1
		c-1.9-0.3-2.9-1.3-2.9-3.1c0-1.7,1.3-3.2,3.9-3.2c1.4,0,2.4,0.4,2.9,0.9v2.3c-0.6-0.8-1.5-1.3-2.9-1.3c-1.3,0-1.8,0.5-1.8,1.1
		s0.3,1,1.5,1.2l0.5,0.1c2,0.4,3.1,1.1,3.1,3c0,1.7-1.3,3.4-4.2,3.4C634.3,84.4,633.3,84,632.8,83.5z"/>
	<path id="XMLID_184_" class="st11" d="M641.2,79c0-3.7,2.4-5.4,4.7-5.4c2.3,0,4.5,1,4.5,4.8v1.3h-6.8c0.1,1.4,1,2.6,2.9,2.6
		c1.8,0,2.8-0.8,3.4-1.5v2.2c-0.5,0.6-1.6,1.3-3.6,1.3C643.3,84.4,641.2,82.7,641.2,79z M648.1,78.1L648.1,78.1
		c0-1.6-0.7-2.5-2.2-2.5c-1.4,0-2.2,1.3-2.2,2.5H648.1z"/>
</g>
<g id="XMLID_149_">
	<path id="XMLID_180_" class="st11" d="M17.9,130.8l-1.3,3.9h-1.7l4.2-12.4h1.9l4.2,12.4h-1.7l-1.3-3.9H17.9z M21.9,129.6l-1.2-3.6
		c-0.3-0.8-0.5-1.5-0.6-2.3h0c-0.2,0.7-0.4,1.5-0.6,2.2l-1.2,3.6H21.9z"/>
	<path id="XMLID_178_" class="st11" d="M33.2,134.4c-0.4,0.2-1.4,0.5-2.6,0.5c-2.7,0-4.4-1.8-4.4-4.5c0-2.7,1.9-4.7,4.8-4.7
		c1,0,1.8,0.2,2.2,0.5l-0.4,1.3c-0.4-0.2-1-0.4-1.9-0.4c-2,0-3.1,1.5-3.1,3.4c0,2.1,1.3,3.3,3.1,3.3c0.9,0,1.5-0.2,2-0.4L33.2,134.4
		z"/>
	<path id="XMLID_176_" class="st11" d="M42.5,132.3c0,0.9,0,1.7,0.1,2.4h-1.4l-0.1-1.5h0c-0.4,0.7-1.4,1.7-2.9,1.7
		c-1.4,0-3.1-0.8-3.1-3.9v-5.2h1.6v4.9c0,1.7,0.5,2.8,2,2.8c1.1,0,1.8-0.8,2.1-1.5c0.1-0.2,0.1-0.5,0.1-0.8v-5.5h1.6V132.3z"/>
	<path id="XMLID_174_" class="st11" d="M47.1,123.3v2.6h2.3v1.2h-2.3v4.8c0,1.1,0.3,1.7,1.2,1.7c0.4,0,0.7-0.1,0.9-0.1l0.1,1.2
		c-0.3,0.1-0.8,0.2-1.4,0.2c-0.8,0-1.4-0.2-1.7-0.7c-0.5-0.5-0.6-1.3-0.6-2.3V127h-1.4v-1.2h1.4v-2.1L47.1,123.3z"/>
	<path id="XMLID_171_" class="st11" d="M52.1,130.6c0,2.2,1.4,3.1,3.1,3.1c1.2,0,1.9-0.2,2.5-0.5l0.3,1.2c-0.6,0.3-1.5,0.6-3,0.6
		c-2.7,0-4.4-1.8-4.4-4.5s1.6-4.8,4.2-4.8c2.9,0,3.7,2.6,3.7,4.2c0,0.3,0,0.6-0.1,0.8H52.1z M56.8,129.4c0-1-0.4-2.6-2.2-2.6
		c-1.6,0-2.4,1.5-2.5,2.6H56.8z"/>
	<path id="XMLID_169_" class="st11" d="M66.2,123.3v2.6h2.3v1.2h-2.3v4.8c0,1.1,0.3,1.7,1.2,1.7c0.4,0,0.7-0.1,0.9-0.1l0.1,1.2
		c-0.3,0.1-0.8,0.2-1.4,0.2c-0.8,0-1.4-0.2-1.7-0.7c-0.5-0.5-0.6-1.3-0.6-2.3V127h-1.4v-1.2h1.4v-2.1L66.2,123.3z"/>
	<path id="XMLID_167_" class="st11" d="M70.4,128.6c0-1,0-1.9-0.1-2.8h1.4l0.1,1.7h0.1c0.4-1.2,1.4-1.9,2.5-1.9c0.2,0,0.3,0,0.5,0.1
		v1.5c-0.2,0-0.3-0.1-0.6-0.1c-1.1,0-1.9,0.9-2.2,2.1c0,0.2-0.1,0.5-0.1,0.8v4.7h-1.6V128.6z"/>
	<path id="XMLID_164_" class="st11" d="M77.1,130.6c0,2.2,1.4,3.1,3.1,3.1c1.2,0,1.9-0.2,2.5-0.5l0.3,1.2c-0.6,0.3-1.5,0.6-3,0.6
		c-2.7,0-4.4-1.8-4.4-4.5s1.6-4.8,4.2-4.8c2.9,0,3.7,2.6,3.7,4.2c0,0.3,0,0.6-0.1,0.8H77.1z M81.8,129.4c0-1-0.4-2.6-2.2-2.6
		c-1.6,0-2.4,1.5-2.5,2.6H81.8z"/>
	<path id="XMLID_161_" class="st11" d="M90.3,134.7l-0.1-1.1h-0.1c-0.5,0.7-1.5,1.3-2.7,1.3c-1.8,0-2.7-1.3-2.7-2.6
		c0-2.2,1.9-3.3,5.4-3.3v-0.2c0-0.7-0.2-2.1-2-2.1c-0.8,0-1.7,0.3-2.3,0.7l-0.4-1.1c0.7-0.5,1.8-0.8,2.9-0.8c2.7,0,3.4,1.9,3.4,3.6
		v3.3c0,0.8,0,1.5,0.1,2.1H90.3z M90.1,130.2c-1.8,0-3.8,0.3-3.8,2c0,1,0.7,1.5,1.5,1.5c1.2,0,1.9-0.7,2.2-1.5
		c0.1-0.2,0.1-0.3,0.1-0.5V130.2z"/>
	<path id="XMLID_159_" class="st11" d="M96.2,123.3v2.6h2.3v1.2h-2.3v4.8c0,1.1,0.3,1.7,1.2,1.7c0.4,0,0.7-0.1,0.9-0.1l0.1,1.2
		c-0.3,0.1-0.8,0.2-1.4,0.2c-0.8,0-1.4-0.2-1.7-0.7c-0.5-0.5-0.6-1.3-0.6-2.3V127h-1.4v-1.2h1.4v-2.1L96.2,123.3z"/>
	<path id="XMLID_157_" class="st11" d="M100.3,128.2c0-0.9,0-1.7-0.1-2.4h1.4l0.1,1.4h0.1c0.5-0.8,1.3-1.6,2.8-1.6
		c1.2,0,2.1,0.7,2.5,1.8h0c0.3-0.5,0.6-0.9,1-1.2c0.5-0.4,1.1-0.6,2-0.6c1.2,0,2.9,0.8,2.9,3.9v5.2h-1.6v-5c0-1.7-0.6-2.7-1.9-2.7
		c-0.9,0-1.6,0.7-1.9,1.5c-0.1,0.2-0.1,0.5-0.1,0.8v5.5h-1.6v-5.3c0-1.4-0.6-2.4-1.9-2.4c-1,0-1.7,0.8-2,1.6
		c-0.1,0.2-0.1,0.5-0.1,0.8v5.4h-1.6V128.2z"/>
	<path id="XMLID_154_" class="st11" d="M116.5,130.6c0,2.2,1.4,3.1,3.1,3.1c1.2,0,1.9-0.2,2.5-0.5l0.3,1.2c-0.6,0.3-1.5,0.6-3,0.6
		c-2.7,0-4.4-1.8-4.4-4.5s1.6-4.8,4.2-4.8c2.9,0,3.7,2.6,3.7,4.2c0,0.3,0,0.6-0.1,0.8H116.5z M121.3,129.4c0-1-0.4-2.6-2.2-2.6
		c-1.6,0-2.4,1.5-2.5,2.6H121.3z"/>
	<path id="XMLID_152_" class="st11" d="M124.8,128.2c0-0.9,0-1.7-0.1-2.4h1.4l0.1,1.5h0c0.4-0.8,1.5-1.7,2.9-1.7
		c1.2,0,3.1,0.7,3.1,3.8v5.3h-1.6v-5.1c0-1.4-0.5-2.6-2.1-2.6c-1.1,0-1.9,0.8-2.2,1.7c-0.1,0.2-0.1,0.5-0.1,0.8v5.4h-1.6V128.2z"/>
	<path id="XMLID_150_" class="st11" d="M136.9,123.3v2.6h2.3v1.2h-2.3v4.8c0,1.1,0.3,1.7,1.2,1.7c0.4,0,0.7-0.1,0.9-0.1l0.1,1.2
		c-0.3,0.1-0.8,0.2-1.4,0.2c-0.8,0-1.4-0.2-1.7-0.7c-0.5-0.5-0.6-1.3-0.6-2.3V127h-1.4v-1.2h1.4v-2.1L136.9,123.3z"/>
</g>
<g id="XMLID_146_">
	<path id="XMLID_147_" class="st11" d="M329.5,124.1H325l-0.5,3.1c0.3,0,0.5-0.1,1-0.1c0.9,0,1.8,0.2,2.6,0.6
		c0.9,0.5,1.7,1.6,1.7,3.1c0,2.3-1.9,4.1-4.4,4.1c-1.3,0-2.4-0.4-3-0.7l0.4-1.2c0.5,0.3,1.5,0.7,2.6,0.7c1.5,0,2.8-1,2.8-2.6
		c0-1.5-1-2.6-3.4-2.6c-0.7,0-1.2,0.1-1.7,0.1l0.8-5.7h5.7V124.1z"/>
</g>
<g id="XMLID_131_">
	<path id="XMLID_144_" class="st11" d="M335.7,128.2c0-0.9,0-1.7-0.1-2.4h1.4l0.1,1.4h0.1c0.5-0.8,1.3-1.6,2.8-1.6
		c1.2,0,2.1,0.7,2.5,1.8h0c0.3-0.5,0.6-0.9,1-1.2c0.5-0.4,1.1-0.6,2-0.6c1.2,0,2.9,0.8,2.9,3.9v5.2h-1.6v-5c0-1.7-0.6-2.7-1.9-2.7
		c-0.9,0-1.6,0.7-1.9,1.5c-0.1,0.2-0.1,0.5-0.1,0.8v5.5h-1.6v-5.3c0-1.4-0.6-2.4-1.9-2.4c-1,0-1.7,0.8-2,1.6
		c-0.1,0.2-0.1,0.5-0.1,0.8v5.4h-1.6V128.2z"/>
	<path id="XMLID_141_" class="st11" d="M358.7,125.8c0,0.6-0.1,1.4-0.1,2.4v5.2c0,2-0.4,3.3-1.3,4.1c-0.9,0.8-2.1,1.1-3.2,1.1
		c-1.1,0-2.2-0.3-3-0.7l0.4-1.2c0.6,0.4,1.5,0.7,2.6,0.7c1.7,0,2.9-0.9,2.9-3.1v-1h0c-0.5,0.8-1.5,1.5-2.8,1.5
		c-2.2,0-3.8-1.9-3.8-4.3c0-3,2-4.7,4-4.7c1.5,0,2.4,0.8,2.8,1.5h0l0.1-1.3H358.7z M357,129.3c0-0.3,0-0.5-0.1-0.7
		c-0.3-0.9-1.1-1.7-2.3-1.7c-1.5,0-2.6,1.3-2.6,3.4c0,1.7,0.9,3.2,2.6,3.2c1,0,1.9-0.6,2.2-1.7c0.1-0.3,0.1-0.6,0.1-0.9V129.3z"/>
	<path id="XMLID_137_" class="st11" d="M365.3,122.5c0.7-0.1,1.8-0.3,2.9-0.3c1.6,0,2.6,0.3,3.4,0.9c0.6,0.5,1,1.2,1,2.2
		c0,1.2-0.8,2.2-2.1,2.7v0c1.2,0.3,2.6,1.3,2.6,3.1c0,1.1-0.4,1.9-1,2.5c-0.9,0.8-2.3,1.2-4.3,1.2c-1.1,0-1.9-0.1-2.5-0.1V122.5z
		 M366.9,127.6h1.5c1.7,0,2.7-0.9,2.7-2.1c0-1.5-1.1-2-2.7-2c-0.7,0-1.2,0.1-1.4,0.1V127.6z M366.9,133.5c0.3,0.1,0.8,0.1,1.3,0.1
		c1.7,0,3.2-0.6,3.2-2.4c0-1.7-1.5-2.4-3.2-2.4h-1.3V133.5z"/>
	<path id="XMLID_135_" class="st11" d="M376.8,122.3v12.4h-1.6v-12.4H376.8z"/>
	<path id="XMLID_132_" class="st11" d="M379.6,122.5c1-0.1,2.1-0.3,3.4-0.3c2.3,0,3.9,0.5,5,1.5c1.1,1,1.7,2.4,1.7,4.5
		c0,2-0.6,3.7-1.8,4.8c-1.2,1.2-3.1,1.8-5.5,1.8c-1.1,0-2.1-0.1-2.9-0.1V122.5z M381.2,133.4c0.4,0.1,1,0.1,1.6,0.1
		c3.4,0,5.3-1.9,5.3-5.3c0-2.9-1.6-4.8-5-4.8c-0.8,0-1.5,0.1-1.9,0.2V133.4z"/>
</g>
<g id="XMLID_128_">
	<path id="XMLID_129_" class="st11" d="M531.5,123.7H527l-0.5,3.1c0.3,0,0.5-0.1,1-0.1c0.9,0,1.8,0.2,2.6,0.6
		c0.9,0.5,1.7,1.6,1.7,3.1c0,2.3-1.9,4.1-4.4,4.1c-1.3,0-2.4-0.4-3-0.7l0.4-1.2c0.5,0.3,1.5,0.7,2.6,0.7c1.5,0,2.8-1,2.8-2.6
		c0-1.5-1-2.6-3.4-2.6c-0.7,0-1.2,0.1-1.7,0.1l0.8-5.7h5.7V123.7z"/>
</g>
<g id="XMLID_113_">
	<path id="XMLID_126_" class="st11" d="M537.3,127.8c0-0.9,0-1.7-0.1-2.4h1.4l0.1,1.4h0.1c0.5-0.8,1.3-1.6,2.8-1.6
		c1.2,0,2.1,0.7,2.5,1.8h0c0.3-0.5,0.6-0.9,1-1.2c0.5-0.4,1.1-0.6,2-0.6c1.2,0,2.9,0.8,2.9,3.9v5.2h-1.6v-5c0-1.7-0.6-2.7-1.9-2.7
		c-0.9,0-1.6,0.7-1.9,1.5c-0.1,0.2-0.1,0.5-0.1,0.8v5.5h-1.6V129c0-1.4-0.6-2.4-1.9-2.4c-1,0-1.7,0.8-2,1.6
		c-0.1,0.2-0.1,0.5-0.1,0.8v5.4h-1.6V127.8z"/>
	<path id="XMLID_123_" class="st11" d="M560.3,125.4c0,0.6-0.1,1.4-0.1,2.4v5.2c0,2-0.4,3.3-1.3,4.1c-0.9,0.8-2.1,1.1-3.2,1.1
		c-1.1,0-2.2-0.3-3-0.7l0.4-1.2c0.6,0.4,1.5,0.7,2.6,0.7c1.7,0,2.9-0.9,2.9-3.1v-1h0c-0.5,0.8-1.5,1.5-2.8,1.5
		c-2.2,0-3.8-1.9-3.8-4.3c0-3,2-4.7,4-4.7c1.5,0,2.4,0.8,2.8,1.5h0l0.1-1.3H560.3z M558.6,128.9c0-0.3,0-0.5-0.1-0.7
		c-0.3-0.9-1.1-1.7-2.3-1.7c-1.5,0-2.6,1.3-2.6,3.4c0,1.7,0.9,3.2,2.6,3.2c1,0,1.9-0.6,2.2-1.7c0.1-0.3,0.1-0.6,0.1-0.9V128.9z"/>
	<path id="XMLID_119_" class="st11" d="M566.8,122.1c0.7-0.1,1.8-0.3,2.9-0.3c1.6,0,2.6,0.3,3.4,0.9c0.6,0.5,1,1.2,1,2.2
		c0,1.2-0.8,2.2-2.1,2.7v0c1.2,0.3,2.6,1.3,2.6,3.1c0,1.1-0.4,1.9-1,2.5c-0.9,0.8-2.3,1.2-4.3,1.2c-1.1,0-1.9-0.1-2.5-0.1V122.1z
		 M568.4,127.1h1.5c1.7,0,2.7-0.9,2.7-2.1c0-1.5-1.1-2-2.7-2c-0.7,0-1.2,0.1-1.4,0.1V127.1z M568.4,133.1c0.3,0.1,0.8,0.1,1.3,0.1
		c1.7,0,3.2-0.6,3.2-2.4c0-1.7-1.5-2.4-3.2-2.4h-1.3V133.1z"/>
	<path id="XMLID_117_" class="st11" d="M578.4,121.9v12.4h-1.6v-12.4H578.4z"/>
	<path id="XMLID_114_" class="st11" d="M581.2,122.1c1-0.1,2.1-0.3,3.4-0.3c2.3,0,3.9,0.5,5,1.5c1.1,1,1.7,2.4,1.7,4.5
		c0,2-0.6,3.7-1.8,4.8c-1.2,1.2-3.1,1.8-5.5,1.8c-1.1,0-2.1-0.1-2.9-0.1V122.1z M582.8,133c0.4,0.1,1,0.1,1.6,0.1
		c3.4,0,5.3-1.9,5.3-5.3c0-2.9-1.6-4.8-5-4.8c-0.8,0-1.5,0.1-1.9,0.2V133z"/>
</g>
<g id="XMLID_63_">
	<path id="XMLID_111_" class="st11" d="M26.3,182c-0.1-1.7-0.2-3.8-0.2-5.4h-0.1c-0.4,1.5-0.9,3-1.6,4.7l-2.2,6h-1.2l-2-5.9
		c-0.6-1.7-1.1-3.3-1.4-4.8h0c0,1.5-0.1,3.6-0.2,5.5l-0.3,5.3h-1.5l0.9-12.4h2l2.1,6c0.5,1.5,0.9,2.9,1.3,4.2h0.1
		c0.3-1.3,0.8-2.6,1.3-4.2l2.2-6h2l0.8,12.4h-1.6L26.3,182z"/>
	<path id="XMLID_108_" class="st11" d="M35.6,187.4l-0.1-1.1h-0.1c-0.5,0.7-1.5,1.3-2.7,1.3c-1.8,0-2.7-1.3-2.7-2.6
		c0-2.2,1.9-3.3,5.4-3.3v-0.2c0-0.7-0.2-2.1-2-2.1c-0.8,0-1.7,0.3-2.3,0.7l-0.4-1.1c0.7-0.5,1.8-0.8,2.9-0.8c2.7,0,3.4,1.9,3.4,3.6
		v3.3c0,0.8,0,1.5,0.1,2.1H35.6z M35.4,182.9c-1.8,0-3.8,0.3-3.8,2c0,1,0.7,1.5,1.5,1.5c1.2,0,1.9-0.7,2.2-1.5
		c0.1-0.2,0.1-0.3,0.1-0.5V182.9z"/>
	<path id="XMLID_105_" class="st11" d="M41.3,176c0,0.6-0.4,1-1,1c-0.6,0-1-0.4-1-1c0-0.6,0.4-1,1-1C41,175,41.3,175.4,41.3,176z
		 M39.5,187.4v-8.9h1.6v8.9H39.5z"/>
	<path id="XMLID_103_" class="st11" d="M43.8,180.9c0-0.9,0-1.7-0.1-2.4h1.4l0.1,1.5h0c0.4-0.8,1.5-1.7,2.9-1.7
		c1.2,0,3.1,0.7,3.1,3.8v5.3h-1.6v-5.1c0-1.4-0.5-2.6-2.1-2.6c-1.1,0-1.9,0.8-2.2,1.7c-0.1,0.2-0.1,0.5-0.1,0.8v5.4h-1.6V180.9z"/>
	<path id="XMLID_101_" class="st11" d="M55.9,176v2.6h2.3v1.2h-2.3v4.8c0,1.1,0.3,1.7,1.2,1.7c0.4,0,0.7-0.1,0.9-0.1l0.1,1.2
		c-0.3,0.1-0.8,0.2-1.4,0.2c-0.8,0-1.4-0.2-1.7-0.7c-0.5-0.5-0.6-1.3-0.6-2.3v-4.9H53v-1.2h1.4v-2.1L55.9,176z"/>
	<path id="XMLID_98_" class="st11" d="M60.9,183.3c0,2.2,1.4,3.1,3.1,3.1c1.2,0,1.9-0.2,2.5-0.5l0.3,1.2c-0.6,0.3-1.5,0.6-3,0.6
		c-2.7,0-4.4-1.8-4.4-4.5s1.6-4.8,4.2-4.8c2.9,0,3.7,2.6,3.7,4.2c0,0.3,0,0.6-0.1,0.8H60.9z M65.6,182.1c0-1-0.4-2.6-2.2-2.6
		c-1.6,0-2.4,1.5-2.5,2.6H65.6z"/>
	<path id="XMLID_96_" class="st11" d="M69.2,180.9c0-0.9,0-1.7-0.1-2.4h1.4l0.1,1.5h0c0.4-0.8,1.5-1.7,2.9-1.7
		c1.2,0,3.1,0.7,3.1,3.8v5.3h-1.6v-5.1c0-1.4-0.5-2.6-2.1-2.6c-1.1,0-1.9,0.8-2.2,1.7c-0.1,0.2-0.1,0.5-0.1,0.8v5.4h-1.6V180.9z"/>
	<path id="XMLID_93_" class="st11" d="M84.3,187.4l-0.1-1.1h-0.1c-0.5,0.7-1.5,1.3-2.7,1.3c-1.8,0-2.7-1.3-2.7-2.6
		c0-2.2,1.9-3.3,5.4-3.3v-0.2c0-0.7-0.2-2.1-2-2.1c-0.8,0-1.7,0.3-2.3,0.7l-0.4-1.1c0.7-0.5,1.8-0.8,2.9-0.8c2.7,0,3.4,1.9,3.4,3.6
		v3.3c0,0.8,0,1.5,0.1,2.1H84.3z M84.1,182.9c-1.8,0-3.8,0.3-3.8,2c0,1,0.7,1.5,1.5,1.5c1.2,0,1.9-0.7,2.2-1.5
		c0.1-0.2,0.1-0.3,0.1-0.5V182.9z"/>
	<path id="XMLID_91_" class="st11" d="M88.2,180.9c0-0.9,0-1.7-0.1-2.4h1.4l0.1,1.5h0c0.4-0.8,1.5-1.7,2.9-1.7
		c1.2,0,3.1,0.7,3.1,3.8v5.3h-1.6v-5.1c0-1.4-0.5-2.6-2.1-2.6c-1.1,0-1.9,0.8-2.2,1.7c-0.1,0.2-0.1,0.5-0.1,0.8v5.4h-1.6V180.9z"/>
	<path id="XMLID_89_" class="st11" d="M104.8,187.1c-0.4,0.2-1.4,0.5-2.6,0.5c-2.7,0-4.4-1.8-4.4-4.5c0-2.7,1.9-4.7,4.8-4.7
		c1,0,1.8,0.2,2.2,0.5l-0.4,1.3c-0.4-0.2-1-0.4-1.9-0.4c-2,0-3.1,1.5-3.1,3.4c0,2.1,1.3,3.3,3.1,3.3c0.9,0,1.5-0.2,2-0.4
		L104.8,187.1z"/>
	<path id="XMLID_86_" class="st11" d="M107.5,183.3c0,2.2,1.4,3.1,3.1,3.1c1.2,0,1.9-0.2,2.5-0.5l0.3,1.2c-0.6,0.3-1.5,0.6-3,0.6
		c-2.7,0-4.4-1.8-4.4-4.5s1.6-4.8,4.2-4.8c2.9,0,3.7,2.6,3.7,4.2c0,0.3,0,0.6-0.1,0.8H107.5z M112.2,182.1c0-1-0.4-2.6-2.2-2.6
		c-1.6,0-2.4,1.5-2.5,2.6H112.2z"/>
	<path id="XMLID_84_" class="st11" d="M121.6,176v2.6h2.3v1.2h-2.3v4.8c0,1.1,0.3,1.7,1.2,1.7c0.4,0,0.7-0.1,0.9-0.1l0.1,1.2
		c-0.3,0.1-0.8,0.2-1.4,0.2c-0.8,0-1.4-0.2-1.7-0.7c-0.5-0.5-0.6-1.3-0.6-2.3v-4.9h-1.4v-1.2h1.4v-2.1L121.6,176z"/>
	<path id="XMLID_82_" class="st11" d="M125.8,181.3c0-1,0-1.9-0.1-2.8h1.4l0.1,1.7h0.1c0.4-1.2,1.4-1.9,2.5-1.9c0.2,0,0.3,0,0.5,0.1
		v1.5c-0.2,0-0.3-0.1-0.6-0.1c-1.1,0-1.9,0.9-2.2,2.1c0,0.2-0.1,0.5-0.1,0.8v4.7h-1.6V181.3z"/>
	<path id="XMLID_79_" class="st11" d="M132.5,183.3c0,2.2,1.4,3.1,3.1,3.1c1.2,0,1.9-0.2,2.5-0.5l0.3,1.2c-0.6,0.3-1.5,0.6-3,0.6
		c-2.7,0-4.4-1.8-4.4-4.5s1.6-4.8,4.2-4.8c2.9,0,3.7,2.6,3.7,4.2c0,0.3,0,0.6-0.1,0.8H132.5z M137.3,182.1c0-1-0.4-2.6-2.2-2.6
		c-1.6,0-2.4,1.5-2.5,2.6H137.3z"/>
	<path id="XMLID_75_" class="st11" d="M145.8,187.4l-0.1-1.1h-0.1c-0.5,0.7-1.5,1.3-2.7,1.3c-1.8,0-2.7-1.3-2.7-2.6
		c0-2.2,1.9-3.3,5.4-3.3v-0.2c0-0.7-0.2-2.1-2-2.1c-0.8,0-1.7,0.3-2.3,0.7l-0.4-1.1c0.7-0.5,1.8-0.8,2.9-0.8c2.7,0,3.4,1.9,3.4,3.6
		v3.3c0,0.8,0,1.5,0.1,2.1H145.8z M145.5,182.9c-1.8,0-3.8,0.3-3.8,2c0,1,0.7,1.5,1.5,1.5c1.2,0,1.9-0.7,2.2-1.5
		c0.1-0.2,0.1-0.3,0.1-0.5V182.9z"/>
	<path id="XMLID_73_" class="st11" d="M151.6,176v2.6h2.3v1.2h-2.3v4.8c0,1.1,0.3,1.7,1.2,1.7c0.4,0,0.7-0.1,0.9-0.1l0.1,1.2
		c-0.3,0.1-0.8,0.2-1.4,0.2c-0.8,0-1.4-0.2-1.7-0.7c-0.5-0.5-0.6-1.3-0.6-2.3v-4.9h-1.4v-1.2h1.4v-2.1L151.6,176z"/>
	<path id="XMLID_71_" class="st11" d="M155.7,180.9c0-0.9,0-1.7-0.1-2.4h1.4l0.1,1.4h0.1c0.5-0.8,1.3-1.6,2.8-1.6
		c1.2,0,2.1,0.7,2.5,1.8h0c0.3-0.5,0.6-0.9,1-1.2c0.5-0.4,1.1-0.6,2-0.6c1.2,0,2.9,0.8,2.9,3.9v5.2h-1.6v-5c0-1.7-0.6-2.7-1.9-2.7
		c-0.9,0-1.6,0.7-1.9,1.5c-0.1,0.2-0.1,0.5-0.1,0.8v5.5h-1.6v-5.3c0-1.4-0.6-2.4-1.9-2.4c-1,0-1.7,0.8-2,1.6
		c-0.1,0.2-0.1,0.5-0.1,0.8v5.4h-1.6V180.9z"/>
	<path id="XMLID_68_" class="st11" d="M171.9,183.3c0,2.2,1.4,3.1,3.1,3.1c1.2,0,1.9-0.2,2.5-0.5l0.3,1.2c-0.6,0.3-1.5,0.6-3,0.6
		c-2.7,0-4.4-1.8-4.4-4.5s1.6-4.8,4.2-4.8c2.9,0,3.7,2.6,3.7,4.2c0,0.3,0,0.6-0.1,0.8H171.9z M176.7,182.1c0-1-0.4-2.6-2.2-2.6
		c-1.6,0-2.4,1.5-2.5,2.6H176.7z"/>
	<path id="XMLID_66_" class="st11" d="M180.2,180.9c0-0.9,0-1.7-0.1-2.4h1.4l0.1,1.5h0c0.4-0.8,1.5-1.7,2.9-1.7
		c1.2,0,3.1,0.7,3.1,3.8v5.3h-1.6v-5.1c0-1.4-0.5-2.6-2.1-2.6c-1.1,0-1.9,0.8-2.2,1.7c-0.1,0.2-0.1,0.5-0.1,0.8v5.4h-1.6V180.9z"/>
	<path id="XMLID_64_" class="st11" d="M192.3,176v2.6h2.3v1.2h-2.3v4.8c0,1.1,0.3,1.7,1.2,1.7c0.4,0,0.7-0.1,0.9-0.1l0.1,1.2
		c-0.3,0.1-0.8,0.2-1.4,0.2c-0.8,0-1.4-0.2-1.7-0.7c-0.5-0.5-0.6-1.3-0.6-2.3v-4.9h-1.4v-1.2h1.4v-2.1L192.3,176z"/>
</g>
<g id="XMLID_60_">
	<path id="XMLID_61_" class="st11" d="M290.5,176.8H286l-0.5,3.1c0.3,0,0.5-0.1,1-0.1c0.9,0,1.8,0.2,2.6,0.6
		c0.9,0.5,1.7,1.6,1.7,3.1c0,2.3-1.9,4.1-4.4,4.1c-1.3,0-2.4-0.4-3-0.7l0.4-1.2c0.5,0.3,1.5,0.7,2.6,0.7c1.5,0,2.8-1,2.8-2.6
		c0-1.5-1-2.6-3.4-2.6c-0.7,0-1.2,0.1-1.7,0.1l0.8-5.7h5.7V176.8z"/>
</g>
<g id="XMLID_38_">
	<path id="XMLID_58_" class="st11" d="M296.7,180.9c0-0.9,0-1.7-0.1-2.4h1.4l0.1,1.4h0.1c0.5-0.8,1.3-1.6,2.8-1.6
		c1.2,0,2.1,0.7,2.5,1.8h0c0.3-0.5,0.6-0.9,1-1.2c0.5-0.4,1.1-0.6,2-0.6c1.2,0,2.9,0.8,2.9,3.9v5.2h-1.6v-5c0-1.7-0.6-2.7-1.9-2.7
		c-0.9,0-1.6,0.7-1.9,1.5c-0.1,0.2-0.1,0.5-0.1,0.8v5.5h-1.6v-5.3c0-1.4-0.6-2.4-1.9-2.4c-1,0-1.7,0.8-2,1.6
		c-0.1,0.2-0.1,0.5-0.1,0.8v5.4h-1.6V180.9z"/>
	<path id="XMLID_55_" class="st11" d="M319.7,178.5c0,0.6-0.1,1.4-0.1,2.4v5.2c0,2-0.4,3.3-1.3,4.1c-0.9,0.8-2.1,1.1-3.2,1.1
		c-1.1,0-2.2-0.3-3-0.7l0.4-1.2c0.6,0.4,1.5,0.7,2.6,0.7c1.7,0,2.9-0.9,2.9-3.1v-1h0c-0.5,0.8-1.5,1.5-2.8,1.5
		c-2.2,0-3.8-1.9-3.8-4.3c0-3,2-4.7,4-4.7c1.5,0,2.4,0.8,2.8,1.5h0l0.1-1.3H319.7z M318,182c0-0.3,0-0.5-0.1-0.7
		c-0.3-0.9-1.1-1.7-2.3-1.7c-1.5,0-2.6,1.3-2.6,3.4c0,1.7,0.9,3.2,2.6,3.2c1,0,1.9-0.6,2.2-1.7c0.1-0.3,0.1-0.6,0.1-0.9V182z"/>
	<path id="XMLID_51_" class="st11" d="M326.2,175.2c0.7-0.1,1.8-0.3,2.9-0.3c1.6,0,2.6,0.3,3.4,0.9c0.6,0.5,1,1.2,1,2.2
		c0,1.2-0.8,2.2-2.1,2.7v0c1.2,0.3,2.6,1.3,2.6,3.1c0,1.1-0.4,1.9-1,2.5c-0.9,0.8-2.3,1.2-4.3,1.2c-1.1,0-1.9-0.1-2.5-0.1V175.2z
		 M327.8,180.3h1.5c1.7,0,2.7-0.9,2.7-2.1c0-1.5-1.1-2-2.7-2c-0.7,0-1.2,0.1-1.4,0.1V180.3z M327.8,186.2c0.3,0.1,0.8,0.1,1.3,0.1
		c1.7,0,3.2-0.6,3.2-2.4c0-1.7-1.5-2.4-3.2-2.4h-1.3V186.2z"/>
	<path id="XMLID_49_" class="st11" d="M337.8,175v12.4h-1.6V175H337.8z"/>
	<path id="XMLID_46_" class="st11" d="M340.6,175.2c1-0.1,2.1-0.3,3.4-0.3c2.3,0,3.9,0.5,5,1.5c1.1,1,1.7,2.4,1.7,4.5
		c0,2-0.6,3.7-1.8,4.8c-1.2,1.2-3.1,1.8-5.5,1.8c-1.1,0-2.1-0.1-2.9-0.1V175.2z M342.2,186.1c0.4,0.1,1,0.1,1.6,0.1
		c3.4,0,5.3-1.9,5.3-5.3c0-2.9-1.6-4.8-5-4.8c-0.8,0-1.5,0.1-1.9,0.2V186.1z"/>
	<path id="XMLID_44_" class="st11" d="M356.9,187.4v-7.7h-1.3v-1.2h1.3v-0.4c0-1.3,0.3-2.4,1-3.1c0.6-0.6,1.4-0.8,2.2-0.8
		c0.6,0,1.1,0.1,1.4,0.3l-0.2,1.3c-0.2-0.1-0.6-0.2-1-0.2c-1.4,0-1.7,1.2-1.7,2.6v0.5h2.2v1.2h-2.2v7.7H356.9z"/>
	<path id="XMLID_41_" class="st11" d="M369.9,182.9c0,3.3-2.3,4.7-4.4,4.7c-2.4,0-4.3-1.8-4.3-4.6c0-3,1.9-4.7,4.4-4.7
		C368.2,178.3,369.9,180.2,369.9,182.9z M362.8,183c0,1.9,1.1,3.4,2.7,3.4c1.5,0,2.7-1.5,2.7-3.5c0-1.5-0.8-3.4-2.7-3.4
		C363.7,179.5,362.8,181.3,362.8,183z"/>
	<path id="XMLID_39_" class="st11" d="M371.9,181.3c0-1,0-1.9-0.1-2.8h1.4l0.1,1.7h0.1c0.4-1.2,1.4-1.9,2.5-1.9c0.2,0,0.3,0,0.5,0.1
		v1.5c-0.2,0-0.3-0.1-0.6-0.1c-1.1,0-1.9,0.9-2.2,2.1c0,0.2-0.1,0.5-0.1,0.8v4.7h-1.6V181.3z"/>
</g>
<g id="XMLID_35_">
	<path id="XMLID_36_" class="st11" d="M379.7,177L379.7,177l-2.1,1.1l-0.3-1.2l2.6-1.4h1.4v12h-1.6V177z"/>
</g>
<g id="XMLID_24_">
	<path id="XMLID_33_" class="st11" d="M390.2,178.5l1.2,4.5c0.3,1,0.5,1.9,0.7,2.8h0.1c0.2-0.9,0.5-1.9,0.8-2.8l1.5-4.5h1.4l1.4,4.5
		c0.3,1.1,0.6,2,0.8,2.9h0.1c0.1-0.9,0.4-1.8,0.7-2.9l1.3-4.5h1.6l-2.9,8.9h-1.5l-1.4-4.2c-0.3-1-0.6-1.9-0.8-2.9h0
		c-0.2,1.1-0.5,2-0.8,2.9l-1.4,4.2h-1.5l-2.7-8.9H390.2z"/>
	<path id="XMLID_30_" class="st11" d="M403.8,183.3c0,2.2,1.4,3.1,3.1,3.1c1.2,0,1.9-0.2,2.5-0.5l0.3,1.2c-0.6,0.3-1.5,0.6-3,0.6
		c-2.7,0-4.4-1.8-4.4-4.5s1.6-4.8,4.2-4.8c2.9,0,3.7,2.6,3.7,4.2c0,0.3,0,0.6-0.1,0.8H403.8z M408.5,182.1c0-1-0.4-2.6-2.2-2.6
		c-1.6,0-2.4,1.5-2.5,2.6H408.5z"/>
	<path id="XMLID_27_" class="st11" d="M413,183.3c0,2.2,1.4,3.1,3.1,3.1c1.2,0,1.9-0.2,2.5-0.5l0.3,1.2c-0.6,0.3-1.5,0.6-3,0.6
		c-2.7,0-4.4-1.8-4.4-4.5s1.6-4.8,4.2-4.8c2.9,0,3.7,2.6,3.7,4.2c0,0.3,0,0.6-0.1,0.8H413z M417.7,182.1c0-1-0.4-2.6-2.2-2.6
		c-1.6,0-2.4,1.5-2.5,2.6H417.7z"/>
	<path id="XMLID_25_" class="st11" d="M422.9,182.6L422.9,182.6c0.3-0.3,0.6-0.7,0.8-1l2.6-3.1h1.9l-3.4,3.7l3.9,5.2h-2l-3.1-4.3
		l-0.8,0.9v3.3h-1.6v-13.1h1.6V182.6z"/>
</g>
<g id="XMLID_18_">
	<path id="XMLID_22_" class="st11" d="M520.2,174.1L520.2,174.1l-2.1,1.1l-0.3-1.2l2.6-1.4h1.4v12h-1.6V174.1z"/>
	<path id="XMLID_19_" class="st11" d="M534.1,178.4c0,4.1-1.5,6.3-4.2,6.3c-2.3,0-3.9-2.2-4-6.1c0-4,1.7-6.2,4.2-6.2
		C532.7,172.3,534.1,174.6,534.1,178.4z M527.6,178.6c0,3.1,1,4.9,2.4,4.9c1.7,0,2.4-1.9,2.4-5c0-2.9-0.8-4.9-2.4-4.9
		C528.6,173.6,527.6,175.3,527.6,178.6z"/>
</g>
<g id="XMLID_1_">
	<path id="XMLID_16_" class="st11" d="M538.1,178c0-0.9,0-1.7-0.1-2.4h1.4l0.1,1.4h0.1c0.5-0.8,1.3-1.6,2.8-1.6
		c1.2,0,2.1,0.7,2.5,1.8h0c0.3-0.5,0.6-0.9,1-1.2c0.5-0.4,1.1-0.6,2-0.6c1.2,0,2.9,0.8,2.9,3.9v5.2h-1.6v-5c0-1.7-0.6-2.7-1.9-2.7
		c-0.9,0-1.6,0.7-1.9,1.5c-0.1,0.2-0.1,0.5-0.1,0.8v5.5h-1.6v-5.3c0-1.4-0.6-2.4-1.9-2.4c-1,0-1.7,0.8-2,1.6
		c-0.1,0.2-0.1,0.5-0.1,0.8v5.4h-1.6V178z"/>
	<path id="XMLID_13_" class="st11" d="M561.1,175.6c0,0.6-0.1,1.4-0.1,2.4v5.2c0,2-0.4,3.3-1.3,4.1c-0.9,0.8-2.1,1.1-3.2,1.1
		c-1.1,0-2.2-0.3-3-0.7l0.4-1.2c0.6,0.4,1.5,0.7,2.6,0.7c1.7,0,2.9-0.9,2.9-3.1v-1h0c-0.5,0.8-1.5,1.5-2.8,1.5
		c-2.2,0-3.8-1.9-3.8-4.3c0-3,2-4.7,4-4.7c1.5,0,2.4,0.8,2.8,1.5h0l0.1-1.3H561.1z M559.4,179.1c0-0.3,0-0.5-0.1-0.7
		c-0.3-0.9-1.1-1.7-2.3-1.7c-1.5,0-2.6,1.3-2.6,3.4c0,1.7,0.9,3.2,2.6,3.2c1,0,1.9-0.6,2.2-1.7c0.1-0.3,0.1-0.6,0.1-0.9V179.1z"/>
	<path id="XMLID_9_" class="st11" d="M567.6,172.3c0.7-0.1,1.8-0.3,2.9-0.3c1.6,0,2.6,0.3,3.4,0.9c0.6,0.5,1,1.2,1,2.2
		c0,1.2-0.8,2.2-2.1,2.7v0c1.2,0.3,2.6,1.3,2.6,3.1c0,1.1-0.4,1.9-1,2.5c-0.9,0.8-2.3,1.2-4.3,1.2c-1.1,0-1.9-0.1-2.5-0.1V172.3z
		 M569.2,177.3h1.5c1.7,0,2.7-0.9,2.7-2.1c0-1.5-1.1-2-2.7-2c-0.7,0-1.2,0.1-1.4,0.1V177.3z M569.2,183.3c0.3,0.1,0.8,0.1,1.3,0.1
		c1.7,0,3.2-0.6,3.2-2.4c0-1.7-1.5-2.4-3.2-2.4h-1.3V183.3z"/>
	<path id="XMLID_7_" class="st11" d="M579.2,172.1v12.4h-1.6v-12.4H579.2z"/>
	<path id="XMLID_4_" class="st11" d="M582,172.3c1-0.1,2.1-0.3,3.4-0.3c2.3,0,3.9,0.5,5,1.5c1.1,1,1.7,2.4,1.7,4.5
		c0,2-0.6,3.7-1.8,4.8c-1.2,1.2-3.1,1.8-5.5,1.8c-1.1,0-2.1-0.1-2.9-0.1V172.3z M583.6,183.2c0.4,0.1,1,0.1,1.6,0.1
		c3.4,0,5.3-1.9,5.3-5.3c0-2.9-1.6-4.8-5-4.8c-0.8,0-1.5,0.1-1.9,0.2V183.2z"/>
	<path id="XMLID_2_" class="st11" d="M598.9,172.5l-1.7,2.3v0l2.8-0.4v1.3l-2.8-0.3v0l1.8,2.2l-1.2,0.7l-1.1-2.6h0l-1.2,2.6l-1-0.7
		l1.7-2.2v0l-2.7,0.3v-1.3l2.7,0.3v0l-1.7-2.2l1.1-0.6l1.1,2.6h0l1.1-2.6L598.9,172.5z"/>
</g>
</svg>
