<!-- Generator: Adobe Illustrator 22.1.0, SVG Export Plug-In  -->
<svg version="1.1"
	 xmlns="http://www.w3.org/2000/svg" xmlns:xlink="http://www.w3.org/1999/xlink" xmlns:a="http://ns.adobe.com/AdobeSVGViewerExtensions/3.0/"
	 x="0px" y="0px" width="316.1px" height="324px" viewBox="0 0 316.1 324" style="enable-background:new 0 0 316.1 324;"
	 xml:space="preserve">
<style type="text/css">
	.st0{fill:url(#XMLID_460_);}
	.st1{fill:#E42E48;}
	.st2{fill:#EE4770;}
	.st3{fill:#FFFFFF;}
	.st4{fill:#2263AE;}
	.st5{fill:#2671B8;}
	.st6{fill:#42BB9F;}
	.st7{fill:#5BC0A2;}
	.st8{fill:#28A8E0;}
	.st9{fill:#33B2DE;}
	.st10{fill:#5E5F5E;}
	.st11{fill:none;stroke:#FFFFFF;stroke-width:0.7851;stroke-miterlimit:10;}
	.st12{fill:url(#XMLID_496_);}
</style>
<defs>
</defs>
<g id="XMLID_1_">
	<radialGradient id="XMLID_460_" cx="162.0003" cy="163.2141" r="125.7601" gradientUnits="userSpaceOnUse">
		<stop  offset="0" style="stop-color:#9B519F"/>
		<stop  offset="0.8349" style="stop-color:#693E97"/>
	</radialGradient>
	<circle id="XMLID_459_" class="st0" cx="162" cy="163.2" r="125.8"/>
	<g id="XMLID_450_">
		<path id="XMLID_458_" class="st1" d="M76.4,58.6c8.8,2.8,18.2-2,21-10.7L65.6,37.6C62.8,46.4,67.6,55.8,76.4,58.6z"/>
		<path id="XMLID_457_" class="st2" d="M86.6,26.9c-8.8-2.8-18.2,2-21,10.7l31.7,10.3C100.2,39.1,95.4,29.7,86.6,26.9z"/>
		<g id="XMLID_456_">
			<g>
				<path class="st1" d="M87.3,24.6c-11.5-3.3-23.7,4.1-24.8,16.4c-1.2,13.6,11.6,23,24.3,20c0.7-0.2,0.4-1.2-0.3-1.1
					c-12,2.9-24.1-6.2-22.9-19C64.7,29.5,76.2,22.6,87,25.7C87.7,25.9,88,24.8,87.3,24.6L87.3,24.6z"/>
			</g>
		</g>
		<g id="XMLID_452_">
			<path id="XMLID_453_" class="st3" d="M76.7,57.6c-8.2-2.6-12.7-11.4-10-19.6c2.6-8.2,11.4-12.6,19.6-10
				c8.2,2.6,12.6,11.4,10,19.6C93.6,55.7,84.9,60.2,76.7,57.6z M77.1,56.3c7.5,2.4,15.5-1.7,17.9-9.2c2.4-7.5-1.7-15.5-9.2-17.9
				c-7.5-2.4-15.5,1.7-17.9,9.2C65.5,45.8,69.6,53.9,77.1,56.3z"/>
		</g>
		<path id="XMLID_451_" class="st1" d="M87.7,59.1c0.8,0.2,1.2,1.1,0.9,1.8c-0.2,0.8-1.1,1.2-1.8,0.9c-0.8-0.2-1.2-1.1-0.9-1.8
			C86.1,59.2,87,58.8,87.7,59.1z"/>
	</g>
	<g id="XMLID_440_">
		<path id="XMLID_449_" class="st1" d="M48.2,89.2c9.1,1.5,17.7-4.6,19.2-13.7L34.5,70C33,79.1,39.1,87.7,48.2,89.2z"/>
		<path id="XMLID_448_" class="st2" d="M53.8,56.4c-9.1-1.5-17.7,4.6-19.2,13.7l32.9,5.6C68.9,66.5,62.8,57.9,53.8,56.4z"/>
		<g id="XMLID_447_">
			<g>
				<path class="st1" d="M54.1,54c-12.3-1.6-23.6,8.4-22,21.1C33.6,88,47.1,94.9,58.8,90.2c0.6-0.3,0.4-1.3-0.3-1.1
					C47.1,93.8,33.7,86.6,33,73.8c-0.6-11.7,9.8-20.2,21-18.7C54.8,55.2,54.8,54.1,54.1,54L54.1,54z"/>
			</g>
		</g>
		<g id="XMLID_442_">
			<path id="XMLID_443_" class="st3" d="M48.4,88.1c-8.5-1.4-14.2-9.5-12.7-17.9c1.4-8.5,9.5-14.2,17.9-12.7
				C62,58.9,67.7,67,66.3,75.4C64.9,83.9,56.8,89.6,48.4,88.1z M48.6,86.8c7.7,1.3,15.1-3.9,16.4-11.7c1.3-7.7-3.9-15.1-11.7-16.4
				c-7.7-1.3-15.1,3.9-16.4,11.7C35.6,78.2,40.9,85.5,48.6,86.8z"/>
		</g>
		<path id="XMLID_441_" class="st1" d="M59.5,88c0.8,0.1,1.3,0.9,1.2,1.7c-0.1,0.8-0.9,1.3-1.7,1.2c-0.8-0.1-1.3-0.9-1.2-1.7
			C58,88.4,58.7,87.9,59.5,88z"/>
	</g>
	<g id="XMLID_421_">
		<path id="XMLID_439_" class="st1" d="M31.7,198.3c6.2-6.8,5.8-17.3-1-23.6L8.2,199.3C14.9,205.5,25.5,205.1,31.7,198.3z"/>
		<path id="XMLID_438_" class="st2" d="M7.2,175.7c-6.2,6.8-5.8,17.3,1,23.6l22.6-24.5C24,168.5,13.4,169,7.2,175.7z"/>
		<g id="XMLID_437_">
			<g>
				<path class="st1" d="M5.5,174.1c-8,9.4-6.1,24,5.3,29.9c11.7,6,25.1-1.5,27.6-14c0.1-0.7-0.9-1-1.1-0.3
					c-2.3,11.8-14.9,19-26,13.3c-10.7-5.5-12.6-19.3-5-28.1C6.7,174.3,5.9,173.6,5.5,174.1L5.5,174.1z"/>
			</g>
		</g>
		<g id="XMLID_423_">
			<path id="XMLID_424_" class="st3" d="M30.9,197.6c-5.8,6.3-15.7,6.7-22,0.9c-6.3-5.8-6.7-15.7-0.9-22c5.8-6.3,15.7-6.7,22-0.9
				C36.3,181.4,36.7,191.3,30.9,197.6z M29.9,196.7c5.3-5.8,4.9-14.8-0.8-20.1c-5.8-5.3-14.8-5-20.1,0.8c-5.3,5.8-4.9,14.8,0.8,20.1
				C15.6,202.8,24.6,202.4,29.9,196.7z"/>
		</g>
		<path id="XMLID_422_" class="st1" d="M36.9,188.2c0.5-0.6,1.5-0.6,2.1-0.1c0.6,0.5,0.6,1.5,0.1,2.1c-0.5,0.6-1.5,0.6-2.1,0.1
			C36.4,189.7,36.3,188.8,36.9,188.2z"/>
	</g>
	<g id="XMLID_384_">
		<path id="XMLID_419_" class="st4" d="M41.3,253.8c-4.2,8.1-1.1,18.2,7,22.4l15.4-29.6C55.5,242.5,45.5,245.7,41.3,253.8z"/>
		<path id="XMLID_418_" class="st5" d="M70.9,269.2c4.2-8.2,1.1-18.2-7.1-22.5c0,0-0.1,0-0.1,0l-15.4,29.6c0,0,0.1,0,0.1,0.1
			C56.6,280.6,66.7,277.4,70.9,269.2z"/>
		<g id="XMLID_406_">
			<g id="XMLID_409_">
				<g>
					<path class="st4" d="M64.9,244.6c-14.7-7-32.2,6.3-27,22.6c5.2,16.2,27,17.3,35.1,3.1c0.3-0.6-0.6-1.2-0.9-0.6
						c-7.6,13.4-28.2,12.6-33.1-2.8c-4.9-15.3,11.4-28,25.4-21.4C65,245.9,65.5,244.9,64.9,244.6L64.9,244.6z"/>
				</g>
			</g>
			<path id="XMLID_407_" class="st4" d="M66.1,245.7c-0.4,0.7-1.3,1-2,0.6c-0.7-0.4-1-1.3-0.6-2c0.4-0.7,1.3-1,2-0.6
				C66.2,244.1,66.5,245,66.1,245.7z"/>
		</g>
		<g id="XMLID_385_">
			<path id="XMLID_386_" class="st3" d="M69.9,268.7c-3.9,7.6-13.4,10.6-21,6.6c-7.6-3.9-10.6-13.4-6.6-21c3.9-7.6,13.4-10.6,21-6.6
				C70.9,251.7,73.9,261.1,69.9,268.7z M68.7,268.1c3.6-7,0.9-15.6-6.1-19.2c-7-3.6-15.6-0.9-19.2,6.1c-3.6,7-0.9,15.6,6.1,19.2
				C56.5,277.8,65.1,275,68.7,268.1z"/>
		</g>
	</g>
	<g id="XMLID_374_">
		<path id="XMLID_383_" class="st4" d="M73.7,285c-2.2,8.9,3.2,17.9,12.1,20.2l8-32.4C84.9,270.7,75.9,276.1,73.7,285z"/>
		<path id="XMLID_382_" class="st5" d="M106.1,293c2.2-8.9-3.2-18-12.2-20.2c0,0-0.1,0-0.1,0l-8,32.4c0,0,0.1,0,0.1,0
			C94.8,307.4,103.8,302,106.1,293z"/>
		<g id="XMLID_379_">
			<g id="XMLID_381_">
				<g>
					<path class="st4" d="M94.5,270.5c-16-3.4-29.8,13.7-20.9,28.3c8.8,14.6,30.3,10.5,34.8-5.2c0.2-0.7-0.9-1-1.1-0.3
						c-4.3,14.9-24.4,18.7-32.8,5c-8.5-13.8,4.7-29.8,19.7-26.7C94.9,271.7,95.2,270.7,94.5,270.5L94.5,270.5z"/>
				</g>
			</g>
			<path id="XMLID_380_" class="st4" d="M95.9,271.3c-0.2,0.8-1,1.3-1.8,1.1c-0.8-0.2-1.3-1-1.1-1.8c0.2-0.8,1-1.3,1.8-1.1
				C95.7,269.7,96.1,270.5,95.9,271.3z"/>
		</g>
		<g id="XMLID_375_">
			<path id="XMLID_376_" class="st3" d="M105,292.8c-2.1,8.3-10.5,13.4-18.8,11.3c-8.3-2.1-13.4-10.5-11.3-18.8
				c2.1-8.3,10.5-13.4,18.8-11.3C101.9,276,107,284.4,105,292.8z M103.7,292.4c1.9-7.6-2.8-15.3-10.4-17.2
				c-7.6-1.9-15.4,2.8-17.2,10.4c-1.9,7.6,2.8,15.4,10.4,17.2C94.1,304.7,101.8,300.1,103.7,292.4z"/>
		</g>
	</g>
	<g id="XMLID_364_">
		<path id="XMLID_373_" class="st4" d="M113.3,305c0,9.2,7.4,16.6,16.6,16.7v-33.3C120.7,288.3,113.3,295.8,113.3,305z"/>
		<path id="XMLID_372_" class="st5" d="M146.6,305c0-9.2-7.5-16.7-16.7-16.7c0,0-0.1,0-0.1,0v33.3c0,0,0.1,0,0.1,0
			C139.1,321.6,146.6,314.2,146.6,305z"/>
		<g id="XMLID_369_">
			<g id="XMLID_371_">
				<g>
					<path class="st4" d="M129.9,285.9c-16.3,0.6-25.6,20.5-13.5,32.5c12.1,12.1,31.9,2.9,32.5-13.5c0-0.7-1.1-0.7-1.1,0
						c-0.6,15.5-19.2,24-30.7,12.7c-11.5-11.3-2.6-30.1,12.7-30.7C130.6,287,130.6,285.9,129.9,285.9L129.9,285.9z"/>
				</g>
			</g>
			<path id="XMLID_370_" class="st4" d="M131.5,286.3c0,0.8-0.7,1.5-1.5,1.5c-0.8,0-1.5-0.7-1.5-1.5c0-0.8,0.7-1.5,1.5-1.5
				C130.9,284.8,131.5,285.5,131.5,286.3z"/>
		</g>
		<g id="XMLID_365_">
			<path id="XMLID_366_" class="st3" d="M145.5,305c0,8.6-7,15.5-15.5,15.5c-8.6,0-15.5-7-15.5-15.5c0-8.6,7-15.5,15.5-15.5
				C138.5,289.4,145.5,296.4,145.5,305z M144.2,305c0-7.8-6.4-14.2-14.2-14.2c-7.8,0-14.2,6.4-14.2,14.2c0,7.8,6.4,14.2,14.2,14.2
				C137.8,319.2,144.2,312.8,144.2,305z"/>
		</g>
	</g>
	<g id="XMLID_354_">
		<path id="XMLID_363_" class="st6" d="M281.9,115.5c0.2,8.8,7.6,15.8,16.4,15.5l-0.9-32C288.6,99.3,281.7,106.7,281.9,115.5z"/>
		<path id="XMLID_362_" class="st7" d="M313.9,114.6c-0.2-8.8-7.6-15.8-16.4-15.5l0.9,32C307.1,130.8,314.1,123.5,313.9,114.6z"/>
		<g id="XMLID_358_">
			<path id="XMLID_359_" class="st3" d="M283,115.5c-0.2-8.2,6.3-15.1,14.5-15.3c8.2-0.2,15.1,6.3,15.3,14.5
				c0.2,8.2-6.3,15.1-14.5,15.3C290.1,130.2,283.2,123.7,283,115.5z M284.2,115.5c0.2,7.5,6.5,13.5,14,13.3
				c7.5-0.2,13.5-6.5,13.3-14c-0.2-7.5-6.5-13.5-14-13.3C290,101.6,284,107.9,284.2,115.5z"/>
		</g>
		<g id="XMLID_355_">
			<g id="XMLID_357_">
				<g>
					<path class="st6" d="M298.4,133.3c15.7-1,23.9-20.2,12.1-31.5c-11.9-11.3-30.7-1.9-30.8,13.7c0,0.7,1,0.7,1.1,0
						c0.2-14.7,17.8-23.7,29-13c11.1,10.6,3.5,28.7-11.3,29.7C297.7,132.3,297.7,133.4,298.4,133.3L298.4,133.3z"/>
				</g>
			</g>
			<path id="XMLID_356_" class="st6" d="M281.4,115.6c0,0.8-0.6,1.4-1.4,1.4c-0.8,0-1.4-0.6-1.4-1.4c0-0.8,0.6-1.4,1.4-1.4
				C280.8,114.3,281.4,114.9,281.4,115.6z"/>
		</g>
	</g>
	<g id="XMLID_344_">
		<path id="XMLID_353_" class="st6" d="M262.4,82.4c2.7,8.4,11.7,13,20.1,10.3l-9.8-30.4C264.3,65,259.7,74,262.4,82.4z"/>
		<path id="XMLID_352_" class="st7" d="M292.8,72.6c-2.7-8.4-11.7-13-20.1-10.3l9.8,30.4C290.9,90,295.5,81,292.8,72.6z"/>
		<g id="XMLID_348_">
			<path id="XMLID_349_" class="st3" d="M263.4,82.1c-2.5-7.8,1.8-16.2,9.6-18.8c7.8-2.5,16.2,1.8,18.8,9.6
				c2.5,7.8-1.8,16.2-9.6,18.8C274.4,94.2,266,89.9,263.4,82.1z M264.6,81.7c2.3,7.2,10,11.1,17.2,8.8c7.2-2.3,11.1-10,8.8-17.2
				c-2.3-7.2-10-11.1-17.2-8.8C266.3,66.8,262.3,74.5,264.6,81.7z"/>
		</g>
		<g id="XMLID_345_">
			<g id="XMLID_347_">
				<g>
					<path class="st6" d="M283.2,94.9c14.7-5.4,17.3-26.1,2.7-33.6c-14.6-7.5-30,6.8-25.7,21.9c0.2,0.7,1.2,0.4,1-0.3
						c-4-14.1,10.4-27.8,24.2-20.7c13.7,7.1,11.5,26.6-2.5,31.7C282.3,94.1,282.6,95.1,283.2,94.9L283.2,94.9z"/>
				</g>
			</g>
			<path id="XMLID_346_" class="st6" d="M262,82.7c0.2,0.7-0.2,1.5-0.9,1.8c-0.7,0.2-1.5-0.2-1.8-0.9c-0.2-0.7,0.2-1.5,0.9-1.8
				C261,81.5,261.7,81.9,262,82.7z"/>
		</g>
	</g>
	<g id="XMLID_334_">
		<path id="XMLID_343_" class="st6" d="M237.9,60.2c7.1,5.3,17.1,3.9,22.4-3.1l-25.5-19.3C229.5,44.9,230.9,54.9,237.9,60.2z"/>
		<path id="XMLID_342_" class="st7" d="M257.2,34.7c-7.1-5.3-17.1-3.9-22.4,3.1l25.5,19.3C265.6,50.1,264.2,40,257.2,34.7z"/>
		<g id="XMLID_338_">
			<path id="XMLID_339_" class="st3" d="M238.6,59.4c-6.6-5-7.9-14.3-2.9-20.9c5-6.6,14.3-7.9,20.9-2.9c6.6,5,7.9,14.3,2.9,20.9
				C254.5,63,245.1,64.3,238.6,59.4z M239.3,58.4c6,4.5,14.6,3.3,19.1-2.7c4.5-6,3.3-14.6-2.7-19.1c-6-4.5-14.6-3.3-19.1,2.7
				C232.1,45.3,233.3,53.8,239.3,58.4z"/>
		</g>
		<g id="XMLID_335_">
			<g id="XMLID_337_">
				<g>
					<path class="st6" d="M262.2,58.4c8.8-12.7-0.6-30.8-16.6-29.1c-16.5,1.7-21.4,22.6-9.1,32.7c0.5,0.4,1.3-0.3,0.7-0.7
						c-11.2-9.2-7.7-28.1,7.4-30.8c15.6-2.7,25.3,15.1,16.7,27.4C260.9,58.5,261.8,59,262.2,58.4L262.2,58.4z"/>
				</g>
			</g>
			<path id="XMLID_336_" class="st6" d="M237.7,60.7c0.6,0.5,0.7,1.3,0.3,2c-0.5,0.6-1.3,0.7-2,0.3c-0.6-0.5-0.7-1.3-0.3-2
				C236.2,60.3,237.1,60.2,237.7,60.7z"/>
		</g>
	</g>
	<g id="XMLID_324_">
		<path id="XMLID_333_" class="st6" d="M203,40.9c7.6,4.5,17.4,1.9,21.9-5.7L197.3,19C192.8,26.6,195.4,36.4,203,40.9z"/>
		<path id="XMLID_332_" class="st7" d="M219.2,13.3c-7.6-4.5-17.4-1.9-21.9,5.7l27.6,16.2C229.3,27.6,226.8,17.8,219.2,13.3z"/>
		<g id="XMLID_328_">
			<path id="XMLID_329_" class="st3" d="M203.5,39.9c-7.1-4.2-9.5-13.3-5.3-20.4c4.2-7.1,13.3-9.5,20.4-5.3
				c7.1,4.2,9.5,13.3,5.3,20.4C219.8,41.7,210.6,44.1,203.5,39.9z M204.2,38.9c6.5,3.8,14.9,1.6,18.7-4.8c3.8-6.5,1.6-14.9-4.8-18.7
				c-6.5-3.8-14.9-1.6-18.7,4.8C195.5,26.7,197.7,35,204.2,38.9z"/>
		</g>
		<g id="XMLID_325_">
			<g id="XMLID_327_">
				<g>
					<path class="st6" d="M226.8,36.3c7.4-13.8-4.5-31.1-20.3-26.9c-15.9,4.1-17.9,25-4.7,33.4c0.6,0.4,1.1-0.5,0.5-0.9
						c-12.5-8-10.5-27.6,4.4-31.5c14.9-3.9,26.2,12.4,19.2,25.4C225.6,36.4,226.5,36.9,226.8,36.3L226.8,36.3z"/>
				</g>
			</g>
			<path id="XMLID_326_" class="st6" d="M202.8,41.3c0.7,0.4,0.9,1.3,0.5,1.9c-0.4,0.7-1.3,0.9-1.9,0.5c-0.7-0.4-0.9-1.3-0.5-1.9
				C201.3,41.2,202.2,40.9,202.8,41.3z"/>
		</g>
	</g>
	<g id="XMLID_314_">
		<path id="XMLID_323_" class="st6" d="M167.8,34.2c8.8,0.1,16.1-7,16.1-15.8l-32-0.3C151.9,26.9,159,34.1,167.8,34.2z"/>
		<path id="XMLID_322_" class="st7" d="M168.1,2.2c-8.8-0.1-16.1,7-16.1,15.8l32,0.3C184,9.5,176.9,2.3,168.1,2.2z"/>
		<g id="XMLID_318_">
			<path id="XMLID_319_" class="st3" d="M167.8,33.1c-8.2-0.1-14.8-6.8-14.8-15c0.1-8.2,6.8-14.8,15-14.8c8.2,0.1,14.8,6.8,14.8,15
				C182.8,26.6,176,33.2,167.8,33.1z M167.8,31.9c7.5,0.1,13.7-6,13.8-13.5c0.1-7.5-6-13.7-13.5-13.8c-7.5-0.1-13.7,6-13.8,13.5
				C154.2,25.6,160.3,31.8,167.8,31.9z"/>
		</g>
		<g id="XMLID_315_">
			<g id="XMLID_317_">
				<g>
					<path class="st6" d="M186.2,18.4c-0.5-15.7-19.4-24.7-31.1-13.2c-11.7,11.5-3,30.6,12.6,31.3c0.7,0,0.7-1,0-1.1
						c-14.8-0.7-22.9-18.7-11.9-29.5c11-10.8,28.8-2.3,29.3,12.4C185.2,19.1,186.2,19.1,186.2,18.4L186.2,18.4z"/>
				</g>
			</g>
			<path id="XMLID_316_" class="st6" d="M167.9,34.7c0.8,0,1.4,0.6,1.4,1.4c0,0.8-0.6,1.4-1.4,1.4c-0.8,0-1.4-0.6-1.4-1.4
				C166.5,35.3,167.1,34.7,167.9,34.7z"/>
		</g>
	</g>
	<g id="XMLID_302_">
		<path id="XMLID_313_" class="st8" d="M194,307.7c4.2,7.8,13.9,10.8,21.7,6.6c7.8-4.2,10.8-13.9,6.6-21.7c0-0.1-0.1-0.1-0.1-0.2
			l-28.3,15.1C193.9,307.6,193.9,307.7,194,307.7z"/>
		<path id="XMLID_312_" class="st9" d="M200.6,286c-7.7,4.1-10.7,13.7-6.7,21.5l28.3-15.1C217.9,284.8,208.3,281.9,200.6,286z"/>
		<g id="XMLID_309_">
			<g id="XMLID_311_">
				<g>
					<path class="st8" d="M199.5,284c-13.6,7.9-12.4,28.9,3.3,33.7c15.8,4.8,28.4-12,21.5-26.2c-0.3-0.6-1.2-0.1-0.9,0.5
						c6.5,13.4-5.5,29.1-20.3,24.6c-14.8-4.5-15.9-24.3-3.1-31.8C200.6,284.6,200.1,283.7,199.5,284L199.5,284z"/>
				</g>
			</g>
			<path id="XMLID_310_" class="st8" d="M199.3,283.2c0.7-0.4,1.5-0.1,1.9,0.6c0.4,0.7,0.1,1.5-0.6,1.9c-0.7,0.4-1.5,0.1-1.9-0.6
				C198.3,284.4,198.6,283.5,199.3,283.2z"/>
		</g>
		<path id="XMLID_308_" class="st10" d="M201.3,287.4c-0.1,0-0.1,0.1-0.1,0.3c0.1-0.1,0.2-0.2,0.2-0.3
			C201.4,287.3,201.4,287.3,201.3,287.4z"/>
		<g id="XMLID_304_">
			<path id="XMLID_305_" class="st3" d="M221.3,293.2c3.9,7.3,1.1,16.4-6.2,20.2c-7.3,3.9-16.4,1.1-20.2-6.2
				c-3.9-7.3-1.1-16.4,6.2-20.2C208.4,283.1,217.5,285.9,221.3,293.2z M196,306.6c3.5,6.7,11.9,9.2,18.5,5.6
				c6.7-3.6,9.2-11.9,5.6-18.5c-3.5-6.7-11.9-9.2-18.5-5.6C195,291.7,192.5,300,196,306.6z"/>
		</g>
		<path id="XMLID_303_" class="st10" d="M210.5,304.6c0,0,0.1-0.1,0.1-0.1c-0.1,0-0.2,0-0.3,0.1
			C210.4,304.6,210.5,304.7,210.5,304.6z"/>
	</g>
	<g id="XMLID_290_">
		<path id="XMLID_301_" class="st8" d="M231,293.9c6.1,6.4,16.3,6.6,22.7,0.5c6.4-6.1,6.6-16.3,0.5-22.7c-0.1-0.1-0.1-0.1-0.2-0.2
			l-23.2,22.2C230.9,293.7,230.9,293.8,231,293.9z"/>
		<path id="XMLID_300_" class="st9" d="M231.5,271.2c-6.3,6.1-6.6,16.1-0.7,22.5l23.2-22.2C247.9,265.3,237.9,265.1,231.5,271.2z"/>
		<g id="XMLID_297_">
			<g id="XMLID_299_">
				<g>
					<path class="st8" d="M229.9,269.5c-10.9,11.3-4.2,31.2,12.3,31.6c16.5,0.4,24-19.2,13.6-31c-0.5-0.5-1.2,0.2-0.7,0.7
						c9.9,11.2,2.5,29.4-12.9,29.2c-15.6-0.2-21.7-19.2-11.5-29.8C231.1,269.8,230.4,269,229.9,269.5L229.9,269.5z"/>
				</g>
			</g>
			<path id="XMLID_298_" class="st8" d="M229.4,268.8c0.6-0.5,1.5-0.5,2,0c0.5,0.6,0.5,1.5,0,2c-0.6,0.5-1.5,0.5-2,0
				C228.9,270.2,228.9,269.3,229.4,268.8z"/>
		</g>
		<path id="XMLID_296_" class="st10" d="M232.6,272.2c-0.1,0-0.1,0.1,0,0.3c0-0.1,0.1-0.2,0.2-0.3
			C232.7,272.2,232.6,272.2,232.6,272.2z"/>
		<g id="XMLID_292_">
			<path id="XMLID_293_" class="st3" d="M253.4,272.4c5.7,6,5.5,15.4-0.5,21.1c-6,5.7-15.4,5.5-21.1-0.5c-5.7-6-5.5-15.4,0.5-21.1
				C238.2,266.3,247.7,266.5,253.4,272.4z M232.7,292.2c5.2,5.5,13.9,5.7,19.4,0.4c5.5-5.2,5.7-13.9,0.4-19.4
				c-5.2-5.5-13.9-5.7-19.4-0.4C227.7,278.1,227.5,286.8,232.7,292.2z"/>
		</g>
		<path id="XMLID_291_" class="st10" d="M246.1,286.4c0,0,0-0.1,0-0.1c-0.1,0-0.2,0.1-0.3,0.1C246,286.4,246.1,286.4,246.1,286.4z"
			/>
	</g>
	<g id="XMLID_278_">
		<path id="XMLID_289_" class="st8" d="M265.3,269.7c7.8,4.2,17.5,1.3,21.7-6.5c4.2-7.8,1.3-17.5-6.5-21.7c-0.1,0-0.1-0.1-0.2-0.1
			l-15.2,28.2C265.1,269.6,265.2,269.6,265.3,269.7z"/>
		<path id="XMLID_288_" class="st9" d="M258.8,247.9c-4.2,7.7-1.4,17.3,6.3,21.6l15.2-28.2C272.6,237.3,263,240.2,258.8,247.9z"/>
		<g id="XMLID_285_">
			<g id="XMLID_287_">
				<g>
					<path class="st8" d="M256.8,246.8c-7,14.1,5.6,31,21.4,26.3c15.8-4.7,17-25.7,3.5-33.7c-0.6-0.3-1.1,0.6-0.5,0.9
						c12.7,7.5,11.7,27.4-3.2,31.7c-14.8,4.3-26.7-11.3-20.2-24.7C258,246.8,257.1,246.2,256.8,246.8L256.8,246.8z"/>
				</g>
			</g>
			<path id="XMLID_286_" class="st8" d="M256.1,246.3c0.4-0.7,1.2-0.9,1.9-0.6c0.7,0.4,0.9,1.2,0.6,1.9c-0.4,0.7-1.2,0.9-1.9,0.6
				C256,247.8,255.7,247,256.1,246.3z"/>
		</g>
		<path id="XMLID_284_" class="st10" d="M260.1,248.6c0,0.1,0,0.2,0.1,0.3c0-0.1,0-0.2,0.1-0.3C260.2,248.6,260.2,248.6,260.1,248.6
			z"/>
		<g id="XMLID_280_">
			<path id="XMLID_281_" class="st3" d="M280,242.4c7.3,3.9,10,13,6.1,20.3c-3.9,7.3-13,10-20.3,6.1c-7.3-3.9-10-13-6.1-20.3
				C263.7,241.2,272.8,238.5,280,242.4z M266.4,267.6c6.6,3.6,15,1.1,18.6-5.5c3.6-6.6,1.1-15-5.5-18.6c-6.6-3.6-15-1.1-18.6,5.5
				C257.3,255.7,259.8,264,266.4,267.6z"/>
		</g>
		<path id="XMLID_279_" class="st10" d="M277.4,257.9c0,0,0-0.1,0-0.1c-0.1,0.1-0.2,0.2-0.3,0.2C277.2,258,277.3,258,277.4,257.9z"
			/>
	</g>
	<g id="XMLID_266_">
		<path id="XMLID_277_" class="st8" d="M284.3,235.9c7.5,4.7,17.4,2.5,22.1-5c4.7-7.5,2.5-17.4-5-22.1c-0.1,0-0.1-0.1-0.2-0.1
			l-17.1,27.1C284.2,235.8,284.2,235.9,284.3,235.9z"/>
		<path id="XMLID_276_" class="st9" d="M279.3,213.8c-4.7,7.4-2.5,17.2,4.8,22l17.2-27.1C293.8,204.1,284,206.4,279.3,213.8z"/>
		<g id="XMLID_273_">
			<g id="XMLID_275_">
				<g>
					<path class="st8" d="M277.4,212.6c-7.9,13.6,3.5,31.3,19.5,27.7c16.1-3.6,18.7-24.5,5.7-33.4c-0.6-0.4-1.1,0.5-0.5,0.9
						c12.2,8.4,9.6,28.1-5.5,31.4c-15.1,3.4-25.8-13.3-18.4-26.1C278.6,212.5,277.7,212,277.4,212.6L277.4,212.6z"/>
				</g>
			</g>
			<path id="XMLID_274_" class="st8" d="M276.7,212c0.4-0.7,1.3-0.9,1.9-0.4c0.7,0.4,0.9,1.3,0.4,1.9c-0.4,0.7-1.3,0.9-1.9,0.4
				C276.5,213.5,276.3,212.6,276.7,212z"/>
		</g>
		<path id="XMLID_272_" class="st10" d="M280.6,214.6c0,0.1,0,0.2,0,0.3c0-0.1,0.1-0.2,0.1-0.3C280.7,214.5,280.6,214.5,280.6,214.6
			z"/>
		<g id="XMLID_268_">
			<path id="XMLID_269_" class="st3" d="M300.9,209.7c7,4.4,9.1,13.7,4.6,20.6c-4.4,7-13.7,9-20.6,4.6c-7-4.4-9-13.7-4.6-20.6
				C284.6,207.4,293.9,205.3,300.9,209.7z M285.6,234c6.4,4,14.9,2.1,18.9-4.2c4-6.4,2.1-14.9-4.2-18.9c-6.4-4-14.9-2.1-18.9,4.2
				C277.3,221.4,279.2,229.9,285.6,234z"/>
		</g>
		<path id="XMLID_267_" class="st10" d="M297.2,225c0,0,0-0.1,0-0.1c-0.1,0.1-0.2,0.1-0.3,0.2C297,225.1,297.1,225.1,297.2,225z"/>
	</g>
	<g id="XMLID_257_">
		<path id="XMLID_265_" class="st1" d="M32.4,122.7c9.1-2.7,14.4-12.3,11.7-21.4L10.9,111C13.6,120.1,23.2,125.3,32.4,122.7z"/>
		<path id="XMLID_264_" class="st2" d="M22.6,89.5c-9.1,2.7-14.4,12.3-11.7,21.4l33.1-9.8C41.4,92.1,31.8,86.8,22.6,89.5z"/>
		<g id="XMLID_263_">
			<g>
				<path class="st1" d="M21.9,87.2c-12.1,4-18.2,18.3-11.1,29.5c7.2,11.3,23.1,11.8,31.8,2c0.5-0.5-0.3-1.4-0.8-0.8
					c-8.1,9.2-23.3,9-30-1.8c-6.6-10.6-1.1-24,10.4-27.8C22.9,88,22.6,86.9,21.9,87.2L21.9,87.2z"/>
			</g>
		</g>
		<g id="XMLID_259_">
			<path id="XMLID_260_" class="st3" d="M32,121.5c-8.5,2.5-17.5-2.4-20-10.9c-2.5-8.5,2.4-17.5,10.9-20c8.5-2.5,17.5,2.4,20,10.9
				C45.4,110.1,40.6,119,32,121.5z M31.7,120.2c7.8-2.3,12.3-10.5,10-18.3c-2.3-7.8-10.5-12.3-18.3-10c-7.8,2.3-12.3,10.5-10,18.3
				C15.7,118,23.9,122.5,31.7,120.2z"/>
		</g>
		<path id="XMLID_258_" class="st1" d="M42.3,116.4c0.8-0.2,1.6,0.2,1.9,1c0.2,0.8-0.2,1.6-1,1.9c-0.8,0.2-1.6-0.2-1.9-1
			C41.1,117.5,41.5,116.6,42.3,116.4z"/>
	</g>
	<g id="XMLID_248_">
		<path id="XMLID_256_" class="st1" d="M25.7,161.5c8.4-3.7,12.3-13.5,8.6-22L3.7,152.9C7.4,161.3,17.2,165.2,25.7,161.5z"/>
		<path id="XMLID_255_" class="st2" d="M12.3,130.9c-8.4,3.7-12.3,13.5-8.6,22l30.6-13.4C30.6,131.1,20.8,127.2,12.3,130.9z"/>
		<g id="XMLID_254_">
			<g>
				<path class="st1" d="M11.3,128.8c-11,5.3-15.1,19.4-7.2,29.3c8.3,10.4,23.7,8.9,31-1.7c0.4-0.6-0.5-1.1-0.9-0.6
					c-7.1,10.2-22.1,11.2-29.6,0.9c-6.9-9.4-2.9-22.2,7.3-27.1C12.5,129.4,11.9,128.5,11.3,128.8L11.3,128.8z"/>
			</g>
		</g>
		<g id="XMLID_250_">
			<path id="XMLID_251_" class="st3" d="M25.2,160.4c-7.9,3.4-17-0.2-20.5-8c-3.4-7.9,0.2-17,8-20.5c7.9-3.4,17,0.2,20.5,8
				C36.7,147.8,33.1,157,25.2,160.4z M24.7,159.2c7.2-3.1,10.5-11.6,7.3-18.7c-3.1-7.2-11.6-10.5-18.7-7.3
				c-7.2,3.1-10.5,11.6-7.3,18.7C9.1,159.1,17.5,162.4,24.7,159.2z"/>
		</g>
		<path id="XMLID_249_" class="st1" d="M34.5,154.3c0.7-0.3,1.6,0,1.9,0.8c0.3,0.7,0,1.6-0.8,1.9c-0.7,0.3-1.6,0-1.9-0.8
			C33.4,155.4,33.7,154.6,34.5,154.3z"/>
	</g>
	<g id="XMLID_236_">
		<path id="XMLID_246_" class="st3" d="M73,41.2h-2L70.9,42c0.1,0,0.2,0,0.3,0c0.5,0,1,0.1,1.3,0.4c0.4,0.3,0.6,0.7,0.6,1.3
			c0,0.9-0.8,1.8-2.2,1.8c-0.6,0-1.1-0.1-1.4-0.3l0.2-0.9c0.2,0.1,0.7,0.3,1.2,0.3c0.5,0,1-0.2,1-0.8c0-0.5-0.4-0.8-1.4-0.8
			c-0.3,0-0.5,0-0.7,0l0.3-2.7H73V41.2z"/>
		<path id="XMLID_244_" class="st3" d="M75.2,40v2h2v-2h1.2v5.3h-1.2v-2.2h-2v2.2H74V40H75.2z"/>
		<path id="XMLID_242_" class="st3" d="M80.2,41h-1.4v-1h4.1v1h-1.4v4.3h-1.2V41z"/>
		<path id="XMLID_240_" class="st3" d="M84.6,41.3L84.6,41.3l-1,0.5l-0.2-0.9l1.3-0.6h1v5.1h-1.2V41.3z"/>
		<path id="XMLID_237_" class="st3" d="M88.6,43.9l-0.4,1.4H87l1.6-5.3h1.6l1.6,5.3h-1.3l-0.4-1.4H88.6z M90,43l-0.3-1.1
			c-0.1-0.3-0.2-0.7-0.3-1h0c-0.1,0.3-0.2,0.7-0.2,1L88.8,43H90z"/>
	</g>
	<g id="XMLID_224_">
		<path id="XMLID_234_" class="st3" d="M42.5,71.3h-2L40.4,72c0.1,0,0.2,0,0.3,0c0.5,0,1,0.1,1.3,0.4c0.4,0.3,0.6,0.7,0.6,1.3
			c0,0.9-0.8,1.8-2.2,1.8c-0.6,0-1.1-0.1-1.4-0.3l0.2-0.9c0.2,0.1,0.7,0.3,1.2,0.3c0.5,0,1-0.2,1-0.8c0-0.5-0.4-0.8-1.4-0.8
			c-0.3,0-0.5,0-0.7,0l0.3-2.7h2.8V71.3z"/>
		<path id="XMLID_232_" class="st3" d="M44.6,70.1v2h2v-2h1.2v5.3h-1.2v-2.2h-2v2.2h-1.2v-5.3H44.6z"/>
		<path id="XMLID_230_" class="st3" d="M49.7,71.1h-1.4v-1h4.1v1h-1.4v4.3h-1.2V71.1z"/>
		<path id="XMLID_228_" class="st3" d="M52.6,75.4v-0.7l0.7-0.6c1.1-1,1.7-1.6,1.7-2.2c0-0.4-0.3-0.7-0.8-0.7
			c-0.4,0-0.8,0.2-1.1,0.4l-0.3-0.9c0.4-0.3,1-0.5,1.7-0.5c1.2,0,1.8,0.7,1.8,1.6c0,0.9-0.6,1.5-1.4,2.2l-0.5,0.4v0h1.9v1H52.6z"/>
		<path id="XMLID_225_" class="st3" d="M58.1,74l-0.4,1.4h-1.2l1.6-5.3h1.6l1.6,5.3H60L59.6,74H58.1z M59.5,73.1L59.1,72
			c-0.1-0.3-0.2-0.7-0.3-1h0c-0.1,0.3-0.2,0.7-0.2,1l-0.3,1.1H59.5z"/>
	</g>
	<g id="XMLID_206_">
		<path id="XMLID_222_" class="st3" d="M16.9,105h-1.8l-0.1,0.7c0.1,0,0.2,0,0.3,0c0.4,0,0.9,0.1,1.2,0.3c0.4,0.2,0.6,0.6,0.6,1.2
			c0,0.9-0.7,1.6-2,1.6c-0.6,0-1-0.1-1.3-0.3l0.2-0.8c0.2,0.1,0.6,0.2,1.1,0.2c0.5,0,0.9-0.2,0.9-0.7c0-0.5-0.4-0.8-1.3-0.8
			c-0.3,0-0.4,0-0.6,0l0.3-2.5h2.6V105z"/>
		<path id="XMLID_220_" class="st3" d="M18.7,104v1.9h1.8V104h1.1v4.8h-1.1v-2h-1.8v2h-1.1V104H18.7z"/>
		<path id="XMLID_218_" class="st3" d="M23.1,104.9h-1.3V104h3.7v0.9h-1.3v3.9h-1.1V104.9z"/>
		<path id="XMLID_216_" class="st3" d="M26.9,105.1L26.9,105.1l-0.9,0.4l-0.2-0.8l1.2-0.6H28v4.7h-1.1V105.1z"/>
		<path id="XMLID_212_" class="st3" d="M29.4,104c0.3-0.1,0.9-0.1,1.4-0.1c0.7,0,1.1,0.1,1.4,0.3c0.3,0.2,0.6,0.5,0.6,0.9
			c0,0.4-0.3,0.8-0.8,1v0c0.6,0.2,1,0.6,1,1.2c0,0.4-0.2,0.8-0.5,1c-0.4,0.3-0.9,0.4-1.9,0.4c-0.5,0-0.9,0-1.2-0.1V104z M30.4,105.9
			h0.4c0.6,0,0.9-0.2,0.9-0.6c0-0.4-0.3-0.6-0.8-0.6c-0.2,0-0.4,0-0.5,0V105.9z M30.4,108c0.1,0,0.2,0,0.4,0c0.5,0,0.9-0.2,0.9-0.7
			c0-0.5-0.4-0.7-1-0.7h-0.4V108z"/>
		<path id="XMLID_210_" class="st3" d="M33,109.1l1.5-5.2h0.7l-1.5,5.2H33z"/>
		<path id="XMLID_207_" class="st3" d="M35.3,104c0.4-0.1,0.9-0.1,1.5-0.1c0.9,0,1.5,0.2,2,0.5c0.5,0.4,0.8,1,0.8,1.8
			c0,0.9-0.3,1.6-0.8,2c-0.5,0.4-1.3,0.6-2.2,0.6c-0.6,0-1,0-1.2-0.1V104z M36.4,108c0.1,0,0.2,0,0.4,0c1,0,1.6-0.5,1.6-1.7
			c0-1-0.6-1.5-1.5-1.5c-0.2,0-0.4,0-0.5,0V108z"/>
	</g>
	<g id="XMLID_192_">
		<path id="XMLID_204_" class="st3" d="M10.7,145h-2l-0.1,0.8c0.1,0,0.2,0,0.3,0c0.5,0,1,0.1,1.3,0.4c0.4,0.3,0.6,0.7,0.6,1.3
			c0,0.9-0.8,1.8-2.2,1.8c-0.6,0-1.1-0.1-1.4-0.3l0.2-0.9c0.2,0.1,0.7,0.3,1.2,0.3c0.5,0,1-0.2,1-0.8c0-0.5-0.4-0.8-1.4-0.8
			c-0.3,0-0.5,0-0.7,0l0.3-2.7h2.8V145z"/>
		<path id="XMLID_202_" class="st3" d="M13,143.8v2h2v-2h1.2v5.3H15v-2.2h-2v2.2h-1.2v-5.3H13z"/>
		<path id="XMLID_200_" class="st3" d="M18.2,144.8h-1.4v-1h4.1v1h-1.4v4.3h-1.2V144.8z"/>
		<path id="XMLID_197_" class="st3" d="M21.3,149.1v-0.7l0.7-0.6c1.1-1,1.7-1.6,1.7-2.2c0-0.4-0.3-0.7-0.8-0.7
			c-0.4,0-0.8,0.2-1.1,0.4l-0.3-0.9c0.4-0.3,1-0.5,1.7-0.5c1.2,0,1.8,0.7,1.8,1.6c0,0.9-0.6,1.5-1.4,2.2l-0.5,0.4v0h1.9v1H21.3z"/>
		<path id="XMLID_193_" class="st3" d="M25.8,143.9c0.3-0.1,0.9-0.1,1.5-0.1c0.7,0,1.2,0.1,1.6,0.3c0.4,0.2,0.6,0.6,0.6,1
			c0,0.5-0.3,0.9-0.9,1.1v0c0.6,0.2,1.1,0.6,1.1,1.3c0,0.5-0.2,0.9-0.5,1.1c-0.4,0.3-1,0.5-2.1,0.5c-0.6,0-1,0-1.3-0.1V143.9z
			 M27,145.9h0.4c0.6,0,1-0.3,1-0.7c0-0.4-0.3-0.6-0.8-0.6c-0.3,0-0.4,0-0.5,0V145.9z M27,148.2c0.1,0,0.3,0,0.5,0
			c0.5,0,1-0.2,1-0.8c0-0.5-0.5-0.7-1.1-0.7H27V148.2z"/>
	</g>
	<g id="XMLID_181_">
		<path id="XMLID_190_" class="st3" d="M12.4,186.9h-2l-0.1,0.8c0.1,0,0.2,0,0.3,0c0.5,0,1,0.1,1.3,0.4c0.4,0.3,0.6,0.7,0.6,1.3
			c0,0.9-0.8,1.8-2.2,1.8c-0.6,0-1.1-0.1-1.4-0.3l0.2-0.9c0.2,0.1,0.7,0.3,1.2,0.3c0.5,0,1-0.2,1-0.8c0-0.5-0.4-0.8-1.4-0.8
			c-0.3,0-0.5,0-0.7,0l0.3-2.7h2.8V186.9z"/>
		<path id="XMLID_188_" class="st3" d="M14.7,185.7v2h2v-2h1.2v5.3h-1.2v-2.2h-2v2.2h-1.2v-5.3H14.7z"/>
		<path id="XMLID_186_" class="st3" d="M19.9,186.7h-1.4v-1h4.1v1h-1.4v4.3h-1.2V186.7z"/>
		<path id="XMLID_184_" class="st3" d="M23,191v-0.7l0.7-0.6c1.1-1,1.7-1.6,1.7-2.2c0-0.4-0.3-0.7-0.8-0.7c-0.4,0-0.8,0.2-1.1,0.4
			l-0.3-0.9c0.4-0.3,1-0.5,1.7-0.5c1.2,0,1.8,0.7,1.8,1.6c0,0.9-0.6,1.5-1.4,2.2l-0.5,0.4v0h1.9v1H23z"/>
		<path id="XMLID_182_" class="st3" d="M31.4,190.9c-0.2,0.1-0.7,0.2-1.4,0.2c-1.8,0-2.8-1.1-2.8-2.6c0-1.8,1.3-2.8,2.9-2.8
			c0.6,0,1.1,0.1,1.3,0.2l-0.2,0.9c-0.2-0.1-0.6-0.2-1-0.2c-0.9,0-1.7,0.6-1.7,1.7c0,1.1,0.6,1.7,1.7,1.7c0.4,0,0.8-0.1,1-0.2
			L31.4,190.9z"/>
	</g>
	<g id="XMLID_127_">
		<g>
			<path id="XMLID_154_" class="st3" d="M71.5,147.1l-1.1-2.9h7.1c1,2.4,10.2,25.6,11.2,28h-7.1l-1.9-5.1h-9.9l-1.9,5.1h-6.6
				L71.5,147.1z M71.5,162.3h6.3l-2.4-6.4l-0.8-2.4l-0.8,2.4L71.5,162.3z"/>
			<path id="XMLID_152_" class="st3" d="M90.6,171v-6c1.4,1.4,3.7,2.6,6.7,2.6c2.9,0,3.8-0.9,3.8-2.1c0-1.2-0.5-1.7-3.1-2l-1.1-0.2
				c-4.7-0.7-6.8-3-6.8-7c0-3.9,2.7-7.5,9.4-7.5c3.4,0,5.9,0.8,7.1,1.8v5.9c-1.4-1.6-3.8-2.5-6.9-2.5c-2.7,0-3.5,0.8-3.5,1.9
				c0,1.1,0.5,1.7,2.8,2.1l1.2,0.2c5,0.7,7.2,2.6,7.2,6.8c0,3.9-2.7,7.8-9.8,7.8C94.1,172.9,91.8,172,90.6,171z"/>
			<path id="XMLID_146_" class="st3" d="M109.9,160.9c0-8.3,5.4-12,11-12c5.4,0,10.5,2.3,10.5,10.9v2.9h-14.6
				c0.2,2.6,1.9,4.6,6.1,4.6c3.8,0,6.1-1.3,7.4-2.6v5.6c-1.2,1.1-3.9,2.5-8.4,2.5C114.4,172.9,109.9,169.1,109.9,160.9z M125,158.6
				v-0.2c0-2.7-1.2-4.3-4-4.3c-2.6,0-4,2.2-4.2,4.5H125z"/>
			<path id="XMLID_144_" class="st3" d="M135,149.5h5.9l0.5,2c1-1.5,3-2.6,6-2.6c5.9,0,8.2,3.1,8.2,9.3v14.1h-6.7v-12.9
				c0-3.7-0.9-5.1-3.5-5.1c-2,0-3.2,1-3.8,1.8v16.2H135V149.5z"/>
			<path id="XMLID_141_" class="st3" d="M159.1,166.2c0-4.6,3.2-6.5,9.5-7.4l3.3-0.5c0-3.1-1.6-4-4.5-4c-3.2,0-6.2,1.6-7.4,4v-6.4
				c1-1.3,3.5-3,8.4-3c6.5,0,10.1,2.9,10.1,9.7v13.6h-5.8l-0.5-1.9c-0.6,1.2-2.4,2.6-5.6,2.6C162.2,172.9,159.1,170.7,159.1,166.2z
				 M171.9,162.4l-2.6,0.6c-3,0.7-4,1.4-4,3c0,1.5,1.1,2.2,2.7,2.2c1.8,0,3.3-0.7,3.9-1.6V162.4z"/>
			<path id="XMLID_138_" class="st3" d="M183.1,149.5h5.9l0.5,2c0.8-1.3,2.6-2.6,6-2.6c5.7,0,9.2,3.1,9.2,11.4
				c0,8.3-4.4,12.6-10.1,12.6c-1.8,0-3.8-0.4-4.8-1.5v8.7h-6.7V149.5z M197.9,160.6c0-3.9-1.1-6.3-4.3-6.3c-1.9,0-3.2,0.8-3.8,1.8
				v10.2c0.8,1,2.2,1.4,3.7,1.4C196.7,167.7,197.9,164.5,197.9,160.6z"/>
			<path id="XMLID_135_" class="st3" d="M208.3,144.1c0-2,1.3-3.2,3.4-3.2c2.1,0,3.5,1.2,3.5,3.2s-1.4,3.1-3.5,3.1
				C209.6,147.2,208.3,146.1,208.3,144.1z M208.4,149.5h6.7v22.7h-6.7V149.5z"/>
			<path id="XMLID_133_" class="st3" d="M219.8,149.5h5.9l0.5,2c1-1.5,3-2.6,6-2.6c5.9,0,8.2,3.1,8.2,9.3v14.1h-6.7v-12.9
				c0-3.7-0.9-5.1-3.5-5.1c-2,0-3.2,1-3.8,1.8v16.2h-6.7V149.5z"/>
			<path id="XMLID_129_" class="st3" d="M243.9,160.9c0-8.3,5.4-12,11-12c5.4,0,10.5,2.3,10.5,10.9v2.9h-14.6
				c0.2,2.6,1.9,4.6,6.1,4.6c3.8,0,6.1-1.3,7.4-2.6v5.6c-1.2,1.1-3.9,2.5-8.4,2.5C248.4,172.9,243.9,169.1,243.9,160.9z
				 M259.1,158.6v-0.2c0-2.7-1.2-4.3-4-4.3c-2.6,0-4,2.2-4.2,4.5H259.1z"/>
		</g>
	</g>
	<g id="XMLID_122_">
		<path id="XMLID_125_" class="st3" d="M164,14.7v2.5h2.5v-2.5h1.5v6.6h-1.5v-2.8H164v2.8h-1.5v-6.6H164z"/>
		<path id="XMLID_123_" class="st3" d="M170.7,16.2L170.7,16.2l-1.2,0.6l-0.2-1.1l1.7-0.8h1.2v6.4h-1.4V16.2z"/>
	</g>
	<g id="XMLID_116_">
		<path id="XMLID_119_" class="st3" d="M287.6,218.6c0.5-0.1,1.3-0.1,2-0.1c1.3,0,2.1,0.2,2.7,0.7c0.7,0.5,1.1,1.3,1.1,2.5
			c0,1.3-0.5,2.1-1.1,2.7c-0.7,0.6-1.8,0.9-3,0.9c-0.8,0-1.3,0-1.7-0.1V218.6z M289.1,224c0.1,0,0.3,0,0.5,0c1.4,0,2.2-0.7,2.2-2.3
			c0-1.4-0.8-2.1-2.1-2.1c-0.3,0-0.5,0-0.7,0.1V224z"/>
		<path id="XMLID_117_" class="st3" d="M295.9,220.1L295.9,220.1l-1.2,0.6l-0.2-1.1l1.7-0.8h1.2v6.4h-1.4V220.1z"/>
	</g>
	<g id="XMLID_104_">
		<g>
			<path id="XMLID_108_" class="st3" d="M267.7,251.5c0.5-0.1,1.3-0.1,2-0.1c1.3,0,2.1,0.2,2.7,0.7c0.7,0.5,1.1,1.3,1.1,2.5
				c0,1.3-0.5,2.1-1.1,2.7c-0.7,0.6-1.8,0.9-3,0.9c-0.8,0-1.3,0-1.7-0.1V251.5z M269.2,256.9c0.1,0,0.3,0,0.5,0
				c1.4,0,2.2-0.7,2.2-2.3c0-1.4-0.8-2.1-2.1-2.1c-0.3,0-0.5,0-0.7,0.1V256.9z"/>
			<path id="XMLID_106_" class="st3" d="M274,258v-0.9l0.8-0.7c1.4-1.2,2.1-2,2.1-2.7c0-0.5-0.3-0.9-1-0.9c-0.5,0-1,0.3-1.4,0.5
				l-0.4-1.1c0.5-0.4,1.2-0.7,2.1-0.7c1.4,0,2.2,0.8,2.2,2c0,1.1-0.8,1.9-1.7,2.7l-0.6,0.5v0h2.4v1.2H274z"/>
		</g>
	</g>
	<g id="XMLID_92_">
		<g>
			<path id="XMLID_96_" class="st3" d="M237.4,280c0.5-0.1,1.3-0.1,2-0.1c1.3,0,2.1,0.2,2.7,0.7c0.7,0.5,1.1,1.3,1.1,2.5
				c0,1.3-0.5,2.1-1.1,2.7c-0.7,0.6-1.8,0.9-3,0.9c-0.8,0-1.3,0-1.7-0.1V280z M238.9,285.4c0.1,0,0.3,0,0.5,0c1.4,0,2.2-0.7,2.2-2.3
				c0-1.4-0.8-2.1-2.1-2.1c-0.3,0-0.5,0-0.7,0.1V285.4z"/>
			<path id="XMLID_94_" class="st3" d="M244,285.1c0.3,0.1,0.9,0.4,1.5,0.4c0.8,0,1.2-0.4,1.2-0.9c0-0.6-0.6-0.9-1.3-0.9h-0.6v-1.1
				h0.6c0.5,0,1.1-0.2,1.1-0.7c0-0.4-0.3-0.7-0.9-0.7c-0.5,0-1.1,0.2-1.3,0.4l-0.3-1.1c0.4-0.2,1.1-0.5,2-0.5c1.4,0,2.1,0.7,2.1,1.6
				c0,0.7-0.4,1.2-1.2,1.5v0c0.8,0.1,1.4,0.7,1.4,1.5c0,1.1-1,1.9-2.6,1.9c-0.8,0-1.5-0.2-1.9-0.5L244,285.1z"/>
		</g>
	</g>
	<g id="XMLID_78_">
		<g>
			<path id="XMLID_83_" class="st3" d="M202.9,297c0.5-0.1,1.3-0.1,2-0.1c1.3,0,2.1,0.2,2.7,0.7c0.7,0.5,1.1,1.3,1.1,2.5
				c0,1.3-0.5,2.1-1.1,2.7c-0.7,0.6-1.8,0.9-3,0.9c-0.8,0-1.3,0-1.7-0.1V297z M204.4,302.4c0.1,0,0.3,0,0.5,0c1.4,0,2.2-0.7,2.2-2.3
				c0-1.4-0.8-2.1-2.1-2.1c-0.3,0-0.5,0-0.7,0.1V302.4z"/>
			<path id="XMLID_80_" class="st3" d="M211.9,303.5V302H209v-1l2.4-3.9h1.8v3.7h0.8v1.1h-0.8v1.5H211.9z M211.9,300.9v-1.4
				c0-0.4,0-0.8,0-1.2h0c-0.2,0.4-0.4,0.8-0.6,1.2l-0.9,1.4v0H211.9z"/>
		</g>
	</g>
	<g id="XMLID_69_">
		<path id="XMLID_76_" class="st3" d="M124,302h-2.3l-0.1,0.9c0.1,0,0.2,0,0.4,0c0.6,0,1.1,0.1,1.6,0.4c0.4,0.3,0.7,0.8,0.7,1.5
			c0,1.1-1,2.1-2.6,2.1c-0.7,0-1.3-0.2-1.7-0.3l0.2-1c0.3,0.1,0.8,0.3,1.3,0.3c0.6,0,1.2-0.3,1.2-0.9c0-0.6-0.5-1-1.7-1
			c-0.3,0-0.6,0-0.8,0.1l0.4-3.1h3.3V302z"/>
		<path id="XMLID_74_" class="st3" d="M126.5,300.7v2.4h2.3v-2.4h1.4v6.2h-1.4v-2.6h-2.3v2.6h-1.4v-6.2H126.5z"/>
		<path id="XMLID_72_" class="st3" d="M132.4,301.8h-1.7v-1.2h4.7v1.2h-1.7v5h-1.4V301.8z"/>
		<path id="XMLID_70_" class="st3" d="M140,300.9v0.9l-2.4,5.1h-1.5l2.4-4.8v0h-2.7v-1.1H140z"/>
	</g>
	<g id="XMLID_49_">
		<g>
			<path id="XMLID_58_" class="st3" d="M84.2,286.1h-2.3l-0.1,0.9c0.1,0,0.2,0,0.4,0c0.6,0,1.1,0.1,1.6,0.4c0.4,0.3,0.7,0.8,0.7,1.5
				c0,1.1-1,2.1-2.6,2.1c-0.7,0-1.3-0.2-1.7-0.3l0.2-1c0.3,0.1,0.8,0.3,1.3,0.3c0.6,0,1.2-0.3,1.2-0.9c0-0.6-0.5-1-1.7-1
				c-0.3,0-0.6,0-0.8,0.1l0.4-3.1h3.3V286.1z"/>
			<path id="XMLID_56_" class="st3" d="M86.6,284.8v2.4h2.3v-2.4h1.4v6.2h-1.4v-2.6h-2.3v2.6h-1.4v-6.2H86.6z"/>
			<path id="XMLID_54_" class="st3" d="M92.5,285.9h-1.7v-1.2h4.7v1.2h-1.7v5h-1.4V285.9z"/>
			<path id="XMLID_51_" class="st3" d="M99.7,286c-0.2,0-0.3,0-0.5,0c-1.2,0.1-1.8,0.7-1.9,1.4h0c0.3-0.3,0.7-0.5,1.3-0.5
				c1,0,1.8,0.7,1.8,1.9c0,1.2-0.9,2.1-2.2,2.1c-1.6,0-2.4-1.2-2.4-2.6c0-1.1,0.4-2,1.1-2.6c0.6-0.5,1.4-0.8,2.3-0.9
				c0.3,0,0.4,0,0.6,0V286z M98.9,288.9c0-0.5-0.3-1-0.9-1c-0.4,0-0.7,0.2-0.8,0.5c0,0.1-0.1,0.2-0.1,0.3c0,0.6,0.3,1.2,1,1.2
				C98.6,290,98.9,289.5,98.9,288.9z"/>
		</g>
	</g>
	<g id="XMLID_31_">
		<g>
			<path id="XMLID_39_" class="st3" d="M50.6,258.7h-2.3l-0.1,0.9c0.1,0,0.2,0,0.4,0c0.6,0,1.1,0.1,1.6,0.4c0.4,0.3,0.7,0.8,0.7,1.5
				c0,1.1-1,2.1-2.6,2.1c-0.7,0-1.3-0.2-1.7-0.3l0.2-1c0.3,0.1,0.8,0.3,1.3,0.3c0.6,0,1.2-0.3,1.2-0.9c0-0.6-0.5-1-1.7-1
				c-0.3,0-0.6,0-0.8,0.1l0.4-3.1h3.3V258.7z"/>
			<path id="XMLID_37_" class="st3" d="M53,257.3v2.4h2.3v-2.4h1.4v6.2h-1.4v-2.6H53v2.6h-1.4v-6.2H53z"/>
			<path id="XMLID_35_" class="st3" d="M58.9,258.5h-1.7v-1.2H62v1.2h-1.7v5h-1.4V258.5z"/>
			<path id="XMLID_33_" class="st3" d="M66.2,258.7h-2.3l-0.1,0.9c0.1,0,0.2,0,0.4,0c0.6,0,1.1,0.1,1.6,0.4c0.4,0.3,0.7,0.8,0.7,1.5
				c0,1.1-1,2.1-2.6,2.1c-0.7,0-1.3-0.2-1.7-0.3l0.2-1c0.3,0.1,0.8,0.3,1.3,0.3c0.6,0,1.2-0.3,1.2-0.9c0-0.6-0.5-1-1.7-1
				c-0.3,0-0.6,0-0.8,0.1l0.4-3.1h3.3V258.7z"/>
		</g>
	</g>
	<g id="XMLID_26_">
		<g id="XMLID_28_">
			<path id="XMLID_29_" class="st3" d="M208.5,29.8L208.5,29.8l-1.2,0.6l-0.2-1.1l1.7-0.8h1.2v6.4h-1.4V29.8z"/>
		</g>
		<path id="XMLID_27_" class="st11" d="M217.6,26.6c0,0-3.5-5.7-7.3-7.5c-3.9-1.8-3.1,2.1-1.3,4.7c1.8,2.6,8.2-0.8,10.1-1.2"/>
	</g>
	<g id="XMLID_18_">
		<g id="XMLID_20_">
			<path id="XMLID_24_" class="st3" d="M241.2,54.2v-0.9l0.8-0.7c1.4-1.2,2.1-2,2.1-2.7c0-0.5-0.3-0.9-1-0.9c-0.5,0-1,0.3-1.4,0.5
				l-0.4-1.1c0.5-0.4,1.2-0.7,2.1-0.7c1.4,0,2.2,0.8,2.2,2c0,1.1-0.8,1.9-1.7,2.7l-0.6,0.5v0h2.4v1.2H241.2z"/>
			<path id="XMLID_21_" class="st3" d="M248.2,52.5l-0.5,1.7h-1.5l2-6.6h2l2,6.6h-1.6l-0.5-1.7H248.2z M249.9,51.4l-0.4-1.4
				c-0.1-0.4-0.2-0.9-0.3-1.3h0c-0.1,0.4-0.2,0.9-0.3,1.3l-0.4,1.4H249.9z"/>
		</g>
		<path id="XMLID_19_" class="st11" d="M254.2,47.2c0,0-3.5-5.7-7.3-7.5c-3.9-1.8-3.1,2.1-1.3,4.7c1.8,2.6,8.2-0.8,10.1-1.2"/>
	</g>
	<g id="XMLID_9_">
		<g id="XMLID_11_">
			<path id="XMLID_16_" class="st3" d="M271.8,84.4v-0.9l0.8-0.7c1.4-1.2,2.1-2,2.1-2.7c0-0.5-0.3-0.9-1-0.9c-0.5,0-1,0.3-1.4,0.5
				l-0.4-1.1c0.5-0.4,1.2-0.7,2.1-0.7c1.4,0,2.2,0.8,2.2,2c0,1.1-0.8,1.9-1.7,2.7l-0.6,0.5v0h2.4v1.2H271.8z"/>
			<path id="XMLID_12_" class="st3" d="M277.2,77.9c0.4-0.1,1.2-0.1,1.9-0.1c0.9,0,1.5,0.1,1.9,0.4c0.5,0.2,0.8,0.7,0.8,1.3
				c0,0.6-0.3,1.1-1.1,1.4v0c0.8,0.2,1.3,0.8,1.3,1.6c0,0.6-0.3,1.1-0.7,1.4c-0.5,0.4-1.3,0.6-2.6,0.6c-0.7,0-1.3,0-1.6-0.1V77.9z
				 M278.7,80.4h0.5c0.8,0,1.2-0.3,1.2-0.8c0-0.5-0.4-0.8-1.1-0.8c-0.3,0-0.5,0-0.6,0V80.4z M278.7,83.4c0.1,0,0.3,0,0.6,0
				c0.7,0,1.3-0.3,1.3-1c0-0.7-0.6-0.9-1.3-0.9h-0.5V83.4z"/>
		</g>
		<path id="XMLID_10_" class="st11" d="M283,76c0,0-3.5-5.7-7.3-7.5c-3.9-1.8-3.1,2.1-1.3,4.7c1.8,2.6,8.2-0.8,10.1-1.2"/>
	</g>
	<g id="XMLID_2_">
		<g id="XMLID_4_">
			<path id="XMLID_7_" class="st3" d="M291.7,121.4v-0.9l0.8-0.7c1.4-1.2,2.1-2,2.1-2.7c0-0.5-0.3-0.9-1-0.9c-0.5,0-1,0.3-1.4,0.5
				l-0.4-1.1c0.5-0.4,1.2-0.7,2.1-0.7c1.4,0,2.2,0.8,2.2,2c0,1.1-0.8,1.9-1.7,2.7l-0.6,0.5v0h2.4v1.2H291.7z"/>
			<path id="XMLID_5_" class="st3" d="M302,121.2c-0.3,0.1-0.9,0.3-1.7,0.3c-2.3,0-3.5-1.4-3.5-3.3c0-2.3,1.6-3.5,3.6-3.5
				c0.8,0,1.4,0.2,1.6,0.3l-0.3,1.2c-0.3-0.1-0.7-0.2-1.3-0.2c-1.2,0-2.1,0.7-2.1,2.2c0,1.3,0.8,2.2,2.1,2.2c0.5,0,1-0.1,1.2-0.2
				L302,121.2z"/>
		</g>
		<path id="XMLID_3_" class="st11" d="M304.3,112.8c0,0-3.5-5.7-7.3-7.5c-3.9-1.8-3.1,2.1-1.3,4.7c1.8,2.6,8.2-0.8,10.1-1.2"/>
	</g>
</g>
</svg>
