<!-- Generator: Adobe Illustrator 22.1.0, SVG Export Plug-In  -->
<svg version="1.1"
	 xmlns="http://www.w3.org/2000/svg" xmlns:xlink="http://www.w3.org/1999/xlink" xmlns:a="http://ns.adobe.com/AdobeSVGViewerExtensions/3.0/"
	 x="0px" y="0px" width="158.9px" height="159.1px" viewBox="0 0 158.9 159.1" style="enable-background:new 0 0 158.9 159.1;"
	 xml:space="preserve">
<style type="text/css">
	.st0{fill:none;stroke:#ADABAC;stroke-width:1.0884;stroke-miterlimit:10;}
	.st1{fill:#ADABAC;}
	.st2{opacity:0.45;fill:url(#XMLID_489_);}
	.st3{fill:none;stroke:#652D90;stroke-width:0.9208;stroke-miterlimit:10;}
	.st4{fill:#ACAAAB;}
	.st5{fill:#231F20;}
	.st6{fill:#FFFFFF;}
	.st7{opacity:0.45;fill:url(#XMLID_490_);}
</style>
<defs>
</defs>
<g id="XMLID_485_">
	<path id="XMLID_488_" class="st0" d="M149.2,12.8c5.1,0,9.1,4.1,9.1,9.1v78.9c0,5.1-4.1,9.1-9.1,9.1"/>
	<path id="XMLID_487_" class="st1" d="M146,110.2c0-2,1.6-3.7,3.7-3.7c2,0,3.7,1.6,3.7,3.7c0,2-1.6,3.7-3.7,3.7
		C147.7,113.8,146,112.2,146,110.2z"/>
	<path id="XMLID_486_" class="st1" d="M146,12.8c0-2,1.6-3.7,3.7-3.7c2,0,3.7,1.6,3.7,3.7c0,2-1.6,3.7-3.7,3.7
		C147.7,16.5,146,14.9,146,12.8z"/>
</g>
<g id="XMLID_480_">
	<linearGradient id="XMLID_489_" gradientUnits="userSpaceOnUse" x1="0.4604" y1="69.3639" x2="136.6889" y2="69.3639">
		<stop  offset="0" style="stop-color:#FFFFFF"/>
		<stop  offset="1" style="stop-color:#B5B7B9"/>
	</linearGradient>
	<path id="XMLID_483_" class="st2" d="M136.7,133.8c0,2.5-1.9,4.5-4.3,4.5H4.8c-2.4,0-4.3-2-4.3-4.5V4.9c0-2.5,1.9-4.5,4.3-4.5
		h127.6c2.4,0,4.3,2,4.3,4.5V133.8z"/>
	<path id="XMLID_481_" class="st3" d="M136.7,133.8c0,2.5-1.9,4.5-4.3,4.5H4.8c-2.4,0-4.3-2-4.3-4.5V4.9c0-2.5,1.9-4.5,4.3-4.5
		h127.6c2.4,0,4.3,2,4.3,4.5V133.8z"/>
</g>
<g id="XMLID_103_">
	<g id="XMLID_472_">
		<path id="XMLID_478_" class="st4" d="M25,30.5c-1.6,1.7-5.6,2.2-9.4,2.2v-7.2c5.8,0,10.3-1.8,13.4-6h3.6v45.2H25V30.5z"/>
		<path id="XMLID_476_" class="st4" d="M40,60.4c0-3.2,1.9-5.5,4.9-5.5c2.9,0,4.9,2.3,4.9,5.5s-2,5.4-4.9,5.4
			C42,65.8,40,63.5,40,60.4z"/>
		<path id="XMLID_473_" class="st4" d="M55,48.2c0-16,8.9-25.3,15.7-28.6h10.9V20c-7.4,3.5-13.4,8.1-16.5,15.9
			c1.6-1.1,3.8-1.9,6.5-1.9C80.3,34,85,40,85,49.3c0,9.2-5.9,16.5-15.3,16.5C60.3,65.8,55,58.4,55,48.2z M77.1,49.6
			c0-5-2.5-8.6-7.1-8.6c-3.5,0-5.6,1.4-6.9,3.2c-0.2,1.6-0.2,3.2-0.2,4.9c0,5.6,2.5,9.3,7.1,9.3C74.6,58.4,77.1,54.6,77.1,49.6z"/>
	</g>
	<g id="XMLID_466_">
		<path id="XMLID_467_" class="st4" d="M97.3,26.5c0-6,2.7-7.9,6-7.9c1.2,0,2.4,0.3,3.3,0.9c1.6,1,2.9,1.4,5.2,1.4
			c2.7,0,4.4-1.1,5.4-2.4l2.4,1.5l-15.7,28.4h-3.2l13.9-25.2c-0.7,0.3-1.6,0.5-2.7,0.5c-1.1,0-2-0.2-2.9-0.5
			c0.2,0.9,0.3,1.9,0.3,3.2c0,6-2.7,7.9-6,7.9C100,34.4,97.3,32.5,97.3,26.5z M105.6,26.5c0-3.1-0.6-4.5-2.3-4.5
			c-1.7,0-2.3,1.4-2.3,4.5c0,3.1,0.6,4.5,2.3,4.5C105,31,105.6,29.6,105.6,26.5z M111.4,41.3c0-6,2.7-7.9,6-7.9s6,1.9,6,7.9
			s-2.7,7.9-6,7.9S111.4,47.3,111.4,41.3z M119.7,41.3c0-3.1-0.6-4.5-2.3-4.5c-1.7,0-2.3,1.4-2.3,4.5c0,3.1,0.6,4.5,2.3,4.5
			C119.1,45.8,119.7,44.4,119.7,41.3z"/>
	</g>
	<g id="XMLID_460_">
		<path id="XMLID_463_" class="st4" d="M95.1,64.3c0-5.7,3.7-8.7,7.5-8.7c4.4,0,7.5,3,7.5,8.7c0,5.7-3.7,8.7-7.5,8.7
			C98.1,73.1,95.1,70.1,95.1,64.3z M107,64.5c0-3.9-1.7-6.1-4.5-6.1c-2.7,0-4.5,2.1-4.5,5.8c0,3.9,1.7,6.1,4.5,6.1
			C105.3,70.3,107,68.2,107,64.5z"/>
		<path id="XMLID_461_" class="st4" d="M113,61.7h-1.5v-0.9l1.4-1.4c-0.2-0.4-0.4-1-0.4-1.9c0-2.4,1.9-3.7,4.1-3.7
			c1.5,0,2.4,0.5,2.7,0.8v2.9c-0.4-0.8-1.2-1.2-2.2-1.2c-1.1,0-1.8,0.5-1.8,1.6c0,0.5,0.2,0.9,0.3,1.2h2.5v2.5h-2.4v11H113V61.7z"/>
	</g>
	<g id="XMLID_104_">
		<g>
			<path id="XMLID_279_" class="st5" d="M23.1,78.1h1.4l0.1,0.6c0.2-0.4,0.7-0.8,1.6-0.8c1.5,0,2.6,1,2.6,3.5s-1.3,3.8-2.8,3.8
				c-0.5,0-1.1-0.1-1.4-0.5v2.7h-1.5V78.1z M27.3,81.5c0-1.4-0.4-2.2-1.4-2.2c-0.7,0-1.1,0.3-1.3,0.6v3.6c0.3,0.4,0.7,0.5,1.2,0.5
				C26.9,83.9,27.3,82.8,27.3,81.5z"/>
			<path id="XMLID_277_" class="st5" d="M30,83.4v-7.9h1.5v7.7c0,0.5,0.1,0.6,0.4,0.6c0.3,0,0.5-0.2,0.6-0.4v1.3
				c-0.1,0.2-0.4,0.4-1,0.4C30.5,85.2,30,84.6,30,83.4z"/>
			<path id="XMLID_274_" class="st5" d="M33.2,83.2c0-1.4,1-2,2.7-2.3l0.9-0.2c0-1.2-0.5-1.6-1.4-1.6c-0.9,0-1.7,0.5-2,1.3v-1.7
				c0.2-0.4,0.9-1,2.2-1c1.7,0,2.7,0.9,2.7,2.9V85H37l-0.1-0.6c-0.2,0.4-0.7,0.8-1.6,0.8C34.1,85.2,33.2,84.6,33.2,83.2z M36.8,81.9
				L36,82.1c-1,0.3-1.4,0.6-1.4,1.1c0,0.6,0.4,0.8,0.9,0.8c0.6,0,1.1-0.3,1.3-0.6V81.9z"/>
			<path id="XMLID_272_" class="st5" d="M39.5,81.6c0-2.5,1.5-3.7,3.1-3.7c0.9,0,1.5,0.3,1.8,0.6v1.6c-0.4-0.6-0.9-0.8-1.7-0.8
				c-1,0-1.7,0.9-1.7,2.3c0,1.4,0.6,2.3,1.7,2.3c0.8,0,1.3-0.4,1.7-0.9v1.5c-0.3,0.4-1,0.8-1.9,0.8C40.7,85.2,39.5,84.1,39.5,81.6z"
				/>
			<path id="XMLID_269_" class="st5" d="M45.3,81.6c0-2.5,1.5-3.7,2.9-3.7c1.4,0,2.8,0.7,2.8,3.3v0.9h-4.2c0.1,1,0.6,1.8,1.8,1.8
				c1.1,0,1.8-0.5,2.1-1v1.5c-0.3,0.4-1,0.9-2.2,0.9C46.5,85.2,45.3,84.1,45.3,81.6z M49.6,81L49.6,81c0-1.1-0.4-1.7-1.4-1.7
				c-0.8,0-1.3,0.9-1.4,1.7H49.6z"/>
			<path id="XMLID_266_" class="st5" d="M53.5,84.5L53.3,85h-1.1v-9.4h1.5v3.1c0.2-0.4,0.7-0.8,1.6-0.8c1.5,0,2.6,1,2.6,3.5
				s-1.3,3.8-2.8,3.8C54.2,85.2,53.8,84.9,53.5,84.5z M53.7,83.4c0.3,0.4,0.7,0.5,1.2,0.5c1,0,1.5-1.1,1.5-2.5
				c0-1.4-0.4-2.2-1.4-2.2c-0.6,0-1,0.3-1.3,0.6V83.4z"/>
			<path id="XMLID_263_" class="st5" d="M58.7,81.6c0-2.5,1.5-3.7,3.1-3.7c1.7,0,3,1.2,3,3.7c0,2.5-1.5,3.7-3.1,3.7
				C60,85.2,58.7,84.1,58.7,81.6z M63.3,81.6c0-1.4-0.5-2.3-1.5-2.3c-1,0-1.5,1-1.5,2.3c0,1.4,0.5,2.3,1.5,2.3
				C62.8,83.9,63.3,82.9,63.3,81.6z"/>
			<path id="XMLID_260_" class="st5" d="M68.8,78.1h1.4l0.1,0.6c0.2-0.4,0.7-0.8,1.6-0.8c1.5,0,2.6,1,2.6,3.5s-1.3,3.8-2.8,3.8
				c-0.5,0-1.1-0.1-1.4-0.5v2.7h-1.5V78.1z M72.9,81.5c0-1.4-0.4-2.2-1.4-2.2c-0.7,0-1.1,0.3-1.3,0.6v3.6c0.3,0.4,0.7,0.5,1.2,0.5
				C72.5,83.9,72.9,82.8,72.9,81.5z"/>
			<path id="XMLID_257_" class="st5" d="M75.3,83.2c0-1.4,1-2,2.7-2.3l0.9-0.2c0-1.2-0.5-1.6-1.4-1.6c-0.9,0-1.7,0.5-2,1.3v-1.7
				c0.2-0.4,0.9-1,2.2-1c1.7,0,2.7,0.9,2.7,2.9V85h-1.4L79,84.4c-0.2,0.4-0.7,0.8-1.6,0.8C76.3,85.2,75.3,84.6,75.3,83.2z M79,81.9
				l-0.8,0.2c-1,0.3-1.4,0.6-1.4,1.1c0,0.6,0.4,0.8,0.9,0.8c0.6,0,1.1-0.3,1.3-0.6V81.9z"/>
			<path id="XMLID_255_" class="st5" d="M82.2,83.2v-3.8h-0.8v-0.4l0.6-0.9l1.1-1.7h0.5v1.7h1.6v1.3h-1.6v3.7c0,0.5,0.2,0.8,0.6,0.8
				c0.5,0,0.8-0.3,1-0.7v1.4c-0.2,0.3-0.6,0.6-1.3,0.6C82.7,85.2,82.2,84.5,82.2,83.2z"/>
			<path id="XMLID_252_" class="st5" d="M86.4,76.5c0-0.5,0.3-0.8,0.8-0.8c0.5,0,0.8,0.3,0.8,0.8c0,0.5-0.3,0.8-0.8,0.8
				C86.6,77.3,86.4,77,86.4,76.5z M86.4,78.1h1.5V85h-1.5V78.1z"/>
			<path id="XMLID_249_" class="st5" d="M89.1,81.6c0-2.5,1.5-3.7,2.9-3.7c1.4,0,2.8,0.7,2.8,3.3v0.9h-4.2c0.1,1,0.6,1.8,1.8,1.8
				c1.1,0,1.8-0.5,2.1-1v1.5c-0.3,0.4-1,0.9-2.2,0.9C90.4,85.2,89.1,84.1,89.1,81.6z M93.4,81L93.4,81c0-1.1-0.4-1.7-1.4-1.7
				c-0.8,0-1.3,0.9-1.4,1.7H93.4z"/>
			<path id="XMLID_247_" class="st5" d="M96.1,78.1h1.4l0.1,0.6c0.2-0.4,0.8-0.8,1.6-0.8c1.7,0,2.3,0.9,2.3,2.8V85H100v-4
				c0-1.3-0.3-1.9-1.2-1.9c-0.7,0-1.1,0.4-1.3,0.7V85h-1.5V78.1z"/>
			<path id="XMLID_245_" class="st5" d="M103.2,83.2v-3.8h-0.8v-0.4l0.6-0.9l1.1-1.7h0.5v1.7h1.6v1.3h-1.6v3.7
				c0,0.5,0.2,0.8,0.6,0.8c0.5,0,0.8-0.3,1-0.7v1.4c-0.2,0.3-0.6,0.6-1.3,0.6C103.7,85.2,103.2,84.5,103.2,83.2z"/>
			<path id="XMLID_243_" class="st5" d="M107.2,84.6V83c0.4,0.5,0.9,0.9,1.8,0.9s1.2-0.4,1.2-0.8c0-0.5-0.2-0.6-0.9-0.8l-0.3-0.1
				c-1.2-0.2-1.8-0.9-1.8-2.1c0-1.2,0.8-2.2,2.4-2.2c0.8,0,1.5,0.3,1.8,0.6v1.6c-0.4-0.5-0.9-0.9-1.8-0.9c-0.8,0-1.1,0.3-1.1,0.8
				c0,0.4,0.2,0.7,0.9,0.8l0.3,0.1c1.2,0.3,1.9,0.8,1.9,2.1c0,1.2-0.8,2.3-2.6,2.3C108.2,85.2,107.5,84.9,107.2,84.6z"/>
			<path id="XMLID_240_" class="st5" d="M10.8,96.6c0-2.5,1.5-3.7,2.9-3.7c1.4,0,2.8,0.7,2.8,3.3v0.9h-4.2c0.1,1,0.6,1.8,1.8,1.8
				c1.1,0,1.8-0.5,2.1-1v1.5c-0.3,0.4-1,0.9-2.2,0.9C12.1,100.2,10.8,99.1,10.8,96.6z M15.1,96L15.1,96c0-1.1-0.4-1.7-1.4-1.7
				c-0.8,0-1.3,0.9-1.4,1.7H15.1z"/>
			<path id="XMLID_238_" class="st5" d="M19.3,96.4l-2-3.3h1.6l1.3,2.1l1.2-2.1h1.5l-2.1,3.2l2.3,3.7h-1.6L20,97.6l-1.4,2.5H17
				L19.3,96.4z"/>
			<path id="XMLID_235_" class="st5" d="M24,93.1h1.4l0.1,0.6c0.2-0.4,0.7-0.8,1.6-0.8c1.5,0,2.6,1,2.6,3.5s-1.3,3.8-2.8,3.8
				c-0.5,0-1.1-0.1-1.4-0.5v2.7H24V93.1z M28.1,96.5c0-1.4-0.4-2.2-1.4-2.2c-0.7,0-1.1,0.3-1.3,0.6v3.6c0.3,0.4,0.7,0.5,1.2,0.5
				C27.7,99,28.1,97.9,28.1,96.5z"/>
			<path id="XMLID_232_" class="st5" d="M30.5,96.6c0-2.5,1.5-3.7,2.9-3.7c1.4,0,2.8,0.7,2.8,3.3v0.9H32c0.1,1,0.6,1.8,1.8,1.8
				c1.1,0,1.8-0.5,2.1-1v1.5c-0.3,0.4-1,0.9-2.2,0.9C31.8,100.2,30.5,99.1,30.5,96.6z M34.8,96L34.8,96c0-1.1-0.4-1.7-1.4-1.7
				c-0.8,0-1.3,0.9-1.4,1.7H34.8z"/>
			<path id="XMLID_230_" class="st5" d="M37.4,93.1h1.3l0.1,1c0.1-0.8,0.6-1.2,1.2-1.2c0.3,0,0.5,0.1,0.6,0.2v1.5
				c-0.1-0.1-0.4-0.2-0.7-0.2c-0.5,0-0.9,0.3-1.1,0.7v5h-1.5V93.1z"/>
			<path id="XMLID_227_" class="st5" d="M41.6,91.5c0-0.5,0.3-0.8,0.8-0.8c0.5,0,0.8,0.3,0.8,0.8c0,0.5-0.3,0.8-0.8,0.8
				C41.9,92.3,41.6,92,41.6,91.5z M41.7,93.1h1.5v6.9h-1.5V93.1z"/>
			<path id="XMLID_224_" class="st5" d="M44.4,96.6c0-2.5,1.5-3.7,2.9-3.7c1.4,0,2.8,0.7,2.8,3.3v0.9h-4.2c0.1,1,0.6,1.8,1.8,1.8
				c1.1,0,1.8-0.5,2.1-1v1.5c-0.3,0.4-1,0.9-2.2,0.9C45.6,100.2,44.4,99.1,44.4,96.6z M48.6,96L48.6,96c0-1.1-0.4-1.7-1.4-1.7
				c-0.8,0-1.3,0.9-1.4,1.7H48.6z"/>
			<path id="XMLID_222_" class="st5" d="M51.3,93.1h1.4l0.1,0.6c0.2-0.4,0.8-0.8,1.6-0.8c1.7,0,2.3,0.9,2.3,2.8v4.3h-1.5v-4
				c0-1.3-0.3-1.9-1.2-1.9c-0.7,0-1.1,0.4-1.3,0.7v5.2h-1.5V93.1z"/>
			<path id="XMLID_220_" class="st5" d="M57.8,96.6c0-2.5,1.5-3.7,3.1-3.7c0.9,0,1.5,0.3,1.8,0.6v1.6c-0.4-0.6-0.9-0.8-1.7-0.8
				c-1,0-1.7,0.9-1.7,2.3c0,1.4,0.6,2.3,1.7,2.3c0.8,0,1.3-0.4,1.7-0.9v1.5c-0.3,0.4-1,0.8-1.9,0.8C59.1,100.2,57.8,99.1,57.8,96.6z
				"/>
			<path id="XMLID_217_" class="st5" d="M63.6,96.6c0-2.5,1.5-3.7,2.9-3.7c1.4,0,2.8,0.7,2.8,3.3v0.9h-4.2c0.1,1,0.6,1.8,1.8,1.8
				c1.1,0,1.8-0.5,2.1-1v1.5c-0.3,0.4-1,0.9-2.2,0.9C64.9,100.2,63.6,99.1,63.6,96.6z M67.9,96L67.9,96c0-1.1-0.4-1.7-1.4-1.7
				c-0.8,0-1.3,0.9-1.4,1.7H67.9z"/>
			<path id="XMLID_214_" class="st5" d="M70.2,96.7c0-2.5,1.2-3.8,2.8-3.8c0.5,0,1.1,0.1,1.4,0.5v-2.8h1.5v9.4h-1.4l-0.1-0.6
				c-0.2,0.4-0.7,0.8-1.6,0.8C71.4,100.2,70.2,99.2,70.2,96.7z M74.4,94.7c-0.3-0.4-0.7-0.5-1.2-0.5c-1,0-1.5,1.1-1.5,2.5
				c0,1.4,0.4,2.2,1.4,2.2c0.7,0,1.1-0.3,1.3-0.6V94.7z"/>
			<path id="XMLID_212_" class="st5" d="M79.9,96.6c0-2.5,1.5-3.7,3.1-3.7c0.9,0,1.5,0.3,1.8,0.6v1.6c-0.4-0.6-0.9-0.8-1.7-0.8
				c-1,0-1.7,0.9-1.7,2.3c0,1.4,0.6,2.3,1.7,2.3c0.8,0,1.3-0.4,1.7-0.9v1.5c-0.3,0.4-1,0.8-1.9,0.8C81.1,100.2,79.9,99.1,79.9,96.6z
				"/>
			<path id="XMLID_210_" class="st5" d="M86,98.5v-7.9h1.5v7.7c0,0.5,0.1,0.6,0.4,0.6c0.3,0,0.5-0.2,0.6-0.4v1.3
				c-0.1,0.2-0.4,0.4-1,0.4C86.5,100.2,86,99.6,86,98.5z"/>
			<path id="XMLID_207_" class="st5" d="M89.4,91.5c0-0.5,0.3-0.8,0.8-0.8c0.5,0,0.8,0.3,0.8,0.8c0,0.5-0.3,0.8-0.8,0.8
				C89.7,92.3,89.4,92,89.4,91.5z M89.5,93.1H91v6.9h-1.5V93.1z"/>
			<path id="XMLID_205_" class="st5" d="M92.5,93.1h1.4l0.1,0.6c0.2-0.4,0.8-0.8,1.6-0.8c1.7,0,2.3,0.9,2.3,2.8v4.3h-1.5v-4
				c0-1.3-0.3-1.9-1.2-1.9c-0.7,0-1.1,0.4-1.3,0.7v5.2h-1.5V93.1z"/>
			<path id="XMLID_202_" class="st5" d="M99.3,91.5c0-0.5,0.3-0.8,0.8-0.8c0.5,0,0.8,0.3,0.8,0.8c0,0.5-0.3,0.8-0.8,0.8
				C99.6,92.3,99.3,92,99.3,91.5z M99.4,93.1h1.5v6.9h-1.5V93.1z"/>
			<path id="XMLID_200_" class="st5" d="M102.1,96.6c0-2.5,1.5-3.7,3.1-3.7c0.9,0,1.5,0.3,1.8,0.6v1.6c-0.4-0.6-0.9-0.8-1.7-0.8
				c-1,0-1.7,0.9-1.7,2.3c0,1.4,0.6,2.3,1.7,2.3c0.8,0,1.3-0.4,1.7-0.9v1.5c-0.3,0.4-1,0.8-1.9,0.8
				C103.3,100.2,102.1,99.1,102.1,96.6z"/>
			<path id="XMLID_197_" class="st5" d="M107.9,98.3c0-1.4,1-2,2.7-2.3l0.9-0.2c0-1.2-0.5-1.6-1.4-1.6c-0.9,0-1.7,0.5-2,1.3v-1.7
				c0.2-0.4,0.9-1,2.2-1c1.7,0,2.7,0.9,2.7,2.9v4.2h-1.4l-0.1-0.6c-0.2,0.4-0.7,0.8-1.6,0.8C108.9,100.2,107.9,99.7,107.9,98.3z
				 M111.6,96.9l-0.8,0.2c-1,0.3-1.4,0.6-1.4,1.1c0,0.6,0.4,0.8,0.9,0.8c0.6,0,1.1-0.3,1.3-0.6V96.9z"/>
			<path id="XMLID_195_" class="st5" d="M114.5,98.5v-7.9h1.5v7.7c0,0.5,0.1,0.6,0.4,0.6c0.3,0,0.5-0.2,0.6-0.4v1.3
				c-0.1,0.2-0.4,0.4-1,0.4C115,100.2,114.5,99.6,114.5,98.5z"/>
			<path id="XMLID_193_" class="st5" d="M118,98.5v-7.9h1.5v7.7c0,0.5,0.1,0.6,0.4,0.6c0.3,0,0.5-0.2,0.6-0.4v1.3
				c-0.1,0.2-0.4,0.4-1,0.4C118.5,100.2,118,99.6,118,98.5z"/>
			<path id="XMLID_191_" class="st5" d="M121,102.2v-1.4c0.3,0.3,0.6,0.5,1,0.5c0.5,0,0.9-0.2,1.2-1.2l-2.5-7.1h1.6l1.6,5l1.2-5h1.5
				l-1.8,6.5c-0.5,1.7-1.1,3.1-2.8,3.1C121.6,102.7,121.2,102.5,121,102.2z"/>
			<path id="XMLID_189_" class="st5" d="M10.5,114.7v-1.6c0.4,0.5,0.9,0.9,1.8,0.9s1.2-0.4,1.2-0.8c0-0.5-0.2-0.6-0.9-0.8l-0.3-0.1
				c-1.2-0.2-1.8-0.9-1.8-2.1c0-1.2,0.8-2.2,2.4-2.2c0.8,0,1.5,0.3,1.8,0.6v1.6c-0.4-0.5-0.9-0.9-1.8-0.9c-0.8,0-1.1,0.3-1.1,0.8
				s0.2,0.7,0.9,0.8l0.3,0.1c1.2,0.3,1.9,0.8,1.9,2.1c0,1.2-0.8,2.3-2.6,2.3C11.5,115.3,10.8,115,10.5,114.7z"/>
			<path id="XMLID_186_" class="st5" d="M16,106.5c0-0.5,0.3-0.8,0.8-0.8c0.5,0,0.8,0.3,0.8,0.8c0,0.5-0.3,0.8-0.8,0.8
				C16.3,107.3,16,107.1,16,106.5z M16.1,108.2h1.5v6.9h-1.5V108.2z"/>
			<path id="XMLID_183_" class="st5" d="M18.8,117v-1.3c0.5,0.5,1.4,0.7,2.6,0.7c1.5,0,2.1-0.3,2.1-0.9c0-0.5-0.5-0.7-1.4-0.7
				c-0.9,0-2.2,0.2-2.7,0.4v-1.2l0.9-1.6c-0.9-0.3-1.4-1.1-1.4-2.2c0-1.5,1.1-2.4,2.7-2.4c0.7,0,1.3,0.2,1.7,0.5
				c0.2-0.3,0.7-0.5,1.2-0.5c0.2,0,0.3,0,0.5,0.1v1.3c-0.1-0.1-0.3-0.1-0.4-0.1c-0.3,0-0.5,0.1-0.6,0.2c0.1,0.3,0.2,0.6,0.2,1
				c0,1.5-1.1,2.4-2.6,2.4h-0.2l-0.5,1c0.3-0.1,1-0.2,1.6-0.2c1.5,0,2.5,0.4,2.5,1.8c0,1.4-1.2,2.3-3.4,2.3
				C20.3,117.7,19.3,117.4,18.8,117z M22.7,110.4c0-0.8-0.5-1.2-1.2-1.2c-0.7,0-1.2,0.4-1.2,1.2c0,0.8,0.5,1.2,1.2,1.2
				C22.2,111.5,22.7,111.1,22.7,110.4z"/>
			<path id="XMLID_181_" class="st5" d="M25.8,108.2h1.4l0.1,0.6c0.2-0.4,0.8-0.8,1.6-0.8c1.7,0,2.3,0.9,2.3,2.8v4.3h-1.5v-4
				c0-1.3-0.3-1.9-1.2-1.9c-0.7,0-1.1,0.4-1.3,0.7v5.2h-1.5V108.2z"/>
			<path id="XMLID_178_" class="st5" d="M32.6,106.5c0-0.5,0.3-0.8,0.8-0.8c0.5,0,0.8,0.3,0.8,0.8c0,0.5-0.3,0.8-0.8,0.8
				C32.9,107.3,32.6,107.1,32.6,106.5z M32.7,108.2h1.5v6.9h-1.5V108.2z"/>
			<path id="XMLID_175_" class="st5" d="M36,109.4h-0.8V109l0.7-0.7c-0.1-0.2-0.2-0.5-0.2-1c0-1.3,1-1.9,2-1.9
				c0.7,0,1.1,0.2,1.2,0.4v1.5c-0.2-0.4-0.5-0.6-1-0.6s-0.8,0.3-0.8,0.8c0,0.3,0.1,0.5,0.2,0.6h3.8v6.9h-1.5v-5.7h-2.2v5.7H36V109.4
				z M39.6,106.5c0-0.5,0.3-0.8,0.8-0.8c0.5,0,0.8,0.3,0.8,0.8c0,0.5-0.3,0.8-0.8,0.8C39.9,107.3,39.6,107.1,39.6,106.5z"/>
			<path id="XMLID_173_" class="st5" d="M42.4,111.6c0-2.5,1.5-3.7,3.1-3.7c0.9,0,1.5,0.3,1.8,0.6v1.6c-0.4-0.6-0.9-0.8-1.7-0.8
				c-1,0-1.7,0.9-1.7,2.3c0,1.4,0.6,2.3,1.7,2.3c0.8,0,1.3-0.4,1.7-0.9v1.5c-0.3,0.4-1,0.8-1.9,0.8
				C43.6,115.3,42.4,114.1,42.4,111.6z"/>
			<path id="XMLID_170_" class="st5" d="M48.2,113.3c0-1.4,1-2,2.7-2.3l0.9-0.2c0-1.2-0.5-1.6-1.4-1.6c-0.9,0-1.7,0.5-2,1.3v-1.7
				c0.2-0.4,0.9-1,2.2-1c1.7,0,2.7,0.9,2.7,2.9v4.2H52l-0.1-0.6c-0.2,0.4-0.7,0.8-1.6,0.8C49.2,115.3,48.2,114.7,48.2,113.3z
				 M51.9,111.9l-0.8,0.2c-1,0.3-1.4,0.6-1.4,1.1c0,0.6,0.4,0.8,0.9,0.8c0.6,0,1.1-0.3,1.3-0.6V111.9z"/>
			<path id="XMLID_168_" class="st5" d="M54.9,108.2h1.4l0.1,0.6c0.2-0.4,0.8-0.8,1.6-0.8c1.7,0,2.3,0.9,2.3,2.8v4.3h-1.5v-4
				c0-1.3-0.3-1.9-1.2-1.9c-0.7,0-1.1,0.4-1.3,0.7v5.2h-1.5V108.2z"/>
			<path id="XMLID_166_" class="st5" d="M62,113.2v-3.8h-0.8V109l0.6-0.9l1.1-1.7h0.5v1.7H65v1.3h-1.6v3.7c0,0.5,0.2,0.8,0.6,0.8
				c0.5,0,0.8-0.3,1-0.7v1.4c-0.2,0.3-0.6,0.6-1.3,0.6C62.5,115.3,62,114.6,62,113.2z"/>
			<path id="XMLID_164_" class="st5" d="M68.4,108.2h1.5l1,4.1l1.4-4.1h0.6l1.4,4.1l0.9-4.1h1.4l-1.7,6.9h-0.9l-1.5-4.1l-1.5,4.1
				h-0.9L68.4,108.2z"/>
			<path id="XMLID_161_" class="st5" d="M77.2,111.6c0-2.5,1.5-3.7,2.9-3.7c1.4,0,2.8,0.7,2.8,3.3v0.9h-4.2c0.1,1,0.6,1.8,1.8,1.8
				c1.1,0,1.8-0.5,2.1-1v1.5c-0.3,0.4-1,0.9-2.2,0.9C78.5,115.3,77.2,114.1,77.2,111.6z M81.5,111L81.5,111c0-1.1-0.4-1.7-1.4-1.7
				c-0.8,0-1.3,0.9-1.4,1.7H81.5z"/>
			<path id="XMLID_158_" class="st5" d="M84,106.5c0-0.5,0.3-0.8,0.8-0.8c0.5,0,0.8,0.3,0.8,0.8c0,0.5-0.3,0.8-0.8,0.8
				C84.3,107.3,84,107.1,84,106.5z M84.1,108.2h1.5v6.9h-1.5V108.2z"/>
			<path id="XMLID_155_" class="st5" d="M86.8,117v-1.3c0.5,0.5,1.4,0.7,2.6,0.7c1.5,0,2.1-0.3,2.1-0.9c0-0.5-0.5-0.7-1.4-0.7
				c-0.9,0-2.2,0.2-2.7,0.4v-1.2l0.9-1.6c-0.9-0.3-1.4-1.1-1.4-2.2c0-1.5,1.1-2.4,2.7-2.4c0.7,0,1.3,0.2,1.7,0.5
				c0.2-0.3,0.7-0.5,1.2-0.5c0.2,0,0.3,0,0.5,0.1v1.3c-0.1-0.1-0.3-0.1-0.4-0.1c-0.3,0-0.5,0.1-0.6,0.2c0.1,0.3,0.2,0.6,0.2,1
				c0,1.5-1.1,2.4-2.6,2.4h-0.2l-0.5,1c0.3-0.1,1-0.2,1.6-0.2c1.5,0,2.5,0.4,2.5,1.8c0,1.4-1.2,2.3-3.4,2.3
				C88.3,117.7,87.3,117.4,86.8,117z M90.7,110.4c0-0.8-0.5-1.2-1.2-1.2c-0.7,0-1.2,0.4-1.2,1.2c0,0.8,0.5,1.2,1.2,1.2
				C90.2,111.5,90.7,111.1,90.7,110.4z"/>
			<path id="XMLID_153_" class="st5" d="M93.8,105.6h1.5v3.1c0.3-0.4,0.8-0.8,1.6-0.8c1.7,0,2.3,0.9,2.3,2.8v4.3h-1.5v-4
				c0-1.3-0.3-1.9-1.2-1.9c-0.7,0-1.1,0.4-1.3,0.7v5.2h-1.5V105.6z"/>
			<path id="XMLID_151_" class="st5" d="M100.9,113.2v-3.8h-0.8V109l0.6-0.9l1.1-1.7h0.5v1.7h1.6v1.3h-1.6v3.7
				c0,0.5,0.2,0.8,0.6,0.8c0.5,0,0.8-0.3,1-0.7v1.4c-0.2,0.3-0.6,0.6-1.3,0.6C101.4,115.3,100.9,114.6,100.9,113.2z"/>
			<path id="XMLID_148_" class="st5" d="M107.5,117v-1.3c0.5,0.5,1.4,0.7,2.6,0.7c1.5,0,2.1-0.3,2.1-0.9c0-0.5-0.5-0.7-1.4-0.7
				c-0.9,0-2.2,0.2-2.7,0.4v-1.2l0.9-1.6c-0.9-0.3-1.4-1.1-1.4-2.2c0-1.5,1.1-2.4,2.7-2.4c0.7,0,1.3,0.2,1.7,0.5
				c0.2-0.3,0.7-0.5,1.2-0.5c0.2,0,0.3,0,0.5,0.1v1.3c-0.1-0.1-0.3-0.1-0.4-0.1c-0.3,0-0.5,0.1-0.6,0.2c0.1,0.3,0.2,0.6,0.2,1
				c0,1.5-1.1,2.4-2.6,2.4H110l-0.5,1c0.3-0.1,1-0.2,1.6-0.2c1.5,0,2.5,0.4,2.5,1.8c0,1.4-1.2,2.3-3.4,2.3
				C109,117.7,108,117.4,107.5,117z M111.4,110.4c0-0.8-0.5-1.2-1.2-1.2c-0.7,0-1.2,0.4-1.2,1.2c0,0.8,0.5,1.2,1.2,1.2
				C110.9,111.5,111.4,111.1,111.4,110.4z"/>
			<path id="XMLID_145_" class="st5" d="M114.2,113.3c0-1.4,1-2,2.7-2.3l0.9-0.2c0-1.2-0.5-1.6-1.4-1.6c-0.9,0-1.7,0.5-2,1.3v-1.7
				c0.2-0.4,0.9-1,2.2-1c1.7,0,2.7,0.9,2.7,2.9v4.2H118l-0.1-0.6c-0.2,0.4-0.7,0.8-1.6,0.8C115.1,115.3,114.2,114.7,114.2,113.3z
				 M117.8,111.9l-0.8,0.2c-1,0.3-1.4,0.6-1.4,1.1c0,0.6,0.4,0.8,0.9,0.8c0.6,0,1.1-0.3,1.3-0.6V111.9z"/>
			<path id="XMLID_142_" class="st5" d="M120.7,106.5c0-0.5,0.3-0.8,0.8-0.8c0.5,0,0.8,0.3,0.8,0.8c0,0.5-0.3,0.8-0.8,0.8
				C121,107.3,120.7,107.1,120.7,106.5z M120.8,108.2h1.5v6.9h-1.5V108.2z"/>
			<path id="XMLID_140_" class="st5" d="M123.9,108.2h1.4l0.1,0.6c0.2-0.4,0.8-0.8,1.6-0.8c1.7,0,2.3,0.9,2.3,2.8v4.3h-1.5v-4
				c0-1.3-0.3-1.9-1.2-1.9c-0.7,0-1.1,0.4-1.3,0.7v5.2h-1.5V108.2z"/>
			<path id="XMLID_138_" class="st5" d="M28.3,126.3c0-2.1,0.9-4.2,2.4-5.1H32c-1.5,0.9-2.4,2.7-2.4,5.1c0,2.5,1,4.4,2.4,5.3h-1.3
				C29.2,130.8,28.3,128.5,28.3,126.3z"/>
			<path id="XMLID_135_" class="st5" d="M32.7,126.6l2.6-1.4l-2.6-1.4v-1.6l5.2,3v0.1l-5.2,3V126.6z M32.7,128.8h4.9v1.3h-4.9V128.8
				z"/>
			<path id="XMLID_133_" class="st5" d="M44.5,123h-3.3v-1.4h5.1v0.2l-2.7,8.4h-1.5L44.5,123z"/>
			<path id="XMLID_128_" class="st5" d="M49.5,123.6c0-1.8,0.8-2.4,1.8-2.4c0.4,0,0.7,0.1,1,0.3c0.5,0.3,0.8,0.4,1.5,0.4
				c0.8,0,1.3-0.3,1.6-0.7l0.7,0.4l-4.7,8.5h-1l4.1-7.5c-0.2,0.1-0.5,0.2-0.8,0.2s-0.6-0.1-0.9-0.2c0.1,0.3,0.1,0.6,0.1,0.9
				c0,1.8-0.8,2.3-1.8,2.3C50.3,125.9,49.5,125.3,49.5,123.6z M51.9,123.6c0-0.9-0.2-1.3-0.7-1.3c-0.5,0-0.7,0.4-0.7,1.3
				c0,0.9,0.2,1.3,0.7,1.3C51.8,124.9,51.9,124.5,51.9,123.6z M53.7,128c0-1.8,0.8-2.4,1.8-2.4c1,0,1.8,0.6,1.8,2.4
				c0,1.8-0.8,2.3-1.8,2.3C54.5,130.3,53.7,129.7,53.7,128z M56.1,128c0-0.9-0.2-1.3-0.7-1.3c-0.5,0-0.7,0.4-0.7,1.3
				c0,0.9,0.2,1.3,0.7,1.3C56,129.3,56.1,128.9,56.1,128z"/>
			<path id="XMLID_125_" class="st5" d="M61.1,121.6c0-0.5,0.3-0.8,0.8-0.8c0.5,0,0.8,0.3,0.8,0.8c0,0.5-0.3,0.8-0.8,0.8
				C61.3,122.4,61.1,122.1,61.1,121.6z M61.1,123.2h1.5v6.9h-1.5V123.2z"/>
			<path id="XMLID_123_" class="st5" d="M64.2,123.2h1.4l0.1,0.6c0.2-0.4,0.8-0.8,1.6-0.8c1.7,0,2.3,0.9,2.3,2.8v4.3h-1.5v-4
				c0-1.3-0.3-1.9-1.2-1.9c-0.7,0-1.1,0.4-1.3,0.7v5.2h-1.5V123.2z"/>
			<path id="XMLID_121_" class="st5" d="M70.7,126.7c0-2.5,1.5-3.7,3.1-3.7c0.9,0,1.5,0.3,1.8,0.6v1.6c-0.4-0.6-0.9-0.8-1.7-0.8
				c-1,0-1.7,0.9-1.7,2.3c0,1.4,0.6,2.3,1.7,2.3c0.8,0,1.3-0.4,1.7-0.9v1.5c-0.3,0.4-1,0.8-1.9,0.8C72,130.3,70.7,129.2,70.7,126.7z
				"/>
			<path id="XMLID_119_" class="st5" d="M76.9,123.2h1.3l0.1,1c0.1-0.8,0.6-1.2,1.2-1.2c0.3,0,0.5,0.1,0.6,0.2v1.5
				c-0.1-0.1-0.4-0.2-0.7-0.2c-0.5,0-0.9,0.3-1.1,0.7v5h-1.5V123.2z"/>
			<path id="XMLID_116_" class="st5" d="M80.8,126.7c0-2.5,1.5-3.7,2.9-3.7c1.4,0,2.8,0.7,2.8,3.3v0.9h-4.2c0.1,1,0.6,1.8,1.8,1.8
				c1.1,0,1.8-0.5,2.1-1v1.5c-0.3,0.4-1,0.9-2.2,0.9C82.1,130.3,80.8,129.2,80.8,126.7z M85.1,126.1L85.1,126.1
				c0-1.1-0.4-1.7-1.4-1.7c-0.8,0-1.3,0.9-1.4,1.7H85.1z"/>
			<path id="XMLID_113_" class="st5" d="M87.4,128.3c0-1.4,1-2,2.7-2.3l0.9-0.2c0-1.2-0.5-1.6-1.4-1.6c-0.9,0-1.7,0.5-2,1.3V124
				c0.2-0.4,0.9-1,2.2-1c1.7,0,2.7,0.9,2.7,2.9v4.2h-1.4l-0.1-0.6c-0.2,0.4-0.7,0.8-1.6,0.8C88.3,130.3,87.4,129.7,87.4,128.3z
				 M91,127l-0.8,0.2c-1,0.3-1.4,0.6-1.4,1.1c0,0.6,0.4,0.8,0.9,0.8c0.6,0,1.1-0.3,1.3-0.6V127z"/>
			<path id="XMLID_111_" class="st5" d="M93.8,129.7v-1.6c0.4,0.5,0.9,0.9,1.8,0.9s1.2-0.4,1.2-0.8c0-0.5-0.2-0.6-0.9-0.8l-0.3-0.1
				c-1.2-0.2-1.8-0.9-1.8-2.1c0-1.2,0.8-2.2,2.4-2.2c0.8,0,1.5,0.3,1.8,0.6v1.6c-0.4-0.5-0.9-0.9-1.8-0.9c-0.8,0-1.1,0.3-1.1,0.8
				c0,0.4,0.2,0.7,0.9,0.8l0.3,0.1c1.2,0.3,1.9,0.8,1.9,2.1c0,1.2-0.8,2.3-2.6,2.3C94.8,130.3,94.1,130,93.8,129.7z"/>
			<path id="XMLID_108_" class="st5" d="M99.1,126.7c0-2.5,1.5-3.7,2.9-3.7c1.4,0,2.8,0.7,2.8,3.3v0.9h-4.2c0.1,1,0.6,1.8,1.8,1.8
				c1.1,0,1.8-0.5,2.1-1v1.5c-0.3,0.4-1,0.9-2.2,0.9C100.3,130.3,99.1,129.2,99.1,126.7z M103.3,126.1L103.3,126.1
				c0-1.1-0.4-1.7-1.4-1.7c-0.8,0-1.3,0.9-1.4,1.7H103.3z"/>
			<path id="XMLID_106_" class="st5" d="M107.6,126.5c0-2.5-1-4.4-2.4-5.3h1.3c1.5,0.8,2.4,3.1,2.4,5.3c0,2.1-0.9,4.2-2.4,5.1h-1.3
				C106.7,130.7,107.6,128.9,107.6,126.5z"/>
		</g>
	</g>
</g>
<g id="XMLID_1_">
	<rect id="XMLID_102_" x="2" y="142.3" class="st1" width="133.2" height="16.9"/>
	<g id="XMLID_2_">
		<g id="XMLID_4_">
			<path id="XMLID_51_" class="st6" d="M16.6,152.6h-3.1v-0.3l1.8-5.2h1.4l-1.4,4.1h1.2l0.2-2.4H18v2.4h0.7v1.4H18v1.3h-1.4V152.6z"
				/>
			<path id="XMLID_49_" class="st6" d="M23.6,146.1h1.1l-4.6,8.6H19L23.6,146.1z"/>
			<path id="XMLID_47_" class="st6" d="M27.5,153.5l1.8-2.5c0.4-0.5,0.7-1,0.7-1.6c0-0.7-0.3-1-1-1c-0.6,0-1.2,0.4-1.6,0.8v-1.5
				c0.3-0.3,0.9-0.7,1.8-0.7c1.5,0,2.2,0.8,2.2,2.2c0,1.2-0.7,2-1.2,2.7l-0.5,0.7h1.8v1.4h-4V153.5z"/>
			<path id="XMLID_45_" class="st6" d="M32.3,153.7v-1.5c0.3,0.3,0.7,0.5,1.3,0.5c1,0,1.3-0.4,1.3-1c0-0.5-0.3-0.8-1.1-0.8h-0.5
				v-0.3l1.2-2.1h-2.2V147h4.1v0.3l-1.3,2.4c0.8,0.2,1.4,0.6,1.4,1.9c0,1.2-0.8,2.4-2.7,2.4C33.1,154,32.6,153.9,32.3,153.7z"/>
			<path id="XMLID_43_" class="st6" d="M37.2,153.5l1.8-2.5c0.4-0.5,0.7-1,0.7-1.6c0-0.7-0.3-1-1-1c-0.6,0-1.2,0.4-1.6,0.8v-1.5
				c0.3-0.3,0.9-0.7,1.8-0.7c1.5,0,2.2,0.8,2.2,2.2c0,1.2-0.7,2-1.2,2.7l-0.5,0.7h1.8v1.4h-4V153.5z"/>
			<path id="XMLID_40_" class="st6" d="M46.6,148.3h1.3l0.1,0.5c0.2-0.3,0.6-0.6,1.3-0.6c1.3,0,2.1,0.8,2.1,2.8c0,2-1,3.1-2.3,3.1
				c-0.4,0-0.9-0.1-1.1-0.4v2.1h-1.5V148.3z M49.9,151c0-1-0.2-1.6-1-1.6c-0.4,0-0.7,0.2-0.9,0.4v2.5c0.2,0.3,0.5,0.4,0.8,0.4
				C49.6,152.8,49.9,152,49.9,151z"/>
			<path id="XMLID_38_" class="st6" d="M52.2,152.5v-6.2h1.5v6c0,0.3,0.1,0.4,0.3,0.4c0.2,0,0.4-0.1,0.4-0.2v1.3
				c-0.1,0.1-0.4,0.3-0.9,0.3C52.7,154,52.2,153.5,52.2,152.5z"/>
			<path id="XMLID_35_" class="st6" d="M54.9,152.4c0-1.1,0.7-1.6,2.1-1.8l0.7-0.1c0-0.8-0.3-1-1-1c-0.7,0-1.4,0.4-1.7,1v-1.6
				c0.2-0.3,0.8-0.7,1.9-0.7c1.5,0,2.3,0.7,2.3,2.4v3.3H58l-0.1-0.5c-0.1,0.3-0.5,0.6-1.3,0.6C55.6,154,54.9,153.5,54.9,152.4z
				 M57.8,151.5l-0.6,0.1c-0.7,0.2-0.9,0.4-0.9,0.7c0,0.4,0.2,0.5,0.6,0.5c0.4,0,0.7-0.2,0.9-0.4V151.5z"/>
			<path id="XMLID_33_" class="st6" d="M60.1,151.1c0-2,1.2-2.9,2.5-2.9c0.7,0,1.3,0.2,1.5,0.5v1.5c-0.3-0.4-0.7-0.6-1.3-0.6
				c-0.8,0-1.2,0.6-1.2,1.6c0,1,0.4,1.6,1.2,1.6c0.6,0,1-0.2,1.3-0.6v1.4c-0.2,0.3-0.8,0.6-1.5,0.6C61.1,154,60.1,153.1,60.1,151.1z
				"/>
			<path id="XMLID_30_" class="st6" d="M64.7,151.1c0-2,1.2-2.9,2.5-2.9c1.2,0,2.3,0.6,2.3,2.7v0.7h-3.3c0.1,0.6,0.4,1.1,1.4,1.1
				c0.9,0,1.4-0.3,1.7-0.6v1.4c-0.3,0.3-0.9,0.6-1.9,0.6C65.7,154,64.7,153.1,64.7,151.1z M68.1,150.6L68.1,150.6
				c0-0.7-0.3-1.1-0.9-1.1c-0.6,0-0.9,0.5-0.9,1.1H68.1z"/>
			<path id="XMLID_27_" class="st6" d="M71.7,153.5l-0.2,0.4h-1.1v-7.6h1.5v2.5c0.1-0.3,0.6-0.6,1.3-0.6c1.2,0,2,0.8,2,2.8
				c0,2-1,3.1-2.3,3.1C72.2,154,71.9,153.8,71.7,153.5z M71.9,152.4c0.2,0.3,0.5,0.4,0.8,0.4c0.7,0,1-0.8,1-1.7c0-1-0.2-1.6-1-1.6
				c-0.4,0-0.7,0.2-0.9,0.4V152.4z"/>
			<path id="XMLID_24_" class="st6" d="M75.8,151.1c0-2.1,1.2-2.9,2.6-2.9c1.5,0,2.5,0.9,2.5,2.9c0,2.1-1.2,2.9-2.6,2.9
				C76.8,154,75.8,153.2,75.8,151.1z M79.4,151.1c0-1-0.3-1.6-1-1.6c-0.7,0-1,0.6-1,1.6c0,1,0.3,1.6,1,1.6
				C79.1,152.7,79.4,152.1,79.4,151.1z"/>
			<path id="XMLID_22_" class="st6" d="M86.2,147h2.1c1.9,0,2.7,0.8,2.7,2.3c0,1.5-0.8,2.6-2.7,2.6H88v-1.2h0.3
				c0.8,0,1.1-0.4,1.1-1.2c0-0.8-0.4-1.2-1.1-1.2h-0.5v5.6h-1.5V147z"/>
			<path id="XMLID_19_" class="st6" d="M91.4,152.4c0-1.1,0.7-1.6,2.1-1.8l0.7-0.1c0-0.8-0.3-1-1-1c-0.7,0-1.4,0.4-1.7,1v-1.6
				c0.2-0.3,0.8-0.7,1.9-0.7c1.5,0,2.3,0.7,2.3,2.4v3.3h-1.3l-0.1-0.5c-0.1,0.3-0.5,0.6-1.3,0.6C92.1,154,91.4,153.5,91.4,152.4z
				 M94.3,151.5l-0.6,0.1c-0.7,0.2-0.9,0.4-0.9,0.7c0,0.4,0.2,0.5,0.6,0.5c0.4,0,0.7-0.2,0.9-0.4V151.5z"/>
			<path id="XMLID_17_" class="st6" d="M97.1,152.3v-2.7h-0.6V149l0.5-0.7l0.9-1.3h0.7v1.3h1.2v1.3h-1.2v2.5c0,0.4,0.1,0.6,0.4,0.6
				c0.3,0,0.6-0.2,0.7-0.5v1.3c-0.2,0.2-0.5,0.5-1.2,0.5C97.5,154,97.1,153.4,97.1,152.3z"/>
			<path id="XMLID_14_" class="st6" d="M100.5,147c0-0.5,0.3-0.8,0.8-0.8c0.5,0,0.8,0.3,0.8,0.8s-0.3,0.8-0.8,0.8
				C100.8,147.8,100.5,147.5,100.5,147z M100.6,148.3h1.5v5.6h-1.5V148.3z"/>
			<path id="XMLID_11_" class="st6" d="M102.9,151.1c0-2,1.2-2.9,2.5-2.9c1.2,0,2.3,0.6,2.3,2.7v0.7h-3.3c0.1,0.6,0.4,1.1,1.4,1.1
				c0.9,0,1.4-0.3,1.7-0.6v1.4c-0.3,0.3-0.9,0.6-1.9,0.6C103.9,154,102.9,153.1,102.9,151.1z M106.3,150.6L106.3,150.6
				c0-0.7-0.3-1.1-0.9-1.1c-0.6,0-0.9,0.5-0.9,1.1H106.3z"/>
			<path id="XMLID_9_" class="st6" d="M108.5,148.3h1.3l0.1,0.5c0.2-0.4,0.7-0.6,1.3-0.6c1.3,0,1.8,0.8,1.8,2.3v3.5h-1.5v-3.2
				c0-0.9-0.2-1.3-0.8-1.3c-0.4,0-0.7,0.2-0.8,0.5v4h-1.5V148.3z"/>
			<path id="XMLID_7_" class="st6" d="M114.4,152.3v-2.7h-0.6V149l0.5-0.7l0.9-1.3h0.7v1.3h1.2v1.3h-1.2v2.5c0,0.4,0.1,0.6,0.4,0.6
				c0.3,0,0.6-0.2,0.7-0.5v1.3c-0.2,0.2-0.5,0.5-1.2,0.5C114.9,154,114.4,153.4,114.4,152.3z"/>
			<path id="XMLID_5_" class="st6" d="M117.8,153.6v-1.5c0.3,0.3,0.8,0.6,1.5,0.6c0.7,0,0.9-0.2,0.9-0.5c0-0.3-0.1-0.4-0.7-0.5
				l-0.3,0c-1.1-0.2-1.5-0.7-1.5-1.7c0-1,0.6-1.8,2.1-1.8c0.8,0,1.3,0.2,1.6,0.5v1.4c-0.3-0.4-0.9-0.6-1.5-0.6
				c-0.6,0-0.8,0.2-0.8,0.5c0,0.3,0.1,0.4,0.6,0.5l0.3,0c1.1,0.2,1.6,0.6,1.6,1.7c0,1-0.6,1.9-2.2,1.9
				C118.6,154,118.1,153.8,117.8,153.6z"/>
		</g>
	</g>
</g>
</svg>
