<!-- Generator: Adobe Illustrator 22.1.0, SVG Export Plug-In  -->
<svg version="1.1"
	 xmlns="http://www.w3.org/2000/svg" xmlns:xlink="http://www.w3.org/1999/xlink" xmlns:a="http://ns.adobe.com/AdobeSVGViewerExtensions/3.0/"
	 x="0px" y="0px" width="653.1px" height="391.5px" viewBox="0 0 653.1 391.5" style="enable-background:new 0 0 653.1 391.5;"
	 xml:space="preserve">
<style type="text/css">
	.st0{fill:none;stroke:#231F20;stroke-width:0.9283;stroke-miterlimit:10;}
	.st1{fill:#231F20;}
	.st2{font-family:'MyriadPro-Bold';}
	.st3{font-size:18.1989px;}
	.st4{fill:#808184;}
	.st5{fill:#490E67;}
	.st6{fill:#DB5D27;}
	.st7{fill:#669552;}
	.st8{fill:#292D73;}
	.st9{fill:#C29FD8;}
</style>
<defs>
</defs>
<g id="XMLID_1_">
	<line id="XMLID_602_" class="st0" x1="23.3" y1="52.4" x2="23.3" y2="387.4"/>
	<line id="XMLID_601_" class="st0" x1="231.6" y1="52.4" x2="231.6" y2="387.4"/>
	<line id="XMLID_600_" class="st0" x1="443.5" y1="52.4" x2="443.5" y2="387.4"/>
	<line id="XMLID_599_" class="st0" x1="652.6" y1="52.4" x2="652.6" y2="387.4"/>
	<line id="XMLID_598_" class="st0" x1="23.3" y1="82.6" x2="652.6" y2="82.6"/>
	<line id="XMLID_597_" class="st0" x1="23.3" y1="111.5" x2="652.6" y2="111.5"/>
	<line id="XMLID_596_" class="st0" x1="23.3" y1="141.4" x2="652.6" y2="141.4"/>
	<line id="XMLID_595_" class="st0" x1="23.3" y1="172" x2="652.6" y2="172"/>
	<line id="XMLID_594_" class="st0" x1="23.3" y1="202" x2="652.6" y2="202"/>
	<line id="XMLID_593_" class="st0" x1="23.3" y1="232.6" x2="652.6" y2="232.6"/>
	<line id="XMLID_592_" class="st0" x1="23.3" y1="52.4" x2="652.6" y2="52.4"/>
	<g id="XMLID_572_">
		<path id="XMLID_589_" class="st1" d="M44.8,318.5c-1.4,0-2.5,0-3.5,0.1v-2.8l1.4-0.1v0c-1.1-0.8-1.7-1.9-1.7-3.4
			c0-2.3,2-4.3,5.3-4.3c3.8,0,5.5,2.4,5.5,4.7c0,1.2-0.5,2.2-1.2,2.7v0h5.1v3.2H44.8z M47.2,315.3c0.3,0,0.5,0,0.7-0.1
			c0.9-0.2,1.5-1,1.5-1.9c0-1.4-1.2-2.2-2.9-2.2c-1.6,0-2.9,0.7-2.9,2.2c0,0.9,0.7,1.7,1.6,1.9c0.2,0,0.4,0.1,0.6,0.1H47.2z"/>
		<path id="XMLID_587_" class="st1" d="M36.6,305.9v-3.2h15v3.2H36.6z"/>
		<path id="XMLID_584_" class="st1" d="M51.6,294.2l-1,0.2v0.1c0.8,0.7,1.3,1.7,1.3,3c0,2.1-1.5,3.3-3.2,3.3c-2.7,0-4-2.4-3.9-6.1
			h-0.1c-0.5,0-1.3,0.3-1.3,1.9c0,1.1,0.4,2.2,0.8,2.9L42,300c-0.4-0.7-0.9-2.1-0.9-4c0-3.4,2-4.5,4.5-4.5h3.6c1,0,1.9,0,2.5-0.1
			V294.2z M46.8,294.6c0,1.7,0.4,3,1.6,3c0.8,0,1.2-0.5,1.2-1.3c0-0.8-0.5-1.5-1.2-1.7c-0.2,0-0.4-0.1-0.5-0.1H46.8z"/>
		<path id="XMLID_582_" class="st1" d="M51.4,281.2c0.3,0.6,0.5,1.6,0.5,2.9c0,3.3-2,5.5-5.3,5.5c-3,0-5.5-2.1-5.5-5.9
			c0-0.8,0.1-1.8,0.4-2.4l2.4,0.5c-0.2,0.4-0.3,1-0.3,1.8c0,1.7,1.2,2.8,2.9,2.8c1.9,0,2.9-1.3,2.9-2.8c0-0.8-0.1-1.4-0.3-1.8
			L51.4,281.2z"/>
		<path id="XMLID_579_" class="st1" d="M47.5,277.2c1.3-0.1,2-1.4,2-2.9c0-1.1-0.1-2-0.4-2.9l2.2-0.4c0.4,1.1,0.6,2.3,0.6,3.7
			c0,3.5-2,5.5-5.3,5.5c-2.6,0-5.5-1.6-5.5-5.2c0-3.3,2.6-4.6,5.2-4.6c0.5,0,1,0.1,1.3,0.1V277.2z M45.3,273.4
			c-0.8,0-2.1,0.3-2.1,1.8c0,1.4,1.2,1.9,2.1,2V273.4z"/>
		<path id="XMLID_576_" class="st1" d="M51.6,268.6c-0.7,0-1.9-0.1-3.1-0.1H36.6v-3.2h5.9v0c-0.9-0.6-1.5-1.7-1.5-3.1
			c0-2.5,2-4.3,5.2-4.3c3.7,0,5.6,2.4,5.6,4.7c0,1.2-0.4,2.4-1.7,3.1v0l1.4,0.1V268.6z M47.2,265.3c0.2,0,0.4,0,0.6-0.1
			c0.9-0.2,1.5-1,1.5-1.9c0-1.4-1.1-2.2-2.9-2.2c-1.6,0-2.9,0.7-2.9,2.2c0,0.9,0.7,1.7,1.6,1.9c0.2,0,0.4,0.1,0.6,0.1H47.2z"/>
		<path id="XMLID_573_" class="st1" d="M46.4,245.6c3.8,0,5.5,2.7,5.5,5.4c0,3-2,5.3-5.3,5.3c-3.3,0-5.5-2.2-5.5-5.5
			C41.1,247.7,43.3,245.6,46.4,245.6z M46.5,253.1c1.8,0,3.1-0.7,3.1-2.1c0-1.2-1.2-2-3.1-2c-1.5,0-3.1,0.6-3.1,2
			C43.4,252.5,44.9,253.1,46.5,253.1z"/>
	</g>
	<g id="XMLID_546_">
		<path id="XMLID_569_" class="st1" d="M76.3,375.4c1-0.2,2.3-0.3,3.7-0.3c2.3,0,3.8,0.4,5,1.3c1.3,0.9,2.1,2.5,2.1,4.6
			c0,2.3-0.9,4-2,5c-1.3,1.1-3.3,1.6-5.7,1.6c-1.4,0-2.5-0.1-3.1-0.2V375.4z M79.1,385.4c0.2,0.1,0.6,0.1,1,0.1
			c2.5,0,4.2-1.4,4.2-4.3c0-2.5-1.5-3.9-3.9-3.9c-0.6,0-1,0.1-1.3,0.1V385.4z"/>
		<path id="XMLID_567_" class="st1" d="M91.1,378.6l1.3,4.4c0.1,0.5,0.3,1.2,0.4,1.7H93c0.1-0.5,0.3-1.1,0.4-1.7l1.1-4.4h3l-2.1,5.9
			c-1.3,3.5-2.1,5-3.1,5.8c-1,0.8-2,1.1-2.7,1.2l-0.6-2.3c0.3-0.1,0.8-0.2,1.2-0.5c0.4-0.2,0.9-0.7,1.1-1.1c0.1-0.1,0.1-0.3,0.1-0.4
			c0-0.1,0-0.2-0.1-0.5l-3.3-8.1H91.1z"/>
		<path id="XMLID_565_" class="st1" d="M98.3,385.1c0.5,0.3,1.6,0.7,2.4,0.7c0.8,0,1.2-0.3,1.2-0.7s-0.3-0.7-1.3-1
			c-1.8-0.6-2.5-1.6-2.5-2.7c0-1.7,1.4-2.9,3.6-2.9c1,0,2,0.2,2.5,0.5l-0.5,1.9c-0.4-0.2-1.2-0.5-1.9-0.5c-0.7,0-1.1,0.3-1.1,0.7
			c0,0.4,0.3,0.6,1.4,1c1.7,0.6,2.4,1.4,2.4,2.7c0,1.7-1.3,2.9-3.9,2.9c-1.2,0-2.2-0.3-2.9-0.6L98.3,385.1z"/>
		<path id="XMLID_563_" class="st1" d="M109,382.4L109,382.4c0.2-0.4,0.5-0.7,0.7-1.1l1.8-2.7h3.3l-3.2,3.6l3.6,5.3h-3.4l-2.1-3.7
			l-0.7,0.9v2.8h-2.8v-12.9h2.8V382.4z"/>
		<path id="XMLID_560_" class="st1" d="M119.1,376.1c0,0.8-0.6,1.4-1.5,1.4c-0.9,0-1.5-0.6-1.4-1.4c0-0.8,0.6-1.4,1.5-1.4
			C118.5,374.7,119.1,375.3,119.1,376.1z M116.2,387.5v-8.9h2.8v8.9H116.2z"/>
		<path id="XMLID_558_" class="st1" d="M121.2,381.5c0-1.1,0-2.1-0.1-2.8h2.4l0.1,1.2h0.1c0.4-0.6,1.3-1.4,2.7-1.4
			c1.8,0,3.2,1.2,3.2,3.8v5.3h-2.8v-4.9c0-1.1-0.4-1.9-1.4-1.9c-0.8,0-1.2,0.5-1.4,1c-0.1,0.2-0.1,0.4-0.1,0.7v5.1h-2.8V381.5z"/>
		<path id="XMLID_555_" class="st1" d="M134,383.9c0.1,1.1,1.2,1.7,2.5,1.7c0.9,0,1.7-0.1,2.5-0.4l0.4,1.9c-0.9,0.4-2,0.5-3.2,0.5
			c-3,0-4.8-1.7-4.8-4.5c0-2.3,1.4-4.8,4.5-4.8c2.9,0,4,2.2,4,4.4c0,0.5-0.1,0.9-0.1,1.1H134z M137.3,382.1c0-0.7-0.3-1.8-1.6-1.8
			c-1.2,0-1.6,1.1-1.7,1.8H137.3z"/>
		<path id="XMLID_553_" class="st1" d="M141.5,385.1c0.5,0.3,1.6,0.7,2.4,0.7c0.8,0,1.2-0.3,1.2-0.7s-0.3-0.7-1.3-1
			c-1.8-0.6-2.5-1.6-2.5-2.7c0-1.7,1.4-2.9,3.6-2.9c1,0,2,0.2,2.5,0.5l-0.5,1.9c-0.4-0.2-1.2-0.5-1.9-0.5c-0.7,0-1.1,0.3-1.1,0.7
			c0,0.4,0.3,0.6,1.4,1c1.7,0.6,2.4,1.4,2.4,2.7c0,1.7-1.3,2.9-3.9,2.9c-1.2,0-2.2-0.3-2.9-0.6L141.5,385.1z"/>
		<path id="XMLID_550_" class="st1" d="M152.3,376.1c0,0.8-0.6,1.4-1.5,1.4c-0.9,0-1.5-0.6-1.4-1.4c0-0.8,0.6-1.4,1.5-1.4
			C151.7,374.7,152.2,375.3,152.3,376.1z M149.4,387.5v-8.9h2.8v8.9H149.4z"/>
		<path id="XMLID_547_" class="st1" d="M159.4,387.5l-0.2-0.9h-0.1c-0.6,0.7-1.5,1.1-2.5,1.1c-1.8,0-2.9-1.3-2.9-2.7
			c0-2.3,2.1-3.4,5.2-3.4v-0.1c0-0.5-0.3-1.1-1.6-1.1c-0.9,0-1.9,0.3-2.5,0.7l-0.5-1.8c0.6-0.3,1.8-0.8,3.5-0.8c3,0,3.9,1.7,3.9,3.8
			v3.1c0,0.9,0,1.7,0.1,2.2H159.4z M159.1,383.3c-1.5,0-2.6,0.3-2.6,1.4c0,0.7,0.5,1.1,1.1,1.1c0.7,0,1.3-0.5,1.4-1
			c0-0.1,0.1-0.3,0.1-0.5V383.3z"/>
	</g>
	<g id="XMLID_542_">
		<path id="XMLID_543_" class="st1" d="M12,232.7c0,3.2-1.3,5.3-3.9,5.3c-2.6,0-3.8-2.4-3.8-5.3c0-3,1.3-5.3,3.9-5.3
			C10.9,227.5,12,229.9,12,232.7z M6.7,232.8c0,2.3,0.5,3.5,1.5,3.5s1.4-1.2,1.4-3.5c0-2.3-0.5-3.5-1.4-3.5
			C7.3,229.3,6.7,230.4,6.7,232.8z"/>
	</g>
	<g id="XMLID_539_">
		<path id="XMLID_540_" class="st1" d="M11.2,196.3h-4l-0.2,1.6c0.2,0,0.4,0,0.7,0c1,0,2,0.2,2.7,0.7c0.8,0.5,1.2,1.4,1.2,2.6
			c0,1.9-1.6,3.6-4.4,3.6c-1.2,0-2.3-0.3-2.8-0.6l0.4-1.8c0.5,0.2,1.4,0.5,2.3,0.5c1,0,2-0.5,2-1.6c0-1.1-0.8-1.7-2.9-1.7
			c-0.6,0-1,0-1.4,0.1l0.7-5.4h5.6V196.3z"/>
	</g>
	<g id="XMLID_533_">
		<path id="XMLID_537_" class="st1" d="M3.1,166.4L3.1,166.4l-2,0.9l-0.4-1.8l2.7-1.3h2v10.2H3.1V166.4z"/>
		<path id="XMLID_534_" class="st1" d="M16.3,169.3c0,3.2-1.3,5.3-3.9,5.3c-2.6,0-3.8-2.4-3.8-5.3c0-3,1.3-5.3,3.9-5.3
			C15.3,164.1,16.3,166.5,16.3,169.3z M11,169.4c0,2.3,0.5,3.5,1.5,3.5s1.4-1.2,1.4-3.5c0-2.3-0.5-3.5-1.4-3.5
			C11.6,165.9,11,167,11,169.4z"/>
	</g>
	<g id="XMLID_528_">
		<path id="XMLID_531_" class="st1" d="M3.1,136.3L3.1,136.3l-2,0.9l-0.4-1.8l2.7-1.3h2v10.2H3.1V136.3z"/>
		<path id="XMLID_529_" class="st1" d="M15.6,136.2h-4l-0.2,1.6c0.2,0,0.4,0,0.7,0c1,0,2,0.2,2.7,0.7c0.8,0.5,1.2,1.4,1.2,2.6
			c0,1.9-1.6,3.6-4.4,3.6c-1.2,0-2.3-0.3-2.8-0.6l0.4-1.8c0.5,0.2,1.4,0.5,2.3,0.5c1,0,2-0.5,2-1.6c0-1.1-0.8-1.7-2.9-1.7
			c-0.6,0-1,0-1.4,0.1l0.7-5.4h5.6V136.2z"/>
	</g>
	<g id="XMLID_522_">
		<path id="XMLID_526_" class="st1" d="M0.1,114.3v-1.4l1.3-1.2c2.2-2,3.3-3.1,3.3-4.3c0-0.8-0.5-1.5-1.7-1.5
			c-0.9,0-1.7,0.4-2.2,0.8L0.2,105c0.8-0.6,2-1.1,3.3-1.1c2.3,0,3.6,1.4,3.6,3.2c0,1.7-1.2,3.1-2.7,4.4l-0.9,0.8v0h3.9v2H0.1z"/>
		<path id="XMLID_523_" class="st1" d="M16.3,109.2c0,3.2-1.3,5.3-3.9,5.3c-2.6,0-3.8-2.4-3.8-5.3c0-3,1.3-5.3,3.9-5.3
			C15.3,103.9,16.3,106.4,16.3,109.2z M11,109.2c0,2.3,0.5,3.5,1.5,3.5s1.4-1.2,1.4-3.5c0-2.3-0.5-3.5-1.4-3.5
			C11.6,105.7,11,106.8,11,109.2z"/>
	</g>
	<g id="XMLID_517_">
		<path id="XMLID_520_" class="st1" d="M0.1,84.2v-1.4l1.3-1.2c2.2-2,3.3-3.1,3.3-4.3c0-0.8-0.5-1.5-1.7-1.5c-0.9,0-1.7,0.4-2.2,0.8
			l-0.7-1.7c0.8-0.6,2-1.1,3.3-1.1c2.3,0,3.6,1.4,3.6,3.2c0,1.7-1.2,3.1-2.7,4.4l-0.9,0.8v0h3.9v2H0.1z"/>
		<path id="XMLID_518_" class="st1" d="M15.6,76h-4l-0.2,1.6c0.2,0,0.4,0,0.7,0c1,0,2,0.2,2.7,0.7c0.8,0.5,1.2,1.4,1.2,2.6
			c0,1.9-1.6,3.6-4.4,3.6c-1.2,0-2.3-0.3-2.8-0.6L9.2,82c0.5,0.2,1.4,0.5,2.3,0.5c1,0,2-0.5,2-1.6c0-1.1-0.8-1.7-2.9-1.7
			c-0.6,0-1,0-1.4,0.1L10,74h5.6V76z"/>
	</g>
	<g id="XMLID_511_">
		<path id="XMLID_515_" class="st1" d="M0.5,54.4c0.4,0.2,1.4,0.6,2.4,0.6c1.2,0,1.9-0.6,1.9-1.4c0-1-1-1.5-2.1-1.5h-1v-1.7h0.9
			c0.8,0,1.8-0.3,1.8-1.2c0-0.6-0.5-1.1-1.5-1.1c-0.8,0-1.7,0.4-2.1,0.6l-0.5-1.7c0.6-0.4,1.8-0.8,3.2-0.8c2.2,0,3.4,1.1,3.4,2.5
			c0,1.1-0.6,1.9-1.9,2.4v0c1.2,0.2,2.2,1.1,2.2,2.5c0,1.8-1.6,3.1-4.2,3.1c-1.3,0-2.4-0.3-3-0.7L0.5,54.4z"/>
		<path id="XMLID_512_" class="st1" d="M16.3,51.6c0,3.2-1.3,5.3-3.9,5.3c-2.6,0-3.8-2.4-3.8-5.3c0-3,1.3-5.3,3.9-5.3
			C15.3,46.4,16.3,48.8,16.3,51.6z M11,51.7c0,2.3,0.5,3.5,1.5,3.5s1.4-1.2,1.4-3.5c0-2.3-0.5-3.5-1.4-3.5
			C11.6,48.2,11,49.3,11,51.7z"/>
	</g>
	<text id="XMLID_510_" transform="matrix(1 0 0 1 244.9248 15.2324)" class="st1 st2 st3">Patient percentage (%)</text>
	<g id="XMLID_486_">
		<path id="XMLID_507_" class="st1" d="M304,384.4l-0.9,3.1h-2.9l3.8-12.3h3.6l3.8,12.3h-3l-0.9-3.1H304z M307.1,382.3l-0.8-2.6
			c-0.2-0.7-0.4-1.6-0.6-2.4h0c-0.2,0.7-0.4,1.7-0.6,2.4l-0.7,2.6H307.1z"/>
		<path id="XMLID_505_" class="st1" d="M315.6,382.4L315.6,382.4c0.2-0.4,0.5-0.7,0.7-1.1l1.8-2.7h3.3l-3.2,3.6l3.6,5.3h-3.4
			l-2.1-3.7l-0.7,0.9v2.8h-2.8v-12.9h2.8V382.4z"/>
		<path id="XMLID_502_" class="st1" d="M327.9,387.5l-0.2-0.9h-0.1c-0.6,0.7-1.5,1.1-2.5,1.1c-1.8,0-2.9-1.3-2.9-2.7
			c0-2.3,2.1-3.4,5.2-3.4v-0.1c0-0.5-0.3-1.1-1.6-1.1c-0.9,0-1.9,0.3-2.5,0.7l-0.5-1.8c0.6-0.3,1.8-0.8,3.5-0.8c3,0,3.9,1.7,3.9,3.8
			v3.1c0,0.9,0,1.7,0.1,2.2H327.9z M327.5,383.3c-1.5,0-2.6,0.3-2.6,1.4c0,0.7,0.5,1.1,1.1,1.1c0.7,0,1.3-0.5,1.4-1
			c0-0.1,0.1-0.3,0.1-0.5V383.3z"/>
		<path id="XMLID_500_" class="st1" d="M335.4,376.1v2.5h2v2h-2v3.2c0,1.1,0.3,1.6,1.1,1.6c0.3,0,0.6,0,0.8-0.1l0,2.1
			c-0.4,0.1-1,0.2-1.8,0.2c-0.9,0-1.6-0.3-2.1-0.8c-0.5-0.5-0.8-1.4-0.8-2.6v-3.6h-1.2v-2h1.2v-1.9L335.4,376.1z"/>
		<path id="XMLID_498_" class="st1" d="M338.9,374.6h2.8v5.1h0c0.3-0.4,0.7-0.7,1.1-0.9c0.4-0.2,0.9-0.3,1.4-0.3
			c1.8,0,3.1,1.2,3.1,3.9v5.2h-2.8v-4.9c0-1.2-0.4-2-1.4-2c-0.7,0-1.2,0.5-1.4,1c-0.1,0.2-0.1,0.4-0.1,0.6v5.3h-2.8V374.6z"/>
		<path id="XMLID_495_" class="st1" d="M352.5,376.1c0,0.8-0.6,1.4-1.5,1.4c-0.9,0-1.5-0.6-1.4-1.4c0-0.8,0.6-1.4,1.5-1.4
			C351.9,374.7,352.4,375.3,352.5,376.1z M349.6,387.5v-8.9h2.8v8.9H349.6z"/>
		<path id="XMLID_493_" class="st1" d="M354.6,385.1c0.5,0.3,1.6,0.7,2.4,0.7c0.8,0,1.2-0.3,1.2-0.7s-0.3-0.7-1.3-1
			c-1.8-0.6-2.5-1.6-2.5-2.7c0-1.7,1.4-2.9,3.6-2.9c1,0,2,0.2,2.5,0.5l-0.5,1.9c-0.4-0.2-1.2-0.5-1.9-0.5c-0.7,0-1.1,0.3-1.1,0.7
			c0,0.4,0.3,0.6,1.4,1c1.7,0.6,2.4,1.4,2.4,2.7c0,1.7-1.3,2.9-3.9,2.9c-1.2,0-2.2-0.3-2.9-0.6L354.6,385.1z"/>
		<path id="XMLID_490_" class="st1" d="M365.3,376.1c0,0.8-0.6,1.4-1.5,1.4c-0.9,0-1.5-0.6-1.4-1.4c0-0.8,0.6-1.4,1.5-1.4
			C364.8,374.7,365.3,375.3,365.3,376.1z M362.5,387.5v-8.9h2.8v8.9H362.5z"/>
		<path id="XMLID_487_" class="st1" d="M372.5,387.5l-0.2-0.9h-0.1c-0.6,0.7-1.5,1.1-2.5,1.1c-1.8,0-2.9-1.3-2.9-2.7
			c0-2.3,2.1-3.4,5.2-3.4v-0.1c0-0.5-0.3-1.1-1.6-1.1c-0.9,0-1.9,0.3-2.5,0.7l-0.5-1.8c0.6-0.3,1.8-0.8,3.5-0.8c3,0,3.9,1.7,3.9,3.8
			v3.1c0,0.9,0,1.7,0.1,2.2H372.5z M372.2,383.3c-1.5,0-2.6,0.3-2.6,1.4c0,0.7,0.5,1.1,1.1,1.1c0.7,0,1.3-0.5,1.4-1
			c0-0.1,0.1-0.3,0.1-0.5V383.3z"/>
	</g>
	<g id="XMLID_456_">
		<path id="XMLID_483_" class="st1" d="M487.1,375.3c0.9-0.1,2.1-0.3,3.8-0.3c1.7,0,2.9,0.3,3.8,1c0.8,0.6,1.3,1.6,1.3,2.8
			c0,1.2-0.4,2.2-1.1,2.9c-0.9,0.9-2.3,1.3-4,1.3c-0.4,0-0.7,0-0.9-0.1v4.4h-2.7V375.3z M489.8,380.8c0.2,0.1,0.5,0.1,0.9,0.1
			c1.5,0,2.4-0.7,2.4-2c0-1.1-0.8-1.8-2.2-1.8c-0.6,0-0.9,0.1-1.1,0.1V380.8z"/>
		<path id="XMLID_480_" class="st1" d="M502.3,387.4l-0.2-0.9h-0.1c-0.6,0.7-1.5,1.1-2.5,1.1c-1.8,0-2.9-1.3-2.9-2.7
			c0-2.3,2.1-3.4,5.2-3.4v-0.1c0-0.5-0.3-1.1-1.6-1.1c-0.9,0-1.9,0.3-2.5,0.7l-0.5-1.8c0.6-0.3,1.8-0.8,3.5-0.8c3,0,3.9,1.7,3.9,3.8
			v3.1c0,0.9,0,1.7,0.1,2.2H502.3z M501.9,383.2c-1.5,0-2.6,0.3-2.6,1.4c0,0.7,0.5,1.1,1.1,1.1c0.7,0,1.3-0.5,1.4-1
			c0-0.1,0.1-0.3,0.1-0.5V383.2z"/>
		<path id="XMLID_478_" class="st1" d="M506.8,381.4c0-1.3,0-2.2-0.1-2.9h2.4l0.1,1.6h0.1c0.5-1.3,1.5-1.8,2.4-1.8
			c0.3,0,0.4,0,0.6,0v2.6c-0.2,0-0.4-0.1-0.7-0.1c-1,0-1.7,0.5-1.9,1.4c0,0.2-0.1,0.4-0.1,0.6v4.5h-2.8V381.4z"/>
		<path id="XMLID_476_" class="st1" d="M516.4,382.2L516.4,382.2c0.2-0.4,0.5-0.7,0.7-1.1l1.8-2.7h3.3l-3.2,3.6l3.6,5.3h-3.4
			l-2.1-3.7l-0.7,0.9v2.8h-2.8v-12.9h2.8V382.2z"/>
		<path id="XMLID_473_" class="st1" d="M526.6,376c0,0.8-0.6,1.4-1.5,1.4c-0.9,0-1.5-0.6-1.4-1.4c0-0.8,0.6-1.4,1.5-1.4
			C526,374.6,526.6,375.2,526.6,376z M523.7,387.4v-8.9h2.8v8.9H523.7z"/>
		<path id="XMLID_471_" class="st1" d="M528.7,381.3c0-1.1,0-2.1-0.1-2.8h2.4l0.1,1.2h0.1c0.4-0.6,1.3-1.4,2.7-1.4
			c1.8,0,3.2,1.2,3.2,3.8v5.3h-2.8v-4.9c0-1.1-0.4-1.9-1.4-1.9c-0.8,0-1.2,0.5-1.4,1c-0.1,0.2-0.1,0.4-0.1,0.7v5.1h-2.8V381.3z"/>
		<path id="XMLID_469_" class="st1" d="M539.4,385c0.5,0.3,1.6,0.7,2.4,0.7c0.8,0,1.2-0.3,1.2-0.7s-0.3-0.7-1.3-1
			c-1.8-0.6-2.5-1.6-2.5-2.7c0-1.7,1.4-2.9,3.6-2.9c1,0,2,0.2,2.5,0.5l-0.5,1.9c-0.4-0.2-1.2-0.5-1.9-0.5c-0.7,0-1.1,0.3-1.1,0.7
			c0,0.4,0.3,0.6,1.4,1c1.7,0.6,2.4,1.4,2.4,2.7c0,1.7-1.3,2.9-3.9,2.9c-1.2,0-2.2-0.3-2.9-0.6L539.4,385z"/>
		<path id="XMLID_466_" class="st1" d="M556.1,382.8c0,3.3-2.3,4.8-4.7,4.8c-2.6,0-4.6-1.7-4.6-4.6c0-2.9,1.9-4.7,4.8-4.7
			C554.2,378.3,556.1,380.2,556.1,382.8z M549.6,382.9c0,1.5,0.6,2.7,1.8,2.7c1.1,0,1.8-1.1,1.8-2.7c0-1.3-0.5-2.7-1.8-2.7
			C550.1,380.2,549.6,381.6,549.6,382.9z"/>
		<path id="XMLID_464_" class="st1" d="M557.8,381.3c0-1.1,0-2.1-0.1-2.8h2.4l0.1,1.2h0.1c0.4-0.6,1.3-1.4,2.7-1.4
			c1.8,0,3.2,1.2,3.2,3.8v5.3h-2.8v-4.9c0-1.1-0.4-1.9-1.4-1.9c-0.8,0-1.2,0.5-1.4,1c-0.1,0.2-0.1,0.4-0.1,0.7v5.1h-2.8V381.3z"/>
		<path id="XMLID_461_" class="st1" d="M571.3,376c0,0.8-0.6,1.4-1.5,1.4c-0.9,0-1.5-0.6-1.4-1.4c0-0.8,0.6-1.4,1.5-1.4
			C570.7,374.6,571.3,375.2,571.3,376z M568.4,387.4v-8.9h2.8v8.9H568.4z"/>
		<path id="XMLID_459_" class="st1" d="M573.4,385c0.5,0.3,1.6,0.7,2.4,0.7c0.8,0,1.2-0.3,1.2-0.7s-0.3-0.7-1.3-1
			c-1.8-0.6-2.5-1.6-2.5-2.7c0-1.7,1.4-2.9,3.6-2.9c1,0,2,0.2,2.5,0.5l-0.5,1.9c-0.4-0.2-1.2-0.5-1.9-0.5c-0.7,0-1.1,0.3-1.1,0.7
			c0,0.4,0.3,0.6,1.4,1c1.7,0.6,2.4,1.4,2.4,2.7c0,1.7-1.3,2.9-3.9,2.9c-1.2,0-2.2-0.3-2.9-0.6L573.4,385z"/>
		<path id="XMLID_457_" class="st1" d="M581.3,381.3c0-1.1,0-2.1-0.1-2.8h2.3l0.1,1.2h0.1c0.4-0.6,1.2-1.4,2.7-1.4
			c1.1,0,2.1,0.6,2.4,1.5h0c0.3-0.5,0.7-0.8,1.1-1.1c0.5-0.3,1-0.4,1.7-0.4c1.7,0,3,1.2,3,3.9v5.2h-2.7v-4.8c0-1.3-0.4-2-1.3-2
			c-0.6,0-1.1,0.4-1.3,1c-0.1,0.2-0.1,0.5-0.1,0.7v5.2h-2.7v-5c0-1.1-0.4-1.9-1.3-1.9c-0.7,0-1.1,0.5-1.3,1
			c-0.1,0.2-0.1,0.5-0.1,0.7v5.2h-2.7V381.3z"/>
	</g>
	<g id="XMLID_429_">
		<path id="XMLID_453_" class="st1" d="M131.7,337.9c3.8,0,5.5,2.7,5.5,5.4c0,3-2,5.3-5.3,5.3c-3.3,0-5.5-2.2-5.5-5.5
			C126.4,340,128.6,337.9,131.7,337.9z M131.8,345.4c1.8,0,3.1-0.7,3.1-2.1c0-1.2-1.2-2-3.1-2c-1.5,0-3.1,0.6-3.1,2
			C128.7,344.8,130.3,345.4,131.8,345.4z"/>
		<path id="XMLID_451_" class="st1" d="M122,335.9v-3.2h15v3.2H122z"/>
		<path id="XMLID_448_" class="st1" d="M137,324.3l-1,0.2v0.1c0.8,0.7,1.3,1.7,1.3,3c0,2.1-1.5,3.3-3.2,3.3c-2.7,0-4-2.4-3.9-6.1
			h-0.1c-0.5,0-1.3,0.3-1.3,1.9c0,1.1,0.4,2.2,0.8,2.9l-2.1,0.6c-0.4-0.7-0.9-2.1-0.9-4c0-3.4,2-4.5,4.5-4.5h3.6c1,0,1.9,0,2.5-0.1
			V324.3z M132.1,324.6c0,1.7,0.4,3,1.6,3c0.8,0,1.2-0.5,1.2-1.3c0-0.8-0.5-1.5-1.2-1.7c-0.2,0-0.4-0.1-0.5-0.1H132.1z"/>
		<path id="XMLID_446_" class="st1" d="M129.9,319c-1.3,0-2.4,0-3.3,0.1v-2.8l1.4-0.1v-0.1c-0.7-0.4-1.6-1.5-1.6-3.2
			c0-2.1,1.4-3.7,4.4-3.7h6.1v3.2h-5.7c-1.3,0-2.2,0.5-2.2,1.6c0,0.9,0.6,1.4,1.2,1.6c0.2,0.1,0.5,0.1,0.8,0.1h6v3.2H129.9z"/>
		<path id="XMLID_444_" class="st1" d="M135.1,307.4l-4.1-3.3c-0.7-0.6-1.2-1.1-1.8-1.6h0v4.5h-2.5v-8.4h1.9l3.9,3.1
			c0.7,0.6,1.3,1.1,1.9,1.7h0v-5h2.6v9H135.1z"/>
		<path id="XMLID_441_" class="st1" d="M137,290.8l-1,0.2v0.1c0.8,0.7,1.3,1.7,1.3,3c0,2.1-1.5,3.3-3.2,3.3c-2.7,0-4-2.4-3.9-6.1
			h-0.1c-0.5,0-1.3,0.3-1.3,1.9c0,1.1,0.4,2.2,0.8,2.9l-2.1,0.6c-0.4-0.7-0.9-2.1-0.9-4c0-3.4,2-4.5,4.5-4.5h3.6c1,0,1.9,0,2.5-0.1
			V290.8z M132.1,291.2c0,1.7,0.4,3,1.6,3c0.8,0,1.2-0.5,1.2-1.3c0-0.8-0.5-1.5-1.2-1.7c-0.2,0-0.4-0.1-0.5-0.1H132.1z"/>
		<path id="XMLID_438_" class="st1" d="M130.1,285.5c-1.4,0-2.5,0-3.5,0.1v-2.8l1.4-0.1v0c-1.1-0.8-1.7-1.9-1.7-3.4
			c0-2.3,2-4.3,5.3-4.3c3.8,0,5.5,2.4,5.5,4.7c0,1.2-0.5,2.2-1.2,2.7v0h5.1v3.2H130.1z M132.5,282.3c0.3,0,0.5,0,0.7-0.1
			c0.9-0.2,1.5-1,1.5-1.9c0-1.4-1.2-2.2-2.9-2.2c-1.6,0-2.9,0.7-2.9,2.2c0,0.9,0.7,1.7,1.6,1.9c0.2,0,0.4,0.1,0.6,0.1H132.5z"/>
		<path id="XMLID_435_" class="st1" d="M123.8,269.6c0.9,0,1.6,0.7,1.6,1.7c0,1-0.7,1.7-1.6,1.7c-0.9,0-1.6-0.7-1.6-1.7
			C122.1,270.3,122.8,269.6,123.8,269.6z M137,272.9h-10.3v-3.2H137V272.9z"/>
		<path id="XMLID_433_" class="st1" d="M129.9,267.1c-1.3,0-2.4,0-3.3,0.1v-2.8l1.4-0.1v-0.1c-0.7-0.4-1.6-1.5-1.6-3.2
			c0-2.1,1.4-3.7,4.4-3.7h6.1v3.2h-5.7c-1.3,0-2.2,0.5-2.2,1.6c0,0.9,0.6,1.4,1.2,1.6c0.2,0.1,0.5,0.1,0.8,0.1h6v3.2H129.9z"/>
		<path id="XMLID_430_" class="st1" d="M132.8,252.3c1.3-0.1,2-1.4,2-2.9c0-1.1-0.1-2-0.4-2.9l2.2-0.4c0.4,1.1,0.6,2.3,0.6,3.7
			c0,3.5-2,5.5-5.3,5.5c-2.6,0-5.5-1.6-5.5-5.2c0-3.3,2.6-4.6,5.2-4.6c0.5,0,1,0.1,1.3,0.1V252.3z M130.6,248.5
			c-0.8,0-2.1,0.3-2.1,1.8c0,1.4,1.2,1.9,2.1,2V248.5z"/>
	</g>
	<g id="XMLID_398_">
		<path id="XMLID_426_" class="st1" d="M164.3,357.1c-0.2-1-0.3-2.6-0.3-4.3c0-2.1,0.3-3.6,1.1-4.6c0.7-0.8,1.7-1.3,3-1.3
			c1.8,0,3.1,1.3,3.5,2.5h0.1c0.4-1,1.4-1.5,2.7-1.9c1.6-0.4,3.5-0.9,4-1.2v3.3c-0.4,0.2-1.6,0.6-3.3,1c-1.8,0.4-2.3,1-2.3,2.3v1
			h5.6v3.2H164.3z M170.4,353.9v-1.3c0-1.6-0.8-2.6-2-2.6c-1.3,0-2,0.9-2,2.4c0,0.8,0.1,1.2,0.1,1.5H170.4z"/>
		<path id="XMLID_423_" class="st1" d="M165.2,341.2c0.9,0,1.6,0.7,1.6,1.7c0,1-0.7,1.7-1.6,1.7c-0.9,0-1.6-0.7-1.6-1.7
			C163.5,341.9,164.2,341.2,165.2,341.2z M178.4,344.5H168v-3.2h10.3V344.5z"/>
		<path id="XMLID_421_" class="st1" d="M175.5,338.7c0.4-0.6,0.8-1.8,0.8-2.8c0-1-0.3-1.4-0.9-1.4s-0.8,0.3-1.2,1.5
			c-0.7,2.1-1.9,3-3.1,2.9c-1.9,0-3.4-1.6-3.4-4.2c0-1.2,0.3-2.3,0.6-2.9l2.2,0.6c-0.3,0.5-0.6,1.4-0.6,2.2c0,0.8,0.3,1.2,0.8,1.2
			c0.5,0,0.7-0.4,1.2-1.7c0.7-2,1.7-2.8,3.2-2.8c1.9,0,3.3,1.5,3.3,4.5c0,1.4-0.3,2.6-0.7,3.3L175.5,338.7z"/>
		<path id="XMLID_418_" class="st1" d="M171.5,329.6c-1.4,0-2.5,0-3.5,0.1v-2.8l1.4-0.1v0c-1.1-0.8-1.7-1.9-1.7-3.4
			c0-2.3,2-4.3,5.3-4.3c3.8,0,5.5,2.4,5.5,4.7c0,1.2-0.5,2.2-1.2,2.7v0h5.1v3.2H171.5z M173.9,326.3c0.3,0,0.5,0,0.7-0.1
			c0.9-0.2,1.5-1,1.5-1.9c0-1.4-1.2-2.2-2.9-2.2c-1.6,0-2.9,0.7-2.9,2.2c0,0.9,0.7,1.7,1.6,1.9c0.2,0,0.4,0.1,0.6,0.1H173.9z"/>
		<path id="XMLID_415_" class="st1" d="M174.2,314.4c1.3-0.1,2-1.4,2-2.9c0-1.1-0.1-2-0.4-2.9l2.2-0.4c0.4,1.1,0.6,2.3,0.6,3.7
			c0,3.5-2,5.5-5.3,5.5c-2.6,0-5.5-1.6-5.5-5.2c0-3.3,2.6-4.6,5.2-4.6c0.5,0,1,0.1,1.3,0.1V314.4z M172,310.6
			c-0.8,0-2.1,0.3-2.1,1.8c0,1.4,1.2,1.9,2.1,2V310.6z"/>
		<path id="XMLID_413_" class="st1" d="M171.4,305.7c-1.5,0-2.5,0-3.4,0.1V303l1.9-0.1v-0.1c-1.5-0.5-2.1-1.8-2.1-2.8
			c0-0.3,0-0.4,0-0.7h3c0,0.2-0.1,0.5-0.1,0.9c0,1.2,0.6,2,1.6,2.2c0.2,0,0.5,0.1,0.7,0.1h5.2v3.2H171.4z"/>
		<path id="XMLID_410_" class="st1" d="M165.2,294.4c0.9,0,1.6,0.7,1.6,1.7c0,1-0.7,1.7-1.6,1.7c-0.9,0-1.6-0.7-1.6-1.7
			C163.5,295,164.2,294.4,165.2,294.4z M178.4,297.7H168v-3.2h10.3V297.7z"/>
		<path id="XMLID_407_" class="st1" d="M163.4,281.9h11.9c1.2,0,2.4,0,3.1-0.1v2.9l-1.5,0.1v0c1.2,0.7,1.8,1.9,1.8,3.2
			c0,2.4-2.1,4.4-5.3,4.4c-3.5,0-5.5-2.2-5.5-4.6c0-1.3,0.4-2.3,1.2-2.7v0h-5.6V281.9z M172.4,285.1c-0.2,0-0.4,0-0.6,0
			c-0.9,0.2-1.6,0.9-1.6,1.9c0,1.5,1.3,2.2,2.9,2.2c1.8,0,2.9-0.9,2.9-2.2c0-0.9-0.6-1.7-1.5-1.9c-0.2-0.1-0.5-0.1-0.7-0.1H172.4z"
			/>
		<path id="XMLID_404_" class="st1" d="M173.1,269.1c3.8,0,5.5,2.7,5.5,5.4c0,3-2,5.3-5.3,5.3c-3.3,0-5.5-2.2-5.5-5.5
			C167.8,271.2,170,269.1,173.1,269.1z M173.2,276.6c1.8,0,3.1-0.7,3.1-2.1c0-1.2-1.2-2-3.1-2c-1.5,0-3.1,0.6-3.1,2
			C170.1,276,171.7,276.6,173.2,276.6z"/>
		<path id="XMLID_402_" class="st1" d="M171.3,267.1c-1.3,0-2.4,0-3.3,0.1v-2.8l1.4-0.1v-0.1c-0.7-0.4-1.6-1.5-1.6-3.2
			c0-2.1,1.4-3.7,4.4-3.7h6.1v3.2h-5.7c-1.3,0-2.2,0.5-2.2,1.6c0,0.9,0.6,1.4,1.2,1.6c0.2,0.1,0.5,0.1,0.8,0.1h6v3.2H171.3z"/>
		<path id="XMLID_399_" class="st1" d="M174.2,252.3c1.3-0.1,2-1.4,2-2.9c0-1.1-0.1-2-0.4-2.9l2.2-0.4c0.4,1.1,0.6,2.3,0.6,3.7
			c0,3.5-2,5.5-5.3,5.5c-2.6,0-5.5-1.6-5.5-5.2c0-3.3,2.6-4.6,5.2-4.6c0.5,0,1,0.1,1.3,0.1V252.3z M172,248.5
			c-0.8,0-2.1,0.3-2.1,1.8c0,1.4,1.2,1.9,2.1,2V248.5z"/>
	</g>
	<g id="XMLID_368_">
		<path id="XMLID_396_" class="st1" d="M206.9,352.2h5.5v-5.3h-5.5v-3.2h14.2v3.2h-6v5.3h6v3.2h-14.2V352.2z"/>
		<path id="XMLID_393_" class="st1" d="M221.1,335.1l-1,0.2v0.1c0.8,0.7,1.3,1.7,1.3,3c0,2.1-1.5,3.3-3.2,3.3c-2.7,0-4-2.4-3.9-6.1
			h-0.1c-0.5,0-1.3,0.3-1.3,1.9c0,1.1,0.4,2.2,0.8,2.9l-2.1,0.6c-0.4-0.7-0.9-2.1-0.9-4c0-3.4,2-4.5,4.5-4.5h3.6c1,0,1.9,0,2.5-0.1
			V335.1z M216.2,335.5c0,1.7,0.4,3,1.6,3c0.8,0,1.2-0.5,1.2-1.3c0-0.8-0.5-1.5-1.2-1.7c-0.2,0-0.4-0.1-0.5-0.1H216.2z"/>
		<path id="XMLID_391_" class="st1" d="M206.1,329.8v-3.2h15v3.2H206.1z"/>
		<path id="XMLID_388_" class="st1" d="M215.8,313.8c3.8,0,5.5,2.7,5.5,5.4c0,3-2,5.3-5.3,5.3c-3.3,0-5.5-2.2-5.5-5.5
			C210.6,315.9,212.7,313.8,215.8,313.8z M215.9,321.3c1.8,0,3.1-0.7,3.1-2.1c0-1.2-1.2-2-3.1-2c-1.5,0-3.1,0.6-3.1,2
			C212.8,320.7,214.4,321.3,215.9,321.3z"/>
		<path id="XMLID_385_" class="st1" d="M214.3,311.8c-1.4,0-2.5,0-3.5,0.1v-2.8l1.4-0.1v0c-1.1-0.8-1.7-1.9-1.7-3.4
			c0-2.3,2-4.3,5.3-4.3c3.8,0,5.5,2.4,5.5,4.7c0,1.2-0.5,2.2-1.2,2.7v0h5.1v3.2H214.3z M216.7,308.6c0.3,0,0.5,0,0.7-0.1
			c0.9-0.2,1.5-1,1.5-1.9c0-1.4-1.2-2.2-2.9-2.2c-1.6,0-2.9,0.7-2.9,2.2c0,0.9,0.7,1.7,1.6,1.9c0.2,0,0.4,0.1,0.6,0.1H216.7z"/>
		<path id="XMLID_382_" class="st1" d="M217,296.7c1.3-0.1,2-1.4,2-2.9c0-1.1-0.1-2-0.4-2.9l2.2-0.4c0.4,1.1,0.6,2.3,0.6,3.7
			c0,3.5-2,5.5-5.3,5.5c-2.6,0-5.5-1.6-5.5-5.2c0-3.3,2.6-4.6,5.2-4.6c0.5,0,1,0.1,1.3,0.1V296.7z M214.8,292.9
			c-0.8,0-2.1,0.3-2.1,1.8c0,1.4,1.2,1.9,2.1,2V292.9z"/>
		<path id="XMLID_380_" class="st1" d="M214.2,288c-1.5,0-2.5,0-3.4,0.1v-2.8l1.9-0.1v-0.1c-1.5-0.5-2.1-1.8-2.1-2.8
			c0-0.3,0-0.4,0-0.7h3c0,0.2-0.1,0.5-0.1,0.9c0,1.2,0.6,2,1.6,2.2c0.2,0,0.5,0.1,0.7,0.1h5.2v3.2H214.2z"/>
		<path id="XMLID_377_" class="st1" d="M207.9,276.7c0.9,0,1.6,0.7,1.6,1.7c0,1-0.7,1.7-1.6,1.7c-0.9,0-1.6-0.7-1.6-1.7
			C206.3,277.3,207,276.7,207.9,276.7z M221.1,280h-10.3v-3.2h10.3V280z"/>
		<path id="XMLID_374_" class="st1" d="M206.1,264.2H218c1.2,0,2.4,0,3.1-0.1v2.9l-1.5,0.1v0c1.2,0.7,1.8,1.9,1.8,3.2
			c0,2.4-2.1,4.4-5.3,4.4c-3.5,0-5.5-2.2-5.5-4.6c0-1.3,0.4-2.3,1.2-2.7v0h-5.6V264.2z M215.2,267.4c-0.2,0-0.4,0-0.6,0
			c-0.9,0.2-1.6,0.9-1.6,1.9c0,1.5,1.3,2.2,2.9,2.2c1.8,0,2.9-0.9,2.9-2.2c0-0.9-0.6-1.7-1.5-1.9c-0.2-0.1-0.5-0.1-0.7-0.1H215.2z"
			/>
		<path id="XMLID_371_" class="st1" d="M215.8,251.4c3.8,0,5.5,2.7,5.5,5.4c0,3-2,5.3-5.3,5.3c-3.3,0-5.5-2.2-5.5-5.5
			C210.6,253.5,212.7,251.4,215.8,251.4z M215.9,258.9c1.8,0,3.1-0.7,3.1-2.1c0-1.2-1.2-2-3.1-2c-1.5,0-3.1,0.6-3.1,2
			C212.8,258.3,214.4,258.9,215.9,258.9z"/>
		<path id="XMLID_369_" class="st1" d="M206.1,249.4v-3.2h15v3.2H206.1z"/>
	</g>
	<g id="XMLID_348_">
		<path id="XMLID_365_" class="st1" d="M256,318.5c-1.4,0-2.5,0-3.5,0.1v-2.8l1.4-0.1v0c-1.1-0.8-1.7-1.9-1.7-3.4
			c0-2.3,2-4.3,5.3-4.3c3.8,0,5.5,2.4,5.5,4.7c0,1.2-0.5,2.2-1.2,2.7v0h5.1v3.2H256z M258.4,315.3c0.3,0,0.5,0,0.7-0.1
			c0.9-0.2,1.5-1,1.5-1.9c0-1.4-1.2-2.2-2.9-2.2c-1.6,0-2.9,0.7-2.9,2.2c0,0.9,0.7,1.7,1.6,1.9c0.2,0,0.4,0.1,0.6,0.1H258.4z"/>
		<path id="XMLID_363_" class="st1" d="M247.8,305.9v-3.2h15v3.2H247.8z"/>
		<path id="XMLID_360_" class="st1" d="M262.8,294.2l-1,0.2v0.1c0.8,0.7,1.3,1.7,1.3,3c0,2.1-1.5,3.3-3.2,3.3c-2.7,0-4-2.4-3.9-6.1
			h-0.1c-0.5,0-1.3,0.3-1.3,1.9c0,1.1,0.4,2.2,0.8,2.9l-2.1,0.6c-0.4-0.7-0.9-2.1-0.9-4c0-3.4,2-4.5,4.5-4.5h3.6c1,0,1.9,0,2.5-0.1
			V294.2z M257.9,294.6c0,1.7,0.4,3,1.6,3c0.8,0,1.2-0.5,1.2-1.3c0-0.8-0.5-1.5-1.2-1.7c-0.2,0-0.4-0.1-0.5-0.1H257.9z"/>
		<path id="XMLID_358_" class="st1" d="M262.6,281.2c0.3,0.6,0.5,1.6,0.5,2.9c0,3.3-2,5.5-5.3,5.5c-3,0-5.5-2.1-5.5-5.9
			c0-0.8,0.1-1.8,0.4-2.4l2.4,0.5c-0.2,0.4-0.3,1-0.3,1.8c0,1.7,1.2,2.8,2.9,2.8c1.9,0,2.9-1.3,2.9-2.8c0-0.8-0.1-1.4-0.3-1.8
			L262.6,281.2z"/>
		<path id="XMLID_355_" class="st1" d="M258.7,277.2c1.3-0.1,2-1.4,2-2.9c0-1.1-0.1-2-0.4-2.9l2.2-0.4c0.4,1.1,0.6,2.3,0.6,3.7
			c0,3.5-2,5.5-5.3,5.5c-2.6,0-5.5-1.6-5.5-5.2c0-3.3,2.6-4.6,5.2-4.6c0.5,0,1,0.1,1.3,0.1V277.2z M256.5,273.4
			c-0.8,0-2.1,0.3-2.1,1.8c0,1.4,1.2,1.9,2.1,2V273.4z"/>
		<path id="XMLID_352_" class="st1" d="M262.8,268.6c-0.7,0-1.9-0.1-3.1-0.1h-11.9v-3.2h5.9v0c-0.9-0.6-1.5-1.7-1.5-3.1
			c0-2.5,2-4.3,5.2-4.3c3.7,0,5.6,2.4,5.6,4.7c0,1.2-0.4,2.4-1.7,3.1v0l1.4,0.1V268.6z M258.4,265.3c0.2,0,0.4,0,0.6-0.1
			c0.9-0.2,1.5-1,1.5-1.9c0-1.4-1.1-2.2-2.9-2.2c-1.6,0-2.9,0.7-2.9,2.2c0,0.9,0.7,1.7,1.6,1.9c0.2,0,0.4,0.1,0.6,0.1H258.4z"/>
		<path id="XMLID_349_" class="st1" d="M257.5,245.6c3.8,0,5.5,2.7,5.5,5.4c0,3-2,5.3-5.3,5.3c-3.3,0-5.5-2.2-5.5-5.5
			C252.3,247.7,254.4,245.6,257.5,245.6z M257.7,253.1c1.8,0,3.1-0.7,3.1-2.1c0-1.2-1.2-2-3.1-2c-1.5,0-3.1,0.6-3.1,2
			C254.5,252.5,256.1,253.1,257.7,253.1z"/>
	</g>
	<g id="XMLID_321_">
		<path id="XMLID_345_" class="st1" d="M342.9,337.9c3.8,0,5.5,2.7,5.5,5.4c0,3-2,5.3-5.3,5.3c-3.3,0-5.5-2.2-5.5-5.5
			C337.6,340,339.8,337.9,342.9,337.9z M343,345.4c1.8,0,3.1-0.7,3.1-2.1c0-1.2-1.2-2-3.1-2c-1.5,0-3.1,0.6-3.1,2
			C339.9,344.8,341.5,345.4,343,345.4z"/>
		<path id="XMLID_343_" class="st1" d="M333.2,335.9v-3.2h15v3.2H333.2z"/>
		<path id="XMLID_340_" class="st1" d="M348.1,324.3l-1,0.2v0.1c0.8,0.7,1.3,1.7,1.3,3c0,2.1-1.5,3.3-3.2,3.3c-2.7,0-4-2.4-3.9-6.1
			h-0.1c-0.5,0-1.3,0.3-1.3,1.9c0,1.1,0.4,2.2,0.8,2.9l-2.1,0.6c-0.4-0.7-0.9-2.1-0.9-4c0-3.4,2-4.5,4.5-4.5h3.6c1,0,1.9,0,2.5-0.1
			V324.3z M343.3,324.6c0,1.7,0.4,3,1.6,3c0.8,0,1.2-0.5,1.2-1.3c0-0.8-0.5-1.5-1.2-1.7c-0.2,0-0.4-0.1-0.5-0.1H343.3z"/>
		<path id="XMLID_338_" class="st1" d="M341.1,319c-1.3,0-2.4,0-3.3,0.1v-2.8l1.4-0.1v-0.1c-0.7-0.4-1.6-1.5-1.6-3.2
			c0-2.1,1.4-3.7,4.4-3.7h6.1v3.2h-5.7c-1.3,0-2.2,0.5-2.2,1.6c0,0.9,0.6,1.4,1.2,1.6c0.2,0.1,0.5,0.1,0.8,0.1h6v3.2H341.1z"/>
		<path id="XMLID_336_" class="st1" d="M346.3,307.4l-4.1-3.3c-0.7-0.6-1.2-1.1-1.8-1.6h0v4.5h-2.5v-8.4h1.9l3.9,3.1
			c0.7,0.6,1.3,1.1,1.9,1.7h0v-5h2.6v9H346.3z"/>
		<path id="XMLID_333_" class="st1" d="M348.1,290.8l-1,0.2v0.1c0.8,0.7,1.3,1.7,1.3,3c0,2.1-1.5,3.3-3.2,3.3c-2.7,0-4-2.4-3.9-6.1
			h-0.1c-0.5,0-1.3,0.3-1.3,1.9c0,1.1,0.4,2.2,0.8,2.9l-2.1,0.6c-0.4-0.7-0.9-2.1-0.9-4c0-3.4,2-4.5,4.5-4.5h3.6c1,0,1.9,0,2.5-0.1
			V290.8z M343.3,291.2c0,1.7,0.4,3,1.6,3c0.8,0,1.2-0.5,1.2-1.3c0-0.8-0.5-1.5-1.2-1.7c-0.2,0-0.4-0.1-0.5-0.1H343.3z"/>
		<path id="XMLID_330_" class="st1" d="M341.3,285.5c-1.4,0-2.5,0-3.5,0.1v-2.8l1.4-0.1v0c-1.1-0.8-1.7-1.9-1.7-3.4
			c0-2.3,2-4.3,5.3-4.3c3.8,0,5.5,2.4,5.5,4.7c0,1.2-0.5,2.2-1.2,2.7v0h5.1v3.2H341.3z M343.7,282.3c0.3,0,0.5,0,0.7-0.1
			c0.9-0.2,1.5-1,1.5-1.9c0-1.4-1.2-2.2-2.9-2.2c-1.6,0-2.9,0.7-2.9,2.2c0,0.9,0.7,1.7,1.6,1.9c0.2,0,0.4,0.1,0.6,0.1H343.7z"/>
		<path id="XMLID_327_" class="st1" d="M334.9,269.6c0.9,0,1.6,0.7,1.6,1.7c0,1-0.7,1.7-1.6,1.7c-0.9,0-1.6-0.7-1.6-1.7
			C333.3,270.3,334,269.6,334.9,269.6z M348.1,272.9h-10.3v-3.2h10.3V272.9z"/>
		<path id="XMLID_325_" class="st1" d="M341.1,267.1c-1.3,0-2.4,0-3.3,0.1v-2.8l1.4-0.1v-0.1c-0.7-0.4-1.6-1.5-1.6-3.2
			c0-2.1,1.4-3.7,4.4-3.7h6.1v3.2h-5.7c-1.3,0-2.2,0.5-2.2,1.6c0,0.9,0.6,1.4,1.2,1.6c0.2,0.1,0.5,0.1,0.8,0.1h6v3.2H341.1z"/>
		<path id="XMLID_322_" class="st1" d="M344,252.3c1.3-0.1,2-1.4,2-2.9c0-1.1-0.1-2-0.4-2.9l2.2-0.4c0.4,1.1,0.6,2.3,0.6,3.7
			c0,3.5-2,5.5-5.3,5.5c-2.6,0-5.5-1.6-5.5-5.2c0-3.3,2.6-4.6,5.2-4.6c0.5,0,1,0.1,1.3,0.1V252.3z M341.8,248.5
			c-0.8,0-2.1,0.3-2.1,1.8c0,1.4,1.2,1.9,2.1,2V248.5z"/>
	</g>
	<g id="XMLID_290_">
		<path id="XMLID_318_" class="st1" d="M375.5,357.1c-0.2-1-0.3-2.6-0.3-4.3c0-2.1,0.3-3.6,1.1-4.6c0.7-0.8,1.7-1.3,3-1.3
			c1.8,0,3.1,1.3,3.5,2.5h0.1c0.4-1,1.4-1.5,2.7-1.9c1.6-0.4,3.5-0.9,4-1.2v3.3c-0.4,0.2-1.6,0.6-3.3,1c-1.8,0.4-2.3,1-2.3,2.3v1
			h5.6v3.2H375.5z M381.6,353.9v-1.3c0-1.6-0.8-2.6-2-2.6c-1.3,0-2,0.9-2,2.4c0,0.8,0.1,1.2,0.1,1.5H381.6z"/>
		<path id="XMLID_315_" class="st1" d="M376.3,341.2c0.9,0,1.6,0.7,1.6,1.7c0,1-0.7,1.7-1.6,1.7c-0.9,0-1.6-0.7-1.6-1.7
			C374.7,341.9,375.4,341.2,376.3,341.2z M389.5,344.5h-10.3v-3.2h10.3V344.5z"/>
		<path id="XMLID_313_" class="st1" d="M386.7,338.7c0.4-0.6,0.8-1.8,0.8-2.8c0-1-0.3-1.4-0.9-1.4c-0.5,0-0.8,0.3-1.2,1.5
			c-0.7,2.1-1.9,3-3.1,2.9c-1.9,0-3.4-1.6-3.4-4.2c0-1.2,0.3-2.3,0.6-2.9l2.2,0.6c-0.3,0.5-0.6,1.4-0.6,2.2c0,0.8,0.3,1.2,0.8,1.2
			c0.5,0,0.7-0.4,1.2-1.7c0.7-2,1.7-2.8,3.2-2.8c1.9,0,3.3,1.5,3.3,4.5c0,1.4-0.3,2.6-0.7,3.3L386.7,338.7z"/>
		<path id="XMLID_310_" class="st1" d="M382.7,329.6c-1.4,0-2.5,0-3.5,0.1v-2.8l1.4-0.1v0c-1.1-0.8-1.7-1.9-1.7-3.4
			c0-2.3,2-4.3,5.3-4.3c3.8,0,5.5,2.4,5.5,4.7c0,1.2-0.5,2.2-1.2,2.7v0h5.1v3.2H382.7z M385.1,326.3c0.3,0,0.5,0,0.7-0.1
			c0.9-0.2,1.5-1,1.5-1.9c0-1.4-1.2-2.2-2.9-2.2c-1.6,0-2.9,0.7-2.9,2.2c0,0.9,0.7,1.7,1.6,1.9c0.2,0,0.4,0.1,0.6,0.1H385.1z"/>
		<path id="XMLID_307_" class="st1" d="M385.4,314.4c1.3-0.1,2-1.4,2-2.9c0-1.1-0.1-2-0.4-2.9l2.2-0.4c0.4,1.1,0.6,2.3,0.6,3.7
			c0,3.5-2,5.5-5.3,5.5c-2.6,0-5.5-1.6-5.5-5.2c0-3.3,2.6-4.6,5.2-4.6c0.5,0,1,0.1,1.3,0.1V314.4z M383.2,310.6
			c-0.8,0-2.1,0.3-2.1,1.8c0,1.4,1.2,1.9,2.1,2V310.6z"/>
		<path id="XMLID_305_" class="st1" d="M382.6,305.7c-1.5,0-2.5,0-3.4,0.1V303l1.9-0.1v-0.1c-1.5-0.5-2.1-1.8-2.1-2.8
			c0-0.3,0-0.4,0-0.7h3c0,0.2-0.1,0.5-0.1,0.9c0,1.2,0.6,2,1.6,2.2c0.2,0,0.5,0.1,0.7,0.1h5.2v3.2H382.6z"/>
		<path id="XMLID_302_" class="st1" d="M376.3,294.4c0.9,0,1.6,0.7,1.6,1.7c0,1-0.7,1.7-1.6,1.7c-0.9,0-1.6-0.7-1.6-1.7
			C374.7,295,375.4,294.4,376.3,294.4z M389.5,297.7h-10.3v-3.2h10.3V297.7z"/>
		<path id="XMLID_299_" class="st1" d="M374.5,281.9h11.9c1.2,0,2.4,0,3.1-0.1v2.9l-1.5,0.1v0c1.2,0.7,1.8,1.9,1.8,3.2
			c0,2.4-2.1,4.4-5.3,4.4c-3.5,0-5.5-2.2-5.5-4.6c0-1.3,0.4-2.3,1.2-2.7v0h-5.6V281.9z M383.6,285.1c-0.2,0-0.4,0-0.6,0
			c-0.9,0.2-1.6,0.9-1.6,1.9c0,1.5,1.3,2.2,2.9,2.2c1.8,0,2.9-0.9,2.9-2.2c0-0.9-0.6-1.7-1.5-1.9c-0.2-0.1-0.5-0.1-0.7-0.1H383.6z"
			/>
		<path id="XMLID_296_" class="st1" d="M384.3,269.1c3.8,0,5.5,2.7,5.5,5.4c0,3-2,5.3-5.3,5.3c-3.3,0-5.5-2.2-5.5-5.5
			C379,271.2,381.2,269.1,384.3,269.1z M384.4,276.6c1.8,0,3.1-0.7,3.1-2.1c0-1.2-1.2-2-3.1-2c-1.5,0-3.1,0.6-3.1,2
			C381.3,276,382.8,276.6,384.4,276.6z"/>
		<path id="XMLID_294_" class="st1" d="M382.5,267.1c-1.3,0-2.4,0-3.3,0.1v-2.8l1.4-0.1v-0.1c-0.7-0.4-1.6-1.5-1.6-3.2
			c0-2.1,1.4-3.7,4.4-3.7h6.1v3.2h-5.7c-1.3,0-2.2,0.5-2.2,1.6c0,0.9,0.6,1.4,1.2,1.6c0.2,0.1,0.5,0.1,0.8,0.1h6v3.2H382.5z"/>
		<path id="XMLID_291_" class="st1" d="M385.4,252.3c1.3-0.1,2-1.4,2-2.9c0-1.1-0.1-2-0.4-2.9l2.2-0.4c0.4,1.1,0.6,2.3,0.6,3.7
			c0,3.5-2,5.5-5.3,5.5c-2.6,0-5.5-1.6-5.5-5.2c0-3.3,2.6-4.6,5.2-4.6c0.5,0,1,0.1,1.3,0.1V252.3z M383.2,248.5
			c-0.8,0-2.1,0.3-2.1,1.8c0,1.4,1.2,1.9,2.1,2V248.5z"/>
	</g>
	<g id="XMLID_260_">
		<path id="XMLID_288_" class="st1" d="M418.1,352.2h5.5v-5.3h-5.5v-3.2h14.2v3.2h-6v5.3h6v3.2h-14.2V352.2z"/>
		<path id="XMLID_285_" class="st1" d="M432.3,335.1l-1,0.2v0.1c0.8,0.7,1.3,1.7,1.3,3c0,2.1-1.5,3.3-3.2,3.3c-2.7,0-4-2.4-3.9-6.1
			h-0.1c-0.5,0-1.3,0.3-1.3,1.9c0,1.1,0.4,2.2,0.8,2.9l-2.1,0.6c-0.4-0.7-0.9-2.1-0.9-4c0-3.4,2-4.5,4.5-4.5h3.6c1,0,1.9,0,2.5-0.1
			V335.1z M427.4,335.5c0,1.7,0.4,3,1.6,3c0.8,0,1.2-0.5,1.2-1.3c0-0.8-0.5-1.5-1.2-1.7c-0.2,0-0.4-0.1-0.5-0.1H427.4z"/>
		<path id="XMLID_283_" class="st1" d="M417.3,329.8v-3.2h15v3.2H417.3z"/>
		<path id="XMLID_280_" class="st1" d="M427,313.8c3.8,0,5.5,2.7,5.5,5.4c0,3-2,5.3-5.3,5.3c-3.3,0-5.5-2.2-5.5-5.5
			C421.7,315.9,423.9,313.8,427,313.8z M427.1,321.3c1.8,0,3.1-0.7,3.1-2.1c0-1.2-1.2-2-3.1-2c-1.5,0-3.1,0.6-3.1,2
			C424,320.7,425.6,321.3,427.1,321.3z"/>
		<path id="XMLID_277_" class="st1" d="M425.4,311.8c-1.4,0-2.5,0-3.5,0.1v-2.8l1.4-0.1v0c-1.1-0.8-1.7-1.9-1.7-3.4
			c0-2.3,2-4.3,5.3-4.3c3.8,0,5.5,2.4,5.5,4.7c0,1.2-0.5,2.2-1.2,2.7v0h5.1v3.2H425.4z M427.9,308.6c0.3,0,0.5,0,0.7-0.1
			c0.9-0.2,1.5-1,1.5-1.9c0-1.4-1.2-2.2-2.9-2.2c-1.6,0-2.9,0.7-2.9,2.2c0,0.9,0.7,1.7,1.6,1.9c0.2,0,0.4,0.1,0.6,0.1H427.9z"/>
		<path id="XMLID_274_" class="st1" d="M428.2,296.7c1.3-0.1,2-1.4,2-2.9c0-1.1-0.1-2-0.4-2.9l2.2-0.4c0.4,1.1,0.6,2.3,0.6,3.7
			c0,3.5-2,5.5-5.3,5.5c-2.6,0-5.5-1.6-5.5-5.2c0-3.3,2.6-4.6,5.2-4.6c0.5,0,1,0.1,1.3,0.1V296.7z M426,292.9
			c-0.8,0-2.1,0.3-2.1,1.8c0,1.4,1.2,1.9,2.1,2V292.9z"/>
		<path id="XMLID_272_" class="st1" d="M425.4,288c-1.5,0-2.5,0-3.4,0.1v-2.8l1.9-0.1v-0.1c-1.5-0.5-2.1-1.8-2.1-2.8
			c0-0.3,0-0.4,0-0.7h3c0,0.2-0.1,0.5-0.1,0.9c0,1.2,0.6,2,1.6,2.2c0.2,0,0.5,0.1,0.7,0.1h5.2v3.2H425.4z"/>
		<path id="XMLID_269_" class="st1" d="M419.1,276.7c0.9,0,1.6,0.7,1.6,1.7c0,1-0.7,1.7-1.6,1.7c-0.9,0-1.6-0.7-1.6-1.7
			C417.5,277.3,418.2,276.7,419.1,276.7z M432.3,280H422v-3.2h10.3V280z"/>
		<path id="XMLID_266_" class="st1" d="M417.3,264.2h11.9c1.2,0,2.4,0,3.1-0.1v2.9l-1.5,0.1v0c1.2,0.7,1.8,1.9,1.8,3.2
			c0,2.4-2.1,4.4-5.3,4.4c-3.5,0-5.5-2.2-5.5-4.6c0-1.3,0.4-2.3,1.2-2.7v0h-5.6V264.2z M426.3,267.4c-0.2,0-0.4,0-0.6,0
			c-0.9,0.2-1.6,0.9-1.6,1.9c0,1.5,1.3,2.2,2.9,2.2c1.8,0,2.9-0.9,2.9-2.2c0-0.9-0.6-1.7-1.5-1.9c-0.2-0.1-0.5-0.1-0.7-0.1H426.3z"
			/>
		<path id="XMLID_263_" class="st1" d="M427,251.4c3.8,0,5.5,2.7,5.5,5.4c0,3-2,5.3-5.3,5.3c-3.3,0-5.5-2.2-5.5-5.5
			C421.7,253.5,423.9,251.4,427,251.4z M427.1,258.9c1.8,0,3.1-0.7,3.1-2.1c0-1.2-1.2-2-3.1-2c-1.5,0-3.1,0.6-3.1,2
			C424,258.3,425.6,258.9,427.1,258.9z"/>
		<path id="XMLID_261_" class="st1" d="M417.3,249.4v-3.2h15v3.2H417.3z"/>
	</g>
	<g id="XMLID_240_">
		<path id="XMLID_257_" class="st1" d="M460.9,318.5c-1.4,0-2.5,0-3.5,0.1v-2.8l1.4-0.1v0c-1.1-0.8-1.7-1.9-1.7-3.4
			c0-2.3,2-4.3,5.3-4.3c3.8,0,5.5,2.4,5.5,4.7c0,1.2-0.5,2.2-1.2,2.7v0h5.1v3.2H460.9z M463.3,315.3c0.3,0,0.5,0,0.7-0.1
			c0.9-0.2,1.5-1,1.5-1.9c0-1.4-1.2-2.2-2.9-2.2c-1.6,0-2.9,0.7-2.9,2.2c0,0.9,0.7,1.7,1.6,1.9c0.2,0,0.4,0.1,0.6,0.1H463.3z"/>
		<path id="XMLID_255_" class="st1" d="M452.7,305.9v-3.2h15v3.2H452.7z"/>
		<path id="XMLID_252_" class="st1" d="M467.7,294.2l-1,0.2v0.1c0.8,0.7,1.3,1.7,1.3,3c0,2.1-1.5,3.3-3.2,3.3c-2.7,0-4-2.4-3.9-6.1
			h-0.1c-0.5,0-1.3,0.3-1.3,1.9c0,1.1,0.4,2.2,0.8,2.9l-2.1,0.6c-0.4-0.7-0.9-2.1-0.9-4c0-3.4,2-4.5,4.5-4.5h3.6c1,0,1.9,0,2.5-0.1
			V294.2z M462.8,294.6c0,1.7,0.4,3,1.6,3c0.8,0,1.2-0.5,1.2-1.3c0-0.8-0.5-1.5-1.2-1.7c-0.2,0-0.4-0.1-0.5-0.1H462.8z"/>
		<path id="XMLID_250_" class="st1" d="M467.5,281.2c0.3,0.6,0.5,1.6,0.5,2.9c0,3.3-2,5.5-5.3,5.5c-3,0-5.5-2.1-5.5-5.9
			c0-0.8,0.1-1.8,0.4-2.4l2.4,0.5c-0.2,0.4-0.3,1-0.3,1.8c0,1.7,1.2,2.8,2.9,2.8c1.9,0,2.9-1.3,2.9-2.8c0-0.8-0.1-1.4-0.3-1.8
			L467.5,281.2z"/>
		<path id="XMLID_247_" class="st1" d="M463.6,277.2c1.3-0.1,2-1.4,2-2.9c0-1.1-0.1-2-0.4-2.9l2.2-0.4c0.4,1.1,0.6,2.3,0.6,3.7
			c0,3.5-2,5.5-5.3,5.5c-2.6,0-5.5-1.6-5.5-5.2c0-3.3,2.6-4.6,5.2-4.6c0.5,0,1,0.1,1.3,0.1V277.2z M461.4,273.4
			c-0.8,0-2.1,0.3-2.1,1.8c0,1.4,1.2,1.9,2.1,2V273.4z"/>
		<path id="XMLID_244_" class="st1" d="M467.7,268.6c-0.7,0-1.9-0.1-3.1-0.1h-11.9v-3.2h5.9v0c-0.9-0.6-1.5-1.7-1.5-3.1
			c0-2.5,2-4.3,5.2-4.3c3.7,0,5.6,2.4,5.6,4.7c0,1.2-0.4,2.4-1.7,3.1v0l1.4,0.1V268.6z M463.3,265.3c0.2,0,0.4,0,0.6-0.1
			c0.9-0.2,1.5-1,1.5-1.9c0-1.4-1.1-2.2-2.9-2.2c-1.6,0-2.9,0.7-2.9,2.2c0,0.9,0.7,1.7,1.6,1.9c0.2,0,0.4,0.1,0.6,0.1H463.3z"/>
		<path id="XMLID_241_" class="st1" d="M462.4,245.6c3.8,0,5.5,2.7,5.5,5.4c0,3-2,5.3-5.3,5.3c-3.3,0-5.5-2.2-5.5-5.5
			C457.2,247.7,459.3,245.6,462.4,245.6z M462.5,253.1c1.8,0,3.1-0.7,3.1-2.1c0-1.2-1.2-2-3.1-2c-1.5,0-3.1,0.6-3.1,2
			C459.4,252.5,461,253.1,462.5,253.1z"/>
	</g>
	<g id="XMLID_213_">
		<path id="XMLID_237_" class="st1" d="M547.8,337.9c3.8,0,5.5,2.7,5.5,5.4c0,3-2,5.3-5.3,5.3c-3.3,0-5.5-2.2-5.5-5.5
			C542.5,340,544.7,337.9,547.8,337.9z M547.9,345.4c1.8,0,3.1-0.7,3.1-2.1c0-1.2-1.2-2-3.1-2c-1.5,0-3.1,0.6-3.1,2
			C544.8,344.8,546.3,345.4,547.9,345.4z"/>
		<path id="XMLID_235_" class="st1" d="M538,335.9v-3.2h15v3.2H538z"/>
		<path id="XMLID_232_" class="st1" d="M553,324.3l-1,0.2v0.1c0.8,0.7,1.3,1.7,1.3,3c0,2.1-1.5,3.3-3.2,3.3c-2.7,0-4-2.4-3.9-6.1
			H546c-0.5,0-1.3,0.3-1.3,1.9c0,1.1,0.4,2.2,0.8,2.9l-2.1,0.6c-0.4-0.7-0.9-2.1-0.9-4c0-3.4,2-4.5,4.5-4.5h3.6c1,0,1.9,0,2.5-0.1
			V324.3z M548.2,324.6c0,1.7,0.4,3,1.6,3c0.8,0,1.2-0.5,1.2-1.3c0-0.8-0.5-1.5-1.2-1.7c-0.2,0-0.4-0.1-0.5-0.1H548.2z"/>
		<path id="XMLID_230_" class="st1" d="M546,319c-1.3,0-2.4,0-3.3,0.1v-2.8l1.4-0.1v-0.1c-0.7-0.4-1.6-1.5-1.6-3.2
			c0-2.1,1.4-3.7,4.4-3.7h6.1v3.2h-5.7c-1.3,0-2.2,0.5-2.2,1.6c0,0.9,0.6,1.4,1.2,1.6c0.2,0.1,0.5,0.1,0.8,0.1h6v3.2H546z"/>
		<path id="XMLID_228_" class="st1" d="M551.2,307.4l-4.1-3.3c-0.7-0.6-1.2-1.1-1.8-1.6h0v4.5h-2.5v-8.4h1.9l3.9,3.1
			c0.7,0.6,1.3,1.1,1.9,1.7h0v-5h2.6v9H551.2z"/>
		<path id="XMLID_225_" class="st1" d="M553,290.8l-1,0.2v0.1c0.8,0.7,1.3,1.7,1.3,3c0,2.1-1.5,3.3-3.2,3.3c-2.7,0-4-2.4-3.9-6.1
			H546c-0.5,0-1.3,0.3-1.3,1.9c0,1.1,0.4,2.2,0.8,2.9l-2.1,0.6c-0.4-0.7-0.9-2.1-0.9-4c0-3.4,2-4.5,4.5-4.5h3.6c1,0,1.9,0,2.5-0.1
			V290.8z M548.2,291.2c0,1.7,0.4,3,1.6,3c0.8,0,1.2-0.5,1.2-1.3c0-0.8-0.5-1.5-1.2-1.7c-0.2,0-0.4-0.1-0.5-0.1H548.2z"/>
		<path id="XMLID_222_" class="st1" d="M546.2,285.5c-1.4,0-2.5,0-3.5,0.1v-2.8l1.4-0.1v0c-1.1-0.8-1.7-1.9-1.7-3.4
			c0-2.3,2-4.3,5.3-4.3c3.8,0,5.5,2.4,5.5,4.7c0,1.2-0.5,2.2-1.2,2.7v0h5.1v3.2H546.2z M548.6,282.3c0.3,0,0.5,0,0.7-0.1
			c0.9-0.2,1.5-1,1.5-1.9c0-1.4-1.2-2.2-2.9-2.2c-1.6,0-2.9,0.7-2.9,2.2c0,0.9,0.7,1.7,1.6,1.9c0.2,0,0.4,0.1,0.6,0.1H548.6z"/>
		<path id="XMLID_219_" class="st1" d="M539.8,269.6c0.9,0,1.6,0.7,1.6,1.7c0,1-0.7,1.7-1.6,1.7c-0.9,0-1.6-0.7-1.6-1.7
			C538.2,270.3,538.9,269.6,539.8,269.6z M553,272.9h-10.3v-3.2H553V272.9z"/>
		<path id="XMLID_217_" class="st1" d="M546,267.1c-1.3,0-2.4,0-3.3,0.1v-2.8l1.4-0.1v-0.1c-0.7-0.4-1.6-1.5-1.6-3.2
			c0-2.1,1.4-3.7,4.4-3.7h6.1v3.2h-5.7c-1.3,0-2.2,0.5-2.2,1.6c0,0.9,0.6,1.4,1.2,1.6c0.2,0.1,0.5,0.1,0.8,0.1h6v3.2H546z"/>
		<path id="XMLID_214_" class="st1" d="M548.9,252.3c1.3-0.1,2-1.4,2-2.9c0-1.1-0.1-2-0.4-2.9l2.2-0.4c0.4,1.1,0.6,2.3,0.6,3.7
			c0,3.5-2,5.5-5.3,5.5c-2.6,0-5.5-1.6-5.5-5.2c0-3.3,2.6-4.6,5.2-4.6c0.5,0,1,0.1,1.3,0.1V252.3z M546.7,248.5
			c-0.8,0-2.1,0.3-2.1,1.8c0,1.4,1.2,1.9,2.1,2V248.5z"/>
	</g>
	<g id="XMLID_182_">
		<path id="XMLID_210_" class="st1" d="M580.4,357.1c-0.2-1-0.3-2.6-0.3-4.3c0-2.1,0.3-3.6,1.1-4.6c0.7-0.8,1.7-1.3,3-1.3
			c1.8,0,3.1,1.3,3.5,2.5h0.1c0.4-1,1.4-1.5,2.7-1.9c1.6-0.4,3.5-0.9,4-1.2v3.3c-0.4,0.2-1.6,0.6-3.3,1c-1.8,0.4-2.3,1-2.3,2.3v1
			h5.6v3.2H580.4z M586.5,353.9v-1.3c0-1.6-0.8-2.6-2-2.6c-1.3,0-2,0.9-2,2.4c0,0.8,0.1,1.2,0.1,1.5H586.5z"/>
		<path id="XMLID_207_" class="st1" d="M581.2,341.2c0.9,0,1.6,0.7,1.6,1.7c0,1-0.7,1.7-1.6,1.7c-0.9,0-1.6-0.7-1.6-1.7
			C579.6,341.9,580.3,341.2,581.2,341.2z M594.4,344.5h-10.3v-3.2h10.3V344.5z"/>
		<path id="XMLID_205_" class="st1" d="M591.6,338.7c0.4-0.6,0.8-1.8,0.8-2.8c0-1-0.3-1.4-0.9-1.4c-0.5,0-0.8,0.3-1.2,1.5
			c-0.7,2.1-1.9,3-3.1,2.9c-1.9,0-3.4-1.6-3.4-4.2c0-1.2,0.3-2.3,0.6-2.9l2.2,0.6c-0.3,0.5-0.6,1.4-0.6,2.2c0,0.8,0.3,1.2,0.8,1.2
			c0.5,0,0.7-0.4,1.2-1.7c0.7-2,1.7-2.8,3.2-2.8c1.9,0,3.3,1.5,3.3,4.5c0,1.4-0.3,2.6-0.7,3.3L591.6,338.7z"/>
		<path id="XMLID_202_" class="st1" d="M587.6,329.6c-1.4,0-2.5,0-3.5,0.1v-2.8l1.4-0.1v0c-1.1-0.8-1.7-1.9-1.7-3.4
			c0-2.3,2-4.3,5.3-4.3c3.8,0,5.5,2.4,5.5,4.7c0,1.2-0.5,2.2-1.2,2.7v0h5.1v3.2H587.6z M590,326.3c0.3,0,0.5,0,0.7-0.1
			c0.9-0.2,1.5-1,1.5-1.9c0-1.4-1.2-2.2-2.9-2.2c-1.6,0-2.9,0.7-2.9,2.2c0,0.9,0.7,1.7,1.6,1.9c0.2,0,0.4,0.1,0.6,0.1H590z"/>
		<path id="XMLID_199_" class="st1" d="M590.3,314.4c1.3-0.1,2-1.4,2-2.9c0-1.1-0.1-2-0.4-2.9l2.2-0.4c0.4,1.1,0.6,2.3,0.6,3.7
			c0,3.5-2,5.5-5.3,5.5c-2.6,0-5.5-1.6-5.5-5.2c0-3.3,2.6-4.6,5.2-4.6c0.5,0,1,0.1,1.3,0.1V314.4z M588.1,310.6
			c-0.8,0-2.1,0.3-2.1,1.8c0,1.4,1.2,1.9,2.1,2V310.6z"/>
		<path id="XMLID_197_" class="st1" d="M587.5,305.7c-1.5,0-2.5,0-3.4,0.1V303l1.9-0.1v-0.1c-1.5-0.5-2.1-1.8-2.1-2.8
			c0-0.3,0-0.4,0-0.7h3c0,0.2-0.1,0.5-0.1,0.9c0,1.2,0.6,2,1.6,2.2c0.2,0,0.5,0.1,0.7,0.1h5.2v3.2H587.5z"/>
		<path id="XMLID_194_" class="st1" d="M581.2,294.4c0.9,0,1.6,0.7,1.6,1.7c0,1-0.7,1.7-1.6,1.7c-0.9,0-1.6-0.7-1.6-1.7
			C579.6,295,580.3,294.4,581.2,294.4z M594.4,297.7h-10.3v-3.2h10.3V297.7z"/>
		<path id="XMLID_191_" class="st1" d="M579.4,281.9h11.9c1.2,0,2.4,0,3.1-0.1v2.9l-1.5,0.1v0c1.2,0.7,1.8,1.9,1.8,3.2
			c0,2.4-2.1,4.4-5.3,4.4c-3.5,0-5.5-2.2-5.5-4.6c0-1.3,0.4-2.3,1.2-2.7v0h-5.6V281.9z M588.5,285.1c-0.2,0-0.4,0-0.6,0
			c-0.9,0.2-1.6,0.9-1.6,1.9c0,1.5,1.3,2.2,2.9,2.2c1.8,0,2.9-0.9,2.9-2.2c0-0.9-0.6-1.7-1.5-1.9c-0.2-0.1-0.5-0.1-0.7-0.1H588.5z"
			/>
		<path id="XMLID_188_" class="st1" d="M589.1,269.1c3.8,0,5.5,2.7,5.5,5.4c0,3-2,5.3-5.3,5.3c-3.3,0-5.5-2.2-5.5-5.5
			C583.9,271.2,586,269.1,589.1,269.1z M589.3,276.6c1.8,0,3.1-0.7,3.1-2.1c0-1.2-1.2-2-3.1-2c-1.5,0-3.1,0.6-3.1,2
			C586.2,276,587.7,276.6,589.3,276.6z"/>
		<path id="XMLID_186_" class="st1" d="M587.4,267.1c-1.3,0-2.4,0-3.3,0.1v-2.8l1.4-0.1v-0.1c-0.7-0.4-1.6-1.5-1.6-3.2
			c0-2.1,1.4-3.7,4.4-3.7h6.1v3.2h-5.7c-1.3,0-2.2,0.5-2.2,1.6c0,0.9,0.6,1.4,1.2,1.6c0.2,0.1,0.5,0.1,0.8,0.1h6v3.2H587.4z"/>
		<path id="XMLID_183_" class="st1" d="M590.3,252.3c1.3-0.1,2-1.4,2-2.9c0-1.1-0.1-2-0.4-2.9l2.2-0.4c0.4,1.1,0.6,2.3,0.6,3.7
			c0,3.5-2,5.5-5.3,5.5c-2.6,0-5.5-1.6-5.5-5.2c0-3.3,2.6-4.6,5.2-4.6c0.5,0,1,0.1,1.3,0.1V252.3z M588.1,248.5
			c-0.8,0-2.1,0.3-2.1,1.8c0,1.4,1.2,1.9,2.1,2V248.5z"/>
	</g>
	<g id="XMLID_152_">
		<path id="XMLID_180_" class="st1" d="M623,352.2h5.5v-5.3H623v-3.2h14.2v3.2h-6v5.3h6v3.2H623V352.2z"/>
		<path id="XMLID_177_" class="st1" d="M637.2,335.1l-1,0.2v0.1c0.8,0.7,1.3,1.7,1.3,3c0,2.1-1.5,3.3-3.2,3.3c-2.7,0-4-2.4-3.9-6.1
			h-0.1c-0.5,0-1.3,0.3-1.3,1.9c0,1.1,0.4,2.2,0.8,2.9l-2.1,0.6c-0.4-0.7-0.9-2.1-0.9-4c0-3.4,2-4.5,4.5-4.5h3.6c1,0,1.9,0,2.5-0.1
			V335.1z M632.3,335.5c0,1.7,0.4,3,1.6,3c0.8,0,1.2-0.5,1.2-1.3c0-0.8-0.5-1.5-1.2-1.7c-0.2,0-0.4-0.1-0.5-0.1H632.3z"/>
		<path id="XMLID_175_" class="st1" d="M622.2,329.8v-3.2h15v3.2H622.2z"/>
		<path id="XMLID_172_" class="st1" d="M631.9,313.8c3.8,0,5.5,2.7,5.5,5.4c0,3-2,5.3-5.3,5.3c-3.3,0-5.5-2.2-5.5-5.5
			C626.6,315.9,628.8,313.8,631.9,313.8z M632,321.3c1.8,0,3.1-0.7,3.1-2.1c0-1.2-1.2-2-3.1-2c-1.5,0-3.1,0.6-3.1,2
			C628.9,320.7,630.5,321.3,632,321.3z"/>
		<path id="XMLID_169_" class="st1" d="M630.3,311.8c-1.4,0-2.5,0-3.5,0.1v-2.8l1.4-0.1v0c-1.1-0.8-1.7-1.9-1.7-3.4
			c0-2.3,2-4.3,5.3-4.3c3.8,0,5.5,2.4,5.5,4.7c0,1.2-0.5,2.2-1.2,2.7v0h5.1v3.2H630.3z M632.8,308.6c0.3,0,0.5,0,0.7-0.1
			c0.9-0.2,1.5-1,1.5-1.9c0-1.4-1.2-2.2-2.9-2.2c-1.6,0-2.9,0.7-2.9,2.2c0,0.9,0.7,1.7,1.6,1.9c0.2,0,0.4,0.1,0.6,0.1H632.8z"/>
		<path id="XMLID_166_" class="st1" d="M633.1,296.7c1.3-0.1,2-1.4,2-2.9c0-1.1-0.1-2-0.4-2.9l2.2-0.4c0.4,1.1,0.6,2.3,0.6,3.7
			c0,3.5-2,5.5-5.3,5.5c-2.6,0-5.5-1.6-5.5-5.2c0-3.3,2.6-4.6,5.2-4.6c0.5,0,1,0.1,1.3,0.1V296.7z M630.9,292.9
			c-0.8,0-2.1,0.3-2.1,1.8c0,1.4,1.2,1.9,2.1,2V292.9z"/>
		<path id="XMLID_164_" class="st1" d="M630.3,288c-1.5,0-2.5,0-3.4,0.1v-2.8l1.9-0.1v-0.1c-1.5-0.5-2.1-1.8-2.1-2.8
			c0-0.3,0-0.4,0-0.7h3c0,0.2-0.1,0.5-0.1,0.9c0,1.2,0.6,2,1.6,2.2c0.2,0,0.5,0.1,0.7,0.1h5.2v3.2H630.3z"/>
		<path id="XMLID_161_" class="st1" d="M624,276.7c0.9,0,1.6,0.7,1.6,1.7c0,1-0.7,1.7-1.6,1.7c-0.9,0-1.6-0.7-1.6-1.7
			C622.4,277.3,623.1,276.7,624,276.7z M637.2,280h-10.3v-3.2h10.3V280z"/>
		<path id="XMLID_158_" class="st1" d="M622.2,264.2h11.9c1.2,0,2.4,0,3.1-0.1v2.9l-1.5,0.1v0c1.2,0.7,1.8,1.9,1.8,3.2
			c0,2.4-2.1,4.4-5.3,4.4c-3.5,0-5.5-2.2-5.5-4.6c0-1.3,0.4-2.3,1.2-2.7v0h-5.6V264.2z M631.2,267.4c-0.2,0-0.4,0-0.6,0
			c-0.9,0.2-1.6,0.9-1.6,1.9c0,1.5,1.3,2.2,2.9,2.2c1.8,0,2.9-0.9,2.9-2.2c0-0.9-0.6-1.7-1.5-1.9c-0.2-0.1-0.5-0.1-0.7-0.1H631.2z"
			/>
		<path id="XMLID_155_" class="st1" d="M631.9,251.4c3.8,0,5.5,2.7,5.5,5.4c0,3-2,5.3-5.3,5.3c-3.3,0-5.5-2.2-5.5-5.5
			C626.6,253.5,628.8,251.4,631.9,251.4z M632,258.9c1.8,0,3.1-0.7,3.1-2.1c0-1.2-1.2-2-3.1-2c-1.5,0-3.1,0.6-3.1,2
			C628.9,258.3,630.5,258.9,632,258.9z"/>
		<path id="XMLID_153_" class="st1" d="M622.2,249.4v-3.2h15v3.2H622.2z"/>
	</g>
	<rect id="XMLID_151_" x="39.5" y="199.5" class="st4" width="17.2" height="29.9"/>
	<rect id="XMLID_150_" x="81.7" y="212.9" class="st5" width="17.2" height="16.5"/>
	<rect id="XMLID_149_" x="123.6" y="212.9" class="st6" width="17.2" height="16.5"/>
	<rect id="XMLID_148_" x="165.1" y="189.3" class="st7" width="17.2" height="41.9"/>
	<rect id="XMLID_147_" x="207.4" y="210.2" class="st8" width="17.2" height="20.9"/>
	<rect id="XMLID_146_" x="249.2" y="212.9" class="st4" width="17.2" height="16.5"/>
	<rect id="XMLID_145_" x="291.5" y="212.9" class="st5" width="17.2" height="16.5"/>
	<rect id="XMLID_144_" x="333.4" y="212.9" class="st6" width="17.2" height="16.5"/>
	<rect id="XMLID_143_" x="376.3" y="201.6" class="st7" width="15.8" height="29.6"/>
	<rect id="XMLID_142_" x="418" y="178" class="st8" width="17.2" height="53.1"/>
	<rect id="XMLID_141_" x="460" y="194.8" class="st4" width="17.2" height="34.6"/>
	<rect id="XMLID_140_" x="502.3" y="187.7" class="st5" width="17.2" height="41.7"/>
	<rect id="XMLID_139_" x="544.1" y="192.5" class="st6" width="17.2" height="37"/>
	<rect id="XMLID_138_" x="587.1" y="185.8" class="st7" width="15.8" height="45.4"/>
	<rect id="XMLID_137_" x="622.4" y="76.8" class="st8" width="17.2" height="154.3"/>
	<g id="XMLID_92_">
		<path id="XMLID_136_" class="st5" d="M93.2,328.2v-7.3c0-1.1-0.2-1.6-0.8-1.6c-0.6,0-0.7,0.4-0.8,1.1c-0.3,3.5-1.2,4.4-3.5,4.4
			c-2.2,0-3.7-1.5-3.7-4.8c0-2,0.3-3,0.6-3.7h3c-0.4,1-0.7,2.3-0.7,3.5c0,1,0.2,1.5,0.8,1.5c0.6,0,0.7-0.4,0.8-1.1
			c0.3-3.5,1.2-4.4,3.5-4.4c2.1,0,3.7,1.3,3.7,5v6.8"/>
		<path id="XMLID_133_" class="st5" d="M91.3,311.8c1.4,0.1,1.9-0.7,1.9-2.4c0-1.7-0.3-2.9-0.7-3.7h2.8c0.5,1.3,0.8,2.8,0.8,4.1
			c0,3.6-1.9,5.4-5.8,5.4s-5.8-1.7-5.8-5.2c0-4.7,3.5-5,7-4.8V311.8z M89.2,311.8v-3.1c-1.2-0.2-2.2,0.1-2.2,1.4
			C87,311.3,87.8,311.8,89.2,311.8"/>
		<path id="XMLID_132_" class="st5" d="M84.7,302.2l0.8-0.4c-0.7-1.2-1.1-2.6-1.1-3.8c0-3,1.6-3.9,3.7-3.9h7.6v3.5h-7.1
			c-0.8,0-1.4,0.3-1.4,1.2c0,0.9,0.4,1.6,0.6,2h7.9v3.5h-11V302.2z"/>
		<path id="XMLID_129_" class="st5" d="M88,287.2c-0.5,0-0.8,0.4-0.8,1.3c0,1.4,0.4,3,0.8,4h-3c-0.3-0.8-0.7-2.4-0.7-4
			c0-4,1.7-4.7,4.2-4.7h7.2v2.1l-0.8,0.5c0.7,0.8,1.1,1.9,1.1,3.2c0,2.8-1.9,3.7-3.5,3.7c-3,0-3.4-2.2-3.6-4.2l-0.2-2H88z
			 M90.8,288.7c0.1,1,0.6,1.4,1.5,1.4c0.8,0,1.3-0.5,1.3-1.3c0-0.6-0.2-1.2-0.5-1.6h-2.4L90.8,288.7z"/>
		<path id="XMLID_126_" class="st5" d="M84.7,280.5l0.9-0.6c-0.7-0.8-1.2-1.8-1.2-3.6c0-2.9,1.8-4.3,5.8-4.3c4.1,0,5.8,1.4,5.8,4.3
			c0,1.2-0.3,2.1-0.7,2.8h5.9v3.5H84.7V280.5z M92.7,279.1c0,0,0.5-0.7,0.5-1.6c0-1.6-1.1-2-3-2c-1.9,0-2.9,0.4-2.9,2
			c0,0.9,0.5,1.6,0.5,1.6H92.7z"/>
		<path id="XMLID_125_" class="st5" d="M95.8,266.7c0,0,0.1,0.5,0.1,1c0,1.9-1,3.4-3.1,3.4h-8.1v-3.5h7.6c0.4,0,0.7-0.2,0.7-0.9
			H95.8z"/>
		<path id="XMLID_124_" class="st5" d="M84.7,263.7l0.8-0.4c-0.7-1.2-1.1-2.6-1.1-3.8c0-3,1.6-3.9,3.7-3.9h7.6v3.5h-7.1
			c-0.8,0-1.4,0.3-1.4,1.2c0,0.9,0.4,1.6,0.6,2h7.9v3.5h-11V263.7z"/>
		<path id="XMLID_121_" class="st5" d="M91.3,251.4c1.4,0.1,1.9-0.7,1.9-2.4c0-1.7-0.3-2.9-0.7-3.7h2.8c0.5,1.3,0.8,2.8,0.8,4.1
			c0,3.6-1.9,5.4-5.8,5.4s-5.8-1.7-5.8-5.2c0-4.7,3.5-5,7-4.8V251.4z M89.2,251.4v-3.1c-1.2-0.2-2.2,0.1-2.2,1.4
			C87,250.9,87.8,251.4,89.2,251.4"/>
		<polyline id="XMLID_120_" class="st5" points="92.3,331.8 89.5,331.2 89.5,329 83.2,330.4 89.5,331.9 92.3,332.5 95.7,333.3 
			95.7,337.1 79.1,332.5 79.1,328.4 95.7,323.8 95.7,327.6 92.3,328.4 		"/>
		<g id="XMLID_98_">
			<polygon id="XMLID_119_" class="st5" points="101,275.6 99,275.6 99,277.7 101,277.7 101,278 96.9,278 96.9,277.7 98.7,277.7 
				98.7,275.6 96.9,275.6 96.9,275.2 101,275.2 			"/>
			<path id="XMLID_116_" class="st5" d="M97.1,274.2c0-0.2,0.1-0.3,0.3-0.3c0.2,0,0.3,0.1,0.3,0.3c0,0.2-0.1,0.3-0.3,0.3
				C97.3,274.5,97.1,274.3,97.1,274.2 M100.5,274.4h-2.2V274h2.3c0.2,0,0.3-0.1,0.3-0.2h0.3C101.1,274.2,100.9,274.4,100.5,274.4"/>
			<polygon id="XMLID_115_" class="st5" points="99.4,272.2 101,270.8 101,271.3 99.6,272.4 99.9,272.7 101,272.7 101,273.1 
				96.9,273.1 96.9,272.7 99.5,272.7 98.3,271.5 98.3,271 			"/>
			<path id="XMLID_114_" class="st5" d="M99,267.1c-0.4,0-0.5,0.2-0.5,0.5c0,0.3,0.1,0.5,0.2,0.8c0.1,0,0.2,0,0.3,0h2v0.4h-2
				c-0.4,0-0.5,0.2-0.5,0.5c0,0.3,0.1,0.5,0.2,0.7h2.3v0.4h-2.8v-0.2l0.2-0.1c-0.2-0.3-0.3-0.6-0.3-0.8c0-0.4,0.1-0.6,0.3-0.8
				c-0.2-0.3-0.3-0.6-0.3-0.9c0-0.6,0.3-0.9,0.8-0.9h2v0.4H99z"/>
			<path id="XMLID_111_" class="st5" d="M98.5,265c0,0.4,0.1,0.6,0.1,0.8h-0.3c-0.1-0.2-0.1-0.6-0.1-0.8c0-0.8,0.4-1,0.9-1h1.9v0.2
				l-0.2,0.1c0.2,0.2,0.3,0.6,0.3,0.8c0,0.7-0.4,1-0.9,1c-0.5,0-0.8-0.3-0.9-1l0-0.7h-0.2C98.7,264.4,98.5,264.5,98.5,265
				 M99.6,265.1c0,0.4,0.2,0.6,0.6,0.6c0.2,0,0.5-0.1,0.5-0.6c0-0.3-0.1-0.5-0.2-0.7h-1L99.6,265.1z"/>
			<path id="XMLID_108_" class="st5" d="M101,261.9v0.4h-4.2V261c0-1,0.6-1.4,1.2-1.4s1.2,0.4,1.2,1.4v0.9H101z M99,261.9V261
				c0-0.8-0.5-0.9-0.9-0.9c-0.4,0-0.9,0.2-0.9,0.9v0.9H99z"/>
			<path id="XMLID_107_" class="st5" d="M98.5,257.9c0,0.4,0.1,0.6,0.2,0.8h2.3v0.4h-4.2v-0.4h1.6c-0.2-0.2-0.2-0.5-0.2-0.8
				c0-0.7,0.3-0.9,0.8-0.9h2v0.4h-2C98.6,257.4,98.5,257.6,98.5,257.9"/>
			<path id="XMLID_104_" class="st5" d="M98.5,255.3c0,0.4,0.1,0.6,0.1,0.8h-0.3c-0.1-0.2-0.1-0.6-0.1-0.8c0-0.8,0.4-1,0.9-1h1.9
				v0.2l-0.2,0.1c0.2,0.2,0.3,0.6,0.3,0.8c0,0.7-0.4,1-0.9,1c-0.5,0-0.8-0.3-0.9-1l0-0.7h-0.2C98.7,254.7,98.5,254.8,98.5,255.3
				 M99.6,255.4c0,0.4,0.2,0.6,0.6,0.6c0.2,0,0.5-0.1,0.5-0.6c0-0.3-0.1-0.5-0.2-0.7h-1L99.6,255.4z"/>
			<path id="XMLID_103_" class="st5" d="M98.6,252c0,0.1,0,0.2,0,0.3c0,0.4,0.1,0.6,0.2,0.8h2.3v0.4h-2.8v-0.2l0.2-0.1
				c-0.2-0.3-0.3-0.6-0.3-0.9c0-0.1,0-0.2,0-0.3H98.6z"/>
			<path id="XMLID_102_" class="st5" d="M99,248.3c-0.4,0-0.5,0.2-0.5,0.5c0,0.3,0.1,0.5,0.2,0.8c0.1,0,0.2,0,0.3,0h2v0.4h-2
				c-0.4,0-0.5,0.2-0.5,0.5c0,0.3,0.1,0.5,0.2,0.7h2.3v0.4h-2.8v-0.2l0.2-0.1c-0.2-0.3-0.3-0.6-0.3-0.8c0-0.4,0.1-0.6,0.3-0.8
				c-0.2-0.3-0.3-0.6-0.3-0.9c0-0.6,0.3-0.9,0.8-0.9h2v0.4H99z"/>
			<path id="XMLID_99_" class="st5" d="M98.5,246.2c0,0.4,0.1,0.6,0.1,0.8h-0.3c-0.1-0.2-0.1-0.6-0.1-0.8c0-0.8,0.4-1,0.9-1h1.9v0.2
				l-0.2,0.1c0.2,0.2,0.3,0.6,0.3,0.8c0,0.7-0.4,1-0.9,1c-0.5,0-0.8-0.3-0.9-1l0-0.7h-0.2C98.7,245.6,98.5,245.7,98.5,246.2
				 M99.6,246.3c0,0.4,0.2,0.6,0.6,0.6c0.2,0,0.5-0.1,0.5-0.6c0-0.3-0.1-0.5-0.2-0.7h-1L99.6,246.3z"/>
		</g>
		<g id="XMLID_93_">
			<path id="XMLID_97_" class="st5" d="M78.5,268.1c0,0.5,0.1,0.9,0.3,1.3c0.1-0.2,0.2-0.3,0.3-0.5c0.2-0.9,1-1.6,2-1.6
				c1,0,1.8,0.7,2,1.6c0.1,0.1,0.2,0.3,0.3,0.5c0.2-0.4,0.3-0.8,0.3-1.3c0-1.5-1.2-2.7-2.7-2.7C79.7,265.4,78.5,266.6,78.5,268.1z"
				/>
			<path id="XMLID_96_" class="st9" d="M81.2,271.4c-1,0-1.8-0.7-2-1.6c-0.1-0.1-0.2-0.3-0.3-0.5c-0.2,0.4-0.3,0.8-0.3,1.3
				c0,1.5,1.2,2.7,2.7,2.7c1.5,0,2.7-1.2,2.7-2.7c0-0.5-0.1-0.9-0.3-1.3c-0.1,0.2-0.2,0.3-0.3,0.5C83,270.8,82.2,271.4,81.2,271.4z"
				/>
			<path id="XMLID_95_" class="st9" d="M83.3,269.4c0,0.2,0,0.3-0.1,0.5c0.1-0.1,0.2-0.3,0.3-0.5c-0.1-0.2-0.2-0.3-0.3-0.5
				C83.2,269,83.3,269.2,83.3,269.4z"/>
			<path id="XMLID_94_" class="st9" d="M79.1,269.4c0-0.2,0-0.3,0.1-0.5c-0.1,0.1-0.2,0.3-0.3,0.5c0.1,0.2,0.2,0.3,0.3,0.5
				C79.1,269.7,79.1,269.5,79.1,269.4z"/>
		</g>
	</g>
	<g id="XMLID_47_">
		<path id="XMLID_91_" class="st5" d="M304,328.2v-7.3c0-1.1-0.2-1.6-0.8-1.6c-0.6,0-0.7,0.4-0.8,1.1c-0.3,3.5-1.2,4.4-3.5,4.4
			c-2.2,0-3.7-1.5-3.7-4.8c0-2,0.3-3,0.6-3.7h3c-0.4,1-0.7,2.3-0.7,3.5c0,1,0.2,1.5,0.8,1.5c0.6,0,0.7-0.4,0.8-1.1
			c0.3-3.5,1.2-4.4,3.5-4.4c2.1,0,3.7,1.3,3.7,5v6.8"/>
		<path id="XMLID_88_" class="st5" d="M302.1,311.8c1.4,0.1,1.9-0.7,1.9-2.4c0-1.7-0.3-2.9-0.7-3.7h2.8c0.5,1.3,0.8,2.8,0.8,4.1
			c0,3.6-1.9,5.4-5.8,5.4s-5.8-1.7-5.8-5.2c0-4.7,3.5-5,7-4.8V311.8z M300,311.8v-3.1c-1.2-0.2-2.2,0.1-2.2,1.4
			C297.8,311.3,298.6,311.8,300,311.8"/>
		<path id="XMLID_87_" class="st5" d="M295.5,302.2l0.8-0.4c-0.7-1.2-1.1-2.6-1.1-3.8c0-3,1.6-3.9,3.7-3.9h7.6v3.5h-7.1
			c-0.8,0-1.4,0.3-1.4,1.2c0,0.9,0.4,1.6,0.6,2h7.9v3.5h-11V302.2z"/>
		<path id="XMLID_84_" class="st5" d="M298.8,287.2c-0.5,0-0.8,0.4-0.8,1.3c0,1.4,0.4,3,0.8,4h-3c-0.3-0.8-0.7-2.4-0.7-4
			c0-4,1.7-4.7,4.2-4.7h7.2v2.1l-0.8,0.5c0.7,0.8,1.1,1.9,1.1,3.2c0,2.8-1.9,3.7-3.5,3.7c-3,0-3.4-2.2-3.6-4.2l-0.2-2H298.8z
			 M301.6,288.7c0.1,1,0.6,1.4,1.5,1.4c0.8,0,1.3-0.5,1.3-1.3c0-0.6-0.2-1.2-0.5-1.6h-2.4L301.6,288.7z"/>
		<path id="XMLID_81_" class="st5" d="M295.5,280.5l0.9-0.6c-0.7-0.8-1.2-1.8-1.2-3.6c0-2.9,1.8-4.3,5.8-4.3c4.1,0,5.8,1.4,5.8,4.3
			c0,1.2-0.3,2.1-0.7,2.8h5.9v3.5h-16.5V280.5z M303.5,279.1c0,0,0.5-0.7,0.5-1.6c0-1.6-1.1-2-3-2c-1.9,0-2.9,0.4-2.9,2
			c0,0.9,0.5,1.6,0.5,1.6H303.5z"/>
		<path id="XMLID_80_" class="st5" d="M306.6,266.7c0,0,0.1,0.5,0.1,1c0,1.9-1,3.4-3.1,3.4h-8.1v-3.5h7.6c0.4,0,0.7-0.2,0.7-0.9
			H306.6z"/>
		<path id="XMLID_79_" class="st5" d="M295.5,263.7l0.8-0.4c-0.7-1.2-1.1-2.6-1.1-3.8c0-3,1.6-3.9,3.7-3.9h7.6v3.5h-7.1
			c-0.8,0-1.4,0.3-1.4,1.2c0,0.9,0.4,1.6,0.6,2h7.9v3.5h-11V263.7z"/>
		<path id="XMLID_76_" class="st5" d="M302.1,251.4c1.4,0.1,1.9-0.7,1.9-2.4c0-1.7-0.3-2.9-0.7-3.7h2.8c0.5,1.3,0.8,2.8,0.8,4.1
			c0,3.6-1.9,5.4-5.8,5.4s-5.8-1.7-5.8-5.2c0-4.7,3.5-5,7-4.8V251.4z M300,251.4v-3.1c-1.2-0.2-2.2,0.1-2.2,1.4
			C297.8,250.9,298.6,251.4,300,251.4"/>
		<polyline id="XMLID_75_" class="st5" points="303.1,331.8 300.3,331.2 300.3,329 294,330.4 300.3,331.9 303.1,332.5 306.5,333.3 
			306.5,337.1 289.9,332.5 289.9,328.4 306.5,323.8 306.5,327.6 303.1,328.4 		"/>
		<g id="XMLID_53_">
			<polygon id="XMLID_74_" class="st5" points="311.8,275.6 309.8,275.6 309.8,277.7 311.8,277.7 311.8,278 307.7,278 307.7,277.7 
				309.5,277.7 309.5,275.6 307.7,275.6 307.7,275.2 311.8,275.2 			"/>
			<path id="XMLID_71_" class="st5" d="M307.9,274.2c0-0.2,0.1-0.3,0.3-0.3c0.2,0,0.3,0.1,0.3,0.3c0,0.2-0.1,0.3-0.3,0.3
				C308.1,274.5,307.9,274.3,307.9,274.2 M311.3,274.4h-2.2V274h2.3c0.2,0,0.2-0.1,0.2-0.2h0.3C311.9,274.2,311.7,274.4,311.3,274.4
				"/>
			<polygon id="XMLID_70_" class="st5" points="310.2,272.2 311.8,270.8 311.8,271.3 310.4,272.4 310.8,272.7 311.8,272.7 
				311.8,273.1 307.7,273.1 307.7,272.7 310.3,272.7 309.1,271.5 309.1,271 			"/>
			<path id="XMLID_69_" class="st5" d="M309.8,267.1c-0.4,0-0.5,0.2-0.5,0.5c0,0.3,0.1,0.5,0.2,0.8c0.1,0,0.2,0,0.3,0h2v0.4h-2
				c-0.4,0-0.5,0.2-0.5,0.5c0,0.3,0.1,0.5,0.2,0.7h2.3v0.4h-2.8v-0.2l0.2-0.1c-0.2-0.3-0.3-0.6-0.3-0.8c0-0.4,0.1-0.6,0.3-0.8
				c-0.2-0.3-0.3-0.6-0.3-0.9c0-0.6,0.3-0.9,0.8-0.9h2v0.4H309.8z"/>
			<path id="XMLID_66_" class="st5" d="M309.3,265c0,0.4,0.1,0.6,0.1,0.8h-0.3c-0.1-0.2-0.1-0.6-0.1-0.8c0-0.8,0.4-1,0.9-1h1.9v0.2
				l-0.2,0.1c0.2,0.2,0.3,0.6,0.3,0.8c0,0.7-0.4,1-0.9,1c-0.5,0-0.8-0.3-0.9-1l0-0.7h-0.2C309.5,264.4,309.3,264.5,309.3,265
				 M310.4,265.1c0,0.4,0.2,0.6,0.6,0.6c0.2,0,0.5-0.1,0.5-0.6c0-0.3-0.1-0.5-0.2-0.7h-1L310.4,265.1z"/>
			<path id="XMLID_63_" class="st5" d="M311.8,261.9v0.4h-4.2V261c0-1,0.6-1.4,1.2-1.4s1.2,0.4,1.2,1.4v0.9H311.8z M309.8,261.9V261
				c0-0.8-0.5-0.9-0.9-0.9s-0.9,0.2-0.9,0.9v0.9H309.8z"/>
			<path id="XMLID_62_" class="st5" d="M309.3,257.9c0,0.4,0.1,0.6,0.2,0.8h2.3v0.4h-4.2v-0.4h1.6c-0.2-0.2-0.2-0.5-0.2-0.8
				c0-0.7,0.3-0.9,0.8-0.9h2v0.4h-2C309.5,257.4,309.3,257.6,309.3,257.9"/>
			<path id="XMLID_59_" class="st5" d="M309.3,255.3c0,0.4,0.1,0.6,0.1,0.8h-0.3c-0.1-0.2-0.1-0.6-0.1-0.8c0-0.8,0.4-1,0.9-1h1.9
				v0.2l-0.2,0.1c0.2,0.2,0.3,0.6,0.3,0.8c0,0.7-0.4,1-0.9,1c-0.5,0-0.8-0.3-0.9-1l0-0.7h-0.2C309.5,254.7,309.3,254.8,309.3,255.3
				 M310.4,255.4c0,0.4,0.2,0.6,0.6,0.6c0.2,0,0.5-0.1,0.5-0.6c0-0.3-0.1-0.5-0.2-0.7h-1L310.4,255.4z"/>
			<path id="XMLID_58_" class="st5" d="M309.4,252c0,0.1,0,0.2,0,0.3c0,0.4,0.1,0.6,0.2,0.8h2.3v0.4h-2.8v-0.2l0.2-0.1
				c-0.2-0.3-0.3-0.6-0.3-0.9c0-0.1,0-0.2,0-0.3H309.4z"/>
			<path id="XMLID_57_" class="st5" d="M309.8,248.3c-0.4,0-0.5,0.2-0.5,0.5c0,0.3,0.1,0.5,0.2,0.8c0.1,0,0.2,0,0.3,0h2v0.4h-2
				c-0.4,0-0.5,0.2-0.5,0.5c0,0.3,0.1,0.5,0.2,0.7h2.3v0.4h-2.8v-0.2l0.2-0.1c-0.2-0.3-0.3-0.6-0.3-0.8c0-0.4,0.1-0.6,0.3-0.8
				c-0.2-0.3-0.3-0.6-0.3-0.9c0-0.6,0.3-0.9,0.8-0.9h2v0.4H309.8z"/>
			<path id="XMLID_54_" class="st5" d="M309.3,246.2c0,0.4,0.1,0.6,0.1,0.8h-0.3c-0.1-0.2-0.1-0.6-0.1-0.8c0-0.8,0.4-1,0.9-1h1.9
				v0.2l-0.2,0.1c0.2,0.2,0.3,0.6,0.3,0.8c0,0.7-0.4,1-0.9,1c-0.5,0-0.8-0.3-0.9-1l0-0.7h-0.2C309.5,245.6,309.3,245.7,309.3,246.2
				 M310.4,246.3c0,0.4,0.2,0.6,0.6,0.6c0.2,0,0.5-0.1,0.5-0.6c0-0.3-0.1-0.5-0.2-0.7h-1L310.4,246.3z"/>
		</g>
		<g id="XMLID_48_">
			<path id="XMLID_52_" class="st5" d="M289.3,268.1c0,0.5,0.1,0.9,0.3,1.3c0.1-0.2,0.2-0.3,0.3-0.5c0.2-0.9,1-1.6,2-1.6
				c1,0,1.8,0.7,2,1.6c0.1,0.1,0.2,0.3,0.3,0.5c0.2-0.4,0.3-0.8,0.3-1.3c0-1.5-1.2-2.7-2.7-2.7C290.5,265.4,289.3,266.6,289.3,268.1
				z"/>
			<path id="XMLID_51_" class="st9" d="M292,271.4c-1,0-1.8-0.7-2-1.6c-0.1-0.1-0.2-0.3-0.3-0.5c-0.2,0.4-0.3,0.8-0.3,1.3
				c0,1.5,1.2,2.7,2.7,2.7c1.5,0,2.7-1.2,2.7-2.7c0-0.5-0.1-0.9-0.3-1.3c-0.1,0.2-0.2,0.3-0.3,0.5C293.8,270.8,293,271.4,292,271.4z
				"/>
			<path id="XMLID_50_" class="st9" d="M294.1,269.4c0,0.2,0,0.3-0.1,0.5c0.1-0.1,0.2-0.3,0.3-0.5c-0.1-0.2-0.2-0.3-0.3-0.5
				C294,269,294.1,269.2,294.1,269.4z"/>
			<path id="XMLID_49_" class="st9" d="M289.9,269.4c0-0.2,0-0.3,0.1-0.5c-0.1,0.1-0.2,0.3-0.3,0.5c0.1,0.2,0.2,0.3,0.3,0.5
				C289.9,269.7,289.9,269.5,289.9,269.4z"/>
		</g>
	</g>
	<g id="XMLID_2_">
		<path id="XMLID_46_" class="st5" d="M508,328.2v-7.3c0-1.1-0.2-1.6-0.8-1.6c-0.6,0-0.7,0.4-0.8,1.1c-0.3,3.5-1.2,4.4-3.5,4.4
			c-2.2,0-3.7-1.5-3.7-4.8c0-2,0.3-3,0.6-3.7h3c-0.4,1-0.7,2.3-0.7,3.5c0,1,0.2,1.5,0.8,1.5c0.6,0,0.7-0.4,0.8-1.1
			c0.3-3.5,1.2-4.4,3.5-4.4c2.1,0,3.7,1.3,3.7,5v6.8"/>
		<path id="XMLID_43_" class="st5" d="M506.1,311.8c1.4,0.1,1.9-0.7,1.9-2.4c0-1.7-0.3-2.9-0.7-3.7h2.8c0.5,1.3,0.8,2.8,0.8,4.1
			c0,3.6-1.9,5.4-5.8,5.4s-5.8-1.7-5.8-5.2c0-4.7,3.5-5,7-4.8V311.8z M504,311.8v-3.1c-1.2-0.2-2.2,0.1-2.2,1.4
			C501.8,311.3,502.6,311.8,504,311.8"/>
		<path id="XMLID_42_" class="st5" d="M499.5,302.2l0.8-0.4c-0.7-1.2-1.1-2.6-1.1-3.8c0-3,1.6-3.9,3.7-3.9h7.6v3.5h-7.1
			c-0.8,0-1.4,0.3-1.4,1.2c0,0.9,0.4,1.6,0.6,2h7.9v3.5h-11V302.2z"/>
		<path id="XMLID_39_" class="st5" d="M502.8,287.2c-0.5,0-0.8,0.4-0.8,1.3c0,1.4,0.4,3,0.8,4h-3c-0.3-0.8-0.7-2.4-0.7-4
			c0-4,1.7-4.7,4.2-4.7h7.2v2.1l-0.8,0.5c0.7,0.8,1.1,1.9,1.1,3.2c0,2.8-1.9,3.7-3.5,3.7c-3,0-3.4-2.2-3.6-4.2l-0.2-2H502.8z
			 M505.6,288.7c0.1,1,0.6,1.4,1.5,1.4c0.8,0,1.3-0.5,1.3-1.3c0-0.6-0.2-1.2-0.5-1.6h-2.4L505.6,288.7z"/>
		<path id="XMLID_36_" class="st5" d="M499.5,280.5l0.9-0.6c-0.7-0.8-1.2-1.8-1.2-3.6c0-2.9,1.8-4.3,5.8-4.3c4.1,0,5.8,1.4,5.8,4.3
			c0,1.2-0.3,2.1-0.7,2.8h5.9v3.5h-16.5V280.5z M507.5,279.1c0,0,0.5-0.7,0.5-1.6c0-1.6-1.1-2-3-2c-1.9,0-2.9,0.4-2.9,2
			c0,0.9,0.5,1.6,0.5,1.6H507.5z"/>
		<path id="XMLID_35_" class="st5" d="M510.6,266.7c0,0,0.1,0.5,0.1,1c0,1.9-1,3.4-3.1,3.4h-8.1v-3.5h7.6c0.4,0,0.7-0.2,0.7-0.9
			H510.6z"/>
		<path id="XMLID_34_" class="st5" d="M499.5,263.7l0.8-0.4c-0.7-1.2-1.1-2.6-1.1-3.8c0-3,1.6-3.9,3.7-3.9h7.6v3.5h-7.1
			c-0.8,0-1.4,0.3-1.4,1.2c0,0.9,0.4,1.6,0.6,2h7.9v3.5h-11V263.7z"/>
		<path id="XMLID_31_" class="st5" d="M506.1,251.4c1.4,0.1,1.9-0.7,1.9-2.4c0-1.7-0.3-2.9-0.7-3.7h2.8c0.5,1.3,0.8,2.8,0.8,4.1
			c0,3.6-1.9,5.4-5.8,5.4s-5.8-1.7-5.8-5.2c0-4.7,3.5-5,7-4.8V251.4z M504,251.4v-3.1c-1.2-0.2-2.2,0.1-2.2,1.4
			C501.8,250.9,502.6,251.4,504,251.4"/>
		<polyline id="XMLID_30_" class="st5" points="507.1,331.8 504.3,331.2 504.3,329 498,330.4 504.3,331.9 507.1,332.5 510.5,333.3 
			510.5,337.1 493.9,332.5 493.9,328.4 510.5,323.8 510.5,327.6 507.1,328.4 		"/>
		<g id="XMLID_8_">
			<polygon id="XMLID_29_" class="st5" points="515.8,275.6 513.8,275.6 513.8,277.7 515.8,277.7 515.8,278 511.7,278 511.7,277.7 
				513.5,277.7 513.5,275.6 511.7,275.6 511.7,275.2 515.8,275.2 			"/>
			<path id="XMLID_26_" class="st5" d="M511.9,274.2c0-0.2,0.1-0.3,0.3-0.3c0.2,0,0.3,0.1,0.3,0.3c0,0.2-0.1,0.3-0.3,0.3
				C512.1,274.5,511.9,274.3,511.9,274.2 M515.3,274.4h-2.2V274h2.3c0.2,0,0.2-0.1,0.2-0.2h0.3C515.9,274.2,515.7,274.4,515.3,274.4
				"/>
			<polygon id="XMLID_25_" class="st5" points="514.2,272.2 515.8,270.8 515.8,271.3 514.4,272.4 514.7,272.7 515.8,272.7 
				515.8,273.1 511.7,273.1 511.7,272.7 514.3,272.7 513.1,271.5 513.1,271 			"/>
			<path id="XMLID_24_" class="st5" d="M513.8,267.1c-0.4,0-0.5,0.2-0.5,0.5c0,0.3,0.1,0.5,0.2,0.8c0.1,0,0.2,0,0.3,0h2v0.4h-2
				c-0.4,0-0.5,0.2-0.5,0.5c0,0.3,0.1,0.5,0.2,0.7h2.3v0.4h-2.8v-0.2l0.2-0.1c-0.2-0.3-0.3-0.6-0.3-0.8c0-0.4,0.1-0.6,0.3-0.8
				c-0.2-0.3-0.3-0.6-0.3-0.9c0-0.6,0.3-0.9,0.8-0.9h2v0.4H513.8z"/>
			<path id="XMLID_21_" class="st5" d="M513.3,265c0,0.4,0.1,0.6,0.1,0.8h-0.3c-0.1-0.2-0.1-0.6-0.1-0.8c0-0.8,0.4-1,0.9-1h1.9v0.2
				l-0.2,0.1c0.2,0.2,0.3,0.6,0.3,0.8c0,0.7-0.4,1-0.9,1c-0.5,0-0.8-0.3-0.9-1l0-0.7h-0.2C513.5,264.4,513.3,264.5,513.3,265
				 M514.4,265.1c0,0.4,0.2,0.6,0.6,0.6c0.2,0,0.5-0.1,0.5-0.6c0-0.3-0.1-0.5-0.2-0.7h-1L514.4,265.1z"/>
			<path id="XMLID_18_" class="st5" d="M515.8,261.9v0.4h-4.2V261c0-1,0.6-1.4,1.2-1.4c0.6,0,1.2,0.4,1.2,1.4v0.9H515.8z
				 M513.8,261.9V261c0-0.8-0.5-0.9-0.9-0.9s-0.9,0.2-0.9,0.9v0.9H513.8z"/>
			<path id="XMLID_17_" class="st5" d="M513.3,257.9c0,0.4,0.1,0.6,0.2,0.8h2.3v0.4h-4.2v-0.4h1.6c-0.2-0.2-0.2-0.5-0.2-0.8
				c0-0.7,0.3-0.9,0.8-0.9h2v0.4h-2C513.5,257.4,513.3,257.6,513.3,257.9"/>
			<path id="XMLID_14_" class="st5" d="M513.3,255.3c0,0.4,0.1,0.6,0.1,0.8h-0.3c-0.1-0.2-0.1-0.6-0.1-0.8c0-0.8,0.4-1,0.9-1h1.9
				v0.2l-0.2,0.1c0.2,0.2,0.3,0.6,0.3,0.8c0,0.7-0.4,1-0.9,1c-0.5,0-0.8-0.3-0.9-1l0-0.7h-0.2C513.5,254.7,513.3,254.8,513.3,255.3
				 M514.4,255.4c0,0.4,0.2,0.6,0.6,0.6c0.2,0,0.5-0.1,0.5-0.6c0-0.3-0.1-0.5-0.2-0.7h-1L514.4,255.4z"/>
			<path id="XMLID_13_" class="st5" d="M513.4,252c0,0.1,0,0.2,0,0.3c0,0.4,0.1,0.6,0.2,0.8h2.3v0.4h-2.8v-0.2l0.2-0.1
				c-0.2-0.3-0.3-0.6-0.3-0.9c0-0.1,0-0.2,0-0.3H513.4z"/>
			<path id="XMLID_12_" class="st5" d="M513.8,248.3c-0.4,0-0.5,0.2-0.5,0.5c0,0.3,0.1,0.5,0.2,0.8c0.1,0,0.2,0,0.3,0h2v0.4h-2
				c-0.4,0-0.5,0.2-0.5,0.5c0,0.3,0.1,0.5,0.2,0.7h2.3v0.4h-2.8v-0.2l0.2-0.1c-0.2-0.3-0.3-0.6-0.3-0.8c0-0.4,0.1-0.6,0.3-0.8
				c-0.2-0.3-0.3-0.6-0.3-0.9c0-0.6,0.3-0.9,0.8-0.9h2v0.4H513.8z"/>
			<path id="XMLID_9_" class="st5" d="M513.3,246.2c0,0.4,0.1,0.6,0.1,0.8h-0.3c-0.1-0.2-0.1-0.6-0.1-0.8c0-0.8,0.4-1,0.9-1h1.9v0.2
				l-0.2,0.1c0.2,0.2,0.3,0.6,0.3,0.8c0,0.7-0.4,1-0.9,1c-0.5,0-0.8-0.3-0.9-1l0-0.7h-0.2C513.5,245.6,513.3,245.7,513.3,246.2
				 M514.4,246.3c0,0.4,0.2,0.6,0.6,0.6c0.2,0,0.5-0.1,0.5-0.6c0-0.3-0.1-0.5-0.2-0.7h-1L514.4,246.3z"/>
		</g>
		<g id="XMLID_3_">
			<path id="XMLID_7_" class="st5" d="M493.3,268.1c0,0.5,0.1,0.9,0.3,1.3c0.1-0.2,0.2-0.3,0.3-0.5c0.2-0.9,1-1.6,2-1.6
				c1,0,1.8,0.7,2,1.6c0.1,0.1,0.2,0.3,0.3,0.5c0.2-0.4,0.3-0.8,0.3-1.3c0-1.5-1.2-2.7-2.7-2.7C494.5,265.4,493.3,266.6,493.3,268.1
				z"/>
			<path id="XMLID_6_" class="st9" d="M496,271.4c-1,0-1.8-0.7-2-1.6c-0.1-0.1-0.2-0.3-0.3-0.5c-0.2,0.4-0.3,0.8-0.3,1.3
				c0,1.5,1.2,2.7,2.7,2.7c1.5,0,2.7-1.2,2.7-2.7c0-0.5-0.1-0.9-0.3-1.3c-0.1,0.2-0.2,0.3-0.3,0.5C497.8,270.8,497,271.4,496,271.4z
				"/>
			<path id="XMLID_5_" class="st9" d="M498.1,269.4c0,0.2,0,0.3-0.1,0.5c0.1-0.1,0.2-0.3,0.3-0.5c-0.1-0.2-0.2-0.3-0.3-0.5
				C498,269,498.1,269.2,498.1,269.4z"/>
			<path id="XMLID_4_" class="st9" d="M493.9,269.4c0-0.2,0-0.3,0.1-0.5c-0.1,0.1-0.2,0.3-0.3,0.5c0.1,0.2,0.2,0.3,0.3,0.5
				C493.9,269.7,493.9,269.5,493.9,269.4z"/>
		</g>
	</g>
</g>
</svg>
