<!-- Generator: Adobe Illustrator 22.1.0, SVG Export Plug-In  -->
<svg version="1.1"
	 xmlns="http://www.w3.org/2000/svg" xmlns:xlink="http://www.w3.org/1999/xlink" xmlns:a="http://ns.adobe.com/AdobeSVGViewerExtensions/3.0/"
	 x="0px" y="0px" width="376.8px" height="270.5px" viewBox="0 0 376.8 270.5" style="enable-background:new 0 0 376.8 270.5;"
	 xml:space="preserve">
<style type="text/css">
	.st0{fill:none;stroke:#EE2A7B;stroke-width:1.0002;stroke-miterlimit:10;stroke-dasharray:3.1549,3.1549;}
	.st1{fill:url(#XMLID_409_);}
	.st2{fill:#FFFFFF;}
	.st3{fill:#FFFFFF;stroke:#8B3C95;stroke-width:1.7112;stroke-miterlimit:10;}
	.st4{fill:#E4EA91;}
	.st5{fill:none;stroke:#8B3C95;stroke-width:0.714;stroke-miterlimit:10;}
	.st6{fill:none;stroke:#8B3C95;stroke-width:0.3653;stroke-miterlimit:10;}
	.st7{fill:#0C3B60;}
	.st8{fill:#808184;}
	.st9{fill:none;stroke:#808184;stroke-width:1.25;stroke-miterlimit:10;}
	.st10{fill:none;stroke:#669552;stroke-width:1.25;stroke-miterlimit:10;}
	.st11{fill:#669552;}
	.st12{fill:none;stroke:#8B3C96;stroke-width:1.25;stroke-miterlimit:10;}
	.st13{fill:#8B3C96;}
	.st14{fill:#231F20;}
	.st15{font-family:'MyriadPro-Regular';}
	.st16{font-size:5.5621px;}
	.st17{fill:#5089C3;}
	.st18{font-size:4.8043px;}
	.st19{font-size:6.1902px;}
	.st20{fill:none;stroke:#EE2A7B;stroke-width:0.8656;stroke-miterlimit:10;stroke-dasharray:2.7303,2.7303;}
	.st21{fill:none;stroke:#8B3C95;stroke-width:0.25;stroke-miterlimit:10;}
	.st22{fill:url(#XMLID_410_);}
</style>
<defs>
</defs>
<path id="XMLID_408_" class="st0" d="M279.4,0"/>
<linearGradient id="XMLID_409_" gradientUnits="userSpaceOnUse" x1="0" y1="139.9966" x2="376.7874" y2="139.9966">
	<stop  offset="0" style="stop-color:#C3A0CB"/>
	<stop  offset="1" style="stop-color:#4A2365"/>
</linearGradient>
<path id="XMLID_407_" class="st1" d="M376.8,23.1c0-6.7-5.4-12.2-12-12.2H12c-6.6,0-12,5.5-12,12.2v233.8c0,6.7,5.4,12.2,12,12.2
	h352.9c6.6,0,12-5.5,12-12.2V23.1z"/>
<g id="XMLID_352_">
	<path id="XMLID_405_" class="st2" d="M89.9,22.7l-0.8-1h3.5l4.8,6.2h0.1v-6.2h2.6v10.7h-2.3l-5.2-6.7h0v6.7h-2.6V22.7z"/>
	<path id="XMLID_402_" class="st2" d="M101.8,28c0-3.2,2.3-4.6,4.7-4.6c2.3,0,4.5,0.9,4.5,4.2v1.1h-6.3c0.1,1,0.8,1.8,2.6,1.8
		c1.6,0,2.6-0.5,3.2-1v2.1c-0.5,0.4-1.7,1-3.6,1C103.7,32.6,101.8,31.2,101.8,28z M108.3,27.2L108.3,27.2c0-1.1-0.5-1.7-1.7-1.7
		c-1.1,0-1.7,0.8-1.8,1.7H108.3z"/>
	<path id="XMLID_399_" class="st2" d="M112.1,34.9V33c0.9,0.5,2.1,0.8,4.1,0.8c2.3,0,3.2-0.3,3.2-0.9c0-0.5-0.6-0.7-2-0.7
		c-1.5,0-3.6,0.3-4.3,0.6V31l1.3-1.8c-1.5-0.4-2.3-1.4-2.3-2.8c0-1.9,1.7-3,4.3-3c1.1,0,2.1,0.2,2.8,0.6c0.3-0.4,1.1-0.7,1.9-0.7
		c0.3,0,0.6,0,0.8,0.1v1.9c-0.2-0.1-0.4-0.1-0.6-0.1c-0.3,0-0.7,0.1-0.8,0.2c0.1,0.3,0.2,0.6,0.2,1c0,1.9-1.7,3-4.3,3h-0.2l-0.7,1.1
		c0.4-0.1,1.6-0.3,2.5-0.3c2.4,0,4,0.5,4,2.4c0,1.8-1.9,3-5.6,3C114.4,35.7,112.9,35.4,112.1,34.9z M118,26.5c0-0.8-0.6-1.2-1.5-1.2
		c-1,0-1.6,0.4-1.6,1.2s0.6,1.2,1.6,1.2C117.4,27.6,118,27.2,118,26.5z"/>
	<path id="XMLID_396_" class="st2" d="M122.7,30.1c0-1.8,1.4-2.5,4.1-2.8l1.4-0.2c0-1.2-0.7-1.5-1.9-1.5c-1.4,0-2.7,0.6-3.2,1.5
		v-2.4c0.4-0.5,1.5-1.2,3.6-1.2c2.8,0,4.3,1.1,4.3,3.7v5.2h-2.5l-0.2-0.7c-0.3,0.5-1,1-2.4,1C124,32.6,122.7,31.8,122.7,30.1z
		 M128.2,28.6l-1.1,0.2c-1.3,0.3-1.7,0.5-1.7,1.1c0,0.6,0.5,0.8,1.2,0.8c0.8,0,1.4-0.3,1.7-0.6V28.6z"/>
	<path id="XMLID_394_" class="st2" d="M133.5,29.9v-4.2h-1.1v-0.9l0.9-1.1l1.7-2h1.3v2h2.3v2h-2.3v3.9c0,0.6,0.2,0.9,0.8,0.9
		c0.7,0,1.1-0.3,1.4-0.7v2.1c-0.3,0.3-1,0.7-2.2,0.7C134.3,32.6,133.5,31.6,133.5,29.9z"/>
	<path id="XMLID_391_" class="st2" d="M140.1,21.6c0-0.8,0.5-1.2,1.5-1.2c0.9,0,1.5,0.5,1.5,1.2s-0.6,1.2-1.5,1.2
		C140.7,22.8,140.1,22.4,140.1,21.6z M140.2,23.7h2.9v8.7h-2.9V23.7z"/>
	<path id="XMLID_389_" class="st2" d="M144.1,23.7h3.1l1.6,4.1l0.3,1c0.1-0.2,0.2-0.7,0.3-1l1.6-4.1h2.8l-3.9,8.7H148L144.1,23.7z"
		/>
	<path id="XMLID_386_" class="st2" d="M154.1,28c0-3.2,2.3-4.6,4.7-4.6c2.3,0,4.5,0.9,4.5,4.2v1.1H157c0.1,1,0.8,1.8,2.6,1.8
		c1.6,0,2.6-0.5,3.2-1v2.1c-0.5,0.4-1.7,1-3.6,1C156,32.6,154.1,31.2,154.1,28z M160.6,27.2L160.6,27.2c0-1.1-0.5-1.7-1.7-1.7
		c-1.1,0-1.7,0.8-1.8,1.7H160.6z"/>
	<path id="XMLID_384_" class="st2" d="M168.8,31.9v-2.6c0.6,0.6,1.7,1.2,3.2,1.2c1.3,0,2-0.5,2-1.2c0-0.6-0.4-0.9-1.6-1.1l-0.5-0.1
		c-1.9-0.3-3.2-1.3-3.2-3.2c0-2.1,1.7-3.4,4.5-3.4c1.8,0,2.8,0.4,3.3,0.8v2.6c-0.6-0.7-1.7-1.2-3.3-1.2c-1.1,0-1.7,0.3-1.7,1
		c0,0.6,0.3,0.9,1.4,1.1l0.5,0.1c2,0.4,3.4,1.2,3.4,3.1c0,2.1-1.7,3.6-4.8,3.6C170.3,32.6,169.3,32.2,168.8,31.9z"/>
	<path id="XMLID_382_" class="st2" d="M178.4,29.1v-5.4h2.9v4.9c0,1.4,0.3,2,1.4,2c0.9,0,1.3-0.4,1.5-0.7v-6.2h2.9v8.7h-2.5
		l-0.2-0.7c-0.4,0.5-1.3,1-2.5,1C179.3,32.6,178.4,31.5,178.4,29.1z"/>
	<path id="XMLID_379_" class="st2" d="M191.7,31.8l-0.4,0.6h-2.2V20.6h2.9v3.8c0.3-0.4,1.1-1,2.5-1c2.4,0,3.9,1.2,3.9,4.4
		c0,3.2-1.9,4.8-4.3,4.8C192.7,32.6,192.1,32.2,191.7,31.8z M192,30.1c0.4,0.4,0.9,0.6,1.6,0.6c1.4,0,1.9-1.2,1.9-2.7
		s-0.5-2.4-1.8-2.4c-0.8,0-1.3,0.3-1.6,0.7V30.1z"/>
	<path id="XMLID_377_" class="st2" d="M199.9,26.5h4.8v2.1h-4.8V26.5z"/>
	<path id="XMLID_375_" class="st2" d="M206.4,31.9v-2.3c0.6,0.5,1.6,1,2.9,1c1.3,0,1.6-0.4,1.6-0.8c0-0.5-0.2-0.6-1.3-0.8l-0.5-0.1
		c-2-0.3-2.9-1.1-2.9-2.7c0-1.5,1.2-2.9,4-2.9c1.5,0,2.5,0.3,3,0.7v2.3c-0.6-0.6-1.6-1-2.9-1c-1.1,0-1.5,0.3-1.5,0.7
		s0.2,0.7,1.2,0.8l0.5,0.1c2.2,0.3,3.1,1,3.1,2.6c0,1.5-1.2,3-4.2,3C207.9,32.6,206.9,32.3,206.4,31.9z"/>
	<path id="XMLID_373_" class="st2" d="M214.7,28c0-3.2,2.2-4.6,4.9-4.6c1.4,0,2.5,0.4,2.9,0.8v2.3c-0.6-0.6-1.4-0.9-2.5-0.9
		c-1.5,0-2.3,0.9-2.3,2.4c0,1.5,0.8,2.4,2.3,2.4c1.1,0,1.9-0.4,2.5-1v2.2c-0.4,0.4-1.5,0.9-3,0.9C216.6,32.6,214.7,31.2,214.7,28z"
		/>
	<path id="XMLID_370_" class="st2" d="M223.6,30.1c0-1.8,1.4-2.5,4.1-2.8l1.4-0.2c0-1.2-0.7-1.5-1.9-1.5c-1.4,0-2.7,0.6-3.2,1.5
		v-2.4c0.4-0.5,1.5-1.2,3.6-1.2c2.8,0,4.3,1.1,4.3,3.7v5.2h-2.5l-0.2-0.7c-0.3,0.5-1,1-2.4,1C225,32.6,223.6,31.8,223.6,30.1z
		 M229.1,28.6l-1.1,0.2c-1.3,0.3-1.7,0.5-1.7,1.1c0,0.6,0.5,0.8,1.2,0.8c0.8,0,1.4-0.3,1.7-0.6V28.6z"/>
	<path id="XMLID_368_" class="st2" d="M233.9,30.2v-9.7h2.9v9.3c0,0.5,0.2,0.7,0.6,0.7c0.4,0,0.7-0.2,0.8-0.4v2
		c-0.2,0.2-0.8,0.5-1.7,0.5C234.8,32.6,233.9,31.8,233.9,30.2z"/>
	<path id="XMLID_365_" class="st2" d="M239.1,28c0-3.2,2.3-4.6,4.7-4.6c2.3,0,4.5,0.9,4.5,4.2v1.1H242c0.1,1,0.8,1.8,2.6,1.8
		c1.6,0,2.6-0.5,3.2-1v2.1c-0.5,0.4-1.7,1-3.6,1C241,32.6,239.1,31.2,239.1,28z M245.6,27.2L245.6,27.2c0-1.1-0.5-1.7-1.7-1.7
		c-1.1,0-1.7,0.8-1.8,1.7H245.6z"/>
	<path id="XMLID_363_" class="st2" d="M253.8,31.9v-2.6c0.6,0.6,1.7,1.2,3.2,1.2c1.3,0,2-0.5,2-1.2c0-0.6-0.4-0.9-1.6-1.1l-0.5-0.1
		c-1.9-0.3-3.2-1.3-3.2-3.2c0-2.1,1.7-3.4,4.5-3.4c1.8,0,2.8,0.4,3.3,0.8v2.6c-0.6-0.7-1.7-1.2-3.3-1.2c-1.1,0-1.7,0.3-1.7,1
		c0,0.6,0.3,0.9,1.4,1.1l0.5,0.1c2,0.4,3.4,1.2,3.4,3.1c0,2.1-1.7,3.6-4.8,3.6C255.3,32.6,254.3,32.2,253.8,31.9z"/>
	<path id="XMLID_361_" class="st2" d="M263,28c0-3.2,2.2-4.6,4.9-4.6c1.4,0,2.5,0.4,2.9,0.8v2.3c-0.6-0.6-1.4-0.9-2.5-0.9
		c-1.5,0-2.3,0.9-2.3,2.4c0,1.5,0.8,2.4,2.3,2.4c1.1,0,1.9-0.4,2.5-1v2.2c-0.4,0.4-1.5,0.9-3,0.9C264.9,32.6,263,31.2,263,28z"/>
	<path id="XMLID_358_" class="st2" d="M271.9,28c0-3.2,2.3-4.6,5-4.6c2.8,0,4.8,1.4,4.8,4.6c0,3.2-2.3,4.6-5,4.6
		C273.9,32.6,271.9,31.3,271.9,28z M278.8,28c0-1.5-0.6-2.5-2-2.5c-1.4,0-2,1-2,2.5c0,1.5,0.6,2.5,2,2.5
		C278.2,30.5,278.8,29.6,278.8,28z"/>
	<path id="XMLID_356_" class="st2" d="M283.3,23.7h2.4l0.2,1.2c0.1-0.9,1-1.4,1.9-1.4c0.5,0,0.8,0.1,1,0.2V26
		c-0.2-0.2-0.6-0.3-1.1-0.3c-0.7,0-1.2,0.3-1.4,0.7v5.9h-2.9V23.7z"/>
	<path id="XMLID_353_" class="st2" d="M289.4,28c0-3.2,2.3-4.6,4.7-4.6c2.3,0,4.5,0.9,4.5,4.2v1.1h-6.3c0.1,1,0.8,1.8,2.6,1.8
		c1.6,0,2.6-0.5,3.2-1v2.1c-0.5,0.4-1.7,1-3.6,1C291.3,32.6,289.4,31.2,289.4,28z M295.9,27.2L295.9,27.2c0-1.1-0.5-1.7-1.7-1.7
		c-1.1,0-1.7,0.8-1.8,1.7H295.9z"/>
</g>
<path id="XMLID_351_" class="st3" d="M1,256.2c0,7.4,6,13.4,13.4,13.4h347.9c7.4,0,13.4-6,13.4-13.4V58.1c0-7.4-6-13.4-13.4-13.4
	H14.4C7,44.7,1,50.7,1,58.1V256.2z"/>
<path id="XMLID_350_" class="st4" d="M286.2,43.6h75c7.4,0,13.4,6,13.4,13.4v198.1c0,7.4-6,13.4-13.4,13.4h-75V43.6z"/>
<path id="XMLID_349_" class="st5" d="M12.8,82.9"/>
<path id="XMLID_348_" class="st5" d="M12.8,260.7"/>
<path id="XMLID_347_" class="st5" d="M288.4,82.9"/>
<path id="XMLID_346_" class="st5" d="M9.9,82.9"/>
<path id="XMLID_345_" class="st6" d="M288.4,82.9"/>
<path id="XMLID_344_" class="st6" d="M288.4,84.8"/>
<line id="XMLID_343_" class="st5" x1="53.3" y1="83" x2="53.3" y2="81.1"/>
<g id="XMLID_329_">
	<path id="XMLID_341_" class="st7" d="M15.2,64.4h1.1l0.7,2.8l1-2.8h0.5l1.1,2.8l0.7-2.8h1L20,69.1h-0.7l-1.1-2.8l-1.1,2.8h-0.7
		L15.2,64.4z"/>
	<path id="XMLID_338_" class="st7" d="M21.8,66.7c0-1.7,1.1-2.5,2.2-2.5c1.1,0,2.1,0.5,2.1,2.2v0.6h-3.2c0.1,0.7,0.5,1.2,1.4,1.2
		c0.8,0,1.3-0.4,1.6-0.7v1c-0.2,0.3-0.8,0.6-1.7,0.6C22.7,69.2,21.8,68.4,21.8,66.7z M25,66.3L25,66.3c0-0.8-0.3-1.2-1-1.2
		c-0.6,0-1,0.6-1,1.2H25z"/>
	<path id="XMLID_335_" class="st7" d="M26.7,66.7c0-1.7,1.1-2.5,2.2-2.5c1.1,0,2.1,0.5,2.1,2.2v0.6h-3.2c0.1,0.7,0.5,1.2,1.4,1.2
		c0.8,0,1.3-0.4,1.6-0.7v1c-0.2,0.3-0.8,0.6-1.7,0.6C27.6,69.2,26.7,68.4,26.7,66.7z M29.9,66.3L29.9,66.3c0-0.8-0.3-1.2-1-1.2
		c-0.6,0-1,0.6-1,1.2H29.9z"/>
	<path id="XMLID_333_" class="st7" d="M33.5,66.9c-0.3,0.3-0.5,0.4-0.5,0.4v1.7h-1.1v-6.4H33v3.6c0,0,1.1-0.8,1.8-1.9h1.1
		c-0.4,0.7-1,1.3-1.6,1.8l1.8,2.9h-1.3L33.5,66.9z"/>
	<path id="XMLID_330_" class="st7" d="M38.6,66.2c0-2,1.4-3,2.9-3c1.8,0,2.9,1.1,2.9,3c0,2-1.4,3.1-2.9,3.1
		C39.8,69.2,38.6,68.1,38.6,66.2z M43.3,66.2c0-1.4-0.7-2.1-1.7-2.1c-1,0-1.8,0.7-1.8,2.1c0,1.4,0.8,2.1,1.8,2.1
		C42.5,68.3,43.3,67.6,43.3,66.2z"/>
</g>
<line id="XMLID_328_" class="st5" x1="91.1" y1="83" x2="91.1" y2="81.1"/>
<g id="XMLID_315_">
	<path id="XMLID_326_" class="st7" d="M61.7,64.4h1.1l0.7,2.8l1-2.8H65l1.1,2.8l0.7-2.8h1l-1.3,4.7h-0.7l-1.1-2.8l-1.1,2.8h-0.7
		L61.7,64.4z"/>
	<path id="XMLID_323_" class="st7" d="M68.2,66.7c0-1.7,1.1-2.5,2.2-2.5c1.1,0,2.1,0.5,2.1,2.2v0.6h-3.2c0.1,0.7,0.5,1.2,1.4,1.2
		c0.8,0,1.3-0.4,1.6-0.7v1c-0.2,0.3-0.8,0.6-1.7,0.6C69.2,69.2,68.2,68.4,68.2,66.7z M71.4,66.3L71.4,66.3c0-0.8-0.3-1.2-1-1.2
		c-0.6,0-1,0.6-1,1.2H71.4z"/>
	<path id="XMLID_320_" class="st7" d="M73.1,66.7c0-1.7,1.1-2.5,2.2-2.5c1.1,0,2.1,0.5,2.1,2.2v0.6h-3.2c0.1,0.7,0.5,1.2,1.4,1.2
		c0.8,0,1.3-0.4,1.6-0.7v1c-0.2,0.3-0.8,0.6-1.7,0.6C74.1,69.2,73.1,68.4,73.1,66.7z M76.3,66.3L76.3,66.3c0-0.8-0.3-1.2-1-1.2
		c-0.6,0-1,0.6-1,1.2H76.3z"/>
	<path id="XMLID_318_" class="st7" d="M80,66.9c-0.3,0.3-0.5,0.4-0.5,0.4v1.7h-1.1v-6.4h1.1v3.6c0,0,1.1-0.8,1.8-1.9h1.1
		c-0.4,0.7-1,1.3-1.6,1.8l1.8,2.9h-1.3L80,66.9z"/>
	<path id="XMLID_316_" class="st7" d="M84.1,64.7c-0.2,0.2-0.8,0.3-1.3,0.3V64c0.8,0,1.5-0.2,1.9-0.8h0.5v5.8h-1.1V64.7z"/>
</g>
<line id="XMLID_314_" class="st5" x1="128.6" y1="82.1" x2="128.6" y2="80.1"/>
<g id="XMLID_301_">
	<path id="XMLID_312_" class="st7" d="M96.1,64.4h1.1l0.7,2.8l1-2.8h0.5l1.1,2.8l0.7-2.8h1l-1.3,4.7h-0.7l-1.1-2.8l-1.1,2.8h-0.7
		L96.1,64.4z"/>
	<path id="XMLID_309_" class="st7" d="M102.7,66.7c0-1.7,1.1-2.5,2.2-2.5c1.1,0,2.1,0.5,2.1,2.2v0.6h-3.2c0.1,0.7,0.5,1.2,1.4,1.2
		c0.8,0,1.3-0.4,1.6-0.7v1c-0.2,0.3-0.8,0.6-1.7,0.6C103.6,69.2,102.7,68.4,102.7,66.7z M105.9,66.3L105.9,66.3c0-0.8-0.3-1.2-1-1.2
		c-0.6,0-1,0.6-1,1.2H105.9z"/>
	<path id="XMLID_306_" class="st7" d="M107.6,66.7c0-1.7,1.1-2.5,2.2-2.5c1.1,0,2.1,0.5,2.1,2.2v0.6h-3.2c0.1,0.7,0.5,1.2,1.4,1.2
		c0.8,0,1.3-0.4,1.6-0.7v1c-0.2,0.3-0.8,0.6-1.7,0.6C108.6,69.2,107.6,68.4,107.6,66.7z M110.8,66.3L110.8,66.3c0-0.8-0.3-1.2-1-1.2
		c-0.6,0-1,0.6-1,1.2H110.8z"/>
	<path id="XMLID_304_" class="st7" d="M114.4,66.9c-0.3,0.3-0.5,0.4-0.5,0.4v1.7h-1.1v-6.4h1.1v3.6c0,0,1.1-0.8,1.8-1.9h1.1
		c-0.4,0.7-1,1.3-1.6,1.8l1.8,2.9h-1.3L114.4,66.9z"/>
	<path id="XMLID_302_" class="st7" d="M119.6,69l1.8-2.4c0.3-0.5,0.6-0.9,0.6-1.5c0-0.6-0.3-1-1-1c-0.6,0-1.2,0.4-1.5,0.7v-1.1
		c0.3-0.3,0.9-0.7,1.7-0.7c1.3,0,1.9,0.7,1.9,1.8c0,0.9-0.6,1.7-1.1,2.4l-0.5,0.7h1.7v1h-3.6V69z"/>
</g>
<line id="XMLID_300_" class="st5" x1="165.7" y1="83" x2="165.7" y2="81.1"/>
<g id="XMLID_287_">
	<path id="XMLID_298_" class="st7" d="M135.8,64.4h1.1l0.7,2.8l1-2.8h0.5l1.1,2.8l0.7-2.8h1l-1.3,4.7H140l-1.1-2.8l-1.1,2.8h-0.7
		L135.8,64.4z"/>
	<path id="XMLID_295_" class="st7" d="M142.4,66.7c0-1.7,1.1-2.5,2.2-2.5c1.1,0,2.1,0.5,2.1,2.2v0.6h-3.2c0.1,0.7,0.5,1.2,1.4,1.2
		c0.8,0,1.3-0.4,1.6-0.7v1c-0.2,0.3-0.8,0.6-1.7,0.6C143.3,69.2,142.4,68.4,142.4,66.7z M145.6,66.3L145.6,66.3c0-0.8-0.3-1.2-1-1.2
		c-0.6,0-1,0.6-1,1.2H145.6z"/>
	<path id="XMLID_292_" class="st7" d="M147.3,66.7c0-1.7,1.1-2.5,2.2-2.5c1.1,0,2.1,0.5,2.1,2.2v0.6h-3.2c0.1,0.7,0.5,1.2,1.4,1.2
		c0.8,0,1.3-0.4,1.6-0.7v1c-0.2,0.3-0.8,0.6-1.7,0.6C148.3,69.2,147.3,68.4,147.3,66.7z M150.5,66.3L150.5,66.3c0-0.8-0.3-1.2-1-1.2
		c-0.6,0-1,0.6-1,1.2H150.5z"/>
	<path id="XMLID_290_" class="st7" d="M154.1,66.9c-0.3,0.3-0.5,0.4-0.5,0.4v1.7h-1.1v-6.4h1.1v3.6c0,0,1.1-0.8,1.8-1.9h1.1
		c-0.4,0.7-1,1.3-1.6,1.8l1.8,2.9h-1.3L154.1,66.9z"/>
	<path id="XMLID_288_" class="st7" d="M159.3,69v-1.1c0.2,0.2,0.6,0.4,1.1,0.4c1,0,1.3-0.4,1.3-1c0-0.5-0.3-0.9-1.2-0.9h-0.4v-0.1
		l1.2-2.1h-2.1v-1h3.6v0.1l-1.3,2.3c0.8,0.1,1.4,0.5,1.4,1.6c0,0.9-0.7,1.9-2.4,1.9C159.9,69.2,159.5,69.1,159.3,69z"/>
</g>
<line id="XMLID_286_" class="st5" x1="205" y1="83" x2="205" y2="81.1"/>
<g id="XMLID_273_">
	<path id="XMLID_284_" class="st7" d="M171,64.4h1.1l0.7,2.8l1-2.8h0.5l1.1,2.8l0.7-2.8h1l-1.3,4.7h-0.7l-1.1-2.8l-1.1,2.8h-0.7
		L171,64.4z"/>
	<path id="XMLID_281_" class="st7" d="M177.6,66.7c0-1.7,1.1-2.5,2.2-2.5c1.1,0,2.1,0.5,2.1,2.2v0.6h-3.2c0.1,0.7,0.5,1.2,1.4,1.2
		c0.8,0,1.3-0.4,1.6-0.7v1c-0.2,0.3-0.8,0.6-1.7,0.6C178.5,69.2,177.6,68.4,177.6,66.7z M180.8,66.3L180.8,66.3c0-0.8-0.3-1.2-1-1.2
		c-0.6,0-1,0.6-1,1.2H180.8z"/>
	<path id="XMLID_278_" class="st7" d="M182.5,66.7c0-1.7,1.1-2.5,2.2-2.5c1.1,0,2.1,0.5,2.1,2.2v0.6h-3.2c0.1,0.7,0.5,1.2,1.4,1.2
		c0.8,0,1.3-0.4,1.6-0.7v1c-0.2,0.3-0.8,0.6-1.7,0.6C183.5,69.2,182.5,68.4,182.5,66.7z M185.7,66.3L185.7,66.3c0-0.8-0.3-1.2-1-1.2
		c-0.6,0-1,0.6-1,1.2H185.7z"/>
	<path id="XMLID_276_" class="st7" d="M189.3,66.9c-0.3,0.3-0.5,0.4-0.5,0.4v1.7h-1.1v-6.4h1.1v3.6c0,0,1.1-0.8,1.8-1.9h1.1
		c-0.4,0.7-1,1.3-1.6,1.8l1.8,2.9h-1.3L189.3,66.9z"/>
	<path id="XMLID_274_" class="st7" d="M197,67.9h-2.9v-0.1l1.7-4.5h1l-1.3,3.6h1.4v-2.1h1v2.1h0.6v1h-0.6v1.2h-1V67.9z"/>
</g>
<line id="XMLID_272_" class="st5" x1="246.7" y1="83" x2="246.7" y2="81.1"/>
<g id="XMLID_259_">
	<path id="XMLID_270_" class="st7" d="M213.6,64.4h1.1l0.7,2.8l1-2.8h0.5l1.1,2.8l0.7-2.8h1l-1.3,4.7h-0.7l-1.1-2.8l-1.1,2.8h-0.7
		L213.6,64.4z"/>
	<path id="XMLID_267_" class="st7" d="M220.1,66.7c0-1.7,1.1-2.5,2.2-2.5c1.1,0,2.1,0.5,2.1,2.2v0.6h-3.2c0.1,0.7,0.5,1.2,1.4,1.2
		c0.8,0,1.3-0.4,1.6-0.7v1c-0.2,0.3-0.8,0.6-1.7,0.6C221.1,69.2,220.1,68.4,220.1,66.7z M223.3,66.3L223.3,66.3c0-0.8-0.3-1.2-1-1.2
		c-0.6,0-1,0.6-1,1.2H223.3z"/>
	<path id="XMLID_264_" class="st7" d="M225,66.7c0-1.7,1.1-2.5,2.2-2.5c1.1,0,2.1,0.5,2.1,2.2v0.6h-3.2c0.1,0.7,0.5,1.2,1.4,1.2
		c0.8,0,1.3-0.4,1.6-0.7v1c-0.2,0.3-0.8,0.6-1.7,0.6C226,69.2,225,68.4,225,66.7z M228.2,66.3L228.2,66.3c0-0.8-0.3-1.2-1-1.2
		c-0.6,0-1,0.6-1,1.2H228.2z"/>
	<path id="XMLID_262_" class="st7" d="M231.9,66.9c-0.3,0.3-0.5,0.4-0.5,0.4v1.7h-1.1v-6.4h1.1v3.6c0,0,1.1-0.8,1.8-1.9h1.1
		c-0.4,0.7-1,1.3-1.6,1.8l1.8,2.9h-1.3L231.9,66.9z"/>
	<path id="XMLID_260_" class="st7" d="M237,69v-1.1c0.2,0.2,0.6,0.4,1.2,0.4c0.8,0,1.3-0.4,1.3-0.9c0-0.5-0.3-0.9-1.2-0.9
		c-0.5,0-0.8,0.1-1.1,0.2l0.1-3.5h3.2v1h-2.2l0,1.4c0.1,0,0.3-0.1,0.5-0.1c1.2,0,1.9,0.5,1.9,1.7c0,1.2-1,1.9-2.3,1.9
		C237.6,69.2,237.2,69.1,237,69z"/>
</g>
<g id="XMLID_245_">
	<path id="XMLID_257_" class="st7" d="M251.9,64.4h1.1l0.7,2.8l1-2.8h0.5l1.1,2.8l0.7-2.8h1l-1.3,4.7h-0.7l-1.1-2.8l-1.1,2.8h-0.7
		L251.9,64.4z"/>
	<path id="XMLID_254_" class="st7" d="M258.5,66.7c0-1.7,1.1-2.5,2.2-2.5c1.1,0,2.1,0.5,2.1,2.2v0.6h-3.2c0.1,0.7,0.5,1.2,1.4,1.2
		c0.8,0,1.3-0.4,1.6-0.7v1c-0.2,0.3-0.8,0.6-1.7,0.6C259.5,69.2,258.5,68.4,258.5,66.7z M261.7,66.3L261.7,66.3c0-0.8-0.3-1.2-1-1.2
		c-0.6,0-1,0.6-1,1.2H261.7z"/>
	<path id="XMLID_251_" class="st7" d="M263.4,66.7c0-1.7,1.1-2.5,2.2-2.5c1.1,0,2.1,0.5,2.1,2.2v0.6h-3.2c0.1,0.7,0.5,1.2,1.4,1.2
		c0.8,0,1.3-0.4,1.6-0.7v1c-0.2,0.3-0.8,0.6-1.7,0.6C264.4,69.2,263.4,68.4,263.4,66.7z M266.6,66.3L266.6,66.3c0-0.8-0.3-1.2-1-1.2
		c-0.6,0-1,0.6-1,1.2H266.6z"/>
	<path id="XMLID_249_" class="st7" d="M270.3,66.9c-0.3,0.3-0.5,0.4-0.5,0.4v1.7h-1.1v-6.4h1.1v3.6c0,0,1.1-0.8,1.8-1.9h1.1
		c-0.4,0.7-1,1.3-1.6,1.8l1.8,2.9h-1.3L270.3,66.9z"/>
	<path id="XMLID_246_" class="st7" d="M275.4,67c0-2.1,1.3-3.3,2.2-3.7h1.5v0.1c-1,0.5-1.9,1-2.3,2c0.2-0.1,0.5-0.2,0.9-0.2
		c1.2,0,1.9,0.8,1.9,2c0,1.2-0.8,2.1-2.2,2.1C276.1,69.2,275.4,68.3,275.4,67z M278.5,67.1c0-0.7-0.4-1.1-1-1.1
		c-0.5,0-0.8,0.2-1,0.4c0,0.2,0,0.4,0,0.6c0,0.7,0.4,1.2,1,1.2S278.5,67.8,278.5,67.1z"/>
</g>
<g id="XMLID_237_">
	<rect id="XMLID_244_" x="265.5" y="101.5" class="st8" width="6.5" height="6.5"/>
	<rect id="XMLID_243_" x="226.4" y="105.9" class="st8" width="6.5" height="6.5"/>
	<rect id="XMLID_242_" x="187.1" y="121.1" class="st8" width="6.5" height="6.5"/>
	<rect id="XMLID_241_" x="147.1" y="121.2" class="st8" width="6.5" height="6.5"/>
	<rect id="XMLID_240_" x="108.4" y="123.6" class="st8" width="6.5" height="6.5"/>
	<rect id="XMLID_239_" x="68.5" y="119.2" class="st8" width="6.5" height="6.5"/>
	<rect id="XMLID_238_" x="29.7" y="79.5" class="st8" width="6.5" height="6.5"/>
</g>
<rect id="XMLID_236_" x="187.6" y="121.7" class="st8" width="5" height="5.3"/>
<polyline id="XMLID_235_" class="st9" points="32.4,83.7 72.3,122.4 111,126.4 150.4,124.6 189.9,124.8 229.9,109.1 270,104.9 "/>
<polyline id="XMLID_234_" class="st10" points="268.7,126.9 229.3,131.9 190.1,145 150.4,135.9 111.4,118.9 71.6,127.5 32.4,83.8 
	"/>
<polygon id="XMLID_233_" class="st11" points="71.6,124.8 72.9,126.9 74.1,129.1 71.6,129.1 69.2,129.1 70.4,126.9 "/>
<polygon id="XMLID_232_" class="st11" points="111.4,116.9 112.6,119 113.9,121.2 111.4,121.2 108.9,121.2 110.1,119 "/>
<polygon id="XMLID_231_" class="st11" points="151.3,133.5 152.5,135.7 153.8,137.8 151.3,137.8 148.8,137.8 150.1,135.7 "/>
<polygon id="XMLID_230_" class="st11" points="190.1,142.2 191.3,144.3 192.5,146.5 190.1,146.5 187.6,146.5 188.8,144.3 "/>
<polygon id="XMLID_229_" class="st11" points="229.3,128.9 230.6,131 231.8,133.2 229.3,133.2 226.8,133.2 228.1,131 "/>
<polygon id="XMLID_228_" class="st11" points="268.7,124.8 270,126.9 271.2,129.1 268.7,129.1 266.2,129.1 267.5,126.9 "/>
<polyline id="XMLID_225_" class="st12" points="268.7,219.6 229.3,223.8 189.6,242 151,232.9 111.6,184.8 71.1,131.7 32.2,83.8 "/>
<g id="XMLID_221_">
	
		<rect id="XMLID_222_" x="265.3" y="216.4" transform="matrix(0.6312 -0.7756 0.7756 0.6312 -71.4541 289.5223)" class="st13" width="6.9" height="6.9"/>
</g>
<g id="XMLID_217_">
	
		<rect id="XMLID_218_" x="225.3" y="220.4" transform="matrix(0.6312 -0.7756 0.7756 0.6312 -89.2945 259.9965)" class="st13" width="6.9" height="6.9"/>
</g>
<g id="XMLID_213_">
	
		<rect id="XMLID_214_" x="186.3" y="238" transform="matrix(0.6312 -0.7756 0.7756 0.6312 -117.2842 236.2469)" class="st13" width="6.9" height="6.9"/>
</g>
<g id="XMLID_209_">
	
		<rect id="XMLID_210_" x="146.5" y="229" transform="matrix(0.9948 -0.1021 0.1021 0.9948 -22.9513 16.5258)" class="st13" width="6.9" height="6.9"/>
</g>
<g id="XMLID_205_">
	
		<rect id="XMLID_206_" x="107.7" y="181.2" transform="matrix(9.370355e-02 -0.9956 0.9956 9.370355e-02 -83.1127 277.9781)" class="st13" width="6.9" height="6.9"/>
</g>
<g id="XMLID_201_">
	
		<rect id="XMLID_202_" x="68.3" y="127.7" transform="matrix(9.370355e-02 -0.9956 0.9956 9.370355e-02 -65.5253 190.243)" class="st13" width="6.9" height="6.9"/>
</g>
<g id="XMLID_129_">
	<g id="XMLID_191_">
		<path id="XMLID_199_" class="st7" d="M5.6,104.9h1.8v0.8H5.6V104.9z"/>
		<path id="XMLID_196_" class="st7" d="M8.1,105c0-1.6,1.1-2.5,2.4-2.5c1.4,0,2.3,0.9,2.3,2.5c0,1.6-1.1,2.5-2.3,2.5
			C9.1,107.5,8.1,106.6,8.1,105z M11.9,105c0-1.1-0.6-1.7-1.4-1.7c-0.8,0-1.4,0.6-1.4,1.7c0,1.1,0.6,1.7,1.4,1.7
			C11.3,106.7,11.9,106.1,11.9,105z"/>
		<path id="XMLID_194_" class="st7" d="M13.4,106.9c0-0.3,0.2-0.6,0.6-0.6c0.3,0,0.6,0.2,0.6,0.6c0,0.3-0.2,0.6-0.6,0.6
			C13.6,107.5,13.4,107.3,13.4,106.9z"/>
		<path id="XMLID_192_" class="st7" d="M15.2,107.3v-0.9c0.2,0.2,0.5,0.3,1,0.3c0.7,0,1-0.3,1-0.7c0-0.4-0.2-0.7-1-0.7
			c-0.4,0-0.7,0.1-0.9,0.2l0.1-2.8H18v0.8h-1.8l0,1.1c0.1,0,0.3,0,0.4,0c1,0,1.6,0.4,1.6,1.4c0,1-0.8,1.6-1.9,1.6
			C15.6,107.5,15.3,107.4,15.2,107.3z"/>
	</g>
	<g id="XMLID_130_">
		<line id="XMLID_190_" class="st5" x1="20.9" y1="104.9" x2="24.9" y2="104.9"/>
		<line id="XMLID_189_" class="st5" x1="20.9" y1="82.9" x2="24.9" y2="82.9"/>
		<line id="XMLID_188_" class="st5" x1="20.9" y1="126.9" x2="24.9" y2="126.9"/>
		<line id="XMLID_187_" class="st5" x1="20.9" y1="148.9" x2="24.9" y2="148.9"/>
		<line id="XMLID_186_" class="st5" x1="20.9" y1="170.5" x2="24.9" y2="170.5"/>
		<line id="XMLID_185_" class="st5" x1="20.9" y1="193.2" x2="24.9" y2="193.2"/>
		<line id="XMLID_184_" class="st5" x1="20.9" y1="215.9" x2="24.9" y2="215.9"/>
		<line id="XMLID_183_" class="st5" x1="20.9" y1="237.4" x2="24.9" y2="237.4"/>
		<line id="XMLID_182_" class="st5" x1="20.9" y1="259.2" x2="24.9" y2="259.2"/>
		<g id="XMLID_178_">
			<path id="XMLID_179_" class="st7" d="M12.5,83c0-1.6,1.1-2.5,2.4-2.5c1.4,0,2.3,0.9,2.3,2.5c0,1.6-1.1,2.5-2.3,2.5
				C13.4,85.5,12.5,84.6,12.5,83z M16.3,83c0-1.1-0.6-1.7-1.4-1.7c-0.8,0-1.4,0.6-1.4,1.7c0,1.1,0.6,1.7,1.4,1.7
				C15.7,84.7,16.3,84.1,16.3,83z"/>
		</g>
		<g id="XMLID_173_">
			<path id="XMLID_176_" class="st7" d="M9.6,126.9h1.8v0.8H9.6V126.9z"/>
			<path id="XMLID_174_" class="st7" d="M13,125.8c-0.2,0.2-0.6,0.2-1.1,0.2v-0.7c0.7,0,1.2-0.2,1.5-0.6h0.4v4.7H13V125.8z"/>
		</g>
		<g id="XMLID_164_">
			<path id="XMLID_171_" class="st7" d="M5.6,148.9h1.8v0.8H5.6V148.9z"/>
			<path id="XMLID_169_" class="st7" d="M9,147.9c-0.2,0.2-0.6,0.2-1.1,0.2v-0.7c0.7,0,1.2-0.2,1.5-0.6h0.4v4.7H9V147.9z"/>
			<path id="XMLID_167_" class="st7" d="M10.7,151c0-0.3,0.2-0.6,0.6-0.6c0.3,0,0.6,0.2,0.6,0.6c0,0.3-0.2,0.6-0.6,0.6
				C11,151.5,10.7,151.3,10.7,151z"/>
			<path id="XMLID_165_" class="st7" d="M12.5,151.3v-0.9c0.2,0.2,0.5,0.3,1,0.3c0.7,0,1-0.3,1-0.7c0-0.4-0.2-0.7-1-0.7
				c-0.4,0-0.7,0.1-0.9,0.2l0.1-2.8h2.6v0.8h-1.8l0,1.1c0.1,0,0.3,0,0.4,0c1,0,1.6,0.4,1.6,1.4c0,1-0.8,1.6-1.9,1.6
				C13,151.5,12.7,151.4,12.5,151.3z"/>
		</g>
		<g id="XMLID_159_">
			<path id="XMLID_162_" class="st7" d="M10.3,170.5h1.8v0.8h-1.8V170.5z"/>
			<path id="XMLID_160_" class="st7" d="M12.9,172.9l1.4-2c0.3-0.4,0.5-0.8,0.5-1.2c0-0.5-0.2-0.8-0.8-0.8c-0.5,0-0.9,0.3-1.2,0.6
				v-0.9c0.2-0.3,0.7-0.5,1.3-0.5c1.1,0,1.5,0.6,1.5,1.5c0,0.7-0.5,1.4-0.9,1.9l-0.4,0.6h1.4v0.8L12.9,172.9L12.9,172.9z"/>
		</g>
		<g id="XMLID_150_">
			<path id="XMLID_157_" class="st7" d="M5.9,193.2h1.8v0.8H5.9V193.2z"/>
			<path id="XMLID_155_" class="st7" d="M8.4,195.6l1.4-2c0.3-0.4,0.5-0.8,0.5-1.2c0-0.5-0.2-0.8-0.8-0.8c-0.5,0-0.9,0.3-1.2,0.6
				v-0.9c0.2-0.3,0.7-0.5,1.3-0.5c1.1,0,1.5,0.6,1.5,1.5c0,0.7-0.5,1.4-0.9,1.9l-0.4,0.6h1.4v0.8L8.4,195.6L8.4,195.6z"/>
			<path id="XMLID_153_" class="st7" d="M12,195.2c0-0.3,0.2-0.6,0.6-0.6c0.3,0,0.6,0.2,0.6,0.6c0,0.3-0.2,0.6-0.6,0.6
				C12.2,195.8,12,195.6,12,195.2z"/>
			<path id="XMLID_151_" class="st7" d="M13.7,195.6v-0.9c0.2,0.2,0.5,0.3,1,0.3c0.7,0,1-0.3,1-0.7c0-0.4-0.2-0.7-1-0.7
				c-0.4,0-0.7,0.1-0.9,0.2L14,191h2.6v0.8h-1.8l0,1.1c0.1,0,0.3,0,0.4,0c1,0,1.6,0.4,1.6,1.4c0,1-0.8,1.6-1.9,1.6
				C14.2,195.8,13.9,195.7,13.7,195.6z"/>
		</g>
		<g id="XMLID_145_">
			<path id="XMLID_148_" class="st7" d="M9.6,215.9h1.8v0.8H9.6V215.9z"/>
			<path id="XMLID_146_" class="st7" d="M12.1,218.3v-0.9c0.2,0.2,0.5,0.3,0.9,0.3c0.8,0,1.1-0.3,1.1-0.8c0-0.4-0.2-0.7-1-0.7h-0.3
				v-0.1l0.9-1.7h-1.7v-0.8H15v0.1l-1,1.8c0.6,0.1,1.1,0.4,1.1,1.3c0,0.7-0.6,1.6-1.9,1.6C12.6,218.5,12.3,218.4,12.1,218.3z"/>
		</g>
		<g id="XMLID_136_">
			<path id="XMLID_143_" class="st7" d="M6,237.4h1.8v0.8H6V237.4z"/>
			<path id="XMLID_141_" class="st7" d="M8.6,239.8v-0.9c0.2,0.2,0.5,0.3,0.9,0.3c0.8,0,1.1-0.3,1.1-0.8c0-0.4-0.2-0.7-1-0.7H9.3
				v-0.1l0.9-1.7H8.6v-0.8h2.9v0.1l-1,1.9c0.6,0.1,1.1,0.4,1.1,1.3c0,0.7-0.6,1.6-1.9,1.6C9,240,8.8,239.9,8.6,239.8z"/>
			<path id="XMLID_139_" class="st7" d="M12.1,239.5c0-0.3,0.2-0.6,0.6-0.6c0.3,0,0.6,0.2,0.6,0.6c0,0.3-0.2,0.6-0.6,0.6
				C12.4,240,12.1,239.8,12.1,239.5z"/>
			<path id="XMLID_137_" class="st7" d="M13.9,239.8v-0.9c0.2,0.2,0.5,0.3,1,0.3c0.7,0,1-0.3,1-0.7c0-0.4-0.2-0.7-1-0.7
				c-0.4,0-0.7,0.1-0.9,0.2l0.1-2.8h2.6v0.8h-1.8l0,1.1c0.1,0,0.3,0,0.4,0c1,0,1.6,0.4,1.6,1.4c0,1-0.8,1.6-1.9,1.6
				C14.4,240,14.1,239.9,13.9,239.8z"/>
		</g>
		<g id="XMLID_131_">
			<path id="XMLID_134_" class="st7" d="M10.3,259.2h1.8v0.8h-1.8V259.2z"/>
			<path id="XMLID_132_" class="st7" d="M15,260.8h-2.3v-0.1L14,257h0.8l-1,2.9H15v-1.7h0.8v1.7h0.5v0.8h-0.5v0.9H15V260.8z"/>
		</g>
	</g>
</g>
<text id="XMLID_128_" transform="matrix(1 0 0 1 148.821 227.5768)" class="st14 st15 st16">**</text>
<text id="XMLID_127_" transform="matrix(1 0 0 1 184.7434 235.0202)" class="st14 st15 st16">**</text>
<text id="XMLID_126_" transform="matrix(1 0 0 1 225.5129 233.7995)" class="st17 st15 st18">§§</text>
<text id="XMLID_125_" transform="matrix(1 0 0 1 265.5007 230.7877)" class="st17 st15 st19">§§</text>
<line id="XMLID_124_" class="st20" x1="286.2" y1="268.6" x2="286.2" y2="44.5"/>
<g id="XMLID_99_">
	<g id="XMLID_104_">
		<g id="XMLID_105_">
			<path id="XMLID_122_" class="st14" d="M328.3,69.3h1.4c1.4,0,2.1,0.6,2.1,1.6c0,1-0.6,1.8-2.1,1.8h-0.2V72h0.2
				c0.7,0,1.1-0.4,1.1-1c0-0.6-0.3-0.9-1.1-0.9h-0.5v4.2h-1V69.3z"/>
			<path id="XMLID_120_" class="st14" d="M332.5,69.3h1v4.1h1.8v0.8h-2.8V69.3z"/>
			<path id="XMLID_117_" class="st14" d="M337.3,69.8l-0.2-0.5h1l1.9,4.9h-1l-0.4-1h-1.8l-0.4,1h-0.9L337.3,69.8z M337.1,72.5h1.3
				l-0.5-1.4l-0.1-0.4l-0.1,0.4L337.1,72.5z"/>
			<path id="XMLID_115_" class="st14" d="M340.2,71.7c0-1.7,1-2.6,2.3-2.6c0.8,0,1.2,0.2,1.4,0.4v1.1c-0.3-0.4-0.7-0.7-1.3-0.7
				c-0.9,0-1.4,0.6-1.4,1.7s0.5,1.8,1.4,1.8c0.6,0,1-0.2,1.3-0.6v0.9c-0.3,0.3-0.8,0.5-1.4,0.5C341.1,74.3,340.2,73.5,340.2,71.7z"
				/>
			<path id="XMLID_113_" class="st14" d="M344.8,69.3h3.2v0.8h-2.2v1.2h1.5V72h-1.5v1.4h2.2v0.8h-3.2V69.3z"/>
			<path id="XMLID_109_" class="st14" d="M348.8,69.3h1.5c1.4,0,1.9,0.4,1.9,1.2c0,0.7-0.4,1-0.9,1.2v0c0.6,0.1,1,0.4,1,1.2
				c0,0.8-0.6,1.4-1.9,1.4h-1.5V69.3z M350.3,71.3c0.7,0,0.9-0.2,0.9-0.7c0-0.4-0.3-0.6-0.9-0.6h-0.5v1.3H350.3z M350.4,73.4
				c0.7,0,1-0.3,1-0.7c0-0.4-0.2-0.7-1-0.7h-0.6v1.4H350.4z"/>
			<path id="XMLID_106_" class="st14" d="M352.9,71.7c0-1.7,1.2-2.6,2.4-2.6c1.4,0,2.4,0.9,2.4,2.6s-1.2,2.6-2.4,2.6
				C353.9,74.3,352.9,73.4,352.9,71.7z M356.8,71.8c0-1.2-0.6-1.8-1.5-1.8c-0.9,0-1.5,0.6-1.5,1.7c0,1.2,0.6,1.8,1.5,1.8
				C356.2,73.5,356.8,72.9,356.8,71.8z"/>
		</g>
	</g>
	<g id="XMLID_100_">
		<g id="XMLID_102_">
			<path id="XMLID_103_" class="st8" d="M295.8,71.2c6.4,0,12.8,0,19.2,0c1.1,0,1.1-1.7,0-1.7c-6.4,0-12.8,0-19.2,0
				C294.8,69.5,294.8,71.2,295.8,71.2L295.8,71.2z"/>
		</g>
		<rect id="XMLID_101_" x="302.8" y="67.6" class="st8" width="5.4" height="5.4"/>
	</g>
</g>
<g id="XMLID_49_">
	<g id="XMLID_94_">
		<g id="XMLID_96_">
			<g id="XMLID_97_">
				<path id="XMLID_98_" class="st11" d="M294.4,148.4c6.4,0,12.8,0,19.2,0c1.1,0,1.1-1.7,0-1.7c-6.4,0-12.8,0-19.2,0
					C293.4,146.8,293.4,148.4,294.4,148.4L294.4,148.4z"/>
			</g>
		</g>
		<polygon id="XMLID_95_" class="st11" points="300.2,150.9 304,144.3 307.9,150.9 		"/>
	</g>
	<g id="XMLID_50_">
		<g id="XMLID_51_">
			<path id="XMLID_91_" class="st14" d="M319.5,145.3L319.5,145.3l-0.1,1.8h-0.9v-4.9h1.4c1.1,0,1.9,0.4,1.9,1.4
				c0,0.8-0.5,1.4-1.3,1.5l1.7,1.9h-1.1L319.5,145.3z M319.9,144.6c0.6,0,0.9-0.3,0.9-0.8c0-0.5-0.3-0.8-0.9-0.8h-0.4v1.6H319.9z"/>
			<path id="XMLID_89_" class="st14" d="M322.8,142.2h0.9v4.9h-0.9V142.2z"/>
			<path id="XMLID_87_" class="st14" d="M324.6,146.8v-1c0.2,0.3,0.7,0.6,1.2,0.6c0.6,0,0.9-0.3,0.9-0.7c0-0.4-0.2-0.5-0.8-0.6
				l-0.2,0c-0.8-0.2-1.2-0.6-1.2-1.4c0-0.9,0.7-1.5,1.7-1.5c0.7,0,1,0.2,1.2,0.3v1c-0.2-0.3-0.7-0.6-1.2-0.6c-0.5,0-0.8,0.2-0.8,0.6
				c0,0.3,0.1,0.5,0.7,0.7l0.2,0c0.8,0.2,1.2,0.6,1.2,1.4c0,1-0.6,1.6-1.8,1.6C325.1,147.2,324.8,147,324.6,146.8z"/>
			<path id="XMLID_85_" class="st14" d="M328.5,142.2h1.4c1.4,0,2,0.6,2,1.6c0,1-0.6,1.8-2,1.8h-0.2v-0.7h0.2c0.7,0,1.1-0.4,1.1-1
				c0-0.6-0.3-0.9-1.1-0.9h-0.5v4.1h-0.9V142.2z"/>
			<path id="XMLID_83_" class="st14" d="M332.6,142.2h3.1v0.8h-2.2v1.2h1.4v0.7h-1.4v1.3h2.2v0.8h-3.1V142.2z"/>
			<path id="XMLID_80_" class="st14" d="M337.5,145.3L337.5,145.3l-0.1,1.8h-0.9v-4.9h1.4c1.1,0,1.9,0.4,1.9,1.4
				c0,0.8-0.5,1.4-1.3,1.5l1.7,1.9H339L337.5,145.3z M337.9,144.6c0.6,0,0.9-0.3,0.9-0.8c0-0.5-0.3-0.8-0.9-0.8h-0.4v1.6H337.9z"/>
			<path id="XMLID_78_" class="st14" d="M340.7,142.2h0.9v4.9h-0.9V142.2z"/>
			<path id="XMLID_75_" class="st14" d="M342.7,142.2h1.4c1.6,0,2.6,0.7,2.6,2.4s-1.2,2.4-2.6,2.4h-1.4V142.2z M344.1,146.3
				c1.2,0,1.6-0.5,1.6-1.6c0-1.1-0.4-1.7-1.6-1.7h-0.4v3.2H344.1z"/>
			<path id="XMLID_72_" class="st14" d="M347.3,144.6c0-1.7,1.2-2.5,2.4-2.5c1.4,0,2.4,0.9,2.4,2.5s-1.2,2.5-2.4,2.5
				C348.2,147.2,347.3,146.3,347.3,144.6z M351.1,144.7c0-1.1-0.5-1.8-1.4-1.8c-0.9,0-1.4,0.6-1.4,1.7c0,1.1,0.5,1.8,1.4,1.8
				C350.5,146.4,351.1,145.8,351.1,144.7z"/>
			<path id="XMLID_70_" class="st14" d="M352.8,142.6l-0.3-0.4h1.1l2.2,3.2h0v-3.2h0.8v4.9H356l-2.3-3.3h0v3.3h-0.8V142.6z"/>
			<path id="XMLID_68_" class="st14" d="M357.8,142.2h3.1v0.8h-2.2v1.2h1.4v0.7h-1.4v1.3h2.2v0.8h-3.1V142.2z"/>
			<path id="XMLID_66_" class="st14" d="M326.4,155.5v-0.9c0.2,0.2,0.5,0.4,0.9,0.4c0.8,0,1.1-0.3,1.1-0.8c0-0.5-0.2-0.7-1-0.7h-0.3
				v-0.1l1-1.8h-1.7v-0.8h3v0.1l-1.1,1.9c0.7,0.1,1.1,0.5,1.1,1.4c0,0.8-0.6,1.6-2,1.6C326.9,155.8,326.6,155.6,326.4,155.5z"/>
			<path id="XMLID_64_" class="st14" d="M330.3,151.7h0.9l0,0.4c0.1-0.3,0.5-0.5,0.9-0.5c0.6,0,0.9,0.2,1.1,0.6
				c0.2-0.3,0.5-0.6,1.1-0.6c1,0,1.3,0.5,1.3,1.6v2.5h-0.9v-2.3c0-0.8-0.2-1.1-0.6-1.1c-0.4,0-0.6,0.2-0.8,0.4c0,0.2,0,0.3,0,0.5
				v2.5h-0.9v-2.3c0-0.8-0.2-1.1-0.6-1.1c-0.4,0-0.6,0.2-0.7,0.4v2.9h-0.9V151.7z"/>
			<path id="XMLID_61_" class="st14" d="M336.5,156.7V156c0.3,0.3,0.9,0.4,1.6,0.4c0.9,0,1.3-0.1,1.3-0.5c0-0.3-0.3-0.4-0.9-0.4
				c-0.5,0-1.4,0.1-1.7,0.2v-0.7l0.5-0.9c-0.6-0.2-0.9-0.6-0.9-1.3c0-0.9,0.7-1.4,1.7-1.4c0.4,0,0.8,0.1,1.1,0.3
				c0.1-0.2,0.4-0.3,0.7-0.3c0.1,0,0.2,0,0.3,0v0.7c-0.1,0-0.2,0-0.3,0c-0.2,0-0.3,0-0.4,0.1c0.1,0.2,0.1,0.3,0.1,0.5
				c0,0.9-0.7,1.4-1.6,1.4H338l-0.3,0.6c0.2,0,0.6-0.1,1-0.1c1,0,1.6,0.2,1.6,1c0,0.8-0.7,1.3-2.1,1.3
				C337.4,157.1,336.8,157,336.5,156.7z M338.9,153c0-0.4-0.3-0.7-0.7-0.7s-0.7,0.2-0.7,0.7c0,0.4,0.3,0.7,0.7,0.7
				S338.9,153.4,338.9,153z"/>
			<path id="XMLID_57_" class="st14" d="M342.6,150.8h1.4c1.3,0,1.9,0.4,1.9,1.2c0,0.7-0.4,1-0.9,1.1v0c0.6,0.1,1,0.4,1,1.1
				c0,0.8-0.5,1.4-1.9,1.4h-1.5V150.8z M344.1,152.8c0.7,0,0.9-0.2,0.9-0.6c0-0.4-0.3-0.6-0.9-0.6h-0.5v1.2H344.1z M344.1,154.9
				c0.7,0,0.9-0.3,0.9-0.7c0-0.4-0.2-0.7-0.9-0.7h-0.6v1.3H344.1z"/>
			<path id="XMLID_55_" class="st14" d="M346.9,150.8h0.9v4.9h-0.9V150.8z"/>
			<path id="XMLID_52_" class="st14" d="M348.9,150.8h1.4c1.6,0,2.6,0.7,2.6,2.4s-1.2,2.4-2.6,2.4h-1.4V150.8z M350.2,154.8
				c1.2,0,1.6-0.5,1.6-1.6c0-1.1-0.4-1.7-1.6-1.7h-0.4v3.2H350.2z"/>
		</g>
	</g>
</g>
<g id="XMLID_3_">
	<g id="XMLID_45_">
		<g id="XMLID_47_">
			<g id="XMLID_48_">
				<path class="st13" d="M295.8,225.6c7,0,13.9,0,20.9,0c1.2,0,1.2-2,0-2c-7,0-13.9,0-20.9,0C294.6,223.7,294.6,225.6,295.8,225.6
					L295.8,225.6z"/>
			</g>
		</g>
		<g id="XMLID_46_">
			<rect x="303.3" y="221.5" class="st13" width="5.8" height="6.4"/>
		</g>
	</g>
	<g id="XMLID_4_">
		<path id="XMLID_42_" class="st13" d="M328.7,221.7l-0.2-0.6h1.1l2.1,5.9h-1.1l-0.4-1.2h-2l-0.4,1.2h-1L328.7,221.7z M328.5,225
			h1.4l-0.6-1.6l-0.2-0.5l-0.2,0.5L328.5,225z"/>
		<path id="XMLID_40_" class="st13" d="M332.1,226.7v-1.1c0.3,0.3,0.6,0.6,1.2,0.6s0.8-0.3,0.8-0.6c0-0.3-0.1-0.4-0.6-0.5l-0.2,0
			c-0.8-0.2-1.3-0.6-1.3-1.5c0-0.8,0.6-1.5,1.7-1.5c0.6,0,1,0.2,1.3,0.4v1.1c-0.3-0.4-0.6-0.6-1.2-0.6c-0.6,0-0.8,0.2-0.8,0.5
			s0.1,0.5,0.6,0.6l0.2,0c0.9,0.2,1.3,0.5,1.3,1.4c0,0.8-0.6,1.6-1.8,1.6C332.8,227.2,332.4,227,332.1,226.7z"/>
		<path id="XMLID_37_" class="st13" d="M335.8,224.6c0-1.7,1-2.5,2-2.5c1,0,1.9,0.5,1.9,2.3v0.6h-2.9c0,0.7,0.4,1.2,1.3,1.2
			c0.8,0,1.2-0.4,1.5-0.7v1c-0.2,0.3-0.7,0.6-1.6,0.6C336.7,227.2,335.8,226.4,335.8,224.6z M338.7,224.2L338.7,224.2
			c0-0.8-0.3-1.2-0.9-1.2c-0.6,0-0.9,0.6-1,1.2H338.7z"/>
		<path id="XMLID_35_" class="st13" d="M340.6,222.3h1l0.1,0.4c0.2-0.3,0.6-0.6,1.1-0.6c1.1,0,1.6,0.6,1.6,1.9v3h-1v-2.8
			c0-0.9-0.2-1.3-0.8-1.3c-0.5,0-0.8,0.3-0.9,0.5v3.6h-1V222.3z"/>
		<path id="XMLID_32_" class="st13" d="M345.1,225.8c0-1,0.7-1.4,1.9-1.6l0.6-0.1c0-0.8-0.4-1.1-1-1.1c-0.6,0-1.2,0.4-1.4,0.9v-1.1
			c0.2-0.3,0.6-0.7,1.6-0.7c1.2,0,1.8,0.6,1.8,2v2.9h-0.9l-0.1-0.4c-0.1,0.3-0.5,0.6-1.1,0.6C345.8,227.2,345.1,226.8,345.1,225.8z
			 M347.6,224.9L347,225c-0.7,0.2-1,0.4-1,0.8c0,0.4,0.2,0.6,0.6,0.6c0.4,0,0.8-0.2,0.9-0.4V224.9z"/>
		<path id="XMLID_29_" class="st13" d="M349.7,222.3h1l0.1,0.4c0.1-0.3,0.5-0.6,1.1-0.6c1.1,0,1.8,0.7,1.8,2.4s-0.9,2.7-1.9,2.7
			c-0.3,0-0.7-0.1-0.9-0.3v1.9h-1V222.3z M352.5,224.6c0-0.9-0.3-1.5-1-1.5c-0.5,0-0.7,0.2-0.9,0.4v2.5c0.2,0.3,0.5,0.4,0.8,0.4
			C352.2,226.3,352.5,225.5,352.5,224.6z"/>
		<path id="XMLID_26_" class="st13" d="M354.4,221.1c0-0.4,0.2-0.6,0.6-0.6s0.6,0.2,0.6,0.6c0,0.4-0.2,0.6-0.6,0.6
			S354.4,221.5,354.4,221.1z M354.4,222.3h1v4.8h-1V222.3z"/>
		<path id="XMLID_24_" class="st13" d="M356.5,222.3h1l0.1,0.4c0.2-0.3,0.6-0.6,1.1-0.6c1.1,0,1.6,0.6,1.6,1.9v3h-1v-2.8
			c0-0.9-0.2-1.3-0.8-1.3c-0.5,0-0.8,0.3-0.9,0.5v3.6h-1V222.3z"/>
		<path id="XMLID_21_" class="st13" d="M361.1,224.6c0-1.7,1-2.5,2-2.5c1,0,1.9,0.5,1.9,2.3v0.6h-2.9c0,0.7,0.4,1.2,1.3,1.2
			c0.8,0,1.2-0.4,1.5-0.7v1c-0.2,0.3-0.7,0.6-1.6,0.6C361.9,227.2,361.1,226.4,361.1,224.6z M364,224.2L364,224.2
			c0-0.8-0.3-1.2-0.9-1.2c-0.6,0-0.9,0.6-1,1.2H364z"/>
		<path id="XMLID_19_" class="st13" d="M331.4,237.3v-1.1c0.2,0.2,0.6,0.4,1.1,0.4c0.8,0,1.2-0.4,1.2-0.9c0-0.5-0.3-0.9-1.1-0.9
			c-0.4,0-0.8,0.1-1,0.2l0.1-3.5h2.9v1h-2.1l0,1.4c0.1,0,0.3-0.1,0.5-0.1c1.1,0,1.8,0.5,1.8,1.7c0,1.2-0.9,2-2.1,2
			C332,237.6,331.6,237.4,331.4,237.3z"/>
		<path id="XMLID_17_" class="st13" d="M335.6,232.6h1l0,0.4c0.2-0.3,0.5-0.6,1-0.6c0.6,0,1,0.2,1.3,0.7c0.2-0.3,0.6-0.7,1.3-0.7
			c1.1,0,1.5,0.6,1.5,1.9v3h-1v-2.8c0-0.9-0.2-1.3-0.7-1.3c-0.4,0-0.7,0.2-0.8,0.5c0,0.2,0,0.4,0,0.6v3h-1v-2.8
			c0-0.9-0.2-1.3-0.7-1.3c-0.4,0-0.7,0.2-0.8,0.5v3.6h-1V232.6z"/>
		<path id="XMLID_14_" class="st13" d="M342.5,238.7v-0.9c0.4,0.3,1,0.5,1.8,0.5c1,0,1.5-0.2,1.5-0.6c0-0.4-0.3-0.5-1-0.5
			c-0.6,0-1.5,0.1-1.8,0.3v-0.8l0.6-1.1c-0.6-0.2-1-0.8-1-1.5c0-1,0.8-1.7,1.8-1.7c0.5,0,0.9,0.1,1.2,0.4c0.1-0.2,0.5-0.4,0.8-0.4
			c0.1,0,0.2,0,0.3,0v0.9c-0.1,0-0.2-0.1-0.3-0.1c-0.2,0-0.3,0.1-0.4,0.1c0.1,0.2,0.1,0.4,0.1,0.7c0,1-0.8,1.7-1.8,1.7h-0.1
			l-0.4,0.7c0.2-0.1,0.7-0.1,1.1-0.1c1.1,0,1.8,0.3,1.8,1.2c0,1-0.8,1.6-2.4,1.6C343.6,239.2,342.9,239.1,342.5,238.7z M345.2,234.2
			c0-0.5-0.3-0.8-0.8-0.8c-0.5,0-0.8,0.3-0.8,0.8c0,0.5,0.3,0.8,0.8,0.8C344.9,235,345.2,234.7,345.2,234.2z"/>
		<path id="XMLID_10_" class="st13" d="M349.3,231.5h1.6c1.5,0,2.1,0.5,2.1,1.5c0,0.8-0.4,1.2-1,1.4v0c0.6,0.1,1.1,0.5,1.1,1.4
			c0,0.9-0.6,1.7-2.1,1.7h-1.6V231.5z M351,234c0.8,0,1-0.3,1-0.8s-0.3-0.7-1-0.7h-0.6v1.5H351z M351,236.5c0.8,0,1.1-0.3,1.1-0.8
			c0-0.5-0.3-0.8-1.1-0.8h-0.6v1.6H351z"/>
		<path id="XMLID_8_" class="st13" d="M354.1,231.5h1v5.9h-1V231.5z"/>
		<path id="XMLID_5_" class="st13" d="M356.3,231.5h1.5c1.8,0,2.9,0.8,2.9,2.9s-1.3,2.9-2.9,2.9h-1.5V231.5z M357.8,236.4
			c1.4,0,1.8-0.6,1.8-1.9c0-1.3-0.4-2-1.8-2h-0.5v3.9H357.8z"/>
	</g>
</g>
<line id="XMLID_2_" class="st21" x1="24.9" y1="82.9" x2="24.9" y2="259.2"/>
<line id="XMLID_1_" class="st21" x1="24.9" y1="82.9" x2="279.4" y2="82.9"/>
</svg>
