<!-- Generator: Adobe Illustrator 22.1.0, SVG Export Plug-In  -->
<svg version="1.1"
	 xmlns="http://www.w3.org/2000/svg" xmlns:xlink="http://www.w3.org/1999/xlink" xmlns:a="http://ns.adobe.com/AdobeSVGViewerExtensions/3.0/"
	 x="0px" y="0px" width="404.7px" height="284.5px" viewBox="0 0 404.7 284.5" style="enable-background:new 0 0 404.7 284.5;"
	 xml:space="preserve">
<style type="text/css">
	.st0{fill:url(#XMLID_266_);}
	.st1{fill:#FFFFFF;}
	.st2{fill:#FFFFFF;stroke:#8B3C95;stroke-width:1.4562;stroke-miterlimit:10;}
	.st3{fill:#231F20;}
	.st4{font-family:'MyriadPro-Regular';}
	.st5{font-size:9.3601px;}
	.st6{fill:none;stroke:#8B3C95;stroke-width:0.3944;stroke-miterlimit:10;}
	.st7{fill:none;stroke:#DB5D27;stroke-miterlimit:10;}
	.st8{fill:#0C3B60;}
	.st9{fill:#490E67;}
	.st10{fill:none;stroke:#490E67;stroke-width:0.9784;stroke-miterlimit:10;}
	.st11{fill:none;stroke:#808184;stroke-width:1.223;stroke-miterlimit:10;}
	.st12{fill:#E4EA91;}
	.st13{fill:none;stroke:#C14B48;stroke-width:0.7919;stroke-miterlimit:10;}
	.st14{fill:none;stroke:#EE2A7B;stroke-width:0.8511;stroke-miterlimit:10;stroke-dasharray:2.6847,2.6847;}
	.st15{font-family:'Altis-Medium';}
	.st16{font-size:8.5337px;}
	.st17{fill:#DB5D27;}
	.st18{fill:#808184;}
	.st19{fill:#C29FD8;}
	.st20{fill:none;stroke:#8B3C95;stroke-width:0.25;stroke-miterlimit:10;}
	.st21{fill:url(#XMLID_839_);}
</style>
<defs>
</defs>
<g id="XMLID_3_">
	<linearGradient id="XMLID_266_" gradientUnits="userSpaceOnUse" x1="0.7281" y1="141.4514" x2="403.7709" y2="141.4514">
		<stop  offset="0" style="stop-color:#C3A0CB"/>
		<stop  offset="1" style="stop-color:#4A2365"/>
	</linearGradient>
	<path id="XMLID_837_" class="st0" d="M403.8,13.7c0-7.6-5.4-13.7-12.1-13.7H12.8C6.1,0,0.7,6.1,0.7,13.7v255.5
		c0,7.6,5.4,13.7,12.1,13.7h378.8c6.7,0,12.1-6.1,12.1-13.7V13.7z"/>
	<g id="XMLID_606_">
		<g id="XMLID_608_">
			<path id="XMLID_721_" class="st1" d="M47,17.9v-2.6c0.5,0.6,1.6,1.2,2.9,1.2c1.2,0,1.8-0.4,1.8-1.2c0-0.6-0.4-0.9-1.4-1.1
				l-0.4-0.1C48.1,13.8,47,12.9,47,11c0-2.1,1.5-3.4,4-3.4c1.6,0,2.5,0.4,2.9,0.8v2.6c-0.5-0.6-1.6-1.2-2.9-1.2c-1,0-1.5,0.3-1.5,1
				c0,0.6,0.3,0.9,1.3,1.1l0.4,0.1c1.8,0.4,3,1.1,3,3.1c0,2.1-1.5,3.6-4.3,3.6C48.3,18.7,47.4,18.3,47,17.9z"/>
			<path id="XMLID_718_" class="st1" d="M55.3,14.1c0-3.1,2.1-4.5,4.3-4.5c2.1,0,4,0.9,4,4.1v1.1h-5.7c0.1,1,0.7,1.7,2.4,1.7
				c1.5,0,2.4-0.5,2.9-1v2.1c-0.5,0.4-1.5,1-3.3,1C57,18.7,55.3,17.2,55.3,14.1z M61.2,13.3L61.2,13.3c0-1.1-0.5-1.7-1.6-1.7
				c-1,0-1.6,0.8-1.6,1.7H61.2z"/>
			<path id="XMLID_716_" class="st1" d="M64.6,14.1c0-3.1,2-4.5,4.4-4.5c1.3,0,2.2,0.4,2.6,0.7v2.3c-0.6-0.6-1.2-0.9-2.2-0.9
				c-1.4,0-2.1,0.9-2.1,2.4c0,1.5,0.7,2.4,2.1,2.4c1,0,1.7-0.4,2.3-0.9v2.2c-0.4,0.4-1.4,0.9-2.7,0.9C66.3,18.7,64.6,17.3,64.6,14.1
				z"/>
			<path id="XMLID_713_" class="st1" d="M72.6,14.1c0-3.2,2.1-4.5,4.5-4.5c2.5,0,4.3,1.4,4.3,4.5c0,3.2-2.1,4.5-4.5,4.5
				C74.4,18.7,72.6,17.3,72.6,14.1z M78.9,14.1c0-1.5-0.6-2.5-1.8-2.5c-1.2,0-1.8,1-1.8,2.5c0,1.5,0.6,2.5,1.8,2.5
				C78.3,16.6,78.9,15.6,78.9,14.1z"/>
			<path id="XMLID_711_" class="st1" d="M82.9,9.9h2.3l0.2,0.7c0.4-0.6,1.2-1,2.3-1c2.3,0,3.2,1.2,3.2,3.5v5.3h-2.6v-4.9
				c0-1.4-0.4-1.9-1.3-1.9c-0.8,0-1.2,0.4-1.5,0.7v6.1h-2.6V9.9z"/>
			<path id="XMLID_708_" class="st1" d="M92.3,14.3c0-3.1,1.6-4.6,3.9-4.6c0.7,0,1.5,0.1,1.9,0.5V6.8h2.6v11.7h-2.3l-0.2-0.7
				c-0.3,0.5-1,1-2.3,1C93.7,18.7,92.3,17.4,92.3,14.3z M98,12.1c-0.3-0.4-0.8-0.6-1.4-0.6c-1.2,0-1.7,1.2-1.7,2.7s0.4,2.4,1.6,2.4
				c0.7,0,1.2-0.3,1.5-0.7V12.1z"/>
			<path id="XMLID_705_" class="st1" d="M102,16.2c0-1.7,1.2-2.4,3.7-2.8l1.3-0.2c0-1.2-0.6-1.5-1.7-1.5c-1.2,0-2.4,0.6-2.8,1.5
				v-2.4c0.4-0.5,1.3-1.1,3.3-1.1c2.5,0,3.9,1.1,3.9,3.7v5.1h-2.2l-0.2-0.7c-0.2,0.5-0.9,1-2.2,1C103.2,18.7,102,17.9,102,16.2z
				 M107,14.7l-1,0.2c-1.2,0.2-1.6,0.5-1.6,1.1c0,0.6,0.4,0.8,1.1,0.8c0.7,0,1.3-0.3,1.5-0.6V14.7z"/>
			<path id="XMLID_703_" class="st1" d="M111.3,9.9h2.1l0.2,1.1c0.1-0.9,0.9-1.4,1.7-1.4c0.5,0,0.7,0.1,0.9,0.2v2.3
				c-0.2-0.2-0.5-0.2-1-0.2c-0.6,0-1.1,0.3-1.3,0.7v5.9h-2.6V9.9z"/>
			<path id="XMLID_701_" class="st1" d="M117.1,21.2v-2c0.4,0.4,0.9,0.6,1.5,0.6c0.6,0,1.1-0.2,1.5-1.1l-3.5-8.8h2.8l1.8,5.6
				l1.5-5.6h2.5l-2.5,8.1c-0.6,2.1-1.7,3.7-4,3.7C118,21.7,117.4,21.5,117.1,21.2z"/>
			<path id="XMLID_699_" class="st1" d="M130.1,9.9h2.3l0.1,0.7c0.4-0.6,1.2-1,2.2-1c1.2,0,2.1,0.4,2.5,1.2c0.4-0.6,1.3-1.2,2.6-1.2
				c2.1,0,3,1.2,3,3.5v5.3h-2.6v-4.9c0-1.4-0.3-1.9-1.2-1.9c-0.6,0-1.2,0.3-1.4,0.7c0,0.2,0.1,0.5,0.1,0.8v5.3h-2.6v-4.9
				c0-1.4-0.3-1.9-1.2-1.9c-0.7,0-1.1,0.3-1.3,0.7v6.1h-2.6V9.9z"/>
			<path id="XMLID_696_" class="st1" d="M144.2,14.1c0-3.1,2.1-4.5,4.3-4.5c2.1,0,4,0.9,4,4.1v1.1h-5.7c0.1,1,0.7,1.7,2.4,1.7
				c1.5,0,2.4-0.5,2.9-1v2.1c-0.5,0.4-1.5,1-3.3,1C146,18.7,144.2,17.2,144.2,14.1z M150.1,13.3L150.1,13.3c0-1.1-0.5-1.7-1.6-1.7
				c-1,0-1.6,0.8-1.6,1.7H150.1z"/>
			<path id="XMLID_693_" class="st1" d="M153.5,16.2c0-1.7,1.2-2.4,3.7-2.8l1.3-0.2c0-1.2-0.6-1.5-1.7-1.5c-1.2,0-2.4,0.6-2.8,1.5
				v-2.4c0.4-0.5,1.3-1.1,3.3-1.1c2.5,0,3.9,1.1,3.9,3.7v5.1h-2.2l-0.2-0.7c-0.2,0.5-0.9,1-2.2,1C154.7,18.7,153.5,17.9,153.5,16.2z
				 M158.5,14.7l-1,0.2c-1.2,0.2-1.6,0.5-1.6,1.1c0,0.6,0.4,0.8,1.1,0.8c0.7,0,1.3-0.3,1.5-0.6V14.7z"/>
			<path id="XMLID_691_" class="st1" d="M162.6,18v-2.3c0.6,0.5,1.4,1,2.6,1c1.1,0,1.5-0.4,1.5-0.8c0-0.5-0.2-0.6-1.2-0.8l-0.4-0.1
				c-1.8-0.2-2.6-1.1-2.6-2.6c0-1.5,1-2.8,3.6-2.8c1.3,0,2.3,0.3,2.7,0.7v2.2c-0.6-0.6-1.5-0.9-2.7-0.9c-1,0-1.4,0.3-1.4,0.7
				s0.2,0.6,1.1,0.8l0.5,0.1c1.9,0.3,2.8,1,2.8,2.6c0,1.5-1.1,2.9-3.8,2.9C164,18.7,163.1,18.4,162.6,18z"/>
			<path id="XMLID_689_" class="st1" d="M170.4,15.2V9.9h2.6v4.9c0,1.4,0.3,1.9,1.3,1.9c0.8,0,1.2-0.4,1.4-0.7V9.9h2.6v8.6H176
				l-0.2-0.7c-0.4,0.5-1.2,1-2.3,1C171.3,18.7,170.4,17.5,170.4,15.2z"/>
			<path id="XMLID_687_" class="st1" d="M180.1,9.9h2.1l0.2,1.1c0.1-0.9,0.9-1.4,1.7-1.4c0.5,0,0.7,0.1,0.9,0.2v2.3
				c-0.2-0.2-0.5-0.2-1-0.2c-0.6,0-1.1,0.3-1.3,0.7v5.9h-2.6V9.9z"/>
			<path id="XMLID_684_" class="st1" d="M185.6,14.1c0-3.1,2.1-4.5,4.3-4.5c2.1,0,4,0.9,4,4.1v1.1h-5.7c0.1,1,0.7,1.7,2.4,1.7
				c1.5,0,2.4-0.5,2.9-1v2.1c-0.5,0.4-1.5,1-3.3,1C187.4,18.7,185.6,17.2,185.6,14.1z M191.5,13.3L191.5,13.3c0-1.1-0.5-1.7-1.6-1.7
				c-1,0-1.6,0.8-1.6,1.7H191.5z"/>
			<path id="XMLID_681_" class="st1" d="M198.7,14.1c0-3.2,2.1-4.5,4.5-4.5c2.5,0,4.3,1.4,4.3,4.5c0,3.2-2.1,4.5-4.5,4.5
				C200.5,18.7,198.7,17.3,198.7,14.1z M204.9,14.1c0-1.5-0.6-2.5-1.8-2.5c-1.2,0-1.8,1-1.8,2.5c0,1.5,0.6,2.5,1.8,2.5
				C204.4,16.6,204.9,15.6,204.9,14.1z"/>
			<path id="XMLID_679_" class="st1" d="M209.4,11.9h-1V11l1-0.8c-0.2-0.3-0.3-0.7-0.3-1.2c0-1.6,1.5-2.4,3.1-2.4
				c1.2,0,1.9,0.3,2.2,0.5v2.1c-0.3-0.4-0.9-0.7-1.6-0.7c-0.8,0-1.1,0.3-1.1,0.8c0,0.3,0.1,0.5,0.2,0.6h1.7v2H212v6.6h-2.6V11.9z"/>
			<path id="XMLID_676_" class="st1" d="M218.2,14.1c0-3.1,2.1-4.5,4.3-4.5c2.1,0,4,0.9,4,4.1v1.1h-5.7c0.1,1,0.7,1.7,2.4,1.7
				c1.5,0,2.4-0.5,2.9-1v2.1c-0.5,0.4-1.5,1-3.3,1C219.9,18.7,218.2,17.2,218.2,14.1z M224,13.3L224,13.3c0-1.1-0.5-1.7-1.6-1.7
				c-1,0-1.6,0.8-1.6,1.7H224z"/>
			<path id="XMLID_673_" class="st1" d="M228.3,11.8h-1V11l1-0.8c-0.2-0.3-0.3-0.7-0.3-1.2c0-1.6,1.4-2.4,2.9-2.4
				c1.1,0,1.5,0.3,1.8,0.5v2c-0.3-0.4-0.6-0.6-1.2-0.6c-0.5,0-0.9,0.3-0.9,0.8c0,0.3,0.1,0.5,0.2,0.6h2.7c-0.1-0.2-0.2-0.6-0.2-1
				c0-1.6,1.4-2.4,2.9-2.4c1,0,1.5,0.3,1.7,0.5V9c-0.2-0.4-0.6-0.6-1.2-0.6c-0.6,0-0.9,0.3-0.9,0.9c0,0.3,0.1,0.5,0.2,0.6h5.4v8.5
				h-2.6v-6.6h-2.6v6.6h-2.6v-6.6h-2.6v6.6h-2.6V11.8z M238.7,7.9c0-0.8,0.5-1.2,1.3-1.2c0.8,0,1.4,0.4,1.4,1.2
				c0,0.8-0.5,1.2-1.4,1.2C239.2,9.1,238.7,8.6,238.7,7.9z"/>
			<path id="XMLID_671_" class="st1" d="M242.7,14.1c0-3.1,2-4.5,4.4-4.5c1.3,0,2.2,0.4,2.6,0.7v2.3c-0.6-0.6-1.2-0.9-2.2-0.9
				c-1.4,0-2.1,0.9-2.1,2.4c0,1.5,0.7,2.4,2.1,2.4c1,0,1.7-0.4,2.3-0.9v2.2c-0.4,0.4-1.4,0.9-2.7,0.9
				C244.5,18.7,242.7,17.3,242.7,14.1z"/>
			<path id="XMLID_668_" class="st1" d="M250.8,16.2c0-1.7,1.2-2.4,3.7-2.8l1.3-0.2c0-1.2-0.6-1.5-1.7-1.5c-1.2,0-2.4,0.6-2.8,1.5
				v-2.4c0.4-0.5,1.3-1.1,3.3-1.1c2.5,0,3.9,1.1,3.9,3.7v5.1h-2.2l-0.2-0.7c-0.2,0.5-0.9,1-2.2,1C252,18.7,250.8,17.9,250.8,16.2z
				 M255.8,14.7l-1,0.2c-1.2,0.2-1.6,0.5-1.6,1.1c0,0.6,0.4,0.8,1.1,0.8c0.7,0,1.3-0.3,1.5-0.6V14.7z"/>
			<path id="XMLID_666_" class="st1" d="M259.7,14.1c0-3.1,2-4.5,4.4-4.5c1.3,0,2.2,0.4,2.6,0.7v2.3c-0.6-0.6-1.2-0.9-2.2-0.9
				c-1.4,0-2.1,0.9-2.1,2.4c0,1.5,0.7,2.4,2.1,2.4c1,0,1.7-0.4,2.3-0.9v2.2c-0.4,0.4-1.4,0.9-2.7,0.9
				C261.4,18.7,259.7,17.3,259.7,14.1z"/>
			<path id="XMLID_664_" class="st1" d="M267.7,21.2v-2c0.4,0.4,0.9,0.6,1.5,0.6c0.6,0,1.1-0.2,1.5-1.1l-3.5-8.8h2.8l1.8,5.6
				l1.5-5.6h2.5l-2.5,8.1c-0.6,2.1-1.7,3.7-4,3.7C268.7,21.7,268.1,21.5,267.7,21.2z"/>
			<path id="XMLID_662_" class="st1" d="M284.7,7.9h3.6c3.2,0,4.6,1.3,4.6,3.5c0,2.3-1.4,3.9-4.6,3.9h-0.5v-1.9h0.5
				c1.3,0,1.9-0.7,1.9-1.8c0-1.2-0.6-1.8-2-1.8h-0.9v8.6h-2.6V7.9z"/>
			<path id="XMLID_659_" class="st1" d="M293.7,14.1c0-3.2,2.1-4.5,4.5-4.5c2.5,0,4.3,1.4,4.3,4.5c0,3.2-2.1,4.5-4.5,4.5
				C295.5,18.7,293.7,17.3,293.7,14.1z M299.9,14.1c0-1.5-0.6-2.5-1.8-2.5c-1.2,0-1.8,1-1.8,2.5c0,1.5,0.6,2.5,1.8,2.5
				C299.4,16.6,299.9,15.6,299.9,14.1z"/>
			<path id="XMLID_657_" class="st1" d="M303.7,18v-2.3c0.6,0.5,1.4,1,2.6,1c1.1,0,1.5-0.4,1.5-0.8c0-0.5-0.2-0.6-1.2-0.8l-0.4-0.1
				c-1.8-0.2-2.6-1.1-2.6-2.6c0-1.5,1-2.8,3.6-2.8c1.3,0,2.3,0.3,2.7,0.7v2.2c-0.6-0.6-1.5-0.9-2.7-0.9c-1,0-1.4,0.3-1.4,0.7
				s0.2,0.6,1.1,0.8l0.5,0.1c1.9,0.3,2.8,1,2.8,2.6c0,1.5-1.1,2.9-3.8,2.9C305.1,18.7,304.2,18.4,303.7,18z"/>
			<path id="XMLID_654_" class="st1" d="M311.6,7.8c0-0.8,0.5-1.2,1.3-1.2c0.8,0,1.4,0.4,1.4,1.2c0,0.8-0.5,1.2-1.4,1.2
				C312.1,9,311.6,8.6,311.6,7.8z M311.6,9.9h2.6v8.6h-2.6V9.9z"/>
			<path id="XMLID_652_" class="st1" d="M316.5,16v-4.1h-1v-0.9l0.9-1.1l1.6-2h1.2v2h2.1v2h-2.1v3.9c0,0.6,0.2,0.9,0.7,0.9
				c0.6,0,1-0.3,1.3-0.7V18c-0.3,0.3-0.9,0.7-2,0.7C317.3,18.7,316.5,17.7,316.5,16z"/>
			<path id="XMLID_649_" class="st1" d="M322.5,7.8c0-0.8,0.5-1.2,1.3-1.2c0.8,0,1.4,0.4,1.4,1.2c0,0.8-0.5,1.2-1.4,1.2
				C323,9,322.5,8.6,322.5,7.8z M322.5,9.9h2.6v8.6h-2.6V9.9z"/>
			<path id="XMLID_647_" class="st1" d="M326.1,9.9h2.8l1.4,4.1l0.3,0.9c0.1-0.2,0.2-0.7,0.3-0.9l1.5-4.1h2.5l-3.5,8.6h-1.7
				L326.1,9.9z"/>
			<path id="XMLID_644_" class="st1" d="M335.1,14.1c0-3.1,2.1-4.5,4.3-4.5c2.1,0,4,0.9,4,4.1v1.1h-5.7c0.1,1,0.7,1.7,2.4,1.7
				c1.5,0,2.4-0.5,2.9-1v2.1c-0.5,0.4-1.5,1-3.3,1C336.8,18.7,335.1,17.2,335.1,14.1z M340.9,13.3L340.9,13.3c0-1.1-0.5-1.7-1.6-1.7
				c-1,0-1.6,0.8-1.6,1.7H340.9z"/>
			<path id="XMLID_642_" class="st1" d="M134.9,36.4v-2.6c0.5,0.6,1.6,1.2,2.9,1.2c1.2,0,1.8-0.4,1.8-1.2c0-0.6-0.4-0.9-1.4-1.1
				l-0.4-0.1c-1.7-0.3-2.9-1.3-2.9-3.2c0-2.1,1.5-3.4,4-3.4c1.6,0,2.5,0.4,2.9,0.8v2.6c-0.5-0.6-1.6-1.2-2.9-1.2c-1,0-1.5,0.3-1.5,1
				c0,0.6,0.3,0.9,1.3,1.1l0.4,0.1c1.8,0.4,3,1.1,3,3.1c0,2.1-1.5,3.6-4.3,3.6C136.2,37.2,135.3,36.8,134.9,36.4z"/>
			<path id="XMLID_640_" class="st1" d="M143.5,33.7v-5.3h2.6v4.9c0,1.4,0.3,1.9,1.3,1.9c0.8,0,1.2-0.4,1.4-0.7v-6.1h2.6v8.6h-2.3
				l-0.2-0.7c-0.4,0.5-1.2,1-2.3,1C144.4,37.2,143.5,36,143.5,33.7z"/>
			<path id="XMLID_637_" class="st1" d="M155.5,36.3l-0.3,0.6h-2V25.3h2.6V29c0.3-0.4,1-0.9,2.2-0.9c2.2,0,3.5,1.2,3.5,4.3
				c0,3.1-1.7,4.8-3.9,4.8C156.4,37.2,155.9,36.7,155.5,36.3z M155.8,34.7c0.3,0.4,0.9,0.6,1.4,0.6c1.2,0,1.7-1.2,1.7-2.7
				s-0.4-2.4-1.7-2.4c-0.7,0-1.2,0.3-1.5,0.7V34.7z"/>
			<path id="XMLID_635_" class="st1" d="M162.9,31.1h4.3v2.1h-4.3V31.1z"/>
			<path id="XMLID_633_" class="st1" d="M168.7,36.5v-2.3c0.6,0.5,1.4,1,2.6,1c1.1,0,1.5-0.4,1.5-0.8c0-0.5-0.2-0.6-1.2-0.8
				l-0.4-0.1c-1.8-0.2-2.6-1.1-2.6-2.6c0-1.5,1-2.8,3.6-2.8c1.3,0,2.3,0.3,2.7,0.7V31c-0.6-0.6-1.5-0.9-2.7-0.9
				c-1,0-1.4,0.3-1.4,0.7s0.2,0.6,1.1,0.8l0.5,0.1c1.9,0.3,2.8,1,2.8,2.6c0,1.5-1.1,2.9-3.8,2.9C170.1,37.2,169.2,36.8,168.7,36.5z"
				/>
			<path id="XMLID_631_" class="st1" d="M176.2,32.6c0-3.1,2-4.5,4.4-4.5c1.3,0,2.2,0.4,2.6,0.7v2.3c-0.6-0.6-1.2-0.9-2.2-0.9
				c-1.4,0-2.1,0.9-2.1,2.4c0,1.5,0.7,2.4,2.1,2.4c1,0,1.7-0.4,2.3-0.9v2.2c-0.4,0.4-1.4,0.9-2.7,0.9
				C178,37.2,176.2,35.8,176.2,32.6z"/>
			<path id="XMLID_628_" class="st1" d="M184.3,34.7c0-1.7,1.2-2.4,3.7-2.8l1.3-0.2c0-1.2-0.6-1.5-1.7-1.5c-1.2,0-2.4,0.6-2.8,1.5
				v-2.4c0.4-0.5,1.3-1.1,3.3-1.1c2.5,0,3.9,1.1,3.9,3.7v5.1h-2.2l-0.2-0.7c-0.2,0.5-0.9,1-2.2,1C185.5,37.2,184.3,36.4,184.3,34.7z
				 M189.3,33.2l-1,0.2c-1.2,0.2-1.6,0.5-1.6,1.1c0,0.6,0.4,0.8,1.1,0.8c0.7,0,1.3-0.3,1.5-0.6V33.2z"/>
			<path id="XMLID_626_" class="st1" d="M193.6,34.8v-9.5h2.6v9.2c0,0.5,0.2,0.7,0.5,0.7c0.4,0,0.6-0.2,0.8-0.4v1.9
				c-0.2,0.2-0.7,0.5-1.5,0.5C194.4,37.2,193.6,36.3,193.6,34.8z"/>
			<path id="XMLID_623_" class="st1" d="M198.2,32.6c0-3.1,2.1-4.5,4.3-4.5c2.1,0,4,0.9,4,4.1v1.1h-5.7c0.1,1,0.7,1.7,2.4,1.7
				c1.5,0,2.4-0.5,2.9-1v2.1c-0.5,0.4-1.5,1-3.3,1C199.9,37.2,198.2,35.7,198.2,32.6z M204.1,31.8L204.1,31.8c0-1.1-0.5-1.7-1.6-1.7
				c-1,0-1.6,0.8-1.6,1.7H204.1z"/>
			<path id="XMLID_621_" class="st1" d="M211.5,36.4v-2.6c0.5,0.6,1.6,1.2,2.9,1.2c1.2,0,1.8-0.4,1.8-1.2c0-0.6-0.4-0.9-1.4-1.1
				l-0.4-0.1c-1.7-0.3-2.9-1.3-2.9-3.2c0-2.1,1.5-3.4,4-3.4c1.6,0,2.5,0.4,2.9,0.8v2.6c-0.5-0.6-1.6-1.2-2.9-1.2c-1,0-1.5,0.3-1.5,1
				c0,0.6,0.3,0.9,1.3,1.1l0.4,0.1c1.8,0.4,3,1.1,3,3.1c0,2.1-1.5,3.6-4.3,3.6C212.8,37.2,211.9,36.8,211.5,36.4z"/>
			<path id="XMLID_619_" class="st1" d="M219.8,32.6c0-3.1,2-4.5,4.4-4.5c1.3,0,2.2,0.4,2.6,0.7v2.3c-0.6-0.6-1.2-0.9-2.2-0.9
				c-1.4,0-2.1,0.9-2.1,2.4c0,1.5,0.7,2.4,2.1,2.4c1,0,1.7-0.4,2.3-0.9v2.2c-0.4,0.4-1.4,0.9-2.7,0.9
				C221.6,37.2,219.8,35.8,219.8,32.6z"/>
			<path id="XMLID_616_" class="st1" d="M227.9,32.6c0-3.2,2.1-4.5,4.5-4.5c2.5,0,4.3,1.4,4.3,4.5c0,3.2-2.1,4.5-4.5,4.5
				C229.6,37.2,227.9,35.8,227.9,32.6z M234.1,32.6c0-1.5-0.6-2.5-1.8-2.5c-1.2,0-1.8,1-1.8,2.5c0,1.5,0.6,2.5,1.8,2.5
				C233.5,35.1,234.1,34.1,234.1,32.6z"/>
			<path id="XMLID_614_" class="st1" d="M238.1,28.4h2.1l0.2,1.1c0.1-0.9,0.9-1.4,1.7-1.4c0.5,0,0.7,0.1,0.9,0.2v2.3
				c-0.2-0.2-0.5-0.2-1-0.2c-0.6,0-1.1,0.3-1.3,0.7v5.9h-2.6V28.4z"/>
			<path id="XMLID_611_" class="st1" d="M243.6,32.6c0-3.1,2.1-4.5,4.3-4.5c2.1,0,4,0.9,4,4.1v1.1h-5.7c0.1,1,0.7,1.7,2.4,1.7
				c1.5,0,2.4-0.5,2.9-1v2.1c-0.5,0.4-1.5,1-3.3,1C245.3,37.2,243.6,35.7,243.6,32.6z M249.5,31.8L249.5,31.8c0-1.1-0.5-1.7-1.6-1.7
				c-1,0-1.6,0.8-1.6,1.7H249.5z"/>
			<path id="XMLID_609_" class="st1" d="M253.9,27.4c-0.2,0.2-0.8,0.3-1.3,0.3v-1.2c0.9,0,1.5-0.2,2-0.8h0.8v6.2h-1.5V27.4z"/>
		</g>
	</g>
	<path id="XMLID_605_" class="st2" d="M0.7,269c0,8,5.9,14.4,13.2,14.4h376.9c7.3,0,13.2-6.4,13.2-14.4V56.2c0-8-5.9-14.4-13.2-14.4
		H13.9c-7.3,0-13.2,6.5-13.2,14.4V269z"/>
	<g id="XMLID_603_">
		<text transform="matrix(0.9739 0 0 1 120.2186 248.951)" class="st3 st4 st5">*</text>
	</g>
	<g id="XMLID_601_">
		<text transform="matrix(0.9739 0 0 1 187.4413 261.3582)" class="st3 st4 st5">*</text>
	</g>
	<g id="XMLID_599_">
		<text transform="matrix(0.9739 0 0 1 222.4061 265.1424)" class="st3 st4 st5">*</text>
	</g>
	<g id="XMLID_596_">
		<text transform="matrix(0.9739 0 0 1 188.3719 223.7644)" class="st3 st4 st5">*</text>
	</g>
	<g id="XMLID_594_">
		<text transform="matrix(0.9739 0 0 1 255.0975 264.5252)" class="st3 st4 st5">*</text>
	</g>
	<g id="XMLID_592_">
		<text transform="matrix(0.9739 0 0 1 153.8934 251.0291)" class="st3 st4 st5">*</text>
	</g>
	<line id="XMLID_591_" class="st6" x1="35.5" y1="265.7" x2="32.5" y2="265.7"/>
	<line id="XMLID_590_" class="st6" x1="35.5" y1="72.1" x2="32.5" y2="72.1"/>
	<line id="XMLID_589_" class="st6" x1="35.5" y1="105.7" x2="32.5" y2="105.7"/>
	<line id="XMLID_588_" class="st6" x1="35.5" y1="138.5" x2="32.5" y2="138.5"/>
	<line id="XMLID_587_" class="st6" x1="35.5" y1="202.4" x2="32.5" y2="202.4"/>
	<line id="XMLID_586_" class="st6" x1="35.5" y1="234.7" x2="32.5" y2="234.7"/>
	<line id="XMLID_585_" class="st6" x1="35.5" y1="169.8" x2="32.5" y2="169.8"/>
	<line id="XMLID_584_" class="st6" x1="67.7" y1="72.1" x2="67.7" y2="67.8"/>
	<line id="XMLID_583_" class="st6" x1="99.1" y1="72.1" x2="99.1" y2="67.8"/>
	<line id="XMLID_582_" class="st6" x1="133.9" y1="72.1" x2="133.9" y2="67.8"/>
	<line id="XMLID_581_" class="st6" x1="165.4" y1="72.1" x2="165.4" y2="67.8"/>
	<line id="XMLID_580_" class="st6" x1="201.4" y1="72.1" x2="201.4" y2="67.8"/>
	<line id="XMLID_579_" class="st6" x1="235" y1="72.1" x2="235" y2="67.8"/>
	<line id="XMLID_578_" class="st6" x1="265.1" y1="72.1" x2="265.1" y2="67.8"/>
	<g id="XMLID_574_">
		<line id="XMLID_576_" class="st7" x1="89.7" y1="160.3" x2="82.8" y2="161.3"/>
		<line id="XMLID_575_" class="st7" x1="85.8" y1="164.2" x2="86.7" y2="157.5"/>
	</g>
	<g id="XMLID_545_">
		<g id="XMLID_547_">
			<path id="XMLID_559_" class="st8" d="M42.9,58.2h1l0.6,2.7l0.9-2.7h0.4l1,2.7l0.6-2.7h0.9l-1.1,4.7h-0.6l-1-2.8l-1,2.8h-0.6
				L42.9,58.2z"/>
			<path id="XMLID_556_" class="st8" d="M48.8,60.6c0-1.7,1-2.5,2-2.5c1,0,1.9,0.5,1.9,2.2v0.6h-2.8c0,0.7,0.4,1.2,1.2,1.2
				c0.7,0,1.2-0.3,1.4-0.7v1C52.3,62.7,51.8,63,51,63C49.7,63,48.8,62.3,48.8,60.6z M51.7,60.2L51.7,60.2c0-0.8-0.3-1.2-0.9-1.2
				c-0.6,0-0.9,0.6-0.9,1.2H51.7z"/>
			<path id="XMLID_553_" class="st8" d="M53.3,60.6c0-1.7,1-2.5,2-2.5c1,0,1.9,0.5,1.9,2.2v0.6h-2.8c0,0.7,0.4,1.2,1.2,1.2
				c0.7,0,1.2-0.3,1.4-0.7v1c-0.2,0.3-0.7,0.6-1.5,0.6C54.1,63,53.3,62.3,53.3,60.6z M56.2,60.2L56.2,60.2c0-0.8-0.3-1.2-0.9-1.2
				c-0.6,0-0.9,0.6-0.9,1.2H56.2z"/>
			<path id="XMLID_551_" class="st8" d="M59.4,60.8c-0.3,0.3-0.5,0.4-0.5,0.4v1.7h-1v-6.4h1v3.6c0,0,1-0.8,1.6-1.9h1
				c-0.4,0.6-0.9,1.3-1.4,1.8l1.7,2.9h-1.2L59.4,60.8z"/>
			<path id="XMLID_548_" class="st8" d="M62.2,60c0-1.9,1.3-3,2.6-3c1.6,0,2.6,1.1,2.6,3c0,1.9-1.2,3-2.6,3
				C63.2,63,62.2,61.9,62.2,60z M66.4,60c0-1.4-0.7-2.1-1.6-2.1c-0.9,0-1.6,0.7-1.6,2.1c0,1.4,0.7,2.1,1.6,2.1
				C65.7,62.1,66.4,61.4,66.4,60z"/>
		</g>
	</g>
	<g id="XMLID_518_">
		<g id="XMLID_520_">
			<path id="XMLID_531_" class="st8" d="M77.3,58.2h1l0.6,2.7l0.9-2.7h0.4l1,2.7l0.6-2.7h0.9l-1.1,4.7H81l-1-2.8l-1,2.8h-0.6
				L77.3,58.2z"/>
			<path id="XMLID_528_" class="st8" d="M83.2,60.6c0-1.7,1-2.5,2-2.5c1,0,1.9,0.5,1.9,2.2v0.6h-2.8c0,0.7,0.4,1.2,1.2,1.2
				c0.7,0,1.2-0.3,1.4-0.7v1c-0.2,0.3-0.7,0.6-1.5,0.6C84.1,63,83.2,62.3,83.2,60.6z M86.1,60.2L86.1,60.2c0-0.8-0.3-1.2-0.9-1.2
				c-0.6,0-0.9,0.6-0.9,1.2H86.1z"/>
			<path id="XMLID_525_" class="st8" d="M87.6,60.6c0-1.7,1-2.5,2-2.5c1,0,1.9,0.5,1.9,2.2v0.6h-2.8c0,0.7,0.4,1.2,1.2,1.2
				c0.7,0,1.2-0.3,1.4-0.7v1c-0.2,0.3-0.7,0.6-1.5,0.6C88.5,63,87.6,62.3,87.6,60.6z M90.5,60.2L90.5,60.2c0-0.8-0.3-1.2-0.9-1.2
				c-0.6,0-0.9,0.6-0.9,1.2H90.5z"/>
			<path id="XMLID_523_" class="st8" d="M93.8,60.8c-0.3,0.3-0.5,0.4-0.5,0.4v1.7h-1v-6.4h1v3.6c0,0,1-0.8,1.6-1.9h1
				c-0.4,0.6-0.9,1.3-1.4,1.8l1.7,2.9H95L93.8,60.8z"/>
			<path id="XMLID_521_" class="st8" d="M97.6,58.6c-0.2,0.2-0.7,0.3-1.2,0.3v-0.9c0.7,0,1.3-0.2,1.7-0.8h0.5v5.7h-1V58.6z"/>
		</g>
	</g>
	<g id="XMLID_491_">
		<g id="XMLID_493_">
			<path id="XMLID_504_" class="st8" d="M111,58.2h1l0.6,2.7l0.9-2.7h0.4l1,2.7l0.6-2.7h0.9l-1.1,4.7h-0.6l-1-2.8l-1,2.8h-0.6
				L111,58.2z"/>
			<path id="XMLID_501_" class="st8" d="M116.9,60.6c0-1.7,1-2.5,2-2.5c1,0,1.9,0.5,1.9,2.2v0.6H118c0,0.7,0.4,1.2,1.2,1.2
				c0.7,0,1.2-0.3,1.4-0.7v1c-0.2,0.3-0.7,0.6-1.5,0.6C117.8,63,116.9,62.3,116.9,60.6z M119.8,60.2L119.8,60.2
				c0-0.8-0.3-1.2-0.9-1.2c-0.6,0-0.9,0.6-0.9,1.2H119.8z"/>
			<path id="XMLID_498_" class="st8" d="M121.4,60.6c0-1.7,1-2.5,2-2.5c1,0,1.9,0.5,1.9,2.2v0.6h-2.8c0,0.7,0.4,1.2,1.2,1.2
				c0.7,0,1.2-0.3,1.4-0.7v1c-0.2,0.3-0.7,0.6-1.5,0.6C122.2,63,121.4,62.3,121.4,60.6z M124.3,60.2L124.3,60.2
				c0-0.8-0.3-1.2-0.9-1.2c-0.6,0-0.9,0.6-0.9,1.2H124.3z"/>
			<path id="XMLID_496_" class="st8" d="M127.5,60.8c-0.3,0.3-0.5,0.4-0.5,0.4v1.7h-1v-6.4h1v3.6c0,0,1-0.8,1.6-1.9h1
				c-0.4,0.6-0.9,1.3-1.4,1.8l1.7,2.9h-1.2L127.5,60.8z"/>
			<path id="XMLID_494_" class="st8" d="M130.3,62.8l1.6-2.4c0.3-0.4,0.6-0.9,0.6-1.5c0-0.6-0.3-1-0.9-1c-0.5,0-1.1,0.4-1.3,0.7v-1
				c0.2-0.3,0.8-0.6,1.5-0.6c1.2,0,1.7,0.7,1.7,1.8c0,0.9-0.5,1.7-1,2.4l-0.5,0.7h1.6v1h-3.2V62.8z"/>
		</g>
	</g>
	<g id="XMLID_464_">
		<g id="XMLID_466_">
			<path id="XMLID_477_" class="st8" d="M142.4,58.2h1l0.6,2.7l0.9-2.7h0.4l1,2.7l0.6-2.7h0.9l-1.1,4.7h-0.6l-1-2.8l-1,2.8h-0.6
				L142.4,58.2z"/>
			<path id="XMLID_474_" class="st8" d="M148.4,60.6c0-1.7,1-2.5,2-2.5c1,0,1.9,0.5,1.9,2.2v0.6h-2.8c0,0.7,0.4,1.2,1.2,1.2
				c0.7,0,1.2-0.3,1.4-0.7v1c-0.2,0.3-0.7,0.6-1.5,0.6C149.2,63,148.4,62.3,148.4,60.6z M151.3,60.2L151.3,60.2
				c0-0.8-0.3-1.2-0.9-1.2c-0.6,0-0.9,0.6-0.9,1.2H151.3z"/>
			<path id="XMLID_471_" class="st8" d="M152.8,60.6c0-1.7,1-2.5,2-2.5c1,0,1.9,0.5,1.9,2.2v0.6h-2.8c0,0.7,0.4,1.2,1.2,1.2
				c0.7,0,1.2-0.3,1.4-0.7v1c-0.2,0.3-0.7,0.6-1.5,0.6C153.7,63,152.8,62.3,152.8,60.6z M155.7,60.2L155.7,60.2
				c0-0.8-0.3-1.2-0.9-1.2c-0.6,0-0.9,0.6-0.9,1.2H155.7z"/>
			<path id="XMLID_469_" class="st8" d="M159,60.8c-0.3,0.3-0.5,0.4-0.5,0.4v1.7h-1v-6.4h1v3.6c0,0,1-0.8,1.6-1.9h1
				c-0.4,0.6-0.9,1.3-1.4,1.8l1.7,2.9h-1.2L159,60.8z"/>
			<path id="XMLID_467_" class="st8" d="M161.8,62.8v-1.1c0.2,0.2,0.5,0.4,1,0.4c0.9,0,1.2-0.4,1.2-1c0-0.5-0.3-0.9-1.1-0.9h-0.3
				v-0.1l1.1-2.1h-1.9v-1h3.2v0.1l-1.2,2.3c0.7,0.1,1.2,0.5,1.2,1.6c0,0.9-0.6,1.9-2.2,1.9C162.3,63,162,62.9,161.8,62.8z"/>
		</g>
	</g>
	<g id="XMLID_437_">
		<g id="XMLID_439_">
			<path id="XMLID_450_" class="st8" d="M178.1,58.2h1l0.6,2.7l0.9-2.7h0.4l1,2.7l0.6-2.7h0.9l-1.1,4.7h-0.6l-1-2.8l-1,2.8h-0.6
				L178.1,58.2z"/>
			<path id="XMLID_447_" class="st8" d="M184,60.6c0-1.7,1-2.5,2-2.5c1,0,1.9,0.5,1.9,2.2v0.6h-2.8c0,0.7,0.4,1.2,1.2,1.2
				c0.7,0,1.2-0.3,1.4-0.7v1c-0.2,0.3-0.7,0.6-1.5,0.6C184.9,63,184,62.3,184,60.6z M186.9,60.2L186.9,60.2c0-0.8-0.3-1.2-0.9-1.2
				c-0.6,0-0.9,0.6-0.9,1.2H186.9z"/>
			<path id="XMLID_444_" class="st8" d="M188.5,60.6c0-1.7,1-2.5,2-2.5c1,0,1.9,0.5,1.9,2.2v0.6h-2.8c0,0.7,0.4,1.2,1.2,1.2
				c0.7,0,1.2-0.3,1.4-0.7v1c-0.2,0.3-0.7,0.6-1.5,0.6C189.3,63,188.5,62.3,188.5,60.6z M191.4,60.2L191.4,60.2
				c0-0.8-0.3-1.2-0.9-1.2c-0.6,0-0.9,0.6-0.9,1.2H191.4z"/>
			<path id="XMLID_442_" class="st8" d="M194.6,60.8c-0.3,0.3-0.5,0.4-0.5,0.4v1.7h-1v-6.4h1v3.6c0,0,1-0.8,1.6-1.9h1
				c-0.4,0.6-0.9,1.3-1.4,1.8l1.7,2.9h-1.2L194.6,60.8z"/>
			<path id="XMLID_440_" class="st8" d="M199.7,61.7h-2.6v-0.1l1.5-4.5h0.9l-1.1,3.6h1.3v-2.1h0.9v2.1h0.6v1h-0.6v1.2h-0.9V61.7z"/>
		</g>
	</g>
	<g id="XMLID_410_">
		<g id="XMLID_412_">
			<path id="XMLID_423_" class="st8" d="M212.1,58.2h1l0.6,2.7l0.9-2.7h0.4l1,2.7l0.6-2.7h0.9l-1.1,4.7h-0.6l-1-2.8l-1,2.8h-0.6
				L212.1,58.2z"/>
			<path id="XMLID_420_" class="st8" d="M218,60.6c0-1.7,1-2.5,2-2.5c1,0,1.9,0.5,1.9,2.2v0.6H219c0,0.7,0.4,1.2,1.2,1.2
				c0.7,0,1.2-0.3,1.4-0.7v1c-0.2,0.3-0.7,0.6-1.5,0.6C218.8,63,218,62.3,218,60.6z M220.9,60.2L220.9,60.2c0-0.8-0.3-1.2-0.9-1.2
				c-0.6,0-0.9,0.6-0.9,1.2H220.9z"/>
			<path id="XMLID_417_" class="st8" d="M222.4,60.6c0-1.7,1-2.5,2-2.5c1,0,1.9,0.5,1.9,2.2v0.6h-2.8c0,0.7,0.4,1.2,1.2,1.2
				c0.7,0,1.2-0.3,1.4-0.7v1c-0.2,0.3-0.7,0.6-1.5,0.6C223.3,63,222.4,62.3,222.4,60.6z M225.3,60.2L225.3,60.2
				c0-0.8-0.3-1.2-0.9-1.2c-0.6,0-0.9,0.6-0.9,1.2H225.3z"/>
			<path id="XMLID_415_" class="st8" d="M228.6,60.8c-0.3,0.3-0.5,0.4-0.5,0.4v1.7h-1v-6.4h1v3.6c0,0,1-0.8,1.6-1.9h1
				c-0.4,0.6-0.9,1.3-1.4,1.8l1.7,2.9h-1.2L228.6,60.8z"/>
			<path id="XMLID_413_" class="st8" d="M231.4,62.8v-1.1c0.2,0.2,0.6,0.4,1.1,0.4c0.7,0,1.1-0.3,1.1-0.9c0-0.5-0.3-0.8-1.1-0.8
				c-0.4,0-0.7,0.1-1,0.2l0.1-3.4h2.9v1h-2l0,1.4c0.1,0,0.3-0.1,0.4-0.1c1.1,0,1.7,0.5,1.7,1.7c0,1.2-0.9,1.9-2.1,1.9
				C231.9,63,231.6,62.9,231.4,62.8z"/>
		</g>
	</g>
	<g id="XMLID_381_">
		<g id="XMLID_383_">
			<path id="XMLID_395_" class="st8" d="M241.8,58.2h1l0.6,2.7l0.9-2.7h0.4l1,2.7l0.6-2.7h0.9l-1.1,4.7h-0.6l-1-2.8l-1,2.8H243
				L241.8,58.2z"/>
			<path id="XMLID_392_" class="st8" d="M247.7,60.6c0-1.7,1-2.5,2-2.5c1,0,1.9,0.5,1.9,2.2v0.6h-2.8c0,0.7,0.4,1.2,1.2,1.2
				c0.7,0,1.2-0.3,1.4-0.7v1c-0.2,0.3-0.7,0.6-1.5,0.6C248.6,63,247.7,62.3,247.7,60.6z M250.6,60.2L250.6,60.2
				c0-0.8-0.3-1.2-0.9-1.2c-0.6,0-0.9,0.6-0.9,1.2H250.6z"/>
			<path id="XMLID_389_" class="st8" d="M252.2,60.6c0-1.7,1-2.5,2-2.5c1,0,1.9,0.5,1.9,2.2v0.6h-2.8c0,0.7,0.4,1.2,1.2,1.2
				c0.7,0,1.2-0.3,1.4-0.7v1c-0.2,0.3-0.7,0.6-1.5,0.6C253,63,252.2,62.3,252.2,60.6z M255.1,60.2L255.1,60.2c0-0.8-0.3-1.2-0.9-1.2
				c-0.6,0-0.9,0.6-0.9,1.2H255.1z"/>
			<path id="XMLID_387_" class="st8" d="M258.3,60.8c-0.3,0.3-0.5,0.4-0.5,0.4v1.7h-1v-6.4h1v3.6c0,0,1-0.8,1.6-1.9h1
				c-0.4,0.6-0.9,1.3-1.4,1.8l1.7,2.9h-1.2L258.3,60.8z"/>
			<path id="XMLID_384_" class="st8" d="M261.1,60.8c0-2,1.1-3.2,2-3.6h1.4v0.1c-0.9,0.4-1.7,1-2.1,2c0.2-0.1,0.5-0.2,0.8-0.2
				c1.1,0,1.7,0.8,1.7,1.9c0,1.2-0.7,2.1-1.9,2.1C261.8,63,261.1,62.1,261.1,60.8z M263.9,61c0-0.6-0.3-1.1-0.9-1.1
				c-0.4,0-0.7,0.2-0.9,0.4c0,0.2,0,0.4,0,0.6c0,0.7,0.3,1.2,0.9,1.2S263.9,61.6,263.9,61z"/>
		</g>
	</g>
	<g id="XMLID_364_">
		<polyline id="XMLID_380_" class="st7" points="52.1,73.7 85.6,160.3 120.1,202.4 153.5,218.7 187.7,225.5 221.2,247.7 
			254.5,251.4 		"/>
		<g id="XMLID_377_">
			<line id="XMLID_379_" class="st7" x1="53.3" y1="71.5" x2="50.9" y2="75"/>
			<line id="XMLID_378_" class="st7" x1="53.4" y1="74.9" x2="50.8" y2="71.6"/>
		</g>
		<g id="XMLID_374_">
			<line id="XMLID_376_" class="st7" x1="156.5" y1="216.6" x2="151.7" y2="221.4"/>
			<line id="XMLID_375_" class="st7" x1="155.8" y1="222" x2="152.4" y2="215.9"/>
		</g>
		<g id="XMLID_371_">
			<line id="XMLID_373_" class="st7" x1="191.7" y1="223.8" x2="186.9" y2="228.6"/>
			<line id="XMLID_372_" class="st7" x1="191" y1="229.2" x2="187.7" y2="223.1"/>
		</g>
		<g id="XMLID_368_">
			<line id="XMLID_370_" class="st7" x1="223.9" y1="245.9" x2="219.1" y2="250.7"/>
			<line id="XMLID_369_" class="st7" x1="223.2" y1="251.4" x2="219.9" y2="245.2"/>
		</g>
		<g id="XMLID_365_">
			<line id="XMLID_367_" class="st7" x1="255.1" y1="249" x2="250.3" y2="253.8"/>
			<line id="XMLID_366_" class="st7" x1="254.3" y1="254.4" x2="251" y2="248.3"/>
		</g>
	</g>
	<g id="XMLID_361_">
		<line id="XMLID_363_" class="st7" x1="123.9" y1="201.2" x2="117.4" y2="203.7"/>
		<line id="XMLID_362_" class="st7" x1="120.9" y1="205.8" x2="120.3" y2="199.1"/>
	</g>
	<g id="XMLID_353_">
		<rect id="XMLID_360_" x="252.4" y="248.3" class="st9" width="5.2" height="5.5"/>
		<rect id="XMLID_359_" x="218.5" y="248.6" class="st9" width="5.2" height="5.5"/>
		<rect id="XMLID_358_" x="185.1" y="246.2" class="st9" width="5.2" height="5.5"/>
		<rect id="XMLID_357_" x="151.2" y="232.3" class="st9" width="5.2" height="5.5"/>
		<rect id="XMLID_356_" x="117" y="229.6" class="st9" width="5.2" height="5.5"/>
		<rect id="XMLID_355_" x="83.6" y="160.8" class="st9" width="5.2" height="5.5"/>
		<polyline id="XMLID_354_" class="st10" points="252.4,251.1 221.2,251.4 187.3,248.3 154.1,235.4 119.6,231.7 95.3,183.1 
			85.5,164 60,96.3 51.7,72.7 		"/>
	</g>
	<polyline id="XMLID_352_" class="st11" points="254.5,183.3 221.3,196.2 187.7,192.9 153.8,186.3 119.6,170.1 85.8,143.9 
		52.9,73.7 	"/>
	<g id="XMLID_339_">
		<g id="XMLID_341_">
			<path id="XMLID_345_" class="st8" d="M22.3,264.4h2v0.9h-2V264.4z"/>
			<path id="XMLID_342_" class="st8" d="M25.1,265.4c0-2,1.1-3.2,2-3.6h1.4v0.1c-0.9,0.4-1.7,1-2.1,2c0.2-0.1,0.5-0.2,0.8-0.2
				c1.1,0,1.7,0.8,1.7,1.9c0,1.2-0.7,2.1-1.9,2.1C25.7,267.6,25.1,266.7,25.1,265.4z M27.9,265.6c0-0.6-0.3-1.1-0.9-1.1
				c-0.4,0-0.7,0.2-0.9,0.4c0,0.2,0,0.4,0,0.6c0,0.7,0.3,1.2,0.9,1.2S27.9,266.2,27.9,265.6z"/>
		</g>
	</g>
	<g id="XMLID_328_">
		<g id="XMLID_330_">
			<path id="XMLID_333_" class="st8" d="M22.3,231.9h2v0.9h-2V231.9z"/>
			<path id="XMLID_331_" class="st8" d="M25.1,234.8v-1.1c0.2,0.2,0.6,0.4,1.1,0.4c0.7,0,1.1-0.3,1.1-0.9c0-0.5-0.3-0.8-1.1-0.8
				c-0.4,0-0.7,0.1-1,0.2l0.1-3.4h2.9v1h-2l0,1.4c0.1,0,0.3-0.1,0.4-0.1c1.1,0,1.7,0.5,1.7,1.7c0,1.2-0.9,1.9-2.1,1.9
				C25.6,235.1,25.3,234.9,25.1,234.8z"/>
		</g>
	</g>
	<g id="XMLID_317_">
		<g id="XMLID_319_">
			<path id="XMLID_322_" class="st8" d="M22.3,199.1h2v0.9h-2V199.1z"/>
			<path id="XMLID_320_" class="st8" d="M27.4,201h-2.6v-0.1l1.5-4.5h0.9l-1.1,3.6h1.3v-2.1h0.9v2.1h0.6v1h-0.6v1.2h-0.9V201z"/>
		</g>
	</g>
	<g id="XMLID_306_">
		<g id="XMLID_308_">
			<path id="XMLID_311_" class="st8" d="M22.3,168.6h2v0.9h-2V168.6z"/>
			<path id="XMLID_309_" class="st8" d="M25.1,171.6v-1.1c0.2,0.2,0.5,0.4,1,0.4c0.9,0,1.2-0.4,1.2-1c0-0.5-0.3-0.9-1.1-0.9h-0.3
				V169l1.1-2.1h-1.9v-1h3.2v0.1l-1.2,2.3c0.7,0.1,1.2,0.5,1.2,1.6c0,0.9-0.6,1.9-2.2,1.9C25.7,171.8,25.3,171.7,25.1,171.6z"/>
		</g>
	</g>
	<g id="XMLID_295_">
		<g id="XMLID_297_">
			<path id="XMLID_300_" class="st8" d="M22.3,136.7h2v0.9h-2V136.7z"/>
			<path id="XMLID_298_" class="st8" d="M25.1,139.6l1.6-2.4c0.3-0.4,0.6-0.9,0.6-1.5c0-0.6-0.3-1-0.9-1c-0.5,0-1.1,0.4-1.3,0.7v-1
				c0.2-0.3,0.8-0.6,1.5-0.6c1.2,0,1.7,0.7,1.7,1.8c0,0.9-0.5,1.7-1,2.4l-0.5,0.7h1.6v1h-3.2V139.6z"/>
		</g>
	</g>
	<g id="XMLID_284_">
		<g id="XMLID_286_">
			<path id="XMLID_289_" class="st8" d="M22.3,103.8h2v0.9h-2V103.8z"/>
			<path id="XMLID_287_" class="st8" d="M26.1,102.5c-0.2,0.2-0.7,0.3-1.2,0.3v-0.9c0.7,0,1.3-0.2,1.7-0.8h0.5v5.7h-1V102.5z"/>
		</g>
	</g>
	<g id="XMLID_271_">
		<g id="XMLID_273_">
			<path id="XMLID_277_" class="st8" d="M22.3,71.4h2v0.9h-2V71.4z"/>
			<path id="XMLID_274_" class="st8" d="M25.1,71.6c0-1.9,1.3-3,2.6-3c1.6,0,2.6,1.1,2.6,3c0,1.9-1.2,3-2.6,3
				C26.1,74.6,25.1,73.5,25.1,71.6z M29.3,71.6c0-1.4-0.7-2.1-1.6-2.1c-0.9,0-1.6,0.7-1.6,2.1c0,1.4,0.7,2.1,1.6,2.1
				C28.6,73.7,29.3,72.9,29.3,71.6z"/>
		</g>
	</g>
	<path id="XMLID_270_" class="st12" d="M293.9,42.9h97.3c7.3,0,13.2,6.5,13.2,14.4v212.8c0,8-5.9,14.4-13.2,14.4h-97.3V42.9z"/>
	<path id="XMLID_269_" class="st13" d="M83.4,117.6"/>
	<path id="XMLID_268_" class="st13" d="M121.4,122.9"/>
	<line id="XMLID_267_" class="st14" x1="293.3" y1="283.7" x2="293.3" y2="41.5"/>
	<g id="XMLID_265_">
		<text transform="matrix(0.9149 0 0 1 310.7557 77.0437)" class="st3 st15 st16">* p&lt;0.05 versus placebo</text>
	</g>
	<g id="XMLID_173_">
		<g id="XMLID_262_">
			<g id="XMLID_263_">
				<path id="XMLID_264_" class="st17" d="M307,183.1c5.7,0,11.5,0,17.2,0c1,0,1-1.6,0-1.6c-5.7,0-11.5,0-17.2,0
					C306,181.5,306,183.1,307,183.1L307,183.1z"/>
			</g>
		</g>
		<g id="XMLID_259_">
			<line id="XMLID_261_" class="st7" x1="317.6" y1="179.3" x2="313.4" y2="185.3"/>
			<line id="XMLID_260_" class="st7" x1="317.8" y1="185.2" x2="313.2" y2="179.4"/>
		</g>
		<g id="XMLID_174_">
			<g id="XMLID_176_">
				<path id="XMLID_215_" class="st3" d="M330.8,182.3c0-1.7,1-2.5,2.1-2.5c1.2,0,2,0.8,2,2.5c0,1.7-1,2.5-2.1,2.5
					C331.7,184.8,330.8,184,330.8,182.3z M333.9,182.3c0-0.9-0.3-1.6-1-1.6c-0.7,0-1,0.7-1,1.6c0,0.9,0.3,1.6,1,1.6
					C333.6,183.9,333.9,183.2,333.9,182.3z"/>
				<path id="XMLID_213_" class="st3" d="M335.7,183.5v-5.3h1v5.2c0,0.3,0.1,0.4,0.3,0.4c0.2,0,0.3-0.1,0.4-0.2v0.9
					c-0.1,0.1-0.3,0.3-0.7,0.3C336.1,184.8,335.7,184.3,335.7,183.5z"/>
				<path id="XMLID_210_" class="st3" d="M337.9,183.4c0-1,0.7-1.3,1.9-1.6l0.6-0.1c0-0.8-0.4-1.1-1-1.1c-0.6,0-1.1,0.4-1.4,0.9
					v-1.1c0.2-0.3,0.6-0.7,1.5-0.7c1.2,0,1.8,0.6,1.8,2v2.8h-0.9l-0.1-0.4c-0.1,0.3-0.5,0.6-1.1,0.6
					C338.6,184.8,337.9,184.4,337.9,183.4z M340.4,182.5l-0.6,0.1c-0.7,0.2-0.9,0.4-0.9,0.8s0.2,0.6,0.6,0.6c0.4,0,0.8-0.2,0.9-0.4
					V182.5z"/>
				<path id="XMLID_208_" class="st3" d="M342.4,179.9h0.9l0.1,0.4c0.2-0.3,0.6-0.6,1.1-0.6c1.1,0,1.6,0.6,1.6,1.9v2.9h-1v-2.7
					c0-0.9-0.2-1.3-0.8-1.3c-0.5,0-0.8,0.3-0.9,0.5v3.5h-1V179.9z"/>
				<path id="XMLID_206_" class="st3" d="M346.9,184.3l1.9-3.5h-1.9v-0.9h3.2v0.3l-1.9,3.5h1.9v0.9h-3.2V184.3z"/>
				<path id="XMLID_203_" class="st3" d="M350.7,183.4c0-1,0.7-1.3,1.9-1.6l0.6-0.1c0-0.8-0.4-1.1-1-1.1c-0.6,0-1.1,0.4-1.4,0.9
					v-1.1c0.2-0.3,0.6-0.7,1.5-0.7c1.2,0,1.8,0.6,1.8,2v2.8h-0.9l-0.1-0.4c-0.1,0.3-0.5,0.6-1.1,0.6
					C351.3,184.8,350.7,184.4,350.7,183.4z M353.2,182.5l-0.6,0.1c-0.7,0.2-0.9,0.4-0.9,0.8s0.2,0.6,0.6,0.6c0.4,0,0.8-0.2,0.9-0.4
					V182.5z"/>
				<path id="XMLID_200_" class="st3" d="M355.2,179.9h0.9l0.1,0.4c0.1-0.2,0.5-0.6,1.1-0.6c1.1,0,1.8,0.7,1.8,2.4s-0.9,2.6-1.9,2.6
					c-0.3,0-0.7-0.1-0.9-0.3v1.8h-1V179.9z M358,182.2c0-0.9-0.3-1.5-1-1.5c-0.4,0-0.7,0.2-0.9,0.4v2.4c0.2,0.3,0.5,0.3,0.8,0.3
					C357.7,183.9,358,183.1,358,182.2z"/>
				<path id="XMLID_197_" class="st3" d="M359.8,178.8c0-0.4,0.2-0.6,0.5-0.6c0.4,0,0.6,0.2,0.6,0.6c0,0.4-0.2,0.5-0.6,0.5
					C360,179.4,359.8,179.2,359.8,178.8z M359.9,179.9h1v4.7h-1V179.9z"/>
				<path id="XMLID_195_" class="st3" d="M361.9,179.9h0.9l0.1,0.4c0.2-0.3,0.6-0.6,1.1-0.6c1.1,0,1.6,0.6,1.6,1.9v2.9h-1v-2.7
					c0-0.9-0.2-1.3-0.8-1.3c-0.5,0-0.8,0.3-0.9,0.5v3.5h-1V179.9z"/>
				<path id="XMLID_192_" class="st3" d="M366.4,182.3c0-1.7,1-2.5,2-2.5c1,0,1.9,0.5,1.9,2.2v0.6h-2.9c0,0.7,0.4,1.2,1.2,1.2
					c0.8,0,1.2-0.3,1.4-0.7v1c-0.2,0.3-0.7,0.6-1.5,0.6C367.3,184.8,366.4,184,366.4,182.3z M369.3,181.9L369.3,181.9
					c0-0.8-0.3-1.2-0.9-1.2c-0.6,0-0.9,0.6-1,1.2H369.3z"/>
				<path id="XMLID_190_" class="st3" d="M331.9,190.5c-0.2,0.2-0.7,0.3-1.2,0.3v-0.9c0.7,0,1.3-0.2,1.7-0.8h0.5v5.8h-1V190.5z"/>
				<path id="XMLID_188_" class="st3" d="M333.8,194.7v-1.1c0.2,0.2,0.6,0.4,1.1,0.4c0.8,0,1.1-0.3,1.1-0.9c0-0.5-0.3-0.9-1.1-0.9
					c-0.4,0-0.8,0.1-1,0.2l0.1-3.5h2.9v1h-2l0,1.4c0.1,0,0.3-0.1,0.4-0.1c1.1,0,1.8,0.5,1.8,1.7c0,1.2-0.9,1.9-2.1,1.9
					C334.3,195,334,194.8,333.8,194.7z"/>
				<path id="XMLID_186_" class="st3" d="M337.9,190.2h1l0,0.4c0.2-0.3,0.5-0.6,1-0.6c0.6,0,1,0.2,1.3,0.7c0.2-0.3,0.6-0.7,1.3-0.7
					c1,0,1.5,0.6,1.5,1.9v2.9h-1v-2.7c0-0.9-0.2-1.3-0.7-1.3c-0.4,0-0.7,0.2-0.8,0.5c0,0.2,0,0.4,0,0.6v2.9h-1v-2.7
					c0-0.9-0.2-1.3-0.7-1.3c-0.4,0-0.7,0.2-0.8,0.5v3.5h-1V190.2z"/>
				<path id="XMLID_183_" class="st3" d="M344.7,196.2v-0.9c0.4,0.3,1,0.5,1.8,0.5c1,0,1.4-0.2,1.4-0.6c0-0.4-0.3-0.5-1-0.5
					c-0.6,0-1.5,0.1-1.8,0.3v-0.8l0.6-1.1c-0.6-0.2-1-0.7-1-1.5c0-1,0.8-1.6,1.8-1.6c0.5,0,0.9,0.1,1.2,0.4c0.1-0.2,0.5-0.4,0.8-0.4
					c0.1,0,0.2,0,0.3,0v0.9c-0.1,0-0.2-0.1-0.3-0.1c-0.2,0-0.3,0.1-0.4,0.1c0.1,0.2,0.1,0.4,0.1,0.6c0,1-0.7,1.6-1.8,1.6h-0.1
					l-0.4,0.7c0.2-0.1,0.7-0.1,1.1-0.1c1.1,0,1.7,0.3,1.7,1.2c0,0.9-0.8,1.6-2.3,1.6C345.8,196.6,345.1,196.5,344.7,196.2z
					 M347.4,191.7c0-0.5-0.3-0.8-0.8-0.8s-0.8,0.3-0.8,0.8s0.3,0.8,0.8,0.8S347.4,192.2,347.4,191.7z"/>
				<path id="XMLID_180_" class="st3" d="M354,194.4c-0.1,0.2-0.5,0.6-1.1,0.6c-1,0-1.8-0.7-1.8-2.4c0-1.7,0.8-2.6,1.9-2.6
					c0.6,0,0.9,0.2,1,0.5l0.2-0.3h0.8v6.4h-1V194.4z M354,193.7v-2.4c-0.2-0.3-0.5-0.4-0.8-0.4c-0.7,0-1,0.8-1,1.7
					c0,0.9,0.3,1.5,1,1.5C353.6,194.1,353.9,193.9,354,193.7z"/>
				<path id="XMLID_177_" class="st3" d="M355.8,192.6c0-1.7,0.8-2.6,1.9-2.6c0.3,0,0.7,0.1,0.9,0.3v-1.9h1v6.4h-0.9l-0.1-0.4
					c-0.1,0.2-0.5,0.6-1.1,0.6C356.6,195,355.8,194.3,355.8,192.6z M358.7,191.2c-0.2-0.3-0.5-0.3-0.8-0.3c-0.7,0-1,0.8-1,1.7
					c0,0.9,0.3,1.5,1,1.5c0.4,0,0.7-0.2,0.9-0.4V191.2z"/>
			</g>
		</g>
	</g>
	<g id="XMLID_128_">
		<g id="XMLID_168_">
			<g id="XMLID_169_">
				<g id="XMLID_171_">
					<path id="XMLID_172_" class="st18" d="M307.1,109c6.9,0,13.7,0,20.6,0c1.2,0,1.2-2,0-2c-6.9,0-13.7,0-20.6,0
						C306,107,306,109,307.1,109L307.1,109z"/>
				</g>
				<polygon id="XMLID_170_" class="st18" points="313.4,108 317.4,112.5 321.5,108 317.4,103.6 				"/>
			</g>
		</g>
		<g id="XMLID_129_">
			<g id="XMLID_131_">
				<path id="XMLID_148_" class="st3" d="M331.1,105.4h1.5c1.6,0,2.2,0.7,2.2,1.9c0,1.2-0.6,2.1-2.2,2.1h-0.3v-0.9h0.3
					c0.8,0,1.2-0.5,1.2-1.1c0-0.7-0.4-1.1-1.2-1.1h-0.5v4.9h-1V105.4z"/>
				<path id="XMLID_146_" class="st3" d="M335.6,105.4h1v4.8h2v1h-3V105.4z"/>
				<path id="XMLID_143_" class="st3" d="M340.7,106l-0.2-0.6h1.1l2.1,5.8h-1.1l-0.4-1.2h-2l-0.4,1.2h-1L340.7,106z M340.5,109.1
					h1.4l-0.6-1.6l-0.1-0.5l-0.1,0.5L340.5,109.1z"/>
				<path id="XMLID_141_" class="st3" d="M343.9,108.3c0-2,1.1-3,2.4-3c0.9,0,1.3,0.3,1.5,0.5v1.3c-0.3-0.5-0.7-0.8-1.4-0.8
					c-1,0-1.5,0.7-1.5,2s0.5,2.1,1.5,2.1c0.6,0,1.1-0.2,1.4-0.7v1.1c-0.3,0.3-0.8,0.6-1.5,0.6C344.9,111.3,343.9,110.3,343.9,108.3z
					"/>
				<path id="XMLID_139_" class="st3" d="M348.8,105.4h3.4v1h-2.4v1.4h1.6v0.9h-1.6v1.6h2.4v1h-3.4V105.4z"/>
				<path id="XMLID_135_" class="st3" d="M353.1,105.4h1.6c1.5,0,2.1,0.5,2.1,1.4c0,0.8-0.4,1.2-1,1.3v0c0.6,0.1,1.1,0.4,1.1,1.4
					c0,0.9-0.6,1.6-2.1,1.6h-1.6V105.4z M354.7,107.8c0.8,0,1-0.3,1-0.8c0-0.5-0.3-0.7-1-0.7h-0.6v1.5H354.7z M354.8,110.2
					c0.8,0,1-0.3,1-0.8c0-0.5-0.3-0.8-1-0.8h-0.6v1.6H354.8z"/>
				<path id="XMLID_132_" class="st3" d="M357.5,108.3c0-2,1.3-3,2.6-3c1.5,0,2.6,1,2.6,3s-1.3,3-2.6,3
					C358.5,111.3,357.5,110.3,357.5,108.3z M361.6,108.3c0-1.4-0.6-2.1-1.6-2.1c-0.9,0-1.6,0.7-1.6,2c0,1.4,0.6,2.1,1.6,2.1
					C361,110.3,361.6,109.6,361.6,108.3z"/>
			</g>
		</g>
	</g>
	<g id="XMLID_11_">
		<g id="XMLID_124_">
			<g id="XMLID_126_">
				<path id="XMLID_127_" class="st9" d="M306.9,254.7c6.9,0,13.7,0,20.6,0c1.2,0,1.2-2,0-2c-6.9,0-13.7,0-20.6,0
					C305.8,252.8,305.8,254.7,306.9,254.7L306.9,254.7z"/>
			</g>
			<rect id="XMLID_125_" x="314.4" y="250.6" class="st9" width="5.7" height="6.3"/>
		</g>
		<g id="XMLID_12_">
			<g id="XMLID_31_">
				<g id="XMLID_33_">
					<g id="XMLID_34_">
						<path id="XMLID_78_" class="st9" d="M335.1,250h3.8c0.6,0,0.8-0.1,0.8-0.4c0-0.3-0.2-0.4-0.6-0.4c-1.8-0.2-2.3-0.6-2.3-1.8
							c0-1.2,0.7-1.9,2.5-1.9c1,0,1.5,0.1,1.9,0.3v1.5c-0.5-0.2-1.2-0.4-1.8-0.4c-0.5,0-0.8,0.1-0.8,0.4c0,0.3,0.2,0.4,0.6,0.4
							c1.8,0.2,2.3,0.6,2.3,1.8c0,1.1-0.6,1.9-2.6,1.9h-3.5"/>
						<path id="XMLID_75_" class="st9" d="M343.5,249.1c0,0.7,0.3,1,1.2,1c0.9,0,1.5-0.2,1.9-0.4v1.4c-0.7,0.3-1.5,0.4-2.1,0.4
							c-1.9,0-2.8-1-2.8-3s0.9-3,2.7-3c2.4,0,2.6,1.8,2.5,3.6H343.5z M343.5,248h1.6c0.1-0.6,0-1.1-0.7-1.1
							C343.8,246.8,343.5,247.2,343.5,248"/>
						<path id="XMLID_74_" class="st9" d="M348.5,245.6l0.2,0.4c0.6-0.4,1.4-0.6,2-0.6c1.5,0,2,0.8,2,1.9v3.9h-1.8v-3.7
							c0-0.4-0.1-0.7-0.6-0.7c-0.4,0-0.8,0.2-1,0.3v4.1h-1.8v-5.7H348.5z"/>
						<path id="XMLID_71_" class="st9" d="M356.2,247.3c0-0.3-0.2-0.4-0.7-0.4c-0.7,0-1.5,0.2-2,0.4v-1.5c0.4-0.2,1.2-0.4,2-0.4
							c2,0,2.4,0.9,2.4,2.1v3.7h-1.1l-0.2-0.4c-0.4,0.4-1,0.6-1.7,0.6c-1.4,0-1.9-1-1.9-1.8c0-1.5,1.1-1.8,2.1-1.9l1-0.1V247.3z
							 M355.4,248.8c-0.5,0.1-0.7,0.3-0.7,0.8c0,0.4,0.3,0.7,0.7,0.7c0.3,0,0.6-0.1,0.8-0.3v-1.3L355.4,248.8z"/>
						<path id="XMLID_68_" class="st9" d="M359.7,245.6l0.3,0.5c0.4-0.3,0.9-0.6,1.8-0.6c1.5,0,2.2,0.9,2.2,3c0,2.1-0.7,3-2.2,3
							c-0.6,0-1.1-0.2-1.4-0.4v3h-1.8v-8.5H359.7z M360.4,249.8c0,0,0.4,0.2,0.8,0.2c0.8,0,1-0.6,1-1.5c0-1-0.2-1.5-1-1.5
							c-0.5,0-0.8,0.2-0.8,0.2V249.8z"/>
						<path id="XMLID_67_" class="st9" d="M366.8,251.4c0,0-0.2,0-0.5,0c-1,0-1.7-0.5-1.7-1.6v-4.2h1.8v3.9c0,0.2,0.1,0.3,0.5,0.3
							V251.4z"/>
						<path id="XMLID_66_" class="st9" d="M368.3,245.6l0.2,0.4c0.6-0.4,1.4-0.6,2-0.6c1.5,0,2,0.8,2,1.9v3.9h-1.8v-3.7
							c0-0.4-0.1-0.7-0.6-0.7c-0.4,0-0.8,0.2-1,0.3v4.1h-1.8v-5.7H368.3z"/>
						<path id="XMLID_63_" class="st9" d="M374.7,249.1c0,0.7,0.3,1,1.2,1c0.9,0,1.5-0.2,1.9-0.4v1.4c-0.7,0.3-1.5,0.4-2.1,0.4
							c-1.9,0-2.8-1-2.8-3s0.9-3,2.7-3c2.4,0,2.6,1.8,2.5,3.6H374.7z M374.7,248h1.6c0.1-0.6,0-1.1-0.7-1.1
							C374.9,246.8,374.7,247.2,374.7,248"/>
						<polyline id="XMLID_62_" class="st9" points="333.2,249.6 333.6,248.1 334.7,248.1 333.9,244.9 333.2,248.1 332.8,249.6 
							332.5,251.3 330.5,251.3 332.9,242.7 335,242.7 337.3,251.3 335.4,251.3 335,249.6 						"/>
						<g id="XMLID_40_">
							<polygon id="XMLID_61_" class="st9" points="362.2,254.1 362.2,253 361.1,253 361.1,254.1 360.9,254.1 360.9,251.9 
								361.1,251.9 361.1,252.9 362.2,252.9 362.2,251.9 362.4,251.9 362.4,254.1 							"/>
							<path id="XMLID_58_" class="st9" d="M362.9,252.1c0.1,0,0.1,0.1,0.1,0.1c0,0.1-0.1,0.1-0.1,0.1c-0.1,0-0.1-0.1-0.1-0.1
								C362.8,252.1,362.8,252.1,362.9,252.1 M362.8,253.8v-1.1h0.2v1.2c0,0.1,0,0.1,0.1,0.1v0.2C362.9,254.1,362.8,254,362.8,253.8
								"/>
							<polygon id="XMLID_57_" class="st9" points="364,253.2 364.6,254.1 364.4,254.1 363.8,253.3 363.7,253.5 363.7,254.1 
								363.5,254.1 363.5,251.9 363.7,251.9 363.7,253.3 364.3,252.6 364.6,252.6 							"/>
							<path id="XMLID_56_" class="st9" d="M366.6,253c0-0.2-0.1-0.2-0.3-0.2c-0.2,0-0.3,0-0.4,0.1c0,0,0,0.1,0,0.1v1h-0.2v-1
								c0-0.2-0.1-0.2-0.3-0.2c-0.2,0-0.3,0-0.4,0.1v1.2h-0.2v-1.4h0.1l0,0.1c0.1-0.1,0.3-0.1,0.4-0.1c0.2,0,0.3,0.1,0.4,0.2
								c0.1-0.1,0.3-0.2,0.4-0.2c0.3,0,0.5,0.1,0.5,0.4v1h-0.2V253z"/>
							<path id="XMLID_53_" class="st9" d="M367.6,252.8c-0.2,0-0.3,0-0.4,0.1v-0.2c0.1-0.1,0.3-0.1,0.4-0.1c0.4,0,0.5,0.2,0.5,0.5
								v1h-0.1l0-0.1c-0.1,0.1-0.3,0.1-0.4,0.1c-0.4,0-0.5-0.2-0.5-0.5c0-0.2,0.1-0.4,0.5-0.4l0.4,0v-0.1
								C368,252.9,367.9,252.8,367.6,252.8 M367.6,253.3c-0.2,0-0.3,0.1-0.3,0.3c0,0.1,0,0.3,0.3,0.3c0.2,0,0.3,0,0.4-0.1v-0.5
								L367.6,253.3z"/>
							<path id="XMLID_50_" class="st9" d="M369.2,254.1h-0.2v-2.1h0.7c0.5,0,0.7,0.3,0.7,0.6c0,0.3-0.2,0.6-0.7,0.6h-0.5V254.1z
								 M369.2,253h0.5c0.4,0,0.5-0.3,0.5-0.5c0-0.2-0.1-0.5-0.5-0.5h-0.5V253z"/>
							<path id="XMLID_49_" class="st9" d="M371.3,252.8c-0.2,0-0.3,0-0.4,0.1v1.2h-0.2v-2.1h0.2v0.8c0.1-0.1,0.3-0.1,0.4-0.1
								c0.3,0,0.5,0.2,0.5,0.4v1h-0.2v-1C371.6,252.8,371.5,252.8,371.3,252.8"/>
							<path id="XMLID_46_" class="st9" d="M372.6,252.8c-0.2,0-0.3,0-0.4,0.1v-0.2c0.1-0.1,0.3-0.1,0.4-0.1c0.4,0,0.5,0.2,0.5,0.5
								v1h-0.1l0-0.1c-0.1,0.1-0.3,0.1-0.4,0.1c-0.4,0-0.5-0.2-0.5-0.5c0-0.2,0.1-0.4,0.5-0.4l0.4,0v-0.1
								C373,252.9,372.9,252.8,372.6,252.8 M372.6,253.3c-0.2,0-0.3,0.1-0.3,0.3c0,0.1,0,0.3,0.3,0.3c0.2,0,0.3,0,0.4-0.1v-0.5
								L372.6,253.3z"/>
							<path id="XMLID_45_" class="st9" d="M374.3,252.8c0,0-0.1,0-0.2,0c-0.2,0-0.3,0-0.4,0.1v1.2h-0.2v-1.4h0.1l0,0.1
								c0.1-0.1,0.3-0.1,0.5-0.1c0.1,0,0.1,0,0.2,0V252.8z"/>
							<path id="XMLID_44_" class="st9" d="M376.3,253c0-0.2-0.1-0.2-0.3-0.2c-0.2,0-0.3,0-0.4,0.1c0,0,0,0.1,0,0.1v1h-0.2v-1
								c0-0.2-0.1-0.2-0.3-0.2c-0.2,0-0.3,0-0.4,0.1v1.2h-0.2v-1.4h0.1l0,0.1c0.1-0.1,0.3-0.1,0.4-0.1c0.2,0,0.3,0.1,0.4,0.2
								c0.1-0.1,0.3-0.2,0.4-0.2c0.3,0,0.5,0.1,0.5,0.4v1h-0.2V253z"/>
							<path id="XMLID_41_" class="st9" d="M377.3,252.8c-0.2,0-0.3,0-0.4,0.1v-0.2c0.1-0.1,0.3-0.1,0.4-0.1c0.4,0,0.5,0.2,0.5,0.5
								v1h-0.1l0-0.1c-0.1,0.1-0.3,0.1-0.4,0.1c-0.4,0-0.5-0.2-0.5-0.5c0-0.2,0.1-0.4,0.5-0.4l0.4,0v-0.1
								C377.7,252.9,377.6,252.8,377.3,252.8 M377.3,253.3c-0.2,0-0.3,0.1-0.3,0.3c0,0.1,0,0.3,0.3,0.3c0.2,0,0.3,0,0.4-0.1v-0.5
								L377.3,253.3z"/>
						</g>
						<g id="XMLID_35_">
							<path id="XMLID_39_" class="st9" d="M366.1,242.4c-0.2,0-0.5,0.1-0.7,0.2c0.1,0,0.2,0.1,0.2,0.2c0.5,0.1,0.8,0.5,0.8,1
								c0,0.5-0.4,0.9-0.8,1.1c-0.1,0.1-0.2,0.1-0.2,0.2c0.2,0.1,0.4,0.2,0.7,0.2c0.8,0,1.4-0.6,1.4-1.4
								C367.4,243.1,366.8,242.4,366.1,242.4z"/>
							<path id="XMLID_38_" class="st19" d="M364.3,243.8c0-0.5,0.3-0.9,0.8-1c0.1-0.1,0.2-0.1,0.2-0.2c-0.2-0.1-0.4-0.2-0.7-0.2
								c-0.8,0-1.4,0.6-1.4,1.4c0,0.8,0.6,1.4,1.4,1.4c0.2,0,0.5-0.1,0.7-0.2c-0.1,0-0.2-0.1-0.3-0.2
								C364.7,244.8,364.3,244.3,364.3,243.8z"/>
							<path id="XMLID_37_" class="st19" d="M365.4,244.9c-0.1,0-0.2,0-0.3,0c0.1,0.1,0.2,0.1,0.3,0.2c0.1,0,0.2-0.1,0.2-0.2
								C365.6,244.9,365.5,244.9,365.4,244.9z"/>
							<path id="XMLID_36_" class="st19" d="M365.4,242.7c0.1,0,0.2,0,0.2,0c-0.1-0.1-0.2-0.1-0.2-0.2c-0.1,0-0.2,0.1-0.2,0.2
								C365.2,242.8,365.3,242.7,365.4,242.7z"/>
						</g>
					</g>
				</g>
			</g>
			<g id="XMLID_13_">
				<g id="XMLID_21_">
					<path id="XMLID_27_" class="st9" d="M357.9,258.4h2.1c2,0,2.8,0.6,2.8,1.6c0,0.9-0.5,1.3-1.3,1.5v0c0.9,0.1,1.5,0.5,1.5,1.5
						c0,1-0.8,1.8-2.8,1.8h-2.2V258.4z M360.1,261c1.1,0,1.3-0.3,1.3-0.9c0-0.5-0.4-0.8-1.3-0.8h-0.8v1.6H360.1z M360.1,263.7
						c1.1,0,1.4-0.3,1.4-0.9c0-0.6-0.3-0.9-1.4-0.9h-0.8v1.8H360.1z"/>
					<path id="XMLID_25_" class="st9" d="M364.1,258.4h1.4v6.4h-1.4V258.4z"/>
					<path id="XMLID_22_" class="st9" d="M367.1,258.4h2c2.4,0,3.8,0.9,3.8,3.2c0,2.3-1.7,3.2-3.8,3.2h-2V258.4z M369.1,263.7
						c1.8,0,2.4-0.6,2.4-2.1c0-1.4-0.6-2.2-2.4-2.2h-0.6v4.3H369.1z"/>
				</g>
				<path id="XMLID_19_" class="st9" d="M341,256.6h-2.5l-0.4,1.3c0,0,0.1,0,0.2,0c0.1,0,0.1,0,0.2,0c0.8,0,1.4,0.3,1.9,0.8
					c0.5,0.5,0.8,1.2,0.8,2c0,0.8-0.3,1.6-0.9,2.1c-0.6,0.6-1.3,0.8-2.2,0.8c-1.1,0-1.9-0.5-2.5-1.5l0.9-0.8
					c0.3,0.4,0.5,0.7,0.8,0.9c0.3,0.2,0.6,0.3,0.9,0.3c0.5,0,0.9-0.1,1.2-0.5c0.3-0.4,0.5-0.8,0.5-1.3c0-0.5-0.2-0.9-0.5-1.3
					c-0.3-0.3-0.7-0.5-1.2-0.5c-0.5,0-1,0.2-1.4,0.7h-0.4l1.3-4.3h3.4V256.6z"/>
				<path id="XMLID_17_" class="st9" d="M342.6,258.4h1.2v0.5c0.2-0.2,0.4-0.4,0.6-0.5c0.2-0.1,0.4-0.1,0.6-0.1c0.6,0,1,0.3,1.4,0.8
					c0.4-0.5,0.9-0.8,1.5-0.8c1.2,0,1.7,0.7,1.7,2.1v3.2h-1.2v-2.9c0-0.5-0.1-0.8-0.2-1c-0.1-0.2-0.3-0.3-0.6-0.3
					c-0.3,0-0.6,0.1-0.7,0.4c-0.1,0.2-0.2,0.6-0.2,1.2v2.6h-1.2v-2.8c0-0.9-0.3-1.4-0.8-1.4c-0.3,0-0.6,0.1-0.7,0.4
					c-0.2,0.3-0.2,0.7-0.2,1.2v2.6h-1.2V258.4z"/>
				<path id="XMLID_14_" class="st9" d="M355.3,263.4c0,0.2,0,0.5,0,0.6c0,0.2,0,0.4-0.1,0.5c-0.1,0.4-0.3,0.7-0.5,1
					c-0.5,0.5-1.1,0.8-1.9,0.8c-0.7,0-1.2-0.2-1.7-0.6c-0.5-0.4-0.7-0.9-0.8-1.6h1.2c0,0.2,0.1,0.4,0.2,0.6c0.3,0.3,0.6,0.5,1.1,0.5
					c0.9,0,1.3-0.5,1.3-1.6V263c-0.5,0.5-1,0.7-1.6,0.7c-0.7,0-1.3-0.2-1.7-0.8c-0.5-0.5-0.7-1.2-0.7-1.9c0-0.7,0.2-1.4,0.6-1.9
					c0.5-0.6,1-0.8,1.8-0.8c0.6,0,1.2,0.2,1.6,0.7v-0.6h1.2V263.4z M354.2,261c0-0.5-0.1-0.9-0.4-1.2c-0.3-0.3-0.6-0.5-1-0.5
					c-0.5,0-0.8,0.2-1.1,0.5c-0.2,0.3-0.4,0.7-0.4,1.1c0,0.5,0.1,0.9,0.4,1.2c0.2,0.3,0.6,0.5,1.1,0.5c0.4,0,0.8-0.2,1.1-0.5
					C354.1,261.8,354.2,261.5,354.2,261z"/>
			</g>
		</g>
	</g>
	<g id="XMLID_4_">
		
			<rect id="XMLID_10_" x="251" y="181.4" transform="matrix(0.7023 -0.7119 0.7119 0.7023 -55.5602 235.4876)" class="st18" width="5.6" height="5.6"/>
		
			<rect id="XMLID_9_" x="218.5" y="193.3" transform="matrix(0.7023 -0.7119 0.7119 0.7023 -73.7493 215.9158)" class="st18" width="5.6" height="5.6"/>
		
			<rect id="XMLID_8_" x="184.3" y="189.8" transform="matrix(0.7023 -0.7119 0.7119 0.7023 -81.4221 190.5264)" class="st18" width="5.6" height="5.6"/>
		
			<rect id="XMLID_7_" x="150.8" y="183.6" transform="matrix(0.7023 -0.7119 0.7119 0.7023 -86.9843 164.8528)" class="st18" width="5.6" height="5.6"/>
		
			<rect id="XMLID_6_" x="116.7" y="167.7" transform="matrix(0.7025 -0.7117 0.7117 0.7025 -85.7931 135.8214)" class="st18" width="5.6" height="5.6"/>
		
			<rect id="XMLID_5_" x="82.8" y="141.5" transform="matrix(0.7023 -0.7119 0.7119 0.7023 -77.2668 103.9504)" class="st18" width="5.6" height="5.6"/>
	</g>
</g>
<line id="XMLID_2_" class="st20" x1="35.5" y1="72.1" x2="35.5" y2="265.7"/>
<line id="XMLID_1_" class="st20" x1="35.5" y1="72.1" x2="271.1" y2="72.1"/>
</svg>
