<!-- Generator: Adobe Illustrator 22.1.0, SVG Export Plug-In  -->
<svg version="1.1"
	 xmlns="http://www.w3.org/2000/svg" xmlns:xlink="http://www.w3.org/1999/xlink" xmlns:a="http://ns.adobe.com/AdobeSVGViewerExtensions/3.0/"
	 x="0px" y="0px" width="77.5px" height="77.5px" viewBox="0 0 77.5 77.5" style="enable-background:new 0 0 77.5 77.5;"
	 xml:space="preserve">
<style type="text/css">
	.st0{fill:#490E67;}
	.st1{fill:#FFFFFF;}
</style>
<defs>
</defs>
<g id="XMLID_24_">
	<path id="XMLID_25_" class="st0" d="M77.5,38.8c0,21.4-17.4,38.8-38.8,38.8C17.4,77.5,0,60.2,0,38.8C0,17.4,17.4,0,38.8,0
		C60.2,0,77.5,17.4,77.5,38.8z"/>
</g>
<g id="XMLID_1_">
	<g id="XMLID_3_">
		<path id="XMLID_12_" class="st1" d="M11.4,34.1c-0.5,0.5-1.8,0.7-3.2,0.7v-3c2.1,0,3.6-0.6,4.7-1.9h1.9v14.8h-3.5V34.1z"/>
		<path id="XMLID_9_" class="st1" d="M16.9,37.2c0-5,3.5-7.7,7.6-7.7c4.7,0,7.6,2.7,7.6,7.7c0,5-3.5,7.8-7.6,7.8
			C19.8,45,16.9,42.2,16.9,37.2z M28.3,37.2c0-3.1-1.6-4.7-3.8-4.7s-3.9,1.6-3.9,4.7s1.6,4.7,3.9,4.7S28.3,40.3,28.3,37.2z"/>
		<path id="XMLID_7_" class="st1" d="M38.9,32.6h3.2l0.2,1c0.5-0.8,1.6-1.4,3-1.4c1.7,0,2.8,0.6,3.4,1.7c0.6-0.8,1.8-1.7,3.5-1.7
			c2.9,0,4.1,1.6,4.1,4.9v7.5h-3.6v-6.9c0-1.9-0.5-2.7-1.6-2.7c-0.9,0-1.6,0.5-1.9,1c0.1,0.3,0.1,0.8,0.1,1.1v7.5h-3.6v-6.9
			c0-1.9-0.5-2.7-1.6-2.7c-0.9,0-1.5,0.5-1.8,1v8.6h-3.6V32.6z"/>
		<path id="XMLID_4_" class="st1" d="M58.1,48.1v-2.6c1.1,0.7,2.6,1.1,5.1,1.1c2.8,0,4-0.3,4-1.2c0-0.7-0.7-0.9-2.5-0.9
			c-1.8,0-4.5,0.4-5.3,0.8v-2.4l1.7-2.5c-1.8-0.6-2.8-1.9-2.8-3.8c0-2.7,2.1-4.2,5.3-4.2c1.4,0,2.6,0.3,3.4,0.9c0.4-0.6,1.3-1,2.3-1
			c0.3,0,0.7,0,1,0.2V35c-0.2-0.1-0.5-0.2-0.8-0.2c-0.4,0-0.8,0.1-1,0.3c0.1,0.4,0.2,0.9,0.2,1.4c0,2.6-2.1,4.1-5.3,4.1h-0.2
			l-0.9,1.5c0.5-0.2,1.9-0.3,3.1-0.3c3,0,5,0.7,5,3.3c0,2.6-2.3,4.1-6.9,4.1C61,49.2,59.1,48.8,58.1,48.1z M65.4,36.5
			c0-1.1-0.7-1.6-1.9-1.6c-1.2,0-1.9,0.6-1.9,1.6s0.7,1.6,1.9,1.6C64.6,38.1,65.4,37.5,65.4,36.5z"/>
	</g>
</g>
</svg>
