<!-- Generator: Adobe Illustrator 22.1.0, SVG Export Plug-In  -->
<svg version="1.1"
	 xmlns="http://www.w3.org/2000/svg" xmlns:xlink="http://www.w3.org/1999/xlink" xmlns:a="http://ns.adobe.com/AdobeSVGViewerExtensions/3.0/"
	 x="0px" y="0px" width="156px" height="159.1px" viewBox="0 0 156 159.1" style="enable-background:new 0 0 156 159.1;"
	 xml:space="preserve">
<style type="text/css">
	.st0{fill:none;stroke:#652D90;stroke-width:1.0884;stroke-miterlimit:10;}
	.st1{fill:#652D90;}
	.st2{opacity:0.45;fill:url(#XMLID_557_);}
	.st3{fill:none;stroke:#652D90;stroke-width:0.9208;stroke-miterlimit:10;}
	.st4{fill:#231F20;}
	.st5{fill:#FFFFFF;}
	.st6{opacity:0.45;fill:url(#XMLID_558_);}
</style>
<defs>
</defs>
<g id="XMLID_547_">
	<path id="XMLID_554_" class="st0" d="M9.7,12.8c-5.1,0-9.1,4.1-9.1,9.1v78.9c0,5.1,4.1,9.1,9.1,9.1"/>
	<path id="XMLID_551_" class="st1" d="M12.9,110.2c0-2-1.6-3.7-3.7-3.7c-2,0-3.7,1.6-3.7,3.7c0,2,1.6,3.7,3.7,3.7
		C11.2,113.8,12.9,112.2,12.9,110.2z"/>
	<path id="XMLID_548_" class="st1" d="M12.9,12.8c0-2-1.6-3.7-3.7-3.7c-2,0-3.7,1.6-3.7,3.7c0,2,1.6,3.7,3.7,3.7
		C11.2,16.5,12.9,14.9,12.9,12.8z"/>
</g>
<g id="XMLID_540_">
	<linearGradient id="XMLID_557_" gradientUnits="userSpaceOnUse" x1="19.2675" y1="69.3639" x2="155.496" y2="69.3639">
		<stop  offset="0" style="stop-color:#FFFFFF"/>
		<stop  offset="1" style="stop-color:#B5B7B9"/>
	</linearGradient>
	<path id="XMLID_544_" class="st2" d="M155.5,133.8c0,2.5-1.9,4.5-4.3,4.5H23.6c-2.4,0-4.3-2-4.3-4.5V4.9c0-2.5,1.9-4.5,4.3-4.5
		h127.6c2.4,0,4.3,2,4.3,4.5V133.8z"/>
	<path id="XMLID_541_" class="st3" d="M155.5,133.8c0,2.5-1.9,4.5-4.3,4.5H23.6c-2.4,0-4.3-2-4.3-4.5V4.9c0-2.5,1.9-4.5,4.3-4.5
		h127.6c2.4,0,4.3,2,4.3,4.5V133.8z"/>
</g>
<g id="XMLID_131_">
	<g id="XMLID_523_">
		<g id="XMLID_525_">
			<path id="XMLID_531_" class="st1" d="M52.3,51.8H32V51l11.8-35.2h7.4l-8.9,28.2h10V27.4h7.4v16.5H64v7.9h-4.4v9.1h-7.4V51.8z"/>
			<path id="XMLID_529_" class="st1" d="M68.4,56.5c0-3.2,1.9-5.5,4.9-5.5c2.9,0,4.9,2.3,4.9,5.5s-2,5.4-4.9,5.4
				C70.4,62,68.4,59.7,68.4,56.5z"/>
			<path id="XMLID_526_" class="st1" d="M86.1,60.5c7.4-3.5,13.4-8,16.5-15.8c-1.6,1.1-3.8,1.8-6.5,1.8c-8.6,0-13.4-6-13.4-15.3
				c0-9.2,5.9-16.5,15.3-16.5s14.7,7.4,14.7,17.6c0,16-9,25.7-15.1,28.6H86.1V60.5z M104.5,36.3c0.2-1.5,0.3-3.2,0.3-4.9
				c0-5.6-2.5-9.3-7.1-9.3s-7.1,3.7-7.1,8.8c0,5,2.5,8.6,7.1,8.6C101.1,39.5,103.3,38.1,104.5,36.3z"/>
		</g>
	</g>
	<g id="XMLID_510_">
		<g id="XMLID_512_">
			<path id="XMLID_513_" class="st1" d="M116.8,22.7c0-6,2.7-7.9,6-7.9c1.2,0,2.4,0.3,3.3,0.9c1.6,1,2.9,1.4,5.2,1.4
				c2.7,0,4.4-1.1,5.4-2.4l2.4,1.5l-15.7,28.4h-3.2l13.9-25.2c-0.7,0.3-1.6,0.5-2.7,0.5c-1.1,0-2-0.2-2.9-0.5
				c0.2,0.9,0.3,1.9,0.3,3.2c0,6-2.7,7.9-6,7.9C119.5,30.6,116.8,28.7,116.8,22.7z M125.1,22.7c0-3.1-0.6-4.5-2.3-4.5
				c-1.7,0-2.3,1.4-2.3,4.5c0,3.1,0.6,4.5,2.3,4.5C124.5,27.2,125.1,25.8,125.1,22.7z M130.9,37.5c0-6,2.7-7.9,6-7.9s6,1.9,6,7.9
				s-2.7,7.9-6,7.9S130.9,43.5,130.9,37.5z M139.2,37.5c0-3.1-0.6-4.5-2.3-4.5c-1.7,0-2.3,1.4-2.3,4.5c0,3.1,0.6,4.5,2.3,4.5
				C138.6,42,139.2,40.6,139.2,37.5z"/>
		</g>
	</g>
	<g id="XMLID_497_">
		<g id="XMLID_499_">
			<path id="XMLID_502_" class="st1" d="M114.6,60.5c0-5.7,3.7-8.7,7.5-8.7c4.4,0,7.5,3,7.5,8.7c0,5.7-3.7,8.7-7.5,8.7
				C117.7,69.2,114.6,66.2,114.6,60.5z M126.6,60.6c0-3.9-1.7-6.1-4.5-6.1c-2.7,0-4.5,2.1-4.5,5.8c0,3.9,1.7,6.1,4.5,6.1
				C124.8,66.5,126.6,64.3,126.6,60.6z"/>
			<path id="XMLID_500_" class="st1" d="M132.5,57.8H131V57l1.4-1.4c-0.2-0.4-0.4-1-0.4-1.9c0-2.4,1.9-3.7,4.1-3.7
				c1.5,0,2.4,0.5,2.7,0.8v2.9c-0.4-0.8-1.2-1.2-2.2-1.2c-1.1,0-1.8,0.5-1.8,1.6c0,0.5,0.2,0.9,0.3,1.2h2.5v2.5h-2.4v11h-2.9V57.8z"
				/>
		</g>
	</g>
	<g id="XMLID_132_">
		<g id="XMLID_134_">
			<path id="XMLID_313_" class="st4" d="M38.3,73.5L38,72.7h1.6l3.1,8.5H41l-0.6-1.8h-2.9l-0.6,1.8h-1.5L38.3,73.5z M37.9,78.2H40
				l-0.8-2.3L39,75.1l-0.2,0.7L37.9,78.2z"/>
			<path id="XMLID_311_" class="st4" d="M43.2,80.8v-1.6c0.4,0.5,0.9,0.9,1.8,0.9s1.2-0.4,1.2-0.8c0-0.5-0.2-0.6-0.9-0.8L45,78.4
				c-1.2-0.2-1.8-0.9-1.8-2.1c0-1.2,0.8-2.2,2.4-2.2c0.8,0,1.5,0.3,1.8,0.6v1.6c-0.4-0.5-0.9-0.9-1.8-0.9c-0.8,0-1.1,0.3-1.1,0.8
				c0,0.4,0.2,0.7,0.9,0.8l0.3,0.1c1.2,0.3,1.9,0.8,1.9,2.1c0,1.2-0.8,2.3-2.6,2.3C44.2,81.4,43.6,81.1,43.2,80.8z"/>
			<path id="XMLID_308_" class="st4" d="M48.5,77.7c0-2.5,1.5-3.7,2.9-3.7c1.4,0,2.8,0.7,2.8,3.3v0.9H50c0.1,1,0.6,1.8,1.8,1.8
				c1.1,0,1.8-0.5,2.1-1v1.5c-0.3,0.4-1,0.9-2.2,0.9C49.8,81.4,48.5,80.2,48.5,77.7z M52.8,77.1L52.8,77.1c0-1.1-0.4-1.7-1.4-1.7
				c-0.8,0-1.3,0.9-1.4,1.7H52.8z"/>
			<path id="XMLID_306_" class="st4" d="M55.4,74.3h1.4l0.1,0.6c0.2-0.4,0.8-0.8,1.6-0.8c1.7,0,2.3,0.9,2.3,2.8v4.3h-1.5v-4
				c0-1.3-0.3-1.9-1.2-1.9c-0.7,0-1.1,0.4-1.3,0.7v5.2h-1.5V74.3z"/>
			<path id="XMLID_303_" class="st4" d="M62,79.4c0-1.4,1-2,2.7-2.3l0.9-0.2c0-1.2-0.5-1.6-1.4-1.6c-0.9,0-1.7,0.5-2,1.3v-1.7
				c0.2-0.4,0.9-1,2.2-1c1.7,0,2.7,0.9,2.7,2.9v4.2h-1.4l-0.1-0.6c-0.2,0.4-0.7,0.8-1.6,0.8C62.9,81.4,62,80.8,62,79.4z M65.7,78
				l-0.8,0.2c-1,0.3-1.4,0.6-1.4,1.1c0,0.6,0.4,0.8,0.9,0.8c0.6,0,1.1-0.3,1.3-0.6V78z"/>
			<path id="XMLID_300_" class="st4" d="M68.6,74.3H70l0.1,0.6c0.2-0.4,0.7-0.8,1.6-0.8c1.5,0,2.6,1,2.6,3.5s-1.3,3.8-2.8,3.8
				c-0.5,0-1.1-0.1-1.4-0.5v2.7h-1.5V74.3z M72.8,77.6c0-1.4-0.4-2.2-1.4-2.2c-0.7,0-1.1,0.3-1.3,0.6v3.6c0.3,0.4,0.7,0.5,1.2,0.5
				C72.3,80.1,72.8,79,72.8,77.6z"/>
			<path id="XMLID_297_" class="st4" d="M75.5,72.7c0-0.5,0.3-0.8,0.8-0.8c0.5,0,0.8,0.3,0.8,0.8c0,0.5-0.3,0.8-0.8,0.8
				C75.7,73.5,75.5,73.2,75.5,72.7z M75.5,74.3H77v6.9h-1.5V74.3z"/>
			<path id="XMLID_295_" class="st4" d="M78.6,74.3h1.4l0.1,0.6c0.2-0.4,0.8-0.8,1.6-0.8c1.7,0,2.3,0.9,2.3,2.8v4.3h-1.5v-4
				c0-1.3-0.3-1.9-1.2-1.9c-0.7,0-1.1,0.4-1.3,0.7v5.2h-1.5V74.3z"/>
			<path id="XMLID_292_" class="st4" d="M85.1,77.7c0-2.5,1.5-3.7,2.9-3.7c1.4,0,2.8,0.7,2.8,3.3v0.9h-4.2c0.1,1,0.6,1.8,1.8,1.8
				c1.1,0,1.8-0.5,2.1-1v1.5c-0.3,0.4-1,0.9-2.2,0.9C86.4,81.4,85.1,80.2,85.1,77.7z M89.4,77.1L89.4,77.1c0-1.1-0.4-1.7-1.4-1.7
				c-0.8,0-1.3,0.9-1.4,1.7H89.4z"/>
			<path id="XMLID_289_" class="st4" d="M94.8,74.3h1.4l0.1,0.6c0.2-0.4,0.7-0.8,1.6-0.8c1.5,0,2.6,1,2.6,3.5s-1.3,3.8-2.8,3.8
				c-0.5,0-1.1-0.1-1.4-0.5v2.7h-1.5V74.3z M98.9,77.6c0-1.4-0.4-2.2-1.4-2.2c-0.7,0-1.1,0.3-1.3,0.6v3.6c0.3,0.4,0.7,0.5,1.2,0.5
				C98.5,80.1,98.9,79,98.9,77.6z"/>
			<path id="XMLID_286_" class="st4" d="M101.3,79.4c0-1.4,1-2,2.7-2.3L105,77c0-1.2-0.5-1.6-1.4-1.6c-0.9,0-1.7,0.5-2,1.3v-1.7
				c0.2-0.4,0.9-1,2.2-1c1.7,0,2.7,0.9,2.7,2.9v4.2h-1.4l-0.1-0.6c-0.2,0.4-0.7,0.8-1.6,0.8C102.3,81.4,101.3,80.8,101.3,79.4z
				 M105,78l-0.8,0.2c-1,0.3-1.4,0.6-1.4,1.1c0,0.6,0.4,0.8,0.9,0.8c0.6,0,1.1-0.3,1.3-0.6V78z"/>
			<path id="XMLID_284_" class="st4" d="M108.2,79.4v-3.8h-0.8v-0.4l0.6-0.9l1.1-1.7h0.5v1.7h1.6v1.3h-1.6v3.7
				c0,0.5,0.2,0.8,0.6,0.8c0.5,0,0.8-0.3,1-0.7v1.4c-0.2,0.3-0.6,0.6-1.3,0.6C108.7,81.4,108.2,80.7,108.2,79.4z"/>
			<path id="XMLID_281_" class="st4" d="M112.4,72.7c0-0.5,0.3-0.8,0.8-0.8c0.5,0,0.8,0.3,0.8,0.8c0,0.5-0.3,0.8-0.8,0.8
				C112.6,73.5,112.4,73.2,112.4,72.7z M112.4,74.3h1.5v6.9h-1.5V74.3z"/>
			<path id="XMLID_278_" class="st4" d="M115.1,77.7c0-2.5,1.5-3.7,2.9-3.7c1.4,0,2.8,0.7,2.8,3.3v0.9h-4.2c0.1,1,0.6,1.8,1.8,1.8
				c1.1,0,1.8-0.5,2.1-1v1.5c-0.3,0.4-1,0.9-2.2,0.9C116.4,81.4,115.1,80.2,115.1,77.7z M119.4,77.1L119.4,77.1
				c0-1.1-0.4-1.7-1.4-1.7c-0.8,0-1.3,0.9-1.4,1.7H119.4z"/>
			<path id="XMLID_276_" class="st4" d="M122.1,74.3h1.4l0.1,0.6c0.2-0.4,0.8-0.8,1.6-0.8c1.7,0,2.3,0.9,2.3,2.8v4.3H126v-4
				c0-1.3-0.3-1.9-1.2-1.9c-0.7,0-1.1,0.4-1.3,0.7v5.2h-1.5V74.3z"/>
			<path id="XMLID_274_" class="st4" d="M129.2,79.4v-3.8h-0.8v-0.4l0.6-0.9l1.1-1.7h0.5v1.7h1.6v1.3h-1.6v3.7
				c0,0.5,0.2,0.8,0.6,0.8c0.5,0,0.8-0.3,1-0.7v1.4c-0.2,0.3-0.6,0.6-1.3,0.6C129.7,81.4,129.2,80.7,129.2,79.4z"/>
			<path id="XMLID_272_" class="st4" d="M133.2,80.8v-1.6c0.4,0.5,0.9,0.9,1.8,0.9s1.2-0.4,1.2-0.8c0-0.5-0.2-0.6-0.9-0.8l-0.3-0.1
				c-1.2-0.2-1.8-0.9-1.8-2.1c0-1.2,0.8-2.2,2.4-2.2c0.8,0,1.5,0.3,1.8,0.6v1.6c-0.4-0.5-0.9-0.9-1.8-0.9c-0.8,0-1.1,0.3-1.1,0.8
				c0,0.4,0.2,0.7,0.9,0.8l0.3,0.1c1.2,0.3,1.9,0.8,1.9,2.1c0,1.2-0.8,2.3-2.6,2.3C134.2,81.4,133.5,81.1,133.2,80.8z"/>
			<path id="XMLID_269_" class="st4" d="M30.3,92.8c0-2.5,1.5-3.7,2.9-3.7c1.4,0,2.8,0.7,2.8,3.3v0.9h-4.2c0.1,1,0.6,1.8,1.8,1.8
				c1.1,0,1.8-0.5,2.1-1v1.5c-0.3,0.4-1,0.9-2.2,0.9C31.6,96.4,30.3,95.3,30.3,92.8z M34.6,92.2L34.6,92.2c0-1.1-0.4-1.7-1.4-1.7
				c-0.8,0-1.3,0.9-1.4,1.7H34.6z"/>
			<path id="XMLID_267_" class="st4" d="M38.8,92.6l-2-3.3h1.6l1.3,2.1l1.2-2.1h1.5l-2.1,3.2l2.3,3.7H41l-1.5-2.5l-1.4,2.5h-1.5
				L38.8,92.6z"/>
			<path id="XMLID_264_" class="st4" d="M43.5,89.3h1.4l0.1,0.6c0.2-0.4,0.7-0.8,1.6-0.8c1.5,0,2.6,1,2.6,3.5s-1.3,3.8-2.8,3.8
				c-0.5,0-1.1-0.1-1.4-0.5v2.7h-1.5V89.3z M47.6,92.7c0-1.4-0.4-2.2-1.4-2.2c-0.7,0-1.1,0.3-1.3,0.6v3.6c0.3,0.4,0.7,0.5,1.2,0.5
				C47.2,95.1,47.6,94,47.6,92.7z"/>
			<path id="XMLID_261_" class="st4" d="M50,92.8c0-2.5,1.5-3.7,2.9-3.7c1.4,0,2.8,0.7,2.8,3.3v0.9h-4.2c0.1,1,0.6,1.8,1.8,1.8
				c1.1,0,1.8-0.5,2.1-1v1.5c-0.3,0.4-1,0.9-2.2,0.9C51.3,96.4,50,95.3,50,92.8z M54.3,92.2L54.3,92.2c0-1.1-0.4-1.7-1.4-1.7
				c-0.8,0-1.3,0.9-1.4,1.7H54.3z"/>
			<path id="XMLID_259_" class="st4" d="M57,89.3h1.3l0.1,1c0.1-0.8,0.6-1.2,1.2-1.2c0.3,0,0.5,0.1,0.6,0.2v1.5
				c-0.1-0.1-0.4-0.2-0.7-0.2c-0.5,0-0.9,0.3-1.1,0.7v5H57V89.3z"/>
			<path id="XMLID_256_" class="st4" d="M61.1,87.7c0-0.5,0.3-0.8,0.8-0.8c0.5,0,0.8,0.3,0.8,0.8c0,0.5-0.3,0.8-0.8,0.8
				C61.4,88.5,61.1,88.2,61.1,87.7z M61.2,89.3h1.5v6.9h-1.5V89.3z"/>
			<path id="XMLID_253_" class="st4" d="M63.9,92.8c0-2.5,1.5-3.7,2.9-3.7c1.4,0,2.8,0.7,2.8,3.3v0.9h-4.2c0.1,1,0.6,1.8,1.8,1.8
				c1.1,0,1.8-0.5,2.1-1v1.5c-0.3,0.4-1,0.9-2.2,0.9C65.2,96.4,63.9,95.3,63.9,92.8z M68.2,92.2L68.2,92.2c0-1.1-0.4-1.7-1.4-1.7
				c-0.8,0-1.3,0.9-1.4,1.7H68.2z"/>
			<path id="XMLID_251_" class="st4" d="M70.8,89.3h1.4l0.1,0.6c0.2-0.4,0.8-0.8,1.6-0.8c1.7,0,2.3,0.9,2.3,2.8v4.3h-1.5v-4
				c0-1.3-0.3-1.9-1.2-1.9c-0.7,0-1.1,0.4-1.3,0.7v5.2h-1.5V89.3z"/>
			<path id="XMLID_249_" class="st4" d="M77.4,92.8c0-2.5,1.5-3.7,3.1-3.7c0.9,0,1.5,0.3,1.8,0.6v1.6c-0.4-0.6-0.9-0.8-1.7-0.8
				c-1,0-1.7,0.9-1.7,2.3c0,1.4,0.6,2.3,1.7,2.3c0.8,0,1.3-0.4,1.7-0.9v1.5c-0.3,0.4-1,0.8-1.9,0.8C78.6,96.4,77.4,95.3,77.4,92.8z"
				/>
			<path id="XMLID_246_" class="st4" d="M83.2,92.8c0-2.5,1.5-3.7,2.9-3.7c1.4,0,2.8,0.7,2.8,3.3v0.9h-4.2c0.1,1,0.6,1.8,1.8,1.8
				c1.1,0,1.8-0.5,2.1-1v1.5c-0.3,0.4-1,0.9-2.2,0.9C84.5,96.4,83.2,95.3,83.2,92.8z M87.5,92.2L87.5,92.2c0-1.1-0.4-1.7-1.4-1.7
				c-0.8,0-1.3,0.9-1.4,1.7H87.5z"/>
			<path id="XMLID_243_" class="st4" d="M89.8,92.9c0-2.5,1.2-3.8,2.8-3.8c0.5,0,1.1,0.1,1.4,0.5v-2.8h1.5v9.4H94l-0.1-0.6
				c-0.2,0.4-0.7,0.8-1.6,0.8C90.9,96.4,89.8,95.4,89.8,92.9z M93.9,90.9c-0.3-0.4-0.7-0.5-1.2-0.5c-1,0-1.5,1.1-1.5,2.5
				c0,1.4,0.4,2.2,1.4,2.2c0.7,0,1.1-0.3,1.3-0.6V90.9z"/>
			<path id="XMLID_241_" class="st4" d="M99.4,92.8c0-2.5,1.5-3.7,3.1-3.7c0.9,0,1.5,0.3,1.8,0.6v1.6c-0.4-0.6-0.9-0.8-1.7-0.8
				c-1,0-1.7,0.9-1.7,2.3c0,1.4,0.6,2.3,1.7,2.3c0.8,0,1.3-0.4,1.7-0.9v1.5c-0.3,0.4-1,0.8-1.9,0.8C100.6,96.4,99.4,95.3,99.4,92.8z
				"/>
			<path id="XMLID_239_" class="st4" d="M105.5,94.6v-7.9h1.5v7.7c0,0.5,0.1,0.6,0.4,0.6c0.3,0,0.5-0.2,0.6-0.4V96
				c-0.1,0.2-0.4,0.4-1,0.4C106,96.4,105.5,95.8,105.5,94.6z"/>
			<path id="XMLID_236_" class="st4" d="M108.9,87.7c0-0.5,0.3-0.8,0.8-0.8c0.5,0,0.8,0.3,0.8,0.8c0,0.5-0.3,0.8-0.8,0.8
				C109.2,88.5,108.9,88.2,108.9,87.7z M109,89.3h1.5v6.9H109V89.3z"/>
			<path id="XMLID_234_" class="st4" d="M112.1,89.3h1.4l0.1,0.6c0.2-0.4,0.8-0.8,1.6-0.8c1.7,0,2.3,0.9,2.3,2.8v4.3H116v-4
				c0-1.3-0.3-1.9-1.2-1.9c-0.7,0-1.1,0.4-1.3,0.7v5.2h-1.5V89.3z"/>
			<path id="XMLID_231_" class="st4" d="M118.9,87.7c0-0.5,0.3-0.8,0.8-0.8c0.5,0,0.8,0.3,0.8,0.8c0,0.5-0.3,0.8-0.8,0.8
				C119.1,88.5,118.9,88.2,118.9,87.7z M118.9,89.3h1.5v6.9h-1.5V89.3z"/>
			<path id="XMLID_229_" class="st4" d="M121.6,92.8c0-2.5,1.5-3.7,3.1-3.7c0.9,0,1.5,0.3,1.8,0.6v1.6c-0.4-0.6-0.9-0.8-1.7-0.8
				c-1,0-1.7,0.9-1.7,2.3c0,1.4,0.6,2.3,1.7,2.3c0.8,0,1.3-0.4,1.7-0.9v1.5c-0.3,0.4-1,0.8-1.9,0.8
				C122.9,96.4,121.6,95.3,121.6,92.8z"/>
			<path id="XMLID_226_" class="st4" d="M127.4,94.4c0-1.4,1-2,2.7-2.3l0.9-0.2c0-1.2-0.5-1.6-1.4-1.6c-0.9,0-1.7,0.5-2,1.3v-1.7
				c0.2-0.4,0.9-1,2.2-1c1.7,0,2.7,0.9,2.7,2.9v4.2h-1.4l-0.1-0.6c-0.2,0.4-0.7,0.8-1.6,0.8C128.4,96.4,127.4,95.8,127.4,94.4z
				 M131.1,93.1l-0.8,0.2c-1,0.3-1.4,0.6-1.4,1.1c0,0.6,0.4,0.8,0.9,0.8c0.6,0,1.1-0.3,1.3-0.6V93.1z"/>
			<path id="XMLID_224_" class="st4" d="M134,94.6v-7.9h1.5v7.7c0,0.5,0.1,0.6,0.4,0.6c0.3,0,0.5-0.2,0.6-0.4V96
				c-0.1,0.2-0.4,0.4-1,0.4C134.5,96.4,134,95.8,134,94.6z"/>
			<path id="XMLID_222_" class="st4" d="M137.5,94.6v-7.9h1.5v7.7c0,0.5,0.1,0.6,0.4,0.6c0.3,0,0.5-0.2,0.6-0.4V96
				c-0.1,0.2-0.4,0.4-1,0.4C138,96.4,137.5,95.8,137.5,94.6z"/>
			<path id="XMLID_220_" class="st4" d="M140.5,98.4v-1.4c0.3,0.3,0.6,0.5,1,0.5c0.5,0,0.9-0.2,1.2-1.2l-2.5-7.1h1.6l1.6,5l1.2-5
				h1.5l-1.8,6.5c-0.5,1.7-1.1,3.1-2.8,3.1C141.2,98.9,140.7,98.7,140.5,98.4z"/>
			<path id="XMLID_218_" class="st4" d="M30,110.8v-1.6c0.4,0.5,0.9,0.9,1.8,0.9s1.2-0.4,1.2-0.8c0-0.5-0.2-0.6-0.9-0.8l-0.3-0.1
				c-1.2-0.2-1.8-0.9-1.8-2.1c0-1.2,0.8-2.2,2.4-2.2c0.8,0,1.5,0.3,1.8,0.6v1.6c-0.4-0.5-0.9-0.9-1.8-0.9c-0.8,0-1.1,0.3-1.1,0.8
				s0.2,0.7,0.9,0.8l0.3,0.1c1.2,0.3,1.9,0.8,1.9,2.1c0,1.2-0.8,2.3-2.6,2.3C31,111.5,30.4,111.2,30,110.8z"/>
			<path id="XMLID_215_" class="st4" d="M35.6,102.7c0-0.5,0.3-0.8,0.8-0.8c0.5,0,0.8,0.3,0.8,0.8c0,0.5-0.3,0.8-0.8,0.8
				C35.8,103.5,35.6,103.3,35.6,102.7z M35.6,104.3h1.5v6.9h-1.5V104.3z"/>
			<path id="XMLID_212_" class="st4" d="M38.3,113.2v-1.3c0.5,0.5,1.4,0.7,2.6,0.7c1.5,0,2.1-0.3,2.1-0.9c0-0.5-0.5-0.7-1.4-0.7
				c-0.9,0-2.2,0.2-2.7,0.4v-1.2l0.9-1.6c-0.9-0.3-1.4-1.1-1.4-2.2c0-1.5,1.1-2.4,2.7-2.4c0.7,0,1.3,0.2,1.7,0.5
				c0.2-0.3,0.7-0.5,1.2-0.5c0.2,0,0.3,0,0.5,0.1v1.3c-0.1-0.1-0.3-0.1-0.4-0.1c-0.3,0-0.5,0.1-0.6,0.2c0.1,0.3,0.2,0.6,0.2,1
				c0,1.5-1.1,2.4-2.6,2.4h-0.2l-0.5,1c0.3-0.1,1-0.2,1.6-0.2c1.5,0,2.5,0.4,2.5,1.8c0,1.4-1.2,2.3-3.4,2.3
				C39.8,113.9,38.9,113.6,38.3,113.2z M42.2,106.5c0-0.8-0.5-1.2-1.2-1.2c-0.7,0-1.2,0.4-1.2,1.2c0,0.8,0.5,1.2,1.2,1.2
				C41.7,107.7,42.2,107.3,42.2,106.5z"/>
			<path id="XMLID_210_" class="st4" d="M45.3,104.3h1.4l0.1,0.6c0.2-0.4,0.8-0.8,1.6-0.8c1.7,0,2.3,0.9,2.3,2.8v4.3h-1.5v-4
				c0-1.3-0.3-1.9-1.2-1.9c-0.7,0-1.1,0.4-1.3,0.7v5.2h-1.5V104.3z"/>
			<path id="XMLID_207_" class="st4" d="M52.1,102.7c0-0.5,0.3-0.8,0.8-0.8c0.5,0,0.8,0.3,0.8,0.8c0,0.5-0.3,0.8-0.8,0.8
				C52.4,103.5,52.1,103.3,52.1,102.7z M52.2,104.3h1.5v6.9h-1.5V104.3z"/>
			<path id="XMLID_204_" class="st4" d="M55.5,105.6h-0.8v-0.4l0.7-0.7c-0.1-0.2-0.2-0.5-0.2-1c0-1.3,1-1.9,2-1.9
				c0.7,0,1.1,0.2,1.2,0.4v1.5c-0.2-0.4-0.5-0.6-1-0.6s-0.8,0.3-0.8,0.8c0,0.3,0.1,0.5,0.2,0.6h3.8v6.9h-1.5v-5.7H57v5.7h-1.5V105.6
				z M59.2,102.7c0-0.5,0.3-0.8,0.8-0.8c0.5,0,0.8,0.3,0.8,0.8c0,0.5-0.3,0.8-0.8,0.8C59.4,103.5,59.2,103.3,59.2,102.7z"/>
			<path id="XMLID_202_" class="st4" d="M61.9,107.8c0-2.5,1.5-3.7,3.1-3.7c0.9,0,1.5,0.3,1.8,0.6v1.6c-0.4-0.6-0.9-0.8-1.7-0.8
				c-1,0-1.7,0.9-1.7,2.3c0,1.4,0.6,2.3,1.7,2.3c0.8,0,1.3-0.4,1.7-0.9v1.5c-0.3,0.4-1,0.8-1.9,0.8
				C63.2,111.5,61.9,110.3,61.9,107.8z"/>
			<path id="XMLID_199_" class="st4" d="M67.7,109.5c0-1.4,1-2,2.7-2.3l0.9-0.2c0-1.2-0.5-1.6-1.4-1.6c-0.9,0-1.7,0.5-2,1.3v-1.7
				c0.2-0.4,0.9-1,2.2-1c1.7,0,2.7,0.9,2.7,2.9v4.2h-1.4l-0.1-0.6c-0.2,0.4-0.7,0.8-1.6,0.8C68.7,111.5,67.7,110.9,67.7,109.5z
				 M71.4,108.1l-0.8,0.2c-1,0.3-1.4,0.6-1.4,1.1c0,0.6,0.4,0.8,0.9,0.8c0.6,0,1.1-0.3,1.3-0.6V108.1z"/>
			<path id="XMLID_197_" class="st4" d="M74.4,104.3h1.4l0.1,0.6c0.2-0.4,0.8-0.8,1.6-0.8c1.7,0,2.3,0.9,2.3,2.8v4.3h-1.5v-4
				c0-1.3-0.3-1.9-1.2-1.9c-0.7,0-1.1,0.4-1.3,0.7v5.2h-1.5V104.3z"/>
			<path id="XMLID_195_" class="st4" d="M81.5,109.4v-3.8h-0.8v-0.4l0.6-0.9l1.1-1.7H83v1.7h1.6v1.3H83v3.7c0,0.5,0.2,0.8,0.6,0.8
				c0.5,0,0.8-0.3,1-0.7v1.4c-0.2,0.3-0.6,0.6-1.3,0.6C82.1,111.5,81.5,110.7,81.5,109.4z"/>
			<path id="XMLID_193_" class="st4" d="M87.9,104.3h1.5l1,4.1l1.4-4.1h0.6l1.4,4.1l0.9-4.1h1.4l-1.7,6.9h-0.9l-1.5-4.1l-1.5,4.1
				h-0.9L87.9,104.3z"/>
			<path id="XMLID_190_" class="st4" d="M96.7,107.8c0-2.5,1.5-3.7,2.9-3.7c1.4,0,2.8,0.7,2.8,3.3v0.9h-4.2c0.1,1,0.6,1.8,1.8,1.8
				c1.1,0,1.8-0.5,2.1-1v1.5c-0.3,0.4-1,0.9-2.2,0.9C98,111.5,96.7,110.3,96.7,107.8z M101,107.2L101,107.2c0-1.1-0.4-1.7-1.4-1.7
				c-0.8,0-1.3,0.9-1.4,1.7H101z"/>
			<path id="XMLID_187_" class="st4" d="M103.6,102.7c0-0.5,0.3-0.8,0.8-0.8c0.5,0,0.8,0.3,0.8,0.8c0,0.5-0.3,0.8-0.8,0.8
				C103.8,103.5,103.6,103.3,103.6,102.7z M103.6,104.3h1.5v6.9h-1.5V104.3z"/>
			<path id="XMLID_184_" class="st4" d="M106.3,113.2v-1.3c0.5,0.5,1.4,0.7,2.6,0.7c1.5,0,2.1-0.3,2.1-0.9c0-0.5-0.5-0.7-1.4-0.7
				c-0.9,0-2.2,0.2-2.7,0.4v-1.2l0.9-1.6c-0.9-0.3-1.4-1.1-1.4-2.2c0-1.5,1.1-2.4,2.7-2.4c0.7,0,1.3,0.2,1.7,0.5
				c0.2-0.3,0.7-0.5,1.2-0.5c0.2,0,0.3,0,0.5,0.1v1.3c-0.1-0.1-0.3-0.1-0.4-0.1c-0.3,0-0.5,0.1-0.6,0.2c0.1,0.3,0.2,0.6,0.2,1
				c0,1.5-1.1,2.4-2.6,2.4h-0.2l-0.5,1c0.3-0.1,1-0.2,1.6-0.2c1.5,0,2.5,0.4,2.5,1.8c0,1.4-1.2,2.3-3.4,2.3
				C107.8,113.9,106.8,113.6,106.3,113.2z M110.2,106.5c0-0.8-0.5-1.2-1.2-1.2c-0.7,0-1.2,0.4-1.2,1.2c0,0.8,0.5,1.2,1.2,1.2
				C109.7,107.7,110.2,107.3,110.2,106.5z"/>
			<path id="XMLID_182_" class="st4" d="M113.3,101.8h1.5v3.1c0.3-0.4,0.8-0.8,1.6-0.8c1.7,0,2.3,0.9,2.3,2.8v4.3h-1.5v-4
				c0-1.3-0.3-1.9-1.2-1.9c-0.7,0-1.1,0.4-1.3,0.7v5.2h-1.5V101.8z"/>
			<path id="XMLID_180_" class="st4" d="M120.5,109.4v-3.8h-0.8v-0.4l0.6-0.9l1.1-1.7h0.5v1.7h1.6v1.3h-1.6v3.7
				c0,0.5,0.2,0.8,0.6,0.8c0.5,0,0.8-0.3,1-0.7v1.4c-0.2,0.3-0.6,0.6-1.3,0.6C121,111.5,120.5,110.7,120.5,109.4z"/>
			<path id="XMLID_177_" class="st4" d="M127,113.2v-1.3c0.5,0.5,1.4,0.7,2.6,0.7c1.5,0,2.1-0.3,2.1-0.9c0-0.5-0.5-0.7-1.4-0.7
				c-0.9,0-2.2,0.2-2.7,0.4v-1.2l0.9-1.6c-0.9-0.3-1.4-1.1-1.4-2.2c0-1.5,1.1-2.4,2.7-2.4c0.7,0,1.3,0.2,1.7,0.5
				c0.2-0.3,0.7-0.5,1.2-0.5c0.2,0,0.3,0,0.5,0.1v1.3c-0.1-0.1-0.3-0.1-0.4-0.1c-0.3,0-0.5,0.1-0.6,0.2c0.1,0.3,0.2,0.6,0.2,1
				c0,1.5-1.1,2.4-2.6,2.4h-0.2l-0.5,1c0.3-0.1,1-0.2,1.6-0.2c1.5,0,2.5,0.4,2.5,1.8c0,1.4-1.2,2.3-3.4,2.3
				C128.5,113.9,127.6,113.6,127,113.2z M130.9,106.5c0-0.8-0.5-1.2-1.2-1.2c-0.7,0-1.2,0.4-1.2,1.2c0,0.8,0.5,1.2,1.2,1.2
				C130.5,107.7,130.9,107.3,130.9,106.5z"/>
			<path id="XMLID_174_" class="st4" d="M133.7,109.5c0-1.4,1-2,2.7-2.3l0.9-0.2c0-1.2-0.5-1.6-1.4-1.6c-0.9,0-1.7,0.5-2,1.3v-1.7
				c0.2-0.4,0.9-1,2.2-1c1.7,0,2.7,0.9,2.7,2.9v4.2h-1.4l-0.1-0.6c-0.2,0.4-0.7,0.8-1.6,0.8C134.7,111.5,133.7,110.9,133.7,109.5z
				 M137.4,108.1l-0.8,0.2c-1,0.3-1.4,0.6-1.4,1.1c0,0.6,0.4,0.8,0.9,0.8c0.6,0,1.1-0.3,1.3-0.6V108.1z"/>
			<path id="XMLID_171_" class="st4" d="M140.3,102.7c0-0.5,0.3-0.8,0.8-0.8c0.5,0,0.8,0.3,0.8,0.8c0,0.5-0.3,0.8-0.8,0.8
				C140.5,103.5,140.3,103.3,140.3,102.7z M140.4,104.3h1.5v6.9h-1.5V104.3z"/>
			<path id="XMLID_169_" class="st4" d="M143.4,104.3h1.4l0.1,0.6c0.2-0.4,0.8-0.8,1.6-0.8c1.7,0,2.3,0.9,2.3,2.8v4.3h-1.5v-4
				c0-1.3-0.3-1.9-1.2-1.9c-0.7,0-1.1,0.4-1.3,0.7v5.2h-1.5V104.3z"/>
			<path id="XMLID_167_" class="st4" d="M47.8,122.5c0-2.1,0.9-4.2,2.4-5.1h1.3c-1.5,0.9-2.4,2.7-2.4,5.1c0,2.5,1,4.4,2.4,5.3h-1.3
				C48.7,126.9,47.8,124.7,47.8,122.5z"/>
			<path id="XMLID_164_" class="st4" d="M52.2,122.8l2.6-1.4l-2.6-1.4v-1.6l5.2,3v0.1l-5.2,3V122.8z M52.2,125h4.9v1.3h-4.9V125z"/>
			<path id="XMLID_162_" class="st4" d="M64,119.2h-3.3v-1.4h5.1v0.2l-2.7,8.4h-1.5L64,119.2z"/>
			<path id="XMLID_157_" class="st4" d="M69,119.8c0-1.8,0.8-2.4,1.8-2.4c0.4,0,0.7,0.1,1,0.3c0.5,0.3,0.8,0.4,1.5,0.4
				c0.8,0,1.3-0.3,1.6-0.7l0.7,0.4l-4.7,8.5h-1l4.1-7.5c-0.2,0.1-0.5,0.2-0.8,0.2s-0.6-0.1-0.9-0.2c0.1,0.3,0.1,0.6,0.1,0.9
				c0,1.8-0.8,2.3-1.8,2.3C69.8,122.1,69,121.5,69,119.8z M71.5,119.8c0-0.9-0.2-1.3-0.7-1.3c-0.5,0-0.7,0.4-0.7,1.3
				c0,0.9,0.2,1.3,0.7,1.3C71.3,121.1,71.5,120.7,71.5,119.8z M73.2,124.2c0-1.8,0.8-2.4,1.8-2.4c1,0,1.8,0.6,1.8,2.4
				s-0.8,2.3-1.8,2.3C74,126.5,73.2,125.9,73.2,124.2z M75.7,124.2c0-0.9-0.2-1.3-0.7-1.3c-0.5,0-0.7,0.4-0.7,1.3s0.2,1.3,0.7,1.3
				C75.5,125.5,75.7,125.1,75.7,124.2z"/>
			<path id="XMLID_154_" class="st4" d="M80.6,117.8c0-0.5,0.3-0.8,0.8-0.8c0.5,0,0.8,0.3,0.8,0.8c0,0.5-0.3,0.8-0.8,0.8
				C80.9,118.6,80.6,118.3,80.6,117.8z M80.7,119.4h1.5v6.9h-1.5V119.4z"/>
			<path id="XMLID_152_" class="st4" d="M83.7,119.4h1.4l0.1,0.6c0.2-0.4,0.8-0.8,1.6-0.8c1.7,0,2.3,0.9,2.3,2.8v4.3h-1.5v-4
				c0-1.3-0.3-1.9-1.2-1.9c-0.7,0-1.1,0.4-1.3,0.7v5.2h-1.5V119.4z"/>
			<path id="XMLID_150_" class="st4" d="M90.3,122.8c0-2.5,1.5-3.7,3.1-3.7c0.9,0,1.5,0.3,1.8,0.6v1.6c-0.4-0.6-0.9-0.8-1.7-0.8
				c-1,0-1.7,0.9-1.7,2.3c0,1.4,0.6,2.3,1.7,2.3c0.8,0,1.3-0.4,1.7-0.9v1.5c-0.3,0.4-1,0.8-1.9,0.8
				C91.5,126.5,90.3,125.3,90.3,122.8z"/>
			<path id="XMLID_148_" class="st4" d="M96.4,119.4h1.3l0.1,1c0.1-0.8,0.6-1.2,1.2-1.2c0.3,0,0.5,0.1,0.6,0.2v1.5
				c-0.1-0.1-0.4-0.2-0.7-0.2c-0.5,0-0.9,0.3-1.1,0.7v5h-1.5V119.4z"/>
			<path id="XMLID_145_" class="st4" d="M100.3,122.8c0-2.5,1.5-3.7,2.9-3.7c1.4,0,2.8,0.7,2.8,3.3v0.9h-4.2c0.1,1,0.6,1.8,1.8,1.8
				c1.1,0,1.8-0.5,2.1-1v1.5c-0.3,0.4-1,0.9-2.2,0.9C101.6,126.5,100.3,125.3,100.3,122.8z M104.6,122.2L104.6,122.2
				c0-1.1-0.4-1.7-1.4-1.7c-0.8,0-1.3,0.9-1.4,1.7H104.6z"/>
			<path id="XMLID_142_" class="st4" d="M106.9,124.5c0-1.4,1-2,2.7-2.3l0.9-0.2c0-1.2-0.5-1.6-1.4-1.6c-0.9,0-1.7,0.5-2,1.3v-1.7
				c0.2-0.4,0.9-1,2.2-1c1.7,0,2.7,0.9,2.7,2.9v4.2h-1.4l-0.1-0.6c-0.2,0.4-0.7,0.8-1.6,0.8C107.9,126.5,106.9,125.9,106.9,124.5z
				 M110.6,123.1l-0.8,0.2c-1,0.3-1.4,0.6-1.4,1.1c0,0.6,0.4,0.8,0.9,0.8c0.6,0,1.1-0.3,1.3-0.6V123.1z"/>
			<path id="XMLID_140_" class="st4" d="M113.3,125.9v-1.6c0.4,0.5,0.9,0.9,1.8,0.9s1.2-0.4,1.2-0.8c0-0.5-0.2-0.6-0.9-0.8l-0.3-0.1
				c-1.2-0.2-1.8-0.9-1.8-2.1c0-1.2,0.8-2.2,2.4-2.2c0.8,0,1.5,0.3,1.8,0.6v1.6c-0.4-0.5-0.9-0.9-1.8-0.9c-0.8,0-1.1,0.3-1.1,0.8
				c0,0.4,0.2,0.7,0.9,0.8l0.3,0.1c1.2,0.3,1.9,0.8,1.9,2.1c0,1.2-0.8,2.3-2.6,2.3C114.3,126.5,113.6,126.2,113.3,125.9z"/>
			<path id="XMLID_137_" class="st4" d="M118.6,122.8c0-2.5,1.5-3.7,2.9-3.7c1.4,0,2.8,0.7,2.8,3.3v0.9h-4.2c0.1,1,0.6,1.8,1.8,1.8
				c1.1,0,1.8-0.5,2.1-1v1.5c-0.3,0.4-1,0.9-2.2,0.9C119.9,126.5,118.6,125.3,118.6,122.8z M122.9,122.2L122.9,122.2
				c0-1.1-0.4-1.7-1.4-1.7c-0.8,0-1.3,0.9-1.4,1.7H122.9z"/>
			<path id="XMLID_135_" class="st4" d="M127.1,122.7c0-2.5-1-4.4-2.4-5.3h1.3c1.5,0.8,2.4,3.1,2.4,5.3c0,2.1-0.9,4.2-2.4,5.1h-1.3
				C126.2,126.9,127.1,125.1,127.1,122.7z"/>
		</g>
	</g>
</g>
<g id="XMLID_1_">
	<rect id="XMLID_130_" x="19.3" y="142.3" class="st1" width="132.1" height="16.9"/>
	<g id="XMLID_2_">
		<g id="XMLID_4_">
			<path id="XMLID_71_" class="st5" d="M26.5,148.8c-0.2,0.2-0.8,0.3-1.3,0.3v-1.4c0.9,0,1.5-0.3,2-0.9H28v6.9h-1.5V148.8z"/>
			<path id="XMLID_66_" class="st5" d="M29,151.8c0-0.8,0.4-1.3,1-1.6c-0.4-0.3-0.8-0.8-0.8-1.6c0-1.3,0.9-2,2.3-2
				c1.4,0,2.2,0.7,2.2,2c0,0.8-0.4,1.3-0.8,1.5c0.5,0.2,1,0.8,1,1.6c0,1.2-0.8,2-2.4,2C29.6,153.8,29,153,29,151.8z M32.2,151.7
				c0-0.5-0.3-0.8-0.9-0.8c-0.6,0-0.9,0.3-0.9,0.8c0,0.5,0.3,0.8,0.9,0.8C31.9,152.5,32.2,152.1,32.2,151.7z M32.1,148.8
				c0-0.5-0.3-0.8-0.8-0.8c-0.5,0-0.8,0.3-0.8,0.8c0,0.5,0.3,0.8,0.8,0.8C31.8,149.6,32.1,149.3,32.1,148.8z"/>
			<path id="XMLID_64_" class="st5" d="M38.8,145.9h1.1l-4.6,8.6h-1.1L38.8,145.9z"/>
			<path id="XMLID_62_" class="st5" d="M42.7,153.5V152c0.3,0.3,0.7,0.5,1.3,0.5c1,0,1.3-0.4,1.3-1c0-0.5-0.3-0.8-1.1-0.8h-0.5v-0.3
				l1.2-2.1h-2.2v-1.4h4.1v0.3l-1.3,2.4c0.8,0.2,1.4,0.6,1.4,1.9c0,1.2-0.8,2.4-2.7,2.4C43.4,153.8,42.9,153.6,42.7,153.5z"/>
			<path id="XMLID_60_" class="st5" d="M49.8,148.2h-2.5v-1.4h4.3v0.3l-2.1,6.5H48L49.8,148.2z"/>
			<path id="XMLID_58_" class="st5" d="M54.3,148.2h-2.5v-1.4h4.3v0.3l-2.1,6.5h-1.5L54.3,148.2z"/>
			<path id="XMLID_55_" class="st5" d="M58.4,147.5l-0.2-0.7h1.6c0.2,0.6,2.3,6.3,2.5,6.9h-1.6l-0.4-1.2H58l-0.4,1.2h-1.5
				L58.4,147.5z M58.4,151.2h1.4l-0.5-1.6l-0.2-0.6l-0.2,0.6L58.4,151.2z"/>
			<path id="XMLID_53_" class="st5" d="M62.7,153.4v-1.5c0.3,0.3,0.8,0.6,1.5,0.6c0.7,0,0.9-0.2,0.9-0.5c0-0.3-0.1-0.4-0.7-0.5
				l-0.3,0c-1.1-0.2-1.5-0.7-1.5-1.7c0-1,0.6-1.8,2.1-1.8c0.8,0,1.3,0.2,1.6,0.5v1.4c-0.3-0.4-0.9-0.6-1.5-0.6
				c-0.6,0-0.8,0.2-0.8,0.5s0.1,0.4,0.6,0.5l0.3,0c1.1,0.2,1.6,0.6,1.6,1.7c0,1-0.6,1.9-2.2,1.9C63.5,153.8,63,153.6,62.7,153.4z"/>
			<path id="XMLID_50_" class="st5" d="M67.1,150.9c0-2,1.2-2.9,2.5-2.9c1.2,0,2.3,0.6,2.3,2.7v0.7h-3.3c0.1,0.6,0.4,1.1,1.4,1.1
				c0.9,0,1.4-0.3,1.7-0.6v1.4c-0.3,0.3-0.9,0.6-1.9,0.6C68.1,153.8,67.1,152.9,67.1,150.9z M70.5,150.3L70.5,150.3
				c0-0.7-0.3-1.1-0.9-1.1c-0.6,0-0.9,0.5-0.9,1.1H70.5z"/>
			<path id="XMLID_48_" class="st5" d="M72.7,148.1H74l0.1,0.5c0.2-0.4,0.7-0.6,1.3-0.6c1.3,0,1.8,0.8,1.8,2.3v3.5h-1.5v-3.2
				c0-0.9-0.2-1.3-0.8-1.3c-0.4,0-0.7,0.2-0.8,0.5v4h-1.5V148.1z"/>
			<path id="XMLID_45_" class="st5" d="M78.1,152.2c0-1.1,0.7-1.6,2.1-1.8l0.7-0.1c0-0.8-0.3-1-1-1c-0.7,0-1.4,0.4-1.6,1v-1.6
				c0.2-0.3,0.8-0.7,1.9-0.7c1.5,0,2.3,0.7,2.3,2.4v3.3h-1.3l-0.1-0.5c-0.1,0.3-0.5,0.6-1.3,0.6C78.8,153.8,78.1,153.3,78.1,152.2z
				 M81,151.3l-0.6,0.1c-0.7,0.2-0.9,0.3-0.9,0.7c0,0.4,0.2,0.5,0.6,0.5c0.4,0,0.7-0.2,0.9-0.4V151.3z"/>
			<path id="XMLID_42_" class="st5" d="M83.5,148.1h1.3l0.1,0.5c0.2-0.3,0.6-0.6,1.3-0.6c1.3,0,2.1,0.8,2.1,2.8c0,2-1,3.1-2.3,3.1
				c-0.4,0-0.9-0.1-1.1-0.4v2.1h-1.5V148.1z M86.8,150.8c0-1-0.2-1.6-1-1.6c-0.4,0-0.7,0.2-0.9,0.4v2.5c0.2,0.3,0.5,0.3,0.8,0.3
				C86.5,152.6,86.8,151.8,86.8,150.8z"/>
			<path id="XMLID_39_" class="st5" d="M89.1,146.8c0-0.5,0.3-0.8,0.8-0.8c0.5,0,0.8,0.3,0.8,0.8s-0.3,0.8-0.8,0.8
				C89.4,147.5,89.1,147.3,89.1,146.8z M89.1,148.1h1.5v5.6h-1.5V148.1z"/>
			<path id="XMLID_37_" class="st5" d="M91.7,148.1H93l0.1,0.5c0.2-0.4,0.7-0.6,1.3-0.6c1.3,0,1.8,0.8,1.8,2.3v3.5h-1.5v-3.2
				c0-0.9-0.2-1.3-0.8-1.3c-0.4,0-0.7,0.2-0.8,0.5v4h-1.5V148.1z"/>
			<path id="XMLID_34_" class="st5" d="M97.1,150.9c0-2,1.2-2.9,2.5-2.9c1.2,0,2.3,0.6,2.3,2.7v0.7h-3.3c0.1,0.6,0.4,1.1,1.4,1.1
				c0.9,0,1.4-0.3,1.7-0.6v1.4c-0.3,0.3-0.9,0.6-1.9,0.6C98.1,153.8,97.1,152.9,97.1,150.9z M100.5,150.3L100.5,150.3
				c0-0.7-0.3-1.1-0.9-1.1c-0.6,0-0.9,0.5-0.9,1.1H100.5z"/>
			<path id="XMLID_32_" class="st5" d="M105,146.8h2.1c1.9,0,2.7,0.8,2.7,2.3c0,1.5-0.8,2.6-2.7,2.6h-0.3v-1.2h0.3
				c0.8,0,1.1-0.4,1.1-1.2c0-0.8-0.4-1.2-1.1-1.2h-0.5v5.6H105V146.8z"/>
			<path id="XMLID_29_" class="st5" d="M110.2,152.2c0-1.1,0.7-1.6,2.1-1.8l0.7-0.1c0-0.8-0.3-1-1-1c-0.7,0-1.4,0.4-1.6,1v-1.6
				c0.2-0.3,0.8-0.7,1.9-0.7c1.5,0,2.3,0.7,2.3,2.4v3.3h-1.3l-0.1-0.5c-0.1,0.3-0.5,0.6-1.3,0.6
				C110.9,153.8,110.2,153.3,110.2,152.2z M113.1,151.3l-0.6,0.1c-0.7,0.2-0.9,0.3-0.9,0.7c0,0.4,0.2,0.5,0.6,0.5
				c0.4,0,0.7-0.2,0.9-0.4V151.3z"/>
			<path id="XMLID_27_" class="st5" d="M115.9,152.1v-2.7h-0.6v-0.6l0.5-0.7l0.9-1.3h0.7v1.3h1.2v1.3h-1.2v2.5
				c0,0.4,0.1,0.6,0.4,0.6c0.3,0,0.6-0.2,0.7-0.5v1.3c-0.2,0.2-0.5,0.5-1.2,0.5C116.3,153.8,115.9,153.2,115.9,152.1z"/>
			<path id="XMLID_24_" class="st5" d="M119.3,146.8c0-0.5,0.3-0.8,0.8-0.8c0.5,0,0.8,0.3,0.8,0.8s-0.3,0.8-0.8,0.8
				C119.6,147.5,119.3,147.3,119.3,146.8z M119.4,148.1h1.5v5.6h-1.5V148.1z"/>
			<path id="XMLID_21_" class="st5" d="M121.7,150.9c0-2,1.2-2.9,2.5-2.9c1.2,0,2.3,0.6,2.3,2.7v0.7h-3.3c0.1,0.6,0.4,1.1,1.4,1.1
				c0.9,0,1.4-0.3,1.7-0.6v1.4c-0.3,0.3-0.9,0.6-1.9,0.6C122.7,153.8,121.7,152.9,121.7,150.9z M125.1,150.3L125.1,150.3
				c0-0.7-0.3-1.1-0.9-1.1c-0.6,0-0.9,0.5-0.9,1.1H125.1z"/>
			<path id="XMLID_19_" class="st5" d="M127.3,148.1h1.3l0.1,0.5c0.2-0.4,0.7-0.6,1.3-0.6c1.3,0,1.8,0.8,1.8,2.3v3.5h-1.5v-3.2
				c0-0.9-0.2-1.3-0.8-1.3c-0.4,0-0.7,0.2-0.8,0.5v4h-1.5V148.1z"/>
			<path id="XMLID_15_" class="st5" d="M133.2,152.1v-2.7h-0.6v-0.6l0.5-0.7l0.9-1.3h0.7v1.3h1.2v1.3h-1.2v2.5
				c0,0.4,0.1,0.6,0.4,0.6c0.3,0,0.6-0.2,0.7-0.5v1.3c-0.2,0.2-0.5,0.5-1.2,0.5C133.6,153.8,133.2,153.2,133.2,152.1z"/>
			<path id="XMLID_5_" class="st5" d="M136.6,153.4v-1.5c0.3,0.3,0.8,0.6,1.5,0.6c0.7,0,0.9-0.2,0.9-0.5c0-0.3-0.1-0.4-0.7-0.5
				l-0.3,0c-1.1-0.2-1.5-0.7-1.5-1.7c0-1,0.6-1.8,2.1-1.8c0.8,0,1.3,0.2,1.6,0.5v1.4c-0.3-0.4-0.9-0.6-1.5-0.6
				c-0.6,0-0.8,0.2-0.8,0.5s0.1,0.4,0.6,0.5l0.3,0c1.1,0.2,1.6,0.6,1.6,1.7c0,1-0.6,1.9-2.2,1.9
				C137.4,153.8,136.8,153.6,136.6,153.4z"/>
		</g>
	</g>
</g>
</svg>
