<!-- Generator: Adobe Illustrator 22.1.0, SVG Export Plug-In  -->
<svg version="1.1"
	 xmlns="http://www.w3.org/2000/svg" xmlns:xlink="http://www.w3.org/1999/xlink" xmlns:a="http://ns.adobe.com/AdobeSVGViewerExtensions/3.0/"
	 x="0px" y="0px" width="25.5px" height="25.5px" viewBox="0 0 25.5 25.5" style="enable-background:new 0 0 25.5 25.5;"
	 xml:space="preserve">
<style type="text/css">
	.st0{fill:#E4EA91;}
	.st1{fill:#652D90;}
</style>
<defs>
</defs>
<ellipse id="XMLID_11_" transform="matrix(1.351436e-02 -0.9999 0.9999 1.351436e-02 -0.1699 25.3068)" class="st0" cx="12.7" cy="12.7" rx="12.7" ry="12.7"/>
<g id="XMLID_1_">
	<g>
		<path id="XMLID_5_" class="st1" d="M6,7.2h1.7l2,6.6h0.1l2.1-6.6h1.6l-3.1,9.4H9.1L6,7.2z"/>
		<path id="XMLID_3_" class="st1" d="M14.2,16.1v-1.7c0.4,0.5,1,0.9,2,0.9s1.3-0.4,1.3-0.9c0-0.5-0.2-0.7-1-0.9l-0.3-0.1
			c-1.3-0.3-2-1-2-2.3c0-1.3,0.9-2.4,2.7-2.4c0.9,0,1.7,0.3,2,0.7v1.7c-0.4-0.6-1-1-2-1c-0.9,0-1.2,0.3-1.2,0.8s0.2,0.7,1,0.9
			l0.3,0.1c1.4,0.3,2.1,0.9,2.1,2.3c0,1.3-0.9,2.6-2.9,2.6C15.3,16.8,14.6,16.4,14.2,16.1z"/>
	</g>
</g>
</svg>
