<!-- Generator: Adobe Illustrator 22.1.0, SVG Export Plug-In  -->
<svg version="1.1"
	 xmlns="http://www.w3.org/2000/svg" xmlns:xlink="http://www.w3.org/1999/xlink" xmlns:a="http://ns.adobe.com/AdobeSVGViewerExtensions/3.0/"
	 x="0px" y="0px" width="318.3px" height="45.3px" viewBox="0 0 318.3 45.3" style="enable-background:new 0 0 318.3 45.3;"
	 xml:space="preserve">
<style type="text/css">
	.st0{fill:#490E67;}
	.st1{fill:#C29FD8;}
</style>
<defs>
</defs>
<g id="XMLID_38_">
	<path id="XMLID_88_" class="st0" d="M17.7,29.3h14.5c2.2,0,3.2-0.4,3.2-1.5c0-1.1-0.7-1.4-2.2-1.5c-6.9-0.6-8.9-2.5-8.9-7
		c0-4.5,2.9-7.5,9.7-7.5c4,0,5.9,0.5,7.3,1.1v5.9c-2-0.8-4.5-1.4-7.1-1.4c-2,0-3.1,0.4-3.1,1.5c0,1.1,0.7,1.4,2.2,1.5
		c6.9,0.6,8.9,2.5,8.9,7c0,4.2-2.5,7.5-9.9,7.5H19"/>
	<path id="XMLID_85_" class="st0" d="M50.4,25.6c-0.2,2.9,1.3,3.7,4.7,3.7c3.3,0,5.8-0.7,7.3-1.5v5.5c-2.5,1.1-5.6,1.5-8.3,1.5
		c-7.2,0-10.8-3.7-10.8-11.6c0-7.9,3.5-11.6,10.3-11.6c9.4,0,10.1,7,9.5,13.9H50.4z M50.4,21.3h6.2c0.4-2.4-0.1-4.4-2.8-4.4
		C51.4,17,50.4,18.6,50.4,21.3"/>
	<path id="XMLID_84_" class="st0" d="M69.5,12.3l0.9,1.6c2.5-1.5,5.2-2.2,7.6-2.2c6,0,7.7,3.2,7.7,7.4v15.2h-7V20.1
		c0-1.6-0.6-2.7-2.5-2.7c-1.7,0-3.3,0.7-3.9,1.1v15.7h-7v-22H69.5z"/>
	<path id="XMLID_81_" class="st0" d="M99.4,18.9c0-1-0.7-1.5-2.6-1.5c-2.8,0-6,0.8-7.9,1.7v-5.9c1.5-0.7,4.8-1.5,7.9-1.5
		c7.9,0,9.4,3.4,9.4,8.3v14.3h-4.2l-1-1.7c-1.6,1.4-3.8,2.3-6.5,2.3c-5.6,0-7.5-3.7-7.5-7c0-5.9,4.3-6.8,8.3-7.2l4-0.4V18.9z
		 M96.4,24.5c-2,0.3-2.8,1.2-2.8,2.9c0,1.6,1.1,2.6,2.5,2.6c1.3,0,2.5-0.4,3.2-1.1v-4.9L96.4,24.5z"/>
	<path id="XMLID_78_" class="st0" d="M112.7,12.3l1.2,1.8c1.5-1.3,3.6-2.4,7.1-2.4c5.7,0,8.5,3.5,8.5,11.6c0,8.1-2.8,11.6-8.5,11.6
		c-2.4,0-4.2-0.6-5.5-1.4v11.8h-7V12.3H112.7z M115.5,28.3c0,0,1.4,0.9,3.1,0.9c3.2,0,4-2.2,4-5.9c0-3.8-0.7-5.8-4-5.8
		c-1.8,0-3.1,0.9-3.1,0.9V28.3z"/>
	<path id="XMLID_77_" class="st0" d="M140.2,34.5c0,0-0.9,0.2-2,0.2c-3.8,0-6.8-1.9-6.8-6.2V12.3h7v15.2c0,0.8,0.4,1.3,1.8,1.3V34.5
		z"/>
	<path id="XMLID_76_" class="st0" d="M146.1,12.3l0.9,1.6c2.5-1.5,5.2-2.2,7.6-2.2c6,0,7.7,3.2,7.7,7.4v15.2h-7V20.1
		c0-1.6-0.6-2.7-2.5-2.7c-1.7,0-3.3,0.7-3.9,1.1v15.7h-7v-22H146.1z"/>
	<path id="XMLID_73_" class="st0" d="M170.7,25.6c-0.2,2.9,1.3,3.7,4.7,3.7c3.3,0,5.8-0.7,7.3-1.5v5.5c-2.5,1.1-5.6,1.5-8.3,1.5
		c-7.2,0-10.8-3.7-10.8-11.6c0-7.9,3.5-11.6,10.3-11.6c9.4,0,10.1,7,9.5,13.9H170.7z M170.7,21.3h6.2c0.4-2.4-0.1-4.4-2.8-4.4
		C171.8,17,170.7,18.6,170.7,21.3"/>
	<polyline id="XMLID_72_" class="st0" points="10.4,27.5 11.8,21.9 16,21.9 13.2,9.5 10.4,21.9 9,27.5 7.5,34.3 0,34.3 9.1,1.2 
		17.2,1.2 26.4,34.3 18.9,34.3 17.3,27.5 	"/>
	<g id="XMLID_44_">
		<polygon id="XMLID_71_" class="st0" points="122.5,44.9 122.5,41 118.4,41 118.4,44.9 117.6,44.9 117.6,36.7 118.4,36.7 
			118.4,40.3 122.5,40.3 122.5,36.7 123.2,36.7 123.2,44.9 		"/>
		<path id="XMLID_68_" class="st0" d="M125.3,37.2c0.3,0,0.5,0.2,0.5,0.6c0,0.3-0.2,0.6-0.5,0.6c-0.3,0-0.6-0.2-0.6-0.6
			C124.8,37.4,125,37.2,125.3,37.2 M125,43.8v-4.4h0.8v4.5c0,0.4,0.1,0.5,0.5,0.5V45C125.4,45,125,44.7,125,43.8"/>
		<polygon id="XMLID_67_" class="st0" points="129.4,41.7 132,44.9 131.1,44.9 128.9,42.1 128.2,42.8 128.2,44.9 127.4,44.9 
			127.4,36.7 128.2,36.7 128.2,41.9 130.7,39.4 131.7,39.4 		"/>
		<path id="XMLID_66_" class="st0" d="M139.5,40.9c0-0.7-0.4-0.9-1-0.9c-0.7,0-1.1,0.1-1.5,0.4c0,0.2,0.1,0.4,0.1,0.6v4h-0.8v-4
			c0-0.7-0.4-0.9-1-0.9c-0.6,0-1,0.1-1.4,0.3v4.6H133v-5.5h0.4l0.2,0.5c0.5-0.4,1.1-0.6,1.6-0.6c0.7,0,1.3,0.2,1.5,0.6
			c0.6-0.4,1.2-0.6,1.7-0.6c1.2,0,1.8,0.6,1.8,1.7v4h-0.8V40.9z"/>
		<path id="XMLID_63_" class="st0" d="M143.6,40c-0.7,0-1.2,0.1-1.7,0.3v-0.7c0.5-0.2,1.1-0.3,1.7-0.3c1.7,0,2.1,0.7,2.1,1.9v3.8
			h-0.4l-0.2-0.4c-0.5,0.4-1.1,0.6-1.7,0.6c-1.4,0-1.9-0.8-1.9-1.8c0-0.9,0.5-1.6,2-1.7l1.5-0.1v-0.3C144.9,40.3,144.6,40,143.6,40
			 M143.4,42.1c-0.8,0.1-1.1,0.5-1.1,1.1c0,0.5,0.1,1.1,1.2,1.1c0.6,0,1-0.2,1.5-0.4V42L143.4,42.1z"/>
		<path id="XMLID_60_" class="st0" d="M149.8,44.9h-0.8v-8.3h2.5c2.1,0,2.8,1.2,2.8,2.5c0,1.3-0.7,2.5-2.8,2.5h-1.8V44.9z
			 M149.8,40.9h1.9c1.6,0,1.9-1,1.9-1.8c0-0.8-0.3-1.8-1.9-1.8h-1.9V40.9z"/>
		<path id="XMLID_58_" class="st0" d="M157.7,40c-0.7,0-1.1,0.1-1.5,0.4v4.6h-0.8v-8.3h0.8v3.1c0.5-0.3,1-0.5,1.5-0.5
			c1.3,0,1.9,0.6,1.9,1.7v4h-0.8v-4C158.8,40.2,158.4,40,157.7,40"/>
		<path id="XMLID_52_" class="st0" d="M162.9,40c-0.7,0-1.2,0.1-1.7,0.3v-0.7c0.5-0.2,1.1-0.3,1.7-0.3c1.6,0,2.1,0.7,2.1,1.9v3.8
			h-0.4l-0.2-0.4c-0.5,0.4-1.1,0.6-1.7,0.6c-1.4,0-1.9-0.8-1.9-1.8c0-0.9,0.5-1.6,2-1.7l1.5-0.1v-0.3C164.2,40.3,164,40,162.9,40
			 M162.7,42.1c-0.8,0.1-1.1,0.5-1.1,1.1c0,0.5,0.1,1.1,1.2,1.1c0.6,0,1-0.2,1.5-0.4V42L162.7,42.1z"/>
		<path id="XMLID_51_" class="st0" d="M169.5,40.1c-0.2-0.1-0.4-0.1-0.7-0.1c-0.7,0-1.2,0.1-1.6,0.4v4.6h-0.8v-5.5h0.4l0.2,0.5
			c0.5-0.4,1.2-0.6,1.8-0.6c0.3,0,0.5,0,0.7,0.1V40.1z"/>
		<path id="XMLID_50_" class="st0" d="M177,40.9c0-0.7-0.4-0.9-1.1-0.9c-0.7,0-1.1,0.1-1.5,0.4c0,0.2,0.1,0.4,0.1,0.6v4h-0.8v-4
			c0-0.7-0.4-0.9-1-0.9c-0.6,0-1,0.1-1.4,0.3v4.6h-0.8v-5.5h0.4l0.2,0.5c0.5-0.4,1.1-0.6,1.6-0.6c0.7,0,1.3,0.2,1.5,0.6
			c0.6-0.4,1.2-0.6,1.7-0.6c1.2,0,1.8,0.6,1.8,1.7v4H177V40.9z"/>
		<path id="XMLID_46_" class="st0" d="M181.1,40c-0.7,0-1.2,0.1-1.7,0.3v-0.7c0.5-0.2,1.1-0.3,1.7-0.3c1.7,0,2.1,0.7,2.1,1.9v3.8
			h-0.4l-0.2-0.4c-0.5,0.4-1.1,0.6-1.7,0.6c-1.4,0-1.9-0.8-1.9-1.8c0-0.9,0.5-1.6,2-1.7l1.5-0.1v-0.3C182.4,40.3,182.1,40,181.1,40
			 M180.9,42.1c-0.8,0.1-1.1,0.5-1.1,1.1c0,0.5,0.1,1.1,1.2,1.1c0.6,0,1-0.2,1.5-0.4V42L180.9,42.1z"/>
	</g>
	<g id="XMLID_39_">
		<path id="XMLID_43_" class="st0" d="M137.5,0c-0.9,0-1.8,0.2-2.6,0.6c0.3,0.2,0.7,0.4,0.9,0.6c1.9,0.4,3.2,2.1,3.2,4.1
			c0,2-1.4,3.7-3.2,4.1c-0.3,0.3-0.6,0.5-1,0.7c0.8,0.4,1.6,0.6,2.6,0.6c3,0,5.3-2.3,5.3-5.3C142.9,2.4,140.5,0,137.5,0z"/>
		<path id="XMLID_42_" class="st1" d="M130.8,5.3c0-2,1.3-3.6,3.2-4.1c0.3-0.2,0.6-0.5,0.9-0.7c-0.8-0.4-1.6-0.6-2.5-0.6
			c-3,0-5.3,2.4-5.3,5.3c0,3,2.3,5.3,5.3,5.3c0.9,0,1.8-0.2,2.5-0.6c-0.4-0.2-0.7-0.4-1-0.7C132.1,9,130.8,7.4,130.8,5.3z"/>
		<path id="XMLID_41_" class="st1" d="M135,9.5c-0.3,0-0.7,0-1-0.1c0.3,0.3,0.6,0.5,1,0.7c0.3-0.2,0.7-0.4,1-0.7
			C135.6,9.5,135.3,9.5,135,9.5z"/>
		<path id="XMLID_40_" class="st1" d="M135,1.2c0.3,0,0.6,0,0.9,0.1c-0.3-0.2-0.6-0.5-0.9-0.6c-0.3,0.2-0.7,0.4-0.9,0.7
			C134.3,1.2,134.6,1.2,135,1.2z"/>
	</g>
</g>
<g id="XMLID_1_">
	<path id="XMLID_35_" d="M208.6,17.2c0-0.8,0.5-1.3,1.4-1.3c0.9,0,1.5,0.5,1.5,1.3c0,0.8-0.6,1.3-1.5,1.3
		C209.1,18.5,208.6,18,208.6,17.2z M208.6,19.4h2.8v9.5h-2.8V19.4z"/>
	<path id="XMLID_30_" d="M213.2,28.4v-2.5c0.6,0.6,1.5,1.1,2.8,1.1c1.2,0,1.6-0.4,1.6-0.9c0-0.5-0.2-0.7-1.3-0.9l-0.5-0.1
		c-2-0.3-2.8-1.2-2.8-2.9c0-1.6,1.1-3.1,3.9-3.1c1.4,0,2.5,0.3,3,0.8v2.5c-0.6-0.7-1.6-1-2.9-1c-1.1,0-1.5,0.3-1.5,0.8
		s0.2,0.7,1.2,0.9l0.5,0.1c2.1,0.3,3,1.1,3,2.8c0,1.6-1.1,3.3-4.1,3.3C214.6,29.2,213.7,28.9,213.2,28.4z"/>
	<path id="XMLID_27_" d="M225.3,26.4c0-1.9,1.3-2.7,4-3.1l1.4-0.2c0-1.3-0.7-1.7-1.9-1.7c-1.3,0-2.6,0.7-3.1,1.7v-2.7
		c0.4-0.5,1.5-1.3,3.5-1.3c2.7,0,4.2,1.2,4.2,4.1v5.7h-2.4l-0.2-0.8c-0.3,0.5-1,1.1-2.3,1.1C226.7,29.2,225.3,28.3,225.3,26.4z
		 M230.7,24.8l-1.1,0.2c-1.2,0.3-1.7,0.6-1.7,1.2c0,0.6,0.5,0.9,1.1,0.9c0.8,0,1.4-0.3,1.6-0.6V24.8z"/>
	<path id="XMLID_25_" d="M234.5,19.4h3L239,24l0.3,1c0.1-0.3,0.2-0.8,0.3-1l1.6-4.5h2.7l-3.8,9.5h-1.9L234.5,19.4z"/>
	<path id="XMLID_22_" d="M244.5,26.4c0-1.9,1.3-2.7,4-3.1l1.4-0.2c0-1.3-0.7-1.7-1.9-1.7c-1.3,0-2.6,0.7-3.1,1.7v-2.7
		c0.4-0.5,1.5-1.3,3.5-1.3c2.7,0,4.2,1.2,4.2,4.1v5.7h-2.4l-0.2-0.8c-0.3,0.5-1,1.1-2.3,1.1C245.8,29.2,244.5,28.3,244.5,26.4z
		 M249.9,24.8l-1.1,0.2c-1.2,0.3-1.7,0.6-1.7,1.2c0,0.6,0.5,0.9,1.1,0.9c0.8,0,1.4-0.3,1.6-0.6V24.8z"/>
	<path id="XMLID_19_" d="M254.5,17.2c0-0.8,0.5-1.3,1.4-1.3c0.9,0,1.5,0.5,1.5,1.3c0,0.8-0.6,1.3-1.5,1.3
		C255.1,18.5,254.5,18,254.5,17.2z M254.6,19.4h2.8v9.5h-2.8V19.4z"/>
	<path id="XMLID_17_" d="M259.3,26.6V16h2.8v10.2c0,0.5,0.2,0.7,0.6,0.7s0.7-0.2,0.8-0.4v2.2c-0.2,0.2-0.8,0.5-1.7,0.5
		C260.2,29.2,259.3,28.3,259.3,26.6z"/>
	<path id="XMLID_14_" d="M264.3,26.4c0-1.9,1.3-2.7,4-3.1l1.4-0.2c0-1.3-0.7-1.7-1.9-1.7c-1.3,0-2.6,0.7-3.1,1.7v-2.7
		c0.4-0.5,1.5-1.3,3.5-1.3c2.7,0,4.2,1.2,4.2,4.1v5.7h-2.4l-0.2-0.8c-0.3,0.5-1,1.1-2.3,1.1C265.7,29.2,264.3,28.3,264.3,26.4z
		 M269.7,24.8l-1.1,0.2c-1.2,0.3-1.7,0.6-1.7,1.2c0,0.6,0.5,0.9,1.1,0.9c0.8,0,1.4-0.3,1.6-0.6V24.8z"/>
	<path id="XMLID_11_" d="M276.9,28.3l-0.3,0.7h-2.1V16h2.8v4.2c0.3-0.5,1.1-1,2.4-1c2.3,0,3.8,1.3,3.8,4.8c0,3.5-1.8,5.3-4.2,5.3
		C277.9,29.2,277.3,28.7,276.9,28.3z M277.2,26.4c0.4,0.5,0.9,0.6,1.5,0.6c1.3,0,1.8-1.3,1.8-3s-0.5-2.6-1.8-2.6
		c-0.8,0-1.3,0.3-1.6,0.8V26.4z"/>
	<path id="XMLID_9_" d="M284.9,26.6V16h2.8v10.2c0,0.5,0.2,0.7,0.6,0.7s0.7-0.2,0.8-0.4v2.2c-0.2,0.2-0.8,0.5-1.7,0.5
		C285.8,29.2,284.9,28.3,284.9,26.6z"/>
	<path id="XMLID_6_" d="M290,24.2c0-3.5,2.3-5,4.6-5c2.3,0,4.4,1,4.4,4.6V25h-6.1c0.1,1.1,0.8,1.9,2.6,1.9c1.6,0,2.6-0.6,3.1-1.1
		v2.3c-0.5,0.5-1.6,1.1-3.5,1.1C291.8,29.2,290,27.6,290,24.2z M296.3,23.3L296.3,23.3c0-1.2-0.5-1.9-1.7-1.9
		c-1.1,0-1.7,0.9-1.7,1.9H296.3z"/>
	<path id="XMLID_4_" d="M304.7,17.2h2.9v11.7h-2.9V17.2z"/>
	<path id="XMLID_2_" d="M309.7,19.4h2.5l0.2,0.8c0.4-0.6,1.3-1.1,2.5-1.1c2.5,0,3.4,1.3,3.4,3.9v5.9h-2.8v-5.4
		c0-1.6-0.4-2.1-1.5-2.1c-0.8,0-1.3,0.4-1.6,0.8v6.8h-2.8V19.4z"/>
</g>
</svg>
