<!-- Generator: Adobe Illustrator 22.1.0, SVG Export Plug-In  -->
<svg version="1.1"
	 xmlns="http://www.w3.org/2000/svg" xmlns:xlink="http://www.w3.org/1999/xlink" xmlns:a="http://ns.adobe.com/AdobeSVGViewerExtensions/3.0/"
	 x="0px" y="0px" width="411.6px" height="303.2px" viewBox="0 0 411.6 303.2" style="enable-background:new 0 0 411.6 303.2;"
	 xml:space="preserve">
<style type="text/css">
	.st0{fill:#231F20;}
	.st1{fill:none;stroke:#652D90;stroke-width:0.8964;stroke-miterlimit:10;}
	.st2{fill:#652D90;}
	.st3{fill:#FFFFFF;}
</style>
<defs>
</defs>
<g id="XMLID_649_">
	<path id="XMLID_789_" class="st0" d="M8.2,34.6h2c2,0,2.8,0.9,2.8,2.4c0,1.5-0.8,2.7-2.8,2.7H9.9v-1.1h0.3c1,0,1.5-0.6,1.5-1.5
		c0-0.9-0.4-1.4-1.5-1.4H9.6V42H8.2V34.6z"/>
	<path id="XMLID_786_" class="st0" d="M13.6,39c0-2.2,1.3-3.2,2.6-3.2c1.2,0,2.4,0.6,2.4,2.8v0.8h-3.7c0.1,0.8,0.5,1.5,1.6,1.5
		c1,0,1.5-0.4,1.8-0.9v1.3c-0.3,0.3-0.9,0.8-2,0.8C14.7,42.1,13.6,41.1,13.6,39z M17.3,38.4L17.3,38.4c0-1-0.4-1.5-1.2-1.5
		c-0.7,0-1.2,0.7-1.2,1.5H17.3z"/>
	<path id="XMLID_784_" class="st0" d="M19.6,36h1.1l0.1,0.8c0-0.7,0.5-1,1.1-1c0.3,0,0.5,0.1,0.6,0.2v1.3c-0.1-0.1-0.3-0.2-0.6-0.2
		c-0.5,0-0.7,0.2-0.9,0.6V42h-1.3V36z"/>
	<path id="XMLID_782_" class="st0" d="M23,39c0-2.2,1.3-3.2,2.7-3.2c0.7,0,1.3,0.3,1.6,0.6v1.4c-0.3-0.5-0.8-0.7-1.5-0.7
		c-0.9,0-1.4,0.7-1.4,2c0,1.2,0.5,2,1.4,2c0.7,0,1.2-0.3,1.5-0.8v1.3c-0.2,0.3-0.9,0.7-1.6,0.7C24.1,42.1,23,41.1,23,39z"/>
	<path id="XMLID_779_" class="st0" d="M28,39c0-2.2,1.3-3.2,2.6-3.2c1.2,0,2.4,0.6,2.4,2.8v0.8h-3.7c0.1,0.8,0.5,1.5,1.6,1.5
		c1,0,1.5-0.4,1.8-0.9v1.3c-0.3,0.3-0.9,0.8-2,0.8C29.2,42.1,28,41.1,28,39z M31.8,38.4L31.8,38.4c0-1-0.4-1.5-1.2-1.5
		c-0.7,0-1.2,0.7-1.2,1.5H31.8z"/>
	<path id="XMLID_777_" class="st0" d="M34.1,36h1.2l0.1,0.5c0.2-0.4,0.7-0.7,1.4-0.7c1.4,0,2,0.8,2,2.4V42h-1.3v-3.5
		c0-1.2-0.2-1.6-1-1.6c-0.6,0-1,0.3-1.1,0.6V42h-1.3V36z"/>
	<path id="XMLID_775_" class="st0" d="M40.3,40.4v-3.3h-0.7v-0.4l0.5-0.7l1-1.4h0.4V36h1.4v1.1h-1.4v3.2c0,0.5,0.1,0.7,0.5,0.7
		c0.4,0,0.7-0.2,0.9-0.6v1.2c-0.2,0.2-0.5,0.5-1.1,0.5C40.7,42.1,40.3,41.5,40.3,40.4z"/>
	<path id="XMLID_772_" class="st0" d="M46,39c0-2.2,1.3-3.2,2.7-3.2c1.5,0,2.6,1,2.6,3.2c0,2.2-1.3,3.2-2.7,3.2
		C47.1,42.1,46,41.1,46,39z M50,39c0-1.2-0.4-2-1.3-2c-0.9,0-1.3,0.8-1.3,2c0,1.2,0.4,2,1.3,2C49.6,41,50,40.2,50,39z"/>
	<path id="XMLID_770_" class="st0" d="M52.6,37.1h-0.7v-0.4l0.6-0.6c-0.1-0.2-0.2-0.5-0.2-0.8c0-1.1,0.8-1.7,1.8-1.7
		c0.7,0,1.1,0.2,1.2,0.4v1.3c-0.2-0.3-0.5-0.5-1-0.5c-0.5,0-0.8,0.2-0.8,0.7c0,0.2,0.1,0.4,0.1,0.5h1.1v1.1h-1.1V42h-1.3V37.1z"/>
	<path id="XMLID_767_" class="st0" d="M58.2,36h1.2l0.1,0.5c0.2-0.3,0.6-0.7,1.4-0.7c1.3,0,2.2,0.8,2.2,3c0,2.2-1.1,3.3-2.5,3.3
		c-0.4,0-0.9-0.1-1.2-0.4v2.3h-1.3V36z M61.8,38.9c0-1.2-0.3-2-1.2-2c-0.6,0-0.9,0.3-1.1,0.6v3.1c0.2,0.3,0.6,0.4,1,0.4
		C61.4,41,61.8,40.1,61.8,38.9z"/>
	<path id="XMLID_764_" class="st0" d="M63.9,40.4c0-1.2,0.9-1.7,2.4-2l0.8-0.1c0-1-0.5-1.4-1.2-1.4c-0.8,0-1.5,0.5-1.7,1.1v-1.4
		c0.2-0.4,0.8-0.9,2-0.9c1.5,0,2.3,0.8,2.3,2.5V42h-1.2l-0.1-0.5c-0.1,0.3-0.6,0.7-1.4,0.7C64.7,42.1,63.9,41.6,63.9,40.4z
		 M67.1,39.2l-0.7,0.2c-0.9,0.2-1.2,0.5-1.2,1s0.3,0.7,0.8,0.7c0.5,0,1-0.2,1.1-0.5V39.2z"/>
	<path id="XMLID_762_" class="st0" d="M69.9,40.4v-3.3h-0.7v-0.4l0.5-0.7l1-1.4h0.4V36h1.4v1.1h-1.4v3.2c0,0.5,0.1,0.7,0.5,0.7
		c0.4,0,0.7-0.2,0.9-0.6v1.2c-0.2,0.2-0.5,0.5-1.1,0.5C70.3,42.1,69.9,41.5,69.9,40.4z"/>
	<path id="XMLID_759_" class="st0" d="M73.5,34.5c0-0.5,0.2-0.7,0.7-0.7c0.5,0,0.7,0.3,0.7,0.7c0,0.5-0.3,0.7-0.7,0.7
		C73.7,35.2,73.5,35,73.5,34.5z M73.5,36h1.3v6h-1.3V36z"/>
	<path id="XMLID_756_" class="st0" d="M75.9,39c0-2.2,1.3-3.2,2.6-3.2c1.2,0,2.4,0.6,2.4,2.8v0.8h-3.7c0.1,0.8,0.5,1.5,1.6,1.5
		c1,0,1.5-0.4,1.8-0.9v1.3c-0.3,0.3-0.9,0.8-2,0.8C77,42.1,75.9,41.1,75.9,39z M79.6,38.4L79.6,38.4c0-1-0.4-1.5-1.2-1.5
		c-0.7,0-1.2,0.7-1.2,1.5H79.6z"/>
	<path id="XMLID_754_" class="st0" d="M81.9,36h1.2l0.1,0.5c0.2-0.4,0.7-0.7,1.4-0.7c1.4,0,2,0.8,2,2.4V42h-1.3v-3.5
		c0-1.2-0.2-1.6-1-1.6c-0.6,0-1,0.3-1.1,0.6V42h-1.3V36z"/>
	<path id="XMLID_752_" class="st0" d="M88.1,40.4v-3.3h-0.7v-0.4L88,36l1-1.4h0.4V36h1.4v1.1h-1.4v3.2c0,0.5,0.1,0.7,0.5,0.7
		c0.4,0,0.7-0.2,0.9-0.6v1.2c-0.2,0.2-0.5,0.5-1.1,0.5C88.6,42.1,88.1,41.5,88.1,40.4z"/>
	<path id="XMLID_750_" class="st0" d="M91.6,41.6v-1.4c0.3,0.4,0.8,0.7,1.6,0.7c0.8,0,1-0.3,1-0.7c0-0.4-0.1-0.6-0.8-0.7l-0.3-0.1
		c-1-0.2-1.6-0.8-1.6-1.9c0-1,0.7-1.9,2.1-1.9c0.7,0,1.3,0.2,1.6,0.5v1.4c-0.3-0.5-0.8-0.8-1.6-0.8c-0.7,0-1,0.3-1,0.7
		s0.1,0.6,0.8,0.7l0.3,0.1c1.1,0.2,1.7,0.7,1.7,1.8c0,1-0.7,2-2.3,2C92.4,42.1,91.9,41.9,91.6,41.6z"/>
	<path id="XMLID_748_" class="st0" d="M98.4,36h1.3l0.8,3.5l1.2-3.5h0.5l1.2,3.5l0.8-3.5h1.2l-1.5,6h-0.8l-1.3-3.6l-1.3,3.6h-0.8
		L98.4,36z"/>
	<path id="XMLID_745_" class="st0" d="M106.2,34.5c0-0.5,0.2-0.7,0.7-0.7c0.5,0,0.7,0.3,0.7,0.7c0,0.5-0.3,0.7-0.7,0.7
		C106.5,35.2,106.2,35,106.2,34.5z M106.3,36h1.3v6h-1.3V36z"/>
	<path id="XMLID_743_" class="st0" d="M109.2,40.4v-3.3h-0.7v-0.4L109,36l1-1.4h0.4V36h1.4v1.1h-1.4v3.2c0,0.5,0.1,0.7,0.5,0.7
		c0.4,0,0.7-0.2,0.9-0.6v1.2c-0.2,0.2-0.5,0.5-1.1,0.5C109.6,42.1,109.2,41.5,109.2,40.4z"/>
	<path id="XMLID_741_" class="st0" d="M112.8,33.8h1.3v2.7c0.2-0.4,0.7-0.7,1.4-0.7c1.4,0,2,0.8,2,2.4V42h-1.3v-3.5
		c0-1.2-0.2-1.6-1-1.6c-0.6,0-1,0.3-1.1,0.6V42h-1.3V33.8z"/>
	<path id="XMLID_738_" class="st0" d="M121.2,38.9l2.3-1.2l-2.3-1.2V35l4.5,2.6v0.1l-4.5,2.6V38.9z M121.2,40.8h4.3V42h-4.3V40.8z"
		/>
	<path id="XMLID_736_" class="st0" d="M129,35.8h-2.8v-1.2h4.4v0.1l-2.3,7.3H127L129,35.8z"/>
	<path id="XMLID_731_" class="st0" d="M131,36.3c0-1.5,0.7-2,1.5-2c0.3,0,0.6,0.1,0.9,0.2c0.4,0.3,0.7,0.4,1.3,0.4
		c0.7,0,1.1-0.3,1.4-0.6l0.6,0.4l-4.1,7.4h-0.8l3.6-6.5c-0.2,0.1-0.4,0.1-0.7,0.1c-0.3,0-0.5,0-0.8-0.1c0.1,0.2,0.1,0.5,0.1,0.8
		c0,1.5-0.7,2-1.5,2C131.7,38.3,131,37.8,131,36.3z M133.1,36.3c0-0.8-0.2-1.2-0.6-1.2s-0.6,0.4-0.6,1.2s0.2,1.2,0.6,1.2
		S133.1,37.1,133.1,36.3z M134.6,40.1c0-1.5,0.7-2,1.5-2c0.8,0,1.5,0.5,1.5,2c0,1.5-0.7,2-1.5,2C135.3,42.1,134.6,41.7,134.6,40.1z
		 M136.7,40.1c0-0.8-0.2-1.2-0.6-1.2s-0.6,0.4-0.6,1.2c0,0.8,0.2,1.2,0.6,1.2S136.7,40.9,136.7,40.1z"/>
	<path id="XMLID_728_" class="st0" d="M141,34.5c0-0.5,0.2-0.7,0.7-0.7c0.5,0,0.7,0.3,0.7,0.7c0,0.5-0.3,0.7-0.7,0.7
		C141.3,35.2,141,35,141,34.5z M141.1,36h1.3v6h-1.3V36z"/>
	<path id="XMLID_726_" class="st0" d="M143.7,36h1.2l0.1,0.5c0.2-0.4,0.7-0.7,1.4-0.7c1.4,0,2,0.8,2,2.4V42h-1.3v-3.5
		c0-1.2-0.2-1.6-1-1.6c-0.6,0-1,0.3-1.1,0.6V42h-1.3V36z"/>
	<path id="XMLID_724_" class="st0" d="M149.4,39c0-2.2,1.3-3.2,2.7-3.2c0.7,0,1.3,0.3,1.6,0.6v1.4c-0.3-0.5-0.8-0.7-1.5-0.7
		c-0.9,0-1.4,0.7-1.4,2c0,1.2,0.5,2,1.4,2c0.7,0,1.2-0.3,1.5-0.8v1.3c-0.2,0.3-0.9,0.7-1.6,0.7C150.5,42.1,149.4,41.1,149.4,39z"/>
	<path id="XMLID_722_" class="st0" d="M154.8,36h1.1l0.1,0.8c0-0.7,0.5-1,1.1-1c0.3,0,0.5,0.1,0.6,0.2v1.3c-0.1-0.1-0.3-0.2-0.6-0.2
		c-0.5,0-0.7,0.2-0.9,0.6V42h-1.3V36z"/>
	<path id="XMLID_719_" class="st0" d="M158.2,39c0-2.2,1.3-3.2,2.6-3.2c1.2,0,2.4,0.6,2.4,2.8v0.8h-3.7c0.1,0.8,0.5,1.5,1.6,1.5
		c1,0,1.5-0.4,1.8-0.9v1.3c-0.3,0.3-0.9,0.8-2,0.8C159.3,42.1,158.2,41.1,158.2,39z M161.9,38.4L161.9,38.4c0-1-0.4-1.5-1.2-1.5
		c-0.7,0-1.2,0.7-1.2,1.5H161.9z"/>
	<path id="XMLID_716_" class="st0" d="M163.9,40.4c0-1.2,0.9-1.7,2.4-2l0.8-0.1c0-1-0.5-1.4-1.2-1.4c-0.8,0-1.5,0.5-1.7,1.1v-1.4
		c0.2-0.4,0.8-0.9,2-0.9c1.5,0,2.3,0.8,2.3,2.5V42h-1.2l-0.1-0.5c-0.1,0.3-0.6,0.7-1.4,0.7C164.7,42.1,163.9,41.6,163.9,40.4z
		 M167.1,39.2l-0.7,0.2c-0.9,0.2-1.2,0.5-1.2,1s0.3,0.7,0.8,0.7c0.5,0,1-0.2,1.1-0.5V39.2z"/>
	<path id="XMLID_714_" class="st0" d="M169.5,41.6v-1.4c0.3,0.4,0.8,0.7,1.6,0.7c0.8,0,1-0.3,1-0.7c0-0.4-0.1-0.6-0.8-0.7l-0.3-0.1
		c-1-0.2-1.6-0.8-1.6-1.9c0-1,0.7-1.9,2.1-1.9c0.7,0,1.3,0.2,1.6,0.5v1.4c-0.3-0.5-0.8-0.8-1.6-0.8c-0.7,0-1,0.3-1,0.7
		s0.1,0.6,0.8,0.7l0.3,0.1c1.1,0.2,1.7,0.7,1.7,1.8c0,1-0.7,2-2.3,2C170.3,42.1,169.7,41.9,169.5,41.6z"/>
	<path id="XMLID_711_" class="st0" d="M174,39c0-2.2,1.3-3.2,2.6-3.2c1.2,0,2.4,0.6,2.4,2.8v0.8h-3.7c0.1,0.8,0.5,1.5,1.6,1.5
		c1,0,1.5-0.4,1.8-0.9v1.3c-0.3,0.3-0.9,0.8-2,0.8C175.2,42.1,174,41.1,174,39z M177.8,38.4L177.8,38.4c0-1-0.4-1.5-1.2-1.5
		c-0.7,0-1.2,0.7-1.2,1.5H177.8z"/>
	<path id="XMLID_708_" class="st0" d="M182.4,34.5c0-0.5,0.2-0.7,0.7-0.7c0.5,0,0.7,0.3,0.7,0.7c0,0.5-0.3,0.7-0.7,0.7
		C182.6,35.2,182.4,35,182.4,34.5z M182.5,36h1.3v6h-1.3V36z"/>
	<path id="XMLID_706_" class="st0" d="M185.1,36h1.2l0.1,0.5c0.2-0.4,0.7-0.7,1.4-0.7c1.4,0,2,0.8,2,2.4V42h-1.3v-3.5
		c0-1.2-0.2-1.6-1-1.6c-0.6,0-1,0.3-1.1,0.6V42h-1.3V36z"/>
	<path id="XMLID_703_" class="st0" d="M194.6,41.6l-0.2,0.4h-1v-8.2h1.3v2.7c0.1-0.3,0.6-0.7,1.4-0.7c1.3,0,2.2,0.8,2.2,3
		c0,2.2-1.1,3.3-2.5,3.3C195.2,42.1,194.9,41.9,194.6,41.6z M194.8,40.6c0.3,0.4,0.6,0.5,1,0.5c0.9,0,1.3-1,1.3-2.2s-0.3-2-1.2-2
		c-0.5,0-0.9,0.2-1.1,0.6V40.6z"/>
	<path id="XMLID_700_" class="st0" d="M199.2,39c0-2.2,1.3-3.2,2.7-3.2c1.5,0,2.6,1,2.6,3.2c0,2.2-1.3,3.2-2.7,3.2
		C200.2,42.1,199.2,41.1,199.2,39z M203.1,39c0-1.2-0.4-2-1.3-2c-0.9,0-1.3,0.8-1.3,2c0,1.2,0.4,2,1.3,2
		C202.7,41,203.1,40.2,203.1,39z"/>
	<path id="XMLID_697_" class="st0" d="M205.2,39.1c0-2.2,1-3.3,2.4-3.3c0.4,0,0.9,0.1,1.2,0.4v-2.4h1.3V42h-1.2l-0.1-0.5
		c-0.2,0.3-0.6,0.7-1.4,0.7C206.2,42.1,205.2,41.2,205.2,39.1z M208.8,37.3c-0.2-0.3-0.6-0.4-1-0.4c-0.9,0-1.3,1-1.3,2.2
		c0,1.2,0.3,2,1.2,2c0.6,0,0.9-0.3,1.1-0.6V37.3z"/>
	<path id="XMLID_695_" class="st0" d="M211,43.9v-1.2c0.2,0.3,0.5,0.5,0.9,0.5c0.4,0,0.8-0.2,1.1-1l-2.2-6.2h1.4l1.4,4.3l1.1-4.3
		h1.3l-1.6,5.6c-0.4,1.5-1,2.7-2.4,2.7C211.6,44.3,211.2,44.1,211,43.9z"/>
	<path id="XMLID_693_" class="st0" d="M218.6,36h1.3l0.8,3.5l1.2-3.5h0.5l1.2,3.5l0.8-3.5h1.2l-1.5,6h-0.8l-1.3-3.6l-1.3,3.6h-0.8
		L218.6,36z"/>
	<path id="XMLID_690_" class="st0" d="M226.2,39c0-2.2,1.3-3.2,2.6-3.2c1.2,0,2.4,0.6,2.4,2.8v0.8h-3.7c0.1,0.8,0.5,1.5,1.6,1.5
		c1,0,1.5-0.4,1.8-0.9v1.3c-0.3,0.3-0.9,0.8-2,0.8C227.4,42.1,226.2,41.1,226.2,39z M230,38.4L230,38.4c0-1-0.4-1.5-1.2-1.5
		c-0.7,0-1.2,0.7-1.2,1.5H230z"/>
	<path id="XMLID_687_" class="st0" d="M232.2,34.5c0-0.5,0.2-0.7,0.7-0.7c0.5,0,0.7,0.3,0.7,0.7c0,0.5-0.3,0.7-0.7,0.7
		C232.4,35.2,232.2,35,232.2,34.5z M232.3,36h1.3v6h-1.3V36z"/>
	<path id="XMLID_684_" class="st0" d="M234.6,43.6v-1.2c0.5,0.4,1.2,0.6,2.3,0.6c1.3,0,1.8-0.2,1.8-0.8c0-0.5-0.4-0.6-1.2-0.6
		c-0.8,0-1.9,0.2-2.3,0.4v-1l0.8-1.4c-0.8-0.3-1.2-0.9-1.2-1.9c0-1.3,1-2.1,2.3-2.1c0.6,0,1.1,0.2,1.5,0.5c0.2-0.3,0.6-0.5,1-0.5
		c0.1,0,0.3,0,0.4,0.1v1.1c-0.1,0-0.2-0.1-0.3-0.1c-0.2,0-0.4,0.1-0.5,0.2c0.1,0.2,0.1,0.5,0.1,0.8c0,1.3-0.9,2.1-2.3,2.1h-0.2
		l-0.5,0.9c0.2-0.1,0.9-0.2,1.4-0.2c1.3,0,2.2,0.4,2.2,1.6c0,1.2-1,2-3,2C235.9,44.3,235.1,44,234.6,43.6z M238,37.9
		c0-0.7-0.4-1-1-1s-1,0.4-1,1c0,0.7,0.4,1,1,1S238,38.5,238,37.9z"/>
	<path id="XMLID_682_" class="st0" d="M240.7,33.8h1.3v2.7c0.2-0.4,0.7-0.7,1.4-0.7c1.4,0,2,0.8,2,2.4V42h-1.3v-3.5
		c0-1.2-0.2-1.6-1-1.6c-0.6,0-1,0.3-1.1,0.6V42h-1.3V33.8z"/>
	<path id="XMLID_680_" class="st0" d="M246.9,40.4v-3.3h-0.7v-0.4l0.5-0.7l1-1.4h0.4V36h1.4v1.1h-1.4v3.2c0,0.5,0.1,0.7,0.5,0.7
		c0.4,0,0.7-0.2,0.9-0.6v1.2c-0.2,0.2-0.5,0.5-1.1,0.5C247.3,42.1,246.9,41.5,246.9,40.4z"/>
	<path id="XMLID_677_" class="st0" d="M252.6,40.4c0-1.2,0.9-1.7,2.4-2l0.8-0.1c0-1-0.5-1.4-1.2-1.4c-0.8,0-1.5,0.5-1.7,1.1v-1.4
		c0.2-0.4,0.8-0.9,2-0.9c1.5,0,2.3,0.8,2.3,2.5V42h-1.2l-0.1-0.5c-0.1,0.3-0.6,0.7-1.4,0.7C253.5,42.1,252.6,41.6,252.6,40.4z
		 M255.8,39.2l-0.7,0.2c-0.9,0.2-1.2,0.5-1.2,1s0.3,0.7,0.8,0.7c0.5,0,1-0.2,1.1-0.5V39.2z"/>
	<path id="XMLID_675_" class="st0" d="M258.6,40.4v-3.3H258v-0.4l0.5-0.7l1-1.4h0.4V36h1.4v1.1h-1.4v3.2c0,0.5,0.1,0.7,0.5,0.7
		c0.4,0,0.7-0.2,0.9-0.6v1.2c-0.2,0.2-0.5,0.5-1.1,0.5C259.1,42.1,258.6,41.5,258.6,40.4z"/>
	<path id="XMLID_672_" class="st0" d="M264.4,39c0-2.2,1.3-3.2,2.6-3.2c1.2,0,2.4,0.6,2.4,2.8v0.8h-3.7c0.1,0.8,0.5,1.5,1.6,1.5
		c1,0,1.5-0.4,1.8-0.9v1.3c-0.3,0.3-0.9,0.8-2,0.8C265.5,42.1,264.4,41.1,264.4,39z M268.1,38.4L268.1,38.4c0-1-0.4-1.5-1.2-1.5
		c-0.7,0-1.2,0.7-1.2,1.5H268.1z"/>
	<path id="XMLID_670_" class="st0" d="M270.4,36h1.2l0.1,0.5c0.2-0.4,0.7-0.7,1.4-0.7c1.4,0,2,0.8,2,2.4V42h-1.3v-3.5
		c0-1.2-0.2-1.6-1-1.6c-0.6,0-1,0.3-1.1,0.6V42h-1.3V36z"/>
	<path id="XMLID_667_" class="st0" d="M276.1,39.1c0-2.2,1-3.3,2.4-3.3c0.4,0,0.9,0.1,1.2,0.4v-2.4h1.3V42h-1.2l-0.1-0.5
		c-0.2,0.3-0.6,0.7-1.4,0.7C277.1,42.1,276.1,41.2,276.1,39.1z M279.7,37.3c-0.2-0.3-0.6-0.4-1-0.4c-0.9,0-1.3,1-1.3,2.2
		c0,1.2,0.3,2,1.2,2c0.6,0,0.9-0.3,1.1-0.6V37.3z"/>
	<path id="XMLID_664_" class="st0" d="M282.4,36h1.2l0.1,0.5c0.2-0.3,0.6-0.7,1.4-0.7c1.3,0,2.2,0.8,2.2,3c0,2.2-1.1,3.3-2.5,3.3
		c-0.4,0-0.9-0.1-1.2-0.4v2.3h-1.3V36z M286,38.9c0-1.2-0.3-2-1.2-2c-0.6,0-0.9,0.3-1.1,0.6v3.1c0.2,0.3,0.6,0.4,1,0.4
		C285.6,41,286,40.1,286,38.9z"/>
	<path id="XMLID_661_" class="st0" d="M288.1,39c0-2.2,1.3-3.2,2.7-3.2c1.5,0,2.6,1,2.6,3.2c0,2.2-1.3,3.2-2.7,3.2
		C289.1,42.1,288.1,41.1,288.1,39z M292,39c0-1.2-0.4-2-1.3-2c-0.9,0-1.3,0.8-1.3,2c0,1.2,0.4,2,1.3,2C291.6,41,292,40.2,292,39z"/>
	<path id="XMLID_658_" class="st0" d="M294.3,34.5c0-0.5,0.2-0.7,0.7-0.7c0.5,0,0.7,0.3,0.7,0.7c0,0.5-0.3,0.7-0.7,0.7
		C294.6,35.2,294.3,35,294.3,34.5z M294.4,36h1.3v6h-1.3V36z"/>
	<path id="XMLID_656_" class="st0" d="M297,36h1.2l0.1,0.5c0.2-0.4,0.7-0.7,1.4-0.7c1.4,0,2,0.8,2,2.4V42h-1.3v-3.5
		c0-1.2-0.2-1.6-1-1.6c-0.6,0-1,0.3-1.1,0.6V42H297V36z"/>
	<path id="XMLID_654_" class="st0" d="M303.2,40.4v-3.3h-0.7v-0.4l0.5-0.7l1-1.4h0.4V36h1.4v1.1h-1.4v3.2c0,0.5,0.1,0.7,0.5,0.7
		c0.4,0,0.7-0.2,0.9-0.6v1.2c-0.2,0.2-0.5,0.5-1.1,0.5C303.7,42.1,303.2,41.5,303.2,40.4z"/>
	<path id="XMLID_652_" class="st0" d="M308,36.4l-0.8,0.7l-0.5-0.8l1.1-0.7l-1.1-0.6l0.5-0.8l0.9,0.7l-0.1-1.1h0.9l-0.1,1.1l0.8-0.7
		l0.5,0.7l-1.1,0.7l1,0.7l-0.5,0.8l-0.8-0.7l0.1,1.1h-0.9L308,36.4z"/>
	<path id="XMLID_650_" class="st0" d="M311.5,35.1c-0.2,0.2-0.5,0.2-0.9,0.2v-0.7c0.6,0,1-0.2,1.3-0.6h0.3v4.3h-0.7V35.1z"/>
</g>
<g id="XMLID_184_">
	<g id="XMLID_186_">
		<path id="XMLID_416_" class="st0" d="M14.3,260.6h1.7c1.7,0,2.4,0.8,2.4,2c0,1.3-0.7,2.3-2.4,2.3h-0.3V264h0.3
			c0.9,0,1.2-0.5,1.2-1.2c0-0.8-0.4-1.2-1.3-1.2h-0.5v5.3h-1.1V260.6z"/>
		<path id="XMLID_413_" class="st0" d="M18.8,264.3c0-1.8,1.1-2.7,2.3-2.7c1.3,0,2.2,0.9,2.2,2.7c0,1.8-1.1,2.7-2.3,2.7
			C19.7,267,18.8,266.1,18.8,264.3z M22.1,264.3c0-1-0.4-1.7-1.1-1.7c-0.8,0-1.1,0.7-1.1,1.7c0,1,0.4,1.7,1.1,1.7
			C21.8,266,22.1,265.3,22.1,264.3z"/>
		<path id="XMLID_410_" class="st0" d="M23.9,264.3c0-1.8,1.1-2.7,2.3-2.7c1.3,0,2.2,0.9,2.2,2.7c0,1.8-1.1,2.7-2.3,2.7
			C24.8,267,23.9,266.1,23.9,264.3z M27.2,264.3c0-1-0.4-1.7-1.1-1.7c-0.8,0-1.1,0.7-1.1,1.7c0,1,0.4,1.7,1.1,1.7
			C26.9,266,27.2,265.3,27.2,264.3z"/>
		<path id="XMLID_408_" class="st0" d="M29.2,265.7v-5.8h1.1v5.6c0,0.3,0.1,0.5,0.3,0.5c0.2,0,0.4-0.1,0.4-0.3v0.9
			c-0.1,0.1-0.3,0.3-0.7,0.3C29.6,267,29.2,266.5,29.2,265.7z"/>
		<path id="XMLID_405_" class="st0" d="M31.5,264.3c0-1.8,1.1-2.7,2.2-2.7c1,0,2.1,0.5,2.1,2.4v0.7h-3.1c0.1,0.7,0.5,1.3,1.3,1.3
			c0.8,0,1.3-0.4,1.5-0.7v1.1c-0.2,0.3-0.8,0.6-1.7,0.6C32.5,267,31.5,266.1,31.5,264.3z M34.7,263.9L34.7,263.9
			c0-0.8-0.3-1.3-1-1.3c-0.6,0-1,0.6-1,1.3H34.7z"/>
		<path id="XMLID_402_" class="st0" d="M36.4,264.4c0-1.8,0.9-2.8,2.1-2.8c0.3,0,0.8,0.1,1,0.3v-2h1.1v6.9h-1l-0.1-0.5
			c-0.1,0.3-0.5,0.6-1.2,0.6C37.2,267,36.4,266.2,36.4,264.4z M39.4,262.9c-0.2-0.3-0.5-0.4-0.9-0.4c-0.8,0-1.1,0.8-1.1,1.8
			c0,1,0.3,1.6,1,1.6c0.5,0,0.8-0.2,0.9-0.5V262.9z"/>
		<path id="XMLID_399_" class="st0" d="M43.4,264.4c0-1.8,0.9-2.8,2.1-2.8c0.3,0,0.8,0.1,1,0.3v-2h1.1v6.9h-1l-0.1-0.5
			c-0.1,0.3-0.5,0.6-1.2,0.6C44.3,267,43.4,266.2,43.4,264.4z M46.5,262.9c-0.2-0.3-0.5-0.4-0.9-0.4c-0.8,0-1.1,0.8-1.1,1.8
			c0,1,0.3,1.6,1,1.6c0.5,0,0.8-0.2,0.9-0.5V262.9z"/>
		<path id="XMLID_396_" class="st0" d="M48.5,265.5c0-1,0.7-1.5,2-1.7l0.7-0.1c0-0.9-0.4-1.2-1.1-1.2c-0.7,0-1.2,0.4-1.5,1v-1.2
			c0.2-0.3,0.6-0.7,1.7-0.7c1.3,0,2,0.7,2,2.2v3.1h-1l-0.1-0.5c-0.1,0.3-0.5,0.6-1.1,0.6C49.2,267,48.5,266.5,48.5,265.5z
			 M51.2,264.5l-0.6,0.1c-0.8,0.2-1,0.4-1,0.8s0.3,0.6,0.7,0.6c0.4,0,0.8-0.2,1-0.4V264.5z"/>
		<path id="XMLID_394_" class="st0" d="M53.6,265.5v-2.8H53v-0.3l0.4-0.6l0.8-1.2h0.4v1.2h1.1v0.9h-1.1v2.7c0,0.4,0.1,0.6,0.4,0.6
			c0.3,0,0.6-0.2,0.7-0.5v1c-0.1,0.2-0.4,0.4-1,0.4C53.9,267,53.6,266.4,53.6,265.5z"/>
		<path id="XMLID_391_" class="st0" d="M56.4,265.5c0-1,0.7-1.5,2-1.7l0.7-0.1c0-0.9-0.4-1.2-1.1-1.2c-0.7,0-1.2,0.4-1.5,1v-1.2
			c0.2-0.3,0.6-0.7,1.7-0.7c1.3,0,2,0.7,2,2.2v3.1h-1l-0.1-0.5c-0.1,0.3-0.5,0.6-1.1,0.6C57.1,267,56.4,266.5,56.4,265.5z
			 M59.1,264.5l-0.6,0.1c-0.8,0.2-1,0.4-1,0.8s0.3,0.6,0.7,0.6c0.4,0,0.8-0.2,1-0.4V264.5z"/>
		<path id="XMLID_389_" class="st0" d="M63.5,262.7h-0.6v-0.3l0.5-0.5c-0.1-0.2-0.1-0.4-0.1-0.7c0-0.9,0.7-1.4,1.5-1.4
			c0.6,0,0.9,0.2,1,0.3v1.1c-0.2-0.3-0.4-0.5-0.8-0.5c-0.4,0-0.7,0.2-0.7,0.6c0,0.2,0.1,0.3,0.1,0.5h0.9v0.9h-0.9v4.1h-1.1V262.7z"
			/>
		<path id="XMLID_387_" class="st0" d="M66.2,261.8h0.9l0.1,0.7c0-0.6,0.5-0.9,0.9-0.9c0.3,0,0.4,0.1,0.5,0.1v1.1
			c-0.1-0.1-0.3-0.2-0.5-0.2c-0.4,0-0.6,0.2-0.8,0.5v3.6h-1.1V261.8z"/>
		<path id="XMLID_384_" class="st0" d="M69.1,264.3c0-1.8,1.1-2.7,2.3-2.7c1.3,0,2.2,0.9,2.2,2.7c0,1.8-1.1,2.7-2.3,2.7
			C70,267,69.1,266.1,69.1,264.3z M72.4,264.3c0-1-0.4-1.7-1.1-1.7c-0.8,0-1.1,0.7-1.1,1.7c0,1,0.4,1.7,1.1,1.7
			C72.1,266,72.4,265.3,72.4,264.3z"/>
		<path id="XMLID_382_" class="st0" d="M74.4,261.8h1l0.1,0.5c0.2-0.3,0.6-0.6,1.1-0.6c0.7,0,1.1,0.2,1.4,0.7
			c0.2-0.3,0.6-0.7,1.4-0.7c1.1,0,1.6,0.7,1.6,2.1v3.2h-1.1v-2.9c0-1-0.2-1.4-0.8-1.4c-0.4,0-0.8,0.2-0.9,0.5c0,0.2,0,0.4,0,0.6v3.2
			h-1.1v-2.9c0-1-0.2-1.4-0.8-1.4c-0.4,0-0.7,0.2-0.9,0.5v3.8h-1.1V261.8z"/>
		<path id="XMLID_380_" class="st0" d="M84.2,265.5v-2.8h-0.6v-0.3l0.4-0.6l0.8-1.2h0.4v1.2h1.1v0.9h-1.1v2.7c0,0.4,0.1,0.6,0.4,0.6
			c0.3,0,0.6-0.2,0.7-0.5v1c-0.1,0.2-0.4,0.4-1,0.4C84.6,267,84.2,266.4,84.2,265.5z"/>
		<path id="XMLID_378_" class="st0" d="M87.3,259.9h1.1v2.3c0.2-0.3,0.6-0.6,1.2-0.6c1.2,0,1.7,0.7,1.7,2.1v3.2h-1.1v-2.9
			c0-1-0.2-1.4-0.9-1.4c-0.5,0-0.8,0.3-0.9,0.5v3.8h-1.1V259.9z"/>
		<path id="XMLID_375_" class="st0" d="M92.1,264.3c0-1.8,1.1-2.7,2.2-2.7c1,0,2.1,0.5,2.1,2.4v0.7h-3.1c0.1,0.7,0.5,1.3,1.3,1.3
			c0.8,0,1.3-0.4,1.5-0.7v1.1c-0.2,0.3-0.8,0.6-1.7,0.6C93,267,92.1,266.1,92.1,264.3z M95.3,263.9L95.3,263.9c0-0.8-0.3-1.3-1-1.3
			c-0.6,0-1,0.6-1,1.3H95.3z"/>
		<path id="XMLID_373_" class="st0" d="M99.1,266.5v-1.1c0.3,0.3,0.7,0.6,1.3,0.6c0.6,0,0.9-0.3,0.9-0.6c0-0.3-0.1-0.5-0.7-0.6
			l-0.2,0c-0.9-0.2-1.3-0.6-1.3-1.6c0-0.9,0.6-1.6,1.8-1.6c0.6,0,1.1,0.2,1.3,0.5v1.1c-0.3-0.4-0.7-0.6-1.3-0.6
			c-0.6,0-0.8,0.2-0.8,0.6s0.1,0.5,0.7,0.6l0.2,0c0.9,0.2,1.4,0.6,1.4,1.5c0,0.9-0.6,1.7-1.9,1.7C99.8,267,99.3,266.8,99.1,266.5z"
			/>
		<path id="XMLID_371_" class="st0" d="M103.2,259.9h1.1v2.3c0.2-0.3,0.6-0.6,1.2-0.6c1.2,0,1.7,0.7,1.7,2.1v3.2H106v-2.9
			c0-1-0.2-1.4-0.9-1.4c-0.5,0-0.8,0.3-0.9,0.5v3.8h-1.1V259.9z"/>
		<path id="XMLID_368_" class="st0" d="M108,264.3c0-1.8,1.1-2.7,2.3-2.7c1.3,0,2.2,0.9,2.2,2.7c0,1.8-1.1,2.7-2.3,2.7
			C108.9,267,108,266.1,108,264.3z M111.3,264.3c0-1-0.4-1.7-1.1-1.7c-0.8,0-1.1,0.7-1.1,1.7c0,1,0.4,1.7,1.1,1.7
			C111,266,111.3,265.3,111.3,264.3z"/>
		<path id="XMLID_366_" class="st0" d="M113.3,261.8h0.9l0.1,0.7c0-0.6,0.5-0.9,0.9-0.9c0.3,0,0.4,0.1,0.5,0.1v1.1
			c-0.1-0.1-0.3-0.2-0.5-0.2c-0.4,0-0.6,0.2-0.8,0.5v3.6h-1.1V261.8z"/>
		<path id="XMLID_364_" class="st0" d="M116.6,265.5v-2.8h-0.6v-0.3l0.4-0.6l0.8-1.2h0.4v1.2h1.1v0.9h-1.1v2.7
			c0,0.4,0.1,0.6,0.4,0.6c0.3,0,0.6-0.2,0.7-0.5v1c-0.1,0.2-0.4,0.4-1,0.4C117,267,116.6,266.4,116.6,265.5z"/>
		<path id="XMLID_362_" class="st0" d="M119.6,263.5h2.2v1h-2.2V263.5z"/>
		<path id="XMLID_360_" class="st0" d="M123.1,265.5v-2.8h-0.6v-0.3l0.4-0.6l0.8-1.2h0.4v1.2h1.1v0.9h-1.1v2.7
			c0,0.4,0.1,0.6,0.4,0.6c0.3,0,0.6-0.2,0.7-0.5v1c-0.1,0.2-0.4,0.4-1,0.4C123.5,267,123.1,266.4,123.1,265.5z"/>
		<path id="XMLID_357_" class="st0" d="M125.9,264.3c0-1.8,1.1-2.7,2.2-2.7c1,0,2.1,0.5,2.1,2.4v0.7h-3.1c0.1,0.7,0.5,1.3,1.3,1.3
			c0.8,0,1.3-0.4,1.5-0.7v1.1c-0.2,0.3-0.8,0.6-1.7,0.6C126.9,267,125.9,266.1,125.9,264.3z M129.1,263.9L129.1,263.9
			c0-0.8-0.3-1.3-1-1.3c-0.6,0-1,0.6-1,1.3H129.1z"/>
		<path id="XMLID_355_" class="st0" d="M131,261.8h0.9l0.1,0.7c0-0.6,0.5-0.9,0.9-0.9c0.3,0,0.4,0.1,0.5,0.1v1.1
			c-0.1-0.1-0.3-0.2-0.5-0.2c-0.4,0-0.6,0.2-0.8,0.5v3.6H131V261.8z"/>
		<path id="XMLID_353_" class="st0" d="M134.1,261.8h1l0.1,0.5c0.2-0.3,0.6-0.6,1.1-0.6c0.7,0,1.1,0.2,1.4,0.7
			c0.2-0.3,0.6-0.7,1.4-0.7c1.1,0,1.6,0.7,1.6,2.1v3.2h-1.1v-2.9c0-1-0.2-1.4-0.8-1.4c-0.4,0-0.8,0.2-0.9,0.5c0,0.2,0,0.4,0,0.6v3.2
			h-1.1v-2.9c0-1-0.2-1.4-0.8-1.4c-0.4,0-0.7,0.2-0.9,0.5v3.8h-1.1V261.8z"/>
		<path id="XMLID_351_" class="st0" d="M141.5,268.2c0.2-0.3,0.4-0.9,0.4-1.3c-0.2-0.1-0.4-0.4-0.4-0.7c0-0.5,0.3-0.8,0.7-0.8
			c0.4,0,0.7,0.3,0.7,0.8c0,0.8-0.6,1.7-0.9,2L141.5,268.2z"/>
		<path id="XMLID_348_" class="st0" d="M145.9,261.8h1l0.1,0.5c0.1-0.3,0.5-0.6,1.2-0.6c1.1,0,1.9,0.7,1.9,2.5c0,1.8-1,2.8-2.1,2.8
			c-0.3,0-0.8-0.1-1-0.3v2h-1.1V261.8z M149,264.2c0-1-0.3-1.6-1-1.6c-0.5,0-0.8,0.2-0.9,0.5v2.6c0.2,0.3,0.5,0.4,0.9,0.4
			C148.6,266,149,265.2,149,264.2z"/>
		<path id="XMLID_346_" class="st0" d="M150.9,265.7v-5.8h1.1v5.6c0,0.3,0.1,0.5,0.3,0.5c0.2,0,0.4-0.1,0.4-0.3v0.9
			c-0.1,0.1-0.3,0.3-0.7,0.3C151.3,267,150.9,266.5,150.9,265.7z"/>
		<path id="XMLID_343_" class="st0" d="M153.3,265.5c0-1,0.7-1.5,2-1.7l0.7-0.1c0-0.9-0.4-1.2-1.1-1.2c-0.7,0-1.2,0.4-1.5,1v-1.2
			c0.2-0.3,0.6-0.7,1.7-0.7c1.3,0,2,0.7,2,2.2v3.1h-1l-0.1-0.5c-0.1,0.3-0.5,0.6-1.1,0.6C154,267,153.3,266.5,153.3,265.5z
			 M156,264.5l-0.6,0.1c-0.8,0.2-1,0.4-1,0.8s0.3,0.6,0.7,0.6c0.4,0,0.8-0.2,1-0.4V264.5z"/>
		<path id="XMLID_341_" class="st0" d="M157.9,264.3c0-1.8,1.1-2.7,2.3-2.7c0.6,0,1.1,0.2,1.3,0.5v1.2c-0.3-0.4-0.7-0.6-1.2-0.6
			c-0.8,0-1.2,0.6-1.2,1.7c0,1,0.5,1.7,1.2,1.7c0.6,0,1-0.3,1.3-0.7v1.1c-0.2,0.3-0.7,0.6-1.4,0.6
			C158.8,267,157.9,266.1,157.9,264.3z"/>
		<path id="XMLID_338_" class="st0" d="M162.1,264.3c0-1.8,1.1-2.7,2.2-2.7c1,0,2.1,0.5,2.1,2.4v0.7h-3.1c0.1,0.7,0.5,1.3,1.3,1.3
			c0.8,0,1.3-0.4,1.5-0.7v1.1c-0.2,0.3-0.8,0.6-1.7,0.6C163.1,267,162.1,266.1,162.1,264.3z M165.3,263.9L165.3,263.9
			c0-0.8-0.3-1.3-1-1.3c-0.6,0-1,0.6-1,1.3H165.3z"/>
		<path id="XMLID_335_" class="st0" d="M168.2,266.5l-0.2,0.3h-0.8v-6.9h1.1v2.3c0.1-0.3,0.5-0.6,1.2-0.6c1.1,0,1.9,0.7,1.9,2.5
			c0,1.8-1,2.8-2.1,2.8C168.7,267,168.4,266.7,168.2,266.5z M168.3,265.7c0.2,0.3,0.5,0.4,0.9,0.4c0.8,0,1.1-0.8,1.1-1.8
			s-0.3-1.6-1-1.6c-0.5,0-0.8,0.2-0.9,0.5V265.7z"/>
		<path id="XMLID_332_" class="st0" d="M172,264.3c0-1.8,1.1-2.7,2.3-2.7c1.3,0,2.2,0.9,2.2,2.7c0,1.8-1.1,2.7-2.3,2.7
			C172.9,267,172,266.1,172,264.3z M175.4,264.3c0-1-0.4-1.7-1.1-1.7c-0.8,0-1.1,0.7-1.1,1.7c0,1,0.4,1.7,1.1,1.7
			C175,266,175.4,265.3,175.4,264.3z"/>
		<path id="XMLID_330_" class="st0" d="M177.3,263.5h2.2v1h-2.2V263.5z"/>
		<path id="XMLID_328_" class="st0" d="M182.4,264.3c0-1.8,1.1-2.7,2.3-2.7c0.6,0,1.1,0.2,1.3,0.5v1.2c-0.3-0.4-0.7-0.6-1.2-0.6
			c-0.8,0-1.2,0.6-1.2,1.7c0,1,0.5,1.7,1.2,1.7c0.6,0,1-0.3,1.3-0.7v1.1c-0.2,0.3-0.7,0.6-1.4,0.6
			C183.3,267,182.4,266.1,182.4,264.3z"/>
		<path id="XMLID_325_" class="st0" d="M186.6,264.3c0-1.8,1.1-2.7,2.3-2.7c1.3,0,2.2,0.9,2.2,2.7c0,1.8-1.1,2.7-2.3,2.7
			C187.5,267,186.6,266.1,186.6,264.3z M190,264.3c0-1-0.4-1.7-1.1-1.7c-0.8,0-1.1,0.7-1.1,1.7c0,1,0.4,1.7,1.1,1.7
			C189.6,266,190,265.3,190,264.3z"/>
		<path id="XMLID_323_" class="st0" d="M192,261.8h1l0.1,0.5c0.2-0.3,0.6-0.6,1.2-0.6c1.2,0,1.7,0.7,1.7,2.1v3.2h-1.1v-2.9
			c0-1-0.2-1.4-0.9-1.4c-0.5,0-0.8,0.3-0.9,0.5v3.8H192V261.8z"/>
		<path id="XMLID_321_" class="st0" d="M197.2,265.5v-2.8h-0.6v-0.3l0.4-0.6l0.8-1.2h0.4v1.2h1.1v0.9h-1.1v2.7
			c0,0.4,0.1,0.6,0.4,0.6c0.3,0,0.6-0.2,0.7-0.5v1c-0.1,0.2-0.4,0.4-1,0.4C197.6,267,197.2,266.4,197.2,265.5z"/>
		<path id="XMLID_319_" class="st0" d="M200.3,261.8h0.9l0.1,0.7c0-0.6,0.5-0.9,0.9-0.9c0.3,0,0.4,0.1,0.5,0.1v1.1
			c-0.1-0.1-0.3-0.2-0.5-0.2c-0.4,0-0.6,0.2-0.8,0.5v3.6h-1.1V261.8z"/>
		<path id="XMLID_316_" class="st0" d="M203.2,264.3c0-1.8,1.1-2.7,2.3-2.7c1.3,0,2.2,0.9,2.2,2.7c0,1.8-1.1,2.7-2.3,2.7
			C204.1,267,203.2,266.1,203.2,264.3z M206.5,264.3c0-1-0.4-1.7-1.1-1.7c-0.8,0-1.1,0.7-1.1,1.7c0,1,0.4,1.7,1.1,1.7
			C206.2,266,206.5,265.3,206.5,264.3z"/>
		<path id="XMLID_314_" class="st0" d="M208.5,265.7v-5.8h1.1v5.6c0,0.3,0.1,0.5,0.3,0.5c0.2,0,0.4-0.1,0.4-0.3v0.9
			c-0.1,0.1-0.3,0.3-0.7,0.3C208.9,267,208.5,266.5,208.5,265.7z"/>
		<path id="XMLID_312_" class="st0" d="M211,265.7v-5.8h1.1v5.6c0,0.3,0.1,0.5,0.3,0.5c0.2,0,0.4-0.1,0.4-0.3v0.9
			c-0.1,0.1-0.3,0.3-0.7,0.3C211.4,267,211,266.5,211,265.7z"/>
		<path id="XMLID_309_" class="st0" d="M213.4,264.3c0-1.8,1.1-2.7,2.2-2.7c1,0,2.1,0.5,2.1,2.4v0.7h-3.1c0.1,0.7,0.5,1.3,1.3,1.3
			c0.8,0,1.3-0.4,1.5-0.7v1.1c-0.2,0.3-0.8,0.6-1.7,0.6C214.3,267,213.4,266.1,213.4,264.3z M216.5,263.9L216.5,263.9
			c0-0.8-0.3-1.3-1-1.3c-0.6,0-1,0.6-1,1.3H216.5z"/>
		<path id="XMLID_306_" class="st0" d="M218.2,264.4c0-1.8,0.9-2.8,2.1-2.8c0.3,0,0.8,0.1,1,0.3v-2h1.1v6.9h-1l-0.1-0.5
			c-0.1,0.3-0.5,0.6-1.2,0.6C219,267,218.2,266.2,218.2,264.4z M221.3,262.9c-0.2-0.3-0.5-0.4-0.9-0.4c-0.8,0-1.1,0.8-1.1,1.8
			c0,1,0.3,1.6,1,1.6c0.5,0,0.8-0.2,0.9-0.5V262.9z"/>
		<path id="XMLID_304_" class="st0" d="M223.3,268.2c0.2-0.3,0.4-0.9,0.4-1.3c-0.2-0.1-0.4-0.4-0.4-0.7c0-0.5,0.3-0.8,0.7-0.8
			c0.4,0,0.7,0.3,0.7,0.8c0,0.8-0.6,1.7-0.9,2L223.3,268.2z"/>
		<path id="XMLID_301_" class="st0" d="M227.4,264.5c0-2.2,1.2-3.5,2.2-4h1.5v0.1c-1,0.5-1.9,1.1-2.3,2.2c0.2-0.2,0.5-0.3,0.9-0.3
			c1.2,0,1.9,0.8,1.9,2.1c0,1.3-0.8,2.3-2.1,2.3S227.4,266,227.4,264.5z M230.5,264.7c0-0.7-0.3-1.2-1-1.2c-0.5,0-0.8,0.2-1,0.4
			c0,0.2,0,0.4,0,0.7c0,0.8,0.3,1.3,1,1.3S230.5,265.4,230.5,264.7z"/>
		<path id="XMLID_299_" class="st0" d="M232.3,263.5h2.2v1h-2.2V263.5z"/>
		<path id="XMLID_297_" class="st0" d="M235.2,261.8h1.1l0.7,3l1-3h0.5l1,3l0.7-3h1l-1.2,5.1h-0.7l-1.1-3l-1.1,3h-0.7L235.2,261.8z"
			/>
		<path id="XMLID_294_" class="st0" d="M241.6,264.3c0-1.8,1.1-2.7,2.2-2.7c1,0,2.1,0.5,2.1,2.4v0.7h-3.1c0.1,0.7,0.5,1.3,1.3,1.3
			c0.8,0,1.3-0.4,1.5-0.7v1.1c-0.2,0.3-0.8,0.6-1.7,0.6C242.6,267,241.6,266.1,241.6,264.3z M244.8,263.9L244.8,263.9
			c0-0.8-0.3-1.3-1-1.3c-0.6,0-1,0.6-1,1.3H244.8z"/>
		<path id="XMLID_291_" class="st0" d="M246.5,264.3c0-1.8,1.1-2.7,2.2-2.7c1,0,2.1,0.5,2.1,2.4v0.7h-3.1c0.1,0.7,0.5,1.3,1.3,1.3
			c0.8,0,1.3-0.4,1.5-0.7v1.1c-0.2,0.3-0.8,0.6-1.7,0.6C247.4,267,246.5,266.1,246.5,264.3z M249.6,263.9L249.6,263.9
			c0-0.8-0.3-1.3-1-1.3c-0.6,0-1,0.6-1,1.3H249.6z"/>
		<path id="XMLID_289_" class="st0" d="M253.2,264.5c-0.3,0.3-0.5,0.5-0.5,0.5v1.9h-1.1v-6.9h1.1v3.9c0,0,1.1-0.9,1.8-2h1.1
			c-0.4,0.7-1,1.4-1.5,2l1.8,3.1h-1.3L253.2,264.5z"/>
		<path id="XMLID_287_" class="st0" d="M258.3,266.5v-1.1c0.3,0.3,0.7,0.6,1.3,0.6c0.6,0,0.9-0.3,0.9-0.6c0-0.3-0.1-0.5-0.7-0.6
			l-0.2,0c-0.9-0.2-1.3-0.6-1.3-1.6c0-0.9,0.6-1.6,1.8-1.6c0.6,0,1.1,0.2,1.3,0.5v1.1c-0.3-0.4-0.7-0.6-1.3-0.6
			c-0.6,0-0.8,0.2-0.8,0.6s0.1,0.5,0.7,0.6l0.2,0c0.9,0.2,1.4,0.6,1.4,1.5c0,0.9-0.6,1.7-1.9,1.7C259,267,258.5,266.8,258.3,266.5z"
			/>
		<path id="XMLID_285_" class="st0" d="M262.1,264.3c0-1.8,1.1-2.7,2.3-2.7c0.6,0,1.1,0.2,1.3,0.5v1.2c-0.3-0.4-0.7-0.6-1.2-0.6
			c-0.8,0-1.2,0.6-1.2,1.7c0,1,0.5,1.7,1.2,1.7c0.6,0,1-0.3,1.3-0.7v1.1c-0.2,0.3-0.7,0.6-1.4,0.6
			C263.1,267,262.1,266.1,262.1,264.3z"/>
		<path id="XMLID_283_" class="st0" d="M266.7,259.9h1.1v2.3c0.2-0.3,0.6-0.6,1.2-0.6c1.2,0,1.7,0.7,1.7,2.1v3.2h-1.1v-2.9
			c0-1-0.2-1.4-0.9-1.4c-0.5,0-0.8,0.3-0.9,0.5v3.8h-1.1V259.9z"/>
		<path id="XMLID_280_" class="st0" d="M271.7,260.6c0-0.4,0.2-0.6,0.6-0.6c0.4,0,0.6,0.2,0.6,0.6c0,0.4-0.2,0.6-0.6,0.6
			C271.9,261.2,271.7,261,271.7,260.6z M271.7,261.8h1.1v5.1h-1.1V261.8z"/>
		<path id="XMLID_278_" class="st0" d="M273.7,266.5l2.1-3.8h-2.1v-0.9h3.5v0.3l-2,3.8h2v0.9h-3.5V266.5z"/>
		<path id="XMLID_275_" class="st0" d="M277.7,264.3c0-1.8,1.1-2.7,2.3-2.7c1.3,0,2.2,0.9,2.2,2.7c0,1.8-1.1,2.7-2.3,2.7
			C278.6,267,277.7,266.1,277.7,264.3z M281.1,264.3c0-1-0.4-1.7-1.1-1.7c-0.8,0-1.1,0.7-1.1,1.7c0,1,0.4,1.7,1.1,1.7
			C280.7,266,281.1,265.3,281.1,264.3z"/>
		<path id="XMLID_272_" class="st0" d="M283.1,261.8h1l0.1,0.5c0.1-0.3,0.5-0.6,1.2-0.6c1.1,0,1.9,0.7,1.9,2.5c0,1.8-1,2.8-2.1,2.8
			c-0.3,0-0.8-0.1-1-0.3v2h-1.1V261.8z M286.1,264.2c0-1-0.3-1.6-1-1.6c-0.5,0-0.8,0.2-0.9,0.5v2.6c0.2,0.3,0.5,0.4,0.9,0.4
			C285.8,266,286.1,265.2,286.1,264.2z"/>
		<path id="XMLID_270_" class="st0" d="M288.1,259.9h1.1v2.3c0.2-0.3,0.6-0.6,1.2-0.6c1.2,0,1.7,0.7,1.7,2.1v3.2H291v-2.9
			c0-1-0.2-1.4-0.9-1.4c-0.5,0-0.8,0.3-0.9,0.5v3.8h-1.1V259.9z"/>
		<path id="XMLID_268_" class="st0" d="M293.2,261.8h0.9l0.1,0.7c0-0.6,0.5-0.9,0.9-0.9c0.3,0,0.4,0.1,0.5,0.1v1.1
			c-0.1-0.1-0.3-0.2-0.5-0.2c-0.4,0-0.6,0.2-0.8,0.5v3.6h-1.1V261.8z"/>
		<path id="XMLID_265_" class="st0" d="M296.1,264.3c0-1.8,1.1-2.7,2.2-2.7c1,0,2.1,0.5,2.1,2.4v0.7h-3.1c0.1,0.7,0.5,1.3,1.3,1.3
			c0.8,0,1.3-0.4,1.5-0.7v1.1c-0.2,0.3-0.8,0.6-1.7,0.6C297,267,296.1,266.1,296.1,264.3z M299.2,263.9L299.2,263.9
			c0-0.8-0.3-1.3-1-1.3c-0.6,0-1,0.6-1,1.3H299.2z"/>
		<path id="XMLID_263_" class="st0" d="M301.1,261.8h1l0.1,0.5c0.2-0.3,0.6-0.6,1.2-0.6c1.2,0,1.7,0.7,1.7,2.1v3.2H304v-2.9
			c0-1-0.2-1.4-0.9-1.4c-0.5,0-0.8,0.3-0.9,0.5v3.8h-1.1V261.8z"/>
		<path id="XMLID_260_" class="st0" d="M306.2,260.6c0-0.4,0.2-0.6,0.6-0.6c0.4,0,0.6,0.2,0.6,0.6c0,0.4-0.2,0.6-0.6,0.6
			C306.3,261.2,306.2,261,306.2,260.6z M306.2,261.8h1.1v5.1h-1.1V261.8z"/>
		<path id="XMLID_257_" class="st0" d="M308.2,265.5c0-1,0.7-1.5,2-1.7l0.7-0.1c0-0.9-0.4-1.2-1.1-1.2c-0.7,0-1.2,0.4-1.5,1v-1.2
			c0.2-0.3,0.6-0.7,1.7-0.7c1.3,0,2,0.7,2,2.2v3.1h-1l-0.1-0.5c-0.1,0.3-0.5,0.6-1.1,0.6C308.9,267,308.2,266.5,308.2,265.5z
			 M310.9,264.5l-0.6,0.1c-0.8,0.2-1,0.4-1,0.8s0.3,0.6,0.7,0.6c0.4,0,0.8-0.2,1-0.4V264.5z"/>
		<path id="XMLID_255_" class="st0" d="M315.3,265.5v-2.8h-0.6v-0.3l0.4-0.6l0.8-1.2h0.4v1.2h1.1v0.9h-1.1v2.7
			c0,0.4,0.1,0.6,0.4,0.6c0.3,0,0.6-0.2,0.7-0.5v1c-0.1,0.2-0.4,0.4-1,0.4C315.7,267,315.3,266.4,315.3,265.5z"/>
		<path id="XMLID_253_" class="st0" d="M318.4,261.8h0.9l0.1,0.7c0-0.6,0.5-0.9,0.9-0.9c0.3,0,0.4,0.1,0.5,0.1v1.1
			c-0.1-0.1-0.3-0.2-0.5-0.2c-0.4,0-0.6,0.2-0.8,0.5v3.6h-1.1V261.8z"/>
		<path id="XMLID_250_" class="st0" d="M321.4,260.6c0-0.4,0.2-0.6,0.6-0.6c0.4,0,0.6,0.2,0.6,0.6c0,0.4-0.2,0.6-0.6,0.6
			C321.6,261.2,321.4,261,321.4,260.6z M321.5,261.8h1.1v5.1h-1.1V261.8z"/>
		<path id="XMLID_247_" class="st0" d="M323.5,265.5c0-1,0.7-1.5,2-1.7l0.7-0.1c0-0.9-0.4-1.2-1.1-1.2c-0.7,0-1.2,0.4-1.5,1v-1.2
			c0.2-0.3,0.6-0.7,1.7-0.7c1.3,0,2,0.7,2,2.2v3.1h-1l-0.1-0.5c-0.1,0.3-0.5,0.6-1.1,0.6C324.2,267,323.5,266.5,323.5,265.5z
			 M326.2,264.5l-0.6,0.1c-0.8,0.2-1,0.4-1,0.8s0.3,0.6,0.7,0.6c0.4,0,0.8-0.2,1-0.4V264.5z"/>
		<path id="XMLID_245_" class="st0" d="M328.3,265.7v-5.8h1.1v5.6c0,0.3,0.1,0.5,0.3,0.5c0.2,0,0.4-0.1,0.4-0.3v0.9
			c-0.1,0.1-0.3,0.3-0.7,0.3C328.7,267,328.3,266.5,328.3,265.7z"/>
		<path id="XMLID_243_" class="st0" d="M330.7,266.5v-1.1c0.3,0.3,0.7,0.6,1.3,0.6c0.6,0,0.9-0.3,0.9-0.6c0-0.3-0.1-0.5-0.7-0.6
			l-0.2,0c-0.9-0.2-1.3-0.6-1.3-1.6c0-0.9,0.6-1.6,1.8-1.6c0.6,0,1.1,0.2,1.3,0.5v1.1c-0.3-0.4-0.7-0.6-1.3-0.6
			c-0.6,0-0.8,0.2-0.8,0.6s0.1,0.5,0.7,0.6l0.2,0c0.9,0.2,1.4,0.6,1.4,1.5c0,0.9-0.6,1.7-1.9,1.7C331.4,267,331,266.8,330.7,266.5z"
			/>
		<path id="XMLID_241_" class="st0" d="M13.9,275.1c0-1.5,0.7-3.1,1.8-3.7h1c-1.1,0.6-1.8,2-1.8,3.7c0,1.8,0.8,3.3,1.8,3.9h-1
			C14.6,278.3,13.9,276.7,13.9,275.1z"/>
		<path id="XMLID_238_" class="st0" d="M18.7,272.2l-0.2-0.6h1.2l2.2,6.3h-1.2l-0.5-1.3h-2.1l-0.4,1.3h-1.1L18.7,272.2z M18.5,275.7
			H20l-0.6-1.7l-0.2-0.5l-0.2,0.5L18.5,275.7z"/>
		<path id="XMLID_236_" class="st0" d="M22.4,277.6v-1.1c0.3,0.3,0.7,0.6,1.3,0.6c0.6,0,0.9-0.3,0.9-0.6c0-0.3-0.1-0.5-0.7-0.6
			l-0.2,0c-0.9-0.2-1.3-0.6-1.3-1.6c0-0.9,0.6-1.6,1.8-1.6c0.6,0,1.1,0.2,1.3,0.5v1.1c-0.3-0.4-0.7-0.6-1.3-0.6
			c-0.6,0-0.8,0.2-0.8,0.6s0.1,0.5,0.7,0.6l0.2,0c0.9,0.2,1.4,0.6,1.4,1.5c0,0.9-0.6,1.7-1.9,1.7C23.1,278,22.6,277.8,22.4,277.6z"
			/>
		<path id="XMLID_233_" class="st0" d="M26.3,275.3c0-1.8,1.1-2.7,2.2-2.7c1,0,2.1,0.5,2.1,2.4v0.7h-3.1c0.1,0.7,0.5,1.3,1.3,1.3
			c0.8,0,1.3-0.4,1.5-0.7v1.1c-0.2,0.3-0.8,0.6-1.7,0.6C27.2,278,26.3,277.2,26.3,275.3z M29.4,274.9L29.4,274.9
			c0-0.8-0.3-1.3-1-1.3c-0.6,0-1,0.6-1,1.3H29.4z"/>
		<path id="XMLID_231_" class="st0" d="M31.4,272.8h1l0.1,0.5c0.2-0.3,0.6-0.6,1.2-0.6c1.2,0,1.7,0.7,1.7,2.1v3.2h-1.1v-2.9
			c0-1-0.2-1.4-0.9-1.4c-0.5,0-0.8,0.3-0.9,0.5v3.8h-1.1V272.8z"/>
		<path id="XMLID_228_" class="st0" d="M36.2,276.6c0-1,0.7-1.5,2-1.7l0.7-0.1c0-0.9-0.4-1.2-1.1-1.2c-0.7,0-1.2,0.4-1.5,1v-1.2
			c0.2-0.3,0.6-0.7,1.7-0.7c1.3,0,2,0.7,2,2.2v3.1h-1l-0.1-0.5c-0.1,0.3-0.5,0.6-1.1,0.6C36.9,278,36.2,277.6,36.2,276.6z
			 M38.9,275.6l-0.6,0.1c-0.8,0.2-1,0.4-1,0.8s0.3,0.6,0.7,0.6c0.4,0,0.8-0.2,1-0.4V275.6z"/>
		<path id="XMLID_225_" class="st0" d="M41,272.8h1l0.1,0.5c0.1-0.3,0.5-0.6,1.2-0.6c1.1,0,1.9,0.7,1.9,2.5c0,1.8-1,2.8-2.1,2.8
			c-0.3,0-0.8-0.1-1-0.3v2H41V272.8z M44.1,275.3c0-1-0.3-1.6-1-1.6c-0.5,0-0.8,0.2-0.9,0.5v2.6c0.2,0.3,0.5,0.4,0.9,0.4
			C43.8,277.1,44.1,276.3,44.1,275.3z"/>
		<path id="XMLID_222_" class="st0" d="M46.1,271.6c0-0.4,0.2-0.6,0.6-0.6c0.4,0,0.6,0.2,0.6,0.6c0,0.4-0.2,0.6-0.6,0.6
			C46.2,272.2,46.1,272,46.1,271.6z M46.1,272.8h1.1v5.1h-1.1V272.8z"/>
		<path id="XMLID_220_" class="st0" d="M48.3,272.8h1l0.1,0.5c0.2-0.3,0.6-0.6,1.2-0.6c1.2,0,1.7,0.7,1.7,2.1v3.2h-1.1v-2.9
			c0-1-0.2-1.4-0.9-1.4c-0.5,0-0.8,0.3-0.9,0.5v3.8h-1.1V272.8z"/>
		<path id="XMLID_217_" class="st0" d="M53.1,275.3c0-1.8,1.1-2.7,2.2-2.7c1,0,2.1,0.5,2.1,2.4v0.7h-3.1c0.1,0.7,0.5,1.3,1.3,1.3
			c0.8,0,1.3-0.4,1.5-0.7v1.1c-0.2,0.3-0.8,0.6-1.7,0.6C54.1,278,53.1,277.2,53.1,275.3z M56.3,274.9L56.3,274.9
			c0-0.8-0.3-1.3-1-1.3c-0.6,0-1,0.6-1,1.3H56.3z"/>
		<path id="XMLID_215_" class="st0" d="M60.1,277.7v-1.2c0.2,0.2,0.6,0.5,1.2,0.5c0.8,0,1.2-0.4,1.2-1c0-0.6-0.3-0.9-1.2-0.9
			c-0.5,0-0.8,0.1-1.1,0.2l0.1-3.7h3.1v1h-2.2l0,1.5c0.1,0,0.3-0.1,0.5-0.1c1.2,0,1.9,0.6,1.9,1.8c0,1.3-1,2.1-2.3,2.1
			C60.6,278,60.3,277.9,60.1,277.7z"/>
		<path id="XMLID_212_" class="st0" d="M66.3,275.3c0-1.8,1.1-2.7,2.3-2.7c1.3,0,2.2,0.9,2.2,2.7c0,1.8-1.1,2.7-2.3,2.7
			C67.2,278,66.3,277.2,66.3,275.3z M69.7,275.3c0-1-0.4-1.7-1.1-1.7c-0.8,0-1.1,0.7-1.1,1.7c0,1,0.4,1.7,1.1,1.7
			C69.3,277,69.7,276.3,69.7,275.3z"/>
		<path id="XMLID_210_" class="st0" d="M71.7,272.8h0.9l0.1,0.7c0-0.6,0.5-0.9,0.9-0.9c0.3,0,0.4,0.1,0.5,0.1v1.1
			c-0.1-0.1-0.3-0.2-0.5-0.2c-0.4,0-0.6,0.2-0.8,0.5v3.6h-1.1V272.8z"/>
		<path id="XMLID_208_" class="st0" d="M77.7,273.1c-0.2,0.2-0.8,0.3-1.3,0.3v-1c0.8,0,1.4-0.2,1.9-0.8h0.5v6.3h-1.1V273.1z"/>
		<path id="XMLID_205_" class="st0" d="M79.7,274.7c0-2.1,1.4-3.3,2.9-3.3c1.7,0,2.9,1.2,2.9,3.3c0,2.1-1.3,3.3-2.9,3.3
			C80.8,278,79.7,276.8,79.7,274.7z M84.3,274.7c0-1.5-0.7-2.3-1.7-2.3c-1,0-1.7,0.8-1.7,2.3c0,1.5,0.7,2.3,1.7,2.3
			C83.5,277,84.3,276.2,84.3,274.7z"/>
		<path id="XMLID_203_" class="st0" d="M88.3,272.8h1l0.1,0.5c0.2-0.3,0.6-0.6,1.1-0.6c0.7,0,1.1,0.2,1.4,0.7
			c0.2-0.3,0.6-0.7,1.4-0.7c1.1,0,1.6,0.7,1.6,2.1v3.2h-1.1v-2.9c0-1-0.2-1.4-0.8-1.4c-0.4,0-0.8,0.2-0.9,0.5c0,0.2,0,0.4,0,0.6v3.2
			H91v-2.9c0-1-0.2-1.4-0.8-1.4c-0.4,0-0.7,0.2-0.9,0.5v3.8h-1.1V272.8z"/>
		<path id="XMLID_200_" class="st0" d="M95.6,279.3v-1c0.4,0.3,1,0.5,1.9,0.5c1.1,0,1.6-0.2,1.6-0.6c0-0.4-0.3-0.5-1-0.5
			c-0.6,0-1.6,0.1-2,0.3v-0.9l0.6-1.1c-0.7-0.2-1-0.8-1-1.6c0-1.1,0.8-1.8,2-1.8c0.5,0,0.9,0.1,1.3,0.4c0.2-0.2,0.5-0.4,0.9-0.4
			c0.1,0,0.2,0,0.4,0v0.9c-0.1,0-0.2-0.1-0.3-0.1c-0.2,0-0.4,0.1-0.5,0.1c0.1,0.2,0.1,0.4,0.1,0.7c0,1.1-0.8,1.8-1.9,1.8h-0.1
			l-0.4,0.8c0.2-0.1,0.7-0.2,1.2-0.2c1.1,0,1.9,0.3,1.9,1.3c0,1-0.9,1.7-2.5,1.7C96.7,279.8,96,279.6,95.6,279.3z M98.5,274.4
			c0-0.6-0.3-0.9-0.9-0.9s-0.9,0.3-0.9,0.9c0,0.6,0.3,0.9,0.9,0.9S98.5,275,98.5,274.4z"/>
		<path id="XMLID_196_" class="st0" d="M102.9,271.6h1.7c1.6,0,2.2,0.6,2.2,1.6c0,0.9-0.4,1.3-1.1,1.5v0c0.7,0.1,1.2,0.5,1.2,1.5
			c0,1-0.6,1.8-2.2,1.8h-1.8V271.6z M104.6,274.2c0.8,0,1.1-0.3,1.1-0.8s-0.3-0.7-1.1-0.7H104v1.6H104.6z M104.6,276.9
			c0.8,0,1.1-0.3,1.1-0.9s-0.3-0.9-1.1-0.9H104v1.7H104.6z"/>
		<path id="XMLID_194_" class="st0" d="M107.9,271.6h1.1v6.3h-1.1V271.6z"/>
		<path id="XMLID_191_" class="st0" d="M110.2,271.6h1.6c1.9,0,3,0.8,3,3.1s-1.4,3.1-3,3.1h-1.6V271.6z M111.9,276.8
			c1.5,0,1.9-0.6,1.9-2c0-1.4-0.4-2.1-1.9-2.1h-0.5v4.2H111.9z"/>
		<path id="XMLID_189_" class="st0" d="M117,275.2c0-1.8-0.8-3.3-1.8-3.9h1c1.1,0.6,1.8,2.3,1.8,3.9c0,1.5-0.7,3.1-1.8,3.7h-1
			C116.3,278.3,117,277,117,275.2z"/>
		<path id="XMLID_187_" class="st0" d="M118.7,277.3c0-0.4,0.3-0.8,0.7-0.8c0.4,0,0.7,0.3,0.7,0.8s-0.3,0.8-0.7,0.8
			C118.9,278,118.7,277.7,118.7,277.3z"/>
	</g>
</g>
<g id="XMLID_94_">
	<path id="XMLID_182_" class="st0" d="M8,59.5v-1.6c0.3,0.5,0.9,0.9,1.7,0.9c0.8,0,1.2-0.4,1.2-1.1c0-0.5-0.3-0.8-1.1-1l-0.2-0.1
		c-1.1-0.3-1.7-1-1.7-2.1c0-1.4,0.9-2.3,2.4-2.3c0.9,0,1.5,0.3,1.7,0.5v1.6c-0.3-0.5-0.9-0.9-1.7-0.9c-0.7,0-1.1,0.3-1.1,0.9
		c0,0.5,0.2,0.8,1,1l0.2,0.1c1.2,0.3,1.7,0.9,1.7,2.1c0,1.4-0.9,2.5-2.5,2.5C8.7,60,8.2,59.7,8,59.5z"/>
	<path id="XMLID_180_" class="st0" d="M13.3,51.7h1.3v2.7c0.2-0.4,0.7-0.7,1.4-0.7c1.4,0,2,0.8,2,2.4v3.7h-1.3v-3.5
		c0-1.2-0.2-1.6-1-1.6c-0.6,0-1,0.3-1.1,0.6v4.5h-1.3V51.7z"/>
	<path id="XMLID_177_" class="st0" d="M19,56.8c0-2.2,1.3-3.2,2.7-3.2c1.5,0,2.6,1,2.6,3.2c0,2.2-1.3,3.2-2.7,3.2
		C20.1,60,19,59,19,56.8z M23,56.8c0-1.2-0.4-2-1.3-2c-0.9,0-1.3,0.8-1.3,2c0,1.2,0.4,2,1.3,2C22.5,58.9,23,58,23,56.8z"/>
	<path id="XMLID_175_" class="st0" d="M25.3,53.8h1.1l0.1,0.8c0-0.7,0.5-1,1.1-1c0.3,0,0.5,0.1,0.6,0.2v1.3
		c-0.1-0.1-0.3-0.2-0.6-0.2c-0.5,0-0.7,0.2-0.9,0.6v4.3h-1.3V53.8z"/>
	<path id="XMLID_173_" class="st0" d="M29.2,58.3V55h-0.7v-0.4l0.5-0.7l1-1.4h0.4v1.4h1.4V55h-1.4v3.2c0,0.5,0.1,0.7,0.5,0.7
		c0.4,0,0.7-0.2,0.9-0.6v1.2c-0.2,0.2-0.5,0.5-1.1,0.5C29.7,60,29.2,59.4,29.2,58.3z"/>
	<path id="XMLID_171_" class="st0" d="M32.8,55.9h2.6v1.2h-2.6V55.9z"/>
	<path id="XMLID_169_" class="st0" d="M36.9,58.3V55h-0.7v-0.4l0.5-0.7l1-1.4h0.4v1.4h1.4V55h-1.4v3.2c0,0.5,0.1,0.7,0.5,0.7
		c0.4,0,0.7-0.2,0.9-0.6v1.2C39.4,59.8,39,60,38.4,60C37.4,60,36.9,59.4,36.9,58.3z"/>
	<path id="XMLID_166_" class="st0" d="M40.3,56.8c0-2.2,1.3-3.2,2.6-3.2c1.2,0,2.4,0.6,2.4,2.8v0.8h-3.7c0.1,0.8,0.5,1.5,1.6,1.5
		c1,0,1.5-0.4,1.8-0.9v1.3c-0.3,0.3-0.9,0.8-2,0.8C41.4,60,40.3,59,40.3,56.8z M44,56.3L44,56.3c0-1-0.4-1.5-1.2-1.5
		c-0.7,0-1.2,0.7-1.2,1.5H44z"/>
	<path id="XMLID_164_" class="st0" d="M46.3,53.8h1.1l0.1,0.8c0-0.7,0.5-1,1.1-1c0.3,0,0.5,0.1,0.6,0.2v1.3
		c-0.1-0.1-0.3-0.2-0.6-0.2c-0.5,0-0.7,0.2-0.9,0.6v4.3h-1.3V53.8z"/>
	<path id="XMLID_162_" class="st0" d="M50,53.8h1.2l0.1,0.5c0.2-0.4,0.7-0.7,1.3-0.7c0.8,0,1.3,0.3,1.6,0.9c0.2-0.4,0.7-0.9,1.6-0.9
		c1.3,0,1.9,0.8,1.9,2.4v3.7h-1.3v-3.5c0-1.2-0.2-1.6-0.9-1.6c-0.5,0-0.9,0.3-1.1,0.6c0,0.2,0,0.5,0,0.7v3.7h-1.3v-3.5
		c0-1.2-0.2-1.6-0.9-1.6c-0.5,0-0.9,0.3-1,0.6v4.5H50V53.8z"/>
	<path id="XMLID_160_" class="st0" d="M61.2,59.5v-1.4c0.3,0.4,0.8,0.7,1.6,0.7c0.8,0,1-0.3,1-0.7c0-0.4-0.1-0.6-0.8-0.7l-0.3-0.1
		c-1-0.2-1.6-0.8-1.6-1.9c0-1,0.7-1.9,2.1-1.9c0.7,0,1.3,0.2,1.6,0.5v1.4c-0.3-0.5-0.8-0.8-1.6-0.8c-0.7,0-1,0.3-1,0.7
		s0.1,0.6,0.8,0.7l0.3,0.1c1.1,0.2,1.7,0.7,1.7,1.8c0,1-0.7,2-2.3,2C62,60,61.5,59.8,61.2,59.5z"/>
	<path id="XMLID_158_" class="st0" d="M65.8,56.8c0-2.2,1.3-3.2,2.7-3.2c0.7,0,1.3,0.3,1.6,0.6v1.4c-0.3-0.5-0.8-0.7-1.5-0.7
		c-0.9,0-1.4,0.7-1.4,2c0,1.2,0.5,2,1.4,2c0.7,0,1.2-0.3,1.5-0.8v1.3c-0.2,0.3-0.9,0.7-1.6,0.7C66.8,60,65.8,59,65.8,56.8z"/>
	<path id="XMLID_156_" class="st0" d="M71.1,51.7h1.3v2.7c0.2-0.4,0.7-0.7,1.4-0.7c1.4,0,2,0.8,2,2.4v3.7h-1.3v-3.5
		c0-1.2-0.2-1.6-1-1.6c-0.6,0-1,0.3-1.1,0.6v4.5h-1.3V51.7z"/>
	<path id="XMLID_153_" class="st0" d="M77,52.4c0-0.5,0.2-0.7,0.7-0.7c0.5,0,0.7,0.3,0.7,0.7c0,0.5-0.3,0.7-0.7,0.7
		C77.3,53.1,77,52.9,77,52.4z M77.1,53.8h1.3v6h-1.3V53.8z"/>
	<path id="XMLID_151_" class="st0" d="M79.4,59.5l2.5-4.5h-2.5v-1.1h4.1v0.4l-2.4,4.5h2.4v1.1h-4.1V59.5z"/>
	<path id="XMLID_148_" class="st0" d="M84.2,56.8c0-2.2,1.3-3.2,2.7-3.2c1.5,0,2.6,1,2.6,3.2c0,2.2-1.3,3.2-2.7,3.2
		C85.3,60,84.2,59,84.2,56.8z M88.2,56.8c0-1.2-0.4-2-1.3-2c-0.9,0-1.3,0.8-1.3,2c0,1.2,0.4,2,1.3,2C87.8,58.9,88.2,58,88.2,56.8z"
		/>
	<path id="XMLID_145_" class="st0" d="M90.6,53.8h1.2l0.1,0.5c0.2-0.3,0.6-0.7,1.4-0.7c1.3,0,2.2,0.8,2.2,3c0,2.2-1.1,3.3-2.5,3.3
		c-0.4,0-0.9-0.1-1.2-0.4V62h-1.3V53.8z M94.2,56.8c0-1.2-0.3-2-1.2-2c-0.6,0-0.9,0.3-1.1,0.6v3.1c0.2,0.3,0.6,0.4,1,0.4
		C93.8,58.9,94.2,57.9,94.2,56.8z"/>
	<path id="XMLID_143_" class="st0" d="M96.5,51.7h1.3v2.7c0.2-0.4,0.7-0.7,1.4-0.7c1.4,0,2,0.8,2,2.4v3.7h-1.3v-3.5
		c0-1.2-0.2-1.6-1-1.6c-0.6,0-1,0.3-1.1,0.6v4.5h-1.3V51.7z"/>
	<path id="XMLID_141_" class="st0" d="M102.5,53.8h1.1l0.1,0.8c0-0.7,0.5-1,1.1-1c0.3,0,0.5,0.1,0.6,0.2v1.3
		c-0.1-0.1-0.3-0.2-0.6-0.2c-0.5,0-0.7,0.2-0.9,0.6v4.3h-1.3V53.8z"/>
	<path id="XMLID_138_" class="st0" d="M105.9,56.8c0-2.2,1.3-3.2,2.6-3.2c1.2,0,2.4,0.6,2.4,2.8v0.8h-3.7c0.1,0.8,0.5,1.5,1.6,1.5
		c1,0,1.5-0.4,1.8-0.9v1.3c-0.3,0.3-0.9,0.8-2,0.8C107,60,105.9,59,105.9,56.8z M109.6,56.3L109.6,56.3c0-1-0.4-1.5-1.2-1.5
		c-0.7,0-1.2,0.7-1.2,1.5H109.6z"/>
	<path id="XMLID_136_" class="st0" d="M111.9,53.8h1.2l0.1,0.5c0.2-0.4,0.7-0.7,1.4-0.7c1.4,0,2,0.8,2,2.4v3.7h-1.3v-3.5
		c0-1.2-0.2-1.6-1-1.6c-0.6,0-1,0.3-1.1,0.6v4.5h-1.3V53.8z"/>
	<path id="XMLID_133_" class="st0" d="M117.8,52.4c0-0.5,0.2-0.7,0.7-0.7c0.5,0,0.7,0.3,0.7,0.7c0,0.5-0.3,0.7-0.7,0.7
		C118.1,53.1,117.8,52.9,117.8,52.4z M117.9,53.8h1.3v6h-1.3V53.8z"/>
	<path id="XMLID_130_" class="st0" d="M120.2,58.3c0-1.2,0.9-1.7,2.4-2l0.8-0.1c0-1-0.5-1.4-1.2-1.4c-0.8,0-1.5,0.5-1.7,1.1v-1.4
		c0.2-0.4,0.8-0.9,2-0.9c1.5,0,2.3,0.8,2.3,2.5v3.6h-1.2l-0.1-0.5c-0.1,0.3-0.6,0.7-1.4,0.7C121.1,60,120.2,59.5,120.2,58.3z
		 M123.4,57.1l-0.7,0.2c-0.9,0.2-1.2,0.5-1.2,1s0.3,0.7,0.8,0.7c0.5,0,1-0.2,1.1-0.5V57.1z"/>
	<path id="XMLID_128_" class="st0" d="M128.6,58.3V55H128v-0.4l0.5-0.7l1-1.4h0.4v1.4h1.4V55h-1.4v3.2c0,0.5,0.1,0.7,0.5,0.7
		c0.4,0,0.7-0.2,0.9-0.6v1.2c-0.2,0.2-0.5,0.5-1.1,0.5C129.1,60,128.6,59.4,128.6,58.3z"/>
	<path id="XMLID_126_" class="st0" d="M132.3,53.8h1.1l0.1,0.8c0-0.7,0.5-1,1.1-1c0.3,0,0.5,0.1,0.6,0.2v1.3
		c-0.1-0.1-0.3-0.2-0.6-0.2c-0.5,0-0.7,0.2-0.9,0.6v4.3h-1.3V53.8z"/>
	<path id="XMLID_123_" class="st0" d="M135.9,52.4c0-0.5,0.2-0.7,0.7-0.7c0.5,0,0.7,0.3,0.7,0.7c0,0.5-0.3,0.7-0.7,0.7
		C136.2,53.1,135.9,52.9,135.9,52.4z M136,53.8h1.3v6H136V53.8z"/>
	<path id="XMLID_120_" class="st0" d="M138.3,58.3c0-1.2,0.9-1.7,2.4-2l0.8-0.1c0-1-0.5-1.4-1.2-1.4c-0.8,0-1.5,0.5-1.7,1.1v-1.4
		c0.2-0.4,0.8-0.9,2-0.9c1.5,0,2.3,0.8,2.3,2.5v3.6h-1.2l-0.1-0.5c-0.1,0.3-0.6,0.7-1.4,0.7C139.2,60,138.3,59.5,138.3,58.3z
		 M141.5,57.1l-0.7,0.2c-0.9,0.2-1.2,0.5-1.2,1s0.3,0.7,0.8,0.7c0.5,0,1-0.2,1.1-0.5V57.1z"/>
	<path id="XMLID_118_" class="st0" d="M144.1,58.5v-6.8h1.3v6.7c0,0.4,0.1,0.5,0.4,0.5c0.3,0,0.4-0.1,0.5-0.3v1.1
		c-0.1,0.1-0.4,0.3-0.9,0.3C144.5,60,144.1,59.5,144.1,58.5z"/>
	<path id="XMLID_116_" class="st0" d="M146.9,59.5v-1.4c0.3,0.4,0.8,0.7,1.6,0.7c0.8,0,1-0.3,1-0.7c0-0.4-0.1-0.6-0.8-0.7l-0.3-0.1
		c-1-0.2-1.6-0.8-1.6-1.9c0-1,0.7-1.9,2.1-1.9c0.7,0,1.3,0.2,1.6,0.5v1.4c-0.3-0.5-0.8-0.8-1.6-0.8c-0.7,0-1,0.3-1,0.7
		s0.1,0.6,0.8,0.7l0.3,0.1c1.1,0.2,1.7,0.7,1.7,1.8c0,1-0.7,2-2.3,2C147.8,60,147.2,59.8,146.9,59.5z"/>
	<path id="XMLID_113_" class="st0" d="M154.1,52.4c0-0.5,0.2-0.7,0.7-0.7c0.5,0,0.7,0.3,0.7,0.7c0,0.5-0.3,0.7-0.7,0.7
		C154.4,53.1,154.1,52.9,154.1,52.4z M154.2,53.8h1.3v6h-1.3V53.8z"/>
	<path id="XMLID_111_" class="st0" d="M156.8,53.8h1.2l0.1,0.5c0.2-0.4,0.7-0.7,1.4-0.7c1.4,0,2,0.8,2,2.4v3.7h-1.3v-3.5
		c0-1.2-0.2-1.6-1-1.6c-0.6,0-1,0.3-1.1,0.6v4.5h-1.3V53.8z"/>
	<path id="XMLID_108_" class="st0" d="M164.9,58.3c0-1.2,0.9-1.7,2.4-2l0.8-0.1c0-1-0.5-1.4-1.2-1.4c-0.8,0-1.5,0.5-1.7,1.1v-1.4
		c0.2-0.4,0.8-0.9,2-0.9c1.5,0,2.3,0.8,2.3,2.5v3.6h-1.2l-0.1-0.5c-0.1,0.3-0.6,0.7-1.4,0.7C165.8,60,164.9,59.5,164.9,58.3z
		 M168.1,57.1l-0.7,0.2c-0.9,0.2-1.2,0.5-1.2,1s0.3,0.7,0.8,0.7c0.5,0,1-0.2,1.1-0.5V57.1z"/>
	<path id="XMLID_105_" class="st0" d="M170.4,56.9c0-2.2,1-3.3,2.4-3.3c0.4,0,0.9,0.1,1.2,0.4v-2.4h1.3v8.2h-1.2l-0.1-0.5
		c-0.2,0.3-0.6,0.7-1.4,0.7C171.4,60,170.4,59.1,170.4,56.9z M174,55.2c-0.2-0.3-0.6-0.4-1-0.4c-0.9,0-1.3,1-1.3,2.2
		c0,1.2,0.3,2,1.2,2c0.6,0,0.9-0.3,1.1-0.6V55.2z"/>
	<path id="XMLID_103_" class="st0" d="M176.6,57.6v-3.7h1.3v3.5c0,1.2,0.2,1.6,1,1.6c0.6,0,0.9-0.3,1.1-0.6v-4.5h1.3v6H180l-0.1-0.5
		c-0.2,0.4-0.7,0.7-1.4,0.7C177.1,60,176.6,59.2,176.6,57.6z"/>
	<path id="XMLID_101_" class="st0" d="M182.5,58.5v-6.8h1.3v6.7c0,0.4,0.1,0.5,0.4,0.5c0.3,0,0.4-0.1,0.5-0.3v1.1
		c-0.1,0.1-0.4,0.3-0.9,0.3C183,60,182.5,59.5,182.5,58.5z"/>
	<path id="XMLID_99_" class="st0" d="M185.8,58.3V55h-0.7v-0.4l0.5-0.7l1-1.4h0.4v1.4h1.4V55h-1.4v3.2c0,0.5,0.1,0.7,0.5,0.7
		c0.4,0,0.7-0.2,0.9-0.6v1.2c-0.2,0.2-0.5,0.5-1.1,0.5C186.3,60,185.8,59.4,185.8,58.3z"/>
	<path id="XMLID_97_" class="st0" d="M189.3,59.5v-1.4c0.3,0.4,0.8,0.7,1.6,0.7c0.8,0,1-0.3,1-0.7c0-0.4-0.1-0.6-0.8-0.7l-0.3-0.1
		c-1-0.2-1.6-0.8-1.6-1.9c0-1,0.7-1.9,2.1-1.9c0.7,0,1.3,0.2,1.6,0.5v1.4c-0.3-0.5-0.8-0.8-1.6-0.8c-0.7,0-1,0.3-1,0.7
		s0.1,0.6,0.8,0.7l0.3,0.1c1.1,0.2,1.7,0.7,1.7,1.8c0,1-0.7,2-2.3,2C190.1,60,189.6,59.8,189.3,59.5z"/>
	<path id="XMLID_95_" class="st0" d="M195.3,54.3l-0.8,0.7l-0.5-0.8l1.1-0.7l-1.1-0.6l0.5-0.8l0.9,0.7l-0.1-1.1h0.9l-0.1,1.1
		l0.8-0.7l0.5,0.7l-1.1,0.7l1,0.7l-0.5,0.8l-0.8-0.7l0.1,1.1h-0.9L195.3,54.3z"/>
</g>
<path id="XMLID_91_" class="st1" d="M411.2,293.5c0,5.1-3.3,9.3-7.5,9.3H7.9c-4.1,0-7.5-4.1-7.5-9.3V25.6c0-5.1,3.3-9.3,7.5-9.3
	h395.8c4.1,0,7.5,4.1,7.5,9.3V293.5z"/>
<path id="XMLID_90_" class="st2" d="M217.9,7.2c0-4-3.2-7.2-7.2-7.2H26.8c-4,0-7.2,3.2-7.2,7.2v10.5c0,4,3.2,7.2,7.2,7.2h183.8
	c4,0,7.2-3.2,7.2-7.2V7.2z"/>
<g id="XMLID_1_">
	<g id="XMLID_3_">
		<path id="XMLID_45_" class="st3" d="M49.8,7.7h5.9v1.7h-4.1v2.4h2.7v1.5h-2.7v2.8h4.1v1.7h-5.9V7.7z"/>
		<path id="XMLID_43_" class="st3" d="M57.6,11.1h-0.9v-0.4l0.9-0.8c-0.1-0.3-0.2-0.6-0.2-1.1c0-1.5,1.2-2.3,2.4-2.3
			c0.9,0,1.3,0.3,1.4,0.5v1.8c-0.2-0.5-0.6-0.7-1.2-0.7c-0.5,0-0.9,0.3-0.9,1c0,0.3,0.1,0.5,0.2,0.7h2.6c-0.1-0.2-0.2-0.5-0.2-1
			c0-1.5,1.2-2.3,2.5-2.3c0.9,0,1.5,0.3,1.6,0.5v1.8c-0.2-0.5-0.7-0.7-1.3-0.7c-0.7,0-1.1,0.3-1.1,1c0,0.3,0.1,0.5,0.2,0.7h1.6v1.5
			h-1.6v6.7H62v-6.7h-2.7v6.7h-1.8V11.1z"/>
		<path id="XMLID_40_" class="st3" d="M66.1,13.8c0-3,1.8-4.3,3.5-4.3c1.7,0,3.3,0.8,3.3,3.9v1.1h-5c0.1,1.2,0.7,2.1,2.1,2.1
			c1.3,0,2.1-0.6,2.5-1.2v1.8c-0.4,0.5-1.2,1-2.7,1C67.6,18.1,66.1,16.7,66.1,13.8z M71.1,13L71.1,13c0-1.3-0.5-2.1-1.6-2.1
			c-1,0-1.6,1-1.7,2.1H71.1z"/>
		<path id="XMLID_38_" class="st3" d="M73.9,13.8c0-3,1.7-4.3,3.6-4.3c1,0,1.8,0.4,2.1,0.8v1.9c-0.5-0.7-1.1-1-2-1c-1.2,0-2,1-2,2.7
			c0,1.7,0.7,2.7,2,2.7c0.9,0,1.6-0.4,2.1-1.1v1.8c-0.3,0.4-1.2,1-2.2,1C75.3,18.1,73.9,16.7,73.9,13.8z"/>
		<path id="XMLID_36_" class="st3" d="M81.5,15.7v-4.5h-0.9v-0.5l0.7-1l1.4-2h0.6v2h1.8v1.5h-1.8v4.4c0,0.6,0.2,1,0.7,1
			c0.5,0,1-0.3,1.2-0.8v1.7c-0.2,0.3-0.7,0.7-1.6,0.7C82.1,18.1,81.5,17.2,81.5,15.7z"/>
		<path id="XMLID_33_" class="st3" d="M89.3,13.8c0-3,1.7-4.3,3.7-4.3c2.1,0,3.5,1.4,3.5,4.3c0,3-1.7,4.3-3.7,4.3
			C90.8,18.1,89.3,16.7,89.3,13.8z M94.7,13.8c0-1.6-0.6-2.8-1.8-2.8c-1.2,0-1.8,1.1-1.8,2.8c0,1.6,0.6,2.8,1.8,2.8
			C94.2,16.5,94.7,15.4,94.7,13.8z"/>
		<path id="XMLID_31_" class="st3" d="M98,9.7h1.6l0.1,0.7c0.3-0.5,1-1,1.9-1c2,0,2.7,1.1,2.7,3.3v5.1h-1.8v-4.7
			c0-1.6-0.3-2.2-1.4-2.2c-0.8,0-1.3,0.5-1.5,0.8v6.1H98V9.7z"/>
		<path id="XMLID_27_" class="st3" d="M109.5,7.7h2.7c2.5,0,3.6,0.9,3.6,2.5c0,1.4-0.7,2.1-1.7,2.3v0c1.1,0.2,1.9,0.8,1.9,2.4
			c0,1.6-1,2.9-3.6,2.9h-2.8V7.7z M112.3,11.9c1.4,0,1.7-0.5,1.7-1.4s-0.5-1.2-1.7-1.2h-1v2.6H112.3z M112.4,16.3
			c1.4,0,1.8-0.5,1.8-1.4c0-0.9-0.4-1.4-1.8-1.4h-1.1v2.8H112.4z"/>
		<path id="XMLID_24_" class="st3" d="M117.1,13.8c0-3,1.7-4.3,3.7-4.3c2.1,0,3.5,1.4,3.5,4.3c0,3-1.7,4.3-3.7,4.3
			C118.5,18.1,117.1,16.7,117.1,13.8z M122.5,13.8c0-1.6-0.6-2.8-1.8-2.8c-1.2,0-1.8,1.1-1.8,2.8c0,1.6,0.6,2.8,1.8,2.8
			C121.9,16.5,122.5,15.4,122.5,13.8z"/>
		<path id="XMLID_21_" class="st3" d="M125.3,13.9c0-3,1.4-4.5,3.3-4.5c0.6,0,1.3,0.1,1.6,0.5V6.7h1.8v11.2h-1.6l-0.1-0.7
			c-0.2,0.4-0.8,1-1.9,1C126.7,18.1,125.3,16.8,125.3,13.9z M130.3,11.5c-0.3-0.4-0.9-0.6-1.4-0.6c-1.2,0-1.7,1.3-1.7,2.9
			c0,1.6,0.4,2.7,1.7,2.7c0.8,0,1.3-0.3,1.5-0.8V11.5z"/>
		<path id="XMLID_19_" class="st3" d="M133.3,20.5v-1.6c0.3,0.4,0.7,0.6,1.2,0.6c0.5,0,1.1-0.2,1.5-1.4l-3-8.4h1.9l1.9,5.9l1.5-5.9
			h1.7l-2.1,7.7c-0.6,2-1.4,3.6-3.3,3.6C134,21,133.5,20.8,133.3,20.5z"/>
		<path id="XMLID_17_" class="st3" d="M143.6,7.7h1.9l1.7,7.2h0.1l1.6-5.6l-0.5-1.6h1.8l2.1,7.2h0.1l1.7-7.2h1.8L153,17.9h-1.5
			l-1.9-6.3l-1.9,6.3h-1.5L143.6,7.7z"/>
		<path id="XMLID_14_" class="st3" d="M156.4,13.8c0-3,1.8-4.3,3.5-4.3c1.7,0,3.3,0.8,3.3,3.9v1.1h-5c0.1,1.2,0.7,2.1,2.1,2.1
			c1.3,0,2.1-0.6,2.5-1.2v1.8c-0.4,0.5-1.2,1-2.7,1C157.9,18.1,156.4,16.7,156.4,13.8z M161.5,13L161.5,13c0-1.3-0.5-2.1-1.6-2.1
			c-1,0-1.6,1-1.7,2.1H161.5z"/>
		<path id="XMLID_11_" class="st3" d="M164.6,7.7c0-0.6,0.3-1,1-1c0.6,0,1,0.3,1,1c0,0.6-0.4,1-1,1C164.9,8.7,164.6,8.4,164.6,7.7z
			 M164.6,9.7h1.8v8.2h-1.8V9.7z"/>
		<path id="XMLID_8_" class="st3" d="M167.8,20.1v-1.6c0.6,0.5,1.7,0.9,3.1,0.9c1.7,0,2.5-0.3,2.5-1c0-0.6-0.6-0.8-1.7-0.8
			c-1,0-2.7,0.2-3.2,0.5v-1.4l1-1.8c-1.1-0.4-1.7-1.3-1.7-2.6c0-1.8,1.3-2.9,3.2-2.9c0.8,0,1.5,0.2,2,0.6c0.2-0.4,0.8-0.6,1.4-0.6
			c0.2,0,0.4,0,0.6,0.1V11c-0.1-0.1-0.3-0.1-0.5-0.1c-0.3,0-0.6,0.1-0.7,0.2c0.1,0.3,0.2,0.7,0.2,1.1c0,1.8-1.3,2.8-3.1,2.8h-0.2
			l-0.6,1.2c0.3-0.1,1.2-0.3,2-0.3c1.8,0,3,0.5,3,2.1S173.7,21,171,21C169.6,21,168.4,20.7,167.8,20.1z M172.4,12.3
			c0-0.9-0.6-1.4-1.4-1.4s-1.4,0.5-1.4,1.4c0,0.9,0.6,1.4,1.4,1.4S172.4,13.2,172.4,12.3z"/>
		<path id="XMLID_6_" class="st3" d="M176.1,6.7h1.8v3.7c0.3-0.5,1-0.9,1.9-0.9c2,0,2.7,1.1,2.7,3.3v5.1h-1.8v-4.7
			c0-1.6-0.3-2.2-1.4-2.2c-0.8,0-1.3,0.4-1.5,0.8v6.2h-1.8V6.7z"/>
		<path id="XMLID_4_" class="st3" d="M184.6,15.7v-4.5h-0.9v-0.5l0.7-1l1.4-2h0.6v2h1.8v1.5h-1.8v4.4c0,0.6,0.2,1,0.7,1
			c0.5,0,1-0.3,1.2-0.8v1.7c-0.2,0.3-0.7,0.7-1.6,0.7C185.2,18.1,184.6,17.2,184.6,15.7z"/>
	</g>
</g>
</svg>
