<!-- Generator: Adobe Illustrator 22.1.0, SVG Export Plug-In  -->
<svg version="1.1"
	 xmlns="http://www.w3.org/2000/svg" xmlns:xlink="http://www.w3.org/1999/xlink" xmlns:a="http://ns.adobe.com/AdobeSVGViewerExtensions/3.0/"
	 x="0px" y="0px" width="812.1px" height="119.3px" viewBox="0 0 812.1 119.3" style="enable-background:new 0 0 812.1 119.3;"
	 xml:space="preserve">
<style type="text/css">
	.st0{fill:#7F3F97;}
	.st1{fill:#231F20;}
	.st2{fill:#490E67;}
	.st3{fill:#C29FD8;}
</style>
<defs>
</defs>
<g id="XMLID_807_">
	<g id="XMLID_809_">
		<path id="XMLID_1132_" class="st0" d="M0,10.5c0-5.2,4.1-7.8,8.6-7.8c5,0,8.5,2.6,8.5,7.8s-4.1,7.8-8.6,7.8
			C3.5,18.3,0,15.7,0,10.5z M12.9,10.6c0-3.1-1.6-4.8-4.4-4.8c-2.7,0-4.4,1.7-4.4,4.6c0,3.1,1.6,4.8,4.4,4.8
			C11.3,15.2,12.9,13.5,12.9,10.6z"/>
		<path id="XMLID_1129_" class="st0" d="M22.9,17.1L22.4,18h-3.1V1.4h4v5.4c0.4-0.6,1.6-1.3,3.5-1.3c3.3,0,5.5,1.7,5.5,6.1
			c0,4.4-2.6,6.8-6.1,6.8C24.4,18.3,23.5,17.7,22.9,17.1z M23.4,14.8c0.5,0.6,1.3,0.8,2.2,0.8c1.9,0,2.6-1.7,2.6-3.8
			c0-2.1-0.7-3.4-2.6-3.4c-1.1,0-1.9,0.4-2.3,1V14.8z"/>
		<path id="XMLID_1126_" class="st0" d="M31.4,21.9v-2.8c0.5,0.4,1.1,0.7,1.7,0.7c1,0,1.5-0.4,1.5-1.3V5.8h4v12.4
			c0,2.7-1.8,4.3-4.8,4.3C32.6,22.5,31.7,22.2,31.4,21.9z M34.5,2.9c0-1.1,0.8-1.7,2.1-1.7c1.3,0,2.1,0.6,2.1,1.7s-0.8,1.7-2.1,1.7
			C35.2,4.6,34.5,4,34.5,2.9z"/>
		<path id="XMLID_1123_" class="st0" d="M40.7,11.9c0-4.5,3.3-6.4,6.6-6.4c3.2,0,6.3,1.2,6.3,5.9v1.6h-8.8c0.1,1.4,1.1,2.5,3.7,2.5
			c2.3,0,3.7-0.7,4.4-1.4v3c-0.7,0.6-2.3,1.4-5.1,1.4C43.4,18.3,40.7,16.3,40.7,11.9z M49.8,10.7v-0.1c0-1.5-0.7-2.3-2.4-2.3
			c-1.6,0-2.4,1.2-2.5,2.4H49.8z"/>
		<path id="XMLID_1121_" class="st0" d="M55.1,11.9c0-4.4,3.1-6.4,6.8-6.4c2,0,3.4,0.5,4,1v3.2c-0.9-0.9-1.9-1.2-3.5-1.2
			c-2.1,0-3.2,1.2-3.2,3.4c0,2.2,1.2,3.4,3.2,3.4c1.5,0,2.6-0.5,3.5-1.3V17c-0.6,0.6-2.2,1.3-4.1,1.3C57.9,18.3,55.1,16.3,55.1,11.9
			z"/>
		<path id="XMLID_1119_" class="st0" d="M69,14.5V8.6h-1.6V7.3l1.3-1.5L71.1,3H73v2.9h3.2v2.8H73v5.5c0,0.9,0.3,1.3,1.2,1.3
			c0.9,0,1.6-0.4,2-1v2.9c-0.5,0.5-1.4,1-3.1,1C70.1,18.3,69,16.9,69,14.5z"/>
		<path id="XMLID_1116_" class="st0" d="M78.3,2.9c0-1.1,0.8-1.7,2.1-1.7c1.3,0,2.1,0.6,2.1,1.7s-0.8,1.7-2.1,1.7
			C79,4.6,78.3,4,78.3,2.9z M78.3,5.8h4V18h-4V5.8z"/>
		<path id="XMLID_1114_" class="st0" d="M83.8,5.8h4.3l2.2,5.8l0.4,1.3c0.1-0.3,0.3-1,0.4-1.3l2.3-5.8h3.9L91.9,18h-2.7L83.8,5.8z"
			/>
		<path id="XMLID_1111_" class="st0" d="M97.8,11.9c0-4.5,3.3-6.4,6.6-6.4c3.2,0,6.3,1.2,6.3,5.9v1.6h-8.8c0.1,1.4,1.1,2.5,3.7,2.5
			c2.3,0,3.7-0.7,4.4-1.4v3c-0.7,0.6-2.3,1.4-5.1,1.4C100.4,18.3,97.8,16.3,97.8,11.9z M106.9,10.7v-0.1c0-1.5-0.7-2.3-2.4-2.3
			c-1.6,0-2.4,1.2-2.5,2.4H106.9z"/>
		<path id="XMLID_1108_" class="st0" d="M112.7,8.2c0-1.2,1-2.1,2.4-2.1c1.3,0,2.3,0.9,2.3,2.1c0,1.2-1,2.1-2.3,2.1
			C113.6,10.4,112.7,9.5,112.7,8.2z M112.7,16.2c0-1.2,1-2.1,2.4-2.1c1.3,0,2.3,0.9,2.3,2.1c0,1.2-1,2.1-2.3,2.1
			C113.6,18.3,112.7,17.4,112.7,16.2z"/>
		<path id="XMLID_1106_" class="st1" d="M128,7.5h-4V5.5h10.8v2.1h-4V18H128V7.5z"/>
		<path id="XMLID_1103_" class="st1" d="M134.6,12.9c0-3.7,2.7-5.4,5.3-5.4c2.5,0,5,1,5,4.8v1.3h-7.6c0.1,1.4,1.1,2.6,3.3,2.6
			c2,0,3.2-0.8,3.8-1.5V17c-0.6,0.6-1.8,1.3-4,1.3C136.9,18.3,134.6,16.6,134.6,12.9z M142.3,12L142.3,12c0-1.6-0.8-2.5-2.4-2.5
			c-1.5,0-2.4,1.3-2.5,2.5H142.3z"/>
		<path id="XMLID_1101_" class="st1" d="M146.7,17.4v-2.3c0.7,0.7,1.7,1.3,3.2,1.3s2.1-0.6,2.1-1.2c0-0.7-0.3-0.9-1.7-1.2l-0.6-0.1
			c-2.1-0.3-3.3-1.3-3.3-3.1c0-1.7,1.4-3.2,4.4-3.2c1.5,0,2.7,0.4,3.3,0.9v2.3c-0.7-0.8-1.7-1.3-3.2-1.3c-1.5,0-2,0.5-2,1.1
			c0,0.6,0.3,1,1.7,1.2l0.6,0.1c2.2,0.4,3.4,1.1,3.4,3c0,1.7-1.5,3.4-4.7,3.4C148.4,18.3,147.3,17.8,146.7,17.4z"/>
		<path id="XMLID_1099_" class="st1" d="M157.3,15.3V9.7h-1.4V9.1l1.1-1.3l2.1-2.4h0.9v2.4h2.8v1.9H160v5.4c0,0.8,0.3,1.2,1,1.2
			c0.8,0,1.4-0.4,1.8-1v2.1c-0.3,0.4-1.1,0.8-2.4,0.8C158.2,18.3,157.3,17.2,157.3,15.3z"/>
		<path id="XMLID_1097_" class="st1" d="M170.3,15.3V9.7h-1.4V9.1l1.1-1.3l2.1-2.4h0.9v2.4h2.8v1.9H173v5.4c0,0.8,0.3,1.2,1,1.2
			c0.8,0,1.4-0.4,1.8-1v2.1c-0.3,0.4-1.1,0.8-2.4,0.8C171.2,18.3,170.3,17.2,170.3,15.3z"/>
		<path id="XMLID_1095_" class="st1" d="M177.9,4.1h2.7v4.6c0.5-0.6,1.5-1.2,2.9-1.2c3,0,4.1,1.4,4.1,4.1V18h-2.7v-5.9
			c0-2-0.5-2.7-2.1-2.7c-1.2,0-2,0.6-2.3,1V18h-2.7V4.1z"/>
		<path id="XMLID_1092_" class="st1" d="M189.6,12.9c0-3.7,2.7-5.4,5.3-5.4c2.5,0,5,1,5,4.8v1.3h-7.6c0.1,1.4,1.1,2.6,3.3,2.6
			c2,0,3.2-0.8,3.8-1.5V17c-0.6,0.6-1.8,1.3-4,1.3C191.9,18.3,189.6,16.6,189.6,12.9z M197.3,12L197.3,12c0-1.6-0.8-2.5-2.4-2.5
			c-1.5,0-2.4,1.3-2.5,2.5H197.3z"/>
		<path id="XMLID_1090_" class="st1" d="M207.2,5.5h9v2.1h-6.2v3h4.1v1.9h-4.1v3.4h6.2V18h-9V5.5z"/>
		<path id="XMLID_1087_" class="st1" d="M219,9.6h-1.4V9.1l1.3-1c-0.2-0.3-0.4-0.8-0.4-1.4c0-1.8,1.8-2.8,3.6-2.8
			c1.3,0,1.9,0.3,2.2,0.6v2.2c-0.4-0.6-1-0.9-1.8-0.9s-1.4,0.4-1.4,1.2c0,0.4,0.1,0.7,0.3,0.9h4c-0.1-0.3-0.2-0.7-0.2-1.2
			c0-1.8,1.8-2.8,3.6-2.8c1.3,0,1.9,0.3,2.2,0.6v2.2c-0.4-0.6-1-0.9-1.8-0.9c-0.8,0-1.4,0.4-1.4,1.2c0,0.4,0.1,0.7,0.3,0.9h6.8V18
			h-2.7V9.6h-4V18h-2.7V9.6h-4V18H219V9.6z M232.2,5.4c0-0.8,0.5-1.2,1.4-1.2s1.5,0.4,1.5,1.2c0,0.8-0.5,1.2-1.5,1.2
			S232.2,6.2,232.2,5.4z"/>
		<path id="XMLID_1085_" class="st1" d="M237.2,12.9c0-3.7,2.6-5.4,5.5-5.4c1.5,0,2.7,0.5,3.2,0.9v2.3c-0.7-0.9-1.6-1.2-3-1.2
			c-1.9,0-3,1.3-3,3.3c0,2.1,1.1,3.3,3,3.3c1.4,0,2.4-0.5,3.1-1.3v2.2c-0.5,0.5-1.8,1.2-3.4,1.2C239.4,18.3,237.2,16.6,237.2,12.9z"
			/>
		<path id="XMLID_1082_" class="st1" d="M247.6,15.4c0-2.1,1.8-2.9,4.9-3.3l1.7-0.2c0-1.8-0.9-2.3-2.6-2.3c-1.7,0-3,0.8-3.6,1.9V9
			c0.4-0.6,1.6-1.4,4-1.4c3.1,0,4.8,1.4,4.8,4.3V18h-2.4l-0.2-0.9c-0.3,0.6-1.2,1.2-2.8,1.2C249.4,18.3,247.6,17.4,247.6,15.4z
			 M254.3,13.4l-1.5,0.3c-1.9,0.4-2.5,0.8-2.5,1.6c0,0.8,0.6,1.2,1.7,1.2c1.1,0,2-0.4,2.3-0.9V13.4z"/>
		<path id="XMLID_1080_" class="st1" d="M259,12.9c0-3.7,2.6-5.4,5.5-5.4c1.5,0,2.7,0.5,3.2,0.9v2.3c-0.7-0.9-1.6-1.2-3-1.2
			c-1.9,0-3,1.3-3,3.3c0,2.1,1.1,3.3,3,3.3c1.4,0,2.4-0.5,3.1-1.3v2.2c-0.5,0.5-1.8,1.2-3.4,1.2C261.2,18.3,259,16.6,259,12.9z"/>
		<path id="XMLID_1078_" class="st1" d="M269.2,21.2v-2c0.5,0.5,1.1,0.8,1.9,0.8c0.8,0,1.6-0.3,2.2-1.7l-4.5-10.4h2.9l2.8,7.3
			l2.2-7.3h2.6l-3.2,9.5c-0.8,2.5-2.1,4.5-5,4.5C270.3,21.8,269.6,21.6,269.2,21.2z"/>
		<path id="XMLID_1075_" class="st1" d="M285.3,15.4c0-2.1,1.8-2.9,4.9-3.3l1.7-0.2c0-1.8-0.9-2.3-2.6-2.3c-1.7,0-3,0.8-3.6,1.9V9
			c0.4-0.6,1.6-1.4,4-1.4c3.1,0,4.8,1.4,4.8,4.3V18h-2.4l-0.2-0.9c-0.3,0.6-1.2,1.2-2.8,1.2C287.1,18.3,285.3,17.4,285.3,15.4z
			 M291.9,13.4l-1.5,0.3c-1.9,0.4-2.5,0.8-2.5,1.6c0,0.8,0.6,1.2,1.7,1.2c1.1,0,2-0.4,2.3-0.9V13.4z"/>
		<path id="XMLID_1073_" class="st1" d="M297.3,7.8h2.5l0.2,0.9c0.4-0.6,1.5-1.2,2.9-1.2c3,0,4.1,1.4,4.1,4.1V18h-2.7v-5.9
			c0-2-0.5-2.7-2.1-2.7c-1.3,0-2,0.6-2.3,1V18h-2.7V7.8z"/>
		<path id="XMLID_1070_" class="st1" d="M309.1,13.1c0-3.7,2.1-5.5,5.1-5.5c0.8,0,1.9,0.1,2.5,0.7V4.1h2.7V18h-2.5l-0.2-0.9
			c-0.3,0.5-1.2,1.2-2.9,1.2C311.2,18.3,309.1,16.7,309.1,13.1z M316.6,10.2c-0.5-0.6-1.3-0.8-2.2-0.8c-1.9,0-2.6,1.6-2.6,3.6
			c0,2,0.7,3.3,2.5,3.3c1.2,0,1.9-0.4,2.3-0.9V10.2z"/>
		<path id="XMLID_1068_" class="st1" d="M326.7,17.3v-2.6c0.6,0.8,1.9,1.5,3.6,1.5c1.6,0,2.6-0.7,2.6-1.8c0-0.9-0.6-1.3-2.2-1.6
			l-0.5-0.1c-2.2-0.5-3.4-1.6-3.4-3.6c0-2.4,1.9-3.9,5-3.9c2,0,3,0.5,3.5,0.9v2.7c-0.6-0.8-1.9-1.5-3.6-1.5c-1.4,0-2.3,0.5-2.3,1.5
			c0,0.9,0.4,1.3,2.1,1.7l0.5,0.1c2.4,0.5,3.6,1.5,3.6,3.5c0,2.4-1.9,4.2-5.3,4.2C328.2,18.3,327.2,17.7,326.7,17.3z"/>
		<path id="XMLID_1065_" class="st1" d="M337.1,15.4c0-2.1,1.8-2.9,4.9-3.3l1.7-0.2c0-1.8-0.9-2.3-2.6-2.3c-1.7,0-3,0.8-3.6,1.9V9
			c0.4-0.6,1.6-1.4,4-1.4c3.1,0,4.8,1.4,4.8,4.3V18h-2.4l-0.2-0.9c-0.3,0.6-1.2,1.2-2.8,1.2C338.8,18.3,337.1,17.4,337.1,15.4z
			 M343.7,13.4l-1.5,0.3c-1.9,0.4-2.5,0.8-2.5,1.6c0,0.8,0.6,1.2,1.7,1.2c1.1,0,2-0.4,2.3-0.9V13.4z"/>
		<path id="XMLID_1063_" class="st1" d="M349.6,9.7h-1.4V9.1l1.3-1c-0.2-0.3-0.4-0.8-0.4-1.4c0-1.8,1.8-2.8,3.8-2.8
			c1.4,0,2.2,0.3,2.5,0.6v2.2c-0.4-0.6-1.1-0.9-2-0.9c-1.1,0-1.6,0.4-1.6,1.2c0,0.4,0.1,0.7,0.3,0.9h2.3v1.9h-2.2V18h-2.7V9.7z"/>
		<path id="XMLID_1060_" class="st1" d="M355.5,12.9c0-3.7,2.7-5.4,5.3-5.4c2.5,0,5,1,5,4.8v1.3h-7.6c0.1,1.4,1.1,2.6,3.3,2.6
			c2,0,3.2-0.8,3.8-1.5V17c-0.6,0.6-1.8,1.3-4,1.3C357.8,18.3,355.5,16.6,355.5,12.9z M363.2,12L363.2,12c0-1.6-0.8-2.5-2.4-2.5
			c-1.5,0-2.4,1.3-2.5,2.5H363.2z"/>
		<path id="XMLID_1058_" class="st1" d="M368.4,15.3V9.7h-1.4V9.1l1.1-1.3l2.1-2.4h0.9v2.4h2.8v1.9h-2.8v5.4c0,0.8,0.3,1.2,1,1.2
			c0.8,0,1.4-0.4,1.8-1v2.1c-0.3,0.4-1.1,0.8-2.4,0.8C369.4,18.3,368.4,17.2,368.4,15.3z"/>
		<path id="XMLID_1056_" class="st1" d="M375.1,21.2v-2c0.5,0.5,1.1,0.8,1.9,0.8c0.8,0,1.6-0.3,2.2-1.7l-4.5-10.4h2.9l2.8,7.3
			l2.2-7.3h2.6l-3.2,9.5c-0.8,2.5-2.1,4.5-5,4.5C376.2,21.8,375.5,21.6,375.1,21.2z"/>
		<path id="XMLID_1053_" class="st1" d="M391.3,12.9c0-3.7,2.6-5.4,5.6-5.4c3.1,0,5.3,1.7,5.3,5.4c0,3.7-2.6,5.4-5.6,5.4
			C393.5,18.3,391.3,16.6,391.3,12.9z M399.5,12.9c0-2-0.9-3.4-2.7-3.4c-1.9,0-2.7,1.4-2.7,3.4c0,2,0.9,3.4,2.7,3.4
			C398.6,16.3,399.5,14.9,399.5,12.9z"/>
		<path id="XMLID_1051_" class="st1" d="M404.9,9.7h-1.4V9.1l1.3-1c-0.2-0.3-0.4-0.8-0.4-1.4c0-1.8,1.8-2.8,3.8-2.8
			c1.4,0,2.2,0.3,2.5,0.6v2.2c-0.4-0.6-1.1-0.9-2-0.9c-1.1,0-1.6,0.4-1.6,1.2c0,0.4,0.1,0.7,0.3,0.9h2.3v1.9h-2.2V18h-2.7V9.7z"/>
		<path id="XMLID_1049_" class="st1" d="M505.1,11.7c0-4.3,2.9-6.6,6.5-6.6c2.3,0,3.4,0.6,4,1v2.7c-0.7-1.1-1.9-1.7-3.6-1.7
			c-2.6,0-4.1,1.5-4.1,4.4s1.4,4.6,4.1,4.6c1.6,0,2.8-0.5,3.6-1.5v2.4c-0.8,0.8-2.2,1.2-3.9,1.2C507.6,18.3,505.1,16.1,505.1,11.7z"
			/>
		<path id="XMLID_1046_" class="st1" d="M517.2,12.9c0-3.7,2.6-5.4,5.6-5.4c3.1,0,5.3,1.7,5.3,5.4c0,3.7-2.6,5.4-5.6,5.4
			C519.4,18.3,517.2,16.6,517.2,12.9z M525.5,12.9c0-2-0.9-3.4-2.7-3.4c-1.9,0-2.7,1.4-2.7,3.4c0,2,0.9,3.4,2.7,3.4
			C524.6,16.3,525.5,14.9,525.5,12.9z"/>
		<path id="XMLID_1044_" class="st1" d="M530.3,7.8h2.5l0.1,0.9c0.4-0.6,1.4-1.2,2.7-1.2c1.7,0,2.7,0.5,3.3,1.5
			c0.5-0.7,1.5-1.5,3.3-1.5c2.8,0,3.9,1.4,3.9,4.1V18h-2.7v-5.9c0-2-0.5-2.7-1.9-2.7c-1,0-1.9,0.5-2.2,1c0.1,0.4,0.1,0.8,0.1,1.3V18
			H537v-5.9c0-2-0.5-2.7-1.9-2.7c-1.1,0-1.8,0.5-2.1,1V18h-2.7V7.8z"/>
		<path id="XMLID_1041_" class="st1" d="M549,7.8h2.5l0.2,0.9c0.3-0.5,1.2-1.2,2.9-1.2c2.8,0,4.6,1.4,4.6,5.1c0,3.7-2.3,5.6-5.1,5.6
			c-0.8,0-1.9-0.1-2.5-0.7v3.9H549V7.8z M556.5,12.7c0-2-0.7-3.3-2.5-3.3c-1.2,0-1.9,0.4-2.3,0.9v5.2c0.5,0.6,1.3,0.8,2.2,0.8
			C555.7,16.4,556.5,14.8,556.5,12.7z"/>
		<path id="XMLID_1038_" class="st1" d="M560.8,15.4c0-2.1,1.8-2.9,4.9-3.3l1.7-0.2c0-1.8-0.9-2.3-2.6-2.3c-1.7,0-3,0.8-3.6,1.9V9
			c0.4-0.6,1.6-1.4,4-1.4c3.1,0,4.8,1.4,4.8,4.3V18h-2.4l-0.2-0.9c-0.3,0.6-1.2,1.2-2.8,1.2C562.5,18.3,560.8,17.4,560.8,15.4z
			 M567.4,13.4l-1.5,0.3c-1.9,0.4-2.5,0.8-2.5,1.6c0,0.8,0.6,1.2,1.7,1.2c1.1,0,2-0.4,2.3-0.9V13.4z"/>
		<path id="XMLID_1036_" class="st1" d="M572.7,7.8h2.3l0.2,1.4c0.1-1.1,1.1-1.7,2.2-1.7c0.6,0,1,0.2,1.2,0.3V10
			c-0.3-0.2-0.7-0.3-1.3-0.3c-1,0-1.5,0.4-1.9,1V18h-2.7V7.8z"/>
		<path id="XMLID_1033_" class="st1" d="M579.6,12.9c0-3.7,2.7-5.4,5.3-5.4c2.5,0,5,1,5,4.8v1.3h-7.6c0.1,1.4,1.1,2.6,3.3,2.6
			c2,0,3.2-0.8,3.8-1.5V17c-0.6,0.6-1.8,1.3-4,1.3C581.9,18.3,579.6,16.6,579.6,12.9z M587.3,12L587.3,12c0-1.6-0.8-2.5-2.4-2.5
			c-1.5,0-2.4,1.3-2.5,2.5H587.3z"/>
		<path id="XMLID_1030_" class="st1" d="M591.5,13.1c0-3.7,2.1-5.5,5.1-5.5c0.8,0,1.9,0.1,2.5,0.7V4.1h2.7V18h-2.5l-0.2-0.9
			c-0.3,0.5-1.2,1.2-2.9,1.2C593.5,18.3,591.5,16.7,591.5,13.1z M599,10.2c-0.5-0.6-1.3-0.8-2.2-0.8c-1.9,0-2.6,1.6-2.6,3.6
			c0,2,0.7,3.3,2.5,3.3c1.2,0,1.9-0.4,2.3-0.9V10.2z"/>
		<path id="XMLID_1028_" class="st1" d="M608.2,5.5h2.8l2.6,8.9h0.1l2.5-6.9l-0.7-2h2.7l3.2,8.9h0.1l2.6-8.9h2.7L622.5,18h-2.3
			l-2.8-7.7l-2.8,7.7h-2.2L608.2,5.5z"/>
		<path id="XMLID_1025_" class="st1" d="M628.3,5.4c0-0.8,0.5-1.2,1.4-1.2c1,0,1.5,0.4,1.5,1.2c0,0.8-0.5,1.2-1.5,1.2
			C628.7,6.6,628.3,6.2,628.3,5.4z M628.4,7.8h2.7V18h-2.7V7.8z"/>
		<path id="XMLID_1023_" class="st1" d="M634.3,15.3V9.7H633V9.1l1.1-1.3l2.1-2.4h0.9v2.4h2.8v1.9H637v5.4c0,0.8,0.3,1.2,1,1.2
			c0.8,0,1.4-0.4,1.8-1v2.1c-0.3,0.4-1.1,0.8-2.4,0.8C635.3,18.3,634.3,17.2,634.3,15.3z"/>
		<path id="XMLID_1021_" class="st1" d="M641.9,4.1h2.7v4.6c0.5-0.6,1.5-1.2,2.9-1.2c3,0,4.1,1.4,4.1,4.1V18h-2.7v-5.9
			c0-2-0.5-2.7-2.1-2.7c-1.2,0-2,0.6-2.3,1V18h-2.7V4.1z"/>
		<path id="XMLID_1019_" class="st1" d="M659.4,5.5h4.1c4.1,0,5.8,1.5,5.8,4c0,2.6-1.7,4.6-5.8,4.6h-0.7v-1.9h0.7
			c2.1,0,3.1-1,3.1-2.5c0-1.5-0.9-2.4-3.1-2.4h-1.3V18h-2.7V5.5z"/>
		<path id="XMLID_1017_" class="st1" d="M671,15.7V4.1h2.7v11.3c0,0.7,0.2,0.9,0.8,0.9c0.5,0,0.9-0.2,1.1-0.5v1.9
			c-0.2,0.2-0.8,0.6-1.8,0.6C671.9,18.3,671,17.3,671,15.7z"/>
		<path id="XMLID_1014_" class="st1" d="M676.8,15.4c0-2.1,1.8-2.9,4.9-3.3l1.7-0.2c0-1.8-0.9-2.3-2.6-2.3c-1.7,0-3,0.8-3.6,1.9V9
			c0.4-0.6,1.6-1.4,4-1.4c3.1,0,4.8,1.4,4.8,4.3V18h-2.4l-0.2-0.9c-0.3,0.6-1.2,1.2-2.8,1.2C678.5,18.3,676.8,17.4,676.8,15.4z
			 M683.4,13.4l-1.5,0.3c-1.9,0.4-2.5,0.8-2.5,1.6c0,0.8,0.6,1.2,1.7,1.2c1.1,0,2-0.4,2.3-0.9V13.4z"/>
		<path id="XMLID_1012_" class="st1" d="M688.1,12.9c0-3.7,2.6-5.4,5.5-5.4c1.5,0,2.7,0.5,3.2,0.9v2.3c-0.7-0.9-1.6-1.2-3-1.2
			c-1.9,0-3,1.3-3,3.3c0,2.1,1.1,3.3,3,3.3c1.4,0,2.4-0.5,3.1-1.3v2.2c-0.5,0.5-1.8,1.2-3.4,1.2C690.3,18.3,688.1,16.6,688.1,12.9z"
			/>
		<path id="XMLID_1009_" class="st1" d="M698.6,12.9c0-3.7,2.7-5.4,5.3-5.4c2.5,0,5,1,5,4.8v1.3h-7.6c0.1,1.4,1.1,2.6,3.3,2.6
			c2,0,3.2-0.8,3.8-1.5V17c-0.6,0.6-1.8,1.3-4,1.3C700.9,18.3,698.6,16.6,698.6,12.9z M706.3,12L706.3,12c0-1.6-0.8-2.5-2.4-2.5
			c-1.5,0-2.4,1.3-2.5,2.5H706.3z"/>
		<path id="XMLID_1006_" class="st1" d="M713.5,17.3L713,18h-2V4.1h2.7v4.6c0.3-0.5,1.3-1.2,2.9-1.2c2.8,0,4.6,1.4,4.6,5.1
			c0,3.7-2.3,5.6-5.1,5.6C714.7,18.3,713.9,17.8,713.5,17.3z M713.7,15.6c0.5,0.6,1.3,0.8,2.2,0.8c1.9,0,2.6-1.6,2.6-3.6
			s-0.7-3.3-2.5-3.3c-1.1,0-1.9,0.4-2.3,0.9V15.6z"/>
		<path id="XMLID_1003_" class="st1" d="M722.8,12.9c0-3.7,2.6-5.4,5.6-5.4c3.1,0,5.3,1.7,5.3,5.4c0,3.7-2.6,5.4-5.6,5.4
			C725,18.3,722.8,16.6,722.8,12.9z M731.1,12.9c0-2-0.9-3.4-2.7-3.4c-1.9,0-2.7,1.4-2.7,3.4c0,2,0.9,3.4,2.7,3.4
			C730.2,16.3,731.1,14.9,731.1,12.9z"/>
		<path id="XMLID_1001_" class="st1" d="M740.9,12.5v-7h2.7v7c0,2.6,1,3.7,3.2,3.7c2.2,0,3.2-1.1,3.2-3.7v-7h2.7v7
			c0,4-2.6,5.8-6,5.8C743.1,18.3,740.9,16.7,740.9,12.5z"/>
		<path id="XMLID_999_" class="st1" d="M755.1,17.4v-2.3c0.7,0.7,1.7,1.3,3.2,1.3s2.1-0.6,2.1-1.2c0-0.7-0.3-0.9-1.7-1.2l-0.6-0.1
			c-2.1-0.3-3.3-1.3-3.3-3.1c0-1.7,1.4-3.2,4.4-3.2c1.5,0,2.7,0.4,3.3,0.9v2.3c-0.7-0.8-1.7-1.3-3.2-1.3c-1.5,0-2,0.5-2,1.1
			c0,0.6,0.3,1,1.7,1.2l0.6,0.1c2.2,0.4,3.4,1.1,3.4,3c0,1.7-1.5,3.4-4.7,3.4C756.9,18.3,755.7,17.8,755.1,17.4z"/>
		<path id="XMLID_996_" class="st1" d="M765.1,5.4c0-0.8,0.5-1.2,1.4-1.2c1,0,1.5,0.4,1.5,1.2c0,0.8-0.5,1.2-1.5,1.2
			C765.6,6.6,765.1,6.2,765.1,5.4z M765.3,7.8h2.7V18h-2.7V7.8z"/>
		<path id="XMLID_994_" class="st1" d="M770.7,7.8h2.5l0.2,0.9c0.4-0.6,1.5-1.2,2.9-1.2c3,0,4.1,1.4,4.1,4.1V18h-2.7v-5.9
			c0-2-0.5-2.7-2.1-2.7c-1.3,0-2,0.6-2.3,1V18h-2.7V7.8z"/>
		<path id="XMLID_991_" class="st1" d="M782.5,20.8v-2c1,0.7,2.5,1.1,4.7,1.1c2.6,0,3.8-0.4,3.8-1.3c0-0.8-0.8-1-2.6-1
			c-1.6,0-4,0.3-4.8,0.6v-1.7l1.6-2.3c-1.6-0.5-2.6-1.6-2.6-3.2c0-2.2,2-3.5,4.8-3.5c1.3,0,2.3,0.3,3.1,0.8c0.4-0.5,1.3-0.8,2.2-0.8
			c0.3,0,0.6,0,0.9,0.1v1.9c-0.2-0.1-0.5-0.1-0.7-0.1c-0.5,0-0.9,0.1-1.1,0.3c0.2,0.4,0.3,0.9,0.3,1.4c0,2.2-2,3.5-4.8,3.5h-0.3
			l-1,1.5c0.5-0.1,1.8-0.3,3-0.3c2.8,0,4.6,0.6,4.6,2.6s-2.1,3.4-6.2,3.4C785.1,21.8,783.4,21.5,782.5,20.8z M789.5,11.1
			c0-1.1-0.8-1.7-2.1-1.7s-2.1,0.6-2.1,1.7c0,1.1,0.8,1.7,2.1,1.7S789.5,12.2,789.5,11.1z"/>
		<path id="XMLID_988_" class="st1" d="M0,33.8c0-4.3,3.4-6.6,6.9-6.6c4.1,0,6.9,2.2,6.9,6.6c0,4.3-3.4,6.6-6.9,6.6
			C2.8,40.4,0,38.1,0,33.8z M11,33.9c0-3-1.6-4.6-4.1-4.6c-2.5,0-4.1,1.6-4.1,4.4c0,3,1.6,4.6,4.1,4.6C9.4,38.3,11,36.7,11,33.9z"/>
		<path id="XMLID_986_" class="st1" d="M15.9,37.7V26.2h2.7v11.3c0,0.7,0.2,0.9,0.8,0.9c0.5,0,0.9-0.2,1.1-0.5v1.9
			c-0.2,0.2-0.8,0.6-1.8,0.6C16.8,40.4,15.9,39.4,15.9,37.7z"/>
		<path id="XMLID_983_" class="st1" d="M21.6,37.4c0-2.1,1.8-2.9,4.9-3.3l1.7-0.2c0-1.8-0.9-2.3-2.6-2.3c-1.7,0-3,0.8-3.6,1.9V31
			c0.4-0.6,1.6-1.4,4-1.4c3.1,0,4.8,1.4,4.8,4.3v6.1h-2.4l-0.2-0.9c-0.3,0.6-1.2,1.2-2.8,1.2C23.4,40.4,21.6,39.5,21.6,37.4z
			 M28.2,35.4l-1.5,0.3c-1.9,0.4-2.5,0.8-2.5,1.6s0.6,1.2,1.7,1.2c1.1,0,2-0.4,2.3-0.9V35.4z"/>
		<path id="XMLID_981_" class="st1" d="M33.6,29.9h2.5l0.2,0.9c0.4-0.6,1.5-1.2,2.9-1.2c3,0,4.1,1.4,4.1,4.1v6.3h-2.7v-5.9
			c0-2-0.5-2.7-2.1-2.7c-1.3,0-2,0.6-2.3,1v7.6h-2.7V29.9z"/>
		<path id="XMLID_979_" class="st1" d="M45.3,39.4l5.1-7.6h-5.1v-1.9h8.5v0.6l-5,7.6h5v1.9h-8.5V39.4z"/>
		<path id="XMLID_976_" class="st1" d="M55.3,37.4c0-2.1,1.8-2.9,4.9-3.3l1.7-0.2c0-1.8-0.9-2.3-2.6-2.3c-1.7,0-3,0.8-3.6,1.9V31
			c0.4-0.6,1.6-1.4,4-1.4c3.1,0,4.8,1.4,4.8,4.3v6.1h-2.4L62,39.2c-0.3,0.6-1.2,1.2-2.8,1.2C57.1,40.4,55.3,39.5,55.3,37.4z
			 M62,35.4l-1.5,0.3c-1.9,0.4-2.5,0.8-2.5,1.6s0.6,1.2,1.7,1.2c1.1,0,2-0.4,2.3-0.9V35.4z"/>
		<path id="XMLID_973_" class="st1" d="M67.3,29.9h2.5l0.2,0.9c0.3-0.5,1.2-1.2,2.9-1.2c2.8,0,4.6,1.4,4.6,5.1
			c0,3.7-2.3,5.7-5.1,5.7c-0.8,0-1.9-0.1-2.5-0.7v3.9h-2.7V29.9z M74.8,34.8c0-2-0.7-3.3-2.5-3.3c-1.2,0-1.9,0.4-2.3,0.9v5.2
			c0.5,0.6,1.3,0.8,2.2,0.8C74,38.5,74.8,36.8,74.8,34.8z"/>
		<path id="XMLID_970_" class="st1" d="M79.6,27.5c0-0.8,0.5-1.2,1.4-1.2s1.5,0.4,1.5,1.2c0,0.8-0.5,1.2-1.5,1.2
			S79.6,28.3,79.6,27.5z M79.7,29.9h2.7v10.2h-2.7V29.9z"/>
		<path id="XMLID_968_" class="st1" d="M85.2,29.9h2.5l0.2,0.9c0.4-0.6,1.5-1.2,2.9-1.2c3,0,4.1,1.4,4.1,4.1v6.3h-2.7v-5.9
			c0-2-0.5-2.7-2.1-2.7c-1.3,0-2,0.6-2.3,1v7.6h-2.7V29.9z"/>
		<path id="XMLID_965_" class="st1" d="M97,35c0-3.7,2.7-5.4,5.3-5.4c2.5,0,5,1,5,4.8v1.3h-7.6c0.1,1.4,1.1,2.6,3.3,2.6
			c2,0,3.2-0.8,3.8-1.5v2.2c-0.6,0.6-1.8,1.3-4,1.3C99.3,40.4,97,38.7,97,35z M104.7,34.1L104.7,34.1c0-1.6-0.8-2.5-2.4-2.5
			c-1.5,0-2.4,1.3-2.5,2.5H104.7z"/>
		<path id="XMLID_963_" class="st1" d="M114.6,27.5h4.1c4.1,0,5.8,1.5,5.8,4c0,2.6-1.7,4.6-5.8,4.6H118v-1.9h0.7
			c2.1,0,3.1-1,3.1-2.5c0-1.5-0.9-2.4-3.1-2.4h-1.3v10.6h-2.7V27.5z"/>
		<path id="XMLID_960_" class="st1" d="M125.7,35c0-3.7,2.6-5.4,5.6-5.4c3.1,0,5.3,1.7,5.3,5.4c0,3.7-2.6,5.4-5.6,5.4
			C127.9,40.4,125.7,38.7,125.7,35z M133.9,35c0-2-0.9-3.4-2.7-3.4c-1.9,0-2.7,1.4-2.7,3.4c0,2,0.9,3.4,2.7,3.4
			C133,38.4,133.9,37,133.9,35z"/>
		<path id="XMLID_958_" class="st1" d="M138.4,39.5v-2.3c0.7,0.7,1.7,1.3,3.2,1.3s2.1-0.6,2.1-1.2c0-0.7-0.3-0.9-1.7-1.2l-0.6-0.1
			c-2.1-0.3-3.3-1.3-3.3-3.1c0-1.7,1.4-3.2,4.4-3.2c1.5,0,2.7,0.4,3.3,0.9v2.3c-0.7-0.8-1.7-1.3-3.2-1.3c-1.5,0-2,0.5-2,1.1
			s0.3,1,1.7,1.2l0.6,0.1c2.2,0.4,3.4,1.1,3.4,3c0,1.7-1.5,3.4-4.7,3.4C140.1,40.4,139,39.9,138.4,39.5z"/>
		<path id="XMLID_955_" class="st1" d="M148.4,27.5c0-0.8,0.5-1.2,1.4-1.2s1.5,0.4,1.5,1.2c0,0.8-0.5,1.2-1.5,1.2
			S148.4,28.3,148.4,27.5z M148.5,29.9h2.7v10.2h-2.7V29.9z"/>
		<path id="XMLID_953_" class="st1" d="M154.4,37.4v-5.6h-1.4v-0.6l1.1-1.3l2.1-2.4h0.9v2.4h2.8v1.9h-2.8v5.4c0,0.8,0.3,1.2,1,1.2
			c0.8,0,1.4-0.4,1.8-1v2.1c-0.3,0.4-1.1,0.8-2.4,0.8C155.4,40.4,154.4,39.3,154.4,37.4z"/>
		<path id="XMLID_950_" class="st1" d="M161.9,27.5c0-0.8,0.5-1.2,1.4-1.2s1.5,0.4,1.5,1.2c0,0.8-0.5,1.2-1.5,1.2
			S161.9,28.3,161.9,27.5z M162,29.9h2.7v10.2H162V29.9z"/>
		<path id="XMLID_948_" class="st1" d="M166.2,29.9h2.8l2.2,5.5l0.4,1.1c0.1-0.4,0.3-0.8,0.4-1.1l2.3-5.5h2.6l-4.5,10.2h-1.8
			L166.2,29.9z"/>
		<path id="XMLID_945_" class="st1" d="M177.5,35c0-3.7,2.7-5.4,5.3-5.4c2.5,0,5,1,5,4.8v1.3h-7.6c0.1,1.4,1.1,2.6,3.3,2.6
			c2,0,3.2-0.8,3.8-1.5v2.2c-0.6,0.6-1.8,1.3-4,1.3C179.8,40.4,177.5,38.7,177.5,35z M185.2,34.1L185.2,34.1c0-1.6-0.8-2.5-2.4-2.5
			c-1.5,0-2.4,1.3-2.5,2.5H185.2z"/>
		<path id="XMLID_943_" class="st1" d="M194.4,33.8c0-4.3,2.9-6.6,6.5-6.6c2.3,0,3.4,0.6,4,1V31c-0.7-1.1-1.9-1.7-3.6-1.7
			c-2.6,0-4.1,1.5-4.1,4.4s1.4,4.6,4.1,4.6c1.6,0,2.8-0.5,3.6-1.5v2.4c-0.8,0.8-2.2,1.2-3.9,1.2C196.9,40.4,194.4,38.2,194.4,33.8z"
			/>
		<path id="XMLID_940_" class="st1" d="M206.5,35c0-3.7,2.6-5.4,5.6-5.4c3.1,0,5.3,1.7,5.3,5.4c0,3.7-2.6,5.4-5.6,5.4
			C208.7,40.4,206.5,38.7,206.5,35z M214.7,35c0-2-0.9-3.4-2.7-3.4c-1.9,0-2.7,1.4-2.7,3.4c0,2,0.9,3.4,2.7,3.4
			C213.9,38.4,214.7,37,214.7,35z"/>
		<path id="XMLID_938_" class="st1" d="M219.6,29.9h2.5l0.2,0.9c0.4-0.6,1.5-1.2,2.9-1.2c3,0,4.1,1.4,4.1,4.1v6.3h-2.7v-5.9
			c0-2-0.5-2.7-2.1-2.7c-1.3,0-2,0.6-2.3,1v7.6h-2.7V29.9z"/>
		<path id="XMLID_936_" class="st1" d="M232.5,37.4v-5.6h-1.4v-0.6l1.1-1.3l2.1-2.4h0.9v2.4h2.8v1.9h-2.8v5.4c0,0.8,0.3,1.2,1,1.2
			c0.8,0,1.4-0.4,1.8-1v2.1c-0.3,0.4-1.1,0.8-2.4,0.8C233.5,40.4,232.5,39.3,232.5,37.4z"/>
		<path id="XMLID_934_" class="st1" d="M240.1,29.9h2.3l0.2,1.4c0.1-1.1,1.1-1.7,2.2-1.7c0.6,0,1,0.2,1.2,0.3V32
			c-0.3-0.2-0.7-0.3-1.3-0.3c-0.9,0-1.5,0.4-1.9,1v7.3h-2.7V29.9z"/>
		<path id="XMLID_931_" class="st1" d="M246.9,35c0-3.7,2.6-5.4,5.6-5.4c3.1,0,5.3,1.7,5.3,5.4c0,3.7-2.6,5.4-5.6,5.4
			C249.1,40.4,246.9,38.7,246.9,35z M255.2,35c0-2-0.9-3.4-2.7-3.4c-1.9,0-2.7,1.4-2.7,3.4c0,2,0.9,3.4,2.7,3.4
			C254.3,38.4,255.2,37,255.2,35z"/>
		<path id="XMLID_929_" class="st1" d="M260,37.7V26.2h2.7v11.3c0,0.7,0.2,0.9,0.8,0.9c0.5,0,0.9-0.2,1.1-0.5v1.9
			c-0.2,0.2-0.8,0.6-1.8,0.6C260.8,40.4,260,39.4,260,37.7z"/>
		<path id="XMLID_926_" class="st1" d="M271.1,27.5c0-0.8,0.5-1.2,1.4-1.2s1.5,0.4,1.5,1.2c0,0.8-0.5,1.2-1.5,1.2
			S271.1,28.3,271.1,27.5z M271.3,29.9h2.7v10.2h-2.7V29.9z"/>
		<path id="XMLID_924_" class="st1" d="M276.7,29.9h2.5l0.2,0.9c0.4-0.6,1.5-1.2,2.9-1.2c3,0,4.1,1.4,4.1,4.1v6.3h-2.7v-5.9
			c0-2-0.5-2.7-2.1-2.7c-1.3,0-2,0.6-2.3,1v7.6h-2.7V29.9z"/>
		<path id="XMLID_922_" class="st1" d="M293.7,39.4v-2.6c0.6,0.8,1.9,1.5,3.6,1.5c1.6,0,2.6-0.7,2.6-1.8c0-0.9-0.6-1.3-2.2-1.6
			l-0.5-0.1c-2.2-0.5-3.4-1.6-3.4-3.6c0-2.4,1.9-3.9,5-3.9c2,0,3,0.5,3.5,0.9v2.7c-0.6-0.8-1.9-1.5-3.6-1.5c-1.4,0-2.3,0.5-2.3,1.5
			c0,0.9,0.4,1.3,2.1,1.7l0.5,0.1c2.4,0.5,3.6,1.5,3.6,3.5c0,2.4-1.9,4.2-5.3,4.2C295.2,40.4,294.2,39.8,293.7,39.4z"/>
		<path id="XMLID_920_" class="st1" d="M304.7,36.2v-6.3h2.7v5.9c0,2,0.4,2.7,2,2.7c1.3,0,1.9-0.6,2.2-1v-7.6h2.7v10.2h-2.5
			l-0.2-0.9c-0.4,0.6-1.4,1.2-2.9,1.2C305.7,40.4,304.7,39,304.7,36.2z"/>
		<path id="XMLID_917_" class="st1" d="M319.4,39.4l-0.4,0.7h-2V26.2h2.7v4.6c0.3-0.5,1.3-1.2,2.9-1.2c2.8,0,4.6,1.4,4.6,5.1
			c0,3.7-2.3,5.7-5.1,5.7C320.7,40.4,319.9,39.9,319.4,39.4z M319.6,37.7c0.5,0.6,1.3,0.8,2.2,0.8c1.9,0,2.6-1.6,2.6-3.6
			s-0.7-3.3-2.5-3.3c-1.1,0-1.9,0.4-2.3,0.9V37.7z"/>
		<path id="XMLID_914_" class="st1" d="M326.4,43.3v-2c0.4,0.5,1,0.7,1.5,0.7c0.9,0,1.5-0.4,1.5-1.3V29.9h2.7v10.5
			c0,2.1-1.5,3.4-3.8,3.4C327.4,43.8,326.7,43.6,326.4,43.3z M329.3,27.5c0-0.8,0.5-1.2,1.4-1.2s1.5,0.4,1.5,1.2
			c0,0.8-0.5,1.2-1.5,1.2S329.3,28.3,329.3,27.5z"/>
		<path id="XMLID_911_" class="st1" d="M334.2,35c0-3.7,2.7-5.4,5.3-5.4c2.5,0,5,1,5,4.8v1.3H337c0.1,1.4,1.1,2.6,3.3,2.6
			c2,0,3.2-0.8,3.8-1.5v2.2c-0.6,0.6-1.8,1.3-4,1.3C336.5,40.4,334.2,38.7,334.2,35z M341.9,34.1L341.9,34.1c0-1.6-0.8-2.5-2.4-2.5
			c-1.5,0-2.4,1.3-2.5,2.5H341.9z"/>
		<path id="XMLID_909_" class="st1" d="M346.1,35c0-3.7,2.6-5.4,5.5-5.4c1.5,0,2.7,0.5,3.2,0.9v2.3c-0.7-0.9-1.6-1.2-3-1.2
			c-1.9,0-3,1.3-3,3.3c0,2.1,1.1,3.3,3,3.3c1.4,0,2.4-0.5,3.1-1.3v2.2c-0.5,0.5-1.8,1.2-3.4,1.2C348.3,40.4,346.1,38.7,346.1,35z"/>
		<path id="XMLID_907_" class="st1" d="M357.7,37.4v-5.6h-1.4v-0.6l1.1-1.3l2.1-2.4h0.9v2.4h2.8v1.9h-2.8v5.4c0,0.8,0.3,1.2,1,1.2
			c0.8,0,1.4-0.4,1.8-1v2.1c-0.3,0.4-1.1,0.8-2.4,0.8C358.6,40.4,357.7,39.3,357.7,37.4z"/>
		<path id="XMLID_905_" class="st1" d="M364.8,39.5v-2.3c0.7,0.7,1.7,1.3,3.2,1.3s2.1-0.6,2.1-1.2c0-0.7-0.3-0.9-1.7-1.2L368,36
			c-2.1-0.3-3.3-1.3-3.3-3.1c0-1.7,1.4-3.2,4.4-3.2c1.5,0,2.7,0.4,3.3,0.9v2.3c-0.7-0.8-1.7-1.3-3.2-1.3c-1.5,0-2,0.5-2,1.1
			s0.3,1,1.7,1.2l0.6,0.1c2.2,0.4,3.4,1.1,3.4,3c0,1.7-1.5,3.4-4.7,3.4C366.6,40.4,365.4,39.9,364.8,39.5z"/>
		<path id="XMLID_903_" class="st1" d="M378.7,27.5h2.8l2.6,8.9h0.1l2.5-6.9l-0.7-2h2.7l3.2,8.9h0.1l2.6-8.9h2.7l-4.3,12.5h-2.3
			l-2.8-7.7l-2.8,7.7h-2.2L378.7,27.5z"/>
		<path id="XMLID_900_" class="st1" d="M398.8,27.5c0-0.8,0.5-1.2,1.4-1.2s1.5,0.4,1.5,1.2c0,0.8-0.5,1.2-1.5,1.2
			S398.8,28.3,398.8,27.5z M398.9,29.9h2.7v10.2h-2.7V29.9z"/>
		<path id="XMLID_898_" class="st1" d="M404.8,37.4v-5.6h-1.4v-0.6l1.1-1.3l2.1-2.4h0.9v2.4h2.8v1.9h-2.8v5.4c0,0.8,0.3,1.2,1,1.2
			c0.8,0,1.4-0.4,1.8-1v2.1c-0.3,0.4-1.1,0.8-2.4,0.8C405.8,40.4,404.8,39.3,404.8,37.4z"/>
		<path id="XMLID_896_" class="st1" d="M412.4,26.2h2.7v4.6c0.5-0.6,1.5-1.2,2.9-1.2c3,0,4.1,1.4,4.1,4.1v6.3h-2.7v-5.9
			c0-2-0.5-2.7-2.1-2.7c-1.2,0-2,0.6-2.3,1v7.6h-2.7V26.2z"/>
		<path id="XMLID_893_" class="st1" d="M429.1,37.4c0-2.1,1.8-2.9,4.9-3.3l1.7-0.2c0-1.8-1-2.3-2.6-2.3c-1.7,0-3,0.8-3.6,1.9V31
			c0.4-0.6,1.6-1.4,4-1.4c3.1,0,4.8,1.4,4.8,4.3v6.1H436l-0.2-0.9c-0.3,0.6-1.2,1.2-2.8,1.2C430.9,40.4,429.1,39.5,429.1,37.4z
			 M435.8,35.4l-1.5,0.3c-1.9,0.4-2.5,0.8-2.5,1.6s0.6,1.2,1.7,1.2c1.1,0,2-0.4,2.3-0.9V35.4z"/>
		<path id="XMLID_891_" class="st1" d="M441.1,29.9h2.5l0.2,0.9c0.4-0.6,1.5-1.2,2.9-1.2c3,0,4.1,1.4,4.1,4.1v6.3h-2.7v-5.9
			c0-2-0.5-2.7-2.1-2.7c-1.3,0-2,0.6-2.3,1v7.6h-2.7V29.9z"/>
		<path id="XMLID_888_" class="st1" d="M462.2,28.8l-0.5-1.3h2.8l5.5,12.5h-2.8l-1.1-2.6h-5.2l-1.1,2.6h-2.6L462.2,28.8z
			 M461.6,35.7h3.7l-1.5-3.4l-0.4-1.1l-0.4,1.1L461.6,35.7z"/>
		<path id="XMLID_886_" class="st1" d="M470.8,35c0-3.7,2.6-5.4,5.5-5.4c1.5,0,2.7,0.5,3.2,0.9v2.3c-0.7-0.9-1.6-1.2-3-1.2
			c-1.9,0-3,1.3-3,3.3c0,2.1,1.1,3.3,3,3.3c1.4,0,2.4-0.5,3.1-1.3v2.2c-0.5,0.5-1.8,1.2-3.4,1.2C473,40.4,470.8,38.7,470.8,35z"/>
		<path id="XMLID_884_" class="st1" d="M481.7,36.2v-6.3h2.7v5.9c0,2,0.4,2.7,2,2.7c1.3,0,1.9-0.6,2.2-1v-7.6h2.7v10.2h-2.5
			l-0.2-0.9c-0.4,0.6-1.4,1.2-2.9,1.2C482.8,40.4,481.7,39,481.7,36.2z"/>
		<path id="XMLID_882_" class="st1" d="M494.5,37.4v-5.6h-1.4v-0.6l1.1-1.3l2.1-2.4h0.9v2.4h2.8v1.9h-2.8v5.4c0,0.8,0.3,1.2,1,1.2
			c0.8,0,1.4-0.4,1.8-1v2.1c-0.3,0.4-1.1,0.8-2.4,0.8C495.5,40.4,494.5,39.3,494.5,37.4z"/>
		<path id="XMLID_879_" class="st1" d="M501.5,35c0-3.7,2.7-5.4,5.3-5.4c2.5,0,5,1,5,4.8v1.3h-7.6c0.1,1.4,1.1,2.6,3.3,2.6
			c2,0,3.2-0.8,3.8-1.5v2.2c-0.6,0.6-1.8,1.3-4,1.3C503.8,40.4,501.5,38.7,501.5,35z M509.2,34.1L509.2,34.1c0-1.6-0.8-2.5-2.4-2.5
			c-1.5,0-2.4,1.3-2.5,2.5H509.2z"/>
		<path id="XMLID_877_" class="st1" d="M519.1,27.5h9v2.1h-6.2v3h4.1v1.9h-4.1V38h6.2v2.1h-9V27.5z"/>
		<path id="XMLID_875_" class="st1" d="M533.1,34.7l-3.6-4.8h2.9l2.4,3.1l2.1-3.1h2.7l-3.7,4.7l4.1,5.4h-2.9l-2.7-3.6l-2.6,3.6h-2.7
			L533.1,34.7z"/>
		<path id="XMLID_872_" class="st1" d="M540.9,37.4c0-2.1,1.8-2.9,4.9-3.3l1.7-0.2c0-1.8-0.9-2.3-2.6-2.3c-1.7,0-3,0.8-3.6,1.9V31
			c0.4-0.6,1.6-1.4,4-1.4c3.1,0,4.8,1.4,4.8,4.3v6.1h-2.4l-0.2-0.9c-0.3,0.6-1.2,1.2-2.8,1.2C542.7,40.4,540.9,39.5,540.9,37.4z
			 M547.5,35.4l-1.5,0.3c-1.9,0.4-2.5,0.8-2.5,1.6s0.6,1.2,1.7,1.2c1.1,0,2-0.4,2.3-0.9V35.4z"/>
		<path id="XMLID_870_" class="st1" d="M552.3,35c0-3.7,2.6-5.4,5.5-5.4c1.5,0,2.7,0.5,3.2,0.9v2.3c-0.7-0.9-1.6-1.2-3-1.2
			c-1.9,0-3,1.3-3,3.3c0,2.1,1.1,3.3,3,3.3c1.4,0,2.4-0.5,3.1-1.3v2.2c-0.5,0.5-1.8,1.2-3.4,1.2C554.5,40.4,552.3,38.7,552.3,35z"/>
		<path id="XMLID_867_" class="st1" d="M562.7,35c0-3.7,2.7-5.4,5.3-5.4c2.5,0,5,1,5,4.8v1.3h-7.6c0.1,1.4,1.1,2.6,3.3,2.6
			c2,0,3.2-0.8,3.8-1.5v2.2c-0.6,0.6-1.8,1.3-4,1.3C565,40.4,562.7,38.7,562.7,35z M570.5,34.1L570.5,34.1c0-1.6-0.8-2.5-2.4-2.5
			c-1.5,0-2.4,1.3-2.5,2.5H570.5z"/>
		<path id="XMLID_865_" class="st1" d="M575.2,29.9h2.3l0.2,1.4c0.1-1.1,1.1-1.7,2.2-1.7c0.6,0,1,0.2,1.2,0.3V32
			c-0.3-0.2-0.7-0.3-1.3-0.3c-1,0-1.5,0.4-1.9,1v7.3h-2.7V29.9z"/>
		<path id="XMLID_862_" class="st1" d="M585.3,39.4l-0.4,0.7h-2V26.2h2.7v4.6c0.3-0.5,1.3-1.2,2.9-1.2c2.8,0,4.6,1.4,4.6,5.1
			c0,3.7-2.3,5.7-5.1,5.7C586.5,40.4,585.8,39.9,585.3,39.4z M585.5,37.7c0.5,0.6,1.3,0.8,2.2,0.8c1.9,0,2.6-1.6,2.6-3.6
			s-0.7-3.3-2.5-3.3c-1.1,0-1.9,0.4-2.3,0.9V37.7z"/>
		<path id="XMLID_859_" class="st1" d="M594.7,37.4c0-2.1,1.8-2.9,4.9-3.3l1.7-0.2c0-1.8-0.9-2.3-2.6-2.3c-1.7,0-3,0.8-3.6,1.9V31
			c0.4-0.6,1.6-1.4,4-1.4c3.1,0,4.8,1.4,4.8,4.3v6.1h-2.4l-0.2-0.9c-0.3,0.6-1.2,1.2-2.8,1.2C596.4,40.4,594.7,39.5,594.7,37.4z
			 M601.3,35.4l-1.5,0.3c-1.9,0.4-2.5,0.8-2.5,1.6s0.6,1.2,1.7,1.2c1.1,0,2-0.4,2.3-0.9V35.4z"/>
		<path id="XMLID_857_" class="st1" d="M607.1,37.4v-5.6h-1.4v-0.6l1.1-1.3l2.1-2.4h0.9v2.4h2.8v1.9h-2.8v5.4c0,0.8,0.3,1.2,1,1.2
			c0.8,0,1.4-0.4,1.8-1v2.1c-0.3,0.4-1.1,0.8-2.4,0.8C608,40.4,607.1,39.3,607.1,37.4z"/>
		<path id="XMLID_854_" class="st1" d="M614.6,27.5c0-0.8,0.5-1.2,1.4-1.2c1,0,1.5,0.4,1.5,1.2c0,0.8-0.5,1.2-1.5,1.2
			C615,28.7,614.6,28.3,614.6,27.5z M614.7,29.9h2.7v10.2h-2.7V29.9z"/>
		<path id="XMLID_851_" class="st1" d="M619.5,35c0-3.7,2.6-5.4,5.6-5.4c3.1,0,5.3,1.7,5.3,5.4c0,3.7-2.6,5.4-5.6,5.4
			C621.7,40.4,619.5,38.7,619.5,35z M627.7,35c0-2-0.9-3.4-2.7-3.4c-1.9,0-2.7,1.4-2.7,3.4c0,2,0.9,3.4,2.7,3.4
			C626.9,38.4,627.7,37,627.7,35z"/>
		<path id="XMLID_849_" class="st1" d="M632.6,29.9h2.5l0.2,0.9c0.4-0.6,1.5-1.2,2.9-1.2c3,0,4.1,1.4,4.1,4.1v6.3h-2.7v-5.9
			c0-2-0.5-2.7-2.1-2.7c-1.3,0-2,0.6-2.3,1v7.6h-2.7V29.9z"/>
		<path id="XMLID_846_" class="st1" d="M649.4,35c0-3.7,2.6-5.4,5.6-5.4c3.1,0,5.3,1.7,5.3,5.4c0,3.7-2.6,5.4-5.6,5.4
			C651.6,40.4,649.4,38.7,649.4,35z M657.6,35c0-2-0.9-3.4-2.7-3.4c-1.9,0-2.7,1.4-2.7,3.4c0,2,0.9,3.4,2.7,3.4
			C656.7,38.4,657.6,37,657.6,35z"/>
		<path id="XMLID_844_" class="st1" d="M663,31.8h-1.4v-0.6l1.3-1c-0.2-0.3-0.4-0.8-0.4-1.4c0-1.8,1.8-2.8,3.8-2.8
			c1.4,0,2.2,0.3,2.5,0.6v2.2c-0.4-0.6-1.1-0.9-2-0.9c-1.1,0-1.6,0.4-1.6,1.2c0,0.4,0.1,0.7,0.3,0.9h2.3v1.9h-2.2v8.3H663V31.8z"/>
		<path id="XMLID_842_" class="st1" d="M674.2,39.4v-2.6c0.6,0.8,1.9,1.5,3.6,1.5c1.6,0,2.6-0.7,2.6-1.8c0-0.9-0.6-1.3-2.2-1.6
			l-0.5-0.1c-2.2-0.5-3.4-1.6-3.4-3.6c0-2.4,1.9-3.9,5-3.9c2,0,3,0.5,3.5,0.9v2.7c-0.6-0.8-1.9-1.5-3.6-1.5c-1.4,0-2.3,0.5-2.3,1.5
			c0,0.9,0.4,1.3,2.1,1.7l0.5,0.1c2.4,0.5,3.6,1.5,3.6,3.5c0,2.4-1.9,4.2-5.3,4.2C675.7,40.4,674.7,39.8,674.2,39.4z"/>
		<path id="XMLID_840_" class="st1" d="M684.6,35c0-3.7,2.6-5.4,5.5-5.4c1.5,0,2.7,0.5,3.2,0.9v2.3c-0.7-0.9-1.6-1.2-3-1.2
			c-1.9,0-3,1.3-3,3.3c0,2.1,1.1,3.3,3,3.3c1.4,0,2.4-0.5,3.1-1.3v2.2c-0.5,0.5-1.8,1.2-3.4,1.2C686.9,40.4,684.6,38.7,684.6,35z"/>
		<path id="XMLID_838_" class="st1" d="M695.7,26.2h2.7v4.6c0.5-0.6,1.5-1.2,2.9-1.2c3,0,4.1,1.4,4.1,4.1v6.3h-2.7v-5.9
			c0-2-0.5-2.7-2.1-2.7c-1.2,0-2,0.6-2.3,1v7.6h-2.7V26.2z"/>
		<path id="XMLID_835_" class="st1" d="M708,27.5c0-0.8,0.5-1.2,1.4-1.2c1,0,1.5,0.4,1.5,1.2c0,0.8-0.5,1.2-1.5,1.2
			C708.5,28.7,708,28.3,708,27.5z M708.1,29.9h2.7v10.2h-2.7V29.9z"/>
		<path id="XMLID_833_" class="st1" d="M712.9,39.4l5.1-7.6h-5.1v-1.9h8.5v0.6l-5,7.6h5v1.9h-8.5V39.4z"/>
		<path id="XMLID_830_" class="st1" d="M722.8,35c0-3.7,2.6-5.4,5.6-5.4c3.1,0,5.3,1.7,5.3,5.4c0,3.7-2.6,5.4-5.6,5.4
			C725,40.4,722.8,38.7,722.8,35z M731,35c0-2-0.9-3.4-2.7-3.4c-1.9,0-2.7,1.4-2.7,3.4c0,2,0.9,3.4,2.7,3.4
			C730.2,38.4,731,37,731,35z"/>
		<path id="XMLID_827_" class="st1" d="M735.9,29.9h2.5l0.2,0.9c0.3-0.5,1.2-1.2,2.9-1.2c2.8,0,4.6,1.4,4.6,5.1
			c0,3.7-2.3,5.7-5.1,5.7c-0.8,0-1.9-0.1-2.5-0.7v3.9h-2.7V29.9z M743.4,34.8c0-2-0.7-3.3-2.5-3.3c-1.2,0-1.9,0.4-2.3,0.9v5.2
			c0.5,0.6,1.3,0.8,2.2,0.8C742.6,38.5,743.4,36.8,743.4,34.8z"/>
		<path id="XMLID_825_" class="st1" d="M748.3,26.2h2.7v4.6c0.5-0.6,1.5-1.2,2.9-1.2c3,0,4.1,1.4,4.1,4.1v6.3h-2.7v-5.9
			c0-2-0.5-2.7-2.1-2.7c-1.2,0-2,0.6-2.3,1v7.6h-2.7V26.2z"/>
		<path id="XMLID_823_" class="st1" d="M760.7,29.9h2.3l0.2,1.4c0.1-1.1,1.1-1.7,2.2-1.7c0.6,0,1,0.2,1.2,0.3V32
			c-0.3-0.2-0.7-0.3-1.3-0.3c-1,0-1.5,0.4-1.9,1v7.3h-2.7V29.9z"/>
		<path id="XMLID_820_" class="st1" d="M767.5,35c0-3.7,2.7-5.4,5.3-5.4c2.5,0,5,1,5,4.8v1.3h-7.6c0.1,1.4,1.1,2.6,3.3,2.6
			c2,0,3.2-0.8,3.8-1.5v2.2c-0.6,0.6-1.8,1.3-4,1.3C769.8,40.4,767.5,38.7,767.5,35z M775.3,34.1L775.3,34.1c0-1.6-0.8-2.5-2.4-2.5
			c-1.5,0-2.4,1.3-2.5,2.5H775.3z"/>
		<path id="XMLID_818_" class="st1" d="M780,29.9h2.5l0.2,0.9c0.4-0.6,1.5-1.2,2.9-1.2c3,0,4.1,1.4,4.1,4.1v6.3h-2.7v-5.9
			c0-2-0.5-2.7-2.1-2.7c-1.3,0-2,0.6-2.3,1v7.6H780V29.9z"/>
		<path id="XMLID_815_" class="st1" d="M792.3,27.5c0-0.8,0.5-1.2,1.4-1.2c1,0,1.5,0.4,1.5,1.2c0,0.8-0.5,1.2-1.5,1.2
			C792.8,28.7,792.3,28.3,792.3,27.5z M792.4,29.9h2.7v10.2h-2.7V29.9z"/>
		<path id="XMLID_812_" class="st1" d="M797.3,37.4c0-2.1,1.8-2.9,4.9-3.3l1.7-0.2c0-1.8-0.9-2.3-2.6-2.3c-1.7,0-3,0.8-3.6,1.9V31
			c0.4-0.6,1.6-1.4,4-1.4c3.1,0,4.8,1.4,4.8,4.3v6.1h-2.4l-0.2-0.9c-0.3,0.6-1.2,1.2-2.8,1.2C799,40.4,797.3,39.5,797.3,37.4z
			 M803.9,35.4l-1.5,0.3c-1.9,0.4-2.5,0.8-2.5,1.6s0.6,1.2,1.7,1.2c1.1,0,2-0.4,2.3-0.9V35.4z"/>
		<path id="XMLID_810_" class="st1" d="M808.8,38.8c0-0.9,0.7-1.5,1.7-1.5c1,0,1.7,0.6,1.7,1.5c0,0.9-0.7,1.5-1.7,1.5
			C809.5,40.4,808.8,39.7,808.8,38.8z"/>
	</g>
</g>
<g id="XMLID_762_">
	<path id="XMLID_806_" class="st2" d="M425.3,12.9h6.4c1,0,1.4-0.2,1.4-0.7c0-0.5-0.3-0.6-1-0.7c-3.1-0.3-3.9-1.1-3.9-3.1
		c0-2,1.3-3.3,4.3-3.3c1.8,0,2.6,0.2,3.2,0.5v2.6c-0.9-0.4-2-0.6-3.1-0.6c-0.9,0-1.4,0.2-1.4,0.7c0,0.5,0.3,0.6,1,0.7
		c3.1,0.3,3.9,1.1,3.9,3.1c0,1.9-1.1,3.3-4.4,3.3h-5.9"/>
	<path id="XMLID_803_" class="st2" d="M439.7,11.3c-0.1,1.3,0.6,1.6,2.1,1.6c1.5,0,2.5-0.3,3.2-0.6v2.4c-1.1,0.5-2.5,0.7-3.6,0.7
		c-3.2,0-4.7-1.6-4.7-5.1s1.5-5.1,4.5-5.1c4.1,0,4.4,3.1,4.2,6.1H439.7z M439.7,9.4h2.7c0.2-1.1-0.1-1.9-1.2-1.9
		C440.2,7.5,439.7,8.2,439.7,9.4"/>
	<path id="XMLID_802_" class="st2" d="M448.1,5.4l0.4,0.7c1.1-0.7,2.3-1,3.4-1c2.6,0,3.4,1.4,3.4,3.3v6.7h-3.1V8.9
		c0-0.7-0.3-1.2-1.1-1.2c-0.8,0-1.4,0.3-1.7,0.5v6.9h-3.1V5.4H448.1z"/>
	<path id="XMLID_799_" class="st2" d="M461.3,8.3c0-0.4-0.3-0.7-1.1-0.7c-1.2,0-2.6,0.4-3.5,0.7V5.8c0.7-0.3,2.1-0.6,3.5-0.6
		c3.5,0,4.1,1.5,4.1,3.7v6.3h-1.9l-0.4-0.7c-0.7,0.6-1.7,1-2.8,1c-2.5,0-3.3-1.6-3.3-3.1c0-2.6,1.9-3,3.7-3.2l1.8-0.2V8.3z
		 M460,10.8c-0.9,0.1-1.2,0.5-1.2,1.3c0,0.7,0.5,1.1,1.1,1.1c0.6,0,1.1-0.2,1.4-0.5v-2.1L460,10.8z"/>
	<path id="XMLID_796_" class="st2" d="M467.2,5.4l0.5,0.8c0.7-0.6,1.6-1,3.1-1c2.5,0,3.8,1.5,3.8,5.1s-1.2,5.1-3.8,5.1
		c-1.1,0-1.8-0.3-2.4-0.6v5.2h-3.1V5.4H467.2z M468.4,12.5c0,0,0.6,0.4,1.4,0.4c1.4,0,1.7-1,1.7-2.6c0-1.7-0.3-2.6-1.7-2.6
		c-0.8,0-1.4,0.4-1.4,0.4V12.5z"/>
	<path id="XMLID_795_" class="st2" d="M479.3,15.2c0,0-0.4,0.1-0.9,0.1c-1.7,0-3-0.9-3-2.7V5.4h3.1v6.7c0,0.4,0.2,0.6,0.8,0.6V15.2z
		"/>
	<path id="XMLID_794_" class="st2" d="M481.9,5.4l0.4,0.7c1.1-0.7,2.3-1,3.4-1c2.6,0,3.4,1.4,3.4,3.3v6.7h-3.1V8.9
		c0-0.7-0.3-1.2-1.1-1.2c-0.8,0-1.4,0.3-1.7,0.5v6.9H480V5.4H481.9z"/>
	<path id="XMLID_791_" class="st2" d="M492.7,11.3c-0.1,1.3,0.6,1.6,2.1,1.6c1.5,0,2.5-0.3,3.2-0.6v2.4c-1.1,0.5-2.5,0.7-3.6,0.7
		c-3.2,0-4.7-1.6-4.7-5.1s1.5-5.1,4.5-5.1c4.1,0,4.4,3.1,4.2,6.1H492.7z M492.7,9.4h2.7c0.2-1.1-0.1-1.9-1.2-1.9
		C493.2,7.5,492.7,8.2,492.7,9.4"/>
	<polyline id="XMLID_790_" class="st2" points="422.1,12.1 422.7,9.7 424.5,9.7 423.3,4.2 422.1,9.7 421.5,12.1 420.8,15.1 
		417.5,15.1 421.5,0.5 425.1,0.5 429.1,15.1 425.8,15.1 425.1,12.1 	"/>
	<g id="XMLID_768_">
		<polygon id="XMLID_789_" class="st2" points="471.5,19.8 471.5,18.1 469.7,18.1 469.7,19.8 469.3,19.8 469.3,16.2 469.7,16.2 
			469.7,17.7 471.5,17.7 471.5,16.2 471.8,16.2 471.8,19.8 		"/>
		<path id="XMLID_786_" class="st2" d="M472.7,16.4c0.1,0,0.2,0.1,0.2,0.2c0,0.1-0.1,0.2-0.2,0.2c-0.1,0-0.2-0.1-0.2-0.2
			C472.5,16.5,472.6,16.4,472.7,16.4 M472.6,19.3v-1.9h0.3v2c0,0.2,0.1,0.2,0.2,0.2v0.3C472.8,19.8,472.6,19.7,472.6,19.3"/>
		<polygon id="XMLID_785_" class="st2" points="474.5,18.4 475.7,19.8 475.3,19.8 474.3,18.6 474,18.9 474,19.8 473.7,19.8 
			473.7,16.1 474,16.1 474,18.5 475.1,17.4 475.5,17.4 		"/>
		<path id="XMLID_784_" class="st2" d="M479,18c0-0.3-0.2-0.4-0.5-0.4c-0.3,0-0.5,0.1-0.7,0.2c0,0.1,0,0.2,0,0.3v1.8h-0.3V18
			c0-0.3-0.2-0.4-0.5-0.4c-0.3,0-0.4,0-0.6,0.1v2h-0.3v-2.4h0.2l0.1,0.2c0.2-0.2,0.5-0.2,0.7-0.2c0.3,0,0.6,0.1,0.7,0.3
			c0.3-0.2,0.5-0.3,0.8-0.3c0.5,0,0.8,0.2,0.8,0.7v1.7H479V18z"/>
		<path id="XMLID_781_" class="st2" d="M480.8,17.6c-0.3,0-0.5,0.1-0.7,0.1v-0.3c0.2-0.1,0.5-0.1,0.7-0.1c0.7,0,0.9,0.3,0.9,0.8v1.7
			h-0.2l-0.1-0.2c-0.2,0.2-0.5,0.2-0.7,0.2c-0.6,0-0.9-0.4-0.9-0.8c0-0.4,0.2-0.7,0.9-0.8l0.6,0v-0.1
			C481.3,17.8,481.2,17.6,480.8,17.6 M480.7,18.6c-0.3,0-0.5,0.2-0.5,0.5c0,0.2,0.1,0.5,0.5,0.5c0.3,0,0.4-0.1,0.6-0.2v-0.8
			L480.7,18.6z"/>
		<path id="XMLID_778_" class="st2" d="M483.5,19.8h-0.3v-3.6h1.1c0.9,0,1.2,0.5,1.2,1.1c0,0.6-0.3,1.1-1.2,1.1h-0.8V19.8z
			 M483.5,18h0.8c0.7,0,0.8-0.4,0.8-0.8c0-0.3-0.1-0.8-0.8-0.8h-0.8V18z"/>
		<path id="XMLID_777_" class="st2" d="M487,17.6c-0.3,0-0.5,0.1-0.7,0.2v2H486v-3.6h0.3v1.4c0.2-0.1,0.4-0.2,0.7-0.2
			c0.6,0,0.8,0.3,0.8,0.7v1.7h-0.3V18C487.5,17.7,487.3,17.6,487,17.6"/>
		<path id="XMLID_774_" class="st2" d="M489.3,17.6c-0.3,0-0.5,0.1-0.7,0.1v-0.3c0.2-0.1,0.5-0.1,0.7-0.1c0.7,0,0.9,0.3,0.9,0.8v1.7
			H490l-0.1-0.2c-0.2,0.2-0.5,0.2-0.7,0.2c-0.6,0-0.9-0.4-0.9-0.8c0-0.4,0.2-0.7,0.9-0.8l0.6,0v-0.1
			C489.9,17.8,489.7,17.6,489.3,17.6 M489.2,18.6c-0.3,0-0.5,0.2-0.5,0.5c0,0.2,0.1,0.5,0.5,0.5c0.3,0,0.4-0.1,0.6-0.2v-0.8
			L489.2,18.6z"/>
		<path id="XMLID_773_" class="st2" d="M492.2,17.7c-0.1,0-0.2,0-0.3,0c-0.3,0-0.5,0.1-0.7,0.2v2h-0.3v-2.4h0.2l0.1,0.2
			c0.2-0.2,0.5-0.3,0.8-0.3c0.1,0,0.2,0,0.3,0V17.7z"/>
		<path id="XMLID_772_" class="st2" d="M495.5,18c0-0.3-0.2-0.4-0.5-0.4c-0.3,0-0.5,0.1-0.7,0.2c0,0.1,0,0.2,0,0.3v1.8H494V18
			c0-0.3-0.2-0.4-0.5-0.4c-0.3,0-0.4,0-0.6,0.1v2h-0.3v-2.4h0.2l0.1,0.2c0.2-0.2,0.5-0.2,0.7-0.2c0.3,0,0.6,0.1,0.7,0.3
			c0.3-0.2,0.5-0.3,0.8-0.3c0.5,0,0.8,0.2,0.8,0.7v1.7h-0.3V18z"/>
		<path id="XMLID_769_" class="st2" d="M497.3,17.6c-0.3,0-0.5,0.1-0.7,0.1v-0.3c0.2-0.1,0.5-0.1,0.7-0.1c0.7,0,0.9,0.3,0.9,0.8v1.7
			H498l-0.1-0.2c-0.2,0.2-0.5,0.2-0.7,0.2c-0.6,0-0.8-0.4-0.8-0.8c0-0.4,0.2-0.7,0.9-0.8l0.6,0v-0.1
			C497.9,17.8,497.7,17.6,497.3,17.6 M497.2,18.6c-0.3,0-0.5,0.2-0.5,0.5c0,0.2,0.1,0.5,0.5,0.5c0.3,0,0.4-0.1,0.6-0.2v-0.8
			L497.2,18.6z"/>
	</g>
	<g id="XMLID_763_">
		<path id="XMLID_767_" class="st2" d="M478.1,0c-0.4,0-0.8,0.1-1.1,0.3c0.1,0.1,0.3,0.2,0.4,0.3c0.8,0.2,1.4,0.9,1.4,1.8
			c0,0.9-0.6,1.6-1.4,1.8c-0.1,0.1-0.3,0.2-0.4,0.3c0.3,0.2,0.7,0.3,1.1,0.3c1.3,0,2.4-1,2.4-2.4C480.5,1,479.4,0,478.1,0z"/>
		<path id="XMLID_766_" class="st3" d="M475.1,2.4c0-0.9,0.6-1.6,1.4-1.8c0.1-0.1,0.3-0.2,0.4-0.3c-0.3-0.2-0.7-0.3-1.1-0.3
			c-1.3,0-2.4,1-2.4,2.4c0,1.3,1,2.4,2.4,2.4c0.4,0,0.8-0.1,1.1-0.3c-0.2-0.1-0.3-0.2-0.4-0.3C475.7,4,475.1,3.3,475.1,2.4z"/>
		<path id="XMLID_765_" class="st3" d="M477,4.2c-0.2,0-0.3,0-0.4-0.1c0.1,0.1,0.3,0.2,0.4,0.3c0.2-0.1,0.3-0.2,0.4-0.3
			C477.3,4.2,477.1,4.2,477,4.2z"/>
		<path id="XMLID_764_" class="st3" d="M477,0.5c0.1,0,0.3,0,0.4,0c-0.1-0.1-0.3-0.2-0.4-0.3c-0.1,0.1-0.3,0.2-0.4,0.3
			C476.7,0.5,476.8,0.5,477,0.5z"/>
	</g>
</g>
<g id="XMLID_1_">
	<g id="XMLID_47_">
		<g id="XMLID_49_">
			<path id="XMLID_404_" class="st0" d="M4.9,70.5v-3.7c0.8,0.9,2.4,1.7,4.5,1.7c1.8,0,2.7-0.6,2.7-1.7c0-0.9-0.6-1.2-2.2-1.6
				l-0.6-0.1c-2.7-0.5-4.5-1.8-4.5-4.5c0-3,2.4-4.8,6.3-4.8c2.5,0,3.9,0.6,4.6,1.1v3.6c-0.8-0.9-2.4-1.7-4.6-1.7
				c-1.5,0-2.4,0.5-2.4,1.4c0,0.9,0.4,1.3,2,1.6l0.6,0.1c2.8,0.5,4.7,1.6,4.7,4.4c0,3-2.3,5.1-6.7,5.1C6.9,71.6,5.5,71,4.9,70.5z"/>
			<path id="XMLID_402_" class="st0" d="M19.1,67.7v-5.9h-1.6v-1.3l1.3-1.5l2.4-2.9h1.9v2.9h3.2v2.8h-3.2v5.5c0,0.9,0.3,1.3,1.2,1.3
				c0.9,0,1.6-0.4,2-1v2.9c-0.5,0.5-1.4,1-3.1,1C20.2,71.6,19.1,70.1,19.1,67.7z"/>
			<path id="XMLID_400_" class="st0" d="M28.3,66.6v-7.5h4V66c0,2,0.4,2.8,2,2.8c1.2,0,1.8-0.5,2.2-1v-8.7h4v12.2h-3.6l-0.3-1
				c-0.6,0.8-1.8,1.4-3.6,1.4C29.6,71.6,28.3,69.9,28.3,66.6z"/>
			<path id="XMLID_397_" class="st0" d="M42.7,65.3c0-4.4,2.4-6.6,6-6.6c1.1,0,2.3,0.2,2.9,0.8v-4.8h4v16.6h-3.6l-0.3-1
				c-0.5,0.7-1.6,1.4-3.6,1.4C45,71.6,42.7,69.7,42.7,65.3z M51.6,62.3c-0.5-0.5-1.3-0.8-2.2-0.8c-1.9,0-2.6,1.7-2.6,3.8
				c0,2.1,0.6,3.4,2.5,3.4c1.2,0,1.9-0.4,2.3-0.9V62.3z"/>
			<path id="XMLID_395_" class="st0" d="M57.8,75.1v-2.9c0.6,0.5,1.4,0.9,2.3,0.9c0.9,0,1.8-0.3,2.4-1.6l-5.4-12.4h4.4l2.8,7.9
				l2.4-7.9h3.9l-3.8,11.5c-1,3-2.7,5.2-6.3,5.2C59.3,75.8,58.3,75.5,57.8,75.1z"/>
			<path id="XMLID_392_" class="st0" d="M78.3,56.2h5.4c5.7,0,9,1.9,9,7.5c0,5.5-4,7.5-9,7.5h-5.4V56.2z M83.7,68.2
				c3.7,0,4.9-1.3,4.9-4.4c0-3.1-1.2-4.5-4.9-4.5h-1.3v8.9H83.7z"/>
			<path id="XMLID_389_" class="st0" d="M94.4,65.1c0-4.5,3.3-6.4,6.6-6.4c3.2,0,6.3,1.2,6.3,5.9v1.6h-8.8c0.1,1.4,1.1,2.5,3.7,2.5
				c2.3,0,3.7-0.7,4.4-1.4v3c-0.7,0.6-2.3,1.4-5.1,1.4C97,71.6,94.4,69.5,94.4,65.1z M103.5,63.9v-0.1c0-1.5-0.7-2.3-2.4-2.3
				c-1.6,0-2.4,1.2-2.5,2.4H103.5z"/>
			<path id="XMLID_387_" class="st0" d="M109.1,70.6v-3.2c0.9,0.7,2.2,1.4,4,1.4c1.8,0,2.3-0.5,2.3-1.1c0-0.7-0.3-0.9-1.8-1.1
				l-0.7-0.1c-2.8-0.3-4.1-1.6-4.1-3.7c0-2.1,1.6-4,5.6-4c2.1,0,3.5,0.4,4.2,1v3.1c-0.9-0.9-2.3-1.3-4.1-1.3c-1.6,0-2.1,0.4-2.1,1
				s0.3,0.9,1.7,1.1l0.7,0.1c3,0.4,4.3,1.4,4.3,3.6c0,2.1-1.6,4.2-5.9,4.2C111.2,71.6,109.8,71.1,109.1,70.6z"/>
			<path id="XMLID_384_" class="st0" d="M121.3,56.2c0-1.1,0.8-1.7,2.1-1.7c1.3,0,2.1,0.6,2.1,1.7s-0.8,1.7-2.1,1.7
				C122,57.8,121.3,57.2,121.3,56.2z M121.3,59.1h4v12.2h-4V59.1z"/>
			<path id="XMLID_381_" class="st0" d="M127.5,74.7V72c1.3,0.7,2.9,1.1,5.8,1.1c3.2,0,4.5-0.3,4.5-1.2c0-0.7-0.8-0.9-2.8-0.9
				c-2,0-5.1,0.4-6,0.8v-2.4l1.9-2.5c-2-0.6-3.2-1.9-3.2-3.8c0-2.7,2.4-4.3,6.1-4.3c1.6,0,2.9,0.3,3.8,0.9c0.4-0.6,1.5-1,2.6-1
				c0.4,0,0.8,0,1.2,0.2v2.7c-0.2-0.1-0.6-0.2-0.9-0.2c-0.5,0-0.9,0.1-1.2,0.3c0.1,0.4,0.2,0.9,0.2,1.4c0,2.6-2.4,4.2-6,4.2h-0.2
				l-1,1.5c0.6-0.2,2.2-0.4,3.6-0.4c3.4,0,5.6,0.7,5.6,3.3c0,2.6-2.6,4.2-7.8,4.2C130.8,75.8,128.6,75.4,127.5,74.7z M135.8,63
				c0-1.1-0.8-1.7-2.2-1.7c-1.4,0-2.2,0.6-2.2,1.7c0,1.1,0.8,1.6,2.2,1.6C135,64.6,135.8,64,135.8,63z"/>
			<path id="XMLID_379_" class="st0" d="M143,59.1h3.6l0.3,1c0.6-0.8,1.8-1.4,3.6-1.4c3.5,0,4.9,1.6,4.9,5v7.5h-4v-6.9
				c0-2-0.6-2.7-2.1-2.7c-1.2,0-1.9,0.5-2.3,1v8.7h-4V59.1z"/>
			<path id="XMLID_376_" class="st0" d="M157.9,61.5c0-1.2,1-2.1,2.4-2.1c1.3,0,2.3,0.9,2.3,2.1c0,1.2-1,2.1-2.3,2.1
				C158.9,63.6,157.9,62.7,157.9,61.5z M157.9,69.5c0-1.2,1-2.1,2.4-2.1c1.3,0,2.3,0.9,2.3,2.1c0,1.2-1,2.1-2.3,2.1
				C158.9,71.6,157.9,70.7,157.9,69.5z"/>
			<path id="XMLID_374_" class="st1" d="M169.4,58.7h2.5l4.4,5.8l4.1-5.8h2.5v12.5h-2.7v-8.6l-4,5.5h0l-4-5.5v8.6h-2.7V58.7z"/>
			<path id="XMLID_372_" class="st1" d="M185.8,67.4v-6.3h2.7v5.9c0,2,0.4,2.7,2,2.7c1.3,0,1.9-0.6,2.2-1v-7.6h2.7v10.2h-2.5
				l-0.2-0.9c-0.4,0.6-1.4,1.2-2.9,1.2C186.8,71.5,185.8,70.1,185.8,67.4z"/>
			<path id="XMLID_370_" class="st1" d="M198,68.9V57.4h2.7v11.3c0,0.7,0.2,0.9,0.8,0.9c0.5,0,0.9-0.2,1.1-0.5v1.9
				c-0.2,0.2-0.8,0.6-1.8,0.6C198.9,71.5,198,70.6,198,68.9z"/>
			<path id="XMLID_368_" class="st1" d="M204.7,68.5V63h-1.4v-0.6l1.1-1.3l2.1-2.4h0.9v2.4h2.8V63h-2.8v5.4c0,0.8,0.3,1.2,1,1.2
				c0.8,0,1.4-0.4,1.8-1v2.1c-0.3,0.4-1.1,0.8-2.4,0.8C205.6,71.5,204.7,70.5,204.7,68.5z"/>
			<path id="XMLID_365_" class="st1" d="M212.2,58.7c0-0.8,0.5-1.2,1.4-1.2s1.5,0.4,1.5,1.2c0,0.8-0.5,1.2-1.5,1.2
				S212.2,59.5,212.2,58.7z M212.3,61.1h2.7v10.2h-2.7V61.1z"/>
			<path id="XMLID_363_" class="st1" d="M217.1,66.1c0-3.7,2.6-5.4,5.5-5.4c1.5,0,2.7,0.5,3.2,0.9v2.3c-0.7-0.9-1.6-1.2-3-1.2
				c-1.9,0-3,1.3-3,3.3c0,2.1,1.1,3.3,3,3.3c1.4,0,2.4-0.5,3.1-1.3v2.2c-0.5,0.5-1.8,1.2-3.4,1.2C219.4,71.5,217.1,69.8,217.1,66.1z
				"/>
			<path id="XMLID_360_" class="st1" d="M227.6,66.1c0-3.7,2.7-5.4,5.3-5.4c2.5,0,5,1,5,4.8v1.3h-7.6c0.1,1.4,1.1,2.6,3.3,2.6
				c2,0,3.2-0.8,3.8-1.5v2.2c-0.6,0.6-1.8,1.3-4,1.3C229.9,71.5,227.6,69.8,227.6,66.1z M235.3,65.3L235.3,65.3
				c0-1.6-0.8-2.5-2.4-2.5c-1.5,0-2.4,1.3-2.5,2.5H235.3z"/>
			<path id="XMLID_358_" class="st1" d="M240.1,61.1h2.5l0.2,0.9c0.4-0.6,1.5-1.2,2.9-1.2c3,0,4.1,1.4,4.1,4.1v6.3h-2.7v-5.9
				c0-2-0.5-2.7-2.1-2.7c-1.3,0-2,0.6-2.3,1v7.6h-2.7V61.1z"/>
			<path id="XMLID_356_" class="st1" d="M253,68.5V63h-1.4v-0.6l1.1-1.3l2.1-2.4h0.9v2.4h2.8V63h-2.8v5.4c0,0.8,0.3,1.2,1,1.2
				c0.8,0,1.4-0.4,1.8-1v2.1c-0.3,0.4-1.1,0.8-2.4,0.8C253.9,71.5,253,70.5,253,68.5z"/>
			<path id="XMLID_353_" class="st1" d="M259.9,66.1c0-3.7,2.7-5.4,5.3-5.4c2.5,0,5,1,5,4.8v1.3h-7.6c0.1,1.4,1.1,2.6,3.3,2.6
				c2,0,3.2-0.8,3.8-1.5v2.2c-0.6,0.6-1.8,1.3-4,1.3C262.2,71.5,259.9,69.8,259.9,66.1z M267.6,65.3L267.6,65.3
				c0-1.6-0.8-2.5-2.4-2.5c-1.5,0-2.4,1.3-2.5,2.5H267.6z"/>
			<path id="XMLID_351_" class="st1" d="M272.4,61.1h2.3l0.2,1.4c0.1-1.1,1.1-1.7,2.2-1.7c0.6,0,1,0.2,1.2,0.3v2.2
				c-0.3-0.2-0.7-0.3-1.3-0.3c-0.9,0-1.5,0.4-1.9,1v7.3h-2.7V61.1z"/>
			<path id="XMLID_349_" class="st1" d="M278.7,74c0.4-0.6,0.9-1.7,1-2.6c-0.6-0.2-0.9-0.8-0.9-1.3c0-0.9,0.7-1.5,1.7-1.5
				c1,0,1.6,0.6,1.6,1.6c0,1.7-1.4,3.4-2.1,4L278.7,74z"/>
			<path id="XMLID_346_" class="st1" d="M292.5,66.6h-0.1v4.7h-2.7V58.7h4c3.3,0,5.5,1,5.5,3.7c0,2.1-1.5,3.5-3.7,4l4.8,4.8h-3.3
				L292.5,66.6z M293.6,64.9c1.7,0,2.7-0.7,2.7-2.2c0-1.4-1-2-2.7-2h-1.2v4.2H293.6z"/>
			<path id="XMLID_343_" class="st1" d="M301,68.6c0-2.1,1.8-2.9,4.9-3.3l1.7-0.2c0-1.8-0.9-2.3-2.6-2.3c-1.7,0-3,0.8-3.6,1.9v-2.4
				c0.4-0.6,1.6-1.4,4-1.4c3.1,0,4.8,1.4,4.8,4.3v6.1h-2.4l-0.2-0.9c-0.3,0.6-1.2,1.2-2.8,1.2C302.8,71.5,301,70.7,301,68.6z
				 M307.6,66.6l-1.5,0.3c-1.9,0.4-2.5,0.8-2.5,1.6s0.6,1.2,1.7,1.2c1.1,0,2-0.4,2.3-0.9V66.6z"/>
			<path id="XMLID_341_" class="st1" d="M313,61.1h2.5l0.2,0.9c0.4-0.6,1.5-1.2,2.9-1.2c3,0,4.1,1.4,4.1,4.1v6.3H320v-5.9
				c0-2-0.5-2.7-2.1-2.7c-1.3,0-2,0.6-2.3,1v7.6H313V61.1z"/>
			<path id="XMLID_338_" class="st1" d="M324.8,66.3c0-3.7,2.1-5.5,5.1-5.5c0.8,0,1.9,0.1,2.5,0.7v-4.1h2.7v13.9h-2.5l-0.2-0.9
				c-0.3,0.5-1.2,1.2-2.9,1.2C326.8,71.5,324.8,70,324.8,66.3z M332.3,63.4c-0.5-0.6-1.3-0.8-2.2-0.8c-1.9,0-2.6,1.6-2.6,3.6
				c0,2,0.7,3.3,2.5,3.3c1.2,0,1.9-0.4,2.3-0.9V63.4z"/>
			<path id="XMLID_335_" class="st1" d="M337.2,66.1c0-3.7,2.6-5.4,5.6-5.4c3.1,0,5.3,1.7,5.3,5.4c0,3.7-2.6,5.4-5.6,5.4
				C339.4,71.5,337.2,69.8,337.2,66.1z M345.4,66.1c0-2-0.9-3.4-2.7-3.4c-1.9,0-2.7,1.4-2.7,3.4c0,2,0.9,3.4,2.7,3.4
				C344.5,69.6,345.4,68.2,345.4,66.1z"/>
			<path id="XMLID_333_" class="st1" d="M350.3,61.1h2.5l0.1,0.9c0.4-0.6,1.4-1.2,2.7-1.2c1.7,0,2.7,0.5,3.3,1.5
				c0.5-0.7,1.5-1.5,3.3-1.5c2.8,0,3.9,1.4,3.9,4.1v6.3h-2.7v-5.9c0-2-0.5-2.7-1.9-2.7c-1,0-1.9,0.5-2.2,1c0.1,0.4,0.1,0.8,0.1,1.3
				v6.3h-2.7v-5.9c0-2-0.5-2.7-1.9-2.7c-1.1,0-1.8,0.5-2.1,1v7.6h-2.7V61.1z"/>
			<path id="XMLID_330_" class="st1" d="M368.8,58.7c0-0.8,0.5-1.2,1.4-1.2s1.5,0.4,1.5,1.2c0,0.8-0.5,1.2-1.5,1.2
				S368.8,59.5,368.8,58.7z M368.9,61.1h2.7v10.2h-2.7V61.1z"/>
			<path id="XMLID_328_" class="st1" d="M373.7,70.6l5.1-7.6h-5.1v-1.9h8.5v0.6l-5,7.6h5v1.9h-8.5V70.6z"/>
			<path id="XMLID_325_" class="st1" d="M383.6,66.1c0-3.7,2.7-5.4,5.3-5.4c2.5,0,5,1,5,4.8v1.3h-7.6c0.1,1.4,1.1,2.6,3.3,2.6
				c2,0,3.2-0.8,3.8-1.5v2.2c-0.6,0.6-1.8,1.3-4,1.3C385.9,71.5,383.6,69.8,383.6,66.1z M391.3,65.3L391.3,65.3
				c0-1.6-0.8-2.5-2.4-2.5c-1.5,0-2.4,1.3-2.5,2.5H391.3z"/>
			<path id="XMLID_322_" class="st1" d="M395.5,66.3c0-3.7,2.1-5.5,5.1-5.5c0.8,0,1.9,0.1,2.5,0.7v-4.1h2.7v13.9h-2.5l-0.2-0.9
				c-0.3,0.5-1.2,1.2-2.9,1.2C397.5,71.5,395.5,70,395.5,66.3z M403,63.4c-0.5-0.6-1.3-0.8-2.2-0.8c-1.9,0-2.6,1.6-2.6,3.6
				c0,2,0.7,3.3,2.5,3.3c1.2,0,1.9-0.4,2.3-0.9V63.4z"/>
			<path id="XMLID_320_" class="st1" d="M407.9,74c0.4-0.6,0.9-1.7,1-2.6c-0.6-0.2-0.9-0.8-0.9-1.3c0-0.9,0.7-1.5,1.7-1.5
				c1,0,1.6,0.6,1.6,1.6c0,1.7-1.4,3.4-2.1,4L407.9,74z"/>
			<path id="XMLID_317_" class="st1" d="M418.8,58.7h4c4.6,0,7.5,1.7,7.5,6.3s-3.4,6.3-7.5,6.3h-4V58.7z M422.8,69.1
				c3.6,0,4.7-1.2,4.7-4.1c0-2.8-1.1-4.3-4.7-4.3h-1.3v8.4H422.8z"/>
			<path id="XMLID_314_" class="st1" d="M431.9,66.1c0-3.7,2.6-5.4,5.6-5.4c3.1,0,5.3,1.7,5.3,5.4c0,3.7-2.6,5.4-5.6,5.4
				C434.1,71.5,431.9,69.8,431.9,66.1z M440.1,66.1c0-2-0.9-3.4-2.7-3.4c-1.9,0-2.7,1.4-2.7,3.4c0,2,0.9,3.4,2.7,3.4
				C439.3,69.6,440.1,68.2,440.1,66.1z"/>
			<path id="XMLID_312_" class="st1" d="M444.9,67.4v-6.3h2.7v5.9c0,2,0.4,2.7,2,2.7c1.3,0,1.9-0.6,2.2-1v-7.6h2.7v10.2h-2.5
				l-0.2-0.9c-0.4,0.6-1.4,1.2-2.9,1.2C446,71.5,444.9,70.1,444.9,67.4z"/>
			<path id="XMLID_309_" class="st1" d="M459.7,70.5l-0.4,0.7h-2V57.4h2.7V62c0.3-0.5,1.3-1.2,2.9-1.2c2.8,0,4.6,1.4,4.6,5.1
				c0,3.7-2.3,5.7-5.1,5.7C460.9,71.5,460.1,71,459.7,70.5z M459.9,68.9c0.5,0.6,1.3,0.8,2.2,0.8c1.9,0,2.6-1.6,2.6-3.6
				c0-2-0.7-3.3-2.5-3.3c-1.1,0-1.9,0.4-2.3,0.9V68.9z"/>
			<path id="XMLID_307_" class="st1" d="M469.6,68.9V57.4h2.7v11.3c0,0.7,0.2,0.9,0.8,0.9c0.5,0,0.9-0.2,1.1-0.5v1.9
				c-0.2,0.2-0.8,0.6-1.8,0.6C470.4,71.5,469.6,70.6,469.6,68.9z"/>
			<path id="XMLID_304_" class="st1" d="M475.3,66.1c0-3.7,2.7-5.4,5.3-5.4c2.5,0,5,1,5,4.8v1.3H478c0.1,1.4,1.1,2.6,3.3,2.6
				c2,0,3.2-0.8,3.8-1.5v2.2c-0.6,0.6-1.8,1.3-4,1.3C477.6,71.5,475.3,69.8,475.3,66.1z M483,65.3L483,65.3c0-1.6-0.8-2.5-2.4-2.5
				c-1.5,0-2.4,1.3-2.5,2.5H483z"/>
			<path id="XMLID_302_" class="st1" d="M487.6,64.6h5.4v2h-5.4V64.6z"/>
			<path id="XMLID_298_" class="st1" d="M495.8,58.7h4.2c3.8,0,5.4,1.1,5.4,3.1c0,1.7-1.1,2.6-2.6,2.9v0c1.7,0.3,2.8,1,2.8,2.9
				c0,2-1.6,3.5-5.5,3.5h-4.3V58.7z M500,63.9c2.1,0,2.6-0.6,2.6-1.7s-0.8-1.5-2.6-1.5h-1.5v3.2H500z M500.1,69.2
				c2.1,0,2.7-0.6,2.7-1.7c0-1.1-0.7-1.7-2.7-1.7h-1.7v3.4H500.1z"/>
			<path id="XMLID_296_" class="st1" d="M507.8,68.9V57.4h2.7v11.3c0,0.7,0.2,0.9,0.8,0.9c0.5,0,0.9-0.2,1.1-0.5v1.9
				c-0.2,0.2-0.8,0.6-1.8,0.6C508.7,71.5,507.8,70.6,507.8,68.9z"/>
			<path id="XMLID_293_" class="st1" d="M514,58.7c0-0.8,0.5-1.2,1.4-1.2c1,0,1.5,0.4,1.5,1.2c0,0.8-0.5,1.2-1.5,1.2
				C514.5,59.9,514,59.5,514,58.7z M514.2,61.1h2.7v10.2h-2.7V61.1z"/>
			<path id="XMLID_291_" class="st1" d="M519.6,61.1h2.5l0.2,0.9c0.4-0.6,1.5-1.2,2.9-1.2c3,0,4.1,1.4,4.1,4.1v6.3h-2.7v-5.9
				c0-2-0.5-2.7-2.1-2.7c-1.3,0-2,0.6-2.3,1v7.6h-2.7V61.1z"/>
			<path id="XMLID_288_" class="st1" d="M531.5,66.3c0-3.7,2.1-5.5,5.1-5.5c0.8,0,1.9,0.1,2.5,0.7v-4.1h2.7v13.9h-2.5l-0.2-0.9
				c-0.3,0.5-1.2,1.2-2.9,1.2C533.5,71.5,531.5,70,531.5,66.3z M539,63.4c-0.5-0.6-1.3-0.8-2.2-0.8c-1.9,0-2.6,1.6-2.6,3.6
				c0,2,0.7,3.3,2.5,3.3c1.2,0,1.9-0.4,2.3-0.9V63.4z"/>
			<path id="XMLID_286_" class="st1" d="M543.9,74c0.4-0.6,0.9-1.7,1-2.6c-0.6-0.2-0.9-0.8-0.9-1.3c0-0.9,0.7-1.5,1.7-1.5
				c1,0,1.6,0.6,1.6,1.6c0,1.7-1.4,3.4-2.1,4L543.9,74z"/>
			<path id="XMLID_284_" class="st1" d="M554.8,58.7h8.8v2.1h-6v3.1h4v1.9h-4v5.4h-2.7V58.7z"/>
			<path id="XMLID_281_" class="st1" d="M565.3,58.7c0-0.8,0.5-1.2,1.4-1.2c1,0,1.5,0.4,1.5,1.2c0,0.8-0.5,1.2-1.5,1.2
				C565.8,59.9,565.3,59.5,565.3,58.7z M565.4,61.1h2.7v10.2h-2.7V61.1z"/>
			<path id="XMLID_279_" class="st1" d="M573.7,65.9l-3.6-4.8h2.9l2.4,3.1l2.1-3.1h2.7l-3.7,4.7l4.1,5.4h-2.9l-2.7-3.6l-2.6,3.6
				h-2.7L573.7,65.9z"/>
			<path id="XMLID_276_" class="st1" d="M581.1,66.1c0-3.7,2.7-5.4,5.3-5.4c2.5,0,5,1,5,4.8v1.3h-7.6c0.1,1.4,1.1,2.6,3.3,2.6
				c2,0,3.2-0.8,3.8-1.5v2.2c-0.6,0.6-1.8,1.3-4,1.3C583.4,71.5,581.1,69.8,581.1,66.1z M588.8,65.3L588.8,65.3
				c0-1.6-0.8-2.5-2.4-2.5c-1.5,0-2.4,1.3-2.5,2.5H588.8z"/>
			<path id="XMLID_273_" class="st1" d="M593,66.3c0-3.7,2.1-5.5,5.1-5.5c0.8,0,1.9,0.1,2.5,0.7v-4.1h2.7v13.9h-2.5l-0.2-0.9
				c-0.3,0.5-1.2,1.2-2.9,1.2C595,71.5,593,70,593,66.3z M600.5,63.4c-0.5-0.6-1.3-0.8-2.2-0.8c-1.9,0-2.6,1.6-2.6,3.6
				c0,2,0.7,3.3,2.5,3.3c1.2,0,1.9-0.4,2.3-0.9V63.4z"/>
			<path id="XMLID_271_" class="st1" d="M605.8,64.6h5.4v2h-5.4V64.6z"/>
			<path id="XMLID_268_" class="st1" d="M614,58.7h4c4.6,0,7.5,1.7,7.5,6.3s-3.4,6.3-7.5,6.3h-4V58.7z M618,69.1
				c3.6,0,4.7-1.2,4.7-4.1c0-2.8-1.1-4.3-4.7-4.3h-1.3v8.4H618z"/>
			<path id="XMLID_265_" class="st1" d="M627.1,66.1c0-3.7,2.6-5.4,5.6-5.4c3.1,0,5.3,1.7,5.3,5.4c0,3.7-2.6,5.4-5.6,5.4
				C629.3,71.5,627.1,69.8,627.1,66.1z M635.3,66.1c0-2-0.9-3.4-2.7-3.4c-1.9,0-2.7,1.4-2.7,3.4c0,2,0.9,3.4,2.7,3.4
				C634.4,69.6,635.3,68.2,635.3,66.1z"/>
			<path id="XMLID_263_" class="st1" d="M639.8,70.6v-2.3c0.7,0.7,1.7,1.3,3.2,1.3s2.1-0.6,2.1-1.2c0-0.7-0.3-0.9-1.7-1.2l-0.6-0.1
				c-2.1-0.3-3.3-1.3-3.3-3.1c0-1.7,1.4-3.2,4.4-3.2c1.5,0,2.7,0.4,3.3,0.9V64c-0.7-0.8-1.7-1.3-3.2-1.3c-1.5,0-2,0.5-2,1.1
				c0,0.6,0.3,1,1.7,1.2l0.6,0.1c2.2,0.4,3.4,1.1,3.4,3c0,1.7-1.5,3.4-4.7,3.4C641.5,71.5,640.4,71.1,639.8,70.6z"/>
			<path id="XMLID_260_" class="st1" d="M649.3,66.1c0-3.7,2.7-5.4,5.3-5.4c2.5,0,5,1,5,4.8v1.3H652c0.1,1.4,1.1,2.6,3.3,2.6
				c2,0,3.2-0.8,3.8-1.5v2.2c-0.6,0.6-1.8,1.3-4,1.3C651.6,71.5,649.3,69.8,649.3,66.1z M657,65.3L657,65.3c0-1.6-0.8-2.5-2.4-2.5
				c-1.5,0-2.4,1.3-2.5,2.5H657z"/>
			<path id="XMLID_258_" class="st1" d="M661.2,74c0.4-0.6,0.9-1.7,1-2.6c-0.6-0.2-0.9-0.8-0.9-1.3c0-0.9,0.7-1.5,1.7-1.5
				c1,0,1.6,0.6,1.6,1.6c0,1.7-1.4,3.4-2.1,4L661.2,74z"/>
			<path id="XMLID_255_" class="st1" d="M671.2,66.3c0-4,2.7-6.7,5-7.8h5.1v0.2c-1.8,0.7-3.7,1.9-4.8,3.8c0.4-0.2,0.9-0.3,1.6-0.3
				c2.5,0,4.5,1.4,4.5,4.4c0,3-2.3,4.9-5.7,4.9C673.4,71.5,671.2,69.7,671.2,66.3z M678.4,66.8c0-1.1-0.5-1.7-1.5-1.7
				c-0.7,0-1.2,0.2-1.4,0.5c0,0.3,0,0.7,0,1c0,1.2,0.5,1.8,1.5,1.8C677.8,68.5,678.4,67.9,678.4,66.8z"/>
			<path id="XMLID_253_" class="st1" d="M684,64.1h5.8v2.9H684V64.1z"/>
			<path id="XMLID_251_" class="st1" d="M690.3,58.5h4.4l1.9,7.2h0.1l1.7-5.5l-0.6-1.7h3.9l2.3,7.2h0.1l1.9-7.2h4.1l-4.3,12.7h-3.3
				l-2.3-6.6l-2.4,6.6h-3.3L690.3,58.5z"/>
			<path id="XMLID_248_" class="st1" d="M709.9,66.1c0-3.8,2.8-5.4,5.8-5.4c2.9,0,5.5,1.1,5.5,5V67h-7.2c0.1,0.9,0.8,1.6,2.9,1.6
				c1.8,0,3-0.5,3.7-0.9v2.8c-0.6,0.5-2.1,1-4.4,1C712.1,71.5,709.9,69.8,709.9,66.1z M717.5,65L717.5,65c0-1-0.5-1.6-1.7-1.6
				c-1.2,0-1.7,0.7-1.8,1.6H717.5z"/>
			<path id="XMLID_245_" class="st1" d="M722.3,66.1c0-3.8,2.8-5.4,5.8-5.4c2.9,0,5.5,1.1,5.5,5V67h-7.2c0.1,0.9,0.8,1.6,2.9,1.6
				c1.8,0,3-0.5,3.7-0.9v2.8c-0.6,0.5-2.1,1-4.4,1C724.5,71.5,722.3,69.8,722.3,66.1z M729.9,65L729.9,65c0-1-0.5-1.6-1.7-1.6
				c-1.2,0-1.7,0.7-1.8,1.6H729.9z"/>
			<path id="XMLID_243_" class="st1" d="M740.1,67.4c-0.6,0.4-0.9,0.6-0.9,0.6v3.2h-4v-14h4v7.1c0,0,2-1.5,3.3-3.4h4
				c-0.7,1.4-2,2.8-3.3,4l4,6.3h-4.7L740.1,67.4z"/>
			<path id="XMLID_241_" class="st1" d="M747.8,70.8v-3.1c0.8,0.6,2,1.1,3.5,1.1c1.4,0,1.8-0.3,1.8-0.7c0-0.4-0.2-0.6-1.4-0.7
				l-0.6-0.1c-2.6-0.3-3.6-1.4-3.6-3.2c0-1.8,1.3-3.5,5-3.5c1.9,0,3.2,0.4,3.8,0.8v3c-0.8-0.6-2.2-1-3.7-1c-1.2,0-1.5,0.3-1.5,0.7
				c0,0.4,0.2,0.6,1.2,0.7l0.7,0.1c2.8,0.3,3.8,1.2,3.8,3.1c0,1.8-1.3,3.6-5.2,3.6C749.6,71.5,748.4,71.2,747.8,70.8z"/>
			<path id="XMLID_239_" class="st1" d="M766.7,60.8h-4v-2.1h10.8v2.1h-4v10.4h-2.7V60.8z"/>
			<path id="XMLID_237_" class="st1" d="M774.8,61.1h2.3l0.2,1.4c0.1-1.1,1.1-1.7,2.2-1.7c0.6,0,1,0.2,1.2,0.3v2.2
				c-0.3-0.2-0.7-0.3-1.3-0.3c-1,0-1.5,0.4-1.9,1v7.3h-2.7V61.1z"/>
			<path id="XMLID_234_" class="st1" d="M782.3,58.7c0-0.8,0.5-1.2,1.4-1.2c1,0,1.5,0.4,1.5,1.2c0,0.8-0.5,1.2-1.5,1.2
				C782.7,59.9,782.3,59.5,782.3,58.7z M782.4,61.1h2.7v10.2h-2.7V61.1z"/>
			<path id="XMLID_231_" class="st1" d="M787.2,68.6c0-2.1,1.8-2.9,4.9-3.3l1.7-0.2c0-1.8-0.9-2.3-2.6-2.3c-1.7,0-3,0.8-3.6,1.9
				v-2.4c0.4-0.6,1.6-1.4,4-1.4c3.1,0,4.8,1.4,4.8,4.3v6.1h-2.4l-0.2-0.9c-0.3,0.6-1.2,1.2-2.8,1.2C789,71.5,787.2,70.7,787.2,68.6z
				 M793.9,66.6l-1.5,0.3c-1.9,0.4-2.5,0.8-2.5,1.6s0.6,1.2,1.7,1.2c1.1,0,2-0.4,2.3-0.9V66.6z"/>
			<path id="XMLID_229_" class="st1" d="M799.1,68.9V57.4h2.7v11.3c0,0.7,0.2,0.9,0.8,0.9c0.5,0,0.9-0.2,1.1-0.5v1.9
				c-0.2,0.2-0.8,0.6-1.8,0.6C800,71.5,799.1,70.6,799.1,68.9z"/>
			<path id="XMLID_227_" class="st1" d="M805,70c0-0.9,0.7-1.5,1.7-1.5c1,0,1.7,0.6,1.7,1.5c0,0.9-0.7,1.5-1.7,1.5
				C805.7,71.5,805,70.9,805,70z"/>
			<path id="XMLID_224_" class="st1" d="M4.6,88.2c0-3.7,2.6-5.4,5.6-5.4c3.1,0,5.3,1.7,5.3,5.4c0,3.7-2.6,5.4-5.6,5.4
				C6.8,93.6,4.6,91.9,4.6,88.2z M12.8,88.2c0-2-0.9-3.4-2.7-3.4c-1.9,0-2.7,1.4-2.7,3.4c0,2,0.9,3.4,2.7,3.4
				C11.9,91.7,12.8,90.3,12.8,88.2z"/>
			<path id="XMLID_222_" class="st1" d="M17.7,83.2h2.5l0.2,0.9c0.4-0.6,1.5-1.2,2.9-1.2c3,0,4.1,1.4,4.1,4.1v6.3h-2.7v-5.9
				c0-2-0.5-2.7-2.1-2.7c-1.3,0-2,0.6-2.3,1v7.6h-2.7V83.2z"/>
			<path id="XMLID_220_" class="st1" d="M34.6,92.9v-3.2c0.6,0.5,1.6,0.9,3,0.9c1.9,0,2.5-0.5,2.5-1.4c0-0.8-0.5-1.2-2.1-1.2h-1.2
				V87l2.4-3.4h-4.8v-3H44v0.9l-2.8,3.9c1.5,0.3,3.2,1.1,3.2,3.5c0,2.5-2,4.6-6.4,4.6C36.3,93.6,35.1,93.3,34.6,92.9z"/>
			<path id="XMLID_216_" class="st1" d="M45.7,89.8c0-1.5,0.9-2.4,2-2.9c-0.9-0.5-1.8-1.4-1.8-2.9c0-2.4,2.1-3.8,5.5-3.8
				c3.4,0,5.3,1.4,5.3,3.8c0,1.4-0.9,2.3-1.8,2.8c1.2,0.4,2.1,1.5,2.1,2.9c0,2.2-1.8,3.8-5.8,3.8C47.2,93.6,45.7,92,45.7,89.8z
				 M52.9,89.5c0-0.7-0.5-1.2-1.6-1.2c-1,0-1.5,0.5-1.5,1.2c0,0.7,0.5,1.2,1.5,1.2C52.4,90.7,52.9,90.2,52.9,89.5z M52.8,84.4
				c0-0.7-0.5-1.2-1.4-1.2c-0.9,0-1.4,0.4-1.4,1.2s0.5,1.2,1.4,1.2C52.3,85.6,52.8,85.1,52.8,84.4z"/>
			<path id="XMLID_213_" class="st1" d="M58.3,88.4c0-4,2.7-6.7,5-7.8h5.1v0.2c-1.8,0.7-3.7,1.9-4.8,3.8c0.4-0.2,0.9-0.3,1.6-0.3
				c2.5,0,4.5,1.4,4.5,4.4c0,3-2.3,4.9-5.7,4.9S58.3,91.8,58.3,88.4z M65.5,88.9c0-1.1-0.5-1.7-1.5-1.7c-0.7,0-1.2,0.2-1.4,0.5
				c0,0.3,0,0.7,0,1c0,1.2,0.5,1.8,1.5,1.8C65,90.6,65.5,90,65.5,88.9z"/>
			<path id="XMLID_211_" class="st1" d="M75.9,92.9v-3.1c0.8,0.6,2,1.1,3.5,1.1c1.4,0,1.8-0.3,1.8-0.7c0-0.4-0.2-0.6-1.4-0.7
				l-0.6-0.1c-2.6-0.3-3.6-1.4-3.6-3.2c0-1.8,1.3-3.5,5-3.5c1.9,0,3.2,0.4,3.8,0.8v3c-0.8-0.6-2.2-1-3.7-1c-1.2,0-1.5,0.3-1.5,0.7
				c0,0.4,0.2,0.6,1.2,0.7l0.7,0.1c2.8,0.3,3.8,1.2,3.8,3.1c0,1.8-1.3,3.6-5.2,3.6C77.7,93.6,76.5,93.3,75.9,92.9z"/>
			<path id="XMLID_209_" class="st1" d="M86.4,89.4V83h4v5.8c0,1.4,0.3,1.9,1.4,1.9c0.8,0,1.2-0.3,1.5-0.6V83h4v10.3h-3.5l-0.3-0.9
				c-0.5,0.7-1.6,1.2-3.1,1.2C87.5,93.6,86.4,92.2,86.4,89.4z"/>
			<path id="XMLID_206_" class="st1" d="M102.8,92.6l-0.4,0.8h-3.1v-14h4v4.5c0.4-0.5,1.3-1.1,2.9-1.1c2.8,0,4.6,1.4,4.6,5.2
				s-2.1,5.7-5.1,5.7C104,93.6,103.2,93,102.8,92.6z M103.3,90.3c0.4,0.4,0.9,0.6,1.5,0.6c1.4,0,1.9-1.3,1.9-2.8s-0.4-2.4-1.8-2.4
				c-0.8,0-1.3,0.3-1.6,0.7V90.3z"/>
			<path id="XMLID_203_" class="st1" d="M110.1,96.6V94c0.4,0.3,0.8,0.5,1.3,0.5c0.7,0,1.1-0.3,1.1-1V83h4v10.4
				c0,2.4-1.6,3.8-4.3,3.8C111.2,97.1,110.4,96.9,110.1,96.6z M112.5,80.5c0-1,0.8-1.6,2-1.6c1.2,0,2,0.6,2,1.6c0,1-0.8,1.6-2,1.6
				C113.2,82.1,112.5,81.5,112.5,80.5z"/>
			<path id="XMLID_200_" class="st1" d="M118,88.2c0-3.8,2.8-5.4,5.8-5.4c2.9,0,5.5,1.1,5.5,5v1.3h-7.2c0.1,0.9,0.8,1.6,2.9,1.6
				c1.8,0,3-0.5,3.7-0.9v2.8c-0.6,0.5-2.1,1-4.4,1C120.2,93.6,118,91.9,118,88.2z M125.6,87L125.6,87c0-1-0.5-1.6-1.7-1.6
				c-1.2,0-1.7,0.7-1.8,1.6H125.6z"/>
			<path id="XMLID_198_" class="st1" d="M130.3,88.2c0-3.8,2.6-5.4,5.9-5.4c1.8,0,3,0.4,3.6,0.9v3.1c-0.8-0.6-1.6-0.9-2.8-0.9
				c-1.7,0-2.5,0.8-2.5,2.4c0,1.6,0.8,2.4,2.5,2.4c1.2,0,2-0.3,2.8-0.9v3c-0.5,0.5-1.8,1-3.6,1C132.7,93.6,130.3,92,130.3,88.2z"/>
			<path id="XMLID_196_" class="st1" d="M142.1,90.2v-4.4h-1.3v-1.5l1.1-1.3l2-2.4h2.2V83h2.6v2.8h-2.6v4c0,0.7,0.3,1,0.9,1
				c0.8,0,1.3-0.3,1.6-0.8v2.8c-0.4,0.4-1.3,0.8-2.8,0.8C143.1,93.6,142.1,92.2,142.1,90.2z"/>
			<path id="XMLID_194_" class="st1" d="M150,92.9v-3.1c0.8,0.6,2,1.1,3.5,1.1c1.4,0,1.8-0.3,1.8-0.7c0-0.4-0.2-0.6-1.4-0.7
				l-0.6-0.1c-2.6-0.3-3.6-1.4-3.6-3.2c0-1.8,1.3-3.5,5-3.5c1.9,0,3.2,0.4,3.8,0.8v3c-0.8-0.6-2.2-1-3.7-1c-1.2,0-1.5,0.3-1.5,0.7
				c0,0.4,0.2,0.6,1.2,0.7l0.7,0.1c2.8,0.3,3.8,1.2,3.8,3.1c0,1.8-1.3,3.6-5.2,3.6C151.8,93.6,150.6,93.3,150,92.9z"/>
			<path id="XMLID_192_" class="st1" d="M170.8,83.2h2.3l0.2,1.4c0.1-1.1,1.1-1.7,2.2-1.7c0.6,0,1,0.2,1.2,0.3v2.2
				c-0.3-0.2-0.7-0.3-1.3-0.3c-0.9,0-1.5,0.4-1.9,1v7.3h-2.7V83.2z"/>
			<path id="XMLID_189_" class="st1" d="M177.8,90.7c0-2.1,1.8-2.9,4.9-3.3l1.7-0.2c0-1.8-0.9-2.3-2.6-2.3c-1.7,0-3,0.8-3.6,1.9
				v-2.4c0.4-0.6,1.6-1.4,4-1.4c3.1,0,4.8,1.4,4.8,4.3v6.1h-2.4l-0.2-0.9c-0.3,0.6-1.2,1.2-2.8,1.2
				C179.6,93.6,177.8,92.7,177.8,90.7z M184.4,88.7l-1.5,0.3c-1.9,0.4-2.5,0.8-2.5,1.6s0.6,1.2,1.7,1.2c1.1,0,2-0.4,2.3-0.9V88.7z"
				/>
			<path id="XMLID_187_" class="st1" d="M189.8,83.2h2.5l0.2,0.9c0.4-0.6,1.5-1.2,2.9-1.2c3,0,4.1,1.4,4.1,4.1v6.3h-2.7v-5.9
				c0-2-0.5-2.7-2.1-2.7c-1.3,0-2,0.6-2.3,1v7.6h-2.7V83.2z"/>
			<path id="XMLID_184_" class="st1" d="M201.6,88.4c0-3.7,2.1-5.5,5.1-5.5c0.8,0,1.9,0.1,2.5,0.7v-4.1h2.7v13.9h-2.5l-0.2-0.9
				c-0.3,0.5-1.2,1.2-2.9,1.2C203.7,93.6,201.6,92.1,201.6,88.4z M209.1,85.5c-0.5-0.6-1.3-0.8-2.2-0.8c-1.9,0-2.6,1.6-2.6,3.6
				c0,2,0.7,3.3,2.5,3.3c1.2,0,1.9-0.4,2.3-0.9V85.5z"/>
			<path id="XMLID_181_" class="st1" d="M214,88.2c0-3.7,2.6-5.4,5.6-5.4c3.1,0,5.3,1.7,5.3,5.4c0,3.7-2.6,5.4-5.6,5.4
				C216.2,93.6,214,91.9,214,88.2z M222.2,88.2c0-2-0.9-3.4-2.7-3.4c-1.9,0-2.7,1.4-2.7,3.4c0,2,0.9,3.4,2.7,3.4
				C221.3,91.7,222.2,90.3,222.2,88.2z"/>
			<path id="XMLID_179_" class="st1" d="M227.1,83.2h2.5l0.1,0.9c0.4-0.6,1.4-1.2,2.7-1.2c1.7,0,2.7,0.5,3.3,1.5
				c0.5-0.7,1.5-1.5,3.3-1.5c2.8,0,3.9,1.4,3.9,4.1v6.3h-2.7v-5.9c0-2-0.5-2.7-1.9-2.7c-1,0-1.9,0.5-2.2,1c0.1,0.4,0.1,0.8,0.1,1.3
				v6.3h-2.7v-5.9c0-2-0.5-2.7-1.9-2.7c-1.1,0-1.8,0.5-2.1,1v7.6h-2.7V83.2z"/>
			<path id="XMLID_177_" class="st1" d="M245.7,91V79.5h2.7v11.3c0,0.7,0.2,0.9,0.8,0.9c0.5,0,0.9-0.2,1.1-0.5V93
				c-0.2,0.2-0.8,0.6-1.8,0.6C246.5,93.6,245.7,92.7,245.7,91z"/>
			<path id="XMLID_175_" class="st1" d="M250.8,96.6v-2c0.5,0.5,1.1,0.8,1.9,0.8c0.8,0,1.6-0.3,2.2-1.7l-4.5-10.4h2.9l2.8,7.3
				l2.2-7.3h2.6l-3.2,9.5c-0.8,2.5-2.1,4.5-5,4.5C251.9,97.2,251.2,96.9,250.8,96.6z"/>
			<path id="XMLID_172_" class="st1" d="M266.9,90.7c0-2.1,1.8-2.9,4.9-3.3l1.7-0.2c0-1.8-0.9-2.3-2.6-2.3c-1.7,0-3,0.8-3.6,1.9
				v-2.4c0.4-0.6,1.6-1.4,4-1.4c3.1,0,4.8,1.4,4.8,4.3v6.1h-2.4l-0.2-0.9c-0.3,0.6-1.2,1.2-2.8,1.2
				C268.7,93.6,266.9,92.7,266.9,90.7z M273.5,88.7L272,89c-1.9,0.4-2.5,0.8-2.5,1.6s0.6,1.2,1.7,1.2c1.1,0,2-0.4,2.3-0.9V88.7z"/>
			<path id="XMLID_170_" class="st1" d="M278.5,92.7v-2.3c0.7,0.7,1.7,1.3,3.2,1.3s2.1-0.6,2.1-1.2c0-0.7-0.3-0.9-1.7-1.2l-0.6-0.1
				c-2.1-0.3-3.3-1.3-3.3-3.1c0-1.7,1.4-3.2,4.4-3.2c1.5,0,2.7,0.4,3.3,0.9v2.3c-0.7-0.8-1.7-1.3-3.2-1.3c-1.5,0-2,0.5-2,1.1
				c0,0.6,0.3,1,1.7,1.2l0.6,0.1c2.2,0.4,3.4,1.1,3.4,3c0,1.7-1.5,3.4-4.7,3.4C280.3,93.6,279.1,93.2,278.5,92.7z"/>
			<path id="XMLID_168_" class="st1" d="M288.2,92.7v-2.3c0.7,0.7,1.7,1.3,3.2,1.3s2.1-0.6,2.1-1.2c0-0.7-0.3-0.9-1.7-1.2l-0.6-0.1
				c-2.1-0.3-3.3-1.3-3.3-3.1c0-1.7,1.4-3.2,4.4-3.2c1.5,0,2.7,0.4,3.3,0.9v2.3c-0.7-0.8-1.7-1.3-3.2-1.3c-1.5,0-2,0.5-2,1.1
				c0,0.6,0.3,1,1.7,1.2l0.6,0.1c2.2,0.4,3.4,1.1,3.4,3c0,1.7-1.5,3.4-4.7,3.4C290,93.6,288.8,93.2,288.2,92.7z"/>
			<path id="XMLID_165_" class="st1" d="M298.2,80.8c0-0.8,0.5-1.2,1.4-1.2s1.5,0.4,1.5,1.2c0,0.8-0.5,1.2-1.5,1.2
				S298.2,81.6,298.2,80.8z M298.4,83.2h2.7v10.2h-2.7V83.2z"/>
			<path id="XMLID_162_" class="st1" d="M303.2,96.2v-2c1,0.7,2.5,1.1,4.7,1.1c2.6,0,3.8-0.4,3.8-1.3c0-0.8-0.8-1-2.6-1
				c-1.6,0-4,0.3-4.8,0.6v-1.7l1.6-2.3c-1.6-0.5-2.6-1.6-2.6-3.2c0-2.2,2-3.5,4.8-3.5c1.3,0,2.3,0.3,3.1,0.8
				c0.4-0.5,1.3-0.8,2.2-0.8c0.3,0,0.6,0,0.9,0.1v1.9c-0.2-0.1-0.5-0.1-0.7-0.1c-0.5,0-0.9,0.1-1.1,0.3c0.2,0.4,0.3,0.9,0.3,1.4
				c0,2.2-2,3.5-4.8,3.5h-0.3l-1,1.5c0.5-0.1,1.8-0.3,3-0.3c2.8,0,4.6,0.6,4.6,2.6s-2.1,3.4-6.2,3.4
				C305.8,97.2,304.1,96.8,303.2,96.2z M310.2,86.4c0-1.1-0.8-1.7-2.1-1.7c-1.3,0-2.1,0.6-2.1,1.7c0,1.1,0.8,1.7,2.1,1.7
				C309.3,88.1,310.2,87.5,310.2,86.4z"/>
			<path id="XMLID_160_" class="st1" d="M315.8,83.2h2.5l0.2,0.9c0.4-0.6,1.5-1.2,2.9-1.2c3,0,4.1,1.4,4.1,4.1v6.3h-2.7v-5.9
				c0-2-0.5-2.7-2.1-2.7c-1.3,0-2,0.6-2.3,1v7.6h-2.7V83.2z"/>
			<path id="XMLID_157_" class="st1" d="M327.5,88.2c0-3.7,2.7-5.4,5.3-5.4c2.5,0,5,1,5,4.8V89h-7.6c0.1,1.4,1.1,2.6,3.3,2.6
				c2,0,3.2-0.8,3.8-1.5v2.2c-0.6,0.6-1.8,1.3-4,1.3C329.9,93.6,327.5,91.9,327.5,88.2z M335.3,87.4L335.3,87.4
				c0-1.6-0.8-2.5-2.4-2.5c-1.5,0-2.4,1.3-2.5,2.5H335.3z"/>
			<path id="XMLID_154_" class="st1" d="M339.4,88.4c0-3.7,2.1-5.5,5.1-5.5c0.8,0,1.9,0.1,2.5,0.7v-4.1h2.7v13.9h-2.5l-0.2-0.9
				c-0.3,0.5-1.2,1.2-2.9,1.2C341.5,93.6,339.4,92.1,339.4,88.4z M347,85.5c-0.5-0.6-1.3-0.8-2.2-0.8c-1.9,0-2.6,1.6-2.6,3.6
				c0,2,0.7,3.3,2.5,3.3c1.2,0,1.9-0.4,2.3-0.9V85.5z"/>
			<path id="XMLID_152_" class="st1" d="M357.9,90.6v-5.6h-1.4v-0.6l1.1-1.3l2.1-2.4h0.9v2.4h2.8v1.9h-2.8v5.4c0,0.8,0.3,1.2,1,1.2
				c0.8,0,1.4-0.4,1.8-1v2.1c-0.3,0.4-1.1,0.8-2.4,0.8C358.8,93.6,357.9,92.5,357.9,90.6z"/>
			<path id="XMLID_149_" class="st1" d="M364.8,88.2c0-3.7,2.6-5.4,5.6-5.4c3.1,0,5.3,1.7,5.3,5.4c0,3.7-2.6,5.4-5.6,5.4
				C367,93.6,364.8,91.9,364.8,88.2z M373,88.2c0-2-0.9-3.4-2.7-3.4c-1.9,0-2.7,1.4-2.7,3.4c0,2,0.9,3.4,2.7,3.4
				C372.2,91.7,373,90.3,373,88.2z"/>
			<path id="XMLID_146_" class="st1" d="M382.9,83.2h2.5l0.2,0.9c0.3-0.5,1.2-1.2,2.9-1.2c2.8,0,4.6,1.4,4.6,5.1
				c0,3.7-2.3,5.6-5.1,5.6c-0.8,0-1.9-0.1-2.5-0.7v3.9h-2.7V83.2z M390.4,88.1c0-2-0.7-3.3-2.5-3.3c-1.2,0-1.9,0.4-2.3,0.9V91
				c0.5,0.6,1.3,0.8,2.2,0.8C389.6,91.7,390.4,90.1,390.4,88.1z"/>
			<path id="XMLID_144_" class="st1" d="M395.2,91V79.5h2.7v11.3c0,0.7,0.2,0.9,0.8,0.9c0.5,0,0.9-0.2,1.1-0.5V93
				c-0.2,0.2-0.8,0.6-1.8,0.6C396.1,93.6,395.2,92.7,395.2,91z"/>
			<path id="XMLID_141_" class="st1" d="M400.9,90.7c0-2.1,1.8-2.9,4.9-3.3l1.7-0.2c0-1.8-0.9-2.3-2.6-2.3c-1.7,0-3,0.8-3.6,1.9
				v-2.4c0.4-0.6,1.6-1.4,4-1.4c3.1,0,4.8,1.4,4.8,4.3v6.1h-2.4l-0.2-0.9c-0.3,0.6-1.2,1.2-2.8,1.2
				C402.7,93.6,400.9,92.7,400.9,90.7z M407.5,88.7L406,89c-1.9,0.4-2.5,0.8-2.5,1.6s0.6,1.2,1.7,1.2c1.1,0,2-0.4,2.3-0.9V88.7z"/>
			<path id="XMLID_139_" class="st1" d="M412.3,88.2c0-3.7,2.6-5.4,5.5-5.4c1.5,0,2.7,0.5,3.2,0.9v2.3c-0.7-0.9-1.6-1.2-3-1.2
				c-1.9,0-3,1.3-3,3.3c0,2.1,1.1,3.3,3,3.3c1.4,0,2.4-0.5,3.1-1.3v2.2c-0.5,0.5-1.8,1.2-3.4,1.2C414.5,93.6,412.3,91.9,412.3,88.2z
				"/>
			<path id="XMLID_136_" class="st1" d="M422.7,88.2c0-3.7,2.7-5.4,5.3-5.4c2.5,0,5,1,5,4.8V89h-7.6c0.1,1.4,1.1,2.6,3.3,2.6
				c2,0,3.2-0.8,3.8-1.5v2.2c-0.6,0.6-1.8,1.3-4,1.3C425,93.6,422.7,91.9,422.7,88.2z M430.4,87.4L430.4,87.4c0-1.6-0.8-2.5-2.4-2.5
				c-1.5,0-2.4,1.3-2.5,2.5H430.4z"/>
			<path id="XMLID_133_" class="st1" d="M437.6,92.6l-0.4,0.7h-2V79.5h2.7v4.6c0.3-0.5,1.3-1.2,2.9-1.2c2.8,0,4.6,1.4,4.6,5.1
				c0,3.7-2.3,5.6-5.1,5.6C438.9,93.6,438.1,93.1,437.6,92.6z M437.9,91c0.5,0.6,1.3,0.8,2.2,0.8c1.9,0,2.6-1.6,2.6-3.6
				s-0.7-3.3-2.5-3.3c-1.1,0-1.9,0.4-2.3,0.9V91z"/>
			<path id="XMLID_130_" class="st1" d="M447,88.2c0-3.7,2.6-5.4,5.6-5.4c3.1,0,5.3,1.7,5.3,5.4c0,3.7-2.6,5.4-5.6,5.4
				C449.2,93.6,447,91.9,447,88.2z M455.2,88.2c0-2-0.9-3.4-2.7-3.4c-1.9,0-2.7,1.4-2.7,3.4c0,2,0.9,3.4,2.7,3.4
				C454.3,91.7,455.2,90.3,455.2,88.2z"/>
			<path id="XMLID_128_" class="st1" d="M459.6,96c0.4-0.6,0.9-1.7,1-2.6c-0.6-0.2-0.9-0.8-0.9-1.3c0-0.9,0.7-1.5,1.7-1.5
				c1,0,1.6,0.6,1.6,1.6c0,1.7-1.4,3.4-2.1,4L459.6,96z"/>
			<path id="XMLID_126_" class="st1" d="M553.9,87.7c0-3,1.7-6.2,4.3-7.4h2.4c-2.6,1.3-4.3,4-4.3,7.4c0,3.6,1.9,6.5,4.3,7.8h-2.4
				C555.6,94.3,553.9,90.9,553.9,87.7z"/>
			<path id="XMLID_122_" class="st1" d="M562.1,80.8h4.2c3.8,0,5.4,1.1,5.4,3.1c0,1.7-1.1,2.6-2.6,2.9v0c1.7,0.3,2.8,1,2.8,2.9
				c0,2-1.6,3.5-5.5,3.5h-4.3V80.8z M566.4,86c2.1,0,2.6-0.6,2.6-1.7s-0.8-1.5-2.6-1.5h-1.5V86H566.4z M566.5,91.3
				c2.1,0,2.7-0.6,2.7-1.7c0-1.1-0.7-1.7-2.7-1.7h-1.7v3.4H566.5z"/>
			<path id="XMLID_120_" class="st1" d="M574.4,80.8h2.7v12.5h-2.7V80.8z"/>
			<path id="XMLID_117_" class="st1" d="M580.2,80.8h4c4.6,0,7.5,1.7,7.5,6.3s-3.4,6.3-7.5,6.3h-4V80.8z M584.2,91.2
				c3.6,0,4.7-1.2,4.7-4.1c0-2.8-1.1-4.3-4.7-4.3H583v8.4H584.2z"/>
			<path id="XMLID_115_" class="st1" d="M595.8,88.1c0-3.6-1.9-6.5-4.3-7.8h2.4c2.6,1.2,4.3,4.5,4.3,7.8c0,3-1.7,6.2-4.3,7.5h-2.4
				C594.1,94.3,595.8,91.5,595.8,88.1z"/>
			<path id="XMLID_112_" class="st1" d="M604.6,88.2c0-3.7,2.6-5.4,5.6-5.4c3.1,0,5.3,1.7,5.3,5.4c0,3.7-2.6,5.4-5.6,5.4
				C606.8,93.6,604.6,91.9,604.6,88.2z M612.8,88.2c0-2-0.9-3.4-2.7-3.4c-1.9,0-2.7,1.4-2.7,3.4c0,2,0.9,3.4,2.7,3.4
				C612,91.7,612.8,90.3,612.8,88.2z"/>
			<path id="XMLID_110_" class="st1" d="M617.7,83.2h2.3l0.2,1.4c0.1-1.1,1.1-1.7,2.2-1.7c0.6,0,1,0.2,1.2,0.3v2.2
				c-0.3-0.2-0.7-0.3-1.3-0.3c-1,0-1.5,0.4-1.9,1v7.3h-2.7V83.2z"/>
			<path id="XMLID_107_" class="st1" d="M629.7,88.2c0-3.7,2.6-5.4,5.6-5.4c3.1,0,5.3,1.7,5.3,5.4c0,3.7-2.6,5.4-5.6,5.4
				C631.9,93.6,629.7,91.9,629.7,88.2z M637.9,88.2c0-2-0.9-3.4-2.7-3.4c-1.9,0-2.7,1.4-2.7,3.4c0,2,0.9,3.4,2.7,3.4
				C637.1,91.7,637.9,90.3,637.9,88.2z"/>
			<path id="XMLID_105_" class="st1" d="M642.7,91V79.5h2.7v11.3c0,0.7,0.2,0.9,0.8,0.9c0.5,0,0.9-0.2,1.1-0.5V93
				c-0.2,0.2-0.8,0.6-1.8,0.6C643.6,93.6,642.7,92.7,642.7,91z"/>
			<path id="XMLID_102_" class="st1" d="M648.5,90.7c0-2.1,1.8-2.9,4.9-3.3l1.7-0.2c0-1.8-0.9-2.3-2.6-2.3c-1.7,0-3,0.8-3.6,1.9
				v-2.4c0.4-0.6,1.6-1.4,4-1.4c3.1,0,4.8,1.4,4.8,4.3v6.1h-2.4l-0.2-0.9c-0.3,0.6-1.2,1.2-2.8,1.2
				C650.2,93.6,648.5,92.7,648.5,90.7z M655.1,88.7l-1.5,0.3c-1.9,0.4-2.5,0.8-2.5,1.6s0.6,1.2,1.7,1.2c1.1,0,2-0.4,2.3-0.9V88.7z"
				/>
			<path id="XMLID_100_" class="st1" d="M660.4,83.2h2.5l0.2,0.9c0.4-0.6,1.5-1.2,2.9-1.2c3,0,4.1,1.4,4.1,4.1v6.3h-2.7v-5.9
				c0-2-0.5-2.7-2.1-2.7c-1.3,0-2,0.6-2.3,1v7.6h-2.7V83.2z"/>
			<path id="XMLID_98_" class="st1" d="M672.2,92.7l5.1-7.6h-5.1v-1.9h8.5v0.6l-5,7.6h5v1.9h-8.5V92.7z"/>
			<path id="XMLID_95_" class="st1" d="M682.2,90.7c0-2.1,1.8-2.9,4.9-3.3l1.7-0.2c0-1.8-0.9-2.3-2.6-2.3c-1.7,0-3,0.8-3.6,1.9v-2.4
				c0.4-0.6,1.6-1.4,4-1.4c3.1,0,4.8,1.4,4.8,4.3v6.1H689l-0.2-0.9c-0.3,0.6-1.2,1.2-2.8,1.2C683.9,93.6,682.2,92.7,682.2,90.7z
				 M688.8,88.7l-1.5,0.3c-1.9,0.4-2.5,0.8-2.5,1.6s0.6,1.2,1.7,1.2c1.1,0,2-0.4,2.3-0.9V88.7z"/>
			<path id="XMLID_92_" class="st1" d="M694.1,83.2h2.5l0.2,0.9c0.3-0.5,1.2-1.2,2.9-1.2c2.8,0,4.6,1.4,4.6,5.1
				c0,3.7-2.3,5.6-5.1,5.6c-0.8,0-1.9-0.1-2.5-0.7v3.9h-2.7V83.2z M701.6,88.1c0-2-0.7-3.3-2.5-3.3c-1.2,0-1.9,0.4-2.3,0.9V91
				c0.5,0.6,1.3,0.8,2.2,0.8C700.8,91.7,701.6,90.1,701.6,88.1z"/>
			<path id="XMLID_89_" class="st1" d="M706.4,80.8c0-0.8,0.5-1.2,1.4-1.2c1,0,1.5,0.4,1.5,1.2c0,0.8-0.5,1.2-1.5,1.2
				C706.9,82,706.4,81.6,706.4,80.8z M706.6,83.2h2.7v10.2h-2.7V83.2z"/>
			<path id="XMLID_87_" class="st1" d="M712,83.2h2.5l0.2,0.9c0.4-0.6,1.5-1.2,2.9-1.2c3,0,4.1,1.4,4.1,4.1v6.3h-2.7v-5.9
				c0-2-0.5-2.7-2.1-2.7c-1.3,0-2,0.6-2.3,1v7.6H712V83.2z"/>
			<path id="XMLID_84_" class="st1" d="M723.8,88.2c0-3.7,2.7-5.4,5.3-5.4c2.5,0,5,1,5,4.8V89h-7.6c0.1,1.4,1.1,2.6,3.3,2.6
				c2,0,3.2-0.8,3.8-1.5v2.2c-0.6,0.6-1.8,1.3-4,1.3C726.1,93.6,723.8,91.9,723.8,88.2z M731.5,87.4L731.5,87.4
				c0-1.6-0.8-2.5-2.4-2.5c-1.5,0-2.4,1.3-2.5,2.5H731.5z"/>
			<path id="XMLID_82_" class="st1" d="M743.4,83.8c-0.5,0.5-1.9,0.6-3.2,0.6v-2c2,0,3.5-0.5,4.5-1.7h1.2v12.5h-2.6V83.8z"/>
			<path id="XMLID_80_" class="st1" d="M748.5,93v-2.3c0.6,0.4,1.5,0.9,3,0.9c2,0,3-0.8,3-2c0-1.1-0.7-1.8-3-1.8
				c-1.1,0-2,0.2-2.6,0.5l0.3-7.5h7.6v2.1h-5.3l-0.1,3.1c0.2-0.1,0.8-0.1,1.2-0.1c3,0,4.7,1.2,4.7,3.6c0,2.6-2.4,4.2-5.6,4.2
				C749.9,93.6,749,93.3,748.5,93z"/>
			<path id="XMLID_78_" class="st1" d="M764.4,83.2h2.5l0.1,0.9c0.4-0.6,1.4-1.2,2.7-1.2c1.7,0,2.7,0.5,3.3,1.5
				c0.5-0.7,1.5-1.5,3.3-1.5c2.8,0,3.9,1.4,3.9,4.1v6.3h-2.7v-5.9c0-2-0.5-2.7-1.9-2.7c-1,0-1.9,0.5-2.2,1c0.1,0.4,0.1,0.8,0.1,1.3
				v6.3H771v-5.9c0-2-0.5-2.7-1.9-2.7c-1.1,0-1.8,0.5-2.1,1v7.6h-2.7V83.2z"/>
			<path id="XMLID_75_" class="st1" d="M782.4,96.2v-2c1,0.7,2.5,1.1,4.7,1.1c2.6,0,3.8-0.4,3.8-1.3c0-0.8-0.8-1-2.6-1
				c-1.6,0-4,0.3-4.8,0.6v-1.7l1.6-2.3c-1.6-0.5-2.6-1.6-2.6-3.2c0-2.2,2-3.5,4.8-3.5c1.3,0,2.3,0.3,3.1,0.8
				c0.4-0.5,1.3-0.8,2.2-0.8c0.3,0,0.6,0,0.9,0.1v1.9c-0.2-0.1-0.5-0.1-0.7-0.1c-0.5,0-0.9,0.1-1.1,0.3c0.2,0.4,0.3,0.9,0.3,1.4
				c0,2.2-2,3.5-4.8,3.5h-0.3l-1,1.5c0.5-0.1,1.8-0.3,3-0.3c2.8,0,4.6,0.6,4.6,2.6s-2.1,3.4-6.2,3.4
				C785.1,97.2,783.4,96.8,782.4,96.2z M789.4,86.4c0-1.1-0.8-1.7-2.1-1.7s-2.1,0.6-2.1,1.7c0,1.1,0.8,1.7,2.1,1.7
				S789.4,87.5,789.4,86.4z"/>
			<path id="XMLID_72_" class="st1" d="M4.6,110.3c0-3.7,2.6-5.4,5.6-5.4c3.1,0,5.3,1.7,5.3,5.4c0,3.7-2.6,5.4-5.6,5.4
				C6.8,115.7,4.6,114,4.6,110.3z M12.8,110.3c0-2-0.9-3.4-2.7-3.4c-1.9,0-2.7,1.4-2.7,3.4c0,2,0.9,3.4,2.7,3.4
				C11.9,113.7,12.8,112.4,12.8,110.3z"/>
			<path id="XMLID_70_" class="st1" d="M17.7,105.2h2.5l0.2,0.9c0.4-0.6,1.5-1.2,2.9-1.2c3,0,4.1,1.4,4.1,4.1v6.3h-2.7v-5.9
				c0-2-0.5-2.7-2.1-2.7c-1.3,0-2,0.6-2.3,1v7.6h-2.7V105.2z"/>
			<path id="XMLID_68_" class="st1" d="M29.5,110.3c0-3.7,2.6-5.4,5.5-5.4c1.5,0,2.7,0.5,3.2,0.9v2.3c-0.7-0.9-1.6-1.2-3-1.2
				c-1.9,0-3,1.3-3,3.3c0,2.1,1.1,3.3,3,3.3c1.4,0,2.4-0.5,3.1-1.3v2.2c-0.5,0.5-1.8,1.2-3.4,1.2C31.7,115.7,29.5,114,29.5,110.3z"
				/>
			<path id="XMLID_65_" class="st1" d="M39.9,110.3c0-3.7,2.7-5.4,5.3-5.4c2.5,0,5,1,5,4.8v1.3h-7.6c0.1,1.4,1.1,2.6,3.3,2.6
				c2,0,3.2-0.8,3.8-1.5v2.2c-0.6,0.6-1.8,1.3-4,1.3C42.2,115.7,39.9,114,39.9,110.3z M47.6,109.4L47.6,109.4c0-1.6-0.8-2.5-2.4-2.5
				c-1.5,0-2.4,1.3-2.5,2.5H47.6z"/>
			<path id="XMLID_62_" class="st1" d="M56.8,110.5c0-3.7,2.1-5.5,5.1-5.5c0.8,0,1.9,0.1,2.5,0.7v-4.1h2.7v13.9h-2.5l-0.2-0.9
				c-0.3,0.5-1.2,1.2-2.9,1.2C58.8,115.7,56.8,114.2,56.8,110.5z M64.3,107.6c-0.5-0.6-1.3-0.8-2.2-0.8c-1.9,0-2.6,1.6-2.6,3.6
				c0,2,0.7,3.3,2.5,3.3c1.2,0,1.9-0.4,2.3-0.9V107.6z"/>
			<path id="XMLID_59_" class="st1" d="M69.1,112.8c0-2.1,1.8-2.9,4.9-3.3l1.7-0.2c0-1.8-0.9-2.3-2.6-2.3c-1.7,0-3,0.8-3.6,1.9v-2.4
				c0.4-0.6,1.6-1.4,4-1.4c3.1,0,4.8,1.4,4.8,4.3v6.1H76l-0.2-0.9c-0.3,0.6-1.2,1.2-2.8,1.2C70.9,115.7,69.1,114.8,69.1,112.8z
				 M75.7,110.8l-1.5,0.3c-1.9,0.4-2.5,0.8-2.5,1.6s0.6,1.2,1.7,1.2c1.1,0,2-0.4,2.3-0.9V110.8z"/>
			<path id="XMLID_56_" class="st1" d="M81,102.9c0-0.8,0.5-1.2,1.4-1.2s1.5,0.4,1.5,1.2c0,0.8-0.5,1.2-1.5,1.2S81,103.6,81,102.9z
				 M81.1,105.2h2.7v10.2h-2.7V105.2z"/>
			<path id="XMLID_54_" class="st1" d="M86.5,113.1v-11.5h2.7v11.3c0,0.7,0.2,0.9,0.8,0.9c0.5,0,0.9-0.2,1.1-0.5v1.9
				c-0.2,0.2-0.8,0.6-1.8,0.6C87.4,115.7,86.5,114.7,86.5,113.1z"/>
			<path id="XMLID_52_" class="st1" d="M91.6,118.6v-2c0.5,0.5,1.1,0.8,1.9,0.8c0.8,0,1.6-0.3,2.2-1.7l-4.5-10.4h2.9l2.8,7.3
				l2.2-7.3h2.6l-3.2,9.5c-0.8,2.5-2.1,4.5-5,4.5C92.8,119.3,92,119,91.6,118.6z"/>
			<path id="XMLID_50_" class="st1" d="M102.5,114.2c0-0.9,0.7-1.5,1.7-1.5c1,0,1.7,0.6,1.7,1.5c0,0.9-0.7,1.5-1.7,1.5
				C103.1,115.7,102.5,115.1,102.5,114.2z"/>
		</g>
	</g>
	<g id="XMLID_2_">
		<path id="XMLID_46_" class="st2" d="M475.6,90.5h6.4c1,0,1.4-0.2,1.4-0.7c0-0.5-0.3-0.6-1-0.7c-3.1-0.3-3.9-1.1-3.9-3.1
			c0-2,1.3-3.3,4.3-3.3c1.8,0,2.6,0.2,3.2,0.5v2.6c-0.9-0.4-2-0.6-3.1-0.6c-0.9,0-1.4,0.2-1.4,0.7c0,0.5,0.3,0.6,1,0.7
			c3.1,0.3,3.9,1.1,3.9,3.1c0,1.9-1.1,3.3-4.4,3.3h-5.9"/>
		<path id="XMLID_43_" class="st2" d="M489.9,88.9c-0.1,1.3,0.6,1.6,2.1,1.6c1.5,0,2.5-0.3,3.2-0.6v2.4c-1.1,0.5-2.5,0.7-3.6,0.7
			c-3.2,0-4.7-1.6-4.7-5.1c0-3.5,1.5-5.1,4.5-5.1c4.1,0,4.4,3.1,4.2,6.1H489.9z M489.9,87h2.7c0.2-1.1-0.1-1.9-1.2-1.9
			C490.4,85.1,489.9,85.8,489.9,87"/>
		<path id="XMLID_42_" class="st2" d="M498.4,83l0.4,0.7c1.1-0.7,2.3-1,3.4-1c2.6,0,3.4,1.4,3.4,3.3v6.7h-3.1v-6.2
			c0-0.7-0.3-1.2-1.1-1.2c-0.8,0-1.4,0.3-1.7,0.5v6.9h-3.1V83H498.4z"/>
		<path id="XMLID_39_" class="st2" d="M511.5,85.9c0-0.4-0.3-0.7-1.1-0.7c-1.2,0-2.6,0.4-3.5,0.7v-2.6c0.7-0.3,2.1-0.6,3.5-0.6
			c3.5,0,4.1,1.5,4.1,3.7v6.3h-1.9l-0.4-0.7c-0.7,0.6-1.7,1-2.8,1c-2.5,0-3.3-1.6-3.3-3.1c0-2.6,1.9-3,3.7-3.2l1.8-0.2V85.9z
			 M510.2,88.4c-0.9,0.1-1.2,0.5-1.2,1.3c0,0.7,0.5,1.1,1.1,1.1c0.6,0,1.1-0.2,1.4-0.5v-2.1L510.2,88.4z"/>
		<path id="XMLID_36_" class="st2" d="M517.4,83l0.5,0.8c0.7-0.6,1.6-1,3.1-1c2.5,0,3.8,1.5,3.8,5.1c0,3.6-1.2,5.1-3.8,5.1
			c-1.1,0-1.8-0.3-2.4-0.6v5.2h-3.1V83H517.4z M518.6,90.1c0,0,0.6,0.4,1.4,0.4c1.4,0,1.7-1,1.7-2.6c0-1.7-0.3-2.6-1.7-2.6
			c-0.8,0-1.4,0.4-1.4,0.4V90.1z"/>
		<path id="XMLID_35_" class="st2" d="M529.5,92.8c0,0-0.4,0.1-0.9,0.1c-1.7,0-3-0.8-3-2.7V83h3.1v6.7c0,0.4,0.2,0.6,0.8,0.6V92.8z"
			/>
		<path id="XMLID_34_" class="st2" d="M532.1,83l0.4,0.7c1.1-0.7,2.3-1,3.4-1c2.6,0,3.4,1.4,3.4,3.3v6.7h-3.1v-6.2
			c0-0.7-0.3-1.2-1.1-1.2c-0.8,0-1.4,0.3-1.7,0.5v6.9h-3.1V83H532.1z"/>
		<path id="XMLID_31_" class="st2" d="M543,88.9c-0.1,1.3,0.6,1.6,2.1,1.6c1.5,0,2.5-0.3,3.2-0.6v2.4c-1.1,0.5-2.5,0.7-3.6,0.7
			c-3.2,0-4.7-1.6-4.7-5.1c0-3.5,1.5-5.1,4.5-5.1c4.1,0,4.4,3.1,4.2,6.1H543z M543,87h2.7c0.2-1.1-0.1-1.9-1.2-1.9
			C543.4,85.1,543,85.8,543,87"/>
		<polyline id="XMLID_30_" class="st2" points="472.3,89.7 472.9,87.2 474.8,87.2 473.5,81.8 472.3,87.2 471.7,89.7 471,92.7 
			467.7,92.7 471.8,78.1 475.3,78.1 479.3,92.7 476.1,92.7 475.4,89.7 		"/>
		<g id="XMLID_8_">
			<polygon id="XMLID_29_" class="st2" points="521.7,97.4 521.7,95.6 519.9,95.6 519.9,97.4 519.6,97.4 519.6,93.7 519.9,93.7 
				519.9,95.3 521.7,95.3 521.7,93.7 522,93.7 522,97.4 			"/>
			<path id="XMLID_26_" class="st2" d="M523,94c0.1,0,0.2,0.1,0.2,0.2c0,0.1-0.1,0.2-0.2,0.2c-0.1,0-0.2-0.1-0.2-0.2
				C522.7,94.1,522.8,94,523,94 M522.8,96.9v-1.9h0.3v2c0,0.2,0.1,0.2,0.2,0.2v0.3C523,97.4,522.8,97.3,522.8,96.9"/>
			<polygon id="XMLID_25_" class="st2" points="524.7,95.9 525.9,97.4 525.5,97.4 524.5,96.1 524.2,96.4 524.2,97.4 523.9,97.4 
				523.9,93.7 524.2,93.7 524.2,96 525.3,94.9 525.8,94.9 			"/>
			<path id="XMLID_24_" class="st2" d="M529.2,95.6c0-0.3-0.2-0.4-0.5-0.4c-0.3,0-0.5,0.1-0.7,0.2c0,0.1,0,0.2,0,0.3v1.8h-0.3v-1.8
				c0-0.3-0.2-0.4-0.5-0.4c-0.3,0-0.4,0-0.6,0.1v2h-0.3v-2.4h0.2l0.1,0.2c0.2-0.2,0.5-0.2,0.7-0.2c0.3,0,0.6,0.1,0.7,0.3
				c0.3-0.2,0.5-0.3,0.8-0.3c0.5,0,0.8,0.2,0.8,0.7v1.8h-0.3V95.6z"/>
			<path id="XMLID_21_" class="st2" d="M531,95.2c-0.3,0-0.5,0.1-0.7,0.1V95c0.2-0.1,0.5-0.1,0.7-0.1c0.7,0,0.9,0.3,0.9,0.8v1.7
				h-0.2l-0.1-0.2c-0.2,0.2-0.5,0.2-0.7,0.2c-0.6,0-0.9-0.4-0.9-0.8c0-0.4,0.2-0.7,0.9-0.8l0.6,0v-0.1
				C531.6,95.4,531.4,95.2,531,95.2 M530.9,96.1c-0.3,0-0.5,0.2-0.5,0.5c0,0.2,0.1,0.5,0.5,0.5c0.3,0,0.4-0.1,0.6-0.2v-0.8
				L530.9,96.1z"/>
			<path id="XMLID_18_" class="st2" d="M533.8,97.4h-0.3v-3.6h1.1c0.9,0,1.2,0.5,1.2,1.1c0,0.6-0.3,1.1-1.2,1.1h-0.8V97.4z
				 M533.8,95.6h0.8c0.7,0,0.8-0.4,0.8-0.8c0-0.3-0.1-0.8-0.8-0.8h-0.8V95.6z"/>
			<path id="XMLID_17_" class="st2" d="M537.2,95.2c-0.3,0-0.5,0.1-0.7,0.2v2h-0.3v-3.6h0.3v1.4c0.2-0.1,0.4-0.2,0.7-0.2
				c0.6,0,0.8,0.3,0.8,0.7v1.8h-0.3v-1.8C537.7,95.3,537.5,95.2,537.2,95.2"/>
			<path id="XMLID_14_" class="st2" d="M539.5,95.2c-0.3,0-0.5,0.1-0.7,0.1V95c0.2-0.1,0.5-0.1,0.7-0.1c0.7,0,0.9,0.3,0.9,0.8v1.7
				h-0.2l-0.1-0.2c-0.2,0.2-0.5,0.2-0.7,0.2c-0.6,0-0.9-0.4-0.9-0.8c0-0.4,0.2-0.7,0.9-0.8l0.6,0v-0.1
				C540.1,95.4,540,95.2,539.5,95.2 M539.4,96.1c-0.3,0-0.5,0.2-0.5,0.5c0,0.2,0.1,0.5,0.5,0.5c0.3,0,0.4-0.1,0.6-0.2v-0.8
				L539.4,96.1z"/>
			<path id="XMLID_13_" class="st2" d="M542.4,95.2c-0.1,0-0.2,0-0.3,0c-0.3,0-0.5,0.1-0.7,0.2v2h-0.3v-2.4h0.2l0.1,0.2
				c0.2-0.2,0.5-0.3,0.8-0.3c0.1,0,0.2,0,0.3,0V95.2z"/>
			<path id="XMLID_12_" class="st2" d="M545.7,95.6c0-0.3-0.2-0.4-0.5-0.4c-0.3,0-0.5,0.1-0.7,0.2c0,0.1,0,0.2,0,0.3v1.8h-0.3v-1.8
				c0-0.3-0.2-0.4-0.5-0.4c-0.3,0-0.4,0-0.6,0.1v2h-0.3v-2.4h0.2l0.1,0.2c0.2-0.2,0.5-0.2,0.7-0.2c0.3,0,0.6,0.1,0.7,0.3
				c0.3-0.2,0.5-0.3,0.8-0.3c0.5,0,0.8,0.2,0.8,0.7v1.8h-0.3V95.6z"/>
			<path id="XMLID_9_" class="st2" d="M547.5,95.2c-0.3,0-0.5,0.1-0.7,0.1V95c0.2-0.1,0.5-0.1,0.7-0.1c0.7,0,0.9,0.3,0.9,0.8v1.7
				h-0.2l-0.1-0.2c-0.2,0.2-0.5,0.2-0.7,0.2c-0.6,0-0.8-0.4-0.8-0.8c0-0.4,0.2-0.7,0.9-0.8l0.6,0v-0.1
				C548.1,95.4,548,95.2,547.5,95.2 M547.4,96.1c-0.3,0-0.5,0.2-0.5,0.5c0,0.2,0.1,0.5,0.5,0.5c0.3,0,0.4-0.1,0.6-0.2v-0.8
				L547.4,96.1z"/>
		</g>
		<g id="XMLID_3_">
			<path id="XMLID_7_" class="st2" d="M528.3,77.6c-0.4,0-0.8,0.1-1.1,0.3c0.1,0.1,0.3,0.2,0.4,0.3c0.8,0.2,1.4,0.9,1.4,1.8
				c0,0.9-0.6,1.6-1.4,1.8c-0.1,0.1-0.3,0.2-0.4,0.3c0.3,0.2,0.7,0.3,1.1,0.3c1.3,0,2.4-1,2.4-2.4C530.7,78.6,529.6,77.6,528.3,77.6
				z"/>
			<path id="XMLID_6_" class="st3" d="M525.4,79.9c0-0.9,0.6-1.6,1.4-1.8c0.1-0.1,0.3-0.2,0.4-0.3c-0.3-0.2-0.7-0.3-1.1-0.3
				c-1.3,0-2.4,1-2.4,2.4c0,1.3,1,2.4,2.4,2.4c0.4,0,0.8-0.1,1.1-0.3c-0.2-0.1-0.3-0.2-0.4-0.3C526,81.5,525.4,80.8,525.4,79.9z"/>
			<path id="XMLID_5_" class="st3" d="M527.2,81.8c-0.2,0-0.3,0-0.4-0.1c0.1,0.1,0.3,0.2,0.4,0.3c0.2-0.1,0.3-0.2,0.4-0.3
				C527.5,81.8,527.3,81.8,527.2,81.8z"/>
			<path id="XMLID_4_" class="st3" d="M527.2,78.1c0.1,0,0.3,0,0.4,0c-0.1-0.1-0.3-0.2-0.4-0.3c-0.1,0.1-0.3,0.2-0.4,0.3
				C526.9,78.1,527.1,78.1,527.2,78.1z"/>
		</g>
	</g>
</g>
</svg>
