<!-- Generator: Adobe Illustrator 22.1.0, SVG Export Plug-In  -->
<svg version="1.1"
	 xmlns="http://www.w3.org/2000/svg" xmlns:xlink="http://www.w3.org/1999/xlink" xmlns:a="http://ns.adobe.com/AdobeSVGViewerExtensions/3.0/"
	 x="0px" y="0px" width="148.8px" height="152.4px" viewBox="0 0 148.8 152.4" style="enable-background:new 0 0 148.8 152.4;"
	 xml:space="preserve">
<style type="text/css">
	.st0{fill:#E42E48;}
	.st1{fill:#EE4770;}
	.st2{fill:#FFFFFF;}
	.st3{fill:#42BB9F;}
	.st4{fill:#5BC0A2;}
	.st5{fill:none;stroke:#FFFFFF;stroke-width:0.5653;stroke-miterlimit:10;}
	.st6{fill:#2263AE;}
	.st7{fill:#2671B8;}
	.st8{fill:#28A8E0;}
	.st9{fill:#33B2DE;}
	.st10{fill:#5E5F5E;}
	.st11{fill:url(#XMLID_296_);}
	.st12{fill:url(#XMLID_319_);}
</style>
<defs>
</defs>
<g id="XMLID_287_">
	<path id="XMLID_295_" class="st0" d="M43.4,30.4c6.3,2,13.1-1.4,15.1-7.7l-22.8-7.4C33.6,21.6,37.1,28.3,43.4,30.4z"/>
	<path id="XMLID_294_" class="st1" d="M50.8,7.5c-6.3-2-13.1,1.4-15.1,7.7l22.8,7.4C60.6,16.3,57.1,9.6,50.8,7.5z"/>
	<g id="XMLID_293_">
		<g>
			<path class="st0" d="M51.3,5.9C42.9,3.6,34,9,33.4,18.2c-0.6,9.7,8.5,16,17.5,14c0.5-0.1,0.3-0.9-0.2-0.8
				c-8.8,2-17.4-4.5-16.4-13.8c0.9-8.3,9-13,16.8-10.9C51.6,6.8,51.8,6,51.3,5.9L51.3,5.9z"/>
		</g>
	</g>
	<g id="XMLID_289_">
		<path id="XMLID_290_" class="st2" d="M43.7,29.6c-5.9-1.9-9.1-8.2-7.2-14.1c1.9-5.9,8.2-9.1,14.1-7.2c5.9,1.9,9.1,8.2,7.2,14.1
			C55.9,28.3,49.5,31.5,43.7,29.6z M44,28.7c5.4,1.7,11.2-1.2,12.9-6.6c1.7-5.4-1.2-11.2-6.6-12.9c-5.4-1.7-11.2,1.2-12.9,6.6
			C35.6,21.2,38.6,27,44,28.7z"/>
	</g>
	<path id="XMLID_288_" class="st0" d="M51.6,30.7c0.6,0.2,0.9,0.8,0.7,1.3c-0.2,0.6-0.8,0.9-1.3,0.7c-0.6-0.2-0.9-0.8-0.7-1.3
		C50.5,30.8,51.1,30.5,51.6,30.7z"/>
</g>
<g id="XMLID_278_">
	<path id="XMLID_286_" class="st0" d="M27.7,47.9c6.5-1.2,10.8-7.5,9.6-14l-23.6,4.3C14.9,44.8,21.2,49.1,27.7,47.9z"/>
	<path id="XMLID_285_" class="st1" d="M23.4,24.3c-6.5,1.2-10.8,7.5-9.6,14l23.6-4.3C36.2,27.4,29.9,23.1,23.4,24.3z"/>
	<g id="XMLID_284_">
		<g>
			<path class="st0" d="M23.1,22.6c-8.5,2-13.8,11-9.9,19.3c4.1,8.8,15.1,10.1,22,4c0.4-0.3-0.2-0.9-0.6-0.6
				c-6.8,5.9-17.5,4.3-21-4.4c-3.1-7.8,1.7-15.7,9.6-17.5C23.8,23.2,23.6,22.5,23.1,22.6L23.1,22.6z"/>
		</g>
	</g>
	<g id="XMLID_280_">
		<path id="XMLID_281_" class="st2" d="M27.6,47.1c-6.1,1.1-11.9-2.9-13-9c-1.1-6.1,2.9-11.9,9-13c6.1-1.1,11.9,2.9,13,9
			C37.7,40.1,33.7,46,27.6,47.1z M27.4,46.2c5.6-1,9.2-6.4,8.2-11.9c-1-5.6-6.4-9.2-11.9-8.2c-5.6,1-9.2,6.4-8.2,11.9
			C16.5,43.5,21.9,47.2,27.4,46.2z"/>
	</g>
	<path id="XMLID_279_" class="st0" d="M35.1,44.3c0.6-0.1,1.1,0.3,1.2,0.8c0.1,0.6-0.3,1.1-0.8,1.2c-0.6,0.1-1.1-0.3-1.2-0.8
		C34.1,44.9,34.5,44.4,35.1,44.3z"/>
</g>
<g id="XMLID_260_">
	<g id="XMLID_268_">
		<path id="XMLID_277_" class="st3" d="M124.2,62.7c0.2,6.4,5.5,11.4,11.8,11.2l-0.6-23C129,51,124,56.3,124.2,62.7z"/>
		<path id="XMLID_276_" class="st4" d="M147.2,62.1c-0.2-6.4-5.5-11.4-11.8-11.2l0.6,23C142.4,73.7,147.4,68.4,147.2,62.1z"/>
		<g id="XMLID_272_">
			<path id="XMLID_273_" class="st2" d="M125,62.7c-0.2-5.9,4.5-10.9,10.4-11c5.9-0.2,10.9,4.5,11,10.4c0.2,5.9-4.5,10.9-10.4,11
				C130.1,73.3,125.1,68.6,125,62.7z M125.9,62.6c0.1,5.4,4.7,9.7,10.1,9.6c5.4-0.1,9.7-4.7,9.6-10.1c-0.1-5.4-4.7-9.7-10.1-9.6
				C130,52.7,125.7,57.2,125.9,62.6z"/>
		</g>
		<g id="XMLID_269_">
			<g id="XMLID_271_">
				<g>
					<path class="st3" d="M136.1,75.5c11.2-0.9,17.3-14.5,8.7-22.7c-8.7-8.2-21.9-1.3-22.2,9.9c0,0.5,0.7,0.5,0.8,0
						c0.3-10.3,12.1-16.9,20.4-9.7c8.7,7.5,3.2,20.9-7.7,21.8C135.6,74.8,135.6,75.6,136.1,75.5L136.1,75.5z"/>
				</g>
			</g>
			<path id="XMLID_270_" class="st3" d="M123.9,62.8c0,0.6-0.4,1-1,1c-0.6,0-1-0.4-1-1c0-0.6,0.4-1,1-1
				C123.4,61.8,123.9,62.2,123.9,62.8z"/>
		</g>
	</g>
	<g id="XMLID_261_">
		<g id="XMLID_263_">
			<path id="XMLID_266_" class="st2" d="M132,66.6V66l0.6-0.5c1-0.9,1.5-1.4,1.5-1.9c0-0.4-0.2-0.7-0.8-0.7c-0.4,0-0.7,0.2-1,0.4
				l-0.3-0.8c0.3-0.3,0.9-0.5,1.5-0.5c1,0,1.6,0.6,1.6,1.4c0,0.8-0.6,1.4-1.2,2l-0.4,0.4v0h1.7v0.9H132z"/>
			<path id="XMLID_264_" class="st2" d="M139.4,66.5c-0.2,0.1-0.6,0.2-1.2,0.2c-1.6,0-2.5-1-2.5-2.4c0-1.6,1.2-2.5,2.6-2.5
				c0.6,0,1,0.1,1.2,0.2l-0.2,0.9c-0.2-0.1-0.5-0.2-0.9-0.2c-0.9,0-1.5,0.5-1.5,1.6c0,1,0.6,1.6,1.5,1.6c0.3,0,0.7-0.1,0.9-0.2
				L139.4,66.5z"/>
		</g>
		<path id="XMLID_262_" class="st5" d="M141.4,61.6c0,0-2.5-4.1-5.3-5.4c-2.8-1.3-2.2,1.5-0.9,3.4c1.3,1.9,5.9-0.6,7.3-0.8"/>
	</g>
</g>
<g id="XMLID_250_">
	<path id="XMLID_259_" class="st6" d="M57.9,138.7c0,6.6,5.3,12,11.9,12v-24C63.2,126.8,57.9,132.1,57.9,138.7z"/>
	<path id="XMLID_258_" class="st7" d="M81.9,138.7c0-6.6-5.4-12-12-12c0,0-0.1,0-0.1,0v24c0,0,0,0,0.1,0
		C76.5,150.7,81.9,145.3,81.9,138.7z"/>
	<g id="XMLID_255_">
		<g id="XMLID_257_">
			<g>
				<path class="st6" d="M69.9,125c-11.7,0.6-18.5,14.6-9.7,23.4c8.8,8.8,22.8,2,23.4-9.7c0-0.5-0.8-0.5-0.8,0
					c-0.6,11-13.8,17.4-22.1,9.1c-8.2-8.2-1.9-21.5,9.1-22.1C70.4,125.8,70.4,125,69.9,125L69.9,125z"/>
			</g>
		</g>
		<path id="XMLID_256_" class="st6" d="M71,125.3c0,0.6-0.5,1.1-1.1,1.1c-0.6,0-1.1-0.5-1.1-1.1c0-0.6,0.5-1.1,1.1-1.1
			C70.6,124.2,71,124.7,71,125.3z"/>
	</g>
	<g id="XMLID_251_">
		<path id="XMLID_252_" class="st2" d="M81.1,138.7c0,6.2-5,11.2-11.2,11.2c-6.2,0-11.2-5-11.2-11.2c0-6.2,5-11.2,11.2-11.2
			C76.1,127.5,81.1,132.5,81.1,138.7z M80.1,138.7c0-5.7-4.6-10.2-10.2-10.2c-5.7,0-10.2,4.6-10.2,10.2c0,5.6,4.6,10.2,10.2,10.2
			C75.5,149,80.1,144.4,80.1,138.7z"/>
	</g>
</g>
<g id="XMLID_237_">
	<path id="XMLID_248_" class="st3" d="M115.8,45.5c4.5,4.4,11.8,4.4,16.3-0.2l-16.5-16.1C111.2,33.8,111.3,41.1,115.8,45.5z"/>
	<path id="XMLID_247_" class="st4" d="M131.9,29c-4.5-4.4-11.8-4.4-16.3,0.2l16.5,16.1C136.5,40.8,136.4,33.5,131.9,29z"/>
	<g id="XMLID_241_">
		<path id="XMLID_242_" class="st2" d="M116.3,44.9c-4.2-4.1-4.3-10.9-0.2-15.2c4.1-4.2,10.9-4.3,15.2-0.2
			c4.2,4.1,4.3,10.9,0.2,15.2C127.4,49,120.6,49.1,116.3,44.9z M117,44.3c3.9,3.8,10.1,3.7,13.9-0.2c3.8-3.9,3.7-10.1-0.2-13.9
			c-3.9-3.8-10.1-3.7-13.9,0.2C113,34.3,113.1,40.5,117,44.3z"/>
	</g>
	<g id="XMLID_238_">
		<g id="XMLID_240_">
			<g>
				<path class="st3" d="M133.2,46.5c7.6-8.4,2.3-22.5-9.5-22.4c-11.8,0.1-16.8,14.4-9.1,22.6c0.3,0.4,0.9-0.2,0.5-0.5
					c-7.3-7.8-2.6-21,8.5-21.3c11.2-0.2,16.1,13.2,9,21.1C132.4,46.3,132.9,46.8,133.2,46.5L133.2,46.5z"/>
			</g>
		</g>
		<path id="XMLID_239_" class="st3" d="M115.6,45.8c0.4,0.4,0.4,1,0,1.4c-0.4,0.4-1,0.4-1.4,0c-0.4-0.4-0.4-1,0-1.4
			C114.6,45.4,115.2,45.4,115.6,45.8z"/>
	</g>
</g>
<g id="XMLID_227_">
	<path id="XMLID_236_" class="st3" d="M97.6,29.7c5.5,3.2,12.5,1.4,15.8-4.1L93.5,14C90.2,19.5,92.1,26.5,97.6,29.7z"/>
	<path id="XMLID_235_" class="st4" d="M109.2,9.9c-5.5-3.2-12.5-1.4-15.8,4.1l19.8,11.7C116.5,20.2,114.7,13.1,109.2,9.9z"/>
	<g id="XMLID_231_">
		<path id="XMLID_232_" class="st2" d="M98,29.1c-5.1-3-6.8-9.6-3.8-14.7c3-5.1,9.6-6.8,14.7-3.8c5.1,3,6.8,9.6,3.8,14.7
			C109.6,30.4,103.1,32.1,98,29.1z M98.4,28.3c4.7,2.7,10.7,1.2,13.4-3.5c2.7-4.7,1.2-10.7-3.5-13.4c-4.7-2.7-10.7-1.2-13.4,3.5
			C92.2,19.5,93.7,25.5,98.4,28.3z"/>
	</g>
	<g id="XMLID_228_">
		<g id="XMLID_230_">
			<g>
				<path class="st3" d="M114.7,26.5c5.2-10-3.2-22.4-14.6-19.4c-11.5,3-12.8,17.9-3.4,24.1c0.4,0.3,0.8-0.4,0.4-0.7
					c-8.9-5.8-7.7-19.9,3.2-22.7c10.8-2.8,18.7,8.9,13.8,18.3C113.9,26.5,114.5,26.9,114.7,26.5L114.7,26.5z"/>
			</g>
		</g>
		<path id="XMLID_229_" class="st3" d="M97.4,30.1c0.5,0.3,0.6,0.9,0.4,1.4c-0.3,0.5-0.9,0.6-1.4,0.4c-0.5-0.3-0.6-0.9-0.4-1.4
			C96.3,29.9,97,29.8,97.4,30.1z"/>
	</g>
</g>
<g id="XMLID_217_">
	<path id="XMLID_226_" class="st3" d="M77.5,24.7c6.4,0.1,11.6-5,11.6-11.4l-23-0.2C66,19.4,71.1,24.6,77.5,24.7z"/>
	<path id="XMLID_225_" class="st4" d="M77.7,1.6c-6.4-0.1-11.6,5-11.6,11.4l23,0.2C89.2,6.9,84.1,1.7,77.7,1.6z"/>
	<g id="XMLID_221_">
		<path id="XMLID_222_" class="st2" d="M77.5,23.9C71.6,23.8,66.8,19,66.9,13c0.1-5.9,4.9-10.7,10.8-10.6
			c5.9,0.1,10.7,4.9,10.6,10.8C88.3,19.2,83.4,23.9,77.5,23.9z M77.5,23c5.4,0,9.9-4.3,9.9-9.7c0.1-5.4-4.3-9.9-9.7-9.9
			c-5.4-0.1-9.9,4.3-9.9,9.7C67.7,18.5,72.1,22.9,77.5,23z"/>
	</g>
	<g id="XMLID_218_">
		<g id="XMLID_220_">
			<g>
				<path class="st3" d="M90.7,13.3C90.2,2,76.9-4.6,68.4,3.8c-8.5,8.4-2.1,21.8,9.1,22.5c0.5,0,0.5-0.7,0-0.8
					c-10.5-0.7-16.6-13.3-8.6-21.2c8-7.9,20.6-1.6,21.1,9C90,13.7,90.8,13.7,90.7,13.3L90.7,13.3z"/>
			</g>
		</g>
		<path id="XMLID_219_" class="st3" d="M77.6,25c0.6,0,1,0.5,1,1c0,0.6-0.5,1-1,1c-0.6,0-1-0.5-1-1C76.5,25.4,77,25,77.6,25z"/>
	</g>
</g>
<g id="XMLID_205_">
	<path id="XMLID_216_" class="st8" d="M103.8,134.2c4.4,4.6,11.7,4.8,16.3,0.4c4.6-4.4,4.8-11.7,0.4-16.3c0,0-0.1-0.1-0.1-0.1
		l-16.7,16C103.7,134.1,103.8,134.2,103.8,134.2z"/>
	<path id="XMLID_215_" class="st9" d="M104.2,117.9c-4.6,4.4-4.8,11.6-0.5,16.2l16.7-16C115.9,113.7,108.7,113.5,104.2,117.9z"/>
	<g id="XMLID_212_">
		<g id="XMLID_214_">
			<g>
				<path class="st8" d="M103,116.7c-7.9,8.2-3,22.4,8.8,22.7c11.9,0.3,17.3-13.9,9.8-22.3c-0.3-0.4-0.9,0.2-0.5,0.5
					c7.1,8,1.8,21.2-9.3,21c-11.2-0.2-15.6-13.8-8.3-21.4C103.9,116.9,103.4,116.4,103,116.7L103,116.7z"/>
			</g>
		</g>
		<path id="XMLID_213_" class="st8" d="M102.7,116.2c0.4-0.4,1-0.4,1.4,0c0.4,0.4,0.4,1,0,1.4c-0.4,0.4-1,0.4-1.4,0
			C102.3,117.2,102.3,116.5,102.7,116.2z"/>
	</g>
	<path id="XMLID_211_" class="st10" d="M104.9,118.7c0,0,0,0.1,0,0.2C105,118.8,105,118.7,104.9,118.7
		C105,118.6,105,118.6,104.9,118.7z"/>
	<g id="XMLID_207_">
		<path id="XMLID_208_" class="st2" d="M119.9,118.8c4.1,4.3,3.9,11.1-0.3,15.2c-4.3,4.1-11.1,4-15.2-0.3c-4.1-4.3-4-11.1,0.3-15.2
			C109,114.4,115.8,114.5,119.9,118.8z M105,133.1c3.8,3.9,10,4.1,13.9,0.3c3.9-3.8,4.1-10,0.3-13.9c-3.8-3.9-10-4.1-13.9-0.3
			C101.4,122.9,101.3,129.1,105,133.1z"/>
	</g>
	<path id="XMLID_206_" class="st10" d="M114.7,128.9C114.7,128.8,114.7,128.8,114.7,128.9c0-0.1-0.1,0-0.2,0
		C114.6,128.9,114.6,128.9,114.7,128.9z"/>
</g>
<g id="XMLID_193_">
	<path id="XMLID_204_" class="st8" d="M126.5,111.6c5.6,3,12.6,0.9,15.6-4.7c3-5.6,0.9-12.6-4.7-15.7c-0.1,0-0.1-0.1-0.2-0.1
		l-11,20.3C126.4,111.6,126.5,111.6,126.5,111.6z"/>
	<path id="XMLID_203_" class="st9" d="M121.9,96c-3,5.6-1,12.5,4.5,15.6l11-20.3C131.8,88.3,124.9,90.4,121.9,96z"/>
	<g id="XMLID_200_">
		<g id="XMLID_202_">
			<g>
				<path class="st8" d="M120.4,95.2c-4.9,10.2,3.9,22.3,15.4,18.9c11.4-3.4,12.2-18.4,2.5-24.2c-0.4-0.3-0.8,0.4-0.4,0.7
					c9.1,5.5,8.5,19.6-2.3,22.9c-10.7,3.2-19.1-8.2-14.5-17.8C121.3,95.1,120.6,94.7,120.4,95.2L120.4,95.2z"/>
			</g>
		</g>
		<path id="XMLID_201_" class="st8" d="M119.9,94.8c0.3-0.5,0.9-0.7,1.4-0.4c0.5,0.3,0.7,0.9,0.4,1.4c-0.3,0.5-0.9,0.7-1.4,0.4
			C119.8,95.9,119.7,95.3,119.9,94.8z"/>
	</g>
	<path id="XMLID_199_" class="st10" d="M122.8,96.5c0,0,0,0.1,0,0.2C122.9,96.6,122.9,96.5,122.8,96.5
		C122.9,96.4,122.9,96.4,122.8,96.5z"/>
	<g id="XMLID_195_">
		<path id="XMLID_196_" class="st2" d="M137.2,92c5.2,2.8,7.2,9.4,4.4,14.6c-2.8,5.2-9.4,7.2-14.6,4.4c-5.2-2.8-7.2-9.4-4.4-14.6
			C125.4,91.1,131.9,89.1,137.2,92z M127.3,110.1c4.8,2.6,10.8,0.8,13.4-4c2.6-4.8,0.8-10.8-4-13.4c-4.8-2.6-10.8-0.8-13.4,4
			C120.8,101.5,122.6,107.5,127.3,110.1z"/>
	</g>
	<path id="XMLID_194_" class="st10" d="M135.2,103.1C135.3,103.1,135.3,103.1,135.2,103.1c-0.1,0-0.1,0-0.2,0.1
		C135.2,103.2,135.2,103.2,135.2,103.1z"/>
</g>
<g id="XMLID_184_">
	<path id="XMLID_192_" class="st0" d="M17.7,73.5c6.6-1.9,10.4-8.8,8.4-15.4l-23.8,7C4.2,71.7,11.1,75.4,17.7,73.5z"/>
	<path id="XMLID_191_" class="st1" d="M10.7,49.6c-6.6,1.9-10.4,8.8-8.4,15.4l23.8-7C24.2,51.5,17.3,47.7,10.7,49.6z"/>
	<g id="XMLID_190_">
		<g>
			<path class="st0" d="M10.2,47.9C1.4,51-3,61.3,2.4,69.4c5.3,8,16.5,8.1,22.8,1.2c0.4-0.4-0.2-1-0.6-0.6
				C18.7,76.5,8.1,76.6,3.1,69c-5.1-7.7-1-17.4,7.3-20.3C10.9,48.6,10.7,47.8,10.2,47.9L10.2,47.9z"/>
		</g>
	</g>
	<g id="XMLID_186_">
		<path id="XMLID_187_" class="st2" d="M17.5,72.7C11.3,74.5,4.9,71,3.1,64.8c-1.8-6.1,1.7-12.6,7.8-14.4c6.1-1.8,12.6,1.7,14.4,7.8
			C27.1,64.4,23.6,70.9,17.5,72.7z M17.2,71.7c5.6-1.7,8.8-7.6,7.2-13.2c-1.7-5.6-7.6-8.8-13.2-7.2C5.6,53,2.4,59,4,64.6
			C5.7,70.2,11.6,73.4,17.2,71.7z"/>
	</g>
	<path id="XMLID_185_" class="st0" d="M24.9,69c0.6-0.2,1.2,0.2,1.4,0.7c0.2,0.6-0.2,1.2-0.7,1.4c-0.6,0.2-1.2-0.2-1.4-0.7
		C24,69.8,24.3,69.1,24.9,69z"/>
</g>
<g id="XMLID_175_">
	<path id="XMLID_183_" class="st0" d="M22.3,98c4.9-4.5,5.2-12.1,0.8-17L5.3,97.2C9.8,102.1,17.4,102.5,22.3,98z"/>
	<path id="XMLID_182_" class="st1" d="M6.1,80.3c-4.9,4.5-5.2,12.1-0.8,17L23.1,81C18.6,76.1,11,75.8,6.1,80.3z"/>
	<g id="XMLID_181_">
		<g>
			<path class="st0" d="M4.9,79c-6.3,6.3-5.8,17,2.1,21.9c8.1,4.9,17.9,0.2,20.5-8.5c0.1-0.5-0.6-0.7-0.8-0.2
				c-2.4,8.2-11.7,12.7-19.3,8c-7.5-4.6-7.9-14.6-2-20.6C5.8,79.2,5.3,78.6,4.9,79L4.9,79z"/>
		</g>
	</g>
	<g id="XMLID_177_">
		<path id="XMLID_178_" class="st2" d="M21.7,97.4c-4.6,4.2-11.7,3.8-15.8-0.7C1.8,92.1,2.1,85,6.6,80.9c4.6-4.2,11.7-3.8,15.8,0.7
			C26.6,86.1,26.3,93.2,21.7,97.4z M21.1,96.7c4.2-3.8,4.5-10.3,0.7-14.5C18,78,11.5,77.7,7.3,81.6C3.1,85.4,2.8,91.9,6.6,96
			C10.4,100.2,16.9,100.5,21.1,96.7z"/>
	</g>
	<path id="XMLID_176_" class="st0" d="M26.6,91c0.4-0.4,1.1-0.4,1.5,0.1c0.4,0.4,0.4,1.1-0.1,1.5c-0.4,0.4-1.1,0.4-1.5-0.1
		C26.1,92.1,26.2,91.4,26.6,91z"/>
</g>
<g id="XMLID_163_">
	<path id="XMLID_173_" class="st2" d="M41,17.8h-1.4l-0.1,0.6c0.1,0,0.1,0,0.2,0c0.3,0,0.7,0.1,1,0.3c0.3,0.2,0.4,0.5,0.4,0.9
		c0,0.7-0.6,1.3-1.6,1.3c-0.4,0-0.8-0.1-1-0.2l0.2-0.6c0.2,0.1,0.5,0.2,0.8,0.2c0.4,0,0.7-0.2,0.7-0.6c0-0.4-0.3-0.6-1-0.6
		c-0.2,0-0.3,0-0.5,0l0.2-1.9h2V17.8z"/>
	<path id="XMLID_171_" class="st2" d="M42.6,17v1.5H44V17h0.9v3.8H44v-1.6h-1.4v1.6h-0.9V17H42.6z"/>
	<path id="XMLID_169_" class="st2" d="M46.2,17.7h-1V17h2.9v0.7h-1v3.1h-0.9V17.7z"/>
	<path id="XMLID_167_" class="st2" d="M49.3,17.9L49.3,17.9l-0.7,0.3l-0.1-0.6l1-0.5h0.7v3.7h-0.8V17.9z"/>
	<path id="XMLID_164_" class="st2" d="M52.3,19.8l-0.3,1h-0.9l1.2-3.8h1.1l1.2,3.8h-0.9l-0.3-1H52.3z M53.2,19.2L53,18.4
		c-0.1-0.2-0.1-0.5-0.2-0.7h0c-0.1,0.2-0.1,0.5-0.2,0.7l-0.2,0.8H53.2z"/>
</g>
<g id="XMLID_148_">
	<path id="XMLID_161_" class="st2" d="M19.9,35.3h-1.4l-0.1,0.6c0.1,0,0.1,0,0.2,0c0.3,0,0.7,0.1,1,0.3c0.3,0.2,0.4,0.5,0.4,0.9
		c0,0.7-0.6,1.3-1.6,1.3c-0.4,0-0.8-0.1-1-0.2l0.2-0.6c0.2,0.1,0.5,0.2,0.8,0.2c0.4,0,0.7-0.2,0.7-0.6c0-0.4-0.3-0.6-1-0.6
		c-0.2,0-0.3,0-0.5,0l0.2-1.9h2V35.3z"/>
	<path id="XMLID_159_" class="st2" d="M21.4,34.5V36h1.4v-1.5h0.9v3.8h-0.9v-1.6h-1.4v1.6h-0.9v-3.8H21.4z"/>
	<path id="XMLID_157_" class="st2" d="M25,35.2h-1v-0.7H27v0.7h-1v3.1H25V35.2z"/>
	<path id="XMLID_155_" class="st2" d="M27.1,38.3v-0.5l0.5-0.4c0.8-0.7,1.2-1.1,1.2-1.6c0-0.3-0.2-0.5-0.6-0.5
		c-0.3,0-0.6,0.2-0.8,0.3L27.2,35c0.3-0.2,0.7-0.4,1.2-0.4c0.8,0,1.3,0.5,1.3,1.2c0,0.6-0.4,1.1-1,1.6l-0.3,0.3v0h1.4v0.7H27.1z"/>
	<path id="XMLID_149_" class="st2" d="M31.1,37.3l-0.3,1H30l1.2-3.8h1.1l1.2,3.8h-0.9l-0.3-1H31.1z M32.1,36.7l-0.2-0.8
		c-0.1-0.2-0.1-0.5-0.2-0.7h0c-0.1,0.2-0.1,0.5-0.2,0.7l-0.2,0.8H32.1z"/>
</g>
<g id="XMLID_136_">
	<path id="XMLID_146_" class="st2" d="M8.7,60.8H7.4l-0.1,0.5c0.1,0,0.1,0,0.2,0c0.3,0,0.6,0.1,0.9,0.2c0.3,0.2,0.4,0.5,0.4,0.8
		c0,0.6-0.5,1.2-1.4,1.2c-0.4,0-0.8-0.1-0.9-0.2l0.1-0.6C6.7,62.9,7,63,7.4,63C7.7,63,8,62.8,8,62.4c0-0.3-0.3-0.6-0.9-0.6
		c-0.2,0-0.3,0-0.5,0l0.2-1.8h1.9V60.8z"/>
	<path id="XMLID_144_" class="st2" d="M10,60v1.3h1.3V60h0.8v3.5h-0.8v-1.5H10v1.5H9.2V60H10z"/>
	<path id="XMLID_142_" class="st2" d="M13.2,60.7h-0.9V60h2.7v0.7h-1v2.8h-0.8V60.7z"/>
	<path id="XMLID_140_" class="st2" d="M16,60.9L16,60.9l-0.7,0.3l-0.1-0.6l0.9-0.4h0.7v3.4H16V60.9z"/>
	<path id="XMLID_137_" class="st2" d="M17.7,60.1c0.3,0,0.7-0.1,1.1-0.1c0.7,0,1.1,0.1,1.4,0.4c0.4,0.3,0.6,0.7,0.6,1.3
		c0,0.7-0.2,1.1-0.6,1.4c-0.4,0.3-0.9,0.5-1.6,0.5c-0.4,0-0.7,0-0.9-0.1V60.1z M18.5,62.9c0.1,0,0.2,0,0.3,0c0.7,0,1.2-0.4,1.2-1.2
		c0-0.7-0.4-1.1-1.1-1.1c-0.2,0-0.3,0-0.4,0V62.9z"/>
</g>
<g id="XMLID_123_">
	<path id="XMLID_134_" class="st2" d="M8.3,88.4H6.9L6.8,89c0.1,0,0.1,0,0.2,0c0.3,0,0.7,0.1,1,0.3c0.3,0.2,0.4,0.5,0.4,0.9
		c0,0.7-0.6,1.3-1.6,1.3c-0.4,0-0.8-0.1-1-0.2L6,90.6c0.2,0.1,0.5,0.2,0.8,0.2c0.4,0,0.7-0.2,0.7-0.6c0-0.4-0.3-0.6-1-0.6
		c-0.2,0-0.3,0-0.5,0l0.2-1.9h2V88.4z"/>
	<path id="XMLID_132_" class="st2" d="M10,87.6V89h1.4v-1.5h0.9v3.8h-0.9v-1.6H10v1.6H9.1v-3.8H10z"/>
	<path id="XMLID_130_" class="st2" d="M13.8,88.3h-1v-0.7h2.9v0.7h-1v3.1h-0.9V88.3z"/>
	<path id="XMLID_128_" class="st2" d="M16,91.4v-0.5l0.5-0.4c0.8-0.7,1.2-1.1,1.2-1.6c0-0.3-0.2-0.5-0.6-0.5c-0.3,0-0.6,0.2-0.8,0.3
		L16,88c0.3-0.2,0.7-0.4,1.2-0.4c0.8,0,1.3,0.5,1.3,1.2c0,0.6-0.4,1.1-1,1.6l-0.3,0.3v0h1.4v0.7H16z"/>
	<path id="XMLID_124_" class="st2" d="M19.2,87.6c0.2,0,0.7-0.1,1.1-0.1c0.5,0,0.8,0.1,1.1,0.2c0.3,0.1,0.5,0.4,0.5,0.7
		c0,0.3-0.2,0.7-0.6,0.8v0c0.4,0.1,0.8,0.4,0.8,0.9c0,0.3-0.2,0.6-0.4,0.8c-0.3,0.2-0.7,0.3-1.5,0.3c-0.4,0-0.7,0-0.9-0.1V87.6z
		 M20.1,89.1h0.3c0.5,0,0.7-0.2,0.7-0.5c0-0.3-0.2-0.4-0.6-0.4c-0.2,0-0.3,0-0.4,0V89.1z M20.1,90.8c0.1,0,0.2,0,0.3,0
		c0.4,0,0.7-0.1,0.7-0.5c0-0.4-0.3-0.5-0.8-0.5h-0.3V90.8z"/>
</g>
<g id="XMLID_54_">
	
		<radialGradient id="XMLID_296_" cx="222.0416" cy="1048.9242" r="109.6811" gradientTransform="matrix(0.4458 0 0 0.4458 -24.2717 -391.8647)" gradientUnits="userSpaceOnUse">
		<stop  offset="0" style="stop-color:#2CABE1"/>
		<stop  offset="0.8349" style="stop-color:#306AB3"/>
	</radialGradient>
	<path id="XMLID_122_" class="st11" d="M123.6,75.7c0,27-21.9,48.9-48.9,48.9c-27,0-48.9-21.9-48.9-48.9c0-27,21.9-48.9,48.9-48.9
		C101.7,26.9,123.6,48.7,123.6,75.7z"/>
	<g id="XMLID_55_">
		<g id="XMLID_57_">
			<path id="XMLID_87_" class="st2" d="M35.4,69.7l-0.4-1h2.6c0.4,0.9,3.7,9.3,4.1,10.2h-2.6L38.4,77h-3.6l-0.7,1.8h-2.4L35.4,69.7z
				 M35.4,75.2h2.3l-0.9-2.3L36.6,72l-0.3,0.9L35.4,75.2z"/>
			<path id="XMLID_85_" class="st2" d="M42.6,70.6h2l0.2,1.1c0.1-0.9,0.8-1.3,1.6-1.3c0.4,0,0.7,0.1,0.8,0.2v2.2
				c-0.2-0.1-0.5-0.2-1-0.2c-0.6,0-1,0.3-1.2,0.7v5.7h-2.4V70.6z"/>
			<path id="XMLID_82_" class="st2" d="M48.3,68.6c0-0.7,0.5-1.2,1.3-1.2c0.8,0,1.3,0.4,1.3,1.2s-0.5,1.1-1.3,1.1
				C48.7,69.7,48.3,69.3,48.3,68.6z M48.3,70.6h2.4v8.3h-2.4V70.6z"/>
			<path id="XMLID_79_" class="st2" d="M52.5,70.6h2.2l0.2,0.7c0.3-0.5,1-1,2.2-1c2.1,0,3.4,1.1,3.4,4.2c0,3-1.6,4.6-3.7,4.6
				c-0.7,0-1.4-0.1-1.8-0.5v3.2h-2.4V70.6z M57.9,74.6c0-1.4-0.4-2.3-1.6-2.3c-0.7,0-1.2,0.3-1.4,0.7v3.7c0.3,0.4,0.8,0.5,1.3,0.5
				C57.4,77.2,57.9,76,57.9,74.6z"/>
			<path id="XMLID_76_" class="st2" d="M61.7,68.6c0-0.7,0.5-1.2,1.3-1.2c0.8,0,1.3,0.4,1.3,1.2s-0.5,1.1-1.3,1.1
				C62.1,69.7,61.7,69.3,61.7,68.6z M61.7,70.6h2.4v8.3h-2.4V70.6z"/>
			<path id="XMLID_73_" class="st2" d="M65.9,70.6H68l0.2,0.7c0.3-0.5,1-1,2.2-1c2.1,0,3.4,1.1,3.4,4.2c0,3-1.6,4.6-3.7,4.6
				c-0.7,0-1.4-0.1-1.8-0.5v3.2h-2.4V70.6z M71.3,74.6c0-1.4-0.4-2.3-1.6-2.3c-0.7,0-1.2,0.3-1.4,0.7v3.7c0.3,0.4,0.8,0.5,1.3,0.5
				C70.8,77.2,71.3,76,71.3,74.6z"/>
			<path id="XMLID_71_" class="st2" d="M75.1,70.6h2l0.2,1.1c0.1-0.9,0.8-1.3,1.6-1.3c0.4,0,0.7,0.1,0.8,0.2v2.2
				c-0.2-0.1-0.5-0.2-1-0.2c-0.6,0-1,0.3-1.2,0.7v5.7h-2.4V70.6z"/>
			<path id="XMLID_68_" class="st2" d="M80.3,76.6c0-1.7,1.2-2.4,3.5-2.7l1.2-0.2c0-1.1-0.6-1.5-1.6-1.5c-1.2,0-2.3,0.6-2.7,1.5
				v-2.3c0.4-0.5,1.3-1.1,3.1-1.1c2.4,0,3.7,1.1,3.7,3.5v5h-2.1l-0.2-0.7c-0.2,0.4-0.9,0.9-2,0.9C81.5,79.1,80.3,78.3,80.3,76.6z
				 M85,75.3l-0.9,0.2c-1.1,0.2-1.5,0.5-1.5,1.1c0,0.6,0.4,0.8,1,0.8c0.7,0,1.2-0.3,1.4-0.6V75.3z"/>
			<path id="XMLID_66_" class="st2" d="M88.7,78.1l3.5-5.6h-3.5v-1.9h6.5v0.7l-3.3,5.6h3.3v1.9h-6.5V78.1z"/>
			<path id="XMLID_63_" class="st2" d="M96,74.7c0-3.1,2-4.4,4.3-4.4c2.4,0,4.1,1.3,4.1,4.4c0,3.1-2,4.4-4.3,4.4
				C97.7,79.1,96,77.8,96,74.7z M101.9,74.7c0-1.4-0.5-2.4-1.7-2.4c-1.1,0-1.7,1-1.7,2.4c0,1.4,0.5,2.4,1.7,2.4
				C101.4,77.1,101.9,76.1,101.9,74.7z"/>
			<path id="XMLID_61_" class="st2" d="M105.6,76.8v-9.2h2.4v8.9c0,0.5,0.1,0.6,0.5,0.6s0.6-0.2,0.7-0.4v1.9
				c-0.2,0.2-0.7,0.4-1.4,0.4C106.4,79.1,105.6,78.3,105.6,76.8z"/>
			<path id="XMLID_58_" class="st2" d="M110,74.7c0-3,2-4.4,4-4.4c2,0,3.8,0.8,3.8,4v1.1h-5.3c0.1,0.9,0.7,1.7,2.2,1.7
				c1.4,0,2.2-0.5,2.7-1v2c-0.4,0.4-1.4,0.9-3.1,0.9C111.6,79.1,110,77.7,110,74.7z M115.5,73.9L115.5,73.9c0-1.1-0.4-1.7-1.5-1.7
				c-1,0-1.5,0.8-1.5,1.7H115.5z"/>
		</g>
	</g>
</g>
<g id="XMLID_49_">
	<path id="XMLID_52_" class="st2" d="M74.8,10.6v1.8h1.8v-1.8h1.1v4.8h-1.1v-2h-1.8v2h-1.1v-4.8H74.8z"/>
	<path id="XMLID_50_" class="st2" d="M79.6,11.7L79.6,11.7l-0.9,0.4l-0.2-0.8l1.2-0.6h0.9v4.6h-1V11.7z"/>
</g>
<g id="XMLID_36_">
	<g id="XMLID_38_">
		<path id="XMLID_41_" class="st2" d="M128.3,98.5c0.4-0.1,0.9-0.1,1.5-0.1c0.9,0,1.5,0.2,1.9,0.5c0.5,0.4,0.8,1,0.8,1.8
			c0,0.9-0.3,1.5-0.8,1.9c-0.5,0.4-1.3,0.6-2.2,0.6c-0.6,0-1,0-1.2-0.1V98.5z M129.3,102.4c0.1,0,0.2,0,0.4,0c1,0,1.6-0.5,1.6-1.7
			c0-1-0.6-1.5-1.5-1.5c-0.2,0-0.4,0-0.5,0V102.4z"/>
		<path id="XMLID_39_" class="st2" d="M132.8,103.2v-0.6l0.6-0.5c1-0.9,1.5-1.4,1.5-1.9c0-0.4-0.2-0.7-0.8-0.7c-0.4,0-0.7,0.2-1,0.4
			l-0.3-0.8c0.3-0.3,0.9-0.5,1.5-0.5c1,0,1.6,0.6,1.6,1.4c0,0.8-0.6,1.4-1.2,2l-0.4,0.4v0h1.7v0.9H132.8z"/>
	</g>
</g>
<g id="XMLID_23_">
	<g id="XMLID_25_">
		<path id="XMLID_28_" class="st2" d="M108.4,124.3c0.4-0.1,0.9-0.1,1.5-0.1c0.9,0,1.5,0.2,1.9,0.5c0.5,0.4,0.8,1,0.8,1.8
			c0,0.9-0.3,1.5-0.8,1.9c-0.5,0.4-1.3,0.6-2.2,0.6c-0.6,0-1,0-1.2-0.1V124.3z M109.4,128.1c0.1,0,0.2,0,0.4,0c1,0,1.6-0.5,1.6-1.7
			c0-1-0.6-1.5-1.5-1.5c-0.2,0-0.4,0-0.5,0V128.1z"/>
		<path id="XMLID_26_" class="st2" d="M113.1,127.9c0.2,0.1,0.6,0.3,1.1,0.3c0.6,0,0.8-0.3,0.8-0.6c0-0.5-0.5-0.7-0.9-0.7h-0.4v-0.8
			h0.4c0.4,0,0.8-0.1,0.8-0.5c0-0.3-0.2-0.5-0.7-0.5c-0.4,0-0.8,0.2-1,0.3l-0.2-0.8c0.3-0.2,0.8-0.3,1.4-0.3c1,0,1.5,0.5,1.5,1.1
			c0,0.5-0.3,0.9-0.8,1.1v0c0.5,0.1,1,0.5,1,1.1c0,0.8-0.7,1.4-1.9,1.4c-0.6,0-1.1-0.2-1.4-0.3L113.1,127.9z"/>
	</g>
</g>
<g id="XMLID_14_">
	<path id="XMLID_21_" class="st2" d="M65.6,136.6H64l-0.1,0.7c0.1,0,0.2,0,0.3,0c0.4,0,0.8,0.1,1.1,0.3c0.3,0.2,0.5,0.6,0.5,1.1
		c0,0.8-0.7,1.5-1.8,1.5c-0.5,0-1-0.1-1.2-0.2l0.2-0.8c0.2,0.1,0.6,0.2,1,0.2c0.4,0,0.9-0.2,0.9-0.7c0-0.4-0.3-0.7-1.2-0.7
		c-0.2,0-0.4,0-0.6,0l0.3-2.2h2.4V136.6z"/>
	<path id="XMLID_19_" class="st2" d="M67.4,135.6v1.7h1.7v-1.7h1v4.4h-1v-1.9h-1.7v1.9h-1v-4.4H67.4z"/>
	<path id="XMLID_17_" class="st2" d="M71.6,136.5h-1.2v-0.8h3.4v0.8h-1.2v3.6h-1V136.5z"/>
	<path id="XMLID_15_" class="st2" d="M77.1,135.8v0.6l-1.8,3.6h-1.1l1.8-3.4v0h-2v-0.8H77.1z"/>
</g>
<g id="XMLID_9_">
	<g id="XMLID_11_">
		<path id="XMLID_12_" class="st2" d="M101.5,21.8L101.5,21.8l-0.9,0.4l-0.2-0.8l1.2-0.6h0.9v4.6h-1V21.8z"/>
	</g>
	<path id="XMLID_10_" class="st5" d="M108.1,19.5c0,0-2.5-4.1-5.3-5.4c-2.8-1.3-2.2,1.5-0.9,3.4c1.3,1.9,5.9-0.6,7.3-0.8"/>
</g>
<g id="XMLID_1_">
	<g id="XMLID_3_">
		<path id="XMLID_7_" class="st2" d="M119.3,42.1v-0.6l0.6-0.5c1-0.9,1.5-1.4,1.5-1.9c0-0.4-0.2-0.7-0.8-0.7c-0.4,0-0.7,0.2-1,0.4
			l-0.3-0.8c0.3-0.3,0.9-0.5,1.5-0.5c1,0,1.6,0.6,1.6,1.4c0,0.8-0.6,1.4-1.2,2l-0.4,0.4v0h1.7v0.9H119.3z"/>
		<path id="XMLID_4_" class="st2" d="M124.3,40.8l-0.3,1.2h-1.1l1.5-4.8h1.4l1.5,4.8H126l-0.4-1.2H124.3z M125.5,40l-0.3-1
			c-0.1-0.3-0.2-0.6-0.2-0.9h0c-0.1,0.3-0.1,0.6-0.2,0.9l-0.3,1H125.5z"/>
	</g>
	<path id="XMLID_2_" class="st5" d="M128.6,37c0,0-2.5-4.1-5.3-5.4c-2.8-1.3-2.2,1.5-0.9,3.4c1.3,1.9,5.9-0.6,7.3-0.8"/>
</g>
</svg>
