<!-- Generator: Adobe Illustrator 22.1.0, SVG Export Plug-In  -->
<svg version="1.1"
	 xmlns="http://www.w3.org/2000/svg" xmlns:xlink="http://www.w3.org/1999/xlink" xmlns:a="http://ns.adobe.com/AdobeSVGViewerExtensions/3.0/"
	 x="0px" y="0px" width="159.5px" height="161.1px" viewBox="0 0 159.5 161.1" style="enable-background:new 0 0 159.5 161.1;"
	 xml:space="preserve">
<style type="text/css">
	.st0{fill:#E42E48;}
	.st1{fill:#EE4770;}
	.st2{fill:#FFFFFF;}
	.st3{fill:#2263AE;}
	.st4{fill:#2671B8;}
	.st5{fill:#42BB9F;}
	.st6{fill:#5BC0A2;}
	.st7{fill:#28A8E0;}
	.st8{fill:#33B2DE;}
	.st9{fill:#5E5F5E;}
	.st10{fill:url(#XMLID_237_);}
	.st11{fill:none;stroke:#FFFFFF;stroke-width:0.6297;stroke-miterlimit:10;}
	.st12{fill:url(#XMLID_254_);}
</style>
<defs>
</defs>
<g id="XMLID_228_">
	<path id="XMLID_236_" class="st0" d="M36.8,29.3c7.2,1.7,14.4-2.8,16-10l-26.1-6C25.1,20.5,29.6,27.6,36.8,29.3z"/>
	<path id="XMLID_235_" class="st1" d="M42.8,3.2c-7.2-1.7-14.4,2.8-16,10l26.1,6C54.5,12.1,50,4.9,42.8,3.2z"/>
	<g id="XMLID_234_">
		<g>
			<path class="st0" d="M43.2,1.4c-9.5-1.7-18.8,5-18.7,15.1c0.1,10.9,10.8,17.3,20.7,14.1c0.5-0.2,0.3-1-0.2-0.8
				c-9.3,3-19.5-3-19.6-13.3C25.3,6.9,34,0.6,43,2.2C43.5,2.3,43.8,1.5,43.2,1.4L43.2,1.4z"/>
		</g>
	</g>
	<g id="XMLID_230_">
		<path id="XMLID_231_" class="st2" d="M37,28.4c-6.7-1.5-10.9-8.2-9.4-15c1.5-6.7,8.2-10.9,14.9-9.4c6.7,1.5,10.9,8.3,9.4,15
			C50.4,25.8,43.7,30,37,28.4z M37.2,27.4c6.1,1.4,12.3-2.4,13.7-8.6c1.4-6.1-2.4-12.3-8.6-13.7c-6.1-1.4-12.3,2.4-13.7,8.6
			C27.2,19.8,31.1,26,37.2,27.4z"/>
	</g>
	<path id="XMLID_229_" class="st0" d="M45.9,28.8c0.6,0.1,1,0.8,0.9,1.4c-0.1,0.6-0.8,1-1.4,0.9c-0.6-0.1-1-0.8-0.9-1.4
		C44.6,29.1,45.3,28.7,45.9,28.8z"/>
</g>
<g id="XMLID_219_">
	<path id="XMLID_227_" class="st0" d="M17,59.3c7.3-1,12.5-7.7,11.5-15L2,47.8C3,55.1,9.7,60.2,17,59.3z"/>
	<path id="XMLID_226_" class="st1" d="M13.5,32.8c-7.3,1-12.5,7.7-11.5,15l26.5-3.5C27.6,36.9,20.9,31.8,13.5,32.8z"/>
	<g id="XMLID_225_">
		<g>
			<path class="st0" d="M13.2,30.9c-9.7,1.7-16,11.7-12,21.2c4.2,9.8,16.3,11.8,24.2,5.4c0.4-0.4-0.2-1-0.6-0.6
				c-7.9,6.3-20,3.6-23.2-6.4c-2.8-8.8,3.2-17.2,11.9-18.7C14,31.6,13.8,30.8,13.2,30.9L13.2,30.9z"/>
		</g>
	</g>
	<g id="XMLID_221_">
		<path id="XMLID_222_" class="st2" d="M16.9,58.4c-6.8,0.9-13.1-3.9-14-10.7c-0.9-6.8,3.9-13.1,10.7-14c6.8-0.9,13.1,3.9,14,10.7
			C28.5,51.2,23.7,57.5,16.9,58.4z M16.8,57.3c6.2-0.8,10.6-6.6,9.8-12.8c-0.8-6.2-6.6-10.6-12.8-9.8C7.6,35.5,3.1,41.3,4,47.5
			C4.8,53.7,10.5,58.2,16.8,57.3z"/>
	</g>
	<path id="XMLID_220_" class="st0" d="M25.4,55.7c0.6-0.1,1.2,0.4,1.3,1c0.1,0.6-0.4,1.2-1,1.3c-0.6,0.1-1.2-0.4-1.3-1
		C24.3,56.3,24.8,55.8,25.4,55.7z"/>
</g>
<g id="XMLID_209_">
	<path id="XMLID_218_" class="st3" d="M55.3,145.9c0,7.4,5.9,13.3,13.3,13.4v-26.7C61.3,132.5,55.3,138.5,55.3,145.9z"/>
	<path id="XMLID_217_" class="st4" d="M82.1,145.9c0-7.4-6-13.4-13.4-13.4c0,0-0.1,0-0.1,0v26.7c0,0,0.1,0,0.1,0
		C76.1,159.2,82.1,153.3,82.1,145.9z"/>
	<g id="XMLID_214_">
		<g id="XMLID_216_">
			<g>
				<path class="st3" d="M68.7,130.6c-13.1,0.6-20.5,16.4-10.8,26.1c9.7,9.7,25.5,2.3,26.1-10.8c0-0.6-0.9-0.6-0.9,0
					c-0.6,12.3-15.4,19.4-24.6,10.2c-9.2-9.2-2.1-24,10.2-24.6C69.3,131.4,69.3,130.6,68.7,130.6L68.7,130.6z"/>
			</g>
		</g>
		<path id="XMLID_215_" class="st3" d="M70,130.9c0,0.6-0.5,1.2-1.2,1.2c-0.6,0-1.2-0.5-1.2-1.2c0-0.6,0.5-1.2,1.2-1.2
			C69.5,129.7,70,130.3,70,130.9z"/>
	</g>
	<g id="XMLID_210_">
		<path id="XMLID_211_" class="st2" d="M81.2,145.9c0,6.9-5.6,12.5-12.5,12.5c-6.9,0-12.5-5.6-12.5-12.5c0-6.9,5.6-12.5,12.5-12.5
			C75.6,133.4,81.2,139,81.2,145.9z M80.1,145.9c0-6.3-5.1-11.4-11.4-11.4c-6.3,0-11.4,5.1-11.4,11.4c0,6.3,5.1,11.4,11.4,11.4
			C75,157.3,80.1,152.2,80.1,145.9z"/>
	</g>
</g>
<g id="XMLID_199_">
	<path id="XMLID_208_" class="st5" d="M125.8,45.8c5,5,13.1,5.1,18.1,0.1l-18-18.3C120.9,32.7,120.9,40.8,125.8,45.8z"/>
	<path id="XMLID_207_" class="st6" d="M144.1,27.8c-5-5-13.1-5.1-18.1-0.1L144,46C149,41,149.1,32.9,144.1,27.8z"/>
	<g id="XMLID_203_">
		<path id="XMLID_204_" class="st2" d="M126.4,45.2c-4.6-4.7-4.6-12.3,0.1-16.9c4.7-4.6,12.3-4.6,16.9,0.1
			c4.6,4.7,4.6,12.3-0.1,16.9C138.7,50,131.1,49.9,126.4,45.2z M127.2,44.5c4.2,4.3,11.2,4.3,15.5,0.1c4.3-4.2,4.3-11.2,0.1-15.5
			c-4.2-4.3-11.2-4.3-15.5-0.1C123,33.3,122.9,40.2,127.2,44.5z"/>
	</g>
	<g id="XMLID_200_">
		<g id="XMLID_202_">
			<g>
				<path class="st5" d="M145.2,47.3c8.6-9.2,3-25-10.2-25.1c-13.2-0.1-19,15.7-10.5,25c0.4,0.4,1-0.2,0.6-0.6
					c-8-8.8-2.4-23.5,9.9-23.5c12.5,0,17.6,15.1,9.6,23.6C144.3,47.1,144.9,47.7,145.2,47.3L145.2,47.3z"/>
			</g>
		</g>
		<path id="XMLID_201_" class="st5" d="M125.6,46.2c0.4,0.4,0.4,1.2,0,1.6c-0.4,0.4-1.2,0.4-1.6,0c-0.4-0.4-0.4-1.2,0-1.6
			C124.5,45.7,125.2,45.7,125.6,46.2z"/>
	</g>
</g>
<g id="XMLID_189_">
	<path id="XMLID_198_" class="st5" d="M105.3,25.7c6.1,3.6,14,1.6,17.6-4.6l-22.1-13C97.1,14.3,99.1,22.1,105.3,25.7z"/>
	<path id="XMLID_197_" class="st6" d="M118.3,3.6c-6.1-3.6-14-1.6-17.6,4.6l22.1,13C126.4,15.1,124.4,7.2,118.3,3.6z"/>
	<g id="XMLID_193_">
		<path id="XMLID_194_" class="st2" d="M105.7,25c-5.7-3.3-7.6-10.7-4.2-16.4c3.3-5.7,10.7-7.6,16.4-4.2c5.7,3.3,7.6,10.7,4.2,16.4
			C118.7,26.4,111.4,28.3,105.7,25z M106.2,24.1c5.2,3.1,11.9,1.3,15-3.9c3.1-5.2,1.3-11.9-3.9-15c-5.2-3.1-11.9-1.3-15,3.9
			C99.3,14.3,101,21.1,106.2,24.1z"/>
	</g>
	<g id="XMLID_190_">
		<g id="XMLID_192_">
			<g>
				<path class="st5" d="M124.4,22.1c5.8-11.1-3.5-24.9-16.3-21.6c-12.8,3.3-14.2,19.9-3.7,26.8c0.5,0.3,0.9-0.4,0.4-0.7
					c-9.9-6.4-8.5-22.1,3.5-25.3c12.1-3.1,20.9,9.9,15.4,20.4C123.4,22.2,124.1,22.6,124.4,22.1L124.4,22.1z"/>
			</g>
		</g>
		<path id="XMLID_191_" class="st5" d="M105.1,26.1c0.5,0.3,0.7,1,0.4,1.5c-0.3,0.5-1,0.7-1.5,0.4c-0.5-0.3-0.7-1-0.4-1.5
			C103.9,26,104.6,25.8,105.1,26.1z"/>
	</g>
</g>
<g id="XMLID_177_">
	<path id="XMLID_188_" class="st7" d="M93.2,145.8c3.3,6.3,11.1,8.6,17.4,5.3c6.3-3.3,8.6-11.1,5.3-17.4c0-0.1-0.1-0.1-0.1-0.2
		l-22.7,12.1C93.2,145.7,93.2,145.8,93.2,145.8z"/>
	<path id="XMLID_187_" class="st8" d="M98.5,128.4c-6.2,3.3-8.6,11-5.4,17.2l22.7-12.1C112.5,127.4,104.8,125.1,98.5,128.4z"/>
	<g id="XMLID_184_">
		<g id="XMLID_186_">
			<g>
				<path class="st7" d="M97.7,126.8c-10.8,6.4-10,23.2,2.7,27c12.7,3.9,22.6-9.6,17.2-21c-0.2-0.5-1-0.1-0.7,0.4
					c5.1,10.7-4.3,23.4-16.3,19.7c-12-3.7-12.6-19.4-2.5-25.5C98.6,127.3,98.1,126.5,97.7,126.8L97.7,126.8z"/>
			</g>
		</g>
		<path id="XMLID_185_" class="st7" d="M97.5,126.1c0.5-0.3,1.2-0.1,1.5,0.5c0.3,0.6,0.1,1.2-0.5,1.5c-0.5,0.3-1.2,0.1-1.5-0.5
			C96.7,127.1,96.9,126.4,97.5,126.1z"/>
	</g>
	<path id="XMLID_183_" class="st9" d="M99.1,129.5c-0.1,0-0.1,0.1-0.1,0.2c0.1-0.1,0.1-0.1,0.2-0.2
		C99.2,129.5,99.2,129.5,99.1,129.5z"/>
	<g id="XMLID_179_">
		<path id="XMLID_180_" class="st2" d="M115.2,134.2c3.1,5.8,0.9,13.1-4.9,16.2c-5.8,3.1-13.1,0.9-16.2-4.9
			c-3.1-5.8-0.9-13.1,4.9-16.2C104.8,126.1,112.1,128.3,115.2,134.2z M94.9,145c2.8,5.3,9.5,7.4,14.9,4.5c5.3-2.8,7.4-9.5,4.5-14.9
			c-2.8-5.3-9.5-7.4-14.9-4.5C94.1,133,92.1,139.6,94.9,145z"/>
	</g>
	<path id="XMLID_178_" class="st9" d="M106.5,143.4C106.5,143.3,106.6,143.3,106.5,143.4c0-0.1-0.1-0.1-0.2-0.1
		C106.4,143.4,106.5,143.4,106.5,143.4z"/>
</g>
<g id="XMLID_165_">
	<path id="XMLID_176_" class="st7" d="M120.6,130.5c4.9,5.1,13.1,5.3,18.2,0.4c5.1-4.9,5.3-13.1,0.4-18.2c0,0-0.1-0.1-0.1-0.1
		l-18.6,17.8C120.5,130.4,120.6,130.5,120.6,130.5z"/>
	<path id="XMLID_175_" class="st8" d="M121,112.3c-5.1,4.9-5.3,12.9-0.5,18l18.6-17.8C134.2,107.6,126.1,107.5,121,112.3z"/>
	<g id="XMLID_172_">
		<g id="XMLID_174_">
			<g>
				<path class="st7" d="M119.8,111c-8.8,9.1-3.3,25,9.8,25.3c13.2,0.3,19.2-15.4,10.9-24.9c-0.4-0.4-1,0.2-0.6,0.6
					c7.9,9,2,23.6-10.3,23.4c-12.5-0.2-17.4-15.4-9.2-23.9C120.7,111.2,120.1,110.6,119.8,111L119.8,111z"/>
			</g>
		</g>
		<path id="XMLID_173_" class="st7" d="M119.4,110.4c0.5-0.4,1.2-0.4,1.6,0c0.4,0.5,0.4,1.2,0,1.6c-0.5,0.4-1.2,0.4-1.6,0
			C118.9,111.5,118.9,110.8,119.4,110.4z"/>
	</g>
	<path id="XMLID_171_" class="st9" d="M121.9,113.2c0,0,0,0.1,0,0.2c0-0.1,0.1-0.2,0.1-0.2C122,113.1,121.9,113.2,121.9,113.2z"/>
	<g id="XMLID_167_">
		<path id="XMLID_168_" class="st2" d="M138.6,113.3c4.6,4.8,4.4,12.4-0.4,17c-4.8,4.6-12.4,4.4-17-0.4c-4.6-4.8-4.4-12.4,0.4-17
			C126.4,108.4,134,108.6,138.6,113.3z M122,129.2c4.2,4.4,11.1,4.5,15.5,0.3c4.4-4.2,4.5-11.1,0.3-15.5c-4.2-4.4-11.1-4.5-15.5-0.3
			C118,117.9,117.8,124.8,122,129.2z"/>
	</g>
	<path id="XMLID_166_" class="st9" d="M132.7,124.5c0,0,0-0.1,0-0.1c-0.1,0-0.2,0.1-0.2,0.1C132.6,124.6,132.7,124.6,132.7,124.5z"
		/>
</g>
<g id="XMLID_153_">
	<path id="XMLID_164_" class="st7" d="M141.7,106.3c6.9,1.8,13.9-2.3,15.7-9.1c1.8-6.9-2.3-13.9-9.1-15.7c-0.1,0-0.1,0-0.2,0
		l-6.6,24.9C141.5,106.3,141.6,106.3,141.7,106.3z"/>
	<path id="XMLID_163_" class="st8" d="M132.5,90.6c-1.8,6.8,2.2,13.8,8.9,15.7l6.6-24.9C141.3,79.7,134.3,83.8,132.5,90.6z"/>
	<g id="XMLID_160_">
		<g id="XMLID_162_">
			<g>
				<path class="st7" d="M130.8,90.1c-2.6,12.3,10.1,23.1,21.6,16.5c11.5-6.7,8.4-23.1-3.6-26.9c-0.5-0.2-0.7,0.7-0.2,0.8
					c11.3,3.6,14.2,19.1,3.4,25.4c-10.8,6.3-22.8-4-20.3-15.5C131.7,89.8,130.9,89.6,130.8,90.1L130.8,90.1z"/>
			</g>
		</g>
		<path id="XMLID_161_" class="st7" d="M130.1,89.8c0.2-0.6,0.8-1,1.4-0.8c0.6,0.2,1,0.8,0.8,1.4c-0.2,0.6-0.8,1-1.4,0.8
			C130.3,91,130,90.4,130.1,89.8z"/>
	</g>
	<path id="XMLID_159_" class="st9" d="M133.7,90.9c0,0.1,0,0.1,0.1,0.2C133.8,91,133.8,90.9,133.7,90.9
		C133.8,90.8,133.7,90.8,133.7,90.9z"/>
	<g id="XMLID_155_">
		<path id="XMLID_156_" class="st2" d="M148,82.3c6.4,1.7,10.2,8.3,8.5,14.7c-1.7,6.4-8.3,10.2-14.7,8.5c-6.4-1.7-10.2-8.3-8.5-14.7
			C135.1,84.4,141.7,80.6,148,82.3z M142.2,104.5c5.9,1.6,11.9-1.9,13.4-7.8c1.6-5.9-1.9-11.9-7.8-13.4c-5.9-1.6-11.9,1.9-13.4,7.8
			C132.8,96.9,136.3,103,142.2,104.5z"/>
	</g>
	<path id="XMLID_154_" class="st9" d="M148.9,94.9c0,0,0-0.1,0-0.1c-0.1,0.1-0.1,0.2-0.2,0.2C148.8,95,148.9,95,148.9,94.9z"/>
</g>
<g id="XMLID_141_">
	<path id="XMLID_151_" class="st2" d="M33,15.1h-1.6l-0.1,0.6c0.1,0,0.2,0,0.3,0c0.4,0,0.8,0.1,1.1,0.3c0.3,0.2,0.5,0.5,0.5,1
		c0,0.8-0.7,1.4-1.8,1.4c-0.5,0-0.9-0.1-1.1-0.2l0.2-0.7c0.2,0.1,0.6,0.2,0.9,0.2c0.4,0,0.8-0.2,0.8-0.6c0-0.4-0.3-0.7-1.2-0.7
		c-0.2,0-0.4,0-0.6,0l0.3-2.1H33V15.1z"/>
	<path id="XMLID_149_" class="st2" d="M34.7,14.1v1.6h1.6v-1.6h1v4.2h-1v-1.8h-1.6v1.8h-1v-4.2H34.7z"/>
	<path id="XMLID_147_" class="st2" d="M38.7,14.9h-1.1v-0.8h3.3v0.8h-1.2v3.4h-1V14.9z"/>
	<path id="XMLID_145_" class="st2" d="M42.3,15.1L42.3,15.1l-0.8,0.4l-0.2-0.7l1.1-0.5h0.8v4.1h-0.9V15.1z"/>
	<path id="XMLID_142_" class="st2" d="M45.5,17.3l-0.3,1.1h-1l1.3-4.2h1.3l1.3,4.2h-1l-0.3-1.1H45.5z M46.6,16.6l-0.3-0.9
		c-0.1-0.3-0.2-0.6-0.2-0.8h0c-0.1,0.3-0.1,0.6-0.2,0.8l-0.3,0.9H46.6z"/>
</g>
<g id="XMLID_129_">
	<path id="XMLID_139_" class="st2" d="M8.5,45H6.9l-0.1,0.6c0.1,0,0.2,0,0.3,0c0.4,0,0.8,0.1,1.1,0.3c0.3,0.2,0.5,0.5,0.5,1
		c0,0.8-0.7,1.4-1.8,1.4c-0.5,0-0.9-0.1-1.1-0.2l0.2-0.7c0.2,0.1,0.6,0.2,0.9,0.2c0.4,0,0.8-0.2,0.8-0.6c0-0.4-0.3-0.7-1.2-0.7
		c-0.2,0-0.4,0-0.6,0l0.3-2.1h2.3V45z"/>
	<path id="XMLID_137_" class="st2" d="M10.2,44.1v1.6h1.6v-1.6h1v4.2h-1v-1.8h-1.6v1.8h-1v-4.2H10.2z"/>
	<path id="XMLID_135_" class="st2" d="M14.2,44.9h-1.1v-0.8h3.3v0.8h-1.2v3.4h-1V44.9z"/>
	<path id="XMLID_133_" class="st2" d="M16.6,48.3v-0.6l0.5-0.5c0.9-0.8,1.3-1.3,1.3-1.7c0-0.3-0.2-0.6-0.7-0.6
		c-0.4,0-0.7,0.2-0.9,0.3l-0.3-0.7c0.3-0.2,0.8-0.4,1.3-0.4c0.9,0,1.4,0.5,1.4,1.3c0,0.7-0.5,1.2-1.1,1.8l-0.4,0.3v0h1.5v0.8H16.6z"
		/>
	<path id="XMLID_130_" class="st2" d="M21,47.2l-0.3,1.1h-1l1.3-4.2h1.3l1.3,4.2h-1l-0.3-1.1H21z M22.1,46.5l-0.3-0.9
		c-0.1-0.3-0.2-0.6-0.2-0.8h0c-0.1,0.3-0.1,0.6-0.2,0.8l-0.3,0.9H22.1z"/>
</g>
<g id="XMLID_64_">
	<radialGradient id="XMLID_237_" cx="77.5484" cy="75.5541" r="54.4653" gradientUnits="userSpaceOnUse">
		<stop  offset="0" style="stop-color:#2CABE1"/>
		<stop  offset="0.8349" style="stop-color:#306AB3"/>
	</radialGradient>
	<path id="XMLID_128_" class="st10" d="M132,75.6c0,30.1-24.4,54.5-54.5,54.5c-30.1,0-54.5-24.4-54.5-54.5
		c0-30.1,24.4-54.5,54.5-54.5C107.6,21.1,132,45.5,132,75.6z"/>
	<g id="XMLID_65_">
		<g id="XMLID_67_">
			<path id="XMLID_95_" class="st2" d="M34.8,76.7h-0.2v4.1h-2.8V69.3h4c2.7,0,4.6,1,4.6,3.6c0,1.9-1.1,3.1-2.7,3.6l3.5,4.3h-3.3
				L34.8,76.7z M35.6,74.8c1.2,0,1.9-0.6,1.9-1.7c0-1.1-0.7-1.6-1.9-1.6h-0.9v3.4H35.6z"/>
			<path id="XMLID_92_" class="st2" d="M42.2,69.2c0-0.8,0.5-1.3,1.4-1.3c0.9,0,1.4,0.5,1.4,1.3c0,0.8-0.6,1.3-1.4,1.3
				C42.7,70.5,42.2,70,42.2,69.2z M42.2,71.4h2.8v9.3h-2.8V71.4z"/>
			<path id="XMLID_90_" class="st2" d="M46.6,80.3v-2.4c0.6,0.6,1.5,1.1,2.8,1.1c1.2,0,1.6-0.4,1.6-0.9c0-0.5-0.2-0.7-1.3-0.8
				l-0.5-0.1c-1.9-0.3-2.8-1.2-2.8-2.9c0-1.6,1.1-3.1,3.8-3.1c1.4,0,2.4,0.3,2.9,0.8v2.4c-0.6-0.7-1.6-1-2.8-1
				c-1.1,0-1.4,0.3-1.4,0.8s0.2,0.7,1.2,0.9l0.5,0.1c2.1,0.3,3,1.1,3,2.8c0,1.6-1.1,3.2-4,3.2C48.1,81,47.2,80.7,46.6,80.3z"/>
			<path id="XMLID_87_" class="st2" d="M55,71.4h2.4l0.2,0.8c0.3-0.5,1.1-1.1,2.4-1.1c2.3,0,3.8,1.3,3.8,4.7c0,3.4-1.8,5.2-4.1,5.2
				c-0.7,0-1.6-0.2-2-0.6V84H55V71.4z M61.1,76c0-1.6-0.5-2.6-1.8-2.6c-0.8,0-1.3,0.3-1.6,0.7v4.2c0.3,0.4,0.9,0.6,1.5,0.6
				C60.6,78.9,61.1,77.6,61.1,76z"/>
			<path id="XMLID_84_" class="st2" d="M65,76.1c0-3.4,2.2-4.9,4.5-4.9c2.2,0,4.3,1,4.3,4.5v1.2h-6c0.1,1.1,0.8,1.9,2.5,1.9
				c1.6,0,2.5-0.6,3-1.1V80c-0.5,0.5-1.6,1-3.5,1C66.8,81,65,79.5,65,76.1z M71.2,75.2L71.2,75.2c0-1.2-0.5-1.9-1.7-1.9
				c-1.1,0-1.7,0.9-1.7,1.9H71.2z"/>
			<path id="XMLID_82_" class="st2" d="M75.3,71.4h2.3l0.2,1.2c0.1-1,0.9-1.5,1.8-1.5c0.5,0,0.8,0.1,0.9,0.2v2.5
				c-0.2-0.2-0.6-0.3-1.1-0.3c-0.7,0-1.1,0.3-1.4,0.8v6.4h-2.8V71.4z"/>
			<path id="XMLID_79_" class="st2" d="M81.7,69.2c0-0.8,0.5-1.3,1.4-1.3c0.9,0,1.4,0.5,1.4,1.3c0,0.8-0.6,1.3-1.4,1.3
				C82.2,70.5,81.7,70,81.7,69.2z M81.7,71.4h2.8v9.3h-2.8V71.4z"/>
			<path id="XMLID_76_" class="st2" d="M86,76.2c0-3.4,1.7-5,4.1-5c0.7,0,1.6,0.2,2,0.6v-3.7h2.8v12.7h-2.4l-0.2-0.8
				c-0.3,0.5-1.1,1.1-2.4,1.1C87.5,81,86,79.6,86,76.2z M92.1,73.9c-0.3-0.4-0.9-0.6-1.5-0.6c-1.3,0-1.8,1.3-1.8,2.9
				c0,1.6,0.4,2.6,1.7,2.6c0.8,0,1.3-0.3,1.6-0.7V73.9z"/>
			<path id="XMLID_73_" class="st2" d="M96.3,76.1c0-3.4,2.2-4.9,4.8-4.9c2.7,0,4.6,1.5,4.6,4.9c0,3.5-2.2,4.9-4.8,4.9
				C98.2,81,96.3,79.5,96.3,76.1z M102.9,76.1c0-1.6-0.6-2.7-1.9-2.7c-1.3,0-1.9,1.1-1.9,2.7c0,1.6,0.6,2.7,1.9,2.7
				C102.3,78.8,102.9,77.7,102.9,76.1z"/>
			<path id="XMLID_71_" class="st2" d="M107.2,71.4h2.4l0.2,0.8c0.4-0.6,1.2-1.1,2.5-1.1c2.4,0,3.4,1.3,3.4,3.8v5.8h-2.8v-5.3
				c0-1.5-0.4-2.1-1.4-2.1c-0.8,0-1.3,0.4-1.5,0.8v6.7h-2.8V71.4z"/>
			<path id="XMLID_68_" class="st2" d="M117.1,76.1c0-3.4,2.2-4.9,4.5-4.9c2.2,0,4.3,1,4.3,4.5v1.2h-6c0.1,1.1,0.8,1.9,2.5,1.9
				c1.6,0,2.5-0.6,3-1.1V80c-0.5,0.5-1.6,1-3.5,1C118.9,81,117.1,79.5,117.1,76.1z M123.3,75.2L123.3,75.2c0-1.2-0.5-1.9-1.7-1.9
				c-1.1,0-1.7,0.9-1.7,1.9H123.3z"/>
		</g>
	</g>
</g>
<g id="XMLID_51_">
	<g id="XMLID_53_">
		<path id="XMLID_56_" class="st2" d="M140.5,90.8c0.4-0.1,1-0.1,1.6-0.1c1,0,1.7,0.2,2.2,0.6c0.6,0.4,0.9,1.1,0.9,2
			c0,1-0.4,1.7-0.9,2.1c-0.6,0.5-1.4,0.7-2.4,0.7c-0.6,0-1.1,0-1.4-0.1V90.8z M141.7,95.1c0.1,0,0.3,0,0.4,0c1.1,0,1.8-0.6,1.8-1.9
			c0-1.1-0.6-1.7-1.7-1.7c-0.3,0-0.4,0-0.5,0V95.1z"/>
		<path id="XMLID_54_" class="st2" d="M145.6,96v-0.7l0.7-0.6c1.1-1,1.7-1.6,1.7-2.2c0-0.4-0.3-0.7-0.8-0.7c-0.4,0-0.8,0.2-1.1,0.4
			l-0.3-0.9c0.4-0.3,1-0.5,1.7-0.5c1.2,0,1.8,0.7,1.8,1.6c0,0.9-0.6,1.5-1.4,2.2l-0.5,0.4v0h1.9v1H145.6z"/>
	</g>
</g>
<g id="XMLID_38_">
	<g id="XMLID_40_">
		<path id="XMLID_43_" class="st2" d="M125.7,118.7c0.4-0.1,1-0.1,1.6-0.1c1,0,1.7,0.2,2.2,0.6c0.6,0.4,0.9,1.1,0.9,2
			c0,1-0.4,1.7-0.9,2.1c-0.6,0.5-1.4,0.7-2.4,0.7c-0.6,0-1.1,0-1.4-0.1V118.7z M126.9,123c0.1,0,0.3,0,0.4,0c1.1,0,1.8-0.6,1.8-1.9
			c0-1.1-0.6-1.7-1.7-1.7c-0.3,0-0.4,0-0.5,0V123z"/>
		<path id="XMLID_41_" class="st2" d="M131,122.7c0.2,0.1,0.7,0.3,1.2,0.3c0.6,0,0.9-0.3,0.9-0.7c0-0.5-0.5-0.7-1-0.7h-0.5v-0.9h0.5
			c0.4,0,0.9-0.2,0.9-0.6c0-0.3-0.3-0.5-0.8-0.5c-0.4,0-0.9,0.2-1.1,0.3l-0.2-0.9c0.3-0.2,0.9-0.4,1.6-0.4c1.1,0,1.7,0.6,1.7,1.3
			c0,0.5-0.3,1-0.9,1.2v0c0.6,0.1,1.1,0.6,1.1,1.2c0,0.9-0.8,1.6-2.1,1.6c-0.7,0-1.2-0.2-1.5-0.4L131,122.7z"/>
	</g>
</g>
<g id="XMLID_23_">
	<g id="XMLID_25_">
		<path id="XMLID_29_" class="st2" d="M100,137.5c0.4-0.1,1-0.1,1.6-0.1c1,0,1.7,0.2,2.2,0.6c0.6,0.4,0.9,1.1,0.9,2
			c0,1-0.4,1.7-0.9,2.1c-0.6,0.5-1.4,0.7-2.4,0.7c-0.6,0-1.1,0-1.4-0.1V137.5z M101.2,141.8c0.1,0,0.3,0,0.4,0
			c1.1,0,1.8-0.6,1.8-1.9c0-1.1-0.6-1.7-1.7-1.7c-0.3,0-0.4,0-0.5,0V141.8z"/>
		<path id="XMLID_26_" class="st2" d="M107.2,142.7v-1.2H105v-0.8l1.9-3.1h1.5v3h0.6v0.9h-0.6v1.2H107.2z M107.2,140.6v-1.1
			c0-0.3,0-0.6,0-1h0c-0.2,0.3-0.3,0.6-0.5,1l-0.7,1.1v0H107.2z"/>
	</g>
</g>
<g id="XMLID_14_">
	<path id="XMLID_21_" class="st2" d="M63.7,144.7h-1.8l-0.1,0.7c0.1,0,0.2,0,0.3,0c0.5,0,0.9,0.1,1.3,0.3c0.4,0.2,0.6,0.6,0.6,1.2
		c0,0.9-0.8,1.7-2,1.7c-0.6,0-1.1-0.1-1.3-0.3l0.2-0.8c0.2,0.1,0.6,0.2,1.1,0.2c0.5,0,1-0.2,1-0.7c0-0.5-0.4-0.8-1.3-0.8
		c-0.3,0-0.4,0-0.6,0l0.3-2.5h2.6V144.7z"/>
	<path id="XMLID_19_" class="st2" d="M65.7,143.6v1.9h1.8v-1.9h1.1v4.9h-1.1v-2.1h-1.8v2.1h-1.1v-4.9H65.7z"/>
	<path id="XMLID_17_" class="st2" d="M70.4,144.5h-1.3v-0.9h3.8v0.9h-1.3v4h-1.1V144.5z"/>
	<path id="XMLID_15_" class="st2" d="M76.6,143.7v0.7l-2,4.1h-1.2l2-3.8v0h-2.2v-0.9H76.6z"/>
</g>
<g id="XMLID_9_">
	<g id="XMLID_11_">
		<path id="XMLID_12_" class="st2" d="M109.3,16.7L109.3,16.7l-1,0.5l-0.2-0.9l1.4-0.6h1v5.1h-1.2V16.7z"/>
	</g>
	<path id="XMLID_10_" class="st11" d="M116.5,14.2c0,0-2.8-4.6-5.9-6c-3.1-1.5-2.5,1.7-1.1,3.8c1.4,2.1,6.6-0.6,8.1-0.9"/>
</g>
<g id="XMLID_1_">
	<g id="XMLID_3_">
		<path id="XMLID_7_" class="st2" d="M130.6,41v-0.7l0.7-0.6c1.1-1,1.7-1.6,1.7-2.2c0-0.4-0.3-0.7-0.8-0.7c-0.4,0-0.8,0.2-1.1,0.4
			l-0.3-0.9c0.4-0.3,1-0.5,1.7-0.5c1.2,0,1.8,0.7,1.8,1.6c0,0.9-0.6,1.5-1.4,2.2l-0.5,0.4v0h1.9v1H130.6z"/>
		<path id="XMLID_4_" class="st2" d="M136.2,39.7l-0.4,1.4h-1.2l1.6-5.3h1.6l1.6,5.3h-1.3l-0.4-1.4H136.2z M137.5,38.8l-0.3-1.1
			c-0.1-0.3-0.2-0.7-0.3-1h0c-0.1,0.3-0.2,0.7-0.2,1l-0.3,1.1H137.5z"/>
	</g>
	<path id="XMLID_2_" class="st11" d="M141,35.4c0,0-2.8-4.6-5.9-6c-3.1-1.5-2.5,1.7-1.1,3.8c1.4,2.1,6.6-0.6,8.1-0.9"/>
</g>
</svg>
