<!-- Generator: Adobe Illustrator 22.1.0, SVG Export Plug-In  -->
<svg version="1.1"
	 xmlns="http://www.w3.org/2000/svg" xmlns:xlink="http://www.w3.org/1999/xlink" xmlns:a="http://ns.adobe.com/AdobeSVGViewerExtensions/3.0/"
	 x="0px" y="0px" width="785.5px" height="66.2px" viewBox="0 0 785.5 66.2" style="enable-background:new 0 0 785.5 66.2;"
	 xml:space="preserve">
<style type="text/css">
	.st0{fill:#7F3F97;}
	.st1{fill:#231F20;}
	.st2{fill:#490E67;}
	.st3{fill:#C29FD8;}
</style>
<defs>
</defs>
<g id="XMLID_46_">
	<g id="XMLID_48_">
		<path id="XMLID_498_" class="st0" d="M1,16.2v-3.7c0.8,0.9,2.5,1.7,4.5,1.7c1.9,0,2.8-0.6,2.8-1.7c0-0.9-0.6-1.3-2.3-1.6l-0.6-0.1
			C2.7,10.4,0.9,9,0.9,6.3c0-3,2.4-4.8,6.3-4.8c2.5,0,4,0.6,4.6,1.1v3.7C11,5.3,9.4,4.5,7.2,4.5C5.7,4.5,4.9,5,4.9,6
			c0,0.9,0.4,1.3,2,1.6l0.6,0.1c2.9,0.5,4.8,1.6,4.8,4.4c0,3-2.4,5.1-6.7,5.1C3.1,17.3,1.6,16.7,1,16.2z"/>
		<path id="XMLID_496_" class="st0" d="M15.3,13.4V7.5h-1.6V6.2L15,4.7l2.5-2.9h1.9v2.9h3.2v2.8h-3.2V13c0,0.9,0.3,1.3,1.2,1.3
			c0.9,0,1.6-0.4,2-1v3c-0.5,0.5-1.4,1-3.1,1C16.5,17.3,15.3,15.8,15.3,13.4z"/>
		<path id="XMLID_494_" class="st0" d="M24.6,12.3V4.7h4.1v7c0,2,0.4,2.8,2,2.8c1.2,0,1.8-0.5,2.2-1V4.7h4v12.3h-3.6L33,15.9
			c-0.6,0.8-1.8,1.4-3.6,1.4C25.9,17.3,24.6,15.6,24.6,12.3z"/>
		<path id="XMLID_491_" class="st0" d="M39.2,11c0-4.5,2.5-6.6,6.1-6.6c1.1,0,2.3,0.2,2.9,0.8V0.2h4.1v16.7h-3.6l-0.3-1.1
			c-0.5,0.7-1.6,1.4-3.6,1.4C41.5,17.3,39.2,15.4,39.2,11z M48.2,7.9c-0.5-0.6-1.3-0.8-2.2-0.8c-1.9,0-2.6,1.7-2.6,3.8
			c0,2.1,0.6,3.4,2.6,3.4c1.2,0,2-0.4,2.3-0.9V7.9z"/>
		<path id="XMLID_489_" class="st0" d="M54.4,20.9V18c0.6,0.5,1.4,0.9,2.4,0.9c0.9,0,1.8-0.3,2.4-1.6L53.8,4.7h4.4l2.8,8l2.4-8h3.9
			l-3.9,11.6c-1,3-2.7,5.3-6.3,5.3C55.9,21.6,54.9,21.3,54.4,20.9z"/>
		<path id="XMLID_486_" class="st0" d="M75.1,1.8h5.5c5.8,0,9.1,1.9,9.1,7.5c0,5.6-4.1,7.6-9.1,7.6h-5.5V1.8z M80.5,13.9
			c3.7,0,4.9-1.3,4.9-4.4c0-3.1-1.2-4.5-4.9-4.5h-1.3v9H80.5z"/>
		<path id="XMLID_483_" class="st0" d="M91.3,10.8c0-4.5,3.3-6.5,6.7-6.5c3.3,0,6.3,1.3,6.3,5.9v1.6h-8.9c0.1,1.4,1.1,2.5,3.7,2.5
			c2.3,0,3.7-0.7,4.5-1.4v3c-0.7,0.6-2.4,1.4-5.1,1.4C94,17.3,91.3,15.2,91.3,10.8z M100.5,9.6V9.5c0-1.5-0.7-2.3-2.5-2.3
			c-1.6,0-2.5,1.2-2.5,2.5H100.5z"/>
		<path id="XMLID_481_" class="st0" d="M106.2,16.3v-3.2c0.9,0.8,2.2,1.4,4.1,1.4c1.8,0,2.3-0.5,2.3-1.1c0-0.7-0.3-0.9-1.9-1.1
			l-0.7-0.1c-2.8-0.4-4.1-1.6-4.1-3.8c0-2.1,1.6-4,5.7-4c2.1,0,3.6,0.4,4.3,1v3.2c-0.9-0.9-2.3-1.3-4.2-1.3c-1.6,0-2.1,0.4-2.1,1
			s0.3,0.9,1.7,1.1l0.7,0.1c3,0.4,4.4,1.4,4.4,3.7c0,2.1-1.7,4.2-6,4.2C108.3,17.3,106.9,16.8,106.2,16.3z"/>
		<path id="XMLID_478_" class="st0" d="M118.5,1.7c0-1.1,0.8-1.7,2.1-1.7c1.3,0,2.1,0.6,2.1,1.7s-0.8,1.7-2.1,1.7
			C119.3,3.4,118.5,2.8,118.5,1.7z M118.6,4.7h4.1v12.3h-4.1V4.7z"/>
		<path id="XMLID_475_" class="st0" d="M124.8,20.4v-2.7c1.3,0.7,3,1.1,5.8,1.1c3.2,0,4.6-0.4,4.6-1.3c0-0.8-0.8-0.9-2.8-0.9
			c-2.1,0-5.1,0.4-6.1,0.8V15l1.9-2.5c-2.1-0.6-3.2-1.9-3.2-3.9c0-2.7,2.4-4.3,6.1-4.3c1.6,0,2.9,0.3,3.9,0.9c0.4-0.6,1.5-1,2.6-1
			c0.4,0,0.8,0,1.2,0.2v2.7c-0.2-0.1-0.6-0.2-0.9-0.2c-0.5,0-0.9,0.1-1.2,0.3c0.1,0.4,0.2,0.9,0.2,1.4c0,2.7-2.4,4.2-6.1,4.2h-0.2
			l-1,1.5c0.6-0.2,2.2-0.4,3.6-0.4c3.4,0,5.7,0.7,5.7,3.3c0,2.6-2.7,4.2-7.8,4.2C128.1,21.6,125.9,21.1,124.8,20.4z M133.1,8.6
			c0-1.1-0.8-1.7-2.2-1.7c-1.4,0-2.2,0.6-2.2,1.7s0.8,1.7,2.2,1.7C132.3,10.2,133.1,9.7,133.1,8.6z"/>
		<path id="XMLID_473_" class="st0" d="M140.4,4.7h3.6l0.3,1.1c0.6-0.8,1.8-1.4,3.6-1.4c3.6,0,5,1.7,5,5v7.6h-4.1v-7
			c0-2-0.6-2.8-2.1-2.8c-1.2,0-2,0.5-2.3,1v8.8h-4.1V4.7z"/>
		<path id="XMLID_470_" class="st0" d="M155.5,7.1c0-1.2,1-2.2,2.4-2.2c1.3,0,2.4,0.9,2.4,2.2c0,1.2-1,2.1-2.4,2.1
			C156.5,9.3,155.5,8.3,155.5,7.1z M155.5,15.2c0-1.2,1-2.2,2.4-2.2c1.3,0,2.4,0.9,2.4,2.2c0,1.2-1,2.1-2.4,2.1
			C156.5,17.3,155.5,16.4,155.5,15.2z"/>
		<path id="XMLID_467_" class="st1" d="M167.3,12c0-3.7,2.1-5.6,5.1-5.6c0.9,0,1.9,0.1,2.5,0.7V2.9h2.7v14h-2.5l-0.2-0.9
			c-0.3,0.5-1.2,1.2-2.9,1.2C169.4,17.2,167.3,15.7,167.3,12z M174.9,9c-0.5-0.6-1.3-0.8-2.2-0.8c-1.9,0-2.6,1.6-2.6,3.7
			c0,2,0.7,3.3,2.5,3.3c1.2,0,2-0.4,2.3-0.9V9z"/>
		<path id="XMLID_464_" class="st1" d="M179.8,11.8c0-3.7,2.6-5.4,5.6-5.4c3.2,0,5.4,1.7,5.4,5.4c0,3.7-2.6,5.4-5.6,5.4
			C182,17.2,179.8,15.5,179.8,11.8z M188.1,11.8c0-2-0.9-3.5-2.8-3.5c-1.9,0-2.8,1.4-2.8,3.5c0,2,0.9,3.5,2.8,3.5
			C187.2,15.3,188.1,13.8,188.1,11.8z"/>
		<path id="XMLID_462_" class="st1" d="M192.9,13.1V6.7h2.7v5.9c0,2,0.4,2.8,2,2.8c1.3,0,1.9-0.6,2.2-1V6.7h2.7v10.3H200l-0.2-0.9
			c-0.4,0.6-1.5,1.2-2.9,1.2C194,17.2,192.9,15.8,192.9,13.1z"/>
		<path id="XMLID_459_" class="st1" d="M207.8,16.2l-0.4,0.7h-2v-14h2.7v4.6c0.3-0.5,1.3-1.2,2.9-1.2c2.8,0,4.7,1.4,4.7,5.1
			s-2.4,5.7-5.1,5.7C209.1,17.2,208.3,16.7,207.8,16.2z M208,14.6c0.5,0.6,1.4,0.8,2.2,0.8c1.9,0,2.7-1.7,2.7-3.7
			c0-2-0.7-3.3-2.6-3.3c-1.1,0-1.9,0.4-2.3,0.9V14.6z"/>
		<path id="XMLID_457_" class="st1" d="M217.8,14.6V2.9h2.7v11.4c0,0.7,0.3,0.9,0.8,0.9c0.5,0,0.9-0.2,1.1-0.5v1.9
			c-0.2,0.2-0.8,0.6-1.8,0.6C218.7,17.2,217.8,16.3,217.8,14.6z"/>
		<path id="XMLID_454_" class="st1" d="M223.6,11.8c0-3.7,2.7-5.4,5.4-5.4c2.6,0,5.1,1,5.1,4.9v1.4h-7.7c0.1,1.4,1.1,2.6,3.3,2.6
			c2,0,3.2-0.8,3.8-1.5v2.2c-0.6,0.6-1.9,1.3-4.1,1.3C225.9,17.2,223.6,15.5,223.6,11.8z M231.4,10.9L231.4,10.9
			c0-1.7-0.8-2.6-2.5-2.6c-1.5,0-2.4,1.3-2.5,2.6H231.4z"/>
		<path id="XMLID_452_" class="st1" d="M236,10.2h5.4v2H236V10.2z"/>
		<path id="XMLID_449_" class="st1" d="M246.6,16.2l-0.4,0.7h-2v-14h2.7v4.6c0.3-0.5,1.3-1.2,2.9-1.2c2.8,0,4.7,1.4,4.7,5.1
			s-2.4,5.7-5.1,5.7C247.8,17.2,247,16.7,246.6,16.2z M246.8,14.6c0.5,0.6,1.4,0.8,2.2,0.8c1.9,0,2.7-1.7,2.7-3.7
			c0-2-0.7-3.3-2.6-3.3c-1.1,0-1.9,0.4-2.3,0.9V14.6z"/>
		<path id="XMLID_447_" class="st1" d="M256.6,14.6V2.9h2.7v11.4c0,0.7,0.3,0.9,0.8,0.9c0.5,0,0.9-0.2,1.1-0.5v1.9
			c-0.2,0.2-0.8,0.6-1.8,0.6C257.5,17.2,256.6,16.3,256.6,14.6z"/>
		<path id="XMLID_444_" class="st1" d="M262.8,4.3c0-0.8,0.5-1.2,1.5-1.2c1,0,1.5,0.4,1.5,1.2c0,0.8-0.5,1.2-1.5,1.2
			C263.3,5.5,262.8,5.1,262.8,4.3z M263,6.7h2.7v10.3H263V6.7z"/>
		<path id="XMLID_442_" class="st1" d="M268.5,6.7h2.5l0.2,0.9c0.4-0.7,1.5-1.2,3-1.2c3,0,4.1,1.4,4.1,4.2v6.4h-2.7V11
			c0-2-0.5-2.8-2.1-2.8c-1.3,0-2,0.6-2.3,1v7.7h-2.7V6.7z"/>
		<path id="XMLID_439_" class="st1" d="M280.4,12c0-3.7,2.1-5.6,5.1-5.6c0.9,0,1.9,0.1,2.5,0.7V2.9h2.7v14h-2.5L288,16
			c-0.3,0.5-1.2,1.2-2.9,1.2C282.5,17.2,280.4,15.7,280.4,12z M288,9c-0.5-0.6-1.3-0.8-2.2-0.8c-1.9,0-2.6,1.6-2.6,3.7
			c0,2,0.7,3.3,2.5,3.3c1.2,0,2-0.4,2.3-0.9V9z"/>
		<path id="XMLID_437_" class="st1" d="M293,19.7c0.4-0.6,0.9-1.7,1-2.6c-0.6-0.2-0.9-0.8-0.9-1.4c0-0.9,0.7-1.5,1.7-1.5
			c1,0,1.6,0.6,1.6,1.7c0,1.7-1.4,3.4-2.2,4.1L293,19.7z"/>
		<path id="XMLID_434_" class="st1" d="M303.2,11.8c0-3.7,2.6-5.4,5.6-5.4c3.2,0,5.4,1.7,5.4,5.4c0,3.7-2.6,5.4-5.6,5.4
			C305.4,17.2,303.2,15.5,303.2,11.8z M311.5,11.8c0-2-0.9-3.5-2.8-3.5c-1.9,0-2.8,1.4-2.8,3.5c0,2,0.9,3.5,2.8,3.5
			C310.6,15.3,311.5,13.8,311.5,11.8z"/>
		<path id="XMLID_432_" class="st1" d="M316.4,6.7h2.5l0.2,0.9c0.4-0.7,1.5-1.2,3-1.2c3,0,4.1,1.4,4.1,4.2v6.4h-2.7V11
			c0-2-0.5-2.8-2.1-2.8c-1.3,0-2,0.6-2.3,1v7.7h-2.7V6.7z"/>
		<path id="XMLID_429_" class="st1" d="M328.3,11.8c0-3.7,2.7-5.4,5.4-5.4c2.6,0,5.1,1,5.1,4.9v1.4h-7.7c0.1,1.4,1.1,2.6,3.3,2.6
			c2,0,3.2-0.8,3.8-1.5v2.2c-0.6,0.6-1.9,1.3-4.1,1.3C330.6,17.2,328.3,15.5,328.3,11.8z M336.1,10.9L336.1,10.9
			c0-1.7-0.8-2.6-2.5-2.6c-1.5,0-2.4,1.3-2.5,2.6H336.1z"/>
		<path id="XMLID_427_" class="st1" d="M345,20.2v-2c0.5,0.5,1.1,0.8,1.9,0.8c0.8,0,1.6-0.3,2.3-1.7l-4.6-10.5h2.9l2.9,7.4l2.3-7.4
			h2.7l-3.3,9.6c-0.9,2.5-2.1,4.5-5,4.5C346.1,20.8,345.4,20.6,345,20.2z"/>
		<path id="XMLID_424_" class="st1" d="M356.2,11.8c0-3.7,2.7-5.4,5.4-5.4c2.6,0,5.1,1,5.1,4.9v1.4h-7.7c0.1,1.4,1.1,2.6,3.3,2.6
			c2,0,3.2-0.8,3.8-1.5v2.2c-0.6,0.6-1.9,1.3-4.1,1.3C358.5,17.2,356.2,15.5,356.2,11.8z M364,10.9L364,10.9c0-1.7-0.8-2.6-2.5-2.6
			c-1.5,0-2.4,1.3-2.5,2.6H364z"/>
		<path id="XMLID_421_" class="st1" d="M368.2,14.3c0-2.1,1.8-2.9,5-3.4l1.7-0.2c0-1.8-1-2.3-2.6-2.3c-1.7,0-3.1,0.8-3.6,1.9V7.8
			c0.4-0.6,1.6-1.5,4.1-1.5c3.1,0,4.8,1.4,4.8,4.3v6.2h-2.5l-0.2-0.9c-0.3,0.6-1.2,1.2-2.8,1.2C369.9,17.2,368.2,16.4,368.2,14.3z
			 M374.8,12.3l-1.5,0.3c-1.9,0.4-2.5,0.8-2.5,1.7c0,0.8,0.6,1.2,1.7,1.2c1.1,0,2-0.4,2.4-0.9V12.3z"/>
		<path id="XMLID_419_" class="st1" d="M380.2,6.7h2.3l0.2,1.4c0.1-1.1,1.1-1.7,2.3-1.7c0.6,0,1,0.2,1.2,0.3v2.2
			c-0.3-0.2-0.7-0.3-1.4-0.3c-1,0-1.6,0.4-1.9,1.1v7.4h-2.7V6.7z"/>
		<path id="XMLID_417_" class="st1" d="M393.4,14.2V8.6h-1.4V7.9l1.1-1.3l2.1-2.5h0.9v2.5h2.8v1.9h-2.8v5.5c0,0.8,0.3,1.2,1,1.2
			c0.8,0,1.5-0.4,1.8-1v2.1c-0.3,0.4-1.1,0.9-2.4,0.9C394.4,17.2,393.4,16.2,393.4,14.2z"/>
		<path id="XMLID_415_" class="st1" d="M401.1,6.7h2.3l0.2,1.4c0.1-1.1,1.1-1.7,2.3-1.7c0.6,0,1,0.2,1.2,0.3v2.2
			c-0.3-0.2-0.7-0.3-1.4-0.3c-1,0-1.6,0.4-1.9,1.1v7.4h-2.7V6.7z"/>
		<path id="XMLID_412_" class="st1" d="M408.7,4.3c0-0.8,0.5-1.2,1.5-1.2c1,0,1.5,0.4,1.5,1.2c0,0.8-0.5,1.2-1.5,1.2
			C409.2,5.5,408.7,5.1,408.7,4.3z M408.8,6.7h2.7v10.3h-2.7V6.7z"/>
		<path id="XMLID_409_" class="st1" d="M413.7,14.3c0-2.1,1.8-2.9,5-3.4l1.7-0.2c0-1.8-1-2.3-2.6-2.3c-1.7,0-3.1,0.8-3.6,1.9V7.8
			c0.4-0.6,1.6-1.5,4.1-1.5c3.1,0,4.8,1.4,4.8,4.3v6.2h-2.5l-0.2-0.9c-0.3,0.6-1.2,1.2-2.8,1.2C415.5,17.2,413.7,16.4,413.7,14.3z
			 M420.4,12.3l-1.5,0.3c-1.9,0.4-2.5,0.8-2.5,1.7c0,0.8,0.6,1.2,1.7,1.2c1.1,0,2-0.4,2.4-0.9V12.3z"/>
		<path id="XMLID_407_" class="st1" d="M425.7,14.6V2.9h2.7v11.4c0,0.7,0.3,0.9,0.8,0.9c0.5,0,0.9-0.2,1.1-0.5v1.9
			c-0.2,0.2-0.8,0.6-1.8,0.6C426.6,17.2,425.7,16.3,425.7,14.6z"/>
		<path id="XMLID_405_" class="st1" d="M436.6,19.7c0.4-0.6,0.9-1.7,1-2.6c-0.6-0.2-0.9-0.8-0.9-1.4c0-0.9,0.7-1.5,1.7-1.5
			c1,0,1.6,0.6,1.6,1.7c0,1.7-1.4,3.4-2.2,4.1L436.6,19.7z"/>
		<path id="XMLID_402_" class="st1" d="M442.9,8.6h-1.4V7.9l1.3-1c-0.2-0.3-0.4-0.8-0.4-1.4c0-1.9,1.8-2.8,3.6-2.8
			c1.3,0,1.9,0.4,2.2,0.6v2.2c-0.4-0.6-1-0.9-1.8-0.9s-1.4,0.4-1.4,1.2c0,0.4,0.1,0.7,0.3,0.9h2.1v1.9h-2v8.3h-2.7V8.6z M449.6,14.6
			V2.9h2.7v11.4c0,0.7,0.3,0.9,0.8,0.9c0.5,0,0.9-0.2,1.1-0.5v1.9c-0.2,0.2-0.8,0.6-1.8,0.6C450.5,17.2,449.6,16.3,449.6,14.6z"/>
		<path id="XMLID_399_" class="st1" d="M455.4,11.8c0-3.7,2.7-5.4,5.4-5.4c2.6,0,5.1,1,5.1,4.9v1.4h-7.7c0.1,1.4,1.1,2.6,3.3,2.6
			c2,0,3.2-0.8,3.8-1.5v2.2c-0.6,0.6-1.9,1.3-4.1,1.3C457.7,17.2,455.4,15.5,455.4,11.8z M463.2,10.9L463.2,10.9
			c0-1.7-0.8-2.6-2.5-2.6c-1.5,0-2.4,1.3-2.5,2.6H463.2z"/>
		<path id="XMLID_397_" class="st1" d="M470.6,11.6L467,6.7h2.9l2.4,3.2l2.2-3.2h2.8l-3.7,4.8l4.1,5.5h-2.9l-2.8-3.7l-2.6,3.7h-2.8
			L470.6,11.6z"/>
		<path id="XMLID_394_" class="st1" d="M479,4.3c0-0.8,0.5-1.2,1.5-1.2c1,0,1.5,0.4,1.5,1.2c0,0.8-0.5,1.2-1.5,1.2
			C479.5,5.5,479,5.1,479,4.3z M479.2,6.7h2.7v10.3h-2.7V6.7z"/>
		<path id="XMLID_391_" class="st1" d="M487.1,16.2l-0.4,0.7h-2v-14h2.7v4.6c0.3-0.5,1.3-1.2,2.9-1.2c2.8,0,4.7,1.4,4.7,5.1
			s-2.4,5.7-5.1,5.7C488.4,17.2,487.6,16.7,487.1,16.2z M487.4,14.6c0.5,0.6,1.4,0.8,2.2,0.8c1.9,0,2.7-1.7,2.7-3.7
			c0-2-0.7-3.3-2.6-3.3c-1.1,0-1.9,0.4-2.3,0.9V14.6z"/>
		<path id="XMLID_389_" class="st1" d="M497.1,14.6V2.9h2.7v11.4c0,0.7,0.3,0.9,0.8,0.9c0.5,0,0.9-0.2,1.1-0.5v1.9
			c-0.2,0.2-0.8,0.6-1.8,0.6C498,17.2,497.1,16.3,497.1,14.6z"/>
		<path id="XMLID_386_" class="st1" d="M502.9,11.8c0-3.7,2.7-5.4,5.4-5.4c2.6,0,5.1,1,5.1,4.9v1.4h-7.7c0.1,1.4,1.1,2.6,3.3,2.6
			c2,0,3.2-0.8,3.8-1.5v2.2c-0.6,0.6-1.9,1.3-4.1,1.3C505.2,17.2,502.9,15.5,502.9,11.8z M510.7,10.9L510.7,10.9
			c0-1.7-0.8-2.6-2.5-2.6c-1.5,0-2.4,1.3-2.5,2.6H510.7z"/>
		<path id="XMLID_383_" class="st1" d="M519.9,12c0-3.7,2.1-5.6,5.1-5.6c0.9,0,1.9,0.1,2.5,0.7V2.9h2.7v14h-2.5l-0.2-0.9
			c-0.3,0.5-1.2,1.2-2.9,1.2C522,17.2,519.9,15.7,519.9,12z M527.5,9c-0.5-0.6-1.3-0.8-2.2-0.8c-1.9,0-2.6,1.6-2.6,3.7
			c0,2,0.7,3.3,2.5,3.3c1.2,0,2-0.4,2.3-0.9V9z"/>
		<path id="XMLID_380_" class="st1" d="M532.4,11.8c0-3.7,2.6-5.4,5.6-5.4c3.2,0,5.4,1.7,5.4,5.4c0,3.7-2.6,5.4-5.6,5.4
			C534.6,17.2,532.4,15.5,532.4,11.8z M540.7,11.8c0-2-0.9-3.5-2.8-3.5c-1.9,0-2.8,1.4-2.8,3.5c0,2,0.9,3.5,2.8,3.5
			C539.8,15.3,540.7,13.8,540.7,11.8z"/>
		<path id="XMLID_378_" class="st1" d="M545.2,16.3V14c0.7,0.7,1.7,1.3,3.3,1.3s2.1-0.6,2.1-1.2c0-0.7-0.3-0.9-1.7-1.2l-0.6-0.1
			c-2.1-0.4-3.3-1.3-3.3-3.2c0-1.8,1.5-3.3,4.4-3.3c1.5,0,2.7,0.4,3.3,0.9v2.3c-0.7-0.8-1.7-1.3-3.3-1.3c-1.5,0-2,0.5-2,1.1
			s0.3,1,1.7,1.2l0.6,0.1c2.3,0.4,3.5,1.2,3.5,3c0,1.7-1.5,3.4-4.7,3.4C547,17.2,545.8,16.8,545.2,16.3z"/>
		<path id="XMLID_375_" class="st1" d="M554.8,11.8c0-3.7,2.7-5.4,5.4-5.4c2.6,0,5.1,1,5.1,4.9v1.4h-7.7c0.1,1.4,1.1,2.6,3.3,2.6
			c2,0,3.2-0.8,3.8-1.5v2.2c-0.6,0.6-1.9,1.3-4.1,1.3C557.1,17.2,554.8,15.5,554.8,11.8z M562.6,10.9L562.6,10.9
			c0-1.7-0.8-2.6-2.5-2.6c-1.5,0-2.4,1.3-2.5,2.6H562.6z"/>
		<path id="XMLID_373_" class="st1" d="M572,16.3V14c0.7,0.7,1.7,1.3,3.3,1.3s2.1-0.6,2.1-1.2c0-0.7-0.3-0.9-1.7-1.2l-0.6-0.1
			c-2.1-0.4-3.3-1.3-3.3-3.2c0-1.8,1.5-3.3,4.4-3.3c1.5,0,2.7,0.4,3.3,0.9v2.3c-0.7-0.8-1.7-1.3-3.3-1.3c-1.5,0-2,0.5-2,1.1
			s0.3,1,1.7,1.2l0.6,0.1c2.3,0.4,3.5,1.2,3.5,3c0,1.7-1.5,3.4-4.7,3.4C573.8,17.2,572.6,16.8,572,16.3z"/>
		<path id="XMLID_371_" class="st1" d="M582.7,14.2V8.6h-1.4V7.9l1.1-1.3l2.1-2.5h0.9v2.5h2.8v1.9h-2.8v5.5c0,0.8,0.3,1.2,1,1.2
			c0.8,0,1.5-0.4,1.8-1v2.1c-0.3,0.4-1.1,0.9-2.4,0.9C583.7,17.2,582.7,16.2,582.7,14.2z"/>
		<path id="XMLID_369_" class="st1" d="M590.3,13.1V6.7h2.7v5.9c0,2,0.4,2.8,2,2.8c1.3,0,1.9-0.6,2.2-1V6.7h2.7v10.3h-2.5l-0.2-0.9
			c-0.4,0.6-1.5,1.2-2.9,1.2C591.3,17.2,590.3,15.8,590.3,13.1z"/>
		<path id="XMLID_366_" class="st1" d="M602.1,12c0-3.7,2.1-5.6,5.1-5.6c0.9,0,1.9,0.1,2.5,0.7V2.9h2.7v14h-2.5l-0.2-0.9
			c-0.3,0.5-1.2,1.2-2.9,1.2C604.2,17.2,602.1,15.7,602.1,12z M609.7,9c-0.5-0.6-1.3-0.8-2.2-0.8c-1.9,0-2.6,1.6-2.6,3.7
			c0,2,0.7,3.3,2.5,3.3c1.2,0,2-0.4,2.3-0.9V9z"/>
		<path id="XMLID_364_" class="st1" d="M614.3,20.2v-2c0.5,0.5,1.1,0.8,1.9,0.8c0.8,0,1.6-0.3,2.3-1.7l-4.6-10.5h2.9l2.9,7.4
			l2.3-7.4h2.7l-3.3,9.6c-0.9,2.5-2.1,4.5-5,4.5C615.4,20.8,614.7,20.6,614.3,20.2z"/>
		<path id="XMLID_361_" class="st1" d="M630.6,11.8c0-3.7,2.6-5.4,5.6-5.4c3.2,0,5.4,1.7,5.4,5.4c0,3.7-2.6,5.4-5.6,5.4
			C632.8,17.2,630.6,15.5,630.6,11.8z M638.9,11.8c0-2-0.9-3.5-2.8-3.5c-1.9,0-2.8,1.4-2.8,3.5c0,2,0.9,3.5,2.8,3.5
			C638,15.3,638.9,13.8,638.9,11.8z"/>
		<path id="XMLID_359_" class="st1" d="M643.8,6.7h2.5l0.2,0.9c0.4-0.7,1.5-1.2,3-1.2c3,0,4.1,1.4,4.1,4.2v6.4H651V11
			c0-2-0.5-2.8-2.1-2.8c-1.3,0-2,0.6-2.3,1v7.7h-2.7V6.7z"/>
		<path id="XMLID_356_" class="st1" d="M661.4,6.7h2.5l0.2,0.9c0.3-0.5,1.2-1.2,2.9-1.2c2.8,0,4.7,1.4,4.7,5.1s-2.4,5.7-5.1,5.7
			c-0.9,0-1.9-0.1-2.5-0.7v4h-2.7V6.7z M668.9,11.7c0-2-0.7-3.3-2.6-3.3c-1.2,0-1.9,0.4-2.3,0.9v5.3c0.5,0.6,1.3,0.8,2.2,0.8
			C668.1,15.3,668.9,13.7,668.9,11.7z"/>
		<path id="XMLID_353_" class="st1" d="M673.3,14.3c0-2.1,1.8-2.9,5-3.4l1.7-0.2c0-1.8-1-2.3-2.6-2.3c-1.7,0-3.1,0.8-3.6,1.9V7.8
			c0.4-0.6,1.6-1.5,4.1-1.5c3.1,0,4.8,1.4,4.8,4.3v6.2h-2.5L680,16c-0.3,0.6-1.2,1.2-2.8,1.2C675,17.2,673.3,16.4,673.3,14.3z
			 M680,12.3l-1.5,0.3c-1.9,0.4-2.5,0.8-2.5,1.7c0,0.8,0.6,1.2,1.7,1.2c1.1,0,2-0.4,2.4-0.9V12.3z"/>
		<path id="XMLID_351_" class="st1" d="M685.9,14.2V8.6h-1.4V7.9l1.1-1.3l2.1-2.5h0.9v2.5h2.8v1.9h-2.8v5.5c0,0.8,0.3,1.2,1,1.2
			c0.8,0,1.5-0.4,1.8-1v2.1c-0.3,0.4-1.1,0.9-2.4,0.9C686.8,17.2,685.9,16.2,685.9,14.2z"/>
		<path id="XMLID_348_" class="st1" d="M693.4,4.3c0-0.8,0.5-1.2,1.5-1.2c1,0,1.5,0.4,1.5,1.2c0,0.8-0.5,1.2-1.5,1.2
			C693.9,5.5,693.4,5.1,693.4,4.3z M693.5,6.7h2.7v10.3h-2.7V6.7z"/>
		<path id="XMLID_345_" class="st1" d="M698.4,11.8c0-3.7,2.7-5.4,5.4-5.4c2.6,0,5.1,1,5.1,4.9v1.4h-7.7c0.1,1.4,1.1,2.6,3.3,2.6
			c2,0,3.2-0.8,3.8-1.5v2.2c-0.6,0.6-1.9,1.3-4.1,1.3C700.7,17.2,698.4,15.5,698.4,11.8z M706.2,10.9L706.2,10.9
			c0-1.7-0.8-2.6-2.5-2.6c-1.5,0-2.4,1.3-2.5,2.6H706.2z"/>
		<path id="XMLID_343_" class="st1" d="M711,6.7h2.5l0.2,0.9c0.4-0.7,1.5-1.2,3-1.2c3,0,4.1,1.4,4.1,4.2v6.4h-2.7V11
			c0-2-0.5-2.8-2.1-2.8c-1.3,0-2,0.6-2.3,1v7.7H711V6.7z"/>
		<path id="XMLID_341_" class="st1" d="M724,14.2V8.6h-1.4V7.9l1.1-1.3l2.1-2.5h0.9v2.5h2.8v1.9h-2.8v5.5c0,0.8,0.3,1.2,1,1.2
			c0.8,0,1.5-0.4,1.8-1v2.1c-0.3,0.4-1.1,0.9-2.4,0.9C724.9,17.2,724,16.2,724,14.2z"/>
		<path id="XMLID_339_" class="st1" d="M731.3,16.3V14c0.7,0.7,1.7,1.3,3.3,1.3s2.1-0.6,2.1-1.2c0-0.7-0.3-0.9-1.7-1.2l-0.6-0.1
			c-2.1-0.4-3.3-1.3-3.3-3.2c0-1.8,1.5-3.3,4.4-3.3c1.5,0,2.7,0.4,3.3,0.9v2.3c-0.7-0.8-1.7-1.3-3.3-1.3c-1.5,0-2,0.5-2,1.1
			s0.3,1,1.7,1.2l0.6,0.1c2.3,0.4,3.5,1.2,3.5,3c0,1.7-1.5,3.4-4.7,3.4C733,17.2,731.8,16.8,731.3,16.3z"/>
		<path id="XMLID_337_" class="st1" d="M745.4,6.7h2.7l1.7,6l2.5-6h1.1l2.6,6l1.7-6h2.5l-3.1,10.3h-1.6l-2.7-6.2l-2.7,6.2h-1.6
			L745.4,6.7z"/>
		<path id="XMLID_334_" class="st1" d="M761.9,4.3c0-0.8,0.5-1.2,1.5-1.2c1,0,1.5,0.4,1.5,1.2c0,0.8-0.5,1.2-1.5,1.2
			C762.4,5.5,761.9,5.1,761.9,4.3z M762,6.7h2.7v10.3H762V6.7z"/>
		<path id="XMLID_332_" class="st1" d="M768.1,14.2V8.6h-1.4V7.9l1.1-1.3l2.1-2.5h0.9v2.5h2.8v1.9h-2.8v5.5c0,0.8,0.3,1.2,1,1.2
			c0.8,0,1.5-0.4,1.8-1v2.1c-0.3,0.4-1.1,0.9-2.4,0.9C769,17.2,768.1,16.2,768.1,14.2z"/>
		<path id="XMLID_330_" class="st1" d="M775.7,2.9h2.7v4.6c0.5-0.6,1.5-1.2,2.9-1.2c3,0,4.1,1.4,4.1,4.2v6.4h-2.7V11
			c0-2-0.5-2.8-2.1-2.8c-1.3,0-2,0.6-2.3,1v7.7h-2.7V2.9z"/>
		<path id="XMLID_328_" class="st1" d="M0.9,38.6v-2.3c0.7,0.7,1.7,1.3,3.3,1.3c1.6,0,2.1-0.6,2.1-1.2c0-0.7-0.3-0.9-1.7-1.2
			l-0.6-0.1c-2.1-0.4-3.3-1.3-3.3-3.2c0-1.8,1.5-3.3,4.4-3.3c1.5,0,2.7,0.4,3.3,0.9v2.3c-0.7-0.8-1.7-1.3-3.3-1.3
			c-1.5,0-2,0.5-2,1.1c0,0.7,0.3,1,1.7,1.2l0.6,0.1c2.3,0.4,3.5,1.2,3.5,3c0,1.7-1.5,3.4-4.7,3.4C2.7,39.5,1.5,39.1,0.9,38.6z"/>
		<path id="XMLID_326_" class="st1" d="M10.5,34.1c0-3.7,2.6-5.4,5.6-5.4c1.6,0,2.8,0.5,3.3,0.9V32c-0.7-0.9-1.6-1.2-3.1-1.2
			c-1.9,0-3,1.3-3,3.4c0,2.1,1.1,3.4,3,3.4c1.4,0,2.4-0.5,3.1-1.3v2.2c-0.5,0.5-1.8,1.2-3.4,1.2C12.8,39.5,10.5,37.8,10.5,34.1z"/>
		<path id="XMLID_324_" class="st1" d="M21.7,25.2h2.7v4.6c0.5-0.6,1.5-1.2,2.9-1.2c3,0,4.1,1.4,4.1,4.2v6.4h-2.7v-5.9
			c0-2-0.5-2.8-2.1-2.8c-1.3,0-2,0.6-2.3,1v7.7h-2.7V25.2z"/>
		<path id="XMLID_321_" class="st1" d="M34.1,26.6c0-0.8,0.5-1.2,1.5-1.2c1,0,1.5,0.4,1.5,1.2c0,0.8-0.5,1.2-1.5,1.2
			C34.6,27.8,34.1,27.4,34.1,26.6z M34.2,29h2.7v10.3h-2.7V29z"/>
		<path id="XMLID_319_" class="st1" d="M39,38.6l5.2-7.7H39V29h8.6v0.7l-5,7.7h5v1.9H39V38.6z"/>
		<path id="XMLID_316_" class="st1" d="M49,34.1c0-3.7,2.6-5.4,5.6-5.4c3.2,0,5.4,1.7,5.4,5.4c0,3.7-2.6,5.4-5.6,5.4
			C51.3,39.5,49,37.8,49,34.1z M57.3,34.1c0-2-0.9-3.5-2.8-3.5c-1.9,0-2.8,1.4-2.8,3.5c0,2,0.9,3.5,2.8,3.5
			C56.5,37.6,57.3,36.2,57.3,34.1z"/>
		<path id="XMLID_313_" class="st1" d="M62.3,29h2.5l0.2,0.9c0.3-0.5,1.2-1.2,2.9-1.2c2.8,0,4.7,1.4,4.7,5.1s-2.4,5.7-5.1,5.7
			c-0.9,0-1.9-0.1-2.5-0.7v4h-2.7V29z M69.8,34c0-2-0.7-3.3-2.6-3.3c-1.2,0-1.9,0.4-2.3,0.9v5.3c0.5,0.6,1.3,0.8,2.2,0.8
			C69,37.6,69.8,36,69.8,34z"/>
		<path id="XMLID_311_" class="st1" d="M74.8,25.2h2.7v4.6c0.5-0.6,1.5-1.2,2.9-1.2c3,0,4.1,1.4,4.1,4.2v6.4h-2.7v-5.9
			c0-2-0.5-2.8-2.1-2.8c-1.3,0-2,0.6-2.3,1v7.7h-2.7V25.2z"/>
		<path id="XMLID_309_" class="st1" d="M87.3,29h2.3l0.2,1.4c0.1-1.1,1.1-1.7,2.3-1.7c0.6,0,1,0.2,1.2,0.3v2.2
			c-0.3-0.2-0.7-0.3-1.4-0.3c-1,0-1.6,0.4-1.9,1.1v7.4h-2.7V29z"/>
		<path id="XMLID_306_" class="st1" d="M94.2,34.1c0-3.7,2.7-5.4,5.4-5.4c2.6,0,5.1,1,5.1,4.9v1.4H97c0.1,1.4,1.1,2.6,3.3,2.6
			c2,0,3.2-0.8,3.8-1.5v2.2c-0.6,0.6-1.9,1.3-4.1,1.3C96.5,39.5,94.2,37.8,94.2,34.1z M102,33.2L102,33.2c0-1.7-0.8-2.6-2.5-2.6
			c-1.5,0-2.4,1.3-2.5,2.6H102z"/>
		<path id="XMLID_304_" class="st1" d="M106.8,29h2.5l0.2,0.9c0.4-0.7,1.5-1.2,3-1.2c3,0,4.1,1.4,4.1,4.2v6.4h-2.7v-5.9
			c0-2-0.5-2.8-2.1-2.8c-1.3,0-2,0.6-2.3,1v7.7h-2.7V29z"/>
		<path id="XMLID_301_" class="st1" d="M119.2,26.6c0-0.8,0.5-1.2,1.5-1.2c1,0,1.5,0.4,1.5,1.2c0,0.8-0.5,1.2-1.5,1.2
			C119.7,27.8,119.2,27.4,119.2,26.6z M119.3,29h2.7v10.3h-2.7V29z"/>
		<path id="XMLID_298_" class="st1" d="M124.2,36.6c0-2.1,1.8-2.9,5-3.4l1.7-0.2c0-1.8-1-2.3-2.6-2.3c-1.7,0-3.1,0.8-3.6,1.9v-2.5
			c0.4-0.6,1.6-1.5,4.1-1.5c3.1,0,4.8,1.4,4.8,4.3v6.2h-2.5l-0.2-0.9c-0.3,0.6-1.2,1.2-2.8,1.2C126,39.5,124.2,38.7,124.2,36.6z
			 M130.9,34.6l-1.5,0.3c-1.9,0.4-2.5,0.8-2.5,1.7c0,0.8,0.6,1.2,1.7,1.2c1.1,0,2-0.4,2.4-0.9V34.6z"/>
		<path id="XMLID_295_" class="st1" d="M140.7,34.1c0-3.7,2.6-5.4,5.6-5.4c3.2,0,5.4,1.7,5.4,5.4c0,3.7-2.6,5.4-5.6,5.4
			C142.9,39.5,140.7,37.8,140.7,34.1z M149,34.1c0-2-0.9-3.5-2.8-3.5c-1.9,0-2.8,1.4-2.8,3.5c0,2,0.9,3.5,2.8,3.5
			C148.1,37.6,149,36.2,149,34.1z"/>
		<path id="XMLID_293_" class="st1" d="M154,29h2.3l0.2,1.4c0.1-1.1,1.1-1.7,2.3-1.7c0.6,0,1,0.2,1.2,0.3v2.2
			c-0.3-0.2-0.7-0.3-1.4-0.3c-1,0-1.6,0.4-1.9,1.1v7.4H154V29z"/>
		<path id="XMLID_291_" class="st1" d="M166.3,38.6v-2.3c0.7,0.7,1.7,1.3,3.3,1.3c1.6,0,2.1-0.6,2.1-1.2c0-0.7-0.3-0.9-1.7-1.2
			l-0.6-0.1c-2.1-0.4-3.3-1.3-3.3-3.2c0-1.8,1.5-3.3,4.4-3.3c1.5,0,2.7,0.4,3.3,0.9v2.3c-0.7-0.8-1.7-1.3-3.3-1.3
			c-1.5,0-2,0.5-2,1.1c0,0.7,0.3,1,1.7,1.2l0.6,0.1c2.3,0.4,3.5,1.2,3.5,3c0,1.7-1.5,3.4-4.7,3.4C168,39.5,166.9,39.1,166.3,38.6z"
			/>
		<path id="XMLID_289_" class="st1" d="M175.9,34.1c0-3.7,2.6-5.4,5.6-5.4c1.6,0,2.8,0.5,3.3,0.9V32c-0.7-0.9-1.6-1.2-3.1-1.2
			c-1.9,0-3,1.3-3,3.4c0,2.1,1.1,3.4,3,3.4c1.4,0,2.4-0.5,3.1-1.3v2.2c-0.5,0.5-1.8,1.2-3.4,1.2C178.1,39.5,175.9,37.8,175.9,34.1z"
			/>
		<path id="XMLID_287_" class="st1" d="M187.1,25.2h2.7v4.6c0.5-0.6,1.5-1.2,2.9-1.2c3,0,4.1,1.4,4.1,4.2v6.4h-2.7v-5.9
			c0-2-0.5-2.8-2.1-2.8c-1.3,0-2,0.6-2.3,1v7.7h-2.7V25.2z"/>
		<path id="XMLID_284_" class="st1" d="M199.4,26.6c0-0.8,0.5-1.2,1.5-1.2c1,0,1.5,0.4,1.5,1.2c0,0.8-0.5,1.2-1.5,1.2
			C199.9,27.8,199.4,27.4,199.4,26.6z M199.6,29h2.7v10.3h-2.7V29z"/>
		<path id="XMLID_282_" class="st1" d="M204.4,38.6l5.2-7.7h-5.2V29h8.6v0.7l-5,7.7h5v1.9h-8.6V38.6z"/>
		<path id="XMLID_279_" class="st1" d="M214.4,34.1c0-3.7,2.6-5.4,5.6-5.4c3.2,0,5.4,1.7,5.4,5.4c0,3.7-2.6,5.4-5.6,5.4
			C216.6,39.5,214.4,37.8,214.4,34.1z M222.7,34.1c0-2-0.9-3.5-2.8-3.5c-1.9,0-2.8,1.4-2.8,3.5c0,2,0.9,3.5,2.8,3.5
			C221.8,37.6,222.7,36.2,222.7,34.1z"/>
		<path id="XMLID_276_" class="st1" d="M227.6,29h2.5l0.2,0.9c0.3-0.5,1.2-1.2,2.9-1.2c2.8,0,4.7,1.4,4.7,5.1s-2.4,5.7-5.1,5.7
			c-0.9,0-1.9-0.1-2.5-0.7v4h-2.7V29z M235.2,34c0-2-0.7-3.3-2.6-3.3c-1.2,0-1.9,0.4-2.3,0.9v5.3c0.5,0.6,1.3,0.8,2.2,0.8
			C234.4,37.6,235.2,36,235.2,34z"/>
		<path id="XMLID_274_" class="st1" d="M240.2,25.2h2.7v4.6c0.5-0.6,1.5-1.2,2.9-1.2c3,0,4.1,1.4,4.1,4.2v6.4h-2.7v-5.9
			c0-2-0.5-2.8-2.1-2.8c-1.3,0-2,0.6-2.3,1v7.7h-2.7V25.2z"/>
		<path id="XMLID_272_" class="st1" d="M252.7,29h2.3l0.2,1.4c0.1-1.1,1.1-1.7,2.3-1.7c0.6,0,1,0.2,1.2,0.3v2.2
			c-0.3-0.2-0.7-0.3-1.4-0.3c-1,0-1.6,0.4-1.9,1.1v7.4h-2.7V29z"/>
		<path id="XMLID_269_" class="st1" d="M259.6,34.1c0-3.7,2.7-5.4,5.4-5.4c2.6,0,5.1,1,5.1,4.9v1.4h-7.7c0.1,1.4,1.1,2.6,3.3,2.6
			c2,0,3.2-0.8,3.8-1.5v2.2c-0.6,0.6-1.9,1.3-4.1,1.3C261.9,39.5,259.6,37.8,259.6,34.1z M267.4,33.2L267.4,33.2
			c0-1.7-0.8-2.6-2.5-2.6c-1.5,0-2.4,1.3-2.5,2.6H267.4z"/>
		<path id="XMLID_267_" class="st1" d="M272.2,29h2.5l0.2,0.9c0.4-0.7,1.5-1.2,3-1.2c3,0,4.1,1.4,4.1,4.2v6.4h-2.7v-5.9
			c0-2-0.5-2.8-2.1-2.8c-1.3,0-2,0.6-2.3,1v7.7h-2.7V29z"/>
		<path id="XMLID_264_" class="st1" d="M284.6,26.6c0-0.8,0.5-1.2,1.5-1.2c1,0,1.5,0.4,1.5,1.2c0,0.8-0.5,1.2-1.5,1.2
			C285.1,27.8,284.6,27.4,284.6,26.6z M284.7,29h2.7v10.3h-2.7V29z"/>
		<path id="XMLID_261_" class="st1" d="M289.6,36.6c0-2.1,1.8-2.9,5-3.4l1.7-0.2c0-1.8-1-2.3-2.6-2.3c-1.7,0-3.1,0.8-3.6,1.9v-2.5
			c0.4-0.6,1.6-1.5,4.1-1.5c3.1,0,4.8,1.4,4.8,4.3v6.2h-2.5l-0.2-0.9c-0.3,0.6-1.2,1.2-2.8,1.2C291.4,39.5,289.6,38.7,289.6,36.6z
			 M296.3,34.6l-1.5,0.3c-1.9,0.4-2.5,0.8-2.5,1.7c0,0.8,0.6,1.2,1.7,1.2c1.1,0,2-0.4,2.4-0.9V34.6z"/>
		<path id="XMLID_258_" class="st1" d="M306.1,34.1c0-3.7,2.7-5.4,5.4-5.4c2.6,0,5.1,1,5.1,4.9v1.4h-7.7c0.1,1.4,1.1,2.6,3.3,2.6
			c2,0,3.2-0.8,3.8-1.5v2.2c-0.6,0.6-1.9,1.3-4.1,1.3C308.4,39.5,306.1,37.8,306.1,34.1z M313.8,33.2L313.8,33.2
			c0-1.7-0.8-2.6-2.5-2.6c-1.5,0-2.4,1.3-2.5,2.6H313.8z"/>
		<path id="XMLID_256_" class="st1" d="M319.2,30.8h-1.4v-0.6l1.3-1c-0.2-0.3-0.4-0.8-0.4-1.4c0-1.9,1.8-2.8,3.6-2.8
			c1.3,0,1.9,0.4,2.2,0.6v2.2c-0.4-0.6-1-0.9-1.8-0.9c-0.8,0-1.4,0.4-1.4,1.2c0,0.4,0.1,0.7,0.3,0.9h4c-0.1-0.3-0.3-0.7-0.3-1.2
			c0-1.9,1.8-2.8,3.8-2.8c1.4,0,2.2,0.4,2.5,0.6v2.2c-0.4-0.6-1.1-0.9-2-0.9c-1.1,0-1.6,0.4-1.6,1.2c0,0.4,0.1,0.7,0.3,0.9h2.5v1.8
			h-2.4v8.4h-2.7v-8.4h-4.1v8.4h-2.7V30.8z"/>
		<path id="XMLID_253_" class="st1" d="M332.1,34.1c0-3.7,2.7-5.4,5.4-5.4c2.6,0,5.1,1,5.1,4.9v1.4h-7.7c0.1,1.4,1.1,2.6,3.3,2.6
			c2,0,3.2-0.8,3.8-1.5v2.2c-0.6,0.6-1.9,1.3-4.1,1.3C334.4,39.5,332.1,37.8,332.1,34.1z M339.9,33.2L339.9,33.2
			c0-1.7-0.8-2.6-2.5-2.6c-1.5,0-2.4,1.3-2.5,2.6H339.9z"/>
		<path id="XMLID_251_" class="st1" d="M344.1,34.1c0-3.7,2.6-5.4,5.6-5.4c1.6,0,2.8,0.5,3.3,0.9V32c-0.7-0.9-1.6-1.2-3.1-1.2
			c-1.9,0-3,1.3-3,3.4c0,2.1,1.1,3.4,3,3.4c1.4,0,2.4-0.5,3.1-1.3v2.2c-0.5,0.5-1.8,1.2-3.4,1.2C346.3,39.5,344.1,37.8,344.1,34.1z"
			/>
		<path id="XMLID_249_" class="st1" d="M355.7,36.5v-5.6h-1.4v-0.7l1.1-1.3l2.1-2.5h0.9V29h2.8v1.9h-2.8v5.5c0,0.8,0.3,1.2,1,1.2
			c0.8,0,1.5-0.4,1.8-1v2.1c-0.3,0.4-1.1,0.9-2.4,0.9C356.7,39.5,355.7,38.5,355.7,36.5z"/>
		<path id="XMLID_246_" class="st1" d="M363.3,26.6c0-0.8,0.5-1.2,1.5-1.2c1,0,1.5,0.4,1.5,1.2c0,0.8-0.5,1.2-1.5,1.2
			C363.7,27.8,363.3,27.4,363.3,26.6z M363.4,29h2.7v10.3h-2.7V29z"/>
		<path id="XMLID_244_" class="st1" d="M367.6,29h2.9l2.2,5.6l0.4,1.2c0.1-0.4,0.3-0.8,0.4-1.2l2.3-5.6h2.6l-4.5,10.3h-1.8L367.6,29
			z"/>
		<path id="XMLID_241_" class="st1" d="M379,34.1c0-3.7,2.7-5.4,5.4-5.4c2.6,0,5.1,1,5.1,4.9v1.4h-7.7c0.1,1.4,1.1,2.6,3.3,2.6
			c2,0,3.2-0.8,3.8-1.5v2.2c-0.6,0.6-1.9,1.3-4.1,1.3C381.4,39.5,379,37.8,379,34.1z M386.8,33.2L386.8,33.2c0-1.7-0.8-2.6-2.5-2.6
			c-1.5,0-2.4,1.3-2.5,2.6H386.8z"/>
		<path id="XMLID_238_" class="st1" d="M396,34.3c0-3.7,2.1-5.6,5.1-5.6c0.9,0,1.9,0.1,2.5,0.7v-4.1h2.7v14h-2.5l-0.2-0.9
			c-0.3,0.5-1.2,1.2-2.9,1.2C398.1,39.5,396,38,396,34.3z M403.6,31.3c-0.5-0.6-1.3-0.8-2.2-0.8c-1.9,0-2.6,1.6-2.6,3.7
			c0,2,0.7,3.3,2.5,3.3c1.2,0,2-0.4,2.3-0.9V31.3z"/>
		<path id="XMLID_235_" class="st1" d="M409,26.6c0-0.8,0.5-1.2,1.5-1.2c1,0,1.5,0.4,1.5,1.2c0,0.8-0.5,1.2-1.5,1.2
			C409.5,27.8,409,27.4,409,26.6z M409.1,29h2.7v10.3h-2.7V29z"/>
		<path id="XMLID_233_" class="st1" d="M414.3,38.6v-2.3c0.7,0.7,1.7,1.3,3.3,1.3c1.6,0,2.1-0.6,2.1-1.2c0-0.7-0.3-0.9-1.7-1.2
			l-0.6-0.1c-2.1-0.4-3.3-1.3-3.3-3.2c0-1.8,1.5-3.3,4.4-3.3c1.5,0,2.7,0.4,3.3,0.9v2.3c-0.7-0.8-1.7-1.3-3.3-1.3
			c-1.5,0-2,0.5-2,1.1c0,0.7,0.3,1,1.7,1.2l0.6,0.1c2.3,0.4,3.5,1.2,3.5,3c0,1.7-1.5,3.4-4.7,3.4C416,39.5,414.9,39.1,414.3,38.6z"
			/>
		<path id="XMLID_230_" class="st1" d="M423.9,34.1c0-3.7,2.6-5.4,5.6-5.4c3.2,0,5.4,1.7,5.4,5.4c0,3.7-2.6,5.4-5.6,5.4
			C426.1,39.5,423.9,37.8,423.9,34.1z M432.2,34.1c0-2-0.9-3.5-2.8-3.5c-1.9,0-2.8,1.4-2.8,3.5c0,2,0.9,3.5,2.8,3.5
			C431.3,37.6,432.2,36.2,432.2,34.1z"/>
		<path id="XMLID_228_" class="st1" d="M437.1,29h2.3l0.2,1.4c0.1-1.1,1.1-1.7,2.3-1.7c0.6,0,1,0.2,1.2,0.3v2.2
			c-0.3-0.2-0.7-0.3-1.4-0.3c-1,0-1.6,0.4-1.9,1.1v7.4h-2.7V29z"/>
		<path id="XMLID_225_" class="st1" d="M444,34.3c0-3.7,2.1-5.6,5.1-5.6c0.9,0,1.9,0.1,2.5,0.7v-4.1h2.7v14h-2.5l-0.2-0.9
			c-0.3,0.5-1.2,1.2-2.9,1.2C446.1,39.5,444,38,444,34.3z M451.6,31.3c-0.5-0.6-1.3-0.8-2.2-0.8c-1.9,0-2.6,1.6-2.6,3.7
			c0,2,0.7,3.3,2.5,3.3c1.2,0,2-0.4,2.3-0.9V31.3z"/>
		<path id="XMLID_222_" class="st1" d="M456.5,34.1c0-3.7,2.7-5.4,5.4-5.4c2.6,0,5.1,1,5.1,4.9v1.4h-7.7c0.1,1.4,1.1,2.6,3.3,2.6
			c2,0,3.2-0.8,3.8-1.5v2.2c-0.6,0.6-1.9,1.3-4.1,1.3C458.8,39.5,456.5,37.8,456.5,34.1z M464.3,33.2L464.3,33.2
			c0-1.7-0.8-2.6-2.5-2.6c-1.5,0-2.4,1.3-2.5,2.6H464.3z"/>
		<path id="XMLID_220_" class="st1" d="M469.1,29h2.3l0.2,1.4c0.1-1.1,1.1-1.7,2.3-1.7c0.6,0,1,0.2,1.2,0.3v2.2
			c-0.3-0.2-0.7-0.3-1.4-0.3c-1,0-1.6,0.4-1.9,1.1v7.4h-2.7V29z"/>
		<path id="XMLID_218_" class="st1" d="M475.6,38c0-0.9,0.7-1.5,1.7-1.5c1,0,1.7,0.7,1.7,1.5c0,0.9-0.7,1.5-1.7,1.5
			C476.3,39.5,475.6,38.9,475.6,38z"/>
		<path id="XMLID_215_" class="st1" d="M486.3,29h2.5l0.2,0.9c0.3-0.5,1.2-1.2,2.9-1.2c2.8,0,4.7,1.4,4.7,5.1s-2.4,5.7-5.1,5.7
			c-0.9,0-1.9-0.1-2.5-0.7v4h-2.7V29z M493.9,34c0-2-0.7-3.3-2.6-3.3c-1.2,0-1.9,0.4-2.3,0.9v5.3c0.5,0.6,1.3,0.8,2.2,0.8
			C493.1,37.6,493.9,36,493.9,34z"/>
		<path id="XMLID_212_" class="st1" d="M498.2,36.6c0-2.1,1.8-2.9,5-3.4l1.7-0.2c0-1.8-1-2.3-2.6-2.3c-1.7,0-3.1,0.8-3.6,1.9v-2.5
			c0.4-0.6,1.6-1.5,4.1-1.5c3.1,0,4.8,1.4,4.8,4.3v6.2h-2.5l-0.2-0.9c-0.3,0.6-1.2,1.2-2.8,1.2C500,39.5,498.2,38.7,498.2,36.6z
			 M504.9,34.6l-1.5,0.3c-1.9,0.4-2.5,0.8-2.5,1.7c0,0.8,0.6,1.2,1.7,1.2c1.1,0,2-0.4,2.4-0.9V34.6z"/>
		<path id="XMLID_210_" class="st1" d="M510.8,36.5v-5.6h-1.4v-0.7l1.1-1.3l2.1-2.5h0.9V29h2.8v1.9h-2.8v5.5c0,0.8,0.3,1.2,1,1.2
			c0.8,0,1.5-0.4,1.8-1v2.1c-0.3,0.4-1.1,0.9-2.4,0.9C511.7,39.5,510.8,38.5,510.8,36.5z"/>
		<path id="XMLID_207_" class="st1" d="M518.3,26.6c0-0.8,0.5-1.2,1.5-1.2c1,0,1.5,0.4,1.5,1.2c0,0.8-0.5,1.2-1.5,1.2
			C518.8,27.8,518.3,27.4,518.3,26.6z M518.4,29h2.7v10.3h-2.7V29z"/>
		<path id="XMLID_204_" class="st1" d="M523.3,34.1c0-3.7,2.7-5.4,5.4-5.4c2.6,0,5.1,1,5.1,4.9v1.4h-7.7c0.1,1.4,1.1,2.6,3.3,2.6
			c2,0,3.2-0.8,3.8-1.5v2.2c-0.6,0.6-1.9,1.3-4.1,1.3C525.7,39.5,523.3,37.8,523.3,34.1z M531.1,33.2L531.1,33.2
			c0-1.7-0.8-2.6-2.5-2.6c-1.5,0-2.4,1.3-2.5,2.6H531.1z"/>
		<path id="XMLID_202_" class="st1" d="M535.9,29h2.5l0.2,0.9c0.4-0.7,1.5-1.2,3-1.2c3,0,4.1,1.4,4.1,4.2v6.4H543v-5.9
			c0-2-0.5-2.8-2.1-2.8c-1.3,0-2,0.6-2.3,1v7.7h-2.7V29z"/>
		<path id="XMLID_200_" class="st1" d="M548.9,36.5v-5.6h-1.4v-0.7l1.1-1.3l2.1-2.5h0.9V29h2.8v1.9h-2.8v5.5c0,0.8,0.3,1.2,1,1.2
			c0.8,0,1.5-0.4,1.8-1v2.1c-0.3,0.4-1.1,0.9-2.4,0.9C549.9,39.5,548.9,38.5,548.9,36.5z"/>
		<path id="XMLID_198_" class="st1" d="M556.2,38.6v-2.3c0.7,0.7,1.7,1.3,3.3,1.3s2.1-0.6,2.1-1.2c0-0.7-0.3-0.9-1.7-1.2l-0.6-0.1
			c-2.1-0.4-3.3-1.3-3.3-3.2c0-1.8,1.5-3.3,4.4-3.3c1.5,0,2.7,0.4,3.3,0.9v2.3c-0.7-0.8-1.7-1.3-3.3-1.3c-1.5,0-2,0.5-2,1.1
			c0,0.7,0.3,1,1.7,1.2l0.6,0.1c2.3,0.4,3.5,1.2,3.5,3c0,1.7-1.5,3.4-4.7,3.4C558,39.5,556.8,39.1,556.2,38.6z"/>
		<path id="XMLID_196_" class="st1" d="M570.4,29h2.7l1.7,6l2.5-6h1.1l2.6,6l1.7-6h2.5l-3.1,10.3h-1.6l-2.7-6.2l-2.7,6.2h-1.6
			L570.4,29z"/>
		<path id="XMLID_193_" class="st1" d="M586.2,34.1c0-3.7,2.7-5.4,5.4-5.4c2.6,0,5.1,1,5.1,4.9v1.4H589c0.1,1.4,1.1,2.6,3.3,2.6
			c2,0,3.2-0.8,3.8-1.5v2.2c-0.6,0.6-1.9,1.3-4.1,1.3C588.6,39.5,586.2,37.8,586.2,34.1z M594,33.2L594,33.2c0-1.7-0.8-2.6-2.5-2.6
			c-1.5,0-2.4,1.3-2.5,2.6H594z"/>
		<path id="XMLID_191_" class="st1" d="M598.9,29h2.3l0.2,1.4c0.1-1.1,1.1-1.7,2.3-1.7c0.6,0,1,0.2,1.2,0.3v2.2
			c-0.3-0.2-0.7-0.3-1.4-0.3c-1,0-1.6,0.4-1.9,1.1v7.4h-2.7V29z"/>
		<path id="XMLID_188_" class="st1" d="M605.7,34.1c0-3.7,2.7-5.4,5.4-5.4c2.6,0,5.1,1,5.1,4.9v1.4h-7.7c0.1,1.4,1.1,2.6,3.3,2.6
			c2,0,3.2-0.8,3.8-1.5v2.2c-0.6,0.6-1.9,1.3-4.1,1.3C608.1,39.5,605.7,37.8,605.7,34.1z M613.5,33.2L613.5,33.2
			c0-1.7-0.8-2.6-2.5-2.6c-1.5,0-2.4,1.3-2.5,2.6H613.5z"/>
		<path id="XMLID_186_" class="st1" d="M623.4,29h2.3l0.2,1.4c0.1-1.1,1.1-1.7,2.3-1.7c0.6,0,1,0.2,1.2,0.3v2.2
			c-0.3-0.2-0.7-0.3-1.4-0.3c-1,0-1.6,0.4-1.9,1.1v7.4h-2.7V29z"/>
		<path id="XMLID_183_" class="st1" d="M630.4,36.6c0-2.1,1.8-2.9,5-3.4l1.7-0.2c0-1.8-1-2.3-2.6-2.3c-1.7,0-3.1,0.8-3.6,1.9v-2.5
			c0.4-0.6,1.6-1.5,4.1-1.5c3.1,0,4.8,1.4,4.8,4.3v6.2h-2.5l-0.2-0.9c-0.3,0.6-1.2,1.2-2.8,1.2C632.2,39.5,630.4,38.7,630.4,36.6z
			 M637.1,34.6l-1.5,0.3c-1.9,0.4-2.5,0.8-2.5,1.7c0,0.8,0.6,1.2,1.7,1.2c1.1,0,2-0.4,2.4-0.9V34.6z"/>
		<path id="XMLID_181_" class="st1" d="M642.5,29h2.5l0.2,0.9c0.4-0.7,1.5-1.2,3-1.2c3,0,4.1,1.4,4.1,4.2v6.4h-2.7v-5.9
			c0-2-0.5-2.8-2.1-2.8c-1.3,0-2,0.6-2.3,1v7.7h-2.7V29z"/>
		<path id="XMLID_178_" class="st1" d="M654.5,34.3c0-3.7,2.1-5.6,5.1-5.6c0.9,0,1.9,0.1,2.5,0.7v-4.1h2.7v14h-2.5l-0.2-0.9
			c-0.3,0.5-1.2,1.2-2.9,1.2C656.5,39.5,654.5,38,654.5,34.3z M662,31.3c-0.5-0.6-1.3-0.8-2.2-0.8c-1.9,0-2.6,1.6-2.6,3.7
			c0,2,0.7,3.3,2.5,3.3c1.2,0,2-0.4,2.3-0.9V31.3z"/>
		<path id="XMLID_175_" class="st1" d="M666.9,34.1c0-3.7,2.6-5.4,5.6-5.4c3.2,0,5.4,1.7,5.4,5.4c0,3.7-2.6,5.4-5.6,5.4
			C669.2,39.5,666.9,37.8,666.9,34.1z M675.2,34.1c0-2-0.9-3.5-2.8-3.5c-1.9,0-2.8,1.4-2.8,3.5c0,2,0.9,3.5,2.8,3.5
			C674.4,37.6,675.2,36.2,675.2,34.1z"/>
		<path id="XMLID_173_" class="st1" d="M680.2,29h2.6l0.1,0.9c0.4-0.7,1.4-1.2,2.8-1.2c1.7,0,2.8,0.5,3.4,1.5
			c0.5-0.7,1.6-1.5,3.4-1.5c2.8,0,3.9,1.4,3.9,4.2v6.4h-2.7v-5.9c0-2-0.5-2.8-1.9-2.8c-1,0-1.9,0.5-2.2,1c0.1,0.4,0.1,0.9,0.1,1.3
			v6.4h-2.7v-5.9c0-2-0.5-2.8-1.9-2.8c-1.1,0-1.8,0.5-2.1,1v7.7h-2.7V29z"/>
		<path id="XMLID_170_" class="st1" d="M698.9,26.6c0-0.8,0.5-1.2,1.5-1.2c1,0,1.5,0.4,1.5,1.2c0,0.8-0.5,1.2-1.5,1.2
			C699.4,27.8,698.9,27.4,698.9,26.6z M699,29h2.7v10.3H699V29z"/>
		<path id="XMLID_168_" class="st1" d="M703.8,38.6l5.2-7.7h-5.2V29h8.6v0.7l-5,7.7h5v1.9h-8.6V38.6z"/>
		<path id="XMLID_165_" class="st1" d="M713.8,34.1c0-3.7,2.7-5.4,5.4-5.4c2.6,0,5.1,1,5.1,4.9v1.4h-7.7c0.1,1.4,1.1,2.6,3.3,2.6
			c2,0,3.2-0.8,3.8-1.5v2.2c-0.6,0.6-1.9,1.3-4.1,1.3C716.2,39.5,713.8,37.8,713.8,34.1z M721.6,33.2L721.6,33.2
			c0-1.7-0.8-2.6-2.5-2.6c-1.5,0-2.4,1.3-2.5,2.6H721.6z"/>
		<path id="XMLID_163_" class="st1" d="M731.9,36.5v-5.6h-1.4v-0.7l1.1-1.3l2.1-2.5h0.9V29h2.8v1.9h-2.8v5.5c0,0.8,0.3,1.2,1,1.2
			c0.8,0,1.5-0.4,1.8-1v2.1c-0.3,0.4-1.1,0.9-2.4,0.9C732.9,39.5,731.9,38.5,731.9,36.5z"/>
		<path id="XMLID_160_" class="st1" d="M739,34.1c0-3.7,2.6-5.4,5.6-5.4c3.2,0,5.4,1.7,5.4,5.4c0,3.7-2.6,5.4-5.6,5.4
			C741.2,39.5,739,37.8,739,34.1z M747.3,34.1c0-2-0.9-3.5-2.8-3.5c-1.9,0-2.8,1.4-2.8,3.5c0,2,0.9,3.5,2.8,3.5
			C746.4,37.6,747.3,36.2,747.3,34.1z"/>
		<path id="XMLID_158_" class="st2" d="M86.4,61.3v-2.4c0.6,0.4,1.5,0.9,3,0.9c2,0,3.1-0.8,3.1-2c0-1.2-0.7-1.9-3-1.9
			c-1.1,0-2,0.2-2.6,0.5l0.3-7.6h7.7V51h-5.4l-0.1,3.1c0.2-0.1,0.8-0.1,1.2-0.1c3,0,4.7,1.2,4.7,3.7c0,2.6-2.4,4.2-5.6,4.2
			C87.8,61.8,87,61.5,86.4,61.3z"/>
		<path id="XMLID_156_" class="st2" d="M102.5,51.3h2.6l0.1,0.9c0.4-0.7,1.4-1.2,2.8-1.2c1.7,0,2.8,0.5,3.4,1.5
			c0.5-0.7,1.6-1.5,3.4-1.5c2.8,0,3.9,1.4,3.9,4.2v6.4h-2.7v-5.9c0-2-0.5-2.8-1.9-2.8c-1,0-1.9,0.5-2.2,1c0.1,0.4,0.1,0.9,0.1,1.3
			v6.4h-2.7v-5.9c0-2-0.5-2.8-1.9-2.8c-1.1,0-1.8,0.5-2.1,1v7.7h-2.7V51.3z"/>
		<path id="XMLID_153_" class="st2" d="M120.7,64.4v-2c1,0.7,2.5,1.1,4.8,1.1c2.6,0,3.9-0.4,3.9-1.3c0-0.8-0.9-1-2.6-1
			c-1.6,0-4.1,0.3-4.9,0.6v-1.7l1.6-2.3c-1.6-0.5-2.6-1.6-2.6-3.3c0-2.2,2-3.6,4.8-3.6c1.3,0,2.3,0.3,3.1,0.8
			c0.4-0.5,1.3-0.8,2.2-0.8c0.3,0,0.6,0,0.9,0.1V53c-0.2-0.1-0.5-0.1-0.7-0.1c-0.5,0-0.9,0.1-1.1,0.3c0.2,0.4,0.3,0.9,0.3,1.4
			c0,2.2-2,3.5-4.8,3.5h-0.3l-1,1.5c0.5-0.1,1.8-0.3,3-0.3c2.8,0,4.6,0.6,4.6,2.7c0,2-2.1,3.4-6.2,3.4
			C123.4,65.4,121.7,65.1,120.7,64.4z M127.8,54.6c0-1.1-0.9-1.7-2.2-1.7s-2.2,0.6-2.2,1.7s0.9,1.7,2.2,1.7S127.8,55.7,127.8,54.6z"
			/>
		<path id="XMLID_150_" class="st2" d="M137.8,56.4c0-3.7,2.6-5.4,5.6-5.4c3.2,0,5.4,1.7,5.4,5.4c0,3.7-2.6,5.4-5.6,5.4
			C140,61.8,137.8,60.1,137.8,56.4z M146.1,56.4c0-2-0.9-3.5-2.8-3.5c-1.9,0-2.8,1.4-2.8,3.5c0,2,0.9,3.5,2.8,3.5
			C145.2,59.9,146.1,58.5,146.1,56.4z"/>
		<path id="XMLID_148_" class="st2" d="M151,51.3h2.3l0.2,1.4c0.1-1.1,1.1-1.7,2.3-1.7c0.6,0,1,0.2,1.2,0.3v2.2
			c-0.3-0.2-0.7-0.3-1.4-0.3c-1,0-1.6,0.4-1.9,1.1v7.4H151V51.3z"/>
		<path id="XMLID_146_" class="st2" d="M165.9,52c-0.5,0.5-1.9,0.6-3.2,0.6v-2c2,0,3.5-0.5,4.6-1.7h1.3v12.6h-2.6V52z"/>
		<path id="XMLID_143_" class="st2" d="M170.9,55.2c0-4.3,3.4-6.6,7.1-6.6c4.3,0,7.1,2.3,7.1,6.6c0,4.2-3.3,6.6-7.1,6.6
			C173.7,61.8,170.9,59.4,170.9,55.2z M182.3,55.2c0-3-1.8-4.6-4.3-4.6c-2.4,0-4.3,1.5-4.3,4.6c0,3,1.9,4.6,4.3,4.6
			C180.4,59.8,182.3,58.2,182.3,55.2z"/>
		<path id="XMLID_141_" class="st2" d="M192.3,51.3h2.6l0.1,0.9c0.4-0.7,1.4-1.2,2.8-1.2c1.7,0,2.8,0.5,3.4,1.5
			c0.5-0.7,1.6-1.5,3.4-1.5c2.8,0,3.9,1.4,3.9,4.2v6.4h-2.7v-5.9c0-2-0.5-2.8-1.9-2.8c-1,0-1.9,0.5-2.2,1c0.1,0.4,0.1,0.9,0.1,1.3
			v6.4H199v-5.9c0-2-0.5-2.8-1.9-2.8c-1.1,0-1.8,0.5-2.1,1v7.7h-2.7V51.3z"/>
		<path id="XMLID_138_" class="st2" d="M210.5,64.4v-2c1,0.7,2.5,1.1,4.8,1.1c2.6,0,3.9-0.4,3.9-1.3c0-0.8-0.9-1-2.6-1
			c-1.6,0-4.1,0.3-4.9,0.6v-1.7l1.6-2.3c-1.6-0.5-2.6-1.6-2.6-3.3c0-2.2,2-3.6,4.8-3.6c1.3,0,2.3,0.3,3.1,0.8
			c0.4-0.5,1.3-0.8,2.2-0.8c0.3,0,0.6,0,0.9,0.1V53c-0.2-0.1-0.5-0.1-0.7-0.1c-0.5,0-0.9,0.1-1.1,0.3c0.2,0.4,0.3,0.9,0.3,1.4
			c0,2.2-2,3.5-4.8,3.5H215l-1,1.5c0.5-0.1,1.8-0.3,3-0.3c2.8,0,4.6,0.6,4.6,2.7c0,2-2.1,3.4-6.2,3.4
			C213.2,65.4,211.4,65.1,210.5,64.4z M217.5,54.6c0-1.1-0.9-1.7-2.2-1.7s-2.2,0.6-2.2,1.7s0.9,1.7,2.2,1.7S217.5,55.7,217.5,54.6z"
			/>
		<path id="XMLID_134_" class="st1" d="M228.4,48.9h4.2c3.9,0,5.5,1.1,5.5,3.1c0,1.7-1.1,2.6-2.7,2.9v0c1.7,0.3,2.9,1,2.9,3
			c0,2-1.6,3.6-5.6,3.6h-4.3V48.9z M232.7,54.1c2.1,0,2.7-0.6,2.7-1.7c0-1.1-0.8-1.5-2.7-1.5h-1.6v3.2H232.7z M232.8,59.5
			c2.1,0,2.8-0.7,2.8-1.7s-0.7-1.7-2.8-1.7h-1.7v3.5H232.8z"/>
		<path id="XMLID_132_" class="st1" d="M240.8,48.9h2.8v12.6h-2.8V48.9z"/>
		<path id="XMLID_129_" class="st1" d="M246.7,48.9h4c4.7,0,7.5,1.7,7.5,6.3c0,4.6-3.4,6.3-7.5,6.3h-4V48.9z M250.7,59.4
			c3.6,0,4.7-1.2,4.7-4.1c0-2.9-1.1-4.3-4.7-4.3h-1.3v8.4H250.7z"/>
		<path id="XMLID_127_" class="st1" d="M265.5,51.3h2.5l0.2,0.9c0.4-0.7,1.5-1.2,3-1.2c3,0,4.1,1.4,4.1,4.2v6.4h-2.7v-5.9
			c0-2-0.5-2.8-2.1-2.8c-1.3,0-2,0.6-2.3,1v7.7h-2.7V51.3z"/>
		<path id="XMLID_124_" class="st1" d="M277.9,51.9h8.9v2h-8.9V51.9z M277.9,56h8.9v2h-8.9V56z"/>
		<path id="XMLID_121_" class="st1" d="M290,61.4c2.5-1,4.6-2.2,5.6-4.4c-0.5,0.3-1.3,0.5-2.2,0.5c-3,0-4.6-1.7-4.6-4.3
			c0-2.6,2-4.6,5.3-4.6c3.2,0,5,2.1,5,4.9c0,4.5-3.1,7.2-5.2,8H290V61.4z M296.3,54.7c0.1-0.4,0.1-0.9,0.1-1.4
			c0-1.6-0.9-2.6-2.4-2.6c-1.6,0-2.4,1-2.4,2.5s0.9,2.4,2.4,2.4C295.1,55.6,295.8,55.2,296.3,54.7z"/>
		<path id="XMLID_119_" class="st1" d="M303.5,52c-0.5,0.5-1.9,0.6-3.2,0.6v-2c2,0,3.5-0.5,4.6-1.7h1.3v12.6h-2.6V52z"/>
		<path id="XMLID_117_" class="st1" d="M308.7,61.3v-2.4c0.6,0.5,1.4,0.9,2.8,0.9c2.4,0,3.3-0.8,3.3-2.1c0-1.2-0.7-1.9-3-1.9h-0.9
			v-0.2l2.9-4.6h-5v-2.1h8.7v0.2l-3.1,5c1.9,0.3,3.3,1.2,3.3,3.5c0,2-1.7,4.2-5.8,4.2C310.1,61.8,309.2,61.5,308.7,61.3z"/>
		<path id="XMLID_114_" class="st1" d="M329.3,56.4c0-3.7,2.6-5.4,5.6-5.4c3.2,0,5.4,1.7,5.4,5.4c0,3.7-2.6,5.4-5.6,5.4
			C331.5,61.8,329.3,60.1,329.3,56.4z M337.5,56.4c0-2-0.9-3.5-2.8-3.5c-1.9,0-2.8,1.4-2.8,3.5c0,2,0.9,3.5,2.8,3.5
			C336.7,59.9,337.5,58.5,337.5,56.4z"/>
		<path id="XMLID_112_" class="st1" d="M342.5,51.3h2.3l0.2,1.4c0.1-1.1,1.1-1.7,2.3-1.7c0.6,0,1,0.2,1.2,0.3v2.2
			c-0.3-0.2-0.7-0.3-1.4-0.3c-1,0-1.6,0.4-1.9,1.1v7.4h-2.7V51.3z"/>
		<path id="XMLID_109_" class="st1" d="M354.6,56.4c0-3.7,2.6-5.4,5.6-5.4c3.2,0,5.4,1.7,5.4,5.4c0,3.7-2.6,5.4-5.6,5.4
			C356.8,61.8,354.6,60.1,354.6,56.4z M362.9,56.4c0-2-0.9-3.5-2.8-3.5c-1.9,0-2.8,1.4-2.8,3.5c0,2,0.9,3.5,2.8,3.5
			C362,59.9,362.9,58.5,362.9,56.4z"/>
		<path id="XMLID_107_" class="st1" d="M367.7,59.2V47.6h2.7V59c0,0.7,0.3,0.9,0.8,0.9c0.5,0,0.9-0.2,1.1-0.5v1.9
			c-0.2,0.2-0.8,0.6-1.8,0.6C368.6,61.8,367.7,60.9,367.7,59.2z"/>
		<path id="XMLID_104_" class="st1" d="M373.5,58.9c0-2.1,1.8-2.9,5-3.4l1.7-0.2c0-1.8-1-2.3-2.6-2.3c-1.7,0-3.1,0.8-3.6,1.9v-2.5
			c0.4-0.6,1.6-1.5,4.1-1.5c3.1,0,4.8,1.4,4.8,4.3v6.2h-2.5l-0.2-0.9c-0.3,0.6-1.2,1.2-2.8,1.2C375.3,61.8,373.5,61,373.5,58.9z
			 M380.2,56.9l-1.5,0.3c-1.9,0.4-2.5,0.8-2.5,1.7c0,0.8,0.6,1.2,1.7,1.2c1.1,0,2-0.4,2.4-0.9V56.9z"/>
		<path id="XMLID_102_" class="st1" d="M385.6,51.3h2.5l0.2,0.9c0.4-0.7,1.5-1.2,3-1.2c3,0,4.1,1.4,4.1,4.2v6.4h-2.7v-5.9
			c0-2-0.5-2.8-2.1-2.8c-1.3,0-2,0.6-2.3,1v7.7h-2.7V51.3z"/>
		<path id="XMLID_100_" class="st1" d="M397.4,60.9l5.2-7.7h-5.2v-1.9h8.6v0.7l-5,7.7h5v1.9h-8.6V60.9z"/>
		<path id="XMLID_97_" class="st1" d="M407.6,58.9c0-2.1,1.8-2.9,5-3.4l1.7-0.2c0-1.8-1-2.3-2.6-2.3c-1.7,0-3.1,0.8-3.6,1.9v-2.5
			c0.4-0.6,1.6-1.5,4.1-1.5c3.1,0,4.8,1.4,4.8,4.3v6.2h-2.5l-0.2-0.9c-0.3,0.6-1.2,1.2-2.8,1.2C409.3,61.8,407.6,61,407.6,58.9z
			 M414.2,56.9l-1.5,0.3c-1.9,0.4-2.5,0.8-2.5,1.7c0,0.8,0.6,1.2,1.7,1.2c1.1,0,2-0.4,2.4-0.9V56.9z"/>
		<path id="XMLID_94_" class="st1" d="M419.6,51.3h2.5l0.2,0.9c0.3-0.5,1.2-1.2,2.9-1.2c2.8,0,4.7,1.4,4.7,5.1s-2.4,5.7-5.1,5.7
			c-0.9,0-1.9-0.1-2.5-0.7v4h-2.7V51.3z M427.2,56.3c0-2-0.7-3.3-2.6-3.3c-1.2,0-1.9,0.4-2.3,0.9v5.3c0.5,0.6,1.3,0.8,2.2,0.8
			C426.4,59.9,427.2,58.3,427.2,56.3z"/>
		<path id="XMLID_91_" class="st1" d="M432.1,48.9c0-0.8,0.5-1.2,1.5-1.2c1,0,1.5,0.4,1.5,1.2c0,0.8-0.5,1.2-1.5,1.2
			C432.5,50.1,432.1,49.7,432.1,48.9z M432.2,51.3h2.7v10.3h-2.7V51.3z"/>
		<path id="XMLID_89_" class="st1" d="M437.7,51.3h2.5l0.2,0.9c0.4-0.7,1.5-1.2,3-1.2c3,0,4.1,1.4,4.1,4.2v6.4h-2.7v-5.9
			c0-2-0.5-2.8-2.1-2.8c-1.3,0-2,0.6-2.3,1v7.7h-2.7V51.3z"/>
		<path id="XMLID_86_" class="st1" d="M449.6,56.4c0-3.7,2.7-5.4,5.4-5.4c2.6,0,5.1,1,5.1,4.9v1.4h-7.7c0.1,1.4,1.1,2.6,3.3,2.6
			c2,0,3.2-0.8,3.8-1.5v2.2c-0.6,0.6-1.9,1.3-4.1,1.3C451.9,61.8,449.6,60.1,449.6,56.4z M457.4,55.5L457.4,55.5
			c0-1.7-0.8-2.6-2.5-2.6c-1.5,0-2.4,1.3-2.5,2.6H457.4z"/>
		<path id="XMLID_84_" class="st1" d="M469.3,52c-0.5,0.5-1.9,0.6-3.2,0.6v-2c2,0,3.5-0.5,4.6-1.7h1.3v12.6h-2.6V52z"/>
		<path id="XMLID_81_" class="st1" d="M474.3,55.2c0-4.3,3.4-6.6,7.1-6.6c4.3,0,7.1,2.3,7.1,6.6c0,4.2-3.3,6.6-7.1,6.6
			C477.2,61.8,474.3,59.4,474.3,55.2z M485.7,55.2c0-3-1.8-4.6-4.3-4.6c-2.4,0-4.3,1.5-4.3,4.6c0,3,1.9,4.6,4.3,4.6
			C483.9,59.8,485.7,58.2,485.7,55.2z"/>
		<path id="XMLID_78_" class="st1" d="M495.1,56.4c0-3.7,2.6-5.4,5.6-5.4c3.2,0,5.4,1.7,5.4,5.4c0,3.7-2.6,5.4-5.6,5.4
			C497.3,61.8,495.1,60.1,495.1,56.4z M503.4,56.4c0-2-0.9-3.5-2.8-3.5c-1.9,0-2.8,1.4-2.8,3.5c0,2,0.9,3.5,2.8,3.5
			C502.5,59.9,503.4,58.5,503.4,56.4z"/>
		<path id="XMLID_76_" class="st1" d="M508.4,51.3h2.3l0.2,1.4c0.1-1.1,1.1-1.7,2.3-1.7c0.6,0,1,0.2,1.2,0.3v2.2
			c-0.3-0.2-0.7-0.3-1.4-0.3c-1,0-1.6,0.4-1.9,1.1v7.4h-2.7V51.3z"/>
		<path id="XMLID_74_" class="st1" d="M520.6,61.3l4.4-5.3c0.8-1,1.5-2,1.5-3.2c0-1.4-0.8-2.1-2.4-2.1c-1.4,0-2.9,0.8-3.6,1.6V50
			c0.6-0.7,2.1-1.4,4-1.4c3.2,0,4.6,1.6,4.6,4c0,2-1.5,3.8-2.7,5.2l-1.3,1.5h4.3v2.2h-8.7V61.3z"/>
		<path id="XMLID_71_" class="st1" d="M531.1,55.2c0-4.3,3.4-6.6,7.1-6.6c4.3,0,7.1,2.3,7.1,6.6c0,4.2-3.3,6.6-7.1,6.6
			C533.9,61.8,531.1,59.4,531.1,55.2z M542.4,55.2c0-3-1.8-4.6-4.3-4.6c-2.4,0-4.3,1.5-4.3,4.6c0,3,1.9,4.6,4.3,4.6
			C540.6,59.8,542.4,58.2,542.4,55.2z"/>
		<path id="XMLID_69_" class="st1" d="M552.4,51.3h2.6l0.1,0.9c0.4-0.7,1.4-1.2,2.8-1.2c1.7,0,2.8,0.5,3.4,1.5
			c0.5-0.7,1.6-1.5,3.4-1.5c2.8,0,3.9,1.4,3.9,4.2v6.4h-2.7v-5.9c0-2-0.5-2.8-1.9-2.8c-1,0-1.9,0.5-2.2,1c0.1,0.4,0.1,0.9,0.1,1.3
			v6.4h-2.7v-5.9c0-2-0.5-2.8-1.9-2.8c-1.1,0-1.8,0.5-2.1,1v7.7h-2.7V51.3z"/>
		<path id="XMLID_66_" class="st1" d="M570.6,64.4v-2c1,0.7,2.5,1.1,4.8,1.1c2.6,0,3.9-0.4,3.9-1.3c0-0.8-0.9-1-2.6-1
			c-1.6,0-4.1,0.3-4.9,0.6v-1.7l1.6-2.3c-1.6-0.5-2.6-1.6-2.6-3.3c0-2.2,2-3.6,4.8-3.6c1.3,0,2.3,0.3,3.1,0.8
			c0.4-0.5,1.3-0.8,2.2-0.8c0.3,0,0.6,0,0.9,0.1V53c-0.2-0.1-0.5-0.1-0.7-0.1c-0.5,0-0.9,0.1-1.1,0.3c0.2,0.4,0.3,0.9,0.3,1.4
			c0,2.2-2,3.5-4.8,3.5h-0.3l-1,1.5c0.5-0.1,1.8-0.3,3-0.3c2.8,0,4.6,0.6,4.6,2.7c0,2-2.1,3.4-6.2,3.4
			C573.3,65.4,571.6,65.1,570.6,64.4z M577.7,54.6c0-1.1-0.9-1.7-2.2-1.7c-1.3,0-2.2,0.6-2.2,1.7s0.9,1.7,2.2,1.7
			C576.8,56.3,577.7,55.7,577.7,54.6z"/>
		<path id="XMLID_63_" class="st1" d="M593.7,61.8c-3.6-0.3-5.9-2.6-5.9-6.6c0-4.3,3.5-6.6,7-6.6c4.1,0,7,2.3,7,6.6
			c0,3.6-2.3,5.7-5.1,6.4l2.4,2.6h-3.3L593.7,61.8z M598.9,55.3c0-3-1.6-4.6-4.2-4.6c-2.5,0-4.2,1.6-4.2,4.4c0,3,1.6,4.6,4.2,4.6
			C597.3,59.8,598.9,58.1,598.9,55.3z"/>
		<path id="XMLID_60_" class="st1" d="M604.1,48.9h4c4.7,0,7.5,1.7,7.5,6.3c0,4.6-3.4,6.3-7.5,6.3h-4V48.9z M608.1,59.4
			c3.6,0,4.7-1.2,4.7-4.1c0-2.9-1.1-4.3-4.7-4.3h-1.3v8.4H608.1z"/>
		<path id="XMLID_58_" class="st1" d="M622.9,51.3h2.5l0.2,0.9c0.4-0.7,1.5-1.2,3-1.2c3,0,4.1,1.4,4.1,4.2v6.4h-2.7v-5.9
			c0-2-0.5-2.8-2.1-2.8c-1.3,0-2,0.6-2.3,1v7.7h-2.7V51.3z"/>
		<path id="XMLID_55_" class="st1" d="M635.4,51.9h8.9v2h-8.9V51.9z M635.4,56h8.9v2h-8.9V56z"/>
		<path id="XMLID_53_" class="st1" d="M646.6,61.3v-2.4c0.6,0.5,1.4,0.9,2.8,0.9c2.4,0,3.3-0.8,3.3-2.1c0-1.2-0.7-1.9-3-1.9h-0.9
			v-0.2l2.9-4.6h-5v-2.1h8.7v0.2l-3.1,5c1.9,0.3,3.3,1.2,3.3,3.5c0,2-1.7,4.2-5.8,4.2C648,61.8,647.2,61.5,646.6,61.3z"/>
		<path id="XMLID_51_" class="st1" d="M660,52c-0.5,0.5-1.9,0.6-3.2,0.6v-2c2,0,3.5-0.5,4.6-1.7h1.3v12.6H660V52z"/>
		<path id="XMLID_49_" class="st1" d="M665.1,61.3l4.4-5.3c0.8-1,1.5-2,1.5-3.2c0-1.4-0.8-2.1-2.4-2.1c-1.4,0-2.9,0.8-3.6,1.6V50
			c0.6-0.7,2.1-1.4,4-1.4c3.2,0,4.6,1.6,4.6,4c0,2-1.5,3.8-2.7,5.2l-1.3,1.5h4.3v2.2h-8.7V61.3z"/>
	</g>
</g>
<g id="XMLID_1_">
	<path id="XMLID_45_" class="st2" d="M7.9,59h6.5c1,0,1.4-0.2,1.4-0.7c0-0.5-0.3-0.6-1-0.7c-3.1-0.3-3.9-1.1-3.9-3.1
		c0-2,1.3-3.3,4.3-3.3c1.8,0,2.6,0.2,3.3,0.5v2.6c-0.9-0.4-2-0.6-3.1-0.6c-0.9,0-1.4,0.2-1.4,0.7c0,0.5,0.3,0.6,1,0.7
		c3.1,0.3,3.9,1.1,3.9,3.1c0,1.9-1.1,3.3-4.4,3.3h-6"/>
	<path id="XMLID_42_" class="st2" d="M22.4,57.4c-0.1,1.3,0.6,1.6,2.1,1.6c1.5,0,2.6-0.3,3.3-0.6v2.4c-1.1,0.5-2.5,0.7-3.7,0.7
		c-3.2,0-4.8-1.6-4.8-5.2c0-3.5,1.5-5.2,4.6-5.2c4.2,0,4.5,3.1,4.2,6.2H22.4z M22.4,55.5h2.8c0.2-1.1-0.1-1.9-1.2-1.9
		C22.9,53.6,22.4,54.3,22.4,55.5"/>
	<path id="XMLID_41_" class="st2" d="M30.9,51.5l0.4,0.7c1.1-0.7,2.3-1,3.4-1c2.7,0,3.4,1.4,3.4,3.3v6.8H35V55
		c0-0.7-0.3-1.2-1.1-1.2c-0.8,0-1.4,0.3-1.7,0.5v7H29v-9.8H30.9z"/>
	<path id="XMLID_38_" class="st2" d="M44.2,54.4c0-0.4-0.3-0.7-1.2-0.7c-1.2,0-2.7,0.4-3.5,0.7v-2.6c0.7-0.3,2.1-0.6,3.5-0.6
		c3.5,0,4.2,1.5,4.2,3.7v6.4h-1.9l-0.4-0.7c-0.7,0.6-1.7,1-2.9,1c-2.5,0-3.3-1.6-3.3-3.1c0-2.6,1.9-3,3.7-3.2l1.8-0.2V54.4z
		 M42.9,56.9c-0.9,0.1-1.2,0.5-1.2,1.3c0,0.7,0.5,1.2,1.1,1.2c0.6,0,1.1-0.2,1.4-0.5v-2.2L42.9,56.9z"/>
	<path id="XMLID_35_" class="st2" d="M50.2,51.5l0.5,0.8c0.7-0.6,1.6-1.1,3.2-1.1c2.5,0,3.8,1.6,3.8,5.2c0,3.6-1.3,5.2-3.8,5.2
		c-1.1,0-1.9-0.3-2.4-0.6v5.2h-3.1V51.5H50.2z M51.4,58.6c0,0,0.6,0.4,1.4,0.4c1.4,0,1.8-1,1.8-2.6c0-1.7-0.3-2.6-1.8-2.6
		c-0.8,0-1.4,0.4-1.4,0.4V58.6z"/>
	<path id="XMLID_34_" class="st2" d="M62.4,61.3c0,0-0.4,0.1-0.9,0.1c-1.7,0-3-0.9-3-2.8v-7.2h3.1v6.7c0,0.4,0.2,0.6,0.8,0.6V61.3z"
		/>
	<path id="XMLID_33_" class="st2" d="M65,51.5l0.4,0.7c1.1-0.7,2.3-1,3.4-1c2.7,0,3.4,1.4,3.4,3.3v6.8h-3.1V55
		c0-0.7-0.3-1.2-1.1-1.2c-0.8,0-1.4,0.3-1.7,0.5v7h-3.1v-9.8H65z"/>
	<path id="XMLID_30_" class="st2" d="M76,57.4c-0.1,1.3,0.6,1.6,2.1,1.6c1.5,0,2.6-0.3,3.3-0.6v2.4c-1.1,0.5-2.5,0.7-3.7,0.7
		c-3.2,0-4.8-1.6-4.8-5.2c0-3.5,1.5-5.2,4.6-5.2c4.2,0,4.5,3.1,4.2,6.2H76z M76,55.5h2.8c0.2-1.1-0.1-1.9-1.3-1.9
		C76.4,53.6,76,54.3,76,55.5"/>
	<polyline id="XMLID_29_" class="st2" points="4.6,58.3 5.2,55.8 7.1,55.8 5.9,50.2 4.6,55.8 4,58.3 3.3,61.3 0,61.3 4.1,46.5 
		7.7,46.5 11.7,61.3 8.4,61.3 7.7,58.3 	"/>
	<g id="XMLID_7_">
		<polygon id="XMLID_28_" class="st2" points="54.5,66 54.5,64.2 52.7,64.2 52.7,66 52.3,66 52.3,62.3 52.7,62.3 52.7,63.9 
			54.5,63.9 54.5,62.3 54.8,62.3 54.8,66 		"/>
		<path id="XMLID_25_" class="st2" d="M55.8,62.6c0.1,0,0.2,0.1,0.2,0.2c0,0.1-0.1,0.2-0.2,0.2c-0.1,0-0.2-0.1-0.2-0.2
			C55.5,62.7,55.6,62.6,55.8,62.6 M55.6,65.5v-2h0.3v2c0,0.2,0.1,0.2,0.2,0.2v0.3C55.8,66.1,55.6,65.9,55.6,65.5"/>
		<polygon id="XMLID_24_" class="st2" points="57.6,64.6 58.7,66 58.3,66 57.4,64.8 57,65 57,66 56.7,66 56.7,62.3 57,62.3 57,64.6 
			58.1,63.5 58.6,63.5 		"/>
		<path id="XMLID_23_" class="st2" d="M62.1,64.2c0-0.3-0.2-0.4-0.5-0.4c-0.3,0-0.5,0.1-0.7,0.2c0,0.1,0,0.2,0,0.3V66h-0.3v-1.8
			c0-0.3-0.2-0.4-0.5-0.4c-0.3,0-0.4,0-0.6,0.1V66h-0.3v-2.5h0.2l0.1,0.2c0.2-0.2,0.5-0.2,0.7-0.2c0.3,0,0.6,0.1,0.7,0.3
			c0.3-0.2,0.5-0.3,0.8-0.3c0.5,0,0.8,0.2,0.8,0.7V66h-0.3V64.2z"/>
		<path id="XMLID_20_" class="st2" d="M63.9,63.8c-0.3,0-0.5,0.1-0.7,0.1v-0.3c0.2-0.1,0.5-0.1,0.7-0.1c0.7,0,0.9,0.3,0.9,0.8V66
			h-0.2l-0.1-0.2c-0.2,0.2-0.5,0.2-0.7,0.2c-0.6,0-0.9-0.4-0.9-0.8c0-0.4,0.2-0.7,0.9-0.8l0.6,0v-0.1C64.5,64,64.3,63.8,63.9,63.8
			 M63.8,64.8c-0.3,0-0.5,0.2-0.5,0.5c0,0.2,0.1,0.5,0.5,0.5c0.3,0,0.4-0.1,0.7-0.2v-0.9L63.8,64.8z"/>
		<path id="XMLID_17_" class="st2" d="M66.7,66h-0.3v-3.7h1.1c0.9,0,1.2,0.5,1.2,1.1c0,0.6-0.3,1.1-1.2,1.1h-0.8V66z M66.7,64.2h0.8
			c0.7,0,0.8-0.4,0.8-0.8c0-0.4-0.1-0.8-0.8-0.8h-0.8V64.2z"/>
		<path id="XMLID_16_" class="st2" d="M70.2,63.8c-0.3,0-0.5,0.1-0.7,0.2v2h-0.3v-3.7h0.3v1.4c0.2-0.1,0.4-0.2,0.7-0.2
			c0.6,0,0.8,0.3,0.8,0.7V66h-0.3v-1.8C70.7,63.9,70.5,63.8,70.2,63.8"/>
		<path id="XMLID_13_" class="st2" d="M72.5,63.8c-0.3,0-0.5,0.1-0.7,0.1v-0.3c0.2-0.1,0.5-0.1,0.7-0.1c0.7,0,0.9,0.3,0.9,0.8V66
			h-0.2l-0.1-0.2c-0.2,0.2-0.5,0.2-0.7,0.2c-0.6,0-0.9-0.4-0.9-0.8c0-0.4,0.2-0.7,0.9-0.8l0.6,0v-0.1C73.1,64,73,63.8,72.5,63.8
			 M72.4,64.8c-0.3,0-0.5,0.2-0.5,0.5c0,0.2,0.1,0.5,0.5,0.5c0.3,0,0.4-0.1,0.7-0.2v-0.9L72.4,64.8z"/>
		<path id="XMLID_12_" class="st2" d="M75.4,63.8c-0.1,0-0.2,0-0.3,0c-0.3,0-0.5,0.1-0.7,0.2v2h-0.3v-2.5h0.2l0.1,0.2
			c0.2-0.2,0.5-0.3,0.8-0.3c0.1,0,0.2,0,0.3,0V63.8z"/>
		<path id="XMLID_11_" class="st2" d="M78.7,64.2c0-0.3-0.2-0.4-0.5-0.4c-0.3,0-0.5,0.1-0.7,0.2c0,0.1,0,0.2,0,0.3V66h-0.3v-1.8
			c0-0.3-0.2-0.4-0.5-0.4c-0.3,0-0.4,0-0.6,0.1V66h-0.3v-2.5H76l0.1,0.2c0.2-0.2,0.5-0.2,0.7-0.2c0.3,0,0.6,0.1,0.7,0.3
			c0.3-0.2,0.5-0.3,0.8-0.3c0.5,0,0.8,0.2,0.8,0.7V66h-0.3V64.2z"/>
		<path id="XMLID_8_" class="st2" d="M80.6,63.8c-0.3,0-0.5,0.1-0.7,0.1v-0.3c0.2-0.1,0.5-0.1,0.7-0.1c0.7,0,0.9,0.3,0.9,0.8V66
			h-0.2l-0.1-0.2c-0.2,0.2-0.5,0.2-0.7,0.2c-0.6,0-0.9-0.4-0.9-0.8c0-0.4,0.2-0.7,0.9-0.8l0.6,0v-0.1C81.1,64,81,63.8,80.6,63.8
			 M80.5,64.8c-0.3,0-0.5,0.2-0.5,0.5c0,0.2,0.1,0.5,0.5,0.5c0.3,0,0.4-0.1,0.7-0.2v-0.9L80.5,64.8z"/>
	</g>
	<g id="XMLID_2_">
		<path id="XMLID_6_" class="st2" d="M61.2,46c-0.4,0-0.8,0.1-1.1,0.3c0.1,0.1,0.3,0.2,0.4,0.3c0.8,0.2,1.4,0.9,1.4,1.8
			c0,0.9-0.6,1.6-1.4,1.8c-0.1,0.1-0.3,0.2-0.4,0.3c0.3,0.2,0.7,0.3,1.1,0.3c1.3,0,2.4-1,2.4-2.4C63.6,47.1,62.5,46,61.2,46z"/>
		<path id="XMLID_5_" class="st3" d="M58.2,48.4c0-0.9,0.6-1.6,1.4-1.8c0.1-0.1,0.3-0.2,0.4-0.3c-0.3-0.2-0.7-0.3-1.1-0.3
			c-1.4,0-2.4,1.1-2.4,2.4c0,1.4,1,2.4,2.4,2.4c0.4,0,0.8-0.1,1.1-0.3c-0.2-0.1-0.3-0.2-0.4-0.3C58.8,50,58.2,49.3,58.2,48.4z"/>
		<path id="XMLID_4_" class="st3" d="M60.1,50.2c-0.2,0-0.3,0-0.4-0.1c0.1,0.1,0.3,0.2,0.4,0.3c0.2-0.1,0.3-0.2,0.4-0.3
			C60.3,50.2,60.2,50.2,60.1,50.2z"/>
		<path id="XMLID_3_" class="st3" d="M60.1,46.5c0.1,0,0.3,0,0.4,0c-0.1-0.1-0.3-0.2-0.4-0.3c-0.2,0.1-0.3,0.2-0.4,0.3
			C59.8,46.6,59.9,46.5,60.1,46.5z"/>
	</g>
</g>
</svg>
