<!-- Generator: Adobe Illustrator 22.1.0, SVG Export Plug-In  -->
<svg version="1.1"
	 xmlns="http://www.w3.org/2000/svg" xmlns:xlink="http://www.w3.org/1999/xlink" xmlns:a="http://ns.adobe.com/AdobeSVGViewerExtensions/3.0/"
	 x="0px" y="0px" width="861.2px" height="45.3px" viewBox="0 0 861.2 45.3" style="enable-background:new 0 0 861.2 45.3;"
	 xml:space="preserve">
<style type="text/css">
	.st0{fill:#490E67;}
	.st1{fill:#C29FD8;}
</style>
<defs>
</defs>
<g id="XMLID_377_">
	<path id="XMLID_421_" class="st0" d="M17.7,29.3h14.5c2.2,0,3.2-0.4,3.2-1.5c0-1.1-0.7-1.4-2.2-1.5c-6.9-0.6-8.9-2.5-8.9-7
		c0-4.5,2.9-7.5,9.7-7.5c4,0,5.9,0.5,7.3,1.1v5.9c-2-0.8-4.5-1.4-7.1-1.4c-2,0-3.1,0.4-3.1,1.5c0,1.1,0.7,1.4,2.2,1.5
		c6.9,0.6,8.9,2.5,8.9,7c0,4.2-2.5,7.5-9.9,7.5H19"/>
	<path id="XMLID_418_" class="st0" d="M50.4,25.6c-0.2,2.9,1.3,3.7,4.7,3.7c3.3,0,5.8-0.7,7.3-1.5v5.5c-2.5,1.1-5.6,1.5-8.3,1.5
		c-7.2,0-10.8-3.7-10.8-11.6c0-7.9,3.5-11.6,10.3-11.6c9.4,0,10.1,7,9.5,13.9H50.4z M50.4,21.3h6.2c0.4-2.4-0.1-4.4-2.8-4.4
		C51.4,17,50.4,18.6,50.4,21.3"/>
	<path id="XMLID_417_" class="st0" d="M69.5,12.3l0.9,1.6c2.5-1.5,5.2-2.2,7.6-2.2c6,0,7.7,3.2,7.7,7.4v15.2h-7V20.1
		c0-1.6-0.6-2.7-2.5-2.7c-1.7,0-3.3,0.7-3.9,1.1v15.7h-7v-22H69.5z"/>
	<path id="XMLID_414_" class="st0" d="M99.4,18.9c0-1-0.7-1.5-2.6-1.5c-2.8,0-6,0.8-7.9,1.7v-5.9c1.5-0.7,4.8-1.5,7.9-1.5
		c7.9,0,9.4,3.4,9.4,8.3v14.3h-4.2l-1-1.7c-1.6,1.4-3.8,2.3-6.5,2.3c-5.6,0-7.5-3.7-7.5-7c0-5.9,4.3-6.8,8.3-7.2l4-0.4V18.9z
		 M96.4,24.5c-2,0.3-2.8,1.2-2.8,2.9c0,1.6,1.1,2.6,2.5,2.6c1.3,0,2.5-0.4,3.2-1.1v-4.9L96.4,24.5z"/>
	<path id="XMLID_411_" class="st0" d="M112.7,12.3l1.2,1.8c1.5-1.3,3.6-2.4,7.1-2.4c5.7,0,8.5,3.5,8.5,11.6c0,8.1-2.8,11.6-8.5,11.6
		c-2.4,0-4.2-0.6-5.5-1.4v11.8h-7V12.3H112.7z M115.5,28.3c0,0,1.4,0.9,3.1,0.9c3.2,0,4-2.2,4-5.9c0-3.8-0.7-5.8-4-5.8
		c-1.8,0-3.1,0.9-3.1,0.9V28.3z"/>
	<path id="XMLID_410_" class="st0" d="M140.2,34.5c0,0-0.9,0.2-2,0.2c-3.8,0-6.8-1.9-6.8-6.2V12.3h7v15.2c0,0.8,0.4,1.3,1.8,1.3
		V34.5z"/>
	<path id="XMLID_409_" class="st0" d="M146.1,12.3l0.9,1.6c2.5-1.5,5.2-2.2,7.6-2.2c6,0,7.7,3.2,7.7,7.4v15.2h-7V20.1
		c0-1.6-0.6-2.7-2.5-2.7c-1.7,0-3.3,0.7-3.9,1.1v15.7h-7v-22H146.1z"/>
	<path id="XMLID_406_" class="st0" d="M170.7,25.6c-0.2,2.9,1.3,3.7,4.7,3.7c3.3,0,5.8-0.7,7.3-1.5v5.5c-2.5,1.1-5.6,1.5-8.3,1.5
		c-7.2,0-10.8-3.7-10.8-11.6c0-7.9,3.5-11.6,10.3-11.6c9.4,0,10.1,7,9.5,13.9H170.7z M170.7,21.3h6.2c0.4-2.4-0.1-4.4-2.8-4.4
		C171.8,17,170.7,18.6,170.7,21.3"/>
	<polyline id="XMLID_405_" class="st0" points="10.4,27.5 11.8,21.9 16,21.9 13.2,9.5 10.4,21.9 9,27.5 7.5,34.3 0,34.3 9.1,1.2 
		17.2,1.2 26.4,34.3 18.9,34.3 17.3,27.5 	"/>
	<g id="XMLID_383_">
		<polygon id="XMLID_404_" class="st0" points="122.5,44.9 122.5,41 118.4,41 118.4,44.9 117.6,44.9 117.6,36.7 118.4,36.7 
			118.4,40.3 122.5,40.3 122.5,36.7 123.2,36.7 123.2,44.9 		"/>
		<path id="XMLID_401_" class="st0" d="M125.3,37.2c0.3,0,0.5,0.2,0.5,0.6c0,0.3-0.2,0.6-0.5,0.6c-0.3,0-0.6-0.2-0.6-0.6
			C124.8,37.4,125,37.2,125.3,37.2 M125,43.8v-4.4h0.8v4.5c0,0.4,0.1,0.5,0.5,0.5V45C125.4,45,125,44.7,125,43.8"/>
		<polygon id="XMLID_400_" class="st0" points="129.4,41.7 132,44.9 131.1,44.9 128.9,42.1 128.2,42.8 128.2,44.9 127.4,44.9 
			127.4,36.7 128.2,36.7 128.2,41.9 130.7,39.4 131.7,39.4 		"/>
		<path id="XMLID_399_" class="st0" d="M139.5,40.9c0-0.7-0.4-0.9-1-0.9c-0.7,0-1.1,0.1-1.5,0.4c0,0.2,0.1,0.4,0.1,0.6v4h-0.8v-4
			c0-0.7-0.4-0.9-1-0.9c-0.6,0-1,0.1-1.4,0.3v4.6H133v-5.5h0.4l0.2,0.5c0.5-0.4,1.1-0.6,1.6-0.6c0.7,0,1.3,0.2,1.5,0.6
			c0.6-0.4,1.2-0.6,1.7-0.6c1.2,0,1.8,0.6,1.8,1.7v4h-0.8V40.9z"/>
		<path id="XMLID_396_" class="st0" d="M143.6,40c-0.7,0-1.2,0.1-1.7,0.3v-0.7c0.5-0.2,1.1-0.3,1.7-0.3c1.7,0,2.1,0.7,2.1,1.9v3.8
			h-0.4l-0.2-0.4c-0.5,0.4-1.1,0.6-1.7,0.6c-1.4,0-1.9-0.8-1.9-1.8c0-0.9,0.5-1.6,2-1.7l1.5-0.1v-0.3C144.9,40.3,144.6,40,143.6,40
			 M143.4,42.1c-0.8,0.1-1.1,0.5-1.1,1.1c0,0.5,0.1,1.1,1.2,1.1c0.6,0,1-0.2,1.5-0.4V42L143.4,42.1z"/>
		<path id="XMLID_393_" class="st0" d="M149.8,44.9h-0.8v-8.3h2.5c2.1,0,2.8,1.2,2.8,2.5c0,1.3-0.7,2.5-2.8,2.5h-1.8V44.9z
			 M149.8,40.9h1.9c1.6,0,1.9-1,1.9-1.8c0-0.8-0.3-1.8-1.9-1.8h-1.9V40.9z"/>
		<path id="XMLID_392_" class="st0" d="M157.7,40c-0.7,0-1.1,0.1-1.5,0.4v4.6h-0.8v-8.3h0.8v3.1c0.5-0.3,1-0.5,1.5-0.5
			c1.3,0,1.9,0.6,1.9,1.7v4h-0.8v-4C158.8,40.2,158.4,40,157.7,40"/>
		<path id="XMLID_389_" class="st0" d="M162.9,40c-0.7,0-1.2,0.1-1.7,0.3v-0.7c0.5-0.2,1.1-0.3,1.7-0.3c1.6,0,2.1,0.7,2.1,1.9v3.8
			h-0.4l-0.2-0.4c-0.5,0.4-1.1,0.6-1.7,0.6c-1.4,0-1.9-0.8-1.9-1.8c0-0.9,0.5-1.6,2-1.7l1.5-0.1v-0.3C164.2,40.3,164,40,162.9,40
			 M162.7,42.1c-0.8,0.1-1.1,0.5-1.1,1.1c0,0.5,0.1,1.1,1.2,1.1c0.6,0,1-0.2,1.5-0.4V42L162.7,42.1z"/>
		<path id="XMLID_388_" class="st0" d="M169.5,40.1c-0.2-0.1-0.4-0.1-0.7-0.1c-0.7,0-1.2,0.1-1.6,0.4v4.6h-0.8v-5.5h0.4l0.2,0.5
			c0.5-0.4,1.2-0.6,1.8-0.6c0.3,0,0.5,0,0.7,0.1V40.1z"/>
		<path id="XMLID_387_" class="st0" d="M177,40.9c0-0.7-0.4-0.9-1.1-0.9c-0.7,0-1.1,0.1-1.5,0.4c0,0.2,0.1,0.4,0.1,0.6v4h-0.8v-4
			c0-0.7-0.4-0.9-1-0.9c-0.6,0-1,0.1-1.4,0.3v4.6h-0.8v-5.5h0.4l0.2,0.5c0.5-0.4,1.1-0.6,1.6-0.6c0.7,0,1.3,0.2,1.5,0.6
			c0.6-0.4,1.2-0.6,1.7-0.6c1.2,0,1.8,0.6,1.8,1.7v4H177V40.9z"/>
		<path id="XMLID_384_" class="st0" d="M181.1,40c-0.7,0-1.2,0.1-1.7,0.3v-0.7c0.5-0.2,1.1-0.3,1.7-0.3c1.7,0,2.1,0.7,2.1,1.9v3.8
			h-0.4l-0.2-0.4c-0.5,0.4-1.1,0.6-1.7,0.6c-1.4,0-1.9-0.8-1.9-1.8c0-0.9,0.5-1.6,2-1.7l1.5-0.1v-0.3C182.4,40.3,182.1,40,181.1,40
			 M180.9,42.1c-0.8,0.1-1.1,0.5-1.1,1.1c0,0.5,0.1,1.1,1.2,1.1c0.6,0,1-0.2,1.5-0.4V42L180.9,42.1z"/>
	</g>
	<g id="XMLID_378_">
		<path id="XMLID_382_" class="st0" d="M137.5,0c-0.9,0-1.8,0.2-2.6,0.6c0.3,0.2,0.7,0.4,0.9,0.6c1.9,0.4,3.2,2.1,3.2,4.1
			c0,2-1.4,3.7-3.2,4.1c-0.3,0.3-0.6,0.5-1,0.7c0.8,0.4,1.6,0.6,2.6,0.6c3,0,5.3-2.3,5.3-5.3C142.9,2.4,140.5,0,137.5,0z"/>
		<path id="XMLID_381_" class="st1" d="M130.8,5.3c0-2,1.3-3.6,3.2-4.1c0.3-0.2,0.6-0.5,0.9-0.7c-0.8-0.4-1.6-0.6-2.5-0.6
			c-3,0-5.3,2.4-5.3,5.3c0,3,2.3,5.3,5.3,5.3c0.9,0,1.8-0.2,2.5-0.6c-0.4-0.2-0.7-0.4-1-0.7C132.1,9,130.8,7.4,130.8,5.3z"/>
		<path id="XMLID_380_" class="st1" d="M135,9.5c-0.3,0-0.7,0-1-0.1c0.3,0.3,0.6,0.5,1,0.7c0.3-0.2,0.7-0.4,1-0.7
			C135.6,9.5,135.3,9.5,135,9.5z"/>
		<path id="XMLID_379_" class="st1" d="M135,1.2c0.3,0,0.6,0,0.9,0.1c-0.3-0.2-0.6-0.5-0.9-0.6c-0.3,0.2-0.7,0.4-0.9,0.7
			C134.3,1.2,134.6,1.2,135,1.2z"/>
	</g>
</g>
<g id="XMLID_65_">
	<g id="XMLID_67_">
		<path id="XMLID_220_" d="M560.5,8h2.5l0.2,0.8c0.4-0.6,1.3-1.1,2.4-1.1c1.4,0,2.2,0.4,2.7,1.3c0.5-0.7,1.4-1.3,2.8-1.3
			c2.3,0,3.2,1.3,3.2,3.9v5.9h-2.8v-5.5c0-1.5-0.4-2.1-1.3-2.1c-0.7,0-1.2,0.4-1.5,0.8c0.1,0.3,0.1,0.6,0.1,0.9v5.9H566v-5.5
			c0-1.5-0.4-2.1-1.3-2.1c-0.7,0-1.2,0.4-1.4,0.8v6.8h-2.8V8z"/>
		<path id="XMLID_217_" d="M576.2,5.7c0-0.8,0.5-1.3,1.4-1.3c0.9,0,1.5,0.5,1.5,1.3c0,0.8-0.6,1.3-1.5,1.3
			C576.7,7.1,576.2,6.6,576.2,5.7z M576.2,8h2.8v9.5h-2.8V8z"/>
		<path id="XMLID_215_" d="M581,8h2.5l0.2,0.8c0.4-0.6,1.3-1.1,2.5-1.1c2.5,0,3.4,1.3,3.4,3.9v5.9h-2.8v-5.4c0-1.6-0.4-2.1-1.5-2.1
			c-0.8,0-1.3,0.4-1.6,0.8v6.8H581V8z"/>
		<path id="XMLID_213_" d="M592,14.8v-4.6h-1.1v-1l0.9-1.2l1.7-2.2h1.3V8h2.2v2.2h-2.2v4.3c0,0.7,0.2,1,0.8,1c0.7,0,1.1-0.3,1.4-0.8
			V17c-0.3,0.4-1,0.8-2.2,0.8C592.8,17.8,592,16.7,592,14.8z"/>
		<path id="XMLID_210_" d="M603.1,10.2H602v-1l1-0.9c-0.2-0.3-0.3-0.8-0.3-1.4c0-1.8,1.5-2.7,3.1-2.7c1.1,0,1.7,0.3,1.9,0.6v2.3
			c-0.3-0.4-0.7-0.7-1.3-0.7c-0.6,0-1,0.3-1,0.9c0,0.3,0.1,0.5,0.2,0.7h1.6v2.1h-1.4v7.3h-2.8V10.2z M608.7,15.2V4.6h2.8v10.2
			c0,0.5,0.2,0.7,0.6,0.7s0.7-0.2,0.8-0.4v2.2c-0.2,0.2-0.8,0.5-1.7,0.5C609.6,17.8,608.7,16.9,608.7,15.2z"/>
		<path id="XMLID_207_" d="M613.7,15c0-1.9,1.3-2.7,4-3.1l1.4-0.2c0-1.3-0.6-1.7-1.9-1.7c-1.4,0-2.6,0.7-3.1,1.7V9
			c0.4-0.5,1.5-1.3,3.5-1.3c2.7,0,4.2,1.2,4.2,4.1v5.7h-2.4l-0.2-0.8c-0.3,0.5-1,1.1-2.3,1.1C615.1,17.8,613.7,16.9,613.7,15z
			 M619.1,13.4l-1.1,0.2c-1.2,0.3-1.7,0.6-1.7,1.2c0,0.6,0.5,0.9,1.1,0.9c0.8,0,1.4-0.3,1.6-0.7V13.4z"/>
		<path id="XMLID_205_" d="M622.9,8h3l1.5,4.5l0.3,1c0.1-0.3,0.2-0.8,0.3-1l1.6-4.5h2.7l-3.8,9.5h-1.9L622.9,8z"/>
		<path id="XMLID_202_" d="M632.9,12.8c0-3.5,2.3-5,4.9-5c2.8,0,4.7,1.5,4.7,5c0,3.5-2.3,5-4.9,5C634.8,17.8,632.9,16.3,632.9,12.8z
			 M639.6,12.8c0-1.6-0.6-2.7-1.9-2.7c-1.3,0-1.9,1.1-1.9,2.7c0,1.7,0.6,2.7,1.9,2.7C639,15.5,639.6,14.4,639.6,12.8z"/>
		<path id="XMLID_200_" d="M644,8h2.3l0.2,1.3c0.1-1,0.9-1.5,1.8-1.5c0.5,0,0.8,0.1,1,0.2v2.5c-0.2-0.2-0.6-0.3-1.1-0.3
			c-0.7,0-1.1,0.3-1.4,0.8v6.5H644V8z"/>
		<path id="XMLID_198_" d="M654.4,17v-2.5c0.6,0.6,1.5,1.1,2.8,1.1c1.2,0,1.6-0.4,1.6-0.9c0-0.5-0.2-0.7-1.3-0.9l-0.5-0.1
			c-2-0.3-2.8-1.2-2.8-2.9c0-1.6,1.1-3.1,3.9-3.1c1.4,0,2.5,0.3,3,0.8V11c-0.6-0.7-1.6-1-2.9-1c-1.1,0-1.5,0.3-1.5,0.8
			s0.2,0.7,1.2,0.9l0.5,0.1c2.1,0.3,3,1.1,3,2.8c0,1.6-1.1,3.3-4.1,3.3C655.9,17.8,654.9,17.4,654.4,17z"/>
		<path id="XMLID_196_" d="M662.9,13.9V8h2.8v5.4c0,1.6,0.3,2.2,1.4,2.2c0.8,0,1.3-0.4,1.5-0.8V8h2.8v9.5h-2.5l-0.2-0.8
			c-0.4,0.6-1.3,1.1-2.5,1.1C663.8,17.8,662.9,16.5,662.9,13.9z"/>
		<path id="XMLID_193_" d="M675.8,16.9l-0.3,0.7h-2.1V4.6h2.8v4.2c0.3-0.5,1.1-1,2.4-1c2.3,0,3.8,1.3,3.8,4.8c0,3.5-1.8,5.3-4.2,5.3
			C676.8,17.8,676.2,17.3,675.8,16.9z M676.1,15c0.4,0.5,0.9,0.6,1.5,0.6c1.3,0,1.8-1.3,1.8-3s-0.5-2.6-1.8-2.6
			c-0.8,0-1.3,0.3-1.6,0.8V15z"/>
		<path id="XMLID_191_" d="M683.9,15.2V4.6h2.8v10.2c0,0.5,0.2,0.7,0.6,0.7s0.7-0.2,0.8-0.4v2.2c-0.2,0.2-0.8,0.5-1.7,0.5
			C684.7,17.8,683.9,16.9,683.9,15.2z"/>
		<path id="XMLID_188_" d="M689.3,5.7c0-0.8,0.5-1.3,1.4-1.3c0.9,0,1.5,0.5,1.5,1.3c0,0.8-0.6,1.3-1.5,1.3
			C689.9,7.1,689.3,6.6,689.3,5.7z M689.4,8h2.8v9.5h-2.8V8z"/>
		<path id="XMLID_186_" d="M694.2,8h2.5l0.2,0.8c0.4-0.6,1.3-1.1,2.5-1.1c2.5,0,3.4,1.3,3.4,3.9v5.9H700v-5.4c0-1.6-0.4-2.1-1.5-2.1
			c-0.8,0-1.3,0.4-1.6,0.8v6.8h-2.8V8z"/>
		<path id="XMLID_183_" d="M704.2,20.2v-2.1c0.9,0.5,2.1,0.9,4,0.9c2.2,0,3.1-0.3,3.1-1c0-0.6-0.6-0.7-2-0.7c-1.4,0-3.6,0.3-4.2,0.6
			V16l1.3-2c-1.4-0.4-2.2-1.5-2.2-3c0-2.1,1.7-3.3,4.2-3.3c1.1,0,2,0.2,2.7,0.7c0.3-0.5,1-0.8,1.8-0.8c0.3,0,0.6,0,0.8,0.1v2.1
			c-0.2-0.1-0.4-0.2-0.6-0.2c-0.3,0-0.6,0.1-0.8,0.2c0.1,0.3,0.2,0.7,0.2,1.1c0,2.1-1.6,3.3-4.2,3.3h-0.2l-0.7,1.2
			c0.4-0.1,1.5-0.3,2.5-0.3c2.4,0,3.9,0.5,3.9,2.6c0,2-1.8,3.3-5.4,3.3C706.5,21.1,705,20.8,704.2,20.2z M710,11.1
			c0-0.8-0.6-1.3-1.5-1.3c-1,0-1.5,0.5-1.5,1.3s0.6,1.3,1.5,1.3C709.4,12.3,710,11.9,710,11.1z"/>
		<path id="XMLID_181_" d="M714.9,13.9V8h2.8v5.4c0,1.6,0.3,2.2,1.4,2.2c0.8,0,1.3-0.4,1.5-0.8V8h2.8v9.5h-2.5l-0.2-0.8
			c-0.4,0.6-1.3,1.1-2.5,1.1C715.8,17.8,714.9,16.5,714.9,13.9z"/>
		<path id="XMLID_178_" d="M725,15c0-1.9,1.3-2.7,4-3.1l1.4-0.2c0-1.3-0.7-1.7-1.9-1.7c-1.3,0-2.6,0.7-3.1,1.7V9
			c0.4-0.5,1.5-1.3,3.5-1.3c2.7,0,4.2,1.2,4.2,4.1v5.7h-2.4l-0.2-0.8c-0.3,0.5-1,1.1-2.3,1.1C726.3,17.8,725,16.9,725,15z
			 M730.3,13.4l-1.1,0.2c-1.2,0.3-1.7,0.6-1.7,1.2c0,0.6,0.5,0.9,1.1,0.9c0.8,0,1.4-0.3,1.6-0.7V13.4z"/>
		<path id="XMLID_176_" d="M735,15.2V4.6h2.8v10.2c0,0.5,0.2,0.7,0.6,0.7s0.7-0.2,0.8-0.4v2.2c-0.2,0.2-0.8,0.5-1.7,0.5
			C735.8,17.8,735,16.9,735,15.2z"/>
		<path id="XMLID_174_" d="M745,14.8v-4.6h-1.1v-1l0.9-1.2l1.7-2.2h1.3V8h2.2v2.2h-2.2v4.3c0,0.7,0.2,1,0.8,1c0.6,0,1.1-0.3,1.4-0.8
			V17c-0.3,0.4-1,0.8-2.2,0.8C745.9,17.8,745,16.7,745,14.8z"/>
		<path id="XMLID_171_" d="M751.1,15c0-1.9,1.3-2.7,4-3.1l1.4-0.2c0-1.3-0.6-1.7-1.9-1.7c-1.4,0-2.6,0.7-3.1,1.7V9
			c0.4-0.5,1.5-1.3,3.5-1.3c2.7,0,4.2,1.2,4.2,4.1v5.7h-2.4l-0.2-0.8c-0.3,0.5-1,1.1-2.3,1.1C752.4,17.8,751.1,16.9,751.1,15z
			 M756.4,13.4l-1.1,0.2c-1.2,0.3-1.7,0.6-1.7,1.2c0,0.6,0.5,0.9,1.1,0.9c0.8,0,1.4-0.3,1.6-0.7V13.4z"/>
		<path id="XMLID_168_" d="M763.6,16.9l-0.3,0.7h-2.1V4.6h2.8v4.2c0.3-0.5,1.1-1,2.4-1c2.3,0,3.8,1.3,3.8,4.8c0,3.5-1.8,5.3-4.2,5.3
			C764.7,17.8,764,17.3,763.6,16.9z M764,15c0.4,0.5,0.9,0.6,1.5,0.6c1.3,0,1.8-1.3,1.8-3s-0.5-2.6-1.8-2.6c-0.8,0-1.3,0.3-1.6,0.8
			V15z"/>
		<path id="XMLID_166_" d="M771.7,15.2V4.6h2.8v10.2c0,0.5,0.2,0.7,0.6,0.7s0.7-0.2,0.8-0.4v2.2c-0.2,0.2-0.8,0.5-1.7,0.5
			C772.6,17.8,771.7,16.9,771.7,15.2z"/>
		<path id="XMLID_163_" d="M776.7,12.8c0-3.5,2.3-5,4.6-5c2.3,0,4.4,1,4.4,4.6v1.2h-6.1c0.1,1.1,0.8,1.9,2.6,1.9
			c1.6,0,2.6-0.6,3.1-1.1v2.3c-0.5,0.5-1.6,1.1-3.5,1.1C778.6,17.8,776.7,16.2,776.7,12.8z M783.1,11.8L783.1,11.8
			c0-1.2-0.5-1.9-1.7-1.9c-1.1,0-1.7,0.9-1.7,1.9H783.1z"/>
		<path id="XMLID_161_" d="M787.7,14.8v-4.6h-1.1v-1l0.9-1.2l1.7-2.2h1.3V8h2.2v2.2h-2.2v4.3c0,0.7,0.2,1,0.8,1
			c0.7,0,1.1-0.3,1.4-0.8V17c-0.3,0.4-1,0.8-2.2,0.8C788.5,17.8,787.7,16.7,787.7,14.8z"/>
		<path id="XMLID_159_" d="M793.9,17v-2.5c0.6,0.6,1.5,1.1,2.8,1.1c1.2,0,1.6-0.4,1.6-0.9c0-0.5-0.2-0.7-1.3-0.9l-0.5-0.1
			c-2-0.3-2.8-1.2-2.8-2.9c0-1.6,1.1-3.1,3.9-3.1c1.4,0,2.5,0.3,3,0.8V11c-0.6-0.7-1.6-1-2.9-1c-1.1,0-1.5,0.3-1.5,0.8
			s0.2,0.7,1.2,0.9l0.5,0.1c2.1,0.3,3,1.1,3,2.8c0,1.6-1.1,3.3-4.1,3.3C795.4,17.8,794.5,17.4,793.9,17z"/>
		<path id="XMLID_157_" d="M807.1,14.8v-4.6H806v-1l0.9-1.2l1.7-2.2h1.3V8h2.2v2.2h-2.2v4.3c0,0.7,0.2,1,0.8,1
			c0.7,0,1.1-0.3,1.4-0.8V17c-0.3,0.4-1,0.8-2.2,0.8C807.9,17.8,807.1,16.7,807.1,14.8z"/>
		<path id="XMLID_155_" d="M813.6,4.6h2.8v4.1c0.4-0.5,1.3-1,2.4-1c2.5,0,3.4,1.3,3.4,3.9v5.9h-2.8v-5.4c0-1.6-0.4-2.1-1.5-2.1
			c-0.8,0-1.3,0.4-1.6,0.7v6.8h-2.8V4.6z"/>
		<path id="XMLID_152_" d="M823.6,15c0-1.9,1.3-2.7,4-3.1l1.4-0.2c0-1.3-0.6-1.7-1.9-1.7c-1.4,0-2.6,0.7-3.1,1.7V9
			c0.4-0.5,1.5-1.3,3.5-1.3c2.7,0,4.2,1.2,4.2,4.1v5.7h-2.4l-0.2-0.8c-0.3,0.5-1,1.1-2.3,1.1C825,17.8,823.6,16.9,823.6,15z
			 M829,13.4l-1.1,0.2c-1.2,0.3-1.7,0.6-1.7,1.2c0,0.6,0.5,0.9,1.1,0.9c0.8,0,1.4-0.3,1.6-0.7V13.4z"/>
		<path id="XMLID_150_" d="M834.2,14.8v-4.6h-1.1v-1L834,8l1.7-2.2h1.3V8h2.2v2.2H837v4.3c0,0.7,0.2,1,0.8,1c0.6,0,1.1-0.3,1.4-0.8
			V17c-0.3,0.4-1,0.8-2.2,0.8C835,17.8,834.2,16.7,834.2,14.8z"/>
		<path id="XMLID_148_" d="M559.8,28.5h2.8l1.3,5l1.9-5h1l1.9,5l1.2-5h2.6l-2.6,9.5h-1.7l-2-5.2l-2,5.2h-1.7L559.8,28.5z"/>
		<path id="XMLID_145_" d="M573.7,26.3c0-0.8,0.5-1.3,1.4-1.3c0.9,0,1.5,0.5,1.5,1.3c0,0.8-0.6,1.3-1.5,1.3
			C574.2,27.6,573.7,27.1,573.7,26.3z M573.7,28.5h2.8V38h-2.8V28.5z"/>
		<path id="XMLID_143_" d="M578.5,35.7V25.1h2.8v10.2c0,0.5,0.2,0.7,0.6,0.7s0.7-0.2,0.8-0.4v2.2c-0.2,0.2-0.8,0.5-1.7,0.5
			C579.3,38.3,578.5,37.4,578.5,35.7z"/>
		<path id="XMLID_141_" d="M583.9,35.7V25.1h2.8v10.2c0,0.5,0.2,0.7,0.6,0.7s0.7-0.2,0.8-0.4v2.2c-0.2,0.2-0.8,0.5-1.7,0.5
			C584.8,38.3,583.9,37.4,583.9,35.7z"/>
		<path id="XMLID_138_" d="M593.1,33.4c0-3.5,1.7-5.1,4.2-5.1c0.8,0,1.6,0.2,2,0.6v-3.8h2.8V38h-2.5l-0.2-0.8
			c-0.3,0.5-1.1,1.1-2.5,1.1C594.7,38.3,593.1,36.9,593.1,33.4z M599.3,31.1c-0.3-0.4-0.9-0.6-1.5-0.6c-1.3,0-1.8,1.3-1.8,3
			c0,1.6,0.4,2.7,1.8,2.7c0.8,0,1.4-0.3,1.6-0.7V31.1z"/>
		<path id="XMLID_135_" d="M604,26.3c0-0.8,0.5-1.3,1.4-1.3c0.9,0,1.5,0.5,1.5,1.3c0,0.8-0.6,1.3-1.5,1.3
			C604.6,27.6,604,27.1,604,26.3z M604.1,28.5h2.8V38h-2.8V28.5z"/>
		<path id="XMLID_133_" d="M608.6,37.5V35c0.6,0.6,1.5,1.1,2.8,1.1c1.2,0,1.6-0.4,1.6-0.9c0-0.5-0.2-0.7-1.3-0.9l-0.5-0.1
			c-2-0.3-2.8-1.2-2.8-2.9c0-1.6,1.1-3.1,3.9-3.1c1.4,0,2.5,0.3,3,0.8v2.5c-0.6-0.7-1.6-1-2.9-1c-1.1,0-1.5,0.3-1.5,0.8
			s0.2,0.7,1.2,0.9l0.5,0.1c2.1,0.3,3,1.1,3,2.8c0,1.6-1.1,3.3-4.1,3.3C610.1,38.3,609.1,37.9,608.6,37.5z"/>
		<path id="XMLID_131_" d="M616.9,37.5V35c0.6,0.6,1.5,1.1,2.8,1.1c1.2,0,1.6-0.4,1.6-0.9c0-0.5-0.2-0.7-1.3-0.9l-0.5-0.1
			c-2-0.3-2.8-1.2-2.8-2.9c0-1.6,1.1-3.1,3.9-3.1c1.4,0,2.5,0.3,3,0.8v2.5c-0.6-0.7-1.6-1-2.9-1c-1.1,0-1.5,0.3-1.5,0.8
			s0.2,0.7,1.2,0.9l0.5,0.1c2.1,0.3,3,1.1,3,2.8c0,1.6-1.1,3.3-4.1,3.3C618.4,38.3,617.5,37.9,616.9,37.5z"/>
		<path id="XMLID_128_" d="M625,33.3c0-3.5,2.3-5,4.9-5c2.8,0,4.7,1.5,4.7,5c0,3.5-2.3,5-4.9,5C627,38.3,625,36.8,625,33.3z
			 M631.7,33.3c0-1.6-0.6-2.7-1.9-2.7c-1.3,0-1.9,1.1-1.9,2.7c0,1.7,0.6,2.7,1.9,2.7C631.1,36,631.7,34.9,631.7,33.3z"/>
		<path id="XMLID_126_" d="M636.1,35.7V25.1h2.8v10.2c0,0.5,0.2,0.7,0.6,0.7s0.7-0.2,0.8-0.4v2.2c-0.2,0.2-0.8,0.5-1.7,0.5
			C636.9,38.3,636.1,37.4,636.1,35.7z"/>
		<path id="XMLID_124_" d="M640.6,28.5h3l1.5,4.5l0.3,1c0.1-0.3,0.2-0.8,0.3-1l1.6-4.5h2.7l-3.8,9.5h-1.9L640.6,28.5z"/>
		<path id="XMLID_121_" d="M650.6,33.3c0-3.5,2.3-5,4.6-5c2.3,0,4.4,1,4.4,4.6v1.2h-6.1c0.1,1.1,0.8,1.9,2.6,1.9
			c1.6,0,2.6-0.6,3.1-1.1v2.3c-0.5,0.5-1.6,1.1-3.5,1.1C652.5,38.3,650.6,36.7,650.6,33.3z M657,32.3L657,32.3
			c0-1.2-0.5-1.9-1.7-1.9c-1.1,0-1.7,0.9-1.7,1.9H657z"/>
		<path id="XMLID_118_" d="M665.2,26.3c0-0.8,0.5-1.3,1.4-1.3c0.9,0,1.5,0.5,1.5,1.3c0,0.8-0.6,1.3-1.5,1.3
			C665.7,27.6,665.2,27.1,665.2,26.3z M665.2,28.5h2.8V38h-2.8V28.5z"/>
		<path id="XMLID_116_" d="M670,28.5h2.5l0.2,0.8c0.4-0.6,1.3-1.1,2.5-1.1c2.5,0,3.4,1.3,3.4,3.9V38h-2.8v-5.4
			c0-1.6-0.4-2.1-1.5-2.1c-0.8,0-1.3,0.4-1.6,0.8V38H670V28.5z"/>
		<path id="XMLID_114_" d="M684.4,37.5V35c0.6,0.6,1.5,1.1,2.8,1.1c1.2,0,1.6-0.4,1.6-0.9c0-0.5-0.2-0.7-1.3-0.9l-0.5-0.1
			c-2-0.3-2.8-1.2-2.8-2.9c0-1.6,1.1-3.1,3.9-3.1c1.4,0,2.5,0.3,3,0.8v2.5c-0.6-0.7-1.6-1-2.9-1c-1.1,0-1.5,0.3-1.5,0.8
			s0.2,0.7,1.2,0.9l0.5,0.1c2.1,0.3,3,1.1,3,2.8c0,1.6-1.1,3.3-4.1,3.3C685.9,38.3,684.9,37.9,684.4,37.5z"/>
		<path id="XMLID_111_" d="M692.5,35.5c0-1.9,1.3-2.7,4-3.1l1.4-0.2c0-1.3-0.7-1.7-1.9-1.7c-1.3,0-2.6,0.7-3.1,1.7v-2.7
			c0.4-0.5,1.5-1.3,3.5-1.3c2.7,0,4.2,1.2,4.2,4.1V38h-2.4l-0.2-0.8c-0.3,0.5-1,1.1-2.3,1.1C693.8,38.3,692.5,37.4,692.5,35.5z
			 M697.9,33.9l-1.1,0.2c-1.2,0.3-1.7,0.6-1.7,1.2c0,0.6,0.5,0.9,1.1,0.9c0.8,0,1.4-0.3,1.6-0.6V33.9z"/>
		<path id="XMLID_109_" d="M702.5,35.7V25.1h2.8v10.2c0,0.5,0.2,0.7,0.6,0.7s0.7-0.2,0.8-0.4v2.2c-0.2,0.2-0.8,0.5-1.7,0.5
			C703.4,38.3,702.5,37.4,702.5,35.7z"/>
		<path id="XMLID_106_" d="M708,26.3c0-0.8,0.5-1.3,1.4-1.3c0.9,0,1.5,0.5,1.5,1.3c0,0.8-0.6,1.3-1.5,1.3
			C708.5,27.6,708,27.1,708,26.3z M708,28.5h2.8V38H708V28.5z"/>
		<path id="XMLID_104_" d="M711.9,28.5h3l1.5,4.5l0.3,1c0.1-0.3,0.2-0.8,0.3-1l1.6-4.5h2.7l-3.8,9.5h-1.9L711.9,28.5z"/>
		<path id="XMLID_101_" d="M721.9,35.5c0-1.9,1.3-2.7,4-3.1l1.4-0.2c0-1.3-0.6-1.7-1.9-1.7c-1.4,0-2.6,0.7-3.1,1.7v-2.7
			c0.4-0.5,1.5-1.3,3.5-1.3c2.7,0,4.2,1.2,4.2,4.1V38h-2.4l-0.2-0.8c-0.3,0.5-1,1.1-2.3,1.1C723.2,38.3,721.9,37.4,721.9,35.5z
			 M727.2,33.9l-1.1,0.2c-1.2,0.3-1.7,0.6-1.7,1.2c0,0.6,0.5,0.9,1.1,0.9c0.8,0,1.4-0.3,1.6-0.6V33.9z"/>
		<path id="XMLID_99_" d="M735.3,28.5h2.8l1.3,5l1.9-5h1l1.9,5l1.2-5h2.6l-2.6,9.5h-1.7l-2-5.2l-2,5.2H738L735.3,28.5z"/>
		<path id="XMLID_96_" d="M749.2,26.3c0-0.8,0.5-1.3,1.4-1.3c0.9,0,1.5,0.5,1.5,1.3c0,0.8-0.6,1.3-1.5,1.3
			C749.8,27.6,749.2,27.1,749.2,26.3z M749.3,28.5h2.8V38h-2.8V28.5z"/>
		<path id="XMLID_94_" d="M754.5,35.3v-4.6h-1.1v-1l0.9-1.2l1.7-2.2h1.3v2.2h2.2v2.2h-2.2V35c0,0.7,0.2,1,0.8,1
			c0.7,0,1.1-0.3,1.4-0.8v2.3c-0.3,0.4-1,0.8-2.2,0.8C755.3,38.3,754.5,37.2,754.5,35.3z"/>
		<path id="XMLID_92_" d="M761,25.1h2.8v4.1c0.4-0.5,1.3-1,2.4-1c2.5,0,3.4,1.3,3.4,3.9V38h-2.8v-5.4c0-1.6-0.4-2.1-1.5-2.1
			c-0.8,0-1.3,0.4-1.6,0.7V38H761V25.1z"/>
		<path id="XMLID_89_" d="M771.5,26.3c0-0.8,0.5-1.3,1.4-1.3c0.9,0,1.5,0.5,1.5,1.3c0,0.8-0.6,1.3-1.5,1.3
			C772.1,27.6,771.5,27.1,771.5,26.3z M771.6,28.5h2.8V38h-2.8V28.5z"/>
		<path id="XMLID_87_" d="M776.4,28.5h2.5l0.2,0.8c0.4-0.6,1.3-1.1,2.5-1.1c2.5,0,3.4,1.3,3.4,3.9V38h-2.8v-5.4
			c0-1.6-0.4-2.1-1.5-2.1c-0.8,0-1.3,0.4-1.6,0.8V38h-2.8V28.5z"/>
		<path id="XMLID_85_" d="M790.8,37.5V35c0.6,0.6,1.5,1.1,2.8,1.1c1.2,0,1.6-0.4,1.6-0.9c0-0.5-0.2-0.7-1.3-0.9l-0.5-0.1
			c-2-0.3-2.8-1.2-2.8-2.9c0-1.6,1.1-3.1,3.9-3.1c1.4,0,2.5,0.3,3,0.8v2.5c-0.6-0.7-1.6-1-2.9-1c-1.1,0-1.5,0.3-1.5,0.8
			s0.2,0.7,1.2,0.9l0.5,0.1c2.1,0.3,3,1.1,3,2.8c0,1.6-1.1,3.3-4.1,3.3C792.3,38.3,791.3,37.9,790.8,37.5z"/>
		<path id="XMLID_82_" d="M798.9,33.3c0-3.5,2.3-5,4.6-5c2.3,0,4.4,1,4.4,4.6v1.2h-6.1c0.1,1.1,0.8,1.9,2.6,1.9
			c1.6,0,2.6-0.6,3.1-1.1v2.3c-0.5,0.5-1.6,1.1-3.5,1.1C800.7,38.3,798.9,36.7,798.9,33.3z M805.2,32.3L805.2,32.3
			c0-1.2-0.5-1.9-1.7-1.9c-1.1,0-1.7,0.9-1.7,1.9H805.2z"/>
		<path id="XMLID_80_" d="M808.9,33.3c0-3.5,2.2-5,4.7-5c1.4,0,2.4,0.4,2.8,0.8v2.5c-0.6-0.7-1.3-1-2.4-1c-1.5,0-2.3,1-2.3,2.6
			c0,1.7,0.8,2.6,2.3,2.6c1.1,0,1.8-0.4,2.5-1v2.4c-0.4,0.5-1.5,1-2.9,1C810.8,38.3,808.9,36.8,808.9,33.3z"/>
		<path id="XMLID_77_" d="M817.6,33.3c0-3.5,2.3-5,4.9-5c2.8,0,4.7,1.5,4.7,5c0,3.5-2.3,5-4.9,5C819.6,38.3,817.6,36.8,817.6,33.3z
			 M824.3,33.3c0-1.6-0.6-2.7-1.9-2.7c-1.3,0-1.9,1.1-1.9,2.7c0,1.7,0.6,2.7,1.9,2.7C823.7,36,824.3,34.9,824.3,33.3z"/>
		<path id="XMLID_75_" d="M828.7,28.5h2.5l0.2,0.8c0.4-0.6,1.3-1.1,2.5-1.1c2.5,0,3.4,1.3,3.4,3.9V38h-2.8v-5.4
			c0-1.6-0.4-2.1-1.5-2.1c-0.8,0-1.3,0.4-1.6,0.8V38h-2.8V28.5z"/>
		<path id="XMLID_72_" d="M838.8,33.4c0-3.5,1.7-5.1,4.2-5.1c0.8,0,1.6,0.2,2,0.6v-3.8h2.8V38h-2.5l-0.2-0.8
			c-0.3,0.5-1.1,1.1-2.5,1.1C840.4,38.3,838.8,36.9,838.8,33.4z M845,31.1c-0.3-0.4-0.9-0.6-1.5-0.6c-1.3,0-1.8,1.3-1.8,3
			c0,1.6,0.4,2.7,1.8,2.7c0.8,0,1.4-0.3,1.6-0.7V31.1z"/>
		<path id="XMLID_70_" d="M849.6,37.5V35c0.6,0.6,1.5,1.1,2.8,1.1c1.2,0,1.6-0.4,1.6-0.9c0-0.5-0.2-0.7-1.3-0.9l-0.5-0.1
			c-2-0.3-2.8-1.2-2.8-2.9c0-1.6,1.1-3.1,3.9-3.1c1.4,0,2.5,0.3,3,0.8v2.5c-0.6-0.7-1.6-1-2.9-1c-1.1,0-1.5,0.3-1.5,0.8
			s0.2,0.7,1.2,0.9l0.5,0.1c2.1,0.3,3,1.1,3,2.8c0,1.6-1.1,3.3-4.1,3.3C851.1,38.3,850.1,37.9,849.6,37.5z"/>
		<path id="XMLID_68_" d="M857.8,36.6c0-1,0.7-1.7,1.7-1.7c1,0,1.7,0.8,1.7,1.7c0,1-0.7,1.7-1.7,1.7
			C858.5,38.3,857.8,37.6,857.8,36.6z"/>
	</g>
</g>
<g id="XMLID_20_">
	<path id="XMLID_62_" d="M208.6,17.2c0-0.8,0.5-1.3,1.4-1.3c0.9,0,1.5,0.5,1.5,1.3c0,0.8-0.6,1.3-1.5,1.3
		C209.1,18.5,208.6,18,208.6,17.2z M208.6,19.4h2.8v9.5h-2.8V19.4z"/>
	<path id="XMLID_60_" d="M213.2,28.4v-2.5c0.6,0.6,1.5,1.1,2.8,1.1c1.2,0,1.6-0.4,1.6-0.9c0-0.5-0.2-0.7-1.3-0.9l-0.5-0.1
		c-2-0.3-2.8-1.2-2.8-2.9c0-1.6,1.1-3.1,3.9-3.1c1.4,0,2.5,0.3,3,0.8v2.5c-0.6-0.7-1.6-1-2.9-1c-1.1,0-1.5,0.3-1.5,0.8
		s0.2,0.7,1.2,0.9l0.5,0.1c2.1,0.3,3,1.1,3,2.8c0,1.6-1.1,3.3-4.1,3.3C214.6,29.2,213.7,28.9,213.2,28.4z"/>
	<path id="XMLID_54_" d="M225.3,26.4c0-1.9,1.3-2.7,4-3.1l1.4-0.2c0-1.3-0.7-1.7-1.9-1.7c-1.3,0-2.6,0.7-3.1,1.7v-2.7
		c0.4-0.5,1.5-1.3,3.5-1.3c2.7,0,4.2,1.2,4.2,4.1v5.7h-2.4l-0.2-0.8c-0.3,0.5-1,1.1-2.3,1.1C226.7,29.2,225.3,28.3,225.3,26.4z
		 M230.7,24.8l-1.1,0.2c-1.2,0.3-1.7,0.6-1.7,1.2c0,0.6,0.5,0.9,1.1,0.9c0.8,0,1.4-0.3,1.6-0.6V24.8z"/>
	<path id="XMLID_51_" d="M234.5,19.4h3L239,24l0.3,1c0.1-0.3,0.2-0.8,0.3-1l1.6-4.5h2.7l-3.8,9.5h-1.9L234.5,19.4z"/>
	<path id="XMLID_47_" d="M244.5,26.4c0-1.9,1.3-2.7,4-3.1l1.4-0.2c0-1.3-0.7-1.7-1.9-1.7c-1.3,0-2.6,0.7-3.1,1.7v-2.7
		c0.4-0.5,1.5-1.3,3.5-1.3c2.7,0,4.2,1.2,4.2,4.1v5.7h-2.4l-0.2-0.8c-0.3,0.5-1,1.1-2.3,1.1C245.8,29.2,244.5,28.3,244.5,26.4z
		 M249.9,24.8l-1.1,0.2c-1.2,0.3-1.7,0.6-1.7,1.2c0,0.6,0.5,0.9,1.1,0.9c0.8,0,1.4-0.3,1.6-0.6V24.8z"/>
	<path id="XMLID_43_" d="M254.5,17.2c0-0.8,0.5-1.3,1.4-1.3c0.9,0,1.5,0.5,1.5,1.3c0,0.8-0.6,1.3-1.5,1.3
		C255.1,18.5,254.5,18,254.5,17.2z M254.6,19.4h2.8v9.5h-2.8V19.4z"/>
	<path id="XMLID_41_" d="M259.3,26.6V16h2.8v10.2c0,0.5,0.2,0.7,0.6,0.7s0.7-0.2,0.8-0.4v2.2c-0.2,0.2-0.8,0.5-1.7,0.5
		C260.2,29.2,259.3,28.3,259.3,26.6z"/>
	<path id="XMLID_38_" d="M264.3,26.4c0-1.9,1.3-2.7,4-3.1l1.4-0.2c0-1.3-0.7-1.7-1.9-1.7c-1.3,0-2.6,0.7-3.1,1.7v-2.7
		c0.4-0.5,1.5-1.3,3.5-1.3c2.7,0,4.2,1.2,4.2,4.1v5.7h-2.4l-0.2-0.8c-0.3,0.5-1,1.1-2.3,1.1C265.7,29.2,264.3,28.3,264.3,26.4z
		 M269.7,24.8l-1.1,0.2c-1.2,0.3-1.7,0.6-1.7,1.2c0,0.6,0.5,0.9,1.1,0.9c0.8,0,1.4-0.3,1.6-0.6V24.8z"/>
	<path id="XMLID_35_" d="M276.9,28.3l-0.3,0.7h-2.1V16h2.8v4.2c0.3-0.5,1.1-1,2.4-1c2.3,0,3.8,1.3,3.8,4.8c0,3.5-1.8,5.3-4.2,5.3
		C277.9,29.2,277.3,28.7,276.9,28.3z M277.2,26.4c0.4,0.5,0.9,0.6,1.5,0.6c1.3,0,1.8-1.3,1.8-3s-0.5-2.6-1.8-2.6
		c-0.8,0-1.3,0.3-1.6,0.8V26.4z"/>
	<path id="XMLID_30_" d="M284.9,26.6V16h2.8v10.2c0,0.5,0.2,0.7,0.6,0.7s0.7-0.2,0.8-0.4v2.2c-0.2,0.2-0.8,0.5-1.7,0.5
		C285.8,29.2,284.9,28.3,284.9,26.6z"/>
	<path id="XMLID_25_" d="M290,24.2c0-3.5,2.3-5,4.6-5c2.3,0,4.4,1,4.4,4.6V25h-6.1c0.1,1.1,0.8,1.9,2.6,1.9c1.6,0,2.6-0.6,3.1-1.1
		v2.3c-0.5,0.5-1.6,1.1-3.5,1.1C291.8,29.2,290,27.6,290,24.2z M296.3,23.3L296.3,23.3c0-1.2-0.5-1.9-1.7-1.9
		c-1.1,0-1.7,0.9-1.7,1.9H296.3z"/>
	<path id="XMLID_23_" d="M304.7,17.2h2.9v11.7h-2.9V17.2z"/>
	<path id="XMLID_21_" d="M309.7,19.4h2.5l0.2,0.8c0.4-0.6,1.3-1.1,2.5-1.1c2.5,0,3.4,1.3,3.4,3.9v5.9h-2.8v-5.4
		c0-1.6-0.4-2.1-1.5-2.1c-0.8,0-1.3,0.4-1.6,0.8v6.8h-2.8V19.4z"/>
</g>
<g id="XMLID_1_">
	<g id="XMLID_3_">
		<path id="XMLID_9_" d="M419.9,25.6c0-1.9,1.3-2.7,4-3.1l1.4-0.2c0-1.3-0.6-1.7-1.9-1.7c-1.4,0-2.6,0.7-3.1,1.7v-2.7
			c0.4-0.5,1.5-1.3,3.5-1.3c2.7,0,4.2,1.2,4.2,4.1v5.7h-2.4l-0.2-0.8c-0.3,0.5-1,1.1-2.3,1.1C421.2,28.4,419.9,27.5,419.9,25.6z
			 M425.2,24l-1.1,0.2c-1.2,0.3-1.7,0.6-1.7,1.2c0,0.6,0.5,0.9,1.1,0.9c0.8,0,1.4-0.3,1.6-0.7V24z"/>
		<path id="XMLID_7_" d="M429.9,18.6h2.5l0.2,0.8c0.4-0.6,1.3-1.1,2.5-1.1c2.5,0,3.4,1.3,3.4,3.9v5.9h-2.8v-5.4
			c0-1.6-0.4-2.1-1.5-2.1c-0.8,0-1.4,0.4-1.6,0.8v6.8h-2.8V18.6z"/>
		<path id="XMLID_4_" d="M440.1,23.5c0-3.5,1.7-5.1,4.2-5.1c0.8,0,1.6,0.2,2,0.6v-3.8h2.8v12.9h-2.5l-0.2-0.8
			c-0.3,0.5-1.1,1.1-2.5,1.1C441.7,28.4,440.1,26.9,440.1,23.5z M446.3,21.1c-0.3-0.4-0.9-0.6-1.5-0.6c-1.3,0-1.8,1.3-1.8,3
			s0.4,2.7,1.8,2.7c0.8,0,1.3-0.3,1.6-0.7V21.1z"/>
	</g>
</g>
</svg>
