<!-- Generator: Adobe Illustrator 22.1.0, SVG Export Plug-In  -->
<svg version="1.1"
	 xmlns="http://www.w3.org/2000/svg" xmlns:xlink="http://www.w3.org/1999/xlink" xmlns:a="http://ns.adobe.com/AdobeSVGViewerExtensions/3.0/"
	 x="0px" y="0px" width="144.5px" height="145.1px" viewBox="0 0 144.5 145.1" style="enable-background:new 0 0 144.5 145.1;"
	 xml:space="preserve">
<style type="text/css">
	.st0{fill:none;stroke:#669552;stroke-width:4;stroke-miterlimit:10;}
	.st1{fill:#669552;}
	.st2{fill:#FBC297;}
	.st3{fill:#E4E4E4;}
	.st4{fill:#343433;}
	.st5{fill:#525252;}
	.st6{fill:#FFFFFF;}
	.st7{fill:#E99F6D;}
	.st8{fill:#663515;}
	.st9{fill:#7C9269;}
	.st10{fill:#E98B63;}
	.st11{fill:#D87350;}
</style>
<defs>
</defs>
<circle id="XMLID_104_" class="st0" cx="72.2" cy="72.2" r="70.2"/>
<rect id="XMLID_103_" x="19.8" y="118.3" class="st1" width="104.8" height="26.8"/>
<path id="XMLID_102_" class="st1" d="M116.4,73.4c0,23.8-19.3,43.1-43.1,43.1c-23.8,0-43.1-19.3-43.1-43.1
	c0-23.8,19.3-43.1,43.1-43.1C97,30.3,116.4,49.6,116.4,73.4z"/>
<g id="XMLID_62_">
	<path id="XMLID_100_" class="st2" d="M100.1,60.2c-0.9-2.7-3.4-4.6-6.3-4.6l-10-1.2c-1.8-0.7-3.5-2.5-3.9-3.9l-0.1-5.1
		c-1.1,0.8-2.2,1.3-3.4,2.2c-0.6,0.1-2.9,0.2-3.7,0c-1.9-1.1-4-2.3-6-4.2l-0.2,7.3c-0.5,1.3-2.2,2.9-4,3.7l-10,1.2
		c-3.3,0-6,2.4-6.6,5.5c0,0.1,0,0.2-0.1,0.4c0,0.1,0,0.1,0,0.2c0,0,0,0.1,0,0.1l9.7,8l3.6,11.6h28L91,68.9h1L100.1,60.2z"/>
	<rect id="XMLID_99_" x="64.2" y="57.4" class="st3" width="16.9" height="31.1"/>
	<path id="XMLID_95_" class="st4" d="M100,59.9c-0.9-2.5-3.4-4.3-6.2-4.3l-10-1.2c-0.4-0.2-1.8-0.4-2.1-0.6l-8.3,32.4l-8.5-33.4
		c-0.7,0.6-1.5,1.2-2.4,1.5l-10,1.2c-2,0-3.8,0.9-5.1,2.3l0,0c-0.1,0.1-0.2,0.3-0.4,0.5c-0.3,0.4-0.5,0.8-0.7,1.2
		C43.8,64.5,39.2,78,39,83.8c-0.2,6.9,8.6,19.5,12,22.7l8.7-0.7l-4.9,3l0,0.9c5.6,2.4,11.7,3.7,18.2,3.7c6.6,0,12.8-1.4,18.5-3.8
		l-0.2-3.1c1.1,0.8,2.7,0.9,4.3-1c3.5-3.2,12.1-15.3,11.9-22.2C107.3,77.4,102.5,64.9,100,59.9z M55.4,98.8
		c-2.7-4.4-5.8-11.6-6.4-13.1c-1.2-2.9,2-9.7,5.3-14.6L55.4,98.8L55.4,98.8z M90.9,99.4l-0.1-1.3l1.1-26.3
		c2.8,4.8,5.8,10.9,5.8,13.8C97.7,87.7,93.4,94.4,90.9,99.4z"/>
	<path id="XMLID_94_" class="st5" d="M88.1,66.2l-0.7-11.3L84,54.5c-0.5-0.2-1-0.4-1.4-0.8l-1.8,2.4l-7.6,30L65.6,56l-1.8-2.4
		c-0.5,0.3-0.9,0.6-1.4,0.8l-3.1,0.4l-0.6,11.3l4.3,0.8l-0.9,4.4l10.6,20.3l-0.2,2.7l12.2-22.8L83.8,67L88.1,66.2z"/>
	<polygon id="XMLID_93_" class="st1" points="70,73.5 73.2,86.1 75.9,75.6 74.3,62.7 76.2,59.9 75.1,56.7 71.1,56.6 70.1,60 
		71.9,62.6 	"/>
	<polygon id="XMLID_92_" class="st6" points="66.1,50.5 73.2,56.6 68,61.8 63,54 	"/>
	<path id="XMLID_91_" class="st2" d="M61.2,107.3C61.2,107.3,61.2,107.3,61.2,107.3c-1.4-2.1-1-1.5-1.7-2.6
		c-0.9-1.3-2.6-1.6-3.9-0.8c-3.1,2.1-2.6,1.7-2.9,1.9c-0.4,0.8-0.6,1.7-0.6,2.7c1.6,0.8,3.2,1.5,4.8,2.1
		C58.8,110,60.3,108.8,61.2,107.3z"/>
	<polygon id="XMLID_90_" class="st6" points="80.3,50.5 73.2,56.6 78.4,61.8 83.5,54 	"/>
	
		<rect id="XMLID_89_" x="51" y="103.9" transform="matrix(0.8093 -0.5874 0.5874 0.8093 -51.169 52.0588)" class="st6" width="7.2" height="1.8"/>
	<path id="XMLID_88_" class="st5" d="M64,101.3l-1.7,0c0.1,0.5,0.2,1,0.2,1.6c0,1.6-0.4,3.1-1.3,4.4c-1,1.5-2.4,2.7-4.2,3.3
		c0.5,0.2,1.4,0.5,2.3,0.8c2.9-1.7,4.9-4.9,4.8-8.5C64.1,102.3,64.1,101.8,64,101.3z"/>
	<path id="XMLID_87_" class="st2" d="M93.4,105.4l-2.7-1.7c-1.3-0.8-3-0.5-3.9,0.8c-0.7,1.1-0.3,0.4-1.7,2.6c0,0,0,0,0,0
		c1,1.5,2.5,2.7,4.3,3.3c1.6-0.6,3.2-1.3,4.8-2.1C94.2,107.4,93.9,105.8,93.4,105.4z"/>
	<path id="XMLID_86_" class="st5" d="M85.1,107.1c-0.8-1.3-1.3-2.8-1.3-4.4c0-0.5,0.1-1.1,0.2-1.6h-1.7c-0.1,0.5-0.1,1.1-0.1,1.6
		c0,3.6,2,6.8,5,8.5c1-0.3,1.6-0.5,2.3-0.8C87.6,109.8,86.1,108.7,85.1,107.1z"/>
	
		<rect id="XMLID_85_" x="91.3" y="100.7" transform="matrix(0.5875 -0.8092 0.8092 0.5875 -46.4205 117.6776)" class="st6" width="1.8" height="7.2"/>
	<g id="XMLID_63_">
		<path id="XMLID_84_" class="st7" d="M72.7,46.3c0,0-2.7-0.8-6.2-2.7v3.3c1,0.6,2.5,1.6,3.5,2.3c0.5,0.3,1.5,0.4,1.5,0.4h3.8
			c0,0,1-0.1,1.5-0.4c0.8-0.6,1.8-1.3,2.9-2v-3.6C76,45.4,72.7,46.3,72.7,46.3z"/>
		<path id="XMLID_83_" class="st2" d="M85.9,29.5c-0.3-0.1-0.7-0.1-1.1,0.1c0.1-4.1,0.1-7.8-0.4-8.7c-2.9-4.6-6.3-6.5-11.3-6.7l0,0
			c0,0,0,0,0,0c-5,0.2-8.1,2.2-11,6.7c-0.5,0.8-0.6,4.7-0.5,9c-0.5-0.4-1.1-0.6-1.6-0.4c-1.1,0.4-1.5,2.2-0.9,4.1
			c0.5,1.6,1.7,2.7,2.7,2.8c0.2,3.6,0.4,6.4,0.4,6.4c3.4,2.3,5.6,3.9,7.6,5.1c0.5,0.3,1.2,0.3,1.2,0.3H75c0,0,1-0.1,1.4-0.4
			c2-1.2,4.2-2.7,7.6-5c0,0,0.2-2.9,0.5-6.5c0.9-0.3,1.8-1.3,2.3-2.7C87.4,31.7,87,29.9,85.9,29.5z"/>
		<path id="XMLID_82_" class="st8" d="M75.9,28.1c0.3-0.2,4.6-1.9,5.9,0.4c1.1,1.9-0.9,0-2.2,0c-1.6,0-2.1,0.1-3.4,0.3
			C75.6,28.8,75.4,28.3,75.9,28.1z"/>
		<path id="XMLID_81_" class="st8" d="M69.7,28.1c-0.3-0.2-4.5-1.7-5.7,0.3c-1.1,1.8,0.9,0,2.2,0c1.6,0,2.6,0.2,3.3,0.3
			C70,28.8,70.2,28.4,69.7,28.1z"/>
		<path id="XMLID_80_" class="st6" d="M69.9,31.4c-1.4,0.5-2,0.5-2.7,0.5c-1.1,0-2.1-0.4-2.1-1.1c0-0.7,1-1.2,2.1-1.2
			S69.7,30.9,69.9,31.4z"/>
		<path id="XMLID_79_" class="st9" d="M68.3,30.8c0,0.6-0.5,1.1-1,1.1c-0.6,0-1.1-0.5-1.1-1.1c0-0.6,0.5-1.1,1.1-1.1
			C67.8,29.7,68.3,30.2,68.3,30.8z"/>
		<path id="XMLID_78_" d="M68,30.8c0,0.4-0.3,0.7-0.7,0.7c-0.4,0-0.7-0.3-0.7-0.7c0-0.4,0.3-0.7,0.7-0.7C67.7,30.1,68,30.4,68,30.8z
			"/>
		<path id="XMLID_77_" class="st6" d="M68.3,30.8c0,0.1-0.2,0.3-0.3,0.3c-0.2,0-0.3-0.1-0.3-0.3c0-0.1,0.1-0.3,0.3-0.3
			C68.2,30.6,68.3,30.7,68.3,30.8z"/>
		<path id="XMLID_76_" class="st7" d="M69.9,31.4c0,0-0.4-0.6-1.9-1.1c-1.1-0.3-2.7,0.1-2.8,0.9c-0.5-0.3-0.5-0.9,0.7-1.4
			c1.3-0.5,2.9-0.1,3.8,1.2C69.8,31.2,69.9,31.3,69.9,31.4z"/>
		<path id="XMLID_75_" class="st6" d="M75.8,31.4c1.4,0.5,1.9,0.5,2.7,0.5c1.1,0,2.1-0.3,2.1-1c0-0.7-0.9-1.2-2.1-1.2
			C77.4,29.7,76,30.9,75.8,31.4z"/>
		<path id="XMLID_74_" class="st9" d="M77.4,30.8c0,0.6,0.5,1.1,1,1.1c0.6,0,1.1-0.5,1.1-1.1c0-0.6-0.5-1.1-1.1-1.1
			C77.9,29.7,77.4,30.2,77.4,30.8z"/>
		<path id="XMLID_73_" d="M77.8,30.8c0,0.4,0.3,0.7,0.7,0.7c0.4,0,0.7-0.3,0.7-0.7c0-0.4-0.3-0.7-0.7-0.7
			C78.1,30.1,77.8,30.4,77.8,30.8z"/>
		<path id="XMLID_72_" class="st6" d="M78.8,30.7c0,0.1,0.2,0.3,0.3,0.3c0.2,0,0.3-0.1,0.3-0.3c0-0.1-0.1-0.3-0.3-0.3
			C79,30.4,78.8,30.6,78.8,30.7z"/>
		<path id="XMLID_71_" class="st7" d="M75.8,31.4c0,0,0.4-0.6,1.9-1.1c1.1-0.3,2.7,0.1,2.8,0.9c0.5-0.3,0.4-1-0.8-1.4
			c-1.3-0.5-2.8-0.1-3.8,1.3C75.9,31.2,75.9,31.3,75.8,31.4z"/>
		<path id="XMLID_70_" class="st7" d="M73.7,37.5h-1.8c-0.6,0-1.1-0.4-1.3-1c-0.1,0.2-0.1,0.4-0.1,0.5c0,0.8,1,1.1,1.8,1.1h0.9
			c0.8,0,1.8-0.3,1.8-1.1c0-0.2,0-0.4-0.1-0.5C74.7,37.1,74.2,37.5,73.7,37.5z"/>
		<path id="XMLID_69_" class="st7" d="M59.2,30.9c0-0.2,0.3-0.8,0.7-0.7c0.6,0.2,0.9,1.3,1.2,2.4c0.2,1.1,0.1,1.9,0,1.6
			c-0.2-0.4-0.3-1.7-1-3C59.5,30.3,59.3,32.1,59.2,30.9z"/>
		<path id="XMLID_68_" class="st7" d="M86.6,30.9c0-0.2-0.3-0.8-0.7-0.7c-0.6,0.2-0.9,1.3-1.2,2.4c-0.2,1.1-0.1,1.9,0,1.6
			c0.2-0.4,0.3-1.7,1-3C86.3,30.3,86.6,32.1,86.6,30.9z"/>
		<path id="XMLID_67_" class="st8" d="M82,14.8c-1.9-3.3-12.6-1.9-16.1-0.9c-3.4,0.9-5.7,2.8-5.6,5.8c0.1,2.6,0.1,8.3,0.1,9.8
			c0.3,0,0.6,0.2,0.9,0.3l0.7,3.1l0.7-4.8c0,0-1.4-9.5,7.8-7.8c-1.3,0.7-3.7,3.2-3.7,3.2s5.4-1.3,7.6-2.1c2.1-0.8,0,1.8,0,1.8
			s4.1-1.5,5.4-2c1.3-0.5,2.6-0.1,2.8,2.1C83,25.4,83.6,34,83.6,34l1.5-4.5c0.1,0,0.2-0.1,0.3-0.1c0-0.9,0.1-2,0.2-3.4
			C86.3,12.6,83.4,17.3,82,14.8z"/>
		<g id="XMLID_64_">
			<path id="XMLID_66_" class="st10" d="M69.7,41.3c0.1,0.4,0.7,1.4,1.1,1.4h3.9c0.4,0,1.1-1,1.1-1.4H69.7z"/>
			<path id="XMLID_65_" class="st11" d="M74.6,41.5c-0.8-0.1-3.5-0.1-4,0c-1.1,0-1.7-0.6-1.7-0.7c0.1-0.2,0.2-0.1,0.3,0
				c0.1,0.2,0.8,0.1,1.2,0c1.8-0.4,1.3,0,2.2,0.1c0.8,0,0.5-0.4,2.1,0c0.5,0.1,1.2,0.3,1.5,0.2c0.2-0.1,0.3-0.2,0.4,0
				C76.7,41.2,75.9,41.6,74.6,41.5z"/>
		</g>
	</g>
</g>
<g id="XMLID_1_">
	<g id="XMLID_3_">
		<path id="XMLID_31_" class="st6" d="M25.4,130.2c0-3.3,2.1-5,4.7-5c1.6,0,2.5,0.5,3,0.9v2.1c-0.5-0.8-1.4-1.4-2.8-1.4
			c-1.9,0-3,1.2-3,3.3s1,3.6,2.7,3.6c0.4,0,0.9,0,1.2-0.2v-3h1.9v3.9c-0.6,0.4-1.7,0.8-3.1,0.8C27.2,135.2,25.4,133.5,25.4,130.2z"
			/>
		<path id="XMLID_29_" class="st6" d="M34.2,137.5v-1.6c0.3,0.4,0.8,0.6,1.3,0.6c0.6,0,1.1-0.2,1.5-1.3l-3.1-8h2l1.9,5.6l1.5-5.6
			h1.8l-2.2,7.3c-0.6,1.9-1.4,3.4-3.4,3.4C35,138,34.5,137.7,34.2,137.5z"/>
		<path id="XMLID_27_" class="st6" d="M42.3,127.2H44l0.1,0.7c0.3-0.5,1-0.9,2-0.9c2,0,2.8,1.1,2.8,3.2v4.9h-1.8v-4.5
			c0-1.5-0.4-2.1-1.4-2.1c-0.9,0-1.4,0.4-1.6,0.8v5.8h-1.8V127.2z"/>
		<path id="XMLID_24_" class="st6" d="M50.4,131.1c0-2.8,1.8-4.1,3.6-4.1c1.7,0,3.4,0.8,3.4,3.7v1h-5.2c0.1,1.1,0.8,2,2.2,2
			c1.4,0,2.2-0.6,2.6-1.1v1.7c-0.4,0.5-1.3,1-2.8,1C51.9,135.2,50.4,133.9,50.4,131.1z M55.6,130.4L55.6,130.4c0-1.3-0.6-2-1.7-2
			c-1,0-1.7,1-1.7,2H55.6z"/>
		<path id="XMLID_22_" class="st6" d="M58.5,131.1c0-2.8,1.8-4.1,3.8-4.1c1.1,0,1.9,0.4,2.2,0.7v1.8c-0.5-0.7-1.1-0.9-2.1-0.9
			c-1.3,0-2,1-2,2.6c0,1.6,0.8,2.6,2,2.6c0.9,0,1.7-0.4,2.1-1v1.7c-0.3,0.4-1.2,0.9-2.3,0.9C60,135.2,58.5,133.9,58.5,131.1z"/>
		<path id="XMLID_19_" class="st6" d="M65.6,131.1c0-2.8,1.8-4.1,3.8-4.1c2.1,0,3.6,1.3,3.6,4.1c0,2.8-1.8,4.1-3.8,4.1
			C67.2,135.2,65.6,133.9,65.6,131.1z M71.3,131.1c0-1.5-0.6-2.6-1.9-2.6c-1.3,0-1.9,1.1-1.9,2.6c0,1.6,0.6,2.6,1.9,2.6
			C70.7,133.7,71.3,132.6,71.3,131.1z"/>
		<path id="XMLID_17_" class="st6" d="M74.6,127.2h1.7l0.1,0.7c0.3-0.5,1-0.9,1.9-0.9c1.1,0,1.9,0.4,2.3,1.1
			c0.3-0.5,1.1-1.1,2.3-1.1c1.9,0,2.7,1.1,2.7,3.2v4.9h-1.8v-4.5c0-1.5-0.4-2.1-1.3-2.1c-0.7,0-1.3,0.4-1.5,0.8
			c0.1,0.3,0.1,0.6,0.1,1v4.9h-1.8v-4.5c0-1.5-0.4-2.1-1.3-2.1c-0.7,0-1.2,0.4-1.4,0.8v5.8h-1.8V127.2z"/>
		<path id="XMLID_14_" class="st6" d="M86.9,133c0-1.6,1.2-2.2,3.4-2.6l1.2-0.2c0-1.4-0.7-1.8-1.8-1.8c-1.1,0-2.1,0.6-2.5,1.5v-1.9
			c0.3-0.5,1.1-1.1,2.8-1.1c2.1,0,3.3,1.1,3.3,3.3v4.7h-1.7l-0.1-0.7c-0.2,0.4-0.8,0.9-1.9,0.9C88.1,135.2,86.9,134.6,86.9,133z
			 M91.5,131.4l-1,0.2c-1.3,0.3-1.7,0.6-1.7,1.3c0,0.6,0.4,0.9,1.1,0.9c0.7,0,1.4-0.3,1.6-0.7V131.4z"/>
		<path id="XMLID_12_" class="st6" d="M94.9,134.5v-1.8c0.5,0.5,1.1,1,2.2,1c1.1,0,1.5-0.4,1.5-0.9c0-0.5-0.2-0.7-1.2-0.9l-0.4-0.1
			c-1.4-0.3-2.2-1-2.2-2.4c0-1.3,1-2.5,3-2.5c1,0,1.9,0.3,2.2,0.7v1.8c-0.5-0.6-1.2-1-2.2-1c-1,0-1.4,0.4-1.4,0.8s0.2,0.7,1.1,0.9
			l0.4,0.1c1.5,0.3,2.4,0.9,2.4,2.3c0,1.3-1,2.6-3.2,2.6C96.1,135.2,95.3,134.9,94.9,134.5z"/>
		<path id="XMLID_10_" class="st6" d="M102.1,132.9v-4.3h-0.9v-0.5l0.7-1l1.4-1.9h0.6v1.9h1.9v1.5h-1.9v4.2c0,0.6,0.2,0.9,0.7,0.9
			c0.6,0,1-0.3,1.2-0.8v1.6c-0.2,0.3-0.7,0.6-1.6,0.6C102.8,135.2,102.1,134.4,102.1,132.9z"/>
		<path id="XMLID_7_" class="st6" d="M107.2,125.4c0-0.6,0.3-0.9,1-0.9s1,0.3,1,0.9c0,0.6-0.4,0.9-1,0.9S107.2,126,107.2,125.4z
			 M107.3,127.2h1.8v7.8h-1.8V127.2z"/>
		<path id="XMLID_4_" class="st6" d="M110.6,133c0-1.6,1.2-2.2,3.4-2.6l1.2-0.2c0-1.4-0.7-1.8-1.8-1.8c-1.1,0-2.1,0.6-2.5,1.5v-1.9
			c0.3-0.5,1.1-1.1,2.8-1.1c2.1,0,3.3,1.1,3.3,3.3v4.7h-1.7l-0.1-0.7c-0.2,0.4-0.8,0.9-1.9,0.9C111.8,135.2,110.6,134.6,110.6,133z
			 M115.1,131.4l-1,0.2c-1.3,0.3-1.7,0.6-1.7,1.3c0,0.6,0.4,0.9,1.1,0.9c0.7,0,1.4-0.3,1.6-0.7V131.4z"/>
	</g>
</g>
</svg>
