<!-- Generator: Adobe Illustrator 22.1.0, SVG Export Plug-In  -->
<svg version="1.1"
	 xmlns="http://www.w3.org/2000/svg" xmlns:xlink="http://www.w3.org/1999/xlink" xmlns:a="http://ns.adobe.com/AdobeSVGViewerExtensions/3.0/"
	 x="0px" y="0px" width="814.3px" height="120.5px" viewBox="0 0 814.3 120.5" style="enable-background:new 0 0 814.3 120.5;"
	 xml:space="preserve">
<style type="text/css">
	.st0{fill:#490E67;}
	.st1{fill:#231F20;}
	.st2{fill:#C29FD8;}
</style>
<defs>
</defs>
<g id="XMLID_399_">
	<g id="XMLID_401_">
		<path id="XMLID_761_" class="st0" d="M0.3,60.6v-3.7c0.8,0.9,2.4,1.7,4.5,1.7c1.9,0,2.8-0.6,2.8-1.7c0-0.9-0.6-1.3-2.2-1.6
			l-0.6-0.1c-2.7-0.5-4.5-1.8-4.5-4.5c0-3,2.4-4.8,6.3-4.8c2.5,0,4,0.6,4.6,1.1v3.7C10.3,49.7,8.7,49,6.5,49c-1.5,0-2.4,0.5-2.4,1.5
			c0,0.9,0.4,1.3,2,1.6l0.6,0.1c2.9,0.5,4.7,1.6,4.7,4.4c0,3-2.3,5.1-6.7,5.1C2.3,61.7,0.9,61.1,0.3,60.6z"/>
		<path id="XMLID_759_" class="st0" d="M14.6,57.8v-5.9H13v-1.3l1.3-1.5l2.4-2.9h1.9v2.9h3.2v2.8h-3.2v5.5c0,0.9,0.3,1.3,1.2,1.3
			c0.9,0,1.6-0.4,2-1v2.9c-0.5,0.5-1.4,1-3.1,1C15.7,61.7,14.6,60.2,14.6,57.8z"/>
		<path id="XMLID_757_" class="st0" d="M23.8,56.7v-7.6h4v7c0,2,0.4,2.8,2,2.8c1.2,0,1.8-0.5,2.2-1v-8.7h4v12.2h-3.6l-0.3-1.1
			c-0.6,0.8-1.8,1.4-3.6,1.4C25.2,61.7,23.8,60,23.8,56.7z"/>
		<path id="XMLID_754_" class="st0" d="M38.4,55.4c0-4.4,2.4-6.6,6.1-6.6c1.1,0,2.3,0.2,2.9,0.8v-4.8h4v16.7h-3.6l-0.3-1.1
			c-0.5,0.7-1.6,1.4-3.6,1.4C40.7,61.7,38.4,59.8,38.4,55.4z M47.3,52.4c-0.5-0.5-1.3-0.8-2.2-0.8c-1.9,0-2.6,1.7-2.6,3.8
			s0.6,3.4,2.6,3.4c1.2,0,2-0.4,2.3-0.9V52.4z"/>
		<path id="XMLID_752_" class="st0" d="M53.6,65.3v-2.9c0.6,0.5,1.4,0.9,2.3,0.9c0.9,0,1.8-0.3,2.4-1.6l-5.4-12.5h4.4l2.8,8l2.4-8
			h3.9l-3.9,11.6c-1,3-2.7,5.3-6.3,5.3C55.1,66,54.1,65.7,53.6,65.3z"/>
		<path id="XMLID_749_" class="st0" d="M74.2,46.3h5.5c5.8,0,9.1,1.9,9.1,7.5c0,5.6-4,7.6-9.1,7.6h-5.5V46.3z M79.6,58.3
			c3.7,0,4.9-1.3,4.9-4.4c0-3.1-1.2-4.5-4.9-4.5h-1.3v9H79.6z"/>
		<path id="XMLID_746_" class="st0" d="M90.4,55.2c0-4.5,3.3-6.5,6.7-6.5c3.3,0,6.3,1.3,6.3,5.9v1.6h-8.8c0.1,1.4,1.1,2.5,3.7,2.5
			c2.3,0,3.7-0.7,4.5-1.4v3c-0.7,0.6-2.3,1.4-5.1,1.4C93.1,61.7,90.4,59.7,90.4,55.2z M99.5,54v-0.1c0-1.5-0.7-2.3-2.4-2.3
			c-1.6,0-2.4,1.2-2.5,2.4H99.5z"/>
		<path id="XMLID_744_" class="st0" d="M105.2,60.7v-3.2c0.9,0.7,2.2,1.4,4.1,1.4c1.8,0,2.3-0.5,2.3-1.1c0-0.7-0.3-0.9-1.9-1.1
			l-0.7-0.1c-2.8-0.4-4.1-1.6-4.1-3.8c0-2.1,1.6-4,5.7-4c2.1,0,3.6,0.4,4.3,1v3.2c-0.9-0.9-2.3-1.3-4.1-1.3c-1.6,0-2.1,0.4-2.1,1
			s0.3,0.9,1.7,1.1l0.7,0.1c3,0.4,4.3,1.4,4.3,3.7c0,2.1-1.7,4.2-5.9,4.2C107.3,61.7,105.9,61.2,105.2,60.7z"/>
		<path id="XMLID_741_" class="st0" d="M117.5,46.2c0-1.1,0.8-1.7,2.1-1.7c1.3,0,2.1,0.6,2.1,1.7s-0.8,1.7-2.1,1.7
			C118.2,47.9,117.5,47.3,117.5,46.2z M117.5,49.1h4v12.2h-4V49.1z"/>
		<path id="XMLID_738_" class="st0" d="M123.8,64.8v-2.7c1.3,0.7,3,1.1,5.8,1.1c3.2,0,4.5-0.4,4.5-1.3c0-0.7-0.8-0.9-2.8-0.9
			c-2,0-5.1,0.4-6,0.8v-2.4l1.9-2.5c-2-0.6-3.2-1.9-3.2-3.9c0-2.7,2.4-4.3,6.1-4.3c1.6,0,2.9,0.3,3.9,0.9c0.4-0.6,1.5-1,2.6-1
			c0.4,0,0.8,0,1.2,0.2v2.7c-0.2-0.1-0.6-0.2-0.9-0.2c-0.5,0-0.9,0.1-1.2,0.3c0.1,0.4,0.2,0.9,0.2,1.4c0,2.7-2.4,4.2-6.1,4.2h-0.2
			l-1,1.5c0.6-0.2,2.2-0.4,3.6-0.4c3.4,0,5.7,0.7,5.7,3.3c0,2.6-2.7,4.2-7.8,4.2C127.1,66,124.9,65.5,123.8,64.8z M132.1,53
			c0-1.1-0.8-1.7-2.2-1.7c-1.4,0-2.2,0.6-2.2,1.7s0.8,1.7,2.2,1.7C131.2,54.7,132.1,54.1,132.1,53z"/>
		<path id="XMLID_736_" class="st0" d="M139.3,49.1h3.6l0.3,1.1c0.6-0.8,1.8-1.4,3.6-1.4c3.6,0,5,1.7,5,5v7.6h-4v-7
			c0-2-0.6-2.8-2.1-2.8c-1.2,0-2,0.5-2.3,1v8.7h-4V49.1z"/>
		<path id="XMLID_733_" class="st0" d="M154.4,51.6c0-1.2,1-2.2,2.4-2.2c1.3,0,2.3,0.9,2.3,2.2c0,1.2-1,2.1-2.3,2.1
			C155.4,53.7,154.4,52.8,154.4,51.6z M154.4,59.6c0-1.2,1-2.2,2.4-2.2c1.3,0,2.3,0.9,2.3,2.2c0,1.2-1,2.1-2.3,2.1
			C155.4,61.7,154.4,60.8,154.4,59.6z"/>
		<path id="XMLID_730_" class="st1" d="M174.5,50l-0.5-1.3h2.8l5.5,12.6h-2.9l-1.1-2.6h-5.2l-1.1,2.6h-2.6L174.5,50z M173.9,56.9
			h3.7l-1.5-3.5l-0.4-1.1l-0.4,1.1L173.9,56.9z"/>
		<path id="XMLID_727_" class="st1" d="M188.3,56.4c0-3.7,2.1-5.6,5.1-5.6c0.9,0,1.9,0.1,2.5,0.7v-4.1h2.7v14H196l-0.2-0.9
			c-0.3,0.5-1.2,1.2-2.9,1.2C190.3,61.6,188.3,60.1,188.3,56.4z M195.8,53.5c-0.5-0.6-1.3-0.8-2.2-0.8c-1.9,0-2.6,1.6-2.6,3.7
			c0,2,0.7,3.3,2.5,3.3c1.2,0,2-0.4,2.3-0.9V53.5z"/>
		<path id="XMLID_724_" class="st1" d="M200.7,56.2c0-3.7,2.6-5.4,5.6-5.4c3.2,0,5.4,1.7,5.4,5.4c0,3.7-2.6,5.4-5.6,5.4
			C202.9,61.6,200.7,59.9,200.7,56.2z M209,56.2c0-2-0.9-3.4-2.8-3.4c-1.9,0-2.7,1.4-2.7,3.4c0,2,0.9,3.4,2.7,3.4
			C208.1,59.7,209,58.3,209,56.2z"/>
		<path id="XMLID_722_" class="st1" d="M213.8,57.5v-6.4h2.7V57c0,2,0.4,2.8,2,2.8c1.3,0,1.9-0.6,2.2-1v-7.6h2.7v10.2h-2.5l-0.2-0.9
			c-0.4,0.6-1.5,1.2-2.9,1.2C214.9,61.6,213.8,60.3,213.8,57.5z"/>
		<path id="XMLID_719_" class="st1" d="M228.7,60.7l-0.4,0.7h-2v-14h2.7V52c0.3-0.5,1.3-1.2,2.9-1.2c2.8,0,4.7,1.4,4.7,5.1
			c0,3.7-2.3,5.7-5.1,5.7C229.9,61.6,229.1,61.2,228.7,60.7z M228.9,59c0.5,0.6,1.4,0.8,2.2,0.8c1.9,0,2.7-1.6,2.7-3.7
			c0-2-0.7-3.3-2.6-3.3c-1.1,0-1.9,0.4-2.3,0.9V59z"/>
		<path id="XMLID_717_" class="st1" d="M238.6,59V47.4h2.7v11.4c0,0.7,0.2,0.9,0.8,0.9c0.5,0,0.9-0.2,1.1-0.5V61
			c-0.2,0.2-0.8,0.6-1.8,0.6C239.5,61.6,238.6,60.7,238.6,59z"/>
		<path id="XMLID_714_" class="st1" d="M244.4,56.2c0-3.7,2.7-5.4,5.3-5.4c2.6,0,5.1,1,5.1,4.8V57h-7.6c0.1,1.4,1.1,2.6,3.3,2.6
			c2,0,3.2-0.8,3.8-1.5v2.2c-0.6,0.6-1.8,1.3-4.1,1.3C246.7,61.6,244.4,59.9,244.4,56.2z M252.1,55.3L252.1,55.3
			c0-1.7-0.8-2.6-2.5-2.6c-1.5,0-2.4,1.3-2.5,2.6H252.1z"/>
		<path id="XMLID_711_" class="st1" d="M264.4,60.7l-0.4,0.7h-2v-14h2.7V52c0.3-0.5,1.3-1.2,2.9-1.2c2.8,0,4.7,1.4,4.7,5.1
			c0,3.7-2.3,5.7-5.1,5.7C265.6,61.6,264.9,61.2,264.4,60.7z M264.6,59c0.5,0.6,1.4,0.8,2.2,0.8c1.9,0,2.7-1.6,2.7-3.7
			c0-2-0.7-3.3-2.6-3.3c-1.1,0-1.9,0.4-2.3,0.9V59z"/>
		<path id="XMLID_709_" class="st1" d="M274.4,59V47.4h2.7v11.4c0,0.7,0.2,0.9,0.8,0.9c0.5,0,0.9-0.2,1.1-0.5V61
			c-0.2,0.2-0.8,0.6-1.8,0.6C275.2,61.6,274.4,60.7,274.4,59z"/>
		<path id="XMLID_706_" class="st1" d="M280.6,48.7c0-0.8,0.5-1.2,1.5-1.2c1,0,1.5,0.4,1.5,1.2c0,0.8-0.5,1.2-1.5,1.2
			C281.1,49.9,280.6,49.5,280.6,48.7z M280.7,51.1h2.7v10.2h-2.7V51.1z"/>
		<path id="XMLID_704_" class="st1" d="M286.2,51.1h2.5l0.2,0.9c0.4-0.6,1.5-1.2,3-1.2c3,0,4.1,1.4,4.1,4.2v6.4h-2.7v-5.9
			c0-2-0.5-2.8-2.1-2.8c-1.3,0-2,0.6-2.3,1v7.6h-2.7V51.1z"/>
		<path id="XMLID_701_" class="st1" d="M298.1,56.4c0-3.7,2.1-5.6,5.1-5.6c0.9,0,1.9,0.1,2.5,0.7v-4.1h2.7v14h-2.5l-0.2-0.9
			c-0.3,0.5-1.2,1.2-2.9,1.2C300.2,61.6,298.1,60.1,298.1,56.4z M305.7,53.5c-0.5-0.6-1.3-0.8-2.2-0.8c-1.9,0-2.6,1.6-2.6,3.7
			c0,2,0.7,3.3,2.5,3.3c1.2,0,2-0.4,2.3-0.9V53.5z"/>
		<path id="XMLID_699_" class="st1" d="M310.6,64.1c0.4-0.6,0.9-1.7,1-2.6c-0.6-0.2-0.9-0.8-0.9-1.4c0-0.9,0.7-1.5,1.7-1.5
			c1,0,1.6,0.6,1.6,1.7c0,1.7-1.4,3.4-2.2,4.1L310.6,64.1z"/>
		<path id="XMLID_696_" class="st1" d="M320.9,56.4c0-3.7,2.1-5.6,5.1-5.6c0.9,0,1.9,0.1,2.5,0.7v-4.1h2.7v14h-2.5l-0.2-0.9
			c-0.3,0.5-1.2,1.2-2.9,1.2C322.9,61.6,320.9,60.1,320.9,56.4z M328.4,53.5c-0.5-0.6-1.3-0.8-2.2-0.8c-1.9,0-2.6,1.6-2.6,3.7
			c0,2,0.7,3.3,2.5,3.3c1.2,0,2-0.4,2.3-0.9V53.5z"/>
		<path id="XMLID_693_" class="st1" d="M333.3,56.2c0-3.7,2.6-5.4,5.6-5.4c3.2,0,5.4,1.7,5.4,5.4c0,3.7-2.6,5.4-5.6,5.4
			C335.5,61.6,333.3,59.9,333.3,56.2z M341.6,56.2c0-2-0.9-3.4-2.8-3.4c-1.9,0-2.7,1.4-2.7,3.4c0,2,0.9,3.4,2.7,3.4
			C340.7,59.7,341.6,58.3,341.6,56.2z"/>
		<path id="XMLID_691_" class="st1" d="M346.4,57.5v-6.4h2.7V57c0,2,0.4,2.8,2,2.8c1.3,0,1.9-0.6,2.2-1v-7.6h2.7v10.2h-2.5l-0.2-0.9
			c-0.4,0.6-1.5,1.2-2.9,1.2C347.5,61.6,346.4,60.3,346.4,57.5z"/>
		<path id="XMLID_688_" class="st1" d="M361.3,60.7l-0.4,0.7h-2v-14h2.7V52c0.3-0.5,1.3-1.2,2.9-1.2c2.8,0,4.7,1.4,4.7,5.1
			c0,3.7-2.3,5.7-5.1,5.7C362.5,61.6,361.7,61.2,361.3,60.7z M361.5,59c0.5,0.6,1.4,0.8,2.2,0.8c1.9,0,2.7-1.6,2.7-3.7
			c0-2-0.7-3.3-2.6-3.3c-1.1,0-1.9,0.4-2.3,0.9V59z"/>
		<path id="XMLID_686_" class="st1" d="M371.2,59V47.4h2.7v11.4c0,0.7,0.2,0.9,0.8,0.9c0.5,0,0.9-0.2,1.1-0.5V61
			c-0.2,0.2-0.8,0.6-1.8,0.6C372.1,61.6,371.2,60.7,371.2,59z"/>
		<path id="XMLID_683_" class="st1" d="M377,56.2c0-3.7,2.7-5.4,5.3-5.4c2.6,0,5.1,1,5.1,4.8V57h-7.6c0.1,1.4,1.1,2.6,3.3,2.6
			c2,0,3.2-0.8,3.8-1.5v2.2c-0.6,0.6-1.8,1.3-4.1,1.3C379.3,61.6,377,59.9,377,56.2z M384.7,55.3L384.7,55.3c0-1.7-0.8-2.6-2.5-2.6
			c-1.5,0-2.4,1.3-2.5,2.6H384.7z"/>
		<path id="XMLID_680_" class="st1" d="M393.9,56.4c0-3.7,2.1-5.6,5.1-5.6c0.9,0,1.9,0.1,2.5,0.7v-4.1h2.7v14h-2.5l-0.2-0.9
			c-0.3,0.5-1.2,1.2-2.9,1.2C396,61.6,393.9,60.1,393.9,56.4z M401.5,53.5c-0.5-0.6-1.3-0.8-2.2-0.8c-1.9,0-2.6,1.6-2.6,3.7
			c0,2,0.7,3.3,2.5,3.3c1.2,0,2-0.4,2.3-0.9V53.5z"/>
		<path id="XMLID_678_" class="st1" d="M406.9,57.5v-6.4h2.7V57c0,2,0.4,2.8,2,2.8c1.3,0,1.9-0.6,2.2-1v-7.6h2.7v10.2H414l-0.2-0.9
			c-0.4,0.6-1.5,1.2-2.9,1.2C408,61.6,406.9,60.3,406.9,57.5z"/>
		<path id="XMLID_676_" class="st1" d="M419.3,51.1h2.6L422,52c0.4-0.6,1.4-1.2,2.7-1.2c1.7,0,2.7,0.5,3.3,1.5
			c0.5-0.7,1.6-1.5,3.3-1.5c2.8,0,3.9,1.4,3.9,4.2v6.4h-2.7v-5.9c0-2-0.5-2.8-1.9-2.8c-1,0-1.9,0.5-2.2,1c0.1,0.4,0.1,0.9,0.1,1.3
			v6.4H426v-5.9c0-2-0.5-2.8-1.9-2.8c-1.1,0-1.8,0.5-2.1,1v7.6h-2.7V51.1z"/>
		<path id="XMLID_674_" class="st1" d="M438.1,51.1h2.6l0.1,0.9c0.4-0.6,1.4-1.2,2.7-1.2c1.7,0,2.7,0.5,3.3,1.5
			c0.5-0.7,1.6-1.5,3.3-1.5c2.8,0,3.9,1.4,3.9,4.2v6.4h-2.7v-5.9c0-2-0.5-2.8-1.9-2.8c-1,0-1.9,0.5-2.2,1c0.1,0.4,0.1,0.9,0.1,1.3
			v6.4h-2.7v-5.9c0-2-0.5-2.8-1.9-2.8c-1.1,0-1.8,0.5-2.1,1v7.6h-2.7V51.1z"/>
		<path id="XMLID_672_" class="st1" d="M455.8,64.6v-2c0.5,0.5,1.1,0.8,1.9,0.8c0.8,0,1.6-0.3,2.2-1.7l-4.6-10.5h2.9l2.9,7.4
			l2.2-7.4h2.7l-3.3,9.6c-0.9,2.5-2.1,4.5-5,4.5C456.9,65.2,456.1,65,455.8,64.6z"/>
		<path id="XMLID_670_" class="st1" d="M473.1,58.6V53h-1.4v-0.6l1.1-1.3l2.1-2.4h0.9v2.4h2.8V53h-2.8v5.5c0,0.8,0.3,1.2,1,1.2
			c0.8,0,1.5-0.4,1.8-1v2.1c-0.3,0.4-1.1,0.9-2.4,0.9C474.1,61.6,473.1,60.6,473.1,58.6z"/>
		<path id="XMLID_668_" class="st1" d="M480.8,51.1h2.3l0.2,1.4c0.1-1.1,1.1-1.7,2.2-1.7c0.6,0,1,0.2,1.2,0.3v2.2
			c-0.3-0.2-0.7-0.3-1.4-0.3c-1,0-1.6,0.4-1.9,1.1v7.3h-2.7V51.1z"/>
		<path id="XMLID_665_" class="st1" d="M488.3,48.7c0-0.8,0.5-1.2,1.5-1.2s1.5,0.4,1.5,1.2c0,0.8-0.5,1.2-1.5,1.2
			S488.3,49.5,488.3,48.7z M488.4,51.1h2.7v10.2h-2.7V51.1z"/>
		<path id="XMLID_662_" class="st1" d="M493.3,58.7c0-2.1,1.8-2.9,4.9-3.4l1.7-0.2c0-1.8-1-2.3-2.6-2.3c-1.7,0-3.1,0.8-3.6,1.9v-2.4
			c0.4-0.6,1.6-1.4,4.1-1.4c3.1,0,4.8,1.4,4.8,4.3v6.2h-2.5l-0.2-0.9c-0.3,0.6-1.2,1.2-2.8,1.2C495.1,61.6,493.3,60.8,493.3,58.7z
			 M500,56.7l-1.5,0.3c-1.9,0.4-2.5,0.8-2.5,1.6c0,0.8,0.6,1.2,1.7,1.2c1.1,0,2-0.4,2.3-0.9V56.7z"/>
		<path id="XMLID_660_" class="st1" d="M505.3,59V47.4h2.7v11.4c0,0.7,0.3,0.9,0.8,0.9c0.5,0,0.9-0.2,1.1-0.5V61
			c-0.2,0.2-0.8,0.6-1.8,0.6C506.2,61.6,505.3,60.7,505.3,59z"/>
		<path id="XMLID_658_" class="st1" d="M511.1,64.1c0.4-0.6,0.9-1.7,1-2.6c-0.6-0.2-0.9-0.8-0.9-1.4c0-0.9,0.7-1.5,1.7-1.5
			c1,0,1.6,0.6,1.6,1.7c0,1.7-1.4,3.4-2.2,4.1L511.1,64.1z"/>
		<path id="XMLID_656_" class="st1" d="M521.3,56.2c0-3.7,2.6-5.4,5.6-5.4c1.6,0,2.8,0.5,3.3,0.9v2.4c-0.7-0.9-1.6-1.2-3.1-1.2
			c-1.9,0-3,1.3-3,3.4c0,2.1,1.1,3.4,3,3.4c1.4,0,2.4-0.5,3.1-1.3v2.2c-0.5,0.5-1.8,1.2-3.4,1.2C523.6,61.6,521.3,59.9,521.3,56.2z"
			/>
		<path id="XMLID_653_" class="st1" d="M531.9,56.2c0-3.7,2.6-5.4,5.6-5.4c3.2,0,5.4,1.7,5.4,5.4c0,3.7-2.6,5.4-5.6,5.4
			C534.1,61.6,531.9,59.9,531.9,56.2z M540.1,56.2c0-2-0.9-3.4-2.8-3.4c-1.9,0-2.7,1.4-2.7,3.4c0,2,0.9,3.4,2.7,3.4
			C539.3,59.7,540.1,58.3,540.1,56.2z"/>
		<path id="XMLID_651_" class="st1" d="M545.1,51.1h2.6l0.1,0.9c0.4-0.6,1.4-1.2,2.7-1.2c1.7,0,2.7,0.5,3.3,1.5
			c0.5-0.7,1.6-1.5,3.3-1.5c2.8,0,3.9,1.4,3.9,4.2v6.4h-2.7v-5.9c0-2-0.5-2.8-1.9-2.8c-1,0-1.9,0.5-2.2,1c0.1,0.4,0.1,0.9,0.1,1.3
			v6.4h-2.7v-5.9c0-2-0.5-2.8-1.9-2.8c-1.1,0-1.8,0.5-2.1,1v7.6h-2.7V51.1z"/>
		<path id="XMLID_648_" class="st1" d="M563.8,51.1h2.5l0.2,0.9c0.3-0.5,1.2-1.2,2.9-1.2c2.8,0,4.7,1.4,4.7,5.1
			c0,3.7-2.3,5.7-5.1,5.7c-0.9,0-1.9-0.1-2.5-0.7v4h-2.7V51.1z M571.4,56.1c0-2-0.7-3.3-2.6-3.3c-1.2,0-1.9,0.4-2.3,0.9V59
			c0.5,0.6,1.3,0.8,2.2,0.8C570.6,59.7,571.4,58.1,571.4,56.1z"/>
		<path id="XMLID_645_" class="st1" d="M575.7,58.7c0-2.1,1.8-2.9,4.9-3.4l1.7-0.2c0-1.8-1-2.3-2.6-2.3c-1.7,0-3.1,0.8-3.6,1.9v-2.4
			c0.4-0.6,1.6-1.4,4.1-1.4c3.1,0,4.8,1.4,4.8,4.3v6.2h-2.5l-0.2-0.9c-0.3,0.6-1.2,1.2-2.8,1.2C577.5,61.6,575.7,60.8,575.7,58.7z
			 M582.4,56.7l-1.5,0.3c-1.9,0.4-2.5,0.8-2.5,1.6c0,0.8,0.6,1.2,1.7,1.2c1.1,0,2-0.4,2.3-0.9V56.7z"/>
		<path id="XMLID_643_" class="st1" d="M587.8,51.1h2.3l0.2,1.4c0.1-1.1,1.1-1.7,2.2-1.7c0.6,0,1,0.2,1.2,0.3v2.2
			c-0.3-0.2-0.7-0.3-1.4-0.3c-1,0-1.6,0.4-1.9,1.1v7.3h-2.7V51.1z"/>
		<path id="XMLID_640_" class="st1" d="M595.3,48.7c0-0.8,0.5-1.2,1.5-1.2s1.5,0.4,1.5,1.2c0,0.8-0.5,1.2-1.5,1.2
			S595.3,49.5,595.3,48.7z M595.5,51.1h2.7v10.2h-2.7V51.1z"/>
		<path id="XMLID_638_" class="st1" d="M601,51.1h2.5l0.2,0.9c0.4-0.6,1.5-1.2,3-1.2c3,0,4.1,1.4,4.1,4.2v6.4H608v-5.9
			c0-2-0.5-2.8-2.1-2.8c-1.3,0-2,0.6-2.3,1v7.6H601V51.1z"/>
		<path id="XMLID_635_" class="st1" d="M612.8,64.2v-2c1,0.7,2.5,1.1,4.7,1.1c2.6,0,3.8-0.4,3.8-1.3c0-0.8-0.9-1-2.6-1
			c-1.6,0-4.1,0.3-4.8,0.6v-1.7l1.6-2.3c-1.6-0.5-2.6-1.6-2.6-3.3c0-2.2,2-3.6,4.8-3.6c1.3,0,2.3,0.3,3.1,0.8
			c0.4-0.5,1.3-0.8,2.2-0.8c0.3,0,0.6,0,0.9,0.1v1.9c-0.2-0.1-0.5-0.1-0.7-0.1c-0.5,0-0.9,0.1-1.1,0.3c0.2,0.4,0.3,0.9,0.3,1.4
			c0,2.2-2,3.5-4.8,3.5h-0.3l-1,1.5c0.5-0.1,1.8-0.3,3-0.3c2.8,0,4.6,0.6,4.6,2.7c0,2-2.1,3.4-6.2,3.4
			C615.5,65.2,613.8,64.8,612.8,64.2z M619.9,54.4c0-1.1-0.9-1.7-2.2-1.7c-1.3,0-2.2,0.6-2.2,1.7s0.9,1.7,2.2,1.7
			C619,56.1,619.9,55.5,619.9,54.4z"/>
		<path id="XMLID_632_" class="st1" d="M629.9,58.7c0-2.1,1.8-2.9,4.9-3.4l1.7-0.2c0-1.8-1-2.3-2.6-2.3c-1.7,0-3.1,0.8-3.6,1.9v-2.4
			c0.4-0.6,1.6-1.4,4.1-1.4c3.1,0,4.8,1.4,4.8,4.3v6.2h-2.5l-0.2-0.9c-0.3,0.6-1.2,1.2-2.8,1.2C631.6,61.6,629.9,60.8,629.9,58.7z
			 M636.5,56.7L635,57c-1.9,0.4-2.5,0.8-2.5,1.6c0,0.8,0.6,1.2,1.7,1.2c1.1,0,2-0.4,2.3-0.9V56.7z"/>
		<path id="XMLID_630_" class="st1" d="M646.4,61.1v-2.4c0.6,0.4,1.5,0.9,3,0.9c2,0,3.1-0.8,3.1-2c0-1.1-0.7-1.9-3-1.9
			c-1.1,0-2,0.2-2.6,0.5l0.3-7.5h7.7v2.1h-5.4l-0.1,3.1c0.2-0.1,0.8-0.1,1.2-0.1c3,0,4.7,1.2,4.7,3.7c0,2.6-2.4,4.2-5.6,4.2
			C647.9,61.6,647,61.3,646.4,61.1z"/>
		<path id="XMLID_628_" class="st1" d="M662.5,51.1h2.6l0.1,0.9c0.4-0.6,1.4-1.2,2.7-1.2c1.7,0,2.7,0.5,3.3,1.5
			c0.5-0.7,1.6-1.5,3.3-1.5c2.8,0,3.9,1.4,3.9,4.2v6.4h-2.7v-5.9c0-2-0.5-2.8-1.9-2.8c-1,0-1.9,0.5-2.2,1c0.1,0.4,0.1,0.9,0.1,1.3
			v6.4h-2.7v-5.9c0-2-0.5-2.8-1.9-2.8c-1.1,0-1.8,0.5-2.1,1v7.6h-2.7V51.1z"/>
		<path id="XMLID_625_" class="st1" d="M680.6,64.2v-2c1,0.7,2.5,1.1,4.7,1.1c2.6,0,3.8-0.4,3.8-1.3c0-0.8-0.9-1-2.6-1
			c-1.6,0-4.1,0.3-4.8,0.6v-1.7l1.6-2.3c-1.6-0.5-2.6-1.6-2.6-3.3c0-2.2,2-3.6,4.8-3.6c1.3,0,2.3,0.3,3.1,0.8
			c0.4-0.5,1.3-0.8,2.2-0.8c0.3,0,0.6,0,0.9,0.1v1.9c-0.2-0.1-0.5-0.1-0.7-0.1c-0.5,0-0.9,0.1-1.1,0.3c0.2,0.4,0.3,0.9,0.3,1.4
			c0,2.2-2,3.5-4.8,3.5h-0.3l-1,1.5c0.5-0.1,1.8-0.3,3-0.3c2.8,0,4.6,0.6,4.6,2.7c0,2-2.1,3.4-6.2,3.4
			C683.3,65.2,681.6,64.8,680.6,64.2z M687.7,54.4c0-1.1-0.9-1.7-2.2-1.7c-1.3,0-2.2,0.6-2.2,1.7s0.9,1.7,2.2,1.7
			C686.8,56.1,687.7,55.5,687.7,54.4z"/>
		<path id="XMLID_623_" class="st1" d="M698.8,58.6V53h-1.4v-0.6l1.1-1.3l2.1-2.4h0.9v2.4h2.8V53h-2.8v5.5c0,0.8,0.3,1.2,1,1.2
			c0.8,0,1.5-0.4,1.8-1v2.1c-0.3,0.4-1.1,0.9-2.4,0.9C699.7,61.6,698.8,60.6,698.8,58.6z"/>
		<path id="XMLID_621_" class="st1" d="M705.4,51.1h2.7l1.7,6l2.5-6h1.1l2.6,6l1.7-6h2.5l-3.1,10.2h-1.6l-2.7-6.1l-2.7,6.1h-1.6
			L705.4,51.1z"/>
		<path id="XMLID_618_" class="st1" d="M721.8,48.7c0-0.8,0.5-1.2,1.5-1.2s1.5,0.4,1.5,1.2c0,0.8-0.5,1.2-1.5,1.2
			S721.8,49.5,721.8,48.7z M721.9,51.1h2.7v10.2h-2.7V51.1z"/>
		<path id="XMLID_616_" class="st1" d="M726.8,56.2c0-3.7,2.6-5.4,5.6-5.4c1.6,0,2.8,0.5,3.3,0.9v2.4c-0.7-0.9-1.6-1.2-3.1-1.2
			c-1.9,0-3,1.3-3,3.4c0,2.1,1.1,3.4,3,3.4c1.4,0,2.4-0.5,3.1-1.3v2.2c-0.5,0.5-1.8,1.2-3.4,1.2C729.1,61.6,726.8,59.9,726.8,56.2z"
			/>
		<path id="XMLID_613_" class="st1" d="M737.3,56.2c0-3.7,2.7-5.4,5.3-5.4c2.6,0,5.1,1,5.1,4.8V57h-7.6c0.1,1.4,1.1,2.6,3.3,2.6
			c2,0,3.2-0.8,3.8-1.5v2.2c-0.6,0.6-1.8,1.3-4.1,1.3C739.7,61.6,737.3,59.9,737.3,56.2z M745.1,55.3L745.1,55.3
			c0-1.7-0.8-2.6-2.5-2.6c-1.5,0-2.4,1.3-2.5,2.6H745.1z"/>
		<path id="XMLID_610_" class="st1" d="M754.3,58.7c0-2.1,1.8-2.9,4.9-3.4l1.7-0.2c0-1.8-1-2.3-2.6-2.3c-1.7,0-3.1,0.8-3.6,1.9v-2.4
			c0.4-0.6,1.6-1.4,4.1-1.4c3.1,0,4.8,1.4,4.8,4.3v6.2h-2.5l-0.2-0.9c-0.3,0.6-1.2,1.2-2.8,1.2C756,61.6,754.3,60.8,754.3,58.7z
			 M760.9,56.7l-1.5,0.3c-1.9,0.4-2.5,0.8-2.5,1.6c0,0.8,0.6,1.2,1.7,1.2c1.1,0,2-0.4,2.3-0.9V56.7z"/>
		<path id="XMLID_607_" class="st1" d="M770.7,56.4c0-3.7,2.1-5.6,5.1-5.6c0.9,0,1.9,0.1,2.5,0.7v-4.1h2.7v14h-2.5l-0.2-0.9
			c-0.3,0.5-1.2,1.2-2.9,1.2C772.8,61.6,770.7,60.1,770.7,56.4z M778.3,53.5c-0.5-0.6-1.3-0.8-2.2-0.8c-1.9,0-2.6,1.6-2.6,3.7
			c0,2,0.7,3.3,2.5,3.3c1.2,0,2-0.4,2.3-0.9V53.5z"/>
		<path id="XMLID_604_" class="st1" d="M783.2,58.7c0-2.1,1.8-2.9,4.9-3.4l1.7-0.2c0-1.8-1-2.3-2.6-2.3c-1.7,0-3.1,0.8-3.6,1.9v-2.4
			c0.4-0.6,1.6-1.4,4.1-1.4c3.1,0,4.8,1.4,4.8,4.3v6.2h-2.5l-0.2-0.9c-0.3,0.6-1.2,1.2-2.8,1.2C784.9,61.6,783.2,60.8,783.2,58.7z
			 M789.8,56.7l-1.5,0.3c-1.9,0.4-2.5,0.8-2.5,1.6c0,0.8,0.6,1.2,1.7,1.2c1.1,0,2-0.4,2.3-0.9V56.7z"/>
		<path id="XMLID_602_" class="st1" d="M794.1,64.6v-2c0.5,0.5,1.1,0.8,1.9,0.8c0.8,0,1.6-0.3,2.2-1.7l-4.6-10.5h2.9l2.9,7.4
			l2.2-7.4h2.7l-3.3,9.6c-0.9,2.5-2.1,4.5-5,4.5C795.2,65.2,794.5,65,794.1,64.6z"/>
		<path id="XMLID_599_" class="st1" d="M0,84.2c0-3.7,2.1-5.6,5.1-5.6c0.9,0,1.9,0.1,2.5,0.7v-4.1h2.7v14H7.8l-0.2-0.9
			c-0.3,0.5-1.2,1.2-2.9,1.2C2.1,89.4,0,87.9,0,84.2z M7.6,81.3c-0.5-0.6-1.3-0.8-2.2-0.8c-1.9,0-2.6,1.6-2.6,3.7
			c0,2,0.7,3.3,2.5,3.3c1.2,0,2-0.4,2.3-0.9V81.3z"/>
		<path id="XMLID_596_" class="st1" d="M12.5,84c0-3.7,2.6-5.4,5.6-5.4c3.2,0,5.4,1.7,5.4,5.4c0,3.7-2.6,5.4-5.6,5.4
			C14.7,89.4,12.5,87.7,12.5,84z M20.7,84c0-2-0.9-3.4-2.8-3.4c-1.9,0-2.7,1.4-2.7,3.4c0,2,0.9,3.4,2.7,3.4
			C19.8,87.5,20.7,86.1,20.7,84z"/>
		<path id="XMLID_594_" class="st1" d="M25.3,88.5v-2.3c0.7,0.7,1.7,1.3,3.3,1.3s2.1-0.6,2.1-1.2c0-0.7-0.3-0.9-1.7-1.2L28.4,85
			c-2.1-0.4-3.3-1.3-3.3-3.2c0-1.8,1.5-3.3,4.4-3.3c1.5,0,2.7,0.4,3.3,0.9v2.3c-0.7-0.8-1.7-1.3-3.2-1.3c-1.5,0-2,0.5-2,1.1
			c0,0.6,0.3,1,1.7,1.2l0.6,0.1c2.2,0.4,3.5,1.1,3.5,3c0,1.7-1.5,3.4-4.7,3.4C27,89.4,25.8,89,25.3,88.5z"/>
		<path id="XMLID_591_" class="st1" d="M34.8,84c0-3.7,2.7-5.4,5.3-5.4c2.6,0,5.1,1,5.1,4.8v1.4h-7.6c0.1,1.4,1.1,2.6,3.3,2.6
			c2,0,3.2-0.8,3.8-1.5v2.2c-0.6,0.6-1.8,1.3-4.1,1.3C37.1,89.4,34.8,87.7,34.8,84z M42.6,83.1L42.6,83.1c0-1.7-0.8-2.6-2.5-2.6
			c-1.5,0-2.4,1.3-2.5,2.6H42.6z"/>
		<path id="XMLID_588_" class="st1" d="M51.7,84c0-3.7,2.6-5.4,5.6-5.4c3.2,0,5.4,1.7,5.4,5.4c0,3.7-2.6,5.4-5.6,5.4
			C54,89.4,51.7,87.7,51.7,84z M60,84c0-2-0.9-3.4-2.8-3.4c-1.9,0-2.7,1.4-2.7,3.4c0,2,0.9,3.4,2.7,3.4C59.1,87.5,60,86.1,60,84z"/>
		<path id="XMLID_586_" class="st1" d="M65.4,80.8h-1.4v-0.6l1.3-1c-0.2-0.3-0.4-0.8-0.4-1.4c0-1.9,1.8-2.8,3.8-2.8
			c1.4,0,2.2,0.4,2.5,0.6v2.2c-0.4-0.6-1.1-0.9-2-0.9c-1.1,0-1.6,0.4-1.6,1.2c0,0.4,0.1,0.7,0.3,0.9h2.3v1.9h-2.2v8.3h-2.7V80.8z"/>
		<path id="XMLID_584_" class="st1" d="M197.3,86.4v-5.6h-1.4v-0.6l1.1-1.3l2.1-2.4h0.9v2.4h2.8v1.9H200v5.5c0,0.8,0.3,1.2,1,1.2
			c0.8,0,1.5-0.4,1.8-1v2.1c-0.3,0.4-1.1,0.9-2.4,0.9C198.2,89.4,197.3,88.4,197.3,86.4z"/>
		<path id="XMLID_581_" class="st1" d="M204.3,84c0-3.7,2.6-5.4,5.6-5.4c3.2,0,5.4,1.7,5.4,5.4c0,3.7-2.6,5.4-5.6,5.4
			C206.5,89.4,204.3,87.7,204.3,84z M212.6,84c0-2-0.9-3.4-2.8-3.4c-1.9,0-2.7,1.4-2.7,3.4c0,2,0.9,3.4,2.7,3.4
			C211.7,87.5,212.6,86.1,212.6,84z"/>
		<path id="XMLID_579_" class="st1" d="M222.1,88.9v-2.4c0.6,0.5,1.4,0.9,2.8,0.9c2.4,0,3.2-0.8,3.2-2.1c0-1.2-0.7-1.9-3-1.9h-0.9
			v-0.2l2.8-4.6h-5v-2.1h8.7v0.2l-3.1,5c1.9,0.3,3.3,1.2,3.3,3.5c0,2-1.7,4.2-5.8,4.2C223.5,89.4,222.6,89.1,222.1,88.9z"/>
		<path id="XMLID_577_" class="st1" d="M238.2,78.9h2.6l0.1,0.9c0.4-0.6,1.4-1.2,2.7-1.2c1.7,0,2.7,0.5,3.3,1.5
			c0.5-0.7,1.6-1.5,3.3-1.5c2.8,0,3.9,1.4,3.9,4.2v6.4h-2.7v-5.9c0-2-0.5-2.8-1.9-2.8c-1,0-1.9,0.5-2.2,1c0.1,0.4,0.1,0.9,0.1,1.3
			v6.4h-2.7v-5.9c0-2-0.5-2.8-1.9-2.8c-1.1,0-1.8,0.5-2.1,1v7.6h-2.7V78.9z"/>
		<path id="XMLID_574_" class="st1" d="M256.3,92v-2c1,0.7,2.5,1.1,4.7,1.1c2.6,0,3.8-0.4,3.8-1.3c0-0.8-0.9-1-2.6-1
			c-1.6,0-4.1,0.3-4.8,0.6v-1.7l1.6-2.3c-1.6-0.5-2.6-1.6-2.6-3.3c0-2.2,2-3.6,4.8-3.6c1.3,0,2.3,0.3,3.1,0.8
			c0.4-0.5,1.3-0.8,2.2-0.8c0.3,0,0.6,0,0.9,0.1v1.9c-0.2-0.1-0.5-0.1-0.7-0.1c-0.5,0-0.9,0.1-1.1,0.3c0.2,0.4,0.3,0.9,0.3,1.4
			c0,2.2-2,3.5-4.8,3.5h-0.3l-1,1.5c0.5-0.1,1.8-0.3,3-0.3c2.8,0,4.6,0.6,4.6,2.7c0,2-2.1,3.4-6.2,3.4C259,93,257.3,92.6,256.3,92z
			 M263.4,82.2c0-1.1-0.9-1.7-2.2-1.7s-2.2,0.6-2.2,1.7s0.9,1.7,2.2,1.7S263.4,83.3,263.4,82.2z"/>
		<path id="XMLID_572_" class="st1" d="M274.5,86.4v-5.6h-1.4v-0.6l1.1-1.3l2.1-2.4h0.9v2.4h2.8v1.9h-2.8v5.5c0,0.8,0.3,1.2,1,1.2
			c0.8,0,1.5-0.4,1.8-1v2.1c-0.3,0.4-1.1,0.9-2.4,0.9C275.4,89.4,274.5,88.4,274.5,86.4z"/>
		<path id="XMLID_570_" class="st1" d="M281.1,78.9h2.7l1.7,6l2.5-6h1.1l2.6,6l1.7-6h2.5l-3.1,10.2h-1.6l-2.7-6.1l-2.7,6.1h-1.6
			L281.1,78.9z"/>
		<path id="XMLID_567_" class="st1" d="M297.5,76.5c0-0.8,0.5-1.2,1.5-1.2c1,0,1.5,0.4,1.5,1.2c0,0.8-0.5,1.2-1.5,1.2
			C298,77.7,297.5,77.3,297.5,76.5z M297.6,78.9h2.7v10.2h-2.7V78.9z"/>
		<path id="XMLID_565_" class="st1" d="M302.5,84c0-3.7,2.6-5.4,5.6-5.4c1.6,0,2.8,0.5,3.3,0.9v2.4c-0.7-0.9-1.6-1.2-3.1-1.2
			c-1.9,0-3,1.3-3,3.4c0,2.1,1.1,3.4,3,3.4c1.4,0,2.4-0.5,3.1-1.3v2.2c-0.5,0.5-1.8,1.2-3.4,1.2C304.8,89.4,302.5,87.7,302.5,84z"/>
		<path id="XMLID_562_" class="st1" d="M313,84c0-3.7,2.7-5.4,5.3-5.4c2.6,0,5.1,1,5.1,4.8v1.4h-7.6c0.1,1.4,1.1,2.6,3.3,2.6
			c2,0,3.2-0.8,3.8-1.5v2.2c-0.6,0.6-1.8,1.3-4.1,1.3C315.4,89.4,313,87.7,313,84z M320.8,83.1L320.8,83.1c0-1.7-0.8-2.6-2.5-2.6
			c-1.5,0-2.4,1.3-2.5,2.6H320.8z"/>
		<path id="XMLID_559_" class="st1" d="M330,84.2c0-3.7,2.1-5.6,5.1-5.6c0.9,0,1.9,0.1,2.5,0.7v-4.1h2.7v14h-2.5l-0.2-0.9
			c-0.3,0.5-1.2,1.2-2.9,1.2C332.1,89.4,330,87.9,330,84.2z M337.6,81.3c-0.5-0.6-1.3-0.8-2.2-0.8c-1.9,0-2.6,1.6-2.6,3.7
			c0,2,0.7,3.3,2.5,3.3c1.2,0,2-0.4,2.3-0.9V81.3z"/>
		<path id="XMLID_556_" class="st1" d="M342.5,86.5c0-2.1,1.8-2.9,4.9-3.4l1.7-0.2c0-1.8-1-2.3-2.6-2.3c-1.7,0-3.1,0.8-3.6,1.9v-2.4
			c0.4-0.6,1.6-1.4,4.1-1.4c3.1,0,4.8,1.4,4.8,4.3v6.2h-2.5l-0.2-0.9c-0.3,0.6-1.2,1.2-2.8,1.2C344.2,89.4,342.5,88.6,342.5,86.5z
			 M349.1,84.5l-1.5,0.3c-1.9,0.4-2.5,0.8-2.5,1.6c0,0.8,0.6,1.2,1.7,1.2c1.1,0,2-0.4,2.3-0.9V84.5z"/>
		<path id="XMLID_553_" class="st1" d="M354.4,76.5c0-0.8,0.5-1.2,1.5-1.2c1,0,1.5,0.4,1.5,1.2c0,0.8-0.5,1.2-1.5,1.2
			C354.9,77.7,354.4,77.3,354.4,76.5z M354.5,78.9h2.7v10.2h-2.7V78.9z"/>
		<path id="XMLID_551_" class="st1" d="M359.9,86.8V75.2h2.7v11.4c0,0.7,0.2,0.9,0.8,0.9c0.5,0,0.9-0.2,1.1-0.5v1.9
			c-0.2,0.2-0.8,0.6-1.8,0.6C360.8,89.4,359.9,88.5,359.9,86.8z"/>
		<path id="XMLID_549_" class="st1" d="M365.1,92.4v-2c0.5,0.5,1.1,0.8,1.9,0.8c0.8,0,1.6-0.3,2.2-1.7l-4.6-10.5h2.9l2.9,7.4
			l2.2-7.4h2.7l-3.3,9.6c-0.9,2.5-2.1,4.5-5,4.5C366.2,93,365.5,92.8,365.1,92.4z"/>
		<path id="XMLID_546_" class="st1" d="M385,84.5h-0.1v4.7h-2.7V76.5h4c3.3,0,5.5,1,5.5,3.7c0,2.1-1.5,3.5-3.8,4l4.8,4.9h-3.3
			L385,84.5z M386.2,82.7c1.7,0,2.7-0.7,2.7-2.2c0-1.4-1-2-2.8-2h-1.2v4.2H386.2z"/>
		<path id="XMLID_543_" class="st1" d="M394.1,76.5c0-0.8,0.5-1.2,1.5-1.2c1,0,1.5,0.4,1.5,1.2c0,0.8-0.5,1.2-1.5,1.2
			C394.6,77.7,394.1,77.3,394.1,76.5z M394.3,78.9h2.7v10.2h-2.7V78.9z"/>
		<path id="XMLID_541_" class="st1" d="M399.4,88.5v-2.3c0.7,0.7,1.7,1.3,3.3,1.3s2.1-0.6,2.1-1.2c0-0.7-0.3-0.9-1.7-1.2l-0.6-0.1
			c-2.1-0.4-3.3-1.3-3.3-3.2c0-1.8,1.5-3.3,4.4-3.3c1.5,0,2.7,0.4,3.3,0.9v2.3c-0.7-0.8-1.7-1.3-3.2-1.3c-1.5,0-2,0.5-2,1.1
			c0,0.6,0.3,1,1.7,1.2l0.6,0.1c2.2,0.4,3.5,1.1,3.5,3c0,1.7-1.5,3.4-4.7,3.4C401.1,89.4,400,89,399.4,88.5z"/>
		<path id="XMLID_538_" class="st1" d="M409.6,78.9h2.5l0.2,0.9c0.3-0.5,1.2-1.2,2.9-1.2c2.8,0,4.7,1.4,4.7,5.1
			c0,3.7-2.3,5.7-5.1,5.7c-0.9,0-1.9-0.1-2.5-0.7v4h-2.7V78.9z M417.1,83.9c0-2-0.7-3.3-2.6-3.3c-1.2,0-1.9,0.4-2.3,0.9v5.3
			c0.5,0.6,1.3,0.8,2.2,0.8C416.3,87.5,417.1,85.9,417.1,83.9z"/>
		<path id="XMLID_535_" class="st1" d="M421.4,84c0-3.7,2.7-5.4,5.3-5.4c2.6,0,5.1,1,5.1,4.8v1.4h-7.6c0.1,1.4,1.1,2.6,3.3,2.6
			c2,0,3.2-0.8,3.8-1.5v2.2c-0.6,0.6-1.8,1.3-4.1,1.3C423.7,89.4,421.4,87.7,421.4,84z M429.2,83.1L429.2,83.1
			c0-1.7-0.8-2.6-2.5-2.6c-1.5,0-2.4,1.3-2.5,2.6H429.2z"/>
		<path id="XMLID_533_" class="st1" d="M434,78.9h2.3l0.2,1.4c0.1-1.1,1.1-1.7,2.2-1.7c0.6,0,1,0.2,1.2,0.3v2.2
			c-0.3-0.2-0.7-0.3-1.4-0.3c-1,0-1.6,0.4-1.9,1.1v7.3H434V78.9z"/>
		<path id="XMLID_530_" class="st1" d="M441.5,76.5c0-0.8,0.5-1.2,1.5-1.2s1.5,0.4,1.5,1.2c0,0.8-0.5,1.2-1.5,1.2
			S441.5,77.3,441.5,76.5z M441.7,78.9h2.7v10.2h-2.7V78.9z"/>
		<path id="XMLID_527_" class="st1" d="M446.6,84.2c0-3.7,2.1-5.6,5.1-5.6c0.9,0,1.9,0.1,2.5,0.7v-4.1h2.7v14h-2.5l-0.2-0.9
			c-0.3,0.5-1.2,1.2-2.9,1.2C448.6,89.4,446.6,87.9,446.6,84.2z M454.1,81.3c-0.5-0.6-1.3-0.8-2.2-0.8c-1.9,0-2.6,1.6-2.6,3.7
			c0,2,0.7,3.3,2.5,3.3c1.2,0,2-0.4,2.3-0.9V81.3z"/>
		<path id="XMLID_524_" class="st1" d="M459,84c0-3.7,2.6-5.4,5.6-5.4c3.2,0,5.4,1.7,5.4,5.4c0,3.7-2.6,5.4-5.6,5.4
			C461.3,89.4,459,87.7,459,84z M467.3,84c0-2-0.9-3.4-2.8-3.4c-1.9,0-2.7,1.4-2.7,3.4c0,2,0.9,3.4,2.7,3.4
			C466.4,87.5,467.3,86.1,467.3,84z"/>
		<path id="XMLID_522_" class="st1" d="M472.2,78.9h2.5l0.2,0.9c0.4-0.6,1.5-1.2,3-1.2c3,0,4.1,1.4,4.1,4.2v6.4h-2.7v-5.9
			c0-2-0.5-2.8-2.1-2.8c-1.3,0-2,0.6-2.3,1v7.6h-2.7V78.9z"/>
		<path id="XMLID_519_" class="st1" d="M484.1,84c0-3.7,2.7-5.4,5.3-5.4c2.6,0,5.1,1,5.1,4.8v1.4h-7.6c0.1,1.4,1.1,2.6,3.3,2.6
			c2,0,3.2-0.8,3.8-1.5v2.2c-0.6,0.6-1.8,1.3-4.1,1.3C486.4,89.4,484.1,87.7,484.1,84z M491.8,83.1L491.8,83.1
			c0-1.7-0.8-2.6-2.5-2.6c-1.5,0-2.4,1.3-2.5,2.6H491.8z"/>
		<path id="XMLID_516_" class="st1" d="M501,86.5c0-2.1,1.8-2.9,4.9-3.4l1.7-0.2c0-1.8-1-2.3-2.6-2.3c-1.7,0-3.1,0.8-3.6,1.9v-2.4
			c0.4-0.6,1.6-1.4,4.1-1.4c3.1,0,4.8,1.4,4.8,4.3v6.2h-2.5l-0.2-0.9c-0.3,0.6-1.2,1.2-2.8,1.2C502.8,89.4,501,88.6,501,86.5z
			 M507.7,84.5l-1.5,0.3c-1.9,0.4-2.5,0.8-2.5,1.6c0,0.8,0.6,1.2,1.7,1.2c1.1,0,2-0.4,2.3-0.9V84.5z"/>
		<path id="XMLID_514_" class="st1" d="M513.1,78.9h2.5l0.2,0.9c0.4-0.6,1.5-1.2,3-1.2c3,0,4.1,1.4,4.1,4.2v6.4h-2.7v-5.9
			c0-2-0.5-2.8-2.1-2.8c-1.3,0-2,0.6-2.3,1v7.6h-2.7V78.9z"/>
		<path id="XMLID_511_" class="st1" d="M525,84.2c0-3.7,2.1-5.6,5.1-5.6c0.9,0,1.9,0.1,2.5,0.7v-4.1h2.7v14h-2.5l-0.2-0.9
			c-0.3,0.5-1.2,1.2-2.9,1.2C527,89.4,525,87.9,525,84.2z M532.5,81.3c-0.5-0.6-1.3-0.8-2.2-0.8c-1.9,0-2.6,1.6-2.6,3.7
			c0,2,0.7,3.3,2.5,3.3c1.2,0,2-0.4,2.3-0.9V81.3z"/>
		<path id="XMLID_508_" class="st1" d="M543,78.9h2.5l0.2,0.9c0.3-0.5,1.2-1.2,2.9-1.2c2.8,0,4.7,1.4,4.7,5.1c0,3.7-2.3,5.7-5.1,5.7
			c-0.9,0-1.9-0.1-2.5-0.7v4H543V78.9z M550.5,83.9c0-2-0.7-3.3-2.6-3.3c-1.2,0-1.9,0.4-2.3,0.9v5.3c0.5,0.6,1.3,0.8,2.2,0.8
			C549.8,87.5,550.5,85.9,550.5,83.9z"/>
		<path id="XMLID_506_" class="st1" d="M555.4,86.8V75.2h2.7v11.4c0,0.7,0.3,0.9,0.8,0.9c0.5,0,0.9-0.2,1.1-0.5v1.9
			c-0.2,0.2-0.8,0.6-1.8,0.6C556.3,89.4,555.4,88.5,555.4,86.8z"/>
		<path id="XMLID_503_" class="st1" d="M561.2,86.5c0-2.1,1.8-2.9,4.9-3.4l1.7-0.2c0-1.8-1-2.3-2.6-2.3c-1.7,0-3.1,0.8-3.6,1.9v-2.4
			c0.4-0.6,1.6-1.4,4.1-1.4c3.1,0,4.8,1.4,4.8,4.3v6.2h-2.5l-0.2-0.9c-0.3,0.6-1.2,1.2-2.8,1.2C562.9,89.4,561.2,88.6,561.2,86.5z
			 M567.8,84.5l-1.5,0.3c-1.9,0.4-2.5,0.8-2.5,1.6c0,0.8,0.6,1.2,1.7,1.2c1.1,0,2-0.4,2.3-0.9V84.5z"/>
		<path id="XMLID_501_" class="st1" d="M572.6,84c0-3.7,2.6-5.4,5.6-5.4c1.6,0,2.8,0.5,3.3,0.9v2.4c-0.7-0.9-1.6-1.2-3.1-1.2
			c-1.9,0-3,1.3-3,3.4c0,2.1,1.1,3.4,3,3.4c1.4,0,2.4-0.5,3.1-1.3v2.2c-0.5,0.5-1.8,1.2-3.4,1.2C574.9,89.4,572.6,87.7,572.6,84z"/>
		<path id="XMLID_498_" class="st1" d="M583.1,84c0-3.7,2.7-5.4,5.3-5.4c2.6,0,5.1,1,5.1,4.8v1.4h-7.6c0.1,1.4,1.1,2.6,3.3,2.6
			c2,0,3.2-0.8,3.8-1.5v2.2c-0.6,0.6-1.8,1.3-4.1,1.3C585.5,89.4,583.1,87.7,583.1,84z M590.9,83.1L590.9,83.1
			c0-1.7-0.8-2.6-2.5-2.6c-1.5,0-2.4,1.3-2.5,2.6H590.9z"/>
		<path id="XMLID_495_" class="st1" d="M598.1,88.5l-0.4,0.7h-2v-14h2.7v4.6c0.3-0.5,1.3-1.2,2.9-1.2c2.8,0,4.7,1.4,4.7,5.1
			c0,3.7-2.3,5.7-5.1,5.7C599.4,89.4,598.6,89,598.1,88.5z M598.4,86.8c0.5,0.6,1.4,0.8,2.2,0.8c1.9,0,2.7-1.6,2.7-3.7
			c0-2-0.7-3.3-2.6-3.3c-1.1,0-1.9,0.4-2.3,0.9V86.8z"/>
		<path id="XMLID_492_" class="st1" d="M607.6,84c0-3.7,2.6-5.4,5.6-5.4c3.2,0,5.4,1.7,5.4,5.4c0,3.7-2.6,5.4-5.6,5.4
			C609.8,89.4,607.6,87.7,607.6,84z M615.9,84c0-2-0.9-3.4-2.8-3.4c-1.9,0-2.7,1.4-2.7,3.4c0,2,0.9,3.4,2.7,3.4
			C615,87.5,615.9,86.1,615.9,84z"/>
		<path id="XMLID_489_" class="st1" d="M625.6,76.5c0-0.8,0.5-1.2,1.5-1.2s1.5,0.4,1.5,1.2c0,0.8-0.5,1.2-1.5,1.2
			S625.6,77.3,625.6,76.5z M625.8,78.9h2.7v10.2h-2.7V78.9z"/>
		<path id="XMLID_487_" class="st1" d="M631.3,78.9h2.5l0.2,0.9c0.4-0.6,1.5-1.2,3-1.2c3,0,4.1,1.4,4.1,4.2v6.4h-2.7v-5.9
			c0-2-0.5-2.8-2.1-2.8c-1.3,0-2,0.6-2.3,1v7.6h-2.7V78.9z"/>
		<path id="XMLID_485_" class="st1" d="M650.9,79.6c-0.5,0.5-1.9,0.6-3.2,0.6v-2c2,0,3.5-0.5,4.6-1.7h1.2v12.6h-2.6V79.6z"/>
		<path id="XMLID_483_" class="st1" d="M661.3,78.6h-5.9v-2.1h9.2v0.2l-4.8,12.4h-2.7L661.3,78.6z"/>
		<path id="XMLID_481_" class="st1" d="M671.5,86.6h-6.9v-0.2l4-9.8h2.5l-3.1,7.9h3.4v-4.6h2.5v4.6h1.5v2.2H674v2.5h-2.5V86.6z"/>
		<path id="XMLID_479_" class="st1" d="M682,88.5v-2.3c0.7,0.7,1.7,1.3,3.3,1.3s2.1-0.6,2.1-1.2c0-0.7-0.3-0.9-1.7-1.2l-0.6-0.1
			c-2.1-0.4-3.3-1.3-3.3-3.2c0-1.8,1.5-3.3,4.4-3.3c1.5,0,2.7,0.4,3.3,0.9v2.3c-0.7-0.8-1.7-1.3-3.2-1.3c-1.5,0-2,0.5-2,1.1
			c0,0.6,0.3,1,1.7,1.2l0.6,0.1c2.2,0.4,3.5,1.1,3.5,3c0,1.7-1.5,3.4-4.7,3.4C683.8,89.4,682.6,89,682,88.5z"/>
		<path id="XMLID_477_" class="st1" d="M691.6,84c0-3.7,2.6-5.4,5.6-5.4c1.6,0,2.8,0.5,3.3,0.9v2.4c-0.7-0.9-1.6-1.2-3.1-1.2
			c-1.9,0-3,1.3-3,3.4c0,2.1,1.1,3.4,3,3.4c1.4,0,2.4-0.5,3.1-1.3v2.2c-0.5,0.5-1.8,1.2-3.4,1.2C693.8,89.4,691.6,87.7,691.6,84z"/>
		<path id="XMLID_475_" class="st1" d="M702.8,75.2h2.7v4.6c0.5-0.6,1.5-1.2,2.9-1.2c3,0,4.1,1.4,4.1,4.2v6.4h-2.7v-5.9
			c0-2-0.5-2.8-2.1-2.8c-1.2,0-2,0.6-2.3,1v7.7h-2.7V75.2z"/>
		<path id="XMLID_472_" class="st1" d="M715.1,76.5c0-0.8,0.5-1.2,1.5-1.2s1.5,0.4,1.5,1.2c0,0.8-0.5,1.2-1.5,1.2
			S715.1,77.3,715.1,76.5z M715.2,78.9h2.7v10.2h-2.7V78.9z"/>
		<path id="XMLID_470_" class="st1" d="M720.1,88.5l5.2-7.7h-5.2v-1.9h8.5v0.6l-5,7.7h5v1.9h-8.5V88.5z"/>
		<path id="XMLID_467_" class="st1" d="M730,84c0-3.7,2.6-5.4,5.6-5.4c3.2,0,5.4,1.7,5.4,5.4c0,3.7-2.6,5.4-5.6,5.4
			C732.3,89.4,730,87.7,730,84z M738.3,84c0-2-0.9-3.4-2.8-3.4c-1.9,0-2.7,1.4-2.7,3.4c0,2,0.9,3.4,2.7,3.4
			C737.4,87.5,738.3,86.1,738.3,84z"/>
		<path id="XMLID_464_" class="st1" d="M743.2,78.9h2.5l0.2,0.9c0.3-0.5,1.2-1.2,2.9-1.2c2.8,0,4.7,1.4,4.7,5.1
			c0,3.7-2.3,5.7-5.1,5.7c-0.9,0-1.9-0.1-2.5-0.7v4h-2.7V78.9z M750.8,83.9c0-2-0.7-3.3-2.6-3.3c-1.2,0-1.9,0.4-2.3,0.9v5.3
			c0.5,0.6,1.3,0.8,2.2,0.8C750,87.5,750.8,85.9,750.8,83.9z"/>
		<path id="XMLID_462_" class="st1" d="M755.7,75.2h2.7v4.6c0.5-0.6,1.5-1.2,2.9-1.2c3,0,4.1,1.4,4.1,4.2v6.4h-2.7v-5.9
			c0-2-0.5-2.8-2.1-2.8c-1.2,0-2,0.6-2.3,1v7.7h-2.7V75.2z"/>
		<path id="XMLID_460_" class="st1" d="M768.2,78.9h2.3l0.2,1.4c0.1-1.1,1.1-1.7,2.2-1.7c0.6,0,1,0.2,1.2,0.3v2.2
			c-0.3-0.2-0.7-0.3-1.4-0.3c-1,0-1.6,0.4-1.9,1.1v7.3h-2.7V78.9z"/>
		<path id="XMLID_457_" class="st1" d="M775.1,84c0-3.7,2.7-5.4,5.3-5.4c2.6,0,5.1,1,5.1,4.8v1.4h-7.6c0.1,1.4,1.1,2.6,3.3,2.6
			c2,0,3.2-0.8,3.8-1.5v2.2c-0.6,0.6-1.8,1.3-4.1,1.3C777.4,89.4,775.1,87.7,775.1,84z M782.8,83.1L782.8,83.1
			c0-1.7-0.8-2.6-2.5-2.6c-1.5,0-2.4,1.3-2.5,2.6H782.8z"/>
		<path id="XMLID_455_" class="st1" d="M787.6,78.9h2.5l0.2,0.9c0.4-0.6,1.5-1.2,3-1.2c3,0,4.1,1.4,4.1,4.2v6.4h-2.7v-5.9
			c0-2-0.5-2.8-2.1-2.8c-1.3,0-2,0.6-2.3,1v7.6h-2.7V78.9z"/>
		<path id="XMLID_452_" class="st1" d="M800,76.5c0-0.8,0.5-1.2,1.5-1.2s1.5,0.4,1.5,1.2c0,0.8-0.5,1.2-1.5,1.2S800,77.3,800,76.5z
			 M800.1,78.9h2.7v10.2h-2.7V78.9z"/>
		<path id="XMLID_449_" class="st1" d="M805,86.5c0-2.1,1.8-2.9,4.9-3.4l1.7-0.2c0-1.8-1-2.3-2.6-2.3c-1.7,0-3.1,0.8-3.6,1.9v-2.4
			c0.4-0.6,1.6-1.4,4.1-1.4c3.1,0,4.8,1.4,4.8,4.3v6.2h-2.5l-0.2-0.9c-0.3,0.6-1.2,1.2-2.8,1.2C806.8,89.4,805,88.6,805,86.5z
			 M811.7,84.5l-1.5,0.3c-1.9,0.4-2.5,0.8-2.5,1.6c0,0.8,0.6,1.2,1.7,1.2c1.1,0,2-0.4,2.3-0.9V84.5z"/>
		<path id="XMLID_446_" class="st1" d="M0.6,106.7h2.5l0.2,0.9c0.3-0.5,1.2-1.2,2.9-1.2c2.8,0,4.7,1.4,4.7,5.1
			c0,3.7-2.3,5.7-5.1,5.7c-0.9,0-1.9-0.1-2.5-0.7v4H0.6V106.7z M8.1,111.7c0-2-0.7-3.3-2.6-3.3c-1.2,0-1.9,0.4-2.3,0.9v5.3
			c0.5,0.6,1.3,0.8,2.2,0.8C7.3,115.3,8.1,113.7,8.1,111.7z"/>
		<path id="XMLID_443_" class="st1" d="M12.5,114.3c0-2.1,1.8-2.9,4.9-3.4l1.7-0.2c0-1.8-1-2.3-2.6-2.3c-1.7,0-3.1,0.8-3.6,1.9v-2.4
			c0.4-0.6,1.6-1.4,4.1-1.4c3.1,0,4.8,1.4,4.8,4.3v6.2h-2.5l-0.2-0.9c-0.3,0.6-1.2,1.2-2.8,1.2C14.2,117.2,12.5,116.4,12.5,114.3z
			 M19.1,112.3l-1.5,0.3c-1.9,0.4-2.5,0.8-2.5,1.6c0,0.8,0.6,1.2,1.7,1.2c1.1,0,2-0.4,2.3-0.9V112.3z"/>
		<path id="XMLID_441_" class="st1" d="M25,114.2v-5.6h-1.4V108l1.1-1.3l2.1-2.4h0.9v2.4h2.8v1.9h-2.8v5.5c0,0.8,0.3,1.2,1,1.2
			c0.8,0,1.5-0.4,1.8-1v2.1c-0.3,0.4-1.1,0.9-2.4,0.9C25.9,117.2,25,116.2,25,114.2z"/>
		<path id="XMLID_438_" class="st1" d="M32.5,104.3c0-0.8,0.5-1.2,1.5-1.2c1,0,1.5,0.4,1.5,1.2c0,0.8-0.5,1.2-1.5,1.2
			C33,105.5,32.5,105.1,32.5,104.3z M32.6,106.7h2.7v10.2h-2.7V106.7z"/>
		<path id="XMLID_435_" class="st1" d="M37.5,111.8c0-3.7,2.7-5.4,5.3-5.4c2.6,0,5.1,1,5.1,4.8v1.4h-7.6c0.1,1.4,1.1,2.6,3.3,2.6
			c2,0,3.2-0.8,3.8-1.5v2.2c-0.6,0.6-1.8,1.3-4.1,1.3C39.8,117.2,37.5,115.5,37.5,111.8z M45.3,110.9L45.3,110.9
			c0-1.7-0.8-2.6-2.5-2.6c-1.5,0-2.4,1.3-2.5,2.6H45.3z"/>
		<path id="XMLID_433_" class="st1" d="M50.1,106.7h2.5l0.2,0.9c0.4-0.6,1.5-1.2,3-1.2c3,0,4.1,1.4,4.1,4.2v6.4h-2.7V111
			c0-2-0.5-2.8-2.1-2.8c-1.3,0-2,0.6-2.3,1v7.6h-2.7V106.7z"/>
		<path id="XMLID_431_" class="st1" d="M63,114.2v-5.6h-1.4V108l1.1-1.3l2.1-2.4h0.9v2.4h2.8v1.9h-2.8v5.5c0,0.8,0.3,1.2,1,1.2
			c0.8,0,1.5-0.4,1.8-1v2.1c-0.3,0.4-1.1,0.9-2.4,0.9C64,117.2,63,116.2,63,114.2z"/>
		<path id="XMLID_429_" class="st1" d="M70.3,116.3V114c0.7,0.7,1.7,1.3,3.3,1.3s2.1-0.6,2.1-1.2c0-0.7-0.3-0.9-1.7-1.2l-0.6-0.1
			c-2.1-0.4-3.3-1.3-3.3-3.2c0-1.8,1.5-3.3,4.4-3.3c1.5,0,2.7,0.4,3.3,0.9v2.3c-0.7-0.8-1.7-1.3-3.2-1.3c-1.5,0-2,0.5-2,1.1
			c0,0.6,0.3,1,1.7,1.2l0.6,0.1c2.2,0.4,3.5,1.1,3.5,3c0,1.7-1.5,3.4-4.7,3.4C72,117.2,70.9,116.8,70.3,116.3z"/>
		<path id="XMLID_426_" class="st1" d="M84.8,111.8c0-3.7,2.6-5.4,5.6-5.4c3.2,0,5.4,1.7,5.4,5.4c0,3.7-2.6,5.4-5.6,5.4
			C87.1,117.2,84.8,115.5,84.8,111.8z M93.1,111.8c0-2-0.9-3.4-2.8-3.4c-1.9,0-2.7,1.4-2.7,3.4c0,2,0.9,3.4,2.7,3.4
			C92.2,115.3,93.1,113.9,93.1,111.8z"/>
		<path id="XMLID_424_" class="st1" d="M96.6,106.7h2.9l2.2,5.6l0.4,1.1c0.1-0.4,0.3-0.8,0.4-1.1l2.3-5.6h2.6l-4.5,10.2H101
			L96.6,106.7z"/>
		<path id="XMLID_421_" class="st1" d="M108,111.8c0-3.7,2.7-5.4,5.3-5.4c2.6,0,5.1,1,5.1,4.8v1.4h-7.6c0.1,1.4,1.1,2.6,3.3,2.6
			c2,0,3.2-0.8,3.8-1.5v2.2c-0.6,0.6-1.8,1.3-4.1,1.3C110.3,117.2,108,115.5,108,111.8z M115.7,110.9L115.7,110.9
			c0-1.7-0.8-2.6-2.5-2.6c-1.5,0-2.4,1.3-2.5,2.6H115.7z"/>
		<path id="XMLID_419_" class="st1" d="M120.5,106.7h2.3l0.2,1.4c0.1-1.1,1.1-1.7,2.2-1.7c0.6,0,1,0.2,1.2,0.3v2.2
			c-0.3-0.2-0.7-0.3-1.4-0.3c-1,0-1.6,0.4-1.9,1.1v7.3h-2.7V106.7z"/>
		<path id="XMLID_416_" class="st1" d="M132.7,112.3c0-4.5,3.1-7.1,5.4-8h3.7v0.1c-2.5,1-4.6,2.3-5.6,4.4c0.5-0.3,1.3-0.5,2.2-0.5
			c3,0,4.6,1.7,4.6,4.3c0,2.6-2,4.6-5.2,4.6S132.7,115.2,132.7,112.3z M140.2,112.7c0-1.4-0.9-2.4-2.4-2.4c-1.2,0-1.9,0.4-2.3,0.9
			c-0.1,0.4-0.1,0.9-0.1,1.4c0,1.6,0.9,2.6,2.4,2.6S140.2,114.1,140.2,112.7z"/>
		<path id="XMLID_414_" class="st1" d="M148.9,106.7h2.7l1.7,6l2.5-6h1.1l2.6,6l1.7-6h2.5l-3.1,10.2h-1.6l-2.7-6.1l-2.7,6.1H152
			L148.9,106.7z"/>
		<path id="XMLID_411_" class="st1" d="M164.7,111.8c0-3.7,2.7-5.4,5.3-5.4c2.6,0,5.1,1,5.1,4.8v1.4h-7.6c0.1,1.4,1.1,2.6,3.3,2.6
			c2,0,3.2-0.8,3.8-1.5v2.2c-0.6,0.6-1.8,1.3-4.1,1.3C167,117.2,164.7,115.5,164.7,111.8z M172.5,110.9L172.5,110.9
			c0-1.7-0.8-2.6-2.5-2.6c-1.5,0-2.4,1.3-2.5,2.6H172.5z"/>
		<path id="XMLID_408_" class="st1" d="M176.6,111.8c0-3.7,2.7-5.4,5.3-5.4c2.6,0,5.1,1,5.1,4.8v1.4h-7.6c0.1,1.4,1.1,2.6,3.3,2.6
			c2,0,3.2-0.8,3.8-1.5v2.2c-0.6,0.6-1.8,1.3-4.1,1.3C179,117.2,176.6,115.5,176.6,111.8z M184.4,110.9L184.4,110.9
			c0-1.7-0.8-2.6-2.5-2.6c-1.5,0-2.4,1.3-2.5,2.6H184.4z"/>
		<path id="XMLID_406_" class="st1" d="M193.2,112.3c-0.8,0.6-1.3,0.9-1.3,0.9v3.7h-2.7v-14h2.7v7.8c0,0,2.6-1.8,4.4-4.1h2.7
			c-1,1.4-2.5,2.8-3.8,4l4.4,6.3h-3.2L193.2,112.3z"/>
		<path id="XMLID_404_" class="st1" d="M200.8,116.3V114c0.7,0.7,1.7,1.3,3.3,1.3s2.1-0.6,2.1-1.2c0-0.7-0.3-0.9-1.7-1.2l-0.6-0.1
			c-2.1-0.4-3.3-1.3-3.3-3.2c0-1.8,1.5-3.3,4.4-3.3c1.5,0,2.7,0.4,3.3,0.9v2.3c-0.7-0.8-1.7-1.3-3.2-1.3c-1.5,0-2,0.5-2,1.1
			c0,0.6,0.3,1,1.7,1.2l0.6,0.1c2.2,0.4,3.5,1.1,3.5,3c0,1.7-1.5,3.4-4.7,3.4C202.5,117.2,201.4,116.8,200.8,116.3z"/>
		<path id="XMLID_402_" class="st1" d="M210.5,115.7c0-0.9,0.7-1.5,1.7-1.5c1,0,1.7,0.6,1.7,1.5s-0.7,1.5-1.7,1.5
			C211.2,117.2,210.5,116.6,210.5,115.7z"/>
	</g>
</g>
<g id="XMLID_354_">
	<path id="XMLID_398_" class="st0" d="M88.9,86.1h8.5c1.3,0,1.9-0.3,1.9-0.9c0-0.7-0.4-0.8-1.3-0.9c-4.1-0.4-5.2-1.4-5.2-4.1
		c0-2.6,1.7-4.4,5.6-4.4c2.3,0,3.4,0.3,4.3,0.7v3.4c-1.2-0.5-2.6-0.8-4.1-0.8c-1.2,0-1.8,0.3-1.8,0.9c0,0.7,0.4,0.8,1.3,0.9
		c4.1,0.4,5.2,1.4,5.2,4.1c0,2.5-1.5,4.4-5.8,4.4h-7.9"/>
	<path id="XMLID_395_" class="st0" d="M107.9,83.9c-0.1,1.7,0.8,2.2,2.8,2.2c1.9,0,3.4-0.4,4.3-0.8v3.2c-1.5,0.6-3.3,0.9-4.8,0.9
		c-4.2,0-6.3-2.2-6.3-6.8c0-4.6,2-6.8,6-6.8c5.5,0,5.9,4.1,5.5,8.1H107.9z M107.9,81.4h3.6c0.2-1.4-0.1-2.5-1.6-2.5
		C108.5,78.9,107.9,79.8,107.9,81.4"/>
	<path id="XMLID_394_" class="st0" d="M119.1,76.2l0.5,0.9c1.4-0.9,3.1-1.3,4.5-1.3c3.5,0,4.5,1.8,4.5,4.3V89h-4.1v-8.3
		c0-0.9-0.3-1.6-1.4-1.6c-1,0-1.9,0.4-2.3,0.7V89h-4.1V76.2H119.1z"/>
	<path id="XMLID_391_" class="st0" d="M136.6,80c0-0.6-0.4-0.9-1.5-0.9c-1.6,0-3.5,0.5-4.6,1v-3.4c0.9-0.4,2.8-0.8,4.6-0.8
		c4.6,0,5.5,2,5.5,4.9V89h-2.5l-0.6-1c-0.9,0.8-2.2,1.3-3.8,1.3c-3.3,0-4.4-2.2-4.4-4.1c0-3.5,2.5-4,4.8-4.2l2.3-0.2V80z
		 M134.8,83.3c-1.2,0.2-1.6,0.7-1.6,1.7c0,0.9,0.6,1.5,1.5,1.5c0.7,0,1.4-0.2,1.8-0.6v-2.8L134.8,83.3z"/>
	<path id="XMLID_388_" class="st0" d="M144.4,76.2l0.7,1c0.9-0.8,2.1-1.4,4.2-1.4c3.3,0,5,2.1,5,6.8c0,4.7-1.6,6.8-5,6.8
		c-1.4,0-2.4-0.4-3.2-0.8v6.9h-4.1V76.2H144.4z M146,85.5c0,0,0.8,0.5,1.8,0.5c1.9,0,2.3-1.3,2.3-3.5c0-2.2-0.4-3.4-2.3-3.4
		c-1,0-1.8,0.5-1.8,0.5V85.5z"/>
	<path id="XMLID_387_" class="st0" d="M160.4,89.1c0,0-0.5,0.1-1.2,0.1c-2.2,0-4-1.1-4-3.6v-9.4h4.1V85c0,0.5,0.2,0.8,1.1,0.8V89.1z
		"/>
	<path id="XMLID_386_" class="st0" d="M163.9,76.2l0.5,0.9c1.4-0.9,3.1-1.3,4.5-1.3c3.5,0,4.5,1.8,4.5,4.3V89h-4.1v-8.3
		c0-0.9-0.3-1.6-1.4-1.6c-1,0-1.9,0.4-2.3,0.7V89h-4.1V76.2H163.9z"/>
	<path id="XMLID_383_" class="st0" d="M178.3,83.9c-0.1,1.7,0.8,2.2,2.8,2.2c1.9,0,3.4-0.4,4.3-0.8v3.2c-1.5,0.6-3.3,0.9-4.8,0.9
		c-4.2,0-6.3-2.2-6.3-6.8c0-4.6,2-6.8,6-6.8c5.5,0,5.9,4.1,5.5,8.1H178.3z M178.3,81.4h3.6c0.2-1.4-0.1-2.5-1.6-2.5
		C178.9,78.9,178.3,79.8,178.3,81.4"/>
	<polyline id="XMLID_382_" class="st0" points="84.6,85 85.4,81.8 87.8,81.8 86.2,74.5 84.6,81.8 83.8,85 82.9,89 78.5,89 
		83.8,69.6 88.6,69.6 93.9,89 89.5,89 88.6,85 	"/>
	<g id="XMLID_360_">
		<polygon id="XMLID_381_" class="st0" points="150.1,95.2 150.1,92.9 147.7,92.9 147.7,95.2 147.2,95.2 147.2,90.4 147.7,90.4 
			147.7,92.5 150.1,92.5 150.1,90.4 150.5,90.4 150.5,95.2 		"/>
		<path id="XMLID_378_" class="st0" d="M151.7,90.7c0.2,0,0.3,0.1,0.3,0.3c0,0.2-0.1,0.3-0.3,0.3c-0.2,0-0.3-0.1-0.3-0.3
			C151.4,90.8,151.6,90.7,151.7,90.7 M151.5,94.6V92h0.4v2.6c0,0.2,0.1,0.3,0.3,0.3v0.4C151.8,95.3,151.5,95.1,151.5,94.6"/>
		<polygon id="XMLID_377_" class="st0" points="154.1,93.3 155.7,95.2 155.1,95.2 153.8,93.6 153.4,94 153.4,95.2 153,95.2 
			153,90.4 153.4,90.4 153.4,93.4 154.9,92 155.5,92 		"/>
		<path id="XMLID_376_" class="st0" d="M160,92.9c0-0.4-0.2-0.5-0.6-0.5c-0.4,0-0.6,0.1-0.9,0.2c0,0.1,0,0.2,0,0.3v2.3h-0.5v-2.3
			c0-0.4-0.2-0.5-0.6-0.5c-0.4,0-0.6,0.1-0.8,0.2v2.7h-0.5V92h0.2l0.1,0.3c0.3-0.2,0.6-0.3,0.9-0.3c0.4,0,0.7,0.1,0.9,0.4
			c0.3-0.2,0.7-0.4,1-0.4c0.7,0,1.1,0.3,1.1,1v2.3H160V92.9z"/>
		<path id="XMLID_373_" class="st0" d="M162.4,92.3c-0.4,0-0.7,0.1-1,0.2v-0.4c0.3-0.1,0.7-0.2,1-0.2c1,0,1.2,0.4,1.2,1.1v2.2h-0.3
			l-0.1-0.3c-0.3,0.2-0.7,0.3-1,0.3c-0.8,0-1.1-0.5-1.1-1c0-0.5,0.3-1,1.2-1l0.9-0.1V93C163.2,92.5,163,92.3,162.4,92.3 M162.3,93.6
			c-0.5,0-0.7,0.3-0.7,0.7c0,0.3,0.1,0.6,0.7,0.6c0.3,0,0.6-0.1,0.9-0.3v-1.1L162.3,93.6z"/>
		<path id="XMLID_370_" class="st0" d="M166.1,95.2h-0.4v-4.8h1.5c1.2,0,1.6,0.7,1.6,1.4c0,0.8-0.4,1.5-1.6,1.5h-1V95.2z
			 M166.1,92.9h1.1c0.9,0,1.1-0.6,1.1-1c0-0.5-0.2-1-1.1-1h-1.1V92.9z"/>
		<path id="XMLID_369_" class="st0" d="M170.7,92.3c-0.4,0-0.6,0.1-0.9,0.2v2.7h-0.4v-4.8h0.4v1.8c0.3-0.2,0.6-0.3,0.9-0.3
			c0.8,0,1.1,0.3,1.1,1v2.3h-0.5v-2.3C171.3,92.5,171.1,92.3,170.7,92.3"/>
		<path id="XMLID_366_" class="st0" d="M173.7,92.3c-0.4,0-0.7,0.1-1,0.2v-0.4c0.3-0.1,0.7-0.2,1-0.2c1,0,1.2,0.4,1.2,1.1v2.2h-0.3
			l-0.1-0.3c-0.3,0.2-0.6,0.3-1,0.3c-0.8,0-1.1-0.5-1.1-1c0-0.5,0.3-1,1.1-1l0.9-0.1V93C174.5,92.5,174.3,92.3,173.7,92.3
			 M173.6,93.6c-0.5,0-0.7,0.3-0.7,0.7c0,0.3,0.1,0.6,0.7,0.6c0.3,0,0.6-0.1,0.9-0.3v-1.1L173.6,93.6z"/>
		<path id="XMLID_365_" class="st0" d="M177.5,92.4c-0.1,0-0.2-0.1-0.4-0.1c-0.4,0-0.7,0.1-0.9,0.2v2.7h-0.5V92h0.2l0.1,0.3
			c0.3-0.2,0.7-0.3,1-0.3c0.1,0,0.3,0,0.4,0V92.4z"/>
		<path id="XMLID_364_" class="st0" d="M181.9,92.9c0-0.4-0.2-0.5-0.6-0.5c-0.4,0-0.6,0.1-0.9,0.2c0,0.1,0,0.2,0,0.3v2.3H180v-2.3
			c0-0.4-0.2-0.5-0.6-0.5c-0.4,0-0.6,0.1-0.8,0.2v2.7h-0.5V92h0.3l0.1,0.3c0.3-0.2,0.6-0.3,0.9-0.3c0.4,0,0.7,0.1,0.9,0.4
			c0.3-0.2,0.7-0.4,1-0.4c0.7,0,1.1,0.3,1.1,1v2.3h-0.5V92.9z"/>
		<path id="XMLID_361_" class="st0" d="M184.3,92.3c-0.4,0-0.7,0.1-1,0.2v-0.4c0.3-0.1,0.7-0.2,1-0.2c1,0,1.2,0.4,1.2,1.1v2.2h-0.3
			l-0.1-0.3c-0.3,0.2-0.7,0.3-1,0.3c-0.8,0-1.1-0.5-1.1-1c0-0.5,0.3-1,1.1-1l0.9-0.1V93C185.1,92.5,184.9,92.3,184.3,92.3
			 M184.2,93.6c-0.5,0-0.7,0.3-0.7,0.7c0,0.3,0.1,0.6,0.7,0.6c0.4,0,0.6-0.1,0.9-0.3v-1.1L184.2,93.6z"/>
	</g>
	<g id="XMLID_355_">
		<path id="XMLID_359_" class="st0" d="M158.9,69c-0.6,0-1.1,0.1-1.5,0.4c0.2,0.1,0.4,0.2,0.5,0.4c1.1,0.2,1.9,1.2,1.9,2.4
			c0,1.2-0.8,2.1-1.9,2.4c-0.2,0.1-0.4,0.3-0.6,0.4c0.4,0.2,1,0.4,1.5,0.4c1.7,0,3.1-1.3,3.1-3.1C162,70.3,160.6,69,158.9,69z"/>
		<path id="XMLID_358_" class="st2" d="M154.9,72.1c0-1.2,0.8-2.1,1.9-2.4c0.2-0.1,0.4-0.3,0.5-0.4c-0.4-0.2-0.9-0.4-1.5-0.4
			c-1.8,0-3.1,1.4-3.1,3.1c0,1.8,1.3,3.1,3.1,3.1c0.5,0,1-0.1,1.5-0.4c-0.2-0.1-0.4-0.2-0.6-0.4C155.7,74.2,154.9,73.3,154.9,72.1z"
			/>
		<path id="XMLID_357_" class="st2" d="M157.4,74.5c-0.2,0-0.4,0-0.6-0.1c0.2,0.1,0.4,0.3,0.6,0.4c0.2-0.1,0.4-0.2,0.6-0.4
			C157.7,74.5,157.6,74.5,157.4,74.5z"/>
		<path id="XMLID_356_" class="st2" d="M157.4,69.6c0.2,0,0.4,0,0.5,0.1c-0.2-0.1-0.4-0.3-0.5-0.4c-0.2,0.1-0.4,0.2-0.5,0.4
			C157,69.7,157.2,69.6,157.4,69.6z"/>
	</g>
</g>
<g id="XMLID_1_">
	<g id="XMLID_47_">
		<g id="XMLID_49_">
			<path id="XMLID_199_" class="st0" d="M0,14.2C0,9,4.1,6.3,8.7,6.3c5.1,0,8.6,2.7,8.6,7.9s-4.1,7.9-8.7,7.9
				C3.5,22.1,0,19.4,0,14.2z M13,14.3c0-3.1-1.7-4.8-4.4-4.8c-2.7,0-4.4,1.7-4.4,4.7c0,3.1,1.7,4.9,4.4,4.9
				C11.3,18.9,13,17.2,13,14.3z"/>
			<path id="XMLID_196_" class="st0" d="M23.1,20.9l-0.5,0.9h-3.1V5.1h4v5.4c0.4-0.6,1.6-1.3,3.5-1.3c3.4,0,5.5,1.7,5.5,6.1
				c0,4.5-2.6,6.8-6.1,6.8C24.5,22.1,23.6,21.4,23.1,20.9z M23.5,18.5c0.5,0.6,1.3,0.8,2.2,0.8c1.9,0,2.7-1.7,2.7-3.8
				S27.8,12,25.8,12c-1.1,0-1.9,0.4-2.3,1V18.5z"/>
			<path id="XMLID_193_" class="st0" d="M31.6,25.6v-2.8c0.5,0.4,1.1,0.7,1.7,0.7c1,0,1.5-0.4,1.5-1.3V9.5h4V22
				c0,2.8-1.8,4.3-4.9,4.3C32.9,26.3,31.9,25.9,31.6,25.6z M34.7,6.6c0-1.1,0.8-1.7,2.1-1.7c1.3,0,2.1,0.6,2.1,1.7s-0.8,1.7-2.1,1.7
				C35.5,8.3,34.7,7.6,34.7,6.6z"/>
			<path id="XMLID_190_" class="st0" d="M41,15.6c0-4.5,3.3-6.5,6.7-6.5c3.3,0,6.3,1.3,6.3,5.9v1.6h-8.8c0.1,1.4,1.1,2.5,3.7,2.5
				c2.3,0,3.7-0.7,4.5-1.4v3c-0.7,0.6-2.3,1.4-5.1,1.4C43.7,22.1,41,20,41,15.6z M50.2,14.4v-0.1c0-1.5-0.7-2.3-2.4-2.3
				c-1.6,0-2.4,1.2-2.5,2.4H50.2z"/>
			<path id="XMLID_188_" class="st0" d="M55.5,15.6c0-4.4,3.2-6.5,6.8-6.5c2,0,3.5,0.5,4.1,1.1v3.3c-0.9-0.9-2-1.3-3.5-1.3
				c-2.1,0-3.3,1.3-3.3,3.4c0,2.2,1.2,3.4,3.3,3.4c1.5,0,2.7-0.5,3.6-1.3v3.1c-0.6,0.6-2.2,1.3-4.2,1.3
				C58.3,22.1,55.5,20.1,55.5,15.6z"/>
			<path id="XMLID_186_" class="st0" d="M69.5,18.2v-5.9h-1.6V11l1.3-1.5l2.4-2.9h1.9v2.9h3.2v2.8h-3.2v5.5c0,0.9,0.3,1.3,1.2,1.3
				c0.9,0,1.6-0.4,2-1v2.9c-0.5,0.5-1.4,1-3.1,1C70.6,22.1,69.5,20.6,69.5,18.2z"/>
			<path id="XMLID_183_" class="st0" d="M78.8,6.6c0-1.1,0.8-1.7,2.1-1.7c1.3,0,2.1,0.6,2.1,1.7s-0.8,1.7-2.1,1.7
				C79.6,8.3,78.8,7.6,78.8,6.6z M78.8,9.5h4v12.2h-4V9.5z"/>
			<path id="XMLID_181_" class="st0" d="M84.4,9.5h4.3l2.2,5.8l0.4,1.3c0.1-0.3,0.3-1,0.4-1.3l2.3-5.8h4l-5.5,12.2h-2.7L84.4,9.5z"
				/>
			<path id="XMLID_178_" class="st0" d="M98.4,15.6c0-4.5,3.3-6.5,6.7-6.5c3.3,0,6.3,1.3,6.3,5.9v1.6h-8.8c0.1,1.4,1.1,2.5,3.7,2.5
				c2.3,0,3.7-0.7,4.5-1.4v3c-0.7,0.6-2.3,1.4-5.1,1.4C101.1,22.1,98.4,20,98.4,15.6z M107.6,14.4v-0.1c0-1.5-0.7-2.3-2.4-2.3
				c-1.6,0-2.4,1.2-2.5,2.4H107.6z"/>
			<path id="XMLID_175_" class="st0" d="M113.4,11.9c0-1.2,1-2.2,2.4-2.2c1.3,0,2.3,0.9,2.3,2.2c0,1.2-1,2.1-2.3,2.1
				C114.4,14.1,113.4,13.2,113.4,11.9z M113.4,20c0-1.2,1-2.2,2.4-2.2c1.3,0,2.3,0.9,2.3,2.2c0,1.2-1,2.1-2.3,2.1
				C114.4,22.1,113.4,21.2,113.4,20z"/>
			<path id="XMLID_173_" class="st1" d="M128.8,11.2h-4.1V9.1h10.8v2.1h-4v10.5h-2.7V11.2z"/>
			<path id="XMLID_170_" class="st1" d="M135.5,16.6c0-3.7,2.6-5.4,5.6-5.4c3.2,0,5.4,1.7,5.4,5.4c0,3.7-2.6,5.4-5.6,5.4
				C137.8,22,135.5,20.3,135.5,16.6z M143.8,16.6c0-2-0.9-3.4-2.8-3.4c-1.9,0-2.7,1.4-2.7,3.4c0,2,0.9,3.4,2.7,3.4
				C142.9,20.1,143.8,18.6,143.8,16.6z"/>
			<path id="XMLID_167_" class="st1" d="M153.6,9.1c0-0.8,0.5-1.2,1.5-1.2c1,0,1.5,0.4,1.5,1.2c0,0.8-0.5,1.2-1.5,1.2
				C154.1,10.3,153.6,9.9,153.6,9.1z M153.7,11.5h2.7v10.2h-2.7V11.5z"/>
			<path id="XMLID_165_" class="st1" d="M159.2,11.5h2.5l0.2,0.9c0.4-0.6,1.5-1.2,3-1.2c3,0,4.1,1.4,4.1,4.2v6.4h-2.7v-5.9
				c0-2-0.5-2.8-2.1-2.8c-1.3,0-2,0.6-2.3,1v7.6h-2.7V11.5z"/>
			<path id="XMLID_163_" class="st1" d="M171.3,21.1v-2.3c0.7,0.7,1.7,1.3,3.3,1.3s2.1-0.6,2.1-1.2c0-0.7-0.3-0.9-1.7-1.2l-0.6-0.1
				c-2.1-0.4-3.3-1.3-3.3-3.2c0-1.8,1.5-3.3,4.4-3.3c1.5,0,2.7,0.4,3.3,0.9v2.3c-0.7-0.8-1.7-1.3-3.2-1.3c-1.5,0-2,0.5-2,1.1
				c0,0.6,0.3,1,1.7,1.2l0.6,0.1c2.2,0.4,3.5,1.1,3.5,3c0,1.7-1.5,3.4-4.7,3.4C173.1,22,171.9,21.6,171.3,21.1z"/>
			<path id="XMLID_161_" class="st1" d="M181.4,17.9v-6.4h2.7v5.9c0,2,0.4,2.8,2,2.8c1.3,0,1.9-0.6,2.2-1v-7.6h2.7v10.2h-2.5
				l-0.2-0.9c-0.4,0.6-1.5,1.2-2.9,1.2C182.5,22,181.4,20.6,181.4,17.9z"/>
			<path id="XMLID_159_" class="st1" d="M193.8,11.5h2.3l0.2,1.4c0.1-1.1,1.1-1.7,2.2-1.7c0.6,0,1,0.2,1.2,0.3v2.2
				c-0.3-0.2-0.7-0.3-1.4-0.3c-1,0-1.6,0.4-1.9,1.1v7.3h-2.7V11.5z"/>
			<path id="XMLID_156_" class="st1" d="M200.7,16.6c0-3.7,2.7-5.4,5.3-5.4c2.6,0,5.1,1,5.1,4.8v1.4h-7.6c0.1,1.4,1.1,2.6,3.3,2.6
				c2,0,3.2-0.8,3.8-1.5v2.2c-0.6,0.6-1.8,1.3-4.1,1.3C203,22,200.7,20.3,200.7,16.6z M208.5,15.7L208.5,15.7c0-1.7-0.8-2.6-2.5-2.6
				c-1.5,0-2.4,1.3-2.5,2.6H208.5z"/>
			<path id="XMLID_154_" class="st1" d="M218.4,9.1h9v2.1h-6.3v3h4.2v1.9h-4.2v3.5h6.3v2.1h-9V9.1z"/>
			<path id="XMLID_151_" class="st1" d="M230.2,13.3h-1.4v-0.6l1.3-1c-0.2-0.3-0.4-0.8-0.4-1.4c0-1.9,1.8-2.8,3.6-2.8
				c1.3,0,1.9,0.4,2.2,0.6v2.2c-0.4-0.6-1-0.9-1.8-0.9c-0.8,0-1.4,0.4-1.4,1.2c0,0.4,0.1,0.7,0.3,0.9h4c-0.1-0.3-0.2-0.7-0.2-1.2
				c0-1.9,1.8-2.8,3.6-2.8c1.3,0,1.9,0.4,2.2,0.6v2.2c-0.4-0.6-1-0.9-1.8-0.9c-0.8,0-1.4,0.4-1.4,1.2c0,0.4,0.1,0.7,0.3,0.9h6.8
				v10.2h-2.7v-8.4h-4.1v8.4H237v-8.4h-4.1v8.4h-2.7V13.3z M243.5,9.1c0-0.8,0.5-1.2,1.5-1.2c1,0,1.5,0.4,1.5,1.2
				c0,0.8-0.5,1.2-1.5,1.2C244,10.3,243.5,9.9,243.5,9.1z"/>
			<path id="XMLID_149_" class="st1" d="M248.6,16.6c0-3.7,2.6-5.4,5.6-5.4c1.6,0,2.8,0.5,3.3,0.9v2.4c-0.7-0.9-1.6-1.2-3.1-1.2
				c-1.9,0-3,1.3-3,3.4c0,2.1,1.1,3.4,3,3.4c1.4,0,2.4-0.5,3.1-1.3v2.2c-0.5,0.5-1.8,1.2-3.4,1.2C250.8,22,248.6,20.3,248.6,16.6z"
				/>
			<path id="XMLID_146_" class="st1" d="M259.1,19.1c0-2.1,1.8-2.9,4.9-3.4l1.7-0.2c0-1.8-1-2.3-2.6-2.3c-1.7,0-3.1,0.8-3.6,1.9
				v-2.4c0.4-0.6,1.6-1.4,4.1-1.4c3.1,0,4.8,1.4,4.8,4.3v6.2H266l-0.2-0.9c-0.3,0.6-1.2,1.2-2.8,1.2C260.9,22,259.1,21.1,259.1,19.1
				z M265.8,17.1l-1.5,0.3c-1.9,0.4-2.5,0.8-2.5,1.6c0,0.8,0.6,1.2,1.7,1.2c1.1,0,2-0.4,2.3-0.9V17.1z"/>
			<path id="XMLID_144_" class="st1" d="M270.5,16.6c0-3.7,2.6-5.4,5.6-5.4c1.6,0,2.8,0.5,3.3,0.9v2.4c-0.7-0.9-1.6-1.2-3.1-1.2
				c-1.9,0-3,1.3-3,3.4c0,2.1,1.1,3.4,3,3.4c1.4,0,2.4-0.5,3.1-1.3v2.2c-0.5,0.5-1.8,1.2-3.4,1.2C272.8,22,270.5,20.3,270.5,16.6z"
				/>
			<path id="XMLID_142_" class="st1" d="M280.8,25v-2c0.5,0.5,1.1,0.8,1.9,0.8c0.8,0,1.6-0.3,2.2-1.7l-4.6-10.5h2.9l2.9,7.4l2.2-7.4
				h2.7l-3.3,9.6c-0.9,2.5-2.1,4.5-5,4.5C281.9,25.6,281.2,25.3,280.8,25z"/>
			<path id="XMLID_139_" class="st1" d="M297,19.1c0-2.1,1.8-2.9,4.9-3.4l1.7-0.2c0-1.8-1-2.3-2.6-2.3c-1.7,0-3.1,0.8-3.6,1.9v-2.4
				c0.4-0.6,1.6-1.4,4.1-1.4c3.1,0,4.8,1.4,4.8,4.3v6.2h-2.5l-0.2-0.9c-0.3,0.6-1.2,1.2-2.8,1.2C298.8,22,297,21.1,297,19.1z
				 M303.7,17.1l-1.5,0.3c-1.9,0.4-2.5,0.8-2.5,1.6c0,0.8,0.6,1.2,1.7,1.2c1.1,0,2-0.4,2.3-0.9V17.1z"/>
			<path id="XMLID_137_" class="st1" d="M309.1,11.5h2.5l0.2,0.9c0.4-0.6,1.5-1.2,3-1.2c3,0,4.1,1.4,4.1,4.2v6.4h-2.7v-5.9
				c0-2-0.5-2.8-2.1-2.8c-1.3,0-2,0.6-2.3,1v7.6h-2.7V11.5z"/>
			<path id="XMLID_134_" class="st1" d="M321,16.8c0-3.7,2.1-5.6,5.1-5.6c0.9,0,1.9,0.1,2.5,0.7V7.8h2.7v14h-2.5l-0.2-0.9
				c-0.3,0.5-1.2,1.2-2.9,1.2C323.1,22,321,20.5,321,16.8z M328.6,13.8c-0.5-0.6-1.3-0.8-2.2-0.8c-1.9,0-2.6,1.6-2.6,3.7
				c0,2,0.7,3.3,2.5,3.3c1.2,0,2-0.4,2.3-0.9V13.8z"/>
			<path id="XMLID_132_" class="st1" d="M339.5,19v-5.6h-1.4v-0.6l1.1-1.3l2.1-2.4h0.9v2.4h2.8v1.9h-2.8v5.5c0,0.8,0.3,1.2,1,1.2
				c0.8,0,1.5-0.4,1.8-1v2.1c-0.3,0.4-1.1,0.9-2.4,0.9C340.5,22,339.5,20.9,339.5,19z"/>
			<path id="XMLID_129_" class="st1" d="M346.5,16.6c0-3.7,2.6-5.4,5.6-5.4c3.2,0,5.4,1.7,5.4,5.4c0,3.7-2.6,5.4-5.6,5.4
				C348.8,22,346.5,20.3,346.5,16.6z M354.8,16.6c0-2-0.9-3.4-2.8-3.4c-1.9,0-2.7,1.4-2.7,3.4c0,2,0.9,3.4,2.7,3.4
				C353.9,20.1,354.8,18.6,354.8,16.6z"/>
			<path id="XMLID_127_" class="st1" d="M359.7,19.4V7.8h2.7v11.4c0,0.7,0.2,0.9,0.8,0.9c0.5,0,0.9-0.2,1.1-0.5v1.9
				c-0.2,0.2-0.8,0.6-1.8,0.6C360.5,22,359.7,21.1,359.7,19.4z"/>
			<path id="XMLID_124_" class="st1" d="M365.4,16.6c0-3.7,2.7-5.4,5.3-5.4c2.6,0,5.1,1,5.1,4.8v1.4h-7.6c0.1,1.4,1.1,2.6,3.3,2.6
				c2,0,3.2-0.8,3.8-1.5v2.2c-0.6,0.6-1.8,1.3-4.1,1.3C367.7,22,365.4,20.3,365.4,16.6z M373.2,15.7L373.2,15.7
				c0-1.7-0.8-2.6-2.5-2.6c-1.5,0-2.4,1.3-2.5,2.6H373.2z"/>
			<path id="XMLID_122_" class="st1" d="M378,11.5h2.3l0.2,1.4c0.1-1.1,1.1-1.7,2.2-1.7c0.6,0,1,0.2,1.2,0.3v2.2
				c-0.3-0.2-0.7-0.3-1.4-0.3c-1,0-1.6,0.4-1.9,1.1v7.3H378V11.5z"/>
			<path id="XMLID_119_" class="st1" d="M385,19.1c0-2.1,1.8-2.9,4.9-3.4l1.7-0.2c0-1.8-1-2.3-2.6-2.3c-1.7,0-3.1,0.8-3.6,1.9v-2.4
				c0.4-0.6,1.6-1.4,4.1-1.4c3.1,0,4.8,1.4,4.8,4.3v6.2h-2.5l-0.2-0.9c-0.3,0.6-1.2,1.2-2.8,1.2C386.8,22,385,21.1,385,19.1z
				 M391.7,17.1l-1.5,0.3c-1.9,0.4-2.5,0.8-2.5,1.6c0,0.8,0.6,1.2,1.7,1.2c1.1,0,2-0.4,2.3-0.9V17.1z"/>
			<path id="XMLID_116_" class="st1" d="M399.5,21l-0.4,0.7h-2v-14h2.7v4.6c0.3-0.5,1.3-1.2,2.9-1.2c2.8,0,4.7,1.4,4.7,5.1
				c0,3.7-2.3,5.7-5.1,5.7C400.8,22,400,21.5,399.5,21z M399.8,19.3c0.5,0.6,1.4,0.8,2.2,0.8c1.9,0,2.7-1.6,2.7-3.7
				c0-2-0.7-3.3-2.6-3.3c-1.1,0-1.9,0.4-2.3,0.9V19.3z"/>
			<path id="XMLID_113_" class="st1" d="M409.5,9.1c0-0.8,0.5-1.2,1.5-1.2c1,0,1.5,0.4,1.5,1.2c0,0.8-0.5,1.2-1.5,1.2
				C409.9,10.3,409.5,9.9,409.5,9.1z M409.6,11.5h2.7v10.2h-2.7V11.5z"/>
			<path id="XMLID_111_" class="st1" d="M415,19.4V7.8h2.7v11.4c0,0.7,0.2,0.9,0.8,0.9c0.5,0,0.9-0.2,1.1-0.5v1.9
				c-0.2,0.2-0.8,0.6-1.8,0.6C415.9,22,415,21.1,415,19.4z"/>
			<path id="XMLID_108_" class="st1" d="M421.3,9.1c0-0.8,0.5-1.2,1.5-1.2c1,0,1.5,0.4,1.5,1.2c0,0.8-0.5,1.2-1.5,1.2
				C421.7,10.3,421.3,9.9,421.3,9.1z M421.4,11.5h2.7v10.2h-2.7V11.5z"/>
			<path id="XMLID_106_" class="st1" d="M427.4,19v-5.6H426v-0.6l1.1-1.3l2.1-2.4h0.9v2.4h2.8v1.9h-2.8v5.5c0,0.8,0.3,1.2,1,1.2
				c0.8,0,1.5-0.4,1.8-1v2.1c-0.3,0.4-1.1,0.9-2.4,0.9C428.3,22,427.4,20.9,427.4,19z"/>
			<path id="XMLID_104_" class="st1" d="M434.1,25v-2c0.5,0.5,1.1,0.8,1.9,0.8c0.8,0,1.6-0.3,2.2-1.7l-4.6-10.5h2.9l2.9,7.4l2.2-7.4
				h2.7l-3.3,9.6c-0.9,2.5-2.1,4.5-5,4.5C435.2,25.6,434.5,25.3,434.1,25z"/>
			<path id="XMLID_101_" class="st1" d="M450.3,16.6c0-3.7,2.6-5.4,5.6-5.4c3.2,0,5.4,1.7,5.4,5.4c0,3.7-2.6,5.4-5.6,5.4
				C452.6,22,450.3,20.3,450.3,16.6z M458.6,16.6c0-2-0.9-3.4-2.8-3.4c-1.9,0-2.7,1.4-2.7,3.4c0,2,0.9,3.4,2.7,3.4
				C457.7,20.1,458.6,18.6,458.6,16.6z"/>
			<path id="XMLID_99_" class="st1" d="M464,13.4h-1.4v-0.6l1.3-1c-0.2-0.3-0.4-0.8-0.4-1.4c0-1.9,1.8-2.8,3.8-2.8
				c1.4,0,2.2,0.4,2.5,0.6v2.2c-0.4-0.6-1.1-0.9-2-0.9c-1.1,0-1.6,0.4-1.6,1.2c0,0.4,0.1,0.7,0.3,0.9h2.3v1.9h-2.2v8.3H464V13.4z"/>
			<path id="XMLID_96_" class="st1" d="M595.3,9.1c0-0.8,0.5-1.2,1.5-1.2s1.5,0.4,1.5,1.2c0,0.8-0.5,1.2-1.5,1.2
				S595.3,9.9,595.3,9.1z M595.4,11.5h2.7v10.2h-2.7V11.5z"/>
			<path id="XMLID_94_" class="st1" d="M601,11.5h2.5l0.2,0.9c0.4-0.6,1.5-1.2,3-1.2c3,0,4.1,1.4,4.1,4.2v6.4H608v-5.9
				c0-2-0.5-2.8-2.1-2.8c-1.3,0-2,0.6-2.3,1v7.6H601V11.5z"/>
			<path id="XMLID_91_" class="st1" d="M617.8,19.1c0-2.1,1.8-2.9,4.9-3.4l1.7-0.2c0-1.8-1-2.3-2.6-2.3c-1.7,0-3.1,0.8-3.6,1.9v-2.4
				c0.4-0.6,1.6-1.4,4.1-1.4c3.1,0,4.8,1.4,4.8,4.3v6.2h-2.5l-0.2-0.9c-0.3,0.6-1.2,1.2-2.8,1.2C619.6,22,617.8,21.1,617.8,19.1z
				 M624.5,17.1l-1.5,0.3c-1.9,0.4-2.5,0.8-2.5,1.6c0,0.8,0.6,1.2,1.7,1.2c1.1,0,2-0.4,2.3-0.9V17.1z"/>
			<path id="XMLID_89_" class="st1" d="M629.2,16.6c0-3.7,2.6-5.4,5.6-5.4c1.6,0,2.8,0.5,3.3,0.9v2.4c-0.7-0.9-1.6-1.2-3.1-1.2
				c-1.9,0-3,1.3-3,3.4c0,2.1,1.1,3.4,3,3.4c1.4,0,2.4-0.5,3.1-1.3v2.2c-0.5,0.5-1.8,1.2-3.4,1.2C631.5,22,629.2,20.3,629.2,16.6z"
				/>
			<path id="XMLID_87_" class="st1" d="M640.3,17.9v-6.4h2.7v5.9c0,2,0.4,2.8,2,2.8c1.3,0,1.9-0.6,2.2-1v-7.6h2.7v10.2h-2.5
				l-0.2-0.9c-0.4,0.6-1.5,1.2-2.9,1.2C641.4,22,640.3,20.6,640.3,17.9z"/>
			<path id="XMLID_85_" class="st1" d="M653.2,19v-5.6h-1.4v-0.6l1.1-1.3L655,9h0.9v2.4h2.8v1.9h-2.8v5.5c0,0.8,0.3,1.2,1,1.2
				c0.8,0,1.5-0.4,1.8-1v2.1c-0.3,0.4-1.1,0.9-2.4,0.9C654.1,22,653.2,20.9,653.2,19z"/>
			<path id="XMLID_82_" class="st1" d="M660.2,16.6c0-3.7,2.7-5.4,5.3-5.4c2.6,0,5.1,1,5.1,4.8v1.4h-7.6c0.1,1.4,1.1,2.6,3.3,2.6
				c2,0,3.2-0.8,3.8-1.5v2.2c-0.6,0.6-1.8,1.3-4.1,1.3C662.5,22,660.2,20.3,660.2,16.6z M667.9,15.7L667.9,15.7
				c0-1.7-0.8-2.6-2.5-2.6c-1.5,0-2.4,1.3-2.5,2.6H667.9z"/>
			<path id="XMLID_80_" class="st1" d="M677.3,21.1v-2.3c0.7,0.7,1.7,1.3,3.3,1.3s2.1-0.6,2.1-1.2c0-0.7-0.3-0.9-1.7-1.2l-0.6-0.1
				c-2.1-0.4-3.3-1.3-3.3-3.2c0-1.8,1.5-3.3,4.4-3.3c1.5,0,2.7,0.4,3.3,0.9v2.3c-0.7-0.8-1.7-1.3-3.2-1.3c-1.5,0-2,0.5-2,1.1
				c0,0.6,0.3,1,1.7,1.2l0.6,0.1c2.2,0.4,3.5,1.1,3.5,3c0,1.7-1.5,3.4-4.7,3.4C679.1,22,677.9,21.6,677.3,21.1z"/>
			<path id="XMLID_78_" class="st1" d="M686.9,16.6c0-3.7,2.6-5.4,5.6-5.4c1.6,0,2.8,0.5,3.3,0.9v2.4c-0.7-0.9-1.6-1.2-3.1-1.2
				c-1.9,0-3,1.3-3,3.4c0,2.1,1.1,3.4,3,3.4c1.4,0,2.4-0.5,3.1-1.3v2.2c-0.5,0.5-1.8,1.2-3.4,1.2C689.1,22,686.9,20.3,686.9,16.6z"
				/>
			<path id="XMLID_76_" class="st1" d="M698.1,7.8h2.7v4.6c0.5-0.6,1.5-1.2,2.9-1.2c3,0,4.1,1.4,4.1,4.2v6.4h-2.7v-5.9
				c0-2-0.5-2.8-2.1-2.8c-1.2,0-2,0.6-2.3,1v7.7h-2.7V7.8z"/>
			<path id="XMLID_73_" class="st1" d="M710.4,9.1c0-0.8,0.5-1.2,1.5-1.2s1.5,0.4,1.5,1.2c0,0.8-0.5,1.2-1.5,1.2
				S710.4,9.9,710.4,9.1z M710.5,11.5h2.7v10.2h-2.7V11.5z"/>
			<path id="XMLID_71_" class="st1" d="M715.4,21.1l5.2-7.7h-5.2v-1.9h8.5v0.6l-5,7.7h5v1.9h-8.5V21.1z"/>
			<path id="XMLID_68_" class="st1" d="M725.3,16.6c0-3.7,2.6-5.4,5.6-5.4c3.2,0,5.4,1.7,5.4,5.4c0,3.7-2.6,5.4-5.6,5.4
				C727.6,22,725.3,20.3,725.3,16.6z M733.6,16.6c0-2-0.9-3.4-2.8-3.4c-1.9,0-2.7,1.4-2.7,3.4c0,2,0.9,3.4,2.7,3.4
				C732.7,20.1,733.6,18.6,733.6,16.6z"/>
			<path id="XMLID_65_" class="st1" d="M738.5,11.5h2.5l0.2,0.9c0.3-0.5,1.2-1.2,2.9-1.2c2.8,0,4.7,1.4,4.7,5.1
				c0,3.7-2.3,5.7-5.1,5.7c-0.9,0-1.9-0.1-2.5-0.7v4h-2.7V11.5z M746.1,16.5c0-2-0.7-3.3-2.6-3.3c-1.2,0-1.9,0.4-2.3,0.9v5.3
				c0.5,0.6,1.3,0.8,2.2,0.8C745.3,20.1,746.1,18.5,746.1,16.5z"/>
			<path id="XMLID_63_" class="st1" d="M751,7.8h2.7v4.6c0.5-0.6,1.5-1.2,2.9-1.2c3,0,4.1,1.4,4.1,4.2v6.4h-2.7v-5.9
				c0-2-0.5-2.8-2.1-2.8c-1.2,0-2,0.6-2.3,1v7.7H751V7.8z"/>
			<path id="XMLID_61_" class="st1" d="M763.5,11.5h2.3l0.2,1.4c0.1-1.1,1.1-1.7,2.2-1.7c0.6,0,1,0.2,1.2,0.3v2.2
				c-0.3-0.2-0.7-0.3-1.4-0.3c-1,0-1.6,0.4-1.9,1.1v7.3h-2.7V11.5z"/>
			<path id="XMLID_58_" class="st1" d="M770.4,16.6c0-3.7,2.7-5.4,5.3-5.4c2.6,0,5.1,1,5.1,4.8v1.4h-7.6c0.1,1.4,1.1,2.6,3.3,2.6
				c2,0,3.2-0.8,3.8-1.5v2.2c-0.6,0.6-1.8,1.3-4.1,1.3C772.7,22,770.4,20.3,770.4,16.6z M778.1,15.7L778.1,15.7
				c0-1.7-0.8-2.6-2.5-2.6c-1.5,0-2.4,1.3-2.5,2.6H778.1z"/>
			<path id="XMLID_56_" class="st1" d="M782.9,11.5h2.5l0.2,0.9c0.4-0.6,1.5-1.2,3-1.2c3,0,4.1,1.4,4.1,4.2v6.4H790v-5.9
				c0-2-0.5-2.8-2.1-2.8c-1.3,0-2,0.6-2.3,1v7.6h-2.7V11.5z"/>
			<path id="XMLID_53_" class="st1" d="M795.3,9.1c0-0.8,0.5-1.2,1.5-1.2s1.5,0.4,1.5,1.2c0,0.8-0.5,1.2-1.5,1.2
				S795.3,9.9,795.3,9.1z M795.4,11.5h2.7v10.2h-2.7V11.5z"/>
			<path id="XMLID_50_" class="st1" d="M800.3,19.1c0-2.1,1.8-2.9,4.9-3.4l1.7-0.2c0-1.8-1-2.3-2.6-2.3c-1.7,0-3.1,0.8-3.6,1.9v-2.4
				c0.4-0.6,1.6-1.4,4.1-1.4c3.1,0,4.8,1.4,4.8,4.3v6.2h-2.5l-0.2-0.9c-0.3,0.6-1.2,1.2-2.8,1.2C802.1,22,800.3,21.1,800.3,19.1z
				 M807,17.1l-1.5,0.3c-1.9,0.4-2.5,0.8-2.5,1.6c0,0.8,0.6,1.2,1.7,1.2c1.1,0,2-0.4,2.3-0.9V17.1z"/>
		</g>
	</g>
	<g id="XMLID_2_">
		<path id="XMLID_46_" class="st0" d="M488.7,17.1h8.5c1.3,0,1.9-0.3,1.9-0.9c0-0.7-0.4-0.8-1.3-0.9c-4.1-0.4-5.2-1.4-5.2-4.1
			c0-2.6,1.7-4.4,5.6-4.4c2.3,0,3.4,0.3,4.3,0.7V11c-1.2-0.5-2.6-0.8-4.1-0.8c-1.2,0-1.8,0.3-1.8,0.9c0,0.7,0.4,0.8,1.3,0.9
			c4.1,0.4,5.2,1.4,5.2,4.1c0,2.5-1.5,4.4-5.8,4.4h-7.9"/>
		<path id="XMLID_43_" class="st0" d="M507.8,15c-0.1,1.7,0.8,2.2,2.8,2.2c1.9,0,3.4-0.4,4.3-0.8v3.2c-1.5,0.6-3.3,0.9-4.8,0.9
			c-4.2,0-6.3-2.2-6.3-6.8c0-4.6,2-6.8,6-6.8c5.5,0,5.9,4.1,5.5,8.1H507.8z M507.8,12.5h3.6c0.2-1.4-0.1-2.5-1.6-2.5
			C508.4,9.9,507.8,10.8,507.8,12.5"/>
		<path id="XMLID_42_" class="st0" d="M519,7.2l0.5,0.9c1.4-0.9,3.1-1.3,4.5-1.3c3.5,0,4.5,1.8,4.5,4.3V20h-4.1v-8.3
			c0-0.9-0.3-1.6-1.4-1.6c-1,0-1.9,0.4-2.3,0.7V20h-4.1V7.2H519z"/>
		<path id="XMLID_39_" class="st0" d="M536.4,11.1c0-0.6-0.4-0.9-1.5-0.9c-1.6,0-3.5,0.5-4.6,1V7.7c0.9-0.4,2.8-0.8,4.6-0.8
			c4.6,0,5.5,2,5.5,4.9V20h-2.5l-0.6-1c-0.9,0.8-2.2,1.3-3.8,1.3c-3.3,0-4.4-2.2-4.4-4.1c0-3.5,2.5-4,4.8-4.2l2.3-0.2V11.1z
			 M534.7,14.3c-1.2,0.2-1.6,0.7-1.6,1.7c0,0.9,0.6,1.5,1.5,1.5c0.7,0,1.4-0.2,1.8-0.6v-2.8L534.7,14.3z"/>
		<path id="XMLID_36_" class="st0" d="M544.2,7.2l0.7,1c0.9-0.8,2.1-1.4,4.2-1.4c3.3,0,5,2.1,5,6.8c0,4.7-1.6,6.8-5,6.8
			c-1.4,0-2.4-0.4-3.2-0.8v6.9h-4.1V7.2H544.2z M545.9,16.5c0,0,0.8,0.5,1.8,0.5c1.9,0,2.3-1.3,2.3-3.5c0-2.2-0.4-3.4-2.3-3.4
			c-1,0-1.8,0.5-1.8,0.5V16.5z"/>
		<path id="XMLID_35_" class="st0" d="M560.3,20.1c0,0-0.5,0.1-1.2,0.1c-2.2,0-4-1.1-4-3.6V7.2h4.1v8.9c0,0.5,0.2,0.8,1.1,0.8V20.1z
			"/>
		<path id="XMLID_34_" class="st0" d="M563.8,7.2l0.5,0.9c1.4-0.9,3.1-1.3,4.5-1.3c3.5,0,4.5,1.8,4.5,4.3V20h-4.1v-8.3
			c0-0.9-0.3-1.6-1.4-1.6c-1,0-1.9,0.4-2.3,0.7V20h-4.1V7.2H563.8z"/>
		<path id="XMLID_31_" class="st0" d="M578.1,15c-0.1,1.7,0.8,2.2,2.8,2.2c1.9,0,3.4-0.4,4.3-0.8v3.2c-1.5,0.6-3.3,0.9-4.8,0.9
			c-4.2,0-6.3-2.2-6.3-6.8c0-4.6,2-6.8,6-6.8c5.5,0,5.9,4.1,5.5,8.1H578.1z M578.1,12.5h3.6c0.2-1.4-0.1-2.5-1.6-2.5
			C578.8,9.9,578.1,10.8,578.1,12.5"/>
		<polyline id="XMLID_30_" class="st0" points="484.4,16.1 485.2,12.8 487.7,12.8 486.1,5.5 484.4,12.8 483.6,16.1 482.7,20 
			478.4,20 483.7,0.7 488.4,0.7 493.8,20 489.4,20 488.5,16.1 		"/>
		<g id="XMLID_8_">
			<polygon id="XMLID_29_" class="st0" points="549.9,26.3 549.9,23.9 547.5,23.9 547.5,26.3 547.1,26.3 547.1,21.4 547.5,21.4 
				547.5,23.5 549.9,23.5 549.9,21.4 550.4,21.4 550.4,26.3 			"/>
			<path id="XMLID_26_" class="st0" d="M551.6,21.7c0.2,0,0.3,0.1,0.3,0.3c0,0.2-0.1,0.3-0.3,0.3c-0.2,0-0.3-0.1-0.3-0.3
				C551.3,21.9,551.4,21.7,551.6,21.7 M551.4,25.6V23h0.4v2.6c0,0.2,0.1,0.3,0.3,0.3v0.4C551.6,26.3,551.4,26.1,551.4,25.6"/>
			<polygon id="XMLID_25_" class="st0" points="554,24.4 555.5,26.3 555,26.3 553.7,24.6 553.3,25 553.3,26.3 552.8,26.3 
				552.8,21.4 553.3,21.4 553.3,24.5 554.7,23 555.3,23 			"/>
			<path id="XMLID_24_" class="st0" d="M559.9,23.9c0-0.4-0.2-0.5-0.6-0.5c-0.4,0-0.6,0.1-0.9,0.2c0,0.1,0,0.2,0,0.3v2.3H558v-2.3
				c0-0.4-0.2-0.5-0.6-0.5c-0.4,0-0.6,0.1-0.8,0.2v2.7h-0.5V23h0.3l0.1,0.3c0.3-0.2,0.6-0.3,0.9-0.3c0.4,0,0.7,0.1,0.9,0.4
				c0.3-0.2,0.7-0.4,1-0.4c0.7,0,1.1,0.3,1.1,1v2.3h-0.5V23.9z"/>
			<path id="XMLID_21_" class="st0" d="M562.3,23.4c-0.4,0-0.7,0.1-1,0.2v-0.4c0.3-0.1,0.7-0.2,1-0.2c1,0,1.2,0.4,1.2,1.1v2.2h-0.3
				l-0.1-0.3c-0.3,0.2-0.7,0.3-1,0.3c-0.8,0-1.1-0.5-1.1-1c0-0.5,0.3-1,1.2-1l0.9-0.1V24C563,23.6,562.9,23.4,562.3,23.4
				 M562.1,24.6c-0.5,0-0.7,0.3-0.7,0.7c0,0.3,0.1,0.6,0.7,0.6c0.3,0,0.6-0.1,0.9-0.3v-1.1L562.1,24.6z"/>
			<path id="XMLID_18_" class="st0" d="M565.9,26.3h-0.4v-4.8h1.5c1.2,0,1.6,0.7,1.6,1.4c0,0.8-0.4,1.5-1.6,1.5h-1V26.3z
				 M565.9,23.9h1.1c0.9,0,1.1-0.6,1.1-1c0-0.5-0.2-1-1.1-1h-1.1V23.9z"/>
			<path id="XMLID_17_" class="st0" d="M570.5,23.4c-0.4,0-0.6,0.1-0.9,0.2v2.7h-0.4v-4.8h0.4v1.8c0.3-0.2,0.6-0.3,0.9-0.3
				c0.8,0,1.1,0.3,1.1,1v2.3h-0.5v-2.3C571.2,23.5,570.9,23.4,570.5,23.4"/>
			<path id="XMLID_14_" class="st0" d="M573.6,23.4c-0.4,0-0.7,0.1-1,0.2v-0.4c0.3-0.1,0.7-0.2,1-0.2c1,0,1.2,0.4,1.2,1.1v2.2h-0.3
				l-0.1-0.3c-0.3,0.2-0.6,0.3-1,0.3c-0.8,0-1.1-0.5-1.1-1c0-0.5,0.3-1,1.1-1l0.9-0.1V24C574.3,23.6,574.2,23.4,573.6,23.4
				 M573.5,24.6c-0.5,0-0.7,0.3-0.7,0.7c0,0.3,0.1,0.6,0.7,0.6c0.3,0,0.6-0.1,0.9-0.3v-1.1L573.5,24.6z"/>
			<path id="XMLID_13_" class="st0" d="M577.4,23.4c-0.1,0-0.2-0.1-0.4-0.1c-0.4,0-0.7,0.1-0.9,0.2v2.7h-0.5V23h0.2l0.1,0.3
				c0.3-0.2,0.7-0.3,1-0.3c0.1,0,0.3,0,0.4,0V23.4z"/>
			<path id="XMLID_12_" class="st0" d="M581.8,23.9c0-0.4-0.2-0.5-0.6-0.5c-0.4,0-0.6,0.1-0.9,0.2c0,0.1,0,0.2,0,0.3v2.3h-0.5v-2.3
				c0-0.4-0.2-0.5-0.6-0.5c-0.4,0-0.6,0.1-0.8,0.2v2.7H578V23h0.3l0.1,0.3c0.3-0.2,0.6-0.3,0.9-0.3c0.4,0,0.7,0.1,0.9,0.4
				c0.3-0.2,0.7-0.4,1-0.4c0.7,0,1.1,0.3,1.1,1v2.3h-0.5V23.9z"/>
			<path id="XMLID_9_" class="st0" d="M584.2,23.4c-0.4,0-0.7,0.1-1,0.2v-0.4c0.3-0.1,0.7-0.2,1-0.2c1,0,1.2,0.4,1.2,1.1v2.2h-0.3
				L585,26c-0.3,0.2-0.7,0.3-1,0.3c-0.8,0-1.1-0.5-1.1-1c0-0.5,0.3-1,1.1-1l0.9-0.1V24C584.9,23.6,584.8,23.4,584.2,23.4
				 M584.1,24.6c-0.5,0-0.7,0.3-0.7,0.7c0,0.3,0.1,0.6,0.7,0.6c0.4,0,0.6-0.1,0.9-0.3v-1.1L584.1,24.6z"/>
		</g>
		<g id="XMLID_3_">
			<path id="XMLID_7_" class="st0" d="M558.7,0c-0.6,0-1.1,0.1-1.5,0.4c0.2,0.1,0.4,0.2,0.5,0.4c1.1,0.2,1.9,1.2,1.9,2.4
				c0,1.2-0.8,2.1-1.9,2.4c-0.2,0.1-0.4,0.3-0.6,0.4c0.4,0.2,1,0.4,1.5,0.4c1.7,0,3.1-1.3,3.1-3.1C561.9,1.4,560.5,0,558.7,0z"/>
			<path id="XMLID_6_" class="st2" d="M554.8,3.1c0-1.2,0.8-2.1,1.9-2.4c0.2-0.1,0.4-0.3,0.5-0.4c-0.4-0.2-0.9-0.4-1.5-0.4
				c-1.8,0-3.1,1.4-3.1,3.1c0,1.8,1.3,3.1,3.1,3.1c0.5,0,1-0.1,1.5-0.4c-0.2-0.1-0.4-0.2-0.6-0.4C555.6,5.2,554.8,4.3,554.8,3.1z"/>
			<path id="XMLID_5_" class="st2" d="M557.2,5.6c-0.2,0-0.4,0-0.6-0.1c0.2,0.1,0.4,0.3,0.6,0.4c0.2-0.1,0.4-0.2,0.6-0.4
				C557.6,5.5,557.4,5.6,557.2,5.6z"/>
			<path id="XMLID_4_" class="st2" d="M557.2,0.7c0.2,0,0.4,0,0.5,0.1c-0.2-0.1-0.4-0.3-0.5-0.4c-0.2,0.1-0.4,0.2-0.5,0.4
				C556.9,0.7,557,0.7,557.2,0.7z"/>
		</g>
	</g>
</g>
</svg>
