<!-- Generator: Adobe Illustrator 22.1.0, SVG Export Plug-In  -->
<svg version="1.1"
	 xmlns="http://www.w3.org/2000/svg" xmlns:xlink="http://www.w3.org/1999/xlink" xmlns:a="http://ns.adobe.com/AdobeSVGViewerExtensions/3.0/"
	 x="0px" y="0px" width="405.2px" height="287px" viewBox="0 0 405.2 287" style="enable-background:new 0 0 405.2 287;"
	 xml:space="preserve">
<style type="text/css">
	.st0{fill:none;stroke:#EE2A7B;stroke-width:1.1107;stroke-miterlimit:10;stroke-dasharray:3.5037,3.5037;}
	.st1{fill:url(#XMLID_419_);}
	.st2{fill:#FFFFFF;stroke:#8B3C95;stroke-width:1.4747;stroke-miterlimit:10;}
	.st3{fill:none;stroke:#8B3C95;stroke-width:0.25;stroke-miterlimit:10;}
	.st4{fill:none;stroke:#8B3C95;stroke-width:0.714;stroke-miterlimit:10;}
	.st5{fill:none;stroke:#000000;stroke-width:0.6041;stroke-miterlimit:10;}
	.st6{fill:#808184;}
	.st7{fill:#490E67;}
	.st8{fill:#DB5D27;}
	.st9{fill:#0C3B60;}
	.st10{font-family:'Altis-Medium';}
	.st11{font-size:13.0255px;}
	.st12{fill:#FFFFFF;}
	.st13{fill:#231F20;}
	.st14{fill:none;stroke:#0C3B60;stroke-width:1.2214;stroke-miterlimit:10;}
	.st15{fill:#C29FD8;}
	.st16{fill:url(#XMLID_420_);}
</style>
<defs>
</defs>
<path id="XMLID_418_" class="st0" d="M282.9,99.8"/>
<linearGradient id="XMLID_419_" gradientUnits="userSpaceOnUse" x1="0.7373" y1="140.3133" x2="404.4622" y2="140.3133">
	<stop  offset="0" style="stop-color:#C3A0CB"/>
	<stop  offset="1" style="stop-color:#4A2365"/>
</linearGradient>
<path id="XMLID_417_" class="st1" d="M404.5,12.9c0-7.1-5-12.9-11.2-12.9H11.9C5.8,0,0.7,5.8,0.7,12.9v254.8c0,7.1,5,12.9,11.2,12.9
	h381.3c6.2,0,11.2-5.8,11.2-12.9V12.9z"/>
<path id="XMLID_416_" class="st2" d="M0.7,271.9c0,7.9,6.1,14.4,13.6,14.4h376.6c7.5,0,13.5-6.4,13.5-14.4V59.6
	c0-7.9-6.1-14.4-13.5-14.4H14.3c-7.5,0-13.6,6.4-13.6,14.4V271.9z"/>
<g id="XMLID_413_">
	<line id="XMLID_415_" class="st3" x1="31.7" y1="281.5" x2="31.7" y2="78.6"/>
	<line id="XMLID_414_" class="st3" x1="27.9" y1="78.6" x2="344.5" y2="78.6"/>
</g>
<line id="XMLID_412_" class="st4" x1="115.5" y1="73.2" x2="115.5" y2="78.5"/>
<line id="XMLID_411_" class="st4" x1="31.6" y1="117" x2="27.3" y2="117"/>
<line id="XMLID_410_" class="st4" x1="31.6" y1="147.1" x2="27.3" y2="147.1"/>
<line id="XMLID_409_" class="st4" x1="31.6" y1="177.2" x2="27.3" y2="177.2"/>
<line id="XMLID_408_" class="st4" x1="31.6" y1="207.3" x2="27.3" y2="207.3"/>
<line id="XMLID_407_" class="st4" x1="31.6" y1="237.4" x2="27.3" y2="237.4"/>
<line id="XMLID_406_" class="st4" x1="31.6" y1="267.5" x2="27.3" y2="267.5"/>
<line id="XMLID_405_" class="st4" x1="219.8" y1="73.2" x2="219.8" y2="78.5"/>
<line id="XMLID_404_" class="st5" x1="324" y1="78.6" x2="324" y2="83.8"/>
<line id="XMLID_403_" class="st4" x1="324.7" y1="73.2" x2="324.7" y2="78.5"/>
<rect id="XMLID_402_" x="60.5" y="79.2" class="st6" width="36.7" height="105"/>
<rect id="XMLID_401_" x="141.7" y="78.6" class="st7" width="41.1" height="134.1"/>
<rect id="XMLID_400_" x="255.7" y="79.4" class="st8" width="41.1" height="132.6"/>
<g id="XMLID_398_">
	<text transform="matrix(0.9149 0 0 1 66.4588 199.1581)" class="st9 st10 st11">-16.2</text>
</g>
<g id="XMLID_386_">
	<path id="XMLID_396_" class="st12" d="M65.4,117.9H67l0.1,0.6c0.3-0.4,0.8-0.8,1.6-0.8c1.6,0,2.2,0.9,2.2,2.7v4.2h-1.8v-3.8
		c0-1.1-0.3-1.5-0.9-1.5c-0.5,0-0.9,0.3-1,0.5v4.8h-1.8V117.9z"/>
	<path id="XMLID_393_" class="st12" d="M72.2,118.1h5v1.6h-5V118.1z M72.2,120.8h5v1.6h-5V120.8z"/>
	<path id="XMLID_390_" class="st12" d="M78.2,121.5c0-2.8,1.5-4.5,2.8-5.2h2.4v0.1c-1.1,0.6-2.2,1.4-2.8,2.7c0.3-0.2,0.6-0.3,1-0.3
		c1.5,0,2.4,1,2.4,2.8c0,1.8-1.2,3.1-2.9,3.1C79.2,124.8,78.2,123.6,78.2,121.5z M82.1,121.8c0-0.8-0.4-1.3-1-1.3
		c-0.5,0-0.8,0.2-1,0.5c0,0.3,0,0.5,0,0.8c0,0.9,0.4,1.4,1,1.4C81.7,123.1,82.1,122.6,82.1,121.8z"/>
	<path id="XMLID_387_" class="st12" d="M84.6,120.5c0-2.8,1.8-4.3,3.9-4.3c2.4,0,3.9,1.5,3.9,4.3c0,2.8-1.8,4.4-3.9,4.4
		C86.1,124.8,84.6,123.3,84.6,120.5z M90.5,120.5c0-1.7-0.8-2.6-2-2.6s-2,0.9-2,2.6c0,1.7,0.8,2.6,2,2.6S90.5,122.2,90.5,120.5z"/>
</g>
<g id="XMLID_375_">
	<path id="XMLID_384_" class="st12" d="M148.1,114.2h1.8l0.1,0.7c0.3-0.5,0.9-0.9,1.8-0.9c1.8,0,2.5,1,2.5,3.1v4.7h-2v-4.3
		c0-1.2-0.3-1.7-1.1-1.7c-0.6,0-1,0.3-1.1,0.6v5.4h-2V114.2z"/>
	<path id="XMLID_381_" class="st12" d="M155.7,114.4h5.6v1.8h-5.6V114.4z M155.7,117.4h5.6v1.8h-5.6V117.4z"/>
	<path id="XMLID_378_" class="st12" d="M162.4,118.2c0-3.1,1.7-5,3.1-5.8h2.7v0.1c-1.3,0.6-2.4,1.5-3.1,3c0.3-0.2,0.7-0.3,1.1-0.3
		c1.6,0,2.7,1.1,2.7,3.2c0,2-1.3,3.5-3.3,3.5C163.6,121.9,162.4,120.5,162.4,118.2z M166.8,118.5c0-0.9-0.4-1.5-1.2-1.5
		c-0.6,0-0.9,0.2-1.1,0.5c0,0.3,0,0.6,0,0.9c0,1,0.4,1.6,1.2,1.6C166.4,120,166.8,119.4,166.8,118.5z"/>
	<path id="XMLID_376_" class="st12" d="M172.7,114.3h-3.4v-1.9h5.8v0.4l-2.8,8.8h-2.1L172.7,114.3z"/>
</g>
<g id="XMLID_365_">
	<path id="XMLID_373_" class="st12" d="M260.8,116.2h1.8l0.1,0.7c0.3-0.5,0.9-0.9,1.8-0.9c1.8,0,2.5,1,2.5,3.1v4.7h-2v-4.3
		c0-1.2-0.3-1.7-1.1-1.7c-0.6,0-1,0.3-1.1,0.6v5.4h-2V116.2z"/>
	<path id="XMLID_370_" class="st12" d="M268.4,116.4h5.6v1.8h-5.6V116.4z M268.4,119.5h5.6v1.8h-5.6V119.5z"/>
	<path id="XMLID_368_" class="st12" d="M275.3,123.5v-2.1c0.3,0.4,0.9,0.7,1.7,0.7c1.3,0,1.7-0.5,1.7-1.3c0-0.7-0.4-1.1-1.5-1.1
		h-0.6v-0.4l1.6-2.9h-3v-1.9h5.5v0.4l-1.8,3.2c1,0.2,2,0.8,2,2.6c0,1.7-1.1,3.2-3.6,3.2C276.2,124,275.6,123.7,275.3,123.5z"/>
	<path id="XMLID_366_" class="st12" d="M281.8,123.5v-2c0.3,0.3,1,0.6,1.9,0.6c1.1,0,1.6-0.4,1.6-1.2c0-0.7-0.4-1.1-1.6-1.1
		c-0.7,0-1.2,0.1-1.6,0.3l0.2-5.7h4.9v1.9h-3.2l0,1.8c0.1,0,0.4-0.1,0.6-0.1c2,0,2.9,0.8,2.9,2.7c0,1.9-1.5,3.2-3.6,3.2
		C282.8,124,282.2,123.7,281.8,123.5z"/>
</g>
<g id="XMLID_342_">
	<g id="XMLID_344_">
		<path id="XMLID_353_" class="st9" d="M152.8,242.7h3.5v1.6h-3.5V242.7z"/>
		<path id="XMLID_351_" class="st9" d="M157.7,247.8l2.8-4.1c0.5-0.8,1-1.6,1-2.5c0-1.1-0.5-1.7-1.6-1.7c-0.9,0-1.8,0.6-2.3,1.3
			v-1.8c0.4-0.5,1.3-1.1,2.6-1.1c2.1,0,3,1.2,3,3.1c0,1.6-0.9,3-1.7,4.1l-0.8,1.2h2.7v1.7h-5.6V247.8z"/>
		<path id="XMLID_349_" class="st9" d="M166.1,240.5c-0.3,0.4-1.2,0.5-2.1,0.5v-1.6c1.3,0,2.3-0.4,2.9-1.3h0.8v9.9h-1.7V240.5z"/>
		<path id="XMLID_347_" class="st9" d="M169.4,247c0-0.7,0.4-1.2,1.1-1.2c0.6,0,1.1,0.5,1.1,1.2s-0.4,1.2-1.1,1.2
			C169.8,248.2,169.4,247.7,169.4,247z"/>
		<path id="XMLID_345_" class="st9" d="M176.2,239.7h-3.8V238h5.9v0.2l-3.1,9.7h-1.7L176.2,239.7z"/>
	</g>
</g>
<g id="XMLID_317_">
	<g id="XMLID_319_">
		<path id="XMLID_329_" class="st9" d="M259,242.7h3.5v1.6H259V242.7z"/>
		<path id="XMLID_327_" class="st9" d="M263.9,247.8l2.8-4.1c0.5-0.8,1-1.6,1-2.5c0-1.1-0.5-1.7-1.6-1.7c-0.9,0-1.8,0.6-2.3,1.3
			v-1.8c0.4-0.5,1.3-1.1,2.6-1.1c2.1,0,3,1.2,3,3.1c0,1.6-0.9,3-1.7,4.1l-0.8,1.2h2.7v1.7h-5.6V247.8z"/>
		<path id="XMLID_325_" class="st9" d="M272.4,240.5c-0.3,0.4-1.2,0.5-2.1,0.5v-1.6c1.3,0,2.3-0.4,2.9-1.3h0.8v9.9h-1.7V240.5z"/>
		<path id="XMLID_323_" class="st9" d="M275.7,247c0-0.7,0.4-1.2,1.1-1.2c0.6,0,1.1,0.5,1.1,1.2s-0.4,1.2-1.1,1.2
			C276.1,248.2,275.7,247.7,275.7,247z"/>
		<path id="XMLID_320_" class="st9" d="M279,244.3c0-3.5,2-5.6,3.5-6.3h2.4v0.1c-1.6,0.8-2.9,1.8-3.6,3.5c0.3-0.2,0.8-0.4,1.4-0.4
			c1.9,0,2.9,1.3,2.9,3.4c0,2-1.3,3.6-3.4,3.6C280.1,248.2,279,246.6,279,244.3z M283.8,244.6c0-1.1-0.5-1.9-1.6-1.9
			c-0.8,0-1.2,0.3-1.5,0.7c0,0.4-0.1,0.7-0.1,1.1c0,1.2,0.5,2,1.6,2S283.8,245.7,283.8,244.6z"/>
	</g>
</g>
<g id="XMLID_232_">
	<g id="XMLID_234_">
		<path id="XMLID_273_" class="st13" d="M249.8,56.5c0-2.5,1.6-3.7,3.4-3.7c2,0,3.3,1.3,3.3,3.7c0,2.5-1.6,3.8-3.4,3.8
			C251.1,60.3,249.8,59,249.8,56.5z M254.8,56.6c0-1.5-0.6-2.3-1.7-2.3c-1.1,0-1.7,0.8-1.7,2.2c0,1.5,0.6,2.3,1.7,2.3
			C254.2,58.8,254.8,58,254.8,56.6z"/>
		<path id="XMLID_271_" class="st13" d="M257.3,58.7v-6.5h1.6v6.3c0,0.3,0.1,0.4,0.3,0.4s0.4-0.1,0.5-0.3V60
			c-0.1,0.1-0.4,0.3-0.9,0.3C257.8,60.3,257.3,59.7,257.3,58.7z"/>
		<path id="XMLID_268_" class="st13" d="M260.1,58.6c0-1.2,0.7-1.7,2.2-1.9l0.8-0.1c0-0.8-0.4-1-1.1-1c-0.8,0-1.5,0.4-1.7,1v-1.6
			c0.2-0.3,0.8-0.8,2-0.8c1.5,0,2.4,0.7,2.4,2.5v3.5h-1.4l-0.1-0.5c-0.1,0.3-0.6,0.7-1.3,0.7C260.8,60.3,260.1,59.7,260.1,58.6z
			 M263.1,57.6l-0.6,0.1c-0.7,0.2-0.9,0.4-0.9,0.8c0,0.4,0.3,0.6,0.6,0.6c0.4,0,0.8-0.2,0.9-0.4V57.6z"/>
		<path id="XMLID_266_" class="st13" d="M265.7,54.3h1.4l0.1,0.5c0.2-0.4,0.7-0.7,1.4-0.7c1.4,0,1.9,0.8,1.9,2.4v3.6H269v-3.3
			c0-1-0.2-1.3-0.8-1.3c-0.5,0-0.8,0.3-0.9,0.5v4.1h-1.6V54.3z"/>
		<path id="XMLID_264_" class="st13" d="M271.3,59.6l2.2-4h-2.2v-1.3h4.2v0.5l-2.1,4h2.1v1.3h-4.2V59.6z"/>
		<path id="XMLID_261_" class="st13" d="M276.1,58.6c0-1.2,0.7-1.7,2.2-1.9l0.8-0.1c0-0.8-0.4-1-1.1-1c-0.8,0-1.5,0.4-1.7,1v-1.6
			c0.2-0.3,0.8-0.8,2-0.8c1.5,0,2.4,0.7,2.4,2.5v3.5h-1.4l-0.1-0.5c-0.1,0.3-0.6,0.7-1.3,0.7C276.9,60.3,276.1,59.7,276.1,58.6z
			 M279.1,57.6l-0.6,0.1c-0.7,0.2-0.9,0.4-0.9,0.8c0,0.4,0.3,0.6,0.6,0.6c0.4,0,0.8-0.2,0.9-0.4V57.6z"/>
		<path id="XMLID_258_" class="st13" d="M281.7,54.3h1.4l0.1,0.5c0.2-0.3,0.6-0.7,1.4-0.7c1.3,0,2.2,0.8,2.2,2.9
			c0,2.1-1,3.2-2.4,3.2c-0.4,0-0.9-0.1-1.1-0.4v2.2h-1.6V54.3z M285.2,57.1c0-1-0.3-1.6-1-1.6c-0.4,0-0.7,0.2-0.9,0.5v2.6
			c0.2,0.3,0.5,0.4,0.9,0.4C284.9,59,285.2,58.1,285.2,57.1z"/>
		<path id="XMLID_255_" class="st13" d="M287.6,52.9c0-0.5,0.3-0.8,0.8-0.8c0.5,0,0.8,0.3,0.8,0.8c0,0.5-0.3,0.8-0.8,0.8
			C287.9,53.7,287.6,53.4,287.6,52.9z M287.7,54.3h1.6v5.8h-1.6V54.3z"/>
		<path id="XMLID_253_" class="st13" d="M290.3,54.3h1.4l0.1,0.5c0.2-0.4,0.7-0.7,1.4-0.7c1.4,0,1.9,0.8,1.9,2.4v3.6h-1.6v-3.3
			c0-1-0.2-1.3-0.8-1.3c-0.5,0-0.8,0.3-0.9,0.5v4.1h-1.6V54.3z"/>
		<path id="XMLID_250_" class="st13" d="M296,57.2c0-2.1,1.3-3.1,2.6-3.1c1.3,0,2.4,0.6,2.4,2.8v0.8h-3.4c0.1,0.7,0.4,1.2,1.4,1.2
			c0.9,0,1.4-0.3,1.7-0.7v1.4c-0.3,0.3-0.9,0.6-2,0.6C297,60.3,296,59.3,296,57.2z M299.5,56.6L299.5,56.6c0-0.8-0.3-1.2-0.9-1.2
			c-0.6,0-0.9,0.6-1,1.2H299.5z"/>
		<path id="XMLID_248_" class="st13" d="M260,67.3c-0.2,0.3-0.9,0.3-1.5,0.3v-1.1c0.9,0,1.6-0.3,2.1-0.9h0.6v7.1H260V67.3z"/>
		<path id="XMLID_246_" class="st13" d="M262.3,72.5v-1.3c0.3,0.2,0.7,0.5,1.4,0.5c0.9,0,1.4-0.4,1.4-1.1c0-0.6-0.3-1-1.4-1
			c-0.5,0-0.9,0.1-1.2,0.3l0.1-4.3h3.5v1.2h-2.5l0,1.7c0.1,0,0.4-0.1,0.5-0.1c1.4,0,2.2,0.7,2.2,2.1c0,1.5-1.1,2.4-2.6,2.4
			C263,72.8,262.6,72.7,262.3,72.5z"/>
		<path id="XMLID_244_" class="st13" d="M267.4,66.9h1.2l0.1,0.5c0.2-0.4,0.7-0.7,1.3-0.7c0.8,0,1.3,0.3,1.5,0.8
			c0.2-0.4,0.7-0.8,1.5-0.8c1.3,0,1.8,0.8,1.8,2.3v3.6h-1.2v-3.3c0-1.1-0.2-1.6-0.9-1.6c-0.5,0-0.9,0.3-1,0.6c0,0.2,0,0.5,0,0.7v3.6
			h-1.2v-3.3c0-1.1-0.2-1.6-0.9-1.6c-0.5,0-0.8,0.3-1,0.6v4.3h-1.2V66.9z"/>
		<path id="XMLID_241_" class="st13" d="M275.8,74.3v-1.1c0.4,0.4,1.2,0.6,2.2,0.6c1.2,0,1.8-0.2,1.8-0.7c0-0.4-0.4-0.6-1.2-0.6
			c-0.7,0-1.9,0.2-2.2,0.4v-1l0.7-1.3c-0.7-0.3-1.2-0.9-1.2-1.8c0-1.3,0.9-2,2.2-2c0.6,0,1.1,0.1,1.4,0.4c0.2-0.3,0.6-0.4,1-0.4
			c0.1,0,0.3,0,0.4,0.1v1.1c-0.1,0-0.2-0.1-0.3-0.1c-0.2,0-0.4,0.1-0.5,0.2c0.1,0.2,0.1,0.5,0.1,0.8c0,1.3-0.9,2-2.2,2h-0.2
			l-0.4,0.9c0.2-0.1,0.8-0.2,1.4-0.2c1.3,0,2.1,0.4,2.1,1.5c0,1.1-1,1.9-2.9,1.9C277,74.9,276.2,74.6,275.8,74.3z M279,68.7
			c0-0.6-0.4-1-1-1c-0.6,0-1,0.4-1,1c0,0.6,0.4,1,1,1C278.6,69.7,279,69.4,279,68.7z"/>
		<path id="XMLID_238_" class="st13" d="M287.1,72.2c-0.1,0.3-0.6,0.7-1.3,0.7c-1.2,0-2.1-0.9-2.1-3c0-2.1,1-3.1,2.3-3.1
			c0.7,0,1,0.3,1.3,0.6l0.2-0.4h0.9v7.8h-1.2V72.2z M287.1,71.2v-3c-0.3-0.3-0.6-0.4-1-0.4c-0.9,0-1.2,0.9-1.2,2.1
			c0,1.1,0.3,1.9,1.2,1.9C286.6,71.7,286.9,71.5,287.1,71.2z"/>
		<path id="XMLID_235_" class="st13" d="M289.3,69.9c0-2.1,1-3.1,2.3-3.1c0.4,0,0.9,0.1,1.1,0.4v-2.3h1.2v7.9h-1.1l-0.1-0.5
			c-0.2,0.3-0.6,0.7-1.3,0.7C290.3,72.8,289.3,72,289.3,69.9z M292.8,68.2c-0.2-0.3-0.6-0.4-1-0.4c-0.9,0-1.2,0.9-1.2,2.1
			c0,1.1,0.3,1.9,1.2,1.9c0.5,0,0.9-0.2,1.1-0.5V68.2z"/>
	</g>
</g>
<g id="XMLID_213_">
	<path id="XMLID_230_" class="st13" d="M63.1,57.3h2c1.7,0,2.5,0.8,2.5,2.1c0,1.4-0.7,2.4-2.5,2.4h-0.3v-1.1H65
		c0.7,0,1.1-0.4,1.1-1.1c0-0.7-0.3-1.1-1.1-1.1h-0.5v5.2h-1.4V57.3z"/>
	<path id="XMLID_228_" class="st13" d="M68.1,62.4v-5.8h1.4v5.6c0,0.3,0.1,0.4,0.3,0.4s0.3-0.1,0.4-0.2v1.2
		c-0.1,0.1-0.4,0.3-0.8,0.3C68.6,63.8,68.1,63.3,68.1,62.4z"/>
	<path id="XMLID_225_" class="st13" d="M70.7,62.3c0-1,0.7-1.5,2-1.7l0.7-0.1c0-0.7-0.3-0.9-0.9-0.9c-0.7,0-1.3,0.4-1.5,0.9V59
		c0.2-0.3,0.7-0.7,1.8-0.7c1.4,0,2.1,0.7,2.1,2.2v3.1h-1.2l-0.1-0.4c-0.1,0.3-0.5,0.6-1.2,0.6C71.3,63.8,70.7,63.3,70.7,62.3z
		 M73.3,61.4l-0.5,0.1c-0.6,0.1-0.8,0.3-0.8,0.7c0,0.3,0.2,0.5,0.6,0.5c0.4,0,0.7-0.2,0.8-0.4V61.4z"/>
	<path id="XMLID_223_" class="st13" d="M75.5,61.1c0-1.9,1.1-2.7,2.4-2.7c0.7,0,1.2,0.2,1.4,0.4v1.4c-0.3-0.4-0.7-0.5-1.2-0.5
		c-0.7,0-1.1,0.5-1.1,1.4c0,0.9,0.4,1.4,1.1,1.4c0.5,0,0.9-0.2,1.2-0.6v1.3c-0.2,0.3-0.8,0.6-1.4,0.6C76.4,63.8,75.5,63,75.5,61.1z"
		/>
	<path id="XMLID_220_" class="st13" d="M79.8,61.1c0-1.9,1.1-2.7,2.3-2.7c1.1,0,2.2,0.5,2.2,2.5v0.7h-3.1c0.1,0.6,0.4,1.1,1.3,1.1
		c0.8,0,1.3-0.3,1.5-0.6v1.3c-0.3,0.3-0.8,0.6-1.8,0.6C80.7,63.8,79.8,63,79.8,61.1z M83,60.6L83,60.6c0-0.7-0.3-1-0.8-1
		c-0.5,0-0.8,0.5-0.9,1H83z"/>
	<path id="XMLID_217_" class="st13" d="M86.3,63.3l-0.2,0.4h-1.1v-7.1h1.4v2.3c0.1-0.3,0.5-0.6,1.2-0.6c1.2,0,1.9,0.7,1.9,2.6
		c0,1.9-0.9,2.9-2.1,2.9C86.8,63.8,86.5,63.6,86.3,63.3z M86.5,62.3c0.2,0.3,0.5,0.3,0.8,0.3c0.7,0,0.9-0.7,0.9-1.6
		s-0.2-1.4-0.9-1.4c-0.4,0-0.6,0.2-0.8,0.4V62.3z"/>
	<path id="XMLID_214_" class="st13" d="M90.1,61.1c0-1.9,1.1-2.7,2.4-2.7c1.4,0,2.3,0.8,2.3,2.7c0,1.9-1.1,2.7-2.4,2.7
		C91.1,63.8,90.1,63,90.1,61.1z M93.5,61.1c0-0.9-0.3-1.5-1-1.5c-0.7,0-1,0.6-1,1.5c0,0.9,0.3,1.5,1,1.5
		C93.2,62.6,93.5,62,93.5,61.1z"/>
</g>
<polygon id="XMLID_212_" class="st14" points="163.3,254.1 166.3,259.6 169.2,265.1 163.3,265.1 157.5,265.1 160.4,259.6 "/>
<g id="XMLID_187_">
	<g id="XMLID_189_">
		<path id="XMLID_199_" class="st9" d="M155.9,272.6h2.1v1h-2.1V272.6z"/>
		<path id="XMLID_197_" class="st9" d="M158.8,275.6v-1.1c0.2,0.2,0.6,0.4,1.2,0.4c0.8,0,1.2-0.4,1.2-0.9c0-0.5-0.3-0.9-1.2-0.9
			c-0.4,0-0.8,0.1-1,0.2l0.1-3.6h3v1H160l0,1.5c0.1,0,0.3-0.1,0.5-0.1c1.2,0,1.8,0.6,1.8,1.7c0,1.2-0.9,2-2.2,2
			C159.4,275.9,159,275.7,158.8,275.6z"/>
		<path id="XMLID_195_" class="st9" d="M162.9,275.2c0-0.4,0.3-0.7,0.6-0.7c0.4,0,0.6,0.3,0.6,0.7c0,0.4-0.3,0.7-0.6,0.7
			C163.2,275.9,162.9,275.6,162.9,275.2z"/>
		<path id="XMLID_193_" class="st9" d="M165,275.6v-1.1c0.2,0.2,0.6,0.4,1.2,0.4c0.8,0,1.2-0.4,1.2-0.9c0-0.5-0.3-0.9-1.2-0.9
			c-0.4,0-0.8,0.1-1,0.2l0.1-3.6h3v1h-2.1l0,1.5c0.1,0,0.3-0.1,0.5-0.1c1.2,0,1.8,0.6,1.8,1.7c0,1.2-0.9,2-2.2,2
			C165.5,275.9,165.2,275.7,165,275.6z"/>
		<path id="XMLID_190_" class="st9" d="M168.9,272.1c0-0.6,0.4-0.8,1.1-0.9l0.4-0.1c0-0.5-0.2-0.6-0.6-0.6c-0.4,0-0.7,0.2-0.8,0.5
			v-0.7c0.1-0.2,0.4-0.4,0.9-0.4c0.7,0,1.1,0.4,1.1,1.2v1.7h-0.6l0-0.3c-0.1,0.2-0.3,0.3-0.6,0.3
			C169.3,272.9,168.9,272.7,168.9,272.1z M170.4,271.5l-0.3,0.1c-0.4,0.1-0.6,0.2-0.6,0.5s0.1,0.3,0.4,0.3c0.2,0,0.5-0.1,0.5-0.2
			V271.5z"/>
	</g>
</g>
<polygon id="XMLID_186_" class="st14" points="273.2,255.6 276.1,261.1 279,266.6 273.2,266.6 267.4,266.6 270.3,261.1 "/>
<g id="XMLID_161_">
	<g id="XMLID_163_">
		<path id="XMLID_173_" class="st9" d="M265.6,273.5h2.1v1h-2.1V273.5z"/>
		<path id="XMLID_171_" class="st9" d="M268.6,276.5v-1.1c0.2,0.2,0.6,0.4,1.2,0.4c0.8,0,1.2-0.4,1.2-0.9c0-0.5-0.3-0.9-1.2-0.9
			c-0.4,0-0.8,0.1-1,0.2l0.1-3.6h3v1h-2.1l0,1.5c0.1,0,0.3-0.1,0.5-0.1c1.2,0,1.8,0.6,1.8,1.7c0,1.2-0.9,2-2.2,2
			C269.1,276.8,268.8,276.7,268.6,276.5z"/>
		<path id="XMLID_169_" class="st9" d="M272.7,276.1c0-0.4,0.3-0.7,0.6-0.7c0.4,0,0.6,0.3,0.6,0.7c0,0.4-0.3,0.7-0.6,0.7
			C273,276.8,272.7,276.5,272.7,276.1z"/>
		<path id="XMLID_167_" class="st9" d="M277.1,275.5h-2.7v-0.1l1.6-4.7h1l-1.2,3.7h1.3v-2.2h1v2.2h0.6v1h-0.6v1.2h-1V275.5z"/>
		<path id="XMLID_164_" class="st9" d="M279.8,273.6l-0.1,0.2h-0.5v-3.9h0.6v1.3c0.1-0.1,0.3-0.3,0.7-0.3c0.6,0,1.1,0.4,1.1,1.4
			s-0.5,1.6-1.2,1.6C280.1,273.8,279.9,273.7,279.8,273.6z M279.8,273.1c0.1,0.2,0.3,0.2,0.5,0.2c0.4,0,0.6-0.5,0.6-1
			s-0.2-0.9-0.6-0.9c-0.3,0-0.4,0.1-0.5,0.3V273.1z"/>
	</g>
</g>
<g id="XMLID_63_">
	<path id="XMLID_159_" class="st12" d="M80.1,9.1h3.8c3.4,0,4.8,1.4,4.8,3.7c0,2.4-1.4,4.2-4.8,4.2h-0.6v-2h0.5
		c1.4,0,2.1-0.7,2.1-1.9c0-1.3-0.7-1.9-2.1-1.9h-1v9.1h-2.8V9.1z"/>
	<path id="XMLID_157_" class="st12" d="M90,11.2h2.3l0.2,1.2c0.1-0.9,0.9-1.5,1.8-1.5c0.5,0,0.8,0.1,0.9,0.2v2.4
		c-0.2-0.2-0.6-0.3-1.1-0.3c-0.7,0-1.1,0.3-1.4,0.7v6.2H90V11.2z"/>
	<path id="XMLID_154_" class="st12" d="M96.4,9c0-0.8,0.5-1.3,1.4-1.3c0.9,0,1.4,0.5,1.4,1.3c0,0.8-0.6,1.3-1.4,1.3
		C96.9,10.2,96.4,9.8,96.4,9z M96.4,11.2h2.7v9h-2.7V11.2z"/>
	<path id="XMLID_152_" class="st12" d="M101.1,11.2h2.5l0.2,0.8c0.4-0.6,1.3-1,2.3-1c1.3,0,2.2,0.4,2.7,1.3c0.5-0.6,1.4-1.3,2.7-1.3
		c2.3,0,3.2,1.2,3.2,3.7v5.6h-2.7V15c0-1.4-0.4-2-1.3-2c-0.7,0-1.2,0.3-1.5,0.7c0.1,0.3,0.1,0.6,0.1,0.8v5.6h-2.7V15
		c0-1.4-0.4-2-1.2-2c-0.7,0-1.2,0.3-1.4,0.7v6.5h-2.7V11.2z"/>
	<path id="XMLID_149_" class="st12" d="M115.9,17.8c0-1.8,1.3-2.6,3.9-3l1.4-0.2c0-1.2-0.6-1.6-1.8-1.6c-1.3,0-2.5,0.6-3,1.6v-2.5
		c0.4-0.5,1.4-1.2,3.4-1.2c2.7,0,4.1,1.2,4.1,3.9v5.4h-2.4l-0.2-0.8c-0.3,0.5-1,1-2.3,1C117.2,20.4,115.9,19.6,115.9,17.8z
		 M121.2,16.3l-1.1,0.2c-1.2,0.3-1.7,0.6-1.7,1.2c0,0.6,0.5,0.9,1.1,0.9c0.7,0,1.3-0.3,1.6-0.6V16.3z"/>
	<path id="XMLID_147_" class="st12" d="M125.7,11.2h2.3l0.2,1.2c0.1-0.9,0.9-1.5,1.8-1.5c0.5,0,0.8,0.1,0.9,0.2v2.4
		c-0.2-0.2-0.6-0.3-1.1-0.3c-0.7,0-1.1,0.3-1.4,0.7v6.2h-2.7V11.2z"/>
	<path id="XMLID_145_" class="st12" d="M131.8,23.1V21c0.4,0.4,1,0.6,1.6,0.6c0.6,0,1.2-0.2,1.6-1.2l-3.7-9.2h3l1.9,5.9l1.6-5.9h2.6
		l-2.6,8.5c-0.7,2.2-1.8,3.9-4.3,3.9C132.8,23.6,132.1,23.4,131.8,23.1z"/>
	<path id="XMLID_143_" class="st12" d="M145.6,11.2h2.5l0.2,0.8c0.4-0.6,1.3-1,2.3-1c1.3,0,2.2,0.4,2.7,1.3c0.5-0.6,1.4-1.3,2.7-1.3
		c2.3,0,3.2,1.2,3.2,3.7v5.6h-2.7V15c0-1.4-0.4-2-1.3-2c-0.7,0-1.2,0.3-1.5,0.7c0.1,0.3,0.1,0.6,0.1,0.8v5.6h-2.7V15
		c0-1.4-0.4-2-1.2-2c-0.7,0-1.2,0.3-1.4,0.7v6.5h-2.7V11.2z"/>
	<path id="XMLID_140_" class="st12" d="M160.5,15.7c0-3.3,2.2-4.8,4.5-4.8c2.2,0,4.3,0.9,4.3,4.4v1.2h-6c0.1,1,0.8,1.8,2.5,1.8
		c1.6,0,2.5-0.5,3-1v2.2c-0.5,0.5-1.6,1-3.4,1C162.3,20.4,160.5,18.9,160.5,15.7z M166.6,14.8L166.6,14.8c0-1.2-0.5-1.8-1.7-1.8
		c-1.1,0-1.7,0.9-1.7,1.8H166.6z"/>
	<path id="XMLID_137_" class="st12" d="M170.2,17.8c0-1.8,1.3-2.6,3.9-3l1.4-0.2c0-1.2-0.6-1.6-1.8-1.6c-1.3,0-2.5,0.6-3,1.6v-2.5
		c0.4-0.5,1.4-1.2,3.4-1.2c2.7,0,4.1,1.2,4.1,3.9v5.4h-2.4l-0.2-0.8c-0.3,0.5-1,1-2.3,1C171.5,20.4,170.2,19.6,170.2,17.8z
		 M175.5,16.3l-1.1,0.2c-1.2,0.3-1.7,0.6-1.7,1.2c0,0.6,0.5,0.9,1.1,0.9c0.7,0,1.3-0.3,1.6-0.6V16.3z"/>
	<path id="XMLID_135_" class="st12" d="M179.8,19.7v-2.4c0.6,0.6,1.5,1,2.8,1c1.2,0,1.6-0.4,1.6-0.8c0-0.5-0.2-0.7-1.3-0.8l-0.5-0.1
		c-1.9-0.3-2.8-1.2-2.8-2.8c0-1.6,1.1-3,3.8-3c1.4,0,2.4,0.3,2.9,0.7V14c-0.6-0.6-1.6-1-2.8-1c-1.1,0-1.4,0.3-1.4,0.8
		s0.2,0.7,1.2,0.8l0.5,0.1c2.1,0.3,2.9,1,2.9,2.7c0,1.5-1.1,3.1-4,3.1C181.3,20.4,180.3,20.1,179.8,19.7z"/>
	<path id="XMLID_133_" class="st12" d="M188.1,16.8v-5.6h2.7v5.1c0,1.5,0.3,2,1.4,2c0.8,0,1.2-0.4,1.5-0.7v-6.5h2.7v9h-2.4l-0.2-0.8
		c-0.4,0.6-1.2,1-2.4,1C189,20.4,188.1,19.2,188.1,16.8z"/>
	<path id="XMLID_131_" class="st12" d="M198.3,11.2h2.3l0.2,1.2c0.1-0.9,0.9-1.5,1.8-1.5c0.5,0,0.8,0.1,0.9,0.2v2.4
		c-0.2-0.2-0.6-0.3-1.1-0.3c-0.7,0-1.1,0.3-1.4,0.7v6.2h-2.7V11.2z"/>
	<path id="XMLID_128_" class="st12" d="M204.1,15.7c0-3.3,2.2-4.8,4.5-4.8c2.2,0,4.3,0.9,4.3,4.4v1.2h-6c0.1,1,0.8,1.8,2.5,1.8
		c1.6,0,2.5-0.5,3-1v2.2c-0.5,0.5-1.6,1-3.4,1C205.9,20.4,204.1,18.9,204.1,15.7z M210.3,14.8L210.3,14.8c0-1.2-0.5-1.8-1.7-1.8
		c-1.1,0-1.7,0.9-1.7,1.8H210.3z"/>
	<path id="XMLID_125_" class="st12" d="M217.9,15.7c0-3.3,2.2-4.8,4.8-4.8c2.7,0,4.6,1.4,4.6,4.8c0,3.3-2.2,4.8-4.8,4.8
		C219.8,20.4,217.9,19,217.9,15.7z M224.5,15.7c0-1.6-0.6-2.6-1.9-2.6c-1.3,0-1.9,1-1.9,2.6c0,1.6,0.6,2.6,1.9,2.6
		C223.9,18.3,224.5,17.2,224.5,15.7z"/>
	<path id="XMLID_123_" class="st12" d="M229.2,13.3h-1.1v-0.9l1-0.9c-0.2-0.3-0.3-0.7-0.3-1.3c0-1.7,1.5-2.6,3.3-2.6
		c1.3,0,2,0.3,2.3,0.5v2.2c-0.3-0.5-1-0.7-1.7-0.7c-0.8,0-1.2,0.3-1.2,0.9c0,0.3,0.1,0.5,0.2,0.7h1.8v2.1h-1.6v6.9h-2.7V13.3z"/>
	<path id="XMLID_120_" class="st12" d="M238.4,15.7c0-3.3,2.2-4.8,4.5-4.8c2.2,0,4.3,0.9,4.3,4.4v1.2h-6c0.1,1,0.8,1.8,2.5,1.8
		c1.6,0,2.5-0.5,3-1v2.2c-0.5,0.5-1.6,1-3.4,1C240.2,20.4,238.4,18.9,238.4,15.7z M244.6,14.8L244.6,14.8c0-1.2-0.5-1.8-1.7-1.8
		c-1.1,0-1.7,0.9-1.7,1.8H244.6z"/>
	<path id="XMLID_117_" class="st12" d="M249.1,13.2H248v-0.8l1-0.9c-0.2-0.3-0.3-0.7-0.3-1.3c0-1.7,1.5-2.6,3-2.6
		c1.1,0,1.6,0.3,1.9,0.5v2.2c-0.3-0.4-0.7-0.6-1.2-0.6c-0.6,0-1,0.3-1,0.9c0,0.3,0.1,0.5,0.2,0.7h2.8c-0.1-0.3-0.2-0.6-0.2-1.1
		c0-1.7,1.5-2.6,3.1-2.6c1.1,0,1.6,0.3,1.8,0.5v2.2c-0.3-0.4-0.7-0.7-1.3-0.7c-0.6,0-1,0.3-1,0.9c0,0.3,0.1,0.5,0.2,0.7h5.7v9h-2.7
		v-7h-2.8v7h-2.7v-7h-2.8v7h-2.7V13.2z M260,9.1c0-0.8,0.5-1.3,1.4-1.3c0.9,0,1.4,0.5,1.4,1.3c0,0.8-0.6,1.3-1.4,1.3
		C260.6,10.3,260,9.9,260,9.1z"/>
	<path id="XMLID_115_" class="st12" d="M264.3,15.7c0-3.3,2.1-4.8,4.6-4.8c1.4,0,2.3,0.4,2.8,0.8v2.4c-0.6-0.6-1.3-0.9-2.4-0.9
		c-1.4,0-2.2,0.9-2.2,2.5c0,1.6,0.8,2.5,2.2,2.5c1,0,1.8-0.4,2.4-1v2.3c-0.4,0.4-1.5,1-2.8,1C266.2,20.4,264.3,19,264.3,15.7z"/>
	<path id="XMLID_112_" class="st12" d="M272.8,17.8c0-1.8,1.3-2.6,3.9-3l1.4-0.2c0-1.2-0.6-1.6-1.8-1.6c-1.3,0-2.5,0.6-3,1.6v-2.5
		c0.4-0.5,1.4-1.2,3.4-1.2c2.7,0,4.1,1.2,4.1,3.9v5.4h-2.4l-0.2-0.8c-0.3,0.5-1,1-2.3,1C274.1,20.4,272.8,19.6,272.8,17.8z
		 M278.1,16.3l-1.1,0.2c-1.2,0.3-1.7,0.6-1.7,1.2c0,0.6,0.5,0.9,1.1,0.9c0.7,0,1.3-0.3,1.6-0.6V16.3z"/>
	<path id="XMLID_110_" class="st12" d="M282.2,15.7c0-3.3,2.1-4.8,4.6-4.8c1.4,0,2.3,0.4,2.8,0.8v2.4c-0.6-0.6-1.3-0.9-2.4-0.9
		c-1.4,0-2.2,0.9-2.2,2.5c0,1.6,0.8,2.5,2.2,2.5c1,0,1.8-0.4,2.4-1v2.3c-0.4,0.4-1.5,1-2.8,1C284.1,20.4,282.2,19,282.2,15.7z"/>
	<path id="XMLID_108_" class="st12" d="M290.7,23.1V21c0.4,0.4,1,0.6,1.6,0.6c0.6,0,1.2-0.2,1.6-1.2l-3.7-9.2h3l1.9,5.9l1.6-5.9h2.6
		l-2.6,8.5c-0.7,2.2-1.8,3.9-4.3,3.9C291.7,23.6,291,23.4,290.7,23.1z"/>
	<path id="XMLID_105_" class="st12" d="M300.3,13c0-0.9,0.7-1.6,1.6-1.6c0.9,0,1.6,0.7,1.6,1.6c0,0.9-0.7,1.6-1.6,1.6
		C301,14.5,300.3,13.9,300.3,13z M300.3,18.9c0-0.9,0.7-1.6,1.6-1.6c0.9,0,1.6,0.7,1.6,1.6c0,0.9-0.7,1.6-1.6,1.6
		C301,20.5,300.3,19.8,300.3,18.9z"/>
	<path id="XMLID_103_" class="st12" d="M115.8,30.8h-3.1v-2.3h9v2.3h-3.1v8.8h-2.8V30.8z"/>
	<path id="XMLID_100_" class="st12" d="M121.6,35.2c0-3.3,2.2-4.8,4.8-4.8c2.7,0,4.6,1.4,4.6,4.8c0,3.3-2.2,4.8-4.8,4.8
		C123.4,39.9,121.6,38.5,121.6,35.2z M128.1,35.2c0-1.6-0.6-2.6-1.9-2.6c-1.3,0-1.9,1-1.9,2.6c0,1.6,0.6,2.6,1.9,2.6
		C127.5,37.8,128.1,36.7,128.1,35.2z"/>
	<path id="XMLID_98_" class="st12" d="M132.8,37.1v-4.4h-1.1v-1l0.9-1.1l1.7-2.1h1.3v2.1h2.2v2.1h-2.2v4.1c0,0.7,0.2,1,0.8,1
		c0.6,0,1.1-0.3,1.4-0.8v2.2c-0.3,0.4-1,0.7-2.1,0.7C133.6,39.9,132.8,38.9,132.8,37.1z"/>
	<path id="XMLID_95_" class="st12" d="M138.7,37.3c0-1.8,1.3-2.6,3.9-3l1.4-0.2c0-1.2-0.6-1.6-1.8-1.6c-1.3,0-2.5,0.6-3,1.6v-2.5
		c0.4-0.5,1.4-1.2,3.4-1.2c2.7,0,4.1,1.2,4.1,3.9v5.4h-2.4l-0.2-0.8c-0.3,0.5-1,1-2.3,1C140,39.9,138.7,39.1,138.7,37.3z
		 M143.9,35.8l-1.1,0.2c-1.2,0.3-1.7,0.6-1.7,1.2c0,0.6,0.5,0.9,1.1,0.9c0.7,0,1.3-0.3,1.6-0.6V35.8z"/>
	<path id="XMLID_93_" class="st12" d="M148.5,37.4V27.4h2.7v9.7c0,0.5,0.2,0.7,0.6,0.7c0.4,0,0.7-0.2,0.8-0.4v2
		c-0.2,0.2-0.8,0.5-1.6,0.5C149.3,39.9,148.5,39.1,148.5,37.4z"/>
	<path id="XMLID_91_" class="st12" d="M157.6,39.1v-2.7c0.6,0.6,1.7,1.3,3.1,1.3c1.3,0,1.9-0.5,1.9-1.3c0-0.7-0.4-0.9-1.5-1.2
		l-0.4-0.1c-1.8-0.4-3-1.4-3-3.3c0-2.2,1.6-3.6,4.3-3.6c1.7,0,2.7,0.4,3.1,0.8v2.7c-0.6-0.7-1.7-1.2-3.1-1.2c-1,0-1.6,0.3-1.6,1.1
		c0,0.7,0.3,1,1.4,1.2l0.4,0.1c1.9,0.4,3.2,1.2,3.2,3.3c0,2.2-1.6,3.8-4.5,3.8C159,39.9,158,39.5,157.6,39.1z"/>
	<path id="XMLID_89_" class="st12" d="M166.3,35.2c0-3.3,2.1-4.8,4.6-4.8c1.4,0,2.3,0.4,2.8,0.8v2.4c-0.6-0.7-1.3-0.9-2.4-0.9
		c-1.4,0-2.2,0.9-2.2,2.5c0,1.6,0.8,2.5,2.2,2.5c1,0,1.8-0.4,2.4-1V39c-0.4,0.4-1.5,1-2.8,1C168.2,39.9,166.3,38.5,166.3,35.2z"/>
	<path id="XMLID_86_" class="st12" d="M174.8,35.2c0-3.3,2.2-4.8,4.8-4.8c2.7,0,4.6,1.4,4.6,4.8c0,3.3-2.2,4.8-4.8,4.8
		C176.7,39.9,174.8,38.5,174.8,35.2z M181.4,35.2c0-1.6-0.6-2.6-1.9-2.6c-1.3,0-1.9,1-1.9,2.6c0,1.6,0.6,2.6,1.9,2.6
		C180.8,37.8,181.4,36.7,181.4,35.2z"/>
	<path id="XMLID_84_" class="st12" d="M185.7,30.6h2.3l0.2,1.2c0.1-0.9,0.9-1.5,1.8-1.5c0.5,0,0.8,0.1,0.9,0.2V33
		c-0.2-0.2-0.6-0.3-1.1-0.3c-0.7,0-1.1,0.3-1.4,0.7v6.2h-2.7V30.6z"/>
	<path id="XMLID_81_" class="st12" d="M191.5,35.2c0-3.3,2.2-4.8,4.5-4.8c2.2,0,4.3,0.9,4.3,4.4v1.2h-6c0.1,1,0.8,1.8,2.5,1.8
		c1.6,0,2.5-0.5,3-1v2.2c-0.5,0.5-1.6,1-3.4,1C193.3,39.9,191.5,38.4,191.5,35.2z M197.6,34.3L197.6,34.3c0-1.2-0.5-1.8-1.7-1.8
		c-1.1,0-1.7,0.9-1.7,1.8H197.6z"/>
	<path id="XMLID_79_" class="st12" d="M205.3,34.7c0-2.8,1.4-5.6,3.4-6.6h2.3c-2,1.1-3.4,3.4-3.4,6.6c0,3.3,1.6,5.8,3.4,7h-2.3
		C206.7,40.6,205.3,37.7,205.3,34.7z"/>
	<path id="XMLID_77_" class="st12" d="M212.1,28.6h3.8c3.4,0,4.8,1.4,4.8,3.7c0,2.4-1.4,4.2-4.8,4.2h-0.6v-2h0.5
		c1.4,0,2.1-0.7,2.1-1.9c0-1.3-0.7-1.9-2.1-1.9h-1v9.1h-2.8V28.6z"/>
	<path id="XMLID_74_" class="st12" d="M224.3,29.7l-0.4-1.1h2.9c0.4,1,4.2,10.2,4.6,11.1h-2.9l-0.8-2h-4.1l-0.8,2h-2.7L224.3,29.7z
		 M224.3,35.8h2.6l-1-2.5l-0.3-0.9l-0.3,0.9L224.3,35.8z"/>
	<path id="XMLID_72_" class="st12" d="M232.5,29.6l-0.7-1h3.3l4.6,6.5h0v-6.5h2.5v11.1H240l-5-6.9h0v6.9h-2.5V29.6z"/>
	<path id="XMLID_70_" class="st12" d="M244.1,39.1v-2.7c0.6,0.6,1.7,1.3,3.1,1.3c1.3,0,1.9-0.5,1.9-1.3c0-0.7-0.4-0.9-1.5-1.2
		l-0.4-0.1c-1.8-0.4-3-1.4-3-3.3c0-2.2,1.6-3.6,4.3-3.6c1.7,0,2.7,0.4,3.1,0.8v2.7c-0.6-0.7-1.7-1.2-3.1-1.2c-1,0-1.6,0.3-1.6,1.1
		c0,0.7,0.3,1,1.4,1.2l0.4,0.1c1.9,0.4,3.2,1.2,3.2,3.3c0,2.2-1.6,3.8-4.5,3.8C245.4,39.9,244.5,39.5,244.1,39.1z"/>
	<path id="XMLID_68_" class="st12" d="M253,39.1v-2.7c0.6,0.6,1.7,1.3,3.1,1.3c1.3,0,1.9-0.5,1.9-1.3c0-0.7-0.4-0.9-1.5-1.2
		l-0.4-0.1c-1.8-0.4-3-1.4-3-3.3c0-2.2,1.6-3.6,4.3-3.6c1.7,0,2.7,0.4,3.1,0.8v2.7c-0.6-0.7-1.7-1.2-3.1-1.2c-1,0-1.6,0.3-1.6,1.1
		c0,0.7,0.3,1,1.4,1.2l0.4,0.1c1.9,0.4,3.2,1.2,3.2,3.3c0,2.2-1.6,3.8-4.5,3.8C254.4,39.9,253.5,39.5,253,39.1z"/>
	<path id="XMLID_66_" class="st12" d="M264.4,34.9c0-3.3-1.5-5.7-3.4-6.8h2.3c2,1,3.5,3.9,3.5,6.8c0,2.8-1.4,5.7-3.5,6.7h-2.3
		C262.9,40.5,264.4,38.1,264.4,34.9z"/>
	<path id="XMLID_64_" class="st12" d="M268.8,29.7c-0.2,0.2-0.8,0.3-1.4,0.3v-1.3c0.9,0,1.6-0.3,2.1-0.9h0.9v6.5h-1.6V29.7z"/>
</g>
<g id="XMLID_18_">
	<path id="XMLID_62_" class="st7" d="M140.5,58.4h4.4c0.7,0,1-0.1,1-0.5c0-0.3-0.2-0.4-0.7-0.5c-2.1-0.2-2.7-0.7-2.7-2.1
		c0-1.4,0.9-2.3,2.9-2.3c1.2,0,1.8,0.2,2.2,0.3v1.8c-0.6-0.3-1.4-0.4-2.1-0.4c-0.6,0-0.9,0.1-0.9,0.5c0,0.3,0.2,0.4,0.7,0.5
		c2.1,0.2,2.7,0.7,2.7,2.1c0,1.3-0.8,2.3-3,2.3h-4.1"/>
	<path id="XMLID_59_" class="st7" d="M150.4,57.3c-0.1,0.9,0.4,1.1,1.4,1.1c1,0,1.7-0.2,2.2-0.4v1.7c-0.8,0.3-1.7,0.5-2.5,0.5
		c-2.2,0-3.3-1.1-3.3-3.5c0-2.4,1.1-3.5,3.1-3.5c2.9,0,3.1,2.1,2.9,4.2H150.4z M150.4,56h1.9c0.1-0.7,0-1.3-0.9-1.3
		C150.8,54.6,150.4,55.1,150.4,56"/>
	<path id="XMLID_58_" class="st7" d="M156.2,53.2l0.3,0.5c0.7-0.5,1.6-0.7,2.3-0.7c1.8,0,2.3,1,2.3,2.2v4.6H159v-4.3
		c0-0.5-0.2-0.8-0.7-0.8c-0.5,0-1,0.2-1.2,0.3v4.8H155v-6.7H156.2z"/>
	<path id="XMLID_55_" class="st7" d="M165.3,55.2c0-0.3-0.2-0.5-0.8-0.5c-0.8,0-1.8,0.3-2.4,0.5v-1.8c0.5-0.2,1.5-0.4,2.4-0.4
		c2.4,0,2.9,1,2.9,2.5v4.3h-1.3l-0.3-0.5c-0.5,0.4-1.2,0.7-2,0.7c-1.7,0-2.3-1.1-2.3-2.1c0-1.8,1.3-2.1,2.5-2.2l1.2-0.1V55.2z
		 M164.4,56.9c-0.6,0.1-0.8,0.4-0.8,0.9c0,0.5,0.3,0.8,0.8,0.8c0.4,0,0.7-0.1,1-0.3v-1.5L164.4,56.9z"/>
	<path id="XMLID_52_" class="st7" d="M169.4,53.2l0.4,0.5c0.5-0.4,1.1-0.7,2.2-0.7c1.7,0,2.6,1.1,2.6,3.5c0,2.5-0.9,3.5-2.6,3.5
		c-0.7,0-1.3-0.2-1.7-0.4v3.6h-2.1v-10H169.4z M170.2,58.1c0,0,0.4,0.3,0.9,0.3c1,0,1.2-0.7,1.2-1.8c0-1.1-0.2-1.8-1.2-1.8
		c-0.5,0-0.9,0.3-0.9,0.3V58.1z"/>
	<path id="XMLID_51_" class="st7" d="M177.7,59.9c0,0-0.3,0.1-0.6,0.1c-1.1,0-2.1-0.6-2.1-1.9v-4.9h2.1v4.6c0,0.3,0.1,0.4,0.5,0.4
		V59.9z"/>
	<path id="XMLID_50_" class="st7" d="M179.5,53.2l0.3,0.5c0.7-0.5,1.6-0.7,2.3-0.7c1.8,0,2.3,1,2.3,2.2v4.6h-2.1v-4.3
		c0-0.5-0.2-0.8-0.7-0.8c-0.5,0-1,0.2-1.2,0.3v4.8h-2.1v-6.7H179.5z"/>
	<path id="XMLID_47_" class="st7" d="M187,57.3c-0.1,0.9,0.4,1.1,1.4,1.1c1,0,1.7-0.2,2.2-0.4v1.7c-0.8,0.3-1.7,0.5-2.5,0.5
		c-2.2,0-3.3-1.1-3.3-3.5c0-2.4,1.1-3.5,3.1-3.5c2.9,0,3.1,2.1,2.9,4.2H187z M187,56h1.9c0.1-0.7,0-1.3-0.9-1.3
		C187.3,54.6,187,55.1,187,56"/>
	<polyline id="XMLID_46_" class="st7" points="138.3,57.8 138.7,56.1 140,56.1 139.1,52.4 138.3,56.1 137.9,57.8 137.4,59.9 
		135.1,59.9 137.9,49.8 140.4,49.8 143.1,59.9 140.9,59.9 140.4,57.8 	"/>
	<g id="XMLID_24_">
		<polygon id="XMLID_45_" class="st7" points="172.3,63.1 172.3,61.9 171.1,61.9 171.1,63.1 170.9,63.1 170.9,60.6 171.1,60.6 
			171.1,61.7 172.3,61.7 172.3,60.6 172.6,60.6 172.6,63.1 		"/>
		<path id="XMLID_42_" class="st7" d="M173.2,60.8c0.1,0,0.2,0.1,0.2,0.2c0,0.1-0.1,0.2-0.2,0.2c-0.1,0-0.2-0.1-0.2-0.2
			C173,60.8,173.1,60.8,173.2,60.8 M173.1,62.8v-1.3h0.2v1.4c0,0.1,0,0.2,0.1,0.2v0.2C173.2,63.1,173.1,63,173.1,62.8"/>
		<polygon id="XMLID_41_" class="st7" points="174.4,62.1 175.2,63.1 174.9,63.1 174.3,62.3 174.1,62.5 174.1,63.1 173.8,63.1 
			173.8,60.6 174.1,60.6 174.1,62.2 174.8,61.4 175.1,61.4 		"/>
		<path id="XMLID_40_" class="st7" d="M177.5,61.9c0-0.2-0.1-0.3-0.3-0.3c-0.2,0-0.3,0-0.5,0.1c0,0.1,0,0.1,0,0.2v1.2h-0.2v-1.2
			c0-0.2-0.1-0.3-0.3-0.3c-0.2,0-0.3,0-0.4,0.1v1.4h-0.2v-1.7h0.1l0.1,0.1c0.2-0.1,0.3-0.2,0.5-0.2c0.2,0,0.4,0.1,0.5,0.2
			c0.2-0.1,0.4-0.2,0.5-0.2c0.4,0,0.6,0.2,0.6,0.5v1.2h-0.2V61.9z"/>
		<path id="XMLID_37_" class="st7" d="M178.7,61.6c-0.2,0-0.4,0-0.5,0.1v-0.2c0.1-0.1,0.3-0.1,0.5-0.1c0.5,0,0.6,0.2,0.6,0.6v1.1
			h-0.1l0-0.1c-0.2,0.1-0.3,0.2-0.5,0.2c-0.4,0-0.6-0.3-0.6-0.5c0-0.3,0.2-0.5,0.6-0.5l0.4,0V62C179.1,61.7,179,61.6,178.7,61.6
			 M178.7,62.3c-0.2,0-0.3,0.1-0.3,0.3c0,0.2,0,0.3,0.4,0.3c0.2,0,0.3-0.1,0.4-0.1v-0.6L178.7,62.3z"/>
		<path id="XMLID_34_" class="st7" d="M180.6,63.1h-0.2v-2.5h0.8c0.6,0,0.8,0.4,0.8,0.8c0,0.4-0.2,0.8-0.8,0.8h-0.5V63.1z
			 M180.6,61.9h0.6c0.5,0,0.6-0.3,0.6-0.5c0-0.2-0.1-0.5-0.6-0.5h-0.6V61.9z"/>
		<path id="XMLID_33_" class="st7" d="M183,61.6c-0.2,0-0.3,0-0.5,0.1v1.4h-0.2v-2.5h0.2v0.9c0.1-0.1,0.3-0.1,0.5-0.1
			c0.4,0,0.6,0.2,0.6,0.5v1.2h-0.2v-1.2C183.4,61.7,183.2,61.6,183,61.6"/>
		<path id="XMLID_30_" class="st7" d="M184.6,61.6c-0.2,0-0.4,0-0.5,0.1v-0.2c0.1-0.1,0.3-0.1,0.5-0.1c0.5,0,0.6,0.2,0.6,0.6v1.1
			h-0.1l0-0.1c-0.2,0.1-0.3,0.2-0.5,0.2c-0.4,0-0.6-0.3-0.6-0.5c0-0.3,0.2-0.5,0.6-0.5l0.4,0V62C185,61.7,184.9,61.6,184.6,61.6
			 M184.6,62.3c-0.2,0-0.3,0.1-0.3,0.3c0,0.2,0,0.3,0.4,0.3c0.2,0,0.3-0.1,0.4-0.1v-0.6L184.6,62.3z"/>
		<path id="XMLID_29_" class="st7" d="M186.6,61.6c-0.1,0-0.1,0-0.2,0c-0.2,0-0.4,0-0.5,0.1v1.4h-0.2v-1.7h0.1l0,0.1
			c0.2-0.1,0.4-0.2,0.5-0.2c0.1,0,0.1,0,0.2,0V61.6z"/>
		<path id="XMLID_28_" class="st7" d="M188.9,61.9c0-0.2-0.1-0.3-0.3-0.3c-0.2,0-0.3,0-0.5,0.1c0,0.1,0,0.1,0,0.2v1.2h-0.2v-1.2
			c0-0.2-0.1-0.3-0.3-0.3c-0.2,0-0.3,0-0.4,0.1v1.4h-0.2v-1.7h0.1l0,0.1c0.2-0.1,0.3-0.2,0.5-0.2c0.2,0,0.4,0.1,0.5,0.2
			c0.2-0.1,0.4-0.2,0.5-0.2c0.4,0,0.6,0.2,0.6,0.5v1.2h-0.2V61.9z"/>
		<path id="XMLID_25_" class="st7" d="M190.1,61.6c-0.2,0-0.4,0-0.5,0.1v-0.2c0.1-0.1,0.3-0.1,0.5-0.1c0.5,0,0.6,0.2,0.6,0.6v1.1
			h-0.1l-0.1-0.1c-0.2,0.1-0.3,0.2-0.5,0.2c-0.4,0-0.6-0.3-0.6-0.5c0-0.3,0.2-0.5,0.6-0.5l0.4,0V62
			C190.5,61.7,190.4,61.6,190.1,61.6 M190.1,62.3c-0.2,0-0.3,0.1-0.3,0.3c0,0.2,0,0.3,0.4,0.3c0.2,0,0.3-0.1,0.4-0.1v-0.6
			L190.1,62.3z"/>
	</g>
	<g id="XMLID_19_">
		<path id="XMLID_23_" class="st7" d="M176.9,49.5c-0.3,0-0.6,0.1-0.8,0.2c0.1,0.1,0.2,0.1,0.3,0.2c0.6,0.1,1,0.6,1,1.2
			c0,0.6-0.4,1.1-1,1.2c-0.1,0.1-0.2,0.1-0.3,0.2c0.2,0.1,0.5,0.2,0.8,0.2c0.9,0,1.6-0.7,1.6-1.6C178.5,50.2,177.8,49.5,176.9,49.5z
			"/>
		<path id="XMLID_22_" class="st15" d="M174.9,51.1c0-0.6,0.4-1.1,1-1.2c0.1-0.1,0.2-0.1,0.3-0.2c-0.2-0.1-0.5-0.2-0.8-0.2
			c-0.9,0-1.6,0.7-1.6,1.6c0,0.9,0.7,1.6,1.6,1.6c0.3,0,0.5-0.1,0.8-0.2c-0.1-0.1-0.2-0.1-0.3-0.2C175.3,52.2,174.9,51.7,174.9,51.1
			z"/>
		<path id="XMLID_21_" class="st15" d="M176.1,52.4c-0.1,0-0.2,0-0.3,0c0.1,0.1,0.2,0.1,0.3,0.2c0.1-0.1,0.2-0.1,0.3-0.2
			C176.3,52.4,176.2,52.4,176.1,52.4z"/>
		<path id="XMLID_20_" class="st15" d="M176.1,49.8c0.1,0,0.2,0,0.3,0c-0.1-0.1-0.2-0.1-0.3-0.2c-0.1,0.1-0.2,0.1-0.3,0.2
			C175.9,49.8,176,49.8,176.1,49.8z"/>
	</g>
</g>
<g id="XMLID_1_">
	<path id="XMLID_16_" class="st7" d="M145.7,72.9v-1.3c0.3,0.2,0.7,0.5,1.4,0.5c0.9,0,1.4-0.4,1.4-1.1c0-0.6-0.3-1-1.4-1
		c-0.5,0-0.9,0.1-1.2,0.3l0.1-4.3h3.5v1.2h-2.5l0,1.7c0.1,0,0.4-0.1,0.5-0.1c1.4,0,2.2,0.7,2.2,2.1c0,1.5-1.1,2.4-2.6,2.4
		C146.4,73.2,146,73.1,145.7,72.9z"/>
	<path id="XMLID_14_" class="st7" d="M150.8,67.3h1.2l0.1,0.5c0.2-0.4,0.7-0.7,1.3-0.7c0.8,0,1.3,0.3,1.5,0.8
		c0.2-0.4,0.7-0.8,1.5-0.8c1.3,0,1.8,0.8,1.8,2.3v3.6H157v-3.3c0-1.1-0.2-1.6-0.9-1.6c-0.5,0-0.9,0.3-1,0.6c0,0.2,0,0.5,0,0.7v3.6
		h-1.2v-3.3c0-1.1-0.2-1.6-0.9-1.6c-0.5,0-0.8,0.3-1,0.6v4.3h-1.2V67.3z"/>
	<path id="XMLID_11_" class="st7" d="M159.2,74.7v-1.1c0.4,0.4,1.2,0.6,2.2,0.6c1.2,0,1.8-0.2,1.8-0.7c0-0.4-0.4-0.6-1.2-0.6
		c-0.7,0-1.9,0.2-2.2,0.4v-1l0.7-1.3c-0.7-0.3-1.2-0.9-1.2-1.8c0-1.3,0.9-2,2.2-2c0.6,0,1.1,0.1,1.4,0.4c0.2-0.3,0.6-0.4,1-0.4
		c0.1,0,0.3,0,0.4,0.1v1.1c-0.1,0-0.2-0.1-0.3-0.1c-0.2,0-0.4,0.1-0.5,0.2c0.1,0.2,0.1,0.5,0.1,0.8c0,1.3-0.9,2-2.2,2h-0.2l-0.4,0.9
		c0.2-0.1,0.8-0.2,1.4-0.2c1.3,0,2.1,0.4,2.1,1.5c0,1.1-1,1.9-2.9,1.9C160.4,75.3,159.6,75,159.2,74.7z M162.4,69.1c0-0.6-0.4-1-1-1
		c-0.6,0-1,0.4-1,1c0,0.6,0.4,1,1,1C162,70.1,162.4,69.8,162.4,69.1z"/>
	<path id="XMLID_7_" class="st7" d="M167.4,66h1.9c1.8,0,2.5,0.6,2.5,1.8c0,1-0.5,1.5-1.2,1.7v0c0.8,0.1,1.3,0.5,1.3,1.7
		c0,1.1-0.7,2-2.6,2h-2V66z M169.3,68.9c1,0,1.2-0.4,1.2-1s-0.4-0.8-1.2-0.8h-0.7v1.8H169.3z M169.4,71.9c1,0,1.3-0.4,1.3-1
		c0-0.6-0.3-1-1.3-1h-0.8v2H169.4z"/>
	<path id="XMLID_5_" class="st7" d="M173.1,66h1.3v7.1h-1.3V66z"/>
	<path id="XMLID_2_" class="st7" d="M175.7,66h1.8c2.2,0,3.5,1,3.5,3.6s-1.6,3.6-3.5,3.6h-1.8V66z M177.6,71.9
		c1.7,0,2.2-0.7,2.2-2.3c0-1.6-0.5-2.4-2.2-2.4H177v4.7H177.6z"/>
</g>
</svg>
