<!-- Generator: Adobe Illustrator 22.1.0, SVG Export Plug-In  -->
<svg version="1.1"
	 xmlns="http://www.w3.org/2000/svg" xmlns:xlink="http://www.w3.org/1999/xlink" xmlns:a="http://ns.adobe.com/AdobeSVGViewerExtensions/3.0/"
	 x="0px" y="0px" width="817px" height="36.3px" viewBox="0 0 817 36.3" style="enable-background:new 0 0 817 36.3;"
	 xml:space="preserve">
<style type="text/css">
	.st0{fill:#490E67;}
	.st1{fill:#C29FD8;}
</style>
<defs>
</defs>
<g id="XMLID_46_">
	<g id="XMLID_48_">
		<path id="XMLID_197_" d="M169.6,27.4v-3c0.6,0.7,1.8,1.4,3.3,1.4c1.4,0,2-0.5,2-1.4c0-0.7-0.5-1-1.7-1.3l-0.5-0.1
			c-2-0.4-3.3-1.5-3.3-3.8c0-2.5,1.8-4,4.7-4c1.9,0,2.9,0.5,3.4,0.9v3c-0.6-0.8-1.8-1.4-3.4-1.4c-1.1,0-1.8,0.4-1.8,1.2
			c0,0.7,0.3,1.1,1.5,1.3l0.5,0.1c2.1,0.4,3.5,1.3,3.5,3.7c0,2.5-1.7,4.2-5,4.2C171.1,28.3,170.1,27.8,169.6,27.4z"/>
		<path id="XMLID_195_" d="M179.7,14.2h3v4.4c0.5-0.6,1.4-1,2.6-1c2.6,0,3.6,1.4,3.6,4.1V28h-3v-5.8c0-1.7-0.4-2.3-1.5-2.3
			c-0.9,0-1.4,0.4-1.7,0.8V28h-3V14.2z"/>
		<path id="XMLID_192_" d="M190.4,22.9c0-3.7,2.4-5.4,5.2-5.4c2.9,0,5,1.6,5,5.4c0,3.8-2.4,5.4-5.2,5.4
			C192.5,28.3,190.4,26.6,190.4,22.9z M197.6,22.9c0-1.8-0.6-2.9-2.1-2.9c-1.4,0-2,1.2-2,2.9c0,1.8,0.6,2.9,2,2.9
			C196.9,25.8,197.6,24.7,197.6,22.9z"/>
		<path id="XMLID_190_" d="M201.4,17.8h3l1.3,5.4l2-5.4h1.1l2.1,5.4l1.3-5.4h2.8L212.2,28h-1.8l-2.2-5.5l-2.2,5.5h-1.8L201.4,17.8z"
			/>
		<path id="XMLID_188_" d="M216.3,17.8h2.6l0.2,0.9c0.4-0.7,1.3-1.2,2.7-1.2c2.6,0,3.7,1.4,3.7,4.1V28h-3v-5.8
			c0-1.7-0.4-2.3-1.5-2.3c-0.9,0-1.4,0.4-1.7,0.8V28h-3V17.8z"/>
		<path id="XMLID_186_" d="M232.4,25v-4.9h-1.2v-1.1l1-1.3l1.8-2.4h1.4v2.4h2.4v2.3h-2.4v4.6c0,0.7,0.2,1.1,0.9,1.1
			c0.7,0,1.2-0.3,1.5-0.9v2.4c-0.3,0.4-1,0.8-2.3,0.8C233.3,28.3,232.4,27.1,232.4,25z"/>
		<path id="XMLID_183_" d="M238.9,22.9c0-3.7,2.4-5.4,5.2-5.4c2.9,0,5,1.6,5,5.4c0,3.8-2.4,5.4-5.2,5.4
			C240.9,28.3,238.9,26.6,238.9,22.9z M246,22.9c0-1.8-0.6-2.9-2.1-2.9c-1.4,0-2,1.2-2,2.9c0,1.8,0.6,2.9,2,2.9
			C245.4,25.8,246,24.7,246,22.9z"/>
		<path id="XMLID_181_" d="M255.2,15.5h3.1V28h-3.1V15.5z"/>
		<path id="XMLID_179_" d="M260.5,17.8h2.7l0.2,0.9c0.4-0.7,1.4-1.2,2.5-1.2c1.4,0,2.4,0.5,2.9,1.4c0.5-0.7,1.5-1.4,3-1.4
			c2.5,0,3.4,1.4,3.4,4.1V28h-3v-5.8c0-1.6-0.4-2.2-1.4-2.2c-0.7,0-1.3,0.4-1.6,0.8c0.1,0.3,0.1,0.6,0.1,0.9V28h-3v-5.8
			c0-1.6-0.4-2.2-1.3-2.2c-0.8,0-1.3,0.4-1.5,0.8V28h-3V17.8z"/>
		<path id="XMLID_176_" d="M277.3,17.8h2.6l0.2,0.9c0.3-0.6,1.2-1.2,2.7-1.2c2.5,0,4.1,1.4,4.1,5.1c0,3.7-2,5.6-4.5,5.6
			c-0.8,0-1.7-0.2-2.2-0.7v3.9h-3V17.8z M283.9,22.8c0-1.8-0.5-2.8-1.9-2.8c-0.9,0-1.4,0.3-1.7,0.8v4.6c0.4,0.5,1,0.6,1.6,0.6
			C283.3,25.9,283.9,24.5,283.9,22.8z"/>
		<path id="XMLID_174_" d="M288.6,17.8h2.5l0.2,1.3c0.1-1.1,1-1.6,2-1.6c0.5,0,0.9,0.1,1,0.3v2.7c-0.3-0.2-0.6-0.3-1.2-0.3
			c-0.7,0-1.2,0.3-1.5,0.8V28h-3V17.8z"/>
		<path id="XMLID_171_" d="M295.1,22.9c0-3.7,2.4-5.4,5.2-5.4c2.9,0,5,1.6,5,5.4c0,3.8-2.4,5.4-5.2,5.4
			C297.1,28.3,295.1,26.6,295.1,22.9z M302.2,22.9c0-1.8-0.6-2.9-2.1-2.9c-1.4,0-2,1.2-2,2.9c0,1.8,0.6,2.9,2,2.9
			C301.6,25.8,302.2,24.7,302.2,22.9z"/>
		<path id="XMLID_169_" d="M305.9,17.8h3.2l1.6,4.8l0.3,1.1c0.1-0.3,0.3-0.8,0.3-1.1l1.7-4.8h2.9L311.9,28h-2L305.9,17.8z"/>
		<path id="XMLID_166_" d="M316.6,22.9c0-3.7,2.4-5.4,4.9-5.4c2.4,0,4.7,1,4.7,4.9v1.3h-6.5c0.1,1.1,0.8,2.1,2.7,2.1
			c1.7,0,2.7-0.6,3.3-1.2v2.5c-0.5,0.5-1.7,1.1-3.8,1.1C318.6,28.3,316.6,26.6,316.6,22.9z M323.3,21.9L323.3,21.9
			c0-1.3-0.5-2-1.8-2c-1.2,0-1.8,1-1.9,2H323.3z"/>
		<path id="XMLID_162_" d="M332.3,15.5h4.2c3.6,0,5.1,1.1,5.1,3.2c0,1.8-1,2.6-2.3,2.9v0c1.4,0.2,2.5,0.9,2.5,2.9
			c0,2.1-1.4,3.5-5.1,3.5h-4.3V15.5z M336.7,20.5c1.5,0,1.9-0.5,1.9-1.4c0-0.9-0.6-1.2-1.9-1.2h-1.3v2.6H336.7z M336.8,25.6
			c1.5,0,2-0.5,2-1.4s-0.5-1.4-2-1.4h-1.4v2.8H336.8z"/>
		<path id="XMLID_159_" d="M343,22.9c0-3.7,2.4-5.4,5.2-5.4c2.9,0,5,1.6,5,5.4c0,3.8-2.4,5.4-5.2,5.4C345,28.3,343,26.6,343,22.9z
			 M350.1,22.9c0-1.8-0.6-2.9-2.1-2.9c-1.4,0-2,1.2-2,2.9c0,1.8,0.6,2.9,2,2.9C349.5,25.8,350.1,24.7,350.1,22.9z"/>
		<path id="XMLID_157_" d="M355.3,25v-4.9h-1.2v-1.1l1-1.3l1.8-2.4h1.4v2.4h2.4v2.3h-2.4v4.6c0,0.7,0.2,1.1,0.9,1.1
			c0.7,0,1.2-0.3,1.5-0.9v2.4c-0.3,0.4-1,0.8-2.3,0.8C356.1,28.3,355.3,27.1,355.3,25z"/>
		<path id="XMLID_155_" d="M362.2,14.2h3v4.4c0.5-0.6,1.4-1,2.6-1c2.6,0,3.6,1.4,3.6,4.1V28h-3v-5.8c0-1.7-0.4-2.3-1.5-2.3
			c-0.9,0-1.4,0.4-1.7,0.8V28h-3V14.2z"/>
		<path id="XMLID_153_" d="M378,15.5h4.2c3.7,0,5.3,1.5,5.3,4.2c0,2.7-1.6,4.7-5.3,4.7h-0.6v-2.2h0.5c1.5,0,2.2-0.8,2.2-2.2
			c0-1.4-0.7-2.1-2.3-2.1h-1V28h-3V15.5z"/>
		<path id="XMLID_150_" d="M388.4,22.9c0-3.7,2.4-5.4,5.2-5.4c2.9,0,5,1.6,5,5.4c0,3.8-2.4,5.4-5.2,5.4
			C390.4,28.3,388.4,26.6,388.4,22.9z M395.5,22.9c0-1.8-0.6-2.9-2.1-2.9c-1.4,0-2,1.2-2,2.9c0,1.8,0.6,2.9,2,2.9
			C394.9,25.8,395.5,24.7,395.5,22.9z"/>
		<path id="XMLID_148_" d="M399.9,27.4v-2.7c0.6,0.6,1.6,1.1,3,1.1c1.3,0,1.7-0.4,1.7-0.9c0-0.5-0.2-0.7-1.4-0.9l-0.5-0.1
			c-2.1-0.3-3-1.3-3-3.1c0-1.8,1.2-3.3,4.2-3.3c1.5,0,2.6,0.4,3.2,0.8V21c-0.6-0.7-1.7-1.1-3.1-1.1c-1.2,0-1.6,0.3-1.6,0.9
			s0.2,0.8,1.3,0.9l0.5,0.1c2.2,0.3,3.2,1.1,3.2,3c0,1.7-1.2,3.5-4.4,3.5C401.5,28.3,400.5,27.9,399.9,27.4z"/>
		<path id="XMLID_145_" d="M409,15.4c0-0.9,0.6-1.4,1.5-1.4c0.9,0,1.6,0.5,1.6,1.4c0,0.9-0.6,1.4-1.6,1.4
			C409.6,16.8,409,16.3,409,15.4z M409,17.8h3V28h-3V17.8z"/>
		<path id="XMLID_143_" d="M414.7,25v-4.9h-1.2v-1.1l1-1.3l1.8-2.4h1.4v2.4h2.4v2.3h-2.4v4.6c0,0.7,0.2,1.1,0.9,1.1
			c0.7,0,1.2-0.3,1.5-0.9v2.4c-0.3,0.4-1,0.8-2.3,0.8C415.5,28.3,414.7,27.1,414.7,25z"/>
		<path id="XMLID_140_" d="M421.5,15.4c0-0.9,0.6-1.4,1.5-1.4c0.9,0,1.6,0.5,1.6,1.4c0,0.9-0.6,1.4-1.6,1.4
			C422.1,16.8,421.5,16.3,421.5,15.4z M421.6,17.8h3V28h-3V17.8z"/>
		<path id="XMLID_138_" d="M425.7,17.8h3.2l1.6,4.8l0.3,1.1c0.1-0.3,0.3-0.8,0.3-1.1l1.7-4.8h2.9L431.7,28h-2L425.7,17.8z"/>
		<path id="XMLID_135_" d="M436.4,22.9c0-3.7,2.4-5.4,4.9-5.4c2.4,0,4.7,1,4.7,4.9v1.3h-6.5c0.1,1.1,0.8,2.1,2.7,2.1
			c1.7,0,2.7-0.6,3.3-1.2v2.5c-0.5,0.5-1.7,1.1-3.8,1.1C438.4,28.3,436.4,26.6,436.4,22.9z M443.1,21.9L443.1,21.9
			c0-1.3-0.5-2-1.8-2c-1.2,0-1.8,1-1.9,2H443.1z"/>
		<path id="XMLID_132_" d="M451.5,25.3c0-2,1.4-2.9,4.2-3.3l1.5-0.2c0-1.4-0.7-1.8-2-1.8c-1.4,0-2.8,0.7-3.3,1.8v-2.8
			c0.4-0.6,1.5-1.3,3.8-1.3c2.9,0,4.5,1.3,4.5,4.3V28h-2.6l-0.2-0.9c-0.3,0.5-1.1,1.1-2.5,1.1C452.9,28.3,451.5,27.3,451.5,25.3z
			 M457.2,23.6l-1.1,0.3c-1.3,0.3-1.8,0.6-1.8,1.3c0,0.7,0.5,1,1.2,1c0.8,0,1.5-0.3,1.7-0.7V23.6z"/>
		<path id="XMLID_130_" d="M462.2,17.8h2.6l0.2,0.9c0.4-0.7,1.3-1.2,2.7-1.2c2.6,0,3.7,1.4,3.7,4.1V28h-3v-5.8
			c0-1.7-0.4-2.3-1.5-2.3c-0.9,0-1.4,0.4-1.7,0.8V28h-3V17.8z"/>
		<path id="XMLID_127_" d="M473,23c0-3.7,1.8-5.5,4.5-5.5c0.8,0,1.7,0.2,2.2,0.6v-4h3V28H480l-0.2-0.9c-0.3,0.6-1.2,1.2-2.6,1.2
			C474.7,28.3,473,26.7,473,23z M479.6,20.5c-0.4-0.5-1-0.7-1.6-0.7c-1.4,0-2,1.4-2,3.2c0,1.8,0.5,2.8,1.9,2.8
			c0.9,0,1.4-0.3,1.7-0.8V20.5z"/>
		<path id="XMLID_125_" d="M489.3,16.6l-0.8-1.1h3.6l5,7.3h0.1v-7.3h2.7V28h-2.4l-5.4-7.8h0V28h-2.7V16.6z"/>
		<path id="XMLID_122_" d="M501.7,22.9c0-3.7,2.4-5.4,4.9-5.4c2.4,0,4.7,1,4.7,4.9v1.3h-6.5c0.1,1.1,0.8,2.1,2.7,2.1
			c1.7,0,2.7-0.6,3.3-1.2v2.5c-0.5,0.5-1.7,1.1-3.8,1.1C503.6,28.3,501.7,26.6,501.7,22.9z M508.4,21.9L508.4,21.9
			c0-1.3-0.5-2-1.8-2c-1.2,0-1.8,1-1.9,2H508.4z"/>
		<path id="XMLID_119_" d="M512.4,30.9v-2.2c1,0.6,2.2,0.9,4.3,0.9c2.4,0,3.4-0.3,3.4-1c0-0.6-0.6-0.8-2.1-0.8
			c-1.5,0-3.8,0.3-4.5,0.7v-2l1.4-2.1c-1.5-0.5-2.4-1.6-2.4-3.2c0-2.2,1.8-3.6,4.5-3.6c1.2,0,2.2,0.3,2.9,0.7
			c0.3-0.5,1.1-0.8,1.9-0.8c0.3,0,0.6,0,0.9,0.1v2.3c-0.2-0.1-0.4-0.2-0.7-0.2c-0.3,0-0.7,0.1-0.9,0.3c0.1,0.3,0.2,0.7,0.2,1.1
			c0,2.2-1.8,3.5-4.5,3.5h-0.2l-0.8,1.3c0.4-0.1,1.6-0.3,2.6-0.3c2.5,0,4.2,0.6,4.2,2.8c0,2.2-2,3.5-5.8,3.5
			C514.8,31.8,513.2,31.4,512.4,30.9z M518.5,21.1c0-0.9-0.6-1.4-1.6-1.4c-1,0-1.6,0.5-1.6,1.4s0.6,1.4,1.6,1.4
			C517.9,22.4,518.5,22,518.5,21.1z"/>
		<path id="XMLID_116_" d="M523.4,25.3c0-2,1.4-2.9,4.2-3.3l1.5-0.2c0-1.4-0.7-1.8-2-1.8c-1.4,0-2.8,0.7-3.3,1.8v-2.8
			c0.4-0.6,1.5-1.3,3.8-1.3c2.9,0,4.5,1.3,4.5,4.3V28h-2.6l-0.2-0.9c-0.3,0.5-1.1,1.1-2.5,1.1C524.8,28.3,523.4,27.3,523.4,25.3z
			 M529.1,23.6l-1.1,0.3c-1.3,0.3-1.8,0.6-1.8,1.3c0,0.7,0.5,1,1.2,1c0.8,0,1.5-0.3,1.7-0.7V23.6z"/>
		<path id="XMLID_114_" d="M534.6,25v-4.9h-1.2v-1.1l1-1.3l1.8-2.4h1.4v2.4h2.4v2.3h-2.4v4.6c0,0.7,0.2,1.1,0.9,1.1
			c0.7,0,1.2-0.3,1.5-0.9v2.4c-0.3,0.4-1,0.8-2.3,0.8C535.5,28.3,534.6,27.1,534.6,25z"/>
		<path id="XMLID_111_" d="M541.5,15.4c0-0.9,0.6-1.4,1.5-1.4c0.9,0,1.6,0.5,1.6,1.4c0,0.9-0.6,1.4-1.6,1.4
			C542.1,16.8,541.5,16.3,541.5,15.4z M541.5,17.8h3V28h-3V17.8z"/>
		<path id="XMLID_109_" d="M545.6,17.8h3.2l1.6,4.8l0.3,1.1c0.1-0.3,0.3-0.8,0.3-1.1l1.7-4.8h2.9L551.7,28h-2L545.6,17.8z"/>
		<path id="XMLID_106_" d="M556.3,22.9c0-3.7,2.4-5.4,4.9-5.4c2.4,0,4.7,1,4.7,4.9v1.3h-6.5c0.1,1.1,0.8,2.1,2.7,2.1
			c1.7,0,2.7-0.6,3.3-1.2v2.5c-0.5,0.5-1.7,1.1-3.8,1.1C558.3,28.3,556.3,26.6,556.3,22.9z M563.1,21.9L563.1,21.9
			c0-1.3-0.5-2-1.8-2c-1.2,0-1.8,1-1.9,2H563.1z"/>
		<path id="XMLID_104_" d="M571.7,27.4v-3c0.6,0.7,1.8,1.4,3.3,1.4c1.4,0,2-0.5,2-1.4c0-0.7-0.5-1-1.7-1.3l-0.5-0.1
			c-2-0.4-3.3-1.5-3.3-3.8c0-2.5,1.8-4,4.7-4c1.9,0,2.9,0.5,3.4,0.9v3c-0.6-0.8-1.8-1.4-3.4-1.4c-1.1,0-1.8,0.4-1.8,1.2
			c0,0.7,0.3,1.1,1.5,1.3l0.5,0.1c2.1,0.4,3.5,1.3,3.5,3.7c0,2.5-1.7,4.2-5,4.2C573.2,28.3,572.1,27.8,571.7,27.4z"/>
		<path id="XMLID_102_" d="M581.2,31.2v-2.4c0.4,0.4,1.1,0.7,1.7,0.7c0.7,0,1.3-0.2,1.8-1.3l-4-10.4h3.3l2.1,6.6l1.8-6.6h2.9
			l-2.8,9.6c-0.7,2.5-2,4.4-4.7,4.4C582.3,31.8,581.6,31.5,581.2,31.2z"/>
		<path id="XMLID_100_" d="M591.9,17.8h2.7l0.2,0.9c0.4-0.7,1.4-1.2,2.5-1.2c1.4,0,2.4,0.5,2.9,1.4c0.5-0.7,1.5-1.4,3-1.4
			c2.5,0,3.4,1.4,3.4,4.1V28h-3v-5.8c0-1.6-0.4-2.2-1.4-2.2c-0.7,0-1.3,0.4-1.6,0.8c0.1,0.3,0.1,0.6,0.1,0.9V28h-3v-5.8
			c0-1.6-0.4-2.2-1.3-2.2c-0.8,0-1.3,0.4-1.5,0.8V28h-3V17.8z"/>
		<path id="XMLID_97_" d="M608.6,17.8h2.6l0.2,0.9c0.3-0.6,1.2-1.2,2.7-1.2c2.5,0,4.1,1.4,4.1,5.1c0,3.7-2,5.6-4.5,5.6
			c-0.8,0-1.7-0.2-2.2-0.7v3.9h-3V17.8z M615.2,22.8c0-1.8-0.5-2.8-1.9-2.8c-0.9,0-1.4,0.3-1.7,0.8v4.6c0.4,0.5,1,0.6,1.6,0.6
			C614.7,25.9,615.2,24.5,615.2,22.8z"/>
		<path id="XMLID_95_" d="M620.4,25v-4.9h-1.2v-1.1l1-1.3l1.8-2.4h1.4v2.4h2.4v2.3h-2.4v4.6c0,0.7,0.2,1.1,0.9,1.1
			c0.7,0,1.2-0.3,1.5-0.9v2.4c-0.3,0.4-1,0.8-2.3,0.8C621.3,28.3,620.4,27.1,620.4,25z"/>
		<path id="XMLID_92_" d="M626.9,22.9c0-3.7,2.4-5.4,5.2-5.4c2.9,0,5,1.6,5,5.4c0,3.8-2.4,5.4-5.2,5.4
			C628.9,28.3,626.9,26.6,626.9,22.9z M634,22.9c0-1.8-0.6-2.9-2.1-2.9c-1.4,0-2,1.2-2,2.9c0,1.8,0.6,2.9,2,2.9
			C633.4,25.8,634,24.7,634,22.9z"/>
		<path id="XMLID_90_" d="M638.7,17.8h2.7l0.2,0.9c0.4-0.7,1.4-1.2,2.5-1.2c1.4,0,2.4,0.5,2.9,1.4c0.5-0.7,1.5-1.4,3-1.4
			c2.5,0,3.4,1.4,3.4,4.1V28h-3v-5.8c0-1.6-0.4-2.2-1.4-2.2c-0.7,0-1.3,0.4-1.6,0.8c0.1,0.3,0.1,0.6,0.1,0.9V28h-3v-5.8
			c0-1.6-0.4-2.2-1.3-2.2c-0.8,0-1.3,0.4-1.5,0.8V28h-3V17.8z"/>
		<path id="XMLID_88_" d="M655.2,27.4v-2.7c0.6,0.6,1.6,1.1,3,1.1c1.3,0,1.7-0.4,1.7-0.9c0-0.5-0.2-0.7-1.4-0.9L658,24
			c-2.1-0.3-3-1.3-3-3.1c0-1.8,1.2-3.3,4.2-3.3c1.5,0,2.6,0.4,3.2,0.8V21c-0.6-0.7-1.7-1.1-3.1-1.1c-1.2,0-1.6,0.3-1.6,0.9
			s0.2,0.8,1.3,0.9l0.5,0.1c2.2,0.3,3.2,1.1,3.2,3c0,1.7-1.2,3.5-4.4,3.5C656.8,28.3,655.7,27.9,655.2,27.4z"/>
		<path id="XMLID_85_" d="M668.2,22.9c0-3.7,2.4-5.4,5.2-5.4c2.9,0,5,1.6,5,5.4c0,3.8-2.4,5.4-5.2,5.4
			C670.3,28.3,668.2,26.6,668.2,22.9z M675.4,22.9c0-1.8-0.6-2.9-2.1-2.9c-1.4,0-2,1.2-2,2.9c0,1.8,0.6,2.9,2,2.9
			C674.7,25.8,675.4,24.7,675.4,22.9z"/>
		<path id="XMLID_83_" d="M680.5,20.2h-1.2v-1l1.1-1c-0.2-0.3-0.3-0.8-0.3-1.5c0-1.9,1.7-2.9,3.6-2.9c1.4,0,2.2,0.3,2.5,0.6v2.5
			c-0.4-0.5-1.1-0.8-1.8-0.8c-0.9,0-1.3,0.3-1.3,1c0,0.3,0.1,0.6,0.2,0.7h2v2.3h-1.8V28h-3V20.2z"/>
		<path id="XMLID_81_" d="M690.9,27.4v-3c0.6,0.7,1.8,1.4,3.3,1.4c1.4,0,2-0.5,2-1.4c0-0.7-0.5-1-1.7-1.3l-0.5-0.1
			c-2-0.4-3.3-1.5-3.3-3.8c0-2.5,1.8-4,4.7-4c1.9,0,2.9,0.5,3.4,0.9v3c-0.6-0.8-1.8-1.4-3.4-1.4c-1.1,0-1.8,0.4-1.8,1.2
			c0,0.7,0.3,1.1,1.5,1.3l0.5,0.1c2.1,0.4,3.5,1.3,3.5,3.7c0,2.5-1.7,4.2-5,4.2C692.4,28.3,691.4,27.8,690.9,27.4z"/>
		<path id="XMLID_79_" d="M700.4,22.9c0-3.7,2.3-5.4,5.1-5.4c1.5,0,2.6,0.4,3,0.9v2.7c-0.7-0.7-1.4-1-2.6-1c-1.6,0-2.4,1-2.4,2.8
			c0,1.8,0.9,2.8,2.4,2.8c1.1,0,2-0.4,2.6-1.1v2.6c-0.5,0.5-1.6,1.1-3.1,1.1C702.5,28.3,700.4,26.6,700.4,22.9z"/>
		<path id="XMLID_77_" d="M710.2,14.2h3v4.4c0.5-0.6,1.4-1,2.6-1c2.6,0,3.6,1.4,3.6,4.1V28h-3v-5.8c0-1.7-0.4-2.3-1.5-2.3
			c-0.9,0-1.4,0.4-1.7,0.8V28h-3V14.2z"/>
		<path id="XMLID_74_" d="M721.4,15.4c0-0.9,0.6-1.4,1.5-1.4c0.9,0,1.6,0.5,1.6,1.4c0,0.9-0.6,1.4-1.6,1.4
			C722,16.8,721.4,16.3,721.4,15.4z M721.5,17.8h3V28h-3V17.8z"/>
		<path id="XMLID_72_" d="M726.1,27.1l4.3-6.9h-4.2v-2.3h7.9v0.9l-4.1,6.9h4.1V28h-8V27.1z"/>
		<path id="XMLID_69_" d="M735.2,22.9c0-3.7,2.4-5.4,5.2-5.4c2.9,0,5,1.6,5,5.4c0,3.8-2.4,5.4-5.2,5.4
			C737.2,28.3,735.2,26.6,735.2,22.9z M742.3,22.9c0-1.8-0.6-2.9-2.1-2.9c-1.4,0-2,1.2-2,2.9c0,1.8,0.6,2.9,2,2.9
			C741.7,25.8,742.3,24.7,742.3,22.9z"/>
		<path id="XMLID_66_" d="M747,17.8h2.6l0.2,0.9c0.3-0.6,1.2-1.2,2.7-1.2c2.5,0,4.1,1.4,4.1,5.1c0,3.7-2,5.6-4.5,5.6
			c-0.8,0-1.7-0.2-2.2-0.7v3.9h-3V17.8z M753.6,22.8c0-1.8-0.5-2.8-1.9-2.8c-0.9,0-1.4,0.3-1.7,0.8v4.6c0.4,0.5,1,0.6,1.6,0.6
			C753,25.9,753.6,24.5,753.6,22.8z"/>
		<path id="XMLID_64_" d="M758.3,14.2h3v4.4c0.5-0.6,1.4-1,2.6-1c2.6,0,3.6,1.4,3.6,4.1V28h-3v-5.8c0-1.7-0.4-2.3-1.5-2.3
			c-0.9,0-1.4,0.4-1.7,0.8V28h-3V14.2z"/>
		<path id="XMLID_62_" d="M769.5,17.8h2.5l0.2,1.3c0.1-1.1,1-1.6,2-1.6c0.5,0,0.9,0.1,1,0.3v2.7c-0.3-0.2-0.6-0.3-1.2-0.3
			c-0.7,0-1.2,0.3-1.5,0.8V28h-3V17.8z"/>
		<path id="XMLID_59_" d="M776,22.9c0-3.7,2.4-5.4,4.9-5.4c2.4,0,4.7,1,4.7,4.9v1.3h-6.5c0.1,1.1,0.8,2.1,2.7,2.1
			c1.7,0,2.7-0.6,3.3-1.2v2.5c-0.5,0.5-1.7,1.1-3.8,1.1C778,28.3,776,26.6,776,22.9z M782.8,21.9L782.8,21.9c0-1.3-0.5-2-1.8-2
			c-1.2,0-1.8,1-1.9,2H782.8z"/>
		<path id="XMLID_57_" d="M787.2,17.8h2.6l0.2,0.9c0.4-0.7,1.3-1.2,2.7-1.2c2.6,0,3.7,1.4,3.7,4.1V28h-3v-5.8c0-1.7-0.4-2.3-1.5-2.3
			c-0.9,0-1.4,0.4-1.7,0.8V28h-3V17.8z"/>
		<path id="XMLID_54_" d="M798.4,15.4c0-0.9,0.6-1.4,1.5-1.4c0.9,0,1.6,0.5,1.6,1.4c0,0.9-0.6,1.4-1.6,1.4
			C799,16.8,798.4,16.3,798.4,15.4z M798.4,17.8h3V28h-3V17.8z"/>
		<path id="XMLID_51_" d="M803.1,25.3c0-2,1.4-2.9,4.2-3.3l1.5-0.2c0-1.4-0.7-1.8-2-1.8c-1.4,0-2.8,0.7-3.3,1.8v-2.8
			c0.4-0.6,1.5-1.3,3.8-1.3c2.9,0,4.5,1.3,4.5,4.3V28h-2.6l-0.2-0.9c-0.3,0.5-1.1,1.1-2.5,1.1C804.5,28.3,803.1,27.3,803.1,25.3z
			 M808.8,23.6l-1.1,0.3c-1.3,0.3-1.8,0.6-1.8,1.3c0,0.7,0.5,1,1.2,1c0.8,0,1.5-0.3,1.7-0.7V23.6z"/>
		<path id="XMLID_49_" d="M813.4,26.4c0-1,0.7-1.8,1.8-1.8c1,0,1.8,0.8,1.8,1.8c0,1-0.8,1.8-1.8,1.8
			C814.2,28.3,813.4,27.5,813.4,26.4z"/>
	</g>
</g>
<g id="XMLID_1_">
	<path id="XMLID_45_" class="st0" d="M14.2,23.5h11.7c1.8,0,2.6-0.4,2.6-1.2c0-0.9-0.6-1.1-1.8-1.2c-5.6-0.5-7.1-2-7.1-5.6
		c0-3.6,2.3-6,7.7-6c3.2,0,4.7,0.4,5.9,0.9V15c-1.6-0.7-3.6-1.1-5.7-1.1c-1.6,0-2.5,0.4-2.5,1.2c0,0.9,0.6,1.1,1.8,1.2
		c5.6,0.5,7.1,2,7.1,5.6c0,3.4-2,6-8,6H15.2"/>
	<path id="XMLID_42_" class="st0" d="M40.4,20.6c-0.1,2.3,1.1,3,3.8,3c2.6,0,4.6-0.5,5.9-1.2v4.4c-2,0.8-4.5,1.2-6.6,1.2
		c-5.8,0-8.6-3-8.6-9.3c0-6.3,2.8-9.3,8.2-9.3c7.5,0,8.1,5.6,7.6,11.2H40.4z M40.4,17.1h5c0.3-1.9-0.1-3.5-2.3-3.5
		C41.2,13.6,40.4,14.9,40.4,17.1"/>
	<path id="XMLID_41_" class="st0" d="M55.7,9.9l0.7,1.3c2-1.2,4.2-1.8,6.1-1.8c4.8,0,6.2,2.5,6.2,5.9v12.2h-5.6V16.2
		c0-1.3-0.5-2.2-2-2.2c-1.4,0-2.6,0.6-3.1,0.9v12.6h-5.6V9.9H55.7z"/>
	<path id="XMLID_38_" class="st0" d="M79.6,15.2c0-0.8-0.6-1.2-2.1-1.2c-2.2,0-4.8,0.7-6.3,1.3v-4.7c1.2-0.5,3.8-1.2,6.3-1.2
		c6.3,0,7.5,2.7,7.5,6.7v11.4h-3.4l-0.8-1.3c-1.3,1.1-3.1,1.8-5.2,1.8c-4.5,0-6-3-6-5.6c0-4.8,3.5-5.5,6.7-5.8l3.2-0.3V15.2z
		 M77.3,19.7c-1.6,0.2-2.2,1-2.2,2.4c0,1.3,0.8,2.1,2,2.1c1,0,2-0.3,2.5-0.8v-3.9L77.3,19.7z"/>
	<path id="XMLID_35_" class="st0" d="M90.4,9.9l1,1.4c1.2-1.1,2.9-1.9,5.7-1.9c4.6,0,6.8,2.8,6.8,9.3c0,6.5-2.3,9.3-6.8,9.3
		c-1.9,0-3.3-0.5-4.4-1.1v9.4H87V9.9H90.4z M92.6,22.7c0,0,1.1,0.7,2.5,0.7c2.6,0,3.2-1.8,3.2-4.8c0-3-0.6-4.7-3.2-4.7
		c-1.4,0-2.5,0.7-2.5,0.7V22.7z"/>
	<path id="XMLID_34_" class="st0" d="M112.4,27.6c0,0-0.7,0.1-1.6,0.1c-3,0-5.4-1.5-5.4-5V9.9h5.6V22c0,0.7,0.3,1.1,1.4,1.1V27.6z"
		/>
	<path id="XMLID_33_" class="st0" d="M117.1,9.9l0.7,1.3c2-1.2,4.2-1.8,6.1-1.8c4.8,0,6.2,2.5,6.2,5.9v12.2h-5.6V16.2
		c0-1.3-0.5-2.2-2-2.2c-1.4,0-2.6,0.6-3.1,0.9v12.6h-5.6V9.9H117.1z"/>
	<path id="XMLID_30_" class="st0" d="M136.9,20.6c-0.1,2.3,1.1,3,3.8,3c2.6,0,4.6-0.5,5.9-1.2v4.4c-2,0.8-4.5,1.2-6.6,1.2
		c-5.8,0-8.6-3-8.6-9.3c0-6.3,2.8-9.3,8.2-9.3c7.5,0,8.1,5.6,7.6,11.2H136.9z M136.9,17.1h5c0.3-1.9-0.1-3.5-2.3-3.5
		C137.7,13.6,136.9,14.9,136.9,17.1"/>
	<polyline id="XMLID_29_" class="st0" points="8.3,22.1 9.4,17.6 12.8,17.6 10.6,7.6 8.3,17.6 7.2,22.1 6,27.5 0,27.5 7.3,0.9 
		13.8,0.9 21.1,27.5 15.1,27.5 13.9,22.1 	"/>
	<g id="XMLID_7_">
		<polygon id="XMLID_28_" class="st0" points="98.2,36 98.2,32.8 94.9,32.8 94.9,36 94.3,36 94.3,29.4 94.9,29.4 94.9,32.3 
			98.2,32.3 98.2,29.4 98.8,29.4 98.8,36 		"/>
		<path id="XMLID_25_" class="st0" d="M100.5,29.8c0.2,0,0.4,0.2,0.4,0.4c0,0.2-0.2,0.4-0.4,0.4c-0.2,0-0.4-0.2-0.4-0.4
			C100,30,100.2,29.8,100.5,29.8 M100.2,35.1v-3.5h0.6v3.6c0,0.3,0.1,0.4,0.4,0.4v0.5C100.5,36.1,100.2,35.8,100.2,35.1"/>
		<polygon id="XMLID_24_" class="st0" points="103.7,33.4 105.8,36 105.1,36 103.3,33.8 102.8,34.3 102.8,36 102.2,36 102.2,29.4 
			102.8,29.4 102.8,33.6 104.8,31.6 105.6,31.6 		"/>
		<path id="XMLID_23_" class="st0" d="M111.8,32.8c0-0.6-0.3-0.8-0.8-0.8c-0.5,0-0.8,0.1-1.2,0.3c0,0.1,0.1,0.3,0.1,0.5V36h-0.6
			v-3.2c0-0.6-0.3-0.8-0.8-0.8c-0.5,0-0.8,0.1-1.1,0.3V36h-0.6v-4.4h0.3l0.1,0.4c0.4-0.3,0.9-0.4,1.3-0.4c0.6,0,1,0.2,1.2,0.5
			c0.5-0.3,0.9-0.5,1.4-0.5c0.9,0,1.5,0.4,1.5,1.3V36h-0.6V32.8z"/>
		<path id="XMLID_20_" class="st0" d="M115.1,32.1c-0.6,0-1,0.1-1.3,0.2v-0.5c0.4-0.2,0.9-0.2,1.3-0.2c1.3,0,1.7,0.6,1.7,1.5v3h-0.3
			l-0.1-0.4c-0.4,0.3-0.9,0.4-1.3,0.4c-1.2,0-1.6-0.7-1.6-1.4c0-0.7,0.4-1.3,1.6-1.4l1.2-0.1V33C116.1,32.3,115.9,32.1,115.1,32.1
			 M114.9,33.8c-0.6,0.1-0.9,0.4-0.9,0.9c0,0.4,0.1,0.9,0.9,0.9c0.5,0,0.8-0.1,1.2-0.4v-1.5L114.9,33.8z"/>
		<path id="XMLID_17_" class="st0" d="M120.1,36h-0.6v-6.6h2c1.7,0,2.2,1,2.2,2c0,1-0.6,2-2.2,2h-1.4V36z M120.1,32.8h1.5
			c1.2,0,1.5-0.8,1.5-1.4c0-0.6-0.2-1.4-1.5-1.4h-1.5V32.8z"/>
		<path id="XMLID_16_" class="st0" d="M126.4,32.1c-0.6,0-0.9,0.1-1.2,0.3V36h-0.6v-6.6h0.6v2.5c0.4-0.2,0.8-0.4,1.2-0.4
			c1,0,1.5,0.5,1.5,1.3V36h-0.6v-3.2C127.3,32.2,127,32.1,126.4,32.1"/>
		<path id="XMLID_13_" class="st0" d="M130.6,32.1c-0.6,0-1,0.1-1.3,0.2v-0.5c0.4-0.2,0.9-0.2,1.3-0.2c1.3,0,1.7,0.6,1.7,1.5v3h-0.3
			l-0.1-0.4c-0.4,0.3-0.9,0.4-1.3,0.4c-1.2,0-1.5-0.7-1.5-1.4c0-0.7,0.4-1.3,1.6-1.4l1.2-0.1V33C131.7,32.3,131.4,32.1,130.6,32.1
			 M130.5,33.8c-0.6,0.1-0.9,0.4-0.9,0.9c0,0.4,0.1,0.9,0.9,0.9c0.5,0,0.8-0.1,1.2-0.4v-1.5L130.5,33.8z"/>
		<path id="XMLID_12_" class="st0" d="M135.9,32.1c-0.1,0-0.3-0.1-0.5-0.1c-0.6,0-1,0.1-1.3,0.3V36h-0.6v-4.4h0.3l0.1,0.4
			c0.4-0.3,0.9-0.5,1.4-0.5c0.2,0,0.4,0,0.5,0V32.1z"/>
		<path id="XMLID_11_" class="st0" d="M141.9,32.8c0-0.6-0.3-0.8-0.8-0.8c-0.5,0-0.8,0.1-1.2,0.3c0,0.1,0.1,0.3,0.1,0.5V36h-0.6
			v-3.2c0-0.6-0.3-0.8-0.8-0.8c-0.5,0-0.8,0.1-1.2,0.3V36h-0.6v-4.4h0.3l0.1,0.4c0.4-0.3,0.9-0.4,1.3-0.4c0.6,0,1,0.2,1.2,0.5
			c0.5-0.3,0.9-0.5,1.4-0.5c0.9,0,1.5,0.4,1.5,1.3V36h-0.6V32.8z"/>
		<path id="XMLID_8_" class="st0" d="M145.1,32.1c-0.6,0-1,0.1-1.3,0.2v-0.5c0.4-0.2,0.9-0.2,1.3-0.2c1.3,0,1.7,0.6,1.7,1.5v3h-0.3
			l-0.1-0.4c-0.4,0.3-0.9,0.4-1.3,0.4c-1.2,0-1.5-0.7-1.5-1.4c0-0.7,0.4-1.3,1.6-1.4l1.2-0.1V33C146.2,32.3,146,32.1,145.1,32.1
			 M145,33.8c-0.6,0.1-0.9,0.4-0.9,0.9c0,0.4,0.1,0.9,0.9,0.9c0.5,0,0.8-0.1,1.2-0.4v-1.5L145,33.8z"/>
	</g>
	<g id="XMLID_2_">
		<path id="XMLID_6_" class="st0" d="M110.2,0c-0.8,0-1.5,0.2-2.1,0.5c0.3,0.1,0.5,0.3,0.8,0.5c1.5,0.3,2.6,1.6,2.6,3.3
			c0,1.6-1.1,2.9-2.6,3.3c-0.2,0.2-0.5,0.4-0.8,0.5c0.6,0.3,1.3,0.5,2.1,0.5c2.4,0,4.3-1.9,4.3-4.3C114.5,1.9,112.6,0,110.2,0z"/>
		<path id="XMLID_5_" class="st1" d="M104.8,4.3c0-1.6,1.1-2.9,2.6-3.3c0.2-0.2,0.5-0.4,0.8-0.5c-0.6-0.3-1.3-0.5-2-0.5
			c-2.4,0-4.3,1.9-4.3,4.3c0,2.4,1.8,4.3,4.3,4.3c0.7,0,1.4-0.2,2-0.5c-0.3-0.1-0.5-0.3-0.8-0.5C105.9,7.2,104.8,5.9,104.8,4.3z"/>
		<path id="XMLID_4_" class="st1" d="M108.2,7.6c-0.3,0-0.5,0-0.8-0.1c0.2,0.2,0.5,0.4,0.8,0.5c0.3-0.1,0.5-0.3,0.8-0.5
			C108.7,7.6,108.5,7.6,108.2,7.6z"/>
		<path id="XMLID_3_" class="st1" d="M108.2,0.9c0.3,0,0.5,0,0.7,0.1c-0.2-0.2-0.5-0.4-0.8-0.5c-0.3,0.1-0.5,0.3-0.8,0.5
			C107.7,1,107.9,0.9,108.2,0.9z"/>
	</g>
</g>
</svg>
