<!-- Generator: Adobe Illustrator 22.1.0, SVG Export Plug-In  -->
<svg version="1.1"
	 xmlns="http://www.w3.org/2000/svg" xmlns:xlink="http://www.w3.org/1999/xlink" xmlns:a="http://ns.adobe.com/AdobeSVGViewerExtensions/3.0/"
	 x="0px" y="0px" width="813.6px" height="431.5px" viewBox="0 0 813.6 431.5" style="enable-background:new 0 0 813.6 431.5;"
	 xml:space="preserve">
<style type="text/css">
	.st0{fill:#490E67;}
	.st1{fill:#4A2366;}
	.st2{font-family:'Altis-Bold';}
	.st3{font-size:14.3546px;}
	.st4{opacity:0.1;clip-path:url(#XMLID_543_);}
	.st5{clip-path:url(#XMLID_544_);}
	.st6{clip-path:url(#XMLID_545_);fill:#27A8E0;}
	.st7{fill:#0F3B60;}
	.st8{fill:none;stroke:#8B3C95;stroke-width:1.066;stroke-miterlimit:10;}
	.st9{fill:#808184;}
	.st10{fill:#0C3B60;}
	.st11{font-family:'Altis-Medium';}
	.st12{font-size:18.5105px;}
	.st13{fill:#C29FCA;}
	.st14{fill:#FFFFFF;}
	.st15{opacity:0.1;clip-path:url(#XMLID_547_);}
	.st16{clip-path:url(#XMLID_548_);}
	.st17{clip-path:url(#XMLID_549_);fill:#27A8E0;}
</style>
<defs>
</defs>
<g id="XMLID_329_">
	<g id="XMLID_334_">
		<g id="XMLID_336_">
			<path id="XMLID_437_" class="st0" d="M141.9,3.8h5.3c5.6,0,8.9,2.1,8.9,8.2s-4,8.3-8.9,8.3h-5.3V3.8z M147.2,16.9
				c3.6,0,4.8-1.4,4.8-4.8c0-3.4-1.2-5-4.8-5h-1.3v9.8H147.2z"/>
			<path id="XMLID_434_" class="st0" d="M158.2,3.7c0-1.2,0.7-1.9,2-1.9c1.3,0,2.1,0.7,2.1,1.9s-0.8,1.9-2.1,1.9
				C158.9,5.5,158.2,4.8,158.2,3.7z M158.2,6.9h4v13.4h-4V6.9z"/>
			<path id="XMLID_432_" class="st0" d="M164.5,19.6V16c0.8,0.8,2.2,1.5,4,1.5c1.7,0,2.3-0.6,2.3-1.2c0-0.7-0.3-1-1.8-1.2l-0.7-0.1
				c-2.8-0.4-4-1.8-4-4.1c0-2.3,1.6-4.4,5.5-4.4c2,0,3.5,0.5,4.2,1.1V11c-0.8-0.9-2.3-1.5-4-1.5c-1.6,0-2.1,0.5-2.1,1.1
				s0.3,1,1.7,1.2l0.7,0.1c3,0.4,4.2,1.5,4.2,4c0,2.3-1.6,4.6-5.8,4.6C166.6,20.6,165.2,20.1,164.5,19.6z"/>
			<path id="XMLID_430_" class="st0" d="M175.8,13.6c0-4.9,3.1-7.1,6.7-7.1c2,0,3.4,0.6,4,1.2v3.6c-0.9-1-1.9-1.4-3.4-1.4
				c-2.1,0-3.2,1.4-3.2,3.7c0,2.4,1.1,3.7,3.2,3.7c1.5,0,2.6-0.6,3.5-1.5v3.4c-0.6,0.7-2.1,1.4-4.1,1.4
				C178.5,20.6,175.8,18.5,175.8,13.6z"/>
			<path id="XMLID_427_" class="st0" d="M188,13.6c0-4.9,3.2-7.1,6.9-7.1c3.9,0,6.6,2.1,6.6,7.1c0,5-3.2,7.1-6.9,7.1
				C190.7,20.6,188,18.5,188,13.6z M197.5,13.6c0-2.3-0.8-3.9-2.7-3.9c-1.9,0-2.7,1.5-2.7,3.9c0,2.3,0.8,3.9,2.7,3.9
				C196.6,17.4,197.5,15.9,197.5,13.6z"/>
			<path id="XMLID_425_" class="st0" d="M203.5,6.9h3.5l0.3,1.2c0.6-0.9,1.8-1.5,3.5-1.5c3.5,0,4.8,1.8,4.8,5.5v8.3h-4v-7.6
				c0-2.2-0.6-3-2-3c-1.2,0-1.9,0.6-2.2,1.1v9.6h-4V6.9z"/>
			<path id="XMLID_423_" class="st0" d="M218.9,16.4V9.9h-1.6V8.5l1.3-1.7l2.4-3.2h1.8v3.2h3.1v3.1h-3.1V16c0,1,0.3,1.4,1.1,1.4
				c0.9,0,1.6-0.5,2-1.1v3.2c-0.5,0.5-1.4,1.1-3.1,1.1C220,20.6,218.9,19.1,218.9,16.4z"/>
			<path id="XMLID_420_" class="st0" d="M227.9,3.7c0-1.2,0.7-1.9,2-1.9c1.3,0,2.1,0.7,2.1,1.9s-0.8,1.9-2.1,1.9
				C228.6,5.5,227.9,4.8,227.9,3.7z M227.9,6.9h4v13.4h-4V6.9z"/>
			<path id="XMLID_418_" class="st0" d="M234.6,6.9h3.5l0.3,1.2c0.6-0.9,1.8-1.5,3.5-1.5c3.5,0,4.8,1.8,4.8,5.5v8.3h-4v-7.6
				c0-2.2-0.6-3-2-3c-1.2,0-1.9,0.6-2.2,1.1v9.6h-4V6.9z"/>
			<path id="XMLID_416_" class="st0" d="M249.2,15.2V6.9h4v7.6c0,2.2,0.4,3,2,3c1.2,0,1.8-0.6,2.1-1.1V6.9h3.9v13.4h-3.5l-0.3-1.2
				c-0.6,0.8-1.8,1.5-3.5,1.5C250.5,20.6,249.2,18.8,249.2,15.2z"/>
			<path id="XMLID_413_" class="st0" d="M263.2,16.7c0-2.7,1.9-3.8,5.6-4.4l2-0.3c0-1.8-0.9-2.4-2.7-2.4c-1.9,0-3.7,0.9-4.3,2.4V8.3
				c0.6-0.8,2-1.8,5-1.8c3.8,0,6,1.7,6,5.7v8h-3.4l-0.3-1.1c-0.4,0.7-1.4,1.5-3.3,1.5C265.1,20.6,263.2,19.4,263.2,16.7z
				 M270.8,14.5l-1.5,0.3c-1.8,0.4-2.4,0.8-2.4,1.8c0,0.9,0.7,1.3,1.6,1.3c1.1,0,1.9-0.4,2.3-0.9V14.5z"/>
			<path id="XMLID_411_" class="st0" d="M278,16.4V9.9h-1.6V8.5l1.3-1.7l2.4-3.2h1.8v3.2h3.1v3.1h-3.1V16c0,1,0.3,1.4,1.1,1.4
				c0.9,0,1.6-0.5,2-1.1v3.2c-0.5,0.5-1.4,1.1-3.1,1.1C279.1,20.6,278,19.1,278,16.4z"/>
			<path id="XMLID_408_" class="st0" d="M286.9,3.7c0-1.2,0.7-1.9,2-1.9c1.3,0,2.1,0.7,2.1,1.9s-0.8,1.9-2.1,1.9
				C287.7,5.5,286.9,4.8,286.9,3.7z M287,6.9h4v13.4h-4V6.9z"/>
			<path id="XMLID_405_" class="st0" d="M293,13.6c0-4.9,3.2-7.1,6.9-7.1c3.9,0,6.6,2.1,6.6,7.1c0,5-3.2,7.1-6.9,7.1
				C295.7,20.6,293,18.5,293,13.6z M302.4,13.6c0-2.3-0.8-3.9-2.7-3.9c-1.9,0-2.7,1.5-2.7,3.9c0,2.3,0.8,3.9,2.7,3.9
				C301.6,17.4,302.4,15.9,302.4,13.6z"/>
			<path id="XMLID_403_" class="st0" d="M308.5,6.9h3.5l0.3,1.2c0.6-0.9,1.8-1.5,3.5-1.5c3.5,0,4.8,1.8,4.8,5.5v8.3h-4v-7.6
				c0-2.2-0.6-3-2-3c-1.2,0-1.9,0.6-2.2,1.1v9.6h-4V6.9z"/>
			<path id="XMLID_401_" class="st0" d="M328.9,6.9h3.3l0.3,1.8c0.2-1.4,1.3-2.2,2.6-2.2c0.7,0,1.1,0.2,1.3,0.3v3.6
				c-0.3-0.2-0.8-0.4-1.5-0.4c-1,0-1.6,0.4-2,1.1v9.2h-4V6.9z"/>
			<path id="XMLID_398_" class="st0" d="M337.3,16.7c0-2.7,1.9-3.8,5.6-4.4l2-0.3c0-1.8-0.9-2.4-2.7-2.4c-1.9,0-3.7,0.9-4.3,2.4V8.3
				c0.6-0.8,2-1.8,5-1.8c3.8,0,6,1.7,6,5.7v8h-3.4l-0.3-1.1c-0.4,0.7-1.4,1.5-3.3,1.5C339.2,20.6,337.3,19.4,337.3,16.7z
				 M344.9,14.5l-1.5,0.3c-1.8,0.4-2.4,0.8-2.4,1.8c0,0.9,0.7,1.3,1.6,1.3c1.1,0,1.9-0.4,2.3-0.9V14.5z"/>
			<path id="XMLID_396_" class="st0" d="M352.1,16.4V9.9h-1.6V8.5l1.3-1.7l2.4-3.2h1.8v3.2h3.1v3.1H356V16c0,1,0.3,1.4,1.1,1.4
				c0.9,0,1.6-0.5,2-1.1v3.2c-0.5,0.5-1.4,1.1-3.1,1.1C353.2,20.6,352.1,19.1,352.1,16.4z"/>
			<path id="XMLID_393_" class="st0" d="M360.5,13.6c0-4.9,3.2-7.1,6.5-7.1c3.2,0,6.2,1.4,6.2,6.5v1.7h-8.6c0.1,1.5,1.1,2.7,3.6,2.7
				c2.2,0,3.6-0.8,4.4-1.5v3.3c-0.7,0.7-2.3,1.5-5,1.5C363.1,20.6,360.5,18.4,360.5,13.6z M369.4,12.2v-0.1c0-1.6-0.7-2.6-2.4-2.6
				c-1.5,0-2.4,1.3-2.5,2.7H369.4z"/>
			<path id="XMLID_391_" class="st0" d="M374.8,19.6V16c0.8,0.8,2.2,1.5,4,1.5c1.7,0,2.3-0.6,2.3-1.2c0-0.7-0.3-1-1.8-1.2l-0.7-0.1
				c-2.8-0.4-4-1.8-4-4.1c0-2.3,1.6-4.4,5.5-4.4c2,0,3.5,0.5,4.2,1.1V11c-0.8-0.9-2.3-1.5-4-1.5c-1.6,0-2.1,0.5-2.1,1.1
				s0.3,1,1.7,1.2l0.7,0.1c3,0.4,4.2,1.5,4.2,4c0,2.3-1.6,4.6-5.8,4.6C376.9,20.6,375.5,20.1,374.8,19.6z"/>
			<path id="XMLID_388_" class="st0" d="M391.8,13.7c0-4.9,2.4-7.3,5.9-7.3c1.1,0,2.2,0.2,2.8,0.8V2h4v18.2H401l-0.3-1.2
				c-0.5,0.7-1.5,1.5-3.5,1.5C394.1,20.6,391.8,18.6,391.8,13.7z M400.6,10.4c-0.5-0.6-1.3-0.9-2.2-0.9c-1.9,0-2.6,1.9-2.6,4.2
				c0,2.3,0.6,3.8,2.5,3.8c1.1,0,1.9-0.4,2.2-1V10.4z"/>
			<path id="XMLID_386_" class="st0" d="M407.1,15.2V6.9h4v7.6c0,2.2,0.4,3,2,3c1.2,0,1.8-0.6,2.1-1.1V6.9h3.9v13.4h-3.5l-0.3-1.2
				c-0.6,0.8-1.8,1.5-3.5,1.5C408.4,20.6,407.1,18.8,407.1,15.2z"/>
			<path id="XMLID_383_" class="st0" d="M421.1,13.6c0-4.9,3.2-7.1,6.5-7.1c3.2,0,6.2,1.4,6.2,6.5v1.7h-8.6c0.1,1.5,1.1,2.7,3.6,2.7
				c2.2,0,3.6-0.8,4.4-1.5v3.3c-0.7,0.7-2.3,1.5-5,1.5C423.7,20.6,421.1,18.4,421.1,13.6z M430,12.2v-0.1c0-1.6-0.7-2.6-2.4-2.6
				c-1.5,0-2.4,1.3-2.5,2.7H430z"/>
			<path id="XMLID_381_" class="st0" d="M442.1,16.4V9.9h-1.6V8.5l1.3-1.7l2.4-3.2h1.8v3.2h3.1v3.1h-3.1V16c0,1,0.3,1.4,1.1,1.4
				c0.9,0,1.6-0.5,2-1.1v3.2c-0.5,0.5-1.4,1.1-3.1,1.1C443.2,20.6,442.1,19.1,442.1,16.4z"/>
			<path id="XMLID_378_" class="st0" d="M450.5,13.6c0-4.9,3.2-7.1,6.9-7.1c3.9,0,6.6,2.1,6.6,7.1c0,5-3.2,7.1-6.9,7.1
				C453.2,20.6,450.5,18.5,450.5,13.6z M460,13.6c0-2.3-0.8-3.9-2.7-3.9c-1.9,0-2.7,1.5-2.7,3.9c0,2.3,0.8,3.9,2.7,3.9
				C459.1,17.4,460,15.9,460,13.6z"/>
			<path id="XMLID_375_" class="st0" d="M471,16.7c0-2.7,1.9-3.8,5.6-4.4l2-0.3c0-1.8-0.9-2.4-2.7-2.4c-1.9,0-3.7,0.9-4.3,2.4V8.3
				c0.6-0.8,2-1.8,5-1.8c3.8,0,6,1.7,6,5.7v8h-3.4l-0.3-1.1c-0.4,0.7-1.4,1.5-3.3,1.5C472.9,20.6,471,19.4,471,16.7z M478.6,14.5
				l-1.5,0.3c-1.8,0.4-2.4,0.8-2.4,1.8c0,0.9,0.7,1.3,1.6,1.3c1.1,0,1.9-0.4,2.3-0.9V14.5z"/>
			<path id="XMLID_372_" class="st0" d="M484.5,13.7c0-4.9,2.4-7.3,5.9-7.3c1.1,0,2.2,0.2,2.8,0.8V2h4v18.2h-3.5l-0.3-1.2
				c-0.5,0.7-1.5,1.5-3.5,1.5C486.7,20.6,484.5,18.6,484.5,13.7z M493.2,10.4c-0.5-0.6-1.3-0.9-2.2-0.9c-1.9,0-2.6,1.9-2.6,4.2
				c0,2.3,0.6,3.8,2.5,3.8c1.1,0,1.9-0.4,2.2-1V10.4z"/>
			<path id="XMLID_370_" class="st0" d="M498.5,6.9h4.2l2.2,6.4l0.4,1.5c0.1-0.4,0.3-1.1,0.4-1.5l2.2-6.4h3.9l-5.4,13.4h-2.6
				L498.5,6.9z"/>
			<path id="XMLID_367_" class="st0" d="M512.5,13.6c0-4.9,3.2-7.1,6.5-7.1c3.2,0,6.2,1.4,6.2,6.5v1.7h-8.6c0.1,1.5,1.1,2.7,3.6,2.7
				c2.2,0,3.6-0.8,4.4-1.5v3.3c-0.7,0.7-2.3,1.5-5,1.5C515.2,20.6,512.5,18.4,512.5,13.6z M521.5,12.2v-0.1c0-1.6-0.7-2.6-2.4-2.6
				c-1.5,0-2.4,1.3-2.5,2.7H521.5z"/>
			<path id="XMLID_365_" class="st0" d="M527.2,6.9h3.3l0.3,1.8c0.2-1.4,1.3-2.2,2.6-2.2c0.7,0,1.1,0.2,1.3,0.3v3.6
				c-0.3-0.2-0.8-0.4-1.5-0.4c-1,0-1.6,0.4-2,1.1v9.2h-4V6.9z"/>
			<path id="XMLID_363_" class="st0" d="M536,19.6V16c0.8,0.8,2.2,1.5,4,1.5c1.7,0,2.3-0.6,2.3-1.2c0-0.7-0.3-1-1.8-1.2l-0.7-0.1
				c-2.8-0.4-4-1.8-4-4.1c0-2.3,1.6-4.4,5.5-4.4c2,0,3.5,0.5,4.2,1.1V11c-0.8-0.9-2.3-1.5-4-1.5c-1.6,0-2.1,0.5-2.1,1.1
				s0.3,1,1.7,1.2l0.7,0.1c3,0.4,4.2,1.5,4.2,4c0,2.3-1.6,4.6-5.8,4.6C538.1,20.6,536.7,20.1,536,19.6z"/>
			<path id="XMLID_360_" class="st0" d="M547.3,13.6c0-4.9,3.2-7.1,6.5-7.1c3.2,0,6.2,1.4,6.2,6.5v1.7h-8.6c0.1,1.5,1.1,2.7,3.6,2.7
				c2.2,0,3.6-0.8,4.4-1.5v3.3c-0.7,0.7-2.3,1.5-5,1.5C549.9,20.6,547.3,18.4,547.3,13.6z M556.2,12.2v-0.1c0-1.6-0.7-2.6-2.4-2.6
				c-1.5,0-2.4,1.3-2.5,2.7H556.2z"/>
			<path id="XMLID_358_" class="st0" d="M567.6,6.9h3.3l0.3,1.8c0.2-1.4,1.3-2.2,2.6-2.2c0.7,0,1.1,0.2,1.3,0.3v3.6
				c-0.3-0.2-0.8-0.4-1.5-0.4c-1,0-1.6,0.4-2,1.1v9.2h-4V6.9z"/>
			<path id="XMLID_355_" class="st0" d="M576.1,13.6c0-4.9,3.2-7.1,6.5-7.1c3.2,0,6.2,1.4,6.2,6.5v1.7h-8.6c0.1,1.5,1.1,2.7,3.6,2.7
				c2.2,0,3.6-0.8,4.4-1.5v3.3c-0.7,0.7-2.3,1.5-5,1.5C578.7,20.6,576.1,18.4,576.1,13.6z M585,12.2v-0.1c0-1.6-0.7-2.6-2.4-2.6
				c-1.5,0-2.4,1.3-2.5,2.7H585z"/>
			<path id="XMLID_352_" class="st0" d="M590.1,16.7c0-2.7,1.9-3.8,5.6-4.4l2-0.3c0-1.8-0.9-2.4-2.7-2.4c-1.9,0-3.7,0.9-4.3,2.4V8.3
				c0.6-0.8,2-1.8,5-1.8c3.8,0,6,1.7,6,5.7v8h-3.4l-0.3-1.1c-0.4,0.7-1.4,1.5-3.3,1.5C592,20.6,590.1,19.4,590.1,16.7z M597.6,14.5
				l-1.5,0.3c-1.8,0.4-2.4,0.8-2.4,1.8c0,0.9,0.7,1.3,1.6,1.3c1.1,0,1.9-0.4,2.3-0.9V14.5z"/>
			<path id="XMLID_350_" class="st0" d="M603.5,13.6c0-4.9,3.1-7.1,6.7-7.1c2,0,3.4,0.6,4,1.2v3.6c-0.9-1-1.9-1.4-3.4-1.4
				c-2.1,0-3.2,1.4-3.2,3.7c0,2.4,1.1,3.7,3.2,3.7c1.5,0,2.6-0.6,3.5-1.5v3.4c-0.6,0.7-2.1,1.4-4.1,1.4
				C606.2,20.6,603.5,18.5,603.5,13.6z"/>
			<path id="XMLID_348_" class="st0" d="M617,16.4V9.9h-1.6V8.5l1.3-1.7l2.4-3.2h1.8v3.2h3.1v3.1H621V16c0,1,0.3,1.4,1.1,1.4
				c0.9,0,1.6-0.5,2-1.1v3.2c-0.5,0.5-1.4,1.1-3.1,1.1C618.1,20.6,617,19.1,617,16.4z"/>
			<path id="XMLID_345_" class="st0" d="M626,3.7c0-1.2,0.7-1.9,2-1.9c1.3,0,2.1,0.7,2.1,1.9s-0.8,1.9-2.1,1.9
				C626.7,5.5,626,4.8,626,3.7z M626.1,6.9h4v13.4h-4V6.9z"/>
			<path id="XMLID_341_" class="st0" d="M632,13.6c0-4.9,3.2-7.1,6.9-7.1c3.9,0,6.6,2.1,6.6,7.1c0,5-3.2,7.1-6.9,7.1
				C634.7,20.6,632,18.5,632,13.6z M641.5,13.6c0-2.3-0.8-3.9-2.7-3.9c-1.9,0-2.7,1.5-2.7,3.9c0,2.3,0.8,3.9,2.7,3.9
				C640.7,17.4,641.5,15.9,641.5,13.6z"/>
			<path id="XMLID_339_" class="st0" d="M647.5,6.9h3.5l0.3,1.2c0.6-0.9,1.8-1.5,3.5-1.5c3.5,0,4.8,1.8,4.8,5.5v8.3h-4v-7.6
				c0-2.2-0.6-3-2-3c-1.2,0-1.9,0.6-2.2,1.1v9.6h-4V6.9z"/>
			<path id="XMLID_337_" class="st0" d="M661.9,19.6V16c0.8,0.8,2.2,1.5,4,1.5c1.7,0,2.3-0.6,2.3-1.2c0-0.7-0.3-1-1.8-1.2l-0.7-0.1
				c-2.8-0.4-4-1.8-4-4.1c0-2.3,1.6-4.4,5.5-4.4c2,0,3.5,0.5,4.2,1.1V11c-0.8-0.9-2.3-1.5-4-1.5c-1.6,0-2.1,0.5-2.1,1.1
				s0.3,1,1.7,1.2l0.7,0.1c3,0.4,4.2,1.5,4.2,4c0,2.3-1.6,4.6-5.8,4.6C664,20.6,662.7,20.1,661.9,19.6z"/>
		</g>
	</g>
	<g id="XMLID_331_">
		<path id="XMLID_332_" class="st1" d="M679.6,10.3l0.2-0.9h-2.1V8h2.1l-0.2-0.9V5.7l0.2-0.9h-2.1V3.5h2.1l-0.2-0.9V0.8h1.6v1.8
			L681,3.5h2.1v1.4H681l0.2,0.9v1.5L681,8h2.1v1.4H681l0.2,0.9v1.8h-1.6V10.3z"/>
	</g>
	<text id="XMLID_330_" transform="matrix(1 0 0 1 683.5595 12.0576)" class="st1 st2 st3">5</text>
</g>
<g id="XMLID_282_">
	<path id="XMLID_327_" d="M311.2,60.7v-3c0.7,0.9,1.9,1.7,3.6,1.7c1.6,0,2.6-0.8,2.6-2.1c0-1.1-0.6-1.5-2.2-1.9l-0.5-0.1
		c-2.3-0.5-3.5-1.9-3.5-4.1c0-2.8,2-4.5,5.1-4.5c2,0,3.1,0.6,3.6,1v3c-0.6-0.9-2-1.7-3.7-1.7c-1.4,0-2.3,0.5-2.3,1.7
		c0,1,0.4,1.5,2.1,1.9l0.5,0.1c2.4,0.6,3.7,1.7,3.7,4.1c0,2.8-1.9,4.8-5.4,4.8C312.8,61.7,311.7,61.1,311.2,60.7z"/>
	<path id="XMLID_325_" d="M321.9,55.6c0-4.2,2.7-6.2,5.7-6.2c1.6,0,2.8,0.5,3.3,1.1v2.7c-0.7-1-1.7-1.4-3.1-1.4
		c-1.9,0-3.1,1.4-3.1,3.8c0,2.4,1.1,3.8,3.1,3.8c1.4,0,2.5-0.6,3.2-1.5v2.5c-0.5,0.6-1.8,1.4-3.5,1.4
		C324.2,61.7,321.9,59.8,321.9,55.6z"/>
	<path id="XMLID_323_" d="M333.2,45.5h2.7v5.2c0.5-0.7,1.6-1.3,3-1.3c3,0,4.2,1.6,4.2,4.7v7.3h-2.7v-6.7c0-2.2-0.5-3.1-2.1-3.1
		c-1.3,0-2,0.6-2.3,1.1v8.7h-2.7V45.5z"/>
	<path id="XMLID_320_" d="M345.8,47c0-0.9,0.5-1.4,1.5-1.4c1,0,1.5,0.5,1.5,1.4c0,0.9-0.5,1.4-1.5,1.4
		C346.3,48.4,345.8,47.9,345.8,47z M345.9,49.7h2.7v11.6h-2.7V49.7z"/>
	<path id="XMLID_318_" d="M350.8,60.6l5.3-8.7h-5.3v-2.2h8.7v0.7l-5.1,8.7h5.1v2.2h-8.7V60.6z"/>
	<path id="XMLID_315_" d="M360.9,55.6c0-4.2,2.7-6.2,5.7-6.2c3.2,0,5.4,2,5.4,6.2c0,4.2-2.7,6.2-5.7,6.2
		C363.2,61.7,360.9,59.8,360.9,55.6z M369.3,55.6c0-2.3-0.9-3.9-2.8-3.9c-1.9,0-2.8,1.6-2.8,3.9c0,2.3,0.9,3.9,2.8,3.9
		C368.5,59.5,369.3,57.9,369.3,55.6z"/>
	<path id="XMLID_312_" d="M374.4,49.7h2.5l0.2,1c0.3-0.6,1.2-1.4,3-1.4c2.8,0,4.7,1.6,4.7,5.8s-2.4,6.5-5.2,6.5
		c-0.9,0-2-0.2-2.5-0.8v4.5h-2.7V49.7z M382,55.4c0-2.3-0.7-3.8-2.6-3.8c-1.2,0-2,0.5-2.3,1.1v6c0.5,0.6,1.4,0.9,2.2,0.9
		C381.2,59.6,382,57.7,382,55.4z"/>
	<path id="XMLID_310_" d="M387,45.5h2.7v5.2c0.5-0.7,1.6-1.3,3-1.3c3,0,4.2,1.6,4.2,4.7v7.3h-2.7v-6.7c0-2.2-0.5-3.1-2.1-3.1
		c-1.3,0-2,0.6-2.3,1.1v8.7H387V45.5z"/>
	<path id="XMLID_308_" d="M399.7,49.7h2.4l0.2,1.6c0.1-1.3,1.2-2,2.3-2c0.6,0,1,0.2,1.2,0.3v2.5c-0.3-0.2-0.7-0.4-1.4-0.4
		c-1,0-1.6,0.4-1.9,1.2v8.4h-2.7V49.7z"/>
	<path id="XMLID_305_" d="M406.7,55.6c0-4.2,2.7-6.2,5.4-6.2c2.6,0,5.1,1.2,5.1,5.5v1.5h-7.8c0.1,1.6,1.1,3,3.3,3
		c2,0,3.3-0.9,3.9-1.7v2.5c-0.6,0.7-1.9,1.5-4.1,1.5C409,61.7,406.7,59.8,406.7,55.6z M414.6,54.5v-0.1c0-1.8-0.8-2.8-2.5-2.8
		c-1.6,0-2.5,1.4-2.6,2.9H414.6z"/>
	<path id="XMLID_303_" d="M419.5,49.7h2.5l0.2,1c0.4-0.7,1.5-1.4,3-1.4c3,0,4.2,1.6,4.2,4.7v7.3h-2.7v-6.7c0-2.2-0.5-3.1-2.1-3.1
		c-1.3,0-2,0.7-2.3,1.2v8.7h-2.7V49.7z"/>
	<path id="XMLID_300_" d="M432,47c0-0.9,0.5-1.4,1.5-1.4c1,0,1.5,0.5,1.5,1.4c0,0.9-0.5,1.4-1.5,1.4C432.5,48.4,432,47.9,432,47z
		 M432.1,49.7h2.7v11.6h-2.7V49.7z"/>
	<path id="XMLID_297_" d="M437.1,58.4c0-2.4,1.8-3.3,5-3.8l1.7-0.3c0-2-1-2.6-2.6-2.6c-1.7,0-3.1,0.9-3.7,2.2V51
		c0.4-0.7,1.6-1.6,4.1-1.6c3.1,0,4.9,1.6,4.9,4.9v7h-2.5l-0.2-1c-0.3,0.7-1.2,1.4-2.9,1.4C438.9,61.7,437.1,60.7,437.1,58.4z
		 M443.8,56.1l-1.5,0.3c-1.9,0.4-2.5,0.9-2.5,1.9s0.7,1.4,1.7,1.4c1.1,0,2-0.5,2.4-1V56.1z"/>
	<path id="XMLID_295_" d="M454.9,58.3v-6.4h-1.4v-0.7l1.1-1.4l2.1-2.8h0.9v2.8h2.9v2.2h-2.9v6.2c0,0.9,0.3,1.4,1.1,1.4
		c0.8,0,1.5-0.5,1.8-1.2v2.4c-0.3,0.5-1.1,1-2.4,1C455.8,61.7,454.9,60.5,454.9,58.3z"/>
	<path id="XMLID_293_" d="M462.6,49.7h2.4l0.2,1.6c0.1-1.3,1.2-2,2.3-2c0.6,0,1,0.2,1.2,0.3v2.5c-0.3-0.2-0.7-0.4-1.4-0.4
		c-1,0-1.6,0.4-1.9,1.2v8.4h-2.7V49.7z"/>
	<path id="XMLID_290_" d="M470.3,47c0-0.9,0.5-1.4,1.5-1.4c1,0,1.5,0.5,1.5,1.4c0,0.9-0.5,1.4-1.5,1.4
		C470.8,48.4,470.3,47.9,470.3,47z M470.4,49.7h2.7v11.6h-2.7V49.7z"/>
	<path id="XMLID_287_" d="M475.4,58.4c0-2.4,1.8-3.3,5-3.8l1.7-0.3c0-2-1-2.6-2.6-2.6c-1.7,0-3.1,0.9-3.7,2.2V51
		c0.4-0.7,1.6-1.6,4.1-1.6c3.1,0,4.9,1.6,4.9,4.9v7h-2.5l-0.2-1c-0.3,0.7-1.2,1.4-2.9,1.4C477.2,61.7,475.4,60.7,475.4,58.4z
		 M482.2,56.1l-1.5,0.3c-1.9,0.4-2.5,0.9-2.5,1.9s0.7,1.4,1.7,1.4c1.1,0,2-0.5,2.4-1V56.1z"/>
	<path id="XMLID_285_" d="M487.6,58.7V45.5h2.7v13c0,0.8,0.3,1.1,0.8,1.1c0.5,0,0.9-0.3,1.1-0.6V61c-0.2,0.3-0.8,0.7-1.9,0.7
		C488.5,61.7,487.6,60.6,487.6,58.7z"/>
	<path id="XMLID_283_" d="M493.6,60.7v-2.6c0.7,0.8,1.7,1.4,3.3,1.4c1.6,0,2.2-0.6,2.2-1.4c0-0.8-0.3-1.1-1.7-1.3l-0.6-0.1
		c-2.2-0.4-3.3-1.5-3.3-3.6c0-2,1.5-3.7,4.5-3.7c1.6,0,2.8,0.4,3.4,1.1v2.6c-0.7-0.9-1.7-1.5-3.3-1.5c-1.5,0-2.1,0.5-2.1,1.3
		c0,0.7,0.3,1.1,1.7,1.4l0.6,0.1c2.3,0.4,3.5,1.3,3.5,3.5c0,2-1.5,3.9-4.8,3.9C495.4,61.7,494.2,61.2,493.6,60.7z"/>
</g>
<g id="XMLID_274_">
	<defs>
		<rect id="XMLID_275_" x="3.7" y="89.9" width="809" height="341.5"/>
	</defs>
	<clipPath id="XMLID_543_">
		<use xlink:href="#XMLID_275_"  style="overflow:visible;"/>
	</clipPath>
	<g id="XMLID_276_" class="st4">
		<g id="XMLID_277_">
			<defs>
				<rect id="XMLID_278_" x="3.7" y="89.9" width="809.9" height="341.5"/>
			</defs>
			<clipPath id="XMLID_544_">
				<use xlink:href="#XMLID_278_"  style="overflow:visible;"/>
			</clipPath>
			<g id="XMLID_279_" class="st5">
				<defs>
					<rect id="XMLID_280_" x="3.7" y="89.9" width="809.9" height="341.5"/>
				</defs>
				<clipPath id="XMLID_545_">
					<use xlink:href="#XMLID_280_"  style="overflow:visible;"/>
				</clipPath>
				<path id="XMLID_281_" class="st6" d="M3.7,409c0,12.4,9.2,22.5,20.5,22.5h768.9c11.3,0,20.5-10.1,20.5-22.5V112.5
					c0-12.4-9.2-22.5-20.5-22.5H24.2c-11.3,0-20.5,10.1-20.5,22.5V409z"/>
			</g>
		</g>
	</g>
</g>
<g id="XMLID_231_">
	<path id="XMLID_271_" class="st7" d="M65.2,322.5V319c0-4.2,1.7-6.7,6.3-6.7s6.3,3,6.3,6.7v3.6H65.2z M75.7,319
		c0-3.2-1.2-4.2-4.1-4.2c-2.9,0-4.3,1-4.3,4.2v1.1h8.4V319z"/>
	<path id="XMLID_268_" class="st7" d="M65.2,310.4c-0.8,0-1.2-0.4-1.2-1.3s0.4-1.4,1.2-1.4c0.8,0,1.2,0.5,1.2,1.4
		S65.9,310.4,65.2,310.4z M67.6,310.3v-2.4h10.2v2.4H67.6z"/>
	<path id="XMLID_266_" class="st7" d="M77.2,305.7h-2.3c0.7-0.6,1.3-1.5,1.3-2.9c0-1.4-0.6-1.9-1.2-1.9c-0.7,0-0.9,0.3-1.2,1.5
		l-0.1,0.5c-0.4,1.9-1.3,2.9-3.1,2.9c-1.8,0-3.3-1.3-3.3-3.9c0-1.4,0.4-2.4,0.9-2.9h2.3c-0.8,0.6-1.3,1.5-1.3,2.9
		c0,1.3,0.5,1.8,1.1,1.8s1-0.3,1.2-1.5l0.1-0.5c0.4-2,1.1-3.1,3-3.1c1.7,0,3.4,1.3,3.4,4.2C78.1,304.1,77.6,305.2,77.2,305.7z"/>
	<path id="XMLID_264_" class="st7" d="M72.7,297.2c-3.7,0-5.4-2.4-5.4-5c0-1.4,0.5-2.5,0.9-2.9h2.4c-0.9,0.6-1.2,1.5-1.2,2.7
		c0,1.7,1.3,2.7,3.4,2.7c2.1,0,3.3-1,3.3-2.7c0-1.2-0.5-2.2-1.3-2.8h2.2c0.5,0.4,1.2,1.6,1.2,3C78.1,295.2,76.4,297.2,72.7,297.2z"
		/>
	<path id="XMLID_261_" class="st7" d="M72.7,287.8c-3.7,0-5.4-2.4-5.4-5c0-2.8,1.7-4.8,5.4-4.8c3.7,0,5.4,2.4,5.4,5
		C78.1,285.8,76.4,287.8,72.7,287.8z M72.7,280.4c-2,0-3.4,0.8-3.4,2.5c0,1.7,1.4,2.4,3.4,2.4c2,0,3.4-0.8,3.4-2.4
		C76.1,281.2,74.7,280.4,72.7,280.4z"/>
	<path id="XMLID_259_" class="st7" d="M67.6,276v-2.2l0.9-0.2c-0.6-0.4-1.2-1.3-1.2-2.6c0-2.7,1.4-3.7,4.1-3.7h6.4v2.4h-5.9
		c-2,0-2.8,0.5-2.8,1.9c0,1.1,0.6,1.8,1,2.1h7.6v2.4H67.6z"/>
	<path id="XMLID_257_" class="st7" d="M75,264.5h-5.6v1.2h-0.6l-1.3-1l-2.4-1.9v-0.8h2.4v-2.5h1.9v2.5h5.4c0.8,0,1.2-0.3,1.2-0.9
		c0-0.7-0.4-1.3-1-1.6h2.1c0.4,0.3,0.9,1,0.9,2.1C78.1,263.7,77,264.5,75,264.5z"/>
	<path id="XMLID_254_" class="st7" d="M65.2,257.8c-0.8,0-1.2-0.4-1.2-1.3s0.4-1.4,1.2-1.4c0.8,0,1.2,0.5,1.2,1.4
		S65.9,257.8,65.2,257.8z M67.6,257.7v-2.4h10.2v2.4H67.6z"/>
	<path id="XMLID_252_" class="st7" d="M67.6,252.8v-2.2l0.9-0.2c-0.6-0.4-1.2-1.3-1.2-2.6c0-2.7,1.4-3.7,4.1-3.7h6.4v2.4h-5.9
		c-2,0-2.8,0.5-2.8,1.9c0,1.1,0.6,1.8,1,2.1h7.6v2.4H67.6z"/>
	<path id="XMLID_250_" class="st7" d="M73.9,241.8h-6.4v-2.4h5.9c2,0,2.8-0.4,2.8-1.8c0-1.1-0.6-1.7-1-2h-7.6v-2.4h10.2v2.2
		l-0.9,0.1c0.6,0.4,1.2,1.3,1.2,2.6C78.1,240.8,76.7,241.8,73.9,241.8z"/>
	<path id="XMLID_247_" class="st7" d="M75.1,231.3c-2.1,0-2.9-1.6-3.4-4.4l-0.2-1.5c-1.8,0-2.3,0.9-2.3,2.3c0,1.5,0.8,2.7,1.9,3.2
		h-2.4c-0.6-0.4-1.4-1.4-1.4-3.6c0-2.8,1.4-4.3,4.3-4.3h6.2v2.2l-0.9,0.2c0.6,0.3,1.2,1.1,1.2,2.5C78.1,229.7,77.2,231.3,75.1,231.3
		z M73.1,225.3l0.3,1.4c0.4,1.7,0.8,2.2,1.6,2.2s1.2-0.6,1.2-1.5c0-1-0.4-1.8-0.9-2.1H73.1z"/>
	<path id="XMLID_245_" class="st7" d="M75,220.1h-5.6v1.2h-0.6l-1.3-1l-2.4-1.9v-0.8h2.4v-2.5h1.9v2.5h5.4c0.8,0,1.2-0.3,1.2-0.9
		c0-0.7-0.4-1.3-1-1.6h2.1c0.4,0.3,0.9,1,0.9,2.1C78.1,219.3,77,220.1,75,220.1z"/>
	<path id="XMLID_242_" class="st7" d="M65.2,213.4c-0.8,0-1.2-0.4-1.2-1.3s0.4-1.4,1.2-1.4c0.8,0,1.2,0.5,1.2,1.4
		S65.9,213.4,65.2,213.4z M67.6,213.3v-2.4h10.2v2.4H67.6z"/>
	<path id="XMLID_239_" class="st7" d="M72.7,209c-3.7,0-5.4-2.4-5.4-5c0-2.8,1.7-4.8,5.4-4.8c3.7,0,5.4,2.4,5.4,5
		C78.1,207,76.4,209,72.7,209z M72.7,201.6c-2,0-3.4,0.8-3.4,2.5c0,1.7,1.4,2.4,3.4,2.4c2,0,3.4-0.8,3.4-2.4
		C76.1,202.4,74.7,201.6,72.7,201.6z"/>
	<path id="XMLID_237_" class="st7" d="M67.6,197.2V195l0.9-0.2c-0.6-0.4-1.2-1.3-1.2-2.6c0-2.7,1.4-3.7,4.1-3.7h6.4v2.4h-5.9
		c-2,0-2.8,0.5-2.8,1.9c0,1.1,0.6,1.8,1,2.1h7.6v2.4H67.6z"/>
	<path id="XMLID_232_" class="st7" d="M68.1,182.3c-2.6,0-3.5-1.3-3.5-2.9c0-0.6,0.1-1.1,0.4-1.6c0.4-0.8,0.6-1.4,0.6-2.5
		c0-1.3-0.5-2.1-1-2.6l0.6-1.1l12.5,7.6v1.5L66.7,174c0.1,0.4,0.2,0.8,0.2,1.3c0,0.5-0.1,1-0.2,1.4c0.4-0.1,0.9-0.2,1.4-0.2
		c2.6,0,3.5,1.3,3.5,2.9S70.7,182.3,68.1,182.3z M68.1,178.3c-1.4,0-2,0.3-2,1.1s0.6,1.1,2,1.1c1.4,0,2-0.3,2-1.1
		S69.5,178.3,68.1,178.3z M74.6,175.5c-2.6,0-3.5-1.3-3.5-2.9s0.9-2.9,3.5-2.9s3.5,1.3,3.5,2.9S77.2,175.5,74.6,175.5z M74.6,171.5
		c-1.4,0-2,0.3-2,1.1s0.6,1.1,2,1.1s2-0.3,2-1.1S76,171.5,74.6,171.5z"/>
</g>
<line id="XMLID_230_" class="st8" x1="137.2" y1="329.3" x2="148.1" y2="329.3"/>
<line id="XMLID_229_" class="st8" x1="137.2" y1="290.4" x2="148.1" y2="290.4"/>
<line id="XMLID_228_" class="st8" x1="137.2" y1="251.6" x2="148.1" y2="251.6"/>
<line id="XMLID_227_" class="st8" x1="137.2" y1="212.8" x2="148.1" y2="212.8"/>
<rect id="XMLID_226_" x="280.1" y="298.2" class="st0" width="163.6" height="70.8"/>
<rect id="XMLID_225_" x="514.8" y="290.2" class="st9" width="163.6" height="78.1"/>
<path id="XMLID_224_" class="st8" d="M754.2,368.1"/>
<line id="XMLID_223_" class="st8" x1="149.3" y1="134.1" x2="149.3" y2="368.1"/>
<g id="XMLID_206_">
	<g id="XMLID_208_">
		<path id="XMLID_214_" class="st10" d="M114.9,330.9v-1.2c0.2,0.2,0.7,0.5,1.3,0.5c0.9,0,1.3-0.4,1.3-1c0-0.6-0.3-0.9-1.3-0.9
			c-0.5,0-0.9,0.1-1.2,0.2l0.1-3.7h3.4v1h-2.4l0,1.5c0.1,0,0.3-0.1,0.5-0.1c1.3,0,2.1,0.6,2.1,1.8c0,1.3-1.1,2.1-2.5,2.1
			C115.6,331.2,115.2,331,114.9,330.9z"/>
		<path id="XMLID_209_" class="st10" d="M121.7,326.3c0-1.3,0.6-1.7,1.4-1.7c0.3,0,0.6,0.1,0.8,0.2c0.4,0.2,0.7,0.3,1.2,0.3
			c0.6,0,1-0.2,1.3-0.5l0.6,0.3l-3.7,6.1h-0.8l3.3-5.4c-0.2,0.1-0.4,0.1-0.6,0.1c-0.3,0-0.5,0-0.7-0.1c0.1,0.2,0.1,0.4,0.1,0.7
			c0,1.3-0.6,1.7-1.4,1.7S121.7,327.6,121.7,326.3z M123.6,326.3c0-0.7-0.1-1-0.5-1s-0.5,0.3-0.5,1s0.1,1,0.5,1
			S123.6,327,123.6,326.3z M125,329.5c0-1.3,0.6-1.7,1.4-1.7s1.4,0.4,1.4,1.7c0,1.3-0.6,1.7-1.4,1.7S125,330.8,125,329.5z
			 M127,329.5c0-0.7-0.1-1-0.5-1c-0.4,0-0.5,0.3-0.5,1s0.1,1,0.5,1C126.8,330.5,127,330.2,127,329.5z"/>
	</g>
</g>
<g id="XMLID_183_">
	<g id="XMLID_185_">
		<path id="XMLID_194_" class="st10" d="M116.1,286.8c-0.2,0.2-0.8,0.3-1.4,0.3v-1c0.9,0,1.5-0.2,2-0.8h0.5v6.2h-1.1V286.8z"/>
		<path id="XMLID_191_" class="st10" d="M118.3,288.4c0-2.1,1.5-3.2,3.1-3.2c1.9,0,3.1,1.1,3.1,3.2c0,2.1-1.5,3.3-3.1,3.3
			C119.5,291.6,118.3,290.5,118.3,288.4z M123.2,288.4c0-1.5-0.8-2.2-1.9-2.2c-1.1,0-1.9,0.7-1.9,2.2c0,1.5,0.8,2.2,1.9,2.2
			C122.4,290.6,123.2,289.9,123.2,288.4z"/>
		<path id="XMLID_186_" class="st10" d="M127.3,286.7c0-1.3,0.6-1.7,1.4-1.7c0.3,0,0.6,0.1,0.8,0.2c0.4,0.2,0.7,0.3,1.2,0.3
			c0.6,0,1-0.2,1.3-0.5l0.6,0.3l-3.7,6.1h-0.8l3.3-5.4c-0.2,0.1-0.4,0.1-0.6,0.1c-0.3,0-0.5,0-0.7-0.1c0.1,0.2,0.1,0.4,0.1,0.7
			c0,1.3-0.6,1.7-1.4,1.7S127.3,288,127.3,286.7z M129.3,286.7c0-0.7-0.1-1-0.5-1s-0.5,0.3-0.5,1s0.1,1,0.5,1
			S129.3,287.4,129.3,286.7z M130.6,289.9c0-1.3,0.6-1.7,1.4-1.7s1.4,0.4,1.4,1.7c0,1.3-0.6,1.7-1.4,1.7S130.6,291.2,130.6,289.9z
			 M132.6,289.9c0-0.7-0.1-1-0.5-1c-0.4,0-0.5,0.3-0.5,1s0.1,1,0.5,1C132.4,290.9,132.6,290.6,132.6,289.9z"/>
	</g>
</g>
<g id="XMLID_162_">
	<g id="XMLID_164_">
		<path id="XMLID_172_" class="st10" d="M116.1,248.7c-0.2,0.2-0.8,0.3-1.4,0.3v-1c0.9,0,1.5-0.2,2-0.8h0.5v6.2h-1.1V248.7z"/>
		<path id="XMLID_170_" class="st10" d="M118.3,253.3v-1.2c0.2,0.2,0.7,0.5,1.3,0.5c0.9,0,1.3-0.4,1.3-1c0-0.6-0.3-0.9-1.3-0.9
			c-0.5,0-0.9,0.1-1.2,0.2l0.1-3.7h3.4v1h-2.4l0,1.5c0.1,0,0.3-0.1,0.5-0.1c1.3,0,2.1,0.6,2.1,1.8c0,1.3-1.1,2.1-2.5,2.1
			C118.9,253.6,118.6,253.4,118.3,253.3z"/>
		<path id="XMLID_165_" class="st10" d="M125.1,248.7c0-1.3,0.6-1.7,1.4-1.7c0.3,0,0.6,0.1,0.8,0.2c0.4,0.2,0.7,0.3,1.2,0.3
			c0.6,0,1-0.2,1.3-0.5l0.6,0.3l-3.7,6.1h-0.8l3.3-5.4c-0.2,0.1-0.4,0.1-0.6,0.1c-0.3,0-0.5,0-0.7-0.1c0.1,0.2,0.1,0.4,0.1,0.7
			c0,1.3-0.6,1.7-1.4,1.7S125.1,250,125.1,248.7z M127,248.7c0-0.7-0.1-1-0.5-1s-0.5,0.3-0.5,1s0.1,1,0.5,1S127,249.3,127,248.7z
			 M128.4,251.9c0-1.3,0.6-1.7,1.4-1.7s1.4,0.4,1.4,1.7c0,1.3-0.6,1.7-1.4,1.7S128.4,253.2,128.4,251.9z M130.3,251.9
			c0-0.7-0.1-1-0.5-1c-0.4,0-0.5,0.3-0.5,1s0.1,1,0.5,1C130.2,252.8,130.3,252.5,130.3,251.9z"/>
	</g>
</g>
<g id="XMLID_139_">
	<g id="XMLID_141_">
		<path id="XMLID_150_" class="st10" d="M114.9,214.2l1.9-2.6c0.4-0.5,0.7-1,0.7-1.6c0-0.7-0.3-1-1.1-1c-0.6,0-1.2,0.4-1.6,0.8v-1.1
			c0.3-0.3,0.9-0.7,1.8-0.7c1.4,0,2,0.8,2,2c0,1-0.6,1.9-1.2,2.6l-0.6,0.7h1.9v1.1h-3.8V214.2z"/>
		<path id="XMLID_147_" class="st10" d="M119.5,211.2c0-2.1,1.5-3.2,3.1-3.2c1.9,0,3.1,1.1,3.1,3.2c0,2.1-1.5,3.3-3.1,3.3
			C120.7,214.5,119.5,213.3,119.5,211.2z M124.5,211.2c0-1.5-0.8-2.2-1.9-2.2c-1.1,0-1.9,0.7-1.9,2.2c0,1.5,0.8,2.2,1.9,2.2
			C123.7,213.5,124.5,212.7,124.5,211.2z"/>
		<path id="XMLID_142_" class="st10" d="M128.5,209.6c0-1.3,0.6-1.7,1.4-1.7c0.3,0,0.6,0.1,0.8,0.2c0.4,0.2,0.7,0.3,1.2,0.3
			c0.6,0,1-0.2,1.3-0.5l0.6,0.3l-3.7,6.1h-0.8l3.3-5.4c-0.2,0.1-0.4,0.1-0.6,0.1c-0.3,0-0.5,0-0.7-0.1c0.1,0.2,0.1,0.4,0.1,0.7
			c0,1.3-0.6,1.7-1.4,1.7S128.5,210.9,128.5,209.6z M130.5,209.6c0-0.7-0.1-1-0.5-1s-0.5,0.3-0.5,1s0.1,1,0.5,1
			S130.5,210.3,130.5,209.6z M131.9,212.8c0-1.3,0.6-1.7,1.4-1.7s1.4,0.4,1.4,1.7c0,1.3-0.6,1.7-1.4,1.7S131.9,214.1,131.9,212.8z
			 M133.8,212.8c0-0.7-0.1-1-0.5-1c-0.4,0-0.5,0.3-0.5,1s0.1,1,0.5,1C133.7,213.8,133.8,213.5,133.8,212.8z"/>
	</g>
</g>
<g id="XMLID_118_">
	<g id="XMLID_120_">
		<path id="XMLID_128_" class="st10" d="M114.9,175.7l1.9-2.6c0.4-0.5,0.7-1,0.7-1.6c0-0.7-0.3-1-1.1-1c-0.6,0-1.2,0.4-1.6,0.8v-1.1
			c0.3-0.3,0.9-0.7,1.8-0.7c1.4,0,2,0.8,2,2c0,1-0.6,1.9-1.2,2.6l-0.6,0.7h1.9v1.1h-3.8V175.7z"/>
		<path id="XMLID_126_" class="st10" d="M119.6,175.6v-1.2c0.2,0.2,0.7,0.5,1.3,0.5c0.9,0,1.3-0.4,1.3-1c0-0.6-0.3-0.9-1.3-0.9
			c-0.5,0-0.9,0.1-1.2,0.2l0.1-3.7h3.4v1h-2.4l0,1.5c0.1,0,0.3-0.1,0.5-0.1c1.3,0,2.1,0.6,2.1,1.8c0,1.3-1.1,2.1-2.5,2.1
			C120.2,175.9,119.8,175.8,119.6,175.6z"/>
		<path id="XMLID_121_" class="st10" d="M126.3,171c0-1.3,0.6-1.7,1.4-1.7c0.3,0,0.6,0.1,0.8,0.2c0.4,0.2,0.7,0.3,1.2,0.3
			c0.6,0,1-0.2,1.3-0.5l0.6,0.3l-3.7,6.1h-0.8l3.3-5.4c-0.2,0.1-0.4,0.1-0.6,0.1c-0.3,0-0.5,0-0.7-0.1c0.1,0.2,0.1,0.4,0.1,0.7
			c0,1.3-0.6,1.7-1.4,1.7S126.3,172.3,126.3,171z M128.3,171c0-0.7-0.1-1-0.5-1s-0.5,0.3-0.5,1s0.1,1,0.5,1S128.3,171.7,128.3,171z
			 M129.6,174.2c0-1.3,0.6-1.7,1.4-1.7s1.4,0.4,1.4,1.7c0,1.3-0.6,1.7-1.4,1.7S129.6,175.5,129.6,174.2z M131.6,174.2
			c0-0.7-0.1-1-0.5-1c-0.4,0-0.5,0.3-0.5,1s0.1,1,0.5,1C131.4,175.2,131.6,174.9,131.6,174.2z"/>
	</g>
</g>
<g id="XMLID_95_">
	<g id="XMLID_97_">
		<path id="XMLID_106_" class="st10" d="M115,137.1v-1.2c0.2,0.3,0.6,0.5,1.2,0.5c1,0,1.4-0.4,1.4-1c0-0.6-0.3-0.9-1.3-0.9h-0.4
			v-0.1l1.2-2.3h-2.2v-1h3.8v0.1l-1.4,2.4c0.8,0.2,1.5,0.6,1.5,1.7c0,1-0.8,2-2.6,2C115.6,137.3,115.2,137.2,115,137.1z"/>
		<path id="XMLID_103_" class="st10" d="M119.6,134.1c0-2.1,1.5-3.2,3.1-3.2c1.9,0,3.1,1.1,3.1,3.2c0,2.1-1.5,3.3-3.1,3.3
			C120.8,137.3,119.6,136.2,119.6,134.1z M124.5,134.1c0-1.5-0.8-2.2-1.9-2.2c-1.1,0-1.9,0.7-1.9,2.2c0,1.5,0.8,2.2,1.9,2.2
			C123.7,136.3,124.5,135.6,124.5,134.1z"/>
		<path id="XMLID_98_" class="st10" d="M128.6,132.4c0-1.3,0.6-1.7,1.4-1.7c0.3,0,0.6,0.1,0.8,0.2c0.4,0.2,0.7,0.3,1.2,0.3
			c0.6,0,1-0.2,1.3-0.5l0.6,0.3l-3.7,6.1h-0.8l3.3-5.4c-0.2,0.1-0.4,0.1-0.6,0.1c-0.3,0-0.5,0-0.7-0.1c0.1,0.2,0.1,0.4,0.1,0.7
			c0,1.3-0.6,1.7-1.4,1.7S128.6,133.7,128.6,132.4z M130.6,132.4c0-0.7-0.1-1-0.5-1s-0.5,0.3-0.5,1s0.1,1,0.5,1
			S130.6,133.1,130.6,132.4z M131.9,135.6c0-1.3,0.6-1.7,1.4-1.7s1.4,0.4,1.4,1.7c0,1.3-0.6,1.7-1.4,1.7S131.9,136.9,131.9,135.6z
			 M133.9,135.6c0-0.7-0.1-1-0.5-1c-0.4,0-0.5,0.3-0.5,1s0.1,1,0.5,1C133.8,136.6,133.9,136.3,133.9,135.6z"/>
	</g>
</g>
<g id="XMLID_85_">
	<path id="XMLID_92_" class="st1" d="M344.2,288.2c3.1-1.4,5.7-3.1,7-6.1c-0.7,0.4-1.6,0.7-2.8,0.7c-3.7,0-5.7-2.3-5.7-5.9
		c0-3.6,2.5-6.4,6.5-6.4s6.2,2.9,6.2,6.8c0,6.2-3.8,10-6.4,11.1h-4.9V288.2z M352,278.8c0.1-0.6,0.1-1.2,0.1-1.9
		c0-2.2-1.1-3.6-3-3.6s-3,1.4-3,3.4c0,2,1.1,3.3,3,3.3C350.5,280.1,351.4,279.5,352,278.8z"/>
	<path id="XMLID_86_" class="st1" d="M363.6,274.9c0-3.7,1.8-4.8,4-4.8c0.8,0,1.6,0.2,2.2,0.6c1.1,0.6,1.9,0.9,3.5,0.9
		c1.8,0,2.9-0.6,3.6-1.4l1.6,0.9l-10.5,17.4h-2.1l9.3-15.4c-0.5,0.2-1.1,0.3-1.8,0.3c-0.7,0-1.4-0.1-2-0.3c0.2,0.5,0.2,1.2,0.2,1.9
		c0,3.7-1.8,4.8-4,4.8C365.4,279.7,363.6,278.6,363.6,274.9z M369.1,274.9c0-1.9-0.4-2.8-1.5-2.8s-1.5,0.9-1.5,2.8
		c0,1.9,0.4,2.7,1.5,2.7S369.1,276.8,369.1,274.9z M373,283.9c0-3.7,1.8-4.8,4-4.8c2.2,0,4,1.2,4,4.8s-1.8,4.8-4,4.8
		C374.8,288.8,373,287.6,373,283.9z M378.5,283.9c0-1.9-0.4-2.8-1.5-2.8c-1.1,0-1.5,0.9-1.5,2.8c0,1.9,0.4,2.7,1.5,2.7
		C378.1,286.7,378.5,285.8,378.5,283.9z"/>
</g>
<g id="XMLID_73_">
	<path id="XMLID_83_" class="st1" d="M328.7,383.6l-1.1-1.5h3.9l8,11.4h0.1V382h3v17.5h-2.5l-8.4-11.9h-0.1v11.9h-3V383.6z"/>
	<path id="XMLID_80_" class="st1" d="M346.2,386.1h11v2.8h-11V386.1z M346.2,391.9h11v2.8h-11V391.9z"/>
	<path id="XMLID_78_" class="st1" d="M360.1,399.2v-3.3c0.7,0.6,1.9,1.3,3.7,1.3c2.5,0,3.8-1.1,3.8-2.8c0-1.6-0.9-2.6-3.7-2.6
		c-1.4,0-2.5,0.3-3.3,0.7L361,382h9.5v2.9h-6.7l-0.1,4.3c0.2-0.1,1-0.2,1.5-0.2c3.7,0,5.8,1.6,5.8,5.1c0,3.6-3,5.8-7,5.8
		C361.8,400,360.8,399.5,360.1,399.2z"/>
	<path id="XMLID_76_" class="st1" d="M379.8,385h-7.3V382H384v0.3l-6,17.2h-3.3L379.8,385z"/>
	<path id="XMLID_74_" class="st1" d="M385.1,399.2l5.4-7.3c1-1.4,1.9-2.8,1.9-4.4c0-1.9-0.9-3-3-3c-1.7,0-3.5,1.1-4.5,2.2v-3.2
		c0.8-1,2.6-2,5-2c4,0,5.7,2.2,5.7,5.5c0,2.8-1.8,5.3-3.3,7.2l-1.6,2.1h5.3v3h-10.8V399.2z"/>
</g>
<g id="XMLID_59_">
	<path id="XMLID_71_" class="st9" d="M562.6,383.6l-1.1-1.5h3.9l8,11.4h0.1V382h3v17.5h-2.5l-8.4-11.9h-0.1v11.9h-3V383.6z"/>
	<path id="XMLID_68_" class="st9" d="M580.1,386.1h11v2.8h-11V386.1z M580.1,391.9h11v2.8h-11V391.9z"/>
	<path id="XMLID_66_" class="st9" d="M594,399.2v-3.3c0.7,0.7,1.8,1.3,3.4,1.3c3,0,4-1.1,4-2.9c0-1.6-0.8-2.6-3.7-2.6h-1.2v-0.3
		l3.5-6.4H594V382h10.8v0.3l-3.9,6.9c2.4,0.4,4.1,1.6,4.1,4.9c0,2.8-2.1,5.8-7.2,5.8C595.8,400,594.7,399.5,594,399.2z"/>
	<path id="XMLID_64_" class="st9" d="M613.8,385h-7.3V382H618v0.3l-6,17.2h-3.3L613.8,385z"/>
	<path id="XMLID_60_" class="st9" d="M619.1,394.9c0-2.2,1.3-3.5,2.9-4.2c-1.3-0.7-2.5-2-2.5-4.1c0-3.1,2.3-5,6-5
		c3.6,0,5.6,1.9,5.6,5c0,2.1-1.1,3.3-2.5,4c1.6,0.5,2.9,2.1,2.9,4.3c0,2.9-2.3,5.1-6.4,5.1C621,400,619.1,397.8,619.1,394.9z
		 M628.2,394.6c0-1.5-0.9-2.5-3-2.5c-2,0-2.9,1-2.9,2.5s0.9,2.5,2.9,2.5C627.3,397.1,628.2,396.1,628.2,394.6z M627.9,386.9
		c0-1.5-1-2.4-2.7-2.4c-1.6,0-2.5,0.9-2.5,2.4c0,1.5,0.9,2.4,2.5,2.4C627,389.3,627.9,388.4,627.9,386.9z"/>
</g>
<g id="XMLID_48_">
	<path id="XMLID_57_" class="st9" d="M573.9,264.5c-0.7,0.6-2.4,0.8-4,0.8v-2.8c2.4,0,4.4-0.7,5.7-2.3h1.5v17.5h-3.2V264.5z"/>
	<path id="XMLID_54_" class="st9" d="M580.1,269c0-5.9,4.2-9.1,8.8-9.1c5.3,0,8.7,3.2,8.7,9.1c0,5.9-4.1,9.2-8.7,9.2
		C583.6,278.2,580.1,274.9,580.1,269z M594.1,269c0-4.2-2.2-6.3-5.3-6.3c-3,0-5.3,2.1-5.3,6.3c0,4.2,2.3,6.3,5.3,6.3
		C591.8,275.3,594.1,273.2,594.1,269z"/>
	<path id="XMLID_49_" class="st9" d="M605.6,264.3c0-3.7,1.8-4.8,4-4.8c0.8,0,1.6,0.2,2.2,0.6c1.1,0.6,1.9,0.9,3.5,0.9
		c1.8,0,2.9-0.6,3.6-1.4l1.6,0.9L610,277.8h-2.1l9.3-15.4c-0.5,0.2-1.1,0.3-1.8,0.3c-0.7,0-1.4-0.1-2-0.3c0.2,0.5,0.2,1.2,0.2,1.9
		c0,3.7-1.8,4.8-4,4.8C607.4,269.1,605.6,268,605.6,264.3z M611.1,264.3c0-1.9-0.4-2.8-1.5-2.8s-1.5,0.9-1.5,2.8
		c0,1.9,0.4,2.7,1.5,2.7S611.1,266.2,611.1,264.3z M615,273.4c0-3.7,1.8-4.8,4-4.8c2.2,0,4,1.2,4,4.8s-1.8,4.8-4,4.8
		C616.8,278.2,615,277,615,273.4z M620.5,273.4c0-1.9-0.4-2.8-1.5-2.8c-1.1,0-1.5,0.9-1.5,2.8c0,1.9,0.4,2.7,1.5,2.7
		C620.1,276.1,620.5,275.2,620.5,273.4z"/>
</g>
<text id="XMLID_47_" transform="matrix(1 0 0 1 562.2851 242.4355)" class="st9 st11 st12">Placebo</text>
<g id="XMLID_45_">
	<defs>
		<rect id="XMLID_46_" y="89" width="809" height="310.5"/>
	</defs>
	<clipPath id="XMLID_546_">
		<use xlink:href="#XMLID_46_"  style="overflow:visible;"/>
	</clipPath>
</g>
<path id="XMLID_44_" class="st1" d="M318.8,245.9h7.6c1.2,0,1.7-0.2,1.7-0.8c0-0.6-0.4-0.7-1.1-0.8c-3.6-0.3-4.6-1.3-4.6-3.7
	c0-2.3,1.5-3.9,5-3.9c2.1,0,3.1,0.3,3.8,0.6v3.1c-1.1-0.4-2.4-0.7-3.7-0.7c-1,0-1.6,0.2-1.6,0.8c0,0.6,0.4,0.7,1.1,0.8
	c3.6,0.3,4.6,1.3,4.6,3.7c0,2.2-1.3,3.9-5.2,3.9h-7"/>
<path id="XMLID_41_" class="st1" d="M335.8,244c-0.1,1.5,0.7,1.9,2.5,1.9c1.7,0,3-0.3,3.8-0.8v2.9c-1.3,0.6-2.9,0.8-4.3,0.8
	c-3.8,0-5.6-1.9-5.6-6.1c0-4.1,1.8-6.1,5.4-6.1c4.9,0,5.3,3.7,5,7.3H335.8z M335.8,241.8h3.3c0.2-1.3-0.1-2.3-1.5-2.3
	C336.4,239.5,335.8,240.3,335.8,241.8"/>
<path id="XMLID_40_" class="st1" d="M345.8,237.1l0.5,0.8c1.3-0.8,2.7-1.1,4-1.1c3.1,0,4,1.6,4,3.9v7.9h-3.7v-7.4
	c0-0.8-0.3-1.4-1.3-1.4c-0.9,0-1.7,0.4-2,0.6v8.2h-3.7v-11.5H345.8z"/>
<path id="XMLID_37_" class="st1" d="M361.4,240.5c0-0.5-0.4-0.8-1.4-0.8c-1.4,0-3.1,0.4-4.1,0.9v-3.1c0.8-0.3,2.5-0.8,4.1-0.8
	c4.1,0,4.9,1.8,4.9,4.3v7.5h-2.2l-0.5-0.9c-0.8,0.7-2,1.2-3.4,1.2c-2.9,0-3.9-1.9-3.9-3.6c0-3.1,2.3-3.6,4.3-3.8l2.1-0.2V240.5z
	 M359.9,243.4c-1,0.1-1.4,0.6-1.4,1.5c0,0.8,0.5,1.4,1.3,1.4c0.7,0,1.3-0.2,1.7-0.5v-2.5L359.9,243.4z"/>
<path id="XMLID_34_" class="st1" d="M368.4,237.1l0.6,0.9c0.8-0.7,1.9-1.2,3.7-1.2c3,0,4.4,1.8,4.4,6.1c0,4.2-1.5,6.1-4.4,6.1
	c-1.3,0-2.2-0.3-2.9-0.7v6.1h-3.7v-17.2H368.4z M369.9,245.4c0,0,0.7,0.5,1.6,0.5c1.7,0,2.1-1.1,2.1-3.1c0-2-0.4-3-2.1-3
	c-0.9,0-1.6,0.5-1.6,0.5V245.4z"/>
<path id="XMLID_33_" class="st1" d="M382.8,248.6c0,0-0.5,0.1-1.1,0.1c-2,0-3.5-1-3.5-3.2v-8.4h3.6v7.9c0,0.4,0.2,0.7,0.9,0.7V248.6
	z"/>
<path id="XMLID_32_" class="st1" d="M385.9,237.1l0.5,0.8c1.3-0.8,2.7-1.1,4-1.1c3.1,0,4,1.6,4,3.9v7.9h-3.7v-7.4
	c0-0.8-0.3-1.4-1.3-1.4c-0.9,0-1.7,0.4-2,0.6v8.2h-3.7v-11.5H385.9z"/>
<path id="XMLID_29_" class="st1" d="M398.7,244c-0.1,1.5,0.7,1.9,2.5,1.9c1.7,0,3-0.3,3.8-0.8v2.9c-1.3,0.6-2.9,0.8-4.3,0.8
	c-3.8,0-5.6-1.9-5.6-6.1c0-4.1,1.8-6.1,5.4-6.1c4.9,0,5.3,3.7,5,7.3H398.7z M398.7,241.8h3.3c0.2-1.3-0.1-2.3-1.5-2.3
	C399.3,239.5,398.7,240.3,398.7,241.8"/>
<polyline id="XMLID_28_" class="st1" points="315,245 315.7,242.1 317.9,242.1 316.4,235.6 315,242.1 314.3,245 313.4,248.5 
	309.6,248.5 314.3,231.2 318.5,231.2 323.3,248.5 319.4,248.5 318.6,245 "/>
<polygon id="XMLID_27_" class="st13" points="373.5,254.1 373.5,252 371.4,252 371.4,254.1 371,254.1 371,249.8 371.4,249.8 
	371.4,251.6 373.5,251.6 373.5,249.8 373.9,249.8 373.9,254.1 "/>
<path id="XMLID_24_" class="st13" d="M375,250c0.2,0,0.3,0.1,0.3,0.3c0,0.2-0.1,0.3-0.3,0.3c-0.2,0-0.3-0.1-0.3-0.3
	C374.7,250.2,374.9,250,375,250 M374.8,253.5v-2.3h0.4v2.4c0,0.2,0.1,0.3,0.2,0.3v0.3C375,254.1,374.8,254,374.8,253.5"/>
<polygon id="XMLID_23_" class="st13" points="377.1,252.4 378.5,254.1 378,254.1 376.9,252.6 376.5,253 376.5,254.1 376.1,254.1 
	376.1,249.8 376.5,249.8 376.5,252.5 377.8,251.2 378.3,251.2 "/>
<path id="XMLID_22_" class="st13" d="M382.4,252c0-0.4-0.2-0.5-0.5-0.5c-0.4,0-0.6,0.1-0.8,0.2c0,0.1,0,0.2,0,0.3v2.1h-0.4V252
	c0-0.4-0.2-0.5-0.5-0.5c-0.3,0-0.5,0.1-0.7,0.2v2.4H379v-2.9h0.2l0.1,0.2c0.3-0.2,0.6-0.3,0.8-0.3c0.4,0,0.7,0.1,0.8,0.3
	c0.3-0.2,0.6-0.3,0.9-0.3c0.6,0,1,0.3,1,0.9v2.1h-0.4V252z"/>
<path id="XMLID_19_" class="st13" d="M384.5,251.5c-0.4,0-0.6,0.1-0.9,0.1v-0.3c0.3-0.1,0.6-0.2,0.9-0.2c0.9,0,1.1,0.4,1.1,1v2h-0.2
	l-0.1-0.2c-0.3,0.2-0.6,0.3-0.9,0.3c-0.8,0-1-0.4-1-0.9c0-0.5,0.3-0.9,1-0.9l0.8,0v-0.2C385.2,251.7,385.1,251.5,384.5,251.5
	 M384.4,252.6c-0.4,0-0.6,0.3-0.6,0.6c0,0.3,0.1,0.6,0.6,0.6c0.3,0,0.5-0.1,0.8-0.2v-1L384.4,252.6z"/>
<path id="XMLID_16_" class="st13" d="M387.8,254.1h-0.4v-4.3h1.3c1.1,0,1.4,0.6,1.4,1.3c0,0.7-0.4,1.3-1.4,1.3h-0.9V254.1z
	 M387.8,252h1c0.8,0,1-0.5,1-0.9c0-0.4-0.2-0.9-1-0.9h-1V252z"/>
<path id="XMLID_15_" class="st13" d="M391.9,251.5c-0.4,0-0.6,0.1-0.8,0.2v2.4h-0.4v-4.3h0.4v1.6c0.2-0.2,0.5-0.2,0.8-0.2
	c0.7,0,1,0.3,1,0.9v2.1h-0.4V252C392.5,251.6,392.3,251.5,391.9,251.5"/>
<path id="XMLID_12_" class="st13" d="M394.6,251.5c-0.4,0-0.6,0.1-0.9,0.1v-0.3c0.3-0.1,0.6-0.2,0.9-0.2c0.9,0,1.1,0.4,1.1,1v2h-0.2
	l-0.1-0.2c-0.3,0.2-0.6,0.3-0.9,0.3c-0.8,0-1-0.4-1-0.9c0-0.5,0.3-0.9,1-0.9l0.8,0v-0.2C395.3,251.7,395.2,251.5,394.6,251.5
	 M394.5,252.6c-0.4,0-0.6,0.3-0.6,0.6c0,0.3,0.1,0.6,0.6,0.6c0.3,0,0.5-0.1,0.8-0.2v-1L394.5,252.6z"/>
<path id="XMLID_11_" class="st13" d="M398.1,251.5c-0.1,0-0.2,0-0.3,0c-0.4,0-0.6,0.1-0.8,0.2v2.4h-0.4v-2.9h0.2l0.1,0.2
	c0.3-0.2,0.6-0.3,0.9-0.3c0.1,0,0.2,0,0.3,0V251.5z"/>
<path id="XMLID_10_" class="st13" d="M402,252c0-0.4-0.2-0.5-0.5-0.5c-0.4,0-0.6,0.1-0.8,0.2c0,0.1,0,0.2,0,0.3v2.1h-0.4V252
	c0-0.4-0.2-0.5-0.5-0.5c-0.3,0-0.5,0.1-0.8,0.2v2.4h-0.4v-2.9h0.2l0.1,0.2c0.3-0.2,0.6-0.3,0.8-0.3c0.4,0,0.7,0.1,0.8,0.3
	c0.3-0.2,0.6-0.3,0.9-0.3c0.6,0,1,0.3,1,0.9v2.1H402V252z"/>
<path id="XMLID_7_" class="st13" d="M404.1,251.5c-0.4,0-0.6,0.1-0.9,0.1v-0.3c0.3-0.1,0.6-0.2,0.9-0.2c0.9,0,1.1,0.4,1.1,1v2H405
	l-0.1-0.2c-0.3,0.2-0.6,0.3-0.9,0.3c-0.8,0-1-0.4-1-0.9c0-0.5,0.3-0.9,1-0.9l0.8,0v-0.2C404.8,251.7,404.6,251.5,404.1,251.5
	 M404,252.6c-0.4,0-0.6,0.3-0.6,0.6c0,0.3,0.1,0.6,0.6,0.6c0.3,0,0.5-0.1,0.8-0.2v-1L404,252.6z"/>
<path id="XMLID_6_" class="st1" d="M381.4,230.6c1.6,0,2.8,1.2,2.8,2.8c0,1.6-1.2,2.8-2.8,2.8c-1.6,0-2.8-1.2-2.8-2.8
	C378.6,231.9,379.8,230.6,381.4,230.6"/>
<path id="XMLID_5_" class="st13" d="M378.7,230.6c1.6,0,2.8,1.2,2.8,2.8c0,1.6-1.2,2.8-2.8,2.8c-1.6,0-2.8-1.2-2.8-2.8
	C375.9,231.9,377.1,230.6,378.7,230.6"/>
<path id="XMLID_4_" class="st14" d="M380,231.2c1.2,0,2.2,1,2.2,2.2c0,1.2-1,2.2-2.2,2.2c-1.2,0-2.2-0.9-2.2-2.2
	C377.9,232.2,378.8,231.2,380,231.2"/>
<line id="XMLID_3_" class="st8" x1="137.2" y1="173.3" x2="148.1" y2="173.3"/>
<line id="XMLID_2_" class="st8" x1="137.2" y1="134.1" x2="148.1" y2="134.1"/>
<line id="XMLID_1_" class="st8" x1="149.3" y1="368.1" x2="754.2" y2="368.1"/>
</svg>
