<!-- Generator: Adobe Illustrator 22.1.0, SVG Export Plug-In  -->
<svg version="1.1"
	 xmlns="http://www.w3.org/2000/svg" xmlns:xlink="http://www.w3.org/1999/xlink" xmlns:a="http://ns.adobe.com/AdobeSVGViewerExtensions/3.0/"
	 x="0px" y="0px" width="374.7px" height="257.2px" viewBox="0 0 374.7 257.2" style="enable-background:new 0 0 374.7 257.2;"
	 xml:space="preserve">
<style type="text/css">
	.st0{fill:url(#XMLID_750_);}
	.st1{fill:#FFFFFF;stroke:#8B3C95;stroke-width:1.4033;stroke-miterlimit:10;}
	.st2{fill:#E4EA91;}
	.st3{fill:#0C3B60;}
	.st4{fill:none;stroke:#8B3C95;stroke-width:0.5534;stroke-miterlimit:10;}
	.st5{fill:none;stroke:#8B3C95;stroke-width:0.5976;stroke-miterlimit:10;}
	.st6{fill:none;stroke:#C14B48;stroke-width:0.7632;stroke-miterlimit:10;}
	.st7{fill:#669552;}
	.st8{fill:none;stroke:#808184;stroke-width:1.1846;stroke-miterlimit:10;}
	.st9{fill:none;stroke:#669552;stroke-width:1.1846;stroke-miterlimit:10;}
	.st10{fill:none;stroke:#8B3C96;stroke-width:1.1846;stroke-miterlimit:10;}
	.st11{fill:#8B3C96;}
	.st12{fill:#808184;}
	.st13{fill:none;stroke:#EE2A7B;stroke-width:0.8202;stroke-miterlimit:10;stroke-dasharray:2.5873,2.5873;}
	.st14{font-family:'Altis-Medium';}
	.st15{font-size:6.4101px;}
	.st16{fill:#231F20;}
	.st17{fill:#FFFFFF;}
	.st18{fill:none;stroke:#8B3C95;stroke-width:0.25;stroke-miterlimit:10;}
	.st19{fill:url(#XMLID_751_);}
</style>
<defs>
</defs>
<g id="XMLID_136_">
	<linearGradient id="XMLID_750_" gradientUnits="userSpaceOnUse" x1="0.7017" y1="128.0099" x2="373.8202" y2="128.0099">
		<stop  offset="0" style="stop-color:#C3A0CB"/>
		<stop  offset="1" style="stop-color:#4A2365"/>
	</linearGradient>
	<path id="XMLID_749_" class="st0" d="M373.8,11.7c0-6.5-5.4-11.7-12.1-11.7H12.8C6.1,0,0.7,5.2,0.7,11.7v232.7
		c0,6.5,5.4,11.7,12.1,11.7h348.9c6.7,0,12.1-5.2,12.1-11.7V11.7z"/>
	<path id="XMLID_748_" class="st1" d="M0.7,243.3c0,7.3,5.9,13.2,13.2,13.2h346.9c7.3,0,13.2-5.9,13.2-13.2V45.7
		c0-7.3-5.9-13.2-13.2-13.2H13.9c-7.3,0-13.2,5.9-13.2,13.2V243.3z"/>
	<path id="XMLID_747_" class="st2" d="M293.3,32h67.3c7.3,0,13.2,5.9,13.2,13.2v197.6c0,7.3-5.9,13.2-13.2,13.2h-67.3V32z"/>
	<g id="XMLID_720_">
		<g id="XMLID_722_">
			<path id="XMLID_733_" class="st3" d="M204.8,59.4h0.6l0.4,1.6l0.6-1.6h0.3l0.6,1.6l0.4-1.6h0.6l-0.7,2.7h-0.4l-0.6-1.6l-0.6,1.6
				h-0.4L204.8,59.4z"/>
			<path id="XMLID_730_" class="st3" d="M208.4,60.7c0-1,0.6-1.4,1.2-1.4c0.6,0,1.2,0.3,1.2,1.3v0.4h-1.8c0,0.4,0.3,0.7,0.8,0.7
				c0.5,0,0.7-0.2,0.9-0.4v0.6c-0.1,0.2-0.4,0.3-0.9,0.3C209,62.1,208.4,61.6,208.4,60.7z M210.2,60.5L210.2,60.5
				c0-0.4-0.2-0.7-0.6-0.7c-0.4,0-0.6,0.3-0.6,0.7H210.2z"/>
			<path id="XMLID_727_" class="st3" d="M211.2,60.7c0-1,0.6-1.4,1.2-1.4c0.6,0,1.2,0.3,1.2,1.3v0.4h-1.8c0,0.4,0.3,0.7,0.8,0.7
				c0.5,0,0.7-0.2,0.9-0.4v0.6c-0.1,0.2-0.4,0.3-0.9,0.3C211.7,62.1,211.2,61.6,211.2,60.7z M213,60.5L213,60.5
				c0-0.4-0.2-0.7-0.6-0.7c-0.4,0-0.6,0.3-0.6,0.7H213z"/>
			<path id="XMLID_725_" class="st3" d="M215,60.8c-0.2,0.2-0.3,0.2-0.3,0.2v1h-0.6v-3.6h0.6v2c0,0,0.6-0.5,1-1.1h0.6
				c-0.2,0.4-0.6,0.7-0.9,1l1,1.6h-0.7L215,60.8z"/>
			<path id="XMLID_723_" class="st3" d="M217.9,61.9v-0.6c0.1,0.1,0.3,0.2,0.7,0.2c0.5,0,0.7-0.2,0.7-0.5c0-0.3-0.2-0.5-0.7-0.5
				c-0.3,0-0.5,0.1-0.6,0.1l0.1-2h1.8v0.5h-1.2l0,0.8c0,0,0.2,0,0.3,0c0.7,0,1.1,0.3,1.1,0.9c0,0.7-0.6,1.1-1.3,1.1
				C218.3,62.1,218.1,62,217.9,61.9z"/>
		</g>
	</g>
	<g id="XMLID_691_">
		<g id="XMLID_693_">
			<path id="XMLID_705_" class="st3" d="M237.9,59.4h0.6l0.4,1.6l0.6-1.6h0.3l0.6,1.6l0.4-1.6h0.6l-0.7,2.7h-0.4l-0.6-1.6L239,62
				h-0.4L237.9,59.4z"/>
			<path id="XMLID_702_" class="st3" d="M241.6,60.7c0-1,0.6-1.4,1.2-1.4c0.6,0,1.2,0.3,1.2,1.3v0.4h-1.8c0,0.4,0.3,0.7,0.8,0.7
				c0.5,0,0.7-0.2,0.9-0.4v0.6c-0.1,0.2-0.4,0.3-0.9,0.3C242.1,62.1,241.6,61.6,241.6,60.7z M243.4,60.5L243.4,60.5
				c0-0.4-0.2-0.7-0.6-0.7c-0.4,0-0.6,0.3-0.6,0.7H243.4z"/>
			<path id="XMLID_699_" class="st3" d="M244.3,60.7c0-1,0.6-1.4,1.2-1.4c0.6,0,1.2,0.3,1.2,1.3v0.4H245c0,0.4,0.3,0.7,0.8,0.7
				c0.5,0,0.7-0.2,0.9-0.4v0.6c-0.1,0.2-0.4,0.3-0.9,0.3C244.9,62.1,244.3,61.6,244.3,60.7z M246.1,60.5L246.1,60.5
				c0-0.4-0.2-0.7-0.6-0.7c-0.4,0-0.6,0.3-0.6,0.7H246.1z"/>
			<path id="XMLID_697_" class="st3" d="M248.2,60.8c-0.2,0.2-0.3,0.2-0.3,0.2v1h-0.6v-3.6h0.6v2c0,0,0.6-0.5,1-1.1h0.6
				c-0.2,0.4-0.6,0.7-0.9,1l1,1.6h-0.7L248.2,60.8z"/>
			<path id="XMLID_694_" class="st3" d="M251,60.8c0-1.2,0.7-1.8,1.2-2.1h0.9v0c-0.6,0.3-1.1,0.6-1.3,1.1c0.1-0.1,0.3-0.1,0.5-0.1
				c0.7,0,1.1,0.4,1.1,1.1c0,0.7-0.5,1.2-1.2,1.2S251,61.6,251,60.8z M252.8,60.9c0-0.4-0.2-0.6-0.6-0.6c-0.3,0-0.4,0.1-0.5,0.2
				c0,0.1,0,0.2,0,0.4c0,0.4,0.2,0.7,0.6,0.7C252.6,61.5,252.8,61.3,252.8,60.9z"/>
		</g>
	</g>
	<line id="XMLID_690_" class="st4" x1="221.2" y1="67" x2="221.2" y2="64.3"/>
	<line id="XMLID_689_" class="st4" x1="254.3" y1="67" x2="254.3" y2="64.3"/>
	<g id="XMLID_680_">
		<g id="XMLID_682_">
			<path id="XMLID_683_" class="st3" d="M13.2,67.5c0-1.3,0.9-2,1.9-2c1.2,0,1.9,0.7,1.9,2c0,1.3-0.9,2-1.9,2
				C14,69.5,13.2,68.8,13.2,67.5z M16.3,67.5c0-0.9-0.5-1.4-1.2-1.4c-0.7,0-1.2,0.5-1.2,1.4c0,0.9,0.5,1.4,1.2,1.4
				C15.8,68.9,16.3,68.4,16.3,67.5z"/>
		</g>
	</g>
	<g id="XMLID_669_">
		<g id="XMLID_671_">
			<path id="XMLID_674_" class="st3" d="M13.3,86h1.5v0.6h-1.5V86z"/>
			<path id="XMLID_672_" class="st3" d="M16.1,85.2c-0.1,0.1-0.5,0.2-0.9,0.2v-0.6c0.5,0,1-0.2,1.3-0.5h0.3v3.9h-0.7V85.2z"/>
		</g>
	</g>
	<g id="XMLID_658_">
		<g id="XMLID_660_">
			<path id="XMLID_663_" class="st3" d="M13.3,104.7h1.5v0.6h-1.5V104.7z"/>
			<path id="XMLID_661_" class="st3" d="M15.4,106.7l1.2-1.6c0.2-0.3,0.4-0.6,0.4-1c0-0.4-0.2-0.7-0.7-0.7c-0.4,0-0.8,0.2-1,0.5
				v-0.7c0.2-0.2,0.6-0.4,1.1-0.4c0.9,0,1.3,0.5,1.3,1.2c0,0.6-0.4,1.2-0.7,1.6l-0.4,0.5h1.2v0.7L15.4,106.7L15.4,106.7z"/>
		</g>
	</g>
	<g id="XMLID_647_">
		<g id="XMLID_649_">
			<path id="XMLID_652_" class="st3" d="M13.3,123.3h1.5v0.6h-1.5V123.3z"/>
			<path id="XMLID_650_" class="st3" d="M15.4,125.3v-0.7c0.2,0.2,0.4,0.3,0.8,0.3c0.7,0,0.9-0.2,0.9-0.6c0-0.4-0.2-0.6-0.8-0.6H16
				v-0.1l0.8-1.4h-1.4v-0.6h2.4v0.1l-0.9,1.5c0.5,0.1,0.9,0.4,0.9,1.1c0,0.6-0.5,1.3-1.6,1.3C15.8,125.4,15.6,125.3,15.4,125.3z"/>
		</g>
	</g>
	<g id="XMLID_636_">
		<g id="XMLID_638_">
			<path id="XMLID_641_" class="st3" d="M13.3,141.9h1.5v0.6h-1.5V141.9z"/>
			<path id="XMLID_639_" class="st3" d="M17.1,143.2h-1.9v-0.1l1.1-3H17l-0.8,2.4h0.9v-1.4h0.7v1.4h0.4v0.7h-0.4v0.8h-0.7V143.2z"/>
		</g>
	</g>
	<g id="XMLID_625_">
		<g id="XMLID_627_">
			<path id="XMLID_630_" class="st3" d="M13.3,160.5h1.5v0.6h-1.5V160.5z"/>
			<path id="XMLID_628_" class="st3" d="M15.4,162.5v-0.7c0.2,0.1,0.4,0.3,0.8,0.3c0.6,0,0.8-0.2,0.8-0.6c0-0.4-0.2-0.6-0.8-0.6
				c-0.3,0-0.6,0.1-0.7,0.1l0.1-2.3h2.1v0.6h-1.5l0,0.9c0,0,0.2,0,0.3,0c0.8,0,1.3,0.4,1.3,1.1c0,0.8-0.7,1.3-1.5,1.3
				C15.8,162.7,15.6,162.6,15.4,162.5z"/>
		</g>
	</g>
	<g id="XMLID_612_">
		<g id="XMLID_614_">
			<path id="XMLID_618_" class="st3" d="M13.3,179.2h1.5v0.6h-1.5V179.2z"/>
			<path id="XMLID_615_" class="st3" d="M15.4,179.8c0-1.4,0.8-2.2,1.5-2.5h1v0c-0.7,0.3-1.3,0.7-1.5,1.4c0.1-0.1,0.4-0.2,0.6-0.2
				c0.8,0,1.3,0.5,1.3,1.3c0,0.8-0.6,1.4-1.4,1.4C15.9,181.3,15.4,180.7,15.4,179.8z M17.5,179.9c0-0.4-0.2-0.7-0.7-0.7
				c-0.3,0-0.5,0.1-0.6,0.3c0,0.1,0,0.3,0,0.4c0,0.5,0.2,0.8,0.7,0.8C17.2,180.7,17.5,180.4,17.5,179.9z"/>
		</g>
	</g>
	<g id="XMLID_601_">
		<g id="XMLID_603_">
			<path id="XMLID_606_" class="st3" d="M13.3,197.8h1.5v0.6h-1.5V197.8z"/>
			<path id="XMLID_604_" class="st3" d="M16.9,196.6h-1.6V196h2.5v0.1l-1.3,3.8h-0.7L16.9,196.6z"/>
		</g>
	</g>
	<g id="XMLID_586_">
		<g id="XMLID_588_">
			<path id="XMLID_593_" class="st3" d="M13.3,216.4h1.5v0.6h-1.5V216.4z"/>
			<path id="XMLID_589_" class="st3" d="M15.4,217.5c0-0.5,0.3-0.8,0.6-0.9c-0.3-0.1-0.5-0.4-0.5-0.9c0-0.7,0.5-1.1,1.3-1.1
				c0.8,0,1.2,0.4,1.2,1.1c0,0.5-0.3,0.7-0.5,0.9c0.4,0.1,0.6,0.5,0.6,1c0,0.6-0.5,1.1-1.4,1.1C15.8,218.6,15.4,218.1,15.4,217.5z
				 M17.4,217.4c0-0.3-0.2-0.5-0.7-0.5c-0.4,0-0.6,0.2-0.6,0.5s0.2,0.6,0.6,0.6C17.2,217.9,17.4,217.7,17.4,217.4z M17.4,215.7
				c0-0.3-0.2-0.5-0.6-0.5c-0.4,0-0.6,0.2-0.6,0.5s0.2,0.5,0.6,0.5C17.1,216.2,17.4,216,17.4,215.7z"/>
		</g>
	</g>
	<g id="XMLID_573_">
		<g id="XMLID_575_">
			<path id="XMLID_579_" class="st3" d="M13.3,235.1h1.5v0.6h-1.5V235.1z"/>
			<path id="XMLID_576_" class="st3" d="M15.6,237.1c0.7-0.3,1.3-0.7,1.5-1.4c-0.1,0.1-0.4,0.2-0.6,0.2c-0.8,0-1.3-0.5-1.3-1.3
				c0-0.8,0.6-1.4,1.4-1.4c0.9,0,1.4,0.6,1.4,1.5c0,1.4-0.8,2.2-1.4,2.5L15.6,237.1L15.6,237.1z M17.4,235c0-0.1,0-0.3,0-0.4
				c0-0.5-0.2-0.8-0.7-0.8c-0.4,0-0.7,0.3-0.7,0.8s0.2,0.7,0.7,0.7C17,235.3,17.2,235.2,17.4,235z"/>
		</g>
	</g>
	<g id="XMLID_544_">
		<g id="XMLID_546_">
			<path id="XMLID_558_" class="st3" d="M42.5,59.4h0.6l0.4,1.6l0.6-1.6h0.3l0.6,1.6l0.4-1.6h0.6L45.2,62h-0.4l-0.6-1.6L43.5,62
				h-0.4L42.5,59.4z"/>
			<path id="XMLID_555_" class="st3" d="M46.1,60.7c0-1,0.6-1.4,1.2-1.4c0.6,0,1.2,0.3,1.2,1.3v0.4h-1.8c0,0.4,0.3,0.7,0.8,0.7
				c0.5,0,0.7-0.2,0.9-0.4v0.6c-0.1,0.2-0.4,0.3-0.9,0.3C46.7,62.1,46.1,61.6,46.1,60.7z M47.9,60.5L47.9,60.5
				c0-0.4-0.2-0.7-0.6-0.7c-0.4,0-0.6,0.3-0.6,0.7H47.9z"/>
			<path id="XMLID_552_" class="st3" d="M48.9,60.7c0-1,0.6-1.4,1.2-1.4c0.6,0,1.2,0.3,1.2,1.3v0.4h-1.8c0,0.4,0.3,0.7,0.8,0.7
				c0.5,0,0.7-0.2,0.9-0.4v0.6c-0.1,0.2-0.4,0.3-0.9,0.3C49.4,62.1,48.9,61.6,48.9,60.7z M50.7,60.5L50.7,60.5
				c0-0.4-0.2-0.7-0.6-0.7c-0.4,0-0.6,0.3-0.6,0.7H50.7z"/>
			<path id="XMLID_550_" class="st3" d="M52.7,60.8c-0.2,0.2-0.3,0.2-0.3,0.2v1h-0.6v-3.6h0.6v2c0,0,0.6-0.5,1-1.1h0.6
				c-0.2,0.4-0.6,0.7-0.9,1l1,1.6h-0.7L52.7,60.8z"/>
			<path id="XMLID_547_" class="st3" d="M55.6,60.4c0-1.1,0.8-1.7,1.6-1.7c1,0,1.6,0.6,1.6,1.7c0,1.1-0.8,1.7-1.6,1.7
				C56.2,62.1,55.6,61.5,55.6,60.4z M58.2,60.4c0-0.8-0.4-1.2-1-1.2c-0.6,0-1,0.4-1,1.2c0,0.8,0.4,1.2,1,1.2
				C57.8,61.6,58.2,61.1,58.2,60.4z"/>
		</g>
	</g>
	<g id="XMLID_517_">
		<g id="XMLID_519_">
			<path id="XMLID_530_" class="st3" d="M75,59.4h0.6l0.4,1.6l0.6-1.6h0.3l0.6,1.6l0.4-1.6h0.6L77.7,62h-0.4l-0.6-1.6L76.1,62h-0.4
				L75,59.4z"/>
			<path id="XMLID_527_" class="st3" d="M78.7,60.7c0-1,0.6-1.4,1.2-1.4c0.6,0,1.2,0.3,1.2,1.3v0.4h-1.8c0,0.4,0.3,0.7,0.8,0.7
				c0.5,0,0.7-0.2,0.9-0.4v0.6c-0.1,0.2-0.4,0.3-0.9,0.3C79.2,62.1,78.7,61.6,78.7,60.7z M80.5,60.5L80.5,60.5
				c0-0.4-0.2-0.7-0.6-0.7c-0.4,0-0.6,0.3-0.6,0.7H80.5z"/>
			<path id="XMLID_524_" class="st3" d="M81.4,60.7c0-1,0.6-1.4,1.2-1.4c0.6,0,1.2,0.3,1.2,1.3v0.4h-1.8c0,0.4,0.3,0.7,0.8,0.7
				c0.5,0,0.7-0.2,0.9-0.4v0.6c-0.1,0.2-0.4,0.3-0.9,0.3C82,62.1,81.4,61.6,81.4,60.7z M83.2,60.5L83.2,60.5c0-0.4-0.2-0.7-0.6-0.7
				c-0.4,0-0.6,0.3-0.6,0.7H83.2z"/>
			<path id="XMLID_522_" class="st3" d="M85.3,60.8C85.1,60.9,85,61,85,61v1h-0.6v-3.6H85v2c0,0,0.6-0.5,1-1.1h0.6
				c-0.2,0.4-0.6,0.7-0.9,1l1,1.6H86L85.3,60.8z"/>
			<path id="XMLID_520_" class="st3" d="M87.6,59.5c-0.1,0.1-0.4,0.2-0.7,0.2v-0.5c0.5,0,0.8-0.1,1.1-0.4h0.3V62h-0.6V59.5z"/>
		</g>
	</g>
	<g id="XMLID_490_">
		<g id="XMLID_492_">
			<path id="XMLID_503_" class="st3" d="M107.1,59.4h0.6l0.4,1.6l0.6-1.6h0.3l0.6,1.6l0.4-1.6h0.6l-0.7,2.7h-0.4l-0.6-1.6l-0.6,1.6
				h-0.4L107.1,59.4z"/>
			<path id="XMLID_500_" class="st3" d="M110.8,60.7c0-1,0.6-1.4,1.2-1.4c0.6,0,1.2,0.3,1.2,1.3v0.4h-1.8c0,0.4,0.3,0.7,0.8,0.7
				c0.5,0,0.7-0.2,0.9-0.4v0.6c-0.1,0.2-0.4,0.3-0.9,0.3C111.4,62.1,110.8,61.6,110.8,60.7z M112.6,60.5L112.6,60.5
				c0-0.4-0.2-0.7-0.6-0.7c-0.4,0-0.6,0.3-0.6,0.7H112.6z"/>
			<path id="XMLID_497_" class="st3" d="M113.6,60.7c0-1,0.6-1.4,1.2-1.4c0.6,0,1.2,0.3,1.2,1.3v0.4h-1.8c0,0.4,0.3,0.7,0.8,0.7
				c0.5,0,0.7-0.2,0.9-0.4v0.6c-0.1,0.2-0.4,0.3-0.9,0.3C114.1,62.1,113.6,61.6,113.6,60.7z M115.4,60.5L115.4,60.5
				c0-0.4-0.2-0.7-0.6-0.7c-0.4,0-0.6,0.3-0.6,0.7H115.4z"/>
			<path id="XMLID_495_" class="st3" d="M117.4,60.8c-0.2,0.2-0.3,0.2-0.3,0.2v1h-0.6v-3.6h0.6v2c0,0,0.6-0.5,1-1.1h0.6
				c-0.2,0.4-0.6,0.7-0.9,1l1,1.6h-0.7L117.4,60.8z"/>
			<path id="XMLID_493_" class="st3" d="M120.3,61.9l1-1.4c0.2-0.3,0.4-0.5,0.4-0.8c0-0.4-0.2-0.6-0.6-0.6c-0.3,0-0.7,0.2-0.8,0.4
				V59c0.1-0.2,0.5-0.4,0.9-0.4c0.7,0,1.1,0.4,1.1,1c0,0.5-0.3,1-0.6,1.4l-0.3,0.4h1V62L120.3,61.9L120.3,61.9z"/>
		</g>
	</g>
	<g id="XMLID_463_">
		<g id="XMLID_465_">
			<path id="XMLID_476_" class="st3" d="M140,59.4h0.6l0.4,1.6l0.6-1.6h0.3l0.6,1.6l0.4-1.6h0.6l-0.7,2.7h-0.4l-0.6-1.6l-0.6,1.6
				h-0.4L140,59.4z"/>
			<path id="XMLID_473_" class="st3" d="M143.6,60.7c0-1,0.6-1.4,1.2-1.4c0.6,0,1.2,0.3,1.2,1.3v0.4h-1.8c0,0.4,0.3,0.7,0.8,0.7
				c0.5,0,0.7-0.2,0.9-0.4v0.6c-0.1,0.2-0.4,0.3-0.9,0.3C144.2,62.1,143.6,61.6,143.6,60.7z M145.4,60.5L145.4,60.5
				c0-0.4-0.2-0.7-0.6-0.7c-0.4,0-0.6,0.3-0.6,0.7H145.4z"/>
			<path id="XMLID_470_" class="st3" d="M146.4,60.7c0-1,0.6-1.4,1.2-1.4c0.6,0,1.2,0.3,1.2,1.3v0.4H147c0,0.4,0.3,0.7,0.8,0.7
				c0.5,0,0.7-0.2,0.9-0.4v0.6c-0.1,0.2-0.4,0.3-0.9,0.3C146.9,62.1,146.4,61.6,146.4,60.7z M148.2,60.5L148.2,60.5
				c0-0.4-0.2-0.7-0.6-0.7c-0.4,0-0.6,0.3-0.6,0.7H148.2z"/>
			<path id="XMLID_468_" class="st3" d="M150.2,60.8c-0.2,0.2-0.3,0.2-0.3,0.2v1h-0.6v-3.6h0.6v2c0,0,0.6-0.5,1-1.1h0.6
				c-0.2,0.4-0.6,0.7-0.9,1l1,1.6H151L150.2,60.8z"/>
			<path id="XMLID_466_" class="st3" d="M153.1,61.9v-0.6c0.1,0.1,0.3,0.2,0.6,0.2c0.6,0,0.8-0.2,0.8-0.5c0-0.3-0.2-0.5-0.7-0.5
				h-0.2v-0.1l0.7-1.2h-1.2v-0.5h2v0.1l-0.7,1.3c0.4,0.1,0.8,0.3,0.8,0.9c0,0.5-0.4,1.1-1.3,1.1C153.5,62.1,153.3,62,153.1,61.9z"/>
		</g>
	</g>
	<g id="XMLID_436_">
		<g id="XMLID_438_">
			<path id="XMLID_449_" class="st3" d="M172.7,59.4h0.6l0.4,1.6l0.6-1.6h0.3l0.6,1.6l0.4-1.6h0.6l-0.7,2.7h-0.4l-0.6-1.6l-0.6,1.6
				h-0.4L172.7,59.4z"/>
			<path id="XMLID_446_" class="st3" d="M176.4,60.7c0-1,0.6-1.4,1.2-1.4c0.6,0,1.2,0.3,1.2,1.3v0.4H177c0,0.4,0.3,0.7,0.8,0.7
				c0.5,0,0.7-0.2,0.9-0.4v0.6c-0.1,0.2-0.4,0.3-0.9,0.3C176.9,62.1,176.4,61.6,176.4,60.7z M178.2,60.5L178.2,60.5
				c0-0.4-0.2-0.7-0.6-0.7c-0.4,0-0.6,0.3-0.6,0.7H178.2z"/>
			<path id="XMLID_443_" class="st3" d="M179.2,60.7c0-1,0.6-1.4,1.2-1.4c0.6,0,1.2,0.3,1.2,1.3v0.4h-1.8c0,0.4,0.3,0.7,0.8,0.7
				c0.5,0,0.7-0.2,0.9-0.4v0.6c-0.1,0.2-0.4,0.3-0.9,0.3C179.7,62.1,179.2,61.6,179.2,60.7z M181,60.5L181,60.5
				c0-0.4-0.2-0.7-0.6-0.7c-0.4,0-0.6,0.3-0.6,0.7H181z"/>
			<path id="XMLID_441_" class="st3" d="M183,60.8c-0.2,0.2-0.3,0.2-0.3,0.2v1h-0.6v-3.6h0.6v2c0,0,0.6-0.5,1-1.1h0.6
				c-0.2,0.4-0.6,0.7-0.9,1l1,1.6h-0.7L183,60.8z"/>
			<path id="XMLID_439_" class="st3" d="M187.3,61.4h-1.6v-0.1l0.9-2.5h0.6l-0.7,2h0.8v-1.2h0.6v1.2h0.3v0.6h-0.3V62h-0.6V61.4z"/>
		</g>
	</g>
	<line id="XMLID_435_" class="st4" x1="58.4" y1="67" x2="58.4" y2="64.3"/>
	<line id="XMLID_434_" class="st4" x1="90.9" y1="67" x2="90.9" y2="64.3"/>
	<line id="XMLID_433_" class="st4" x1="123.5" y1="67" x2="123.5" y2="64.3"/>
	<line id="XMLID_432_" class="st4" x1="156.1" y1="67" x2="156.1" y2="64.3"/>
	<line id="XMLID_431_" class="st4" x1="188.7" y1="67" x2="188.7" y2="64.3"/>
	<line id="XMLID_430_" class="st5" x1="27.2" y1="66.8" x2="24.4" y2="66.8"/>
	<line id="XMLID_429_" class="st5" x1="27.2" y1="85.5" x2="24.4" y2="85.5"/>
	<line id="XMLID_428_" class="st5" x1="27.2" y1="105.4" x2="24.4" y2="105.4"/>
	<line id="XMLID_427_" class="st5" x1="27.2" y1="122.6" x2="24.4" y2="122.6"/>
	<line id="XMLID_426_" class="st5" x1="27.2" y1="141.2" x2="24.4" y2="141.2"/>
	<line id="XMLID_425_" class="st5" x1="27.2" y1="159.2" x2="24.4" y2="159.2"/>
	<line id="XMLID_424_" class="st5" x1="27.2" y1="178.7" x2="24.4" y2="178.7"/>
	<line id="XMLID_423_" class="st5" x1="27.2" y1="197.4" x2="24.4" y2="197.4"/>
	<line id="XMLID_422_" class="st5" x1="27.2" y1="214.9" x2="24.4" y2="214.9"/>
	<line id="XMLID_421_" class="st5" x1="27.2" y1="234.3" x2="24.4" y2="234.3"/>
	<line id="XMLID_420_" class="st6" x1="83.4" y1="101.9" x2="45.1" y2="66.6"/>
	<polygon id="XMLID_419_" class="st7" points="45.5,65.2 46.4,66.8 47.4,68.5 45.5,68.5 43.6,68.5 44.5,66.8 	"/>
	<polygon id="XMLID_418_" class="st7" points="83.2,102.7 84.2,104.4 85.1,106 83.2,106 81.3,106 82.3,104.4 	"/>
	<polygon id="XMLID_417_" class="st7" points="121.4,134.6 122.4,136.3 123.3,137.9 121.4,137.9 119.5,137.9 120.5,136.3 	"/>
	<polygon id="XMLID_416_" class="st7" points="159.5,157.2 160.8,159.5 162.2,161.9 159.5,161.9 156.7,161.9 158.1,159.5 	"/>
	<polygon id="XMLID_415_" class="st7" points="196.6,148.2 198,150.6 199.4,152.9 196.6,152.9 193.9,152.9 195.3,150.6 	"/>
	<polygon id="XMLID_414_" class="st7" points="235.4,151.3 236.7,153.6 238.1,156 235.4,156 232.7,156 234,153.6 	"/>
	<polygon id="XMLID_413_" class="st7" points="273.4,156.8 274.8,159.2 276.1,161.5 273.4,161.5 270.7,161.5 272.1,159.2 	"/>
	<polygon id="XMLID_412_" class="st7" points="121.2,133.9 122.6,136.3 123.9,138.6 121.2,138.6 118.5,138.6 119.8,136.3 	"/>
	<polygon id="XMLID_411_" class="st7" points="235.4,152 236.3,153.6 237.3,155.3 235.4,155.3 233.5,155.3 234.4,153.6 	"/>
	<polygon id="XMLID_410_" class="st7" points="273.4,157 274.4,158.6 275.3,160.3 273.4,160.3 271.5,160.3 272.5,158.6 	"/>
	<polyline id="XMLID_409_" class="st8" points="271.5,104.3 235.4,100.4 196.7,112 159.3,113.6 121.4,106.7 83.4,101.9 	"/>
	<polyline id="XMLID_408_" class="st9" points="45.5,66.8 84.2,104.8 122.4,137.5 159.2,160.3 196.9,151.8 235,154.2 273,159 	"/>
	<polyline id="XMLID_405_" class="st10" points="273.4,207.7 235.4,207.7 197.3,211.5 159.3,214.9 121.4,162.6 83.2,112 47.4,69.5 
		45.5,64.3 	"/>
	<g id="XMLID_386_">
		
			<rect id="XMLID_402_" x="271.2" y="205.7" transform="matrix(0.6666 -0.7454 0.7454 0.6666 -63.762 273.0913)" class="st11" width="4.3" height="4.3"/>
		
			<rect id="XMLID_399_" x="230.4" y="205.7" transform="matrix(0.6668 -0.7453 0.7453 0.6668 -77.3873 242.5861)" class="st11" width="4.3" height="4.3"/>
		
			<rect id="XMLID_396_" x="195.3" y="209.5" transform="matrix(0.6666 -0.7454 0.7454 0.6666 -91.9786 217.7466)" class="st11" width="4.3" height="4.3"/>
		
			<rect id="XMLID_393_" x="157.1" y="212.9" transform="matrix(0.6665 -0.7455 0.7455 0.6665 -107.2203 190.4989)" class="st11" width="4.3" height="4.3"/>
		
			<rect id="XMLID_390_" x="119" y="160.4" transform="matrix(0.6664 -0.7456 0.7456 0.6664 -80.8166 144.5717)" class="st11" width="4.3" height="4.3"/>
		
			<rect id="XMLID_387_" x="81.1" y="109.8" transform="matrix(0.6667 -0.7453 0.7453 0.6667 -55.7278 99.4091)" class="st11" width="4.3" height="4.3"/>
	</g>
	<g id="XMLID_379_">
		<rect id="XMLID_385_" x="270.4" y="101.2" class="st12" width="6.1" height="6.1"/>
		<rect id="XMLID_384_" x="232.3" y="97.1" class="st12" width="6.1" height="6.1"/>
		<rect id="XMLID_383_" x="194.4" y="108.8" class="st12" width="6.1" height="6.1"/>
		<rect id="XMLID_382_" x="156.2" y="110.6" class="st12" width="6.1" height="6.1"/>
		<rect id="XMLID_381_" x="118.1" y="103.6" class="st12" width="6.1" height="6.1"/>
		<rect id="XMLID_380_" x="80.3" y="99.2" class="st12" width="6.1" height="6.1"/>
	</g>
	<rect id="XMLID_378_" x="80.7" y="99.9" class="st12" width="5" height="4.9"/>
	<line id="XMLID_377_" class="st13" x1="293.3" y1="256.7" x2="293.3" y2="32.2"/>
	<g id="XMLID_375_">
		<text transform="matrix(1 0 0 1 267.0998 224.9873)" class="st3 st14 st15">##</text>
	</g>
	<g id="XMLID_373_">
		<text transform="matrix(1 0 0 1 228.507 220.9785)" class="st3 st14 st15">##</text>
	</g>
	<g id="XMLID_371_">
		<text transform="matrix(1 0 0 1 156.0822 207.831)" class="st3 st14 st15">##</text>
	</g>
	<g id="XMLID_369_">
		<text transform="matrix(1 0 0 1 111.0686 173.2744)" class="st3 st14 st15">**</text>
	</g>
	<g id="XMLID_367_">
		<text transform="matrix(1 0 0 1 194.8791 205.3262)" class="st3 st14 st15">§§</text>
	</g>
	<g id="XMLID_323_">
		<g id="XMLID_328_">
			<g id="XMLID_330_">
				<path id="XMLID_347_" class="st16" d="M325,67.4h1.4c1.4,0,1.9,0.6,1.9,1.5c0,1-0.6,1.7-1.9,1.7h-0.2V70h0.2c0.7,0,1-0.4,1-0.9
					c0-0.6-0.3-0.9-1-0.9h-0.4v4H325V67.4z"/>
				<path id="XMLID_345_" class="st16" d="M329,67.4h0.9v3.9h1.7v0.8H329V67.4z"/>
				<path id="XMLID_342_" class="st16" d="M333.5,67.9l-0.2-0.5h0.9l1.8,4.7h-1l-0.4-1h-1.7l-0.4,1h-0.9L333.5,67.9z M333.3,70.5
					h1.2l-0.5-1.3l-0.1-0.4l-0.1,0.4L333.3,70.5z"/>
				<path id="XMLID_340_" class="st16" d="M336.3,69.8c0-1.6,1-2.5,2.2-2.5c0.8,0,1.1,0.2,1.3,0.4v1c-0.2-0.4-0.6-0.6-1.2-0.6
					c-0.9,0-1.4,0.6-1.4,1.6c0,1.1,0.5,1.7,1.4,1.7c0.5,0,1-0.2,1.2-0.6v0.9c-0.3,0.3-0.7,0.5-1.3,0.5
					C337.2,72.2,336.3,71.4,336.3,69.8z"/>
				<path id="XMLID_338_" class="st16" d="M340.7,67.4h3v0.8h-2.1v1.1h1.4v0.7h-1.4v1.3h2.1v0.8h-3V67.4z"/>
				<path id="XMLID_334_" class="st16" d="M344.5,67.4h1.4c1.3,0,1.8,0.4,1.8,1.2c0,0.6-0.4,1-0.9,1.1v0c0.6,0.1,1,0.4,1,1.1
					c0,0.8-0.5,1.3-1.8,1.3h-1.4V67.4z M345.9,69.4c0.7,0,0.9-0.2,0.9-0.6c0-0.4-0.3-0.6-0.9-0.6h-0.5v1.2H345.9z M345.9,71.4
					c0.7,0,0.9-0.2,0.9-0.6c0-0.4-0.2-0.6-0.9-0.6h-0.6v1.3H345.9z"/>
				<path id="XMLID_331_" class="st16" d="M348.3,69.8c0-1.6,1.1-2.5,2.3-2.5c1.4,0,2.3,0.8,2.3,2.5c0,1.6-1.1,2.5-2.3,2.5
					C349.3,72.2,348.3,71.4,348.3,69.8z M352,69.8c0-1.1-0.5-1.7-1.4-1.7c-0.8,0-1.4,0.6-1.4,1.6c0,1.1,0.5,1.7,1.4,1.7
					C351.5,71.5,352,70.9,352,69.8z"/>
			</g>
		</g>
		<g id="XMLID_324_">
			<g id="XMLID_326_">
				<path id="XMLID_327_" class="st12" d="M299.1,69.2c6.1,0,12.1,0,18.2,0c1,0,1-1.6,0-1.6c-6.1,0-12.1,0-18.2,0
					C298.1,67.6,298.1,69.2,299.1,69.2L299.1,69.2z"/>
			</g>
			<rect id="XMLID_325_" x="305.7" y="65.9" class="st12" width="5.1" height="5.1"/>
		</g>
	</g>
	<g id="XMLID_230_">
		<g id="XMLID_318_">
			<g id="XMLID_320_">
				<g id="XMLID_321_">
					<path id="XMLID_322_" class="st7" d="M297.8,142.5c6.1,0,12.1,0,18.2,0c1,0,1-1.6,0-1.6c-6.1,0-12.1,0-18.2,0
						C296.8,140.9,296.8,142.5,297.8,142.5L297.8,142.5z"/>
				</g>
			</g>
			<polygon id="XMLID_319_" class="st7" points="303.2,144.8 306.9,138.5 310.5,144.8 			"/>
		</g>
		<g id="XMLID_231_">
			<g id="XMLID_233_">
				<path id="XMLID_273_" class="st16" d="M321.6,139.4L321.6,139.4l0,1.7h-0.9v-4.6h1.3c1.1,0,1.8,0.4,1.8,1.4
					c0,0.8-0.5,1.3-1.2,1.5l1.6,1.8H323L321.6,139.4z M321.9,138.8c0.6,0,0.9-0.3,0.9-0.8c0-0.5-0.3-0.7-0.9-0.7h-0.4v1.5H321.9z"/>
				<path id="XMLID_271_" class="st16" d="M324.6,136.6h0.9v4.6h-0.9V136.6z"/>
				<path id="XMLID_269_" class="st16" d="M326.4,140.9v-1c0.2,0.3,0.6,0.5,1.2,0.5c0.5,0,0.8-0.3,0.8-0.7c0-0.3-0.2-0.5-0.7-0.6
					l-0.2,0c-0.7-0.2-1.1-0.6-1.1-1.3c0-0.9,0.6-1.4,1.6-1.4c0.6,0,1,0.2,1.1,0.3v1c-0.2-0.3-0.6-0.5-1.2-0.5
					c-0.5,0-0.7,0.2-0.7,0.6c0,0.3,0.1,0.5,0.7,0.6l0.2,0c0.8,0.2,1.2,0.6,1.2,1.3c0,0.9-0.6,1.5-1.7,1.5
					C326.9,141.3,326.5,141.1,326.4,140.9z"/>
				<path id="XMLID_267_" class="st16" d="M330,136.6h1.3c1.3,0,1.9,0.6,1.9,1.5c0,0.9-0.6,1.7-1.9,1.7h-0.2v-0.7h0.2
					c0.7,0,1-0.4,1-0.9c0-0.6-0.3-0.9-1-0.9h-0.4v3.9H330V136.6z"/>
				<path id="XMLID_265_" class="st16" d="M333.9,136.6h2.9v0.8h-2v1.1h1.4v0.7h-1.4v1.3h2v0.8h-2.9V136.6z"/>
				<path id="XMLID_262_" class="st16" d="M338.6,139.4L338.6,139.4l0,1.7h-0.9v-4.6h1.3c1.1,0,1.8,0.4,1.8,1.4
					c0,0.8-0.5,1.3-1.2,1.5l1.6,1.8H340L338.6,139.4z M339,138.8c0.6,0,0.9-0.3,0.9-0.8c0-0.5-0.3-0.7-0.9-0.7h-0.4v1.5H339z"/>
				<path id="XMLID_260_" class="st16" d="M341.6,136.6h0.9v4.6h-0.9V136.6z"/>
				<path id="XMLID_257_" class="st16" d="M343.6,136.6h1.3c1.5,0,2.4,0.6,2.4,2.3c0,1.7-1.1,2.3-2.4,2.3h-1.3V136.6z M344.9,140.4
					c1.2,0,1.5-0.5,1.5-1.5c0-1-0.4-1.6-1.5-1.6h-0.4v3.1H344.9z"/>
				<path id="XMLID_254_" class="st16" d="M347.8,138.9c0-1.6,1.1-2.4,2.3-2.4c1.3,0,2.3,0.8,2.3,2.4c0,1.6-1.1,2.4-2.3,2.4
					C348.8,141.3,347.8,140.4,347.8,138.9z M351.5,138.9c0-1.1-0.5-1.7-1.4-1.7c-0.8,0-1.4,0.6-1.4,1.6c0,1.1,0.5,1.7,1.4,1.7
					C350.9,140.5,351.5,139.9,351.5,138.9z"/>
				<path id="XMLID_252_" class="st16" d="M353.1,137l-0.3-0.4h1l2.1,3h0v-3h0.8v4.6h-0.6L354,138h0v3.1h-0.8V137z"/>
				<path id="XMLID_250_" class="st16" d="M357.8,136.6h2.9v0.8h-2v1.1h1.4v0.7h-1.4v1.3h2v0.8h-2.9V136.6z"/>
				<path id="XMLID_248_" class="st16" d="M328.1,149.2v-0.9c0.2,0.2,0.5,0.3,0.9,0.3c0.8,0,1.1-0.3,1.1-0.8c0-0.4-0.2-0.7-1-0.7
					h-0.3v-0.1l0.9-1.7h-1.6v-0.8h2.8v0.1l-1,1.8c0.6,0.1,1.1,0.4,1.1,1.3c0,0.7-0.6,1.5-1.9,1.5
					C328.6,149.4,328.3,149.3,328.1,149.2z"/>
				<path id="XMLID_246_" class="st16" d="M331.7,145.5h0.8l0,0.3c0.1-0.2,0.5-0.4,0.9-0.4c0.5,0,0.9,0.2,1.1,0.5
					c0.2-0.2,0.5-0.5,1.1-0.5c0.9,0,1.3,0.5,1.3,1.5v2.3h-0.9v-2.2c0-0.7-0.2-1-0.6-1c-0.3,0-0.6,0.2-0.7,0.4c0,0.1,0,0.3,0,0.5v2.3
					h-0.9v-2.2c0-0.7-0.2-1-0.6-1c-0.3,0-0.6,0.2-0.7,0.4v2.8h-0.9V145.5z"/>
				<path id="XMLID_243_" class="st16" d="M337.6,150.3v-0.7c0.3,0.3,0.8,0.4,1.5,0.4c0.9,0,1.3-0.1,1.3-0.5c0-0.3-0.3-0.4-0.8-0.4
					c-0.5,0-1.3,0.1-1.6,0.2v-0.6l0.5-0.8c-0.5-0.2-0.8-0.6-0.8-1.2c0-0.8,0.6-1.3,1.6-1.3c0.4,0,0.8,0.1,1,0.3
					c0.1-0.2,0.4-0.3,0.7-0.3c0.1,0,0.2,0,0.3,0v0.7c-0.1,0-0.1,0-0.2,0c-0.1,0-0.3,0-0.4,0.1c0.1,0.1,0.1,0.3,0.1,0.5
					c0,0.8-0.6,1.3-1.6,1.3h-0.1l-0.3,0.6c0.1,0,0.6-0.1,1-0.1c0.9,0,1.5,0.2,1.5,1s-0.7,1.3-2,1.3
					C338.5,150.7,337.9,150.6,337.6,150.3z M339.9,146.7c0-0.4-0.3-0.6-0.7-0.6s-0.7,0.2-0.7,0.6c0,0.4,0.3,0.6,0.7,0.6
					S339.9,147.1,339.9,146.7z"/>
				<path id="XMLID_239_" class="st16" d="M343.4,144.7h1.4c1.3,0,1.8,0.4,1.8,1.1c0,0.6-0.4,1-0.9,1.1v0c0.5,0.1,0.9,0.4,0.9,1.1
					c0,0.7-0.5,1.3-1.8,1.3h-1.4V144.7z M344.8,146.6c0.7,0,0.9-0.2,0.9-0.6c0-0.4-0.3-0.5-0.9-0.5h-0.5v1.2H344.8z M344.9,148.5
					c0.7,0,0.9-0.2,0.9-0.6c0-0.4-0.2-0.6-0.9-0.6h-0.5v1.3H344.9z"/>
				<path id="XMLID_237_" class="st16" d="M347.5,144.7h0.9v4.6h-0.9V144.7z"/>
				<path id="XMLID_234_" class="st16" d="M349.4,144.7h1.3c1.5,0,2.4,0.6,2.4,2.3c0,1.7-1.1,2.3-2.4,2.3h-1.3V144.7z M350.7,148.5
					c1.2,0,1.5-0.5,1.5-1.5c0-1-0.4-1.6-1.5-1.6h-0.4v3.1H350.7z"/>
			</g>
		</g>
	</g>
	<g id="XMLID_137_">
		<g id="XMLID_139_">
			<g id="XMLID_181_">
				<g id="XMLID_183_">
					<path id="XMLID_184_" class="st11" d="M295.9,215.6c6.6,0,13.2,0,19.8,0c1.1,0,1.1-1.9,0-1.9c-6.6,0-13.2,0-19.8,0
						C294.8,213.7,294.8,215.6,295.9,215.6L295.9,215.6z"/>
				</g>
				<rect id="XMLID_182_" x="303" y="211.7" class="st11" width="5.5" height="6"/>
			</g>
			<g id="XMLID_140_">
				<path id="XMLID_178_" class="st11" d="M327.1,211.9l-0.2-0.6h1l2,5.6h-1l-0.4-1.2h-1.9l-0.4,1.2h-1L327.1,211.9z M326.8,215h1.4
					l-0.5-1.5l-0.1-0.5l-0.1,0.5L326.8,215z"/>
				<path id="XMLID_176_" class="st11" d="M330.3,216.7v-1c0.2,0.3,0.6,0.6,1.2,0.6c0.6,0,0.8-0.2,0.8-0.5c0-0.3-0.1-0.4-0.6-0.5
					l-0.2,0c-0.8-0.2-1.2-0.6-1.2-1.4c0-0.8,0.5-1.4,1.6-1.4c0.6,0,1,0.2,1.2,0.4v1c-0.2-0.4-0.6-0.6-1.2-0.6
					c-0.5,0-0.7,0.2-0.7,0.5s0.1,0.4,0.6,0.5l0.2,0c0.8,0.2,1.3,0.5,1.3,1.3c0,0.8-0.5,1.5-1.7,1.5
					C330.9,217.1,330.5,216.9,330.3,216.7z"/>
				<path id="XMLID_173_" class="st11" d="M333.8,214.7c0-1.6,1-2.4,1.9-2.4c0.9,0,1.8,0.5,1.8,2.1v0.6h-2.8c0,0.6,0.4,1.2,1.2,1.2
					c0.7,0,1.2-0.3,1.4-0.6v1c-0.2,0.3-0.7,0.6-1.5,0.6C334.6,217.1,333.8,216.3,333.8,214.7z M336.6,214.3L336.6,214.3
					c0-0.7-0.3-1.1-0.9-1.1c-0.6,0-0.9,0.6-0.9,1.1H336.6z"/>
				<path id="XMLID_171_" class="st11" d="M338.3,212.4h0.9l0.1,0.4c0.2-0.3,0.5-0.5,1.1-0.5c1.1,0,1.5,0.6,1.5,1.8v2.8h-1v-2.6
					c0-0.9-0.2-1.2-0.8-1.2c-0.5,0-0.7,0.3-0.8,0.5v3.4h-1V212.4z"/>
				<path id="XMLID_168_" class="st11" d="M342.6,215.8c0-0.9,0.6-1.3,1.8-1.5l0.6-0.1c0-0.8-0.3-1-0.9-1c-0.6,0-1.1,0.3-1.3,0.9
					v-1.1c0.1-0.3,0.6-0.6,1.5-0.6c1.1,0,1.7,0.6,1.7,1.9v2.7h-0.9l-0.1-0.4c-0.1,0.3-0.4,0.5-1,0.5
					C343.2,217.1,342.6,216.7,342.6,215.8z M345,214.9l-0.5,0.1c-0.7,0.2-0.9,0.4-0.9,0.7c0,0.4,0.2,0.5,0.6,0.5
					c0.4,0,0.7-0.2,0.8-0.4V214.9z"/>
				<path id="XMLID_165_" class="st11" d="M346.9,212.4h0.9l0.1,0.4c0.1-0.2,0.4-0.5,1.1-0.5c1,0,1.7,0.6,1.7,2.3s-0.8,2.5-1.8,2.5
					c-0.3,0-0.7-0.1-0.9-0.3v1.8h-1V212.4z M349.7,214.6c0-0.9-0.2-1.5-0.9-1.5c-0.4,0-0.7,0.2-0.8,0.4v2.3c0.2,0.2,0.5,0.3,0.8,0.3
					C349.4,216.2,349.7,215.5,349.7,214.6z"/>
				<path id="XMLID_162_" class="st11" d="M351.4,211.3c0-0.4,0.2-0.5,0.5-0.5c0.4,0,0.5,0.2,0.5,0.5c0,0.3-0.2,0.5-0.5,0.5
					C351.6,211.9,351.4,211.7,351.4,211.3z M351.5,212.4h1v4.5h-1V212.4z"/>
				<path id="XMLID_160_" class="st11" d="M353.4,212.4h0.9l0.1,0.4c0.2-0.3,0.5-0.5,1.1-0.5c1.1,0,1.5,0.6,1.5,1.8v2.8h-1v-2.6
					c0-0.9-0.2-1.2-0.8-1.2c-0.5,0-0.7,0.3-0.8,0.5v3.4h-1V212.4z"/>
				<path id="XMLID_157_" class="st11" d="M357.7,214.7c0-1.6,1-2.4,1.9-2.4c0.9,0,1.8,0.5,1.8,2.1v0.6h-2.8c0,0.6,0.4,1.2,1.2,1.2
					c0.7,0,1.2-0.3,1.4-0.6v1c-0.2,0.3-0.7,0.6-1.5,0.6C358.6,217.1,357.7,216.3,357.7,214.7z M360.5,214.3L360.5,214.3
					c0-0.7-0.3-1.1-0.9-1.1c-0.6,0-0.9,0.6-0.9,1.1H360.5z"/>
				<path id="XMLID_155_" class="st11" d="M329.6,226.7v-1c0.2,0.2,0.5,0.4,1.1,0.4c0.7,0,1.1-0.3,1.1-0.9c0-0.5-0.3-0.8-1.1-0.8
					c-0.4,0-0.7,0.1-1,0.2l0.1-3.3h2.8v0.9h-1.9l0,1.4c0.1,0,0.3,0,0.4,0c1.1,0,1.7,0.5,1.7,1.6c0,1.1-0.9,1.9-2,1.9
					C330.1,226.9,329.8,226.8,329.6,226.7z"/>
				<path id="XMLID_153_" class="st11" d="M333.6,222.2h0.9l0,0.4c0.2-0.3,0.5-0.5,1-0.5c0.6,0,1,0.2,1.2,0.7
					c0.2-0.3,0.6-0.7,1.2-0.7c1,0,1.4,0.6,1.4,1.8v2.8h-1v-2.6c0-0.9-0.2-1.2-0.7-1.2c-0.4,0-0.7,0.2-0.8,0.5c0,0.2,0,0.4,0,0.6v2.8
					h-1v-2.6c0-0.9-0.2-1.2-0.7-1.2c-0.4,0-0.6,0.2-0.8,0.5v3.4h-1V222.2z"/>
				<path id="XMLID_150_" class="st11" d="M340.2,228v-0.9c0.4,0.3,0.9,0.5,1.7,0.5c1,0,1.4-0.2,1.4-0.6c0-0.3-0.3-0.4-0.9-0.4
					c-0.6,0-1.5,0.1-1.7,0.3v-0.8l0.6-1c-0.6-0.2-0.9-0.7-0.9-1.4c0-1,0.7-1.6,1.7-1.6c0.5,0,0.8,0.1,1.1,0.3
					c0.1-0.2,0.5-0.3,0.8-0.3c0.1,0,0.2,0,0.3,0v0.8c-0.1,0-0.2,0-0.3,0c-0.2,0-0.3,0-0.4,0.1c0.1,0.2,0.1,0.4,0.1,0.6
					c0,1-0.7,1.6-1.7,1.6h-0.1l-0.4,0.7c0.2-0.1,0.7-0.1,1.1-0.1c1,0,1.7,0.3,1.7,1.2s-0.8,1.5-2.2,1.5
					C341.1,228.5,340.5,228.3,340.2,228z M342.7,223.7c0-0.5-0.3-0.8-0.8-0.8s-0.8,0.3-0.8,0.8c0,0.5,0.3,0.8,0.8,0.8
					S342.7,224.2,342.7,223.7z"/>
				<path id="XMLID_146_" class="st11" d="M346.6,221.2h1.5c1.4,0,2,0.5,2,1.4c0,0.8-0.4,1.2-1,1.3v0c0.6,0.1,1,0.4,1,1.3
					c0,0.9-0.6,1.6-2,1.6h-1.6V221.2z M348.2,223.5c0.8,0,1-0.3,1-0.7c0-0.5-0.3-0.7-1-0.7h-0.6v1.4H348.2z M348.2,225.9
					c0.8,0,1-0.3,1-0.8s-0.2-0.8-1-0.8h-0.6v1.5H348.2z"/>
				<path id="XMLID_144_" class="st11" d="M351.1,221.2h1v5.6h-1V221.2z"/>
				<path id="XMLID_141_" class="st11" d="M353.2,221.2h1.4c1.7,0,2.7,0.7,2.7,2.8s-1.2,2.8-2.7,2.8h-1.4V221.2z M354.7,225.8
					c1.3,0,1.7-0.5,1.7-1.8c0-1.3-0.4-1.9-1.7-1.9h-0.5v3.7H354.7z"/>
			</g>
		</g>
	</g>
</g>
<g id="XMLID_3_">
	<g id="XMLID_5_">
		<path id="XMLID_69_" class="st17" d="M57.8,14.9c0-3.7,2.7-5.6,6.1-5.6c2.1,0,3.3,0.5,3.9,1V13c-0.7-0.9-1.9-1.5-3.6-1.5
			c-2.2,0-3.4,1.2-3.4,3.3c0,2.2,1.1,3.5,2.9,3.5c0.5,0,1,0,1.3-0.2v-3h2.8v4.2c-0.8,0.5-2.2,1-4.2,1C60.1,20.5,57.8,18.6,57.8,14.9
			z"/>
		<path id="XMLID_66_" class="st17" d="M69.3,15.9c0-3.2,2.3-4.6,4.7-4.6c2.3,0,4.5,0.9,4.5,4.2v1.1h-6.3c0.1,1,0.8,1.8,2.6,1.8
			c1.6,0,2.6-0.5,3.2-1v2.1c-0.5,0.4-1.7,1-3.6,1C71.2,20.5,69.3,19,69.3,15.9z M75.8,15L75.8,15c0-1.1-0.5-1.7-1.7-1.7
			c-1.1,0-1.7,0.8-1.8,1.7H75.8z"/>
		<path id="XMLID_64_" class="st17" d="M80,11.6h2.5l0.2,0.8c0.4-0.6,1.3-1,2.6-1c2.5,0,3.5,1.2,3.5,3.5v5.4H86v-5
			c0-1.4-0.4-2-1.5-2c-0.9,0-1.4,0.4-1.6,0.7v6.2H80V11.6z"/>
		<path id="XMLID_61_" class="st17" d="M90.4,15.9c0-3.2,2.3-4.6,4.7-4.6c2.3,0,4.5,0.9,4.5,4.2v1.1h-6.3c0.1,1,0.8,1.8,2.6,1.8
			c1.6,0,2.6-0.5,3.2-1v2.1c-0.5,0.4-1.7,1-3.6,1C92.3,20.5,90.4,19,90.4,15.9z M96.9,15L96.9,15c0-1.1-0.5-1.7-1.7-1.7
			c-1.1,0-1.7,0.8-1.8,1.7H96.9z"/>
		<path id="XMLID_59_" class="st17" d="M101.1,11.6h2.4l0.2,1.2c0.1-0.9,1-1.4,1.9-1.4c0.5,0,0.8,0.1,1,0.2v2.3
			c-0.2-0.2-0.6-0.3-1.1-0.3c-0.7,0-1.2,0.3-1.4,0.7v5.9h-2.9V11.6z"/>
		<path id="XMLID_56_" class="st17" d="M107.3,17.9c0-1.8,1.4-2.5,4.1-2.8l1.4-0.2c0-1.2-0.7-1.5-1.9-1.5c-1.4,0-2.7,0.6-3.2,1.5
			v-2.4c0.4-0.5,1.5-1.2,3.6-1.2c2.8,0,4.3,1.1,4.3,3.7v5.2h-2.5l-0.2-0.7c-0.3,0.5-1,1-2.4,1C108.7,20.5,107.3,19.7,107.3,17.9z
			 M112.8,16.5l-1.1,0.2c-1.3,0.3-1.7,0.5-1.7,1.1c0,0.6,0.5,0.8,1.2,0.8c0.8,0,1.4-0.3,1.7-0.6V16.5z"/>
		<path id="XMLID_54_" class="st17" d="M117.6,18.1V8.4h2.9v9.3c0,0.5,0.2,0.7,0.6,0.7s0.7-0.2,0.8-0.4v2c-0.2,0.2-0.8,0.5-1.7,0.5
			C118.5,20.5,117.6,19.7,117.6,18.1z"/>
		<path id="XMLID_52_" class="st17" d="M127.6,9.5h4c3.6,0,5.1,1.3,5.1,3.6c0,2.3-1.5,4-5.1,4H131v-1.9h0.5c1.5,0,2.2-0.7,2.2-1.9
			c0-1.2-0.7-1.8-2.2-1.8h-1v8.7h-2.9V9.5z"/>
		<path id="XMLID_50_" class="st17" d="M137.8,19.8v-2.3c0.6,0.5,1.6,1,2.9,1c1.3,0,1.6-0.4,1.6-0.8c0-0.5-0.2-0.6-1.3-0.8l-0.5-0.1
			c-2-0.3-2.9-1.1-2.9-2.7c0-1.5,1.2-2.9,4-2.9c1.5,0,2.5,0.3,3,0.7v2.3c-0.6-0.6-1.6-1-2.9-1c-1.1,0-1.5,0.3-1.5,0.7
			s0.2,0.7,1.2,0.8l0.5,0.1c2.2,0.3,3.1,1,3.1,2.6c0,1.5-1.2,3-4.2,3C139.3,20.5,138.3,20.2,137.8,19.8z"/>
		<path id="XMLID_48_" class="st17" d="M146,23v-2c0.4,0.4,1,0.6,1.7,0.6c0.7,0,1.3-0.2,1.7-1.2l-3.9-8.9h3.1l2,5.7l1.7-5.7h2.8
			l-2.7,8.2c-0.7,2.1-1.9,3.8-4.5,3.8C147.1,23.5,146.4,23.3,146,23z"/>
		<path id="XMLID_46_" class="st17" d="M155.7,15.9c0-3.2,2.2-4.6,4.9-4.6c1.4,0,2.5,0.4,2.9,0.8v2.3c-0.6-0.6-1.4-0.9-2.5-0.9
			c-1.5,0-2.3,0.9-2.3,2.4c0,1.5,0.8,2.4,2.3,2.4c1.1,0,1.9-0.4,2.5-1v2.2c-0.4,0.4-1.5,0.9-3,0.9C157.6,20.5,155.7,19.1,155.7,15.9
			z"/>
		<path id="XMLID_44_" class="st17" d="M165.1,8.4h2.9v3.8c0.4-0.5,1.3-0.9,2.5-0.9c2.5,0,3.5,1.2,3.5,3.5v5.4h-2.9v-5
			c0-1.4-0.4-2-1.5-2c-0.8,0-1.4,0.4-1.6,0.7v6.2h-2.9V8.4z"/>
		<path id="XMLID_41_" class="st17" d="M175.4,15.9c0-3.2,2.3-4.6,5-4.6c2.8,0,4.8,1.4,4.8,4.6c0,3.2-2.3,4.6-5,4.6
			C177.4,20.5,175.4,19.1,175.4,15.9z M182.3,15.9c0-1.5-0.6-2.5-2-2.5c-1.3,0-2,1-2,2.5c0,1.5,0.6,2.5,2,2.5
			C181.7,18.4,182.3,17.4,182.3,15.9z"/>
		<path id="XMLID_38_" class="st17" d="M186.8,11.6h2.5l0.2,0.8c0.3-0.5,1.1-1,2.6-1c2.4,0,4,1.2,4,4.4c0,3.2-1.9,4.8-4.3,4.8
			c-0.8,0-1.6-0.1-2.1-0.6v3.3h-2.9V11.6z M193.1,15.8c0-1.5-0.5-2.4-1.8-2.4c-0.8,0-1.4,0.3-1.6,0.7V18c0.4,0.4,0.9,0.5,1.6,0.5
			C192.6,18.5,193.1,17.3,193.1,15.8z"/>
		<path id="XMLID_35_" class="st17" d="M197.2,17.9c0-1.8,1.4-2.5,4.1-2.8l1.4-0.2c0-1.2-0.7-1.5-1.9-1.5c-1.4,0-2.7,0.6-3.2,1.5
			v-2.4c0.4-0.5,1.5-1.2,3.6-1.2c2.8,0,4.3,1.1,4.3,3.7v5.2H203l-0.2-0.7c-0.3,0.5-1,1-2.4,1C198.5,20.5,197.2,19.7,197.2,17.9z
			 M202.7,16.5l-1.1,0.2c-1.3,0.3-1.7,0.5-1.7,1.1c0,0.6,0.5,0.8,1.2,0.8c0.8,0,1.4-0.3,1.7-0.6V16.5z"/>
		<path id="XMLID_33_" class="st17" d="M208,17.7v-4.2h-1.1v-0.9l0.9-1.1l1.7-2h1.3v2h2.3v2h-2.3v3.9c0,0.6,0.2,0.9,0.8,0.9
			c0.7,0,1.1-0.3,1.4-0.7v2.1c-0.3,0.3-1,0.7-2.2,0.7C208.8,20.5,208,19.5,208,17.7z"/>
		<path id="XMLID_31_" class="st17" d="M214.6,8.4h2.9v3.8c0.4-0.5,1.3-0.9,2.5-0.9c2.5,0,3.5,1.2,3.5,3.5v5.4h-2.9v-5
			c0-1.4-0.4-2-1.5-2c-0.8,0-1.4,0.4-1.6,0.7v6.2h-2.9V8.4z"/>
		<path id="XMLID_28_" class="st17" d="M225,15.9c0-3.2,2.3-4.6,5-4.6c2.8,0,4.8,1.4,4.8,4.6c0,3.2-2.3,4.6-5,4.6
			C226.9,20.5,225,19.1,225,15.9z M231.9,15.9c0-1.5-0.6-2.5-2-2.5c-1.3,0-2,1-2,2.5c0,1.5,0.6,2.5,2,2.5
			C231.2,18.4,231.9,17.4,231.9,15.9z"/>
		<path id="XMLID_26_" class="st17" d="M236.3,18.1V8.4h2.9v9.3c0,0.5,0.2,0.7,0.6,0.7s0.7-0.2,0.8-0.4v2c-0.2,0.2-0.8,0.5-1.7,0.5
			C237.2,20.5,236.3,19.7,236.3,18.1z"/>
		<path id="XMLID_23_" class="st17" d="M241.4,15.9c0-3.2,2.3-4.6,5-4.6c2.8,0,4.8,1.4,4.8,4.6c0,3.2-2.3,4.6-5,4.6
			C243.4,20.5,241.4,19.1,241.4,15.9z M248.3,15.9c0-1.5-0.6-2.5-2-2.5c-1.3,0-2,1-2,2.5c0,1.5,0.6,2.5,2,2.5
			C247.7,18.4,248.3,17.4,248.3,15.9z"/>
		<path id="XMLID_20_" class="st17" d="M252.3,22.7v-1.9c0.9,0.5,2.1,0.8,4.1,0.8c2.3,0,3.2-0.3,3.2-0.9c0-0.5-0.6-0.7-2-0.7
			c-1.5,0-3.6,0.3-4.3,0.6v-1.7l1.3-1.8c-1.5-0.4-2.3-1.4-2.3-2.7c0-1.9,1.7-3,4.3-3c1.1,0,2.1,0.2,2.8,0.6c0.3-0.4,1.1-0.7,1.9-0.7
			c0.3,0,0.6,0,0.8,0.1v1.9c-0.2-0.1-0.4-0.1-0.6-0.1c-0.3,0-0.7,0.1-0.8,0.2c0.1,0.3,0.2,0.6,0.2,1c0,1.9-1.7,3-4.3,3h-0.2
			l-0.7,1.1c0.4-0.1,1.6-0.3,2.5-0.3c2.4,0,4,0.5,4,2.4c0,1.8-1.9,3-5.6,3C254.6,23.5,253.1,23.2,252.3,22.7z M258.2,14.3
			c0-0.8-0.6-1.2-1.5-1.2c-1,0-1.6,0.4-1.6,1.2s0.6,1.2,1.6,1.2C257.6,15.5,258.2,15.1,258.2,14.3z"/>
		<path id="XMLID_18_" class="st17" d="M262.9,23v-2c0.4,0.4,1,0.6,1.7,0.6c0.7,0,1.3-0.2,1.7-1.2l-3.9-8.9h3.1l2,5.7l1.7-5.7h2.8
			l-2.7,8.2c-0.7,2.1-1.9,3.8-4.5,3.8C263.9,23.5,263.2,23.3,262.9,23z"/>
		<path id="XMLID_16_" class="st17" d="M277.1,19.7v-2.6c0.6,0.6,1.7,1.2,3.2,1.2c1.3,0,2-0.5,2-1.2c0-0.6-0.4-0.9-1.6-1.1l-0.5-0.1
			c-1.9-0.3-3.2-1.3-3.2-3.2c0-2.1,1.7-3.4,4.5-3.4c1.8,0,2.8,0.4,3.3,0.8v2.6c-0.6-0.7-1.7-1.2-3.3-1.2c-1.1,0-1.7,0.3-1.7,1
			c0,0.6,0.3,0.9,1.4,1.1l0.5,0.1c2,0.4,3.4,1.2,3.4,3.1c0,2.1-1.7,3.6-4.8,3.6C278.6,20.5,277.6,20.1,277.1,19.7z"/>
		<path id="XMLID_14_" class="st17" d="M286.3,15.9c0-3.2,2.2-4.6,4.9-4.6c1.4,0,2.5,0.4,2.9,0.8v2.3c-0.6-0.6-1.4-0.9-2.5-0.9
			c-1.5,0-2.3,0.9-2.3,2.4c0,1.5,0.8,2.4,2.3,2.4c1.1,0,1.9-0.4,2.5-1v2.2c-0.4,0.4-1.5,0.9-3,0.9C288.3,20.5,286.3,19.1,286.3,15.9
			z"/>
		<path id="XMLID_11_" class="st17" d="M295.3,15.9c0-3.2,2.3-4.6,5-4.6c2.8,0,4.8,1.4,4.8,4.6c0,3.2-2.3,4.6-5,4.6
			C297.2,20.5,295.3,19.1,295.3,15.9z M302.1,15.9c0-1.5-0.6-2.5-2-2.5c-1.3,0-2,1-2,2.5c0,1.5,0.6,2.5,2,2.5
			C301.5,18.4,302.1,17.4,302.1,15.9z"/>
		<path id="XMLID_9_" class="st17" d="M306.6,11.6h2.4l0.2,1.2c0.1-0.9,1-1.4,1.9-1.4c0.5,0,0.8,0.1,1,0.2v2.3
			c-0.2-0.2-0.6-0.3-1.1-0.3c-0.7,0-1.2,0.3-1.4,0.7v5.9h-2.9V11.6z"/>
		<path id="XMLID_6_" class="st17" d="M312.7,15.9c0-3.2,2.3-4.6,4.7-4.6c2.3,0,4.5,0.9,4.5,4.2v1.1h-6.3c0.1,1,0.8,1.8,2.6,1.8
			c1.6,0,2.6-0.5,3.2-1v2.1c-0.5,0.4-1.7,1-3.6,1C314.6,20.5,312.7,19,312.7,15.9z M319.2,15L319.2,15c0-1.1-0.5-1.7-1.7-1.7
			c-1.1,0-1.7,0.8-1.8,1.7H319.2z"/>
	</g>
</g>
<line id="XMLID_2_" class="st18" x1="27.2" y1="66.8" x2="27.2" y2="243.2"/>
<line id="XMLID_1_" class="st18" x1="27.2" y1="66.8" x2="281.8" y2="66.8"/>
</svg>
