<!-- Generator: Adobe Illustrator 22.1.0, SVG Export Plug-In  -->
<svg version="1.1"
	 xmlns="http://www.w3.org/2000/svg" xmlns:xlink="http://www.w3.org/1999/xlink" xmlns:a="http://ns.adobe.com/AdobeSVGViewerExtensions/3.0/"
	 x="0px" y="0px" width="682px" height="345.7px" viewBox="0 0 682 345.7" style="enable-background:new 0 0 682 345.7;"
	 xml:space="preserve">
<style type="text/css">
	.st0{fill:#FFFFFF;stroke:#8B3C95;stroke-width:1.5766;stroke-miterlimit:10;}
	.st1{fill:#0C3B60;}
	.st2{fill:none;}
	.st3{fill:none;stroke:#113B60;stroke-width:0.447;stroke-miterlimit:10;}
	.st4{fill:#FFFFFF;stroke:#27AAE1;stroke-width:1.0056;stroke-miterlimit:10;}
	.st5{fill:#DB5D27;}
	.st6{fill:none;stroke:#DB5D27;stroke-miterlimit:10;}
	.st7{fill:#490E67;}
	.st8{fill:none;stroke:#490E67;stroke-width:0.5;stroke-miterlimit:10;}
	.st9{fill:#C29FD8;}
	.st10{fill:#216CB0;}
	.st11{fill:none;stroke:#490E67;stroke-width:1.25;stroke-miterlimit:10;}
	.st12{font-family:'Altis-Medium';}
	.st13{font-size:10.2962px;}
</style>
<defs>
</defs>
<path id="XMLID_596_" class="st0" d="M681.2,16.2c0-8.5-6.9-15.4-15.4-15.4H16.2C7.7,0.8,0.8,7.7,0.8,16.2v313.4
	c0,8.5,6.9,15.4,15.4,15.4h649.6c8.5,0,15.4-6.9,15.4-15.4V16.2z"/>
<g id="XMLID_587_">
	<g id="XMLID_589_">
		<path id="XMLID_590_" class="st1" d="M37.3,309.9c0-2.4,1.7-3.7,3.5-3.7c2.1,0,3.5,1.3,3.5,3.7c0,2.3-1.6,3.7-3.5,3.7
			C38.7,313.6,37.3,312.2,37.3,309.9z M42.9,309.9c0-1.7-0.9-2.5-2.1-2.5c-1.2,0-2.1,0.8-2.1,2.5c0,1.7,0.9,2.5,2.1,2.5
			C42,312.4,42.9,311.5,42.9,309.9z"/>
	</g>
</g>
<line id="XMLID_586_" class="st2" x1="52.8" y1="19.7" x2="52.8" y2="310.3"/>
<g id="XMLID_577_">
	<line id="XMLID_585_" class="st3" x1="52.8" y1="310.3" x2="45.6" y2="310.3"/>
	<line id="XMLID_584_" class="st3" x1="52.8" y1="13.5" x2="52.8" y2="309.7"/>
	<line id="XMLID_583_" class="st3" x1="52.8" y1="13.5" x2="45.6" y2="13.5"/>
	<line id="XMLID_582_" class="st3" x1="52.8" y1="63.9" x2="45.6" y2="63.9"/>
	<line id="XMLID_581_" class="st3" x1="52.8" y1="114.4" x2="45.6" y2="114.4"/>
	<line id="XMLID_580_" class="st3" x1="52.8" y1="164.9" x2="45.6" y2="164.9"/>
	<line id="XMLID_579_" class="st3" x1="52.8" y1="215.4" x2="45.6" y2="215.4"/>
	<line id="XMLID_578_" class="st3" x1="52.8" y1="265.9" x2="45.6" y2="265.9"/>
</g>
<path id="XMLID_576_" class="st4" d="M288.6,16.3c0-3.2-2.6-5.8-5.8-5.8H84.9c-3.2,0-5.8,2.6-5.8,5.8v41.8c0,3.2,2.6,5.8,5.8,5.8
	h197.9c3.2,0,5.8-2.6,5.8-5.8V16.3z"/>
<rect id="XMLID_575_" x="97.3" y="24.7" transform="matrix(0.7073 -0.7069 0.7069 0.7073 9.4708 79.7748)" class="st5" width="7.5" height="7.5"/>
<line id="XMLID_574_" class="st6" x1="92.2" y1="28.5" x2="110.2" y2="28.5"/>
<rect id="XMLID_573_" x="97.3" y="45.9" class="st7" width="7.5" height="7.5"/>
<line id="XMLID_572_" class="st8" x1="92.2" y1="49.6" x2="110.2" y2="49.6"/>
<g id="XMLID_483_">
	<g id="XMLID_485_">
		<path id="XMLID_526_" class="st1" d="M115.2,27.6c0-2.3,1.4-3.3,3.1-3.3c1.7,0,2.9,1.1,2.9,3.3c0,2.3-1.4,3.3-3.1,3.3
			C116.4,30.9,115.2,29.8,115.2,27.6z M119.7,27.6c0-1.2-0.5-2.1-1.5-2.1c-1,0-1.5,0.9-1.5,2.1c0,1.2,0.5,2.1,1.5,2.1
			C119.2,29.7,119.7,28.8,119.7,27.6z"/>
		<path id="XMLID_524_" class="st1" d="M122.3,29.3v-7.1h1.5v7c0,0.4,0.1,0.6,0.4,0.6c0.3,0,0.5-0.1,0.6-0.3v1.2
			c-0.1,0.1-0.4,0.4-1,0.4C122.8,30.9,122.3,30.3,122.3,29.3z"/>
		<path id="XMLID_521_" class="st1" d="M125.4,29.1c0-1.3,1-1.8,2.7-2.1l0.9-0.1c0-1.1-0.5-1.4-1.4-1.4c-0.9,0-1.7,0.5-2,1.2v-1.5
			c0.2-0.4,0.9-0.9,2.2-0.9c1.7,0,2.6,0.8,2.6,2.6v3.8h-1.3l-0.1-0.6c-0.2,0.4-0.7,0.7-1.5,0.7C126.4,30.9,125.4,30.4,125.4,29.1z
			 M129.1,27.9l-0.8,0.2c-1,0.2-1.4,0.5-1.4,1c0,0.5,0.4,0.7,0.9,0.7c0.6,0,1.1-0.2,1.3-0.5V27.9z"/>
		<path id="XMLID_519_" class="st1" d="M132,24.5h1.4l0.1,0.6c0.2-0.4,0.8-0.7,1.6-0.7c1.6,0,2.3,0.8,2.3,2.5v3.9h-1.5v-3.6
			c0-1.2-0.3-1.7-1.1-1.7c-0.7,0-1.1,0.4-1.3,0.6v4.7H132V24.5z"/>
		<path id="XMLID_517_" class="st1" d="M138.4,30.3l2.8-4.7h-2.8v-1.2h4.7v0.4l-2.7,4.7h2.7v1.2h-4.7V30.3z"/>
		<path id="XMLID_514_" class="st1" d="M143.9,29.1c0-1.3,1-1.8,2.7-2.1l0.9-0.1c0-1.1-0.5-1.4-1.4-1.4c-0.9,0-1.7,0.5-2,1.2v-1.5
			c0.2-0.4,0.9-0.9,2.2-0.9c1.7,0,2.6,0.8,2.6,2.6v3.8h-1.3l-0.1-0.6c-0.2,0.4-0.7,0.7-1.5,0.7C144.9,30.9,143.9,30.4,143.9,29.1z
			 M147.6,27.9l-0.8,0.2c-1,0.2-1.4,0.5-1.4,1c0,0.5,0.4,0.7,0.9,0.7c0.6,0,1.1-0.2,1.3-0.5V27.9z"/>
		<path id="XMLID_511_" class="st1" d="M150.5,24.5h1.4L152,25c0.2-0.3,0.7-0.7,1.6-0.7c1.5,0,2.5,0.9,2.5,3.1s-1.3,3.5-2.8,3.5
			c-0.5,0-1.1-0.1-1.3-0.4v2.4h-1.5V24.5z M154.6,27.5c0-1.2-0.4-2-1.4-2c-0.6,0-1.1,0.3-1.2,0.6v3.2c0.3,0.3,0.7,0.5,1.2,0.5
			C154.2,29.7,154.6,28.7,154.6,27.5z"/>
		<path id="XMLID_508_" class="st1" d="M157.2,23c0-0.5,0.3-0.7,0.8-0.7s0.8,0.3,0.8,0.7c0,0.5-0.3,0.7-0.8,0.7S157.2,23.5,157.2,23
			z M157.3,24.5h1.5v6.3h-1.5V24.5z"/>
		<path id="XMLID_506_" class="st1" d="M160.3,24.5h1.4l0.1,0.6c0.2-0.4,0.8-0.7,1.6-0.7c1.6,0,2.3,0.8,2.3,2.5v3.9h-1.5v-3.6
			c0-1.2-0.3-1.7-1.1-1.7c-0.7,0-1.1,0.4-1.3,0.6v4.7h-1.5V24.5z"/>
		<path id="XMLID_503_" class="st1" d="M166.8,27.6c0-2.3,1.5-3.3,2.9-3.3c1.4,0,2.8,0.6,2.8,3v0.8h-4.2c0.1,0.9,0.6,1.6,1.8,1.6
			c1.1,0,1.8-0.5,2.1-0.9v1.3c-0.3,0.4-1,0.8-2.2,0.8C168,30.9,166.8,29.8,166.8,27.6z M171,27L171,27c0-1-0.4-1.6-1.3-1.6
			c-0.8,0-1.3,0.8-1.4,1.6H171z"/>
		<path id="XMLID_501_" class="st1" d="M177.5,24.9c-0.3,0.3-1,0.4-1.7,0.4V24c1.1,0,1.9-0.3,2.5-1h0.7v7.7h-1.4V24.9z"/>
		<path id="XMLID_498_" class="st1" d="M180.2,26.8c0-2.6,1.8-4,3.8-4c2.3,0,3.8,1.4,3.8,4c0,2.6-1.8,4-3.8,4
			C181.8,30.9,180.2,29.4,180.2,26.8z M186.4,26.8c0-1.8-1-2.8-2.3-2.8c-1.3,0-2.3,0.9-2.3,2.8c0,1.8,1,2.8,2.3,2.8
			C185.4,29.6,186.4,28.7,186.4,26.8z"/>
		<path id="XMLID_496_" class="st1" d="M191.8,26.6h3v1.2h-3V26.6z"/>
		<path id="XMLID_494_" class="st1" d="M195.9,30.6l2.4-3.2c0.4-0.6,0.8-1.2,0.8-1.9c0-0.8-0.4-1.3-1.3-1.3c-0.8,0-1.6,0.5-2,1v-1.4
			c0.4-0.4,1.1-0.9,2.2-0.9c1.8,0,2.5,1,2.5,2.4c0,1.2-0.8,2.3-1.5,3.2l-0.7,0.9h2.3v1.3h-4.7V30.6z"/>
		<path id="XMLID_491_" class="st1" d="M201.6,26.8c0-2.6,1.8-4,3.8-4c2.3,0,3.8,1.4,3.8,4c0,2.6-1.8,4-3.8,4
			C203.1,30.9,201.6,29.4,201.6,26.8z M207.7,26.8c0-1.8-1-2.8-2.3-2.8c-1.3,0-2.3,0.9-2.3,2.8c0,1.8,1,2.8,2.3,2.8
			C206.8,29.6,207.7,28.7,207.7,26.8z"/>
		<path id="XMLID_489_" class="st1" d="M213.2,24.5h1.4l0.1,0.6c0.2-0.4,0.8-0.7,1.5-0.7c0.9,0,1.5,0.3,1.8,0.9
			c0.3-0.4,0.8-0.9,1.8-0.9c1.5,0,2.1,0.8,2.1,2.5v3.9h-1.5v-3.6c0-1.2-0.3-1.7-1-1.7c-0.6,0-1,0.3-1.2,0.6c0,0.2,0.1,0.5,0.1,0.8
			v3.9h-1.5v-3.6c0-1.2-0.3-1.7-1-1.7c-0.6,0-1,0.3-1.1,0.6v4.7h-1.5V24.5z"/>
		<path id="XMLID_486_" class="st1" d="M223.1,32.5v-1.2c0.5,0.4,1.4,0.7,2.6,0.7c1.4,0,2.1-0.2,2.1-0.8c0-0.5-0.5-0.6-1.4-0.6
			c-0.9,0-2.2,0.2-2.6,0.4v-1.1l0.9-1.4c-0.9-0.3-1.4-1-1.4-2c0-1.4,1.1-2.2,2.6-2.2c0.7,0,1.3,0.2,1.7,0.5c0.2-0.3,0.7-0.5,1.2-0.5
			c0.2,0,0.3,0,0.5,0.1v1.1c-0.1,0-0.2-0.1-0.4-0.1c-0.2,0-0.5,0.1-0.6,0.2c0.1,0.2,0.2,0.5,0.2,0.9c0,1.4-1.1,2.2-2.6,2.2h-0.2
			l-0.5,0.9c0.2-0.1,1-0.2,1.6-0.2c1.5,0,2.5,0.4,2.5,1.6s-1.2,2.1-3.4,2.1C224.5,33.1,223.6,32.8,223.1,32.5z M226.9,26.5
			c0-0.7-0.5-1.1-1.2-1.1s-1.2,0.4-1.2,1.1c0,0.7,0.5,1.1,1.2,1.1S226.9,27.1,226.9,26.5z"/>
	</g>
</g>
<g id="XMLID_468_">
	<path id="XMLID_481_" class="st7" d="M168.7,53.2v-1.4c0.3,0.2,0.8,0.6,1.6,0.6c1.1,0,1.7-0.5,1.7-1.2c0-0.7-0.4-1.1-1.6-1.1
		c-0.6,0-1.1,0.1-1.4,0.3l0.2-4.6h4.2v1.3h-2.9l0,1.9c0.1,0,0.4-0.1,0.6-0.1c1.6,0,2.6,0.7,2.6,2.2c0,1.6-1.3,2.6-3.1,2.6
		C169.5,53.6,169,53.4,168.7,53.2z"/>
	<path id="XMLID_479_" class="st7" d="M177.4,49.3h3v1.2h-3V49.3z"/>
	<path id="XMLID_477_" class="st7" d="M183,47.5c-0.3,0.3-1,0.4-1.7,0.4v-1.2c1.1,0,1.9-0.3,2.5-1h0.7v7.7H183V47.5z"/>
	<path id="XMLID_474_" class="st7" d="M185.7,49.5c0-2.6,1.8-4,3.8-4c2.3,0,3.8,1.4,3.8,4c0,2.6-1.8,4-3.8,4
		C187.2,53.6,185.7,52.1,185.7,49.5z M191.9,49.5c0-1.8-1-2.8-2.3-2.8c-1.3,0-2.3,0.9-2.3,2.8c0,1.8,1,2.8,2.3,2.8
		C190.9,52.3,191.9,51.3,191.9,49.5z"/>
	<path id="XMLID_472_" class="st7" d="M197.3,47.1h1.4l0.1,0.6c0.2-0.4,0.8-0.7,1.5-0.7c0.9,0,1.5,0.3,1.8,0.9
		c0.3-0.4,0.8-0.9,1.8-0.9c1.5,0,2.1,0.8,2.1,2.5v3.9h-1.5v-3.6c0-1.2-0.3-1.7-1-1.7c-0.6,0-1,0.3-1.2,0.6c0,0.2,0.1,0.5,0.1,0.8
		v3.9H201v-3.6c0-1.2-0.3-1.7-1-1.7c-0.6,0-1,0.3-1.1,0.6v4.7h-1.5V47.1z"/>
	<path id="XMLID_469_" class="st7" d="M207.2,55.1v-1.2c0.5,0.4,1.4,0.7,2.6,0.7c1.4,0,2.1-0.2,2.1-0.8c0-0.5-0.5-0.6-1.4-0.6
		c-0.9,0-2.2,0.2-2.6,0.4v-1.1l0.9-1.4c-0.9-0.3-1.4-1-1.4-2c0-1.4,1.1-2.2,2.6-2.2c0.7,0,1.3,0.2,1.7,0.5c0.2-0.3,0.7-0.5,1.2-0.5
		c0.2,0,0.3,0,0.5,0.1v1.1c-0.1,0-0.2-0.1-0.4-0.1c-0.2,0-0.5,0.1-0.6,0.2c0.1,0.2,0.2,0.5,0.2,0.9c0,1.4-1.1,2.2-2.6,2.2h-0.2
		l-0.5,0.9c0.2-0.1,1-0.2,1.6-0.2c1.5,0,2.5,0.4,2.5,1.6s-1.2,2.1-3.4,2.1C208.6,55.7,207.7,55.5,207.2,55.1z M211,49.1
		c0-0.7-0.5-1.1-1.2-1.1s-1.2,0.4-1.2,1.1c0,0.7,0.5,1.1,1.2,1.1S211,49.8,211,49.1z"/>
</g>
<g id="XMLID_374_">
	<g id="XMLID_376_">
		<g id="XMLID_377_">
			<path id="XMLID_421_" class="st7" d="M119.7,51.6h3.9c0.6,0,0.9-0.1,0.9-0.4c0-0.3-0.2-0.4-0.6-0.4c-1.8-0.2-2.4-0.7-2.4-1.9
				c0-1.2,0.8-2,2.6-2c1.1,0,1.6,0.1,2,0.3v1.6c-0.5-0.2-1.2-0.4-1.9-0.4c-0.5,0-0.8,0.1-0.8,0.4c0,0.3,0.2,0.4,0.6,0.4
				c1.9,0.2,2.4,0.7,2.4,1.9c0,1.1-0.7,2-2.6,2H120"/>
			<path id="XMLID_418_" class="st7" d="M128.4,50.6c0,0.8,0.4,1,1.3,1c0.9,0,1.5-0.2,2-0.4v1.5c-0.7,0.3-1.5,0.4-2.2,0.4
				c-1.9,0-2.9-1-2.9-3.1c0-2.1,0.9-3.1,2.7-3.1c2.5,0,2.7,1.9,2.5,3.7H128.4z M128.4,49.5h1.7c0.1-0.6,0-1.2-0.7-1.2
				C128.7,48.3,128.4,48.7,128.4,49.5"/>
			<path id="XMLID_417_" class="st7" d="M133.5,47.1l0.2,0.4c0.7-0.4,1.4-0.6,2-0.6c1.6,0,2.1,0.8,2.1,2v4.1H136v-3.8
				c0-0.4-0.2-0.7-0.7-0.7c-0.5,0-0.9,0.2-1,0.3v4.2h-1.9v-5.9H133.5z"/>
			<path id="XMLID_414_" class="st7" d="M141.5,48.8c0-0.3-0.2-0.4-0.7-0.4c-0.7,0-1.6,0.2-2.1,0.4v-1.6c0.4-0.2,1.3-0.4,2.1-0.4
				c2.1,0,2.5,0.9,2.5,2.2v3.8h-1.1l-0.3-0.4c-0.4,0.4-1,0.6-1.7,0.6c-1.5,0-2-1-2-1.9c0-1.6,1.2-1.8,2.2-1.9l1.1-0.1V48.8z
				 M140.7,50.3c-0.5,0.1-0.7,0.3-0.7,0.8c0,0.4,0.3,0.7,0.7,0.7c0.3,0,0.7-0.1,0.8-0.3v-1.3L140.7,50.3z"/>
			<path id="XMLID_411_" class="st7" d="M145.1,47.1l0.3,0.5c0.4-0.4,1-0.6,1.9-0.6c1.5,0,2.3,0.9,2.3,3.1c0,2.2-0.8,3.1-2.3,3.1
				c-0.6,0-1.1-0.2-1.5-0.4v3.1h-1.9v-8.8H145.1z M145.8,51.3c0,0,0.4,0.2,0.8,0.2c0.9,0,1.1-0.6,1.1-1.6c0-1-0.2-1.6-1.1-1.6
				c-0.5,0-0.8,0.2-0.8,0.2V51.3z"/>
			<path id="XMLID_410_" class="st7" d="M152.4,53c0,0-0.2,0-0.5,0c-1,0-1.8-0.5-1.8-1.7v-4.3h1.9v4c0,0.2,0.1,0.4,0.5,0.4V53z"/>
			<path id="XMLID_409_" class="st7" d="M154,47.1l0.2,0.4c0.7-0.4,1.4-0.6,2-0.6c1.6,0,2,0.8,2,2v4.1h-1.9v-3.8
				c0-0.4-0.2-0.7-0.7-0.7c-0.5,0-0.9,0.2-1,0.3v4.2h-1.9v-5.9H154z"/>
			<path id="XMLID_406_" class="st7" d="M160.5,50.6c0,0.8,0.4,1,1.3,1c0.9,0,1.5-0.2,2-0.4v1.5c-0.7,0.3-1.5,0.4-2.2,0.4
				c-1.9,0-2.9-1-2.9-3.1c0-2.1,0.9-3.1,2.7-3.1c2.5,0,2.7,1.9,2.5,3.7H160.5z M160.5,49.5h1.7c0.1-0.6,0-1.2-0.7-1.2
				C160.8,48.3,160.5,48.7,160.5,49.5"/>
			<polyline id="XMLID_405_" class="st7" points="117.8,51.1 118.1,49.6 119.2,49.6 118.5,46.3 117.7,49.6 117.4,51.1 117,52.9 
				115,52.9 117.4,44.1 119.6,44.1 122,52.9 120,52.9 119.6,51.1 			"/>
			<g id="XMLID_383_">
				<polygon id="XMLID_404_" class="st7" points="147.7,55.7 147.7,54.7 146.6,54.7 146.6,55.7 146.4,55.7 146.4,53.5 146.6,53.5 
					146.6,54.5 147.7,54.5 147.7,53.5 147.9,53.5 147.9,55.7 				"/>
				<path id="XMLID_401_" class="st7" d="M148.4,53.7c0.1,0,0.1,0.1,0.1,0.1c0,0.1-0.1,0.1-0.1,0.1c-0.1,0-0.1-0.1-0.1-0.1
					C148.3,53.8,148.3,53.7,148.4,53.7 M148.3,55.5v-1.2h0.2v1.2c0,0.1,0,0.1,0.1,0.1v0.2C148.4,55.8,148.3,55.7,148.3,55.5"/>
				<polygon id="XMLID_400_" class="st7" points="149.5,54.9 150.2,55.7 149.9,55.7 149.4,55 149.2,55.2 149.2,55.7 149,55.7 
					149,53.5 149.2,53.5 149.2,54.9 149.8,54.3 150.1,54.3 				"/>
				<path id="XMLID_399_" class="st7" d="M152.2,54.7c0-0.2-0.1-0.2-0.3-0.2c-0.2,0-0.3,0-0.4,0.1c0,0,0,0.1,0,0.2v1.1h-0.2v-1.1
					c0-0.2-0.1-0.2-0.3-0.2c-0.2,0-0.3,0-0.4,0.1v1.2h-0.2v-1.5h0.1l0,0.1c0.1-0.1,0.3-0.1,0.4-0.1c0.2,0,0.3,0.1,0.4,0.2
					c0.2-0.1,0.3-0.2,0.5-0.2c0.3,0,0.5,0.1,0.5,0.4v1.1h-0.2V54.7z"/>
				<path id="XMLID_396_" class="st7" d="M153.3,54.4c-0.2,0-0.3,0-0.4,0.1v-0.2c0.1-0.1,0.3-0.1,0.4-0.1c0.4,0,0.6,0.2,0.6,0.5v1
					h-0.1l0-0.1c-0.1,0.1-0.3,0.1-0.4,0.1c-0.4,0-0.5-0.2-0.5-0.5c0-0.2,0.1-0.4,0.5-0.5l0.4,0v-0.1
					C153.6,54.5,153.6,54.4,153.3,54.4 M153.2,55c-0.2,0-0.3,0.1-0.3,0.3c0,0.1,0,0.3,0.3,0.3c0.2,0,0.3,0,0.4-0.1V55L153.2,55z"/>
				<path id="XMLID_393_" class="st7" d="M154.9,55.7h-0.2v-2.2h0.7c0.6,0,0.7,0.3,0.7,0.7c0,0.3-0.2,0.7-0.7,0.7h-0.5V55.7z
					 M154.9,54.7h0.5c0.4,0,0.5-0.3,0.5-0.5c0-0.2-0.1-0.5-0.5-0.5h-0.5V54.7z"/>
				<path id="XMLID_392_" class="st7" d="M157.1,54.4c-0.2,0-0.3,0-0.4,0.1v1.2h-0.2v-2.2h0.2v0.8c0.1-0.1,0.3-0.1,0.4-0.1
					c0.3,0,0.5,0.2,0.5,0.4v1.1h-0.2v-1.1C157.4,54.5,157.2,54.4,157.1,54.4"/>
				<path id="XMLID_389_" class="st7" d="M158.4,54.4c-0.2,0-0.3,0-0.4,0.1v-0.2c0.1-0.1,0.3-0.1,0.4-0.1c0.4,0,0.6,0.2,0.6,0.5v1
					h-0.1l0-0.1c-0.1,0.1-0.3,0.1-0.4,0.1c-0.4,0-0.5-0.2-0.5-0.5c0-0.2,0.1-0.4,0.5-0.5l0.4,0v-0.1
					C158.8,54.5,158.7,54.4,158.4,54.4 M158.4,55c-0.2,0-0.3,0.1-0.3,0.3c0,0.1,0,0.3,0.3,0.3c0.2,0,0.3,0,0.4-0.1V55L158.4,55z"/>
				<path id="XMLID_388_" class="st7" d="M160.2,54.5c0,0-0.1,0-0.2,0c-0.2,0-0.3,0-0.4,0.1v1.2h-0.2v-1.5h0.1l0,0.1
					c0.1-0.1,0.3-0.2,0.5-0.2c0.1,0,0.1,0,0.2,0V54.5z"/>
				<path id="XMLID_387_" class="st7" d="M162.2,54.7c0-0.2-0.1-0.2-0.3-0.2c-0.2,0-0.3,0-0.4,0.1c0,0,0,0.1,0,0.2v1.1h-0.2v-1.1
					c0-0.2-0.1-0.2-0.3-0.2c-0.2,0-0.3,0-0.4,0.1v1.2h-0.2v-1.5h0.1l0,0.1c0.1-0.1,0.3-0.1,0.4-0.1c0.2,0,0.3,0.1,0.4,0.2
					c0.2-0.1,0.3-0.2,0.5-0.2c0.3,0,0.5,0.1,0.5,0.4v1.1h-0.2V54.7z"/>
				<path id="XMLID_384_" class="st7" d="M163.3,54.4c-0.2,0-0.3,0-0.4,0.1v-0.2c0.1-0.1,0.3-0.1,0.4-0.1c0.4,0,0.6,0.2,0.6,0.5v1
					h-0.1l0-0.1c-0.1,0.1-0.3,0.1-0.4,0.1c-0.4,0-0.5-0.2-0.5-0.5c0-0.2,0.1-0.4,0.5-0.5l0.4,0v-0.1
					C163.6,54.5,163.6,54.4,163.3,54.4 M163.2,55c-0.2,0-0.3,0.1-0.3,0.3c0,0.1,0,0.3,0.3,0.3c0.2,0,0.3,0,0.4-0.1V55L163.2,55z"/>
			</g>
			<g id="XMLID_378_">
				<path id="XMLID_382_" class="st7" d="M151.7,43.8c-0.3,0-0.5,0.1-0.7,0.2c0.1,0,0.2,0.1,0.3,0.2c0.5,0.1,0.9,0.5,0.9,1.1
					c0,0.5-0.4,1-0.9,1.1c-0.1,0.1-0.2,0.1-0.3,0.2c0.2,0.1,0.4,0.2,0.7,0.2c0.8,0,1.4-0.6,1.4-1.4
					C153.1,44.4,152.5,43.8,151.7,43.8z"/>
				<path id="XMLID_381_" class="st9" d="M149.9,45.2c0-0.5,0.4-1,0.9-1.1c0.1-0.1,0.2-0.1,0.2-0.2c-0.2-0.1-0.4-0.2-0.7-0.2
					c-0.8,0-1.4,0.6-1.4,1.4c0,0.8,0.6,1.4,1.4,1.4c0.2,0,0.5-0.1,0.7-0.2c-0.1,0-0.2-0.1-0.3-0.2C150.2,46.2,149.9,45.7,149.9,45.2
					z"/>
				<path id="XMLID_380_" class="st9" d="M151,46.3c-0.1,0-0.2,0-0.3,0c0.1,0.1,0.2,0.1,0.3,0.2c0.1,0,0.2-0.1,0.3-0.2
					C151.2,46.3,151.1,46.3,151,46.3z"/>
				<path id="XMLID_379_" class="st9" d="M151,44.1c0.1,0,0.2,0,0.2,0c-0.1-0.1-0.2-0.1-0.3-0.2c-0.1,0-0.2,0.1-0.2,0.2
					C150.8,44.1,150.9,44.1,151,44.1z"/>
			</g>
		</g>
	</g>
</g>
<polyline id="XMLID_373_" class="st6" points="583.2,35.1 551.8,48 521.7,104.2 491.8,104.2 461.7,109.1 429.3,114.4 399.8,88.6 
	371.3,119.9 340.7,124 311.2,133.8 279.2,158.4 249.7,191.9 220.9,211.2 189.9,231 159,247 127.8,273.1 101.1,284.5 67.7,310.3 "/>
<g id="XMLID_355_">
	
		<rect id="XMLID_372_" x="579.6" y="32.2" transform="matrix(0.6524 -0.7578 0.7578 0.6524 175.8326 453.6212)" class="st5" width="5.8" height="5.8"/>
	
		<rect id="XMLID_371_" x="548.2" y="45.3" transform="matrix(0.6524 -0.7578 0.7578 0.6524 155.0261 434.3925)" class="st5" width="5.8" height="5.8"/>
	
		<rect id="XMLID_370_" x="519" y="101.2" transform="matrix(0.6524 -0.7578 0.7578 0.6524 102.5115 431.7037)" class="st5" width="5.8" height="5.8"/>
	
		<rect id="XMLID_369_" x="489.2" y="101" transform="matrix(0.6524 -0.7578 0.7578 0.6524 92.2749 409.0927)" class="st5" width="5.8" height="5.8"/>
	
		<rect id="XMLID_368_" x="458.2" y="105.8" transform="matrix(0.6524 -0.7578 0.7578 0.6524 77.8424 387.2072)" class="st5" width="5.8" height="5.8"/>
	
		<rect id="XMLID_367_" x="427.8" y="110.9" transform="matrix(0.6524 -0.7579 0.7579 0.6524 63.4571 365.9951)" class="st5" width="5.8" height="5.8"/>
	
		<rect id="XMLID_366_" x="397" y="86.6" transform="matrix(0.6524 -0.7578 0.7578 0.6524 71.1207 334.2133)" class="st5" width="5.8" height="5.8"/>
	
		<rect id="XMLID_365_" x="367.9" y="116.3" transform="matrix(0.6525 -0.7578 0.7578 0.6525 38.5382 322.4138)" class="st5" width="5.8" height="5.8"/>
	
		<rect id="XMLID_364_" x="338.6" y="121.1" transform="matrix(0.6525 -0.7578 0.7578 0.6525 24.7133 301.8502)" class="st5" width="5.8" height="5.8"/>
	
		<rect id="XMLID_363_" x="308.2" y="130.9" transform="matrix(0.6525 -0.7578 0.7578 0.6525 6.6835 282.2824)" class="st5" width="5.8" height="5.8"/>
	
		<rect id="XMLID_362_" x="277.1" y="154.5" transform="matrix(0.6525 -0.7578 0.7578 0.6525 -21.9427 266.908)" class="st5" width="5.8" height="5.8"/>
	
		<rect id="XMLID_361_" x="247.1" y="188.3" transform="matrix(0.6525 -0.7578 0.7578 0.6525 -58.0288 255.8867)" class="st5" width="5.8" height="5.8"/>
	
		<rect id="XMLID_360_" x="217" y="209.2" transform="matrix(0.6525 -0.7578 0.7578 0.6525 -84.3209 240.3742)" class="st5" width="5.8" height="5.8"/>
	
		<rect id="XMLID_359_" x="187.7" y="228.5" transform="matrix(0.6525 -0.7578 0.7578 0.6525 -109.1503 224.8569)" class="st5" width="5.8" height="5.8"/>
	
		<rect id="XMLID_358_" x="155.9" y="244.1" transform="matrix(0.6525 -0.7578 0.7578 0.6525 -131.9764 206.1568)" class="st5" width="5.8" height="5.8"/>
	
		<rect id="XMLID_357_" x="126.1" y="268.9" transform="matrix(0.6525 -0.7578 0.7578 0.6525 -161.1388 192.2269)" class="st5" width="5.8" height="5.8"/>
	
		<rect id="XMLID_356_" x="97.1" y="282.5" transform="matrix(0.6525 -0.7578 0.7578 0.6525 -181.5755 174.9616)" class="st5" width="5.8" height="5.8"/>
</g>
<rect id="XMLID_354_" x="217.7" y="209.7" transform="matrix(0.6527 -0.7576 0.7576 0.6527 -84.1989 240.2898)" class="st10" width="4.5" height="4.5"/>
<polyline id="XMLID_353_" class="st11" points="66.5,309.8 122.7,298.7 159,289.6 183.3,282.3 213.8,272.4 247.3,261.4 276.4,256.4 
	308.2,256 342,256 371,250.3 400,248.7 429.7,250.6 459.7,248.7 489.9,250.5 520.3,249.3 552.4,249.5 581.5,245.3 "/>
<rect id="XMLID_352_" x="516.4" y="246.2" class="st7" width="7.5" height="6.8"/>
<rect id="XMLID_351_" x="548.6" y="246.2" class="st7" width="7.5" height="6.8"/>
<g id="XMLID_332_">
	<rect id="XMLID_350_" x="577.4" y="241.2" class="st7" width="8.2" height="8.2"/>
	<rect id="XMLID_349_" x="548.2" y="245.5" class="st7" width="8.2" height="8.2"/>
	<rect id="XMLID_348_" x="515.8" y="245.5" class="st7" width="8.2" height="8.2"/>
	<rect id="XMLID_347_" x="486.7" y="245.5" class="st7" width="8.2" height="8.2"/>
	<rect id="XMLID_346_" x="455.8" y="242.9" class="st7" width="8.2" height="8.2"/>
	<rect id="XMLID_345_" x="425.5" y="245.4" class="st7" width="8.2" height="8.2"/>
	<rect id="XMLID_344_" x="391.8" y="243.6" class="st7" width="8.2" height="8.2"/>
	<rect id="XMLID_343_" x="365.5" y="246.1" class="st7" width="8.2" height="8.2"/>
	<rect id="XMLID_342_" x="335.9" y="250.8" class="st7" width="8.2" height="8.2"/>
	<rect id="XMLID_341_" x="305.1" y="251" class="st7" width="8.2" height="8.2"/>
	<rect id="XMLID_340_" x="274.4" y="249.9" class="st7" width="8.2" height="8.2"/>
	<rect id="XMLID_339_" x="245.2" y="256.1" class="st7" width="8.2" height="8.2"/>
	<rect id="XMLID_338_" x="215.6" y="265.4" class="st7" width="8.2" height="8.2"/>
	<rect id="XMLID_337_" x="184.5" y="274.4" class="st7" width="8.2" height="8.2"/>
	<rect id="XMLID_336_" x="155.7" y="285.3" class="st7" width="8.2" height="8.2"/>
	<rect id="XMLID_335_" x="125.3" y="292" class="st7" width="8.2" height="8.2"/>
	<rect id="XMLID_334_" x="94.1" y="296.8" class="st7" width="8.2" height="8.2"/>
	<rect id="XMLID_333_" x="65.5" y="303" class="st7" width="8.2" height="8.2"/>
</g>
<rect id="XMLID_331_" x="487.1" y="246.2" class="st7" width="7.5" height="6.8"/>
<rect id="XMLID_330_" x="456.2" y="243.7" class="st7" width="7.5" height="6.8"/>
<rect id="XMLID_329_" x="426" y="246.2" class="st7" width="7.5" height="6.8"/>
<rect id="XMLID_328_" x="392.2" y="244.2" class="st7" width="7.5" height="6.8"/>
<rect id="XMLID_327_" x="365.8" y="247" class="st7" width="7.5" height="6.8"/>
<rect id="XMLID_326_" x="336.2" y="251.6" class="st7" width="7.5" height="6.8"/>
<rect id="XMLID_325_" x="305.6" y="251.6" class="st7" width="7.5" height="6.8"/>
<rect id="XMLID_324_" x="274.8" y="250.9" class="st7" width="7.5" height="6.8"/>
<rect id="XMLID_323_" x="245.6" y="256.8" class="st7" width="7.5" height="6.8"/>
<rect id="XMLID_322_" x="215.9" y="266.4" class="st7" width="7.5" height="6.8"/>
<rect id="XMLID_321_" x="185" y="275.1" class="st7" width="7.5" height="6.8"/>
<rect id="XMLID_320_" x="156.2" y="286.2" class="st7" width="7.5" height="6.8"/>
<rect id="XMLID_319_" x="125.7" y="293" class="st7" width="7.5" height="6.8"/>
<rect id="XMLID_318_" x="94.4" y="297.6" class="st7" width="7.5" height="6.8"/>
<rect id="XMLID_317_" x="65.8" y="303.8" class="st7" width="7.5" height="6.8"/>
<g id="XMLID_310_">
	<g id="XMLID_312_">
		<path id="XMLID_313_" class="st1" d="M38.7,264.3c-0.3,0.3-0.9,0.3-1.6,0.3v-1.1c1,0,1.8-0.3,2.3-0.9H40v7h-1.3V264.3z"/>
	</g>
</g>
<g id="XMLID_303_">
	<g id="XMLID_305_">
		<path id="XMLID_306_" class="st1" d="M37.4,217.8l2.2-2.9c0.4-0.5,0.8-1.1,0.8-1.8c0-0.8-0.4-1.2-1.2-1.2c-0.7,0-1.4,0.4-1.8,0.9
			v-1.3c0.3-0.4,1-0.8,2-0.8c1.6,0,2.3,0.9,2.3,2.2c0,1.1-0.7,2.1-1.3,2.9l-0.6,0.8h2.1v1.2h-4.3V217.8z"/>
	</g>
</g>
<g id="XMLID_296_">
	<g id="XMLID_298_">
		<path id="XMLID_299_" class="st1" d="M37.4,166.9v-1.3c0.3,0.3,0.7,0.5,1.4,0.5c1.2,0,1.6-0.4,1.6-1.2c0-0.7-0.3-1.1-1.5-1.1h-0.5
			v-0.1l1.4-2.5h-2.5v-1.2h4.3v0.1l-1.5,2.8c0.9,0.2,1.6,0.7,1.6,2c0,1.1-0.9,2.3-2.9,2.3C38.1,167.3,37.7,167.1,37.4,166.9z"/>
	</g>
</g>
<g id="XMLID_289_">
	<g id="XMLID_291_">
		<path id="XMLID_292_" class="st1" d="M40.5,115.6h-3.4v-0.1l2-5.5h1.3l-1.5,4.4h1.7v-2.6h1.3v2.6h0.7v1.2h-0.7v1.4h-1.3V115.6z"/>
	</g>
</g>
<g id="XMLID_282_">
	<g id="XMLID_284_">
		<path id="XMLID_285_" class="st1" d="M37.4,68v-1.3c0.3,0.2,0.7,0.5,1.5,0.5c1,0,1.5-0.4,1.5-1.1c0-0.6-0.4-1-1.5-1
			c-0.6,0-1,0.1-1.3,0.3l0.2-4.2h3.8v1.2h-2.7l0,1.7c0.1,0,0.4-0.1,0.6-0.1c1.5,0,2.3,0.6,2.3,2c0,1.4-1.2,2.3-2.8,2.3
			C38.1,68.3,37.7,68.1,37.4,68z"/>
	</g>
</g>
<g id="XMLID_280_">
	<text transform="matrix(1 0 0 1 36.9402 17.5786)" class="st1 st12 st13">6</text>
</g>
<g id="XMLID_276_">
	<path id="XMLID_277_" class="st1" d="M65.5,334.2c0-2.4,1.7-3.7,3.5-3.7c2.1,0,3.5,1.3,3.5,3.7c0,2.3-1.6,3.7-3.5,3.7
		C66.9,337.9,65.5,336.5,65.5,334.2z M71.1,334.2c0-1.7-0.9-2.5-2.1-2.5c-1.2,0-2.1,0.8-2.1,2.5c0,1.7,0.9,2.5,2.1,2.5
		C70.2,336.7,71.1,335.9,71.1,334.2z"/>
</g>
<g id="XMLID_273_">
	<path id="XMLID_274_" class="st1" d="M97.9,332.4c-0.3,0.3-0.9,0.3-1.6,0.3v-1.1c1,0,1.8-0.3,2.3-0.9h0.6v7h-1.3V332.4z"/>
</g>
<g id="XMLID_270_">
	<path id="XMLID_271_" class="st1" d="M127.6,337.6l2.2-2.9c0.4-0.5,0.8-1.1,0.8-1.8c0-0.8-0.4-1.2-1.2-1.2c-0.7,0-1.4,0.4-1.8,0.9
		v-1.3c0.3-0.4,1-0.8,2-0.8c1.6,0,2.3,0.9,2.3,2.2c0,1.1-0.7,2.1-1.3,2.9l-0.6,0.8h2.1v1.2h-4.3V337.6z"/>
</g>
<g id="XMLID_267_">
	<path id="XMLID_268_" class="st1" d="M158.7,337.5v-1.3c0.3,0.3,0.7,0.5,1.4,0.5c1.2,0,1.6-0.4,1.6-1.2c0-0.7-0.3-1.1-1.5-1.1h-0.5
		v-0.1l1.4-2.5h-2.5v-1.2h4.3v0.1l-1.5,2.8c0.9,0.2,1.6,0.7,1.6,2c0,1.1-0.9,2.3-2.9,2.3C159.4,337.9,159,337.7,158.7,337.5z"/>
</g>
<g id="XMLID_264_">
	<path id="XMLID_265_" class="st1" d="M192.8,336.3h-3.4v-0.1l2-5.5h1.3l-1.5,4.4h1.7v-2.6h1.3v2.6h0.7v1.2H194v1.4h-1.3V336.3z"/>
</g>
<g id="XMLID_260_">
	<path id="XMLID_261_" class="st1" d="M220.7,335.1c0-2.5,1.5-3.9,2.7-4.4h1.8v0.1c-1.2,0.5-2.3,1.3-2.8,2.5
		c0.3-0.2,0.6-0.3,1.1-0.3c1.5,0,2.3,0.9,2.3,2.4c0,1.4-1,2.6-2.6,2.6C221.6,337.9,220.7,336.7,220.7,335.1z M224.4,335.3
		c0-0.8-0.4-1.3-1.2-1.3c-0.6,0-0.9,0.2-1.2,0.5c0,0.2,0,0.5,0,0.8c0,0.9,0.4,1.4,1.2,1.4S224.4,336.1,224.4,335.3z"/>
</g>
<g id="XMLID_255_">
	<path id="XMLID_256_" class="st1" d="M251.7,335.8c0-0.9,0.5-1.4,1.2-1.7c-0.5-0.3-1-0.8-1-1.6c0-1.2,0.9-2,2.4-2
		c1.4,0,2.2,0.8,2.2,2c0,0.8-0.5,1.3-1,1.6c0.6,0.2,1.2,0.8,1.2,1.7c0,1.2-0.9,2-2.6,2S251.7,337,251.7,335.8z M255.4,335.7
		c0-0.6-0.4-1-1.2-1c-0.8,0-1.2,0.4-1.2,1s0.4,1,1.2,1C255,336.7,255.4,336.3,255.4,335.7z M255.3,332.6c0-0.6-0.4-1-1.1-1
		c-0.6,0-1,0.4-1,1c0,0.6,0.4,1,1,1C254.9,333.6,255.3,333.2,255.3,332.6z"/>
</g>
<g id="XMLID_250_">
	<path id="XMLID_253_" class="st1" d="M275.8,332.4c-0.3,0.3-0.9,0.3-1.6,0.3v-1.1c1,0,1.8-0.3,2.3-0.9h0.6v7h-1.3V332.4z"/>
	<path id="XMLID_251_" class="st1" d="M278.3,337.6l2.2-2.9c0.4-0.5,0.8-1.1,0.8-1.8c0-0.8-0.4-1.2-1.2-1.2c-0.7,0-1.4,0.4-1.8,0.9
		v-1.3c0.3-0.4,1-0.8,2-0.8c1.6,0,2.3,0.9,2.3,2.2c0,1.1-0.7,2.1-1.3,2.9l-0.6,0.8h2.1v1.2h-4.3V337.6z"/>
</g>
<g id="XMLID_244_">
	<path id="XMLID_248_" class="st1" d="M303.9,332.4c-0.3,0.3-0.9,0.3-1.6,0.3v-1.1c1,0,1.8-0.3,2.3-0.9h0.6v7h-1.3V332.4z"/>
	<path id="XMLID_245_" class="st1" d="M306.4,335.1c0-2.5,1.5-3.9,2.7-4.4h1.8v0.1c-1.2,0.5-2.3,1.3-2.8,2.5
		c0.3-0.2,0.6-0.3,1.1-0.3c1.5,0,2.3,0.9,2.3,2.4c0,1.4-1,2.6-2.6,2.6C307.3,337.9,306.4,336.7,306.4,335.1z M310.1,335.3
		c0-0.8-0.4-1.3-1.2-1.3c-0.6,0-0.9,0.2-1.2,0.5c0,0.2,0,0.5,0,0.8c0,0.9,0.4,1.4,1.2,1.4S310.1,336.1,310.1,335.3z"/>
</g>
<g id="XMLID_238_">
	<path id="XMLID_242_" class="st1" d="M333,337.6l2.2-2.9c0.4-0.5,0.8-1.1,0.8-1.8c0-0.8-0.4-1.2-1.2-1.2c-0.7,0-1.4,0.4-1.8,0.9
		v-1.3c0.3-0.4,1-0.8,2-0.8c1.6,0,2.3,0.9,2.3,2.2c0,1.1-0.7,2.1-1.3,2.9l-0.6,0.8h2.1v1.2H333V337.6z"/>
	<path id="XMLID_239_" class="st1" d="M338.2,334.2c0-2.4,1.7-3.7,3.5-3.7c2.1,0,3.5,1.3,3.5,3.7c0,2.3-1.6,3.7-3.5,3.7
		C339.6,337.9,338.2,336.5,338.2,334.2z M343.8,334.2c0-1.7-0.9-2.5-2.1-2.5c-1.2,0-2.1,0.8-2.1,2.5c0,1.7,0.9,2.5,2.1,2.5
		C342.9,336.7,343.8,335.9,343.8,334.2z"/>
</g>
<g id="XMLID_233_">
	<path id="XMLID_236_" class="st1" d="M364,337.6l2.2-2.9c0.4-0.5,0.8-1.1,0.8-1.8c0-0.8-0.4-1.2-1.2-1.2c-0.7,0-1.4,0.4-1.8,0.9
		v-1.3c0.3-0.4,1-0.8,2-0.8c1.6,0,2.3,0.9,2.3,2.2c0,1.1-0.7,2.1-1.3,2.9l-0.6,0.8h2.1v1.2H364V337.6z"/>
	<path id="XMLID_234_" class="st1" d="M372.4,336.3h-3.4v-0.1l2-5.5h1.3l-1.5,4.4h1.7v-2.6h1.3v2.6h0.7v1.2h-0.7v1.4h-1.3V336.3z"/>
</g>
<g id="XMLID_226_">
	<path id="XMLID_231_" class="st1" d="M393.9,337.6l2.2-2.9c0.4-0.5,0.8-1.1,0.8-1.8c0-0.8-0.4-1.2-1.2-1.2c-0.7,0-1.4,0.4-1.8,0.9
		v-1.3c0.3-0.4,1-0.8,2-0.8c1.6,0,2.3,0.9,2.3,2.2c0,1.1-0.7,2.1-1.3,2.9l-0.6,0.8h2.1v1.2h-4.3V337.6z"/>
	<path id="XMLID_227_" class="st1" d="M399.1,335.8c0-0.9,0.5-1.4,1.2-1.7c-0.5-0.3-1-0.8-1-1.6c0-1.2,0.9-2,2.4-2
		c1.4,0,2.2,0.8,2.2,2c0,0.8-0.5,1.3-1,1.6c0.6,0.2,1.2,0.8,1.2,1.7c0,1.2-0.9,2-2.6,2C399.9,337.9,399.1,337,399.1,335.8z
		 M402.8,335.7c0-0.6-0.4-1-1.2-1c-0.8,0-1.2,0.4-1.2,1s0.4,1,1.2,1C402.4,336.7,402.8,336.3,402.8,335.7z M402.6,332.6
		c0-0.6-0.4-1-1.1-1c-0.6,0-1,0.4-1,1c0,0.6,0.4,1,1,1C402.3,333.6,402.6,333.2,402.6,332.6z"/>
</g>
<g id="XMLID_221_">
	<path id="XMLID_224_" class="st1" d="M426.1,337.5v-1.3c0.3,0.3,0.7,0.5,1.4,0.5c1.2,0,1.6-0.4,1.6-1.2c0-0.7-0.3-1.1-1.5-1.1h-0.5
		v-0.1l1.4-2.5h-2.5v-1.2h4.3v0.1l-1.5,2.8c0.9,0.2,1.6,0.7,1.6,2c0,1.1-0.9,2.3-2.9,2.3C426.8,337.9,426.4,337.7,426.1,337.5z"/>
	<path id="XMLID_222_" class="st1" d="M431.4,337.6l2.2-2.9c0.4-0.5,0.8-1.1,0.8-1.8c0-0.8-0.4-1.2-1.2-1.2c-0.7,0-1.4,0.4-1.8,0.9
		v-1.3c0.3-0.4,1-0.8,2-0.8c1.6,0,2.3,0.9,2.3,2.2c0,1.1-0.7,2.1-1.3,2.9l-0.6,0.8h2.1v1.2h-4.3V337.6z"/>
</g>
<g id="XMLID_215_">
	<path id="XMLID_219_" class="st1" d="M457.2,337.5v-1.3c0.3,0.3,0.7,0.5,1.4,0.5c1.2,0,1.6-0.4,1.6-1.2c0-0.7-0.3-1.1-1.5-1.1h-0.5
		v-0.1l1.4-2.5h-2.5v-1.2h4.3v0.1l-1.5,2.8c0.9,0.2,1.6,0.7,1.6,2c0,1.1-0.9,2.3-2.9,2.3C457.9,337.9,457.4,337.7,457.2,337.5z"/>
	<path id="XMLID_216_" class="st1" d="M462.4,335.1c0-2.5,1.5-3.9,2.7-4.4h1.8v0.1c-1.2,0.5-2.3,1.3-2.8,2.5
		c0.3-0.2,0.6-0.3,1.1-0.3c1.5,0,2.3,0.9,2.3,2.4c0,1.4-1,2.6-2.6,2.6S462.4,336.7,462.4,335.1z M466.2,335.3c0-0.8-0.4-1.3-1.2-1.3
		c-0.6,0-0.9,0.2-1.2,0.5c0,0.2,0,0.5,0,0.8c0,0.9,0.4,1.4,1.2,1.4C465.7,336.7,466.2,336.1,466.2,335.3z"/>
</g>
<g id="XMLID_209_">
	<path id="XMLID_213_" class="st1" d="M485.3,336.3h-3.4v-0.1l2-5.5h1.3l-1.5,4.4h1.7v-2.6h1.3v2.6h0.7v1.2h-0.7v1.4h-1.3V336.3z"/>
	<path id="XMLID_210_" class="st1" d="M488,334.2c0-2.4,1.7-3.7,3.5-3.7c2.1,0,3.5,1.3,3.5,3.7c0,2.3-1.6,3.7-3.5,3.7
		C489.4,337.9,488,336.5,488,334.2z M493.6,334.2c0-1.7-0.9-2.5-2.1-2.5c-1.2,0-2.1,0.8-2.1,2.5c0,1.7,0.9,2.5,2.1,2.5
		C492.7,336.7,493.6,335.9,493.6,334.2z"/>
</g>
<g id="XMLID_204_">
	<path id="XMLID_207_" class="st1" d="M515.8,336.3h-3.4v-0.1l2-5.5h1.3l-1.5,4.4h1.7v-2.6h1.3v2.6h0.7v1.2H517v1.4h-1.3V336.3z"/>
	<path id="XMLID_205_" class="st1" d="M521.6,336.3h-3.4v-0.1l2-5.5h1.3l-1.5,4.4h1.7v-2.6h1.3v2.6h0.7v1.2h-0.7v1.4h-1.3V336.3z"/>
</g>
<g id="XMLID_197_">
	<path id="XMLID_202_" class="st1" d="M547.4,336.3H544v-0.1l2-5.5h1.3l-1.5,4.4h1.7v-2.6h1.3v2.6h0.7v1.2h-0.7v1.4h-1.3V336.3z"/>
	<path id="XMLID_198_" class="st1" d="M550.1,335.8c0-0.9,0.5-1.4,1.2-1.7c-0.5-0.3-1-0.8-1-1.6c0-1.2,0.9-2,2.4-2
		c1.4,0,2.2,0.8,2.2,2c0,0.8-0.5,1.3-1,1.6c0.6,0.2,1.2,0.8,1.2,1.7c0,1.2-0.9,2-2.6,2C550.9,337.9,550.1,337,550.1,335.8z
		 M553.8,335.7c0-0.6-0.4-1-1.2-1c-0.8,0-1.2,0.4-1.2,1s0.4,1,1.2,1C553.4,336.7,553.8,336.3,553.8,335.7z M553.6,332.6
		c0-0.6-0.4-1-1.1-1c-0.6,0-1,0.4-1,1c0,0.6,0.4,1,1,1C553.3,333.6,553.6,333.2,553.6,332.6z"/>
</g>
<g id="XMLID_192_">
	<path id="XMLID_195_" class="st1" d="M575.4,337.5v-1.3c0.3,0.2,0.7,0.5,1.5,0.5c1,0,1.5-0.4,1.5-1.1c0-0.6-0.4-1-1.5-1
		c-0.6,0-1,0.1-1.3,0.3l0.2-4.2h3.8v1.2h-2.7l0,1.7c0.1,0,0.4-0.1,0.6-0.1c1.5,0,2.3,0.6,2.3,2c0,1.4-1.2,2.3-2.8,2.3
		C576.1,337.9,575.6,337.7,575.4,337.5z"/>
	<path id="XMLID_193_" class="st1" d="M580.6,337.6l2.2-2.9c0.4-0.5,0.8-1.1,0.8-1.8c0-0.8-0.4-1.2-1.2-1.2c-0.7,0-1.4,0.4-1.8,0.9
		v-1.3c0.3-0.4,1-0.8,2-0.8c1.6,0,2.3,0.9,2.3,2.2c0,1.1-0.7,2.1-1.3,2.9l-0.6,0.8h2.1v1.2h-4.3V337.6z"/>
</g>
<g id="XMLID_2_">
	<g id="XMLID_4_">
		<path id="XMLID_97_" class="st1" d="M10.7,239.4V238l3.6-2.4l-3.6-2.3V232h7.7v1.5h-5.3l3.4,2.2v0l-3.4,2.2h5.3v1.5H10.7z"/>
		<path id="XMLID_94_" class="st1" d="M15.2,230.7c-2.3,0-3.3-1.5-3.3-2.9c0-1.4,0.6-2.8,3-2.8h0.8v4.2c0.9-0.1,1.6-0.6,1.6-1.8
			c0-1.1-0.5-1.8-0.9-2.1h1.3c0.4,0.3,0.8,1,0.8,2.2C18.5,229.4,17.5,230.7,15.2,230.7z M14.7,226.5L14.7,226.5
			c-1,0-1.6,0.4-1.6,1.3c0,0.8,0.8,1.3,1.6,1.4V226.5z"/>
		<path id="XMLID_91_" class="st1" d="M16.8,224.2c-1.3,0-1.8-1-2.1-2.7l-0.1-0.9c-1.1,0-1.4,0.5-1.4,1.4c0,0.9,0.5,1.7,1.2,2h-1.5
			c-0.4-0.2-0.9-0.9-0.9-2.2c0-1.7,0.8-2.6,2.6-2.6h3.8v1.3l-0.6,0.1c0.4,0.2,0.7,0.7,0.7,1.5C18.5,223.2,18,224.2,16.8,224.2z
			 M15.5,220.6l0.2,0.8c0.2,1,0.5,1.4,1,1.4c0.5,0,0.7-0.4,0.7-0.9c0-0.6-0.2-1.1-0.5-1.3H15.5z"/>
		<path id="XMLID_89_" class="st1" d="M12.1,217.6v-1.4l0.6-0.1c-0.4-0.2-0.7-0.8-0.7-1.6c0-1.6,0.8-2.3,2.5-2.3h3.9v1.5h-3.6
			c-1.2,0-1.7,0.3-1.7,1.1c0,0.7,0.4,1.1,0.6,1.3h4.7v1.5H12.1z"/>
		<path id="XMLID_87_" class="st1" d="M15.2,208.4c-2.3,0-3.3-1.4-3.3-3c0-0.8,0.3-1.5,0.6-1.8h1.4c-0.5,0.4-0.8,0.9-0.8,1.7
			c0,1,0.8,1.6,2,1.6c1.3,0,2-0.6,2-1.6c0-0.8-0.3-1.3-0.8-1.7h1.3c0.3,0.3,0.7,1,0.7,1.9C18.5,207.2,17.5,208.4,15.2,208.4z"/>
		<path id="XMLID_85_" class="st1" d="M9.8,202.4v-1.5h2.8c-0.4-0.3-0.7-0.8-0.7-1.6c0-1.6,0.8-2.3,2.5-2.3h3.9v1.5h-3.6
			c-1.2,0-1.7,0.3-1.7,1.1c0,0.7,0.3,1.1,0.6,1.2h4.7v1.5H9.8z"/>
		<path id="XMLID_82_" class="st1" d="M16.8,195.9c-1.3,0-1.8-1-2.1-2.7l-0.1-0.9c-1.1,0-1.4,0.5-1.4,1.4c0,0.9,0.5,1.7,1.2,2h-1.5
			c-0.4-0.2-0.9-0.9-0.9-2.2c0-1.7,0.8-2.6,2.6-2.6h3.8v1.3l-0.6,0.1c0.4,0.2,0.7,0.7,0.7,1.5C18.5,195,18,195.9,16.8,195.9z
			 M15.5,192.3l0.2,0.8c0.2,1,0.5,1.4,1,1.4c0.5,0,0.7-0.4,0.7-0.9c0-0.6-0.2-1.1-0.5-1.3H15.5z"/>
		<path id="XMLID_80_" class="st1" d="M12.1,189.3V188l0.6-0.1c-0.4-0.2-0.7-0.8-0.7-1.6c0-1.6,0.8-2.3,2.5-2.3h3.9v1.5h-3.6
			c-1.2,0-1.7,0.3-1.7,1.1c0,0.7,0.4,1.1,0.6,1.3h4.7v1.5H12.1z"/>
		<path id="XMLID_77_" class="st1" d="M20.1,182.9h-1.2c0.4-0.5,0.7-1.4,0.7-2.6c0-1.4-0.2-2.1-0.8-2.1c-0.5,0-0.6,0.5-0.6,1.4
			c0,0.9,0.2,2.2,0.4,2.6h-1.1l-1.4-0.9c-0.3,0.9-1,1.4-2,1.4c-1.4,0-2.2-1.1-2.2-2.6c0-0.7,0.2-1.3,0.5-1.7
			c-0.3-0.2-0.5-0.7-0.5-1.2c0-0.2,0-0.3,0.1-0.5h1.1c0,0.1-0.1,0.2-0.1,0.4c0,0.2,0.1,0.5,0.2,0.6c0.2-0.1,0.5-0.2,0.9-0.2
			c1.4,0,2.2,1.1,2.2,2.6v0.2l0.9,0.5c-0.1-0.2-0.2-1-0.2-1.6c0-1.5,0.4-2.5,1.6-2.5c1.2,0,2.1,1.2,2.1,3.4
			C20.7,181.4,20.5,182.4,20.1,182.9z M14.1,179c-0.7,0-1.1,0.5-1.1,1.2c0,0.7,0.4,1.2,1.1,1.2c0.7,0,1.1-0.5,1.1-1.2
			C15.2,179.5,14.8,179,14.1,179z"/>
		<path id="XMLID_74_" class="st1" d="M15.2,176.3c-2.3,0-3.3-1.5-3.3-2.9c0-1.4,0.6-2.8,3-2.8h0.8v4.2c0.9-0.1,1.6-0.6,1.6-1.8
			c0-1.1-0.5-1.8-0.9-2.1h1.3c0.4,0.3,0.8,1,0.8,2.2C18.5,175.1,17.5,176.3,15.2,176.3z M14.7,172.1L14.7,172.1
			c-1,0-1.6,0.4-1.6,1.3c0,0.8,0.8,1.3,1.6,1.4V172.1z"/>
		<path id="XMLID_72_" class="st1" d="M13.3,166.5v0.7h-0.4l-0.6-0.7c-0.2,0.1-0.5,0.2-0.9,0.2c-1.1,0-1.7-1-1.7-2.1
			c0-0.8,0.2-1.2,0.4-1.4h1.3c-0.4,0.2-0.6,0.6-0.6,1.1c0,0.6,0.2,0.9,0.7,0.9c0.2,0,0.4-0.1,0.6-0.2v-1.3h1.2v1.2h5.1v1.5H13.3z"/>
		<path id="XMLID_70_" class="st1" d="M12.1,162.8v-1.3l0.9-0.1c-0.7-0.1-1.1-0.6-1.1-1.2c0-0.3,0.1-0.5,0.2-0.6h1.3
			c-0.1,0.1-0.2,0.4-0.2,0.7c0,0.5,0.2,0.8,0.6,1h4.5v1.5H12.1z"/>
		<path id="XMLID_67_" class="st1" d="M15.2,159c-2.3,0-3.3-1.4-3.3-3.1c0-1.7,1.1-2.9,3.3-2.9c2.3,0,3.3,1.4,3.3,3.1
			C18.5,157.8,17.5,159,15.2,159z M15.2,154.5c-1.2,0-2.1,0.5-2.1,1.5c0,1,0.9,1.5,2.1,1.5c1.2,0,2.1-0.5,2.1-1.5
			C17.3,155,16.5,154.5,15.2,154.5z"/>
		<path id="XMLID_65_" class="st1" d="M12.1,151.8v-1.4l0.6-0.1c-0.4-0.2-0.7-0.8-0.7-1.5c0-0.9,0.3-1.5,0.9-1.8
			c-0.4-0.3-0.9-0.8-0.9-1.8c0-1.5,0.8-2.1,2.5-2.1h3.9v1.5h-3.6c-1.2,0-1.7,0.3-1.7,1c0,0.6,0.3,1,0.6,1.2c0.2,0,0.5-0.1,0.8-0.1
			h3.9v1.5h-3.6c-1.2,0-1.7,0.3-1.7,1c0,0.6,0.3,1,0.6,1.1h4.7v1.5H12.1z"/>
		<path id="XMLID_62_" class="st1" d="M17.9,137.5l0.4,0.2v1.1H9.8v-1.5h2.8c-0.3-0.2-0.7-0.7-0.7-1.6c0-1.5,0.9-2.5,3.1-2.5
			c2.3,0,3.5,1.3,3.5,2.8C18.5,136.8,18.2,137.3,17.9,137.5z M16.9,137.4c0.4-0.3,0.5-0.7,0.5-1.2c0-1-1-1.4-2.2-1.4
			c-1.2,0-2,0.4-2,1.4c0,0.6,0.2,1,0.6,1.2H16.9z"/>
		<path id="XMLID_59_" class="st1" d="M16.8,132.4c-1.3,0-1.8-1-2.1-2.7l-0.1-0.9c-1.1,0-1.4,0.5-1.4,1.4c0,0.9,0.5,1.7,1.2,2h-1.5
			c-0.4-0.2-0.9-0.9-0.9-2.2c0-1.7,0.8-2.6,2.6-2.6h3.8v1.3l-0.6,0.1c0.4,0.2,0.7,0.7,0.7,1.5C18.5,131.4,18,132.4,16.8,132.4z
			 M15.5,128.8l0.2,0.8c0.2,1,0.5,1.4,1,1.4c0.5,0,0.7-0.4,0.7-0.9c0-0.6-0.2-1.1-0.5-1.3H15.5z"/>
		<path id="XMLID_57_" class="st1" d="M18,126h-1.4c0.4-0.4,0.8-0.9,0.8-1.8s-0.3-1.2-0.7-1.2c-0.4,0-0.6,0.2-0.7,0.9l-0.1,0.3
			c-0.2,1.2-0.8,1.8-1.9,1.8c-1.1,0-2-0.8-2-2.4c0-0.8,0.2-1.5,0.6-1.8h1.4c-0.5,0.4-0.8,0.9-0.8,1.8c0,0.8,0.3,1.1,0.7,1.1
			c0.4,0,0.6-0.2,0.7-0.9l0.1-0.3c0.2-1.2,0.7-1.9,1.9-1.9c1.1,0,2.1,0.8,2.1,2.6C18.5,125.1,18.3,125.7,18,126z"/>
		<path id="XMLID_54_" class="st1" d="M15.2,120.8c-2.3,0-3.3-1.5-3.3-2.9c0-1.4,0.6-2.8,3-2.8h0.8v4.2c0.9-0.1,1.6-0.6,1.6-1.8
			c0-1.1-0.5-1.8-0.9-2.1h1.3c0.4,0.3,0.8,1,0.8,2.2C18.5,119.6,17.5,120.8,15.2,120.8z M14.7,116.6L14.7,116.6
			c-1,0-1.6,0.4-1.6,1.3c0,0.8,0.8,1.3,1.6,1.4V116.6z"/>
		<path id="XMLID_52_" class="st1" d="M16.9,114H9.8v-1.5h7c0.4,0,0.6-0.1,0.6-0.4c0-0.3-0.1-0.5-0.3-0.6h1.2c0.1,0.1,0.4,0.4,0.4,1
			C18.5,113.5,18,114,16.9,114z"/>
		<path id="XMLID_49_" class="st1" d="M10.7,110.6c-0.5,0-0.7-0.3-0.7-0.8s0.3-0.8,0.7-0.8c0.5,0,0.7,0.3,0.7,0.8
			S11.1,110.6,10.7,110.6z M12.1,110.5v-1.5h6.2v1.5H12.1z"/>
		<path id="XMLID_47_" class="st1" d="M12.1,107.5v-1.4l0.6-0.1c-0.4-0.2-0.7-0.8-0.7-1.6c0-1.6,0.8-2.3,2.5-2.3h3.9v1.5h-3.6
			c-1.2,0-1.7,0.3-1.7,1.1c0,0.7,0.4,1.1,0.6,1.3h4.7v1.5H12.1z"/>
		<path id="XMLID_44_" class="st1" d="M15.2,101.1c-2.3,0-3.3-1.5-3.3-2.9c0-1.4,0.6-2.8,3-2.8h0.8v4.2c0.9-0.1,1.6-0.6,1.6-1.8
			c0-1.1-0.5-1.8-0.9-2.1h1.3c0.4,0.3,0.8,1,0.8,2.2C18.5,99.8,17.5,101.1,15.2,101.1z M14.7,96.9L14.7,96.9c-1,0-1.6,0.4-1.6,1.3
			c0,0.8,0.8,1.3,1.6,1.4V96.9z"/>
		<path id="XMLID_41_" class="st1" d="M17.9,90.2l0.4,0.2v1.1H9.8v-1.5h2.8c-0.3-0.2-0.7-0.7-0.7-1.6c0-1.5,0.9-2.5,3.1-2.5
			c2.3,0,3.5,1.3,3.5,2.8C18.5,89.5,18.2,89.9,17.9,90.2z M16.9,90.1c0.4-0.3,0.5-0.7,0.5-1.2c0-1-1-1.4-2.2-1.4c-1.2,0-2,0.4-2,1.4
			c0,0.6,0.2,1,0.6,1.2H16.9z"/>
		<path id="XMLID_38_" class="st1" d="M15.2,85.1c-2.3,0-3.3-1.4-3.3-3.1c0-1.7,1.1-2.9,3.3-2.9c2.3,0,3.3,1.4,3.3,3.1
			C18.5,83.8,17.5,85.1,15.2,85.1z M15.2,80.5c-1.2,0-2.1,0.5-2.1,1.5c0,1,0.9,1.5,2.1,1.5c1.2,0,2.1-0.5,2.1-1.5
			C17.3,81,16.5,80.5,15.2,80.5z"/>
		<path id="XMLID_35_" class="st1" d="M15.3,78.2c-2.3,0-3.4-1.2-3.4-2.8c0-0.5,0.1-1.1,0.4-1.3H9.8v-1.5h8.5V74l-0.6,0.1
			c0.3,0.2,0.7,0.7,0.7,1.6C18.5,77.1,17.6,78.2,15.3,78.2z M13.6,74.1c-0.3,0.3-0.5,0.7-0.5,1.2c0,1,1,1.4,2.2,1.4
			c1.2,0,2-0.4,2-1.4c0-0.6-0.3-1.1-0.6-1.2H13.6z"/>
		<path id="XMLID_33_" class="st1" d="M20.4,71.6h-1.2c0.3-0.3,0.5-0.6,0.5-1c0-0.5-0.2-0.9-1.1-1.2l-6.4,2.5v-1.6l4.5-1.6l-4.5-1.2
			V66l5.9,1.8c1.5,0.5,2.8,1.1,2.8,2.7C20.7,71,20.6,71.4,20.4,71.6z"/>
		<path id="XMLID_31_" class="st1" d="M25.7,184.6v-1.4l3.7-0.9l-3.7-1.4v-0.6l3.7-1.4l-3.7-0.9v-1.3l6.2,1.7v0.9l-3.7,1.4L32,182
			v0.9L25.7,184.6z"/>
		<path id="XMLID_28_" class="st1" d="M28.8,175.9c-2.3,0-3.3-1.5-3.3-2.9c0-1.4,0.6-2.8,3-2.8h0.8v4.2c0.9-0.1,1.6-0.6,1.6-1.8
			c0-1.1-0.5-1.8-0.9-2.1h1.3c0.4,0.3,0.8,1,0.8,2.2C32.1,174.6,31.1,175.9,28.8,175.9z M28.3,171.7L28.3,171.7
			c-1,0-1.6,0.4-1.6,1.3c0,0.8,0.8,1.3,1.6,1.4V171.7z"/>
		<path id="XMLID_24_" class="st1" d="M28.8,169.4c-2.3,0-3.3-1.5-3.3-2.9c0-1.4,0.6-2.8,3-2.8h0.8v4.2c0.9-0.1,1.6-0.6,1.6-1.8
			c0-1.1-0.5-1.8-0.9-2.1h1.3c0.4,0.3,0.8,1,0.8,2.2C32.1,168.1,31.1,169.4,28.8,169.4z M28.3,165.2L28.3,165.2
			c-1,0-1.6,0.4-1.6,1.3c0,0.8,0.8,1.3,1.6,1.4V165.2z"/>
		<path id="XMLID_21_" class="st1" d="M24.2,162.6c-0.5,0-0.7-0.3-0.7-0.8s0.3-0.8,0.7-0.8c0.5,0,0.7,0.3,0.7,0.8
			S24.7,162.6,24.2,162.6z M25.7,162.5v-1.5H32v1.5H25.7z"/>
		<path id="XMLID_18_" class="st1" d="M33.7,159.9h-1.2c0.4-0.5,0.7-1.4,0.7-2.6c0-1.4-0.2-2.1-0.8-2.1c-0.5,0-0.6,0.5-0.6,1.4
			c0,0.9,0.2,2.2,0.4,2.6h-1.1l-1.4-0.9c-0.3,0.9-1,1.4-2,1.4c-1.4,0-2.2-1.1-2.2-2.6c0-0.7,0.2-1.3,0.5-1.7
			c-0.3-0.2-0.5-0.7-0.5-1.2c0-0.2,0-0.3,0.1-0.5h1.1c0,0.1-0.1,0.2-0.1,0.4c0,0.2,0.1,0.5,0.2,0.6c0.2-0.1,0.5-0.2,0.9-0.2
			c1.4,0,2.2,1.1,2.2,2.6v0.2l0.9,0.5c-0.1-0.2-0.2-1-0.2-1.6c0-1.5,0.4-2.5,1.6-2.5c1.2,0,2.1,1.2,2.1,3.4
			C34.3,158.4,34.1,159.4,33.7,159.9z M27.7,156.1c-0.7,0-1.1,0.5-1.1,1.2c0,0.7,0.4,1.2,1.1,1.2c0.7,0,1.1-0.5,1.1-1.2
			C28.7,156.5,28.4,156.1,27.7,156.1z"/>
		<path id="XMLID_16_" class="st1" d="M23.4,153v-1.5h2.8c-0.4-0.3-0.7-0.8-0.7-1.6c0-1.6,0.8-2.3,2.5-2.3H32v1.5h-3.6
			c-1.2,0-1.7,0.3-1.7,1.1c0,0.7,0.3,1.1,0.6,1.2H32v1.5H23.4z"/>
		<path id="XMLID_14_" class="st1" d="M30.3,145.9h-3.4v0.7h-0.4l-0.8-0.6l-1.5-1.1v-0.5h1.5v-1.5h1.2v1.5h3.3
			c0.5,0,0.7-0.2,0.7-0.6c0-0.5-0.2-0.8-0.6-1h1.3c0.2,0.2,0.5,0.6,0.5,1.3C32.1,145.4,31.5,145.9,30.3,145.9z"/>
		<path id="XMLID_12_" class="st1" d="M28.5,139.4c-1.9,0-3.8-0.9-4.6-2.4v-1.3c0.8,1.4,2.5,2.4,4.6,2.4c2.2,0,4-1,4.8-2.4v1.3
			C32.5,138.5,30.5,139.4,28.5,139.4z"/>
		<path id="XMLID_10_" class="st1" d="M29.1,132.8c0.4,0.4,0.6,0.7,0.6,0.7H32v1.5h-8.5v-1.5h4.8c0,0-1.1-1.4-2.5-2.4v-1.5
			c0.9,0.5,1.7,1.3,2.4,2.1l3.8-2.4v1.7L29.1,132.8z"/>
		<path id="XMLID_7_" class="st1" d="M33.7,128.8h-1.2c0.4-0.5,0.7-1.4,0.7-2.6c0-1.4-0.2-2.1-0.8-2.1c-0.5,0-0.6,0.5-0.6,1.4
			c0,0.9,0.2,2.2,0.4,2.6h-1.1l-1.4-0.9c-0.3,0.9-1,1.4-2,1.4c-1.4,0-2.2-1.1-2.2-2.6c0-0.7,0.2-1.3,0.5-1.7
			c-0.3-0.2-0.5-0.7-0.5-1.2c0-0.2,0-0.3,0.1-0.5h1.1c0,0.1-0.1,0.2-0.1,0.4c0,0.2,0.1,0.5,0.2,0.6c0.2-0.1,0.5-0.2,0.9-0.2
			c1.4,0,2.2,1.1,2.2,2.6v0.2l0.9,0.5c-0.1-0.2-0.2-1-0.2-1.6c0-1.5,0.4-2.5,1.6-2.5c1.2,0,2.1,1.2,2.1,3.4
			C34.3,127.4,34.1,128.3,33.7,128.8z M27.7,125c-0.7,0-1.1,0.5-1.1,1.2c0,0.7,0.4,1.2,1.1,1.2c0.7,0,1.1-0.5,1.1-1.2
			C28.7,125.4,28.4,125,27.7,125z"/>
		<path id="XMLID_5_" class="st1" d="M28.7,120.3c-2.2,0-4,1-4.8,2.4v-1.3c0.7-1.4,2.8-2.4,4.8-2.4c1.9,0,3.8,0.9,4.6,2.4v1.3
			C32.5,121.2,30.8,120.3,28.7,120.3z"/>
	</g>
</g>
<line id="XMLID_1_" class="st3" x1="584.8" y1="310.3" x2="52.8" y2="310.3"/>
</svg>
