<!-- Generator: Adobe Illustrator 22.1.0, SVG Export Plug-In  -->
<svg version="1.1"
	 xmlns="http://www.w3.org/2000/svg" xmlns:xlink="http://www.w3.org/1999/xlink" xmlns:a="http://ns.adobe.com/AdobeSVGViewerExtensions/3.0/"
	 x="0px" y="0px" width="790.7px" height="129.2px" viewBox="0 0 790.7 129.2" style="enable-background:new 0 0 790.7 129.2;"
	 xml:space="preserve">
<style type="text/css">
	.st0{fill:#7F3F97;}
	.st1{fill:#231F20;}
	.st2{fill:#490E67;}
	.st3{fill:#C29FD8;}
</style>
<defs>
</defs>
<g id="XMLID_599_">
	<g id="XMLID_645_">
		<g id="XMLID_647_">
			<path id="XMLID_959_" class="st0" d="M0.9,80.7V77c0.8,0.9,2.4,1.7,4.5,1.7c1.8,0,2.7-0.6,2.7-1.7c0-0.9-0.6-1.2-2.2-1.5
				l-0.6-0.1c-2.7-0.5-4.4-1.8-4.4-4.5c0-3,2.4-4.8,6.3-4.8c2.5,0,3.9,0.6,4.5,1.1v3.6c-0.8-0.9-2.4-1.7-4.5-1.7
				c-1.5,0-2.3,0.5-2.3,1.4c0,0.9,0.4,1.3,2,1.6l0.6,0.1c2.8,0.5,4.7,1.6,4.7,4.4c0,3-2.3,5.1-6.6,5.1C2.9,81.7,1.5,81.1,0.9,80.7z"
				/>
			<path id="XMLID_957_" class="st0" d="M15,77.9v-5.8h-1.6v-1.3l1.3-1.5l2.4-2.9H19v2.9h3.2v2.8H19v5.5c0,0.9,0.3,1.3,1.1,1.3
				c0.9,0,1.6-0.4,2-1v2.9c-0.5,0.5-1.4,1-3.1,1C16.1,81.7,15,80.3,15,77.9z"/>
			<path id="XMLID_955_" class="st0" d="M24.2,76.8v-7.5h4v6.9c0,2,0.4,2.7,2,2.7c1.2,0,1.8-0.5,2.1-1v-8.6h4v12.1h-3.5l-0.3-1
				c-0.6,0.8-1.8,1.4-3.5,1.4C25.5,81.7,24.2,80.1,24.2,76.8z"/>
			<path id="XMLID_952_" class="st0" d="M38.5,75.5c0-4.4,2.4-6.5,6-6.5c1.1,0,2.3,0.2,2.9,0.8v-4.8h4v16.5h-3.5l-0.3-1
				C47.1,81,46,81.7,44,81.7C40.8,81.7,38.5,79.9,38.5,75.5z M47.4,72.5c-0.5-0.5-1.3-0.8-2.2-0.8c-1.9,0-2.6,1.7-2.6,3.8
				s0.6,3.4,2.5,3.4c1.1,0,1.9-0.4,2.3-0.9V72.5z"/>
			<path id="XMLID_950_" class="st0" d="M53.5,85.2v-2.9c0.6,0.5,1.4,0.8,2.3,0.8c0.9,0,1.8-0.3,2.4-1.6l-5.4-12.4h4.4l2.8,7.9
				l2.3-7.9h3.9l-3.8,11.4c-1,2.9-2.7,5.2-6.2,5.2C55,85.9,54,85.6,53.5,85.2z"/>
			<path id="XMLID_947_" class="st0" d="M73.9,66.5h5.4c5.7,0,9,1.9,9,7.4s-4,7.5-9,7.5h-5.4V66.5z M79.3,78.3
				c3.7,0,4.8-1.3,4.8-4.4s-1.2-4.5-4.8-4.5H78v8.9H79.3z"/>
			<path id="XMLID_944_" class="st0" d="M89.9,75.3c0-4.4,3.2-6.4,6.6-6.4c3.2,0,6.3,1.2,6.3,5.8v1.6H94c0.1,1.4,1.1,2.5,3.7,2.5
				c2.3,0,3.7-0.7,4.4-1.4v3c-0.7,0.6-2.3,1.3-5,1.3C92.6,81.7,89.9,79.7,89.9,75.3z M99,74.1V74c0-1.5-0.7-2.3-2.4-2.3
				c-1.6,0-2.4,1.2-2.5,2.4H99z"/>
			<path id="XMLID_942_" class="st0" d="M104.6,80.7v-3.2c0.9,0.7,2.2,1.4,4,1.4c1.8,0,2.3-0.5,2.3-1.1c0-0.7-0.3-0.9-1.8-1.1
				l-0.7-0.1c-2.8-0.3-4.1-1.6-4.1-3.7c0-2.1,1.6-4,5.6-4c2.1,0,3.5,0.4,4.2,1V73c-0.9-0.8-2.3-1.3-4.1-1.3c-1.6,0-2.1,0.4-2.1,1
				s0.3,0.9,1.7,1.1l0.7,0.1c3,0.4,4.3,1.4,4.3,3.6c0,2.1-1.6,4.2-5.9,4.2C106.7,81.7,105.3,81.3,104.6,80.7z"/>
			<path id="XMLID_939_" class="st0" d="M116.7,66.4c0-1.1,0.8-1.7,2.1-1.7c1.3,0,2.1,0.6,2.1,1.7s-0.8,1.7-2.1,1.7
				C117.5,68.1,116.7,67.4,116.7,66.4z M116.8,69.3h4v12.1h-4V69.3z"/>
			<path id="XMLID_936_" class="st0" d="M123,84.8v-2.7c1.3,0.7,2.9,1.1,5.7,1.1c3.2,0,4.5-0.3,4.5-1.2c0-0.7-0.8-0.9-2.8-0.9
				c-2,0-5.1,0.4-6,0.8v-2.4l1.9-2.5c-2-0.6-3.2-1.9-3.2-3.8c0-2.7,2.4-4.2,6-4.2c1.6,0,2.9,0.3,3.8,0.9c0.4-0.6,1.5-1,2.6-1
				c0.4,0,0.8,0,1.2,0.2v2.7c-0.2-0.1-0.6-0.2-0.9-0.2c-0.5,0-0.9,0.1-1.2,0.3c0.1,0.4,0.2,0.9,0.2,1.4c0,2.6-2.3,4.2-6,4.2h-0.2
				l-1,1.5c0.6-0.2,2.2-0.3,3.5-0.3c3.4,0,5.6,0.7,5.6,3.3c0,2.6-2.6,4.2-7.7,4.2C126.2,85.9,124.1,85.5,123,84.8z M131.2,73.1
				c0-1.1-0.8-1.7-2.1-1.7c-1.4,0-2.2,0.6-2.2,1.7c0,1.1,0.8,1.6,2.2,1.6C130.4,74.8,131.2,74.2,131.2,73.1z"/>
			<path id="XMLID_934_" class="st0" d="M138.3,69.3h3.5l0.3,1c0.6-0.8,1.8-1.4,3.6-1.4c3.5,0,4.9,1.6,4.9,4.9v7.5h-4v-6.9
				c0-2-0.6-2.7-2.1-2.7c-1.2,0-1.9,0.5-2.2,1v8.6h-4V69.3z"/>
			<path id="XMLID_931_" class="st0" d="M153.2,71.7c0-1.2,1-2.1,2.3-2.1c1.3,0,2.3,0.9,2.3,2.1c0,1.2-1,2.1-2.3,2.1
				C154.2,73.8,153.2,72.9,153.2,71.7z M153.2,79.6c0-1.2,1-2.1,2.3-2.1c1.3,0,2.3,0.9,2.3,2.1c0,1.2-1,2.1-2.3,2.1
				C154.2,81.7,153.2,80.8,153.2,79.6z"/>
			<path id="XMLID_928_" class="st1" d="M168.2,70.2l-0.5-1.3h2.8l5.5,12.5h-2.8l-1.1-2.6h-5.2l-1.1,2.6h-2.6L168.2,70.2z M167.6,77
				h3.7l-1.5-3.4l-0.4-1.1l-0.4,1.1L167.6,77z"/>
			<path id="XMLID_925_" class="st1" d="M182.4,71.3h2.5l0.2,0.9c0.3-0.5,1.2-1.2,2.9-1.2c2.8,0,4.6,1.4,4.6,5.1s-2.3,5.6-5.1,5.6
				c-0.8,0-1.9-0.1-2.4-0.7v3.9h-2.7V71.3z M189.9,76.2c0-2-0.7-3.3-2.5-3.3c-1.2,0-1.9,0.4-2.3,0.9V79c0.5,0.5,1.3,0.8,2.2,0.8
				C189.1,79.8,189.9,78.2,189.9,76.2z"/>
			<path id="XMLID_922_" class="st1" d="M194.7,68.9c0-0.8,0.5-1.2,1.4-1.2c1,0,1.5,0.4,1.5,1.2c0,0.8-0.5,1.2-1.5,1.2
				C195.1,70.1,194.7,69.7,194.7,68.9z M194.8,71.3h2.7v10.1h-2.7V71.3z"/>
			<path id="XMLID_920_" class="st1" d="M198.9,71.3h2.8l2.2,5.5l0.4,1.1c0.1-0.4,0.3-0.8,0.4-1.1l2.2-5.5h2.6l-4.5,10.1h-1.7
				L198.9,71.3z"/>
			<path id="XMLID_917_" class="st1" d="M210.2,76.3c0-3.6,2.6-5.4,5.6-5.4c3.1,0,5.3,1.7,5.3,5.4c0,3.7-2.6,5.4-5.5,5.4
				C212.4,81.7,210.2,80,210.2,76.3z M218.4,76.3c0-2-0.9-3.4-2.7-3.4c-1.8,0-2.7,1.4-2.7,3.4c0,2,0.9,3.4,2.7,3.4
				C217.5,79.7,218.4,78.3,218.4,76.3z"/>
			<path id="XMLID_915_" class="st1" d="M223.7,78.7v-5.5h-1.4v-0.6l1.1-1.2l2.1-2.4h0.9v2.4h2.8v1.9h-2.8v5.4c0,0.8,0.3,1.2,1,1.2
				c0.8,0,1.4-0.4,1.8-1v2.1c-0.3,0.4-1.1,0.8-2.4,0.8C224.7,81.7,223.7,80.6,223.7,78.7z"/>
			<path id="XMLID_912_" class="st1" d="M230.7,78.8c0-2.1,1.8-2.9,4.9-3.3l1.7-0.2c0-1.8-0.9-2.3-2.6-2.3c-1.7,0-3,0.8-3.6,1.9
				v-2.4c0.4-0.6,1.6-1.4,4-1.4c3.1,0,4.8,1.4,4.8,4.3v6.1h-2.4l-0.2-0.9c-0.3,0.6-1.2,1.2-2.8,1.2
				C232.4,81.7,230.7,80.8,230.7,78.8z M237.3,76.8l-1.5,0.3c-1.9,0.4-2.5,0.8-2.5,1.6c0,0.8,0.6,1.2,1.6,1.2c1.1,0,2-0.4,2.3-0.9
				V76.8z"/>
			<path id="XMLID_910_" class="st1" d="M242.5,79.1V67.6h2.7v11.3c0,0.7,0.2,0.9,0.8,0.9c0.5,0,0.9-0.2,1.1-0.5v1.9
				c-0.2,0.2-0.8,0.6-1.8,0.6C243.4,81.7,242.5,80.7,242.5,79.1z"/>
			<path id="XMLID_908_" class="st1" d="M253.9,68.9h4c4.1,0,5.8,1.5,5.8,4c0,2.6-1.7,4.6-5.8,4.6h-0.7v-1.9h0.7c2.1,0,3-1,3-2.5
				c0-1.5-0.9-2.4-3.1-2.4h-1.3v10.5h-2.7V68.9z"/>
			<path id="XMLID_906_" class="st1" d="M265.6,67.6h2.7v4.5c0.5-0.6,1.5-1.2,2.9-1.2c3,0,4.1,1.4,4.1,4.1v6.3h-2.7v-5.8
				c0-1.9-0.5-2.7-2.1-2.7c-1.2,0-2,0.5-2.3,1v7.6h-2.7V67.6z"/>
			<path id="XMLID_903_" class="st1" d="M277.3,78.8c0-2.1,1.8-2.9,4.9-3.3l1.7-0.2c0-1.8-0.9-2.3-2.6-2.3c-1.7,0-3,0.8-3.6,1.9
				v-2.4c0.4-0.6,1.6-1.4,4-1.4c3.1,0,4.8,1.4,4.8,4.3v6.1h-2.4l-0.2-0.9c-0.3,0.6-1.2,1.2-2.8,1.2C279,81.7,277.3,80.8,277.3,78.8z
				 M283.9,76.8l-1.5,0.3c-1.9,0.4-2.5,0.8-2.5,1.6c0,0.8,0.6,1.2,1.6,1.2c1.1,0,2-0.4,2.3-0.9V76.8z"/>
			<path id="XMLID_901_" class="st1" d="M288.8,80.8v-2.3c0.7,0.7,1.7,1.2,3.2,1.2s2.1-0.5,2.1-1.2c0-0.7-0.3-0.9-1.7-1.2l-0.6-0.1
				c-2.1-0.3-3.2-1.3-3.2-3.1c0-1.7,1.4-3.2,4.4-3.2c1.5,0,2.7,0.4,3.3,0.9v2.3c-0.7-0.8-1.7-1.3-3.2-1.3c-1.5,0-2,0.5-2,1.1
				c0,0.6,0.3,1,1.7,1.2l0.6,0.1c2.2,0.4,3.4,1.1,3.4,3c0,1.7-1.5,3.4-4.6,3.4C290.6,81.7,289.4,81.2,288.8,80.8z"/>
			<path id="XMLID_898_" class="st1" d="M298.3,76.3c0-3.6,2.7-5.4,5.3-5.4c2.5,0,5,1,5,4.8v1.3H301c0.1,1.4,1.1,2.6,3.2,2.6
				c2,0,3.2-0.8,3.8-1.4v2.2c-0.6,0.6-1.8,1.3-4,1.3C300.6,81.7,298.3,80,298.3,76.3z M305.9,75.4L305.9,75.4c0-1.6-0.8-2.5-2.4-2.5
				c-1.5,0-2.4,1.2-2.5,2.5H305.9z"/>
			<path id="XMLID_896_" class="st1" d="M315.8,68.9h2.7v12.5h-2.7V68.9z"/>
			<path id="XMLID_894_" class="st1" d="M321.6,68.9h2.7v12.5h-2.7V68.9z"/>
			<path id="XMLID_892_" class="st1" d="M327.4,68.9h2.7v12.5h-2.7V68.9z"/>
			<path id="XMLID_890_" class="st1" d="M338.4,78.7v-5.5h-1.4v-0.6l1.1-1.2l2.1-2.4h0.9v2.4h2.8v1.9h-2.8v5.4c0,0.8,0.3,1.2,1,1.2
				c0.8,0,1.4-0.4,1.8-1v2.1c-0.3,0.4-1.1,0.8-2.4,0.8C339.4,81.7,338.4,80.6,338.4,78.7z"/>
			<path id="XMLID_888_" class="st1" d="M346,71.3h2.3l0.2,1.4c0.1-1.1,1.1-1.7,2.2-1.7c0.6,0,1,0.2,1.2,0.3v2.1
				c-0.3-0.2-0.7-0.3-1.3-0.3c-0.9,0-1.5,0.4-1.9,1v7.3H346V71.3z"/>
			<path id="XMLID_885_" class="st1" d="M353.5,68.9c0-0.8,0.5-1.2,1.4-1.2c1,0,1.5,0.4,1.5,1.2c0,0.8-0.5,1.2-1.5,1.2
				C353.9,70.1,353.5,69.7,353.5,68.9z M353.6,71.3h2.7v10.1h-2.7V71.3z"/>
			<path id="XMLID_882_" class="st1" d="M358.4,78.8c0-2.1,1.8-2.9,4.9-3.3l1.7-0.2c0-1.8-0.9-2.3-2.6-2.3c-1.7,0-3,0.8-3.6,1.9
				v-2.4c0.4-0.6,1.6-1.4,4-1.4c3.1,0,4.8,1.4,4.8,4.3v6.1h-2.4l-0.2-0.9c-0.3,0.6-1.2,1.2-2.8,1.2
				C360.1,81.7,358.4,80.8,358.4,78.8z M365,76.8l-1.5,0.3c-1.9,0.4-2.5,0.8-2.5,1.6c0,0.8,0.6,1.2,1.6,1.2c1.1,0,2-0.4,2.3-0.9
				V76.8z"/>
			<path id="XMLID_880_" class="st1" d="M370.2,79.1V67.6h2.7v11.3c0,0.7,0.2,0.9,0.8,0.9c0.5,0,0.9-0.2,1.1-0.5v1.9
				c-0.2,0.2-0.8,0.6-1.8,0.6C371.1,81.7,370.2,80.7,370.2,79.1z"/>
			<path id="XMLID_877_" class="st1" d="M381.4,68.9c0-0.8,0.5-1.2,1.4-1.2c1,0,1.5,0.4,1.5,1.2c0,0.8-0.5,1.2-1.5,1.2
				C381.8,70.1,381.4,69.7,381.4,68.9z M381.5,71.3h2.7v10.1h-2.7V71.3z"/>
			<path id="XMLID_875_" class="st1" d="M386.9,71.3h2.5l0.2,0.9c0.4-0.6,1.5-1.2,2.9-1.2c3,0,4.1,1.4,4.1,4.1v6.3h-2.7v-5.8
				c0-1.9-0.5-2.7-2.1-2.7c-1.3,0-2,0.6-2.3,1v7.5h-2.7V71.3z"/>
			<path id="XMLID_873_" class="st1" d="M398.7,76.3c0-3.6,2.6-5.4,5.5-5.4c1.5,0,2.7,0.5,3.2,0.9v2.3c-0.7-0.9-1.6-1.2-3-1.2
				c-1.9,0-3,1.2-3,3.3c0,2.1,1.1,3.3,3,3.3c1.4,0,2.4-0.5,3.1-1.3v2.2c-0.5,0.5-1.8,1.2-3.4,1.2C400.9,81.7,398.7,80,398.7,76.3z"
				/>
			<path id="XMLID_871_" class="st1" d="M409.6,79.1V67.6h2.7v11.3c0,0.7,0.2,0.9,0.8,0.9c0.5,0,0.9-0.2,1.1-0.5v1.9
				c-0.2,0.2-0.8,0.6-1.8,0.6C410.5,81.7,409.6,80.7,409.6,79.1z"/>
			<path id="XMLID_869_" class="st1" d="M415.8,77.6v-6.3h2.7v5.8c0,1.9,0.4,2.7,2,2.7c1.3,0,1.9-0.6,2.2-1v-7.6h2.7v10.1h-2.5
				l-0.2-0.9c-0.4,0.6-1.4,1.2-2.9,1.2C416.9,81.7,415.8,80.3,415.8,77.6z"/>
			<path id="XMLID_866_" class="st1" d="M427.5,76.5c0-3.7,2.1-5.5,5-5.5c0.8,0,1.9,0.1,2.4,0.7v-4.1h2.7v13.8h-2.5l-0.2-0.9
				c-0.3,0.5-1.2,1.2-2.9,1.2C429.6,81.7,427.5,80.1,427.5,76.5z M435,73.6c-0.5-0.5-1.3-0.8-2.2-0.8c-1.8,0-2.6,1.6-2.6,3.6
				c0,2,0.7,3.3,2.5,3.3c1.2,0,1.9-0.4,2.3-0.9V73.6z"/>
			<path id="XMLID_863_" class="st1" d="M439.8,76.3c0-3.6,2.7-5.4,5.3-5.4c2.5,0,5,1,5,4.8v1.3h-7.6c0.1,1.4,1.1,2.6,3.2,2.6
				c2,0,3.2-0.8,3.8-1.4v2.2c-0.6,0.6-1.8,1.3-4,1.3C442.1,81.7,439.8,80,439.8,76.3z M447.5,75.4L447.5,75.4c0-1.6-0.8-2.5-2.4-2.5
				c-1.5,0-2.4,1.2-2.5,2.5H447.5z"/>
			<path id="XMLID_860_" class="st1" d="M451.6,76.5c0-3.7,2.1-5.5,5-5.5c0.8,0,1.9,0.1,2.4,0.7v-4.1h2.7v13.8h-2.5l-0.2-0.9
				c-0.3,0.5-1.2,1.2-2.9,1.2C453.7,81.7,451.6,80.1,451.6,76.5z M459.1,73.6c-0.5-0.5-1.3-0.8-2.2-0.8c-1.8,0-2.6,1.6-2.6,3.6
				c0,2,0.7,3.3,2.5,3.3c1.2,0,1.9-0.4,2.3-0.9V73.6z"/>
			<path id="XMLID_858_" class="st1" d="M475.2,78.9h-6.8v-0.2l4-9.7h2.5l-3,7.8h3.4v-4.5h2.5v4.5h1.5v2.2h-1.5v2.5h-2.5V78.9z"/>
			<path id="XMLID_856_" class="st1" d="M486.8,78.9h-6.8v-0.2l4-9.7h2.5l-3,7.8h3.4v-4.5h2.5v4.5h1.5v2.2h-1.5v2.5h-2.5V78.9z"/>
			<path id="XMLID_852_" class="st1" d="M492.2,78c0-1.5,1-2.5,2.3-3c-1.1-0.5-2-1.4-2-2.9c0-2.2,1.9-3.5,4.8-3.5
				c2.9,0,4.5,1.3,4.5,3.5c0,1.5-0.9,2.3-2,2.8c1.3,0.4,2.3,1.5,2.3,3.1c0,2.1-1.9,3.6-5.1,3.6S492.2,80.1,492.2,78z M499.5,77.8
				c0-1.1-0.7-1.8-2.4-1.8c-1.6,0-2.3,0.7-2.3,1.8c0,1.1,0.7,1.8,2.3,1.8C498.8,79.6,499.5,78.9,499.5,77.8z M499.2,72.4
				c0-1.1-0.8-1.7-2.1-1.7c-1.3,0-2,0.7-2,1.7s0.7,1.7,2,1.7C498.5,74.1,499.2,73.4,499.2,72.4z"/>
			<path id="XMLID_850_" class="st1" d="M509,80.8v-2.3c0.7,0.7,1.7,1.2,3.2,1.2c1.6,0,2.1-0.5,2.1-1.2c0-0.7-0.3-0.9-1.7-1.2
				l-0.6-0.1c-2.1-0.3-3.2-1.3-3.2-3.1c0-1.7,1.4-3.2,4.4-3.2c1.5,0,2.7,0.4,3.3,0.9v2.3c-0.7-0.8-1.7-1.3-3.2-1.3
				c-1.5,0-2,0.5-2,1.1c0,0.6,0.3,1,1.7,1.2l0.6,0.1c2.2,0.4,3.4,1.1,3.4,3c0,1.7-1.5,3.4-4.6,3.4C510.7,81.7,509.5,81.2,509,80.8z"
				/>
			<path id="XMLID_848_" class="st1" d="M518.9,77.6v-6.3h2.7v5.8c0,1.9,0.4,2.7,2,2.7c1.3,0,1.9-0.6,2.2-1v-7.6h2.7v10.1h-2.5
				l-0.2-0.9c-0.4,0.6-1.4,1.2-2.9,1.2C520,81.7,518.9,80.3,518.9,77.6z"/>
			<path id="XMLID_845_" class="st1" d="M533.6,80.7l-0.4,0.7h-2V67.6h2.7v4.6c0.3-0.5,1.3-1.2,2.9-1.2c2.8,0,4.6,1.4,4.6,5.1
				s-2.3,5.6-5.1,5.6C534.9,81.7,534.1,81.2,533.6,80.7z M533.9,79c0.5,0.6,1.3,0.8,2.2,0.8c1.8,0,2.6-1.6,2.6-3.6
				c0-2-0.7-3.3-2.5-3.3c-1.1,0-1.9,0.4-2.3,0.9V79z"/>
			<path id="XMLID_842_" class="st1" d="M540.6,84.6v-2c0.4,0.5,1,0.7,1.5,0.7c0.9,0,1.5-0.4,1.5-1.3V71.3h2.7v10.5
				c0,2.1-1.5,3.4-3.8,3.4C541.6,85.1,540.9,84.9,540.6,84.6z M543.4,68.9c0-0.8,0.5-1.2,1.4-1.2s1.5,0.4,1.5,1.2
				c0,0.8-0.5,1.2-1.5,1.2S543.4,69.7,543.4,68.9z"/>
			<path id="XMLID_839_" class="st1" d="M548.4,76.3c0-3.6,2.7-5.4,5.3-5.4c2.5,0,5,1,5,4.8v1.3h-7.6c0.1,1.4,1.1,2.6,3.2,2.6
				c2,0,3.2-0.8,3.8-1.4v2.2c-0.6,0.6-1.8,1.3-4,1.3C550.7,81.7,548.4,80,548.4,76.3z M556.1,75.4L556.1,75.4c0-1.6-0.8-2.5-2.4-2.5
				c-1.5,0-2.4,1.2-2.5,2.5H556.1z"/>
			<path id="XMLID_837_" class="st1" d="M560.2,76.3c0-3.6,2.6-5.4,5.5-5.4c1.5,0,2.7,0.5,3.2,0.9v2.3c-0.7-0.9-1.6-1.2-3-1.2
				c-1.9,0-3,1.2-3,3.3c0,2.1,1.1,3.3,3,3.3c1.4,0,2.4-0.5,3.1-1.3v2.2c-0.5,0.5-1.8,1.2-3.4,1.2C562.4,81.7,560.2,80,560.2,76.3z"
				/>
			<path id="XMLID_835_" class="st1" d="M571.7,78.7v-5.5h-1.4v-0.6l1.1-1.2l2.1-2.4h0.9v2.4h2.8v1.9h-2.8v5.4c0,0.8,0.3,1.2,1,1.2
				c0.8,0,1.4-0.4,1.8-1v2.1c-0.3,0.4-1.1,0.8-2.4,0.8C572.6,81.7,571.7,80.6,571.7,78.7z"/>
			<path id="XMLID_833_" class="st1" d="M578.8,80.8v-2.3c0.7,0.7,1.7,1.2,3.2,1.2c1.6,0,2.1-0.5,2.1-1.2c0-0.7-0.3-0.9-1.7-1.2
				l-0.6-0.1c-2.1-0.3-3.2-1.3-3.2-3.1c0-1.7,1.4-3.2,4.4-3.2c1.5,0,2.7,0.4,3.3,0.9v2.3c-0.7-0.8-1.7-1.3-3.2-1.3
				c-1.5,0-2,0.5-2,1.1c0,0.6,0.3,1,1.7,1.2l0.6,0.1c2.2,0.4,3.4,1.1,3.4,3c0,1.7-1.5,3.4-4.6,3.4C580.6,81.7,579.4,81.2,578.8,80.8
				z"/>
			<path id="XMLID_830_" class="st1" d="M593.2,78.8c0-2.1,1.8-2.9,4.9-3.3l1.7-0.2c0-1.8-0.9-2.3-2.6-2.3c-1.7,0-3,0.8-3.6,1.9
				v-2.4c0.4-0.6,1.6-1.4,4-1.4c3.1,0,4.8,1.4,4.8,4.3v6.1H600l-0.2-0.9c-0.3,0.6-1.2,1.2-2.8,1.2C595,81.7,593.2,80.8,593.2,78.8z
				 M599.8,76.8l-1.5,0.3c-1.8,0.4-2.5,0.8-2.5,1.6c0,0.8,0.6,1.2,1.6,1.2c1.1,0,2-0.4,2.3-0.9V76.8z"/>
			<path id="XMLID_828_" class="st1" d="M605.6,78.7v-5.5h-1.4v-0.6l1.1-1.2l2.1-2.4h0.9v2.4h2.8v1.9h-2.8v5.4c0,0.8,0.3,1.2,1,1.2
				c0.8,0,1.4-0.4,1.8-1v2.1c-0.3,0.4-1.1,0.8-2.4,0.8C606.6,81.7,605.6,80.6,605.6,78.7z"/>
			<path id="XMLID_826_" class="st1" d="M623.8,78.9h-6.8v-0.2l4-9.7h2.5l-3,7.8h3.4v-4.5h2.5v4.5h1.5v2.2h-1.5v2.5h-2.5V78.9z"/>
			<path id="XMLID_824_" class="st1" d="M629.3,81.1v-2.3c0.6,0.5,1.4,0.9,2.7,0.9c2.4,0,3.2-0.8,3.2-2.1c0-1.2-0.7-1.9-2.9-1.9
				h-0.9v-0.2l2.8-4.5h-5v-2.1h8.6v0.2l-3.1,4.9c1.9,0.3,3.3,1.2,3.3,3.5c0,2-1.7,4.1-5.8,4.1C630.7,81.7,629.8,81.4,629.3,81.1z"/>
			<path id="XMLID_822_" class="st1" d="M644.9,80.8v-2.3c0.7,0.7,1.7,1.2,3.2,1.2c1.6,0,2.1-0.5,2.1-1.2c0-0.7-0.3-0.9-1.7-1.2
				l-0.6-0.1c-2.1-0.3-3.2-1.3-3.2-3.1c0-1.7,1.4-3.2,4.4-3.2c1.5,0,2.7,0.4,3.3,0.9v2.3c-0.7-0.8-1.7-1.3-3.2-1.3
				c-1.5,0-2,0.5-2,1.1c0,0.6,0.3,1,1.7,1.2l0.6,0.1c2.2,0.4,3.4,1.1,3.4,3c0,1.7-1.5,3.4-4.6,3.4C646.6,81.7,645.4,81.2,644.9,80.8
				z"/>
			<path id="XMLID_819_" class="st1" d="M654.8,68.9c0-0.8,0.5-1.2,1.4-1.2s1.5,0.4,1.5,1.2c0,0.8-0.5,1.2-1.5,1.2
				S654.8,69.7,654.8,68.9z M654.9,71.3h2.7v10.1h-2.7V71.3z"/>
			<path id="XMLID_817_" class="st1" d="M660.8,78.7v-5.5h-1.4v-0.6l1.1-1.2l2.1-2.4h0.9v2.4h2.8v1.9h-2.8v5.4c0,0.8,0.3,1.2,1,1.2
				c0.8,0,1.4-0.4,1.8-1v2.1c-0.3,0.4-1.1,0.8-2.4,0.8C661.8,81.7,660.8,80.6,660.8,78.7z"/>
			<path id="XMLID_814_" class="st1" d="M667.8,76.3c0-3.6,2.7-5.4,5.3-5.4c2.5,0,5,1,5,4.8v1.3h-7.6c0.1,1.4,1.1,2.6,3.2,2.6
				c2,0,3.2-0.8,3.8-1.4v2.2c-0.6,0.6-1.8,1.3-4,1.3C670.1,81.7,667.8,80,667.8,76.3z M675.4,75.4L675.4,75.4c0-1.6-0.8-2.5-2.4-2.5
				c-1.5,0-2.4,1.2-2.5,2.5H675.4z"/>
			<path id="XMLID_812_" class="st1" d="M679.8,80.8v-2.3c0.7,0.7,1.7,1.2,3.2,1.2c1.6,0,2.1-0.5,2.1-1.2c0-0.7-0.3-0.9-1.7-1.2
				l-0.6-0.1c-2.1-0.3-3.2-1.3-3.2-3.1c0-1.7,1.4-3.2,4.4-3.2c1.5,0,2.7,0.4,3.3,0.9v2.3c-0.7-0.8-1.7-1.3-3.2-1.3
				c-1.5,0-2,0.5-2,1.1c0,0.6,0.3,1,1.7,1.2l0.6,0.1c2.2,0.4,3.4,1.1,3.4,3c0,1.7-1.5,3.4-4.6,3.4C681.5,81.7,680.4,81.2,679.8,80.8
				z"/>
			<path id="XMLID_810_" class="st1" d="M689.3,84.1c0.4-0.6,0.9-1.7,1-2.6c-0.6-0.2-0.9-0.8-0.9-1.3c0-0.9,0.7-1.5,1.7-1.5
				c1,0,1.6,0.6,1.6,1.6c0,1.6-1.4,3.4-2.1,4L689.3,84.1z"/>
			<path id="XMLID_808_" class="st1" d="M1.2,93.2h2.3l0.2,1.4C3.8,93.6,4.8,93,5.9,93c0.6,0,1,0.2,1.2,0.3v2.1
				c-0.3-0.2-0.7-0.3-1.3-0.3c-0.9,0-1.5,0.4-1.9,1v7.3H1.2V93.2z"/>
			<path id="XMLID_805_" class="st1" d="M8.2,100.8c0-2.1,1.8-2.9,4.9-3.3l1.7-0.2c0-1.8-0.9-2.3-2.6-2.3c-1.7,0-3,0.8-3.6,1.9v-2.4
				c0.4-0.6,1.6-1.4,4-1.4c3.1,0,4.8,1.4,4.8,4.3v6.1H15l-0.2-0.9c-0.3,0.6-1.2,1.2-2.8,1.2C9.9,103.7,8.2,102.8,8.2,100.8z
				 M14.7,98.8l-1.5,0.3c-1.9,0.4-2.5,0.8-2.5,1.6c0,0.8,0.6,1.2,1.6,1.2c1.1,0,2-0.4,2.3-0.9V98.8z"/>
			<path id="XMLID_803_" class="st1" d="M20.1,93.2h2.5l0.2,0.9c0.4-0.6,1.5-1.2,2.9-1.2c3,0,4.1,1.4,4.1,4.1v6.3h-2.7v-5.8
				c0-1.9-0.5-2.7-2.1-2.7c-1.3,0-2,0.6-2.3,1v7.5h-2.7V93.2z"/>
			<path id="XMLID_800_" class="st1" d="M31.8,98.5c0-3.7,2.1-5.5,5-5.5c0.8,0,1.9,0.1,2.4,0.7v-4.1H42v13.8h-2.5l-0.2-0.9
				c-0.3,0.5-1.2,1.2-2.9,1.2C33.9,103.7,31.8,102.1,31.8,98.5z M39.3,95.6c-0.5-0.5-1.3-0.8-2.2-0.8c-1.9,0-2.6,1.6-2.6,3.6
				c0,2,0.7,3.3,2.5,3.3c1.2,0,1.9-0.4,2.3-0.9V95.6z"/>
			<path id="XMLID_797_" class="st1" d="M44.2,98.3c0-3.6,2.6-5.4,5.6-5.4c3.1,0,5.3,1.7,5.3,5.4c0,3.7-2.6,5.4-5.5,5.4
				C46.4,103.7,44.2,102,44.2,98.3z M52.3,98.3c0-2-0.9-3.4-2.7-3.4c-1.8,0-2.7,1.4-2.7,3.4c0,2,0.9,3.4,2.7,3.4
				C51.5,101.7,52.3,100.3,52.3,98.3z"/>
			<path id="XMLID_795_" class="st1" d="M57.2,93.2h2.5l0.1,0.9c0.4-0.6,1.4-1.2,2.7-1.2c1.6,0,2.7,0.5,3.3,1.5
				c0.5-0.7,1.5-1.5,3.3-1.5c2.8,0,3.9,1.4,3.9,4.1v6.3h-2.7v-5.8c0-1.9-0.5-2.7-1.9-2.7c-1,0-1.9,0.5-2.2,1
				c0.1,0.4,0.1,0.8,0.1,1.2v6.3h-2.7v-5.8c0-1.9-0.5-2.7-1.9-2.7c-1,0-1.8,0.5-2.1,1v7.5h-2.7V93.2z"/>
			<path id="XMLID_793_" class="st1" d="M75.7,101.1V89.6h2.7v11.3c0,0.7,0.2,0.9,0.8,0.9c0.5,0,0.9-0.2,1.1-0.5v1.9
				c-0.2,0.2-0.8,0.6-1.8,0.6C76.6,103.7,75.7,102.7,75.7,101.1z"/>
			<path id="XMLID_791_" class="st1" d="M80.8,106.6v-2c0.5,0.5,1.1,0.8,1.9,0.8c0.8,0,1.6-0.3,2.2-1.7l-4.5-10.4h2.9l2.8,7.3
				l2.2-7.3H91l-3.2,9.5c-0.8,2.5-2.1,4.5-5,4.5C81.9,107.2,81.2,106.9,80.8,106.6z"/>
			<path id="XMLID_788_" class="st1" d="M96.9,100.8c0-2.1,1.8-2.9,4.9-3.3l1.7-0.2c0-1.8-0.9-2.3-2.6-2.3c-1.7,0-3,0.8-3.6,1.9
				v-2.4c0.4-0.6,1.6-1.4,4-1.4c3.1,0,4.8,1.4,4.8,4.3v6.1h-2.4l-0.2-0.9c-0.3,0.6-1.2,1.2-2.8,1.2
				C98.6,103.7,96.9,102.8,96.9,100.8z M103.5,98.8l-1.5,0.3c-1.9,0.4-2.5,0.8-2.5,1.6c0,0.8,0.6,1.2,1.6,1.2c1.1,0,2-0.4,2.3-0.9
				V98.8z"/>
			<path id="XMLID_786_" class="st1" d="M108.4,102.8v-2.3c0.7,0.7,1.7,1.2,3.2,1.2s2.1-0.5,2.1-1.2c0-0.7-0.3-0.9-1.7-1.2l-0.6-0.1
				c-2.1-0.3-3.2-1.3-3.2-3.1c0-1.7,1.4-3.2,4.4-3.2c1.5,0,2.7,0.4,3.3,0.9v2.3c-0.7-0.8-1.7-1.3-3.2-1.3c-1.5,0-2,0.5-2,1.1
				c0,0.6,0.3,1,1.7,1.2l0.6,0.1c2.2,0.4,3.4,1.1,3.4,3c0,1.7-1.5,3.4-4.6,3.4C110.1,103.7,109,103.2,108.4,102.8z"/>
			<path id="XMLID_784_" class="st1" d="M118.1,102.8v-2.3c0.7,0.7,1.7,1.2,3.2,1.2s2.1-0.5,2.1-1.2c0-0.7-0.3-0.9-1.7-1.2l-0.6-0.1
				c-2.1-0.3-3.2-1.3-3.2-3.1c0-1.7,1.4-3.2,4.4-3.2c1.5,0,2.7,0.4,3.3,0.9v2.3c-0.7-0.8-1.7-1.3-3.2-1.3c-1.5,0-2,0.5-2,1.1
				c0,0.6,0.3,1,1.7,1.2l0.6,0.1c2.2,0.4,3.4,1.1,3.4,3c0,1.7-1.5,3.4-4.6,3.4C119.8,103.7,118.7,103.2,118.1,102.8z"/>
			<path id="XMLID_781_" class="st1" d="M128,90.9c0-0.8,0.5-1.2,1.4-1.2c1,0,1.5,0.4,1.5,1.2c0,0.8-0.5,1.2-1.5,1.2
				C128.5,92.1,128,91.7,128,90.9z M128.2,93.2h2.7v10.1h-2.7V93.2z"/>
			<path id="XMLID_778_" class="st1" d="M133,106.2v-2c1,0.7,2.5,1.1,4.7,1.1c2.6,0,3.8-0.4,3.8-1.3c0-0.8-0.8-1-2.5-1
				c-1.6,0-4,0.3-4.8,0.6V102l1.6-2.3c-1.6-0.5-2.5-1.6-2.5-3.2c0-2.2,2-3.5,4.8-3.5c1.3,0,2.3,0.3,3.1,0.8c0.4-0.5,1.3-0.8,2.2-0.8
				c0.3,0,0.6,0,0.9,0.1v1.9c-0.2-0.1-0.5-0.1-0.7-0.1c-0.5,0-0.9,0.1-1.1,0.3c0.2,0.4,0.3,0.9,0.3,1.4c0,2.2-2,3.5-4.7,3.5h-0.3
				l-1,1.5c0.5-0.1,1.8-0.3,3-0.3c2.8,0,4.5,0.6,4.5,2.6s-2.1,3.4-6.1,3.4C135.6,107.2,133.9,106.8,133,106.2z M139.9,96.5
				c0-1.1-0.8-1.7-2.1-1.7c-1.3,0-2.1,0.6-2.1,1.7s0.8,1.7,2.1,1.7C139.1,98.2,139.9,97.6,139.9,96.5z"/>
			<path id="XMLID_776_" class="st1" d="M145.5,93.2h2.5l0.2,0.9c0.4-0.6,1.5-1.2,2.9-1.2c3,0,4.1,1.4,4.1,4.1v6.3h-2.7v-5.8
				c0-1.9-0.5-2.7-2.1-2.7c-1.3,0-2,0.6-2.3,1v7.5h-2.7V93.2z"/>
			<path id="XMLID_773_" class="st1" d="M157.2,98.3c0-3.6,2.7-5.4,5.3-5.4c2.5,0,5,1,5,4.8v1.3H160c0.1,1.4,1.1,2.6,3.2,2.6
				c2,0,3.2-0.8,3.8-1.4v2.2c-0.6,0.6-1.8,1.3-4,1.3C159.5,103.7,157.2,102,157.2,98.3z M164.9,97.4L164.9,97.4
				c0-1.6-0.8-2.5-2.4-2.5c-1.5,0-2.4,1.2-2.5,2.5H164.9z"/>
			<path id="XMLID_770_" class="st1" d="M169.1,98.5c0-3.7,2.1-5.5,5-5.5c0.8,0,1.9,0.1,2.4,0.7v-4.1h2.7v13.8h-2.5l-0.2-0.9
				c-0.3,0.5-1.2,1.2-2.9,1.2C171.1,103.7,169.1,102.1,169.1,98.5z M176.6,95.6c-0.5-0.5-1.3-0.8-2.2-0.8c-1.9,0-2.6,1.6-2.6,3.6
				c0,2,0.7,3.3,2.5,3.3c1.2,0,1.9-0.4,2.3-0.9V95.6z"/>
			<path id="XMLID_768_" class="st1" d="M187.4,100.7v-5.5H186v-0.6l1.1-1.2l2.1-2.4h0.9v2.4h2.8v1.9h-2.8v5.4c0,0.8,0.3,1.2,1,1.2
				c0.8,0,1.4-0.4,1.8-1v2.1c-0.3,0.4-1.1,0.8-2.4,0.8C188.3,103.7,187.4,102.6,187.4,100.7z"/>
			<path id="XMLID_765_" class="st1" d="M194.3,98.3c0-3.6,2.6-5.4,5.6-5.4c3.1,0,5.3,1.7,5.3,5.4c0,3.7-2.6,5.4-5.5,5.4
				C196.5,103.7,194.3,102,194.3,98.3z M202.5,98.3c0-2-0.9-3.4-2.7-3.4c-1.8,0-2.7,1.4-2.7,3.4c0,2,0.9,3.4,2.7,3.4
				C201.7,101.7,202.5,100.3,202.5,98.3z"/>
			<path id="XMLID_762_" class="st1" d="M212.3,93.2h2.5l0.2,0.9c0.3-0.5,1.2-1.2,2.9-1.2c2.8,0,4.6,1.4,4.6,5.1s-2.3,5.6-5.1,5.6
				c-0.8,0-1.9-0.1-2.4-0.7v3.9h-2.7V93.2z M219.8,98.2c0-2-0.7-3.3-2.5-3.3c-1.2,0-1.9,0.4-2.3,0.9v5.2c0.5,0.5,1.3,0.8,2.2,0.8
				C219,101.8,219.8,100.2,219.8,98.2z"/>
			<path id="XMLID_760_" class="st1" d="M224.6,101.1V89.6h2.7v11.3c0,0.7,0.2,0.9,0.8,0.9c0.5,0,0.9-0.2,1.1-0.5v1.9
				c-0.2,0.2-0.8,0.6-1.8,0.6C225.5,103.7,224.6,102.7,224.6,101.1z"/>
			<path id="XMLID_757_" class="st1" d="M230.3,100.8c0-2.1,1.8-2.9,4.9-3.3l1.7-0.2c0-1.8-0.9-2.3-2.6-2.3c-1.7,0-3,0.8-3.6,1.9
				v-2.4c0.4-0.6,1.6-1.4,4-1.4c3.1,0,4.8,1.4,4.8,4.3v6.1h-2.4l-0.2-0.9c-0.3,0.6-1.2,1.2-2.8,1.2
				C232,103.7,230.3,102.8,230.3,100.8z M236.9,98.8l-1.5,0.3c-1.9,0.4-2.5,0.8-2.5,1.6c0,0.8,0.6,1.2,1.6,1.2c1.1,0,2-0.4,2.3-0.9
				V98.8z"/>
			<path id="XMLID_755_" class="st1" d="M241.6,98.3c0-3.6,2.6-5.4,5.5-5.4c1.5,0,2.7,0.5,3.2,0.9v2.3c-0.7-0.9-1.6-1.2-3-1.2
				c-1.9,0-3,1.2-3,3.3c0,2.1,1.1,3.3,3,3.3c1.4,0,2.4-0.5,3.1-1.3v2.2c-0.5,0.5-1.8,1.2-3.4,1.2C243.8,103.7,241.6,102,241.6,98.3z
				"/>
			<path id="XMLID_752_" class="st1" d="M252,98.3c0-3.6,2.7-5.4,5.3-5.4c2.5,0,5,1,5,4.8v1.3h-7.6c0.1,1.4,1.1,2.6,3.2,2.6
				c2,0,3.2-0.8,3.8-1.4v2.2c-0.6,0.6-1.8,1.3-4,1.3C254.3,103.7,252,102,252,98.3z M259.7,97.4L259.7,97.4c0-1.6-0.8-2.5-2.4-2.5
				c-1.5,0-2.4,1.2-2.5,2.5H259.7z"/>
			<path id="XMLID_749_" class="st1" d="M266.8,102.7l-0.4,0.7h-2V89.6h2.7v4.6c0.3-0.5,1.3-1.2,2.9-1.2c2.8,0,4.6,1.4,4.6,5.1
				s-2.3,5.6-5.1,5.6C268.1,103.7,267.3,103.2,266.8,102.7z M267.1,101c0.5,0.6,1.3,0.8,2.2,0.8c1.9,0,2.6-1.6,2.6-3.6
				c0-2-0.7-3.3-2.5-3.3c-1.1,0-1.9,0.4-2.3,0.9V101z"/>
			<path id="XMLID_746_" class="st1" d="M276.2,98.3c0-3.6,2.6-5.4,5.6-5.4c3.1,0,5.3,1.7,5.3,5.4c0,3.7-2.6,5.4-5.5,5.4
				C278.4,103.7,276.2,102,276.2,98.3z M284.3,98.3c0-2-0.9-3.4-2.7-3.4c-1.8,0-2.7,1.4-2.7,3.4c0,2,0.9,3.4,2.7,3.4
				C283.5,101.7,284.3,100.3,284.3,98.3z"/>
			<path id="XMLID_744_" class="st1" d="M288.7,106.1c0.4-0.6,0.9-1.7,1-2.6c-0.6-0.2-0.9-0.8-0.9-1.3c0-0.9,0.7-1.5,1.7-1.5
				c1,0,1.6,0.6,1.6,1.6c0,1.6-1.4,3.4-2.1,4L288.7,106.1z"/>
			<path id="XMLID_742_" class="st1" d="M385.8,103.1v-2.3c0.6,0.4,1.5,0.9,2.9,0.9c2,0,3-0.8,3-2c0-1.1-0.7-1.8-2.9-1.8
				c-1.1,0-2,0.2-2.6,0.5l0.3-7.5h7.6V93h-5.3l-0.1,3c0.2-0.1,0.8-0.1,1.2-0.1c3,0,4.6,1.2,4.6,3.6c0,2.5-2.4,4.1-5.5,4.1
				C387.2,103.7,386.4,103.3,385.8,103.1z"/>
			<path id="XMLID_740_" class="st1" d="M401.7,93.2h2.5l0.1,0.9c0.4-0.6,1.4-1.2,2.7-1.2c1.6,0,2.7,0.5,3.3,1.5
				c0.5-0.7,1.5-1.5,3.3-1.5c2.8,0,3.9,1.4,3.9,4.1v6.3h-2.7v-5.8c0-1.9-0.5-2.7-1.9-2.7c-1,0-1.9,0.5-2.2,1
				c0.1,0.4,0.1,0.8,0.1,1.2v6.3h-2.7v-5.8c0-1.9-0.5-2.7-1.9-2.7c-1,0-1.8,0.5-2.1,1v7.5h-2.7V93.2z"/>
			<path id="XMLID_737_" class="st1" d="M419.6,106.2v-2c1,0.7,2.5,1.1,4.7,1.1c2.6,0,3.8-0.4,3.8-1.3c0-0.8-0.8-1-2.5-1
				c-1.6,0-4,0.3-4.8,0.6V102l1.6-2.3c-1.6-0.5-2.5-1.6-2.5-3.2c0-2.2,2-3.5,4.8-3.5c1.3,0,2.3,0.3,3.1,0.8c0.4-0.5,1.3-0.8,2.2-0.8
				c0.3,0,0.6,0,0.9,0.1v1.9c-0.2-0.1-0.5-0.1-0.7-0.1c-0.5,0-0.9,0.1-1.1,0.3c0.2,0.4,0.3,0.9,0.3,1.4c0,2.2-2,3.5-4.7,3.5h-0.3
				l-1,1.5c0.5-0.1,1.8-0.3,3-0.3c2.8,0,4.5,0.6,4.5,2.6s-2.1,3.4-6.1,3.4C422.3,107.2,420.6,106.8,419.6,106.2z M426.6,96.5
				c0-1.1-0.8-1.7-2.1-1.7c-1.3,0-2.1,0.6-2.1,1.7s0.8,1.7,2.1,1.7C425.8,98.2,426.6,97.6,426.6,96.5z"/>
			<path id="XMLID_735_" class="st1" d="M437.6,100.7v-5.5h-1.4v-0.6l1.1-1.2l2.1-2.4h0.9v2.4h2.8v1.9h-2.8v5.4c0,0.8,0.3,1.2,1,1.2
				c0.8,0,1.4-0.4,1.8-1v2.1c-0.3,0.4-1.1,0.8-2.4,0.8C438.5,103.7,437.6,102.6,437.6,100.7z"/>
			<path id="XMLID_733_" class="st1" d="M444.1,93.2h2.6l1.7,6l2.5-6h1.1l2.5,6l1.6-6h2.4l-3,10.1h-1.6l-2.6-6.1l-2.7,6.1h-1.6
				L444.1,93.2z"/>
			<path id="XMLID_730_" class="st1" d="M460.4,90.9c0-0.8,0.5-1.2,1.4-1.2s1.5,0.4,1.5,1.2c0,0.8-0.5,1.2-1.5,1.2
				S460.4,91.7,460.4,90.9z M460.5,93.2h2.7v10.1h-2.7V93.2z"/>
			<path id="XMLID_728_" class="st1" d="M465.3,98.3c0-3.6,2.6-5.4,5.5-5.4c1.5,0,2.7,0.5,3.2,0.9v2.3c-0.7-0.9-1.6-1.2-3-1.2
				c-1.9,0-3,1.2-3,3.3c0,2.1,1.1,3.3,3,3.3c1.4,0,2.4-0.5,3.1-1.3v2.2c-0.5,0.5-1.8,1.2-3.4,1.2C467.5,103.7,465.3,102,465.3,98.3z
				"/>
			<path id="XMLID_725_" class="st1" d="M475.7,98.3c0-3.6,2.7-5.4,5.3-5.4c2.5,0,5,1,5,4.8v1.3h-7.6c0.1,1.4,1.1,2.6,3.2,2.6
				c2,0,3.2-0.8,3.8-1.4v2.2c-0.6,0.6-1.8,1.3-4,1.3C478,103.7,475.7,102,475.7,98.3z M483.4,97.4L483.4,97.4c0-1.6-0.8-2.5-2.4-2.5
				c-1.5,0-2.4,1.2-2.5,2.5H483.4z"/>
			<path id="XMLID_722_" class="st1" d="M492.5,100.8c0-2.1,1.8-2.9,4.9-3.3l1.7-0.2c0-1.8-0.9-2.3-2.6-2.3c-1.7,0-3,0.8-3.6,1.9
				v-2.4c0.4-0.6,1.6-1.4,4-1.4c3.1,0,4.8,1.4,4.8,4.3v6.1h-2.4l-0.2-0.9c-0.3,0.6-1.2,1.2-2.8,1.2
				C494.2,103.7,492.5,102.8,492.5,100.8z M499.1,98.8l-1.5,0.3c-1.8,0.4-2.5,0.8-2.5,1.6c0,0.8,0.6,1.2,1.6,1.2
				c1.1,0,2-0.4,2.3-0.9V98.8z"/>
			<path id="XMLID_719_" class="st1" d="M508.7,98.5c0-3.7,2.1-5.5,5-5.5c0.8,0,1.9,0.1,2.4,0.7v-4.1h2.7v13.8h-2.5l-0.2-0.9
				c-0.3,0.5-1.2,1.2-2.9,1.2C510.8,103.7,508.7,102.1,508.7,98.5z M516.2,95.6c-0.5-0.5-1.3-0.8-2.2-0.8c-1.8,0-2.6,1.6-2.6,3.6
				c0,2,0.7,3.3,2.5,3.3c1.2,0,1.9-0.4,2.3-0.9V95.6z"/>
			<path id="XMLID_716_" class="st1" d="M521.1,100.8c0-2.1,1.8-2.9,4.9-3.3l1.7-0.2c0-1.8-0.9-2.3-2.6-2.3c-1.7,0-3,0.8-3.6,1.9
				v-2.4c0.4-0.6,1.6-1.4,4-1.4c3.1,0,4.8,1.4,4.8,4.3v6.1h-2.4l-0.2-0.9c-0.3,0.6-1.2,1.2-2.8,1.2
				C522.8,103.7,521.1,102.8,521.1,100.8z M527.6,98.8l-1.5,0.3c-1.8,0.4-2.5,0.8-2.5,1.6c0,0.8,0.6,1.2,1.6,1.2
				c1.1,0,2-0.4,2.3-0.9V98.8z"/>
			<path id="XMLID_714_" class="st1" d="M531.9,106.6v-2c0.5,0.5,1.1,0.8,1.9,0.8c0.8,0,1.6-0.3,2.2-1.7l-4.5-10.4h2.9l2.8,7.3
				l2.2-7.3h2.6l-3.2,9.5c-0.8,2.5-2.1,4.5-5,4.5C533,107.2,532.2,106.9,531.9,106.6z"/>
			<path id="XMLID_711_" class="st1" d="M547.9,98.3c0-3.6,2.6-5.4,5.6-5.4c3.1,0,5.3,1.7,5.3,5.4c0,3.7-2.6,5.4-5.5,5.4
				C550.1,103.7,547.9,102,547.9,98.3z M556.1,98.3c0-2-0.9-3.4-2.7-3.4c-1.8,0-2.7,1.4-2.7,3.4c0,2,0.9,3.4,2.7,3.4
				C555.3,101.7,556.1,100.3,556.1,98.3z"/>
			<path id="XMLID_709_" class="st1" d="M561,93.2h2.3l0.2,1.4c0.1-1.1,1.1-1.7,2.2-1.7c0.6,0,1,0.2,1.2,0.3v2.1
				c-0.3-0.2-0.7-0.3-1.3-0.3c-0.9,0-1.5,0.4-1.9,1v7.3H561V93.2z"/>
			<path id="XMLID_707_" class="st1" d="M573.7,90.9h2.7v5h5.8v-5h2.7v12.5h-2.7V98h-5.8v5.4h-2.7V90.9z"/>
			<path id="XMLID_704_" class="st1" d="M587.2,100.8c0-2.1,1.8-2.9,4.9-3.3l1.7-0.2c0-1.8-0.9-2.3-2.6-2.3c-1.7,0-3,0.8-3.6,1.9
				v-2.4c0.4-0.6,1.6-1.4,4-1.4c3.1,0,4.8,1.4,4.8,4.3v6.1H594l-0.2-0.9c-0.3,0.6-1.2,1.2-2.8,1.2
				C589,103.7,587.2,102.8,587.2,100.8z M593.8,98.8l-1.5,0.3c-1.8,0.4-2.5,0.8-2.5,1.6c0,0.8,0.6,1.2,1.6,1.2c1.1,0,2-0.4,2.3-0.9
				V98.8z"/>
			<path id="XMLID_702_" class="st1" d="M599.1,101.1V89.6h2.7v11.3c0,0.7,0.2,0.9,0.8,0.9c0.5,0,0.9-0.2,1.1-0.5v1.9
				c-0.2,0.2-0.8,0.6-1.8,0.6C600,103.7,599.1,102.7,599.1,101.1z"/>
			<path id="XMLID_699_" class="st1" d="M604.8,98.3c0-3.6,2.6-5.4,5.6-5.4c3.1,0,5.3,1.7,5.3,5.4c0,3.7-2.6,5.4-5.5,5.4
				C607,103.7,604.8,102,604.8,98.3z M613,98.3c0-2-0.9-3.4-2.7-3.4c-1.8,0-2.7,1.4-2.7,3.4c0,2,0.9,3.4,2.7,3.4
				C612.1,101.7,613,100.3,613,98.3z"/>
			<path id="XMLID_696_" class="st1" d="M617.8,93.2h2.5l0.2,0.9c0.3-0.5,1.2-1.2,2.9-1.2c2.8,0,4.6,1.4,4.6,5.1s-2.3,5.6-5.1,5.6
				c-0.8,0-1.9-0.1-2.4-0.7v3.9h-2.7V93.2z M625.3,98.2c0-2-0.7-3.3-2.5-3.3c-1.2,0-1.9,0.4-2.3,0.9v5.2c0.5,0.5,1.3,0.8,2.2,0.8
				C624.5,101.8,625.3,100.2,625.3,98.2z"/>
			<path id="XMLID_693_" class="st1" d="M629.5,98.3c0-3.6,2.7-5.4,5.3-5.4c2.5,0,5,1,5,4.8v1.3h-7.6c0.1,1.4,1.1,2.6,3.2,2.6
				c2,0,3.2-0.8,3.8-1.4v2.2c-0.6,0.6-1.8,1.3-4,1.3C631.9,103.7,629.5,102,629.5,98.3z M637.2,97.4L637.2,97.4
				c0-1.6-0.8-2.5-2.4-2.5c-1.5,0-2.4,1.2-2.5,2.5H637.2z"/>
			<path id="XMLID_691_" class="st1" d="M642,93.2h2.3l0.2,1.4c0.1-1.1,1.1-1.7,2.2-1.7c0.6,0,1,0.2,1.2,0.3v2.1
				c-0.3-0.2-0.7-0.3-1.3-0.3c-0.9,0-1.5,0.4-1.9,1v7.3H642V93.2z"/>
			<path id="XMLID_688_" class="st1" d="M649.5,90.9c0-0.8,0.5-1.2,1.4-1.2s1.5,0.4,1.5,1.2c0,0.8-0.5,1.2-1.5,1.2
				S649.5,91.7,649.5,90.9z M649.6,93.2h2.7v10.1h-2.7V93.2z"/>
			<path id="XMLID_685_" class="st1" d="M654.4,98.5c0-3.7,2.1-5.5,5-5.5c0.8,0,1.9,0.1,2.4,0.7v-4.1h2.7v13.8h-2.5l-0.2-0.9
				c-0.3,0.5-1.2,1.2-2.9,1.2C656.5,103.7,654.4,102.1,654.4,98.5z M661.9,95.6c-0.5-0.5-1.3-0.8-2.2-0.8c-1.8,0-2.6,1.6-2.6,3.6
				c0,2,0.7,3.3,2.5,3.3c1.2,0,1.9-0.4,2.3-0.9V95.6z"/>
			<path id="XMLID_682_" class="st1" d="M666.8,98.3c0-3.6,2.6-5.4,5.6-5.4c3.1,0,5.3,1.7,5.3,5.4c0,3.7-2.6,5.4-5.5,5.4
				C669,103.7,666.8,102,666.8,98.3z M674.9,98.3c0-2-0.9-3.4-2.7-3.4c-1.8,0-2.7,1.4-2.7,3.4c0,2,0.9,3.4,2.7,3.4
				C674.1,101.7,674.9,100.3,674.9,98.3z"/>
			<path id="XMLID_680_" class="st1" d="M679.7,101.1V89.6h2.7v11.3c0,0.7,0.2,0.9,0.8,0.9c0.5,0,0.9-0.2,1.1-0.5v1.9
				c-0.2,0.2-0.8,0.6-1.8,0.6C680.6,103.7,679.7,102.7,679.7,101.1z"/>
			<path id="XMLID_678_" class="st1" d="M6.8,122.8H0v-0.2l4-9.7h2.5l-3,7.8h3.4v-4.5h2.5v4.5h1.5v2.2H9.4v2.5H6.8V122.8z"/>
			<path id="XMLID_676_" class="st1" d="M17.7,115.2h2.5l0.1,0.9c0.4-0.6,1.4-1.2,2.7-1.2c1.6,0,2.7,0.5,3.3,1.5
				c0.5-0.7,1.5-1.5,3.3-1.5c2.8,0,3.9,1.4,3.9,4.1v6.3h-2.7v-5.8c0-1.9-0.5-2.7-1.9-2.7c-1,0-1.9,0.5-2.2,1
				c0.1,0.4,0.1,0.8,0.1,1.2v6.3h-2.7v-5.8c0-1.9-0.5-2.7-1.9-2.7c-1,0-1.8,0.5-2.1,1v7.5h-2.7V115.2z"/>
			<path id="XMLID_673_" class="st1" d="M35.6,128.2v-2c1,0.7,2.5,1.1,4.7,1.1c2.6,0,3.8-0.4,3.8-1.3c0-0.8-0.8-1-2.5-1
				c-1.6,0-4,0.3-4.8,0.6V124l1.6-2.3c-1.6-0.5-2.5-1.6-2.5-3.2c0-2.2,2-3.5,4.8-3.5c1.3,0,2.3,0.3,3.1,0.8c0.4-0.5,1.3-0.8,2.2-0.8
				c0.3,0,0.6,0,0.9,0.1v1.9c-0.2-0.1-0.5-0.1-0.7-0.1c-0.5,0-0.9,0.1-1.1,0.3c0.2,0.4,0.3,0.9,0.3,1.4c0,2.2-2,3.5-4.7,3.5H40
				l-1,1.5c0.5-0.1,1.8-0.3,3-0.3c2.8,0,4.5,0.6,4.5,2.6s-2.1,3.4-6.1,3.4C38.3,129.2,36.6,128.8,35.6,128.2z M42.6,118.5
				c0-1.1-0.8-1.7-2.1-1.7c-1.3,0-2.1,0.6-2.1,1.7s0.8,1.7,2.1,1.7C41.7,120.2,42.6,119.6,42.6,118.5z"/>
			<path id="XMLID_671_" class="st1" d="M53.6,122.7v-5.5h-1.4v-0.6l1.1-1.2l2.1-2.4h0.9v2.4H59v1.9h-2.8v5.4c0,0.8,0.3,1.2,1,1.2
				c0.8,0,1.4-0.4,1.8-1v2.1c-0.3,0.4-1.1,0.8-2.4,0.8C54.5,125.7,53.6,124.6,53.6,122.7z"/>
			<path id="XMLID_669_" class="st1" d="M60.1,115.2h2.6l1.7,6l2.5-6H68l2.5,6l1.6-6h2.4l-3,10.1H70l-2.6-6.1l-2.7,6.1h-1.6
				L60.1,115.2z"/>
			<path id="XMLID_666_" class="st1" d="M76.3,112.9c0-0.8,0.5-1.2,1.4-1.2c1,0,1.5,0.4,1.5,1.2c0,0.8-0.5,1.2-1.5,1.2
				C76.8,114.1,76.3,113.6,76.3,112.9z M76.5,115.2h2.7v10.1h-2.7V115.2z"/>
			<path id="XMLID_664_" class="st1" d="M81.3,120.3c0-3.6,2.6-5.4,5.5-5.4c1.5,0,2.7,0.5,3.2,0.9v2.3c-0.7-0.9-1.6-1.2-3-1.2
				c-1.9,0-3,1.2-3,3.3c0,2.1,1.1,3.3,3,3.3c1.4,0,2.4-0.5,3.1-1.3v2.2c-0.5,0.5-1.8,1.2-3.4,1.2C83.5,125.7,81.3,124,81.3,120.3z"
				/>
			<path id="XMLID_661_" class="st1" d="M91.7,120.3c0-3.6,2.7-5.4,5.3-5.4c2.5,0,5,1,5,4.8v1.3h-7.6c0.1,1.4,1.1,2.6,3.2,2.6
				c2,0,3.2-0.8,3.8-1.4v2.2c-0.6,0.6-1.8,1.3-4,1.3C94,125.7,91.7,124,91.7,120.3z M99.4,119.4L99.4,119.4c0-1.6-0.8-2.5-2.4-2.5
				c-1.5,0-2.4,1.2-2.5,2.5H99.4z"/>
			<path id="XMLID_658_" class="st1" d="M108.5,122.8c0-2.1,1.8-2.9,4.9-3.3l1.7-0.2c0-1.8-0.9-2.3-2.6-2.3c-1.7,0-3,0.8-3.6,1.9
				v-2.4c0.4-0.6,1.6-1.4,4-1.4c3.1,0,4.8,1.4,4.8,4.3v6.1h-2.4l-0.2-0.9c-0.3,0.6-1.2,1.2-2.8,1.2
				C110.2,125.7,108.5,124.8,108.5,122.8z M115,120.8l-1.5,0.3c-1.9,0.4-2.5,0.8-2.5,1.6c0,0.8,0.6,1.2,1.6,1.2c1.1,0,2-0.4,2.3-0.9
				V120.8z"/>
			<path id="XMLID_655_" class="st1" d="M124.7,120.5c0-3.7,2.1-5.5,5-5.5c0.8,0,1.9,0.1,2.4,0.7v-4.1h2.7v13.8h-2.5l-0.2-0.9
				c-0.3,0.5-1.2,1.2-2.9,1.2C126.7,125.7,124.7,124.1,124.7,120.5z M132.2,117.6c-0.5-0.5-1.3-0.8-2.2-0.8c-1.9,0-2.6,1.6-2.6,3.6
				c0,2,0.7,3.3,2.5,3.3c1.2,0,1.9-0.4,2.3-0.9V117.6z"/>
			<path id="XMLID_652_" class="st1" d="M137,122.8c0-2.1,1.8-2.9,4.9-3.3l1.7-0.2c0-1.8-0.9-2.3-2.6-2.3c-1.7,0-3,0.8-3.6,1.9v-2.4
				c0.4-0.6,1.6-1.4,4-1.4c3.1,0,4.8,1.4,4.8,4.3v6.1h-2.4l-0.2-0.9c-0.3,0.6-1.2,1.2-2.8,1.2C138.8,125.7,137,124.8,137,122.8z
				 M143.6,120.8l-1.5,0.3c-1.9,0.4-2.5,0.8-2.5,1.6c0,0.8,0.6,1.2,1.6,1.2c1.1,0,2-0.4,2.3-0.9V120.8z"/>
			<path id="XMLID_650_" class="st1" d="M147.8,128.6v-2c0.5,0.5,1.1,0.8,1.9,0.8c0.8,0,1.6-0.3,2.2-1.7l-4.5-10.4h2.9l2.8,7.3
				l2.2-7.3h2.6l-3.2,9.5c-0.8,2.5-2.1,4.5-5,4.5C148.9,129.2,148.2,128.9,147.8,128.6z"/>
			<path id="XMLID_648_" class="st1" d="M158.6,124.1c0-0.9,0.7-1.5,1.6-1.5c1,0,1.6,0.6,1.6,1.5c0,0.9-0.7,1.5-1.6,1.5
				C159.3,125.7,158.6,125,158.6,124.1z"/>
		</g>
	</g>
	<g id="XMLID_600_">
		<path id="XMLID_644_" class="st2" d="M306.1,100h6.4c1,0,1.4-0.2,1.4-0.7c0-0.5-0.3-0.6-1-0.7c-3-0.3-3.9-1.1-3.9-3.1
			c0-2,1.3-3.3,4.2-3.3c1.8,0,2.6,0.2,3.2,0.5v2.6c-0.9-0.4-2-0.6-3.1-0.6c-0.9,0-1.3,0.2-1.3,0.7c0,0.5,0.3,0.6,1,0.7
			c3,0.3,3.9,1.1,3.9,3.1c0,1.8-1.1,3.3-4.4,3.3h-5.9"/>
		<path id="XMLID_641_" class="st2" d="M320.4,98.4c-0.1,1.3,0.6,1.6,2.1,1.6c1.4,0,2.5-0.3,3.2-0.6v2.4c-1.1,0.5-2.5,0.7-3.6,0.7
			c-3.2,0-4.7-1.6-4.7-5.1c0-3.5,1.5-5.1,4.5-5.1c4.1,0,4.4,3.1,4.2,6.1H320.4z M320.4,96.5h2.7c0.2-1.1-0.1-1.9-1.2-1.9
			C320.8,94.6,320.4,95.3,320.4,96.5"/>
		<path id="XMLID_640_" class="st2" d="M328.8,92.6l0.4,0.7c1.1-0.7,2.3-1,3.4-1c2.6,0,3.4,1.4,3.4,3.2v6.7h-3.1V96
			c0-0.7-0.3-1.2-1.1-1.2c-0.8,0-1.4,0.3-1.7,0.5v6.9h-3.1v-9.6H328.8z"/>
		<path id="XMLID_637_" class="st2" d="M341.9,95.5c0-0.4-0.3-0.7-1.1-0.7c-1.2,0-2.6,0.4-3.5,0.7v-2.6c0.7-0.3,2.1-0.6,3.5-0.6
			c3.5,0,4.1,1.5,4.1,3.6v6.3H343l-0.4-0.7c-0.7,0.6-1.7,1-2.8,1c-2.4,0-3.3-1.6-3.3-3.1c0-2.6,1.9-3,3.6-3.2l1.8-0.2V95.5z
			 M340.6,97.9c-0.9,0.1-1.2,0.5-1.2,1.3c0,0.7,0.5,1.1,1.1,1.1c0.6,0,1.1-0.2,1.4-0.5v-2.1L340.6,97.9z"/>
		<path id="XMLID_634_" class="st2" d="M347.7,92.6l0.5,0.8c0.7-0.6,1.6-1,3.1-1c2.5,0,3.7,1.5,3.7,5.1c0,3.5-1.2,5.1-3.7,5.1
			c-1.1,0-1.8-0.3-2.4-0.6v5.2h-3.1V92.6H347.7z M349,99.6c0,0,0.6,0.4,1.4,0.4c1.4,0,1.7-1,1.7-2.6c0-1.7-0.3-2.6-1.7-2.6
			c-0.8,0-1.4,0.4-1.4,0.4V99.6z"/>
		<path id="XMLID_633_" class="st2" d="M359.8,102.3c0,0-0.4,0.1-0.9,0.1c-1.7,0-3-0.8-3-2.7v-7.1h3.1v6.6c0,0.4,0.2,0.6,0.8,0.6
			V102.3z"/>
		<path id="XMLID_632_" class="st2" d="M362.4,92.6l0.4,0.7c1.1-0.7,2.3-1,3.4-1c2.6,0,3.4,1.4,3.4,3.2v6.7h-3.1V96
			c0-0.7-0.3-1.2-1.1-1.2c-0.8,0-1.4,0.3-1.7,0.5v6.9h-3.1v-9.6H362.4z"/>
		<path id="XMLID_629_" class="st2" d="M373.2,98.4c-0.1,1.3,0.6,1.6,2.1,1.6c1.4,0,2.5-0.3,3.2-0.6v2.4c-1.1,0.5-2.5,0.7-3.6,0.7
			c-3.2,0-4.7-1.6-4.7-5.1c0-3.5,1.5-5.1,4.5-5.1c4.1,0,4.4,3.1,4.2,6.1H373.2z M373.2,96.5h2.7c0.2-1.1-0.1-1.9-1.2-1.9
			C373.7,94.6,373.2,95.3,373.2,96.5"/>
		<polyline id="XMLID_628_" class="st2" points="302.8,99.2 303.4,96.8 305.3,96.8 304.1,91.3 302.8,96.8 302.2,99.2 301.6,102.2 
			298.3,102.2 302.3,87.7 305.8,87.7 309.9,102.2 306.6,102.2 305.9,99.2 		"/>
		<g id="XMLID_606_">
			<polygon id="XMLID_627_" class="st2" points="352,106.9 352,105.1 350.2,105.1 350.2,106.9 349.9,106.9 349.9,103.2 350.2,103.2 
				350.2,104.8 352,104.8 352,103.2 352.4,103.2 352.4,106.9 			"/>
			<path id="XMLID_624_" class="st2" d="M353.3,103.5c0.1,0,0.2,0.1,0.2,0.2c0,0.1-0.1,0.2-0.2,0.2c-0.1,0-0.2-0.1-0.2-0.2
				C353,103.6,353.1,103.5,353.3,103.5 M353.1,106.4v-1.9h0.3v2c0,0.2,0.1,0.2,0.2,0.2v0.3C353.3,106.9,353.1,106.8,353.1,106.4"/>
			<polygon id="XMLID_623_" class="st2" points="355,105.4 356.2,106.9 355.8,106.9 354.8,105.6 354.5,105.9 354.5,106.9 
				354.2,106.9 354.2,103.2 354.5,103.2 354.5,105.5 355.6,104.4 356.1,104.4 			"/>
			<path id="XMLID_622_" class="st2" d="M359.5,105.1c0-0.3-0.2-0.4-0.5-0.4c-0.3,0-0.5,0.1-0.7,0.2c0,0.1,0,0.2,0,0.3v1.8h-0.3
				v-1.8c0-0.3-0.2-0.4-0.5-0.4c-0.3,0-0.4,0-0.6,0.1v2h-0.3v-2.4h0.2l0.1,0.2c0.2-0.2,0.5-0.2,0.7-0.2c0.3,0,0.6,0.1,0.7,0.3
				c0.3-0.2,0.5-0.3,0.7-0.3c0.5,0,0.8,0.2,0.8,0.7v1.7h-0.3V105.1z"/>
			<path id="XMLID_619_" class="st2" d="M361.3,104.7c-0.3,0-0.5,0.1-0.7,0.1v-0.3c0.2-0.1,0.5-0.1,0.7-0.1c0.7,0,0.9,0.3,0.9,0.8
				v1.7H362l-0.1-0.2c-0.2,0.2-0.5,0.2-0.7,0.2c-0.6,0-0.9-0.4-0.9-0.8c0-0.4,0.2-0.7,0.9-0.8l0.6,0v-0.1
				C361.9,104.9,361.7,104.7,361.3,104.7 M361.2,105.6c-0.3,0-0.5,0.2-0.5,0.5c0,0.2,0.1,0.5,0.5,0.5c0.3,0,0.4-0.1,0.6-0.2v-0.8
				L361.2,105.6z"/>
			<path id="XMLID_616_" class="st2" d="M364,106.9h-0.3v-3.6h1.1c0.9,0,1.2,0.5,1.2,1.1c0,0.6-0.3,1.1-1.2,1.1H364V106.9z
				 M364,105.1h0.8c0.7,0,0.8-0.4,0.8-0.8c0-0.3-0.1-0.8-0.8-0.8H364V105.1z"/>
			<path id="XMLID_615_" class="st2" d="M367.5,104.7c-0.3,0-0.5,0.1-0.7,0.2v2h-0.3v-3.6h0.3v1.4c0.2-0.1,0.4-0.2,0.7-0.2
				c0.6,0,0.8,0.3,0.8,0.7v1.7H368v-1.8C368,104.8,367.8,104.7,367.5,104.7"/>
			<path id="XMLID_612_" class="st2" d="M369.8,104.7c-0.3,0-0.5,0.1-0.7,0.1v-0.3c0.2-0.1,0.5-0.1,0.7-0.1c0.7,0,0.9,0.3,0.9,0.8
				v1.7h-0.2l-0.1-0.2c-0.2,0.2-0.5,0.2-0.7,0.2c-0.6,0-0.8-0.4-0.8-0.8c0-0.4,0.2-0.7,0.9-0.8l0.6,0v-0.1
				C370.3,104.9,370.2,104.7,369.8,104.7 M369.7,105.6c-0.3,0-0.5,0.2-0.5,0.5c0,0.2,0.1,0.5,0.5,0.5c0.3,0,0.4-0.1,0.6-0.2v-0.8
				L369.7,105.6z"/>
			<path id="XMLID_611_" class="st2" d="M372.6,104.7c-0.1,0-0.2,0-0.3,0c-0.3,0-0.5,0.1-0.7,0.2v2h-0.3v-2.4h0.2l0.1,0.2
				c0.2-0.2,0.5-0.3,0.8-0.3c0.1,0,0.2,0,0.3,0V104.7z"/>
			<path id="XMLID_610_" class="st2" d="M375.9,105.1c0-0.3-0.2-0.4-0.5-0.4c-0.3,0-0.5,0.1-0.7,0.2c0,0.1,0,0.2,0,0.3v1.8h-0.3
				v-1.8c0-0.3-0.2-0.4-0.5-0.4c-0.3,0-0.4,0-0.6,0.1v2h-0.3v-2.4h0.2l0.1,0.2c0.2-0.2,0.5-0.2,0.7-0.2c0.3,0,0.6,0.1,0.7,0.3
				c0.3-0.2,0.5-0.3,0.7-0.3c0.5,0,0.8,0.2,0.8,0.7v1.7h-0.3V105.1z"/>
			<path id="XMLID_607_" class="st2" d="M377.7,104.7c-0.3,0-0.5,0.1-0.7,0.1v-0.3c0.2-0.1,0.5-0.1,0.7-0.1c0.7,0,0.9,0.3,0.9,0.8
				v1.7h-0.2l-0.1-0.2c-0.2,0.2-0.5,0.2-0.7,0.2c-0.6,0-0.8-0.4-0.8-0.8c0-0.4,0.2-0.7,0.9-0.8l0.6,0v-0.1
				C378.3,104.9,378.2,104.7,377.7,104.7 M377.6,105.6c-0.3,0-0.5,0.2-0.5,0.5c0,0.2,0.1,0.5,0.5,0.5c0.3,0,0.4-0.1,0.6-0.2v-0.8
				L377.6,105.6z"/>
		</g>
		<g id="XMLID_601_">
			<path id="XMLID_605_" class="st2" d="M358.6,87.2c-0.4,0-0.8,0.1-1.1,0.3c0.1,0.1,0.3,0.2,0.4,0.3c0.8,0.2,1.4,0.9,1.4,1.8
				c0,0.9-0.6,1.6-1.4,1.8c-0.1,0.1-0.3,0.2-0.4,0.3c0.3,0.2,0.7,0.3,1.1,0.3c1.3,0,2.3-1,2.3-2.3C361,88.2,359.9,87.2,358.6,87.2z"
				/>
			<path id="XMLID_604_" class="st3" d="M355.7,89.5c0-0.9,0.6-1.6,1.4-1.8c0.1-0.1,0.3-0.2,0.4-0.3c-0.3-0.2-0.7-0.3-1.1-0.3
				c-1.3,0-2.3,1-2.3,2.3c0,1.3,1,2.3,2.3,2.3c0.4,0,0.8-0.1,1.1-0.3c-0.2-0.1-0.3-0.2-0.4-0.3C356.3,91.1,355.7,90.4,355.7,89.5z"
				/>
			<path id="XMLID_603_" class="st3" d="M357.5,91.3c-0.2,0-0.3,0-0.4-0.1c0.1,0.1,0.3,0.2,0.4,0.3c0.2-0.1,0.3-0.2,0.4-0.3
				C357.8,91.3,357.6,91.3,357.5,91.3z"/>
			<path id="XMLID_602_" class="st3" d="M357.5,87.7c0.1,0,0.3,0,0.4,0c-0.1-0.1-0.3-0.2-0.4-0.3c-0.1,0.1-0.3,0.2-0.4,0.3
				C357.2,87.7,357.4,87.7,357.5,87.7z"/>
		</g>
	</g>
</g>
<g id="XMLID_46_">
	<g id="XMLID_48_">
		<path id="XMLID_321_" class="st0" d="M0.6,9.2c0-5.2,4.1-7.8,8.6-7.8c5,0,8.5,2.6,8.5,7.8c0,5.2-4.1,7.8-8.6,7.8
			C4,17,0.6,14.4,0.6,9.2z M13.4,9.3c0-3.1-1.6-4.8-4.3-4.8c-2.7,0-4.3,1.7-4.3,4.6c0,3,1.6,4.8,4.3,4.8
			C11.8,13.9,13.4,12.2,13.4,9.3z"/>
		<path id="XMLID_318_" class="st0" d="M23.4,15.8l-0.5,0.8h-3.1V0.2h4v5.4c0.4-0.6,1.6-1.3,3.5-1.3c3.3,0,5.4,1.7,5.4,6.1
			c0,4.4-2.6,6.7-6,6.7C24.8,17,23.9,16.4,23.4,15.8z M23.8,13.5c0.5,0.6,1.3,0.8,2.2,0.8c1.9,0,2.6-1.7,2.6-3.8S28,7.1,26.1,7.1
			c-1.1,0-1.9,0.4-2.3,1V13.5z"/>
		<path id="XMLID_315_" class="st0" d="M31.8,20.6v-2.8c0.5,0.4,1.1,0.7,1.7,0.7c1,0,1.5-0.4,1.5-1.3V4.6h4v12.3
			c0,2.7-1.8,4.3-4.8,4.3C33.1,21.2,32.2,20.9,31.8,20.6z M34.9,1.7C34.9,0.6,35.7,0,37,0c1.3,0,2.1,0.6,2.1,1.7S38.2,3.4,37,3.4
			C35.7,3.4,34.9,2.8,34.9,1.7z"/>
		<path id="XMLID_312_" class="st0" d="M41.1,10.6c0-4.4,3.2-6.4,6.6-6.4c3.2,0,6.3,1.2,6.3,5.8v1.6h-8.7c0.1,1.4,1.1,2.5,3.7,2.5
			c2.3,0,3.7-0.7,4.4-1.4v3c-0.7,0.6-2.3,1.3-5,1.3C43.8,17,41.1,15,41.1,10.6z M50.2,9.4V9.3c0-1.5-0.7-2.3-2.4-2.3
			c-1.6,0-2.4,1.2-2.5,2.4H50.2z"/>
		<path id="XMLID_310_" class="st0" d="M55.5,10.6c0-4.4,3.1-6.4,6.8-6.4c2,0,3.4,0.5,4,1v3.2c-0.9-0.9-1.9-1.2-3.4-1.2
			c-2.1,0-3.2,1.2-3.2,3.4c0,2.2,1.1,3.4,3.2,3.4c1.5,0,2.6-0.5,3.5-1.3v3.1c-0.6,0.6-2.1,1.3-4.1,1.3C58.2,17,55.5,15.1,55.5,10.6z
			"/>
		<path id="XMLID_308_" class="st0" d="M69.3,13.2V7.4h-1.6V6.1L69,4.6l2.4-2.9h1.9v2.9h3.2v2.8h-3.2v5.5c0,0.9,0.3,1.3,1.1,1.3
			c0.9,0,1.6-0.4,2-1v2.9c-0.5,0.5-1.4,1-3.1,1C70.4,17,69.3,15.6,69.3,13.2z"/>
		<path id="XMLID_305_" class="st0" d="M78.5,1.7c0-1.1,0.8-1.7,2.1-1.7c1.3,0,2.1,0.6,2.1,1.7s-0.8,1.7-2.1,1.7
			C79.3,3.4,78.5,2.8,78.5,1.7z M78.5,4.6h4v12.1h-4V4.6z"/>
		<path id="XMLID_303_" class="st0" d="M84,4.6h4.3l2.2,5.7l0.4,1.3c0.1-0.3,0.3-1,0.4-1.3l2.3-5.7h3.9l-5.4,12.1h-2.7L84,4.6z"/>
		<path id="XMLID_300_" class="st0" d="M97.9,10.6c0-4.4,3.2-6.4,6.6-6.4c3.2,0,6.3,1.2,6.3,5.8v1.6H102c0.1,1.4,1.1,2.5,3.7,2.5
			c2.3,0,3.7-0.7,4.4-1.4v3c-0.7,0.6-2.3,1.3-5,1.3C100.6,17,97.9,15,97.9,10.6z M107,9.4V9.3c0-1.5-0.7-2.3-2.4-2.3
			c-1.6,0-2.4,1.2-2.5,2.4H107z"/>
		<path id="XMLID_297_" class="st0" d="M112.7,7c0-1.2,1-2.1,2.3-2.1c1.3,0,2.3,0.9,2.3,2.1c0,1.2-1,2.1-2.3,2.1
			C113.7,9.1,112.7,8.2,112.7,7z M112.7,14.9c0-1.2,1-2.1,2.3-2.1c1.3,0,2.3,0.9,2.3,2.1c0,1.2-1,2.1-2.3,2.1
			C113.7,17.1,112.7,16.2,112.7,14.9z"/>
		<path id="XMLID_295_" class="st1" d="M128,6.3h-4V4.2h10.7v2.1h-4v10.4H128V6.3z"/>
		<path id="XMLID_292_" class="st1" d="M134.6,11.6c0-3.6,2.7-5.4,5.3-5.4c2.5,0,5,1,5,4.8v1.3h-7.6c0.1,1.4,1.1,2.6,3.2,2.6
			c2,0,3.2-0.8,3.8-1.4v2.2c-0.6,0.6-1.8,1.3-4,1.3C136.9,17,134.6,15.3,134.6,11.6z M142.3,10.8L142.3,10.8c0-1.6-0.8-2.5-2.4-2.5
			c-1.5,0-2.4,1.2-2.5,2.5H142.3z"/>
		<path id="XMLID_290_" class="st1" d="M146.6,16.1v-2.3c0.7,0.7,1.7,1.2,3.2,1.2s2.1-0.5,2.1-1.2c0-0.7-0.3-0.9-1.7-1.2l-0.6-0.1
			c-2.1-0.3-3.2-1.3-3.2-3.1c0-1.7,1.4-3.2,4.4-3.2c1.5,0,2.7,0.4,3.3,0.9v2.3c-0.7-0.8-1.7-1.3-3.2-1.3c-1.5,0-2,0.5-2,1.1
			c0,0.6,0.3,1,1.7,1.2l0.6,0.1c2.2,0.4,3.4,1.1,3.4,3c0,1.7-1.5,3.4-4.6,3.4C148.4,17,147.2,16.6,146.6,16.1z"/>
		<path id="XMLID_288_" class="st1" d="M157.2,14V8.5h-1.4V7.8l1.1-1.2l2.1-2.4h0.9v2.4h2.8v1.9h-2.8v5.4c0,0.8,0.3,1.2,1,1.2
			c0.8,0,1.4-0.4,1.8-1v2.1c-0.3,0.4-1.1,0.8-2.4,0.8C158.1,17,157.2,15.9,157.2,14z"/>
		<path id="XMLID_286_" class="st1" d="M169.8,4.2h8.9v2.1h-6.2v3h4.1v1.9h-4.1v3.4h6.2v2.1h-8.9V4.2z"/>
		<path id="XMLID_283_" class="st1" d="M181.5,8.4h-1.4V7.8l1.3-1c-0.2-0.3-0.3-0.8-0.3-1.4c0-1.8,1.8-2.8,3.6-2.8
			c1.3,0,1.9,0.3,2.2,0.6v2.2c-0.4-0.6-1-0.9-1.7-0.9s-1.4,0.4-1.4,1.2c0,0.4,0.1,0.7,0.3,0.9h4c-0.1-0.3-0.2-0.7-0.2-1.2
			c0-1.8,1.8-2.8,3.6-2.8c1.3,0,1.9,0.3,2.2,0.6v2.2c-0.4-0.6-1-0.9-1.7-0.9c-0.8,0-1.4,0.4-1.4,1.2c0,0.4,0.1,0.7,0.3,0.9h6.8v10.1
			h-2.7V8.4h-4v8.3h-2.7V8.4h-4v8.3h-2.7V8.4z M194.7,4.2c0-0.8,0.5-1.2,1.4-1.2c1,0,1.5,0.4,1.5,1.2c0,0.8-0.5,1.2-1.5,1.2
			C195.1,5.4,194.7,5,194.7,4.2z"/>
		<path id="XMLID_281_" class="st1" d="M199.7,11.6c0-3.6,2.6-5.4,5.5-5.4c1.5,0,2.7,0.5,3.2,0.9v2.3c-0.7-0.9-1.6-1.2-3-1.2
			c-1.9,0-3,1.2-3,3.3c0,2.1,1.1,3.3,3,3.3c1.4,0,2.4-0.5,3.1-1.3v2.2c-0.5,0.5-1.8,1.2-3.4,1.2C201.9,17,199.7,15.3,199.7,11.6z"/>
		<path id="XMLID_278_" class="st1" d="M210.1,14.1c0-2.1,1.8-2.9,4.9-3.3l1.7-0.2c0-1.8-0.9-2.3-2.6-2.3c-1.7,0-3,0.8-3.6,1.9V7.7
			c0.4-0.6,1.6-1.4,4-1.4c3.1,0,4.8,1.4,4.8,4.3v6.1h-2.4l-0.2-0.9c-0.3,0.6-1.2,1.2-2.8,1.2C211.8,17,210.1,16.1,210.1,14.1z
			 M216.7,12.1l-1.5,0.3c-1.9,0.4-2.5,0.8-2.5,1.6c0,0.8,0.6,1.2,1.6,1.2c1.1,0,2-0.4,2.3-0.9V12.1z"/>
		<path id="XMLID_276_" class="st1" d="M221.4,11.6c0-3.6,2.6-5.4,5.5-5.4c1.5,0,2.7,0.5,3.2,0.9v2.3c-0.7-0.9-1.6-1.2-3-1.2
			c-1.9,0-3,1.2-3,3.3c0,2.1,1.1,3.3,3,3.3c1.4,0,2.4-0.5,3.1-1.3v2.2c-0.5,0.5-1.8,1.2-3.4,1.2C223.6,17,221.4,15.3,221.4,11.6z"/>
		<path id="XMLID_274_" class="st1" d="M231.5,19.9v-2c0.5,0.5,1.1,0.8,1.9,0.8c0.8,0,1.6-0.3,2.2-1.7l-4.5-10.4h2.9l2.8,7.3
			l2.2-7.3h2.6l-3.2,9.5c-0.8,2.5-2.1,4.5-5,4.5C232.6,20.5,231.9,20.3,231.5,19.9z"/>
		<path id="XMLID_271_" class="st1" d="M247.6,11.6c0-3.6,2.6-5.4,5.6-5.4c3.1,0,5.3,1.7,5.3,5.4c0,3.7-2.6,5.4-5.5,5.4
			C249.8,17,247.6,15.3,247.6,11.6z M255.8,11.6c0-2-0.9-3.4-2.7-3.4c-1.8,0-2.7,1.4-2.7,3.4c0,2,0.9,3.4,2.7,3.4
			C254.9,15,255.8,13.6,255.8,11.6z"/>
		<path id="XMLID_269_" class="st1" d="M261.1,8.5h-1.4V7.8l1.3-1c-0.2-0.3-0.3-0.8-0.3-1.4c0-1.8,1.7-2.8,3.8-2.8
			c1.4,0,2.2,0.3,2.5,0.6v2.2c-0.4-0.6-1.1-0.9-2-0.9c-1,0-1.6,0.4-1.6,1.2c0,0.4,0.1,0.7,0.3,0.9h2.3v1.9h-2.2v8.2h-2.7V8.5z"/>
		<path id="XMLID_266_" class="st1" d="M361.5,4.2c0-0.8,0.5-1.2,1.4-1.2c1,0,1.5,0.4,1.5,1.2c0,0.8-0.5,1.2-1.5,1.2
			C362,5.4,361.5,5,361.5,4.2z M361.6,6.6h2.7v10.1h-2.7V6.6z"/>
		<path id="XMLID_264_" class="st1" d="M367.1,6.6h2.5l0.2,0.9c0.4-0.6,1.5-1.2,2.9-1.2c3,0,4.1,1.4,4.1,4.1v6.3h-2.7v-5.8
			c0-1.9-0.5-2.7-2.1-2.7c-1.3,0-2,0.6-2.3,1v7.5h-2.7V6.6z"/>
		<path id="XMLID_261_" class="st1" d="M383.7,14.1c0-2.1,1.8-2.9,4.9-3.3l1.7-0.2c0-1.8-0.9-2.3-2.6-2.3c-1.7,0-3,0.8-3.6,1.9V7.7
			c0.4-0.6,1.6-1.4,4-1.4c3.1,0,4.8,1.4,4.8,4.3v6.1h-2.4l-0.2-0.9c-0.3,0.6-1.2,1.2-2.8,1.2C385.5,17,383.7,16.1,383.7,14.1z
			 M390.3,12.1l-1.5,0.3c-1.9,0.4-2.5,0.8-2.5,1.6c0,0.8,0.6,1.2,1.6,1.2c1.1,0,2-0.4,2.3-0.9V12.1z"/>
		<path id="XMLID_258_" class="st1" d="M400.6,6.6h2.5l0.2,0.9c0.3-0.5,1.2-1.2,2.9-1.2c2.8,0,4.6,1.4,4.6,5.1s-2.3,5.6-5.1,5.6
			c-0.8,0-1.9-0.1-2.4-0.7v3.9h-2.7V6.6z M408,11.5c0-2-0.7-3.3-2.5-3.3c-1.2,0-1.9,0.4-2.3,0.9v5.2c0.5,0.5,1.3,0.8,2.2,0.8
			C407.3,15.1,408,13.5,408,11.5z"/>
		<path id="XMLID_256_" class="st1" d="M412.9,14.4V2.9h2.7v11.3c0,0.7,0.2,0.9,0.8,0.9c0.5,0,0.9-0.2,1.1-0.5v1.9
			c-0.2,0.2-0.8,0.6-1.8,0.6C413.8,17,412.9,16,412.9,14.4z"/>
		<path id="XMLID_253_" class="st1" d="M418.6,14.1c0-2.1,1.8-2.9,4.9-3.3l1.7-0.2c0-1.8-0.9-2.3-2.6-2.3c-1.7,0-3,0.8-3.6,1.9V7.7
			c0.4-0.6,1.6-1.4,4-1.4c3.1,0,4.8,1.4,4.8,4.3v6.1h-2.4l-0.2-0.9c-0.3,0.6-1.2,1.2-2.8,1.2C420.3,17,418.6,16.1,418.6,14.1z
			 M425.1,12.1l-1.5,0.3c-1.9,0.4-2.5,0.8-2.5,1.6c0,0.8,0.6,1.2,1.6,1.2c1.1,0,2-0.4,2.3-0.9V12.1z"/>
		<path id="XMLID_251_" class="st1" d="M429.9,11.6c0-3.6,2.6-5.4,5.5-5.4c1.5,0,2.7,0.5,3.2,0.9v2.3c-0.7-0.9-1.6-1.2-3-1.2
			c-1.9,0-3,1.2-3,3.3c0,2.1,1.1,3.3,3,3.3c1.4,0,2.4-0.5,3.1-1.3v2.2c-0.5,0.5-1.8,1.2-3.4,1.2C432.1,17,429.9,15.3,429.9,11.6z"/>
		<path id="XMLID_248_" class="st1" d="M440.3,11.6c0-3.6,2.7-5.4,5.3-5.4c2.5,0,5,1,5,4.8v1.3H443c0.1,1.4,1.1,2.6,3.2,2.6
			c2,0,3.2-0.8,3.8-1.4v2.2c-0.6,0.6-1.8,1.3-4,1.3C442.6,17,440.3,15.3,440.3,11.6z M448,10.8L448,10.8c0-1.6-0.8-2.5-2.4-2.5
			c-1.5,0-2.4,1.2-2.5,2.5H448z"/>
		<path id="XMLID_245_" class="st1" d="M455.1,16l-0.4,0.7h-2V2.9h2.7v4.6c0.3-0.5,1.3-1.2,2.9-1.2c2.8,0,4.6,1.4,4.6,5.1
			s-2.3,5.6-5.1,5.6C456.4,17,455.6,16.5,455.1,16z M455.4,14.3c0.5,0.6,1.3,0.8,2.2,0.8c1.8,0,2.6-1.6,2.6-3.6c0-2-0.7-3.3-2.5-3.3
			c-1.1,0-1.9,0.4-2.3,0.9V14.3z"/>
		<path id="XMLID_242_" class="st1" d="M464.4,11.6c0-3.6,2.6-5.4,5.6-5.4c3.1,0,5.3,1.7,5.3,5.4c0,3.7-2.6,5.4-5.5,5.4
			C466.6,17,464.4,15.3,464.4,11.6z M472.6,11.6c0-2-0.9-3.4-2.7-3.4c-1.8,0-2.7,1.4-2.7,3.4c0,2,0.9,3.4,2.7,3.4
			C471.8,15,472.6,13.6,472.6,11.6z"/>
		<path id="XMLID_240_" class="st1" d="M477.3,10.1h5.4v2h-5.4V10.1z"/>
		<path id="XMLID_237_" class="st1" d="M489.6,14.1c0-2.1,1.8-2.9,4.9-3.3l1.7-0.2c0-1.8-0.9-2.3-2.6-2.3c-1.7,0-3,0.8-3.6,1.9V7.7
			c0.4-0.6,1.6-1.4,4-1.4c3.1,0,4.8,1.4,4.8,4.3v6.1h-2.4l-0.2-0.9c-0.3,0.6-1.2,1.2-2.8,1.2C491.4,17,489.6,16.1,489.6,14.1z
			 M496.2,12.1l-1.5,0.3c-1.8,0.4-2.5,0.8-2.5,1.6c0,0.8,0.6,1.2,1.6,1.2c1.1,0,2-0.4,2.3-0.9V12.1z"/>
		<path id="XMLID_235_" class="st1" d="M501.6,6.6h2.5l0.2,0.9c0.4-0.6,1.5-1.2,2.9-1.2c3,0,4.1,1.4,4.1,4.1v6.3h-2.7v-5.8
			c0-1.9-0.5-2.7-2.1-2.7c-1.3,0-2,0.6-2.3,1v7.5h-2.7V6.6z"/>
		<path id="XMLID_232_" class="st1" d="M513.3,11.8c0-3.7,2.1-5.5,5-5.5c0.8,0,1.9,0.1,2.4,0.7V2.9h2.7v13.8H521l-0.2-0.9
			c-0.3,0.5-1.2,1.2-2.9,1.2C515.4,17,513.3,15.4,513.3,11.8z M520.8,8.9c-0.5-0.5-1.3-0.8-2.2-0.8c-1.8,0-2.6,1.6-2.6,3.6
			c0,2,0.7,3.3,2.5,3.3c1.2,0,1.9-0.4,2.3-0.9V8.9z"/>
		<path id="XMLID_230_" class="st1" d="M531.2,2.9h2.7v4.5c0.5-0.6,1.5-1.2,2.9-1.2c3,0,4.1,1.4,4.1,4.1v6.3h-2.7v-5.8
			c0-1.9-0.5-2.7-2.1-2.7c-1.2,0-2,0.5-2.3,1v7.6h-2.7V2.9z"/>
		<path id="XMLID_227_" class="st1" d="M542.9,14.1c0-2.1,1.8-2.9,4.9-3.3l1.7-0.2c0-1.8-0.9-2.3-2.6-2.3c-1.7,0-3,0.8-3.6,1.9V7.7
			c0.4-0.6,1.6-1.4,4-1.4c3.1,0,4.8,1.4,4.8,4.3v6.1h-2.4l-0.2-0.9c-0.3,0.6-1.2,1.2-2.8,1.2C544.6,17,542.9,16.1,542.9,14.1z
			 M549.5,12.1l-1.5,0.3c-1.8,0.4-2.5,0.8-2.5,1.6c0,0.8,0.6,1.2,1.6,1.2c1.1,0,2-0.4,2.3-0.9V12.1z"/>
		<path id="XMLID_225_" class="st1" d="M554.7,14.4V2.9h2.7v11.3c0,0.7,0.2,0.9,0.8,0.9c0.5,0,0.9-0.2,1.1-0.5v1.9
			c-0.2,0.2-0.8,0.6-1.8,0.6C555.6,17,554.7,16,554.7,14.4z"/>
		<path id="XMLID_222_" class="st1" d="M560.4,11.6c0-3.6,2.6-5.4,5.6-5.4c3.1,0,5.3,1.7,5.3,5.4c0,3.7-2.6,5.4-5.5,5.4
			C562.6,17,560.4,15.3,560.4,11.6z M568.6,11.6c0-2-0.9-3.4-2.7-3.4c-1.8,0-2.7,1.4-2.7,3.4c0,2,0.9,3.4,2.7,3.4
			C567.8,15,568.6,13.6,568.6,11.6z"/>
		<path id="XMLID_219_" class="st1" d="M573.5,6.6h2.5l0.2,0.9c0.3-0.5,1.2-1.2,2.9-1.2c2.8,0,4.6,1.4,4.6,5.1s-2.3,5.6-5.1,5.6
			c-0.8,0-1.9-0.1-2.4-0.7v3.9h-2.7V6.6z M580.9,11.5c0-2-0.7-3.3-2.5-3.3c-1.2,0-1.9,0.4-2.3,0.9v5.2c0.5,0.5,1.3,0.8,2.2,0.8
			C580.2,15.1,580.9,13.5,580.9,11.5z"/>
		<path id="XMLID_216_" class="st1" d="M585.2,11.6c0-3.6,2.7-5.4,5.3-5.4c2.5,0,5,1,5,4.8v1.3h-7.6c0.1,1.4,1.1,2.6,3.2,2.6
			c2,0,3.2-0.8,3.8-1.4v2.2c-0.6,0.6-1.8,1.3-4,1.3C587.5,17,585.2,15.3,585.2,11.6z M592.9,10.8L592.9,10.8c0-1.6-0.8-2.5-2.4-2.5
			c-1.5,0-2.4,1.2-2.5,2.5H592.9z"/>
		<path id="XMLID_214_" class="st1" d="M597.6,6.6h2.3l0.2,1.4c0.1-1.1,1.1-1.7,2.2-1.7c0.6,0,1,0.2,1.2,0.3v2.1
			c-0.3-0.2-0.7-0.3-1.3-0.3c-0.9,0-1.5,0.4-1.9,1v7.3h-2.7V6.6z"/>
		<path id="XMLID_211_" class="st1" d="M605.1,4.2c0-0.8,0.5-1.2,1.4-1.2s1.5,0.4,1.5,1.2c0,0.8-0.5,1.2-1.5,1.2S605.1,5,605.1,4.2z
			 M605.3,6.6h2.7v10.1h-2.7V6.6z"/>
		<path id="XMLID_208_" class="st1" d="M610.1,11.8c0-3.7,2.1-5.5,5-5.5c0.8,0,1.9,0.1,2.4,0.7V2.9h2.7v13.8h-2.5l-0.2-0.9
			c-0.3,0.5-1.2,1.2-2.9,1.2C612.1,17,610.1,15.4,610.1,11.8z M617.6,8.9c-0.5-0.5-1.3-0.8-2.2-0.8c-1.8,0-2.6,1.6-2.6,3.6
			c0,2,0.7,3.3,2.5,3.3c1.2,0,1.9-0.4,2.3-0.9V8.9z"/>
		<path id="XMLID_205_" class="st1" d="M622.4,11.6c0-3.6,2.6-5.4,5.6-5.4c3.1,0,5.3,1.7,5.3,5.4c0,3.7-2.6,5.4-5.5,5.4
			C624.6,17,622.4,15.3,622.4,11.6z M630.6,11.6c0-2-0.9-3.4-2.7-3.4c-1.8,0-2.7,1.4-2.7,3.4c0,2,0.9,3.4,2.7,3.4
			C629.7,15,630.6,13.6,630.6,11.6z"/>
		<path id="XMLID_203_" class="st1" d="M635.4,14.4V2.9h2.7v11.3c0,0.7,0.2,0.9,0.8,0.9c0.5,0,0.9-0.2,1.1-0.5v1.9
			c-0.2,0.2-0.8,0.6-1.8,0.6C636.3,17,635.4,16,635.4,14.4z"/>
		<path id="XMLID_201_" class="st1" d="M641.2,10.1h5.4v2h-5.4V10.1z"/>
		<path id="XMLID_199_" class="st1" d="M648.6,11.6c0-3.6,2.6-5.4,5.5-5.4c1.5,0,2.7,0.5,3.2,0.9v2.3c-0.7-0.9-1.6-1.2-3-1.2
			c-1.9,0-3,1.2-3,3.3c0,2.1,1.1,3.3,3,3.3c1.4,0,2.4-0.5,3.1-1.3v2.2c-0.5,0.5-1.8,1.2-3.4,1.2C650.8,17,648.6,15.3,648.6,11.6z"/>
		<path id="XMLID_196_" class="st1" d="M659,11.6c0-3.6,2.6-5.4,5.6-5.4c3.1,0,5.3,1.7,5.3,5.4c0,3.7-2.6,5.4-5.5,5.4
			C661.2,17,659,15.3,659,11.6z M667.2,11.6c0-2-0.9-3.4-2.7-3.4c-1.8,0-2.7,1.4-2.7,3.4c0,2,0.9,3.4,2.7,3.4
			C666.3,15,667.2,13.6,667.2,11.6z"/>
		<path id="XMLID_194_" class="st1" d="M672.1,6.6h2.5l0.2,0.9c0.4-0.6,1.5-1.2,2.9-1.2c3,0,4.1,1.4,4.1,4.1v6.3h-2.7v-5.8
			c0-1.9-0.5-2.7-2.1-2.7c-1.3,0-2,0.6-2.3,1v7.5h-2.7V6.6z"/>
		<path id="XMLID_192_" class="st1" d="M684.9,14V8.5h-1.4V7.8l1.1-1.2l2.1-2.4h0.9v2.4h2.8v1.9h-2.8v5.4c0,0.8,0.3,1.2,1,1.2
			c0.8,0,1.4-0.4,1.8-1v2.1c-0.3,0.4-1.1,0.8-2.4,0.8C685.8,17,684.9,15.9,684.9,14z"/>
		<path id="XMLID_190_" class="st1" d="M692.5,6.6h2.3L695,8c0.1-1.1,1.1-1.7,2.2-1.7c0.6,0,1,0.2,1.2,0.3v2.1
			c-0.3-0.2-0.7-0.3-1.3-0.3c-0.9,0-1.5,0.4-1.9,1v7.3h-2.7V6.6z"/>
		<path id="XMLID_187_" class="st1" d="M699.3,11.6c0-3.6,2.6-5.4,5.6-5.4c3.1,0,5.3,1.7,5.3,5.4c0,3.7-2.6,5.4-5.5,5.4
			C701.5,17,699.3,15.3,699.3,11.6z M707.4,11.6c0-2-0.9-3.4-2.7-3.4c-1.8,0-2.7,1.4-2.7,3.4c0,2,0.9,3.4,2.7,3.4
			C706.6,15,707.4,13.6,707.4,11.6z"/>
		<path id="XMLID_185_" class="st1" d="M712.2,14.4V2.9h2.7v11.3c0,0.7,0.2,0.9,0.8,0.9c0.5,0,0.9-0.2,1.1-0.5v1.9
			c-0.2,0.2-0.8,0.6-1.8,0.6C713.1,17,712.2,16,712.2,14.4z"/>
		<path id="XMLID_183_" class="st1" d="M718.5,14.4V2.9h2.7v11.3c0,0.7,0.2,0.9,0.8,0.9c0.5,0,0.9-0.2,1.1-0.5v1.9
			c-0.2,0.2-0.8,0.6-1.8,0.6C719.3,17,718.5,16,718.5,14.4z"/>
		<path id="XMLID_180_" class="st1" d="M724.1,11.6c0-3.6,2.7-5.4,5.3-5.4c2.5,0,5,1,5,4.8v1.3h-7.6c0.1,1.4,1.1,2.6,3.2,2.6
			c2,0,3.2-0.8,3.8-1.4v2.2c-0.6,0.6-1.8,1.3-4,1.3C726.4,17,724.1,15.3,724.1,11.6z M731.8,10.8L731.8,10.8c0-1.6-0.8-2.5-2.4-2.5
			c-1.5,0-2.4,1.2-2.5,2.5H731.8z"/>
		<path id="XMLID_177_" class="st1" d="M736,11.8c0-3.7,2.1-5.5,5-5.5c0.8,0,1.9,0.1,2.4,0.7V2.9h2.7v13.8h-2.5l-0.2-0.9
			c-0.3,0.5-1.2,1.2-2.9,1.2C738,17,736,15.4,736,11.8z M743.5,8.9c-0.5-0.5-1.3-0.8-2.2-0.8c-1.8,0-2.6,1.6-2.6,3.6
			c0,2,0.7,3.3,2.5,3.3c1.2,0,1.9-0.4,2.3-0.9V8.9z"/>
		<path id="XMLID_175_" class="st1" d="M754.3,14V8.5H753V7.8l1.1-1.2l2.1-2.4h0.9v2.4h2.8v1.9H757v5.4c0,0.8,0.3,1.2,1,1.2
			c0.8,0,1.4-0.4,1.8-1v2.1c-0.3,0.4-1.1,0.8-2.4,0.8C755.2,17,754.3,15.9,754.3,14z"/>
		<path id="XMLID_173_" class="st1" d="M761.9,6.6h2.3l0.2,1.4c0.1-1.1,1.1-1.7,2.2-1.7c0.6,0,1,0.2,1.2,0.3v2.1
			c-0.3-0.2-0.7-0.3-1.3-0.3c-0.9,0-1.5,0.4-1.9,1v7.3h-2.7V6.6z"/>
		<path id="XMLID_170_" class="st1" d="M769.3,4.2c0-0.8,0.5-1.2,1.4-1.2s1.5,0.4,1.5,1.2c0,0.8-0.5,1.2-1.5,1.2S769.3,5,769.3,4.2z
			 M769.5,6.6h2.7v10.1h-2.7V6.6z"/>
		<path id="XMLID_167_" class="st1" d="M774.3,14.1c0-2.1,1.8-2.9,4.9-3.3l1.7-0.2c0-1.8-0.9-2.3-2.6-2.3c-1.7,0-3,0.8-3.6,1.9V7.7
			c0.4-0.6,1.6-1.4,4-1.4c3.1,0,4.8,1.4,4.8,4.3v6.1h-2.4l-0.2-0.9c-0.3,0.6-1.2,1.2-2.8,1.2C776,17,774.3,16.1,774.3,14.1z
			 M780.9,12.1l-1.5,0.3c-1.8,0.4-2.5,0.8-2.5,1.6c0,0.8,0.6,1.2,1.6,1.2c1.1,0,2-0.4,2.3-0.9V12.1z"/>
		<path id="XMLID_165_" class="st1" d="M786.1,14.4V2.9h2.7v11.3c0,0.7,0.2,0.9,0.8,0.9c0.5,0,0.9-0.2,1.1-0.5v1.9
			c-0.2,0.2-0.8,0.6-1.8,0.6C787,17,786.1,16,786.1,14.4z"/>
		<path id="XMLID_162_" class="st1" d="M6,26.2C6,25.4,6.5,25,7.4,25c1,0,1.5,0.4,1.5,1.2c0,0.8-0.5,1.2-1.5,1.2
			C6.5,27.4,6,27,6,26.2z M6.1,28.6h2.7v10.1H6.1V28.6z"/>
		<path id="XMLID_160_" class="st1" d="M11.6,28.6H14l0.2,0.9c0.4-0.6,1.5-1.2,2.9-1.2c3,0,4.1,1.4,4.1,4.1v6.3h-2.7v-5.8
			c0-1.9-0.5-2.7-2.1-2.7c-1.3,0-2,0.6-2.3,1v7.5h-2.7V28.6z"/>
		<path id="XMLID_157_" class="st1" d="M28.8,28.6h2.5l0.2,0.9c0.3-0.5,1.2-1.2,2.9-1.2c2.8,0,4.6,1.4,4.6,5.1S36.7,39,33.9,39
			c-0.8,0-1.9-0.1-2.4-0.7v3.9h-2.7V28.6z M36.3,33.5c0-2-0.7-3.3-2.5-3.3c-1.2,0-1.9,0.4-2.3,0.9v5.2c0.5,0.5,1.3,0.8,2.2,0.8
			C35.5,37.1,36.3,35.5,36.3,33.5z"/>
		<path id="XMLID_154_" class="st1" d="M40.6,36.1c0-2.1,1.8-2.9,4.9-3.3l1.7-0.2c0-1.8-0.9-2.3-2.6-2.3c-1.7,0-3,0.8-3.6,1.9v-2.4
			c0.4-0.6,1.6-1.4,4-1.4c3.1,0,4.8,1.4,4.8,4.3v6.1h-2.4l-0.2-0.9C46.9,38.4,46,39,44.4,39C42.3,39,40.6,38.1,40.6,36.1z
			 M47.2,34.1l-1.5,0.3c-1.9,0.4-2.5,0.8-2.5,1.6c0,0.8,0.6,1.2,1.6,1.2c1.1,0,2-0.4,2.3-0.9V34.1z"/>
		<path id="XMLID_152_" class="st1" d="M53,36v-5.5h-1.4v-0.6l1.1-1.2l2.1-2.4h0.9v2.4h2.8v1.9h-2.8v5.4c0,0.8,0.3,1.2,1,1.2
			c0.8,0,1.4-0.4,1.8-1v2.1c-0.3,0.4-1.1,0.8-2.4,0.8C53.9,39,53,37.9,53,36z"/>
		<path id="XMLID_149_" class="st1" d="M60.4,26.2c0-0.8,0.5-1.2,1.4-1.2c1,0,1.5,0.4,1.5,1.2c0,0.8-0.5,1.2-1.5,1.2
			C60.9,27.4,60.4,27,60.4,26.2z M60.5,28.6h2.7v10.1h-2.7V28.6z"/>
		<path id="XMLID_146_" class="st1" d="M65.3,33.6c0-3.6,2.7-5.4,5.3-5.4c2.5,0,5,1,5,4.8v1.3h-7.6c0.1,1.4,1.1,2.6,3.2,2.6
			c2,0,3.2-0.8,3.8-1.4v2.2c-0.6,0.6-1.8,1.3-4,1.3C67.6,39,65.3,37.3,65.3,33.6z M73,32.7L73,32.7c0-1.6-0.8-2.5-2.4-2.5
			c-1.5,0-2.4,1.2-2.5,2.5H73z"/>
		<path id="XMLID_144_" class="st1" d="M77.8,28.6h2.5l0.2,0.9c0.4-0.6,1.5-1.2,2.9-1.2c3,0,4.1,1.4,4.1,4.1v6.3h-2.7v-5.8
			c0-1.9-0.5-2.7-2.1-2.7c-1.3,0-2,0.6-2.3,1v7.5h-2.7V28.6z"/>
		<path id="XMLID_142_" class="st1" d="M90.6,36v-5.5h-1.4v-0.6l1.1-1.2l2.1-2.4h0.9v2.4H96v1.9h-2.8v5.4c0,0.8,0.3,1.2,1,1.2
			c0.8,0,1.4-0.4,1.8-1v2.1c-0.3,0.4-1.1,0.8-2.4,0.8C91.5,39,90.6,37.9,90.6,36z"/>
		<path id="XMLID_140_" class="st1" d="M97.7,38.1v-2.3c0.7,0.7,1.7,1.2,3.2,1.2s2.1-0.5,2.1-1.2c0-0.7-0.3-0.9-1.7-1.2l-0.6-0.1
			c-2.1-0.3-3.2-1.3-3.2-3.1c0-1.7,1.4-3.2,4.4-3.2c1.5,0,2.7,0.4,3.3,0.9v2.3c-0.7-0.8-1.7-1.3-3.2-1.3c-1.5,0-2,0.5-2,1.1
			c0,0.6,0.3,1,1.7,1.2l0.6,0.1c2.2,0.4,3.4,1.1,3.4,3c0,1.7-1.5,3.4-4.6,3.4C99.5,39,98.3,38.6,97.7,38.1z"/>
		<path id="XMLID_138_" class="st1" d="M111.7,28.6h2.6l1.7,6l2.5-6h1.1l2.5,6l1.6-6h2.4l-3,10.1h-1.6l-2.6-6.1l-2.7,6.1h-1.6
			L111.7,28.6z"/>
		<path id="XMLID_135_" class="st1" d="M128,26.2c0-0.8,0.5-1.2,1.4-1.2c1,0,1.5,0.4,1.5,1.2c0,0.8-0.5,1.2-1.5,1.2
			C128.5,27.4,128,27,128,26.2z M128.1,28.6h2.7v10.1h-2.7V28.6z"/>
		<path id="XMLID_133_" class="st1" d="M134,36v-5.5h-1.4v-0.6l1.1-1.2l2.1-2.4h0.9v2.4h2.8v1.9h-2.8v5.4c0,0.8,0.3,1.2,1,1.2
			c0.8,0,1.4-0.4,1.8-1v2.1c-0.3,0.4-1.1,0.8-2.4,0.8C134.9,39,134,37.9,134,36z"/>
		<path id="XMLID_131_" class="st1" d="M141.6,24.9h2.7v4.5c0.5-0.6,1.5-1.2,2.9-1.2c3,0,4.1,1.4,4.1,4.1v6.3h-2.7v-5.8
			c0-1.9-0.5-2.7-2.1-2.7c-1.2,0-2,0.5-2.3,1v7.6h-2.7V24.9z"/>
		<path id="XMLID_128_" class="st1" d="M158.2,36.1c0-2.1,1.8-2.9,4.9-3.3l1.7-0.2c0-1.8-0.9-2.3-2.6-2.3c-1.7,0-3,0.8-3.6,1.9v-2.4
			c0.4-0.6,1.6-1.4,4-1.4c3.1,0,4.8,1.4,4.8,4.3v6.1H165l-0.2-0.9c-0.3,0.6-1.2,1.2-2.8,1.2C159.9,39,158.2,38.1,158.2,36.1z
			 M164.8,34.1l-1.5,0.3c-1.9,0.4-2.5,0.8-2.5,1.6c0,0.8,0.6,1.2,1.6,1.2c1.1,0,2-0.4,2.3-0.9V34.1z"/>
		<path id="XMLID_126_" class="st1" d="M169.5,33.6c0-3.6,2.6-5.4,5.5-5.4c1.5,0,2.7,0.5,3.2,0.9v2.3c-0.7-0.9-1.6-1.2-3-1.2
			c-1.9,0-3,1.2-3,3.3c0,2.1,1.1,3.3,3,3.3c1.4,0,2.4-0.5,3.1-1.3v2.2c-0.5,0.5-1.8,1.2-3.4,1.2C171.7,39,169.5,37.3,169.5,33.6z"/>
		<path id="XMLID_124_" class="st1" d="M180.5,34.9v-6.3h2.7v5.8c0,1.9,0.4,2.7,2,2.7c1.3,0,1.9-0.6,2.2-1v-7.6h2.7v10.1h-2.5
			l-0.2-0.9c-0.4,0.6-1.4,1.2-2.9,1.2C181.5,39,180.5,37.6,180.5,34.9z"/>
		<path id="XMLID_122_" class="st1" d="M193.2,36v-5.5h-1.4v-0.6l1.1-1.2l2.1-2.4h0.9v2.4h2.8v1.9h-2.8v5.4c0,0.8,0.3,1.2,1,1.2
			c0.8,0,1.4-0.4,1.8-1v2.1c-0.3,0.4-1.1,0.8-2.4,0.8C194.1,39,193.2,37.9,193.2,36z"/>
		<path id="XMLID_119_" class="st1" d="M200.1,33.6c0-3.6,2.7-5.4,5.3-5.4c2.5,0,5,1,5,4.8v1.3h-7.6c0.1,1.4,1.1,2.6,3.2,2.6
			c2,0,3.2-0.8,3.8-1.4v2.2c-0.6,0.6-1.8,1.3-4,1.3C202.4,39,200.1,37.3,200.1,33.6z M207.8,32.7L207.8,32.7c0-1.6-0.8-2.5-2.4-2.5
			c-1.5,0-2.4,1.2-2.5,2.5H207.8z"/>
		<path id="XMLID_116_" class="st1" d="M216.8,33.6c0-3.6,2.7-5.4,5.3-5.4c2.5,0,5,1,5,4.8v1.3h-7.6c0.1,1.4,1.1,2.6,3.2,2.6
			c2,0,3.2-0.8,3.8-1.4v2.2c-0.6,0.6-1.8,1.3-4,1.3C219.1,39,216.8,37.3,216.8,33.6z M224.5,32.7L224.5,32.7c0-1.6-0.8-2.5-2.4-2.5
			c-1.5,0-2.4,1.2-2.5,2.5H224.5z"/>
		<path id="XMLID_114_" class="st1" d="M231.9,33.4l-3.6-4.8h2.9l2.4,3.1l2.1-3.1h2.7l-3.7,4.7l4.1,5.4h-2.9l-2.7-3.6l-2.5,3.6h-2.7
			L231.9,33.4z"/>
		<path id="XMLID_111_" class="st1" d="M239.7,36.1c0-2.1,1.8-2.9,4.9-3.3l1.7-0.2c0-1.8-0.9-2.3-2.6-2.3c-1.7,0-3,0.8-3.6,1.9v-2.4
			c0.4-0.6,1.6-1.4,4-1.4c3.1,0,4.8,1.4,4.8,4.3v6.1h-2.4l-0.2-0.9c-0.3,0.6-1.2,1.2-2.8,1.2C241.4,39,239.7,38.1,239.7,36.1z
			 M246.3,34.1l-1.5,0.3c-1.9,0.4-2.5,0.8-2.5,1.6c0,0.8,0.6,1.2,1.6,1.2c1.1,0,2-0.4,2.3-0.9V34.1z"/>
		<path id="XMLID_109_" class="st1" d="M251,33.6c0-3.6,2.6-5.4,5.5-5.4c1.5,0,2.7,0.5,3.2,0.9v2.3c-0.7-0.9-1.6-1.2-3-1.2
			c-1.9,0-3,1.2-3,3.3c0,2.1,1.1,3.3,3,3.3c1.4,0,2.4-0.5,3.1-1.3v2.2c-0.5,0.5-1.8,1.2-3.4,1.2C253.2,39,251,37.3,251,33.6z"/>
		<path id="XMLID_106_" class="st1" d="M261.4,33.6c0-3.6,2.7-5.4,5.3-5.4c2.5,0,5,1,5,4.8v1.3h-7.6c0.1,1.4,1.1,2.6,3.2,2.6
			c2,0,3.2-0.8,3.8-1.4v2.2c-0.6,0.6-1.8,1.3-4,1.3C263.7,39,261.4,37.3,261.4,33.6z M269.1,32.7L269.1,32.7c0-1.6-0.8-2.5-2.4-2.5
			c-1.5,0-2.4,1.2-2.5,2.5H269.1z"/>
		<path id="XMLID_104_" class="st1" d="M273.8,28.6h2.3l0.2,1.4c0.1-1.1,1.1-1.7,2.2-1.7c0.6,0,1,0.2,1.2,0.3v2.1
			c-0.3-0.2-0.7-0.3-1.3-0.3c-0.9,0-1.5,0.4-1.9,1v7.3h-2.7V28.6z"/>
		<path id="XMLID_101_" class="st1" d="M283.9,38l-0.4,0.7h-2V24.9h2.7v4.6c0.3-0.5,1.3-1.2,2.9-1.2c2.8,0,4.6,1.4,4.6,5.1
			s-2.3,5.6-5.1,5.6C285.1,39,284.3,38.5,283.9,38z M284.1,36.3c0.5,0.6,1.3,0.8,2.2,0.8c1.9,0,2.6-1.6,2.6-3.6c0-2-0.7-3.3-2.5-3.3
			c-1.1,0-1.9,0.4-2.3,0.9V36.3z"/>
		<path id="XMLID_98_" class="st1" d="M293.2,36.1c0-2.1,1.8-2.9,4.9-3.3l1.7-0.2c0-1.8-0.9-2.3-2.6-2.3c-1.7,0-3,0.8-3.6,1.9v-2.4
			c0.4-0.6,1.6-1.4,4-1.4c3.1,0,4.8,1.4,4.8,4.3v6.1H300l-0.2-0.9c-0.3,0.6-1.2,1.2-2.8,1.2C294.9,39,293.2,38.1,293.2,36.1z
			 M299.8,34.1l-1.5,0.3c-1.9,0.4-2.5,0.8-2.5,1.6c0,0.8,0.6,1.2,1.6,1.2c1.1,0,2-0.4,2.3-0.9V34.1z"/>
		<path id="XMLID_96_" class="st1" d="M305.6,36v-5.5h-1.4v-0.6l1.1-1.2l2.1-2.4h0.9v2.4h2.8v1.9h-2.8v5.4c0,0.8,0.3,1.2,1,1.2
			c0.8,0,1.4-0.4,1.8-1v2.1c-0.3,0.4-1.1,0.8-2.4,0.8C306.5,39,305.6,37.9,305.6,36z"/>
		<path id="XMLID_93_" class="st1" d="M313,26.2c0-0.8,0.5-1.2,1.4-1.2c1,0,1.5,0.4,1.5,1.2c0,0.8-0.5,1.2-1.5,1.2
			C313.5,27.4,313,27,313,26.2z M313.1,28.6h2.7v10.1h-2.7V28.6z"/>
		<path id="XMLID_90_" class="st1" d="M318,33.6c0-3.6,2.6-5.4,5.6-5.4c3.1,0,5.3,1.7,5.3,5.4c0,3.7-2.6,5.4-5.5,5.4
			C320.2,39,318,37.3,318,33.6z M326.1,33.6c0-2-0.9-3.4-2.7-3.4c-1.8,0-2.7,1.4-2.7,3.4c0,2,0.9,3.4,2.7,3.4
			C325.3,37,326.1,35.6,326.1,33.6z"/>
		<path id="XMLID_88_" class="st1" d="M331,28.6h2.5l0.2,0.9c0.4-0.6,1.5-1.2,2.9-1.2c3,0,4.1,1.4,4.1,4.1v6.3H338v-5.8
			c0-1.9-0.5-2.7-2.1-2.7c-1.3,0-2,0.6-2.3,1v7.5H331V28.6z"/>
		<path id="XMLID_85_" class="st1" d="M347.7,33.6c0-3.6,2.6-5.4,5.6-5.4c3.1,0,5.3,1.7,5.3,5.4c0,3.7-2.6,5.4-5.5,5.4
			C349.9,39,347.7,37.3,347.7,33.6z M355.9,33.6c0-2-0.9-3.4-2.7-3.4c-1.8,0-2.7,1.4-2.7,3.4c0,2,0.9,3.4,2.7,3.4
			C355,37,355.9,35.6,355.9,33.6z"/>
		<path id="XMLID_83_" class="st1" d="M361.2,30.5h-1.4v-0.6l1.3-1c-0.2-0.3-0.3-0.8-0.3-1.4c0-1.8,1.7-2.8,3.8-2.8
			c1.4,0,2.2,0.3,2.5,0.6v2.2c-0.4-0.6-1.1-0.9-2-0.9c-1,0-1.6,0.4-1.6,1.2c0,0.4,0.1,0.7,0.3,0.9h2.3v1.9h-2.2v8.2h-2.7V30.5z"/>
		<path id="XMLID_81_" class="st1" d="M372.4,38.1v-2.3c0.7,0.7,1.7,1.2,3.2,1.2s2.1-0.5,2.1-1.2c0-0.7-0.3-0.9-1.7-1.2l-0.6-0.1
			c-2.1-0.3-3.2-1.3-3.2-3.1c0-1.7,1.4-3.2,4.4-3.2c1.5,0,2.7,0.4,3.3,0.9v2.3c-0.7-0.8-1.7-1.3-3.2-1.3c-1.5,0-2,0.5-2,1.1
			c0,0.6,0.3,1,1.7,1.2l0.6,0.1c2.2,0.4,3.4,1.1,3.4,3c0,1.7-1.5,3.4-4.6,3.4C374.1,39,373,38.6,372.4,38.1z"/>
		<path id="XMLID_79_" class="st1" d="M381.8,33.6c0-3.6,2.6-5.4,5.5-5.4c1.5,0,2.7,0.5,3.2,0.9v2.3c-0.7-0.9-1.6-1.2-3-1.2
			c-1.9,0-3,1.2-3,3.3c0,2.1,1.1,3.3,3,3.3c1.4,0,2.4-0.5,3.1-1.3v2.2c-0.5,0.5-1.8,1.2-3.4,1.2C384.1,39,381.8,37.3,381.8,33.6z"/>
		<path id="XMLID_77_" class="st1" d="M392.9,24.9h2.7v4.5c0.5-0.6,1.5-1.2,2.9-1.2c3,0,4.1,1.4,4.1,4.1v6.3h-2.7v-5.8
			c0-1.9-0.5-2.7-2.1-2.7c-1.2,0-2,0.5-2.3,1v7.6h-2.7V24.9z"/>
		<path id="XMLID_74_" class="st1" d="M405.1,26.2c0-0.8,0.5-1.2,1.4-1.2c1,0,1.5,0.4,1.5,1.2c0,0.8-0.5,1.2-1.5,1.2
			C405.6,27.4,405.1,27,405.1,26.2z M405.2,28.6h2.7v10.1h-2.7V28.6z"/>
		<path id="XMLID_72_" class="st1" d="M410,38l5.1-7.6H410v-1.9h8.4v0.6l-5,7.6h5v1.9H410V38z"/>
		<path id="XMLID_69_" class="st1" d="M419.9,33.6c0-3.6,2.6-5.4,5.6-5.4c3.1,0,5.3,1.7,5.3,5.4c0,3.7-2.6,5.4-5.5,5.4
			C422.1,39,419.9,37.3,419.9,33.6z M428,33.6c0-2-0.9-3.4-2.7-3.4c-1.8,0-2.7,1.4-2.7,3.4c0,2,0.9,3.4,2.7,3.4
			C427.2,37,428,35.6,428,33.6z"/>
		<path id="XMLID_66_" class="st1" d="M432.9,28.6h2.5l0.2,0.9c0.3-0.5,1.2-1.2,2.9-1.2c2.8,0,4.6,1.4,4.6,5.1S440.7,39,438,39
			c-0.8,0-1.9-0.1-2.4-0.7v3.9h-2.7V28.6z M440.3,33.5c0-2-0.7-3.3-2.5-3.3c-1.2,0-1.9,0.4-2.3,0.9v5.2c0.5,0.5,1.3,0.8,2.2,0.8
			C439.6,37.1,440.3,35.5,440.3,33.5z"/>
		<path id="XMLID_64_" class="st1" d="M445.3,24.9h2.7v4.5c0.5-0.6,1.5-1.2,2.9-1.2c3,0,4.1,1.4,4.1,4.1v6.3h-2.7v-5.8
			c0-1.9-0.5-2.7-2.1-2.7c-1.2,0-2,0.5-2.3,1v7.6h-2.7V24.9z"/>
		<path id="XMLID_62_" class="st1" d="M457.6,28.6h2.3l0.2,1.4c0.1-1.1,1.1-1.7,2.2-1.7c0.6,0,1,0.2,1.2,0.3v2.1
			c-0.3-0.2-0.7-0.3-1.3-0.3c-0.9,0-1.5,0.4-1.9,1v7.3h-2.7V28.6z"/>
		<path id="XMLID_59_" class="st1" d="M464.4,33.6c0-3.6,2.7-5.4,5.3-5.4c2.5,0,5,1,5,4.8v1.3h-7.6c0.1,1.4,1.1,2.6,3.2,2.6
			c2,0,3.2-0.8,3.8-1.4v2.2c-0.6,0.6-1.8,1.3-4,1.3C466.7,39,464.4,37.3,464.4,33.6z M472.1,32.7L472.1,32.7c0-1.6-0.8-2.5-2.4-2.5
			c-1.5,0-2.4,1.2-2.5,2.5H472.1z"/>
		<path id="XMLID_57_" class="st1" d="M476.8,28.6h2.5l0.2,0.9c0.4-0.6,1.5-1.2,2.9-1.2c3,0,4.1,1.4,4.1,4.1v6.3h-2.7v-5.8
			c0-1.9-0.5-2.7-2.1-2.7c-1.3,0-2,0.6-2.3,1v7.5h-2.7V28.6z"/>
		<path id="XMLID_54_" class="st1" d="M489,26.2c0-0.8,0.5-1.2,1.4-1.2s1.5,0.4,1.5,1.2c0,0.8-0.5,1.2-1.5,1.2S489,27,489,26.2z
			 M489.2,28.6h2.7v10.1h-2.7V28.6z"/>
		<path id="XMLID_51_" class="st1" d="M494,36.1c0-2.1,1.8-2.9,4.9-3.3l1.7-0.2c0-1.8-0.9-2.3-2.6-2.3c-1.7,0-3,0.8-3.6,1.9v-2.4
			c0.4-0.6,1.6-1.4,4-1.4c3.1,0,4.8,1.4,4.8,4.3v6.1h-2.4l-0.2-0.9c-0.3,0.6-1.2,1.2-2.8,1.2C495.7,39,494,38.1,494,36.1z
			 M500.6,34.1l-1.5,0.3c-1.8,0.4-2.5,0.8-2.5,1.6c0,0.8,0.6,1.2,1.6,1.2c1.1,0,2-0.4,2.3-0.9V34.1z"/>
		<path id="XMLID_49_" class="st1" d="M505.5,37.5c0-0.9,0.7-1.5,1.6-1.5c1,0,1.6,0.6,1.6,1.5c0,0.9-0.7,1.5-1.6,1.5
			C506.1,39,505.5,38.4,505.5,37.5z"/>
	</g>
</g>
<g id="XMLID_1_">
	<path id="XMLID_45_" class="st2" d="M280.8,14.2h6.4c1,0,1.4-0.2,1.4-0.7c0-0.5-0.3-0.6-1-0.7c-3-0.3-3.9-1.1-3.9-3.1
		c0-2,1.3-3.3,4.2-3.3c1.8,0,2.6,0.2,3.2,0.5v2.6c-0.9-0.4-2-0.6-3.1-0.6c-0.9,0-1.3,0.2-1.3,0.7c0,0.5,0.3,0.6,1,0.7
		c3,0.3,3.9,1.1,3.9,3.1c0,1.8-1.1,3.3-4.4,3.3h-5.9"/>
	<path id="XMLID_42_" class="st2" d="M295.1,12.6c-0.1,1.3,0.6,1.6,2.1,1.6c1.4,0,2.5-0.3,3.2-0.6V16c-1.1,0.5-2.5,0.7-3.6,0.7
		c-3.2,0-4.7-1.6-4.7-5.1c0-3.5,1.5-5.1,4.5-5.1c4.1,0,4.4,3.1,4.2,6.1H295.1z M295.1,10.7h2.7c0.2-1.1-0.1-1.9-1.2-1.9
		C295.6,8.8,295.1,9.5,295.1,10.7"/>
	<path id="XMLID_41_" class="st2" d="M303.5,6.7l0.4,0.7c1.1-0.7,2.3-1,3.4-1c2.6,0,3.4,1.4,3.4,3.2v6.7h-3.1v-6.2
		c0-0.7-0.3-1.2-1.1-1.2c-0.8,0-1.4,0.3-1.7,0.5v6.9h-3.1V6.7H303.5z"/>
	<path id="XMLID_38_" class="st2" d="M316.6,9.6c0-0.4-0.3-0.7-1.1-0.7c-1.2,0-2.6,0.4-3.5,0.7V7.1c0.7-0.3,2.1-0.6,3.5-0.6
		c3.5,0,4.1,1.5,4.1,3.6v6.3h-1.9l-0.4-0.7c-0.7,0.6-1.7,1-2.8,1c-2.4,0-3.3-1.6-3.3-3.1c0-2.6,1.9-3,3.6-3.2l1.8-0.2V9.6z
		 M315.3,12.1c-0.9,0.1-1.2,0.5-1.2,1.3c0,0.7,0.5,1.1,1.1,1.1c0.6,0,1.1-0.2,1.4-0.5v-2.1L315.3,12.1z"/>
	<path id="XMLID_35_" class="st2" d="M322.5,6.7l0.5,0.8c0.7-0.6,1.6-1,3.1-1c2.5,0,3.7,1.5,3.7,5.1c0,3.5-1.2,5.1-3.7,5.1
		c-1.1,0-1.8-0.3-2.4-0.6v5.2h-3.1V6.7H322.5z M323.7,13.8c0,0,0.6,0.4,1.4,0.4c1.4,0,1.7-1,1.7-2.6c0-1.7-0.3-2.6-1.7-2.6
		c-0.8,0-1.4,0.4-1.4,0.4V13.8z"/>
	<path id="XMLID_34_" class="st2" d="M334.6,16.5c0,0-0.4,0.1-0.9,0.1c-1.7,0-3-0.8-3-2.7V6.7h3.1v6.6c0,0.4,0.2,0.6,0.8,0.6V16.5z"
		/>
	<path id="XMLID_33_" class="st2" d="M337.2,6.7l0.4,0.7c1.1-0.7,2.3-1,3.4-1c2.6,0,3.4,1.4,3.4,3.2v6.7h-3.1v-6.2
		c0-0.7-0.3-1.2-1.1-1.2c-0.8,0-1.4,0.3-1.7,0.5v6.9h-3.1V6.7H337.2z"/>
	<path id="XMLID_30_" class="st2" d="M348,12.6c-0.1,1.3,0.6,1.6,2.1,1.6c1.4,0,2.5-0.3,3.2-0.6V16c-1.1,0.5-2.5,0.7-3.6,0.7
		c-3.2,0-4.7-1.6-4.7-5.1c0-3.5,1.5-5.1,4.5-5.1c4.1,0,4.4,3.1,4.2,6.1H348z M348,10.7h2.7c0.2-1.1-0.1-1.9-1.2-1.9
		C348.4,8.8,348,9.5,348,10.7"/>
	<polyline id="XMLID_29_" class="st2" points="277.6,13.4 278.2,11 280.1,11 278.8,5.5 277.6,11 277,13.4 276.3,16.4 273,16.4 
		277.1,1.9 280.6,1.9 284.6,16.4 281.3,16.4 280.7,13.4 	"/>
	<g id="XMLID_7_">
		<polygon id="XMLID_28_" class="st2" points="326.8,21 326.8,19.3 325,19.3 325,21 324.6,21 324.6,17.4 325,17.4 325,19 326.8,19 
			326.8,17.4 327.1,17.4 327.1,21 		"/>
		<path id="XMLID_25_" class="st2" d="M328,17.7c0.1,0,0.2,0.1,0.2,0.2c0,0.1-0.1,0.2-0.2,0.2c-0.1,0-0.2-0.1-0.2-0.2
			C327.8,17.8,327.9,17.7,328,17.7 M327.9,20.6v-1.9h0.3v2c0,0.2,0.1,0.2,0.2,0.2v0.3C328.1,21.1,327.9,21,327.9,20.6"/>
		<polygon id="XMLID_24_" class="st2" points="329.8,19.6 331,21 330.5,21 329.6,19.8 329.3,20.1 329.3,21 329,21 329,17.4 
			329.3,17.4 329.3,19.7 330.4,18.6 330.8,18.6 		"/>
		<path id="XMLID_23_" class="st2" d="M334.2,19.3c0-0.3-0.2-0.4-0.5-0.4c-0.3,0-0.5,0.1-0.7,0.2c0,0.1,0,0.2,0,0.3V21h-0.3v-1.8
			c0-0.3-0.2-0.4-0.5-0.4c-0.3,0-0.4,0-0.6,0.1v2h-0.3v-2.4h0.2l0.1,0.2c0.2-0.2,0.5-0.2,0.7-0.2c0.3,0,0.6,0.1,0.7,0.3
			c0.3-0.2,0.5-0.3,0.8-0.3c0.5,0,0.8,0.2,0.8,0.7V21h-0.3V19.3z"/>
		<path id="XMLID_20_" class="st2" d="M336,18.9c-0.3,0-0.5,0.1-0.7,0.1v-0.3c0.2-0.1,0.5-0.1,0.7-0.1c0.7,0,0.9,0.3,0.9,0.8V21
			h-0.2l-0.1-0.2c-0.2,0.2-0.5,0.2-0.7,0.2c-0.6,0-0.8-0.4-0.8-0.8c0-0.4,0.2-0.7,0.9-0.8l0.6,0v-0.1C336.6,19,336.5,18.9,336,18.9
			 M335.9,19.8c-0.3,0-0.5,0.2-0.5,0.5c0,0.2,0.1,0.5,0.5,0.5c0.3,0,0.4-0.1,0.6-0.2v-0.8L335.9,19.8z"/>
		<path id="XMLID_17_" class="st2" d="M338.8,21h-0.3v-3.6h1.1c0.9,0,1.2,0.5,1.2,1.1c0,0.6-0.3,1.1-1.2,1.1h-0.8V21z M338.8,19.3
			h0.8c0.7,0,0.8-0.4,0.8-0.8c0-0.3-0.1-0.8-0.8-0.8h-0.8V19.3z"/>
		<path id="XMLID_16_" class="st2" d="M342.2,18.9c-0.3,0-0.5,0.1-0.7,0.2v2h-0.3v-3.6h0.3v1.4c0.2-0.1,0.4-0.2,0.7-0.2
			c0.6,0,0.8,0.3,0.8,0.7V21h-0.3v-1.8C342.7,19,342.5,18.9,342.2,18.9"/>
		<path id="XMLID_13_" class="st2" d="M344.5,18.9c-0.3,0-0.5,0.1-0.7,0.1v-0.3c0.2-0.1,0.5-0.1,0.7-0.1c0.7,0,0.9,0.3,0.9,0.8V21
			h-0.2l-0.1-0.2c-0.2,0.2-0.5,0.2-0.7,0.2c-0.6,0-0.8-0.4-0.8-0.8c0-0.4,0.2-0.7,0.9-0.8l0.6,0v-0.1C345.1,19,345,18.9,344.5,18.9
			 M344.4,19.8c-0.3,0-0.5,0.2-0.5,0.5c0,0.2,0.1,0.5,0.5,0.5c0.3,0,0.4-0.1,0.6-0.2v-0.8L344.4,19.8z"/>
		<path id="XMLID_12_" class="st2" d="M347.4,18.9c-0.1,0-0.2,0-0.3,0c-0.3,0-0.5,0.1-0.7,0.2v2h-0.3v-2.4h0.2l0.1,0.2
			c0.2-0.2,0.5-0.2,0.8-0.2c0.1,0,0.2,0,0.3,0V18.9z"/>
		<path id="XMLID_11_" class="st2" d="M350.7,19.3c0-0.3-0.2-0.4-0.5-0.4c-0.3,0-0.5,0.1-0.7,0.2c0,0.1,0,0.2,0,0.3V21h-0.3v-1.8
			c0-0.3-0.2-0.4-0.5-0.4c-0.3,0-0.4,0-0.6,0.1v2h-0.3v-2.4h0.2l0.1,0.2c0.2-0.2,0.5-0.2,0.7-0.2c0.3,0,0.6,0.1,0.7,0.3
			c0.3-0.2,0.5-0.3,0.7-0.3c0.5,0,0.8,0.2,0.8,0.7V21h-0.3V19.3z"/>
		<path id="XMLID_8_" class="st2" d="M352.5,18.9c-0.3,0-0.5,0.1-0.7,0.1v-0.3c0.2-0.1,0.5-0.1,0.7-0.1c0.7,0,0.9,0.3,0.9,0.8V21
			h-0.2l-0.1-0.2c-0.2,0.2-0.5,0.2-0.7,0.2c-0.6,0-0.8-0.4-0.8-0.8c0-0.4,0.2-0.7,0.9-0.8l0.6,0v-0.1
			C353.1,19,352.9,18.9,352.5,18.9 M352.4,19.8c-0.3,0-0.5,0.2-0.5,0.5c0,0.2,0.1,0.5,0.5,0.5c0.3,0,0.4-0.1,0.6-0.2v-0.8
			L352.4,19.8z"/>
	</g>
	<g id="XMLID_2_">
		<path id="XMLID_6_" class="st2" d="M333.4,1.3c-0.4,0-0.8,0.1-1.1,0.3c0.1,0.1,0.3,0.2,0.4,0.3c0.8,0.2,1.4,0.9,1.4,1.8
			c0,0.9-0.6,1.6-1.4,1.8c-0.1,0.1-0.3,0.2-0.4,0.3c0.3,0.2,0.7,0.3,1.1,0.3c1.3,0,2.3-1,2.3-2.3C335.7,2.4,334.7,1.3,333.4,1.3z"/>
		<path id="XMLID_5_" class="st3" d="M330.4,3.7c0-0.9,0.6-1.6,1.4-1.8c0.1-0.1,0.3-0.2,0.4-0.3c-0.3-0.2-0.7-0.3-1.1-0.3
			c-1.3,0-2.3,1-2.3,2.3c0,1.3,1,2.3,2.3,2.3c0.4,0,0.8-0.1,1.1-0.3c-0.2-0.1-0.3-0.2-0.4-0.3C331,5.3,330.4,4.6,330.4,3.7z"/>
		<path id="XMLID_4_" class="st3" d="M332.3,5.5c-0.2,0-0.3,0-0.4-0.1c0.1,0.1,0.3,0.2,0.4,0.3c0.2-0.1,0.3-0.2,0.4-0.3
			C332.5,5.5,332.4,5.5,332.3,5.5z"/>
		<path id="XMLID_3_" class="st3" d="M332.3,1.9c0.1,0,0.3,0,0.4,0c-0.1-0.1-0.3-0.2-0.4-0.3c-0.1,0.1-0.3,0.2-0.4,0.3
			C332,1.9,332.1,1.9,332.3,1.9z"/>
	</g>
</g>
</svg>
