<!-- Generator: Adobe Illustrator 22.1.0, SVG Export Plug-In  -->
<svg version="1.1"
	 xmlns="http://www.w3.org/2000/svg" xmlns:xlink="http://www.w3.org/1999/xlink" xmlns:a="http://ns.adobe.com/AdobeSVGViewerExtensions/3.0/"
	 x="0px" y="0px" width="623.8px" height="366.3px" viewBox="0 0 623.8 366.3" style="enable-background:new 0 0 623.8 366.3;"
	 xml:space="preserve">
<style type="text/css">
	.st0{fill:#0C3B60;}
	.st1{fill:none;stroke:#113B60;stroke-width:0.5746;stroke-miterlimit:10;}
	.st2{fill:#669552;}
	.st3{fill:#8B3C96;}
	.st4{fill:#808184;}
	.st5{fill:none;stroke:#8B3C95;stroke-width:2.652;stroke-miterlimit:10;}
	.st6{fill:url(#XMLID_336_);}
	.st7{fill:#FFFFFF;}
	.st8{font-family:'Altis-Medium';}
	.st9{font-size:7.4615px;}
	.st10{fill:#490E67;}
	.st11{fill:#C29FD8;}
	.st12{fill:url(#XMLID_337_);}
</style>
<defs>
</defs>
<g id="XMLID_325_">
	<g id="XMLID_327_">
		<path id="XMLID_330_" class="st0" d="M21.4,56.2l3-4.1c0.6-0.8,1.1-1.6,1.1-2.5c0-1.1-0.5-1.7-1.7-1.7c-1,0-2,0.6-2.5,1.3v-1.8
			c0.5-0.5,1.5-1.1,2.8-1.1c2.3,0,3.2,1.2,3.2,3.1c0,1.6-1,3-1.9,4.1l-0.9,1.2h3v1.7h-6.1V56.2z"/>
		<path id="XMLID_328_" class="st0" d="M28.8,56.1v-1.8c0.4,0.3,1,0.7,2.1,0.7c1.4,0,2.1-0.6,2.1-1.6c0-0.9-0.5-1.5-2.1-1.5
			c-0.8,0-1.4,0.2-1.8,0.4l0.2-5.9h5.4v1.6h-3.8l-0.1,2.4c0.1,0,0.5-0.1,0.8-0.1c2.1,0,3.3,0.9,3.3,2.9c0,2-1.7,3.3-3.9,3.3
			C29.8,56.6,29.2,56.3,28.8,56.1z"/>
	</g>
</g>
<g id="XMLID_312_">
	<g id="XMLID_314_">
		<path id="XMLID_318_" class="st0" d="M19.6,101l3-4.1c0.6-0.8,1.1-1.6,1.1-2.5c0-1.1-0.5-1.7-1.7-1.7c-1,0-2,0.6-2.5,1.3v-1.8
			c0.5-0.5,1.5-1.1,2.8-1.1c2.3,0,3.2,1.2,3.2,3.1c0,1.6-1,3-1.9,4.1l-0.9,1.2h3v1.7h-6.1V101z"/>
		<path id="XMLID_315_" class="st0" d="M26.9,96.2c0-3.3,2.4-5.2,4.9-5.2c3,0,4.9,1.8,4.9,5.2c0,3.3-2.3,5.2-4.9,5.2
			C28.9,101.4,26.9,99.6,26.9,96.2z M34.8,96.2c0-2.4-1.3-3.6-3-3.6c-1.7,0-3,1.2-3,3.6c0,2.4,1.3,3.6,3,3.6
			C33.5,99.8,34.8,98.6,34.8,96.2z"/>
	</g>
</g>
<g id="XMLID_301_">
	<g id="XMLID_303_">
		<path id="XMLID_306_" class="st0" d="M24.2,139.5c-0.4,0.4-1.3,0.5-2.2,0.5v-1.6c1.4,0,2.5-0.4,3.2-1.3H26v9.9h-1.8V139.5z"/>
		<path id="XMLID_304_" class="st0" d="M27.8,146.8v-1.8c0.4,0.3,1,0.7,2.1,0.7c1.4,0,2.1-0.6,2.1-1.6c0-0.9-0.5-1.5-2.1-1.5
			c-0.8,0-1.4,0.2-1.8,0.4l0.2-5.9h5.4v1.6h-3.8l-0.1,2.4c0.1,0,0.5-0.1,0.8-0.1c2.1,0,3.3,0.9,3.3,2.9c0,2-1.7,3.3-3.9,3.3
			C28.8,147.2,28.2,147,27.8,146.8z"/>
	</g>
</g>
<g id="XMLID_288_">
	<g id="XMLID_290_">
		<path id="XMLID_294_" class="st0" d="M22.4,187.8c-0.4,0.4-1.3,0.5-2.2,0.5v-1.6c1.4,0,2.5-0.4,3.2-1.3h0.9v9.9h-1.8V187.8z"/>
		<path id="XMLID_291_" class="st0" d="M25.9,190.3c0-3.3,2.4-5.2,4.9-5.2c3,0,4.9,1.8,4.9,5.2c0,3.3-2.3,5.2-4.9,5.2
			C27.9,195.5,25.9,193.6,25.9,190.3z M33.8,190.3c0-2.4-1.3-3.6-3-3.6c-1.7,0-3,1.2-3,3.6c0,2.4,1.3,3.6,3,3.6
			C32.6,193.9,33.8,192.6,33.8,190.3z"/>
	</g>
</g>
<g id="XMLID_281_">
	<g id="XMLID_283_">
		<path id="XMLID_284_" class="st0" d="M25.1,240.3v-1.8c0.4,0.3,1,0.7,2.1,0.7c1.4,0,2.1-0.6,2.1-1.6c0-0.9-0.5-1.5-2.1-1.5
			c-0.8,0-1.4,0.2-1.8,0.4l0.2-5.9H31v1.6h-3.8l-0.1,2.4c0.1,0,0.5-0.1,0.8-0.1c2.1,0,3.3,0.9,3.3,2.9c0,2-1.7,3.3-3.9,3.3
			C26.1,240.8,25.5,240.6,25.1,240.3z"/>
	</g>
</g>
<g id="XMLID_272_">
	<g id="XMLID_274_">
		<path id="XMLID_275_" class="st0" d="M23.2,280.4c0-3.3,2.4-5.2,4.9-5.2c3,0,4.9,1.8,4.9,5.2c0,3.3-2.3,5.2-4.9,5.2
			C25.2,285.6,23.2,283.8,23.2,280.4z M31.1,280.4c0-2.4-1.3-3.6-3-3.6c-1.7,0-3,1.2-3,3.6c0,2.4,1.3,3.6,3,3.6
			C29.8,284,31.1,282.8,31.1,280.4z"/>
	</g>
</g>
<g id="XMLID_261_">
	<g id="XMLID_263_">
		<path id="XMLID_266_" class="st0" d="M22.5,326.4h3.8v1.6h-3.8V326.4z"/>
		<path id="XMLID_264_" class="st0" d="M27.9,331.5v-1.8c0.4,0.3,1,0.7,2.1,0.7c1.4,0,2.1-0.6,2.1-1.6c0-0.9-0.5-1.5-2.1-1.5
			c-0.8,0-1.4,0.2-1.8,0.4l0.2-5.9h5.4v1.6H30l-0.1,2.4c0.1,0,0.5-0.1,0.8-0.1c2.1,0,3.3,0.9,3.3,2.9c0,2-1.7,3.3-3.9,3.3
			C28.9,331.9,28.2,331.7,27.9,331.5z"/>
	</g>
</g>
<line id="XMLID_260_" class="st1" x1="54.5" y1="49.5" x2="54.5" y2="331.7"/>
<line id="XMLID_259_" class="st1" x1="45.8" y1="51.5" x2="54.1" y2="51.5"/>
<line id="XMLID_258_" class="st1" x1="45.8" y1="96.3" x2="54.1" y2="96.3"/>
<line id="XMLID_257_" class="st1" x1="45.8" y1="142.1" x2="54.1" y2="142.1"/>
<line id="XMLID_256_" class="st1" x1="45.8" y1="187.9" x2="54.1" y2="187.9"/>
<line id="XMLID_255_" class="st1" x1="45.8" y1="234.7" x2="54.1" y2="234.7"/>
<line id="XMLID_254_" class="st1" x1="45.8" y1="280.5" x2="54.1" y2="280.5"/>
<line id="XMLID_253_" class="st1" x1="619.8" y1="280.4" x2="51.8" y2="280.4"/>
<rect id="XMLID_252_" x="488.7" y="85.1" class="st2" width="75.5" height="195.4"/>
<rect id="XMLID_249_" x="299.7" y="280.4" class="st3" width="75.5" height="22.4"/>
<rect id="XMLID_248_" x="111.6" y="281.1" class="st4" width="75.5" height="31.7"/>
<g id="XMLID_188_">
	<path id="XMLID_245_" class="st2" d="M459.6,299.5h-0.1v3.7h-1.9v-9.9h2.8c2.3,0,3.9,0.8,3.9,2.9c0,1.7-1,2.8-2.6,3.1l3.4,3.8h-2.3
		L459.6,299.5z M460.4,298.2c1.2,0,1.9-0.6,1.9-1.7c0-1.1-0.7-1.6-1.9-1.6h-0.9v3.3H460.4z"/>
	<path id="XMLID_242_" class="st2" d="M466,293.3c0-0.6,0.3-1,1-1s1.1,0.3,1.1,1c0,0.6-0.4,0.9-1.1,0.9S466,293.9,466,293.3z
		 M466.1,295.2h1.9v8h-1.9V295.2z"/>
	<path id="XMLID_240_" class="st2" d="M469.6,302.7v-1.8c0.5,0.5,1.2,1,2.3,1c1.1,0,1.5-0.4,1.5-0.9c0-0.5-0.2-0.7-1.2-0.9l-0.4-0.1
		c-1.5-0.3-2.3-1-2.3-2.5c0-1.4,1-2.6,3.1-2.6c1.1,0,1.9,0.3,2.3,0.7v1.8c-0.5-0.6-1.2-1-2.3-1c-1,0-1.4,0.4-1.4,0.9
		c0,0.5,0.2,0.8,1.2,0.9l0.4,0.1c1.6,0.3,2.4,0.9,2.4,2.4c0,1.4-1,2.7-3.3,2.7C470.9,303.4,470,303.1,469.6,302.7z"/>
	<path id="XMLID_237_" class="st2" d="M476.8,295.2h1.7l0.1,0.7c0.2-0.4,0.8-0.9,2.1-0.9c2,0,3.3,1.1,3.3,4c0,2.9-1.6,4.5-3.6,4.5
		c-0.6,0-1.4-0.1-1.7-0.5v3.1h-1.9V295.2z M482,299.1c0-1.6-0.5-2.6-1.8-2.6c-0.8,0-1.4,0.3-1.6,0.7v4.1c0.3,0.4,0.9,0.6,1.5,0.6
		C481.5,301.9,482,300.6,482,299.1z"/>
	<path id="XMLID_234_" class="st2" d="M485.1,299.2c0-2.9,1.9-4.2,3.7-4.2c1.8,0,3.5,0.8,3.5,3.8v1.1H487c0.1,1.1,0.8,2.1,2.3,2.1
		c1.4,0,2.3-0.6,2.7-1.1v1.7c-0.4,0.5-1.3,1-2.9,1C486.7,303.4,485.1,302.1,485.1,299.2z M490.5,298.5L490.5,298.5
		c0-1.3-0.6-2-1.7-2c-1.1,0-1.7,1-1.8,2H490.5z"/>
	<path id="XMLID_232_" class="st2" d="M493.9,295.2h1.6l0.1,1.1c0.1-0.9,0.8-1.4,1.6-1.4c0.4,0,0.7,0.1,0.8,0.2v1.7
		c-0.2-0.1-0.5-0.2-0.9-0.2c-0.7,0-1.1,0.3-1.3,0.8v5.8h-1.9V295.2z"/>
	<path id="XMLID_229_" class="st2" d="M499.2,293.3c0-0.6,0.3-1,1-1c0.7,0,1.1,0.3,1.1,1c0,0.6-0.4,0.9-1.1,0.9
		C499.5,294.2,499.2,293.9,499.2,293.3z M499.2,295.2h1.9v8h-1.9V295.2z"/>
	<path id="XMLID_226_" class="st2" d="M502.7,299.3c0-2.9,1.5-4.4,3.6-4.4c0.6,0,1.4,0.1,1.7,0.5v-3.2h1.9v11h-1.7l-0.1-0.7
		c-0.2,0.4-0.8,0.9-2,0.9C504.1,303.4,502.7,302.2,502.7,299.3z M508,297c-0.3-0.4-0.9-0.6-1.5-0.6c-1.3,0-1.8,1.3-1.8,2.9
		c0,1.6,0.5,2.6,1.8,2.6c0.8,0,1.4-0.3,1.6-0.7V297z"/>
	<path id="XMLID_223_" class="st2" d="M511.4,299.2c0-2.9,1.8-4.2,3.9-4.2c2.2,0,3.8,1.4,3.8,4.2c0,2.9-1.8,4.2-3.9,4.2
		C512.9,303.4,511.4,302.1,511.4,299.2z M517.2,299.2c0-1.6-0.6-2.7-1.9-2.7c-1.3,0-1.9,1.1-1.9,2.7c0,1.6,0.6,2.7,1.9,2.7
		C516.6,301.9,517.2,300.8,517.2,299.2z"/>
	<path id="XMLID_221_" class="st2" d="M520.6,295.2h1.7l0.1,0.7c0.3-0.5,1-0.9,2.1-0.9c2.1,0,2.9,1.1,2.9,3.3v5h-1.9v-4.6
		c0-1.5-0.4-2.2-1.5-2.2c-0.9,0-1.4,0.5-1.6,0.8v6h-1.9V295.2z"/>
	<path id="XMLID_218_" class="st2" d="M528.9,299.2c0-2.9,1.9-4.2,3.7-4.2c1.8,0,3.5,0.8,3.5,3.8v1.1h-5.4c0.1,1.1,0.8,2.1,2.3,2.1
		c1.4,0,2.3-0.6,2.7-1.1v1.7c-0.4,0.5-1.3,1-2.9,1C530.5,303.4,528.9,302.1,528.9,299.2z M534.4,298.5L534.4,298.5
		c0-1.3-0.6-2-1.7-2c-1.1,0-1.7,1-1.8,2H534.4z"/>
	<path id="XMLID_216_" class="st2" d="M540.9,303v-1.8c0.4,0.4,1,0.7,1.9,0.7c1.7,0,2.3-0.6,2.3-1.6c0-0.9-0.5-1.5-2.1-1.5h-0.7
		v-0.2l2-3.6h-3.5v-1.6h6.1v0.2l-2.2,3.9c1.3,0.2,2.3,0.9,2.3,2.8c0,1.6-1.2,3.3-4.1,3.3C541.9,303.4,541.3,303.2,540.9,303z"/>
	<path id="XMLID_214_" class="st2" d="M552.2,295.2h1.8l0.1,0.7c0.3-0.5,1-0.9,1.9-0.9c1.2,0,1.9,0.4,2.3,1.2
		c0.3-0.5,1.1-1.2,2.3-1.2c1.9,0,2.7,1.1,2.7,3.3v5h-1.9v-4.6c0-1.5-0.4-2.2-1.3-2.2c-0.7,0-1.3,0.4-1.6,0.8c0.1,0.3,0.1,0.7,0.1,1
		v5h-1.9v-4.6c0-1.5-0.4-2.2-1.3-2.2c-0.7,0-1.3,0.4-1.5,0.8v6h-1.9V295.2z"/>
	<path id="XMLID_211_" class="st2" d="M564.9,305.4v-1.6c0.7,0.5,1.8,0.9,3.3,0.9c1.8,0,2.7-0.3,2.7-1c0-0.6-0.6-0.8-1.8-0.8
		c-1.1,0-2.8,0.2-3.4,0.5v-1.4l1.1-1.8c-1.1-0.4-1.8-1.3-1.8-2.6c0-1.8,1.4-2.8,3.4-2.8c0.9,0,1.6,0.2,2.2,0.6
		c0.3-0.4,0.9-0.6,1.5-0.6c0.2,0,0.4,0,0.6,0.1v1.5c-0.1-0.1-0.3-0.1-0.5-0.1c-0.3,0-0.6,0.1-0.8,0.2c0.1,0.3,0.2,0.7,0.2,1.1
		c0,1.8-1.4,2.8-3.4,2.8H568l-0.7,1.2c0.3-0.1,1.3-0.2,2.1-0.2c2,0,3.2,0.5,3.2,2.1c0,1.6-1.5,2.7-4.3,2.7
		C566.8,306.2,565.6,305.9,564.9,305.4z M569.8,297.7c0-0.9-0.6-1.4-1.5-1.4c-0.9,0-1.5,0.5-1.5,1.4c0,0.9,0.6,1.4,1.5,1.4
		C569.2,299.1,569.8,298.6,569.8,297.7z"/>
	<path id="XMLID_207_" class="st2" d="M577.4,293.3h2.9c2.7,0,3.8,0.9,3.8,2.5c0,1.4-0.8,2.1-1.9,2.3v0c1.2,0.2,2,0.8,2,2.3
		c0,1.6-1.1,2.8-3.9,2.8h-3V293.3z M580.4,297.4c1.5,0,1.9-0.5,1.9-1.3c0-0.8-0.6-1.2-1.9-1.2h-1.1v2.5H580.4z M580.5,301.6
		c1.5,0,1.9-0.5,1.9-1.4c0-0.9-0.5-1.4-1.9-1.4h-1.2v2.7H580.5z"/>
	<path id="XMLID_204_" class="st2" d="M585.8,293.3c0-0.6,0.3-1,1-1c0.7,0,1.1,0.3,1.1,1c0,0.6-0.4,0.9-1.1,0.9
		C586.2,294.2,585.8,293.9,585.8,293.3z M585.9,295.2h1.9v8h-1.9V295.2z"/>
	<path id="XMLID_201_" class="st2" d="M589.4,299.3c0-2.9,1.5-4.4,3.6-4.4c0.6,0,1.4,0.1,1.7,0.5v-3.2h1.9v11h-1.7l-0.1-0.7
		c-0.2,0.4-0.8,0.9-2,0.9C590.8,303.4,589.4,302.2,589.4,299.3z M594.7,297c-0.3-0.4-0.9-0.6-1.5-0.6c-1.3,0-1.8,1.3-1.8,2.9
		c0,1.6,0.5,2.6,1.8,2.6c0.8,0,1.4-0.3,1.6-0.7V297z"/>
	<path id="XMLID_199_" class="st2" d="M505.4,311.6l-0.6-0.9h2.2l4.5,6.4h0v-6.4h1.7v9.9h-1.4l-4.8-6.7h0v6.7h-1.7V311.6z"/>
	<path id="XMLID_196_" class="st2" d="M515.3,313.1h6.2v1.6h-6.2V313.1z M515.3,316.3h6.2v1.6h-6.2V316.3z"/>
	<path id="XMLID_194_" class="st2" d="M524.9,313.2c-0.4,0.4-1.3,0.5-2.2,0.5v-1.6c1.4,0,2.5-0.4,3.2-1.3h0.9v9.9h-1.8V313.2z"/>
	<path id="XMLID_192_" class="st2" d="M528.5,320.5l3-4.1c0.6-0.8,1.1-1.6,1.1-2.5c0-1.1-0.5-1.7-1.7-1.7c-1,0-2,0.6-2.5,1.3v-1.8
		c0.5-0.5,1.5-1.1,2.8-1.1c2.3,0,3.2,1.2,3.2,3.1c0,1.6-1,3-1.9,4.1l-0.9,1.2h3v1.7h-6.1V320.5z"/>
	<path id="XMLID_189_" class="st2" d="M535.8,315.7c0-3.3,2.4-5.2,4.9-5.2c3,0,4.9,1.8,4.9,5.2c0,3.3-2.3,5.2-4.9,5.2
		C537.8,320.9,535.8,319,535.8,315.7z M543.7,315.7c0-2.4-1.3-3.6-3-3.6c-1.7,0-3,1.2-3,3.6c0,2.4,1.3,3.6,3,3.6
		C542.4,319.3,543.7,318,543.7,315.7z"/>
</g>
<g id="XMLID_156_">
	<path id="XMLID_186_" class="st4" d="M123.3,318.9h2.9c2.9,0,4.1,1.2,4.1,3.2c0,2-1.2,3.6-4.1,3.6h-0.5v-1.5h0.5
		c1.5,0,2.2-0.8,2.2-1.9c0-1.2-0.7-1.9-2.2-1.9h-0.9v8.4h-1.9V318.9z"/>
	<path id="XMLID_184_" class="st4" d="M131.5,327v-9.1h1.9v8.9c0,0.5,0.2,0.7,0.6,0.7c0.4,0,0.6-0.2,0.8-0.4v1.5
		c-0.1,0.2-0.5,0.5-1.3,0.5C132.1,329.1,131.5,328.3,131.5,327z"/>
	<path id="XMLID_181_" class="st4" d="M135.5,326.8c0-1.7,1.3-2.3,3.5-2.6l1.2-0.2c0-1.4-0.7-1.8-1.8-1.8c-1.2,0-2.1,0.6-2.5,1.5
		v-1.9c0.3-0.5,1.1-1.1,2.9-1.1c2.2,0,3.4,1.1,3.4,3.4v4.9h-1.7l-0.1-0.7c-0.2,0.5-0.9,0.9-2,0.9
		C136.7,329.1,135.5,328.4,135.5,326.8z M140.1,325.2l-1.1,0.2c-1.3,0.3-1.7,0.6-1.7,1.3s0.5,1,1.2,1c0.8,0,1.4-0.3,1.6-0.7V325.2z"
		/>
	<path id="XMLID_179_" class="st4" d="M143.5,324.8c0-2.9,1.8-4.2,3.9-4.2c1.1,0,1.9,0.4,2.3,0.7v1.8c-0.5-0.7-1.1-1-2.1-1
		c-1.3,0-2.1,1-2.1,2.6c0,1.7,0.8,2.6,2.1,2.6c1,0,1.7-0.4,2.2-1v1.7c-0.3,0.4-1.3,0.9-2.4,0.9C145.1,329.1,143.5,327.7,143.5,324.8
		z"/>
	<path id="XMLID_176_" class="st4" d="M150.9,324.8c0-2.9,1.9-4.2,3.7-4.2c1.8,0,3.5,0.8,3.5,3.8v1.1h-5.4c0.1,1.1,0.8,2.1,2.3,2.1
		c1.4,0,2.3-0.6,2.7-1.1v1.7c-0.4,0.5-1.3,1-2.9,1C152.5,329.1,150.9,327.7,150.9,324.8z M156.3,324.1L156.3,324.1
		c0-1.3-0.6-2-1.7-2c-1.1,0-1.7,1-1.8,2H156.3z"/>
	<path id="XMLID_173_" class="st4" d="M161.4,328.3l-0.3,0.5h-1.4v-11h1.9v3.6c0.2-0.4,0.9-0.9,2.1-0.9c2,0,3.3,1.1,3.3,4
		s-1.6,4.5-3.6,4.5C162.2,329.1,161.7,328.7,161.4,328.3z M161.5,327c0.4,0.5,0.9,0.6,1.5,0.6c1.3,0,1.9-1.3,1.9-2.9
		s-0.5-2.6-1.8-2.6c-0.8,0-1.3,0.3-1.6,0.7V327z"/>
	<path id="XMLID_170_" class="st4" d="M168,324.8c0-2.9,1.8-4.2,3.9-4.2c2.2,0,3.8,1.4,3.8,4.2c0,2.9-1.8,4.2-3.9,4.2
		C169.5,329.1,168,327.7,168,324.8z M173.8,324.8c0-1.6-0.6-2.7-1.9-2.7c-1.3,0-1.9,1.1-1.9,2.7c0,1.6,0.6,2.7,1.9,2.7
		C173.1,327.5,173.8,326.4,173.8,324.8z"/>
	<path id="XMLID_168_" class="st4" d="M128.2,337.3l-0.6-0.9h2.2l4.5,6.4h0v-6.4h1.7v9.9h-1.4l-4.8-6.7h0v6.7h-1.7V337.3z"/>
	<path id="XMLID_165_" class="st4" d="M138.1,338.7h6.2v1.6h-6.2V338.7z M138.1,341.9h6.2v1.6h-6.2V341.9z"/>
	<path id="XMLID_163_" class="st4" d="M153.2,338H149v-1.6h6.5v0.2l-3.4,9.7h-1.9L153.2,338z"/>
	<path id="XMLID_160_" class="st4" d="M156.1,341.3c0-3.3,2.4-5.2,4.9-5.2c3,0,4.9,1.8,4.9,5.2c0,3.3-2.3,5.2-4.9,5.2
		C158.1,346.5,156.1,344.6,156.1,341.3z M164,341.3c0-2.4-1.3-3.6-3-3.6c-1.7,0-3,1.2-3,3.6c0,2.4,1.3,3.6,3,3.6
		C162.7,344.9,164,343.7,164,341.3z"/>
	<path id="XMLID_157_" class="st4" d="M167.1,342.7c0-3.5,2.1-5.5,3.8-6.3h2.6v0.1c-1.8,0.8-3.2,1.8-3.9,3.5
		c0.4-0.2,0.9-0.4,1.6-0.4c2.1,0,3.2,1.3,3.2,3.3c0,2-1.4,3.6-3.7,3.6S167.1,344.9,167.1,342.7z M172.4,343c0-1.1-0.6-1.9-1.7-1.9
		c-0.8,0-1.3,0.3-1.6,0.7c0,0.3-0.1,0.7-0.1,1.1c0,1.2,0.6,2,1.7,2S172.4,344.1,172.4,343z"/>
</g>
<g id="XMLID_80_">
	<path id="XMLID_155_" class="st5" d="M622.5,356.9c0,4.4-4.2,8-9.3,8H10.6c-5.1,0-9.3-3.6-9.3-8V29.2c0-4.4,4.2-8,9.3-8h602.6
		c5.1,0,9.3,3.6,9.3,8V356.9z"/>
	<linearGradient id="XMLID_336_" gradientUnits="userSpaceOnUse" x1="27.2151" y1="19.3471" x2="405.9496" y2="19.3471">
		<stop  offset="0" style="stop-color:#C3A0CB"/>
		<stop  offset="1" style="stop-color:#4A2365"/>
	</linearGradient>
	<path id="XMLID_154_" class="st6" d="M405.9,11.2c0-6.2-5-11.2-11.2-11.2H38.4c-6.2,0-11.2,5-11.2,11.2v16.3
		c0,6.2,5,11.2,11.2,11.2h356.3c6.2,0,11.2-5,11.2-11.2V11.2z"/>
	<g id="XMLID_81_">
		<g id="XMLID_83_">
			<path id="XMLID_117_" class="st7" d="M105.1,7.5h6.9c6.1,0,8.7,2.5,8.7,6.9c0,4.4-2.6,7.7-8.7,7.7h-1v-3.7h0.9
				c2.5,0,3.7-1.3,3.7-3.6c0-2.3-1.2-3.5-3.7-3.5h-1.7v16.7h-5V7.5z"/>
			<path id="XMLID_115_" class="st7" d="M123,11.4h4l0.4,2.2c0.2-1.7,1.6-2.7,3.2-2.7c0.9,0,1.4,0.2,1.7,0.4v4.5
				c-0.4-0.3-1-0.5-1.9-0.5c-1.2,0-2,0.5-2.5,1.3v11.4H123V11.4z"/>
			<path id="XMLID_112_" class="st7" d="M133.5,19.7c0-6.1,4-8.8,8.6-8.8c4.8,0,8.2,2.7,8.2,8.8c0,6.2-4,8.8-8.6,8.8
				C136.9,28.5,133.5,25.9,133.5,19.7z M145.3,19.7c0-2.9-1-4.8-3.4-4.8c-2.3,0-3.4,1.9-3.4,4.8c0,2.9,1,4.8,3.4,4.8
				C144.2,24.5,145.3,22.6,145.3,19.7z"/>
			<path id="XMLID_110_" class="st7" d="M152.8,23.9V5.4h4.9v17.9c0,0.9,0.3,1.3,1,1.3c0.7,0,1.2-0.3,1.4-0.7v3.8
				c-0.4,0.4-1.4,0.9-2.9,0.9C154.3,28.5,152.8,26.9,152.8,23.9z"/>
			<path id="XMLID_107_" class="st7" d="M161.6,23.7c0-3.4,2.3-4.7,7-5.5l2.4-0.4c0-2.2-1.1-3-3.3-3c-2.4,0-4.6,1.2-5.4,3v-4.7
				c0.7-1,2.5-2.2,6.2-2.2c4.8,0,7.4,2.1,7.4,7.1v10h-4.3l-0.4-1.4c-0.4,0.9-1.8,1.9-4.1,1.9C164,28.5,161.6,27,161.6,23.7z
				 M171.1,20.9l-1.9,0.4c-2.2,0.5-3,1-3,2.2c0,1.1,0.8,1.6,2,1.6c1.3,0,2.4-0.5,2.9-1.1V20.9z"/>
			<path id="XMLID_105_" class="st7" d="M178.5,19.7c0-6.1,3.8-8.8,8.3-8.8c2.4,0,4.2,0.7,4.9,1.4v4.4c-1.1-1.2-2.4-1.7-4.2-1.7
				c-2.6,0-4,1.7-4,4.6c0,3,1.4,4.7,4,4.7c1.9,0,3.2-0.7,4.3-1.8v4.2c-0.8,0.8-2.6,1.8-5.1,1.8C181.9,28.5,178.5,25.8,178.5,19.7z"
				/>
			<path id="XMLID_103_" class="st7" d="M195.5,23.3v-8h-2v-1.8l1.6-2.1l3-3.9h2.3v3.9h3.9v3.8h-3.9v7.6c0,1.2,0.4,1.8,1.4,1.8
				c1.1,0,1.9-0.6,2.4-1.4v4c-0.6,0.7-1.7,1.3-3.8,1.3C196.9,28.5,195.5,26.6,195.5,23.3z"/>
			<path id="XMLID_100_" class="st7" d="M206.8,7.4c0-1.5,0.9-2.3,2.5-2.3c1.6,0,2.6,0.9,2.6,2.3s-1,2.3-2.6,2.3
				C207.7,9.7,206.8,8.9,206.8,7.4z M206.9,11.4h4.9v16.7h-4.9V11.4z"/>
			<path id="XMLID_98_" class="st7" d="M215.3,11.4h4.4l0.4,1.4c0.7-1.1,2.2-1.9,4.4-1.9c4.3,0,6,2.3,6,6.8v10.3h-4.9v-9.5
				c0-2.7-0.7-3.7-2.6-3.7c-1.5,0-2.4,0.7-2.8,1.4v11.9h-4.9V11.4z"/>
			<path id="XMLID_96_" class="st7" d="M241.2,7.5h5v16.3h7.2v4.3h-12.2V7.5z"/>
			<path id="XMLID_93_" class="st7" d="M254.8,19.7c0-6.1,4-8.8,8.1-8.8c4,0,7.7,1.7,7.7,8v2.2h-10.7c0.2,1.9,1.4,3.4,4.5,3.4
				c2.8,0,4.5-1,5.4-1.9v4.1c-0.9,0.8-2.9,1.9-6.2,1.9C258.1,28.5,254.8,25.8,254.8,19.7z M266,18.1v-0.2c0-2-0.9-3.2-3-3.2
				c-1.9,0-3,1.6-3.1,3.3H266z"/>
			<path id="XMLID_91_" class="st7" d="M271.2,11.4h5.3l2.7,7.9l0.5,1.8c0.1-0.5,0.4-1.4,0.5-1.8l2.8-7.9h4.8l-6.7,16.7h-3.3
				L271.2,11.4z"/>
			<path id="XMLID_88_" class="st7" d="M288.3,19.7c0-6.1,4-8.8,8.1-8.8c4,0,7.7,1.7,7.7,8v2.2h-10.7c0.2,1.9,1.4,3.4,4.5,3.4
				c2.8,0,4.5-1,5.4-1.9v4.1c-0.9,0.8-2.9,1.9-6.2,1.9C291.6,28.5,288.3,25.8,288.3,19.7z M299.4,18.1v-0.2c0-2-0.9-3.2-3-3.2
				c-1.9,0-3,1.6-3.1,3.3H299.4z"/>
			<path id="XMLID_86_" class="st7" d="M306.6,23.9V5.4h4.9v17.9c0,0.9,0.3,1.3,1,1.3c0.7,0,1.2-0.3,1.4-0.7v3.8
				c-0.4,0.4-1.4,0.9-2.9,0.9C308.1,28.5,306.6,26.9,306.6,23.9z"/>
			<path id="XMLID_84_" class="st7" d="M315.8,27.2v-4.4c1.1,1,2.7,1.9,4.9,1.9c2.2,0,2.8-0.7,2.8-1.5c0-0.9-0.4-1.2-2.3-1.5
				l-0.8-0.2c-3.5-0.5-5-2.2-5-5.1c0-2.9,2-5.5,6.9-5.5c2.5,0,4.3,0.6,5.2,1.3v4.3c-1.1-1.2-2.8-1.8-5-1.8c-1.9,0-2.6,0.6-2.6,1.4
				c0,0.8,0.4,1.3,2.1,1.5l0.9,0.2c3.7,0.5,5.3,1.9,5.3,5c0,2.9-2,5.7-7.2,5.7C318.4,28.5,316.7,27.9,315.8,27.2z"/>
		</g>
	</g>
</g>
<g id="XMLID_1_">
	<g id="XMLID_33_">
		<text id="XMLID_79_" transform="matrix(1.1216 0 0 1 343.6273 313.9767)" class="st3 st8 st9"> 5 mg BID</text>
		<g id="XMLID_34_">
			<path id="XMLID_78_" class="st10" d="M300.2,312h3.7c0.6,0,0.8-0.1,0.8-0.4c0-0.3-0.2-0.4-0.6-0.4c-1.8-0.2-2.3-0.6-2.3-1.8
				c0-1.1,0.7-1.9,2.5-1.9c1,0,1.5,0.1,1.9,0.3v1.5c-0.5-0.2-1.1-0.4-1.8-0.4c-0.5,0-0.8,0.1-0.8,0.4c0,0.3,0.2,0.4,0.6,0.4
				c1.8,0.2,2.3,0.6,2.3,1.8c0,1.1-0.6,1.9-2.5,1.9h-3.4"/>
			<path id="XMLID_75_" class="st10" d="M308.5,311c0,0.7,0.3,0.9,1.2,0.9c0.8,0,1.5-0.2,1.9-0.4v1.4c-0.6,0.3-1.4,0.4-2.1,0.4
				c-1.8,0-2.7-0.9-2.7-2.9c0-2,0.9-2.9,2.6-2.9c2.4,0,2.6,1.8,2.4,3.5H308.5z M308.5,309.9h1.6c0.1-0.6,0-1.1-0.7-1.1
				C308.7,308.8,308.5,309.2,308.5,309.9"/>
			<path id="XMLID_74_" class="st10" d="M313.3,307.6l0.2,0.4c0.6-0.4,1.3-0.6,1.9-0.6c1.5,0,2,0.8,2,1.9v3.9h-1.8v-3.6
				c0-0.4-0.1-0.7-0.6-0.7c-0.4,0-0.8,0.2-1,0.3v4h-1.8v-5.6H313.3z"/>
			<path id="XMLID_71_" class="st10" d="M320.9,309.3c0-0.3-0.2-0.4-0.7-0.4c-0.7,0-1.5,0.2-2,0.4v-1.5c0.4-0.2,1.2-0.4,2-0.4
				c2,0,2.4,0.9,2.4,2.1v3.6h-1.1l-0.2-0.4c-0.4,0.4-1,0.6-1.6,0.6c-1.4,0-1.9-0.9-1.9-1.8c0-1.5,1.1-1.7,2.1-1.8l1-0.1V309.3z
				 M320.2,310.8c-0.5,0.1-0.7,0.3-0.7,0.7c0,0.4,0.3,0.7,0.6,0.7c0.3,0,0.6-0.1,0.8-0.3v-1.2L320.2,310.8z"/>
			<path id="XMLID_68_" class="st10" d="M324.3,307.6l0.3,0.4c0.4-0.3,0.9-0.6,1.8-0.6c1.5,0,2.2,0.9,2.2,2.9c0,2.1-0.7,2.9-2.2,2.9
				c-0.6,0-1.1-0.2-1.4-0.4v3h-1.8v-8.4H324.3z M325,311.7c0,0,0.3,0.2,0.8,0.2c0.8,0,1-0.6,1-1.5c0-1-0.2-1.5-1-1.5
				c-0.4,0-0.8,0.2-0.8,0.2V311.7z"/>
			<path id="XMLID_67_" class="st10" d="M331.3,313.3c0,0-0.2,0-0.5,0c-1,0-1.7-0.5-1.7-1.6v-4.1h1.8v3.9c0,0.2,0.1,0.3,0.5,0.3
				V313.3z"/>
			<path id="XMLID_66_" class="st10" d="M332.8,307.6l0.2,0.4c0.6-0.4,1.3-0.6,1.9-0.6c1.5,0,2,0.8,2,1.9v3.9h-1.8v-3.6
				c0-0.4-0.1-0.7-0.6-0.7c-0.4,0-0.8,0.2-1,0.3v4h-1.8v-5.6H332.8z"/>
			<path id="XMLID_63_" class="st10" d="M339.1,311c0,0.7,0.3,0.9,1.2,0.9c0.8,0,1.5-0.2,1.9-0.4v1.4c-0.6,0.3-1.4,0.4-2.1,0.4
				c-1.8,0-2.7-0.9-2.7-2.9c0-2,0.9-2.9,2.6-2.9c2.4,0,2.6,1.8,2.4,3.5H339.1z M339.1,309.9h1.6c0.1-0.6,0-1.1-0.7-1.1
				C339.3,308.8,339.1,309.2,339.1,309.9"/>
			<polyline id="XMLID_62_" class="st10" points="298.3,311.5 298.6,310.1 299.7,310.1 299,306.9 298.3,310.1 297.9,311.5 
				297.5,313.2 295.7,313.2 298,304.8 300,304.8 302.4,313.2 300.5,313.2 300.1,311.5 			"/>
			<g id="XMLID_40_">
				<polygon id="XMLID_61_" class="st10" points="326.8,315.9 326.8,314.9 325.7,314.9 325.7,315.9 325.6,315.9 325.6,313.8 
					325.7,313.8 325.7,314.8 326.8,314.8 326.8,313.8 327,313.8 327,315.9 				"/>
				<path id="XMLID_58_" class="st10" d="M327.5,314c0.1,0,0.1,0.1,0.1,0.1c0,0.1-0.1,0.1-0.1,0.1s-0.1-0.1-0.1-0.1
					C327.4,314,327.4,314,327.5,314 M327.4,315.7v-1.1h0.2v1.1c0,0.1,0,0.1,0.1,0.1v0.2C327.5,316,327.4,315.9,327.4,315.7"/>
				<polygon id="XMLID_57_" class="st10" points="328.5,315.1 329.2,315.9 329,315.9 328.4,315.2 328.2,315.4 328.2,315.9 
					328.1,315.9 328.1,313.8 328.2,313.8 328.2,315.2 328.9,314.5 329.1,314.5 				"/>
				<path id="XMLID_56_" class="st10" d="M331.1,314.9c0-0.2-0.1-0.2-0.3-0.2c-0.2,0-0.3,0-0.4,0.1c0,0,0,0.1,0,0.1v1h-0.2v-1
					c0-0.2-0.1-0.2-0.3-0.2c-0.2,0-0.3,0-0.4,0.1v1.2h-0.2v-1.4h0.1l0,0.1c0.1-0.1,0.3-0.1,0.4-0.1c0.2,0,0.3,0.1,0.4,0.2
					c0.1-0.1,0.3-0.2,0.4-0.2c0.3,0,0.5,0.1,0.5,0.4v1h-0.2V314.9z"/>
				<path id="XMLID_53_" class="st10" d="M332.2,314.7c-0.2,0-0.3,0-0.4,0.1v-0.2c0.1-0.1,0.3-0.1,0.4-0.1c0.4,0,0.5,0.2,0.5,0.5v1
					h-0.1l0-0.1c-0.1,0.1-0.3,0.1-0.4,0.1c-0.4,0-0.5-0.2-0.5-0.5c0-0.2,0.1-0.4,0.5-0.4l0.4,0V315
					C332.5,314.8,332.4,314.7,332.2,314.7 M332.1,315.2c-0.2,0-0.3,0.1-0.3,0.3c0,0.1,0,0.3,0.3,0.3c0.2,0,0.3,0,0.4-0.1v-0.5
					L332.1,315.2z"/>
				<path id="XMLID_50_" class="st10" d="M333.7,315.9h-0.2v-2.1h0.6c0.5,0,0.7,0.3,0.7,0.6c0,0.3-0.2,0.6-0.7,0.6h-0.5V315.9z
					 M333.7,314.9h0.5c0.4,0,0.5-0.3,0.5-0.5c0-0.2-0.1-0.5-0.5-0.5h-0.5V314.9z"/>
				<path id="XMLID_49_" class="st10" d="M335.8,314.7c-0.2,0-0.3,0-0.4,0.1v1.2h-0.2v-2.1h0.2v0.8c0.1-0.1,0.3-0.1,0.4-0.1
					c0.3,0,0.5,0.2,0.5,0.4v1H336v-1C336,314.7,335.9,314.7,335.8,314.7"/>
				<path id="XMLID_46_" class="st10" d="M337.1,314.7c-0.2,0-0.3,0-0.4,0.1v-0.2c0.1-0.1,0.3-0.1,0.4-0.1c0.4,0,0.5,0.2,0.5,0.5v1
					h-0.1l0-0.1c-0.1,0.1-0.3,0.1-0.4,0.1c-0.4,0-0.5-0.2-0.5-0.5c0-0.2,0.1-0.4,0.5-0.4l0.4,0V315
					C337.4,314.8,337.3,314.7,337.1,314.7 M337,315.2c-0.2,0-0.3,0.1-0.3,0.3c0,0.1,0,0.3,0.3,0.3c0.2,0,0.3,0,0.4-0.1v-0.5
					L337,315.2z"/>
				<path id="XMLID_45_" class="st10" d="M338.7,314.7c0,0-0.1,0-0.2,0c-0.2,0-0.3,0-0.4,0.1v1.2H338v-1.4h0.1l0,0.1
					c0.1-0.1,0.3-0.1,0.5-0.1c0.1,0,0.1,0,0.2,0V314.7z"/>
				<path id="XMLID_44_" class="st10" d="M340.6,314.9c0-0.2-0.1-0.2-0.3-0.2c-0.2,0-0.3,0-0.4,0.1c0,0,0,0.1,0,0.1v1h-0.2v-1
					c0-0.2-0.1-0.2-0.3-0.2c-0.2,0-0.3,0-0.4,0.1v1.2H339v-1.4h0.1l0,0.1c0.1-0.1,0.3-0.1,0.4-0.1c0.2,0,0.3,0.1,0.4,0.2
					c0.1-0.1,0.3-0.2,0.4-0.2c0.3,0,0.5,0.1,0.5,0.4v1h-0.2V314.9z"/>
				<path id="XMLID_41_" class="st10" d="M341.7,314.7c-0.2,0-0.3,0-0.4,0.1v-0.2c0.1-0.1,0.3-0.1,0.4-0.1c0.4,0,0.5,0.2,0.5,0.5v1
					h-0.1l0-0.1c-0.1,0.1-0.3,0.1-0.4,0.1c-0.4,0-0.5-0.2-0.5-0.5c0-0.2,0.1-0.4,0.5-0.4l0.4,0V315
					C342,314.8,341.9,314.7,341.7,314.7 M341.6,315.2c-0.2,0-0.3,0.1-0.3,0.3c0,0.1,0,0.3,0.3,0.3c0.2,0,0.3,0,0.4-0.1v-0.5
					L341.6,315.2z"/>
			</g>
			<g id="XMLID_35_">
				<path id="XMLID_39_" class="st10" d="M330.6,304.5c-0.2,0-0.5,0.1-0.7,0.2c0.1,0,0.2,0.1,0.2,0.2c0.5,0.1,0.8,0.5,0.8,1
					c0,0.5-0.3,0.9-0.8,1c-0.1,0.1-0.2,0.1-0.2,0.2c0.2,0.1,0.4,0.2,0.7,0.2c0.8,0,1.4-0.6,1.4-1.4
					C332,305.1,331.4,304.5,330.6,304.5z"/>
				<path id="XMLID_38_" class="st11" d="M328.9,305.9c0-0.5,0.3-0.9,0.8-1c0.1-0.1,0.2-0.1,0.2-0.2c-0.2-0.1-0.4-0.2-0.6-0.2
					c-0.8,0-1.4,0.6-1.4,1.4c0,0.8,0.6,1.4,1.4,1.4c0.2,0,0.5-0.1,0.6-0.2c-0.1,0-0.2-0.1-0.2-0.2
					C329.2,306.8,328.9,306.4,328.9,305.9z"/>
				<path id="XMLID_37_" class="st11" d="M330,306.9c-0.1,0-0.2,0-0.2,0c0.1,0.1,0.2,0.1,0.2,0.2c0.1,0,0.2-0.1,0.2-0.2
					C330.1,306.9,330,306.9,330,306.9z"/>
				<path id="XMLID_36_" class="st11" d="M330,304.8c0.1,0,0.2,0,0.2,0c-0.1-0.1-0.2-0.1-0.2-0.2c-0.1,0-0.2,0.1-0.2,0.2
					C329.8,304.8,329.9,304.8,330,304.8z"/>
			</g>
		</g>
	</g>
	<g id="XMLID_2_">
		<g id="XMLID_4_">
			<path id="XMLID_17_" class="st3" d="M315.2,320.3l-0.6-0.9h2.2l4.5,6.4h0v-6.4h1.7v9.9h-1.4l-4.8-6.7h0v6.7h-1.7V320.3z"/>
			<path id="XMLID_14_" class="st3" d="M325.1,321.8h6.2v1.6h-6.2V321.8z M325.1,325h6.2v1.6h-6.2V325z"/>
			<path id="XMLID_12_" class="st3" d="M338.2,321.9c-0.4,0.4-1.3,0.5-2.2,0.5v-1.6c1.4,0,2.5-0.4,3.2-1.3h0.9v9.9h-1.8V321.9z"/>
			<path id="XMLID_9_" class="st3" d="M342.4,329.3c1.8-0.8,3.2-1.8,3.9-3.5c-0.4,0.2-0.9,0.4-1.6,0.4c-2.1,0-3.2-1.3-3.2-3.3
				c0-2,1.4-3.6,3.7-3.6c2.3,0,3.5,1.6,3.5,3.9c0,3.5-2.2,5.6-3.6,6.3L342.4,329.3L342.4,329.3z M346.8,324c0-0.3,0.1-0.7,0.1-1.1
				c0-1.2-0.6-2-1.7-2c-1.1,0-1.7,0.8-1.7,1.9c0,1.1,0.6,1.9,1.7,1.9C346,324.7,346.5,324.4,346.8,324z"/>
			<path id="XMLID_7_" class="st3" d="M350,329.1v-1.8c0.4,0.3,1,0.7,2.1,0.7c1.4,0,2.1-0.6,2.1-1.6c0-0.9-0.5-1.5-2.1-1.5
				c-0.8,0-1.4,0.2-1.8,0.4l0.2-5.9h5.4v1.6h-3.8l-0.1,2.4c0.1,0,0.5-0.1,0.8-0.1c2.1,0,3.3,0.9,3.3,2.9c0,2-1.7,3.3-3.9,3.3
				C351,329.6,350.4,329.3,350,329.1z"/>
			<path id="XMLID_5_" class="st3" d="M357.5,329.1v-1.8c0.4,0.4,1,0.7,1.9,0.7c1.7,0,2.3-0.6,2.3-1.6c0-0.9-0.5-1.5-2.1-1.5H359
				v-0.2l2-3.6h-3.5v-1.6h6.1v0.2l-2.2,3.9c1.3,0.2,2.3,0.9,2.3,2.8c0,1.6-1.2,3.3-4.1,3.3C358.5,329.6,357.9,329.3,357.5,329.1z"/>
		</g>
	</g>
</g>
</svg>
