<!-- Generator: Adobe Illustrator 22.1.0, SVG Export Plug-In  -->
<svg version="1.1"
	 xmlns="http://www.w3.org/2000/svg" xmlns:xlink="http://www.w3.org/1999/xlink" xmlns:a="http://ns.adobe.com/AdobeSVGViewerExtensions/3.0/"
	 x="0px" y="0px" width="397.4px" height="282.6px" viewBox="0 0 397.4 282.6" style="enable-background:new 0 0 397.4 282.6;"
	 xml:space="preserve">
<style type="text/css">
	.st0{fill:url(#XMLID_937_);}
	.st1{fill:#FFFFFF;stroke:#8B3C95;stroke-width:1.4744;stroke-miterlimit:10;}
	.st2{fill:#231F20;}
	.st3{font-family:'MyriadPro-Regular';}
	.st4{font-size:10.1722px;}
	.st5{font-size:9.4365px;}
	.st6{fill:none;stroke:#8B3C95;stroke-width:0.3993;stroke-miterlimit:10;}
	.st7{fill:none;stroke:#292D73;stroke-width:0.9906;stroke-miterlimit:10;}
	.st8{fill:#0C3B60;}
	.st9{fill:#490E67;}
	.st10{fill:none;stroke:#490E67;stroke-width:0.9906;stroke-miterlimit:10;}
	.st11{fill:#808184;}
	.st12{fill:none;stroke:#808184;stroke-width:0.9906;stroke-miterlimit:10;}
	.st13{fill:#E4EA91;}
	.st14{fill:none;stroke:#C14B48;stroke-width:0.8018;stroke-miterlimit:10;}
	.st15{fill:none;stroke:#EE2A7B;stroke-width:0.8618;stroke-miterlimit:10;stroke-dasharray:2.7183,2.7183;}
	.st16{fill:#FFFFFF;}
	.st17{fill:#C29FD8;}
	.st18{fill:#292D73;}
	.st19{fill:none;stroke:#8B3C95;stroke-width:0.25;stroke-miterlimit:10;}
	.st20{fill:url(#XMLID_951_);}
</style>
<defs>
</defs>
<linearGradient id="XMLID_937_" gradientUnits="userSpaceOnUse" x1="0.7372" y1="140.6881" x2="396.4525" y2="140.6881">
	<stop  offset="0" style="stop-color:#C3A0CB"/>
	<stop  offset="1" style="stop-color:#4A2365"/>
</linearGradient>
<path id="XMLID_949_" class="st0" d="M396.5,13.3C396.5,5.9,391,0,384.2,0H12.9C6.2,0,0.7,5.9,0.7,13.3v254.8
	c0,7.3,5.5,13.3,12.2,13.3h371.3c6.7,0,12.2-6,12.2-13.3V13.3z"/>
<path id="XMLID_948_" class="st1" d="M0.7,267.3c0,8,6,14.5,13.3,14.5h369.3c7.3,0,13.3-6.5,13.3-14.5V52.8c0-8-5.9-14.5-13.3-14.5
	H14c-7.3,0-13.3,6.5-13.3,14.5V267.3z"/>
<g id="XMLID_607_">
	<g id="XMLID_946_">
		<text transform="matrix(0.9034 0 0 1 121.202 261.0922)" class="st2 st3 st4">*</text>
	</g>
	<g id="XMLID_944_">
		<text transform="matrix(0.9739 0 0 1 188.9735 259.6576)" class="st2 st3 st5">*</text>
	</g>
	<g id="XMLID_942_">
		<text transform="matrix(0.9739 0 0 1 224.2235 253.8226)" class="st2 st3 st5">*</text>
	</g>
	<g id="XMLID_940_">
		<text transform="matrix(0.9034 0 0 1 189.912 233.7211)" class="st2 st3 st4">*</text>
	</g>
	<g id="XMLID_938_">
		<text transform="matrix(0.9739 0 0 1 257.1825 258.9896)" class="st2 st3 st5">*</text>
	</g>
	<g id="XMLID_936_">
		<text transform="matrix(0.9034 0 0 1 155.1532 263.3519)" class="st2 st3 st4">*</text>
	</g>
	<line id="XMLID_935_" class="st6" x1="33.9" y1="264" x2="30.9" y2="264"/>
	<g id="XMLID_928_">
		<line id="XMLID_934_" class="st6" x1="33.9" y1="70" x2="30.9" y2="70"/>
		<line id="XMLID_933_" class="st6" x1="33.9" y1="102.7" x2="30.9" y2="102.7"/>
		<line id="XMLID_932_" class="st6" x1="33.9" y1="135.8" x2="30.9" y2="135.8"/>
		<line id="XMLID_931_" class="st6" x1="33.9" y1="200.2" x2="30.9" y2="200.2"/>
		<line id="XMLID_930_" class="st6" x1="33.9" y1="232.8" x2="30.9" y2="232.8"/>
		<line id="XMLID_929_" class="st6" x1="33.9" y1="167.3" x2="30.9" y2="167.3"/>
	</g>
	<line id="XMLID_927_" class="st6" x1="68.3" y1="70.1" x2="68.3" y2="65.7"/>
	<line id="XMLID_926_" class="st6" x1="99.9" y1="70.1" x2="99.9" y2="65.7"/>
	<line id="XMLID_925_" class="st6" x1="135" y1="70.1" x2="135" y2="65.7"/>
	<line id="XMLID_924_" class="st6" x1="166.7" y1="70.1" x2="166.7" y2="65.7"/>
	<line id="XMLID_923_" class="st6" x1="203.1" y1="70.1" x2="203.1" y2="65.7"/>
	<line id="XMLID_922_" class="st6" x1="236.9" y1="70.1" x2="236.9" y2="65.7"/>
	<line id="XMLID_921_" class="st6" x1="267.3" y1="70.1" x2="267.3" y2="65.7"/>
	<g id="XMLID_918_">
		<line id="XMLID_920_" class="st7" x1="90.2" y1="163.5" x2="83.7" y2="167.2"/>
		<line id="XMLID_919_" class="st7" x1="87.5" y1="168.8" x2="86.3" y2="161.8"/>
	</g>
	<g id="XMLID_889_">
		<g id="XMLID_891_">
			<path id="XMLID_903_" class="st8" d="M43.3,54.9h1l0.6,2.8l0.9-2.8h0.4l1,2.8l0.6-2.8h0.9l-1.1,4.7H47l-1-2.8l-1,2.8h-0.6
				L43.3,54.9z"/>
			<path id="XMLID_900_" class="st8" d="M49.2,57.2c0-1.7,1-2.5,2-2.5c1,0,1.9,0.5,1.9,2.2v0.6h-2.9c0,0.7,0.4,1.2,1.2,1.2
				c0.8,0,1.2-0.3,1.4-0.7v1c-0.2,0.3-0.7,0.6-1.5,0.6C50.1,59.7,49.2,58.9,49.2,57.2z M52.1,56.8L52.1,56.8c0-0.8-0.3-1.2-0.9-1.2
				c-0.6,0-0.9,0.6-0.9,1.2H52.1z"/>
			<path id="XMLID_897_" class="st8" d="M53.7,57.2c0-1.7,1-2.5,2-2.5c1,0,1.9,0.5,1.9,2.2v0.6h-2.9c0,0.7,0.4,1.2,1.2,1.2
				c0.8,0,1.2-0.3,1.4-0.7v1c-0.2,0.3-0.7,0.6-1.5,0.6C54.6,59.7,53.7,58.9,53.7,57.2z M56.6,56.8L56.6,56.8c0-0.8-0.3-1.2-0.9-1.2
				c-0.6,0-0.9,0.6-0.9,1.2H56.6z"/>
			<path id="XMLID_895_" class="st8" d="M59.9,57.4c-0.3,0.3-0.5,0.4-0.5,0.4v1.7h-1v-6.4h1v3.6c0,0,1-0.8,1.6-1.9h1
				c-0.4,0.6-0.9,1.3-1.4,1.8l1.7,2.9h-1.2L59.9,57.4z"/>
			<path id="XMLID_892_" class="st8" d="M62.7,56.7c0-2,1.3-3,2.6-3c1.6,0,2.6,1.1,2.6,3c0,1.9-1.2,3-2.6,3
				C63.7,59.7,62.7,58.6,62.7,56.7z M66.9,56.7c0-1.4-0.7-2.1-1.6-2.1c-0.9,0-1.6,0.7-1.6,2.1c0,1.4,0.7,2.1,1.6,2.1
				C66.2,58.8,66.9,58.1,66.9,56.7z"/>
		</g>
	</g>
	<g id="XMLID_862_">
		<g id="XMLID_864_">
			<path id="XMLID_875_" class="st8" d="M77.9,54.9h1l0.6,2.8l0.9-2.8h0.4l1,2.8l0.6-2.8h0.9l-1.1,4.7h-0.6l-1-2.8l-1,2.8h-0.6
				L77.9,54.9z"/>
			<path id="XMLID_872_" class="st8" d="M83.9,57.2c0-1.7,1-2.5,2-2.5c1,0,1.9,0.5,1.9,2.2v0.6h-2.9c0,0.7,0.4,1.2,1.2,1.2
				c0.8,0,1.2-0.3,1.4-0.7v1c-0.2,0.3-0.7,0.6-1.5,0.6C84.8,59.7,83.9,58.9,83.9,57.2z M86.8,56.8L86.8,56.8c0-0.8-0.3-1.2-0.9-1.2
				c-0.6,0-0.9,0.6-0.9,1.2H86.8z"/>
			<path id="XMLID_869_" class="st8" d="M88.4,57.2c0-1.7,1-2.5,2-2.5c1,0,1.9,0.5,1.9,2.2v0.6h-2.9c0,0.7,0.4,1.2,1.2,1.2
				c0.8,0,1.2-0.3,1.4-0.7v1c-0.2,0.3-0.7,0.6-1.5,0.6C89.2,59.7,88.4,58.9,88.4,57.2z M91.3,56.8L91.3,56.8c0-0.8-0.3-1.2-0.9-1.2
				c-0.6,0-0.9,0.6-0.9,1.2H91.3z"/>
			<path id="XMLID_867_" class="st8" d="M94.6,57.4c-0.3,0.3-0.5,0.4-0.5,0.4v1.7h-1v-6.4h1v3.6c0,0,1-0.8,1.6-1.9h1
				c-0.4,0.6-0.9,1.3-1.4,1.8l1.7,2.9h-1.2L94.6,57.4z"/>
			<path id="XMLID_865_" class="st8" d="M98.4,55.2c-0.2,0.2-0.7,0.3-1.2,0.3v-0.9c0.7,0,1.3-0.2,1.7-0.8h0.5v5.8h-1V55.2z"/>
		</g>
	</g>
	<g id="XMLID_835_">
		<g id="XMLID_837_">
			<path id="XMLID_848_" class="st8" d="M111.9,54.9h1l0.6,2.8l0.9-2.8h0.4l1,2.8l0.6-2.8h0.9l-1.1,4.7h-0.6l-1-2.8l-1,2.8h-0.6
				L111.9,54.9z"/>
			<path id="XMLID_845_" class="st8" d="M117.9,57.2c0-1.7,1-2.5,2-2.5c1,0,1.9,0.5,1.9,2.2v0.6h-2.9c0,0.7,0.4,1.2,1.2,1.2
				c0.8,0,1.2-0.3,1.4-0.7v1c-0.2,0.3-0.7,0.6-1.5,0.6C118.8,59.7,117.9,58.9,117.9,57.2z M120.8,56.8L120.8,56.8
				c0-0.8-0.3-1.2-0.9-1.2c-0.6,0-0.9,0.6-0.9,1.2H120.8z"/>
			<path id="XMLID_842_" class="st8" d="M122.4,57.2c0-1.7,1-2.5,2-2.5c1,0,1.9,0.5,1.9,2.2v0.6h-2.9c0,0.7,0.4,1.2,1.2,1.2
				c0.8,0,1.2-0.3,1.4-0.7v1c-0.2,0.3-0.7,0.6-1.5,0.6C123.2,59.7,122.4,58.9,122.4,57.2z M125.3,56.8L125.3,56.8
				c0-0.8-0.3-1.2-0.9-1.2c-0.6,0-0.9,0.6-0.9,1.2H125.3z"/>
			<path id="XMLID_840_" class="st8" d="M128.6,57.4c-0.3,0.3-0.5,0.4-0.5,0.4v1.7h-1v-6.4h1v3.6c0,0,1-0.8,1.6-1.9h1
				c-0.4,0.6-0.9,1.3-1.4,1.8l1.7,2.9h-1.2L128.6,57.4z"/>
			<path id="XMLID_838_" class="st8" d="M131.4,59.5l1.6-2.4c0.3-0.5,0.6-0.9,0.6-1.5c0-0.6-0.3-1-0.9-1c-0.5,0-1.1,0.4-1.4,0.7v-1
				c0.2-0.3,0.8-0.6,1.5-0.6c1.2,0,1.7,0.7,1.7,1.8c0,0.9-0.6,1.7-1,2.4l-0.5,0.7h1.6v1h-3.3V59.5z"/>
		</g>
	</g>
	<g id="XMLID_808_">
		<g id="XMLID_810_">
			<path id="XMLID_821_" class="st8" d="M143.6,54.9h1l0.6,2.8l0.9-2.8h0.4l1,2.8l0.6-2.8h0.9l-1.1,4.7h-0.6l-1-2.8l-1,2.8h-0.6
				L143.6,54.9z"/>
			<path id="XMLID_818_" class="st8" d="M149.6,57.2c0-1.7,1-2.5,2-2.5c1,0,1.9,0.5,1.9,2.2v0.6h-2.9c0,0.7,0.4,1.2,1.2,1.2
				c0.8,0,1.2-0.3,1.4-0.7v1c-0.2,0.3-0.7,0.6-1.5,0.6C150.4,59.7,149.6,58.9,149.6,57.2z M152.5,56.8L152.5,56.8
				c0-0.8-0.3-1.2-0.9-1.2c-0.6,0-0.9,0.6-0.9,1.2H152.5z"/>
			<path id="XMLID_815_" class="st8" d="M154,57.2c0-1.7,1-2.5,2-2.5c1,0,1.9,0.5,1.9,2.2v0.6h-2.9c0,0.7,0.4,1.2,1.2,1.2
				c0.8,0,1.2-0.3,1.4-0.7v1c-0.2,0.3-0.7,0.6-1.5,0.6C154.9,59.7,154,58.9,154,57.2z M157,56.8L157,56.8c0-0.8-0.3-1.2-0.9-1.2
				c-0.6,0-0.9,0.6-0.9,1.2H157z"/>
			<path id="XMLID_813_" class="st8" d="M160.3,57.4c-0.3,0.3-0.5,0.4-0.5,0.4v1.7h-1v-6.4h1v3.6c0,0,1-0.8,1.6-1.9h1
				c-0.4,0.6-0.9,1.3-1.4,1.8l1.7,2.9h-1.2L160.3,57.4z"/>
			<path id="XMLID_811_" class="st8" d="M163.1,59.4v-1.1c0.2,0.2,0.5,0.4,1,0.4c0.9,0,1.2-0.4,1.2-1c0-0.5-0.3-0.9-1.1-0.9h-0.4
				v-0.1l1.1-2.1h-1.9v-1h3.3v0.1l-1.2,2.3c0.7,0.1,1.2,0.5,1.2,1.6c0,0.9-0.6,1.9-2.2,1.9C163.6,59.7,163.3,59.6,163.1,59.4z"/>
		</g>
	</g>
	<g id="XMLID_781_">
		<g id="XMLID_783_">
			<path id="XMLID_794_" class="st8" d="M179.6,54.9h1l0.6,2.8l0.9-2.8h0.4l1,2.8l0.6-2.8h0.9l-1.1,4.7h-0.6l-1-2.8l-1,2.8h-0.6
				L179.6,54.9z"/>
			<path id="XMLID_791_" class="st8" d="M185.5,57.2c0-1.7,1-2.5,2-2.5c1,0,1.9,0.5,1.9,2.2v0.6h-2.9c0,0.7,0.4,1.2,1.2,1.2
				c0.8,0,1.2-0.3,1.4-0.7v1c-0.2,0.3-0.7,0.6-1.5,0.6C186.4,59.7,185.5,58.9,185.5,57.2z M188.5,56.8L188.5,56.8
				c0-0.8-0.3-1.2-0.9-1.2c-0.6,0-0.9,0.6-0.9,1.2H188.5z"/>
			<path id="XMLID_788_" class="st8" d="M190,57.2c0-1.7,1-2.5,2-2.5c1,0,1.9,0.5,1.9,2.2v0.6H191c0,0.7,0.4,1.2,1.2,1.2
				c0.8,0,1.2-0.3,1.4-0.7v1c-0.2,0.3-0.7,0.6-1.5,0.6C190.9,59.7,190,58.9,190,57.2z M192.9,56.8L192.9,56.8c0-0.8-0.3-1.2-0.9-1.2
				c-0.6,0-0.9,0.6-0.9,1.2H192.9z"/>
			<path id="XMLID_786_" class="st8" d="M196.2,57.4c-0.3,0.3-0.5,0.4-0.5,0.4v1.7h-1v-6.4h1v3.6c0,0,1-0.8,1.6-1.9h1
				c-0.4,0.6-0.9,1.3-1.4,1.8l1.7,2.9h-1.2L196.2,57.4z"/>
			<path id="XMLID_784_" class="st8" d="M201.4,58.4h-2.6v-0.1l1.5-4.5h0.9l-1.1,3.6h1.3v-2.1h0.9v2.1h0.6v1h-0.6v1.2h-0.9V58.4z"/>
		</g>
	</g>
	<g id="XMLID_754_">
		<g id="XMLID_756_">
			<path id="XMLID_767_" class="st8" d="M213.8,54.9h1l0.6,2.8l0.9-2.8h0.4l1,2.8l0.6-2.8h0.9l-1.1,4.7h-0.6l-1-2.8l-1,2.8H215
				L213.8,54.9z"/>
			<path id="XMLID_764_" class="st8" d="M219.8,57.2c0-1.7,1-2.5,2-2.5c1,0,1.9,0.5,1.9,2.2v0.6h-2.9c0,0.7,0.4,1.2,1.2,1.2
				c0.8,0,1.2-0.3,1.4-0.7v1c-0.2,0.3-0.7,0.6-1.5,0.6C220.6,59.7,219.8,58.9,219.8,57.2z M222.7,56.8L222.7,56.8
				c0-0.8-0.3-1.2-0.9-1.2c-0.6,0-0.9,0.6-0.9,1.2H222.7z"/>
			<path id="XMLID_761_" class="st8" d="M224.2,57.2c0-1.7,1-2.5,2-2.5c1,0,1.9,0.5,1.9,2.2v0.6h-2.9c0,0.7,0.4,1.2,1.2,1.2
				c0.8,0,1.2-0.3,1.4-0.7v1c-0.2,0.3-0.7,0.6-1.5,0.6C225.1,59.7,224.2,58.9,224.2,57.2z M227.1,56.8L227.1,56.8
				c0-0.8-0.3-1.2-0.9-1.2c-0.6,0-0.9,0.6-0.9,1.2H227.1z"/>
			<path id="XMLID_759_" class="st8" d="M230.4,57.4c-0.3,0.3-0.5,0.4-0.5,0.4v1.7h-1v-6.4h1v3.6c0,0,1-0.8,1.6-1.9h1
				c-0.4,0.6-0.9,1.3-1.4,1.8l1.7,2.9h-1.2L230.4,57.4z"/>
			<path id="XMLID_757_" class="st8" d="M233.3,59.4v-1.1c0.2,0.2,0.6,0.4,1.1,0.4c0.8,0,1.1-0.3,1.1-0.9c0-0.5-0.3-0.9-1.1-0.9
				c-0.4,0-0.8,0.1-1,0.2l0.1-3.5h2.9v1h-2l0,1.4c0.1,0,0.3-0.1,0.4-0.1c1.1,0,1.8,0.5,1.8,1.7c0,1.2-0.9,1.9-2.1,1.9
				C233.8,59.7,233.5,59.6,233.3,59.4z"/>
		</g>
	</g>
	<g id="XMLID_725_">
		<g id="XMLID_727_">
			<path id="XMLID_739_" class="st8" d="M243.8,54.9h1l0.6,2.8l0.9-2.8h0.4l1,2.8l0.6-2.8h0.9l-1.1,4.7h-0.6l-1-2.8l-1,2.8H245
				L243.8,54.9z"/>
			<path id="XMLID_736_" class="st8" d="M249.8,57.2c0-1.7,1-2.5,2-2.5c1,0,1.9,0.5,1.9,2.2v0.6h-2.9c0,0.7,0.4,1.2,1.2,1.2
				c0.8,0,1.2-0.3,1.4-0.7v1c-0.2,0.3-0.7,0.6-1.5,0.6C250.6,59.7,249.8,58.9,249.8,57.2z M252.7,56.8L252.7,56.8
				c0-0.8-0.3-1.2-0.9-1.2c-0.6,0-0.9,0.6-0.9,1.2H252.7z"/>
			<path id="XMLID_733_" class="st8" d="M254.2,57.2c0-1.7,1-2.5,2-2.5c1,0,1.9,0.5,1.9,2.2v0.6h-2.9c0,0.7,0.4,1.2,1.2,1.2
				c0.8,0,1.2-0.3,1.4-0.7v1c-0.2,0.3-0.7,0.6-1.5,0.6C255.1,59.7,254.2,58.9,254.2,57.2z M257.1,56.8L257.1,56.8
				c0-0.8-0.3-1.2-0.9-1.2c-0.6,0-0.9,0.6-0.9,1.2H257.1z"/>
			<path id="XMLID_731_" class="st8" d="M260.5,57.4c-0.3,0.3-0.5,0.4-0.5,0.4v1.7h-1v-6.4h1v3.6c0,0,1-0.8,1.6-1.9h1
				c-0.4,0.6-0.9,1.3-1.4,1.8l1.7,2.9h-1.2L260.5,57.4z"/>
			<path id="XMLID_728_" class="st8" d="M263.2,57.5c0-2.1,1.1-3.2,2-3.7h1.4v0.1c-0.9,0.5-1.7,1-2.1,2c0.2-0.1,0.5-0.2,0.8-0.2
				c1.1,0,1.7,0.8,1.7,2c0,1.2-0.8,2.1-2,2.1S263.2,58.8,263.2,57.5z M266.1,57.6c0-0.6-0.3-1.1-0.9-1.1c-0.4,0-0.7,0.2-0.9,0.4
				c0,0.2,0,0.4,0,0.6c0,0.7,0.3,1.2,0.9,1.2S266.1,58.3,266.1,57.6z"/>
		</g>
	</g>
	<g id="XMLID_708_">
		<polyline id="XMLID_724_" class="st7" points="52.5,70.7 86.3,164.7 121.1,210.5 154.7,228.3 189.2,235.6 223,259.7 256.6,263.7 
					"/>
		<g id="XMLID_721_">
			<line id="XMLID_723_" class="st7" x1="53.8" y1="68.3" x2="51.3" y2="72"/>
			<line id="XMLID_722_" class="st7" x1="53.9" y1="71.9" x2="51.2" y2="68.4"/>
		</g>
		<g id="XMLID_718_">
			<line id="XMLID_720_" class="st7" x1="157.8" y1="225.9" x2="152.9" y2="231.1"/>
			<line id="XMLID_719_" class="st7" x1="157.1" y1="231.8" x2="153.7" y2="225.2"/>
		</g>
		<g id="XMLID_715_">
			<line id="XMLID_717_" class="st7" x1="193.3" y1="233.7" x2="188.5" y2="238.9"/>
			<line id="XMLID_716_" class="st7" x1="192.6" y1="239.6" x2="189.2" y2="233"/>
		</g>
		<g id="XMLID_712_">
			<line id="XMLID_714_" class="st7" x1="225.8" y1="257.8" x2="220.9" y2="263"/>
			<line id="XMLID_713_" class="st7" x1="225" y1="263.7" x2="221.7" y2="257.1"/>
		</g>
		<g id="XMLID_709_">
			<line id="XMLID_711_" class="st7" x1="257.2" y1="261.1" x2="252.3" y2="266.3"/>
			<line id="XMLID_710_" class="st7" x1="256.4" y1="267" x2="253.1" y2="260.4"/>
		</g>
	</g>
	<g id="XMLID_700_">
		<rect id="XMLID_707_" x="253.8" y="260.1" class="st9" width="6.4" height="6.4"/>
		<rect id="XMLID_706_" x="219.7" y="260.5" class="st9" width="6.4" height="6.4"/>
		<rect id="XMLID_705_" x="186" y="257.9" class="st9" width="6.4" height="6.4"/>
		<rect id="XMLID_704_" x="151.8" y="242.8" class="st9" width="6.4" height="6.4"/>
		<rect id="XMLID_703_" x="117.4" y="239.8" class="st9" width="6.4" height="6.4"/>
		<rect id="XMLID_702_" x="83.7" y="165.1" class="st9" width="6.4" height="6.4"/>
		<polyline id="XMLID_701_" class="st10" points="254.4,263.4 223,263.7 188.8,260.4 155.4,246.4 120.6,242.4 96,189.5 86.2,168.8 
			60.5,95.2 52.1,69.5 		"/>
	</g>
	
		<rect id="XMLID_699_" x="220.2" y="200.9" transform="matrix(0.7027 -0.7115 0.7115 0.7027 -78.6411 219.2861)" class="st11" width="5.7" height="5.7"/>
	<polygon id="XMLID_698_" class="st11" points="255.9,193 251.9,189.7 255.9,186.3 259.9,189.6 	"/>
	
		<rect id="XMLID_697_" x="185.7" y="197.3" transform="matrix(0.7022 -0.712 0.712 0.7022 -86.3307 193.8494)" class="st11" width="5.7" height="5.7"/>
	
		<rect id="XMLID_696_" x="152.2" y="190.4" transform="matrix(0.7026 -0.7116 0.7116 0.7026 -91.3996 167.8103)" class="st11" width="5.7" height="5.7"/>
	
		<rect id="XMLID_695_" x="117.6" y="173" transform="matrix(0.7028 -0.7114 0.7114 0.7028 -89.2591 137.9708)" class="st11" width="5.7" height="5.7"/>
	
		<rect id="XMLID_694_" x="83.6" y="144.7" transform="matrix(0.7025 -0.7117 0.7117 0.7025 -79.2918 105.4063)" class="st11" width="5.7" height="5.7"/>
	<polyline id="XMLID_693_" class="st12" points="256.6,189.7 223.1,203.7 189.2,200.1 155,193 120.6,175.4 86.5,147 53.3,70.6 	"/>
	<g id="XMLID_680_">
		<g id="XMLID_682_">
			<path id="XMLID_686_" class="st8" d="M22.4,263.5h1.6v0.7h-1.6V263.5z"/>
			<path id="XMLID_683_" class="st8" d="M24.5,264.2c0-1.6,0.9-2.5,1.6-2.8h1.1v0c-0.7,0.3-1.3,0.8-1.6,1.6c0.2-0.1,0.4-0.2,0.6-0.2
				c0.9,0,1.3,0.6,1.3,1.5c0,0.9-0.6,1.6-1.5,1.6S24.5,265.2,24.5,264.2z M26.7,264.3c0-0.5-0.2-0.9-0.7-0.9c-0.3,0-0.6,0.1-0.7,0.3
				c0,0.2,0,0.3,0,0.5c0,0.6,0.2,0.9,0.7,0.9S26.7,264.8,26.7,264.3z"/>
		</g>
	</g>
	<g id="XMLID_669_">
		<g id="XMLID_671_">
			<path id="XMLID_674_" class="st8" d="M22.4,230.6h1.6v0.7h-1.6V230.6z"/>
			<path id="XMLID_672_" class="st8" d="M24.6,232.9v-0.8c0.2,0.1,0.4,0.3,0.9,0.3c0.6,0,0.9-0.3,0.9-0.7c0-0.4-0.2-0.7-0.9-0.7
				c-0.3,0-0.6,0.1-0.8,0.2l0.1-2.7H27v0.7h-1.6l0,1.1c0,0,0.2,0,0.3,0c0.9,0,1.4,0.4,1.4,1.3c0,0.9-0.7,1.5-1.6,1.5
				C25,233.1,24.7,233,24.6,232.9z"/>
		</g>
	</g>
	<g id="XMLID_658_">
		<g id="XMLID_660_">
			<path id="XMLID_663_" class="st8" d="M22.4,197.6h1.6v0.7h-1.6V197.6z"/>
			<path id="XMLID_661_" class="st8" d="M26.4,199.1h-2V199l1.2-3.5h0.7l-0.9,2.8h1v-1.6h0.7v1.6h0.4v0.8h-0.4v0.9h-0.7V199.1z"/>
		</g>
	</g>
	<g id="XMLID_647_">
		<g id="XMLID_649_">
			<path id="XMLID_652_" class="st8" d="M22.4,166.9h1.6v0.7h-1.6V166.9z"/>
			<path id="XMLID_650_" class="st8" d="M24.6,169.1v-0.8c0.2,0.2,0.4,0.3,0.8,0.3c0.7,0,0.9-0.3,0.9-0.7c0-0.4-0.2-0.7-0.9-0.7
				h-0.3v-0.1l0.8-1.6h-1.4v-0.7h2.5v0.1l-0.9,1.8c0.6,0.1,1,0.4,1,1.3c0,0.7-0.5,1.5-1.7,1.5C25,169.4,24.7,169.2,24.6,169.1z"/>
		</g>
	</g>
	<g id="XMLID_636_">
		<g id="XMLID_638_">
			<path id="XMLID_641_" class="st8" d="M22.4,134.7h1.6v0.7h-1.6V134.7z"/>
			<path id="XMLID_639_" class="st8" d="M24.6,137l1.3-1.9c0.2-0.3,0.4-0.7,0.4-1.1c0-0.5-0.2-0.8-0.7-0.8c-0.4,0-0.8,0.3-1,0.6V133
				c0.2-0.2,0.6-0.5,1.2-0.5c0.9,0,1.3,0.6,1.3,1.4c0,0.7-0.4,1.3-0.8,1.8l-0.4,0.5h1.2v0.8L24.6,137L24.6,137z"/>
		</g>
	</g>
	<g id="XMLID_625_">
		<g id="XMLID_627_">
			<path id="XMLID_630_" class="st8" d="M22.4,101.5h1.6v0.7h-1.6V101.5z"/>
			<path id="XMLID_628_" class="st8" d="M25.3,100.5c-0.2,0.2-0.6,0.2-0.9,0.2V100c0.6,0,1-0.2,1.3-0.6h0.4v4.5h-0.8V100.5z"/>
		</g>
	</g>
	<g id="XMLID_612_">
		<g id="XMLID_614_">
			<path id="XMLID_618_" class="st8" d="M22.4,68.9h1.6v0.7h-1.6V68.9z"/>
			<path id="XMLID_615_" class="st8" d="M24.5,69c0-1.5,1-2.3,2-2.3c1.2,0,2,0.8,2,2.3c0,1.5-1,2.3-2,2.3
				C25.3,71.3,24.5,70.5,24.5,69z M27.8,69c0-1.1-0.5-1.6-1.2-1.6c-0.7,0-1.2,0.5-1.2,1.6c0,1.1,0.5,1.6,1.2,1.6
				C27.3,70.6,27.8,70.1,27.8,69z"/>
		</g>
	</g>
	<rect id="XMLID_611_" x="50.2" y="67.5" class="st9" width="4.4" height="5"/>
	<g id="XMLID_608_">
		<line id="XMLID_610_" class="st7" x1="124.8" y1="208.5" x2="118.5" y2="212.6"/>
		<line id="XMLID_609_" class="st7" x1="122.4" y1="214" x2="120.8" y2="207.1"/>
	</g>
</g>
<path id="XMLID_606_" class="st13" d="M295.7,37.7h87.5c7.3,0,13.3,6.5,13.3,14.5v214.5c0,8-5.9,14.5-13.3,14.5h-87.5V37.7z"/>
<path id="XMLID_605_" class="st14" d="M84.1,114.7"/>
<path id="XMLID_604_" class="st14" d="M122.4,120.1"/>
<line id="XMLID_603_" class="st15" x1="295.7" y1="282.2" x2="295.7" y2="38"/>
<g id="XMLID_501_">
	<g id="XMLID_503_">
		<path id="XMLID_551_" class="st2" d="M304.1,80.6l-0.7,0.6l-0.4-0.6l0.8-0.6l-0.8-0.5l0.4-0.6l0.7,0.6l-0.1-0.9h0.7l0,0.9l0.7-0.5
			l0.4,0.6l-0.8,0.6l0.8,0.5l-0.4,0.6l-0.7-0.6l0.1,0.9H304L304.1,80.6z"/>
		<path id="XMLID_548_" class="st2" d="M308.5,80.3h0.9l0.1,0.4c0.1-0.2,0.5-0.6,1.1-0.6c1.1,0,1.8,0.7,1.8,2.4
			c0,1.7-0.9,2.6-1.9,2.6c-0.3,0-0.7-0.1-0.9-0.3v1.8h-1V80.3z M311.4,82.6c0-0.9-0.3-1.5-1-1.5c-0.4,0-0.7,0.2-0.9,0.4v2.5
			c0.2,0.3,0.5,0.4,0.8,0.4C311.1,84.3,311.4,83.5,311.4,82.6z"/>
		<path id="XMLID_546_" class="st2" d="M312.9,82L312.9,82l3.6-2.5v1.1l-2,1.4l2,1.4v1L312.9,82z"/>
		<path id="XMLID_543_" class="st2" d="M317.3,82.1c0-2,1.3-3.1,2.7-3.1c1.6,0,2.7,1.1,2.7,3.1c0,2-1.3,3.1-2.7,3.1
			C318.4,85.1,317.3,84,317.3,82.1z M321.6,82.1c0-1.4-0.7-2.1-1.6-2.1c-0.9,0-1.6,0.7-1.6,2.1c0,1.4,0.7,2.1,1.6,2.1
			C320.9,84.2,321.6,83.5,321.6,82.1z"/>
		<path id="XMLID_541_" class="st2" d="M323.2,84.4c0-0.4,0.3-0.7,0.6-0.7c0.4,0,0.6,0.3,0.6,0.7s-0.3,0.7-0.6,0.7
			C323.5,85.1,323.2,84.9,323.2,84.4z"/>
		<path id="XMLID_538_" class="st2" d="M325.1,82.1c0-2,1.3-3.1,2.7-3.1c1.6,0,2.7,1.1,2.7,3.1c0,2-1.3,3.1-2.7,3.1
			C326.2,85.1,325.1,84,325.1,82.1z M329.4,82.1c0-1.4-0.7-2.1-1.6-2.1c-0.9,0-1.6,0.7-1.6,2.1c0,1.4,0.7,2.1,1.6,2.1
			C328.7,84.2,329.4,83.5,329.4,82.1z"/>
		<path id="XMLID_536_" class="st2" d="M331.1,84.9v-1.1c0.2,0.2,0.6,0.4,1.1,0.4c0.8,0,1.2-0.4,1.2-0.9c0-0.5-0.3-0.9-1.1-0.9
			c-0.4,0-0.8,0.1-1,0.2l0.1-3.5h2.9v1h-2l0,1.4c0.1,0,0.3-0.1,0.4-0.1c1.1,0,1.8,0.5,1.8,1.7c0,1.2-0.9,1.9-2.1,1.9
			C331.6,85.1,331.3,85,331.1,84.9z"/>
		<path id="XMLID_534_" class="st2" d="M336.7,80.3h1.1l0.8,2.6l0.2,0.5c0.1-0.2,0.1-0.4,0.1-0.5l0.9-2.6h1l-1.7,4.8h-0.7
			L336.7,80.3z"/>
		<path id="XMLID_531_" class="st2" d="M341,82.6c0-1.7,1-2.5,2-2.5c1,0,1.9,0.5,1.9,2.2V83h-2.9c0,0.7,0.4,1.2,1.2,1.2
			c0.8,0,1.2-0.4,1.4-0.7v1c-0.2,0.3-0.7,0.6-1.5,0.6C341.9,85.1,341,84.4,341,82.6z M344,82.2L344,82.2c0-0.8-0.3-1.2-0.9-1.2
			c-0.6,0-0.9,0.6-1,1.2H344z"/>
		<path id="XMLID_529_" class="st2" d="M345.8,80.3h0.9l0.1,0.7c0-0.5,0.4-0.8,0.9-0.8c0.2,0,0.4,0.1,0.4,0.1v1
			c-0.1-0.1-0.3-0.1-0.5-0.1c-0.4,0-0.6,0.2-0.7,0.5V85h-1V80.3z"/>
		<path id="XMLID_527_" class="st2" d="M348.5,84.7v-1.1c0.3,0.3,0.6,0.6,1.2,0.6s0.8-0.3,0.8-0.6c0-0.3-0.1-0.4-0.6-0.5l-0.2,0
			c-0.8-0.2-1.2-0.6-1.2-1.5c0-0.8,0.6-1.5,1.7-1.5c0.6,0,1,0.2,1.3,0.4v1.1c-0.3-0.4-0.6-0.6-1.2-0.6c-0.6,0-0.8,0.2-0.8,0.5
			c0,0.3,0.1,0.5,0.6,0.6l0.2,0c0.8,0.2,1.3,0.5,1.3,1.4c0,0.8-0.6,1.6-1.8,1.6C349.2,85.1,348.8,85,348.5,84.7z"/>
		<path id="XMLID_525_" class="st2" d="M352.4,83.2v-3h1V83c0,0.9,0.2,1.3,0.8,1.3c0.5,0,0.7-0.3,0.8-0.5v-3.5h1V85h-1l-0.1-0.4
			c-0.2,0.3-0.6,0.6-1.1,0.6C352.8,85.1,352.4,84.5,352.4,83.2z"/>
		<path id="XMLID_523_" class="st2" d="M356.9,84.7v-1.1c0.3,0.3,0.6,0.6,1.2,0.6s0.8-0.3,0.8-0.6c0-0.3-0.1-0.4-0.6-0.5l-0.2,0
			c-0.8-0.2-1.2-0.6-1.2-1.5c0-0.8,0.6-1.5,1.7-1.5c0.6,0,1,0.2,1.3,0.4v1.1c-0.3-0.4-0.6-0.6-1.2-0.6c-0.6,0-0.8,0.2-0.8,0.5
			c0,0.3,0.1,0.5,0.6,0.6l0.2,0c0.8,0.2,1.3,0.5,1.3,1.4c0,0.8-0.6,1.6-1.8,1.6C357.6,85.1,357.1,85,356.9,84.7z"/>
		<path id="XMLID_520_" class="st2" d="M362.7,80.3h0.9l0.1,0.4c0.1-0.2,0.5-0.6,1.1-0.6c1.1,0,1.8,0.7,1.8,2.4
			c0,1.7-0.9,2.6-1.9,2.6c-0.3,0-0.7-0.1-0.9-0.3v1.8h-1V80.3z M365.5,82.6c0-0.9-0.3-1.5-1-1.5c-0.4,0-0.7,0.2-0.9,0.4v2.5
			c0.2,0.3,0.5,0.4,0.8,0.4C365.2,84.3,365.5,83.5,365.5,82.6z"/>
		<path id="XMLID_518_" class="st2" d="M367.3,83.9v-5.4h1v5.3c0,0.3,0.1,0.4,0.3,0.4c0.2,0,0.3-0.1,0.4-0.3v0.9
			c-0.1,0.1-0.3,0.3-0.7,0.3C367.7,85.1,367.3,84.7,367.3,83.9z"/>
		<path id="XMLID_515_" class="st2" d="M369.5,83.8c0-1,0.7-1.4,1.9-1.6l0.6-0.1c0-0.8-0.4-1.1-1-1.1c-0.6,0-1.2,0.4-1.4,0.9v-1.1
			c0.2-0.3,0.6-0.7,1.5-0.7c1.2,0,1.8,0.6,1.8,2V85h-0.9l-0.1-0.4c-0.1,0.3-0.5,0.6-1.1,0.6C370.2,85.1,369.5,84.7,369.5,83.8z
			 M372,82.9l-0.6,0.1c-0.7,0.2-0.9,0.4-0.9,0.8c0,0.4,0.2,0.6,0.6,0.6c0.4,0,0.8-0.2,0.9-0.4V82.9z"/>
		<path id="XMLID_513_" class="st2" d="M373.9,82.6c0-1.7,1-2.5,2.1-2.5c0.6,0,1,0.2,1.2,0.4v1.1c-0.3-0.4-0.6-0.6-1.2-0.6
			c-0.7,0-1.1,0.6-1.1,1.6c0,1,0.4,1.6,1.1,1.6c0.5,0,0.9-0.2,1.2-0.6v1c-0.2,0.3-0.7,0.6-1.3,0.6C374.7,85.1,373.9,84.4,373.9,82.6
			z"/>
		<path id="XMLID_510_" class="st2" d="M377.8,82.6c0-1.7,1-2.5,2-2.5c1,0,1.9,0.5,1.9,2.2V83h-2.9c0,0.7,0.4,1.2,1.2,1.2
			c0.8,0,1.2-0.4,1.4-0.7v1c-0.2,0.3-0.7,0.6-1.5,0.6C378.7,85.1,377.8,84.4,377.8,82.6z M380.8,82.2L380.8,82.2
			c0-0.8-0.3-1.2-0.9-1.2c-0.6,0-0.9,0.6-1,1.2H380.8z"/>
		<path id="XMLID_507_" class="st2" d="M383.5,84.7l-0.2,0.3h-0.8v-6.5h1v2.2c0.1-0.2,0.5-0.6,1.1-0.6c1.1,0,1.8,0.7,1.8,2.4
			c0,1.7-0.9,2.6-1.9,2.6C384,85.1,383.7,84.9,383.5,84.7z M383.6,83.9c0.2,0.3,0.5,0.4,0.8,0.4c0.7,0,1-0.8,1-1.7
			c0-0.9-0.3-1.5-1-1.5c-0.4,0-0.7,0.2-0.9,0.4V83.9z"/>
		<path id="XMLID_504_" class="st2" d="M387.1,82.6c0-1.7,1-2.5,2.1-2.5c1.2,0,2,0.8,2,2.5c0,1.7-1,2.5-2.1,2.5
			C387.9,85.1,387.1,84.4,387.1,82.6z M390.2,82.6c0-0.9-0.3-1.6-1-1.6c-0.7,0-1,0.7-1,1.6c0,0.9,0.3,1.6,1,1.6
			C389.9,84.2,390.2,83.6,390.2,82.6z"/>
	</g>
</g>
<g id="XMLID_456_">
	<g id="XMLID_496_">
		<g id="XMLID_497_">
			<g id="XMLID_499_">
				<path id="XMLID_500_" class="st11" d="M305.8,111.6c6.9,0,13.8,0,20.8,0c1.2,0,1.2-2,0-2c-6.9,0-13.8,0-20.8,0
					C304.7,109.6,304.7,111.6,305.8,111.6L305.8,111.6z"/>
			</g>
			<polygon id="XMLID_498_" class="st11" points="312.1,110.6 316.2,115.1 320.3,110.6 316.2,106.1 			"/>
		</g>
	</g>
	<g id="XMLID_457_">
		<g id="XMLID_459_">
			<path id="XMLID_476_" class="st2" d="M333.3,107.1h1.6c1.6,0,2.2,0.7,2.2,1.9c0,1.2-0.7,2.2-2.2,2.2h-0.3v-0.9h0.3
				c0.8,0,1.2-0.5,1.2-1.2c0-0.7-0.4-1.1-1.2-1.1h-0.5v4.9h-1V107.1z"/>
			<path id="XMLID_474_" class="st2" d="M337.8,107.1h1v4.9h2v1h-3V107.1z"/>
			<path id="XMLID_471_" class="st2" d="M342.9,107.7l-0.2-0.6h1.1l2.1,5.9h-1.1l-0.4-1.2h-2l-0.4,1.2h-1L342.9,107.7z M342.7,110.9
				h1.4l-0.6-1.6l-0.2-0.5l-0.1,0.5L342.7,110.9z"/>
			<path id="XMLID_469_" class="st2" d="M346.2,110c0-2,1.1-3.1,2.5-3.1c0.9,0,1.3,0.3,1.5,0.5v1.3c-0.3-0.5-0.7-0.8-1.4-0.8
				c-1,0-1.6,0.7-1.6,2s0.6,2.1,1.6,2.1c0.6,0,1.1-0.2,1.4-0.7v1.1c-0.3,0.4-0.9,0.6-1.5,0.6C347.1,113.1,346.2,112.1,346.2,110z"/>
			<path id="XMLID_467_" class="st2" d="M351.1,107.1h3.4v1h-2.4v1.4h1.6v0.9h-1.6v1.6h2.4v1h-3.4V107.1z"/>
			<path id="XMLID_463_" class="st2" d="M355.4,107.1h1.6c1.5,0,2.1,0.5,2.1,1.5c0,0.8-0.4,1.2-1,1.4v0c0.6,0.1,1.1,0.4,1.1,1.4
				c0,0.9-0.6,1.7-2.1,1.7h-1.6V107.1z M357.1,109.5c0.8,0,1-0.3,1-0.8s-0.3-0.7-1-0.7h-0.6v1.5H357.1z M357.1,112
				c0.8,0,1-0.3,1-0.8s-0.3-0.8-1-0.8h-0.6v1.6H357.1z"/>
			<path id="XMLID_460_" class="st2" d="M359.8,110c0-2,1.3-3.1,2.6-3.1c1.6,0,2.6,1.1,2.6,3.1s-1.3,3.1-2.6,3.1
				C360.9,113.1,359.8,112,359.8,110z M364,110.1c0-1.4-0.6-2.1-1.6-2.1c-1,0-1.6,0.7-1.6,2c0,1.4,0.6,2.2,1.6,2.2
				C363.4,112.1,364,111.4,364,110.1z"/>
		</g>
	</g>
</g>
<g id="XMLID_217_">
	<g id="XMLID_219_">
		<path id="XMLID_335_" class="st16" d="M91.6,16.1V14c0.4,0.5,1.3,1,2.4,1c1,0,1.4-0.4,1.4-1c0-0.5-0.3-0.7-1.2-0.9l-0.3-0.1
			c-1.4-0.3-2.4-1.1-2.4-2.6c0-1.7,1.3-2.8,3.3-2.8c1.3,0,2.1,0.3,2.4,0.6v2.1c-0.4-0.5-1.3-1-2.4-1c-0.8,0-1.2,0.3-1.2,0.8
			c0,0.5,0.2,0.7,1,0.9l0.3,0.1c1.5,0.3,2.5,0.9,2.5,2.5c0,1.7-1.2,2.9-3.5,2.9C92.7,16.7,92,16.4,91.6,16.1z"/>
		<path id="XMLID_332_" class="st16" d="M98.4,13c0-2.6,1.7-3.7,3.5-3.7c1.7,0,3.3,0.7,3.3,3.4v0.9h-4.6c0.1,0.8,0.6,1.4,1.9,1.4
			c1.2,0,1.9-0.4,2.3-0.8V16c-0.4,0.4-1.2,0.8-2.7,0.8C99.8,16.7,98.4,15.6,98.4,13z M103.2,12.3L103.2,12.3c0-0.9-0.4-1.4-1.3-1.4
			c-0.8,0-1.3,0.7-1.3,1.4H103.2z"/>
		<path id="XMLID_330_" class="st16" d="M106,13c0-2.5,1.7-3.7,3.6-3.7c1,0,1.8,0.3,2.1,0.6v1.9c-0.5-0.5-1-0.7-1.8-0.7
			c-1.1,0-1.7,0.7-1.7,2c0,1.2,0.6,2,1.7,2c0.8,0,1.4-0.3,1.9-0.8V16c-0.3,0.3-1.1,0.7-2.2,0.7C107.4,16.7,106,15.6,106,13z"/>
		<path id="XMLID_327_" class="st16" d="M112.6,13c0-2.6,1.7-3.7,3.7-3.7c2.1,0,3.5,1.1,3.5,3.7c0,2.6-1.7,3.7-3.7,3.7
			C114.1,16.7,112.6,15.6,112.6,13z M117.7,13c0-1.2-0.5-2-1.5-2c-1,0-1.4,0.8-1.4,2c0,1.2,0.5,2,1.4,2
			C117.2,15,117.7,14.3,117.7,13z"/>
		<path id="XMLID_325_" class="st16" d="M121,9.5h1.9l0.2,0.6c0.3-0.5,1-0.8,1.9-0.8c1.9,0,2.6,0.9,2.6,2.9v4.3h-2.1v-4
			c0-1.1-0.3-1.6-1.1-1.6c-0.6,0-1,0.3-1.2,0.6v5H121V9.5z"/>
		<path id="XMLID_322_" class="st16" d="M128.6,13.1c0-2.5,1.3-3.8,3.2-3.8c0.6,0,1.2,0.1,1.5,0.4V7h2.1v9.5h-1.9l-0.2-0.6
			c-0.2,0.4-0.8,0.8-1.9,0.8C129.8,16.7,128.6,15.7,128.6,13.1z M133.3,11.4c-0.3-0.3-0.7-0.5-1.2-0.5c-1,0-1.4,1-1.4,2.2
			s0.3,2,1.3,2c0.6,0,1-0.2,1.2-0.5V11.4z"/>
		<path id="XMLID_319_" class="st16" d="M136.6,14.7c0-1.4,1-2,3-2.3l1-0.2c0-0.9-0.5-1.2-1.4-1.2c-1,0-2,0.5-2.3,1.2v-2
			c0.3-0.4,1.1-0.9,2.7-0.9c2.1,0,3.2,0.9,3.2,3v4.2h-1.8l-0.2-0.6c-0.2,0.4-0.8,0.8-1.8,0.8C137.6,16.7,136.6,16.1,136.6,14.7z
			 M140.7,13.5l-0.8,0.2c-0.9,0.2-1.3,0.4-1.3,0.9c0,0.5,0.3,0.7,0.9,0.7c0.6,0,1-0.2,1.2-0.5V13.5z"/>
		<path id="XMLID_317_" class="st16" d="M144.2,9.5h1.7l0.2,0.9c0.1-0.7,0.7-1.1,1.4-1.1c0.4,0,0.6,0.1,0.7,0.2v1.9
			c-0.2-0.1-0.4-0.2-0.8-0.2c-0.5,0-0.9,0.2-1.1,0.6v4.8h-2.1V9.5z"/>
		<path id="XMLID_315_" class="st16" d="M148.9,18.8v-1.7c0.3,0.3,0.8,0.5,1.2,0.5c0.5,0,0.9-0.2,1.3-0.9l-2.8-7.2h2.3l1.5,4.6
			l1.2-4.6h2l-2,6.6c-0.5,1.7-1.4,3-3.3,3C149.7,19.2,149.2,19,148.9,18.8z"/>
		<path id="XMLID_313_" class="st16" d="M159.6,9.5h1.9l0.1,0.6c0.3-0.5,1-0.8,1.8-0.8c1,0,1.7,0.3,2.1,1c0.4-0.5,1-1,2.1-1
			c1.8,0,2.4,0.9,2.4,2.9v4.3h-2.1v-4c0-1.1-0.3-1.6-1-1.6c-0.5,0-0.9,0.3-1.1,0.6c0,0.2,0.1,0.4,0.1,0.7v4.3h-2.1v-4
			c0-1.1-0.3-1.6-1-1.6c-0.5,0-0.9,0.3-1.1,0.6v5h-2.1V9.5z"/>
		<path id="XMLID_310_" class="st16" d="M171.1,13c0-2.6,1.7-3.7,3.5-3.7c1.7,0,3.3,0.7,3.3,3.4v0.9h-4.6c0.1,0.8,0.6,1.4,1.9,1.4
			c1.2,0,1.9-0.4,2.3-0.8V16c-0.4,0.4-1.2,0.8-2.7,0.8C172.6,16.7,171.1,15.6,171.1,13z M175.9,12.3L175.9,12.3
			c0-0.9-0.4-1.4-1.3-1.4c-0.8,0-1.3,0.7-1.3,1.4H175.9z"/>
		<path id="XMLID_307_" class="st16" d="M178.7,14.7c0-1.4,1-2,3-2.3l1-0.2c0-0.9-0.5-1.2-1.4-1.2c-1,0-2,0.5-2.3,1.2v-2
			c0.3-0.4,1.1-0.9,2.7-0.9c2.1,0,3.2,0.9,3.2,3v4.2h-1.8l-0.2-0.6c-0.2,0.4-0.8,0.8-1.8,0.8C179.7,16.7,178.7,16.1,178.7,14.7z
			 M182.8,13.5l-0.8,0.2c-0.9,0.2-1.3,0.4-1.3,0.9c0,0.5,0.3,0.7,0.9,0.7c0.6,0,1-0.2,1.2-0.5V13.5z"/>
		<path id="XMLID_305_" class="st16" d="M186.2,16.2v-1.8c0.5,0.4,1.2,0.8,2.1,0.8c0.9,0,1.2-0.3,1.2-0.6c0-0.4-0.2-0.5-1-0.6
			l-0.4-0.1c-1.5-0.2-2.1-0.9-2.1-2.2c0-1.2,0.9-2.3,3-2.3c1.1,0,1.9,0.3,2.2,0.6v1.8c-0.5-0.5-1.2-0.8-2.2-0.8
			c-0.8,0-1.1,0.2-1.1,0.6c0,0.4,0.2,0.5,0.9,0.6l0.4,0.1c1.6,0.2,2.3,0.8,2.3,2.1c0,1.2-0.9,2.4-3.1,2.4
			C187.3,16.7,186.6,16.5,186.2,16.2z"/>
		<path id="XMLID_303_" class="st16" d="M192.6,13.9V9.5h2.1v4c0,1.2,0.2,1.6,1,1.6c0.6,0,1-0.3,1.1-0.6v-5h2.1v7h-1.9l-0.1-0.6
			c-0.3,0.4-1,0.8-1.9,0.8C193.3,16.7,192.6,15.8,192.6,13.9z"/>
		<path id="XMLID_301_" class="st16" d="M200.5,9.5h1.7l0.2,0.9c0.1-0.7,0.7-1.1,1.4-1.1c0.4,0,0.6,0.1,0.7,0.2v1.9
			c-0.2-0.1-0.4-0.2-0.8-0.2c-0.5,0-0.9,0.2-1.1,0.6v4.8h-2.1V9.5z"/>
		<path id="XMLID_298_" class="st16" d="M205,13c0-2.6,1.7-3.7,3.5-3.7c1.7,0,3.3,0.7,3.3,3.4v0.9h-4.6c0.1,0.8,0.6,1.4,1.9,1.4
			c1.2,0,1.9-0.4,2.3-0.8V16c-0.4,0.4-1.2,0.8-2.7,0.8C206.4,16.7,205,15.6,205,13z M209.8,12.3L209.8,12.3c0-0.9-0.4-1.4-1.3-1.4
			c-0.8,0-1.3,0.7-1.3,1.4H209.8z"/>
		<path id="XMLID_295_" class="st16" d="M215.7,13c0-2.6,1.7-3.7,3.7-3.7c2.1,0,3.5,1.1,3.5,3.7c0,2.6-1.7,3.7-3.7,3.7
			C217.2,16.7,215.7,15.6,215.7,13z M220.8,13c0-1.2-0.5-2-1.5-2c-1,0-1.4,0.8-1.4,2c0,1.2,0.5,2,1.4,2
			C220.3,15,220.8,14.3,220.8,13z"/>
		<path id="XMLID_293_" class="st16" d="M224.4,11.2h-0.8v-0.7l0.8-0.7c-0.1-0.2-0.2-0.6-0.2-1c0-1.3,1.2-2,2.5-2
			c1,0,1.5,0.2,1.8,0.4v1.7c-0.3-0.4-0.7-0.5-1.3-0.5c-0.6,0-0.9,0.2-0.9,0.7c0,0.2,0.1,0.4,0.2,0.5h1.4v1.6h-1.3v5.4h-2.1V11.2z"/>
		<path id="XMLID_290_" class="st16" d="M231.6,13c0-2.6,1.7-3.7,3.5-3.7c1.7,0,3.3,0.7,3.3,3.4v0.9h-4.6c0.1,0.8,0.6,1.4,1.9,1.4
			c1.2,0,1.9-0.4,2.3-0.8V16c-0.4,0.4-1.2,0.8-2.7,0.8C233,16.7,231.6,15.6,231.6,13z M236.4,12.3L236.4,12.3c0-0.9-0.4-1.4-1.3-1.4
			c-0.8,0-1.3,0.7-1.3,1.4H236.4z"/>
		<path id="XMLID_287_" class="st16" d="M239.9,11.1h-0.8v-0.7l0.8-0.7c-0.1-0.2-0.2-0.6-0.2-1c0-1.3,1.2-2,2.3-2
			c0.9,0,1.3,0.2,1.5,0.4v1.7c-0.2-0.3-0.5-0.5-1-0.5c-0.4,0-0.8,0.2-0.8,0.7c0,0.2,0.1,0.4,0.2,0.5h2.2c-0.1-0.2-0.2-0.5-0.2-0.8
			c0-1.3,1.1-2,2.4-2c0.8,0,1.2,0.2,1.4,0.4v1.7c-0.2-0.3-0.5-0.5-1-0.5c-0.5,0-0.8,0.2-0.8,0.7c0,0.2,0.1,0.4,0.2,0.5h4.4v6.9h-2.1
			v-5.4h-2.1v5.4h-2.1v-5.4H242v5.4h-2.1V11.1z M248.4,7.9c0-0.6,0.4-1,1.1-1c0.7,0,1.1,0.4,1.1,1c0,0.6-0.4,1-1.1,1
			C248.8,8.9,248.4,8.5,248.4,7.9z"/>
		<path id="XMLID_285_" class="st16" d="M251.7,13c0-2.5,1.7-3.7,3.6-3.7c1,0,1.8,0.3,2.1,0.6v1.9c-0.5-0.5-1-0.7-1.8-0.7
			c-1.1,0-1.7,0.7-1.7,2c0,1.2,0.6,2,1.7,2c0.8,0,1.4-0.3,1.9-0.8V16c-0.3,0.3-1.1,0.7-2.2,0.7C253.1,16.7,251.7,15.6,251.7,13z"/>
		<path id="XMLID_282_" class="st16" d="M258.3,14.7c0-1.4,1-2,3-2.3l1-0.2c0-0.9-0.5-1.2-1.4-1.2c-1,0-2,0.5-2.3,1.2v-2
			c0.3-0.4,1.1-0.9,2.7-0.9c2.1,0,3.2,0.9,3.2,3v4.2h-1.8l-0.2-0.6c-0.2,0.4-0.8,0.8-1.8,0.8C259.3,16.7,258.3,16.1,258.3,14.7z
			 M262.3,13.5l-0.8,0.2c-0.9,0.2-1.3,0.4-1.3,0.9c0,0.5,0.3,0.7,0.9,0.7c0.6,0,1-0.2,1.2-0.5V13.5z"/>
		<path id="XMLID_280_" class="st16" d="M265.6,13c0-2.5,1.7-3.7,3.6-3.7c1,0,1.8,0.3,2.1,0.6v1.9c-0.5-0.5-1-0.7-1.8-0.7
			c-1.1,0-1.7,0.7-1.7,2c0,1.2,0.6,2,1.7,2c0.8,0,1.4-0.3,1.9-0.8V16c-0.3,0.3-1.1,0.7-2.2,0.7C267,16.7,265.6,15.6,265.6,13z"/>
		<path id="XMLID_278_" class="st16" d="M272.2,18.8v-1.7c0.3,0.3,0.8,0.5,1.2,0.5c0.5,0,0.9-0.2,1.3-0.9l-2.8-7.2h2.3l1.5,4.6
			l1.2-4.6h2l-2,6.6c-0.5,1.7-1.4,3-3.3,3C272.9,19.2,272.4,19,272.2,18.8z"/>
		<path id="XMLID_275_" class="st16" d="M279.6,10.9c0-0.7,0.5-1.2,1.2-1.2c0.7,0,1.2,0.5,1.2,1.2c0,0.7-0.5,1.2-1.2,1.2
			C280.2,12.1,279.6,11.6,279.6,10.9z M279.6,15.5c0-0.7,0.5-1.2,1.2-1.2c0.7,0,1.2,0.5,1.2,1.2c0,0.7-0.5,1.2-1.2,1.2
			C280.2,16.7,279.6,16.2,279.6,15.5z"/>
		<path id="XMLID_273_" class="st16" d="M111.8,23h3c2.6,0,3.7,1.1,3.7,2.9c0,1.9-1.1,3.2-3.7,3.2h-0.4v-1.6h0.4
			c1.1,0,1.6-0.6,1.6-1.5c0-1-0.5-1.5-1.6-1.5h-0.7v7h-2.2V23z"/>
		<path id="XMLID_270_" class="st16" d="M119.1,28.1c0-2.6,1.7-3.7,3.7-3.7c2.1,0,3.5,1.1,3.5,3.7c0,2.6-1.7,3.7-3.7,3.7
			C120.6,31.9,119.1,30.7,119.1,28.1z M124.2,28.1c0-1.2-0.5-2-1.5-2c-1,0-1.4,0.8-1.4,2c0,1.2,0.5,2,1.4,2
			C123.8,30.2,124.2,29.4,124.2,28.1z"/>
		<path id="XMLID_268_" class="st16" d="M127.3,31.3v-1.8c0.5,0.4,1.2,0.8,2.1,0.8c0.9,0,1.2-0.3,1.2-0.6c0-0.4-0.2-0.5-1-0.6
			l-0.4-0.1c-1.5-0.2-2.1-0.9-2.1-2.2c0-1.2,0.9-2.3,3-2.3c1.1,0,1.9,0.3,2.2,0.6v1.8c-0.5-0.5-1.2-0.8-2.2-0.8
			c-0.8,0-1.1,0.2-1.1,0.6c0,0.4,0.2,0.5,0.9,0.6l0.4,0.1c1.6,0.2,2.3,0.8,2.3,2.1c0,1.2-0.9,2.4-3.1,2.4
			C128.4,31.9,127.7,31.6,127.3,31.3z"/>
		<path id="XMLID_265_" class="st16" d="M133.8,23c0-0.6,0.4-1,1.1-1c0.7,0,1.1,0.4,1.1,1c0,0.6-0.4,1-1.1,1
			C134.2,23.9,133.8,23.6,133.8,23z M133.8,24.6h2.1v7h-2.1V24.6z"/>
		<path id="XMLID_263_" class="st16" d="M137.8,29.6v-3.4h-0.8v-0.7l0.7-0.9l1.3-1.7h1v1.7h1.7v1.6h-1.7v3.2c0,0.5,0.2,0.8,0.6,0.8
			c0.5,0,0.8-0.2,1-0.6v1.7c-0.2,0.3-0.7,0.6-1.6,0.6C138.4,31.9,137.8,31,137.8,29.6z"/>
		<path id="XMLID_260_" class="st16" d="M142.7,23c0-0.6,0.4-1,1.1-1c0.7,0,1.1,0.4,1.1,1c0,0.6-0.4,1-1.1,1
			C143.1,23.9,142.7,23.6,142.7,23z M142.7,24.6h2.1v7h-2.1V24.6z"/>
		<path id="XMLID_258_" class="st16" d="M145.6,24.6h2.3L149,28l0.2,0.8c0.1-0.2,0.2-0.6,0.2-0.8l1.2-3.3h2.1l-2.9,7h-1.4
			L145.6,24.6z"/>
		<path id="XMLID_255_" class="st16" d="M152.9,28.1c0-2.6,1.7-3.7,3.5-3.7c1.7,0,3.3,0.7,3.3,3.4v0.9h-4.6c0.1,0.8,0.6,1.4,1.9,1.4
			c1.2,0,1.9-0.4,2.3-0.8v1.7c-0.4,0.4-1.2,0.8-2.7,0.8C154.4,31.9,152.9,30.7,152.9,28.1z M157.7,27.5L157.7,27.5
			c0-0.9-0.4-1.4-1.3-1.4c-0.8,0-1.3,0.7-1.3,1.4H157.7z"/>
		<path id="XMLID_253_" class="st16" d="M163.8,31.2v-2.1c0.4,0.5,1.3,1,2.4,1c1,0,1.4-0.4,1.4-1c0-0.5-0.3-0.7-1.2-0.9l-0.3-0.1
			c-1.4-0.3-2.4-1.1-2.4-2.6c0-1.7,1.3-2.8,3.3-2.8c1.3,0,2.1,0.3,2.4,0.6v2.1c-0.4-0.5-1.3-1-2.4-1c-0.8,0-1.2,0.3-1.2,0.8
			c0,0.5,0.2,0.7,1,0.9l0.3,0.1c1.5,0.3,2.5,0.9,2.5,2.5c0,1.7-1.2,2.9-3.5,2.9C164.9,31.9,164.2,31.5,163.8,31.2z"/>
		<path id="XMLID_251_" class="st16" d="M170.9,29v-4.3h2.1v4c0,1.2,0.2,1.6,1,1.6c0.6,0,1-0.3,1.1-0.6v-5h2.1v7h-1.9l-0.1-0.6
			c-0.3,0.4-1,0.8-1.9,0.8C171.6,31.9,170.9,30.9,170.9,29z"/>
		<path id="XMLID_248_" class="st16" d="M180.7,31.2l-0.3,0.5h-1.6v-9.5h2.1v3.1c0.2-0.3,0.8-0.8,1.8-0.8c1.8,0,2.9,1,2.9,3.5
			c0,2.6-1.4,3.9-3.2,3.9C181.5,31.9,181,31.5,180.7,31.2z M180.9,29.8c0.3,0.3,0.7,0.5,1.2,0.5c1,0,1.4-1,1.4-2.2s-0.3-2-1.4-2
			c-0.6,0-1,0.2-1.2,0.6V29.8z"/>
		<path id="XMLID_246_" class="st16" d="M186.7,26.9h3.5v1.7h-3.5V26.9z"/>
		<path id="XMLID_244_" class="st16" d="M191.5,31.3v-1.8c0.5,0.4,1.2,0.8,2.1,0.8c0.9,0,1.2-0.3,1.2-0.6c0-0.4-0.2-0.5-1-0.6
			l-0.4-0.1c-1.5-0.2-2.1-0.9-2.1-2.2c0-1.2,0.9-2.3,3-2.3c1.1,0,1.9,0.3,2.2,0.6v1.8c-0.5-0.5-1.2-0.8-2.2-0.8
			c-0.8,0-1.1,0.2-1.1,0.6c0,0.4,0.2,0.5,0.9,0.6l0.4,0.1c1.6,0.2,2.3,0.8,2.3,2.1c0,1.2-0.9,2.4-3.1,2.4
			C192.6,31.9,191.9,31.6,191.5,31.3z"/>
		<path id="XMLID_242_" class="st16" d="M197.6,28.1c0-2.5,1.7-3.7,3.6-3.7c1,0,1.8,0.3,2.1,0.6v1.9c-0.5-0.5-1-0.7-1.8-0.7
			c-1.1,0-1.7,0.7-1.7,2c0,1.2,0.6,2,1.7,2c0.8,0,1.4-0.3,1.9-0.8v1.8c-0.3,0.3-1.1,0.7-2.2,0.7C199.1,31.9,197.6,30.7,197.6,28.1z"
			/>
		<path id="XMLID_239_" class="st16" d="M204.2,29.8c0-1.4,1-2,3-2.3l1-0.2c0-0.9-0.5-1.2-1.4-1.2c-1,0-2,0.5-2.3,1.2v-2
			c0.3-0.4,1.1-0.9,2.7-0.9c2.1,0,3.2,0.9,3.2,3v4.2h-1.8l-0.2-0.6c-0.2,0.4-0.8,0.8-1.8,0.8C205.3,31.9,204.2,31.2,204.2,29.8z
			 M208.3,28.6l-0.8,0.2c-0.9,0.2-1.3,0.4-1.3,0.9c0,0.5,0.3,0.7,0.9,0.7c0.6,0,1-0.2,1.2-0.5V28.6z"/>
		<path id="XMLID_237_" class="st16" d="M211.8,29.9v-7.8h2.1v7.5c0,0.4,0.1,0.5,0.4,0.5c0.3,0,0.5-0.1,0.6-0.3v1.6
			c-0.2,0.2-0.6,0.4-1.3,0.4C212.5,31.9,211.8,31.2,211.8,29.9z"/>
		<path id="XMLID_234_" class="st16" d="M215.6,28.1c0-2.6,1.7-3.7,3.5-3.7c1.7,0,3.3,0.7,3.3,3.4v0.9h-4.6c0.1,0.8,0.6,1.4,1.9,1.4
			c1.2,0,1.9-0.4,2.3-0.8v1.7c-0.4,0.4-1.2,0.8-2.7,0.8C217,31.9,215.6,30.7,215.6,28.1z M220.4,27.5L220.4,27.5
			c0-0.9-0.4-1.4-1.3-1.4c-0.8,0-1.3,0.7-1.3,1.4H220.4z"/>
		<path id="XMLID_232_" class="st16" d="M226.5,31.2v-2.1c0.4,0.5,1.3,1,2.4,1c1,0,1.4-0.4,1.4-1c0-0.5-0.3-0.7-1.2-0.9l-0.3-0.1
			c-1.4-0.3-2.4-1.1-2.4-2.6c0-1.7,1.3-2.8,3.3-2.8c1.3,0,2.1,0.3,2.4,0.6v2.1c-0.4-0.5-1.3-1-2.4-1c-0.8,0-1.2,0.3-1.2,0.8
			c0,0.5,0.2,0.7,1,0.9l0.3,0.1c1.5,0.3,2.5,0.9,2.5,2.5c0,1.7-1.2,2.9-3.5,2.9C227.6,31.9,226.8,31.5,226.5,31.2z"/>
		<path id="XMLID_230_" class="st16" d="M233.3,28.1c0-2.5,1.7-3.7,3.6-3.7c1,0,1.8,0.3,2.1,0.6v1.9c-0.5-0.5-1-0.7-1.8-0.7
			c-1.1,0-1.7,0.7-1.7,2c0,1.2,0.6,2,1.7,2c0.8,0,1.4-0.3,1.9-0.8v1.8c-0.3,0.3-1.1,0.7-2.2,0.7C234.7,31.9,233.3,30.7,233.3,28.1z"
			/>
		<path id="XMLID_227_" class="st16" d="M239.9,28.1c0-2.6,1.7-3.7,3.7-3.7c2.1,0,3.5,1.1,3.5,3.7c0,2.6-1.7,3.7-3.7,3.7
			C241.3,31.9,239.9,30.7,239.9,28.1z M244.9,28.1c0-1.2-0.5-2-1.5-2c-1,0-1.4,0.8-1.4,2c0,1.2,0.5,2,1.4,2
			C244.5,30.2,244.9,29.4,244.9,28.1z"/>
		<path id="XMLID_225_" class="st16" d="M248.2,24.6h1.7l0.2,0.9c0.1-0.7,0.7-1.1,1.4-1.1c0.4,0,0.6,0.1,0.7,0.2v1.9
			c-0.2-0.1-0.4-0.2-0.8-0.2c-0.5,0-0.9,0.2-1.1,0.6v4.8h-2.1V24.6z"/>
		<path id="XMLID_222_" class="st16" d="M252.7,28.1c0-2.6,1.7-3.7,3.5-3.7c1.7,0,3.3,0.7,3.3,3.4v0.9h-4.6c0.1,0.8,0.6,1.4,1.9,1.4
			c1.2,0,1.9-0.4,2.3-0.8v1.7c-0.4,0.4-1.2,0.8-2.7,0.8C254.2,31.9,252.7,30.7,252.7,28.1z M257.5,27.5L257.5,27.5
			c0-0.9-0.4-1.4-1.3-1.4c-0.8,0-1.3,0.7-1.3,1.4H257.5z"/>
		<path id="XMLID_220_" class="st16" d="M261.2,23.9c-0.2,0.2-0.6,0.2-1.1,0.2v-1c0.7,0,1.3-0.2,1.7-0.7h0.7v5h-1.2V23.9z"/>
	</g>
</g>
<g id="XMLID_100_">
	<g id="XMLID_213_">
		<g id="XMLID_215_">
			<path id="XMLID_216_" class="st9" d="M305.8,220.6c6.9,0,13.8,0,20.8,0c1.2,0,1.2-2,0-2c-6.9,0-13.8,0-20.8,0
				C304.7,218.6,304.7,220.6,305.8,220.6L305.8,220.6z"/>
		</g>
		<rect id="XMLID_214_" x="313.3" y="216.5" class="st9" width="5.8" height="6.3"/>
	</g>
	<g id="XMLID_101_">
		<g id="XMLID_120_">
			<g id="XMLID_122_">
				<g id="XMLID_123_">
					<path id="XMLID_167_" class="st9" d="M338.1,219.7h3.5c0.5,0,0.8-0.1,0.8-0.4c0-0.3-0.2-0.3-0.5-0.4c-1.7-0.1-2.1-0.6-2.1-1.7
						c0-1.1,0.7-1.8,2.3-1.8c1,0,1.4,0.1,1.8,0.3v1.4c-0.5-0.2-1.1-0.3-1.7-0.3c-0.5,0-0.7,0.1-0.7,0.4c0,0.3,0.2,0.3,0.5,0.4
						c1.7,0.1,2.1,0.6,2.1,1.7c0,1-0.6,1.8-2.4,1.8h-3.3"/>
					<path id="XMLID_164_" class="st9" d="M346,218.8c0,0.7,0.3,0.9,1.1,0.9c0.8,0,1.4-0.2,1.8-0.4v1.3c-0.6,0.3-1.4,0.4-2,0.4
						c-1.8,0-2.6-0.9-2.6-2.8s0.8-2.8,2.5-2.8c2.3,0,2.4,1.7,2.3,3.4H346z M346,217.8h1.5c0.1-0.6,0-1.1-0.7-1.1
						C346.2,216.7,346,217.1,346,217.8"/>
					<path id="XMLID_163_" class="st9" d="M350.6,215.6l0.2,0.4c0.6-0.4,1.3-0.5,1.8-0.5c1.4,0,1.9,0.8,1.9,1.8v3.7h-1.7v-3.4
						c0-0.4-0.1-0.7-0.6-0.7c-0.4,0-0.8,0.2-0.9,0.3v3.8h-1.7v-5.3H350.6z"/>
					<path id="XMLID_160_" class="st9" d="M357.8,217.2c0-0.2-0.2-0.4-0.6-0.4c-0.7,0-1.4,0.2-1.9,0.4v-1.4c0.4-0.2,1.2-0.4,1.9-0.4
						c1.9,0,2.3,0.8,2.3,2v3.5h-1l-0.2-0.4c-0.4,0.3-0.9,0.6-1.6,0.6c-1.3,0-1.8-0.9-1.8-1.7c0-1.4,1.1-1.6,2-1.7l1-0.1V217.2z
						 M357.1,218.6c-0.5,0.1-0.7,0.3-0.7,0.7c0,0.4,0.3,0.6,0.6,0.6c0.3,0,0.6-0.1,0.8-0.3v-1.2L357.1,218.6z"/>
					<path id="XMLID_157_" class="st9" d="M361.1,215.6l0.3,0.4c0.4-0.3,0.9-0.6,1.7-0.6c1.4,0,2.1,0.9,2.1,2.8c0,2-0.7,2.8-2.1,2.8
						c-0.6,0-1-0.1-1.3-0.3v2.9h-1.7v-8H361.1z M361.8,219.5c0,0,0.3,0.2,0.8,0.2c0.8,0,1-0.5,1-1.4c0-0.9-0.2-1.4-1-1.4
						c-0.4,0-0.8,0.2-0.8,0.2V219.5z"/>
					<path id="XMLID_156_" class="st9" d="M367.7,221c0,0-0.2,0-0.5,0c-0.9,0-1.6-0.5-1.6-1.5v-3.9h1.7v3.7c0,0.2,0.1,0.3,0.4,0.3
						V221z"/>
					<path id="XMLID_155_" class="st9" d="M369.2,215.6l0.2,0.4c0.6-0.4,1.3-0.5,1.9-0.5c1.4,0,1.9,0.8,1.9,1.8v3.7h-1.7v-3.4
						c0-0.4-0.1-0.7-0.6-0.7c-0.4,0-0.8,0.2-0.9,0.3v3.8h-1.7v-5.3H369.2z"/>
					<path id="XMLID_152_" class="st9" d="M375.1,218.8c0,0.7,0.3,0.9,1.1,0.9c0.8,0,1.4-0.2,1.8-0.4v1.3c-0.6,0.3-1.4,0.4-2,0.4
						c-1.8,0-2.6-0.9-2.6-2.8s0.8-2.8,2.5-2.8c2.3,0,2.4,1.7,2.3,3.4H375.1z M375.1,217.8h1.5c0.1-0.6,0-1.1-0.7-1.1
						C375.4,216.7,375.1,217.1,375.1,217.8"/>
					<polyline id="XMLID_151_" class="st9" points="336.3,219.3 336.6,218 337.6,218 337,214.9 336.3,218 336,219.3 335.6,220.9 
						333.8,220.9 336,212.9 337.9,212.9 340.2,220.9 338.3,220.9 338,219.3 					"/>
					<g id="XMLID_129_">
						<polygon id="XMLID_150_" class="st9" points="363.4,223.5 363.4,222.6 362.4,222.6 362.4,223.5 362.3,223.5 362.3,221.5 
							362.4,221.5 362.4,222.4 363.4,222.4 363.4,221.5 363.6,221.5 363.6,223.5 						"/>
						<path id="XMLID_147_" class="st9" d="M364.1,221.6c0.1,0,0.1,0.1,0.1,0.1c0,0.1-0.1,0.1-0.1,0.1s-0.1-0.1-0.1-0.1
							C364,221.7,364.1,221.6,364.1,221.6 M364,223.2v-1.1h0.2v1.1c0,0.1,0,0.1,0.1,0.1v0.2C364.1,223.5,364,223.5,364,223.2"/>
						<polygon id="XMLID_146_" class="st9" points="365.1,222.7 365.7,223.5 365.5,223.5 365,222.8 364.8,223 364.8,223.5 
							364.6,223.5 364.6,221.5 364.8,221.5 364.8,222.8 365.4,222.2 365.7,222.2 						"/>
						<path id="XMLID_145_" class="st9" d="M367.5,222.5c0-0.2-0.1-0.2-0.3-0.2c-0.2,0-0.3,0-0.4,0.1c0,0,0,0.1,0,0.1v1h-0.2v-1
							c0-0.2-0.1-0.2-0.3-0.2c-0.2,0-0.2,0-0.3,0.1v1.1H366v-1.3h0.1l0,0.1c0.1-0.1,0.3-0.1,0.4-0.1c0.2,0,0.3,0.1,0.4,0.2
							c0.1-0.1,0.3-0.2,0.4-0.2c0.3,0,0.4,0.1,0.4,0.4v1h-0.2V222.5z"/>
						<path id="XMLID_142_" class="st9" d="M368.5,222.3c-0.2,0-0.3,0-0.4,0.1v-0.2c0.1-0.1,0.3-0.1,0.4-0.1c0.4,0,0.5,0.2,0.5,0.4
							v0.9h-0.1l0-0.1c-0.1,0.1-0.3,0.1-0.4,0.1c-0.4,0-0.5-0.2-0.5-0.4c0-0.2,0.1-0.4,0.5-0.4l0.4,0v-0.1
							C368.9,222.4,368.8,222.3,368.5,222.3 M368.5,222.8c-0.2,0-0.3,0.1-0.3,0.3c0,0.1,0,0.3,0.3,0.3c0.1,0,0.2,0,0.4-0.1v-0.5
							L368.5,222.8z"/>
						<path id="XMLID_139_" class="st9" d="M370.1,223.5h-0.2v-2h0.6c0.5,0,0.7,0.3,0.7,0.6c0,0.3-0.2,0.6-0.7,0.6h-0.4V223.5z
							 M370.1,222.5h0.5c0.4,0,0.4-0.2,0.4-0.4c0-0.2-0.1-0.4-0.4-0.4h-0.5V222.5z"/>
						<path id="XMLID_138_" class="st9" d="M372,222.3c-0.2,0-0.3,0-0.4,0.1v1.1h-0.2v-2h0.2v0.8c0.1-0.1,0.2-0.1,0.4-0.1
							c0.3,0,0.5,0.1,0.5,0.4v1h-0.2v-1C372.2,222.4,372.1,222.3,372,222.3"/>
						<path id="XMLID_135_" class="st9" d="M373.2,222.3c-0.2,0-0.3,0-0.4,0.1v-0.2c0.1-0.1,0.3-0.1,0.4-0.1c0.4,0,0.5,0.2,0.5,0.4
							v0.9h-0.1l0-0.1c-0.1,0.1-0.3,0.1-0.4,0.1c-0.3,0-0.5-0.2-0.5-0.4c0-0.2,0.1-0.4,0.5-0.4l0.4,0v-0.1
							C373.5,222.4,373.5,222.3,373.2,222.3 M373.2,222.8c-0.2,0-0.3,0.1-0.3,0.3c0,0.1,0,0.3,0.3,0.3c0.1,0,0.2,0,0.4-0.1v-0.5
							L373.2,222.8z"/>
						<path id="XMLID_134_" class="st9" d="M374.8,222.3c0,0-0.1,0-0.2,0c-0.2,0-0.3,0-0.4,0.1v1.1h-0.2v-1.3h0.1l0,0.1
							c0.1-0.1,0.3-0.1,0.4-0.1c0.1,0,0.1,0,0.2,0V222.3z"/>
						<path id="XMLID_133_" class="st9" d="M376.6,222.5c0-0.2-0.1-0.2-0.3-0.2c-0.2,0-0.3,0-0.4,0.1c0,0,0,0.1,0,0.1v1h-0.2v-1
							c0-0.2-0.1-0.2-0.3-0.2c-0.2,0-0.2,0-0.3,0.1v1.1h-0.2v-1.3h0.1l0,0.1c0.1-0.1,0.3-0.1,0.4-0.1c0.2,0,0.3,0.1,0.4,0.2
							c0.1-0.1,0.3-0.2,0.4-0.2c0.3,0,0.4,0.1,0.4,0.4v1h-0.2V222.5z"/>
						<path id="XMLID_130_" class="st9" d="M377.6,222.3c-0.2,0-0.3,0-0.4,0.1v-0.2c0.1-0.1,0.3-0.1,0.4-0.1c0.4,0,0.5,0.2,0.5,0.4
							v0.9H378l0-0.1c-0.1,0.1-0.3,0.1-0.4,0.1c-0.4,0-0.5-0.2-0.5-0.4c0-0.2,0.1-0.4,0.5-0.4l0.4,0v-0.1
							C377.9,222.4,377.9,222.3,377.6,222.3 M377.6,222.8c-0.2,0-0.3,0.1-0.3,0.3c0,0.1,0,0.3,0.3,0.3c0.1,0,0.2,0,0.4-0.1v-0.5
							L377.6,222.8z"/>
					</g>
					<g id="XMLID_124_">
						<path id="XMLID_128_" class="st9" d="M367.1,212.6c-0.2,0-0.4,0.1-0.6,0.2c0.1,0,0.2,0.1,0.2,0.2c0.5,0.1,0.8,0.5,0.8,1
							c0,0.5-0.3,0.9-0.8,1c-0.1,0.1-0.1,0.1-0.2,0.2c0.2,0.1,0.4,0.2,0.6,0.2c0.7,0,1.3-0.6,1.3-1.3
							C368.4,213.2,367.8,212.6,367.1,212.6z"/>
						<path id="XMLID_127_" class="st17" d="M365.4,213.9c0-0.5,0.3-0.9,0.8-1c0.1-0.1,0.1-0.1,0.2-0.2c-0.2-0.1-0.4-0.2-0.6-0.2
							c-0.7,0-1.3,0.6-1.3,1.3c0,0.7,0.6,1.3,1.3,1.3c0.2,0,0.4-0.1,0.6-0.2c-0.1,0-0.2-0.1-0.2-0.2
							C365.8,214.8,365.4,214.4,365.4,213.9z"/>
						<path id="XMLID_126_" class="st17" d="M366.5,214.9c-0.1,0-0.2,0-0.2,0c0.1,0.1,0.1,0.1,0.2,0.2c0.1,0,0.2-0.1,0.2-0.2
							C366.6,214.9,366.5,214.9,366.5,214.9z"/>
						<path id="XMLID_125_" class="st17" d="M366.5,212.9c0.1,0,0.2,0,0.2,0c-0.1-0.1-0.1-0.1-0.2-0.2c-0.1,0-0.2,0.1-0.2,0.2
							C366.3,212.9,366.4,212.9,366.5,212.9z"/>
					</g>
				</g>
			</g>
		</g>
		<g id="XMLID_102_">
			<g id="XMLID_110_">
				<path id="XMLID_116_" class="st9" d="M359.4,227.5h2c1.8,0,2.6,0.5,2.6,1.5c0,0.8-0.5,1.2-1.3,1.4v0c0.8,0.1,1.4,0.5,1.4,1.4
					c0,1-0.7,1.7-2.6,1.7h-2V227.5z M361.4,230c1,0,1.3-0.3,1.3-0.8c0-0.5-0.4-0.7-1.3-0.7h-0.7v1.5H361.4z M361.5,232.6
					c1,0,1.3-0.3,1.3-0.8c0-0.5-0.3-0.8-1.3-0.8h-0.8v1.6H361.5z"/>
				<path id="XMLID_114_" class="st9" d="M365.3,227.5h1.3v6h-1.3V227.5z"/>
				<path id="XMLID_111_" class="st9" d="M368.1,227.5h1.9c2.2,0,3.6,0.8,3.6,3c0,2.2-1.6,3-3.6,3h-1.9V227.5z M370,232.5
					c1.7,0,2.2-0.6,2.2-1.9c0-1.4-0.5-2-2.2-2h-0.6v4H370z"/>
			</g>
			<path id="XMLID_108_" class="st9" d="M343.6,225.9h-2.3l-0.4,1.3c0,0,0.1,0,0.1,0c0.1,0,0.1,0,0.2,0c0.7,0,1.3,0.3,1.8,0.8
				c0.5,0.5,0.7,1.1,0.7,1.9c0,0.8-0.3,1.5-0.8,2c-0.5,0.5-1.2,0.8-2,0.8c-1,0-1.8-0.5-2.4-1.4l0.8-0.7c0.3,0.4,0.5,0.7,0.8,0.9
				c0.2,0.2,0.5,0.2,0.9,0.2c0.5,0,0.8-0.1,1.2-0.5c0.3-0.3,0.5-0.7,0.5-1.2c0-0.5-0.1-0.9-0.5-1.2c-0.3-0.3-0.7-0.5-1.1-0.5
				c-0.5,0-1,0.2-1.3,0.7h-0.4l1.2-4h3.1V225.9z"/>
			<path id="XMLID_106_" class="st9" d="M345.1,227.6h1.1v0.4c0.2-0.2,0.4-0.4,0.6-0.4c0.1-0.1,0.4-0.1,0.6-0.1c0.5,0,1,0.2,1.3,0.7
				c0.3-0.5,0.8-0.7,1.4-0.7c1.1,0,1.6,0.6,1.6,2v3h-1.1v-2.7c0-0.5-0.1-0.8-0.2-1c-0.1-0.2-0.3-0.3-0.6-0.3c-0.3,0-0.5,0.1-0.7,0.3
				c-0.1,0.2-0.2,0.6-0.2,1.1v2.5h-1.1v-2.6c0-0.9-0.3-1.3-0.7-1.3c-0.3,0-0.5,0.1-0.7,0.3c-0.1,0.2-0.2,0.6-0.2,1.1v2.5h-1.1V227.6
				z"/>
			<path id="XMLID_103_" class="st9" d="M357,232.3c0,0.2,0,0.4,0,0.6c0,0.2,0,0.3-0.1,0.5c-0.1,0.4-0.2,0.7-0.5,0.9
				c-0.4,0.5-1,0.8-1.8,0.8c-0.6,0-1.2-0.2-1.6-0.5c-0.4-0.3-0.7-0.8-0.7-1.5h1.1c0,0.2,0.1,0.4,0.2,0.5c0.2,0.3,0.6,0.4,1,0.4
				c0.8,0,1.2-0.5,1.2-1.5v-0.7c-0.4,0.5-1,0.7-1.5,0.7c-0.7,0-1.2-0.2-1.6-0.7c-0.4-0.5-0.6-1.1-0.6-1.8c0-0.7,0.2-1.3,0.6-1.8
				c0.4-0.5,1-0.8,1.7-0.8c0.6,0,1.1,0.2,1.5,0.7v-0.5h1.1V232.3z M355.9,230c0-0.5-0.1-0.8-0.4-1.1c-0.3-0.3-0.6-0.4-1-0.4
				c-0.4,0-0.8,0.2-1,0.5c-0.2,0.3-0.3,0.6-0.3,1.1c0,0.4,0.1,0.8,0.3,1.1c0.2,0.3,0.6,0.4,1,0.4c0.4,0,0.8-0.1,1-0.4
				C355.8,230.8,355.9,230.5,355.9,230z"/>
		</g>
	</g>
</g>
<g id="XMLID_3_">
	<g id="XMLID_93_">
		<g id="XMLID_97_">
			<g id="XMLID_98_">
				<path id="XMLID_99_" class="st18" d="M305.7,168c5.8,0,11.5,0,17.3,0c1,0,1-1.7,0-1.7c-5.8,0-11.5,0-17.3,0
					C304.7,166.3,304.7,168,305.7,168L305.7,168z"/>
			</g>
		</g>
		<g id="XMLID_94_">
			<line id="XMLID_96_" class="st7" x1="316.4" y1="164.1" x2="312.1" y2="170.2"/>
			<line id="XMLID_95_" class="st7" x1="316.6" y1="170.1" x2="312" y2="164.3"/>
		</g>
	</g>
	<g id="XMLID_4_">
		<g id="XMLID_6_">
			<path id="XMLID_46_" class="st2" d="M333.3,158.5h1v2.4h2.2v-2.4h1v5.9h-1v-2.5h-2.2v2.5h-1V158.5z"/>
			<path id="XMLID_43_" class="st2" d="M340.1,159.1l-0.2-0.6h1.1l2.1,5.9H342l-0.4-1.2h-2l-0.4,1.2h-1L340.1,159.1z M339.9,162.3
				h1.4l-0.6-1.6l-0.2-0.5l-0.1,0.5L339.9,162.3z"/>
			<path id="XMLID_41_" class="st2" d="M343.7,158.5h1v4.9h2v1h-3V158.5z"/>
			<path id="XMLID_38_" class="st2" d="M347.1,161.5c0-2,1.3-3.1,2.6-3.1c1.6,0,2.6,1.1,2.6,3.1s-1.3,3.1-2.6,3.1
				C348.2,164.5,347.1,163.5,347.1,161.5z M351.3,161.5c0-1.4-0.6-2.1-1.6-2.1c-1,0-1.6,0.7-1.6,2c0,1.4,0.6,2.2,1.6,2.2
				C350.7,163.6,351.3,162.8,351.3,161.5z"/>
			<path id="XMLID_36_" class="st2" d="M353.3,158.5h1.6c1.6,0,2.2,0.7,2.2,1.9c0,1.2-0.7,2.2-2.2,2.2h-0.3v-0.9h0.3
				c0.8,0,1.2-0.5,1.2-1.2c0-0.7-0.4-1.1-1.2-1.1h-0.5v4.9h-1V158.5z"/>
			<path id="XMLID_33_" class="st2" d="M358.9,162.2L358.9,162.2l-0.1,2.2h-1v-5.9h1.5c1.2,0,2.1,0.5,2.1,1.7c0,1-0.6,1.6-1.4,1.9
				l1.8,2.3h-1.2L358.9,162.2z M359.3,161.4c0.7,0,1-0.3,1-1c0-0.7-0.4-0.9-1-0.9h-0.5v2H359.3z"/>
			<path id="XMLID_31_" class="st2" d="M362.4,158.5h1v5.9h-1V158.5z"/>
			<path id="XMLID_28_" class="st2" d="M364.7,158.5h1.5c1.8,0,2.8,0.8,2.8,2.9c0,2.1-1.3,2.9-2.8,2.9h-1.5V158.5z M366.2,163.4
				c1.4,0,1.8-0.6,1.8-1.9c0-1.3-0.4-2-1.8-2h-0.5v3.9H366.2z"/>
			<path id="XMLID_25_" class="st2" d="M369.7,161.5c0-2,1.3-3.1,2.6-3.1c1.6,0,2.6,1.1,2.6,3.1s-1.3,3.1-2.6,3.1
				C370.7,164.5,369.7,163.5,369.7,161.5z M373.9,161.5c0-1.4-0.6-2.1-1.6-2.1c-1,0-1.6,0.7-1.6,2c0,1.4,0.6,2.2,1.6,2.2
				C373.2,163.6,373.9,162.8,373.9,161.5z"/>
			<path id="XMLID_23_" class="st2" d="M375.8,158.5h1v4.9h2v1h-3V158.5z"/>
			<path id="XMLID_21_" class="st2" d="M343.5,173.5h-2.6v-0.1l1.5-4.6h1l-1.2,3.6h1.3v-2.1h1v2.1h0.6v1h-0.6v1.2h-1V173.5z"/>
			<path id="XMLID_19_" class="st2" d="M345.7,170h1l0,0.4c0.2-0.3,0.5-0.6,1-0.6c0.6,0,1,0.2,1.3,0.7c0.2-0.3,0.6-0.7,1.3-0.7
				c1.1,0,1.5,0.6,1.5,1.9v3h-1V172c0-0.9-0.2-1.3-0.7-1.3c-0.4,0-0.7,0.2-0.8,0.5c0,0.2,0,0.4,0,0.6v3h-1V172
				c0-0.9-0.2-1.3-0.7-1.3c-0.4,0-0.7,0.2-0.8,0.5v3.5h-1V170z"/>
			<path id="XMLID_16_" class="st2" d="M352.6,176v-0.9c0.4,0.3,1,0.5,1.8,0.5c1,0,1.5-0.2,1.5-0.6c0-0.4-0.3-0.5-1-0.5
				c-0.6,0-1.5,0.1-1.8,0.3v-0.8l0.6-1.1c-0.6-0.2-1-0.7-1-1.5c0-1,0.8-1.7,1.8-1.7c0.5,0,0.9,0.1,1.2,0.4c0.1-0.2,0.5-0.4,0.8-0.4
				c0.1,0,0.2,0,0.3,0v0.9c-0.1,0-0.2-0.1-0.3-0.1c-0.2,0-0.3,0.1-0.4,0.1c0.1,0.2,0.1,0.4,0.1,0.7c0,1-0.7,1.6-1.8,1.6h-0.1
				l-0.4,0.7c0.2-0.1,0.7-0.1,1.1-0.1c1.1,0,1.7,0.3,1.7,1.2c0,0.9-0.8,1.6-2.4,1.6C353.6,176.5,352.9,176.3,352.6,176z
				 M355.3,171.5c0-0.5-0.3-0.8-0.8-0.8s-0.8,0.3-0.8,0.8c0,0.5,0.3,0.8,0.8,0.8S355.3,172,355.3,171.5z"/>
			<path id="XMLID_12_" class="st2" d="M359.3,168.9h1.6c1.5,0,2.1,0.5,2.1,1.5c0,0.8-0.4,1.2-1,1.4v0c0.6,0.1,1.1,0.4,1.1,1.4
				c0,0.9-0.6,1.7-2.1,1.7h-1.6V168.9z M361,171.3c0.8,0,1-0.3,1-0.8s-0.3-0.7-1-0.7h-0.6v1.5H361z M361,173.8c0.8,0,1-0.3,1-0.8
				s-0.3-0.8-1-0.8h-0.6v1.6H361z"/>
			<path id="XMLID_10_" class="st2" d="M364,168.9h1v5.9h-1V168.9z"/>
			<path id="XMLID_7_" class="st2" d="M366.2,168.9h1.5c1.8,0,2.8,0.8,2.8,2.9c0,2.1-1.3,2.9-2.8,2.9h-1.5V168.9z M367.8,173.7
				c1.4,0,1.8-0.6,1.8-1.9c0-1.3-0.4-2-1.8-2h-0.5v3.9H367.8z"/>
		</g>
	</g>
</g>
<line id="XMLID_2_" class="st19" x1="33.9" y1="70" x2="33.9" y2="269"/>
<line id="XMLID_1_" class="st19" x1="33.9" y1="70" x2="273.6" y2="70"/>
</svg>
