<!-- Generator: Adobe Illustrator 22.1.0, SVG Export Plug-In  -->
<svg version="1.1"
	 xmlns="http://www.w3.org/2000/svg" xmlns:xlink="http://www.w3.org/1999/xlink" xmlns:a="http://ns.adobe.com/AdobeSVGViewerExtensions/3.0/"
	 x="0px" y="0px" width="1024px" height="85px" viewBox="0 0 1024 85" style="enable-background:new 0 0 1024 85;"
	 xml:space="preserve">
<style type="text/css">
	.st0{fill:#490E67;}
	.st1{fill:#FFFFFF;}
</style>
<defs>
</defs>
<rect id="XMLID_243_" class="st0" width="1024" height="85"/>
<g id="XMLID_233_">
	<path id="XMLID_242_" class="st1" d="M73.2,28.2c-3.8,0-6.9,1.2-9.2,3.6V11.5H51.6v55.3h12.4V46.2c0-2.1,0.5-3.8,1.5-5
		c1-1.2,2.3-1.8,4-1.8c3.3,0,4.8,1.9,4.8,6v21.4h12.4v-24c0-4.7-1.3-8.4-4-10.8C80.2,29.4,77,28.2,73.2,28.2"/>
	<rect id="XMLID_241_" x="92.1" y="30.4" class="st1" width="12.1" height="36.4"/>
	<polygon id="XMLID_240_" class="st1" points="144.9,30.4 130.7,30.4 121.9,42.2 121.9,13.1 109.8,13.1 109.8,66.8 121.9,66.8 
		121.9,54 130.6,66.8 145.7,66.8 130.9,47.8 	"/>
	<path id="XMLID_239_" class="st1" d="M197.1,33c-2.6-2.4-5.7-3.6-9.2-3.6c-2.3,0-4.4,0.5-6.2,1.5c-1.5,0.8-2.7,2-3.7,3.4
		c-1-1.4-2.2-2.6-3.8-3.4c-1.9-1-3.9-1.5-6-1.5c-3.7,0-6.7,1.3-9,3.8v-2.8h-11.3v36.4H160v-20c0-2.1,0.4-3.7,1.3-4.8
		c0.8-1.1,1.9-1.6,3.3-1.6c3.5,0,3.9,3.1,3.9,5.4v21h12.1V46.4c0-1.9,0.4-3.4,1.2-4.5c0.8-1,1.9-1.5,3.3-1.5c3.5,0,3.9,3.1,3.9,5.4
		v21H201V43.5C201,38.9,199.7,35.4,197.1,33"/>
	<path id="XMLID_236_" class="st1" d="M224.6,57.7c-2.1,0-3.7-0.8-5.1-2.5c-1.4-1.7-2.1-3.9-2.1-6.6c0-2.6,0.7-4.8,2.1-6.4
		c1.4-1.6,3-2.4,5.1-2.4c2.1,0,3.8,0.8,5.2,2.4c1.4,1.6,2.1,3.8,2.1,6.4c0,2.7-0.7,5-2.1,6.6C228.4,56.9,226.7,57.7,224.6,57.7
		 M231,32.3c-2.4-2-5.5-3-9-3c-4.9,0-9,1.8-12.1,5.4c-3.1,3.6-4.7,8.2-4.7,13.8c0,5.7,1.6,10.4,4.7,13.9c3.1,3.5,7.2,5.3,12.1,5.3
		c3.9,0,7.1-1.2,9.6-3.6v2.6h11.5V30.4H231V32.3z"/>
	<path id="XMLID_235_" class="st1" d="M105,18.8c0,3.8-3.1,6.8-6.8,6.8c-3.8,0-6.8-3.1-6.8-6.8c0-3.8,3.1-6.8,6.8-6.8
		C101.9,12,105,15,105,18.8"/>
	<path id="XMLID_234_" class="st1" d="M260.7,60.9c0,3.8-3.1,6.8-6.8,6.8c-3.8,0-6.8-3.1-6.8-6.8c0-3.8,3.1-6.8,6.8-6.8
		C257.7,54.1,260.7,57.1,260.7,60.9"/>
</g>
<g id="XMLID_5_">
	<g id="XMLID_151_">
		<path id="XMLID_231_" class="st1" d="M774,13.2L774,13.2l-1.5,0.8l-0.2-0.9l1.9-1h1v8.5H774V13.2z"/>
		<path id="XMLID_229_" class="st1" d="M778.2,20.6v-0.7l0.9-0.9c2.2-2.1,3.2-3.2,3.2-4.5c0-0.9-0.4-1.7-1.7-1.7
			c-0.8,0-1.4,0.4-1.8,0.7l-0.4-0.8c0.6-0.5,1.4-0.9,2.4-0.9c1.8,0,2.6,1.3,2.6,2.5c0,1.6-1.1,2.8-2.9,4.6l-0.7,0.6v0h3.8v1H778.2z"
			/>
		<path id="XMLID_227_" class="st1" d="M792.9,16.5h-3.4v3.2h3.8v1h-5v-8.9h4.8v1h-3.6v2.8h3.4V16.5z"/>
		<path id="XMLID_225_" class="st1" d="M794.5,11.3h1.2v9.3h-1.2V11.3z"/>
		<path id="XMLID_223_" class="st1" d="M800.3,16.7v0.8H797v-0.8H800.3z"/>
		<path id="XMLID_221_" class="st1" d="M806.2,16.5h-3.4v3.2h3.8v1h-5v-8.9h4.8v1h-3.6v2.8h3.4V16.5z"/>
		<path id="XMLID_219_" class="st1" d="M808,19.4c0.4,0.2,1,0.4,1.5,0.4c0.8,0,1.2-0.4,1.2-0.9c0-0.5-0.3-0.8-1.2-1.2
			c-1.2-0.4-1.7-1.1-1.7-1.8c0-1,0.8-1.9,2.2-1.9c0.6,0,1.2,0.2,1.5,0.4l-0.3,0.8c-0.3-0.1-0.7-0.4-1.3-0.4c-0.7,0-1.1,0.4-1.1,0.9
			c0,0.5,0.4,0.8,1.2,1.1c1.1,0.4,1.7,1,1.7,1.9c0,1.1-0.9,1.9-2.4,1.9c-0.7,0-1.3-0.2-1.8-0.4L808,19.4z"/>
		<path id="XMLID_217_" class="st1" d="M813.3,16.2c0-0.7,0-1.4-0.1-2h1l0.1,1.2h0c0.3-0.9,1-1.4,1.8-1.4c0.1,0,0.2,0,0.3,0v1.1
			c-0.1,0-0.2,0-0.4,0c-0.8,0-1.4,0.6-1.5,1.5c0,0.2,0,0.4,0,0.5v3.4h-1.2V16.2z"/>
		<path id="XMLID_214_" class="st1" d="M822.2,19.1c0,0.6,0,1.1,0.1,1.5h-1l-0.1-0.8h0c-0.3,0.5-1,0.9-1.9,0.9
			c-1.3,0-1.9-0.9-1.9-1.8c0-1.5,1.4-2.4,3.8-2.4v-0.1c0-0.5-0.1-1.5-1.4-1.5c-0.6,0-1.2,0.2-1.7,0.5l-0.3-0.8
			c0.5-0.3,1.3-0.6,2.1-0.6c2,0,2.4,1.3,2.4,2.6V19.1z M821.1,17.4c-1.3,0-2.7,0.2-2.7,1.4c0,0.8,0.5,1.1,1.1,1.1
			c0.8,0,1.4-0.5,1.6-1.1c0-0.1,0.1-0.3,0.1-0.4V17.4z"/>
		<path id="XMLID_211_" class="st1" d="M828.5,19.1c0,0.6,0,1.1,0.1,1.5h-1l-0.1-0.8h0c-0.3,0.5-1,0.9-1.9,0.9
			c-1.3,0-1.9-0.9-1.9-1.8c0-1.5,1.4-2.4,3.8-2.4v-0.1c0-0.5-0.1-1.5-1.4-1.5c-0.6,0-1.2,0.2-1.7,0.5l-0.3-0.8
			c0.5-0.3,1.3-0.6,2.1-0.6c2,0,2.4,1.3,2.4,2.6V19.1z M827.3,17.4c-1.3,0-2.7,0.2-2.7,1.4c0,0.8,0.5,1.1,1.1,1.1
			c0.8,0,1.4-0.5,1.6-1.1c0-0.1,0.1-0.3,0.1-0.4V17.4z"/>
		<path id="XMLID_209_" class="st1" d="M832.8,19.2c0.5,0.3,1.2,0.6,2,0.6c1.2,0,1.9-0.6,1.9-1.5c0-0.8-0.5-1.3-1.7-1.8
			c-1.4-0.5-2.3-1.3-2.3-2.5c0-1.4,1.1-2.4,2.9-2.4c0.9,0,1.6,0.2,1.9,0.4l-0.3,0.9c-0.3-0.2-0.9-0.4-1.7-0.4
			c-1.2,0-1.7,0.7-1.7,1.3c0,0.8,0.5,1.2,1.8,1.7c1.5,0.6,2.2,1.3,2.2,2.6c0,1.4-1,2.5-3.1,2.5c-0.9,0-1.8-0.3-2.3-0.6L832.8,19.2z"
			/>
		<path id="XMLID_207_" class="st1" d="M840.5,12.7v1.5h1.7v0.9h-1.7v3.4c0,0.8,0.2,1.2,0.9,1.2c0.3,0,0.5,0,0.7-0.1l0.1,0.9
			c-0.2,0.1-0.6,0.2-1,0.2c-0.5,0-1-0.2-1.2-0.5c-0.3-0.4-0.4-0.9-0.4-1.7v-3.5h-1v-0.9h1v-1.2L840.5,12.7z"/>
		<path id="XMLID_205_" class="st1" d="M842.8,22.3c0.3-0.8,0.6-2.2,0.8-3.2l1.3-0.1c-0.3,1.1-0.9,2.6-1.3,3.2L842.8,22.3z"/>
		<path id="XMLID_202_" class="st1" d="M851.4,20.8c-1.7,0-3-1.3-3-3.3c0-2.1,1.4-3.4,3.2-3.4c1.8,0,3.1,1.3,3.1,3.3
			C854.5,19.7,852.9,20.8,851.4,20.8L851.4,20.8z M851.4,19.9c1.1,0,1.9-1,1.9-2.5c0-1.1-0.5-2.4-1.9-2.4c-1.4,0-1.9,1.3-1.9,2.5
			C849.5,18.9,850.3,19.9,851.4,19.9L851.4,19.9z"/>
		<path id="XMLID_200_" class="st1" d="M856,20.6v-5.5h-0.9v-0.9h0.9V14c0-0.9,0.2-1.7,0.7-2.2c0.4-0.4,1-0.6,1.5-0.6
			c0.4,0,0.8,0.1,1,0.2l-0.1,0.9c-0.2-0.1-0.4-0.1-0.7-0.1c-1,0-1.2,0.9-1.2,1.8v0.3h1.5v0.9h-1.5v5.5H856z"/>
		<path id="XMLID_198_" class="st1" d="M862.4,11.8h1.2v7.9h3.8v1h-4.9V11.8z"/>
		<path id="XMLID_195_" class="st1" d="M869,17.7c0,1.5,1,2.2,2.2,2.2c0.8,0,1.3-0.1,1.8-0.3l0.2,0.8c-0.4,0.2-1.1,0.4-2.1,0.4
			c-1.9,0-3.1-1.3-3.1-3.2c0-1.9,1.1-3.4,3-3.4c2.1,0,2.6,1.8,2.6,3c0,0.2,0,0.4,0,0.5H869z M872.4,16.8c0-0.7-0.3-1.9-1.6-1.9
			c-1.2,0-1.7,1.1-1.8,1.9H872.4z"/>
		<path id="XMLID_192_" class="st1" d="M875,11.3h1.2v4h0c0.4-0.7,1.1-1.2,2.2-1.2c1.6,0,2.7,1.3,2.7,3.2c0,2.3-1.4,3.4-2.9,3.4
			c-0.9,0-1.6-0.4-2.1-1.2h0l-0.1,1.1h-1c0-0.4,0.1-1.1,0.1-1.6V11.3z M876.1,18.1c0,0.1,0,0.3,0,0.4c0.2,0.8,0.9,1.4,1.7,1.4
			c1.2,0,1.9-1,1.9-2.4c0-1.3-0.7-2.4-1.9-2.4c-0.8,0-1.5,0.6-1.7,1.4c0,0.1-0.1,0.3-0.1,0.5V18.1z"/>
		<path id="XMLID_189_" class="st1" d="M886.9,19.1c0,0.6,0,1.1,0.1,1.5h-1l-0.1-0.8h0c-0.3,0.5-1,0.9-1.9,0.9
			c-1.3,0-1.9-0.9-1.9-1.8c0-1.5,1.4-2.4,3.8-2.4v-0.1c0-0.5-0.1-1.5-1.4-1.5c-0.6,0-1.2,0.2-1.7,0.5l-0.3-0.8
			c0.5-0.3,1.3-0.6,2.1-0.6c2,0,2.4,1.3,2.4,2.6V19.1z M885.8,17.4c-1.3,0-2.7,0.2-2.7,1.4c0,0.8,0.5,1.1,1.1,1.1
			c0.8,0,1.4-0.5,1.6-1.1c0-0.1,0.1-0.3,0.1-0.4V17.4z"/>
		<path id="XMLID_187_" class="st1" d="M888.7,16c0-0.7,0-1.2-0.1-1.7h1l0.1,1h0c0.3-0.6,1.1-1.2,2.1-1.2c0.9,0,2.2,0.5,2.2,2.7v3.8
			H893V17c0-1-0.4-1.9-1.5-1.9c-0.7,0-1.3,0.5-1.5,1.2c-0.1,0.1-0.1,0.4-0.1,0.5v3.8h-1.2V16z"/>
		<path id="XMLID_184_" class="st1" d="M898.6,20.8c-1.7,0-3-1.3-3-3.3c0-2.1,1.4-3.4,3.2-3.4c1.8,0,3.1,1.3,3.1,3.3
			C901.8,19.7,900.1,20.8,898.6,20.8L898.6,20.8z M898.6,19.9c1.1,0,1.9-1,1.9-2.5c0-1.1-0.5-2.4-1.9-2.4c-1.4,0-1.9,1.3-1.9,2.5
			C896.7,18.9,897.5,19.9,898.6,19.9L898.6,19.9z"/>
		<path id="XMLID_182_" class="st1" d="M903.2,16c0-0.7,0-1.2-0.1-1.7h1l0.1,1h0c0.3-0.6,1.1-1.2,2.1-1.2c0.9,0,2.2,0.5,2.2,2.7v3.8
			h-1.2V17c0-1-0.4-1.9-1.5-1.9c-0.7,0-1.3,0.5-1.5,1.2c-0.1,0.1-0.1,0.4-0.1,0.5v3.8h-1.2V16z"/>
		<path id="XMLID_180_" class="st1" d="M913.2,19.2c0.5,0.3,1.2,0.6,2,0.6c1.2,0,1.9-0.6,1.9-1.5c0-0.8-0.5-1.3-1.7-1.8
			c-1.4-0.5-2.3-1.3-2.3-2.5c0-1.4,1.1-2.4,2.9-2.4c0.9,0,1.6,0.2,1.9,0.4l-0.3,0.9c-0.3-0.2-0.9-0.4-1.7-0.4
			c-1.2,0-1.7,0.7-1.7,1.3c0,0.8,0.5,1.2,1.8,1.7c1.5,0.6,2.2,1.3,2.2,2.6c0,1.4-1,2.5-3.1,2.5c-0.9,0-1.8-0.3-2.3-0.6L913.2,19.2z"
			/>
		<path id="XMLID_178_" class="st1" d="M921.2,12.7v1.5h1.7v0.9h-1.7v3.4c0,0.8,0.2,1.2,0.9,1.2c0.3,0,0.5,0,0.7-0.1l0.1,0.9
			c-0.2,0.1-0.6,0.2-1,0.2c-0.5,0-1-0.2-1.2-0.5c-0.3-0.4-0.4-0.9-0.4-1.7v-3.5h-1v-0.9h1v-1.2L921.2,12.7z"/>
		<path id="XMLID_176_" class="st1" d="M923.4,22.3c0.3-0.8,0.6-2.2,0.8-3.2l1.3-0.1c-0.3,1.1-0.9,2.6-1.3,3.2L923.4,22.3z"/>
		<path id="XMLID_174_" class="st1" d="M936.4,20.2c-0.5,0.2-1.5,0.5-2.7,0.5c-1.3,0-2.4-0.3-3.3-1.2c-0.8-0.7-1.2-1.9-1.2-3.3
			c0-2.6,1.8-4.6,4.8-4.6c1,0,1.8,0.2,2.2,0.4l-0.3,0.9c-0.5-0.2-1.1-0.4-2-0.4c-2.2,0-3.6,1.3-3.6,3.6c0,2.2,1.3,3.6,3.4,3.6
			c0.7,0,1.3-0.1,1.5-0.2v-2.6h-1.8V16h2.9V20.2z"/>
		<path id="XMLID_171_" class="st1" d="M938.7,13.2c-0.4,0-0.7-0.3-0.7-0.7c0-0.4,0.3-0.7,0.7-0.7c0.4,0,0.7,0.3,0.7,0.7
			C939.4,12.9,939.1,13.2,938.7,13.2L938.7,13.2z M938.1,20.6v-6.4h1.2v6.4H938.1z"/>
		<path id="XMLID_169_" class="st1" d="M940.3,20l2.9-3.7c0.3-0.4,0.5-0.7,0.8-1v0h-3.5v-0.9h4.8V15l-2.8,3.7
			c-0.3,0.3-0.5,0.7-0.8,1v0h3.7v0.9h-5.2V20z"/>
		<path id="XMLID_166_" class="st1" d="M951.2,19.1c0,0.6,0,1.1,0.1,1.5h-1l-0.1-0.8h0c-0.3,0.5-1,0.9-1.9,0.9
			c-1.3,0-1.9-0.9-1.9-1.8c0-1.5,1.4-2.4,3.8-2.4v-0.1c0-0.5-0.1-1.5-1.4-1.5c-0.6,0-1.2,0.2-1.7,0.5l-0.3-0.8
			c0.5-0.3,1.3-0.6,2.1-0.6c2,0,2.4,1.3,2.4,2.6V19.1z M950.1,17.4c-1.3,0-2.7,0.2-2.7,1.4c0,0.8,0.5,1.1,1.1,1.1
			c0.8,0,1.4-0.5,1.6-1.1c0-0.1,0.1-0.3,0.1-0.4V17.4z"/>
		<path id="XMLID_164_" class="st1" d="M958.3,16.7v0.8h-3.2v-0.8H958.3z"/>
		<path id="XMLID_162_" class="st1" d="M966.8,16.5h-3.4v3.2h3.8v1h-5v-8.9h4.8v1h-3.6v2.8h3.4V16.5z"/>
		<path id="XMLID_159_" class="st1" d="M974.1,19.7c0,1.5-0.3,2.4-0.9,2.9c-0.6,0.6-1.5,0.8-2.3,0.8c-0.8,0-1.6-0.2-2.1-0.5L969,22
			c0.4,0.3,1.1,0.5,1.9,0.5c1.2,0,2.1-0.6,2.1-2.2v-0.7h0c-0.3,0.6-1,1.1-2,1.1c-1.6,0-2.7-1.3-2.7-3.1c0-2.2,1.4-3.4,2.9-3.4
			c1.1,0,1.7,0.6,2,1.1h0l0-1h1c0,0.4-0.1,1-0.1,1.7V19.7z M972.9,16.8c0-0.2,0-0.4-0.1-0.5c-0.2-0.7-0.8-1.2-1.6-1.2
			c-1.1,0-1.9,0.9-1.9,2.4c0,1.2,0.6,2.3,1.9,2.3c0.7,0,1.4-0.4,1.6-1.2c0.1-0.2,0.1-0.4,0.1-0.6V16.8z"/>
		<path id="XMLID_157_" class="st1" d="M976.8,14.3l1.4,3.8c0.2,0.4,0.3,0.9,0.4,1.3h0c0.1-0.4,0.3-0.9,0.4-1.3l1.3-3.7h1.2
			l-1.7,4.5c-0.8,2.2-1.4,3.3-2.2,4c-0.6,0.5-1.1,0.7-1.4,0.7l-0.3-1c0.3-0.1,0.7-0.3,1-0.6c0.3-0.3,0.7-0.7,1-1.3
			c0.1-0.1,0.1-0.2,0.1-0.3c0-0.1,0-0.2-0.1-0.3l-2.3-5.9H976.8z"/>
		<path id="XMLID_154_" class="st1" d="M982.5,16.3c0-0.8,0-1.5-0.1-2.1h1l0.1,1.1h0c0.5-0.8,1.2-1.2,2.2-1.2c1.6,0,2.7,1.3,2.7,3.2
			c0,2.3-1.4,3.4-2.9,3.4c-0.9,0-1.6-0.4-2-1h0v3.5h-1.2V16.3z M983.7,18c0,0.2,0,0.3,0.1,0.5c0.2,0.8,0.9,1.3,1.7,1.3
			c1.2,0,1.9-1,1.9-2.5c0-1.3-0.7-2.4-1.9-2.4c-0.8,0-1.5,0.5-1.8,1.4c0,0.1-0.1,0.3-0.1,0.5V18z"/>
		<path id="XMLID_152_" class="st1" d="M991.3,12.7v1.5h1.7v0.9h-1.7v3.4c0,0.8,0.2,1.2,0.9,1.2c0.3,0,0.5,0,0.7-0.1l0.1,0.9
			c-0.2,0.1-0.6,0.2-1,0.2c-0.5,0-1-0.2-1.2-0.5c-0.3-0.4-0.4-0.9-0.4-1.7v-3.5h-1v-0.9h1v-1.2L991.3,12.7z"/>
	</g>
	<g id="XMLID_148_">
		<path id="XMLID_149_" class="st1" d="M773.5,28.5h-2.7v-1h6.6v1h-2.7v7.9h-1.2V28.5z"/>
	</g>
	<g id="XMLID_72_">
		<path id="XMLID_146_" class="st1" d="M787.3,27.3c-1,1.3-1.6,3-1.6,5.4c0,2.3,0.7,4,1.6,5.3h-0.9c-0.8-1.1-1.7-2.8-1.7-5.3
			c0-2.6,0.9-4.3,1.7-5.4H787.3z"/>
		<path id="XMLID_144_" class="st1" d="M791.1,29.4v3.1h3v0.8h-3v3.1h-0.8v-3.1h-3v-0.8h3v-3.1H791.1z"/>
		<path id="XMLID_142_" class="st1" d="M794.7,36.4v-0.7l0.9-0.9c2.2-2.1,3.2-3.2,3.2-4.5c0-0.9-0.4-1.7-1.7-1.7
			c-0.8,0-1.4,0.4-1.8,0.7l-0.4-0.8c0.6-0.5,1.4-0.9,2.4-0.9c1.8,0,2.6,1.3,2.6,2.5c0,1.6-1.1,2.8-2.9,4.6l-0.7,0.6v0h3.8v1H794.7z"
			/>
		<path id="XMLID_140_" class="st1" d="M800.8,38c0.9-1.3,1.6-3,1.6-5.4c0-2.4-0.7-4-1.6-5.3h0.9c0.8,1.1,1.7,2.8,1.7,5.3
			c0,2.6-0.9,4.2-1.7,5.4H800.8z"/>
		<path id="XMLID_137_" class="st1" d="M810.1,36.5c-1.7,0-2.8-1.6-2.8-4.4c0-2.9,1.2-4.4,3-4.4c1.8,0,2.8,1.6,2.8,4.3
			C813.1,34.9,812,36.5,810.1,36.5L810.1,36.5z M810.2,35.6c1.2,0,1.7-1.4,1.7-3.6c0-2.1-0.5-3.5-1.7-3.5c-1.1,0-1.7,1.3-1.7,3.5
			C808.4,34.3,809.1,35.6,810.2,35.6L810.2,35.6z"/>
		<path id="XMLID_135_" class="st1" d="M814.2,36.4v-0.7l0.9-0.9c2.2-2.1,3.2-3.2,3.2-4.5c0-0.9-0.4-1.7-1.7-1.7
			c-0.8,0-1.4,0.4-1.8,0.7l-0.4-0.8c0.6-0.5,1.4-0.9,2.4-0.9c1.8,0,2.6,1.3,2.6,2.5c0,1.6-1.1,2.8-2.9,4.6l-0.7,0.6v0h3.8v1H814.2z"
			/>
		<path id="XMLID_133_" class="st1" d="M823.8,35.1c0.3,0.2,1.1,0.5,1.9,0.5c1.5,0,1.9-0.9,1.9-1.7c0-1.2-1.1-1.7-2.2-1.7h-0.6v-0.9
			h0.6c0.8,0,1.9-0.4,1.9-1.4c0-0.7-0.4-1.3-1.5-1.3c-0.7,0-1.3,0.3-1.7,0.6l-0.3-0.8c0.5-0.3,1.3-0.7,2.2-0.7c1.7,0,2.4,1,2.4,2
			c0,0.9-0.5,1.6-1.6,2v0c1.1,0.2,1.9,1,1.9,2.2c0,1.4-1.1,2.6-3.1,2.6c-1,0-1.8-0.3-2.2-0.6L823.8,35.1z"/>
		<path id="XMLID_131_" class="st1" d="M830.8,35.1c0.3,0.2,1.1,0.5,1.9,0.5c1.5,0,1.9-0.9,1.9-1.7c0-1.2-1.1-1.7-2.2-1.7h-0.6v-0.9
			h0.6c0.8,0,1.9-0.4,1.9-1.4c0-0.7-0.4-1.3-1.5-1.3c-0.7,0-1.3,0.3-1.7,0.6l-0.3-0.8c0.5-0.3,1.3-0.7,2.2-0.7c1.7,0,2.4,1,2.4,2
			c0,0.9-0.5,1.6-1.6,2v0c1.1,0.2,1.9,1,1.9,2.2c0,1.4-1.1,2.6-3.1,2.6c-1,0-1.8-0.3-2.2-0.6L830.8,35.1z"/>
		<path id="XMLID_128_" class="st1" d="M840.1,36.5c-1.7,0-2.8-1.6-2.8-4.4c0-2.9,1.2-4.4,3-4.4c1.8,0,2.8,1.6,2.8,4.3
			C843.1,34.9,842,36.5,840.1,36.5L840.1,36.5z M840.2,35.6c1.2,0,1.7-1.4,1.7-3.6c0-2.1-0.5-3.5-1.7-3.5c-1.1,0-1.7,1.3-1.7,3.5
			C838.4,34.3,839.1,35.6,840.2,35.6L840.2,35.6z"/>
		<path id="XMLID_125_" class="st1" d="M850.3,36.4V34h-4v-0.7l3.8-5.5h1.2v5.3h1.2V34h-1.2v2.3H850.3z M850.3,33.2v-2.9
			c0-0.4,0-0.9,0-1.3h0c-0.3,0.5-0.5,0.9-0.7,1.3l-2.1,2.9v0H850.3z"/>
		<path id="XMLID_123_" class="st1" d="M858.9,27.8v0.8l-3.7,7.8H854l3.7-7.6v0h-4.2v-1H858.9z"/>
		<path id="XMLID_120_" class="st1" d="M860.8,35.6c0.3,0,0.5,0,0.9-0.1c0.7-0.1,1.3-0.4,1.8-0.8c0.6-0.5,1-1.3,1.1-2.3h0
			c-0.5,0.6-1.2,0.9-2,0.9c-1.5,0-2.5-1.2-2.5-2.6c0-1.6,1.2-3,2.9-3c1.7,0,2.8,1.4,2.8,3.6c0,1.9-0.6,3.2-1.5,4
			c-0.7,0.6-1.6,1-2.5,1.1c-0.4,0.1-0.8,0.1-1.1,0.1V35.6z M862.9,28.6c-1,0-1.7,0.9-1.7,2.1c0,1.1,0.6,1.8,1.6,1.8
			c0.8,0,1.4-0.4,1.7-0.9c0-0.1,0.1-0.2,0.1-0.4C864.6,29.7,864.1,28.6,862.9,28.6L862.9,28.6z"/>
		<path id="XMLID_118_" class="st1" d="M874.5,28.8h-3.3l-0.3,2.2c0.2,0,0.4-0.1,0.7-0.1c0.7,0,1.3,0.1,1.8,0.5
			c0.7,0.4,1.2,1.1,1.2,2.2c0,1.7-1.3,2.9-3.2,2.9c-0.9,0-1.7-0.3-2.1-0.5l0.3-0.9c0.4,0.2,1.1,0.5,1.8,0.5c1.1,0,2-0.7,2-1.9
			c0-1.1-0.7-1.9-2.4-1.9c-0.5,0-0.9,0-1.2,0.1l0.6-4.1h4.1V28.8z"/>
		<path id="XMLID_116_" class="st1" d="M876.7,35.1c0.3,0.2,1.1,0.5,1.9,0.5c1.5,0,1.9-0.9,1.9-1.7c0-1.2-1.1-1.7-2.2-1.7h-0.6v-0.9
			h0.6c0.8,0,1.9-0.4,1.9-1.4c0-0.7-0.4-1.3-1.5-1.3c-0.7,0-1.3,0.3-1.7,0.6l-0.3-0.8c0.5-0.3,1.3-0.7,2.2-0.7c1.7,0,2.4,1,2.4,2
			c0,0.9-0.5,1.6-1.6,2v0c1.1,0.2,1.9,1,1.9,2.2c0,1.4-1.1,2.6-3.1,2.6c-1,0-1.8-0.3-2.2-0.6L876.7,35.1z"/>
		<path id="XMLID_114_" class="st1" d="M882.6,36.9l3.7-9.5h0.9l-3.7,9.5H882.6z"/>
		<path id="XMLID_112_" class="st1" d="M890.5,27.3c-1,1.3-1.6,3-1.6,5.4c0,2.3,0.7,4,1.6,5.3h-0.9c-0.8-1.1-1.7-2.8-1.7-5.3
			c0-2.6,0.9-4.3,1.7-5.4H890.5z"/>
		<path id="XMLID_110_" class="st1" d="M894.3,29.4v3.1h3v0.8h-3v3.1h-0.8v-3.1h-3v-0.8h3v-3.1H894.3z"/>
		<path id="XMLID_108_" class="st1" d="M897.9,36.4v-0.7l0.9-0.9c2.2-2.1,3.2-3.2,3.2-4.5c0-0.9-0.4-1.7-1.7-1.7
			c-0.8,0-1.4,0.4-1.8,0.7l-0.4-0.8c0.6-0.5,1.4-0.9,2.4-0.9c1.8,0,2.6,1.3,2.6,2.5c0,1.6-1.1,2.8-2.9,4.6l-0.7,0.6v0h3.8v1H897.9z"
			/>
		<path id="XMLID_106_" class="st1" d="M904,38c0.9-1.3,1.6-3,1.6-5.4c0-2.4-0.7-4-1.6-5.3h0.9c0.8,1.1,1.7,2.8,1.7,5.3
			c0,2.6-0.9,4.2-1.7,5.4H904z"/>
		<path id="XMLID_103_" class="st1" d="M913.3,36.5c-1.7,0-2.8-1.6-2.8-4.4c0-2.9,1.2-4.4,3-4.4c1.8,0,2.8,1.6,2.8,4.3
			C916.3,34.9,915.2,36.5,913.3,36.5L913.3,36.5z M913.4,35.6c1.2,0,1.7-1.4,1.7-3.6c0-2.1-0.5-3.5-1.7-3.5c-1.1,0-1.7,1.3-1.7,3.5
			C911.6,34.3,912.3,35.6,913.4,35.6L913.4,35.6z"/>
		<path id="XMLID_101_" class="st1" d="M917.4,36.4v-0.7l0.9-0.9c2.2-2.1,3.2-3.2,3.2-4.5c0-0.9-0.4-1.7-1.7-1.7
			c-0.8,0-1.4,0.4-1.8,0.7l-0.4-0.8c0.6-0.5,1.4-0.9,2.4-0.9c1.8,0,2.6,1.3,2.6,2.5c0,1.6-1.1,2.8-2.9,4.6l-0.7,0.6v0h3.8v1H917.4z"
			/>
		<path id="XMLID_99_" class="st1" d="M927,35.1c0.3,0.2,1.1,0.5,1.9,0.5c1.5,0,1.9-0.9,1.9-1.7c0-1.2-1.1-1.7-2.2-1.7h-0.6v-0.9
			h0.6c0.8,0,1.9-0.4,1.9-1.4c0-0.7-0.4-1.3-1.5-1.3c-0.7,0-1.3,0.3-1.7,0.6l-0.3-0.8c0.5-0.3,1.3-0.7,2.2-0.7c1.7,0,2.4,1,2.4,2
			c0,0.9-0.5,1.6-1.6,2v0c1.1,0.2,1.9,1,1.9,2.2c0,1.4-1.1,2.6-3.1,2.6c-1,0-1.8-0.3-2.2-0.6L927,35.1z"/>
		<path id="XMLID_97_" class="st1" d="M934,35.1c0.3,0.2,1.1,0.5,1.9,0.5c1.5,0,1.9-0.9,1.9-1.7c0-1.2-1.1-1.7-2.2-1.7H935v-0.9h0.6
			c0.8,0,1.9-0.4,1.9-1.4c0-0.7-0.4-1.3-1.5-1.3c-0.7,0-1.3,0.3-1.7,0.6l-0.3-0.8c0.5-0.3,1.3-0.7,2.2-0.7c1.7,0,2.4,1,2.4,2
			c0,0.9-0.5,1.6-1.6,2v0c1.1,0.2,1.9,1,1.9,2.2c0,1.4-1.1,2.6-3.1,2.6c-1,0-1.8-0.3-2.2-0.6L934,35.1z"/>
		<path id="XMLID_94_" class="st1" d="M944.4,36.4V34h-4v-0.7l3.8-5.5h1.2v5.3h1.2V34h-1.2v2.3H944.4z M944.4,33.2v-2.9
			c0-0.4,0-0.9,0-1.3h0c-0.3,0.5-0.5,0.9-0.7,1.3l-2.1,2.9v0H944.4z"/>
		<path id="XMLID_91_" class="st1" d="M953.7,36.4V34h-4v-0.7l3.8-5.5h1.2v5.3h1.2V34h-1.2v2.3H953.7z M953.7,33.2v-2.9
			c0-0.4,0-0.9,0-1.3h0c-0.3,0.5-0.5,0.9-0.7,1.3l-2.1,2.9v0H953.7z"/>
		<path id="XMLID_87_" class="st1" d="M960.1,27.7c1.7,0,2.5,1,2.5,2.1c0,0.7-0.4,1.5-1.4,2v0c1.1,0.4,1.7,1.2,1.7,2.2
			c0,1.5-1.3,2.5-2.9,2.5c-1.8,0-2.9-1-2.9-2.3c0-1.1,0.6-1.9,1.7-2.3v0c-1-0.4-1.4-1.2-1.4-1.9C957.4,28.6,958.6,27.7,960.1,27.7
			L960.1,27.7z M960,35.7c1,0,1.7-0.6,1.7-1.5c0-1-0.7-1.5-1.9-1.9c-1,0.3-1.5,1-1.5,1.8C958.2,34.9,958.9,35.7,960,35.7L960,35.7z
			 M960,28.5c-1,0-1.5,0.6-1.5,1.4c0,0.9,0.6,1.3,1.6,1.6c0.7-0.2,1.3-0.8,1.3-1.5C961.4,29.2,961,28.5,960,28.5L960,28.5z"/>
		<path id="XMLID_83_" class="st1" d="M967,27.7c1.7,0,2.5,1,2.5,2.1c0,0.7-0.4,1.5-1.4,2v0c1.1,0.4,1.7,1.2,1.7,2.2
			c0,1.5-1.3,2.5-2.9,2.5c-1.8,0-2.9-1-2.9-2.3c0-1.1,0.6-1.9,1.7-2.3v0c-1-0.4-1.4-1.2-1.4-1.9C964.3,28.6,965.5,27.7,967,27.7
			L967,27.7z M966.9,35.7c1,0,1.7-0.6,1.7-1.5c0-1-0.7-1.5-1.9-1.9c-1,0.3-1.5,1-1.5,1.8C965.2,34.9,965.8,35.7,966.9,35.7
			L966.9,35.7z M966.9,28.5c-1,0-1.5,0.6-1.5,1.4c0,0.9,0.6,1.3,1.6,1.6c0.7-0.2,1.3-0.8,1.3-1.5C968.4,29.2,968,28.5,966.9,28.5
			L966.9,28.5z"/>
		<path id="XMLID_80_" class="st1" d="M978.3,28.7c-0.2,0-0.5,0-0.9,0.1c-1.8,0.3-2.8,1.6-3,3h0c0.4-0.5,1.1-1,2.1-1
			c1.5,0,2.6,1.1,2.6,2.8c0,1.6-1.1,3-2.9,3c-1.8,0-3-1.4-3-3.6c0-1.7,0.6-3,1.4-3.8c0.7-0.7,1.7-1.1,2.7-1.3
			c0.3-0.1,0.6-0.1,0.8-0.1V28.7z M976.3,35.6c1,0,1.7-0.8,1.7-2c0-1.2-0.7-2-1.8-2c-0.7,0-1.4,0.4-1.7,1.1
			c-0.1,0.1-0.1,0.3-0.1,0.5C974.4,34.6,975.1,35.6,976.3,35.6L976.3,35.6z"/>
		<path id="XMLID_78_" class="st1" d="M982.3,28.9L982.3,28.9l-1.5,0.8l-0.2-0.9l1.9-1h1v8.5h-1.1V28.9z"/>
		<path id="XMLID_76_" class="st1" d="M985.5,36.9l3.7-9.5h0.9l-3.7,9.5H985.5z"/>
		<path id="XMLID_73_" class="st1" d="M993.7,36.4V34h-4v-0.7l3.8-5.5h1.2v5.3h1.2V34h-1.2v2.3H993.7z M993.7,33.2v-2.9
			c0-0.4,0-0.9,0-1.3h0c-0.3,0.5-0.5,0.9-0.7,1.3l-2.1,2.9v0H993.7z"/>
	</g>
	<g id="XMLID_69_">
		<path id="XMLID_70_" class="st1" d="M771.8,43.3h4.8v1H773v2.9h3.3v0.9H773v4h-1.2V43.3z"/>
	</g>
	<g id="XMLID_36_">
		<path id="XMLID_67_" class="st1" d="M787.2,43c-1,1.3-1.6,3-1.6,5.4c0,2.3,0.7,4,1.6,5.3h-0.9c-0.8-1.1-1.7-2.8-1.7-5.3
			c0-2.6,0.9-4.3,1.7-5.4H787.2z"/>
		<path id="XMLID_65_" class="st1" d="M790.9,45.2v3.1h3V49h-3v3.1h-0.8V49h-3v-0.8h3v-3.1H790.9z"/>
		<path id="XMLID_63_" class="st1" d="M794.5,52.1v-0.7l0.9-0.9c2.2-2.1,3.2-3.2,3.2-4.5c0-0.9-0.4-1.7-1.7-1.7
			c-0.8,0-1.4,0.4-1.8,0.7l-0.4-0.8c0.6-0.5,1.4-0.9,2.4-0.9c1.8,0,2.6,1.3,2.6,2.5c0,1.6-1.1,2.8-2.9,4.6l-0.7,0.6v0h3.8v1H794.5z"
			/>
		<path id="XMLID_61_" class="st1" d="M800.6,53.7c0.9-1.3,1.6-3,1.6-5.4c0-2.4-0.7-4-1.6-5.3h0.9c0.8,1.1,1.7,2.8,1.7,5.3
			c0,2.6-0.9,4.2-1.7,5.4H800.6z"/>
		<path id="XMLID_58_" class="st1" d="M810,52.3c-1.7,0-2.8-1.6-2.8-4.4c0-2.9,1.2-4.4,3-4.4c1.8,0,2.8,1.6,2.8,4.3
			C812.9,50.7,811.9,52.3,810,52.3L810,52.3z M810,51.4c1.2,0,1.7-1.4,1.7-3.6c0-2.1-0.5-3.5-1.7-3.5c-1.1,0-1.7,1.3-1.7,3.5
			C808.3,50.1,809,51.4,810,51.4L810,51.4z"/>
		<path id="XMLID_56_" class="st1" d="M814.1,52.1v-0.7l0.9-0.9c2.2-2.1,3.2-3.2,3.2-4.5c0-0.9-0.4-1.7-1.7-1.7
			c-0.8,0-1.4,0.4-1.8,0.7l-0.4-0.8c0.6-0.5,1.4-0.9,2.4-0.9c1.8,0,2.6,1.3,2.6,2.5c0,1.6-1.1,2.8-2.9,4.6l-0.7,0.6v0h3.8v1H814.1z"
			/>
		<path id="XMLID_54_" class="st1" d="M823.6,50.8c0.3,0.2,1.1,0.5,1.9,0.5c1.5,0,1.9-0.9,1.9-1.7c0-1.2-1.1-1.7-2.2-1.7h-0.6v-0.9
			h0.6c0.8,0,1.9-0.4,1.9-1.4c0-0.7-0.4-1.3-1.5-1.3c-0.7,0-1.3,0.3-1.7,0.6l-0.3-0.8c0.5-0.3,1.3-0.7,2.2-0.7c1.7,0,2.4,1,2.4,2
			c0,0.9-0.5,1.6-1.6,2v0c1.1,0.2,1.9,1,1.9,2.2c0,1.4-1.1,2.6-3.1,2.6c-1,0-1.8-0.3-2.2-0.6L823.6,50.8z"/>
		<path id="XMLID_52_" class="st1" d="M830.7,50.8c0.3,0.2,1.1,0.5,1.9,0.5c1.5,0,1.9-0.9,1.9-1.7c0-1.2-1.1-1.7-2.2-1.7h-0.6v-0.9
			h0.6c0.8,0,1.9-0.4,1.9-1.4c0-0.7-0.4-1.3-1.5-1.3c-0.7,0-1.3,0.3-1.7,0.6l-0.3-0.8c0.5-0.3,1.3-0.7,2.2-0.7c1.7,0,2.4,1,2.4,2
			c0,0.9-0.5,1.6-1.6,2v0c1.1,0.2,1.9,1,1.9,2.2c0,1.4-1.1,2.6-3.1,2.6c-1,0-1.8-0.3-2.2-0.6L830.7,50.8z"/>
		<path id="XMLID_49_" class="st1" d="M840,52.3c-1.7,0-2.8-1.6-2.8-4.4c0-2.9,1.2-4.4,3-4.4c1.8,0,2.8,1.6,2.8,4.3
			C843,50.7,841.9,52.3,840,52.3L840,52.3z M840.1,51.4c1.2,0,1.7-1.4,1.7-3.6c0-2.1-0.5-3.5-1.7-3.5c-1.1,0-1.7,1.3-1.7,3.5
			C838.3,50.1,839,51.4,840.1,51.4L840.1,51.4z"/>
		<path id="XMLID_47_" class="st1" d="M851.7,44.6h-3.3l-0.3,2.2c0.2,0,0.4-0.1,0.7-0.1c0.7,0,1.3,0.1,1.8,0.5
			c0.7,0.4,1.2,1.1,1.2,2.2c0,1.7-1.3,2.9-3.2,2.9c-0.9,0-1.7-0.3-2.1-0.5l0.3-0.9c0.4,0.2,1.1,0.5,1.8,0.5c1.1,0,2-0.7,2-1.9
			c0-1.1-0.7-1.9-2.4-1.9c-0.5,0-0.9,0-1.2,0.1l0.6-4.1h4.1V44.6z"/>
		<path id="XMLID_44_" class="st1" d="M856.1,52.3c-1.7,0-2.8-1.6-2.8-4.4c0-2.9,1.2-4.4,3-4.4c1.8,0,2.8,1.6,2.8,4.3
			C859,50.7,857.9,52.3,856.1,52.3L856.1,52.3z M856.1,51.4c1.2,0,1.7-1.4,1.7-3.6c0-2.1-0.5-3.5-1.7-3.5c-1.1,0-1.7,1.3-1.7,3.5
			C854.4,50.1,855.1,51.4,856.1,51.4L856.1,51.4z"/>
		<path id="XMLID_42_" class="st1" d="M865.5,43.6v0.8l-3.7,7.8h-1.2l3.7-7.6v0h-4.2v-1H865.5z"/>
		<path id="XMLID_40_" class="st1" d="M869.5,50.8c0.3,0.2,1.1,0.5,1.9,0.5c1.5,0,1.9-0.9,1.9-1.7c0-1.2-1.1-1.7-2.2-1.7h-0.6v-0.9
			h0.6c0.8,0,1.9-0.4,1.9-1.4c0-0.7-0.4-1.3-1.5-1.3c-0.7,0-1.3,0.3-1.7,0.6l-0.3-0.8c0.5-0.3,1.3-0.7,2.2-0.7c1.7,0,2.4,1,2.4,2
			c0,0.9-0.5,1.6-1.6,2v0c1.1,0.2,1.9,1,1.9,2.2c0,1.4-1.1,2.6-3.1,2.6c-1,0-1.8-0.3-2.2-0.6L869.5,50.8z"/>
		<path id="XMLID_37_" class="st1" d="M876.7,51.3c0.3,0,0.5,0,0.9-0.1c0.7-0.1,1.3-0.4,1.8-0.8c0.6-0.5,1-1.3,1.1-2.3h0
			c-0.5,0.6-1.2,0.9-2,0.9c-1.5,0-2.5-1.2-2.5-2.6c0-1.6,1.2-3,2.9-3c1.7,0,2.8,1.4,2.8,3.6c0,1.9-0.6,3.2-1.5,4
			c-0.7,0.6-1.6,1-2.5,1.1c-0.4,0.1-0.8,0.1-1.1,0.1V51.3z M878.8,44.3c-1,0-1.7,0.9-1.7,2.1c0,1.1,0.6,1.8,1.6,1.8
			c0.8,0,1.4-0.4,1.7-0.9c0.1-0.1,0.1-0.2,0.1-0.4C880.6,45.4,880.1,44.3,878.8,44.3L878.8,44.3z"/>
	</g>
	<g id="XMLID_6_">
		<path id="XMLID_34_" class="st1" d="M772.3,61.5l0.9,3.2c0.2,0.7,0.3,1.4,0.5,2h0c0.1-0.6,0.4-1.3,0.6-2l1-3.2h1l1,3.2
			c0.2,0.8,0.4,1.4,0.6,2.1h0c0.1-0.6,0.3-1.3,0.5-2.1l0.9-3.2h1.1l-2,6.4h-1.1l-1-3c-0.2-0.7-0.4-1.3-0.6-2.1h0
			c-0.2,0.8-0.4,1.4-0.6,2.1l-1,3h-1l-1.9-6.4H772.3z"/>
		<path id="XMLID_32_" class="st1" d="M781.9,61.5l0.9,3.2c0.2,0.7,0.3,1.4,0.5,2h0c0.1-0.6,0.4-1.3,0.6-2l1-3.2h1l1,3.2
			c0.2,0.8,0.4,1.4,0.6,2.1h0c0.1-0.6,0.3-1.3,0.5-2.1l0.9-3.2h1.1l-2,6.4h-1.1l-1-3c-0.2-0.7-0.4-1.3-0.6-2.1h0
			c-0.2,0.8-0.4,1.4-0.6,2.1l-1,3h-1.1l-1.9-6.4H781.9z"/>
		<path id="XMLID_30_" class="st1" d="M791.6,61.5l0.9,3.2c0.2,0.7,0.3,1.4,0.5,2h0c0.1-0.6,0.4-1.3,0.6-2l1-3.2h1l1,3.2
			c0.2,0.8,0.4,1.4,0.6,2.1h0c0.1-0.6,0.3-1.3,0.5-2.1l0.9-3.2h1.1l-2,6.4h-1.1l-1-3c-0.2-0.7-0.4-1.3-0.6-2.1h0
			c-0.2,0.8-0.4,1.4-0.6,2.1l-1,3h-1.1l-1.9-6.4H791.6z"/>
		<path id="XMLID_28_" class="st1" d="M801.3,68c-0.4,0-0.8-0.4-0.8-0.8c0-0.5,0.3-0.8,0.8-0.8c0.5,0,0.8,0.3,0.8,0.8
			C802.1,67.7,801.8,68,801.3,68L801.3,68z"/>
		<path id="XMLID_26_" class="st1" d="M803.5,58.6h1.2v4h0c0.2-0.3,0.5-0.6,0.8-0.8c0.3-0.2,0.7-0.3,1.2-0.3c0.9,0,2.2,0.5,2.2,2.7
			v3.8h-1.2v-3.7c0-1-0.4-1.9-1.5-1.9c-0.7,0-1.3,0.5-1.5,1.2c-0.1,0.2-0.1,0.3-0.1,0.5v3.8h-1.2V58.6z"/>
		<path id="XMLID_23_" class="st1" d="M811.4,60.5c-0.4,0-0.7-0.3-0.7-0.7c0-0.4,0.3-0.7,0.7-0.7c0.4,0,0.7,0.3,0.7,0.7
			C812.1,60.1,811.8,60.5,811.4,60.5L811.4,60.5z M810.8,67.9v-6.4h1.2v6.4H810.8z"/>
		<path id="XMLID_21_" class="st1" d="M815,64.5L815,64.5c0.2-0.2,0.4-0.5,0.6-0.7l1.9-2.2h1.4l-2.5,2.6l2.8,3.7h-1.4l-2.2-3
			l-0.6,0.7v2.4h-1.2v-9.3h1.2V64.5z"/>
		<path id="XMLID_19_" class="st1" d="M820,63.3c0-0.7,0-1.2-0.1-1.7h1l0.1,1h0c0.4-0.6,0.9-1.2,2-1.2c0.9,0,1.5,0.5,1.8,1.3h0
			c0.2-0.4,0.5-0.6,0.7-0.8c0.4-0.3,0.8-0.4,1.4-0.4c0.9,0,2.1,0.5,2.1,2.8v3.7H828v-3.6c0-1.2-0.5-2-1.4-2c-0.7,0-1.2,0.5-1.4,1
			c-0.1,0.2-0.1,0.4-0.1,0.6v3.9H824v-3.8c0-1-0.4-1.7-1.3-1.7c-0.7,0-1.2,0.6-1.4,1.2c-0.1,0.2-0.1,0.4-0.1,0.6v3.8H820V63.3z"/>
		<path id="XMLID_16_" class="st1" d="M835.5,66.4c0,0.5,0,1.1,0.1,1.5h-1l-0.1-0.8h0c-0.3,0.5-1,0.9-1.9,0.9
			c-1.3,0-1.9-0.9-1.9-1.8c0-1.5,1.4-2.4,3.8-2.4v-0.1c0-0.5-0.1-1.5-1.4-1.5c-0.6,0-1.2,0.2-1.7,0.5l-0.3-0.8
			c0.5-0.3,1.3-0.5,2.1-0.5c2,0,2.4,1.3,2.4,2.6V66.4z M834.4,64.7c-1.3,0-2.7,0.2-2.7,1.4c0,0.8,0.5,1.1,1.1,1.1
			c0.8,0,1.4-0.5,1.6-1.1c0-0.1,0.1-0.3,0.1-0.4V64.7z"/>
		<path id="XMLID_14_" class="st1" d="M837.8,68c-0.4,0-0.8-0.4-0.8-0.8c0-0.5,0.3-0.8,0.8-0.8c0.5,0,0.8,0.3,0.8,0.8
			C838.6,67.7,838.3,68,837.8,68L837.8,68z"/>
		<path id="XMLID_12_" class="st1" d="M844.6,67.7c-0.3,0.1-1,0.4-1.8,0.4c-1.9,0-3.2-1.3-3.2-3.2c0-2,1.3-3.4,3.4-3.4
			c0.7,0,1.3,0.2,1.6,0.3l-0.3,0.9c-0.3-0.1-0.7-0.3-1.3-0.3c-1.5,0-2.2,1.1-2.2,2.4c0,1.5,0.9,2.4,2.2,2.4c0.7,0,1.1-0.2,1.4-0.3
			L844.6,67.7z"/>
		<path id="XMLID_9_" class="st1" d="M848.5,68c-1.7,0-3-1.3-3-3.3c0-2.1,1.4-3.4,3.2-3.4c1.8,0,3.1,1.3,3.1,3.3
			C851.7,67,850,68,848.5,68L848.5,68z M848.6,67.2c1.1,0,1.9-1,1.9-2.5c0-1.1-0.5-2.4-1.9-2.4c-1.4,0-1.9,1.3-1.9,2.5
			C846.7,66.1,847.4,67.2,848.6,67.2L848.6,67.2z"/>
		<path id="XMLID_7_" class="st1" d="M853.1,63.3c0-0.7,0-1.2-0.1-1.7h1l0.1,1h0c0.4-0.6,0.9-1.2,2-1.2c0.9,0,1.5,0.5,1.8,1.3h0
			c0.2-0.4,0.5-0.6,0.7-0.8c0.4-0.3,0.8-0.4,1.4-0.4c0.9,0,2.1,0.5,2.1,2.8v3.7h-1.1v-3.6c0-1.2-0.5-2-1.4-2c-0.7,0-1.2,0.5-1.4,1
			c-0.1,0.2-0.1,0.4-0.1,0.6v3.9h-1.1v-3.8c0-1-0.4-1.7-1.3-1.7c-0.7,0-1.2,0.6-1.4,1.2c-0.1,0.2-0.1,0.4-0.1,0.6v3.8h-1.1V63.3z"/>
	</g>
</g>
</svg>
