<!-- Generator: Adobe Illustrator 22.1.0, SVG Export Plug-In  -->
<svg version="1.1"
	 xmlns="http://www.w3.org/2000/svg" xmlns:xlink="http://www.w3.org/1999/xlink" xmlns:a="http://ns.adobe.com/AdobeSVGViewerExtensions/3.0/"
	 x="0px" y="0px" width="228px" height="56.2px" viewBox="0 0 228 56.2" style="enable-background:new 0 0 228 56.2;"
	 xml:space="preserve">
<style type="text/css">
	.st0{fill:#490E67;}
	.st1{fill:#C29FD8;}
</style>
<defs>
</defs>
<g id="XMLID_1_">
	<path id="XMLID_51_" class="st0" d="M22,36.3h18c2.8,0,4-0.5,4-1.9c0-1.4-0.9-1.7-2.7-1.9c-8.6-0.8-11-3.1-11-8.7
		c0-5.6,3.6-9.3,12-9.3c5,0,7.3,0.7,9.1,1.4v7.3c-2.5-1-5.6-1.7-8.8-1.7c-2.5,0-3.8,0.5-3.8,1.9c0,1.4,0.9,1.7,2.7,1.9
		c8.6,0.8,11,3,11,8.7c0,5.2-3.1,9.3-12.3,9.3H23.6"/>
	<path id="XMLID_48_" class="st0" d="M62.5,31.8c-0.2,3.5,1.6,4.6,5.9,4.6c4.1,0,7.1-0.8,9.1-1.8v6.8c-3.2,1.3-7,1.9-10.2,1.9
		c-9,0-13.4-4.6-13.4-14.4c0-9.8,4.3-14.4,12.8-14.4c11.7,0,12.5,8.7,11.8,17.3H62.5z M62.5,26.5h7.7c0.5-3-0.2-5.4-3.5-5.4
		C63.8,21.1,62.5,23,62.5,26.5"/>
	<path id="XMLID_47_" class="st0" d="M86.2,15.3l1.1,2c3.1-1.9,6.5-2.7,9.5-2.7c7.4,0,9.5,3.9,9.5,9.2v18.9h-8.7V25
		c0-2-0.7-3.4-3.1-3.4c-2.1,0-4,0.9-4.9,1.4v19.5H81V15.3H86.2z"/>
	<path id="XMLID_44_" class="st0" d="M123.3,23.5c0-1.3-0.9-1.9-3.2-1.9c-3.4,0-7.4,1-9.8,2.1v-7.3c1.9-0.8,5.9-1.8,9.8-1.8
		c9.8,0,11.7,4.2,11.7,10.3v17.7h-5.2l-1.2-2.1c-2,1.7-4.7,2.8-8,2.8c-6.9,0-9.3-4.6-9.3-8.7c0-7.4,5.4-8.4,10.3-8.9l5-0.5V23.5z
		 M119.7,30.5c-2.5,0.3-3.4,1.5-3.4,3.6c0,2,1.3,3.2,3.2,3.2c1.6,0,3-0.4,3.9-1.3V30L119.7,30.5z"/>
	<path id="XMLID_41_" class="st0" d="M139.9,15.3l1.5,2.2c1.9-1.6,4.5-2.9,8.8-2.9c7.1,0,10.6,4.4,10.6,14.4
		c0,10-3.5,14.4-10.6,14.4c-3,0-5.2-0.8-6.8-1.7v14.6h-8.7V15.3H139.9z M143.4,35.1c0,0,1.7,1.1,3.9,1.1c4,0,4.9-2.7,4.9-7.4
		c0-4.7-0.9-7.2-4.9-7.2c-2.2,0-3.9,1.1-3.9,1.1V35.1z"/>
	<path id="XMLID_40_" class="st0" d="M174,42.8c0,0-1.1,0.2-2.5,0.2c-4.7,0-8.4-2.4-8.4-7.7v-20h8.7v18.8c0,1,0.5,1.6,2.2,1.6V42.8z
		"/>
	<path id="XMLID_39_" class="st0" d="M181.4,15.3l1.1,2c3-1.9,6.5-2.7,9.5-2.7c7.4,0,9.5,3.9,9.5,9.2v18.9h-8.7V25
		c0-2-0.7-3.4-3-3.4c-2.1,0-4,0.9-4.9,1.4v19.5h-8.7V15.3H181.4z"/>
	<path id="XMLID_36_" class="st0" d="M211.9,31.8c-0.2,3.5,1.6,4.6,5.9,4.6c4.1,0,7.1-0.8,9.1-1.8v6.8c-3.2,1.3-7,1.9-10.2,1.9
		c-9,0-13.4-4.6-13.4-14.4c0-9.8,4.3-14.4,12.8-14.4c11.7,0,12.5,8.7,11.8,17.3H211.9z M211.9,26.5h7.7c0.5-3-0.2-5.4-3.5-5.4
		C213.2,21.1,211.9,23,211.9,26.5"/>
	<polyline id="XMLID_35_" class="st0" points="12.9,34.2 14.6,27.2 19.8,27.2 16.4,11.8 12.9,27.2 11.2,34.2 9.3,42.6 0,42.6 
		11.3,1.5 21.4,1.5 32.7,42.6 23.4,42.6 21.5,34.2 	"/>
	<g id="XMLID_7_">
		<polygon id="XMLID_34_" class="st0" points="152,55.8 152,50.8 146.9,50.8 146.9,55.8 146,55.8 146,45.5 146.9,45.5 146.9,50 
			152,50 152,45.5 153,45.5 153,55.8 		"/>
		<path id="XMLID_31_" class="st0" d="M155.6,46.2c0.4,0,0.7,0.3,0.7,0.7c0,0.4-0.3,0.7-0.7,0.7c-0.4,0-0.7-0.3-0.7-0.7
			C154.9,46.5,155.2,46.2,155.6,46.2 M155.1,54.4v-5.5h0.9v5.6c0,0.5,0.2,0.6,0.6,0.6v0.8C155.6,55.9,155.1,55.5,155.1,54.4"/>
		<polygon id="XMLID_30_" class="st0" points="160.5,51.7 163.9,55.8 162.7,55.8 160,52.3 159.1,53.1 159.1,55.8 158.2,55.8 
			158.2,45.5 159.1,45.5 159.1,52 162.2,48.9 163.5,48.9 		"/>
		<path id="XMLID_29_" class="st0" d="M173.1,50.8c0-0.9-0.5-1.2-1.3-1.2c-0.8,0-1.3,0.2-1.9,0.5c0.1,0.2,0.1,0.5,0.1,0.7v5h-1v-5
			c0-0.9-0.5-1.2-1.3-1.2c-0.8,0-1.2,0.1-1.8,0.4v5.7h-1v-6.8h0.5l0.2,0.6c0.7-0.5,1.4-0.7,2-0.7c0.9,0,1.6,0.3,1.9,0.8
			c0.7-0.5,1.4-0.8,2.1-0.8c1.5,0,2.3,0.7,2.3,2.1v4.9h-1V50.8z"/>
		<path id="XMLID_20_" class="st0" d="M178.2,49.6c-0.9,0-1.5,0.2-2.1,0.3v-0.8c0.6-0.3,1.4-0.4,2.1-0.4c2.1,0,2.6,0.9,2.6,2.3v4.7
			h-0.5l-0.2-0.5c-0.6,0.5-1.4,0.7-2.1,0.7c-1.8,0-2.4-1.1-2.4-2.2c0-1.2,0.6-2,2.4-2.1l1.8-0.1v-0.4
			C179.8,50.1,179.4,49.6,178.2,49.6 M177.9,52.3c-1,0.1-1.4,0.6-1.4,1.4c0,0.6,0.1,1.4,1.5,1.4c0.7,0,1.2-0.2,1.8-0.5v-2.4
			L177.9,52.3z"/>
		<path id="XMLID_17_" class="st0" d="M185.9,55.8H185V45.5h3.1c2.6,0,3.4,1.5,3.4,3.1c0,1.6-0.9,3.1-3.4,3.1h-2.2V55.8z
			 M185.9,50.8h2.3c1.9,0,2.3-1.2,2.3-2.2c0-1-0.4-2.2-2.3-2.2h-2.3V50.8z"/>
		<path id="XMLID_16_" class="st0" d="M195.8,49.6c-0.9,0-1.4,0.2-1.9,0.4v5.7H193V45.5h0.9v3.8c0.6-0.4,1.2-0.6,1.9-0.6
			c1.6,0,2.3,0.7,2.3,2.1v4.9h-1v-5C197.1,49.9,196.6,49.6,195.8,49.6"/>
		<path id="XMLID_13_" class="st0" d="M202.2,49.6c-0.9,0-1.5,0.2-2.1,0.3v-0.8c0.6-0.3,1.4-0.4,2.1-0.4c2,0,2.6,0.9,2.6,2.3v4.7
			h-0.5l-0.2-0.5c-0.6,0.5-1.4,0.7-2.1,0.7c-1.8,0-2.4-1.1-2.4-2.2c0-1.2,0.6-2,2.4-2.1l1.8-0.1v-0.4
			C203.8,50.1,203.5,49.6,202.2,49.6 M202,52.3c-1,0.1-1.4,0.6-1.4,1.4c0,0.6,0.2,1.4,1.5,1.4c0.7,0,1.2-0.2,1.8-0.5v-2.4L202,52.3z
			"/>
		<path id="XMLID_12_" class="st0" d="M210.3,49.7c-0.2-0.1-0.5-0.1-0.8-0.1c-0.9,0-1.5,0.2-2,0.4v5.7h-1v-6.8h0.5l0.2,0.6
			c0.6-0.5,1.4-0.7,2.2-0.7c0.3,0,0.6,0,0.8,0.1V49.7z"/>
		<path id="XMLID_11_" class="st0" d="M219.6,50.8c0-0.9-0.5-1.2-1.3-1.2c-0.8,0-1.3,0.2-1.9,0.5c0.1,0.2,0.1,0.5,0.1,0.7v5h-1v-5
			c0-0.9-0.5-1.2-1.3-1.2c-0.8,0-1.2,0.1-1.8,0.4v5.7h-1v-6.8h0.5l0.2,0.6c0.7-0.5,1.4-0.7,2-0.7c0.9,0,1.6,0.3,1.9,0.8
			c0.7-0.5,1.4-0.8,2.1-0.8c1.5,0,2.3,0.7,2.3,2.1v4.9h-1V50.8z"/>
		<path id="XMLID_8_" class="st0" d="M224.7,49.6c-0.9,0-1.5,0.2-2.1,0.3v-0.8c0.6-0.3,1.4-0.4,2.1-0.4c2.1,0,2.6,0.9,2.6,2.3v4.7
			h-0.5l-0.2-0.5c-0.6,0.5-1.4,0.7-2.1,0.7c-1.8,0-2.4-1.1-2.4-2.2c0-1.2,0.6-2,2.4-2.1l1.8-0.1v-0.4
			C226.3,50.1,226,49.6,224.7,49.6 M224.5,52.3c-1,0.1-1.4,0.6-1.4,1.4c0,0.6,0.1,1.4,1.4,1.4c0.7,0,1.2-0.2,1.8-0.5v-2.4
			L224.5,52.3z"/>
	</g>
	<g id="XMLID_2_">
		<path id="XMLID_6_" class="st0" d="M170.7,0c-1.2,0-2.3,0.3-3.2,0.8c0.4,0.2,0.8,0.5,1.2,0.8c2.3,0.5,4,2.6,4,5c0,2.5-1.7,4.5-4,5
			c-0.4,0.3-0.8,0.6-1.2,0.8c0.9,0.5,2,0.8,3.2,0.8c3.7,0,6.6-2.9,6.6-6.6C177.3,2.9,174.4,0,170.7,0z"/>
		<path id="XMLID_5_" class="st1" d="M162.3,6.6c0-2.5,1.7-4.5,4-5c0.4-0.3,0.7-0.6,1.2-0.8c-0.9-0.5-2-0.8-3.2-0.8
			c-3.8,0-6.6,2.9-6.6,6.6c0,3.8,2.9,6.6,6.6,6.6c1.2,0,2.2-0.3,3.2-0.8c-0.4-0.2-0.8-0.5-1.2-0.8C164,11.1,162.3,9.2,162.3,6.6z"/>
		<path id="XMLID_4_" class="st1" d="M167.5,11.8c-0.4,0-0.8-0.1-1.2-0.1c0.4,0.3,0.8,0.6,1.2,0.8c0.4-0.2,0.8-0.5,1.2-0.8
			C168.3,11.8,167.9,11.8,167.5,11.8z"/>
		<path id="XMLID_3_" class="st1" d="M167.5,1.5c0.4,0,0.8,0,1.2,0.1c-0.4-0.3-0.7-0.6-1.2-0.8c-0.4,0.2-0.8,0.5-1.2,0.8
			C166.7,1.5,167.1,1.5,167.5,1.5z"/>
	</g>
</g>
</svg>
