<!-- Generator: Adobe Illustrator 22.1.0, SVG Export Plug-In  -->
<svg version="1.1"
	 xmlns="http://www.w3.org/2000/svg" xmlns:xlink="http://www.w3.org/1999/xlink" xmlns:a="http://ns.adobe.com/AdobeSVGViewerExtensions/3.0/"
	 x="0px" y="0px" width="475.1px" height="19.7px" viewBox="0 0 475.1 19.7" style="enable-background:new 0 0 475.1 19.7;"
	 xml:space="preserve">
<style type="text/css">
	.st0{fill:#231F20;}
</style>
<defs>
</defs>
<g id="XMLID_1_">
	<g id="XMLID_3_">
		<path id="XMLID_398_" class="st0" d="M2.3,1.4L2,0.8h1.6C3.8,1.3,5.8,6.4,6,7H4.5L4.1,5.9H1.9L1.5,7H0L2.3,1.4z M2.3,4.8h1.4
			L3.1,3.4L3,2.9L2.8,3.4L2.3,4.8z"/>
		<path id="XMLID_396_" class="st0" d="M6.6,2h1.3L8,2.4c0.2-0.3,0.7-0.6,1.3-0.6c0.7,0,1.2,0.2,1.4,0.7c0.3-0.3,0.7-0.7,1.5-0.7
			c1.2,0,1.7,0.7,1.7,2V7h-1.5V4.1c0-0.8-0.2-1.1-0.7-1.1c-0.4,0-0.7,0.2-0.8,0.4c0,0.1,0,0.3,0,0.5V7H9.5V4.1C9.5,3.3,9.3,3,8.8,3
			C8.4,3,8.2,3.2,8.1,3.4V7H6.6V2z"/>
		<path id="XMLID_393_" class="st0" d="M14.6,4.5c0-1.8,1.2-2.6,2.4-2.6c1.2,0,2.3,0.5,2.3,2.4v0.6h-3.2c0.1,0.6,0.4,1,1.3,1
			c0.8,0,1.4-0.3,1.6-0.6v1.2c-0.3,0.3-0.9,0.6-1.9,0.6C15.6,7.1,14.6,6.3,14.6,4.5z M18,4L18,4c0-0.6-0.3-1-0.9-1
			c-0.6,0-0.9,0.5-0.9,1H18z"/>
		<path id="XMLID_391_" class="st0" d="M20.1,2h1.2l0.1,0.7c0.1-0.5,0.5-0.8,1-0.8c0.3,0,0.4,0.1,0.5,0.1v1.3
			c-0.1-0.1-0.3-0.1-0.6-0.1c-0.4,0-0.6,0.2-0.7,0.4V7h-1.5V2z"/>
		<path id="XMLID_388_" class="st0" d="M23.6,0.8c0-0.4,0.3-0.7,0.8-0.7c0.5,0,0.8,0.3,0.8,0.7c0,0.4-0.3,0.7-0.8,0.7
			C23.9,1.5,23.6,1.2,23.6,0.8z M23.6,2h1.5v5h-1.5V2z"/>
		<path id="XMLID_386_" class="st0" d="M25.9,4.5c0-1.8,1.2-2.6,2.5-2.6c0.7,0,1.3,0.2,1.5,0.4v1.3c-0.3-0.4-0.7-0.5-1.3-0.5
			c-0.8,0-1.2,0.5-1.2,1.4c0,0.9,0.4,1.4,1.2,1.4c0.6,0,1-0.2,1.3-0.5v1.3c-0.2,0.2-0.8,0.5-1.5,0.5C26.9,7.1,25.9,6.3,25.9,4.5z"/>
		<path id="XMLID_383_" class="st0" d="M30.5,5.6c0-1,0.7-1.4,2.1-1.6l0.7-0.1c0-0.7-0.3-0.9-1-0.9c-0.7,0-1.4,0.4-1.6,0.9V2.5
			c0.2-0.3,0.8-0.7,1.9-0.7c1.4,0,2.2,0.6,2.2,2.1v3h-1.3l-0.1-0.4c-0.1,0.3-0.5,0.6-1.2,0.6C31.2,7.1,30.5,6.6,30.5,5.6z M33.3,4.8
			l-0.6,0.1c-0.7,0.1-0.9,0.3-0.9,0.7c0,0.3,0.2,0.5,0.6,0.5c0.4,0,0.7-0.2,0.9-0.3V4.8z"/>
		<path id="XMLID_381_" class="st0" d="M35.8,2h1.3l0.1,0.4c0.2-0.3,0.7-0.6,1.3-0.6c1.3,0,1.8,0.7,1.8,2V7h-1.5V4.1
			c0-0.8-0.2-1.1-0.8-1.1c-0.4,0-0.7,0.2-0.8,0.4V7h-1.5V2z"/>
		<path id="XMLID_379_" class="st0" d="M43.5,0.8h2.1c1.8,0,2.6,0.8,2.6,2.1c0,1.3-0.8,2.3-2.6,2.3h-0.3V4.1h0.3
			c0.7,0,1.1-0.4,1.1-1.1c0-0.7-0.4-1-1.1-1h-0.5v5h-1.5V0.8z"/>
		<path id="XMLID_377_" class="st0" d="M48.8,6.7V5.4C49.1,5.7,49.6,6,50.3,6c0.6,0,0.8-0.2,0.8-0.5c0-0.3-0.1-0.4-0.7-0.5l-0.3,0
			c-1-0.1-1.5-0.7-1.5-1.5c0-0.9,0.6-1.6,2.1-1.6c0.8,0,1.3,0.2,1.6,0.4v1.3C52,3.2,51.5,3,50.8,3C50.2,3,50,3.1,50,3.4
			s0.1,0.4,0.6,0.5l0.3,0c1.1,0.2,1.6,0.6,1.6,1.5c0,0.9-0.6,1.7-2.2,1.7C49.6,7.1,49.1,6.9,48.8,6.7z"/>
		<path id="XMLID_375_" class="st0" d="M53,8.6V7.4c0.2,0.2,0.5,0.4,0.9,0.4c0.3,0,0.6-0.1,0.9-0.7l-2-5.1h1.6l1,3.3L56.3,2h1.4
			l-1.4,4.7c-0.4,1.2-1,2.2-2.3,2.2C53.6,8.9,53.2,8.7,53,8.6z"/>
		<path id="XMLID_373_" class="st0" d="M58,4.5c0-1.8,1.2-2.6,2.5-2.6c0.7,0,1.3,0.2,1.5,0.4v1.3c-0.3-0.4-0.7-0.5-1.3-0.5
			c-0.8,0-1.2,0.5-1.2,1.4c0,0.9,0.4,1.4,1.2,1.4c0.6,0,1-0.2,1.3-0.5v1.3c-0.2,0.2-0.8,0.5-1.5,0.5C59,7.1,58,6.3,58,4.5z"/>
		<path id="XMLID_371_" class="st0" d="M62.8,0.2h1.5v2.2c0.2-0.3,0.7-0.5,1.3-0.5c1.3,0,1.8,0.7,1.8,2V7h-1.5V4.1
			c0-0.8-0.2-1.1-0.8-1.1c-0.4,0-0.7,0.2-0.8,0.4V7h-1.5V0.2z"/>
		<path id="XMLID_368_" class="st0" d="M68.3,0.8c0-0.4,0.3-0.7,0.8-0.7c0.5,0,0.8,0.3,0.8,0.7c0,0.4-0.3,0.7-0.8,0.7
			C68.6,1.5,68.3,1.2,68.3,0.8z M68.4,2h1.5v5h-1.5V2z"/>
		<path id="XMLID_365_" class="st0" d="M70.6,5.6c0-1,0.7-1.4,2.1-1.6l0.7-0.1c0-0.7-0.3-0.9-1-0.9c-0.7,0-1.4,0.4-1.6,0.9V2.5
			c0.2-0.3,0.8-0.7,1.9-0.7c1.4,0,2.2,0.6,2.2,2.1v3h-1.3l-0.1-0.4c-0.1,0.3-0.5,0.6-1.2,0.6C71.3,7.1,70.6,6.6,70.6,5.6z M73.5,4.8
			l-0.6,0.1C72.2,5.1,72,5.2,72,5.6c0,0.3,0.2,0.5,0.6,0.5c0.4,0,0.7-0.2,0.9-0.3V4.8z"/>
		<path id="XMLID_363_" class="st0" d="M76.2,5.5V3.1h-0.6V2.6L76.1,2L77,0.8h0.7V2h1.2v1.2h-1.2v2.3c0,0.4,0.1,0.5,0.4,0.5
			c0.3,0,0.6-0.2,0.7-0.4v1.2c-0.2,0.2-0.5,0.4-1.1,0.4C76.6,7.1,76.2,6.5,76.2,5.5z"/>
		<path id="XMLID_361_" class="st0" d="M79.6,2h1.2l0.1,0.7c0.1-0.5,0.5-0.8,1-0.8c0.3,0,0.4,0.1,0.5,0.1v1.3
			c-0.1-0.1-0.3-0.1-0.6-0.1c-0.4,0-0.6,0.2-0.7,0.4V7h-1.5V2z"/>
		<path id="XMLID_358_" class="st0" d="M83,0.8c0-0.4,0.3-0.7,0.8-0.7c0.5,0,0.8,0.3,0.8,0.7c0,0.4-0.3,0.7-0.8,0.7
			C83.3,1.5,83,1.2,83,0.8z M83.1,2h1.5v5h-1.5V2z"/>
		<path id="XMLID_356_" class="st0" d="M85.3,4.5c0-1.8,1.2-2.6,2.5-2.6c0.7,0,1.3,0.2,1.5,0.4v1.3C89,3.2,88.6,3.1,88,3.1
			c-0.8,0-1.2,0.5-1.2,1.4c0,0.9,0.4,1.4,1.2,1.4c0.6,0,1-0.2,1.3-0.5v1.3c-0.2,0.2-0.8,0.5-1.5,0.5C86.3,7.1,85.3,6.3,85.3,4.5z"/>
		<path id="XMLID_353_" class="st0" d="M94.1,1.4l-0.2-0.6h1.6c0.2,0.5,2.2,5.6,2.5,6.2h-1.6l-0.4-1.1h-2.2L93.3,7h-1.5L94.1,1.4z
			 M94.1,4.8h1.4L95,3.4l-0.2-0.5l-0.2,0.5L94.1,4.8z"/>
		<path id="XMLID_351_" class="st0" d="M98.3,6.7V5.4C98.6,5.7,99.1,6,99.8,6c0.6,0,0.8-0.2,0.8-0.5c0-0.3-0.1-0.4-0.7-0.5l-0.3,0
			c-1-0.1-1.5-0.7-1.5-1.5c0-0.9,0.6-1.6,2.1-1.6c0.8,0,1.3,0.2,1.6,0.4v1.3C101.5,3.2,101,3,100.3,3c-0.6,0-0.8,0.2-0.8,0.4
			s0.1,0.4,0.6,0.5l0.3,0c1.1,0.2,1.6,0.6,1.6,1.5c0,0.9-0.6,1.7-2.2,1.7C99.1,7.1,98.6,6.9,98.3,6.7z"/>
		<path id="XMLID_349_" class="st0" d="M102.7,6.7V5.4c0.3,0.3,0.8,0.6,1.5,0.6c0.6,0,0.8-0.2,0.8-0.5c0-0.3-0.1-0.4-0.7-0.5l-0.3,0
			c-1-0.1-1.5-0.7-1.5-1.5c0-0.9,0.6-1.6,2.1-1.6c0.8,0,1.3,0.2,1.6,0.4v1.3c-0.3-0.4-0.8-0.5-1.5-0.5c-0.6,0-0.8,0.2-0.8,0.4
			s0.1,0.4,0.6,0.5l0.3,0c1.1,0.2,1.6,0.6,1.6,1.5c0,0.9-0.6,1.7-2.2,1.7C103.5,7.1,102.9,6.9,102.7,6.7z"/>
		<path id="XMLID_346_" class="st0" d="M106.9,4.5c0-1.8,1.2-2.6,2.6-2.6c1.5,0,2.5,0.8,2.5,2.6c0,1.9-1.2,2.6-2.6,2.6
			C107.9,7.1,106.9,6.3,106.9,4.5z M110.5,4.5c0-0.9-0.3-1.4-1-1.4c-0.7,0-1,0.6-1,1.4c0,0.9,0.3,1.4,1,1.4
			C110.1,5.9,110.5,5.3,110.5,4.5z"/>
		<path id="XMLID_344_" class="st0" d="M112.5,4.5c0-1.8,1.2-2.6,2.5-2.6c0.7,0,1.3,0.2,1.5,0.4v1.3c-0.3-0.4-0.7-0.5-1.3-0.5
			c-0.8,0-1.2,0.5-1.2,1.4c0,0.9,0.4,1.4,1.2,1.4c0.6,0,1-0.2,1.3-0.5v1.3c-0.2,0.2-0.8,0.5-1.5,0.5C113.5,7.1,112.5,6.3,112.5,4.5z
			"/>
		<path id="XMLID_341_" class="st0" d="M117.3,0.8c0-0.4,0.3-0.7,0.8-0.7c0.5,0,0.8,0.3,0.8,0.7c0,0.4-0.3,0.7-0.8,0.7
			C117.6,1.5,117.3,1.2,117.3,0.8z M117.4,2h1.5v5h-1.5V2z"/>
		<path id="XMLID_338_" class="st0" d="M119.6,5.6c0-1,0.7-1.4,2.1-1.6l0.7-0.1c0-0.7-0.3-0.9-1-0.9c-0.7,0-1.4,0.4-1.6,0.9V2.5
			c0.2-0.3,0.8-0.7,1.9-0.7c1.4,0,2.2,0.6,2.2,2.1v3h-1.3l-0.1-0.4c-0.1,0.3-0.5,0.6-1.2,0.6C120.3,7.1,119.6,6.6,119.6,5.6z
			 M122.5,4.8l-0.6,0.1c-0.7,0.1-0.9,0.3-0.9,0.7c0,0.3,0.2,0.5,0.6,0.5c0.4,0,0.7-0.2,0.9-0.3V4.8z"/>
		<path id="XMLID_336_" class="st0" d="M125.2,5.5V3.1h-0.6V2.6l0.5-0.6l0.9-1.2h0.7V2h1.2v1.2h-1.2v2.3c0,0.4,0.1,0.5,0.4,0.5
			c0.3,0,0.6-0.2,0.7-0.4v1.2c-0.2,0.2-0.5,0.4-1.1,0.4C125.6,7.1,125.2,6.5,125.2,5.5z"/>
		<path id="XMLID_333_" class="st0" d="M128.6,0.8c0-0.4,0.3-0.7,0.8-0.7c0.5,0,0.8,0.3,0.8,0.7c0,0.4-0.3,0.7-0.8,0.7
			C128.9,1.5,128.6,1.2,128.6,0.8z M128.6,2h1.5v5h-1.5V2z"/>
		<path id="XMLID_330_" class="st0" d="M130.9,4.5c0-1.8,1.2-2.6,2.6-2.6c1.5,0,2.5,0.8,2.5,2.6c0,1.9-1.2,2.6-2.6,2.6
			C131.9,7.1,130.9,6.3,130.9,4.5z M134.4,4.5c0-0.9-0.3-1.4-1-1.4c-0.7,0-1,0.6-1,1.4c0,0.9,0.3,1.4,1,1.4
			C134.1,5.9,134.4,5.3,134.4,4.5z"/>
		<path id="XMLID_328_" class="st0" d="M136.7,2h1.3l0.1,0.4c0.2-0.3,0.7-0.6,1.3-0.6c1.3,0,1.8,0.7,1.8,2V7h-1.5V4.1
			c0-0.8-0.2-1.1-0.8-1.1c-0.4,0-0.7,0.2-0.8,0.4V7h-1.5V2z"/>
		<path id="XMLID_326_" class="st0" d="M142.1,6.2c0-0.5,0.4-0.9,0.9-0.9c0.5,0,0.9,0.4,0.9,0.9c0,0.5-0.4,0.9-0.9,0.9
			C142.5,7.1,142.1,6.7,142.1,6.2z"/>
		<path id="XMLID_324_" class="st0" d="M146.9,0.8h2.1c1.8,0,2.6,0.8,2.6,2.1c0,1.3-0.8,2.3-2.6,2.3h-0.3V4.1h0.3
			c0.7,0,1.1-0.4,1.1-1.1c0-0.7-0.4-1-1.1-1h-0.5v5h-1.5V0.8z"/>
		<path id="XMLID_322_" class="st0" d="M152.3,2h1.2l0.1,0.7c0.1-0.5,0.5-0.8,1-0.8c0.3,0,0.4,0.1,0.5,0.1v1.3
			c-0.1-0.1-0.3-0.1-0.6-0.1c-0.4,0-0.6,0.2-0.7,0.4V7h-1.5V2z"/>
		<path id="XMLID_319_" class="st0" d="M155.5,5.6c0-1,0.7-1.4,2.1-1.6l0.7-0.1c0-0.7-0.3-0.9-1-0.9c-0.7,0-1.4,0.4-1.6,0.9V2.5
			c0.2-0.3,0.8-0.7,1.9-0.7c1.4,0,2.2,0.6,2.2,2.1v3h-1.3l-0.1-0.4c-0.1,0.3-0.5,0.6-1.2,0.6C156.2,7.1,155.5,6.6,155.5,5.6z
			 M158.3,4.8l-0.6,0.1c-0.7,0.1-0.9,0.3-0.9,0.7c0,0.3,0.2,0.5,0.6,0.5c0.4,0,0.7-0.2,0.9-0.3V4.8z"/>
		<path id="XMLID_317_" class="st0" d="M160.5,4.5c0-1.8,1.2-2.6,2.5-2.6c0.7,0,1.3,0.2,1.5,0.4v1.3c-0.3-0.4-0.7-0.5-1.3-0.5
			c-0.8,0-1.2,0.5-1.2,1.4c0,0.9,0.4,1.4,1.2,1.4c0.6,0,1-0.2,1.3-0.5v1.3c-0.2,0.2-0.8,0.5-1.5,0.5C161.5,7.1,160.5,6.3,160.5,4.5z
			"/>
		<path id="XMLID_315_" class="st0" d="M165.6,5.5V3.1H165V2.6l0.5-0.6l0.9-1.2h0.7V2h1.2v1.2h-1.2v2.3c0,0.4,0.1,0.5,0.4,0.5
			c0.3,0,0.6-0.2,0.7-0.4v1.2c-0.2,0.2-0.5,0.4-1.1,0.4C166,7.1,165.6,6.5,165.6,5.5z"/>
		<path id="XMLID_312_" class="st0" d="M169,0.8c0-0.4,0.3-0.7,0.8-0.7c0.5,0,0.8,0.3,0.8,0.7c0,0.4-0.3,0.7-0.8,0.7
			C169.3,1.5,169,1.2,169,0.8z M169,2h1.5v5H169V2z"/>
		<path id="XMLID_310_" class="st0" d="M171.3,4.5c0-1.8,1.2-2.6,2.5-2.6c0.7,0,1.3,0.2,1.5,0.4v1.3c-0.3-0.4-0.7-0.5-1.3-0.5
			c-0.8,0-1.2,0.5-1.2,1.4c0,0.9,0.4,1.4,1.2,1.4c0.6,0,1-0.2,1.3-0.5v1.3c-0.2,0.2-0.8,0.5-1.5,0.5C172.3,7.1,171.3,6.3,171.3,4.5z
			"/>
		<path id="XMLID_307_" class="st0" d="M175.9,4.5c0-1.8,1.2-2.6,2.4-2.6c1.2,0,2.3,0.5,2.3,2.4v0.6h-3.2c0.1,0.6,0.4,1,1.3,1
			c0.8,0,1.4-0.3,1.6-0.6v1.2c-0.3,0.3-0.9,0.6-1.9,0.6C176.9,7.1,175.9,6.3,175.9,4.5z M179.3,4L179.3,4c0-0.6-0.3-1-0.9-1
			c-0.6,0-0.9,0.5-0.9,1H179.3z"/>
		<path id="XMLID_305_" class="st0" d="M183.4,3.9c0-2.1,1.4-3.2,3.1-3.2c1.1,0,1.7,0.3,2,0.6v1.5c-0.4-0.5-1-0.9-1.8-0.9
			c-1.1,0-1.8,0.7-1.8,1.9c0,1.3,0.6,2,1.5,2c0.3,0,0.5,0,0.7-0.1V4.1h1.4v2.4c-0.4,0.3-1.1,0.6-2.2,0.6
			C184.6,7.1,183.4,6,183.4,3.9z"/>
		<path id="XMLID_303_" class="st0" d="M189.5,5.1V2h1.5v2.8c0,0.8,0.2,1.1,0.7,1.1c0.4,0,0.7-0.2,0.8-0.4V2h1.5v5h-1.3l-0.1-0.4
			c-0.2,0.3-0.7,0.6-1.3,0.6C189.9,7.1,189.5,6.4,189.5,5.1z"/>
		<path id="XMLID_300_" class="st0" d="M195,0.8c0-0.4,0.3-0.7,0.8-0.7c0.5,0,0.8,0.3,0.8,0.7c0,0.4-0.3,0.7-0.8,0.7
			C195.2,1.5,195,1.2,195,0.8z M195,2h1.5v5H195V2z"/>
		<path id="XMLID_297_" class="st0" d="M197.3,4.5c0-1.8,0.9-2.7,2.2-2.7c0.4,0,0.8,0.1,1.1,0.3v-2h1.5V7h-1.3l-0.1-0.4
			c-0.2,0.3-0.6,0.6-1.3,0.6C198.1,7.1,197.3,6.3,197.3,4.5z M200.6,3.3c-0.2-0.2-0.5-0.3-0.8-0.3c-0.7,0-1,0.7-1,1.6
			s0.2,1.4,0.9,1.4c0.4,0,0.7-0.2,0.8-0.4V3.3z"/>
		<path id="XMLID_294_" class="st0" d="M202.8,4.5c0-1.8,1.2-2.6,2.4-2.6c1.2,0,2.3,0.5,2.3,2.4v0.6h-3.2c0.1,0.6,0.4,1,1.3,1
			c0.8,0,1.4-0.3,1.6-0.6v1.2c-0.3,0.3-0.9,0.6-1.9,0.6C203.8,7.1,202.8,6.3,202.8,4.5z M206.2,4L206.2,4c0-0.6-0.3-1-0.9-1
			c-0.6,0-0.9,0.5-0.9,1H206.2z"/>
		<path id="XMLID_292_" class="st0" d="M208.3,5.7V0.2h1.5v5.4c0,0.3,0.1,0.4,0.3,0.4c0.2,0,0.4-0.1,0.4-0.2v1.1
			c-0.1,0.1-0.4,0.3-0.9,0.3C208.8,7.1,208.3,6.6,208.3,5.7z"/>
		<path id="XMLID_289_" class="st0" d="M211.2,0.8c0-0.4,0.3-0.7,0.8-0.7c0.5,0,0.8,0.3,0.8,0.7c0,0.4-0.3,0.7-0.8,0.7
			C211.5,1.5,211.2,1.2,211.2,0.8z M211.2,2h1.5v5h-1.5V2z"/>
		<path id="XMLID_287_" class="st0" d="M213.7,2h1.3l0.1,0.4c0.2-0.3,0.7-0.6,1.3-0.6c1.3,0,1.8,0.7,1.8,2V7h-1.5V4.1
			c0-0.8-0.2-1.1-0.8-1.1c-0.4,0-0.7,0.2-0.8,0.4V7h-1.5V2z"/>
		<path id="XMLID_284_" class="st0" d="M219.1,4.5c0-1.8,1.2-2.6,2.4-2.6c1.2,0,2.3,0.5,2.3,2.4v0.6h-3.2c0.1,0.6,0.4,1,1.3,1
			c0.8,0,1.4-0.3,1.6-0.6v1.2c-0.3,0.3-0.9,0.6-1.9,0.6C220,7.1,219.1,6.3,219.1,4.5z M222.4,4L222.4,4c0-0.6-0.3-1-0.9-1
			c-0.6,0-0.9,0.5-0.9,1H222.4z"/>
		<path id="XMLID_282_" class="st0" d="M227,3.1h-0.6V2.6l0.5-0.5c-0.1-0.2-0.2-0.4-0.2-0.7c0-0.9,0.8-1.4,1.8-1.4
			c0.7,0,1.1,0.2,1.2,0.3v1.2c-0.2-0.3-0.5-0.4-0.9-0.4c-0.4,0-0.6,0.2-0.6,0.5c0,0.2,0.1,0.3,0.1,0.4h1v1.2h-0.9V7H227V3.1z"/>
		<path id="XMLID_279_" class="st0" d="M229.8,4.5c0-1.8,1.2-2.6,2.6-2.6c1.5,0,2.5,0.8,2.5,2.6c0,1.9-1.2,2.6-2.6,2.6
			C230.8,7.1,229.8,6.3,229.8,4.5z M233.3,4.5c0-0.9-0.3-1.4-1-1.4c-0.7,0-1,0.6-1,1.4c0,0.9,0.3,1.4,1,1.4
			C233,5.9,233.3,5.3,233.3,4.5z"/>
		<path id="XMLID_277_" class="st0" d="M235.6,2h1.2l0.1,0.7c0.1-0.5,0.5-0.8,1-0.8c0.3,0,0.4,0.1,0.5,0.1v1.3
			c-0.1-0.1-0.3-0.1-0.6-0.1c-0.4,0-0.6,0.2-0.7,0.4V7h-1.5V2z"/>
		<path id="XMLID_275_" class="st0" d="M241.4,5.5V3.1h-0.6V2.6l0.5-0.6l0.9-1.2h0.7V2h1.2v1.2h-1.2v2.3c0,0.4,0.1,0.5,0.4,0.5
			c0.3,0,0.6-0.2,0.7-0.4v1.2c-0.2,0.2-0.5,0.4-1.1,0.4C241.9,7.1,241.4,6.5,241.4,5.5z"/>
		<path id="XMLID_273_" class="st0" d="M244.9,0.2h1.5v2.2c0.2-0.3,0.7-0.5,1.3-0.5c1.3,0,1.8,0.7,1.8,2V7h-1.5V4.1
			c0-0.8-0.2-1.1-0.8-1.1c-0.4,0-0.7,0.2-0.8,0.4V7h-1.5V0.2z"/>
		<path id="XMLID_270_" class="st0" d="M250.2,4.5c0-1.8,1.2-2.6,2.4-2.6c1.2,0,2.3,0.5,2.3,2.4v0.6h-3.2c0.1,0.6,0.4,1,1.3,1
			c0.8,0,1.4-0.3,1.6-0.6v1.2c-0.3,0.3-0.9,0.6-1.9,0.6C251.1,7.1,250.2,6.3,250.2,4.5z M253.5,4L253.5,4c0-0.6-0.3-1-0.9-1
			c-0.6,0-0.9,0.5-0.9,1H253.5z"/>
		<path id="XMLID_268_" class="st0" d="M259.2,2.1h-1.7V0.8h4.9v1.3h-1.7V7h-1.5V2.1z"/>
		<path id="XMLID_266_" class="st0" d="M262.9,2h1.2l0.1,0.7c0.1-0.5,0.5-0.8,1-0.8c0.3,0,0.4,0.1,0.5,0.1v1.3
			c-0.1-0.1-0.3-0.1-0.6-0.1c-0.4,0-0.6,0.2-0.7,0.4V7h-1.5V2z"/>
		<path id="XMLID_263_" class="st0" d="M266,4.5c0-1.8,1.2-2.6,2.4-2.6c1.2,0,2.3,0.5,2.3,2.4v0.6h-3.2c0.1,0.6,0.4,1,1.3,1
			c0.8,0,1.4-0.3,1.6-0.6v1.2c-0.3,0.3-0.9,0.6-1.9,0.6C267,7.1,266,6.3,266,4.5z M269.4,4L269.4,4c0-0.6-0.3-1-0.9-1
			c-0.6,0-0.9,0.5-0.9,1H269.4z"/>
		<path id="XMLID_260_" class="st0" d="M271.3,5.6c0-1,0.7-1.4,2.1-1.6l0.7-0.1c0-0.7-0.3-0.9-1-0.9c-0.7,0-1.4,0.4-1.6,0.9V2.5
			c0.2-0.3,0.8-0.7,1.9-0.7c1.4,0,2.2,0.6,2.2,2.1v3h-1.3l-0.1-0.4c-0.1,0.3-0.5,0.6-1.2,0.6C272,7.1,271.3,6.6,271.3,5.6z
			 M274.2,4.8l-0.6,0.1c-0.7,0.1-0.9,0.3-0.9,0.7c0,0.3,0.2,0.5,0.6,0.5c0.4,0,0.7-0.2,0.9-0.3V4.8z"/>
		<path id="XMLID_258_" class="st0" d="M276.9,5.5V3.1h-0.6V2.6l0.5-0.6l0.9-1.2h0.7V2h1.2v1.2h-1.2v2.3c0,0.4,0.1,0.5,0.4,0.5
			c0.3,0,0.6-0.2,0.7-0.4v1.2c-0.2,0.2-0.5,0.4-1.1,0.4C277.3,7.1,276.9,6.5,276.9,5.5z"/>
		<path id="XMLID_256_" class="st0" d="M280.3,2h1.3l0.1,0.4c0.2-0.3,0.7-0.6,1.3-0.6c0.7,0,1.2,0.2,1.4,0.7
			c0.3-0.3,0.7-0.7,1.5-0.7c1.2,0,1.7,0.7,1.7,2V7h-1.5V4.1c0-0.8-0.2-1.1-0.7-1.1c-0.4,0-0.7,0.2-0.8,0.4c0,0.1,0,0.3,0,0.5V7h-1.5
			V4.1c0-0.8-0.2-1.1-0.7-1.1c-0.4,0-0.6,0.2-0.7,0.4V7h-1.5V2z"/>
		<path id="XMLID_253_" class="st0" d="M288.3,4.5c0-1.8,1.2-2.6,2.4-2.6c1.2,0,2.3,0.5,2.3,2.4v0.6h-3.2c0.1,0.6,0.4,1,1.3,1
			c0.8,0,1.4-0.3,1.6-0.6v1.2c-0.3,0.3-0.9,0.6-1.9,0.6C289.3,7.1,288.3,6.3,288.3,4.5z M291.7,4L291.7,4c0-0.6-0.3-1-0.9-1
			c-0.6,0-0.9,0.5-0.9,1H291.7z"/>
		<path id="XMLID_251_" class="st0" d="M293.9,2h1.3l0.1,0.4c0.2-0.3,0.7-0.6,1.3-0.6c1.3,0,1.8,0.7,1.8,2V7h-1.5V4.1
			c0-0.8-0.2-1.1-0.8-1.1c-0.4,0-0.7,0.2-0.8,0.4V7h-1.5V2z"/>
		<path id="XMLID_249_" class="st0" d="M299.7,5.5V3.1h-0.6V2.6l0.5-0.6l0.9-1.2h0.7V2h1.2v1.2h-1.2v2.3c0,0.4,0.1,0.5,0.4,0.5
			c0.3,0,0.6-0.2,0.7-0.4v1.2c-0.2,0.2-0.5,0.4-1.1,0.4C300.1,7.1,299.7,6.5,299.7,5.5z"/>
		<path id="XMLID_246_" class="st0" d="M305,4.5c0-1.8,1.2-2.6,2.6-2.6c1.5,0,2.5,0.8,2.5,2.6c0,1.9-1.2,2.6-2.6,2.6
			C306,7.1,305,6.3,305,4.5z M308.5,4.5c0-0.9-0.3-1.4-1-1.4c-0.7,0-1,0.6-1,1.4c0,0.9,0.3,1.4,1,1.4C308.2,5.9,308.5,5.3,308.5,4.5
			z"/>
		<path id="XMLID_244_" class="st0" d="M311.1,3.1h-0.6V2.6l0.5-0.5c-0.1-0.2-0.2-0.4-0.2-0.7c0-0.9,0.8-1.4,1.8-1.4
			c0.7,0,1.1,0.2,1.2,0.3v1.2c-0.2-0.3-0.5-0.4-0.9-0.4c-0.4,0-0.6,0.2-0.6,0.5c0,0.2,0.1,0.3,0.1,0.4h1v1.2h-0.9V7h-1.5V3.1z"/>
		<path id="XMLID_242_" class="st0" d="M316.4,0.8h2.1c1.8,0,2.6,0.8,2.6,2.1c0,1.3-0.8,2.3-2.6,2.3h-0.3V4.1h0.3
			c0.7,0,1.1-0.4,1.1-1.1c0-0.7-0.4-1-1.1-1h-0.5v5h-1.5V0.8z"/>
		<path id="XMLID_239_" class="st0" d="M321.5,5.6c0-1,0.7-1.4,2.1-1.6l0.7-0.1c0-0.7-0.3-0.9-1-0.9c-0.7,0-1.4,0.4-1.6,0.9V2.5
			c0.2-0.3,0.8-0.7,1.9-0.7c1.4,0,2.2,0.6,2.2,2.1v3h-1.3l-0.1-0.4c-0.1,0.3-0.5,0.6-1.2,0.6C322.2,7.1,321.5,6.6,321.5,5.6z
			 M324.3,4.8l-0.6,0.1c-0.7,0.1-0.9,0.3-0.9,0.7c0,0.3,0.2,0.5,0.6,0.5c0.4,0,0.7-0.2,0.9-0.3V4.8z"/>
		<path id="XMLID_237_" class="st0" d="M327.1,5.5V3.1h-0.6V2.6L327,2l0.9-1.2h0.7V2h1.2v1.2h-1.2v2.3c0,0.4,0.1,0.5,0.4,0.5
			c0.3,0,0.6-0.2,0.7-0.4v1.2c-0.2,0.2-0.5,0.4-1.1,0.4C327.5,7.1,327.1,6.5,327.1,5.5z"/>
		<path id="XMLID_234_" class="st0" d="M330.5,0.8c0-0.4,0.3-0.7,0.8-0.7c0.5,0,0.8,0.3,0.8,0.7c0,0.4-0.3,0.7-0.8,0.7
			C330.7,1.5,330.5,1.2,330.5,0.8z M330.5,2h1.5v5h-1.5V2z"/>
		<path id="XMLID_231_" class="st0" d="M332.8,4.5c0-1.8,1.2-2.6,2.4-2.6c1.2,0,2.3,0.5,2.3,2.4v0.6h-3.2c0.1,0.6,0.4,1,1.3,1
			c0.8,0,1.4-0.3,1.6-0.6v1.2c-0.3,0.3-0.9,0.6-1.9,0.6C333.7,7.1,332.8,6.3,332.8,4.5z M336.1,4L336.1,4c0-0.6-0.3-1-0.9-1
			c-0.6,0-0.9,0.5-0.9,1H336.1z"/>
		<path id="XMLID_229_" class="st0" d="M338.3,2h1.3l0.1,0.4c0.2-0.3,0.7-0.6,1.3-0.6c1.3,0,1.8,0.7,1.8,2V7h-1.5V4.1
			c0-0.8-0.2-1.1-0.8-1.1c-0.4,0-0.7,0.2-0.8,0.4V7h-1.5V2z"/>
		<path id="XMLID_227_" class="st0" d="M344.1,5.5V3.1h-0.6V2.6L344,2l0.9-1.2h0.7V2h1.2v1.2h-1.2v2.3c0,0.4,0.1,0.5,0.4,0.5
			c0.3,0,0.6-0.2,0.7-0.4v1.2c-0.2,0.2-0.5,0.4-1.1,0.4C344.5,7.1,344.1,6.5,344.1,5.5z"/>
		<path id="XMLID_225_" class="st0" d="M347.4,6.7V5.4c0.3,0.3,0.8,0.6,1.5,0.6c0.6,0,0.8-0.2,0.8-0.5c0-0.3-0.1-0.4-0.7-0.5l-0.3,0
			c-1-0.1-1.5-0.7-1.5-1.5c0-0.9,0.6-1.6,2.1-1.6c0.8,0,1.3,0.2,1.6,0.4v1.3c-0.3-0.4-0.8-0.5-1.5-0.5c-0.6,0-0.8,0.2-0.8,0.4
			s0.1,0.4,0.6,0.5l0.3,0c1.1,0.2,1.6,0.6,1.6,1.5c0,0.9-0.6,1.7-2.2,1.7C348.2,7.1,347.6,6.9,347.4,6.7z"/>
		<path id="XMLID_223_" class="st0" d="M353.6,2h1.5l0.7,2.6l1-2.6h0.5l1,2.6L359,2h1.4L359,7h-0.9L357,4.2L356,7H355L353.6,2z"/>
		<path id="XMLID_220_" class="st0" d="M361,0.8c0-0.4,0.3-0.7,0.8-0.7c0.5,0,0.8,0.3,0.8,0.7c0,0.4-0.3,0.7-0.8,0.7
			C361.3,1.5,361,1.2,361,0.8z M361,2h1.5v5H361V2z"/>
		<path id="XMLID_218_" class="st0" d="M363.8,5.5V3.1h-0.6V2.6l0.5-0.6l0.9-1.2h0.7V2h1.2v1.2h-1.2v2.3c0,0.4,0.1,0.5,0.4,0.5
			c0.3,0,0.6-0.2,0.7-0.4v1.2c-0.2,0.2-0.5,0.4-1.1,0.4C364.2,7.1,363.8,6.5,363.8,5.5z"/>
		<path id="XMLID_216_" class="st0" d="M367.2,0.2h1.5v2.2c0.2-0.3,0.7-0.5,1.3-0.5c1.3,0,1.8,0.7,1.8,2V7h-1.5V4.1
			c0-0.8-0.2-1.1-0.8-1.1c-0.4,0-0.7,0.2-0.8,0.4V7h-1.5V0.2z"/>
		<path id="XMLID_214_" class="st0" d="M374.8,6.7V5.2c0.3,0.4,0.9,0.7,1.6,0.7c0.7,0,1-0.3,1-0.7c0-0.4-0.2-0.5-0.8-0.6l-0.2,0
			c-1-0.2-1.6-0.8-1.6-1.9c0-1.2,0.9-2,2.3-2c0.9,0,1.4,0.2,1.7,0.4v1.5c-0.3-0.4-0.9-0.7-1.7-0.7c-0.6,0-0.9,0.2-0.9,0.6
			c0,0.4,0.1,0.5,0.7,0.7l0.2,0c1,0.2,1.7,0.7,1.7,1.8c0,1.2-0.9,2.1-2.4,2.1C375.5,7.1,375,6.9,374.8,6.7z"/>
		<path id="XMLID_212_" class="st0" d="M379.5,4.5c0-1.8,1.2-2.6,2.5-2.6c0.7,0,1.3,0.2,1.5,0.4v1.3c-0.3-0.4-0.7-0.5-1.3-0.5
			c-0.8,0-1.2,0.5-1.2,1.4c0,0.9,0.4,1.4,1.2,1.4c0.6,0,1-0.2,1.3-0.5v1.3c-0.2,0.2-0.8,0.5-1.5,0.5C380.5,7.1,379.5,6.3,379.5,4.5z
			"/>
		<path id="XMLID_210_" class="st0" d="M384.3,0.2h1.5v2.2c0.2-0.3,0.7-0.5,1.3-0.5c1.3,0,1.8,0.7,1.8,2V7h-1.5V4.1
			c0-0.8-0.2-1.1-0.8-1.1c-0.4,0-0.7,0.2-0.8,0.4V7h-1.5V0.2z"/>
		<path id="XMLID_207_" class="st0" d="M389.8,0.8c0-0.4,0.3-0.7,0.8-0.7c0.5,0,0.8,0.3,0.8,0.7c0,0.4-0.3,0.7-0.8,0.7
			C390.1,1.5,389.8,1.2,389.8,0.8z M389.9,2h1.5v5h-1.5V2z"/>
		<path id="XMLID_205_" class="st0" d="M392.1,6.5l2.1-3.4h-2.1V2h3.9v0.5l-2,3.4h2V7h-3.9V6.5z"/>
		<path id="XMLID_202_" class="st0" d="M396.6,4.5c0-1.8,1.2-2.6,2.6-2.6c1.5,0,2.5,0.8,2.5,2.6c0,1.9-1.2,2.6-2.6,2.6
			C397.6,7.1,396.6,6.3,396.6,4.5z M400.1,4.5c0-0.9-0.3-1.4-1-1.4c-0.7,0-1,0.6-1,1.4c0,0.9,0.3,1.4,1,1.4
			C399.8,5.9,400.1,5.3,400.1,4.5z"/>
		<path id="XMLID_199_" class="st0" d="M402.4,2h1.3l0.1,0.4c0.2-0.3,0.6-0.6,1.3-0.6c1.3,0,2,0.7,2,2.5c0,1.8-1,2.8-2.2,2.8
			c-0.4,0-0.8-0.1-1.1-0.3v1.9h-1.5V2z M405.7,4.4c0-0.9-0.2-1.4-0.9-1.4c-0.4,0-0.7,0.2-0.8,0.4v2.3c0.2,0.2,0.5,0.3,0.8,0.3
			C405.4,6,405.7,5.3,405.7,4.4z"/>
		<path id="XMLID_197_" class="st0" d="M408,0.2h1.5v2.2c0.2-0.3,0.7-0.5,1.3-0.5c1.3,0,1.8,0.7,1.8,2V7H411V4.1
			c0-0.8-0.2-1.1-0.8-1.1c-0.4,0-0.7,0.2-0.8,0.4V7H408V0.2z"/>
		<path id="XMLID_195_" class="st0" d="M413.5,2h1.2l0.1,0.7c0.1-0.5,0.5-0.8,1-0.8c0.3,0,0.4,0.1,0.5,0.1v1.3
			c-0.1-0.1-0.3-0.1-0.6-0.1c-0.4,0-0.6,0.2-0.7,0.4V7h-1.5V2z"/>
		<path id="XMLID_192_" class="st0" d="M416.7,4.5c0-1.8,1.2-2.6,2.4-2.6c1.2,0,2.3,0.5,2.3,2.4v0.6h-3.2c0.1,0.6,0.4,1,1.3,1
			c0.8,0,1.4-0.3,1.6-0.6v1.2c-0.3,0.3-0.9,0.6-1.9,0.6C417.6,7.1,416.7,6.3,416.7,4.5z M420,4L420,4c0-0.6-0.3-1-0.9-1
			c-0.6,0-0.9,0.5-0.9,1H420z"/>
		<path id="XMLID_190_" class="st0" d="M422.2,2h1.3l0.1,0.4c0.2-0.3,0.7-0.6,1.3-0.6c1.3,0,1.8,0.7,1.8,2V7h-1.5V4.1
			c0-0.8-0.2-1.1-0.8-1.1c-0.4,0-0.7,0.2-0.8,0.4V7h-1.5V2z"/>
		<path id="XMLID_187_" class="st0" d="M427.7,0.8c0-0.4,0.3-0.7,0.8-0.7c0.5,0,0.8,0.3,0.8,0.7c0,0.4-0.3,0.7-0.8,0.7
			C428,1.5,427.7,1.2,427.7,0.8z M427.7,2h1.5v5h-1.5V2z"/>
		<path id="XMLID_184_" class="st0" d="M430,5.6c0-1,0.7-1.4,2.1-1.6l0.7-0.1c0-0.7-0.3-0.9-1-0.9c-0.7,0-1.4,0.4-1.6,0.9V2.5
			c0.2-0.3,0.8-0.7,1.9-0.7c1.4,0,2.2,0.6,2.2,2.1v3H433l-0.1-0.4c-0.1,0.3-0.5,0.6-1.2,0.6C430.7,7.1,430,6.6,430,5.6z M432.8,4.8
			l-0.6,0.1c-0.7,0.1-0.9,0.3-0.9,0.7c0,0.3,0.2,0.5,0.6,0.5c0.4,0,0.7-0.2,0.9-0.3V4.8z"/>
		<path id="XMLID_181_" class="st0" d="M437.5,0.8h2c2.1,0,3.3,0.8,3.3,3.1c0,2.3-1.5,3.1-3.3,3.1h-2V0.8z M439.5,5.7
			c1.4,0,1.8-0.5,1.8-1.8s-0.4-1.9-1.8-1.9h-0.5v3.7H439.5z"/>
		<path id="XMLID_178_" class="st0" d="M443.7,0.8c0-0.4,0.3-0.7,0.8-0.7c0.5,0,0.8,0.3,0.8,0.7c0,0.4-0.3,0.7-0.8,0.7
			C444,1.5,443.7,1.2,443.7,0.8z M443.7,2h1.5v5h-1.5V2z"/>
		<path id="XMLID_176_" class="st0" d="M446.1,6.7V5.4c0.3,0.3,0.8,0.6,1.5,0.6c0.6,0,0.8-0.2,0.8-0.5c0-0.3-0.1-0.4-0.7-0.5l-0.3,0
			c-1-0.1-1.5-0.7-1.5-1.5c0-0.9,0.6-1.6,2.1-1.6c0.8,0,1.3,0.2,1.6,0.4v1.3c-0.3-0.4-0.8-0.5-1.5-0.5c-0.6,0-0.8,0.2-0.8,0.4
			s0.1,0.4,0.6,0.5l0.3,0c1.1,0.2,1.6,0.6,1.6,1.5c0,0.9-0.6,1.7-2.2,1.7C446.9,7.1,446.4,6.9,446.1,6.7z"/>
		<path id="XMLID_173_" class="st0" d="M450.4,4.5c0-1.8,1.2-2.6,2.6-2.6c1.5,0,2.5,0.8,2.5,2.6c0,1.9-1.2,2.6-2.6,2.6
			C451.4,7.1,450.4,6.3,450.4,4.5z M453.9,4.5c0-0.9-0.3-1.4-1-1.4c-0.7,0-1,0.6-1,1.4c0,0.9,0.3,1.4,1,1.4
			C453.6,5.9,453.9,5.3,453.9,4.5z"/>
		<path id="XMLID_171_" class="st0" d="M456.2,2h1.2l0.1,0.7c0.1-0.5,0.5-0.8,1-0.8c0.3,0,0.4,0.1,0.5,0.1v1.3
			c-0.1-0.1-0.3-0.1-0.6-0.1c-0.4,0-0.6,0.2-0.7,0.4V7h-1.5V2z"/>
		<path id="XMLID_168_" class="st0" d="M459.3,4.5c0-1.8,0.9-2.7,2.2-2.7c0.4,0,0.8,0.1,1.1,0.3v-2h1.5V7h-1.3l-0.1-0.4
			c-0.2,0.3-0.6,0.6-1.3,0.6C460.2,7.1,459.3,6.3,459.3,4.5z M462.6,3.3c-0.2-0.2-0.5-0.3-0.8-0.3c-0.7,0-1,0.7-1,1.6
			s0.2,1.4,0.9,1.4c0.4,0,0.7-0.2,0.8-0.4V3.3z"/>
		<path id="XMLID_165_" class="st0" d="M464.9,4.5c0-1.8,1.2-2.6,2.4-2.6c1.2,0,2.3,0.5,2.3,2.4v0.6h-3.2c0.1,0.6,0.4,1,1.3,1
			c0.8,0,1.4-0.3,1.6-0.6v1.2c-0.3,0.3-0.9,0.6-1.9,0.6C465.9,7.1,464.9,6.3,464.9,4.5z M468.2,4L468.2,4c0-0.6-0.3-1-0.9-1
			c-0.6,0-0.9,0.5-0.9,1H468.2z"/>
		<path id="XMLID_163_" class="st0" d="M470.4,2h1.2l0.1,0.7c0.1-0.5,0.5-0.8,1-0.8c0.3,0,0.4,0.1,0.5,0.1v1.3
			c-0.1-0.1-0.3-0.1-0.6-0.1c-0.4,0-0.6,0.2-0.7,0.4V7h-1.5V2z"/>
		<path id="XMLID_161_" class="st0" d="M473.4,6.2c0-0.5,0.4-0.9,0.9-0.9c0.5,0,0.9,0.4,0.9,0.9c0,0.5-0.4,0.9-0.9,0.9
			C473.7,7.1,473.4,6.7,473.4,6.2z"/>
		<path id="XMLID_159_" class="st0" d="M0.4,17.5V16c0.3,0.4,0.9,0.7,1.6,0.7c0.7,0,1-0.3,1-0.7c0-0.4-0.2-0.5-0.8-0.6l-0.2,0
			c-1-0.2-1.6-0.8-1.6-1.9c0-1.2,0.9-2,2.3-2c0.9,0,1.4,0.2,1.7,0.4v1.5C4,13,3.4,12.7,2.7,12.7c-0.6,0-0.9,0.2-0.9,0.6
			c0,0.4,0.1,0.5,0.7,0.7l0.2,0c1,0.2,1.7,0.7,1.7,1.8c0,1.2-0.9,2.1-2.4,2.1C1.1,17.9,0.6,17.7,0.4,17.5z"/>
		<path id="XMLID_156_" class="st0" d="M5.1,15.3c0-1.8,1.2-2.6,2.4-2.6c1.2,0,2.3,0.5,2.3,2.4v0.6H6.6c0.1,0.6,0.4,1,1.3,1
			c0.8,0,1.4-0.3,1.6-0.6v1.2c-0.3,0.3-0.9,0.6-1.9,0.6C6.1,17.9,5.1,17.1,5.1,15.3z M8.4,14.8L8.4,14.8c0-0.6-0.3-1-0.9-1
			c-0.6,0-0.9,0.5-0.9,1H8.4z"/>
		<path id="XMLID_154_" class="st0" d="M10.4,15.3c0-1.8,1.2-2.6,2.5-2.6c0.7,0,1.3,0.2,1.5,0.4v1.3c-0.3-0.4-0.7-0.5-1.3-0.5
			c-0.8,0-1.2,0.5-1.2,1.4c0,0.9,0.4,1.4,1.2,1.4c0.6,0,1-0.2,1.3-0.5v1.3c-0.2,0.2-0.8,0.5-1.5,0.5C11.4,17.9,10.4,17.1,10.4,15.3z
			"/>
		<path id="XMLID_151_" class="st0" d="M15,15.3c0-1.8,1.2-2.6,2.6-2.6c1.5,0,2.5,0.8,2.5,2.6c0,1.9-1.2,2.6-2.6,2.6
			C16,17.9,15,17.1,15,15.3z M18.5,15.3c0-0.9-0.3-1.4-1-1.4c-0.7,0-1,0.6-1,1.4c0,0.9,0.3,1.4,1,1.4C18.2,16.7,18.5,16.1,18.5,15.3
			z"/>
		<path id="XMLID_149_" class="st0" d="M20.8,12.8h1.3l0.1,0.4c0.2-0.3,0.7-0.6,1.3-0.6c1.3,0,1.8,0.7,1.8,2v3.1h-1.5v-2.9
			c0-0.8-0.2-1.1-0.8-1.1c-0.4,0-0.7,0.2-0.8,0.4v3.6h-1.5V12.8z"/>
		<path id="XMLID_146_" class="st0" d="M26.1,15.3c0-1.8,0.9-2.7,2.2-2.7c0.4,0,0.8,0.1,1.1,0.3v-2h1.5v6.8h-1.3l-0.1-0.4
			c-0.2,0.3-0.6,0.6-1.3,0.6C27,17.9,26.1,17.1,26.1,15.3z M29.4,14.1c-0.2-0.2-0.5-0.3-0.8-0.3c-0.7,0-1,0.7-1,1.6s0.2,1.4,0.9,1.4
			c0.4,0,0.7-0.2,0.8-0.4V14.1z"/>
		<path id="XMLID_144_" class="st0" d="M34.2,11.6h4.2v1.2h-2.7V14h1.7v1.2h-1.7v1.3h2.7v1.2h-4.2V11.6z"/>
		<path id="XMLID_141_" class="st0" d="M38.9,15.3c0-1.8,0.9-2.7,2.2-2.7c0.4,0,0.8,0.1,1.1,0.3v-2h1.5v6.8h-1.3l-0.1-0.4
			c-0.2,0.3-0.6,0.6-1.3,0.6C39.7,17.9,38.9,17.1,38.9,15.3z M42.1,14.1c-0.2-0.2-0.5-0.3-0.8-0.3c-0.7,0-1,0.7-1,1.6
			s0.2,1.4,0.9,1.4c0.4,0,0.7-0.2,0.8-0.4V14.1z"/>
		<path id="XMLID_138_" class="st0" d="M44.6,11.6c0-0.4,0.3-0.7,0.8-0.7c0.5,0,0.8,0.3,0.8,0.7c0,0.4-0.3,0.7-0.8,0.7
			C44.9,12.3,44.6,12,44.6,11.6z M44.7,12.8h1.5v5h-1.5V12.8z"/>
		<path id="XMLID_136_" class="st0" d="M47.4,16.3v-2.4h-0.6v-0.5l0.5-0.6l0.9-1.2h0.7v1.2h1.2v1.2h-1.2v2.3c0,0.4,0.1,0.5,0.4,0.5
			c0.3,0,0.6-0.2,0.7-0.4v1.2c-0.2,0.2-0.5,0.4-1.1,0.4C47.9,17.9,47.4,17.3,47.4,16.3z"/>
		<path id="XMLID_133_" class="st0" d="M50.8,11.6c0-0.4,0.3-0.7,0.8-0.7c0.5,0,0.8,0.3,0.8,0.7c0,0.4-0.3,0.7-0.8,0.7
			C51.1,12.3,50.8,12,50.8,11.6z M50.9,12.8h1.5v5h-1.5V12.8z"/>
		<path id="XMLID_130_" class="st0" d="M53.1,15.3c0-1.8,1.2-2.6,2.6-2.6c1.5,0,2.5,0.8,2.5,2.6c0,1.9-1.2,2.6-2.6,2.6
			C54.1,17.9,53.1,17.1,53.1,15.3z M56.7,15.3c0-0.9-0.3-1.4-1-1.4c-0.7,0-1,0.6-1,1.4c0,0.9,0.3,1.4,1,1.4
			C56.3,16.7,56.7,16.1,56.7,15.3z"/>
		<path id="XMLID_128_" class="st0" d="M59,12.8h1.3l0.1,0.4c0.2-0.3,0.7-0.6,1.3-0.6c1.3,0,1.8,0.7,1.8,2v3.1H62v-2.9
			c0-0.8-0.2-1.1-0.8-1.1c-0.4,0-0.7,0.2-0.8,0.4v3.6H59V12.8z"/>
		<path id="XMLID_126_" class="st0" d="M64.3,17c0-0.5,0.4-0.9,0.9-0.9c0.5,0,0.9,0.4,0.9,0.9c0,0.5-0.4,0.9-0.9,0.9
			C64.7,17.9,64.3,17.5,64.3,17z"/>
		<path id="XMLID_124_" class="st0" d="M68.7,11.6h1.6l1,3.9h0.1l0.9-3l-0.3-0.9h1.5l1.2,3.9h0l1-3.9h1.5l-1.9,6.2H74l-1.1-3.5
			l-1.1,3.5h-1.2L68.7,11.6z"/>
		<path id="XMLID_121_" class="st0" d="M77.2,16.4c0-1,0.7-1.4,2.1-1.6l0.7-0.1c0-0.7-0.3-0.9-1-0.9c-0.7,0-1.4,0.4-1.6,0.9v-1.4
			c0.2-0.3,0.8-0.7,1.9-0.7c1.4,0,2.2,0.6,2.2,2.1v3h-1.3l-0.1-0.4c-0.1,0.3-0.5,0.6-1.2,0.6C77.9,17.9,77.2,17.4,77.2,16.4z
			 M80.1,15.6l-0.6,0.1c-0.7,0.1-0.9,0.3-0.9,0.7c0,0.3,0.2,0.5,0.6,0.5c0.4,0,0.7-0.2,0.9-0.3V15.6z"/>
		<path id="XMLID_119_" class="st0" d="M82.4,17.5v-1.3c0.3,0.3,0.8,0.6,1.5,0.6c0.6,0,0.8-0.2,0.8-0.5c0-0.3-0.1-0.4-0.7-0.5
			l-0.3,0c-1-0.1-1.5-0.7-1.5-1.5c0-0.9,0.6-1.6,2.1-1.6c0.8,0,1.3,0.2,1.6,0.4v1.3c-0.3-0.4-0.8-0.5-1.5-0.5
			c-0.6,0-0.8,0.2-0.8,0.4s0.1,0.4,0.6,0.5l0.3,0c1.1,0.2,1.6,0.6,1.6,1.5c0,0.9-0.6,1.7-2.2,1.7C83.2,17.9,82.7,17.7,82.4,17.5z"/>
		<path id="XMLID_117_" class="st0" d="M86.9,11h1.5v2.2c0.2-0.3,0.7-0.5,1.3-0.5c1.3,0,1.8,0.7,1.8,2v3.1H90v-2.9
			c0-0.8-0.2-1.1-0.8-1.1c-0.4,0-0.7,0.2-0.8,0.4v3.6h-1.5V11z"/>
		<path id="XMLID_114_" class="st0" d="M92.4,11.6c0-0.4,0.3-0.7,0.8-0.7c0.5,0,0.8,0.3,0.8,0.7c0,0.4-0.3,0.7-0.8,0.7
			C92.7,12.3,92.4,12,92.4,11.6z M92.4,12.8h1.5v5h-1.5V12.8z"/>
		<path id="XMLID_112_" class="st0" d="M95,12.8h1.3l0.1,0.4c0.2-0.3,0.7-0.6,1.3-0.6c1.3,0,1.8,0.7,1.8,2v3.1H98v-2.9
			c0-0.8-0.2-1.1-0.8-1.1c-0.4,0-0.7,0.2-0.8,0.4v3.6H95V12.8z"/>
		<path id="XMLID_109_" class="st0" d="M100.3,19.2v-1.1c0.5,0.3,1.1,0.5,2.1,0.5c1.2,0,1.7-0.1,1.7-0.5c0-0.3-0.3-0.4-1-0.4
			c-0.7,0-1.9,0.2-2.2,0.3v-1l0.7-1c-0.7-0.2-1.2-0.8-1.2-1.6c0-1.1,0.9-1.8,2.2-1.8c0.6,0,1.1,0.1,1.4,0.4c0.2-0.3,0.5-0.4,1-0.4
			c0.1,0,0.3,0,0.4,0.1v1.1c-0.1-0.1-0.2-0.1-0.3-0.1c-0.2,0-0.3,0.1-0.4,0.1c0.1,0.2,0.1,0.4,0.1,0.6c0,1.1-0.9,1.7-2.2,1.7h-0.1
			l-0.4,0.6c0.2-0.1,0.8-0.1,1.3-0.1c1.3,0,2.1,0.3,2.1,1.4c0,1.1-1,1.7-2.9,1.7C101.5,19.7,100.7,19.5,100.3,19.2z M103.3,14.4
			c0-0.4-0.3-0.7-0.8-0.7c-0.5,0-0.8,0.2-0.8,0.7c0,0.4,0.3,0.7,0.8,0.7C103,15,103.3,14.8,103.3,14.4z"/>
		<path id="XMLID_107_" class="st0" d="M106.2,16.3v-2.4h-0.6v-0.5l0.5-0.6l0.9-1.2h0.7v1.2h1.2v1.2h-1.2v2.3c0,0.4,0.1,0.5,0.4,0.5
			c0.3,0,0.6-0.2,0.7-0.4v1.2c-0.2,0.2-0.5,0.4-1.1,0.4C106.6,17.9,106.2,17.3,106.2,16.3z"/>
		<path id="XMLID_104_" class="st0" d="M109.4,15.3c0-1.8,1.2-2.6,2.6-2.6c1.5,0,2.5,0.8,2.5,2.6c0,1.9-1.2,2.6-2.6,2.6
			C110.4,17.9,109.4,17.1,109.4,15.3z M112.9,15.3c0-0.9-0.3-1.4-1-1.4c-0.7,0-1,0.6-1,1.4c0,0.9,0.3,1.4,1,1.4
			C112.6,16.7,112.9,16.1,112.9,15.3z"/>
		<path id="XMLID_102_" class="st0" d="M115.2,12.8h1.3l0.1,0.4c0.2-0.3,0.7-0.6,1.3-0.6c1.3,0,1.8,0.7,1.8,2v3.1h-1.5v-2.9
			c0-0.8-0.2-1.1-0.8-1.1c-0.4,0-0.7,0.2-0.8,0.4v3.6h-1.5V12.8z"/>
		<path id="XMLID_100_" class="st0" d="M120.6,19.1c0.2-0.3,0.4-0.9,0.5-1.3c-0.3-0.1-0.5-0.5-0.5-0.8c0-0.5,0.4-0.9,0.9-0.9
			c0.5,0,0.9,0.4,0.9,1c0,0.9-0.7,1.8-1.1,2.1L120.6,19.1z"/>
		<path id="XMLID_97_" class="st0" d="M125.5,11.6h2c2.1,0,3.3,0.8,3.3,3.1c0,2.3-1.5,3.1-3.3,3.1h-2V11.6z M127.4,16.5
			c1.4,0,1.8-0.5,1.8-1.8s-0.4-1.9-1.8-1.9H127v3.7H127.4z"/>
		<path id="XMLID_95_" class="st0" d="M131.4,14.7c0-2.1,1.3-3.2,3-3.2c1,0,1.5,0.3,1.8,0.5v1.5c-0.3-0.5-0.8-0.7-1.6-0.7
			c-1.1,0-1.6,0.7-1.6,1.9c0,1.2,0.6,2,1.6,2c0.7,0,1.3-0.2,1.6-0.7v1.4c-0.3,0.3-1,0.6-1.8,0.6C132.5,17.9,131.4,16.8,131.4,14.7z"
			/>
		<path id="XMLID_92_" class="st0" d="M137,13.8c0-0.5,0.4-0.9,0.9-0.9c0.5,0,0.9,0.4,0.9,0.9c0,0.5-0.4,0.9-0.9,0.9
			C137.3,14.6,137,14.3,137,13.8z M137,17c0-0.5,0.4-0.9,0.9-0.9c0.5,0,0.9,0.4,0.9,0.9c0,0.5-0.4,0.9-0.9,0.9
			C137.3,17.9,137,17.6,137,17z"/>
		<path id="XMLID_89_" class="st0" d="M143.6,12.2l-0.2-0.6h1.6c0.2,0.5,2.2,5.6,2.5,6.2h-1.6l-0.4-1.1h-2.2l-0.4,1.1h-1.5
			L143.6,12.2z M143.6,15.6h1.4l-0.5-1.4l-0.2-0.5l-0.2,0.5L143.6,15.6z"/>
		<path id="XMLID_87_" class="st0" d="M147.9,12.8h1.3l0.1,0.4c0.2-0.3,0.7-0.6,1.3-0.6c0.7,0,1.2,0.2,1.4,0.7
			c0.3-0.3,0.7-0.7,1.5-0.7c1.2,0,1.7,0.7,1.7,2v3.1h-1.5v-2.9c0-0.8-0.2-1.1-0.7-1.1c-0.4,0-0.7,0.2-0.8,0.4c0,0.1,0,0.3,0,0.5v3.1
			h-1.5v-2.9c0-0.8-0.2-1.1-0.7-1.1c-0.4,0-0.6,0.2-0.7,0.4v3.6h-1.5V12.8z"/>
		<path id="XMLID_84_" class="st0" d="M155.9,15.3c0-1.8,1.2-2.6,2.4-2.6c1.2,0,2.3,0.5,2.3,2.4v0.6h-3.2c0.1,0.6,0.4,1,1.3,1
			c0.8,0,1.4-0.3,1.6-0.6v1.2c-0.3,0.3-0.9,0.6-1.9,0.6C156.9,17.9,155.9,17.1,155.9,15.3z M159.3,14.8L159.3,14.8
			c0-0.6-0.3-1-0.9-1c-0.6,0-0.9,0.5-0.9,1H159.3z"/>
		<path id="XMLID_82_" class="st0" d="M161.5,12.8h1.2l0.1,0.7c0.1-0.5,0.5-0.8,1-0.8c0.3,0,0.4,0.1,0.5,0.1v1.3
			c-0.1-0.1-0.3-0.1-0.6-0.1c-0.4,0-0.6,0.2-0.7,0.4v3.4h-1.5V12.8z"/>
		<path id="XMLID_79_" class="st0" d="M164.9,11.6c0-0.4,0.3-0.7,0.8-0.7c0.5,0,0.8,0.3,0.8,0.7c0,0.4-0.3,0.7-0.8,0.7
			C165.2,12.3,164.9,12,164.9,11.6z M164.9,12.8h1.5v5h-1.5V12.8z"/>
		<path id="XMLID_77_" class="st0" d="M167.2,15.3c0-1.8,1.2-2.6,2.5-2.6c0.7,0,1.3,0.2,1.5,0.4v1.3c-0.3-0.4-0.7-0.5-1.3-0.5
			c-0.8,0-1.2,0.5-1.2,1.4c0,0.9,0.4,1.4,1.2,1.4c0.6,0,1-0.2,1.3-0.5v1.3c-0.2,0.2-0.8,0.5-1.5,0.5
			C168.2,17.9,167.2,17.1,167.2,15.3z"/>
		<path id="XMLID_74_" class="st0" d="M171.8,16.4c0-1,0.7-1.4,2.1-1.6l0.7-0.1c0-0.7-0.3-0.9-1-0.9c-0.7,0-1.4,0.4-1.6,0.9v-1.4
			c0.2-0.3,0.8-0.7,1.9-0.7c1.4,0,2.2,0.6,2.2,2.1v3h-1.3l-0.1-0.4c-0.1,0.3-0.5,0.6-1.2,0.6C172.5,17.9,171.8,17.4,171.8,16.4z
			 M174.6,15.6l-0.6,0.1c-0.7,0.1-0.9,0.3-0.9,0.7c0,0.3,0.2,0.5,0.6,0.5c0.4,0,0.7-0.2,0.9-0.3V15.6z"/>
		<path id="XMLID_72_" class="st0" d="M177.1,12.8h1.3l0.1,0.4c0.2-0.3,0.7-0.6,1.3-0.6c1.3,0,1.8,0.7,1.8,2v3.1h-1.5v-2.9
			c0-0.8-0.2-1.1-0.8-1.1c-0.4,0-0.7,0.2-0.8,0.4v3.6h-1.5V12.8z"/>
		<path id="XMLID_70_" class="st0" d="M184.9,11.6h2.1c1.8,0,2.6,0.8,2.6,2.1c0,1.3-0.8,2.3-2.6,2.3h-0.3v-1.1h0.3
			c0.7,0,1.1-0.4,1.1-1.1c0-0.7-0.4-1-1.1-1h-0.5v5h-1.5V11.6z"/>
		<path id="XMLID_68_" class="st0" d="M190.1,17.5v-1.3c0.3,0.3,0.8,0.6,1.5,0.6c0.6,0,0.8-0.2,0.8-0.5c0-0.3-0.1-0.4-0.7-0.5
			l-0.3,0c-1-0.1-1.5-0.7-1.5-1.5c0-0.9,0.6-1.6,2.1-1.6c0.8,0,1.3,0.2,1.6,0.4v1.3c-0.3-0.4-0.8-0.5-1.5-0.5
			c-0.6,0-0.8,0.2-0.8,0.4s0.1,0.4,0.6,0.5l0.3,0c1.1,0.2,1.6,0.6,1.6,1.5c0,0.9-0.6,1.7-2.2,1.7C190.9,17.9,190.4,17.7,190.1,17.5z
			"/>
		<path id="XMLID_66_" class="st0" d="M194.4,19.4v-1.2c0.2,0.2,0.5,0.4,0.9,0.4c0.3,0,0.6-0.1,0.9-0.7l-2-5.1h1.6l1,3.3l0.9-3.3
			h1.4l-1.4,4.7c-0.4,1.2-1,2.2-2.3,2.2C194.9,19.7,194.5,19.5,194.4,19.4z"/>
		<path id="XMLID_64_" class="st0" d="M199.3,15.3c0-1.8,1.2-2.6,2.5-2.6c0.7,0,1.3,0.2,1.5,0.4v1.3c-0.3-0.4-0.7-0.5-1.3-0.5
			c-0.8,0-1.2,0.5-1.2,1.4c0,0.9,0.4,1.4,1.2,1.4c0.6,0,1-0.2,1.3-0.5v1.3c-0.2,0.2-0.8,0.5-1.5,0.5
			C200.3,17.9,199.3,17.1,199.3,15.3z"/>
		<path id="XMLID_62_" class="st0" d="M204.1,11h1.5v2.2c0.2-0.3,0.7-0.5,1.3-0.5c1.3,0,1.8,0.7,1.8,2v3.1h-1.5v-2.9
			c0-0.8-0.2-1.1-0.8-1.1c-0.4,0-0.7,0.2-0.8,0.4v3.6h-1.5V11z"/>
		<path id="XMLID_59_" class="st0" d="M209.7,11.6c0-0.4,0.3-0.7,0.8-0.7c0.5,0,0.8,0.3,0.8,0.7c0,0.4-0.3,0.7-0.8,0.7
			C209.9,12.3,209.7,12,209.7,11.6z M209.7,12.8h1.5v5h-1.5V12.8z"/>
		<path id="XMLID_56_" class="st0" d="M212,16.4c0-1,0.7-1.4,2.1-1.6l0.7-0.1c0-0.7-0.3-0.9-1-0.9c-0.7,0-1.4,0.4-1.6,0.9v-1.4
			c0.2-0.3,0.8-0.7,1.9-0.7c1.4,0,2.2,0.6,2.2,2.1v3H215l-0.1-0.4c-0.1,0.3-0.5,0.6-1.2,0.6C212.7,17.9,212,17.4,212,16.4z
			 M214.8,15.6l-0.6,0.1c-0.7,0.1-0.9,0.3-0.9,0.7c0,0.3,0.2,0.5,0.6,0.5c0.4,0,0.7-0.2,0.9-0.3V15.6z"/>
		<path id="XMLID_54_" class="st0" d="M217.5,16.3v-2.4h-0.6v-0.5l0.5-0.6l0.9-1.2h0.7v1.2h1.2v1.2H219v2.3c0,0.4,0.1,0.5,0.4,0.5
			c0.3,0,0.6-0.2,0.7-0.4v1.2c-0.2,0.2-0.5,0.4-1.1,0.4C217.9,17.9,217.5,17.3,217.5,16.3z"/>
		<path id="XMLID_52_" class="st0" d="M220.9,12.8h1.2l0.1,0.7c0.1-0.5,0.5-0.8,1-0.8c0.3,0,0.4,0.1,0.5,0.1v1.3
			c-0.1-0.1-0.3-0.1-0.6-0.1c-0.4,0-0.6,0.2-0.7,0.4v3.4h-1.5V12.8z"/>
		<path id="XMLID_49_" class="st0" d="M224.4,11.6c0-0.4,0.3-0.7,0.8-0.7c0.5,0,0.8,0.3,0.8,0.7c0,0.4-0.3,0.7-0.8,0.7
			C224.6,12.3,224.4,12,224.4,11.6z M224.4,12.8h1.5v5h-1.5V12.8z"/>
		<path id="XMLID_47_" class="st0" d="M226.7,15.3c0-1.8,1.2-2.6,2.5-2.6c0.7,0,1.3,0.2,1.5,0.4v1.3c-0.3-0.4-0.7-0.5-1.3-0.5
			c-0.8,0-1.2,0.5-1.2,1.4c0,0.9,0.4,1.4,1.2,1.4c0.6,0,1-0.2,1.3-0.5v1.3c-0.2,0.2-0.8,0.5-1.5,0.5
			C227.7,17.9,226.7,17.1,226.7,15.3z"/>
		<path id="XMLID_44_" class="st0" d="M235.4,12.2l-0.2-0.6h1.6c0.2,0.5,2.2,5.6,2.5,6.2h-1.6l-0.4-1.1H235l-0.4,1.1h-1.5
			L235.4,12.2z M235.4,15.6h1.4l-0.5-1.4l-0.2-0.5l-0.2,0.5L235.4,15.6z"/>
		<path id="XMLID_42_" class="st0" d="M239.6,17.5v-1.3c0.3,0.3,0.8,0.6,1.5,0.6c0.6,0,0.8-0.2,0.8-0.5c0-0.3-0.1-0.4-0.7-0.5
			l-0.3,0c-1-0.1-1.5-0.7-1.5-1.5c0-0.9,0.6-1.6,2.1-1.6c0.8,0,1.3,0.2,1.6,0.4v1.3c-0.3-0.4-0.8-0.5-1.5-0.5
			c-0.6,0-0.8,0.2-0.8,0.4s0.1,0.4,0.6,0.5l0.3,0c1.1,0.2,1.6,0.6,1.6,1.5c0,0.9-0.6,1.7-2.2,1.7C240.4,17.9,239.9,17.7,239.6,17.5z
			"/>
		<path id="XMLID_40_" class="st0" d="M244,17.5v-1.3c0.3,0.3,0.8,0.6,1.5,0.6c0.6,0,0.8-0.2,0.8-0.5c0-0.3-0.1-0.4-0.7-0.5l-0.3,0
			c-1-0.1-1.5-0.7-1.5-1.5c0-0.9,0.6-1.6,2.1-1.6c0.8,0,1.3,0.2,1.6,0.4v1.3c-0.3-0.4-0.8-0.5-1.5-0.5c-0.6,0-0.8,0.2-0.8,0.4
			s0.1,0.4,0.6,0.5l0.3,0c1.1,0.2,1.6,0.6,1.6,1.5c0,0.9-0.6,1.7-2.2,1.7C244.8,17.9,244.3,17.7,244,17.5z"/>
		<path id="XMLID_37_" class="st0" d="M248.2,15.3c0-1.8,1.2-2.6,2.6-2.6c1.5,0,2.5,0.8,2.5,2.6c0,1.9-1.2,2.6-2.6,2.6
			C249.3,17.9,248.2,17.1,248.2,15.3z M251.8,15.3c0-0.9-0.3-1.4-1-1.4c-0.7,0-1,0.6-1,1.4c0,0.9,0.3,1.4,1,1.4
			C251.5,16.7,251.8,16.1,251.8,15.3z"/>
		<path id="XMLID_35_" class="st0" d="M253.8,15.3c0-1.8,1.2-2.6,2.5-2.6c0.7,0,1.3,0.2,1.5,0.4v1.3c-0.3-0.4-0.7-0.5-1.3-0.5
			c-0.8,0-1.2,0.5-1.2,1.4c0,0.9,0.4,1.4,1.2,1.4c0.6,0,1-0.2,1.3-0.5v1.3c-0.2,0.2-0.8,0.5-1.5,0.5
			C254.8,17.9,253.8,17.1,253.8,15.3z"/>
		<path id="XMLID_32_" class="st0" d="M258.7,11.6c0-0.4,0.3-0.7,0.8-0.7c0.5,0,0.8,0.3,0.8,0.7c0,0.4-0.3,0.7-0.8,0.7
			C258.9,12.3,258.7,12,258.7,11.6z M258.7,12.8h1.5v5h-1.5V12.8z"/>
		<path id="XMLID_29_" class="st0" d="M260.9,16.4c0-1,0.7-1.4,2.1-1.6l0.7-0.1c0-0.7-0.3-0.9-1-0.9c-0.7,0-1.4,0.4-1.6,0.9v-1.4
			c0.2-0.3,0.8-0.7,1.9-0.7c1.4,0,2.2,0.6,2.2,2.1v3H264l-0.1-0.4c-0.1,0.3-0.5,0.6-1.2,0.6C261.7,17.9,260.9,17.4,260.9,16.4z
			 M263.8,15.6l-0.6,0.1c-0.7,0.1-0.9,0.3-0.9,0.7c0,0.3,0.2,0.5,0.6,0.5c0.4,0,0.7-0.2,0.9-0.3V15.6z"/>
		<path id="XMLID_27_" class="st0" d="M266.5,16.3v-2.4h-0.6v-0.5l0.5-0.6l0.9-1.2h0.7v1.2h1.2v1.2H268v2.3c0,0.4,0.1,0.5,0.4,0.5
			c0.3,0,0.6-0.2,0.7-0.4v1.2c-0.2,0.2-0.5,0.4-1.1,0.4C266.9,17.9,266.5,17.3,266.5,16.3z"/>
		<path id="XMLID_24_" class="st0" d="M269.9,11.6c0-0.4,0.3-0.7,0.8-0.7c0.5,0,0.8,0.3,0.8,0.7c0,0.4-0.3,0.7-0.8,0.7
			C270.2,12.3,269.9,12,269.9,11.6z M269.9,12.8h1.5v5h-1.5V12.8z"/>
		<path id="XMLID_21_" class="st0" d="M272.2,15.3c0-1.8,1.2-2.6,2.6-2.6c1.5,0,2.5,0.8,2.5,2.6c0,1.9-1.2,2.6-2.6,2.6
			C273.2,17.9,272.2,17.1,272.2,15.3z M275.7,15.3c0-0.9-0.3-1.4-1-1.4c-0.7,0-1,0.6-1,1.4c0,0.9,0.3,1.4,1,1.4
			C275.4,16.7,275.7,16.1,275.7,15.3z"/>
		<path id="XMLID_19_" class="st0" d="M278,12.8h1.3l0.1,0.4c0.2-0.3,0.7-0.6,1.3-0.6c1.3,0,1.8,0.7,1.8,2v3.1h-1.5v-2.9
			c0-0.8-0.2-1.1-0.8-1.1c-0.4,0-0.7,0.2-0.8,0.4v3.6H278V12.8z"/>
		<path id="XMLID_16_" class="st0" d="M283.5,19.1c0.2-0.3,0.4-0.8,0.5-1.3c-0.3-0.1-0.5-0.4-0.5-0.8c0-0.5,0.4-0.9,0.9-0.9
			c0.5,0,0.8,0.4,0.8,0.9c0,0.8-0.7,1.8-1.1,2.1L283.5,19.1z M283.6,13.8c0-0.5,0.4-0.9,0.9-0.9c0.5,0,0.9,0.4,0.9,0.9
			c0,0.5-0.4,0.9-0.9,0.9C283.9,14.6,283.6,14.3,283.6,13.8z"/>
		<path id="XMLID_14_" class="st0" d="M288.3,17.4l1.8-2.3c0.4-0.4,0.7-0.9,0.7-1.5c0-0.6-0.3-0.9-1-0.9c-0.6,0-1.2,0.3-1.5,0.7
			v-1.3c0.3-0.3,0.9-0.6,1.8-0.6c1.5,0,2.2,0.7,2.2,2c0,1-0.6,1.8-1.2,2.4l-0.5,0.6h1.8v1.3h-4V17.4z"/>
		<path id="XMLID_11_" class="st0" d="M292.9,14.7c0-2.1,1.5-3.2,3.2-3.2c1.9,0,3.1,1.1,3.1,3.2c0,2.1-1.4,3.2-3.1,3.2
			C294.1,17.9,292.9,16.7,292.9,14.7z M297.6,14.7c0-1.3-0.7-2-1.6-2s-1.6,0.7-1.6,2c0,1.3,0.7,2,1.6,2S297.6,16,297.6,14.7z"/>
		<path id="XMLID_8_" class="st0" d="M299.8,14.7c0-2.1,1.5-3.2,3.2-3.2c1.9,0,3.1,1.1,3.1,3.2c0,2.1-1.4,3.2-3.1,3.2
			C301,17.9,299.8,16.7,299.8,14.7z M304.5,14.7c0-1.3-0.7-2-1.6-2s-1.6,0.7-1.6,2c0,1.3,0.7,2,1.6,2S304.5,16,304.5,14.7z"/>
		<path id="XMLID_6_" class="st0" d="M306.8,17.4l1.8-2.3c0.4-0.4,0.7-0.9,0.7-1.5c0-0.6-0.3-0.9-1-0.9c-0.6,0-1.2,0.3-1.5,0.7v-1.3
			c0.3-0.3,0.9-0.6,1.8-0.6c1.5,0,2.2,0.7,2.2,2c0,1-0.6,1.8-1.2,2.4l-0.5,0.6h1.8v1.3h-4V17.4z"/>
		<path id="XMLID_4_" class="st0" d="M311.4,17c0-0.5,0.4-0.9,0.9-0.9c0.5,0,0.9,0.4,0.9,0.9c0,0.5-0.4,0.9-0.9,0.9
			C311.8,17.9,311.4,17.5,311.4,17z"/>
	</g>
</g>
</svg>
