<!-- Generator: Adobe Illustrator 22.1.0, SVG Export Plug-In  -->
<svg version="1.1"
	 xmlns="http://www.w3.org/2000/svg" xmlns:xlink="http://www.w3.org/1999/xlink" xmlns:a="http://ns.adobe.com/AdobeSVGViewerExtensions/3.0/"
	 x="0px" y="0px" width="94.9px" height="8.8px" viewBox="0 0 94.9 8.8" style="enable-background:new 0 0 94.9 8.8;"
	 xml:space="preserve">
<style type="text/css">
	.st0{fill:#231F20;}
</style>
<defs>
</defs>
<g id="XMLID_1_">
	<g id="XMLID_3_">
		<path id="XMLID_56_" class="st0" d="M1.2,2.5L0.5,3L0,2.2l0.9-0.5L0,1.2l0.5-0.8l0.7,0.5L1.2,0.1h1l0,0.9l0.7-0.5l0.5,0.8L2.5,1.7
			l0.8,0.5L2.8,3L2.1,2.5l0,0.8h-1L1.2,2.5z"/>
		<path id="XMLID_52_" class="st0" d="M4.3,0.7h2.1c1.8,0,2.5,0.5,2.5,1.6c0,0.9-0.5,1.3-1.2,1.4v0c0.7,0.1,1.2,0.5,1.2,1.4
			c0,1-0.7,1.7-2.5,1.7H4.3V0.7z M6.4,3.2c0.7,0,0.9-0.3,0.9-0.7c0-0.4-0.3-0.6-0.9-0.6H5.8v1.3H6.4z M6.5,5.7c0.7,0,1-0.3,1-0.7
			c0-0.4-0.2-0.7-1-0.7H5.8v1.4H6.5z"/>
		<path id="XMLID_49_" class="st0" d="M9.5,5.6c0-1,0.7-1.4,2.1-1.6l0.7-0.1c0-0.7-0.3-0.9-1-0.9c-0.7,0-1.4,0.4-1.6,0.9V2.4
			c0.2-0.3,0.8-0.7,1.9-0.7c1.4,0,2.2,0.6,2.2,2.1v3h-1.3l-0.1-0.4C12.3,6.8,11.9,7,11.2,7C10.2,7,9.5,6.6,9.5,5.6z M12.4,4.7
			l-0.6,0.1c-0.7,0.1-0.9,0.3-0.9,0.7c0,0.3,0.2,0.5,0.6,0.5c0.4,0,0.7-0.2,0.9-0.3V4.7z"/>
		<path id="XMLID_47_" class="st0" d="M14.7,6.6V5.3c0.3,0.3,0.8,0.6,1.5,0.6c0.6,0,0.8-0.2,0.8-0.5c0-0.3-0.1-0.4-0.7-0.5l-0.3,0
			c-1-0.1-1.5-0.7-1.5-1.5c0-0.9,0.6-1.6,2.1-1.6c0.8,0,1.3,0.2,1.6,0.4v1.3c-0.3-0.4-0.8-0.5-1.5-0.5c-0.6,0-0.8,0.2-0.8,0.4
			s0.1,0.4,0.6,0.5l0.3,0C18,4,18.4,4.4,18.4,5.3c0,0.9-0.6,1.7-2.2,1.7C15.5,7,15,6.9,14.7,6.6z"/>
		<path id="XMLID_44_" class="st0" d="M19,4.4c0-1.8,1.2-2.6,2.4-2.6c1.2,0,2.3,0.5,2.3,2.4v0.6h-3.2c0.1,0.6,0.4,1,1.3,1
			c0.8,0,1.4-0.3,1.6-0.6v1.2C23.2,6.7,22.6,7,21.6,7C20,7,19,6.2,19,4.4z M22.3,3.9L22.3,3.9c0-0.6-0.3-1-0.9-1
			c-0.6,0-0.9,0.5-0.9,1H22.3z"/>
		<path id="XMLID_41_" class="st0" d="M24.3,4.5c0-1.8,0.9-2.7,2.2-2.7c0.4,0,0.8,0.1,1.1,0.3v-2H29v6.8h-1.3l-0.1-0.4
			C27.4,6.8,27,7,26.3,7C25.1,7,24.3,6.3,24.3,4.5z M27.5,3.2c-0.2-0.2-0.5-0.3-0.8-0.3c-0.7,0-1,0.7-1,1.6s0.2,1.4,0.9,1.4
			c0.4,0,0.7-0.2,0.8-0.4V3.2z"/>
		<path id="XMLID_38_" class="st0" d="M32,4.4c0-1.8,1.2-2.6,2.6-2.6C36,1.8,37,2.6,37,4.4C37,6.3,35.8,7,34.4,7C33,7,32,6.3,32,4.4
			z M35.5,4.4c0-0.9-0.3-1.4-1-1.4c-0.7,0-1,0.6-1,1.4c0,0.9,0.3,1.4,1,1.4C35.2,5.8,35.5,5.3,35.5,4.4z"/>
		<path id="XMLID_36_" class="st0" d="M37.8,1.9h1.3l0.1,0.4c0.2-0.3,0.7-0.6,1.3-0.6c1.3,0,1.8,0.7,1.8,2v3.1h-1.5V4.1
			c0-0.8-0.2-1.1-0.8-1.1c-0.4,0-0.7,0.2-0.8,0.4v3.6h-1.5V1.9z"/>
		<path id="XMLID_34_" class="st0" d="M45.8,5.5V3.1h-0.6V2.5l0.5-0.6l0.9-1.2h0.7v1.2h1.2v1.2h-1.2v2.3c0,0.4,0.1,0.5,0.4,0.5
			c0.3,0,0.6-0.2,0.7-0.4v1.2C48.2,6.8,47.9,7,47.3,7C46.2,7,45.8,6.5,45.8,5.5z"/>
		<path id="XMLID_31_" class="st0" d="M49,4.4c0-1.8,1.2-2.6,2.6-2.6C53,1.8,54,2.6,54,4.4C54,6.3,52.8,7,51.4,7C50,7,49,6.3,49,4.4
			z M52.5,4.4c0-0.9-0.3-1.4-1-1.4c-0.7,0-1,0.6-1,1.4c0,0.9,0.3,1.4,1,1.4C52.2,5.8,52.5,5.3,52.5,4.4z"/>
		<path id="XMLID_29_" class="st0" d="M54.8,5.7V0.1h1.5v5.4c0,0.3,0.1,0.4,0.3,0.4c0.2,0,0.4-0.1,0.4-0.2v1.1
			C56.9,6.9,56.6,7,56.1,7C55.2,7,54.8,6.6,54.8,5.7z"/>
		<path id="XMLID_26_" class="st0" d="M57.4,4.4c0-1.8,1.2-2.6,2.4-2.6c1.2,0,2.3,0.5,2.3,2.4v0.6h-3.2c0.1,0.6,0.4,1,1.3,1
			c0.8,0,1.4-0.3,1.6-0.6v1.2C61.6,6.7,61,7,60,7C58.4,7,57.4,6.2,57.4,4.4z M60.8,3.9L60.8,3.9c0-0.6-0.3-1-0.9-1
			c-0.6,0-0.9,0.5-0.9,1H60.8z"/>
		<path id="XMLID_24_" class="st0" d="M62.9,1.9h1.2l0.1,0.7c0.1-0.5,0.5-0.8,1-0.8c0.3,0,0.4,0.1,0.5,0.1v1.3
			c-0.1-0.1-0.3-0.1-0.6-0.1c-0.4,0-0.6,0.2-0.7,0.4v3.4h-1.5V1.9z"/>
		<path id="XMLID_21_" class="st0" d="M66.1,5.6c0-1,0.7-1.4,2.1-1.6l0.7-0.1c0-0.7-0.3-0.9-1-0.9c-0.7,0-1.4,0.4-1.6,0.9V2.4
			c0.2-0.3,0.8-0.7,1.9-0.7c1.4,0,2.2,0.6,2.2,2.1v3h-1.3L69,6.5C68.9,6.8,68.5,7,67.8,7C66.8,7,66.1,6.6,66.1,5.6z M68.9,4.7
			l-0.6,0.1c-0.7,0.1-0.9,0.3-0.9,0.7c0,0.3,0.2,0.5,0.6,0.5c0.4,0,0.7-0.2,0.9-0.3V4.7z"/>
		<path id="XMLID_18_" class="st0" d="M72.7,6.6l-0.2,0.4h-1.1V0.1h1.5v2.2c0.1-0.2,0.6-0.5,1.3-0.5c1.2,0,2,0.7,2,2.5
			c0,1.8-1,2.8-2.2,2.8C73.2,7,72.9,6.8,72.7,6.6z M72.9,5.6c0.2,0.2,0.5,0.3,0.8,0.3c0.7,0,1-0.7,1-1.6s-0.2-1.4-0.9-1.4
			c-0.4,0-0.7,0.2-0.8,0.4V5.6z"/>
		<path id="XMLID_15_" class="st0" d="M77,0.7C77,0.3,77.2,0,77.7,0c0.5,0,0.8,0.3,0.8,0.7c0,0.4-0.3,0.7-0.8,0.7
			C77.2,1.4,77,1.1,77,0.7z M77,1.9h1.5v5H77V1.9z"/>
		<path id="XMLID_13_" class="st0" d="M79.5,5.7V0.1h1.5v5.4c0,0.3,0.1,0.4,0.3,0.4c0.2,0,0.4-0.1,0.4-0.2v1.1
			C81.6,6.9,81.3,7,80.8,7C79.9,7,79.5,6.6,79.5,5.7z"/>
		<path id="XMLID_10_" class="st0" d="M82.3,0.7c0-0.4,0.3-0.7,0.8-0.7c0.5,0,0.8,0.3,0.8,0.7c0,0.4-0.3,0.7-0.8,0.7
			C82.6,1.4,82.3,1.1,82.3,0.7z M82.4,1.9h1.5v5h-1.5V1.9z"/>
		<path id="XMLID_8_" class="st0" d="M85.1,5.5V3.1h-0.6V2.5L85,1.9l0.9-1.2h0.7v1.2h1.2v1.2h-1.2v2.3c0,0.4,0.1,0.5,0.4,0.5
			c0.3,0,0.6-0.2,0.7-0.4v1.2C87.6,6.8,87.2,7,86.6,7C85.5,7,85.1,6.5,85.1,5.5z"/>
		<path id="XMLID_6_" class="st0" d="M88.3,8.5V7.3c0.2,0.2,0.5,0.4,0.9,0.4c0.3,0,0.6-0.1,0.9-0.7l-2-5.1h1.6l1,3.3l0.9-3.3H93
			l-1.4,4.7c-0.4,1.2-1,2.2-2.3,2.2C88.8,8.8,88.5,8.7,88.3,8.5z"/>
		<path id="XMLID_4_" class="st0" d="M93.1,6.2c0-0.5,0.4-0.9,0.9-0.9c0.5,0,0.9,0.4,0.9,0.9C94.9,6.7,94.5,7,94,7
			C93.5,7,93.1,6.7,93.1,6.2z"/>
	</g>
</g>
</svg>
