<!-- Generator: Adobe Illustrator 22.1.0, SVG Export Plug-In  -->
<svg version="1.1"
	 xmlns="http://www.w3.org/2000/svg" xmlns:xlink="http://www.w3.org/1999/xlink" xmlns:a="http://ns.adobe.com/AdobeSVGViewerExtensions/3.0/"
	 x="0px" y="0px" width="770.3px" height="8.9px" viewBox="0 0 770.3 8.9" style="enable-background:new 0 0 770.3 8.9;"
	 xml:space="preserve">
<style type="text/css">
	.st0{fill:#231F20;}
</style>
<defs>
</defs>
<g id="XMLID_1_">
	<path id="XMLID_385_" class="st0" d="M1.6,4.8L1.6,4.8L1.5,7H0V0.8h2.1c1.4,0,2.4,0.5,2.4,1.9c0,1-0.6,1.7-1.5,1.9L5,7H3.3L1.6,4.8
		z M2,3.8c0.7,0,1-0.3,1-0.9C3,2.2,2.7,2,2,2H1.5v1.8H2z"/>
	<path id="XMLID_382_" class="st0" d="M5.2,4.5c0-1.8,1.2-2.6,2.4-2.6c1.2,0,2.3,0.5,2.3,2.4v0.6H6.7c0.1,0.6,0.4,1,1.4,1
		c0.8,0,1.4-0.3,1.6-0.6v1.2C9.5,6.8,8.9,7.1,7.9,7.1C6.2,7.1,5.2,6.3,5.2,4.5z M8.6,4L8.6,4c0-0.6-0.3-1-0.9-1C7.1,3,6.8,3.4,6.8,4
		H8.6z"/>
	<path id="XMLID_380_" class="st0" d="M11,3.1h-0.6V2.6L11,2.1c-0.1-0.2-0.2-0.4-0.2-0.7c0-0.9,0.8-1.4,1.8-1.4
		c0.7,0,1.1,0.2,1.2,0.3v1.2c-0.2-0.3-0.5-0.4-0.9-0.4c-0.4,0-0.6,0.2-0.6,0.5c0,0.2,0.1,0.3,0.1,0.4h1v1.2h-0.9V7H11V3.1z"/>
	<path id="XMLID_378_" class="st0" d="M13.7,6.2c0-0.5,0.4-0.9,0.9-0.9c0.5,0,0.9,0.4,0.9,0.9c0,0.5-0.4,0.9-0.9,0.9
		C14.1,7.1,13.7,6.7,13.7,6.2z"/>
	<path id="XMLID_376_" class="st0" d="M18.6,0.8h2.1c1.8,0,2.6,0.8,2.6,2.1c0,1.3-0.8,2.3-2.6,2.3h-0.3V4.1h0.3
		c0.7,0,1.1-0.4,1.1-1.1c0-0.7-0.4-1-1.1-1h-0.5v5h-1.5V0.8z"/>
	<path id="XMLID_373_" class="st0" d="M23.7,4.5c0-1.8,1.2-2.6,2.6-2.6c1.4,0,2.5,0.8,2.5,2.6c0,1.9-1.2,2.6-2.6,2.6
		C24.7,7.1,23.7,6.3,23.7,4.5z M27.2,4.5c0-0.9-0.3-1.4-1-1.4c-0.7,0-1,0.6-1,1.4c0,0.9,0.3,1.4,1,1.4C26.9,5.9,27.2,5.3,27.2,4.5z"
		/>
	<path id="XMLID_371_" class="st0" d="M29.8,5.5V3.1h-0.6V2.6L29.7,2l0.9-1.2h0.7V2h1.2v1.2h-1.2v2.3c0,0.4,0.1,0.5,0.4,0.5
		c0.3,0,0.6-0.2,0.7-0.4v1.2c-0.2,0.2-0.5,0.4-1.1,0.4C30.2,7.1,29.8,6.5,29.8,5.5z"/>
	<path id="XMLID_369_" class="st0" d="M35.2,4.9c-0.3,0.2-0.5,0.4-0.5,0.4V7h-1.5V0.2h1.5v3.6c0,0,1-0.8,1.7-1.8h1.5
		c-0.4,0.7-1,1.4-1.5,1.9L38.1,7h-1.7L35.2,4.9z"/>
	<path id="XMLID_366_" class="st0" d="M38.6,0.8c0-0.4,0.3-0.7,0.8-0.7c0.5,0,0.8,0.3,0.8,0.7c0,0.4-0.3,0.7-0.8,0.7
		C38.9,1.5,38.6,1.2,38.6,0.8z M38.6,2h1.5v5h-1.5V2z"/>
	<path id="XMLID_364_" class="st0" d="M41.2,2h1.3l0.1,0.4c0.2-0.3,0.7-0.6,1.3-0.6c1.3,0,1.8,0.7,1.8,2V7h-1.5V4.1
		C44.2,3.3,44,3,43.5,3c-0.4,0-0.7,0.2-0.8,0.4V7h-1.5V2z"/>
	<path id="XMLID_362_" class="st0" d="M48.8,6.7V5.2c0.3,0.4,0.9,0.7,1.6,0.7c0.7,0,1-0.3,1-0.7c0-0.4-0.2-0.5-0.8-0.6l-0.2,0
		c-1-0.2-1.6-0.8-1.6-1.9c0-1.2,0.9-2,2.3-2c0.9,0,1.4,0.2,1.7,0.4v1.5c-0.3-0.4-0.9-0.7-1.7-0.7c-0.6,0-0.9,0.2-0.9,0.6
		c0,0.4,0.1,0.5,0.7,0.7l0.2,0c1,0.2,1.7,0.7,1.7,1.8c0,1.2-0.9,2.1-2.4,2.1C49.5,7.1,49,6.9,48.8,6.7z"/>
	<path id="XMLID_360_" class="st0" d="M53.5,3.9c0-2.1,1.4-3.2,3.1-3.2c1.1,0,1.7,0.3,2,0.6v1.5c-0.4-0.5-1-0.9-1.8-0.9
		c-1.1,0-1.8,0.7-1.8,1.9c0,1.3,0.6,2,1.5,2c0.3,0,0.5,0,0.7-0.1V4.1h1.4v2.4c-0.4,0.3-1.1,0.6-2.2,0.6C54.7,7.1,53.5,6,53.5,3.9z"
		/>
	<path id="XMLID_358_" class="st0" d="M59.4,8.3C59.6,8,59.8,7.4,59.9,7c-0.3-0.1-0.5-0.5-0.5-0.8c0-0.5,0.4-0.9,0.9-0.9
		c0.5,0,0.9,0.4,0.9,1c0,0.9-0.7,1.8-1.1,2.1L59.4,8.3z"/>
	<path id="XMLID_356_" class="st0" d="M64,3.9c0-2.1,1.3-3.2,3-3.2c1,0,1.5,0.3,1.8,0.5v1.5c-0.3-0.5-0.8-0.7-1.6-0.7
		c-1.1,0-1.6,0.7-1.6,1.9c0,1.2,0.6,2,1.6,2c0.7,0,1.3-0.2,1.6-0.7v1.4c-0.3,0.3-1,0.6-1.8,0.6C65.2,7.1,64,6,64,3.9z"/>
	<path id="XMLID_353_" class="st0" d="M69.4,4.5c0-1.8,1.2-2.6,2.6-2.6c1.4,0,2.5,0.8,2.5,2.6c0,1.9-1.2,2.6-2.6,2.6
		C70.4,7.1,69.4,6.3,69.4,4.5z M73,4.5c0-0.9-0.3-1.4-1-1.4c-0.7,0-1,0.6-1,1.4c0,0.9,0.3,1.4,1,1.4C72.6,5.9,73,5.3,73,4.5z"/>
	<path id="XMLID_351_" class="st0" d="M75.2,0.2h1.5v2.2c0.2-0.3,0.7-0.5,1.3-0.5c1.3,0,1.8,0.7,1.8,2V7h-1.5V4.1
		c0-0.8-0.2-1.1-0.8-1.1c-0.4,0-0.7,0.2-0.8,0.4V7h-1.5V0.2z"/>
	<path id="XMLID_348_" class="st0" d="M80.5,4.5c0-1.8,1.2-2.6,2.4-2.6c1.2,0,2.3,0.5,2.3,2.4v0.6h-3.2c0.1,0.6,0.4,1,1.4,1
		c0.8,0,1.4-0.3,1.6-0.6v1.2c-0.3,0.3-0.9,0.6-1.9,0.6C81.5,7.1,80.5,6.3,80.5,4.5z M83.9,4L83.9,4c0-0.6-0.3-1-0.9-1
		c-0.6,0-0.9,0.5-0.9,1H83.9z"/>
	<path id="XMLID_346_" class="st0" d="M86.1,2h1.3l0.1,0.4c0.2-0.3,0.7-0.6,1.3-0.6c1.3,0,1.8,0.7,1.8,2V7h-1.5V4.1
		c0-0.8-0.2-1.1-0.8-1.1c-0.4,0-0.7,0.2-0.8,0.4V7h-1.5V2z"/>
	<path id="XMLID_344_" class="st0" d="M93.9,0.8h1.4l1.8,2.6l1.7-2.6h1.4V7h-1.5V3.1l-1.6,2.4H97l-1.6-2.4V7h-1.5V0.8z"/>
	<path id="XMLID_342_" class="st0" d="M101.1,8.3c0.2-0.3,0.4-0.9,0.5-1.3c-0.3-0.1-0.5-0.5-0.5-0.8c0-0.5,0.4-0.9,0.9-0.9
		c0.5,0,0.9,0.4,0.9,1c0,0.9-0.7,1.8-1.1,2.1L101.1,8.3z"/>
	<path id="XMLID_340_" class="st0" d="M106,0.8h2.1c1.8,0,2.6,0.8,2.6,2.1c0,1.3-0.8,2.3-2.6,2.3h-0.3V4.1h0.3
		c0.7,0,1.1-0.4,1.1-1.1c0-0.7-0.4-1-1.1-1h-0.5v5H106V0.8z"/>
	<path id="XMLID_337_" class="st0" d="M111.1,5.6c0-1,0.7-1.4,2.1-1.6l0.7-0.1c0-0.7-0.3-0.9-1-0.9c-0.7,0-1.4,0.4-1.6,0.9V2.5
		c0.2-0.3,0.8-0.7,1.9-0.7c1.4,0,2.2,0.6,2.2,2.1v3h-1.3L114,6.5c-0.1,0.3-0.5,0.6-1.2,0.6C111.8,7.1,111.1,6.6,111.1,5.6z
		 M113.9,4.8l-0.6,0.1c-0.7,0.1-0.9,0.3-0.9,0.7c0,0.3,0.2,0.5,0.6,0.5c0.4,0,0.7-0.2,0.9-0.3V4.8z"/>
	<path id="XMLID_335_" class="st0" d="M116.4,2h1.3l0.1,0.4c0.2-0.3,0.7-0.6,1.3-0.6c1.3,0,1.8,0.7,1.8,2V7h-1.5V4.1
		c0-0.8-0.2-1.1-0.8-1.1c-0.4,0-0.7,0.2-0.8,0.4V7h-1.5V2z"/>
	<path id="XMLID_332_" class="st0" d="M121.7,5.6c0-1,0.7-1.4,2.1-1.6l0.7-0.1c0-0.7-0.3-0.9-1-0.9c-0.7,0-1.4,0.4-1.6,0.9V2.5
		c0.2-0.3,0.8-0.7,1.9-0.7c1.4,0,2.2,0.6,2.2,2.1v3h-1.3l-0.1-0.4c-0.1,0.3-0.5,0.6-1.2,0.6C122.4,7.1,121.7,6.6,121.7,5.6z
		 M124.5,4.8l-0.6,0.1c-0.7,0.1-0.9,0.3-0.9,0.7c0,0.3,0.2,0.5,0.6,0.5c0.4,0,0.7-0.2,0.9-0.3V4.8z"/>
	<path id="XMLID_329_" class="st0" d="M126.7,8.4V7.3c0.5,0.3,1.1,0.5,2.1,0.5c1.2,0,1.7-0.1,1.7-0.5c0-0.3-0.3-0.4-1-0.4
		c-0.7,0-1.9,0.2-2.2,0.3v-1l0.7-1c-0.7-0.2-1.2-0.8-1.2-1.6c0-1.1,0.9-1.8,2.2-1.8c0.6,0,1.1,0.1,1.4,0.4c0.2-0.3,0.5-0.4,1-0.4
		c0.1,0,0.3,0,0.4,0.1V3c-0.1-0.1-0.2-0.1-0.3-0.1c-0.2,0-0.3,0.1-0.4,0.1c0.1,0.2,0.1,0.4,0.1,0.6c0,1.1-0.9,1.7-2.2,1.7h-0.1
		l-0.4,0.6c0.2-0.1,0.8-0.1,1.3-0.1c1.3,0,2.1,0.3,2.1,1.4c0,1.1-1,1.7-2.9,1.7C127.9,8.9,127.1,8.7,126.7,8.4z M129.8,3.6
		c0-0.4-0.3-0.7-0.8-0.7c-0.5,0-0.8,0.2-0.8,0.7c0,0.4,0.3,0.7,0.8,0.7C129.5,4.2,129.8,4,129.8,3.6z"/>
	<path id="XMLID_326_" class="st0" d="M132.4,0.8c0-0.4,0.3-0.7,0.8-0.7c0.5,0,0.8,0.3,0.8,0.7c0,0.4-0.3,0.7-0.8,0.7
		C132.7,1.5,132.4,1.2,132.4,0.8z M132.4,2h1.5v5h-1.5V2z"/>
	<path id="XMLID_323_" class="st0" d="M134.7,4.5c0-1.8,0.9-2.7,2.2-2.7c0.4,0,0.8,0.1,1.1,0.3v-2h1.5V7h-1.3L138,6.5
		c-0.2,0.3-0.6,0.6-1.3,0.6C135.6,7.1,134.7,6.3,134.7,4.5z M138,3.3c-0.2-0.2-0.5-0.3-0.8-0.3c-0.7,0-1,0.7-1,1.6s0.2,1.4,0.9,1.4
		c0.4,0,0.7-0.2,0.8-0.4V3.3z"/>
	<path id="XMLID_320_" class="st0" d="M140.3,4.5c0-1.8,1.2-2.6,2.4-2.6c1.2,0,2.3,0.5,2.3,2.4v0.6h-3.2c0.1,0.6,0.4,1,1.4,1
		c0.8,0,1.4-0.3,1.6-0.6v1.2c-0.3,0.3-0.9,0.6-1.9,0.6C141.2,7.1,140.3,6.3,140.3,4.5z M143.6,4L143.6,4c0-0.6-0.3-1-0.9-1
		c-0.6,0-0.9,0.5-0.9,1H143.6z"/>
	<path id="XMLID_318_" class="st0" d="M145.7,6.7V5.4c0.3,0.3,0.8,0.6,1.5,0.6c0.6,0,0.8-0.2,0.8-0.5c0-0.3-0.1-0.4-0.7-0.5l-0.3,0
		c-1-0.1-1.5-0.7-1.5-1.5c0-0.9,0.6-1.6,2.1-1.6c0.8,0,1.3,0.2,1.6,0.4v1.3c-0.3-0.4-0.8-0.5-1.5-0.5c-0.6,0-0.8,0.2-0.8,0.4
		s0.1,0.4,0.6,0.5l0.3,0c1.1,0.2,1.6,0.6,1.6,1.5c0,0.9-0.6,1.7-2.2,1.7C146.4,7.1,145.9,6.9,145.7,6.7z"/>
	<path id="XMLID_316_" class="st0" d="M152,6.8V5.3c0.2,0.3,0.6,0.5,1,0.5c0.6,0,0.9-0.3,0.9-1.1v-4h1.5v4.1c0,1.6-1,2.2-2.2,2.2
		C152.5,7.1,152.2,6.9,152,6.8z"/>
	<path id="XMLID_314_" class="st0" d="M156.2,6.2c0-0.5,0.4-0.9,0.9-0.9c0.5,0,0.9,0.4,0.9,0.9c0,0.5-0.4,0.9-0.9,0.9
		C156.6,7.1,156.2,6.7,156.2,6.2z"/>
	<path id="XMLID_312_" class="st0" d="M161.1,0.8h4.2V2h-2.7v1.2h1.7v1.2h-1.7v1.3h2.7V7h-4.2V0.8z"/>
	<path id="XMLID_309_" class="st0" d="M166.4,3.1h-0.6V2.6l0.5-0.5c-0.1-0.2-0.2-0.4-0.2-0.7c0-0.9,0.8-1.4,1.6-1.4
		c0.6,0,0.9,0.2,1,0.3v1.2c-0.1-0.2-0.4-0.4-0.7-0.4c-0.3,0-0.5,0.2-0.5,0.5c0,0.2,0.1,0.3,0.1,0.4h1.5c-0.1-0.1-0.1-0.3-0.1-0.6
		c0-0.9,0.8-1.4,1.7-1.4c0.6,0,0.9,0.2,1,0.3v1.2c-0.1-0.2-0.4-0.4-0.7-0.4c-0.3,0-0.5,0.2-0.5,0.5c0,0.2,0.1,0.3,0.1,0.4h3.1v5
		h-1.5V3.1h-1.5V7h-1.5V3.1h-1.5V7h-1.5V3.1z M172.3,0.8c0-0.4,0.3-0.7,0.8-0.7c0.5,0,0.8,0.3,0.8,0.7c0,0.4-0.3,0.7-0.8,0.7
		C172.6,1.5,172.3,1.3,172.3,0.8z"/>
	<path id="XMLID_307_" class="st0" d="M174.6,4.5c0-1.8,1.2-2.6,2.5-2.6c0.7,0,1.3,0.2,1.5,0.4v1.3c-0.3-0.4-0.7-0.5-1.3-0.5
		c-0.8,0-1.2,0.5-1.2,1.4c0,0.9,0.4,1.4,1.2,1.4c0.6,0,1-0.2,1.3-0.5v1.3c-0.2,0.2-0.8,0.5-1.5,0.5C175.6,7.1,174.6,6.3,174.6,4.5z"
		/>
	<path id="XMLID_304_" class="st0" d="M179.2,5.6c0-1,0.7-1.4,2.1-1.6l0.7-0.1c0-0.7-0.3-0.9-1-0.9c-0.7,0-1.4,0.4-1.6,0.9V2.5
		c0.2-0.3,0.8-0.7,1.9-0.7c1.4,0,2.2,0.6,2.2,2.1v3h-1.3l-0.1-0.4c-0.1,0.3-0.5,0.6-1.2,0.6C179.9,7.1,179.2,6.6,179.2,5.6z
		 M182,4.8l-0.6,0.1c-0.7,0.1-0.9,0.3-0.9,0.7c0,0.3,0.2,0.5,0.6,0.5c0.4,0,0.7-0.2,0.9-0.3V4.8z"/>
	<path id="XMLID_302_" class="st0" d="M184.3,4.5c0-1.8,1.2-2.6,2.5-2.6c0.7,0,1.3,0.2,1.5,0.4v1.3c-0.3-0.4-0.7-0.5-1.3-0.5
		c-0.8,0-1.2,0.5-1.2,1.4c0,0.9,0.4,1.4,1.2,1.4c0.6,0,1-0.2,1.3-0.5v1.3c-0.2,0.2-0.8,0.5-1.5,0.5C185.3,7.1,184.3,6.3,184.3,4.5z"
		/>
	<path id="XMLID_300_" class="st0" d="M188.9,8.6V7.4c0.2,0.2,0.5,0.4,0.9,0.4c0.3,0,0.6-0.1,0.9-0.7l-2-5.1h1.6l1,3.3l0.9-3.3h1.4
		l-1.4,4.7c-0.4,1.2-1,2.2-2.3,2.2C189.4,8.9,189,8.7,188.9,8.6z"/>
	<path id="XMLID_297_" class="st0" d="M196.1,5.6c0-1,0.7-1.4,2.1-1.6l0.7-0.1c0-0.7-0.3-0.9-1-0.9c-0.7,0-1.4,0.4-1.6,0.9V2.5
		c0.2-0.3,0.8-0.7,1.9-0.7c1.4,0,2.2,0.6,2.2,2.1v3h-1.3l-0.1-0.4c-0.1,0.3-0.5,0.6-1.2,0.6C196.8,7.1,196.1,6.6,196.1,5.6z
		 M198.9,4.8l-0.6,0.1c-0.7,0.1-0.9,0.3-0.9,0.7c0,0.3,0.2,0.5,0.6,0.5c0.4,0,0.7-0.2,0.9-0.3V4.8z"/>
	<path id="XMLID_295_" class="st0" d="M201.4,2h1.3l0.1,0.4c0.2-0.3,0.7-0.6,1.3-0.6c1.3,0,1.8,0.7,1.8,2V7h-1.5V4.1
		c0-0.8-0.2-1.1-0.8-1.1c-0.4,0-0.7,0.2-0.8,0.4V7h-1.5V2z"/>
	<path id="XMLID_292_" class="st0" d="M206.7,4.5c0-1.8,0.9-2.7,2.2-2.7c0.4,0,0.8,0.1,1.1,0.3v-2h1.5V7h-1.3L210,6.5
		c-0.2,0.3-0.6,0.6-1.3,0.6C207.5,7.1,206.7,6.3,206.7,4.5z M210,3.3c-0.2-0.2-0.5-0.3-0.8-0.3c-0.7,0-1,0.7-1,1.6s0.2,1.4,0.9,1.4
		c0.4,0,0.7-0.2,0.8-0.4V3.3z"/>
	<path id="XMLID_290_" class="st0" d="M214.9,5.5V3.1h-0.6V2.6l0.5-0.6l0.9-1.2h0.7V2h1.2v1.2h-1.2v2.3c0,0.4,0.1,0.5,0.4,0.5
		c0.3,0,0.6-0.2,0.7-0.4v1.2c-0.2,0.2-0.5,0.4-1.1,0.4C215.3,7.1,214.9,6.5,214.9,5.5z"/>
	<path id="XMLID_287_" class="st0" d="M218.1,4.5c0-1.8,1.2-2.6,2.6-2.6c1.4,0,2.5,0.8,2.5,2.6c0,1.9-1.2,2.6-2.6,2.6
		C219.1,7.1,218.1,6.3,218.1,4.5z M221.6,4.5c0-0.9-0.3-1.4-1-1.4c-0.7,0-1,0.6-1,1.4c0,0.9,0.3,1.4,1,1.4
		C221.3,5.9,221.6,5.3,221.6,4.5z"/>
	<path id="XMLID_285_" class="st0" d="M223.9,5.7V0.2h1.5v5.4c0,0.3,0.1,0.4,0.3,0.4c0.2,0,0.4-0.1,0.4-0.2v1.1
		c-0.1,0.1-0.4,0.3-0.9,0.3C224.3,7.1,223.9,6.6,223.9,5.7z"/>
	<path id="XMLID_282_" class="st0" d="M226.5,4.5c0-1.8,1.2-2.6,2.4-2.6c1.2,0,2.3,0.5,2.3,2.4v0.6H228c0.1,0.6,0.4,1,1.4,1
		c0.8,0,1.4-0.3,1.6-0.6v1.2c-0.3,0.3-0.9,0.6-1.9,0.6C227.5,7.1,226.5,6.3,226.5,4.5z M229.9,4L229.9,4c0-0.6-0.3-1-0.9-1
		c-0.6,0-0.9,0.5-0.9,1H229.9z"/>
	<path id="XMLID_280_" class="st0" d="M232,2h1.2l0.1,0.7c0.1-0.5,0.5-0.8,1-0.8c0.3,0,0.4,0.1,0.5,0.1v1.3
		c-0.1-0.1-0.3-0.1-0.6-0.1c-0.4,0-0.6,0.2-0.7,0.4V7H232V2z"/>
	<path id="XMLID_277_" class="st0" d="M235.2,5.6c0-1,0.7-1.4,2.1-1.6l0.7-0.1c0-0.7-0.3-0.9-1-0.9c-0.7,0-1.4,0.4-1.6,0.9V2.5
		c0.2-0.3,0.8-0.7,1.9-0.7c1.4,0,2.2,0.6,2.2,2.1v3h-1.3l-0.1-0.4c-0.1,0.3-0.5,0.6-1.2,0.6C235.9,7.1,235.2,6.6,235.2,5.6z
		 M238,4.8l-0.6,0.1c-0.7,0.1-0.9,0.3-0.9,0.7c0,0.3,0.2,0.5,0.6,0.5c0.4,0,0.7-0.2,0.9-0.3V4.8z"/>
	<path id="XMLID_274_" class="st0" d="M241.8,6.6L241.6,7h-1.1V0.2h1.5v2.2c0.1-0.2,0.6-0.5,1.3-0.5c1.2,0,2,0.7,2,2.5
		c0,1.8-1,2.8-2.2,2.8C242.3,7.1,242,6.9,241.8,6.6z M242,5.6c0.2,0.2,0.5,0.3,0.8,0.3c0.7,0,1-0.7,1-1.6S243.5,3,242.8,3
		c-0.4,0-0.7,0.2-0.8,0.4V5.6z"/>
	<path id="XMLID_271_" class="st0" d="M246.1,0.8c0-0.4,0.3-0.7,0.8-0.7c0.5,0,0.8,0.3,0.8,0.7c0,0.4-0.3,0.7-0.8,0.7
		C246.3,1.5,246.1,1.2,246.1,0.8z M246.1,2h1.5v5h-1.5V2z"/>
	<path id="XMLID_269_" class="st0" d="M248.6,5.7V0.2h1.5v5.4c0,0.3,0.1,0.4,0.3,0.4c0.2,0,0.4-0.1,0.4-0.2v1.1
		c-0.1,0.1-0.4,0.3-0.9,0.3C249,7.1,248.6,6.6,248.6,5.7z"/>
	<path id="XMLID_266_" class="st0" d="M251.4,0.8c0-0.4,0.3-0.7,0.8-0.7c0.5,0,0.8,0.3,0.8,0.7c0,0.4-0.3,0.7-0.8,0.7
		C251.7,1.5,251.4,1.2,251.4,0.8z M251.5,2h1.5v5h-1.5V2z"/>
	<path id="XMLID_264_" class="st0" d="M254.2,5.5V3.1h-0.6V2.6l0.5-0.6l0.9-1.2h0.7V2h1.2v1.2h-1.2v2.3c0,0.4,0.1,0.5,0.4,0.5
		c0.3,0,0.6-0.2,0.7-0.4v1.2c-0.2,0.2-0.5,0.4-1.1,0.4C254.6,7.1,254.2,6.5,254.2,5.5z"/>
	<path id="XMLID_262_" class="st0" d="M257.4,8.6V7.4c0.2,0.2,0.5,0.4,0.9,0.4c0.3,0,0.6-0.1,0.9-0.7l-2-5.1h1.6l1,3.3l0.9-3.3h1.4
		l-1.4,4.7c-0.4,1.2-1,2.2-2.3,2.2C257.9,8.9,257.6,8.7,257.4,8.6z"/>
	<path id="XMLID_259_" class="st0" d="M264.6,4.5c0-1.8,1.2-2.6,2.6-2.6c1.4,0,2.5,0.8,2.5,2.6c0,1.9-1.2,2.6-2.6,2.6
		C265.6,7.1,264.6,6.3,264.6,4.5z M268.1,4.5c0-0.9-0.3-1.4-1-1.4c-0.7,0-1,0.6-1,1.4c0,0.9,0.3,1.4,1,1.4
		C267.8,5.9,268.1,5.3,268.1,4.5z"/>
	<path id="XMLID_257_" class="st0" d="M270.7,3.1h-0.6V2.6l0.5-0.5c-0.1-0.2-0.2-0.4-0.2-0.7c0-0.9,0.8-1.4,1.8-1.4
		c0.7,0,1.1,0.2,1.2,0.3v1.2c-0.2-0.3-0.5-0.4-0.9-0.4c-0.4,0-0.6,0.2-0.6,0.5c0,0.2,0.1,0.3,0.1,0.4h1v1.2h-0.9V7h-1.5V3.1z"/>
	<path id="XMLID_254_" class="st0" d="M277.6,1.4l-0.2-0.6h1.6c0.2,0.5,2.2,5.6,2.5,6.2h-1.6l-0.4-1.1h-2.2L276.8,7h-1.4L277.6,1.4z
		 M277.7,4.8h1.4l-0.5-1.4l-0.2-0.5l-0.2,0.5L277.7,4.8z"/>
	<path id="XMLID_252_" class="st0" d="M281.9,6.7V5.4c0.3,0.3,0.8,0.6,1.5,0.6c0.6,0,0.8-0.2,0.8-0.5c0-0.3-0.1-0.4-0.7-0.5l-0.3,0
		c-1-0.1-1.5-0.7-1.5-1.5c0-0.9,0.6-1.6,2.1-1.6c0.8,0,1.3,0.2,1.6,0.4v1.3c-0.3-0.4-0.8-0.5-1.5-0.5c-0.6,0-0.8,0.2-0.8,0.4
		s0.1,0.4,0.6,0.5l0.3,0c1.1,0.2,1.6,0.6,1.6,1.5c0,0.9-0.6,1.7-2.2,1.7C282.6,7.1,282.1,6.9,281.9,6.7z"/>
	<path id="XMLID_249_" class="st0" d="M286.1,4.5c0-1.8,1.2-2.6,2.4-2.6c1.2,0,2.3,0.5,2.3,2.4v0.6h-3.2c0.1,0.6,0.4,1,1.4,1
		c0.8,0,1.4-0.3,1.6-0.6v1.2c-0.3,0.3-0.9,0.6-1.9,0.6C287.1,7.1,286.1,6.3,286.1,4.5z M289.5,4L289.5,4c0-0.6-0.3-1-0.9-1
		c-0.6,0-0.9,0.5-0.9,1H289.5z"/>
	<path id="XMLID_247_" class="st0" d="M291.6,2h1.3l0.1,0.4c0.2-0.3,0.7-0.6,1.3-0.6c1.3,0,1.8,0.7,1.8,2V7h-1.5V4.1
		c0-0.8-0.2-1.1-0.8-1.1c-0.4,0-0.7,0.2-0.8,0.4V7h-1.5V2z"/>
	<path id="XMLID_244_" class="st0" d="M296.9,5.6c0-1,0.7-1.4,2.1-1.6l0.7-0.1c0-0.7-0.3-0.9-1-0.9c-0.7,0-1.4,0.4-1.6,0.9V2.5
		c0.2-0.3,0.8-0.7,1.9-0.7c1.4,0,2.2,0.6,2.2,2.1v3H300l-0.1-0.4c-0.1,0.3-0.5,0.6-1.2,0.6C297.6,7.1,296.9,6.6,296.9,5.6z
		 M299.8,4.8l-0.6,0.1c-0.7,0.1-0.9,0.3-0.9,0.7c0,0.3,0.2,0.5,0.6,0.5c0.4,0,0.7-0.2,0.9-0.3V4.8z"/>
	<path id="XMLID_241_" class="st0" d="M302.2,2h1.3l0.1,0.4c0.2-0.3,0.6-0.6,1.3-0.6c1.3,0,2,0.7,2,2.5c0,1.8-1,2.8-2.2,2.8
		c-0.4,0-0.8-0.1-1.1-0.3v1.9h-1.5V2z M305.5,4.4c0-0.9-0.2-1.4-0.9-1.4c-0.4,0-0.7,0.2-0.8,0.4v2.3c0.2,0.2,0.5,0.3,0.8,0.3
		C305.2,6,305.5,5.3,305.5,4.4z"/>
	<path id="XMLID_238_" class="st0" d="M307.8,0.8c0-0.4,0.3-0.7,0.8-0.7c0.5,0,0.8,0.3,0.8,0.7c0,0.4-0.3,0.7-0.8,0.7
		C308.1,1.5,307.8,1.2,307.8,0.8z M307.8,2h1.5v5h-1.5V2z"/>
	<path id="XMLID_236_" class="st0" d="M310.3,2h1.3l0.1,0.4c0.2-0.3,0.7-0.6,1.3-0.6c1.3,0,1.8,0.7,1.8,2V7h-1.5V4.1
		c0-0.8-0.2-1.1-0.8-1.1c-0.4,0-0.7,0.2-0.8,0.4V7h-1.5V2z"/>
	<path id="XMLID_233_" class="st0" d="M315.6,4.5c0-1.8,1.2-2.6,2.4-2.6c1.2,0,2.3,0.5,2.3,2.4v0.6h-3.2c0.1,0.6,0.4,1,1.4,1
		c0.8,0,1.4-0.3,1.6-0.6v1.2c-0.3,0.3-0.9,0.6-1.9,0.6C316.6,7.1,315.6,6.3,315.6,4.5z M319,4L319,4c0-0.6-0.3-1-0.9-1
		c-0.6,0-0.9,0.5-0.9,1H319z"/>
	<path id="XMLID_230_" class="st0" d="M323.3,0.8c0-0.4,0.3-0.7,0.8-0.7c0.5,0,0.8,0.3,0.8,0.7c0,0.4-0.3,0.7-0.8,0.7
		C323.6,1.5,323.3,1.2,323.3,0.8z M323.3,2h1.5v5h-1.5V2z"/>
	<path id="XMLID_228_" class="st0" d="M325.9,2h1.3l0.1,0.4c0.2-0.3,0.7-0.6,1.3-0.6c1.3,0,1.8,0.7,1.8,2V7h-1.5V4.1
		c0-0.8-0.2-1.1-0.8-1.1c-0.4,0-0.7,0.2-0.8,0.4V7h-1.5V2z"/>
	<path id="XMLID_225_" class="st0" d="M333.3,5.6c0-1,0.7-1.4,2.1-1.6l0.7-0.1c0-0.7-0.3-0.9-1-0.9c-0.7,0-1.4,0.4-1.6,0.9V2.5
		c0.2-0.3,0.8-0.7,1.9-0.7c1.4,0,2.2,0.6,2.2,2.1v3h-1.3l-0.1-0.4c-0.1,0.3-0.5,0.6-1.2,0.6C334,7.1,333.3,6.6,333.3,5.6z
		 M336.2,4.8l-0.6,0.1c-0.7,0.1-0.9,0.3-0.9,0.7c0,0.3,0.2,0.5,0.6,0.5c0.4,0,0.7-0.2,0.9-0.3V4.8z"/>
	<path id="XMLID_223_" class="st0" d="M338.4,4.5c0-1.8,1.2-2.6,2.5-2.6c0.7,0,1.3,0.2,1.5,0.4v1.3c-0.3-0.4-0.7-0.5-1.3-0.5
		c-0.8,0-1.2,0.5-1.2,1.4c0,0.9,0.4,1.4,1.2,1.4c0.6,0,1-0.2,1.3-0.5v1.3c-0.2,0.2-0.8,0.5-1.5,0.5C339.4,7.1,338.4,6.3,338.4,4.5z"
		/>
	<path id="XMLID_221_" class="st0" d="M343.2,5.1V2h1.5v2.8c0,0.8,0.2,1.1,0.7,1.1c0.4,0,0.7-0.2,0.8-0.4V2h1.5v5h-1.3l-0.1-0.4
		c-0.2,0.3-0.7,0.6-1.3,0.6C343.7,7.1,343.2,6.4,343.2,5.1z"/>
	<path id="XMLID_219_" class="st0" d="M349,5.5V3.1h-0.6V2.6l0.5-0.6l0.9-1.2h0.7V2h1.2v1.2h-1.2v2.3c0,0.4,0.1,0.5,0.4,0.5
		c0.3,0,0.6-0.2,0.7-0.4v1.2c-0.2,0.2-0.5,0.4-1.1,0.4C349.4,7.1,349,6.5,349,5.5z"/>
	<path id="XMLID_216_" class="st0" d="M352.1,4.5c0-1.8,1.2-2.6,2.4-2.6c1.2,0,2.3,0.5,2.3,2.4v0.6h-3.2c0.1,0.6,0.4,1,1.4,1
		c0.8,0,1.4-0.3,1.6-0.6v1.2c-0.3,0.3-0.9,0.6-1.9,0.6C353.1,7.1,352.1,6.3,352.1,4.5z M355.5,4L355.5,4c0-0.6-0.3-1-0.9-1
		c-0.6,0-0.9,0.5-0.9,1H355.5z"/>
	<path id="XMLID_214_" class="st0" d="M359.7,6.7V5.4c0.3,0.3,0.8,0.6,1.5,0.6c0.6,0,0.8-0.2,0.8-0.5c0-0.3-0.1-0.4-0.7-0.5l-0.3,0
		c-1-0.1-1.5-0.7-1.5-1.5c0-0.9,0.6-1.6,2.1-1.6c0.8,0,1.3,0.2,1.6,0.4v1.3c-0.3-0.4-0.8-0.5-1.5-0.5c-0.6,0-0.8,0.2-0.8,0.4
		s0.1,0.4,0.6,0.5l0.3,0c1.1,0.2,1.6,0.6,1.6,1.5c0,0.9-0.6,1.7-2.2,1.7C360.5,7.1,360,6.9,359.7,6.7z"/>
	<path id="XMLID_212_" class="st0" d="M364,4.5c0-1.8,1.2-2.6,2.5-2.6c0.7,0,1.3,0.2,1.5,0.4v1.3c-0.3-0.4-0.7-0.5-1.3-0.5
		c-0.8,0-1.2,0.5-1.2,1.4c0,0.9,0.4,1.4,1.2,1.4c0.6,0,1-0.2,1.3-0.5v1.3c-0.2,0.2-0.8,0.5-1.5,0.5C365,7.1,364,6.3,364,4.5z"/>
	<path id="XMLID_210_" class="st0" d="M368.8,0.2h1.5v2.2c0.2-0.3,0.7-0.5,1.3-0.5c1.3,0,1.8,0.7,1.8,2V7h-1.5V4.1
		c0-0.8-0.2-1.1-0.8-1.1c-0.4,0-0.7,0.2-0.8,0.4V7h-1.5V0.2z"/>
	<path id="XMLID_207_" class="st0" d="M374.3,0.8c0-0.4,0.3-0.7,0.8-0.7c0.5,0,0.8,0.3,0.8,0.7c0,0.4-0.3,0.7-0.8,0.7
		C374.6,1.5,374.3,1.2,374.3,0.8z M374.3,2h1.5v5h-1.5V2z"/>
	<path id="XMLID_205_" class="st0" d="M376.6,6.5l2.1-3.4h-2.1V2h3.9v0.5l-2,3.4h2V7h-3.9V6.5z"/>
	<path id="XMLID_202_" class="st0" d="M381.1,4.5c0-1.8,1.2-2.6,2.6-2.6c1.4,0,2.5,0.8,2.5,2.6c0,1.9-1.2,2.6-2.6,2.6
		C382.1,7.1,381.1,6.3,381.1,4.5z M384.6,4.5c0-0.9-0.3-1.4-1-1.4c-0.7,0-1,0.6-1,1.4c0,0.9,0.3,1.4,1,1.4
		C384.3,5.9,384.6,5.3,384.6,4.5z"/>
	<path id="XMLID_199_" class="st0" d="M386.9,2h1.3l0.1,0.4c0.2-0.3,0.6-0.6,1.3-0.6c1.3,0,2,0.7,2,2.5c0,1.8-1,2.8-2.2,2.8
		c-0.4,0-0.8-0.1-1.1-0.3v1.9h-1.5V2z M390.1,4.4c0-0.9-0.2-1.4-0.9-1.4c-0.4,0-0.7,0.2-0.8,0.4v2.3c0.2,0.2,0.5,0.3,0.8,0.3
		C389.9,6,390.1,5.3,390.1,4.4z"/>
	<path id="XMLID_197_" class="st0" d="M392.5,0.2h1.5v2.2c0.2-0.3,0.7-0.5,1.3-0.5c1.3,0,1.8,0.7,1.8,2V7h-1.5V4.1
		c0-0.8-0.2-1.1-0.8-1.1c-0.4,0-0.7,0.2-0.8,0.4V7h-1.5V0.2z"/>
	<path id="XMLID_195_" class="st0" d="M398,2h1.2l0.1,0.7c0.1-0.5,0.5-0.8,1-0.8c0.3,0,0.4,0.1,0.5,0.1v1.3
		c-0.1-0.1-0.3-0.1-0.6-0.1c-0.4,0-0.6,0.2-0.7,0.4V7H398V2z"/>
	<path id="XMLID_192_" class="st0" d="M401.1,4.5c0-1.8,1.2-2.6,2.4-2.6c1.2,0,2.3,0.5,2.3,2.4v0.6h-3.2c0.1,0.6,0.4,1,1.4,1
		c0.8,0,1.4-0.3,1.6-0.6v1.2c-0.3,0.3-0.9,0.6-1.9,0.6C402.1,7.1,401.1,6.3,401.1,4.5z M404.5,4L404.5,4c0-0.6-0.3-1-0.9-1
		c-0.6,0-0.9,0.5-0.9,1H404.5z"/>
	<path id="XMLID_190_" class="st0" d="M406.7,2h1.3l0.1,0.4c0.2-0.3,0.7-0.6,1.3-0.6c1.3,0,1.8,0.7,1.8,2V7h-1.5V4.1
		c0-0.8-0.2-1.1-0.8-1.1c-0.4,0-0.7,0.2-0.8,0.4V7h-1.5V2z"/>
	<path id="XMLID_187_" class="st0" d="M412.2,0.8c0-0.4,0.3-0.7,0.8-0.7c0.5,0,0.8,0.3,0.8,0.7c0,0.4-0.3,0.7-0.8,0.7
		C412.5,1.5,412.2,1.2,412.2,0.8z M412.2,2h1.5v5h-1.5V2z"/>
	<path id="XMLID_184_" class="st0" d="M414.5,5.6c0-1,0.7-1.4,2.1-1.6l0.7-0.1c0-0.7-0.3-0.9-1-0.9c-0.7,0-1.4,0.4-1.6,0.9V2.5
		c0.2-0.3,0.8-0.7,1.9-0.7c1.4,0,2.2,0.6,2.2,2.1v3h-1.3l-0.1-0.4c-0.1,0.3-0.5,0.6-1.2,0.6C415.2,7.1,414.5,6.6,414.5,5.6z
		 M417.3,4.8l-0.6,0.1c-0.7,0.1-0.9,0.3-0.9,0.7c0,0.3,0.2,0.5,0.6,0.5c0.4,0,0.7-0.2,0.9-0.3V4.8z"/>
	<path id="XMLID_181_" class="st0" d="M419.7,3c0-0.5,0.4-0.9,0.9-0.9c0.5,0,0.9,0.4,0.9,0.9c0,0.5-0.4,0.9-0.9,0.9
		C420.1,3.8,419.7,3.5,419.7,3z M419.7,6.2c0-0.5,0.4-0.9,0.9-0.9c0.5,0,0.9,0.4,0.9,0.9c0,0.5-0.4,0.9-0.9,0.9
		C420.1,7.1,419.7,6.8,419.7,6.2z"/>
	<path id="XMLID_178_" class="st0" d="M424.3,5.6c0-1,0.7-1.4,2.1-1.6l0.7-0.1c0-0.7-0.3-0.9-1-0.9c-0.7,0-1.4,0.4-1.6,0.9V2.5
		c0.2-0.3,0.8-0.7,1.9-0.7c1.4,0,2.2,0.6,2.2,2.1v3h-1.3l-0.1-0.4c-0.1,0.3-0.5,0.6-1.2,0.6C425,7.1,424.3,6.6,424.3,5.6z
		 M427.1,4.8l-0.6,0.1c-0.7,0.1-0.9,0.3-0.9,0.7c0,0.3,0.2,0.5,0.6,0.5c0.4,0,0.7-0.2,0.9-0.3V4.8z"/>
	<path id="XMLID_175_" class="st0" d="M431.8,2h1.3l0.1,0.4c0.2-0.3,0.6-0.6,1.3-0.6c1.3,0,2,0.7,2,2.5c0,1.8-1,2.8-2.2,2.8
		c-0.4,0-0.8-0.1-1.1-0.3v1.9h-1.5V2z M435,4.4c0-0.9-0.2-1.4-0.9-1.4c-0.4,0-0.7,0.2-0.8,0.4v2.3c0.2,0.2,0.5,0.3,0.8,0.3
		C434.8,6,435,5.3,435,4.4z"/>
	<path id="XMLID_173_" class="st0" d="M437.3,5.7V0.2h1.5v5.4c0,0.3,0.1,0.4,0.3,0.4c0.2,0,0.4-0.1,0.4-0.2v1.1
		c-0.1,0.1-0.4,0.3-0.9,0.3C437.8,7.1,437.3,6.6,437.3,5.7z"/>
	<path id="XMLID_170_" class="st0" d="M440,5.6c0-1,0.7-1.4,2.1-1.6l0.7-0.1c0-0.7-0.3-0.9-1-0.9c-0.7,0-1.4,0.4-1.6,0.9V2.5
		c0.2-0.3,0.8-0.7,1.9-0.7c1.4,0,2.2,0.6,2.2,2.1v3H443l-0.1-0.4c-0.1,0.3-0.5,0.6-1.2,0.6C440.7,7.1,440,6.6,440,5.6z M442.8,4.8
		l-0.6,0.1c-0.7,0.1-0.9,0.3-0.9,0.7c0,0.3,0.2,0.5,0.6,0.5c0.4,0,0.7-0.2,0.9-0.3V4.8z"/>
	<path id="XMLID_168_" class="st0" d="M445,4.5c0-1.8,1.2-2.6,2.5-2.6c0.7,0,1.3,0.2,1.5,0.4v1.3c-0.3-0.4-0.7-0.5-1.3-0.5
		c-0.8,0-1.2,0.5-1.2,1.4c0,0.9,0.4,1.4,1.2,1.4c0.6,0,1-0.2,1.3-0.5v1.3c-0.2,0.2-0.8,0.5-1.5,0.5C446,7.1,445,6.3,445,4.5z"/>
	<path id="XMLID_165_" class="st0" d="M449.6,4.5c0-1.8,1.2-2.6,2.4-2.6c1.2,0,2.3,0.5,2.3,2.4v0.6h-3.2c0.1,0.6,0.4,1,1.3,1
		c0.8,0,1.4-0.3,1.6-0.6v1.2c-0.3,0.3-0.9,0.6-1.9,0.6C450.6,7.1,449.6,6.3,449.6,4.5z M453,4L453,4c0-0.6-0.3-1-0.9-1
		c-0.6,0-0.9,0.5-0.9,1H453z"/>
	<path id="XMLID_162_" class="st0" d="M456.5,6.6L456.3,7h-1.1V0.2h1.5v2.2c0.1-0.2,0.6-0.5,1.3-0.5c1.2,0,2,0.7,2,2.5
		c0,1.8-1,2.8-2.2,2.8C457,7.1,456.7,6.9,456.5,6.6z M456.6,5.6c0.2,0.2,0.5,0.3,0.8,0.3c0.7,0,1-0.7,1-1.6S458.2,3,457.5,3
		c-0.4,0-0.7,0.2-0.8,0.4V5.6z"/>
	<path id="XMLID_159_" class="st0" d="M460.5,4.5c0-1.8,1.2-2.6,2.6-2.6c1.5,0,2.5,0.8,2.5,2.6c0,1.9-1.2,2.6-2.6,2.6
		C461.5,7.1,460.5,6.3,460.5,4.5z M464,4.5c0-0.9-0.3-1.4-1-1.4c-0.7,0-1,0.6-1,1.4c0,0.9,0.3,1.4,1,1.4C463.7,5.9,464,5.3,464,4.5z
		"/>
	<path id="XMLID_157_" class="st0" d="M466.3,3.6h2.4v1.2h-2.4V3.6z"/>
	<path id="XMLID_154_" class="st0" d="M471.6,5.6c0-1,0.7-1.4,2.1-1.6l0.7-0.1c0-0.7-0.3-0.9-1-0.9c-0.7,0-1.4,0.4-1.6,0.9V2.5
		c0.2-0.3,0.8-0.7,1.9-0.7c1.4,0,2.2,0.6,2.2,2.1v3h-1.3l-0.1-0.4c-0.1,0.3-0.5,0.6-1.2,0.6C472.3,7.1,471.6,6.6,471.6,5.6z
		 M474.5,4.8l-0.6,0.1c-0.7,0.1-0.9,0.3-0.9,0.7c0,0.3,0.2,0.5,0.6,0.5c0.4,0,0.7-0.2,0.9-0.3V4.8z"/>
	<path id="XMLID_152_" class="st0" d="M476.9,2h1.3l0.1,0.4c0.2-0.3,0.7-0.6,1.3-0.6c1.3,0,1.8,0.7,1.8,2V7H480V4.1
		c0-0.8-0.2-1.1-0.8-1.1c-0.4,0-0.7,0.2-0.8,0.4V7h-1.5V2z"/>
	<path id="XMLID_149_" class="st0" d="M482.3,4.5c0-1.8,0.9-2.7,2.2-2.7c0.4,0,0.8,0.1,1.1,0.3v-2h1.5V7h-1.3l-0.1-0.4
		c-0.2,0.3-0.6,0.6-1.3,0.6C483.1,7.1,482.3,6.3,482.3,4.5z M485.5,3.3c-0.2-0.2-0.5-0.3-0.8-0.3c-0.7,0-1,0.7-1,1.6
		s0.2,1.4,0.9,1.4c0.4,0,0.7-0.2,0.8-0.4V3.3z"/>
	<path id="XMLID_147_" class="st0" d="M490.2,2h1.2l0.1,0.7c0.1-0.5,0.5-0.8,1-0.8c0.3,0,0.4,0.1,0.5,0.1v1.3
		c-0.1-0.1-0.3-0.1-0.6-0.1c-0.4,0-0.6,0.2-0.7,0.4V7h-1.5V2z"/>
	<path id="XMLID_144_" class="st0" d="M493.6,0.8c0-0.4,0.3-0.7,0.8-0.7c0.5,0,0.8,0.3,0.8,0.7c0,0.4-0.3,0.7-0.8,0.7
		C493.9,1.5,493.6,1.2,493.6,0.8z M493.7,2h1.5v5h-1.5V2z"/>
	<path id="XMLID_142_" class="st0" d="M496.1,6.7V5.4c0.3,0.3,0.8,0.6,1.5,0.6c0.6,0,0.8-0.2,0.8-0.5c0-0.3-0.1-0.4-0.7-0.5l-0.3,0
		c-1-0.1-1.5-0.7-1.5-1.5c0-0.9,0.6-1.6,2.1-1.6c0.8,0,1.3,0.2,1.6,0.4v1.3c-0.3-0.4-0.8-0.5-1.5-0.5c-0.6,0-0.8,0.2-0.8,0.4
		s0.1,0.4,0.6,0.5l0.3,0c1.1,0.2,1.6,0.6,1.6,1.5c0,0.9-0.6,1.7-2.2,1.7C496.8,7.1,496.3,6.9,496.1,6.7z"/>
	<path id="XMLID_139_" class="st0" d="M500.6,2h1.3l0.1,0.4c0.2-0.3,0.6-0.6,1.3-0.6c1.3,0,2,0.7,2,2.5c0,1.8-1,2.8-2.2,2.8
		c-0.4,0-0.8-0.1-1.1-0.3v1.9h-1.5V2z M503.8,4.4c0-0.9-0.2-1.4-0.9-1.4c-0.4,0-0.7,0.2-0.8,0.4v2.3c0.2,0.2,0.5,0.3,0.8,0.3
		C503.5,6,503.8,5.3,503.8,4.4z"/>
	<path id="XMLID_136_" class="st0" d="M505.9,4.5c0-1.8,1.2-2.6,2.4-2.6c1.2,0,2.3,0.5,2.3,2.4v0.6h-3.2c0.1,0.6,0.4,1,1.3,1
		c0.8,0,1.4-0.3,1.6-0.6v1.2c-0.3,0.3-0.9,0.6-1.9,0.6C506.9,7.1,505.9,6.3,505.9,4.5z M509.2,4L509.2,4c0-0.6-0.3-1-0.9-1
		c-0.6,0-0.9,0.5-0.9,1H509.2z"/>
	<path id="XMLID_134_" class="st0" d="M511.4,2h1.2l0.1,0.7c0.1-0.5,0.5-0.8,1-0.8c0.3,0,0.4,0.1,0.5,0.1v1.3
		c-0.1-0.1-0.3-0.1-0.6-0.1c-0.4,0-0.6,0.2-0.7,0.4V7h-1.5V2z"/>
	<path id="XMLID_131_" class="st0" d="M514.8,0.8c0-0.4,0.3-0.7,0.8-0.7c0.5,0,0.8,0.3,0.8,0.7c0,0.4-0.3,0.7-0.8,0.7
		C515.1,1.5,514.8,1.2,514.8,0.8z M514.9,2h1.5v5h-1.5V2z"/>
	<path id="XMLID_128_" class="st0" d="M517.2,4.5c0-1.8,0.9-2.7,2.2-2.7c0.4,0,0.8,0.1,1.1,0.3v-2h1.5V7h-1.3l-0.1-0.4
		c-0.2,0.3-0.6,0.6-1.3,0.6C518,7.1,517.2,6.3,517.2,4.5z M520.4,3.3C520.3,3.1,520,3,519.6,3c-0.7,0-1,0.7-1,1.6s0.2,1.4,0.9,1.4
		c0.4,0,0.7-0.2,0.8-0.4V3.3z"/>
	<path id="XMLID_125_" class="st0" d="M522.7,4.5c0-1.8,1.2-2.6,2.6-2.6c1.5,0,2.5,0.8,2.5,2.6c0,1.9-1.2,2.6-2.6,2.6
		C523.7,7.1,522.7,6.3,522.7,4.5z M526.2,4.5c0-0.9-0.3-1.4-1-1.4c-0.7,0-1,0.6-1,1.4c0,0.9,0.3,1.4,1,1.4
		C525.9,5.9,526.2,5.3,526.2,4.5z"/>
	<path id="XMLID_123_" class="st0" d="M528.5,2h1.3l0.1,0.4c0.2-0.3,0.7-0.6,1.3-0.6c1.3,0,1.8,0.7,1.8,2V7h-1.5V4.1
		c0-0.8-0.2-1.1-0.8-1.1c-0.4,0-0.7,0.2-0.8,0.4V7h-1.5V2z"/>
	<path id="XMLID_120_" class="st0" d="M533.9,4.5c0-1.8,1.2-2.6,2.4-2.6c1.2,0,2.3,0.5,2.3,2.4v0.6h-3.2c0.1,0.6,0.4,1,1.3,1
		c0.8,0,1.4-0.3,1.6-0.6v1.2c-0.3,0.3-0.9,0.6-1.9,0.6C534.8,7.1,533.9,6.3,533.9,4.5z M537.2,4L537.2,4c0-0.6-0.3-1-0.9-1
		c-0.6,0-0.9,0.5-0.9,1H537.2z"/>
	<path id="XMLID_118_" class="st0" d="M539.3,3.6h2.4v1.2h-2.4V3.6z"/>
	<path id="XMLID_116_" class="st0" d="M542.5,4.5c0-1.8,1.2-2.6,2.5-2.6c0.7,0,1.3,0.2,1.5,0.4v1.3c-0.3-0.4-0.7-0.5-1.3-0.5
		c-0.8,0-1.2,0.5-1.2,1.4c0,0.9,0.4,1.4,1.2,1.4c0.6,0,1-0.2,1.3-0.5v1.3c-0.2,0.2-0.8,0.5-1.5,0.5C543.5,7.1,542.5,6.3,542.5,4.5z"
		/>
	<path id="XMLID_113_" class="st0" d="M547.1,4.5c0-1.8,1.2-2.6,2.6-2.6c1.5,0,2.5,0.8,2.5,2.6c0,1.9-1.2,2.6-2.6,2.6
		C548.2,7.1,547.1,6.3,547.1,4.5z M550.7,4.5c0-0.9-0.3-1.4-1-1.4c-0.7,0-1,0.6-1,1.4c0,0.9,0.3,1.4,1,1.4
		C550.4,5.9,550.7,5.3,550.7,4.5z"/>
	<path id="XMLID_111_" class="st0" d="M553,2h1.3l0.1,0.4c0.2-0.3,0.7-0.6,1.3-0.6c1.3,0,1.8,0.7,1.8,2V7H556V4.1
		c0-0.8-0.2-1.1-0.8-1.1c-0.4,0-0.7,0.2-0.8,0.4V7H553V2z"/>
	<path id="XMLID_109_" class="st0" d="M558.8,5.5V3.1h-0.6V2.6l0.5-0.6l0.9-1.2h0.7V2h1.2v1.2h-1.2v2.3c0,0.4,0.1,0.5,0.4,0.5
		c0.3,0,0.6-0.2,0.7-0.4v1.2c-0.2,0.2-0.5,0.4-1.1,0.4C559.2,7.1,558.8,6.5,558.8,5.5z"/>
	<path id="XMLID_107_" class="st0" d="M562.2,2h1.2l0.1,0.7c0.1-0.5,0.5-0.8,1-0.8c0.3,0,0.4,0.1,0.5,0.1v1.3
		c-0.1-0.1-0.3-0.1-0.6-0.1c-0.4,0-0.6,0.2-0.7,0.4V7h-1.5V2z"/>
	<path id="XMLID_104_" class="st0" d="M565.3,4.5c0-1.8,1.2-2.6,2.6-2.6c1.5,0,2.5,0.8,2.5,2.6c0,1.9-1.2,2.6-2.6,2.6
		C566.3,7.1,565.3,6.3,565.3,4.5z M568.9,4.5c0-0.9-0.3-1.4-1-1.4c-0.7,0-1,0.6-1,1.4c0,0.9,0.3,1.4,1,1.4
		C568.5,5.9,568.9,5.3,568.9,4.5z"/>
	<path id="XMLID_102_" class="st0" d="M571.1,5.7V0.2h1.5v5.4c0,0.3,0.1,0.4,0.3,0.4c0.2,0,0.4-0.1,0.4-0.2v1.1
		c-0.1,0.1-0.4,0.3-0.9,0.3C571.6,7.1,571.1,6.6,571.1,5.7z"/>
	<path id="XMLID_100_" class="st0" d="M574,5.7V0.2h1.5v5.4c0,0.3,0.1,0.4,0.3,0.4c0.2,0,0.4-0.1,0.4-0.2v1.1
		c-0.1,0.1-0.4,0.3-0.9,0.3C574.5,7.1,574,6.6,574,5.7z"/>
	<path id="XMLID_97_" class="st0" d="M576.6,4.5c0-1.8,1.2-2.6,2.4-2.6c1.2,0,2.3,0.5,2.3,2.4v0.6h-3.2c0.1,0.6,0.4,1,1.3,1
		c0.8,0,1.4-0.3,1.6-0.6v1.2c-0.3,0.3-0.9,0.6-1.9,0.6C577.6,7.1,576.6,6.3,576.6,4.5z M580,4L580,4c0-0.6-0.3-1-0.9-1
		c-0.6,0-0.9,0.5-0.9,1H580z"/>
	<path id="XMLID_94_" class="st0" d="M581.9,4.5c0-1.8,0.9-2.7,2.2-2.7c0.4,0,0.8,0.1,1.1,0.3v-2h1.5V7h-1.3l-0.1-0.4
		c-0.2,0.3-0.6,0.6-1.3,0.6C582.8,7.1,581.9,6.3,581.9,4.5z M585.2,3.3C585,3.1,584.7,3,584.4,3c-0.7,0-1,0.7-1,1.6s0.2,1.4,0.9,1.4
		c0.4,0,0.7-0.2,0.8-0.4V3.3z"/>
	<path id="XMLID_92_" class="st0" d="M590.1,5.5V3.1h-0.6V2.6L590,2l0.9-1.2h0.7V2h1.2v1.2h-1.2v2.3c0,0.4,0.1,0.5,0.4,0.5
		c0.3,0,0.6-0.2,0.7-0.4v1.2c-0.2,0.2-0.5,0.4-1.1,0.4C590.6,7.1,590.1,6.5,590.1,5.5z"/>
	<path id="XMLID_90_" class="st0" d="M593.6,2h1.2l0.1,0.7c0.1-0.5,0.5-0.8,1-0.8c0.3,0,0.4,0.1,0.5,0.1v1.3
		c-0.1-0.1-0.3-0.1-0.6-0.1c-0.4,0-0.6,0.2-0.7,0.4V7h-1.5V2z"/>
	<path id="XMLID_87_" class="st0" d="M597,0.8c0-0.4,0.3-0.7,0.8-0.7c0.5,0,0.8,0.3,0.8,0.7c0,0.4-0.3,0.7-0.8,0.7
		C597.3,1.5,597,1.2,597,0.8z M597,2h1.5v5H597V2z"/>
	<path id="XMLID_84_" class="st0" d="M599.3,5.6c0-1,0.7-1.4,2.1-1.6l0.7-0.1c0-0.7-0.3-0.9-1-0.9c-0.7,0-1.4,0.4-1.6,0.9V2.5
		c0.2-0.3,0.8-0.7,1.9-0.7c1.4,0,2.2,0.6,2.2,2.1v3h-1.3l-0.1-0.4c-0.1,0.3-0.5,0.6-1.2,0.6C600,7.1,599.3,6.6,599.3,5.6z
		 M602.1,4.8l-0.6,0.1c-0.7,0.1-0.9,0.3-0.9,0.7c0,0.3,0.2,0.5,0.6,0.5c0.4,0,0.7-0.2,0.9-0.3V4.8z"/>
	<path id="XMLID_82_" class="st0" d="M604.6,5.7V0.2h1.5v5.4c0,0.3,0.1,0.4,0.3,0.4c0.2,0,0.4-0.1,0.4-0.2v1.1
		c-0.1,0.1-0.4,0.3-0.9,0.3C605,7.1,604.6,6.6,604.6,5.7z"/>
	<path id="XMLID_80_" class="st0" d="M607.3,6.2c0-0.5,0.4-0.9,0.9-0.9c0.5,0,0.9,0.4,0.9,0.9c0,0.5-0.4,0.9-0.9,0.9
		C607.6,7.1,607.3,6.7,607.3,6.2z"/>
	<path id="XMLID_78_" class="st0" d="M611.7,6.8V5.3c0.2,0.3,0.6,0.5,1,0.5c0.6,0,0.9-0.3,0.9-1.1v-4h1.5v4.1c0,1.6-1,2.2-2.2,2.2
		C612.3,7.1,611.9,6.9,611.7,6.8z"/>
	<path id="XMLID_76_" class="st0" d="M618.1,3.9c0-2.1,1.3-3.2,3-3.2c1,0,1.5,0.3,1.8,0.5v1.5c-0.3-0.5-0.8-0.7-1.6-0.7
		c-1.1,0-1.6,0.7-1.6,1.9c0,1.2,0.6,2,1.6,2c0.7,0,1.3-0.2,1.6-0.7v1.4c-0.3,0.3-1,0.6-1.8,0.6C619.3,7.1,618.1,6,618.1,3.9z"/>
	<path id="XMLID_74_" class="st0" d="M623.7,5.7V0.2h1.5v5.4c0,0.3,0.1,0.4,0.3,0.4c0.2,0,0.4-0.1,0.4-0.2v1.1
		c-0.1,0.1-0.4,0.3-0.9,0.3C624.2,7.1,623.7,6.6,623.7,5.7z"/>
	<path id="XMLID_71_" class="st0" d="M626.6,0.8c0-0.4,0.3-0.7,0.8-0.7c0.5,0,0.8,0.3,0.8,0.7c0,0.4-0.3,0.7-0.8,0.7
		C626.9,1.5,626.6,1.2,626.6,0.8z M626.6,2h1.5v5h-1.5V2z"/>
	<path id="XMLID_69_" class="st0" d="M629.1,2h1.3l0.1,0.4c0.2-0.3,0.7-0.6,1.3-0.6c1.3,0,1.8,0.7,1.8,2V7h-1.5V4.1
		c0-0.8-0.2-1.1-0.8-1.1c-0.4,0-0.7,0.2-0.8,0.4V7h-1.5V2z"/>
	<path id="XMLID_67_" class="st0" d="M636.9,0.8h2.1c1.8,0,2.6,0.8,2.6,2.1c0,1.3-0.8,2.3-2.6,2.3h-0.3V4.1h0.3
		c0.7,0,1.1-0.4,1.1-1.1c0-0.7-0.4-1-1.1-1h-0.5v5h-1.5V0.8z"/>
	<path id="XMLID_65_" class="st0" d="M642.2,6.7V5.4c0.3,0.3,0.8,0.6,1.5,0.6c0.6,0,0.8-0.2,0.8-0.5c0-0.3-0.1-0.4-0.7-0.5l-0.3,0
		c-1-0.1-1.5-0.7-1.5-1.5c0-0.9,0.6-1.6,2.1-1.6c0.8,0,1.3,0.2,1.6,0.4v1.3c-0.3-0.4-0.8-0.5-1.5-0.5c-0.6,0-0.8,0.2-0.8,0.4
		s0.1,0.4,0.6,0.5l0.3,0c1.1,0.2,1.6,0.6,1.6,1.5c0,0.9-0.6,1.7-2.2,1.7C642.9,7.1,642.4,6.9,642.2,6.7z"/>
	<path id="XMLID_63_" class="st0" d="M646.4,8.6V7.4c0.2,0.2,0.5,0.4,0.9,0.4c0.3,0,0.6-0.1,0.9-0.7l-2-5.1h1.6l1,3.3l0.9-3.3h1.4
		l-1.4,4.7c-0.4,1.2-1,2.2-2.3,2.2C647,8.9,646.6,8.7,646.4,8.6z"/>
	<path id="XMLID_61_" class="st0" d="M651.3,4.5c0-1.8,1.2-2.6,2.5-2.6c0.7,0,1.3,0.2,1.5,0.4v1.3c-0.3-0.4-0.7-0.5-1.3-0.5
		c-0.8,0-1.2,0.5-1.2,1.4c0,0.9,0.4,1.4,1.2,1.4c0.6,0,1-0.2,1.3-0.5v1.3c-0.2,0.2-0.8,0.5-1.5,0.5C652.4,7.1,651.3,6.3,651.3,4.5z"
		/>
	<path id="XMLID_59_" class="st0" d="M656.2,0.2h1.5v2.2c0.2-0.3,0.7-0.5,1.3-0.5c1.3,0,1.8,0.7,1.8,2V7h-1.5V4.1
		c0-0.8-0.2-1.1-0.8-1.1c-0.4,0-0.7,0.2-0.8,0.4V7h-1.5V0.2z"/>
	<path id="XMLID_57_" class="st0" d="M661.6,6.2c0-0.5,0.4-0.9,0.9-0.9c0.5,0,0.9,0.4,0.9,0.9c0,0.5-0.4,0.9-0.9,0.9
		C661.9,7.1,661.6,6.7,661.6,6.2z"/>
	<path id="XMLID_55_" class="st0" d="M666.2,6.6l1.8-2.3c0.4-0.4,0.7-0.9,0.7-1.5c0-0.6-0.3-0.9-1-0.9c-0.6,0-1.2,0.3-1.5,0.7V1.3
		c0.3-0.3,0.9-0.6,1.8-0.6c1.5,0,2.2,0.7,2.2,2c0,1-0.6,1.8-1.2,2.4l-0.5,0.6h1.8V7h-4V6.6z"/>
	<path id="XMLID_52_" class="st0" d="M670.8,3.9c0-2.1,1.5-3.2,3.2-3.2c1.9,0,3.1,1.1,3.1,3.2c0,2.1-1.4,3.2-3.1,3.2
		C672,7.1,670.8,5.9,670.8,3.9z M675.6,3.9c0-1.3-0.7-2-1.6-2s-1.6,0.7-1.6,2c0,1.3,0.7,2,1.6,2S675.6,5.2,675.6,3.9z"/>
	<path id="XMLID_49_" class="st0" d="M677.7,3.9c0-2.1,1.5-3.2,3.2-3.2c1.9,0,3.1,1.1,3.1,3.2c0,2.1-1.4,3.2-3.1,3.2
		C679,7.1,677.7,5.9,677.7,3.9z M682.5,3.9c0-1.3-0.7-2-1.6-2s-1.6,0.7-1.6,2c0,1.3,0.7,2,1.6,2S682.5,5.2,682.5,3.9z"/>
	<path id="XMLID_47_" class="st0" d="M686.9,2.1h-2.5V0.8h4.2v0.3L686.7,7h-1.5L686.9,2.1z"/>
	<path id="XMLID_44_" class="st0" d="M689.2,8.3c0.2-0.3,0.4-0.8,0.4-1.3c-0.3-0.1-0.4-0.4-0.4-0.8c0-0.5,0.4-0.9,0.9-0.9
		c0.5,0,0.8,0.4,0.8,0.9c0,0.8-0.7,1.8-1.1,2.1L689.2,8.3z M689.2,3c0-0.5,0.4-0.9,0.9-0.9c0.5,0,0.9,0.4,0.9,0.9
		c0,0.5-0.4,0.9-0.9,0.9C689.6,3.8,689.2,3.5,689.2,3z"/>
	<path id="XMLID_41_" class="st0" d="M691.7,4.6c0-2.1,1.2-3.3,2.3-3.8h1.9v0.1c-0.9,0.4-1.8,1-2.3,2c0.2-0.1,0.5-0.2,0.8-0.2
		c1.2,0,2,0.7,2,2.1c0,1.4-0.9,2.3-2.4,2.3C692.6,7.1,691.7,6.2,691.7,4.6z M694.9,4.9c0-0.6-0.3-1-0.8-1c-0.4,0-0.7,0.2-0.8,0.3
		c0,0.2,0,0.4,0,0.6c0,0.7,0.3,1.1,0.8,1.1C694.6,5.9,694.9,5.5,694.9,4.9z"/>
	<path id="XMLID_37_" class="st0" d="M697,5.3c0-0.7,0.4-1.2,1-1.4c-0.4-0.2-0.8-0.7-0.8-1.4c0-1.1,0.9-1.8,2.3-1.8
		c1.4,0,2.1,0.7,2.1,1.8c0,0.7-0.4,1.1-0.8,1.4c0.5,0.2,0.9,0.7,0.9,1.5c0,1-0.8,1.8-2.4,1.8S697,6.3,697,5.3z M700.1,5.2
		c0-0.4-0.3-0.7-0.8-0.7c-0.6,0-0.8,0.3-0.8,0.7c0,0.4,0.3,0.7,0.8,0.7C699.9,5.9,700.1,5.6,700.1,5.2z M700.1,2.6
		c0-0.4-0.3-0.7-0.8-0.7c-0.5,0-0.7,0.3-0.7,0.7c0,0.4,0.3,0.7,0.7,0.7C699.8,3.3,700.1,3,700.1,2.6z"/>
	<path id="XMLID_35_" class="st0" d="M702.3,4.2c0-1.6,0.8-3.1,1.9-3.7h1.3c-1.1,0.6-1.9,1.9-1.9,3.7c0,1.8,0.9,3.2,1.8,3.9h-1.3
		C703,7.5,702.3,5.9,702.3,4.2z"/>
	<path id="XMLID_33_" class="st0" d="M706.5,2.6c-0.2,0.2-0.8,0.3-1.3,0.3V1.6c0.9,0,1.5-0.2,2-0.8h0.8V7h-1.4V2.6z"/>
	<path id="XMLID_30_" class="st0" d="M708.9,3.9c0-2.1,1.5-3.2,3.2-3.2c1.9,0,3.1,1.1,3.1,3.2c0,2.1-1.4,3.2-3.1,3.2
		C710.1,7.1,708.9,5.9,708.9,3.9z M713.6,3.9c0-1.3-0.7-2-1.6-2s-1.6,0.7-1.6,2c0,1.3,0.7,2,1.6,2S713.6,5.2,713.6,3.9z"/>
	<path id="XMLID_28_" class="st0" d="M716.8,4.3c0-1.8-0.8-3.2-1.8-3.8h1.2c1.1,0.6,1.9,2.2,1.9,3.8c0,1.6-0.8,3.1-1.9,3.7H715
		C716,7.4,716.8,6.1,716.8,4.3z"/>
	<path id="XMLID_25_" class="st0" d="M718.8,3c0-0.5,0.4-0.9,0.9-0.9c0.5,0,0.9,0.4,0.9,0.9c0,0.5-0.4,0.9-0.9,0.9
		C719.2,3.8,718.8,3.5,718.8,3z M718.8,6.2c0-0.5,0.4-0.9,0.9-0.9c0.5,0,0.9,0.4,0.9,0.9c0,0.5-0.4,0.9-0.9,0.9
		C719.2,7.1,718.8,6.8,718.8,6.2z"/>
	<path id="XMLID_23_" class="st0" d="M722.5,2.6c-0.2,0.2-0.8,0.3-1.3,0.3V1.6c0.9,0,1.5-0.2,2-0.8h0.8V7h-1.4V2.6z"/>
	<path id="XMLID_21_" class="st0" d="M727.6,5.8h-3V5.5l1.8-4.7h1.4l-1.3,3.7h1.2l0.2-2.1h1.2v2.1h0.6v1.3H729V7h-1.4V5.8z"/>
	<path id="XMLID_18_" class="st0" d="M730.6,6.9c0.9-0.4,1.8-1,2.3-2c-0.2,0.1-0.5,0.2-0.8,0.2c-1.2,0-2-0.7-2-2.1s0.9-2.3,2.4-2.3
		c1.4,0,2.3,0.9,2.3,2.5c0,2.1-1.2,3.4-2.2,3.8L730.6,6.9L730.6,6.9z M733.2,3.5c0-0.2,0-0.4,0-0.6c0-0.7-0.3-1.1-0.8-1.1
		c-0.5,0-0.8,0.4-0.8,1c0,0.6,0.3,1,0.8,1C732.8,3.9,733.1,3.7,733.2,3.5z"/>
	<path id="XMLID_16_" class="st0" d="M735.5,6.6l1.8-2.3c0.4-0.4,0.7-0.9,0.7-1.5c0-0.6-0.3-0.9-1-0.9c-0.6,0-1.2,0.3-1.5,0.7V1.3
		c0.3-0.3,0.9-0.6,1.8-0.6c1.5,0,2.2,0.7,2.2,2c0,1-0.6,1.8-1.2,2.4l-0.5,0.6h1.8V7h-4V6.6z"/>
	<path id="XMLID_14_" class="st0" d="M740.3,3.6h5.4v1.1h-5.4V3.6z"/>
	<path id="XMLID_12_" class="st0" d="M747.6,2.6c-0.2,0.2-0.8,0.3-1.3,0.3V1.6c0.9,0,1.5-0.2,2-0.8h0.8V7h-1.4V2.6z"/>
	<path id="XMLID_10_" class="st0" d="M750,6.8V5.5c0.3,0.2,0.7,0.4,1.4,0.4c0.8,0,1.2-0.3,1.2-0.8c0-0.5-0.3-0.7-1.2-0.7
		c-0.5,0-0.9,0.1-1.2,0.2l0.1-3.8h3.6v1.3h-2.3l0,1.2c0.1,0,0.3,0,0.4,0c1.4,0,2.1,0.6,2.1,1.8c0,1.3-1.1,2.1-2.6,2.1
		C750.7,7.1,750.3,7,750,6.8z"/>
	<path id="XMLID_7_" class="st0" d="M754.8,3.9c0-2.1,1.5-3.2,3.2-3.2c1.9,0,3.1,1.1,3.1,3.2c0,2.1-1.4,3.2-3.1,3.2
		C756,7.1,754.8,5.9,754.8,3.9z M759.5,3.9c0-1.3-0.7-2-1.6-2s-1.6,0.7-1.6,2c0,1.3,0.7,2,1.6,2S759.5,5.2,759.5,3.9z"/>
	<path id="XMLID_4_" class="st0" d="M761.7,3.9c0-2.1,1.5-3.2,3.2-3.2c1.9,0,3.1,1.1,3.1,3.2c0,2.1-1.4,3.2-3.1,3.2
		C762.9,7.1,761.7,5.9,761.7,3.9z M766.4,3.9c0-1.3-0.7-2-1.6-2s-1.6,0.7-1.6,2c0,1.3,0.7,2,1.6,2S766.4,5.2,766.4,3.9z"/>
	<path id="XMLID_2_" class="st0" d="M768.5,6.2c0-0.5,0.4-0.9,0.9-0.9c0.5,0,0.9,0.4,0.9,0.9c0,0.5-0.4,0.9-0.9,0.9
		C768.9,7.1,768.5,6.7,768.5,6.2z"/>
</g>
</svg>
