<!-- Generator: Adobe Illustrator 22.1.0, SVG Export Plug-In  -->
<svg version="1.1"
	 xmlns="http://www.w3.org/2000/svg" xmlns:xlink="http://www.w3.org/1999/xlink" xmlns:a="http://ns.adobe.com/AdobeSVGViewerExtensions/3.0/"
	 x="0px" y="0px" width="546.1px" height="8.9px" viewBox="0 0 546.1 8.9" style="enable-background:new 0 0 546.1 8.9;"
	 xml:space="preserve">
<style type="text/css">
	.st0{fill:#231F20;}
</style>
<defs>
</defs>
<g id="XMLID_1_">
	<g id="XMLID_3_">
		<path id="XMLID_282_" class="st0" d="M0,6.7V5.2c0.3,0.4,0.9,0.7,1.6,0.7c0.7,0,1-0.3,1-0.7c0-0.4-0.2-0.5-0.8-0.6l-0.2,0
			C0.7,4.3,0,3.7,0,2.6c0-1.2,0.9-2,2.3-2c0.9,0,1.4,0.2,1.7,0.4v1.5C3.7,2.2,3.1,1.9,2.3,1.9c-0.6,0-0.9,0.2-0.9,0.6
			c0,0.4,0.1,0.5,0.7,0.7l0.2,0c1,0.2,1.7,0.7,1.7,1.8c0,1.2-0.9,2.1-2.4,2.1C0.8,7.1,0.3,6.9,0,6.7z"/>
		<path id="XMLID_280_" class="st0" d="M5.2,5.5V3.1H4.7V2.6L5.1,2L6,0.8h0.7V2h1.2v1.2H6.7v2.3c0,0.4,0.1,0.5,0.4,0.5
			c0.3,0,0.6-0.2,0.7-0.4v1.2C7.7,6.9,7.4,7.1,6.7,7.1C5.7,7.1,5.2,6.5,5.2,5.5z"/>
		<path id="XMLID_277_" class="st0" d="M8.4,5.6c0-1,0.7-1.4,2.1-1.6l0.7-0.1c0-0.7-0.3-0.9-1-0.9C9.5,3,8.9,3.3,8.6,3.9V2.5
			c0.2-0.3,0.8-0.7,1.9-0.7c1.4,0,2.2,0.6,2.2,2.1v3h-1.3l-0.1-0.4c-0.1,0.3-0.5,0.6-1.2,0.6C9.1,7.1,8.4,6.6,8.4,5.6z M11.2,4.8
			l-0.6,0.1C10,5.1,9.8,5.2,9.8,5.6c0,0.3,0.2,0.5,0.6,0.5c0.4,0,0.7-0.2,0.9-0.3V4.8z"/>
		<path id="XMLID_275_" class="st0" d="M13.7,0.2h1.5v2.2c0.2-0.3,0.7-0.5,1.3-0.5c1.3,0,1.8,0.7,1.8,2V7h-1.5V4.1
			C16.8,3.3,16.6,3,16,3c-0.4,0-0.7,0.2-0.8,0.4V7h-1.5V0.2z"/>
		<path id="XMLID_273_" class="st0" d="M19.2,5.7V0.2h1.5v5.4c0,0.3,0.1,0.4,0.3,0.4c0.2,0,0.4-0.1,0.4-0.2v1.1
			C21.3,7,21,7.1,20.6,7.1C19.7,7.1,19.2,6.6,19.2,5.7z"/>
		<path id="XMLID_271_" class="st0" d="M21.8,1V0.8c0-0.4,0.3-0.7,0.7-0.7c0.4,0,0.7,0.3,0.7,0.7V1l-0.4,1.8h-0.6L21.8,1z"/>
		<path id="XMLID_269_" class="st0" d="M23.9,6.7V5.4C24.2,5.7,24.7,6,25.4,6c0.6,0,0.8-0.2,0.8-0.5c0-0.3-0.1-0.4-0.7-0.5l-0.3,0
			c-1-0.1-1.5-0.7-1.5-1.5c0-0.9,0.6-1.6,2.1-1.6c0.8,0,1.3,0.2,1.6,0.4v1.3C27.1,3.2,26.6,3,25.9,3c-0.6,0-0.8,0.2-0.8,0.4
			s0.1,0.4,0.6,0.5l0.3,0c1.1,0.2,1.6,0.6,1.6,1.5c0,0.9-0.6,1.7-2.2,1.7C24.7,7.1,24.2,6.9,23.9,6.7z"/>
		<path id="XMLID_267_" class="st0" d="M30.6,0.8h4.2V2h-2.7v1.2h1.7v1.2h-1.7v1.3h2.7V7h-4.2V0.8z"/>
		<path id="XMLID_265_" class="st0" d="M35.5,6.7V5.4C35.8,5.7,36.3,6,37,6c0.6,0,0.8-0.2,0.8-0.5c0-0.3-0.1-0.4-0.7-0.5l-0.3,0
			c-1-0.1-1.5-0.7-1.5-1.5c0-0.9,0.6-1.6,2.1-1.6c0.8,0,1.3,0.2,1.6,0.4v1.3C38.7,3.2,38.2,3,37.5,3c-0.6,0-0.8,0.2-0.8,0.4
			s0.1,0.4,0.6,0.5l0.3,0c1.1,0.2,1.6,0.6,1.6,1.5c0,0.9-0.6,1.7-2.2,1.7C36.3,7.1,35.7,6.9,35.5,6.7z"/>
		<path id="XMLID_263_" class="st0" d="M39.9,6.7V5.4C40.2,5.7,40.7,6,41.3,6c0.6,0,0.8-0.2,0.8-0.5c0-0.3-0.1-0.4-0.7-0.5l-0.3,0
			c-1-0.1-1.5-0.7-1.5-1.5c0-0.9,0.6-1.6,2.1-1.6c0.8,0,1.3,0.2,1.6,0.4v1.3C43.1,3.2,42.5,3,41.9,3c-0.6,0-0.8,0.2-0.8,0.4
			s0.1,0.4,0.6,0.5l0.3,0c1.1,0.2,1.6,0.6,1.6,1.5c0,0.9-0.6,1.7-2.2,1.7C40.6,7.1,40.1,6.9,39.9,6.7z"/>
		<path id="XMLID_259_" class="st0" d="M44.1,4.5c0-1.8,1.2-2.6,2.4-2.6c1.2,0,2.3,0.5,2.3,2.4v0.6h-3.2c0.1,0.6,0.4,1,1.4,1
			c0.8,0,1.4-0.3,1.6-0.6v1.2c-0.3,0.3-0.9,0.6-1.9,0.6C45.1,7.1,44.1,6.3,44.1,4.5z M47.4,4L47.4,4c0-0.6-0.3-1-0.9-1
			c-0.6,0-0.9,0.5-0.9,1H47.4z"/>
		<path id="XMLID_255_" class="st0" d="M49.6,2h1.3L51,2.4c0.2-0.3,0.7-0.6,1.3-0.6c1.3,0,1.8,0.7,1.8,2V7h-1.5V4.1
			c0-0.8-0.2-1.1-0.8-1.1c-0.4,0-0.7,0.2-0.8,0.4V7h-1.5V2z"/>
		<path id="XMLID_253_" class="st0" d="M55.4,5.5V3.1h-0.6V2.6L55.3,2l0.9-1.2h0.7V2h1.2v1.2h-1.2v2.3c0,0.4,0.1,0.5,0.4,0.5
			c0.3,0,0.6-0.2,0.7-0.4v1.2c-0.2,0.2-0.5,0.4-1.1,0.4C55.9,7.1,55.4,6.5,55.4,5.5z"/>
		<path id="XMLID_250_" class="st0" d="M58.8,0.8c0-0.4,0.3-0.7,0.8-0.7c0.5,0,0.8,0.3,0.8,0.7c0,0.4-0.3,0.7-0.8,0.7
			C59.1,1.5,58.8,1.2,58.8,0.8z M58.9,2h1.5v5h-1.5V2z"/>
		<path id="XMLID_247_" class="st0" d="M61.1,5.6c0-1,0.7-1.4,2.1-1.6L64,3.9C64,3.2,63.6,3,63,3c-0.7,0-1.4,0.4-1.6,0.9V2.5
			c0.2-0.3,0.8-0.7,1.9-0.7c1.4,0,2.2,0.6,2.2,2.1v3h-1.3L64,6.5c-0.1,0.3-0.5,0.6-1.2,0.6C61.8,7.1,61.1,6.6,61.1,5.6z M64,4.8
			l-0.6,0.1c-0.7,0.1-0.9,0.3-0.9,0.7c0,0.3,0.2,0.5,0.6,0.5c0.4,0,0.7-0.2,0.9-0.3V4.8z"/>
		<path id="XMLID_245_" class="st0" d="M66.4,5.7V0.2h1.5v5.4c0,0.3,0.1,0.4,0.3,0.4c0.2,0,0.4-0.1,0.4-0.2v1.1
			c-0.1,0.1-0.4,0.3-0.9,0.3C66.9,7.1,66.4,6.6,66.4,5.7z"/>
		<path id="XMLID_243_" class="st0" d="M71.5,0.8h2.1c1.8,0,2.6,0.8,2.6,2.1c0,1.3-0.8,2.3-2.6,2.3h-0.3V4.1h0.3
			c0.7,0,1.1-0.4,1.1-1.1c0-0.7-0.4-1-1.1-1H73v5h-1.5V0.8z"/>
		<path id="XMLID_241_" class="st0" d="M76.8,6.7V5.4C77.1,5.7,77.6,6,78.3,6c0.6,0,0.8-0.2,0.8-0.5c0-0.3-0.1-0.4-0.7-0.5l-0.3,0
			c-1-0.1-1.5-0.7-1.5-1.5c0-0.9,0.6-1.6,2.1-1.6c0.8,0,1.3,0.2,1.6,0.4v1.3C80,3.2,79.5,3,78.8,3C78.2,3,78,3.1,78,3.4
			s0.1,0.4,0.6,0.5l0.3,0c1.1,0.2,1.6,0.6,1.6,1.5c0,0.9-0.6,1.7-2.2,1.7C77.6,7.1,77,6.9,76.8,6.7z"/>
		<path id="XMLID_239_" class="st0" d="M81,8.6V7.4c0.2,0.2,0.5,0.4,0.9,0.4c0.3,0,0.6-0.1,0.9-0.7l-2-5.1h1.6l1,3.3L84.3,2h1.4
			l-1.4,4.7c-0.4,1.2-1,2.2-2.3,2.2C81.6,8.9,81.2,8.7,81,8.6z"/>
		<path id="XMLID_237_" class="st0" d="M86,4.5c0-1.8,1.2-2.6,2.5-2.6c0.7,0,1.3,0.2,1.5,0.4v1.3c-0.3-0.4-0.7-0.5-1.3-0.5
			c-0.8,0-1.2,0.5-1.2,1.4c0,0.9,0.4,1.4,1.2,1.4c0.6,0,1-0.2,1.3-0.5v1.3c-0.2,0.2-0.8,0.5-1.5,0.5C87,7.1,86,6.3,86,4.5z"/>
		<path id="XMLID_235_" class="st0" d="M90.8,0.2h1.5v2.2c0.2-0.3,0.7-0.5,1.3-0.5c1.3,0,1.8,0.7,1.8,2V7h-1.5V4.1
			c0-0.8-0.2-1.1-0.8-1.1c-0.4,0-0.7,0.2-0.8,0.4V7h-1.5V0.2z"/>
		<path id="XMLID_232_" class="st0" d="M96.1,4.5c0-1.8,1.2-2.6,2.6-2.6c1.4,0,2.5,0.8,2.5,2.6c0,1.9-1.2,2.6-2.6,2.6
			C97.1,7.1,96.1,6.3,96.1,4.5z M99.6,4.5c0-0.9-0.3-1.4-1-1.4c-0.7,0-1,0.6-1,1.4c0,0.9,0.3,1.4,1,1.4C99.3,5.9,99.6,5.3,99.6,4.5z
			"/>
		<path id="XMLID_229_" class="st0" d="M101.9,2h1.3l0.1,0.4c0.2-0.3,0.6-0.6,1.3-0.6c1.3,0,2,0.7,2,2.5c0,1.8-1,2.8-2.2,2.8
			c-0.4,0-0.8-0.1-1.1-0.3v1.9h-1.5V2z M105.2,4.4c0-0.9-0.2-1.4-0.9-1.4c-0.4,0-0.7,0.2-0.8,0.4v2.3c0.2,0.2,0.5,0.3,0.8,0.3
			C104.9,6,105.2,5.3,105.2,4.4z"/>
		<path id="XMLID_227_" class="st0" d="M107.5,0.2h1.5v2.2c0.2-0.3,0.7-0.5,1.3-0.5c1.3,0,1.8,0.7,1.8,2V7h-1.5V4.1
			c0-0.8-0.2-1.1-0.8-1.1c-0.4,0-0.7,0.2-0.8,0.4V7h-1.5V0.2z"/>
		<path id="XMLID_224_" class="st0" d="M112.8,5.6c0-1,0.7-1.4,2.1-1.6l0.7-0.1c0-0.7-0.3-0.9-1-0.9c-0.7,0-1.4,0.4-1.6,0.9V2.5
			c0.2-0.3,0.8-0.7,1.9-0.7c1.4,0,2.2,0.6,2.2,2.1v3h-1.3l-0.1-0.4c-0.1,0.3-0.5,0.6-1.2,0.6C113.5,7.1,112.8,6.6,112.8,5.6z
			 M115.6,4.8l-0.6,0.1c-0.7,0.1-0.9,0.3-0.9,0.7c0,0.3,0.2,0.5,0.6,0.5c0.4,0,0.7-0.2,0.9-0.3V4.8z"/>
		<path id="XMLID_222_" class="st0" d="M118.1,2h1.2l0.1,0.7c0.1-0.5,0.5-0.8,1-0.8c0.3,0,0.4,0.1,0.5,0.1v1.3
			c-0.1-0.1-0.3-0.1-0.6-0.1c-0.4,0-0.6,0.2-0.7,0.4V7h-1.5V2z"/>
		<path id="XMLID_220_" class="st0" d="M121.6,2h1.3l0.1,0.4c0.2-0.3,0.7-0.6,1.3-0.6c0.7,0,1.2,0.2,1.4,0.7
			c0.3-0.3,0.7-0.7,1.5-0.7c1.2,0,1.7,0.7,1.7,2V7h-1.5V4.1c0-0.8-0.2-1.1-0.7-1.1c-0.4,0-0.7,0.2-0.8,0.4c0,0.1,0,0.3,0,0.5V7h-1.5
			V4.1c0-0.8-0.2-1.1-0.7-1.1c-0.4,0-0.6,0.2-0.7,0.4V7h-1.5V2z"/>
		<path id="XMLID_217_" class="st0" d="M129.6,5.6c0-1,0.7-1.4,2.1-1.6l0.7-0.1c0-0.7-0.3-0.9-1-0.9c-0.7,0-1.4,0.4-1.6,0.9V2.5
			c0.2-0.3,0.8-0.7,1.9-0.7c1.4,0,2.2,0.6,2.2,2.1v3h-1.3l-0.1-0.4c-0.1,0.3-0.5,0.6-1.2,0.6C130.3,7.1,129.6,6.6,129.6,5.6z
			 M132.4,4.8l-0.6,0.1c-0.7,0.1-0.9,0.3-0.9,0.7c0,0.3,0.2,0.5,0.6,0.5c0.4,0,0.7-0.2,0.9-0.3V4.8z"/>
		<path id="XMLID_215_" class="st0" d="M134.6,4.5c0-1.8,1.2-2.6,2.5-2.6c0.7,0,1.3,0.2,1.5,0.4v1.3c-0.3-0.4-0.7-0.5-1.3-0.5
			c-0.8,0-1.2,0.5-1.2,1.4c0,0.9,0.4,1.4,1.2,1.4c0.6,0,1-0.2,1.3-0.5v1.3c-0.2,0.2-0.8,0.5-1.5,0.5C135.6,7.1,134.6,6.3,134.6,4.5z
			"/>
		<path id="XMLID_212_" class="st0" d="M139.2,4.5c0-1.8,1.2-2.6,2.6-2.6c1.4,0,2.5,0.8,2.5,2.6c0,1.9-1.2,2.6-2.6,2.6
			C140.3,7.1,139.2,6.3,139.2,4.5z M142.8,4.5c0-0.9-0.3-1.4-1-1.4c-0.7,0-1,0.6-1,1.4c0,0.9,0.3,1.4,1,1.4
			C142.5,5.9,142.8,5.3,142.8,4.5z"/>
		<path id="XMLID_210_" class="st0" d="M145,5.7V0.2h1.5v5.4c0,0.3,0.1,0.4,0.3,0.4c0.2,0,0.4-0.1,0.4-0.2v1.1
			c-0.1,0.1-0.4,0.3-0.9,0.3C145.5,7.1,145,6.6,145,5.7z"/>
		<path id="XMLID_207_" class="st0" d="M147.7,4.5c0-1.8,1.2-2.6,2.6-2.6c1.4,0,2.5,0.8,2.5,2.6c0,1.9-1.2,2.6-2.6,2.6
			C148.7,7.1,147.7,6.3,147.7,4.5z M151.2,4.5c0-0.9-0.3-1.4-1-1.4c-0.7,0-1,0.6-1,1.4c0,0.9,0.3,1.4,1,1.4
			C150.9,5.9,151.2,5.3,151.2,4.5z"/>
		<path id="XMLID_203_" class="st0" d="M153.3,8.4V7.3c0.5,0.3,1.1,0.5,2.1,0.5c1.2,0,1.7-0.1,1.7-0.5c0-0.3-0.3-0.4-1-0.4
			c-0.7,0-1.9,0.2-2.2,0.3v-1l0.7-1c-0.7-0.2-1.2-0.8-1.2-1.6c0-1.1,0.9-1.8,2.2-1.8c0.6,0,1.1,0.1,1.4,0.4c0.2-0.3,0.5-0.4,1-0.4
			c0.1,0,0.3,0,0.4,0.1V3c-0.1-0.1-0.2-0.1-0.3-0.1c-0.2,0-0.3,0.1-0.4,0.1c0.1,0.2,0.1,0.4,0.1,0.6c0,1.1-0.9,1.7-2.2,1.7h-0.1
			L155,5.9c0.2-0.1,0.8-0.1,1.3-0.1c1.3,0,2.1,0.3,2.1,1.4c0,1.1-1,1.7-2.9,1.7C154.5,8.9,153.7,8.7,153.3,8.4z M156.3,3.6
			c0-0.4-0.3-0.7-0.8-0.7c-0.5,0-0.8,0.2-0.8,0.7c0,0.4,0.3,0.7,0.8,0.7C156,4.2,156.3,4,156.3,3.6z"/>
		<path id="XMLID_201_" class="st0" d="M158.7,8.6V7.4c0.2,0.2,0.5,0.4,0.9,0.4c0.3,0,0.6-0.1,0.9-0.7l-2-5.1h1.6l1,3.3L162,2h1.4
			L162,6.7c-0.4,1.2-1,2.2-2.3,2.2C159.2,8.9,158.9,8.7,158.7,8.6z"/>
		<path id="XMLID_198_" class="st0" d="M163.9,3c0-0.5,0.4-0.9,0.9-0.9c0.5,0,0.9,0.4,0.9,0.9c0,0.5-0.4,0.9-0.9,0.9
			C164.3,3.8,163.9,3.5,163.9,3z M163.9,6.2c0-0.5,0.4-0.9,0.9-0.9c0.5,0,0.9,0.4,0.9,0.9c0,0.5-0.4,0.9-0.9,0.9
			C164.3,7.1,163.9,6.8,163.9,6.2z"/>
		<path id="XMLID_195_" class="st0" d="M168.8,1.4l-0.4-0.6h1.8l2.5,3.6h0V0.8h1.3V7h-1.2l-2.7-3.8h0V7h-1.4V1.4z"/>
		<path id="XMLID_191_" class="st0" d="M174.9,4.5c0-1.8,1.2-2.6,2.4-2.6c1.2,0,2.3,0.5,2.3,2.4v0.6h-3.2c0.1,0.6,0.4,1,1.4,1
			c0.8,0,1.4-0.3,1.6-0.6v1.2c-0.3,0.3-0.9,0.6-1.9,0.6C175.9,7.1,174.9,6.3,174.9,4.5z M178.3,4L178.3,4c0-0.6-0.3-1-0.9-1
			c-0.6,0-0.9,0.5-0.9,1H178.3z"/>
		<path id="XMLID_189_" class="st0" d="M180.4,5.1V2h1.5v2.8c0,0.8,0.2,1.1,0.7,1.1c0.4,0,0.7-0.2,0.8-0.4V2h1.5v5h-1.3l-0.1-0.4
			c-0.2,0.3-0.7,0.6-1.3,0.6C180.9,7.1,180.4,6.4,180.4,5.1z"/>
		<path id="XMLID_187_" class="st0" d="M185.9,2h1.2l0.1,0.7c0.1-0.5,0.5-0.8,1-0.8c0.3,0,0.4,0.1,0.5,0.1v1.3
			c-0.1-0.1-0.3-0.1-0.6-0.1c-0.4,0-0.6,0.2-0.7,0.4V7h-1.5V2z"/>
		<path id="XMLID_184_" class="st0" d="M189.1,4.5c0-1.8,1.2-2.6,2.6-2.6c1.4,0,2.5,0.8,2.5,2.6c0,1.9-1.2,2.6-2.6,2.6
			C190.1,7.1,189.1,6.3,189.1,4.5z M192.6,4.5c0-0.9-0.3-1.4-1-1.4c-0.7,0-1,0.6-1,1.4c0,0.9,0.3,1.4,1,1.4
			C192.3,5.9,192.6,5.3,192.6,4.5z"/>
		<path id="XMLID_182_" class="st0" d="M194.8,6.7V5.4c0.3,0.3,0.8,0.6,1.5,0.6c0.6,0,0.8-0.2,0.8-0.5c0-0.3-0.1-0.4-0.7-0.5l-0.3,0
			c-1-0.1-1.5-0.7-1.5-1.5c0-0.9,0.6-1.6,2.1-1.6c0.8,0,1.3,0.2,1.6,0.4v1.3C198,3.2,197.5,3,196.8,3c-0.6,0-0.8,0.2-0.8,0.4
			s0.1,0.4,0.6,0.5l0.3,0c1.1,0.2,1.6,0.6,1.6,1.5c0,0.9-0.6,1.7-2.2,1.7C195.6,7.1,195.1,6.9,194.8,6.7z"/>
		<path id="XMLID_180_" class="st0" d="M199,4.5c0-1.8,1.2-2.6,2.5-2.6c0.7,0,1.3,0.2,1.5,0.4v1.3c-0.3-0.4-0.7-0.5-1.3-0.5
			c-0.8,0-1.2,0.5-1.2,1.4c0,0.9,0.4,1.4,1.2,1.4c0.6,0,1-0.2,1.3-0.5v1.3c-0.2,0.2-0.8,0.5-1.5,0.5C200,7.1,199,6.3,199,4.5z"/>
		<path id="XMLID_177_" class="st0" d="M203.9,0.8c0-0.4,0.3-0.7,0.8-0.7c0.5,0,0.8,0.3,0.8,0.7c0,0.4-0.3,0.7-0.8,0.7
			C204.1,1.5,203.9,1.2,203.9,0.8z M203.9,2h1.5v5h-1.5V2z"/>
		<path id="XMLID_174_" class="st0" d="M206.2,4.5c0-1.8,1.2-2.6,2.4-2.6c1.2,0,2.3,0.5,2.3,2.4v0.6h-3.2c0.1,0.6,0.4,1,1.4,1
			c0.8,0,1.4-0.3,1.6-0.6v1.2c-0.3,0.3-0.9,0.6-1.9,0.6C207.1,7.1,206.2,6.3,206.2,4.5z M209.5,4L209.5,4c0-0.6-0.3-1-0.9-1
			c-0.6,0-0.9,0.5-0.9,1H209.5z"/>
		<path id="XMLID_172_" class="st0" d="M211.7,2h1.3l0.1,0.4c0.2-0.3,0.7-0.6,1.3-0.6c1.3,0,1.8,0.7,1.8,2V7h-1.5V4.1
			c0-0.8-0.2-1.1-0.8-1.1c-0.4,0-0.7,0.2-0.8,0.4V7h-1.5V2z"/>
		<path id="XMLID_170_" class="st0" d="M217.5,5.5V3.1h-0.6V2.6l0.5-0.6l0.9-1.2h0.7V2h1.2v1.2H219v2.3c0,0.4,0.1,0.5,0.4,0.5
			c0.3,0,0.6-0.2,0.7-0.4v1.2c-0.2,0.2-0.5,0.4-1.1,0.4C217.9,7.1,217.5,6.5,217.5,5.5z"/>
		<path id="XMLID_167_" class="st0" d="M220.9,0.8c0-0.4,0.3-0.7,0.8-0.7c0.5,0,0.8,0.3,0.8,0.7c0,0.4-0.3,0.7-0.8,0.7
			C221.2,1.5,220.9,1.2,220.9,0.8z M220.9,2h1.5v5h-1.5V2z"/>
		<path id="XMLID_164_" class="st0" d="M223.7,3.1h-0.6V2.6l0.5-0.5c-0.1-0.2-0.2-0.4-0.2-0.7c0-0.9,0.8-1.4,1.7-1.4
			c0.6,0,0.9,0.2,1,0.3v1.2c-0.1-0.2-0.4-0.4-0.7-0.4c-0.3,0-0.5,0.2-0.5,0.5c0,0.2,0.1,0.3,0.1,0.4h3.1v5h-1.5V3.1h-1.5V7h-1.5V3.1
			z M226.6,0.8c0-0.4,0.3-0.7,0.8-0.7c0.5,0,0.8,0.3,0.8,0.7c0,0.4-0.3,0.7-0.8,0.7C226.9,1.5,226.6,1.3,226.6,0.8z"/>
		<path id="XMLID_162_" class="st0" d="M228.9,4.5c0-1.8,1.2-2.6,2.5-2.6c0.7,0,1.3,0.2,1.5,0.4v1.3c-0.3-0.4-0.7-0.5-1.3-0.5
			c-0.8,0-1.2,0.5-1.2,1.4c0,0.9,0.4,1.4,1.2,1.4c0.6,0,1-0.2,1.3-0.5v1.3c-0.2,0.2-0.8,0.5-1.5,0.5C229.9,7.1,228.9,6.3,228.9,4.5z
			"/>
		<path id="XMLID_158_" class="st0" d="M236,0.8h2.1c1.8,0,2.5,0.5,2.5,1.6c0,0.9-0.5,1.3-1.2,1.4v0c0.7,0.1,1.2,0.5,1.2,1.4
			c0,1-0.7,1.7-2.5,1.7H236V0.8z M238.1,3.3c0.7,0,0.9-0.3,0.9-0.7c0-0.4-0.3-0.6-0.9-0.6h-0.6v1.3H238.1z M238.2,5.8
			c0.7,0,1-0.3,1-0.7c0-0.4-0.2-0.7-1-0.7h-0.7v1.4H238.2z"/>
		<path id="XMLID_155_" class="st0" d="M241.3,5.6c0-1,0.7-1.4,2.1-1.6l0.7-0.1c0-0.7-0.3-0.9-1-0.9c-0.7,0-1.4,0.4-1.6,0.9V2.5
			c0.2-0.3,0.8-0.7,1.9-0.7c1.4,0,2.2,0.6,2.2,2.1v3h-1.3l-0.1-0.4c-0.1,0.3-0.5,0.6-1.2,0.6C242,7.1,241.3,6.6,241.3,5.6z
			 M244.1,4.8l-0.6,0.1c-0.7,0.1-0.9,0.3-0.9,0.7c0,0.3,0.2,0.5,0.6,0.5c0.4,0,0.7-0.2,0.9-0.3V4.8z"/>
		<path id="XMLID_153_" class="st0" d="M246.4,6.7V5.4c0.3,0.3,0.8,0.6,1.5,0.6c0.6,0,0.8-0.2,0.8-0.5c0-0.3-0.1-0.4-0.7-0.5l-0.3,0
			c-1-0.1-1.5-0.7-1.5-1.5c0-0.9,0.6-1.6,2.1-1.6c0.8,0,1.3,0.2,1.6,0.4v1.3c-0.3-0.4-0.8-0.5-1.5-0.5c-0.6,0-0.8,0.2-0.8,0.4
			s0.1,0.4,0.6,0.5l0.3,0c1.1,0.2,1.6,0.6,1.6,1.5c0,0.9-0.6,1.7-2.2,1.7C247.2,7.1,246.7,6.9,246.4,6.7z"/>
		<path id="XMLID_150_" class="st0" d="M250.9,0.8c0-0.4,0.3-0.7,0.8-0.7c0.5,0,0.8,0.3,0.8,0.7c0,0.4-0.3,0.7-0.8,0.7
			C251.2,1.5,250.9,1.2,250.9,0.8z M250.9,2h1.5v5h-1.5V2z"/>
		<path id="XMLID_148_" class="st0" d="M253.3,6.7V5.4c0.3,0.3,0.8,0.6,1.5,0.6c0.6,0,0.8-0.2,0.8-0.5c0-0.3-0.1-0.4-0.7-0.5l-0.3,0
			c-1-0.1-1.5-0.7-1.5-1.5c0-0.9,0.6-1.6,2.1-1.6c0.8,0,1.3,0.2,1.6,0.4v1.3C256.5,3.2,256,3,255.3,3c-0.6,0-0.8,0.2-0.8,0.4
			s0.1,0.4,0.6,0.5l0.3,0c1.1,0.2,1.6,0.6,1.6,1.5c0,0.9-0.6,1.7-2.2,1.7C254.1,7.1,253.6,6.9,253.3,6.7z"/>
		<path id="XMLID_145_" class="st0" d="M259.7,5.6c0-1,0.7-1.4,2.1-1.6l0.7-0.1c0-0.7-0.3-0.9-1-0.9c-0.7,0-1.4,0.4-1.6,0.9V2.5
			c0.2-0.3,0.8-0.7,1.9-0.7c1.4,0,2.2,0.6,2.2,2.1v3h-1.3l-0.1-0.4c-0.1,0.3-0.5,0.6-1.2,0.6C260.4,7.1,259.7,6.6,259.7,5.6z
			 M262.6,4.8L262,4.9c-0.7,0.1-0.9,0.3-0.9,0.7c0,0.3,0.2,0.5,0.6,0.5c0.4,0,0.7-0.2,0.9-0.3V4.8z"/>
		<path id="XMLID_143_" class="st0" d="M265,2h1.3l0.1,0.4c0.2-0.3,0.7-0.6,1.3-0.6c1.3,0,1.8,0.7,1.8,2V7h-1.5V4.1
			c0-0.8-0.2-1.1-0.8-1.1c-0.4,0-0.7,0.2-0.8,0.4V7H265V2z"/>
		<path id="XMLID_140_" class="st0" d="M270.4,4.5c0-1.8,0.9-2.7,2.2-2.7c0.4,0,0.8,0.1,1.1,0.3v-2h1.5V7h-1.3l-0.1-0.4
			c-0.2,0.3-0.6,0.6-1.3,0.6C271.2,7.1,270.4,6.3,270.4,4.5z M273.7,3.3c-0.2-0.2-0.5-0.3-0.8-0.3c-0.7,0-1,0.7-1,1.6
			s0.2,1.4,0.9,1.4c0.4,0,0.7-0.2,0.8-0.4V3.3z"/>
		<path id="XMLID_138_" class="st0" d="M278.4,0.8h2.1c1.8,0,2.6,0.8,2.6,2.1c0,1.3-0.8,2.3-2.6,2.3h-0.3V4.1h0.3
			c0.7,0,1.1-0.4,1.1-1.1c0-0.7-0.4-1-1.1-1h-0.5v5h-1.5V0.8z"/>
		<path id="XMLID_136_" class="st0" d="M283.8,2h1.2l0.1,0.7c0.1-0.5,0.5-0.8,1-0.8c0.3,0,0.4,0.1,0.5,0.1v1.3
			c-0.1-0.1-0.3-0.1-0.6-0.1c-0.4,0-0.6,0.2-0.7,0.4V7h-1.5V2z"/>
		<path id="XMLID_133_" class="st0" d="M286.9,5.6c0-1,0.7-1.4,2.1-1.6l0.7-0.1c0-0.7-0.3-0.9-1-0.9c-0.7,0-1.4,0.4-1.6,0.9V2.5
			c0.2-0.3,0.8-0.7,1.9-0.7c1.4,0,2.2,0.6,2.2,2.1v3h-1.3l-0.1-0.4c-0.1,0.3-0.5,0.6-1.2,0.6C287.6,7.1,286.9,6.6,286.9,5.6z
			 M289.8,4.8l-0.6,0.1c-0.7,0.1-0.9,0.3-0.9,0.7c0,0.3,0.2,0.5,0.6,0.5c0.4,0,0.7-0.2,0.9-0.3V4.8z"/>
		<path id="XMLID_131_" class="st0" d="M292,4.5c0-1.8,1.2-2.6,2.5-2.6c0.7,0,1.3,0.2,1.5,0.4v1.3c-0.3-0.4-0.7-0.5-1.3-0.5
			c-0.8,0-1.2,0.5-1.2,1.4c0,0.9,0.4,1.4,1.2,1.4c0.6,0,1-0.2,1.3-0.5v1.3c-0.2,0.2-0.8,0.5-1.5,0.5C293,7.1,292,6.3,292,4.5z"/>
		<path id="XMLID_129_" class="st0" d="M297.1,5.5V3.1h-0.6V2.6L297,2l0.9-1.2h0.7V2h1.2v1.2h-1.2v2.3c0,0.4,0.1,0.5,0.4,0.5
			c0.3,0,0.6-0.2,0.7-0.4v1.2c-0.2,0.2-0.5,0.4-1.1,0.4C297.5,7.1,297.1,6.5,297.1,5.5z"/>
		<path id="XMLID_126_" class="st0" d="M300.5,0.8c0-0.4,0.3-0.7,0.8-0.7c0.5,0,0.8,0.3,0.8,0.7c0,0.4-0.3,0.7-0.8,0.7
			C300.8,1.5,300.5,1.2,300.5,0.8z M300.5,2h1.5v5h-1.5V2z"/>
		<path id="XMLID_124_" class="st0" d="M302.8,4.5c0-1.8,1.2-2.6,2.5-2.6c0.7,0,1.3,0.2,1.5,0.4v1.3c-0.3-0.4-0.7-0.5-1.3-0.5
			c-0.8,0-1.2,0.5-1.2,1.4c0,0.9,0.4,1.4,1.2,1.4c0.6,0,1-0.2,1.3-0.5v1.3c-0.2,0.2-0.8,0.5-1.5,0.5C303.8,7.1,302.8,6.3,302.8,4.5z
			"/>
		<path id="XMLID_121_" class="st0" d="M307.4,5.6c0-1,0.7-1.4,2.1-1.6l0.7-0.1c0-0.7-0.3-0.9-1-0.9c-0.7,0-1.4,0.4-1.6,0.9V2.5
			c0.2-0.3,0.8-0.7,1.9-0.7c1.4,0,2.2,0.6,2.2,2.1v3h-1.3l-0.1-0.4c-0.1,0.3-0.5,0.6-1.2,0.6C308.1,7.1,307.4,6.6,307.4,5.6z
			 M310.2,4.8l-0.6,0.1c-0.7,0.1-0.9,0.3-0.9,0.7c0,0.3,0.2,0.5,0.6,0.5c0.4,0,0.7-0.2,0.9-0.3V4.8z"/>
		<path id="XMLID_119_" class="st0" d="M312.6,5.7V0.2h1.5v5.4c0,0.3,0.1,0.4,0.3,0.4c0.2,0,0.4-0.1,0.4-0.2v1.1
			c-0.1,0.1-0.4,0.3-0.9,0.3C313.1,7.1,312.6,6.6,312.6,5.7z"/>
		<path id="XMLID_116_" class="st0" d="M319.4,1.4l-0.2-0.6h1.6c0.2,0.5,2.2,5.6,2.5,6.2h-1.6l-0.4-1.1h-2.2L318.6,7h-1.4L319.4,1.4
			z M319.5,4.8h1.4l-0.5-1.4l-0.2-0.5L320,3.4L319.5,4.8z"/>
		<path id="XMLID_113_" class="st0" d="M323.8,2h1.3l0.1,0.4c0.2-0.3,0.6-0.6,1.3-0.6c1.3,0,2,0.7,2,2.5c0,1.8-1,2.8-2.2,2.8
			c-0.4,0-0.8-0.1-1.1-0.3v1.9h-1.5V2z M327,4.4c0-0.9-0.2-1.4-0.9-1.4c-0.4,0-0.7,0.2-0.8,0.4v2.3c0.2,0.2,0.5,0.3,0.8,0.3
			C326.8,6,327,5.3,327,4.4z"/>
		<path id="XMLID_110_" class="st0" d="M329.4,2h1.3l0.1,0.4c0.2-0.3,0.6-0.6,1.3-0.6c1.3,0,2,0.7,2,2.5c0,1.8-1,2.8-2.2,2.8
			c-0.4,0-0.8-0.1-1.1-0.3v1.9h-1.5V2z M332.6,4.4c0-0.9-0.2-1.4-0.9-1.4c-0.4,0-0.7,0.2-0.8,0.4v2.3c0.2,0.2,0.5,0.3,0.8,0.3
			C332.3,6,332.6,5.3,332.6,4.4z"/>
		<path id="XMLID_108_" class="st0" d="M334.9,5.7V0.2h1.5v5.4c0,0.3,0.1,0.4,0.3,0.4c0.2,0,0.4-0.1,0.4-0.2v1.1
			c-0.1,0.1-0.4,0.3-0.9,0.3C335.4,7.1,334.9,6.6,334.9,5.7z"/>
		<path id="XMLID_105_" class="st0" d="M337.8,0.8c0-0.4,0.3-0.7,0.8-0.7c0.5,0,0.8,0.3,0.8,0.7c0,0.4-0.3,0.7-0.8,0.7
			C338,1.5,337.8,1.2,337.8,0.8z M337.8,2h1.5v5h-1.5V2z"/>
		<path id="XMLID_103_" class="st0" d="M340.1,4.5c0-1.8,1.2-2.6,2.5-2.6c0.7,0,1.3,0.2,1.5,0.4v1.3c-0.3-0.4-0.7-0.5-1.3-0.5
			c-0.8,0-1.2,0.5-1.2,1.4c0,0.9,0.4,1.4,1.2,1.4c0.6,0,1-0.2,1.3-0.5v1.3c-0.2,0.2-0.8,0.5-1.5,0.5C341.1,7.1,340.1,6.3,340.1,4.5z
			"/>
		<path id="XMLID_100_" class="st0" d="M344.7,5.6c0-1,0.7-1.4,2.1-1.6l0.7-0.1c0-0.7-0.3-0.9-1-0.9c-0.7,0-1.4,0.4-1.6,0.9V2.5
			c0.2-0.3,0.8-0.7,1.9-0.7c1.4,0,2.2,0.6,2.2,2.1v3h-1.3l-0.1-0.4c-0.1,0.3-0.5,0.6-1.2,0.6C345.4,7.1,344.7,6.6,344.7,5.6z
			 M347.5,4.8l-0.6,0.1c-0.7,0.1-0.9,0.3-0.9,0.7c0,0.3,0.2,0.5,0.6,0.5c0.4,0,0.7-0.2,0.9-0.3V4.8z"/>
		<path id="XMLID_98_" class="st0" d="M350.2,5.5V3.1h-0.6V2.6l0.5-0.6l0.9-1.2h0.7V2h1.2v1.2h-1.2v2.3c0,0.4,0.1,0.5,0.4,0.5
			c0.3,0,0.6-0.2,0.7-0.4v1.2c-0.2,0.2-0.5,0.4-1.1,0.4C350.6,7.1,350.2,6.5,350.2,5.5z"/>
		<path id="XMLID_95_" class="st0" d="M353.6,0.8c0-0.4,0.3-0.7,0.8-0.7c0.5,0,0.8,0.3,0.8,0.7c0,0.4-0.3,0.7-0.8,0.7
			C353.9,1.5,353.6,1.2,353.6,0.8z M353.6,2h1.5v5h-1.5V2z"/>
		<path id="XMLID_92_" class="st0" d="M355.9,4.5c0-1.8,1.2-2.6,2.6-2.6c1.4,0,2.5,0.8,2.5,2.6c0,1.9-1.2,2.6-2.6,2.6
			C356.9,7.1,355.9,6.3,355.9,4.5z M359.4,4.5c0-0.9-0.3-1.4-1-1.4c-0.7,0-1,0.6-1,1.4c0,0.9,0.3,1.4,1,1.4
			C359.1,5.9,359.4,5.3,359.4,4.5z"/>
		<path id="XMLID_90_" class="st0" d="M361.7,2h1.3l0.1,0.4c0.2-0.3,0.7-0.6,1.3-0.6c1.3,0,1.8,0.7,1.8,2V7h-1.5V4.1
			c0-0.8-0.2-1.1-0.8-1.1c-0.4,0-0.7,0.2-0.8,0.4V7h-1.5V2z"/>
		<path id="XMLID_88_" class="st0" d="M367.2,6.7V5.4c0.3,0.3,0.8,0.6,1.5,0.6c0.6,0,0.8-0.2,0.8-0.5c0-0.3-0.1-0.4-0.7-0.5l-0.3,0
			c-1-0.1-1.5-0.7-1.5-1.5c0-0.9,0.6-1.6,2.1-1.6c0.8,0,1.3,0.2,1.6,0.4v1.3c-0.3-0.4-0.8-0.5-1.5-0.5c-0.6,0-0.8,0.2-0.8,0.4
			s0.1,0.4,0.6,0.5l0.3,0c1.1,0.2,1.6,0.6,1.6,1.5c0,0.9-0.6,1.7-2.2,1.7C368,7.1,367.4,6.9,367.2,6.7z"/>
		<path id="XMLID_86_" class="st0" d="M371.5,8.3c0.2-0.3,0.4-0.9,0.5-1.3c-0.3-0.1-0.5-0.5-0.5-0.8c0-0.5,0.4-0.9,0.9-0.9
			c0.5,0,0.9,0.4,0.9,1c0,0.9-0.7,1.8-1.1,2.1L371.5,8.3z"/>
		<path id="XMLID_84_" class="st0" d="M378.9,5.8h-3V5.5l1.8-4.7h1.4l-1.3,3.7h1.2l0.2-2.1h1.2v2.1h0.6v1.3h-0.6V7h-1.4V5.8z"/>
		<path id="XMLID_82_" class="st0" d="M381.9,5.5V3.1h-0.6V2.6l0.5-0.6l0.9-1.2h0.7V2h1.2v1.2h-1.2v2.3c0,0.4,0.1,0.5,0.4,0.5
			c0.3,0,0.6-0.2,0.7-0.4v1.2c-0.2,0.2-0.5,0.4-1.1,0.4C382.3,7.1,381.9,6.5,381.9,5.5z"/>
		<path id="XMLID_80_" class="st0" d="M385.3,0.2h1.5v2.2c0.2-0.3,0.7-0.5,1.3-0.5c1.3,0,1.8,0.7,1.8,2V7h-1.5V4.1
			c0-0.8-0.2-1.1-0.8-1.1c-0.4,0-0.7,0.2-0.8,0.4V7h-1.5V0.2z"/>
		<path id="XMLID_78_" class="st0" d="M393.1,0.8h4.2V2h-2.7v1.2h1.7v1.2h-1.7v1.3h2.7V7h-4.2V0.8z"/>
		<path id="XMLID_75_" class="st0" d="M397.8,4.5c0-1.8,0.9-2.7,2.2-2.7c0.4,0,0.8,0.1,1.1,0.3v-2h1.5V7h-1.3l-0.1-0.4
			c-0.2,0.3-0.6,0.6-1.3,0.6C398.6,7.1,397.8,6.3,397.8,4.5z M401,3.3c-0.2-0.2-0.5-0.3-0.8-0.3c-0.7,0-1,0.7-1,1.6s0.2,1.4,0.9,1.4
			c0.4,0,0.7-0.2,0.8-0.4V3.3z"/>
		<path id="XMLID_73_" class="st0" d="M403.4,6.2c0-0.5,0.4-0.9,0.9-0.9c0.5,0,0.9,0.4,0.9,0.9c0,0.5-0.4,0.9-0.9,0.9
			C403.7,7.1,403.4,6.7,403.4,6.2z"/>
		<path id="XMLID_71_" class="st0" d="M407.9,3.9c0-2.1,1.3-3.2,3-3.2c1,0,1.5,0.3,1.8,0.5v1.5c-0.3-0.5-0.8-0.7-1.6-0.7
			c-1.1,0-1.6,0.7-1.6,1.9c0,1.2,0.6,2,1.6,2c0.7,0,1.3-0.2,1.6-0.7v1.4c-0.3,0.3-1,0.6-1.8,0.6C409.1,7.1,407.9,6,407.9,3.9z"/>
		<path id="XMLID_69_" class="st0" d="M413.6,0.2h1.5v2.2c0.2-0.3,0.7-0.5,1.3-0.5c1.3,0,1.8,0.7,1.8,2V7h-1.5V4.1
			c0-0.8-0.2-1.1-0.8-1.1c-0.4,0-0.7,0.2-0.8,0.4V7h-1.5V0.2z"/>
		<path id="XMLID_66_" class="st0" d="M418.9,5.6c0-1,0.7-1.4,2.1-1.6l0.7-0.1c0-0.7-0.3-0.9-1-0.9c-0.7,0-1.4,0.4-1.6,0.9V2.5
			c0.2-0.3,0.8-0.7,1.9-0.7c1.4,0,2.2,0.6,2.2,2.1v3h-1.3l-0.1-0.4c-0.1,0.3-0.5,0.6-1.2,0.6C419.6,7.1,418.9,6.6,418.9,5.6z
			 M421.7,4.8l-0.6,0.1c-0.7,0.1-0.9,0.3-0.9,0.7c0,0.3,0.2,0.5,0.6,0.5c0.4,0,0.7-0.2,0.9-0.3V4.8z"/>
		<path id="XMLID_63_" class="st0" d="M424.2,2h1.3l0.1,0.4c0.2-0.3,0.6-0.6,1.3-0.6c1.3,0,2,0.7,2,2.5c0,1.8-1,2.8-2.2,2.8
			c-0.4,0-0.8-0.1-1.1-0.3v1.9h-1.5V2z M427.4,4.4c0-0.9-0.2-1.4-0.9-1.4c-0.4,0-0.7,0.2-0.8,0.4v2.3c0.2,0.2,0.5,0.3,0.8,0.3
			C427.2,6,427.4,5.3,427.4,4.4z"/>
		<path id="XMLID_61_" class="st0" d="M430,5.5V3.1h-0.6V2.6l0.5-0.6l0.9-1.2h0.7V2h1.2v1.2h-1.2v2.3c0,0.4,0.1,0.5,0.4,0.5
			c0.3,0,0.6-0.2,0.7-0.4v1.2c-0.2,0.2-0.5,0.4-1.1,0.4C430.4,7.1,430,6.5,430,5.5z"/>
		<path id="XMLID_58_" class="st0" d="M433.2,4.5c0-1.8,1.2-2.6,2.4-2.6c1.2,0,2.3,0.5,2.3,2.4v0.6h-3.2c0.1,0.6,0.4,1,1.3,1
			c0.8,0,1.4-0.3,1.6-0.6v1.2c-0.3,0.3-0.9,0.6-1.9,0.6C434.2,7.1,433.2,6.3,433.2,4.5z M436.5,4L436.5,4c0-0.6-0.3-1-0.9-1
			c-0.6,0-0.9,0.5-0.9,1H436.5z"/>
		<path id="XMLID_56_" class="st0" d="M438.7,2h1.2l0.1,0.7c0.1-0.5,0.5-0.8,1-0.8c0.3,0,0.4,0.1,0.5,0.1v1.3
			c-0.1-0.1-0.3-0.1-0.6-0.1c-0.4,0-0.6,0.2-0.7,0.4V7h-1.5V2z"/>
		<path id="XMLID_54_" class="st0" d="M444.2,6.8V5.5c0.3,0.2,0.7,0.4,1.4,0.4c0.8,0,1.2-0.3,1.2-0.8c0-0.5-0.3-0.7-1.2-0.7
			c-0.5,0-0.9,0.1-1.2,0.2l0.1-3.8h3.6v1.3h-2.3l0,1.2c0.1,0,0.3,0,0.4,0c1.4,0,2.1,0.6,2.1,1.8c0,1.3-1.1,2.1-2.6,2.1
			C444.9,7.1,444.4,7,444.2,6.8z"/>
		<path id="XMLID_52_" class="st0" d="M448.9,6.2c0-0.5,0.4-0.9,0.9-0.9c0.5,0,0.9,0.4,0.9,0.9c0,0.5-0.4,0.9-0.9,0.9
			C449.3,7.1,448.9,6.7,448.9,6.2z"/>
		<path id="XMLID_49_" class="st0" d="M455.5,1.4l-0.2-0.6h1.6c0.2,0.5,2.2,5.6,2.5,6.2h-1.6l-0.4-1.1h-2.2L454.7,7h-1.5L455.5,1.4z
			 M455.5,4.8h1.4l-0.5-1.4l-0.2-0.5L456,3.4L455.5,4.8z"/>
		<path id="XMLID_47_" class="st0" d="M459.8,2h1.3l0.1,0.4c0.2-0.3,0.7-0.6,1.3-0.6c1.3,0,1.8,0.7,1.8,2V7h-1.5V4.1
			c0-0.8-0.2-1.1-0.8-1.1c-0.4,0-0.7,0.2-0.8,0.4V7h-1.5V2z"/>
		<path id="XMLID_45_" class="st0" d="M465.6,5.5V3.1H465V2.6l0.5-0.6l0.9-1.2h0.7V2h1.2v1.2h-1.2v2.3c0,0.4,0.1,0.5,0.4,0.5
			c0.3,0,0.6-0.2,0.7-0.4v1.2c-0.2,0.2-0.5,0.4-1.1,0.4C466,7.1,465.6,6.5,465.6,5.5z"/>
		<path id="XMLID_42_" class="st0" d="M469,0.8c0-0.4,0.3-0.7,0.8-0.7c0.5,0,0.8,0.3,0.8,0.7c0,0.4-0.3,0.7-0.8,0.7
			C469.3,1.5,469,1.2,469,0.8z M469,2h1.5v5H469V2z"/>
		<path id="XMLID_39_" class="st0" d="M471.6,2h1.3l0.1,0.4c0.2-0.3,0.6-0.6,1.3-0.6c1.3,0,2,0.7,2,2.5c0,1.8-1,2.8-2.2,2.8
			c-0.4,0-0.8-0.1-1.1-0.3v1.9h-1.5V2z M474.8,4.4c0-0.9-0.2-1.4-0.9-1.4c-0.4,0-0.7,0.2-0.8,0.4v2.3c0.2,0.2,0.5,0.3,0.8,0.3
			C474.5,6,474.8,5.3,474.8,4.4z"/>
		<path id="XMLID_37_" class="st0" d="M477,6.7V5.4c0.3,0.3,0.8,0.6,1.5,0.6c0.6,0,0.8-0.2,0.8-0.5c0-0.3-0.1-0.4-0.7-0.5l-0.3,0
			c-1-0.1-1.5-0.7-1.5-1.5c0-0.9,0.6-1.6,2.1-1.6c0.8,0,1.3,0.2,1.6,0.4v1.3C480.2,3.2,479.7,3,479,3c-0.6,0-0.8,0.2-0.8,0.4
			s0.1,0.4,0.6,0.5l0.3,0c1.1,0.2,1.6,0.6,1.6,1.5c0,0.9-0.6,1.7-2.2,1.7C477.8,7.1,477.3,6.9,477,6.7z"/>
		<path id="XMLID_35_" class="st0" d="M481.3,8.6V7.4c0.2,0.2,0.5,0.4,0.9,0.4c0.3,0,0.6-0.1,0.9-0.7L481,2h1.6l1,3.3l0.9-3.3h1.4
			l-1.4,4.7c-0.4,1.2-1,2.2-2.3,2.2C481.8,8.9,481.4,8.7,481.3,8.6z"/>
		<path id="XMLID_33_" class="st0" d="M486.2,4.5c0-1.8,1.2-2.6,2.5-2.6c0.7,0,1.3,0.2,1.5,0.4v1.3c-0.3-0.4-0.7-0.5-1.3-0.5
			c-0.8,0-1.2,0.5-1.2,1.4c0,0.9,0.4,1.4,1.2,1.4c0.6,0,1-0.2,1.3-0.5v1.3c-0.2,0.2-0.8,0.5-1.5,0.5C487.2,7.1,486.2,6.3,486.2,4.5z
			"/>
		<path id="XMLID_31_" class="st0" d="M491,0.2h1.5v2.2c0.2-0.3,0.7-0.5,1.3-0.5c1.3,0,1.8,0.7,1.8,2V7h-1.5V4.1
			c0-0.8-0.2-1.1-0.8-1.1c-0.4,0-0.7,0.2-0.8,0.4V7H491V0.2z"/>
		<path id="XMLID_28_" class="st0" d="M496.3,4.5c0-1.8,1.2-2.6,2.6-2.6c1.5,0,2.5,0.8,2.5,2.6c0,1.9-1.2,2.6-2.6,2.6
			C497.4,7.1,496.3,6.3,496.3,4.5z M499.9,4.5c0-0.9-0.3-1.4-1-1.4c-0.7,0-1,0.6-1,1.4c0,0.9,0.3,1.4,1,1.4
			C499.6,5.9,499.9,5.3,499.9,4.5z"/>
		<path id="XMLID_26_" class="st0" d="M502.4,5.5V3.1h-0.6V2.6l0.5-0.6l0.9-1.2h0.7V2h1.2v1.2h-1.2v2.3c0,0.4,0.1,0.5,0.4,0.5
			c0.3,0,0.6-0.2,0.7-0.4v1.2c-0.2,0.2-0.5,0.4-1.1,0.4C502.8,7.1,502.4,6.5,502.4,5.5z"/>
		<path id="XMLID_23_" class="st0" d="M505.8,0.8c0-0.4,0.3-0.7,0.8-0.7c0.5,0,0.8,0.3,0.8,0.7c0,0.4-0.3,0.7-0.8,0.7
			C506.1,1.5,505.8,1.2,505.8,0.8z M505.8,2h1.5v5h-1.5V2z"/>
		<path id="XMLID_21_" class="st0" d="M508.1,4.5c0-1.8,1.2-2.6,2.5-2.6c0.7,0,1.3,0.2,1.5,0.4v1.3c-0.3-0.4-0.7-0.5-1.3-0.5
			c-0.8,0-1.2,0.5-1.2,1.4c0,0.9,0.4,1.4,1.2,1.4c0.6,0,1-0.2,1.3-0.5v1.3c-0.2,0.2-0.8,0.5-1.5,0.5C509.1,7.1,508.1,6.3,508.1,4.5z
			"/>
		<path id="XMLID_18_" class="st0" d="M514.9,5.6c0-1,0.7-1.4,2.1-1.6l0.7-0.1c0-0.7-0.3-0.9-1-0.9c-0.7,0-1.4,0.4-1.6,0.9V2.5
			c0.2-0.3,0.8-0.7,1.9-0.7c1.4,0,2.2,0.6,2.2,2.1v3h-1.3l-0.1-0.4c-0.1,0.3-0.5,0.6-1.2,0.6C515.6,7.1,514.9,6.6,514.9,5.6z
			 M517.7,4.8l-0.6,0.1c-0.7,0.1-0.9,0.3-0.9,0.7c0,0.3,0.2,0.5,0.6,0.5c0.4,0,0.7-0.2,0.9-0.3V4.8z"/>
		<path id="XMLID_15_" class="st0" d="M519.9,8.4V7.3c0.5,0.3,1.1,0.5,2.1,0.5c1.2,0,1.7-0.1,1.7-0.5c0-0.3-0.3-0.4-1-0.4
			c-0.7,0-1.9,0.2-2.2,0.3v-1l0.7-1c-0.7-0.2-1.2-0.8-1.2-1.6c0-1.1,0.9-1.8,2.2-1.8c0.6,0,1.1,0.1,1.4,0.4c0.2-0.3,0.5-0.4,1-0.4
			c0.1,0,0.3,0,0.4,0.1V3c-0.1-0.1-0.2-0.1-0.3-0.1c-0.2,0-0.3,0.1-0.4,0.1c0.1,0.2,0.1,0.4,0.1,0.6c0,1.1-0.9,1.7-2.2,1.7H522
			l-0.4,0.6c0.2-0.1,0.8-0.1,1.3-0.1c1.3,0,2.1,0.3,2.1,1.4c0,1.1-1,1.7-2.9,1.7C521.1,8.9,520.3,8.7,519.9,8.4z M523,3.6
			c0-0.4-0.3-0.7-0.8-0.7c-0.5,0-0.8,0.2-0.8,0.7c0,0.4,0.3,0.7,0.8,0.7C522.7,4.2,523,4,523,3.6z"/>
		<path id="XMLID_12_" class="st0" d="M525.4,4.5c0-1.8,1.2-2.6,2.4-2.6c1.2,0,2.3,0.5,2.3,2.4v0.6h-3.2c0.1,0.6,0.4,1,1.3,1
			c0.8,0,1.4-0.3,1.6-0.6v1.2c-0.3,0.3-0.9,0.6-1.9,0.6C526.3,7.1,525.4,6.3,525.4,4.5z M528.7,4L528.7,4c0-0.6-0.3-1-0.9-1
			c-0.6,0-0.9,0.5-0.9,1H528.7z"/>
		<path id="XMLID_10_" class="st0" d="M530.9,2h1.3l0.1,0.4c0.2-0.3,0.7-0.6,1.3-0.6c1.3,0,1.8,0.7,1.8,2V7H534V4.1
			c0-0.8-0.2-1.1-0.8-1.1c-0.4,0-0.7,0.2-0.8,0.4V7h-1.5V2z"/>
		<path id="XMLID_8_" class="st0" d="M536.7,5.5V3.1h-0.6V2.6l0.5-0.6l0.9-1.2h0.7V2h1.2v1.2h-1.2v2.3c0,0.4,0.1,0.5,0.4,0.5
			c0.3,0,0.6-0.2,0.7-0.4v1.2c-0.2,0.2-0.5,0.4-1.1,0.4C537.1,7.1,536.7,6.5,536.7,5.5z"/>
		<path id="XMLID_6_" class="st0" d="M540,6.7V5.4c0.3,0.3,0.8,0.6,1.5,0.6c0.6,0,0.8-0.2,0.8-0.5c0-0.3-0.1-0.4-0.7-0.5l-0.3,0
			c-1-0.1-1.5-0.7-1.5-1.5c0-0.9,0.6-1.6,2.1-1.6c0.8,0,1.3,0.2,1.6,0.4v1.3C543.2,3.2,542.7,3,542,3c-0.6,0-0.8,0.2-0.8,0.4
			s0.1,0.4,0.6,0.5l0.3,0c1.1,0.2,1.6,0.6,1.6,1.5c0,0.9-0.6,1.7-2.2,1.7C540.8,7.1,540.3,6.9,540,6.7z"/>
		<path id="XMLID_4_" class="st0" d="M544.3,6.2c0-0.5,0.4-0.9,0.9-0.9c0.5,0,0.9,0.4,0.9,0.9c0,0.5-0.4,0.9-0.9,0.9
			C544.7,7.1,544.3,6.7,544.3,6.2z"/>
	</g>
</g>
</svg>
