<!-- Generator: Adobe Illustrator 22.1.0, SVG Export Plug-In  -->
<svg version="1.1"
	 xmlns="http://www.w3.org/2000/svg" xmlns:xlink="http://www.w3.org/1999/xlink" xmlns:a="http://ns.adobe.com/AdobeSVGViewerExtensions/3.0/"
	 x="0px" y="0px" width="718.8px" height="19.5px" viewBox="0 0 718.8 19.5" style="enable-background:new 0 0 718.8 19.5;"
	 xml:space="preserve">
<style type="text/css">
	.st0{fill:#231F20;}
</style>
<defs>
</defs>
<g id="XMLID_1_">
	<g id="XMLID_3_">
		<path id="XMLID_556_" class="st0" d="M1.3,2.6C1.1,2.8,0.5,2.9,0,2.9V1.6c0.9,0,1.5-0.2,2-0.8h0.8V7H1.3V2.6z"/>
		<path id="XMLID_554_" class="st0" d="M3.7,6.2c0-0.5,0.4-0.9,0.9-0.9c0.5,0,0.9,0.4,0.9,0.9c0,0.5-0.4,0.9-0.9,0.9
			C4.1,7.1,3.7,6.7,3.7,6.2z"/>
		<path id="XMLID_551_" class="st0" d="M8,4.8L8,4.8L7.9,7H6.4V0.8h2.1C10,0.8,11,1.3,11,2.7c0,1-0.6,1.7-1.5,1.9L11.4,7H9.6L8,4.8z
			 M8.4,3.8c0.7,0,1-0.3,1-0.9c0-0.6-0.4-0.9-1-0.9H7.9v1.8H8.4z"/>
		<path id="XMLID_548_" class="st0" d="M11.6,4.5c0-1.8,1.2-2.6,2.6-2.6c1.4,0,2.5,0.8,2.5,2.6c0,1.9-1.2,2.6-2.6,2.6
			C12.6,7.1,11.6,6.3,11.6,4.5z M15.2,4.5c0-0.9-0.3-1.4-1-1.4c-0.7,0-1,0.6-1,1.4c0,0.9,0.3,1.4,1,1.4C14.9,5.9,15.2,5.3,15.2,4.5z
			"/>
		<path id="XMLID_546_" class="st0" d="M17.5,2h1.3l0.1,0.4c0.2-0.3,0.7-0.6,1.3-0.6c1.3,0,1.8,0.7,1.8,2V7h-1.5V4.1
			c0-0.8-0.2-1.1-0.8-1.1c-0.4,0-0.7,0.2-0.8,0.4V7h-1.5V2z"/>
		<path id="XMLID_543_" class="st0" d="M22.8,5.6c0-1,0.7-1.4,2.1-1.6l0.7-0.1c0-0.7-0.3-0.9-1-0.9c-0.7,0-1.4,0.4-1.6,0.9V2.5
			c0.2-0.3,0.8-0.7,1.9-0.7c1.4,0,2.2,0.6,2.2,2.1v3h-1.3l-0.1-0.4c-0.1,0.3-0.5,0.6-1.2,0.6C23.5,7.1,22.8,6.6,22.8,5.6z M25.6,4.8
			L25,4.9c-0.7,0.1-0.9,0.3-0.9,0.7c0,0.3,0.2,0.5,0.6,0.5c0.4,0,0.7-0.2,0.9-0.3V4.8z"/>
		<path id="XMLID_541_" class="st0" d="M28,5.7V0.2h1.5v5.4c0,0.3,0.1,0.4,0.3,0.4c0.2,0,0.4-0.1,0.4-0.2v1.1
			c-0.1,0.1-0.4,0.3-0.9,0.3C28.5,7.1,28,6.6,28,5.7z"/>
		<path id="XMLID_538_" class="st0" d="M30.7,4.5c0-1.8,0.9-2.7,2.2-2.7c0.4,0,0.8,0.1,1.1,0.3v-2h1.5V7h-1.3L34,6.5
			c-0.2,0.3-0.6,0.6-1.3,0.6C31.6,7.1,30.7,6.3,30.7,4.5z M34,3.3C33.8,3.1,33.5,3,33.2,3c-0.7,0-1,0.7-1,1.6s0.2,1.4,0.9,1.4
			c0.4,0,0.7-0.2,0.8-0.4V3.3z"/>
		<path id="XMLID_536_" class="st0" d="M38.7,0.8h2.1c1.8,0,2.6,0.8,2.6,2.1c0,1.3-0.8,2.3-2.6,2.3h-0.3V4.1h0.3
			c0.7,0,1.1-0.4,1.1-1.1c0-0.7-0.4-1-1.1-1h-0.5v5h-1.5V0.8z"/>
		<path id="XMLID_534_" class="st0" d="M46.3,0.8h1.5v4.9H50V7h-3.7V0.8z"/>
		<path id="XMLID_531_" class="st0" d="M50.5,5.6c0-1,0.7-1.4,2.1-1.6l0.7-0.1c0-0.7-0.3-0.9-1-0.9c-0.7,0-1.4,0.4-1.6,0.9V2.5
			c0.2-0.3,0.8-0.7,1.9-0.7c1.4,0,2.2,0.6,2.2,2.1v3h-1.3l-0.1-0.4c-0.1,0.3-0.5,0.6-1.2,0.6C51.2,7.1,50.5,6.6,50.5,5.6z M53.3,4.8
			l-0.6,0.1c-0.7,0.1-0.9,0.3-0.9,0.7c0,0.3,0.2,0.5,0.6,0.5c0.4,0,0.7-0.2,0.9-0.3V4.8z"/>
		<path id="XMLID_529_" class="st0" d="M55.8,2h1.3l0.1,0.4c0.2-0.3,0.7-0.6,1.3-0.6c1.3,0,1.8,0.7,1.8,2V7h-1.5V4.1
			c0-0.8-0.2-1.1-0.8-1.1c-0.4,0-0.7,0.2-0.8,0.4V7h-1.5V2z"/>
		<path id="XMLID_526_" class="st0" d="M61.1,4.5c0-1.8,0.9-2.7,2.2-2.7c0.4,0,0.8,0.1,1.1,0.3v-2h1.5V7h-1.3l-0.1-0.4
			c-0.2,0.3-0.6,0.6-1.3,0.6C61.9,7.1,61.1,6.3,61.1,4.5z M64.4,3.3C64.2,3.1,63.9,3,63.6,3c-0.7,0-1,0.7-1,1.6s0.2,1.4,0.9,1.4
			c0.4,0,0.7-0.2,0.8-0.4V3.3z"/>
		<path id="XMLID_523_" class="st0" d="M68.2,6.6L68,7h-1.1V0.2h1.5v2.2c0.1-0.2,0.6-0.5,1.3-0.5c1.2,0,2,0.7,2,2.5
			c0,1.8-1,2.8-2.2,2.8C68.7,7.1,68.4,6.9,68.2,6.6z M68.4,5.6C68.6,5.9,68.8,6,69.2,6c0.7,0,1-0.7,1-1.6S69.9,3,69.2,3
			c-0.4,0-0.7,0.2-0.8,0.4V5.6z"/>
		<path id="XMLID_521_" class="st0" d="M72.4,5.7V0.2h1.5v5.4c0,0.3,0.1,0.4,0.3,0.4c0.2,0,0.4-0.1,0.4-0.2v1.1
			c-0.1,0.1-0.4,0.3-0.9,0.3C72.9,7.1,72.4,6.6,72.4,5.7z"/>
		<path id="XMLID_518_" class="st0" d="M75.1,4.5c0-1.8,1.2-2.6,2.6-2.6c1.4,0,2.5,0.8,2.5,2.6c0,1.9-1.2,2.6-2.6,2.6
			C76.1,7.1,75.1,6.3,75.1,4.5z M78.6,4.5c0-0.9-0.3-1.4-1-1.4c-0.7,0-1,0.6-1,1.4c0,0.9,0.3,1.4,1,1.4C78.3,5.9,78.6,5.3,78.6,4.5z
			"/>
		<path id="XMLID_515_" class="st0" d="M80.7,4.5c0-1.8,1.2-2.6,2.6-2.6c1.4,0,2.5,0.8,2.5,2.6c0,1.9-1.2,2.6-2.6,2.6
			C81.7,7.1,80.7,6.3,80.7,4.5z M84.2,4.5c0-0.9-0.3-1.4-1-1.4c-0.7,0-1,0.6-1,1.4c0,0.9,0.3,1.4,1,1.4C83.9,5.9,84.2,5.3,84.2,4.5z
			"/>
		<path id="XMLID_513_" class="st0" d="M86.5,2h1.3l0.1,0.4c0.2-0.3,0.7-0.6,1.3-0.6c0.7,0,1.2,0.2,1.4,0.7c0.3-0.3,0.7-0.7,1.5-0.7
			c1.2,0,1.7,0.7,1.7,2V7h-1.5V4.1c0-0.8-0.2-1.1-0.7-1.1c-0.4,0-0.7,0.2-0.8,0.4c0,0.1,0,0.3,0,0.5V7h-1.5V4.1
			c0-0.8-0.2-1.1-0.7-1.1c-0.4,0-0.6,0.2-0.7,0.4V7h-1.5V2z"/>
		<path id="XMLID_511_" class="st0" d="M96.6,5c0-0.8,0.6-1.4,1.2-1.7c-0.3-0.3-0.6-0.7-0.6-1.1c0-1,0.9-1.6,2.1-1.6
			c0.8,0,1.3,0.3,1.4,0.5v1.4c-0.2-0.3-0.7-0.6-1.3-0.6c-0.5,0-0.8,0.1-0.8,0.4c0,0.3,0.1,0.4,0.4,0.7l0.7,0.6V4h-1.2
			c-0.3,0.2-0.5,0.4-0.5,0.8c0,0.6,0.4,1,1.5,1c1.1,0,1.8-0.4,1.8-1.3c0-0.2,0-0.3-0.1-0.5h-0.6V2.7h2.7V4h-0.6
			c0,0.2,0.1,0.4,0.1,0.5c0,1.7-1.4,2.6-3.3,2.6C97.6,7.1,96.6,6.4,96.6,5z"/>
		<path id="XMLID_508_" class="st0" d="M106.1,4.5c0-1.8,1.2-2.6,2.4-2.6c1.2,0,2.3,0.5,2.3,2.4v0.6h-3.2c0.1,0.6,0.4,1,1.4,1
			c0.8,0,1.4-0.3,1.6-0.6v1.2c-0.3,0.3-0.9,0.6-1.9,0.6C107,7.1,106.1,6.3,106.1,4.5z M109.4,4L109.4,4c0-0.6-0.3-1-0.9-1
			c-0.6,0-0.9,0.5-0.9,1H109.4z"/>
		<path id="XMLID_506_" class="st0" d="M111.8,5.5V3.1h-0.6V2.6l0.5-0.6l0.9-1.2h0.7V2h1.2v1.2h-1.2v2.3c0,0.4,0.1,0.5,0.4,0.5
			c0.3,0,0.6-0.2,0.7-0.4v1.2c-0.2,0.2-0.5,0.4-1.1,0.4C112.3,7.1,111.8,6.5,111.8,5.5z"/>
		<path id="XMLID_504_" class="st0" d="M115.1,6.2c0-0.5,0.4-0.9,0.9-0.9c0.5,0,0.9,0.4,0.9,0.9c0,0.5-0.4,0.9-0.9,0.9
			C115.4,7.1,115.1,6.7,115.1,6.2z"/>
		<path id="XMLID_501_" class="st0" d="M117.5,5.6c0-1,0.7-1.4,2.1-1.6l0.7-0.1c0-0.7-0.3-0.9-1-0.9c-0.7,0-1.4,0.4-1.6,0.9V2.5
			c0.2-0.3,0.8-0.7,1.9-0.7c1.4,0,2.2,0.6,2.2,2.1v3h-1.3l-0.1-0.4c-0.1,0.3-0.5,0.6-1.2,0.6C118.2,7.1,117.5,6.6,117.5,5.6z
			 M120.3,4.8l-0.6,0.1c-0.7,0.1-0.9,0.3-0.9,0.7c0,0.3,0.2,0.5,0.6,0.5c0.4,0,0.7-0.2,0.9-0.3V4.8z"/>
		<path id="XMLID_499_" class="st0" d="M122.7,5.7V0.2h1.5v5.4c0,0.3,0.1,0.4,0.3,0.4c0.2,0,0.4-0.1,0.4-0.2v1.1
			c-0.1,0.1-0.4,0.3-0.9,0.3C123.2,7.1,122.7,6.6,122.7,5.7z"/>
		<path id="XMLID_497_" class="st0" d="M129.2,0.2c-0.1,0.3-0.3,0.8-0.4,1.2c0.3,0.1,0.4,0.4,0.4,0.7c0,0.5-0.3,0.8-0.8,0.8
			c-0.5,0-0.8-0.3-0.8-0.8c0-0.8,0.6-1.6,1-1.9L129.2,0.2z"/>
		<path id="XMLID_495_" class="st0" d="M129.9,2.7c0.1-0.3,0.3-0.8,0.4-1.2c-0.3-0.1-0.4-0.4-0.4-0.7c0-0.5,0.3-0.8,0.8-0.8
			c0.5,0,0.8,0.3,0.8,0.8c0,0.8-0.6,1.6-1,1.9L129.9,2.7z"/>
		<path id="XMLID_492_" class="st0" d="M136.2,1.4L136,0.8h1.6c0.2,0.5,2.2,5.6,2.5,6.2h-1.6L138,5.9h-2.2L135.4,7H134L136.2,1.4z
			 M136.2,4.8h1.4l-0.5-1.4l-0.2-0.5l-0.2,0.5L136.2,4.8z"/>
		<path id="XMLID_490_" class="st0" d="M140.4,6.7V5.4c0.3,0.3,0.8,0.6,1.5,0.6c0.6,0,0.8-0.2,0.8-0.5c0-0.3-0.1-0.4-0.7-0.5l-0.3,0
			c-1-0.1-1.5-0.7-1.5-1.5c0-0.9,0.6-1.6,2.1-1.6c0.8,0,1.3,0.2,1.6,0.4v1.3c-0.3-0.4-0.8-0.5-1.5-0.5c-0.6,0-0.8,0.2-0.8,0.4
			s0.1,0.4,0.6,0.5l0.3,0c1.1,0.2,1.6,0.6,1.6,1.5c0,0.9-0.6,1.7-2.2,1.7C141.2,7.1,140.7,6.9,140.4,6.7z"/>
		<path id="XMLID_487_" class="st0" d="M144.7,4.5c0-1.8,1.2-2.6,2.4-2.6c1.2,0,2.3,0.5,2.3,2.4v0.6h-3.2c0.1,0.6,0.4,1,1.4,1
			c0.8,0,1.4-0.3,1.6-0.6v1.2c-0.3,0.3-0.9,0.6-1.9,0.6C145.7,7.1,144.7,6.3,144.7,4.5z M148,4L148,4c0-0.6-0.3-1-0.9-1
			c-0.6,0-0.9,0.5-0.9,1H148z"/>
		<path id="XMLID_485_" class="st0" d="M150.2,2h1.3l0.1,0.4c0.2-0.3,0.7-0.6,1.3-0.6c1.3,0,1.8,0.7,1.8,2V7h-1.5V4.1
			c0-0.8-0.2-1.1-0.8-1.1c-0.4,0-0.7,0.2-0.8,0.4V7h-1.5V2z"/>
		<path id="XMLID_482_" class="st0" d="M155.5,5.6c0-1,0.7-1.4,2.1-1.6l0.7-0.1c0-0.7-0.3-0.9-1-0.9c-0.7,0-1.4,0.4-1.6,0.9V2.5
			c0.2-0.3,0.8-0.7,1.9-0.7c1.4,0,2.2,0.6,2.2,2.1v3h-1.3l-0.1-0.4c-0.1,0.3-0.5,0.6-1.2,0.6C156.2,7.1,155.5,6.6,155.5,5.6z
			 M158.4,4.8l-0.6,0.1c-0.7,0.1-0.9,0.3-0.9,0.7c0,0.3,0.2,0.5,0.6,0.5c0.4,0,0.7-0.2,0.9-0.3V4.8z"/>
		<path id="XMLID_479_" class="st0" d="M160.8,2h1.3l0.1,0.4c0.2-0.3,0.6-0.6,1.3-0.6c1.3,0,2,0.7,2,2.5c0,1.8-1,2.8-2.2,2.8
			c-0.4,0-0.8-0.1-1.1-0.3v1.9h-1.5V2z M164.1,4.4c0-0.9-0.2-1.4-0.9-1.4c-0.4,0-0.7,0.2-0.8,0.4v2.3c0.2,0.2,0.5,0.3,0.8,0.3
			C163.8,6,164.1,5.3,164.1,4.4z"/>
		<path id="XMLID_476_" class="st0" d="M166.4,0.8c0-0.4,0.3-0.7,0.8-0.7c0.5,0,0.8,0.3,0.8,0.7c0,0.4-0.3,0.7-0.8,0.7
			C166.7,1.5,166.4,1.2,166.4,0.8z M166.4,2h1.5v5h-1.5V2z"/>
		<path id="XMLID_474_" class="st0" d="M168.9,2h1.3l0.1,0.4c0.2-0.3,0.7-0.6,1.3-0.6c1.3,0,1.8,0.7,1.8,2V7H172V4.1
			c0-0.8-0.2-1.1-0.8-1.1c-0.4,0-0.7,0.2-0.8,0.4V7h-1.5V2z"/>
		<path id="XMLID_471_" class="st0" d="M174.2,4.5c0-1.8,1.2-2.6,2.4-2.6c1.2,0,2.3,0.5,2.3,2.4v0.6h-3.2c0.1,0.6,0.4,1,1.4,1
			c0.8,0,1.4-0.3,1.6-0.6v1.2c-0.3,0.3-0.9,0.6-1.9,0.6C175.2,7.1,174.2,6.3,174.2,4.5z M177.6,4L177.6,4c0-0.6-0.3-1-0.9-1
			c-0.6,0-0.9,0.5-0.9,1H177.6z"/>
		<path id="XMLID_469_" class="st0" d="M182.2,3.1h-0.6V2.6l0.5-0.5C182,2,182,1.7,182,1.4c0-0.9,0.8-1.4,1.8-1.4
			c0.7,0,1.1,0.2,1.2,0.3v1.2c-0.2-0.3-0.5-0.4-0.9-0.4c-0.4,0-0.6,0.2-0.6,0.5c0,0.2,0.1,0.3,0.1,0.4h1v1.2h-0.9V7h-1.5V3.1z"/>
		<path id="XMLID_466_" class="st0" d="M184.9,4.5c0-1.8,1.2-2.6,2.6-2.6c1.4,0,2.5,0.8,2.5,2.6c0,1.9-1.2,2.6-2.6,2.6
			C185.9,7.1,184.9,6.3,184.9,4.5z M188.5,4.5c0-0.9-0.3-1.4-1-1.4c-0.7,0-1,0.6-1,1.4c0,0.9,0.3,1.4,1,1.4
			C188.2,5.9,188.5,5.3,188.5,4.5z"/>
		<path id="XMLID_464_" class="st0" d="M190.8,2h1.2l0.1,0.7c0.1-0.5,0.5-0.8,1-0.8c0.3,0,0.4,0.1,0.5,0.1v1.3
			c-0.1-0.1-0.3-0.1-0.6-0.1c-0.4,0-0.6,0.2-0.7,0.4V7h-1.5V2z"/>
		<path id="XMLID_462_" class="st0" d="M196.6,5.5V3.1H196V2.6l0.5-0.6l0.9-1.2h0.7V2h1.2v1.2h-1.2v2.3c0,0.4,0.1,0.5,0.4,0.5
			c0.3,0,0.6-0.2,0.7-0.4v1.2c-0.2,0.2-0.5,0.4-1.1,0.4C197,7.1,196.6,6.5,196.6,5.5z"/>
		<path id="XMLID_460_" class="st0" d="M200,0.2h1.5v2.2c0.2-0.3,0.7-0.5,1.3-0.5c1.3,0,1.8,0.7,1.8,2V7h-1.5V4.1
			c0-0.8-0.2-1.1-0.8-1.1c-0.4,0-0.7,0.2-0.8,0.4V7H200V0.2z"/>
		<path id="XMLID_457_" class="st0" d="M205.3,4.5c0-1.8,1.2-2.6,2.4-2.6c1.2,0,2.3,0.5,2.3,2.4v0.6h-3.2c0.1,0.6,0.4,1,1.4,1
			c0.8,0,1.4-0.3,1.6-0.6v1.2c-0.3,0.3-0.9,0.6-1.9,0.6C206.3,7.1,205.3,6.3,205.3,4.5z M208.7,4L208.7,4c0-0.6-0.3-1-0.9-1
			c-0.6,0-0.9,0.5-0.9,1H208.7z"/>
		<path id="XMLID_455_" class="st0" d="M213.3,5.5V3.1h-0.6V2.6l0.5-0.6l0.9-1.2h0.7V2h1.2v1.2h-1.2v2.3c0,0.4,0.1,0.5,0.4,0.5
			c0.3,0,0.6-0.2,0.7-0.4v1.2c-0.2,0.2-0.5,0.4-1.1,0.4C213.7,7.1,213.3,6.5,213.3,5.5z"/>
		<path id="XMLID_453_" class="st0" d="M216.7,2h1.2l0.1,0.7c0.1-0.5,0.5-0.8,1-0.8c0.3,0,0.4,0.1,0.5,0.1v1.3
			c-0.1-0.1-0.3-0.1-0.6-0.1c-0.4,0-0.6,0.2-0.7,0.4V7h-1.5V2z"/>
		<path id="XMLID_450_" class="st0" d="M219.8,4.5c0-1.8,1.2-2.6,2.4-2.6c1.2,0,2.3,0.5,2.3,2.4v0.6h-3.2c0.1,0.6,0.4,1,1.4,1
			c0.8,0,1.4-0.3,1.6-0.6v1.2c-0.3,0.3-0.9,0.6-1.9,0.6C220.8,7.1,219.8,6.3,219.8,4.5z M223.2,4L223.2,4c0-0.6-0.3-1-0.9-1
			c-0.6,0-0.9,0.5-0.9,1H223.2z"/>
		<path id="XMLID_447_" class="st0" d="M225.1,5.6c0-1,0.7-1.4,2.1-1.6l0.7-0.1c0-0.7-0.3-0.9-1-0.9c-0.7,0-1.4,0.4-1.6,0.9V2.5
			c0.2-0.3,0.8-0.7,1.9-0.7c1.4,0,2.2,0.6,2.2,2.1v3h-1.3L228,6.5c-0.1,0.3-0.5,0.6-1.2,0.6C225.8,7.1,225.1,6.6,225.1,5.6z
			 M227.9,4.8l-0.6,0.1c-0.7,0.1-0.9,0.3-0.9,0.7c0,0.3,0.2,0.5,0.6,0.5c0.4,0,0.7-0.2,0.9-0.3V4.8z"/>
		<path id="XMLID_445_" class="st0" d="M230.7,5.5V3.1h-0.6V2.6l0.5-0.6l0.9-1.2h0.7V2h1.2v1.2h-1.2v2.3c0,0.4,0.1,0.5,0.4,0.5
			c0.3,0,0.6-0.2,0.7-0.4v1.2c-0.2,0.2-0.5,0.4-1.1,0.4C231.1,7.1,230.7,6.5,230.7,5.5z"/>
		<path id="XMLID_443_" class="st0" d="M234.1,2h1.3l0.1,0.4c0.2-0.3,0.7-0.6,1.3-0.6c0.7,0,1.2,0.2,1.4,0.7
			c0.3-0.3,0.7-0.7,1.5-0.7c1.2,0,1.7,0.7,1.7,2V7h-1.5V4.1c0-0.8-0.2-1.1-0.7-1.1c-0.4,0-0.7,0.2-0.8,0.4c0,0.1,0,0.3,0,0.5V7H237
			V4.1c0-0.8-0.2-1.1-0.7-1.1c-0.4,0-0.6,0.2-0.7,0.4V7h-1.5V2z"/>
		<path id="XMLID_440_" class="st0" d="M242.1,4.5c0-1.8,1.2-2.6,2.4-2.6c1.2,0,2.3,0.5,2.3,2.4v0.6h-3.2c0.1,0.6,0.4,1,1.4,1
			c0.8,0,1.4-0.3,1.6-0.6v1.2c-0.3,0.3-0.9,0.6-1.9,0.6C243.1,7.1,242.1,6.3,242.1,4.5z M245.5,4L245.5,4c0-0.6-0.3-1-0.9-1
			c-0.6,0-0.9,0.5-0.9,1H245.5z"/>
		<path id="XMLID_438_" class="st0" d="M247.6,2h1.3l0.1,0.4c0.2-0.3,0.7-0.6,1.3-0.6c1.3,0,1.8,0.7,1.8,2V7h-1.5V4.1
			c0-0.8-0.2-1.1-0.8-1.1c-0.4,0-0.7,0.2-0.8,0.4V7h-1.5V2z"/>
		<path id="XMLID_436_" class="st0" d="M253.4,5.5V3.1h-0.6V2.6l0.5-0.6l0.9-1.2h0.7V2h1.2v1.2h-1.2v2.3c0,0.4,0.1,0.5,0.4,0.5
			c0.3,0,0.6-0.2,0.7-0.4v1.2c-0.2,0.2-0.5,0.4-1.1,0.4C253.9,7.1,253.4,6.5,253.4,5.5z"/>
		<path id="XMLID_433_" class="st0" d="M258.8,4.5c0-1.8,1.2-2.6,2.6-2.6c1.4,0,2.5,0.8,2.5,2.6c0,1.9-1.2,2.6-2.6,2.6
			C259.8,7.1,258.8,6.3,258.8,4.5z M262.3,4.5c0-0.9-0.3-1.4-1-1.4c-0.7,0-1,0.6-1,1.4c0,0.9,0.3,1.4,1,1.4
			C262,5.9,262.3,5.3,262.3,4.5z"/>
		<path id="XMLID_431_" class="st0" d="M264.9,3.1h-0.6V2.6l0.5-0.5c-0.1-0.2-0.2-0.4-0.2-0.7c0-0.9,0.8-1.4,1.8-1.4
			c0.7,0,1.1,0.2,1.2,0.3v1.2c-0.2-0.3-0.5-0.4-0.9-0.4c-0.4,0-0.6,0.2-0.6,0.5c0,0.2,0.1,0.3,0.1,0.4h1v1.2h-0.9V7h-1.5V3.1z"/>
		<path id="XMLID_428_" class="st0" d="M269.8,5.6c0-1,0.7-1.4,2.1-1.6l0.7-0.1c0-0.7-0.3-0.9-1-0.9c-0.7,0-1.4,0.4-1.6,0.9V2.5
			c0.2-0.3,0.8-0.7,1.9-0.7c1.4,0,2.2,0.6,2.2,2.1v3h-1.3l-0.1-0.4c-0.1,0.3-0.5,0.6-1.2,0.6C270.6,7.1,269.8,6.6,269.8,5.6z
			 M272.7,4.8l-0.6,0.1c-0.7,0.1-0.9,0.3-0.9,0.7c0,0.3,0.2,0.5,0.6,0.5c0.4,0,0.7-0.2,0.9-0.3V4.8z"/>
		<path id="XMLID_425_" class="st0" d="M274.9,4.5c0-1.8,0.9-2.7,2.2-2.7c0.4,0,0.8,0.1,1.1,0.3v-2h1.5V7h-1.3l-0.1-0.4
			c-0.2,0.3-0.6,0.6-1.3,0.6C275.8,7.1,274.9,6.3,274.9,4.5z M278.2,3.3C278,3.1,277.7,3,277.4,3c-0.7,0-1,0.7-1,1.6
			s0.2,1.4,0.9,1.4c0.4,0,0.7-0.2,0.8-0.4V3.3z"/>
		<path id="XMLID_423_" class="st0" d="M280.7,5.1V2h1.5v2.8c0,0.8,0.2,1.1,0.7,1.1c0.4,0,0.7-0.2,0.8-0.4V2h1.5v5h-1.3l-0.1-0.4
			c-0.2,0.3-0.7,0.6-1.3,0.6C281.2,7.1,280.7,6.4,280.7,5.1z"/>
		<path id="XMLID_421_" class="st0" d="M286.2,5.7V0.2h1.5v5.4c0,0.3,0.1,0.4,0.3,0.4c0.2,0,0.4-0.1,0.4-0.2v1.1
			c-0.1,0.1-0.4,0.3-0.9,0.3C286.6,7.1,286.2,6.6,286.2,5.7z"/>
		<path id="XMLID_419_" class="st0" d="M289.2,5.5V3.1h-0.6V2.6l0.5-0.6l0.9-1.2h0.7V2h1.2v1.2h-1.2v2.3c0,0.4,0.1,0.5,0.4,0.5
			c0.3,0,0.6-0.2,0.7-0.4v1.2c-0.2,0.2-0.5,0.4-1.1,0.4C289.7,7.1,289.2,6.5,289.2,5.5z"/>
		<path id="XMLID_417_" class="st0" d="M292.5,6.7V5.4c0.3,0.3,0.8,0.6,1.5,0.6c0.6,0,0.8-0.2,0.8-0.5c0-0.3-0.1-0.4-0.7-0.5l-0.3,0
			c-1-0.1-1.5-0.7-1.5-1.5c0-0.9,0.6-1.6,2.1-1.6c0.8,0,1.3,0.2,1.6,0.4v1.3c-0.3-0.4-0.8-0.5-1.5-0.5c-0.6,0-0.8,0.2-0.8,0.4
			s0.1,0.4,0.6,0.5l0.3,0c1.1,0.2,1.6,0.6,1.6,1.5c0,0.9-0.6,1.7-2.2,1.7C293.3,7.1,292.8,6.9,292.5,6.7z"/>
		<path id="XMLID_415_" class="st0" d="M298.8,2h1.5l0.7,2.6l1-2.6h0.5l1,2.6l0.6-2.6h1.4l-1.4,5h-0.9l-1.1-2.7L301.1,7h-0.9
			L298.8,2z"/>
		<path id="XMLID_412_" class="st0" d="M306.1,0.8c0-0.4,0.3-0.7,0.8-0.7c0.5,0,0.8,0.3,0.8,0.7c0,0.4-0.3,0.7-0.8,0.7
			C306.4,1.5,306.1,1.2,306.1,0.8z M306.1,2h1.5v5h-1.5V2z"/>
		<path id="XMLID_410_" class="st0" d="M308.9,5.5V3.1h-0.6V2.6l0.5-0.6l0.9-1.2h0.7V2h1.2v1.2h-1.2v2.3c0,0.4,0.1,0.5,0.4,0.5
			c0.3,0,0.6-0.2,0.7-0.4v1.2c-0.2,0.2-0.5,0.4-1.1,0.4C309.3,7.1,308.9,6.5,308.9,5.5z"/>
		<path id="XMLID_408_" class="st0" d="M312.3,0.2h1.5v2.2c0.2-0.3,0.7-0.5,1.3-0.5c1.3,0,1.8,0.7,1.8,2V7h-1.5V4.1
			c0-0.8-0.2-1.1-0.8-1.1c-0.4,0-0.7,0.2-0.8,0.4V7h-1.5V0.2z"/>
		<path id="XMLID_405_" class="st0" d="M319.8,5.6c0-1,0.7-1.4,2.1-1.6l0.7-0.1c0-0.7-0.3-0.9-1-0.9c-0.7,0-1.4,0.4-1.6,0.9V2.5
			c0.2-0.3,0.8-0.7,1.9-0.7c1.4,0,2.2,0.6,2.2,2.1v3h-1.3l-0.1-0.4c-0.1,0.3-0.5,0.6-1.2,0.6C320.5,7.1,319.8,6.6,319.8,5.6z
			 M322.6,4.8l-0.6,0.1c-0.7,0.1-0.9,0.3-0.9,0.7c0,0.3,0.2,0.5,0.6,0.5c0.4,0,0.7-0.2,0.9-0.3V4.8z"/>
		<path id="XMLID_403_" class="st0" d="M325.1,2h1.3l0.1,0.4c0.2-0.3,0.7-0.6,1.3-0.6c1.3,0,1.8,0.7,1.8,2V7h-1.5V4.1
			c0-0.8-0.2-1.1-0.8-1.1c-0.4,0-0.7,0.2-0.8,0.4V7h-1.5V2z"/>
		<path id="XMLID_400_" class="st0" d="M332.6,5.6c0-1,0.7-1.4,2.1-1.6l0.7-0.1c0-0.7-0.3-0.9-1-0.9c-0.7,0-1.4,0.4-1.6,0.9V2.5
			c0.2-0.3,0.8-0.7,1.9-0.7c1.4,0,2.2,0.6,2.2,2.1v3h-1.3l-0.1-0.4c-0.1,0.3-0.5,0.6-1.2,0.6C333.3,7.1,332.6,6.6,332.6,5.6z
			 M335.4,4.8l-0.6,0.1c-0.7,0.1-0.9,0.3-0.9,0.7c0,0.3,0.2,0.5,0.6,0.5c0.4,0,0.7-0.2,0.9-0.3V4.8z"/>
		<path id="XMLID_398_" class="st0" d="M337.6,4.5c0-1.8,1.2-2.6,2.5-2.6c0.7,0,1.3,0.2,1.5,0.4v1.3c-0.3-0.4-0.7-0.5-1.3-0.5
			c-0.8,0-1.2,0.5-1.2,1.4c0,0.9,0.4,1.4,1.2,1.4c0.6,0,1-0.2,1.3-0.5v1.3c-0.2,0.2-0.8,0.5-1.5,0.5C338.6,7.1,337.6,6.3,337.6,4.5z
			"/>
		<path id="XMLID_396_" class="st0" d="M342.4,5.1V2h1.5v2.8c0,0.8,0.2,1.1,0.7,1.1c0.4,0,0.7-0.2,0.8-0.4V2h1.5v5h-1.3l-0.1-0.4
			c-0.2,0.3-0.7,0.6-1.3,0.6C342.9,7.1,342.4,6.4,342.4,5.1z"/>
		<path id="XMLID_394_" class="st0" d="M348.2,5.5V3.1h-0.6V2.6l0.5-0.6l0.9-1.2h0.7V2h1.2v1.2h-1.2v2.3c0,0.4,0.1,0.5,0.4,0.5
			c0.3,0,0.6-0.2,0.7-0.4v1.2c-0.2,0.2-0.5,0.4-1.1,0.4C348.6,7.1,348.2,6.5,348.2,5.5z"/>
		<path id="XMLID_391_" class="st0" d="M351.4,4.5c0-1.8,1.2-2.6,2.4-2.6c1.2,0,2.3,0.5,2.3,2.4v0.6h-3.2c0.1,0.6,0.4,1,1.4,1
			c0.8,0,1.4-0.3,1.6-0.6v1.2c-0.3,0.3-0.9,0.6-1.9,0.6C352.4,7.1,351.4,6.3,351.4,4.5z M354.7,4L354.7,4c0-0.6-0.3-1-0.9-1
			c-0.6,0-0.9,0.5-0.9,1H354.7z"/>
		<path id="XMLID_388_" class="st0" d="M358.8,4.5c0-1.8,1.2-2.6,2.4-2.6c1.2,0,2.3,0.5,2.3,2.4v0.6h-3.2c0.1,0.6,0.4,1,1.4,1
			c0.8,0,1.4-0.3,1.6-0.6v1.2c-0.3,0.3-0.9,0.6-1.9,0.6C359.8,7.1,358.8,6.3,358.8,4.5z M362.2,4L362.2,4c0-0.6-0.3-1-0.9-1
			c-0.6,0-0.9,0.5-0.9,1H362.2z"/>
		<path id="XMLID_386_" class="st0" d="M365.5,4.3L363.9,2h1.6l0.9,1.4l0.8-1.4h1.5l-1.6,2.3l1.8,2.7h-1.6l-1-1.6l-1,1.6h-1.5
			L365.5,4.3z"/>
		<path id="XMLID_383_" class="st0" d="M369.1,5.6c0-1,0.7-1.4,2.1-1.6l0.7-0.1c0-0.7-0.3-0.9-1-0.9c-0.7,0-1.4,0.4-1.6,0.9V2.5
			c0.2-0.3,0.8-0.7,1.9-0.7c1.4,0,2.2,0.6,2.2,2.1v3h-1.3L372,6.5c-0.1,0.3-0.5,0.6-1.2,0.6C369.8,7.1,369.1,6.6,369.1,5.6z
			 M372,4.8l-0.6,0.1c-0.7,0.1-0.9,0.3-0.9,0.7c0,0.3,0.2,0.5,0.6,0.5c0.4,0,0.7-0.2,0.9-0.3V4.8z"/>
		<path id="XMLID_381_" class="st0" d="M374.2,4.5c0-1.8,1.2-2.6,2.5-2.6c0.7,0,1.3,0.2,1.5,0.4v1.3c-0.3-0.4-0.7-0.5-1.3-0.5
			c-0.8,0-1.2,0.5-1.2,1.4c0,0.9,0.4,1.4,1.2,1.4c0.6,0,1-0.2,1.3-0.5v1.3c-0.2,0.2-0.8,0.5-1.5,0.5C375.2,7.1,374.2,6.3,374.2,4.5z
			"/>
		<path id="XMLID_378_" class="st0" d="M378.8,4.5c0-1.8,1.2-2.6,2.4-2.6c1.2,0,2.3,0.5,2.3,2.4v0.6h-3.2c0.1,0.6,0.4,1,1.4,1
			c0.8,0,1.4-0.3,1.6-0.6v1.2c-0.3,0.3-0.9,0.6-1.9,0.6C379.8,7.1,378.8,6.3,378.8,4.5z M382.1,4L382.1,4c0-0.6-0.3-1-0.9-1
			c-0.6,0-0.9,0.5-0.9,1H382.1z"/>
		<path id="XMLID_376_" class="st0" d="M384.3,2h1.2l0.1,0.7c0.1-0.5,0.5-0.8,1-0.8c0.3,0,0.4,0.1,0.5,0.1v1.3
			c-0.1-0.1-0.3-0.1-0.6-0.1c-0.4,0-0.6,0.2-0.7,0.4V7h-1.5V2z"/>
		<path id="XMLID_373_" class="st0" d="M389.1,6.6L388.9,7h-1.1V0.2h1.5v2.2c0.1-0.2,0.6-0.5,1.3-0.5c1.2,0,2,0.7,2,2.5
			c0,1.8-1,2.8-2.2,2.8C389.6,7.1,389.3,6.9,389.1,6.6z M389.2,5.6c0.2,0.2,0.5,0.3,0.8,0.3c0.7,0,1-0.7,1-1.6S390.8,3,390.1,3
			c-0.4,0-0.7,0.2-0.8,0.4V5.6z"/>
		<path id="XMLID_370_" class="st0" d="M393.1,5.6c0-1,0.7-1.4,2.1-1.6l0.7-0.1c0-0.7-0.3-0.9-1-0.9c-0.7,0-1.4,0.4-1.6,0.9V2.5
			c0.2-0.3,0.8-0.7,1.9-0.7c1.4,0,2.2,0.6,2.2,2.1v3h-1.3L396,6.5c-0.1,0.3-0.5,0.6-1.2,0.6C393.8,7.1,393.1,6.6,393.1,5.6z
			 M395.9,4.8l-0.6,0.1c-0.7,0.1-0.9,0.3-0.9,0.7c0,0.3,0.2,0.5,0.6,0.5c0.4,0,0.7-0.2,0.9-0.3V4.8z"/>
		<path id="XMLID_368_" class="st0" d="M398.6,5.5V3.1h-0.6V2.6l0.5-0.6l0.9-1.2h0.7V2h1.2v1.2h-1.2v2.3c0,0.4,0.1,0.5,0.4,0.5
			c0.3,0,0.6-0.2,0.7-0.4v1.2c-0.2,0.2-0.5,0.4-1.1,0.4C399.1,7.1,398.6,6.5,398.6,5.5z"/>
		<path id="XMLID_365_" class="st0" d="M402,0.8c0-0.4,0.3-0.7,0.8-0.7c0.5,0,0.8,0.3,0.8,0.7c0,0.4-0.3,0.7-0.8,0.7
			C402.3,1.5,402,1.2,402,0.8z M402.1,2h1.5v5h-1.5V2z"/>
		<path id="XMLID_362_" class="st0" d="M404.3,4.5c0-1.8,1.2-2.6,2.6-2.6c1.4,0,2.5,0.8,2.5,2.6c0,1.9-1.2,2.6-2.6,2.6
			C405.4,7.1,404.3,6.3,404.3,4.5z M407.9,4.5c0-0.9-0.3-1.4-1-1.4c-0.7,0-1,0.6-1,1.4c0,0.9,0.3,1.4,1,1.4
			C407.6,5.9,407.9,5.3,407.9,4.5z"/>
		<path id="XMLID_360_" class="st0" d="M410.2,2h1.3l0.1,0.4c0.2-0.3,0.7-0.6,1.3-0.6c1.3,0,1.8,0.7,1.8,2V7h-1.5V4.1
			c0-0.8-0.2-1.1-0.8-1.1c-0.4,0-0.7,0.2-0.8,0.4V7h-1.5V2z"/>
		<path id="XMLID_357_" class="st0" d="M417.6,4.5c0-1.8,1.2-2.6,2.6-2.6c1.4,0,2.5,0.8,2.5,2.6c0,1.9-1.2,2.6-2.6,2.6
			C418.7,7.1,417.6,6.3,417.6,4.5z M421.2,4.5c0-0.9-0.3-1.4-1-1.4c-0.7,0-1,0.6-1,1.4c0,0.9,0.3,1.4,1,1.4
			C420.9,5.9,421.2,5.3,421.2,4.5z"/>
		<path id="XMLID_355_" class="st0" d="M423.7,3.1h-0.6V2.6l0.5-0.5c-0.1-0.2-0.2-0.4-0.2-0.7c0-0.9,0.8-1.4,1.8-1.4
			c0.7,0,1.1,0.2,1.2,0.3v1.2c-0.2-0.3-0.5-0.4-0.9-0.4c-0.4,0-0.6,0.2-0.6,0.5c0,0.2,0.1,0.3,0.1,0.4h1v1.2h-0.9V7h-1.5V3.1z"/>
		<path id="XMLID_353_" class="st0" d="M428.8,6.7V5.4c0.3,0.3,0.8,0.6,1.5,0.6c0.6,0,0.8-0.2,0.8-0.5c0-0.3-0.1-0.4-0.7-0.5l-0.3,0
			c-1-0.1-1.5-0.7-1.5-1.5c0-0.9,0.6-1.6,2.1-1.6c0.8,0,1.3,0.2,1.6,0.4v1.3C432,3.2,431.5,3,430.8,3c-0.6,0-0.8,0.2-0.8,0.4
			s0.1,0.4,0.6,0.5l0.3,0c1.1,0.2,1.6,0.6,1.6,1.5c0,0.9-0.6,1.7-2.2,1.7C429.6,7.1,429.1,6.9,428.8,6.7z"/>
		<path id="XMLID_351_" class="st0" d="M433.1,4.5c0-1.8,1.2-2.6,2.5-2.6c0.7,0,1.3,0.2,1.5,0.4v1.3c-0.3-0.4-0.7-0.5-1.3-0.5
			c-0.8,0-1.2,0.5-1.2,1.4c0,0.9,0.4,1.4,1.2,1.4c0.6,0,1-0.2,1.3-0.5v1.3c-0.2,0.2-0.8,0.5-1.5,0.5C434.1,7.1,433.1,6.3,433.1,4.5z
			"/>
		<path id="XMLID_349_" class="st0" d="M437.9,0.2h1.5v2.2c0.2-0.3,0.7-0.5,1.3-0.5c1.3,0,1.8,0.7,1.8,2V7H441V4.1
			c0-0.8-0.2-1.1-0.8-1.1c-0.4,0-0.7,0.2-0.8,0.4V7h-1.5V0.2z"/>
		<path id="XMLID_346_" class="st0" d="M443.5,0.8c0-0.4,0.3-0.7,0.8-0.7c0.5,0,0.8,0.3,0.8,0.7c0,0.4-0.3,0.7-0.8,0.7
			C443.7,1.5,443.5,1.2,443.5,0.8z M443.5,2h1.5v5h-1.5V2z"/>
		<path id="XMLID_344_" class="st0" d="M445.7,6.5l2.1-3.4h-2.1V2h3.9v0.5l-2,3.4h2V7h-3.9V6.5z"/>
		<path id="XMLID_341_" class="st0" d="M450.2,4.5c0-1.8,1.2-2.6,2.6-2.6c1.5,0,2.5,0.8,2.5,2.6c0,1.9-1.2,2.6-2.6,2.6
			C451.2,7.1,450.2,6.3,450.2,4.5z M453.7,4.5c0-0.9-0.3-1.4-1-1.4c-0.7,0-1,0.6-1,1.4c0,0.9,0.3,1.4,1,1.4
			C453.4,5.9,453.7,5.3,453.7,4.5z"/>
		<path id="XMLID_338_" class="st0" d="M456,2h1.3l0.1,0.4c0.2-0.3,0.6-0.6,1.3-0.6c1.3,0,2,0.7,2,2.5c0,1.8-1,2.8-2.2,2.8
			c-0.4,0-0.8-0.1-1.1-0.3v1.9H456V2z M459.3,4.4c0-0.9-0.2-1.4-0.9-1.4c-0.4,0-0.7,0.2-0.8,0.4v2.3c0.2,0.2,0.5,0.3,0.8,0.3
			C459,6,459.3,5.3,459.3,4.4z"/>
		<path id="XMLID_336_" class="st0" d="M461.6,0.2h1.5v2.2c0.2-0.3,0.7-0.5,1.3-0.5c1.3,0,1.8,0.7,1.8,2V7h-1.5V4.1
			c0-0.8-0.2-1.1-0.8-1.1c-0.4,0-0.7,0.2-0.8,0.4V7h-1.5V0.2z"/>
		<path id="XMLID_334_" class="st0" d="M467.1,2h1.2l0.1,0.7c0.1-0.5,0.5-0.8,1-0.8c0.3,0,0.4,0.1,0.5,0.1v1.3
			c-0.1-0.1-0.3-0.1-0.6-0.1c-0.4,0-0.6,0.2-0.7,0.4V7h-1.5V2z"/>
		<path id="XMLID_331_" class="st0" d="M470.3,4.5c0-1.8,1.2-2.6,2.4-2.6c1.2,0,2.3,0.5,2.3,2.4v0.6h-3.2c0.1,0.6,0.4,1,1.3,1
			c0.8,0,1.4-0.3,1.6-0.6v1.2c-0.3,0.3-0.9,0.6-1.9,0.6C471.2,7.1,470.3,6.3,470.3,4.5z M473.6,4L473.6,4c0-0.6-0.3-1-0.9-1
			c-0.6,0-0.9,0.5-0.9,1H473.6z"/>
		<path id="XMLID_329_" class="st0" d="M475.8,2h1.3l0.1,0.4c0.2-0.3,0.7-0.6,1.3-0.6c1.3,0,1.8,0.7,1.8,2V7h-1.5V4.1
			c0-0.8-0.2-1.1-0.8-1.1c-0.4,0-0.7,0.2-0.8,0.4V7h-1.5V2z"/>
		<path id="XMLID_326_" class="st0" d="M481.3,0.8c0-0.4,0.3-0.7,0.8-0.7c0.5,0,0.8,0.3,0.8,0.7c0,0.4-0.3,0.7-0.8,0.7
			C481.6,1.5,481.3,1.2,481.3,0.8z M481.3,2h1.5v5h-1.5V2z"/>
		<path id="XMLID_323_" class="st0" d="M483.6,5.6c0-1,0.7-1.4,2.1-1.6l0.7-0.1c0-0.7-0.3-0.9-1-0.9c-0.7,0-1.4,0.4-1.6,0.9V2.5
			c0.2-0.3,0.8-0.7,1.9-0.7c1.4,0,2.2,0.6,2.2,2.1v3h-1.3l-0.1-0.4c-0.1,0.3-0.5,0.6-1.2,0.6C484.3,7.1,483.6,6.6,483.6,5.6z
			 M486.4,4.8l-0.6,0.1c-0.7,0.1-0.9,0.3-0.9,0.7c0,0.3,0.2,0.5,0.6,0.5c0.4,0,0.7-0.2,0.9-0.3V4.8z"/>
		<path id="XMLID_320_" class="st0" d="M488.9,3c0-0.5,0.4-0.9,0.9-0.9c0.5,0,0.9,0.4,0.9,0.9c0,0.5-0.4,0.9-0.9,0.9
			C489.2,3.8,488.9,3.5,488.9,3z M488.9,6.2c0-0.5,0.4-0.9,0.9-0.9c0.5,0,0.9,0.4,0.9,0.9c0,0.5-0.4,0.9-0.9,0.9
			C489.2,7.1,488.9,6.8,488.9,6.2z"/>
		<path id="XMLID_318_" class="st0" d="M493.7,2h1.2l0.1,0.7c0.1-0.5,0.5-0.8,1-0.8c0.3,0,0.4,0.1,0.5,0.1v1.3
			c-0.1-0.1-0.3-0.1-0.6-0.1c-0.4,0-0.6,0.2-0.7,0.4V7h-1.5V2z"/>
		<path id="XMLID_315_" class="st0" d="M496.8,4.5c0-1.8,1.2-2.6,2.4-2.6c1.2,0,2.3,0.5,2.3,2.4v0.6h-3.2c0.1,0.6,0.4,1,1.3,1
			c0.8,0,1.4-0.3,1.6-0.6v1.2c-0.3,0.3-0.9,0.6-1.9,0.6C497.8,7.1,496.8,6.3,496.8,4.5z M500.2,4L500.2,4c0-0.6-0.3-1-0.9-1
			c-0.6,0-0.9,0.5-0.9,1H500.2z"/>
		<path id="XMLID_313_" class="st0" d="M502.2,6.7V5.4c0.3,0.3,0.8,0.6,1.5,0.6c0.6,0,0.8-0.2,0.8-0.5c0-0.3-0.1-0.4-0.7-0.5l-0.3,0
			c-1-0.1-1.5-0.7-1.5-1.5c0-0.9,0.6-1.6,2.1-1.6c0.8,0,1.3,0.2,1.6,0.4v1.3c-0.3-0.4-0.8-0.5-1.5-0.5c-0.6,0-0.8,0.2-0.8,0.4
			s0.1,0.4,0.6,0.5l0.3,0c1.1,0.2,1.6,0.6,1.6,1.5c0,0.9-0.6,1.7-2.2,1.7C503,7.1,502.5,6.9,502.2,6.7z"/>
		<path id="XMLID_311_" class="st0" d="M506.7,5.1V2h1.5v2.8c0,0.8,0.2,1.1,0.7,1.1c0.4,0,0.7-0.2,0.8-0.4V2h1.5v5h-1.3l-0.1-0.4
			c-0.2,0.3-0.7,0.6-1.3,0.6C507.2,7.1,506.7,6.4,506.7,5.1z"/>
		<path id="XMLID_309_" class="st0" d="M512.2,5.7V0.2h1.5v5.4c0,0.3,0.1,0.4,0.3,0.4c0.2,0,0.4-0.1,0.4-0.2v1.1
			c-0.1,0.1-0.4,0.3-0.9,0.3C512.6,7.1,512.2,6.6,512.2,5.7z"/>
		<path id="XMLID_307_" class="st0" d="M515.2,5.5V3.1h-0.6V2.6l0.5-0.6l0.9-1.2h0.7V2h1.2v1.2h-1.2v2.3c0,0.4,0.1,0.5,0.4,0.5
			c0.3,0,0.6-0.2,0.7-0.4v1.2c-0.2,0.2-0.5,0.4-1.1,0.4C515.7,7.1,515.2,6.5,515.2,5.5z"/>
		<path id="XMLID_305_" class="st0" d="M518.5,6.7V5.4c0.3,0.3,0.8,0.6,1.5,0.6c0.6,0,0.8-0.2,0.8-0.5c0-0.3-0.1-0.4-0.7-0.5l-0.3,0
			c-1-0.1-1.5-0.7-1.5-1.5c0-0.9,0.6-1.6,2.1-1.6c0.8,0,1.3,0.2,1.6,0.4v1.3c-0.3-0.4-0.8-0.5-1.5-0.5c-0.6,0-0.8,0.2-0.8,0.4
			s0.1,0.4,0.6,0.5l0.3,0c1.1,0.2,1.6,0.6,1.6,1.5c0,0.9-0.6,1.7-2.2,1.7C519.3,7.1,518.8,6.9,518.5,6.7z"/>
		<path id="XMLID_303_" class="st0" d="M525.5,3.1h-0.6V2.6l0.5-0.5c-0.1-0.2-0.2-0.4-0.2-0.7c0-0.9,0.8-1.4,1.8-1.4
			c0.7,0,1.1,0.2,1.2,0.3v1.2c-0.2-0.3-0.5-0.4-0.9-0.4c-0.4,0-0.6,0.2-0.6,0.5c0,0.2,0.1,0.3,0.1,0.4h1v1.2h-0.9V7h-1.5V3.1z"/>
		<path id="XMLID_301_" class="st0" d="M528.5,2h1.2l0.1,0.7c0.1-0.5,0.5-0.8,1-0.8c0.3,0,0.4,0.1,0.5,0.1v1.3
			c-0.1-0.1-0.3-0.1-0.6-0.1c-0.4,0-0.6,0.2-0.7,0.4V7h-1.5V2z"/>
		<path id="XMLID_298_" class="st0" d="M531.7,4.5c0-1.8,1.2-2.6,2.6-2.6c1.5,0,2.5,0.8,2.5,2.6c0,1.9-1.2,2.6-2.6,2.6
			C532.7,7.1,531.7,6.3,531.7,4.5z M535.2,4.5c0-0.9-0.3-1.4-1-1.4c-0.7,0-1,0.6-1,1.4c0,0.9,0.3,1.4,1,1.4
			C534.9,5.9,535.2,5.3,535.2,4.5z"/>
		<path id="XMLID_296_" class="st0" d="M537.5,2h1.3l0.1,0.4c0.2-0.3,0.7-0.6,1.3-0.6c0.7,0,1.2,0.2,1.4,0.7
			c0.3-0.3,0.7-0.7,1.5-0.7c1.2,0,1.7,0.7,1.7,2V7h-1.5V4.1c0-0.8-0.2-1.1-0.7-1.1c-0.4,0-0.7,0.2-0.8,0.4c0,0.1,0,0.3,0,0.5V7h-1.5
			V4.1c0-0.8-0.2-1.1-0.7-1.1c-0.4,0-0.6,0.2-0.7,0.4V7h-1.5V2z"/>
		<path id="XMLID_293_" class="st0" d="M547.7,5.6c0-1,0.7-1.4,2.1-1.6l0.7-0.1c0-0.7-0.3-0.9-1-0.9c-0.7,0-1.4,0.4-1.6,0.9V2.5
			c0.2-0.3,0.8-0.7,1.9-0.7c1.4,0,2.2,0.6,2.2,2.1v3h-1.3l-0.1-0.4c-0.1,0.3-0.5,0.6-1.2,0.6C548.4,7.1,547.7,6.6,547.7,5.6z
			 M550.5,4.8l-0.6,0.1c-0.7,0.1-0.9,0.3-0.9,0.7c0,0.3,0.2,0.5,0.6,0.5c0.4,0,0.7-0.2,0.9-0.3V4.8z"/>
		<path id="XMLID_291_" class="st0" d="M555.1,2h1.2l0.1,0.7c0.1-0.5,0.5-0.8,1-0.8c0.3,0,0.4,0.1,0.5,0.1v1.3
			c-0.1-0.1-0.3-0.1-0.6-0.1c-0.4,0-0.6,0.2-0.7,0.4V7h-1.5V2z"/>
		<path id="XMLID_288_" class="st0" d="M558.3,5.6c0-1,0.7-1.4,2.1-1.6l0.7-0.1c0-0.7-0.3-0.9-1-0.9c-0.7,0-1.4,0.4-1.6,0.9V2.5
			c0.2-0.3,0.8-0.7,1.9-0.7c1.4,0,2.2,0.6,2.2,2.1v3h-1.3l-0.1-0.4c-0.1,0.3-0.5,0.6-1.2,0.6C559,7.1,558.3,6.6,558.3,5.6z
			 M561.1,4.8l-0.6,0.1c-0.7,0.1-0.9,0.3-0.9,0.7c0,0.3,0.2,0.5,0.6,0.5c0.4,0,0.7-0.2,0.9-0.3V4.8z"/>
		<path id="XMLID_286_" class="st0" d="M563.6,2h1.3l0.1,0.4c0.2-0.3,0.7-0.6,1.3-0.6c1.3,0,1.8,0.7,1.8,2V7h-1.5V4.1
			c0-0.8-0.2-1.1-0.8-1.1c-0.4,0-0.7,0.2-0.8,0.4V7h-1.5V2z"/>
		<path id="XMLID_283_" class="st0" d="M568.9,4.5c0-1.8,0.9-2.7,2.2-2.7c0.4,0,0.8,0.1,1.1,0.3v-2h1.5V7h-1.3l-0.1-0.4
			c-0.2,0.3-0.6,0.6-1.3,0.6C569.8,7.1,568.9,6.3,568.9,4.5z M572.2,3.3C572,3.1,571.7,3,571.4,3c-0.7,0-1,0.7-1,1.6
			s0.2,1.4,0.9,1.4c0.4,0,0.7-0.2,0.8-0.4V3.3z"/>
		<path id="XMLID_280_" class="st0" d="M574.5,4.5c0-1.8,1.2-2.6,2.6-2.6c1.5,0,2.5,0.8,2.5,2.6c0,1.9-1.2,2.6-2.6,2.6
			C575.5,7.1,574.5,6.3,574.5,4.5z M578,4.5c0-0.9-0.3-1.4-1-1.4c-0.7,0-1,0.6-1,1.4c0,0.9,0.3,1.4,1,1.4C577.7,5.9,578,5.3,578,4.5
			z"/>
		<path id="XMLID_278_" class="st0" d="M580.3,2h1.3l0.1,0.4c0.2-0.3,0.7-0.6,1.3-0.6c0.7,0,1.2,0.2,1.4,0.7
			c0.3-0.3,0.7-0.7,1.5-0.7c1.2,0,1.7,0.7,1.7,2V7h-1.5V4.1c0-0.8-0.2-1.1-0.7-1.1c-0.4,0-0.7,0.2-0.8,0.4c0,0.1,0,0.3,0,0.5V7h-1.5
			V4.1c0-0.8-0.2-1.1-0.7-1.1c-0.4,0-0.6,0.2-0.7,0.4V7h-1.5V2z"/>
		<path id="XMLID_275_" class="st0" d="M588.6,0.8c0-0.4,0.3-0.7,0.8-0.7c0.5,0,0.8,0.3,0.8,0.7c0,0.4-0.3,0.7-0.8,0.7
			C588.8,1.5,588.6,1.2,588.6,0.8z M588.6,2h1.5v5h-1.5V2z"/>
		<path id="XMLID_273_" class="st0" d="M590.8,6.5l2.1-3.4h-2.1V2h3.9v0.5l-2,3.4h2V7h-3.9V6.5z"/>
		<path id="XMLID_270_" class="st0" d="M595.3,4.5c0-1.8,1.2-2.6,2.4-2.6c1.2,0,2.3,0.5,2.3,2.4v0.6h-3.2c0.1,0.6,0.4,1,1.3,1
			c0.8,0,1.4-0.3,1.6-0.6v1.2c-0.3,0.3-0.9,0.6-1.9,0.6C596.3,7.1,595.3,6.3,595.3,4.5z M598.6,4L598.6,4c0-0.6-0.3-1-0.9-1
			c-0.6,0-0.9,0.5-0.9,1H598.6z"/>
		<path id="XMLID_267_" class="st0" d="M600.6,4.5c0-1.8,0.9-2.7,2.2-2.7c0.4,0,0.8,0.1,1.1,0.3v-2h1.5V7H604l-0.1-0.4
			c-0.2,0.3-0.6,0.6-1.3,0.6C601.4,7.1,600.6,6.3,600.6,4.5z M603.9,3.3c-0.2-0.2-0.5-0.3-0.8-0.3c-0.7,0-1,0.7-1,1.6
			s0.2,1.4,0.9,1.4c0.4,0,0.7-0.2,0.8-0.4V3.3z"/>
		<path id="XMLID_265_" class="st0" d="M606.2,8.3c0.2-0.3,0.4-0.9,0.5-1.3c-0.3-0.1-0.5-0.5-0.5-0.8c0-0.5,0.4-0.9,0.9-0.9
			c0.5,0,0.9,0.4,0.9,1c0,0.9-0.7,1.8-1.1,2.1L606.2,8.3z"/>
		<path id="XMLID_262_" class="st0" d="M610.8,4.5c0-1.8,0.9-2.7,2.2-2.7c0.4,0,0.8,0.1,1.1,0.3v-2h1.5V7h-1.3l-0.1-0.4
			c-0.2,0.3-0.6,0.6-1.3,0.6C611.6,7.1,610.8,6.3,610.8,4.5z M614.1,3.3c-0.2-0.2-0.5-0.3-0.8-0.3c-0.7,0-1,0.7-1,1.6
			s0.2,1.4,0.9,1.4c0.4,0,0.7-0.2,0.8-0.4V3.3z"/>
		<path id="XMLID_259_" class="st0" d="M616.3,4.5c0-1.8,1.2-2.6,2.6-2.6c1.5,0,2.5,0.8,2.5,2.6c0,1.9-1.2,2.6-2.6,2.6
			C617.4,7.1,616.3,6.3,616.3,4.5z M619.9,4.5c0-0.9-0.3-1.4-1-1.4c-0.7,0-1,0.6-1,1.4c0,0.9,0.3,1.4,1,1.4
			C619.6,5.9,619.9,5.3,619.9,4.5z"/>
		<path id="XMLID_257_" class="st0" d="M622.1,5.1V2h1.5v2.8c0,0.8,0.2,1.1,0.7,1.1c0.4,0,0.7-0.2,0.8-0.4V2h1.5v5h-1.3l-0.1-0.4
			c-0.2,0.3-0.7,0.6-1.3,0.6C622.6,7.1,622.1,6.4,622.1,5.1z"/>
		<path id="XMLID_254_" class="st0" d="M629,6.6L628.8,7h-1.1V0.2h1.5v2.2c0.1-0.2,0.6-0.5,1.3-0.5c1.2,0,2,0.7,2,2.5
			c0,1.8-1,2.8-2.2,2.8C629.5,7.1,629.2,6.9,629,6.6z M629.1,5.6c0.2,0.2,0.5,0.3,0.8,0.3c0.7,0,1-0.7,1-1.6S630.7,3,630,3
			c-0.4,0-0.7,0.2-0.8,0.4V5.6z"/>
		<path id="XMLID_252_" class="st0" d="M633.2,5.7V0.2h1.5v5.4c0,0.3,0.1,0.4,0.3,0.4c0.2,0,0.4-0.1,0.4-0.2v1.1
			c-0.1,0.1-0.4,0.3-0.9,0.3C633.7,7.1,633.2,6.6,633.2,5.7z"/>
		<path id="XMLID_249_" class="st0" d="M635.8,4.5c0-1.8,1.2-2.6,2.4-2.6c1.2,0,2.3,0.5,2.3,2.4v0.6h-3.2c0.1,0.6,0.4,1,1.3,1
			c0.8,0,1.4-0.3,1.6-0.6v1.2c-0.3,0.3-0.9,0.6-1.9,0.6C636.8,7.1,635.8,6.3,635.8,4.5z M639.2,4L639.2,4c0-0.6-0.3-1-0.9-1
			c-0.6,0-0.9,0.5-0.9,1H639.2z"/>
		<path id="XMLID_247_" class="st0" d="M641.3,3.6h2.4v1.2h-2.4V3.6z"/>
		<path id="XMLID_244_" class="st0" d="M646.1,6.6L645.9,7h-1.1V0.2h1.5v2.2c0.1-0.2,0.6-0.5,1.3-0.5c1.2,0,2,0.7,2,2.5
			c0,1.8-1,2.8-2.2,2.8C646.6,7.1,646.3,6.9,646.1,6.6z M646.3,5.6c0.2,0.2,0.5,0.3,0.8,0.3c0.7,0,1-0.7,1-1.6S647.8,3,647.1,3
			c-0.4,0-0.7,0.2-0.8,0.4V5.6z"/>
		<path id="XMLID_242_" class="st0" d="M650.3,5.7V0.2h1.5v5.4c0,0.3,0.1,0.4,0.3,0.4c0.2,0,0.4-0.1,0.4-0.2v1.1
			c-0.1,0.1-0.4,0.3-0.9,0.3C650.8,7.1,650.3,6.6,650.3,5.7z"/>
		<path id="XMLID_239_" class="st0" d="M653.2,0.8c0-0.4,0.3-0.7,0.8-0.7c0.5,0,0.8,0.3,0.8,0.7c0,0.4-0.3,0.7-0.8,0.7
			C653.5,1.5,653.2,1.2,653.2,0.8z M653.2,2h1.5v5h-1.5V2z"/>
		<path id="XMLID_237_" class="st0" d="M655.7,2h1.3l0.1,0.4c0.2-0.3,0.7-0.6,1.3-0.6c1.3,0,1.8,0.7,1.8,2V7h-1.5V4.1
			c0-0.8-0.2-1.1-0.8-1.1c-0.4,0-0.7,0.2-0.8,0.4V7h-1.5V2z"/>
		<path id="XMLID_234_" class="st0" d="M661.1,4.5c0-1.8,0.9-2.7,2.2-2.7c0.4,0,0.8,0.1,1.1,0.3v-2h1.5V7h-1.3l-0.1-0.4
			c-0.2,0.3-0.6,0.6-1.3,0.6C661.9,7.1,661.1,6.3,661.1,4.5z M664.3,3.3c-0.2-0.2-0.5-0.3-0.8-0.3c-0.7,0-1,0.7-1,1.6
			s0.2,1.4,0.9,1.4c0.4,0,0.7-0.2,0.8-0.4V3.3z"/>
		<path id="XMLID_232_" class="st0" d="M666.7,8.3c0.2-0.3,0.4-0.9,0.5-1.3c-0.3-0.1-0.5-0.5-0.5-0.8c0-0.5,0.4-0.9,0.9-0.9
			c0.5,0,0.9,0.4,0.9,1c0,0.9-0.7,1.8-1.1,2.1L666.7,8.3z"/>
		<path id="XMLID_229_" class="st0" d="M671.7,3.1h-0.6V2.6l0.5-0.5c-0.1-0.2-0.2-0.4-0.2-0.7c0-0.9,0.8-1.4,1.7-1.4
			c0.6,0,0.9,0.2,1,0.3v1.2c-0.1-0.2-0.4-0.4-0.7-0.4c-0.3,0-0.5,0.2-0.5,0.5c0,0.2,0.1,0.3,0.1,0.4h3.1v5h-1.5V3.1h-1.5V7h-1.5V3.1
			z M674.7,0.8c0-0.4,0.3-0.7,0.8-0.7c0.5,0,0.8,0.3,0.8,0.7c0,0.4-0.3,0.7-0.8,0.7C674.9,1.5,674.7,1.3,674.7,0.8z"/>
		<path id="XMLID_227_" class="st0" d="M678.5,4.3L676.9,2h1.6l0.9,1.4l0.8-1.4h1.5l-1.6,2.3l1.8,2.7h-1.6l-1-1.6l-1,1.6h-1.5
			L678.5,4.3z"/>
		<path id="XMLID_224_" class="st0" d="M681.9,4.5c0-1.8,1.2-2.6,2.4-2.6c1.2,0,2.3,0.5,2.3,2.4v0.6h-3.2c0.1,0.6,0.4,1,1.3,1
			c0.8,0,1.4-0.3,1.6-0.6v1.2c-0.3,0.3-0.9,0.6-1.9,0.6C682.9,7.1,681.9,6.3,681.9,4.5z M685.3,4L685.3,4c0-0.6-0.3-1-0.9-1
			c-0.6,0-0.9,0.5-0.9,1H685.3z"/>
		<path id="XMLID_221_" class="st0" d="M687.2,4.5c0-1.8,0.9-2.7,2.2-2.7c0.4,0,0.8,0.1,1.1,0.3v-2h1.5V7h-1.3l-0.1-0.4
			c-0.2,0.3-0.6,0.6-1.3,0.6C688.1,7.1,687.2,6.3,687.2,4.5z M690.5,3.3C690.3,3.1,690,3,689.7,3c-0.7,0-1,0.7-1,1.6
			s0.2,1.4,0.9,1.4c0.4,0,0.7-0.2,0.8-0.4V3.3z"/>
		<path id="XMLID_219_" class="st0" d="M693,3.6h2.4v1.2H693V3.6z"/>
		<path id="XMLID_216_" class="st0" d="M696.2,4.5c0-1.8,0.9-2.7,2.2-2.7c0.4,0,0.8,0.1,1.1,0.3v-2h1.5V7h-1.3l-0.1-0.4
			c-0.2,0.3-0.6,0.6-1.3,0.6C697.1,7.1,696.2,6.3,696.2,4.5z M699.5,3.3C699.3,3.1,699,3,698.7,3c-0.7,0-1,0.7-1,1.6
			s0.2,1.4,0.9,1.4c0.4,0,0.7-0.2,0.8-0.4V3.3z"/>
		<path id="XMLID_213_" class="st0" d="M701.8,4.5c0-1.8,1.2-2.6,2.6-2.6c1.5,0,2.5,0.8,2.5,2.6c0,1.9-1.2,2.6-2.6,2.6
			C702.8,7.1,701.8,6.3,701.8,4.5z M705.3,4.5c0-0.9-0.3-1.4-1-1.4c-0.7,0-1,0.6-1,1.4c0,0.9,0.3,1.4,1,1.4
			C705,5.9,705.3,5.3,705.3,4.5z"/>
		<path id="XMLID_211_" class="st0" d="M707.5,6.7V5.4c0.3,0.3,0.8,0.6,1.5,0.6c0.6,0,0.8-0.2,0.8-0.5c0-0.3-0.1-0.4-0.7-0.5l-0.3,0
			c-1-0.1-1.5-0.7-1.5-1.5c0-0.9,0.6-1.6,2.1-1.6c0.8,0,1.3,0.2,1.6,0.4v1.3c-0.3-0.4-0.8-0.5-1.5-0.5c-0.6,0-0.8,0.2-0.8,0.4
			s0.1,0.4,0.6,0.5l0.3,0c1.1,0.2,1.6,0.6,1.6,1.5c0,0.9-0.6,1.7-2.2,1.7C708.3,7.1,707.7,6.9,707.5,6.7z"/>
		<path id="XMLID_208_" class="st0" d="M711.7,4.5c0-1.8,1.2-2.6,2.4-2.6c1.2,0,2.3,0.5,2.3,2.4v0.6h-3.2c0.1,0.6,0.4,1,1.3,1
			c0.8,0,1.4-0.3,1.6-0.6v1.2c-0.3,0.3-0.9,0.6-1.9,0.6C712.7,7.1,711.7,6.3,711.7,4.5z M715.1,4L715.1,4c0-0.6-0.3-1-0.9-1
			c-0.6,0-0.9,0.5-0.9,1H715.1z"/>
		<path id="XMLID_206_" class="st0" d="M717.1,8.3c0.2-0.3,0.4-0.9,0.5-1.3c-0.3-0.1-0.5-0.5-0.5-0.8c0-0.5,0.4-0.9,0.9-0.9
			c0.5,0,0.9,0.4,0.9,1c0,0.9-0.7,1.8-1.1,2.1L717.1,8.3z"/>
		<path id="XMLID_203_" class="st0" d="M2.5,12.8h1.3l0.1,0.4c0.2-0.3,0.6-0.6,1.3-0.6c1.3,0,2,0.7,2,2.5c0,1.8-1,2.8-2.2,2.8
			c-0.4,0-0.8-0.1-1.1-0.3v1.9H2.5V12.8z M5.8,15.2c0-0.9-0.2-1.4-0.9-1.4c-0.4,0-0.7,0.2-0.8,0.4v2.3c0.2,0.2,0.5,0.3,0.8,0.3
			C5.5,16.8,5.8,16.1,5.8,15.2z"/>
		<path id="XMLID_201_" class="st0" d="M8.1,16.5V11h1.5v5.4c0,0.3,0.1,0.4,0.3,0.4c0.2,0,0.4-0.1,0.4-0.2v1.1
			c-0.1,0.1-0.4,0.3-0.9,0.3C8.5,17.9,8.1,17.4,8.1,16.5z"/>
		<path id="XMLID_198_" class="st0" d="M10.7,16.4c0-1,0.7-1.4,2.1-1.6l0.7-0.1c0-0.7-0.3-0.9-1-0.9c-0.7,0-1.4,0.4-1.6,0.9v-1.4
			c0.2-0.3,0.8-0.7,1.9-0.7c1.4,0,2.2,0.6,2.2,2.1v3h-1.3l-0.1-0.4c-0.1,0.3-0.5,0.6-1.2,0.6C11.4,17.9,10.7,17.4,10.7,16.4z
			 M13.5,15.6L13,15.7c-0.7,0.1-0.9,0.3-0.9,0.7c0,0.3,0.2,0.5,0.6,0.5c0.4,0,0.7-0.2,0.9-0.3V15.6z"/>
		<path id="XMLID_196_" class="st0" d="M15.8,15.3c0-1.8,1.2-2.6,2.5-2.6c0.7,0,1.3,0.2,1.5,0.4v1.3c-0.3-0.4-0.7-0.5-1.3-0.5
			c-0.8,0-1.2,0.5-1.2,1.4c0,0.9,0.4,1.4,1.2,1.4c0.6,0,1-0.2,1.3-0.5v1.3c-0.2,0.2-0.8,0.5-1.5,0.5C16.8,17.9,15.8,17.1,15.8,15.3z
			"/>
		<path id="XMLID_193_" class="st0" d="M20.4,15.3c0-1.8,1.2-2.6,2.4-2.6c1.2,0,2.3,0.5,2.3,2.4v0.6h-3.2c0.1,0.6,0.4,1,1.4,1
			c0.8,0,1.4-0.3,1.6-0.6v1.2c-0.3,0.3-0.9,0.6-1.9,0.6C21.3,17.9,20.4,17.1,20.4,15.3z M23.7,14.8L23.7,14.8c0-0.6-0.3-1-0.9-1
			c-0.6,0-0.9,0.5-0.9,1H23.7z"/>
		<path id="XMLID_190_" class="st0" d="M27.2,17.4L27,17.8h-1.1V11h1.5v2.2c0.1-0.2,0.6-0.5,1.3-0.5c1.2,0,2,0.7,2,2.5
			c0,1.8-1,2.8-2.2,2.8C27.7,17.9,27.4,17.7,27.2,17.4z M27.4,16.4c0.2,0.2,0.5,0.3,0.8,0.3c0.7,0,1-0.7,1-1.6s-0.2-1.4-0.9-1.4
			c-0.4,0-0.7,0.2-0.8,0.4V16.4z"/>
		<path id="XMLID_187_" class="st0" d="M31.2,15.3c0-1.8,1.2-2.6,2.6-2.6c1.4,0,2.5,0.8,2.5,2.6c0,1.9-1.2,2.6-2.6,2.6
			C32.2,17.9,31.2,17.1,31.2,15.3z M34.8,15.3c0-0.9-0.3-1.4-1-1.4c-0.7,0-1,0.6-1,1.4c0,0.9,0.3,1.4,1,1.4
			C34.4,16.7,34.8,16.1,34.8,15.3z"/>
		<path id="XMLID_185_" class="st0" d="M37,14.4h2.4v1.2H37V14.4z"/>
		<path id="XMLID_183_" class="st0" d="M40.2,15.3c0-1.8,1.2-2.6,2.5-2.6c0.7,0,1.3,0.2,1.5,0.4v1.3c-0.3-0.4-0.7-0.5-1.3-0.5
			c-0.8,0-1.2,0.5-1.2,1.4c0,0.9,0.4,1.4,1.2,1.4c0.6,0,1-0.2,1.3-0.5v1.3c-0.2,0.2-0.8,0.5-1.5,0.5C41.2,17.9,40.2,17.1,40.2,15.3z
			"/>
		<path id="XMLID_180_" class="st0" d="M44.8,15.3c0-1.8,1.2-2.6,2.6-2.6c1.4,0,2.5,0.8,2.5,2.6c0,1.9-1.2,2.6-2.6,2.6
			C45.8,17.9,44.8,17.1,44.8,15.3z M48.3,15.3c0-0.9-0.3-1.4-1-1.4c-0.7,0-1,0.6-1,1.4c0,0.9,0.3,1.4,1,1.4
			C48,16.7,48.3,16.1,48.3,15.3z"/>
		<path id="XMLID_178_" class="st0" d="M50.6,12.8h1.3l0.1,0.4c0.2-0.3,0.7-0.6,1.3-0.6c1.3,0,1.8,0.7,1.8,2v3.1h-1.5v-2.9
			c0-0.8-0.2-1.1-0.8-1.1c-0.4,0-0.7,0.2-0.8,0.4v3.6h-1.5V12.8z"/>
		<path id="XMLID_176_" class="st0" d="M56.4,16.3v-2.4h-0.6v-0.5l0.5-0.6l0.9-1.2h0.7v1.2h1.2v1.2h-1.2v2.3c0,0.4,0.1,0.5,0.4,0.5
			c0.3,0,0.6-0.2,0.7-0.4v1.2c-0.2,0.2-0.5,0.4-1.1,0.4C56.9,17.9,56.4,17.3,56.4,16.3z"/>
		<path id="XMLID_174_" class="st0" d="M59.9,12.8h1.2l0.1,0.7c0.1-0.5,0.5-0.8,1-0.8c0.3,0,0.4,0.1,0.5,0.1v1.3
			c-0.1-0.1-0.3-0.1-0.6-0.1c-0.4,0-0.6,0.2-0.7,0.4v3.4h-1.5V12.8z"/>
		<path id="XMLID_171_" class="st0" d="M63,15.3c0-1.8,1.2-2.6,2.6-2.6c1.4,0,2.5,0.8,2.5,2.6c0,1.9-1.2,2.6-2.6,2.6
			C64,17.9,63,17.1,63,15.3z M66.5,15.3c0-0.9-0.3-1.4-1-1.4c-0.7,0-1,0.6-1,1.4c0,0.9,0.3,1.4,1,1.4C66.2,16.7,66.5,16.1,66.5,15.3
			z"/>
		<path id="XMLID_169_" class="st0" d="M68.8,16.5V11h1.5v5.4c0,0.3,0.1,0.4,0.3,0.4c0.2,0,0.4-0.1,0.4-0.2v1.1
			c-0.1,0.1-0.4,0.3-0.9,0.3C69.3,17.9,68.8,17.4,68.8,16.5z"/>
		<path id="XMLID_167_" class="st0" d="M71.7,16.5V11h1.5v5.4c0,0.3,0.1,0.4,0.3,0.4c0.2,0,0.4-0.1,0.4-0.2v1.1
			c-0.1,0.1-0.4,0.3-0.9,0.3C72.1,17.9,71.7,17.4,71.7,16.5z"/>
		<path id="XMLID_164_" class="st0" d="M74.3,15.3c0-1.8,1.2-2.6,2.4-2.6c1.2,0,2.3,0.5,2.3,2.4v0.6h-3.2c0.1,0.6,0.4,1,1.4,1
			c0.8,0,1.4-0.3,1.6-0.6v1.2c-0.3,0.3-0.9,0.6-1.9,0.6C75.3,17.9,74.3,17.1,74.3,15.3z M77.7,14.8L77.7,14.8c0-0.6-0.3-1-0.9-1
			c-0.6,0-0.9,0.5-0.9,1H77.7z"/>
		<path id="XMLID_161_" class="st0" d="M79.6,15.3c0-1.8,0.9-2.7,2.2-2.7c0.4,0,0.8,0.1,1.1,0.3v-2h1.5v6.8h-1.3L83,17.3
			c-0.2,0.3-0.6,0.6-1.3,0.6C80.5,17.9,79.6,17.1,79.6,15.3z M82.9,14.1c-0.2-0.2-0.5-0.3-0.8-0.3c-0.7,0-1,0.7-1,1.6
			s0.2,1.4,0.9,1.4c0.4,0,0.7-0.2,0.8-0.4V14.1z"/>
		<path id="XMLID_159_" class="st0" d="M87.8,16.3v-2.4h-0.6v-0.5l0.5-0.6l0.9-1.2h0.7v1.2h1.2v1.2h-1.2v2.3c0,0.4,0.1,0.5,0.4,0.5
			c0.3,0,0.6-0.2,0.7-0.4v1.2c-0.2,0.2-0.5,0.4-1.1,0.4C88.2,17.9,87.8,17.3,87.8,16.3z"/>
		<path id="XMLID_157_" class="st0" d="M91.2,12.8h1.2l0.1,0.7c0.1-0.5,0.5-0.8,1-0.8c0.3,0,0.4,0.1,0.5,0.1v1.3
			c-0.1-0.1-0.3-0.1-0.6-0.1c-0.4,0-0.6,0.2-0.7,0.4v3.4h-1.5V12.8z"/>
		<path id="XMLID_154_" class="st0" d="M94.7,11.6c0-0.4,0.3-0.7,0.8-0.7c0.5,0,0.8,0.3,0.8,0.7c0,0.4-0.3,0.7-0.8,0.7
			C94.9,12.3,94.7,12,94.7,11.6z M94.7,12.8h1.5v5h-1.5V12.8z"/>
		<path id="XMLID_151_" class="st0" d="M97,16.4c0-1,0.7-1.4,2.1-1.6l0.7-0.1c0-0.7-0.3-0.9-1-0.9c-0.7,0-1.4,0.4-1.6,0.9v-1.4
			c0.2-0.3,0.8-0.7,1.9-0.7c1.4,0,2.2,0.6,2.2,2.1v3H100l-0.1-0.4c-0.1,0.3-0.5,0.6-1.2,0.6C97.7,17.9,97,17.4,97,16.4z M99.8,15.6
			l-0.6,0.1c-0.7,0.1-0.9,0.3-0.9,0.7c0,0.3,0.2,0.5,0.6,0.5c0.4,0,0.7-0.2,0.9-0.3V15.6z"/>
		<path id="XMLID_149_" class="st0" d="M102.2,16.5V11h1.5v5.4c0,0.3,0.1,0.4,0.3,0.4c0.2,0,0.4-0.1,0.4-0.2v1.1
			c-0.1,0.1-0.4,0.3-0.9,0.3C102.7,17.9,102.2,17.4,102.2,16.5z"/>
		<path id="XMLID_147_" class="st0" d="M106.9,12.8h1.5l0.7,2.6l1-2.6h0.5l1,2.6l0.6-2.6h1.4l-1.4,5h-0.9l-1.1-2.7l-1.1,2.7h-0.9
			L106.9,12.8z"/>
		<path id="XMLID_144_" class="st0" d="M114.2,11.6c0-0.4,0.3-0.7,0.8-0.7c0.5,0,0.8,0.3,0.8,0.7c0,0.4-0.3,0.7-0.8,0.7
			C114.5,12.3,114.2,12,114.2,11.6z M114.2,12.8h1.5v5h-1.5V12.8z"/>
		<path id="XMLID_142_" class="st0" d="M117,16.3v-2.4h-0.6v-0.5l0.5-0.6l0.9-1.2h0.7v1.2h1.2v1.2h-1.2v2.3c0,0.4,0.1,0.5,0.4,0.5
			c0.3,0,0.6-0.2,0.7-0.4v1.2c-0.2,0.2-0.5,0.4-1.1,0.4C117.4,17.9,117,17.3,117,16.3z"/>
		<path id="XMLID_140_" class="st0" d="M120.4,11h1.5v2.2c0.2-0.3,0.7-0.5,1.3-0.5c1.3,0,1.8,0.7,1.8,2v3.1h-1.5v-2.9
			c0-0.8-0.2-1.1-0.8-1.1c-0.4,0-0.7,0.2-0.8,0.4v3.6h-1.5V11z"/>
		<path id="XMLID_137_" class="st0" d="M127.9,15.3c0-1.8,1.2-2.6,2.6-2.6c1.4,0,2.5,0.8,2.5,2.6c0,1.9-1.2,2.6-2.6,2.6
			C128.9,17.9,127.9,17.1,127.9,15.3z M131.4,15.3c0-0.9-0.3-1.4-1-1.4c-0.7,0-1,0.6-1,1.4c0,0.9,0.3,1.4,1,1.4
			C131.1,16.7,131.4,16.1,131.4,15.3z"/>
		<path id="XMLID_135_" class="st0" d="M133.7,16.5V11h1.5v5.4c0,0.3,0.1,0.4,0.3,0.4c0.2,0,0.4-0.1,0.4-0.2v1.1
			c-0.1,0.1-0.4,0.3-0.9,0.3C134.2,17.9,133.7,17.4,133.7,16.5z"/>
		<path id="XMLID_132_" class="st0" d="M136.3,16.4c0-1,0.7-1.4,2.1-1.6l0.7-0.1c0-0.7-0.3-0.9-1-0.9c-0.7,0-1.4,0.4-1.6,0.9v-1.4
			c0.2-0.3,0.8-0.7,1.9-0.7c1.4,0,2.2,0.6,2.2,2.1v3h-1.3l-0.1-0.4c-0.1,0.3-0.5,0.6-1.2,0.6C137,17.9,136.3,17.4,136.3,16.4z
			 M139.2,15.6l-0.6,0.1c-0.7,0.1-0.9,0.3-0.9,0.7c0,0.3,0.2,0.5,0.6,0.5c0.4,0,0.7-0.2,0.9-0.3V15.6z"/>
		<path id="XMLID_130_" class="st0" d="M141.6,12.8h1.3l0.1,0.4c0.2-0.3,0.7-0.6,1.3-0.6c1.3,0,1.8,0.7,1.8,2v3.1h-1.5v-2.9
			c0-0.8-0.2-1.1-0.8-1.1c-0.4,0-0.7,0.2-0.8,0.4v3.6h-1.5V12.8z"/>
		<path id="XMLID_128_" class="st0" d="M146.9,17.3l2.1-3.4H147v-1.2h3.9v0.5l-2,3.4h2v1.2h-3.9V17.3z"/>
		<path id="XMLID_125_" class="st0" d="M151.4,16.4c0-1,0.7-1.4,2.1-1.6l0.7-0.1c0-0.7-0.3-0.9-1-0.9c-0.7,0-1.4,0.4-1.6,0.9v-1.4
			c0.2-0.3,0.8-0.7,1.9-0.7c1.4,0,2.2,0.6,2.2,2.1v3h-1.3l-0.1-0.4c-0.1,0.3-0.5,0.6-1.2,0.6C152.1,17.9,151.4,17.4,151.4,16.4z
			 M154.3,15.6l-0.6,0.1c-0.7,0.1-0.9,0.3-0.9,0.7c0,0.3,0.2,0.5,0.6,0.5c0.4,0,0.7-0.2,0.9-0.3V15.6z"/>
		<path id="XMLID_122_" class="st0" d="M156.7,12.8h1.3l0.1,0.4c0.2-0.3,0.6-0.6,1.3-0.6c1.3,0,2,0.7,2,2.5c0,1.8-1,2.8-2.2,2.8
			c-0.4,0-0.8-0.1-1.1-0.3v1.9h-1.5V12.8z M160,15.2c0-0.9-0.2-1.4-0.9-1.4c-0.4,0-0.7,0.2-0.8,0.4v2.3c0.2,0.2,0.5,0.3,0.8,0.3
			C159.7,16.8,160,16.1,160,15.2z"/>
		<path id="XMLID_119_" class="st0" d="M162.3,11.6c0-0.4,0.3-0.7,0.8-0.7c0.5,0,0.8,0.3,0.8,0.7c0,0.4-0.3,0.7-0.8,0.7
			C162.6,12.3,162.3,12,162.3,11.6z M162.3,12.8h1.5v5h-1.5V12.8z"/>
		<path id="XMLID_117_" class="st0" d="M164.8,12.8h1.3l0.1,0.4c0.2-0.3,0.7-0.6,1.3-0.6c1.3,0,1.8,0.7,1.8,2v3.1h-1.5v-2.9
			c0-0.8-0.2-1.1-0.8-1.1c-0.4,0-0.7,0.2-0.8,0.4v3.6h-1.5V12.8z"/>
		<path id="XMLID_114_" class="st0" d="M170.1,15.3c0-1.8,1.2-2.6,2.4-2.6c1.2,0,2.3,0.5,2.3,2.4v0.6h-3.2c0.1,0.6,0.4,1,1.4,1
			c0.8,0,1.4-0.3,1.6-0.6v1.2c-0.3,0.3-0.9,0.6-1.9,0.6C171.1,17.9,170.1,17.1,170.1,15.3z M173.5,14.8L173.5,14.8
			c0-0.6-0.3-1-0.9-1c-0.6,0-0.9,0.5-0.9,1H173.5z"/>
		<path id="XMLID_111_" class="st0" d="M177.6,16.4c0-1,0.7-1.4,2.1-1.6l0.7-0.1c0-0.7-0.3-0.9-1-0.9c-0.7,0-1.4,0.4-1.6,0.9v-1.4
			c0.2-0.3,0.8-0.7,1.9-0.7c1.4,0,2.2,0.6,2.2,2.1v3h-1.3l-0.1-0.4c-0.1,0.3-0.5,0.6-1.2,0.6C178.3,17.9,177.6,17.4,177.6,16.4z
			 M180.4,15.6l-0.6,0.1c-0.7,0.1-0.9,0.3-0.9,0.7c0,0.3,0.2,0.5,0.6,0.5c0.4,0,0.7-0.2,0.9-0.3V15.6z"/>
		<path id="XMLID_109_" class="st0" d="M182.8,17.5v-1.3c0.3,0.3,0.8,0.6,1.5,0.6c0.6,0,0.8-0.2,0.8-0.5c0-0.3-0.1-0.4-0.7-0.5
			l-0.3,0c-1-0.1-1.5-0.7-1.5-1.5c0-0.9,0.6-1.6,2.1-1.6c0.8,0,1.3,0.2,1.6,0.4v1.3c-0.3-0.4-0.8-0.5-1.5-0.5
			c-0.6,0-0.8,0.2-0.8,0.4s0.1,0.4,0.6,0.5l0.3,0c1.1,0.2,1.6,0.6,1.6,1.5c0,0.9-0.6,1.7-2.2,1.7C183.5,17.9,183,17.7,182.8,17.5z"
			/>
		<path id="XMLID_106_" class="st0" d="M189.2,16.4c0-1,0.7-1.4,2.1-1.6l0.7-0.1c0-0.7-0.3-0.9-1-0.9c-0.7,0-1.4,0.4-1.6,0.9v-1.4
			c0.2-0.3,0.8-0.7,1.9-0.7c1.4,0,2.2,0.6,2.2,2.1v3h-1.3l-0.1-0.4c-0.1,0.3-0.5,0.6-1.2,0.6C189.9,17.9,189.2,17.4,189.2,16.4z
			 M192,15.6l-0.6,0.1c-0.7,0.1-0.9,0.3-0.9,0.7c0,0.3,0.2,0.5,0.6,0.5c0.4,0,0.7-0.2,0.9-0.3V15.6z"/>
		<path id="XMLID_104_" class="st0" d="M194.5,12.8h1.3l0.1,0.4c0.2-0.3,0.7-0.6,1.3-0.6c1.3,0,1.8,0.7,1.8,2v3.1h-1.5v-2.9
			c0-0.8-0.2-1.1-0.8-1.1c-0.4,0-0.7,0.2-0.8,0.4v3.6h-1.5V12.8z"/>
		<path id="XMLID_101_" class="st0" d="M201.9,16.4c0-1,0.7-1.4,2.1-1.6l0.7-0.1c0-0.7-0.3-0.9-1-0.9c-0.7,0-1.4,0.4-1.6,0.9v-1.4
			c0.2-0.3,0.8-0.7,1.9-0.7c1.4,0,2.2,0.6,2.2,2.1v3H205l-0.1-0.4c-0.1,0.3-0.5,0.6-1.2,0.6C202.6,17.9,201.9,17.4,201.9,16.4z
			 M204.8,15.6l-0.6,0.1c-0.7,0.1-0.9,0.3-0.9,0.7c0,0.3,0.2,0.5,0.6,0.5c0.4,0,0.7-0.2,0.9-0.3V15.6z"/>
		<path id="XMLID_99_" class="st0" d="M207,15.3c0-1.8,1.2-2.6,2.5-2.6c0.7,0,1.3,0.2,1.5,0.4v1.3c-0.3-0.4-0.7-0.5-1.3-0.5
			c-0.8,0-1.2,0.5-1.2,1.4c0,0.9,0.4,1.4,1.2,1.4c0.6,0,1-0.2,1.3-0.5v1.3c-0.2,0.2-0.8,0.5-1.5,0.5C208,17.9,207,17.1,207,15.3z"/>
		<path id="XMLID_97_" class="st0" d="M212.1,16.3v-2.4h-0.6v-0.5l0.5-0.6l0.9-1.2h0.7v1.2h1.2v1.2h-1.2v2.3c0,0.4,0.1,0.5,0.4,0.5
			c0.3,0,0.6-0.2,0.7-0.4v1.2c-0.2,0.2-0.5,0.4-1.1,0.4C212.5,17.9,212.1,17.3,212.1,16.3z"/>
		<path id="XMLID_94_" class="st0" d="M215.5,11.6c0-0.4,0.3-0.7,0.8-0.7c0.5,0,0.8,0.3,0.8,0.7c0,0.4-0.3,0.7-0.8,0.7
			C215.8,12.3,215.5,12,215.5,11.6z M215.5,12.8h1.5v5h-1.5V12.8z"/>
		<path id="XMLID_92_" class="st0" d="M217.5,12.8h1.6l0.8,2.4l0.2,0.5c0-0.1,0.1-0.4,0.2-0.5l0.8-2.4h1.4l-2,5h-1L217.5,12.8z"/>
		<path id="XMLID_89_" class="st0" d="M222.7,15.3c0-1.8,1.2-2.6,2.4-2.6c1.2,0,2.3,0.5,2.3,2.4v0.6h-3.2c0.1,0.6,0.4,1,1.4,1
			c0.8,0,1.4-0.3,1.6-0.6v1.2c-0.3,0.3-0.9,0.6-1.9,0.6C223.6,17.9,222.7,17.1,222.7,15.3z M226,14.8L226,14.8c0-0.6-0.3-1-0.9-1
			c-0.6,0-0.9,0.5-0.9,1H226z"/>
		<path id="XMLID_87_" class="st0" d="M230.1,15.3c0-1.8,1.2-2.6,2.5-2.6c0.7,0,1.3,0.2,1.5,0.4v1.3c-0.3-0.4-0.7-0.5-1.3-0.5
			c-0.8,0-1.2,0.5-1.2,1.4c0,0.9,0.4,1.4,1.2,1.4c0.6,0,1-0.2,1.3-0.5v1.3c-0.2,0.2-0.8,0.5-1.5,0.5
			C231.1,17.9,230.1,17.1,230.1,15.3z"/>
		<path id="XMLID_84_" class="st0" d="M234.7,15.3c0-1.8,1.2-2.6,2.6-2.6c1.4,0,2.5,0.8,2.5,2.6c0,1.9-1.2,2.6-2.6,2.6
			C235.7,17.9,234.7,17.1,234.7,15.3z M238.2,15.3c0-0.9-0.3-1.4-1-1.4c-0.7,0-1,0.6-1,1.4c0,0.9,0.3,1.4,1,1.4
			C237.9,16.7,238.2,16.1,238.2,15.3z"/>
		<path id="XMLID_82_" class="st0" d="M240.5,12.8h1.3l0.1,0.4c0.2-0.3,0.7-0.6,1.3-0.6c1.3,0,1.8,0.7,1.8,2v3.1h-1.5v-2.9
			c0-0.8-0.2-1.1-0.8-1.1c-0.4,0-0.7,0.2-0.8,0.4v3.6h-1.5V12.8z"/>
		<path id="XMLID_80_" class="st0" d="M246.3,16.3v-2.4h-0.6v-0.5l0.5-0.6l0.9-1.2h0.7v1.2h1.2v1.2h-1.2v2.3c0,0.4,0.1,0.5,0.4,0.5
			c0.3,0,0.6-0.2,0.7-0.4v1.2c-0.2,0.2-0.5,0.4-1.1,0.4C246.8,17.9,246.3,17.3,246.3,16.3z"/>
		<path id="XMLID_78_" class="st0" d="M249.8,12.8h1.2l0.1,0.7c0.1-0.5,0.5-0.8,1-0.8c0.3,0,0.4,0.1,0.5,0.1v1.3
			c-0.1-0.1-0.3-0.1-0.6-0.1c-0.4,0-0.6,0.2-0.7,0.4v3.4h-1.5V12.8z"/>
		<path id="XMLID_75_" class="st0" d="M252.9,15.3c0-1.8,1.2-2.6,2.6-2.6c1.4,0,2.5,0.8,2.5,2.6c0,1.9-1.2,2.6-2.6,2.6
			C253.9,17.9,252.9,17.1,252.9,15.3z M256.4,15.3c0-0.9-0.3-1.4-1-1.4c-0.7,0-1,0.6-1,1.4c0,0.9,0.3,1.4,1,1.4
			C256.1,16.7,256.4,16.1,256.4,15.3z"/>
		<path id="XMLID_73_" class="st0" d="M258.7,16.5V11h1.5v5.4c0,0.3,0.1,0.4,0.3,0.4c0.2,0,0.4-0.1,0.4-0.2v1.1
			c-0.1,0.1-0.4,0.3-0.9,0.3C259.2,17.9,258.7,17.4,258.7,16.5z"/>
		<path id="XMLID_70_" class="st0" d="M261.4,13.5c0.1-0.3,0.3-0.8,0.4-1.2c-0.3-0.1-0.4-0.4-0.4-0.7c0-0.5,0.3-0.8,0.8-0.8
			c0.5,0,0.8,0.3,0.8,0.8c0,0.8-0.6,1.6-1,1.9L261.4,13.5z M263.2,13.5c0.1-0.3,0.3-0.8,0.4-1.2c-0.3-0.1-0.4-0.4-0.4-0.7
			c0-0.5,0.3-0.8,0.8-0.8c0.5,0,0.8,0.3,0.8,0.8c0,0.8-0.6,1.6-1,1.9L263.2,13.5z"/>
		<path id="XMLID_68_" class="st0" d="M267.8,11.6h2.1c1.8,0,2.6,0.8,2.6,2.1c0,1.3-0.8,2.3-2.6,2.3h-0.3v-1.1h0.3
			c0.7,0,1.1-0.4,1.1-1.1c0-0.7-0.4-1-1.1-1h-0.5v5h-1.5V11.6z"/>
		<path id="XMLID_66_" class="st0" d="M273.1,15.9v-3.1h1.5v2.8c0,0.8,0.2,1.1,0.7,1.1c0.4,0,0.7-0.2,0.8-0.4v-3.6h1.5v5h-1.3
			l-0.1-0.4c-0.2,0.3-0.7,0.6-1.3,0.6C273.6,17.9,273.1,17.2,273.1,15.9z"/>
		<path id="XMLID_63_" class="st0" d="M279.9,17.4l-0.2,0.4h-1.1V11h1.5v2.2c0.1-0.2,0.6-0.5,1.3-0.5c1.2,0,2,0.7,2,2.5
			c0,1.8-1,2.8-2.2,2.8C280.5,17.9,280.1,17.7,279.9,17.4z M280.1,16.4c0.2,0.2,0.5,0.3,0.8,0.3c0.7,0,1-0.7,1-1.6s-0.2-1.4-0.9-1.4
			c-0.4,0-0.7,0.2-0.8,0.4V16.4z"/>
		<path id="XMLID_61_" class="st0" d="M284.2,16.5V11h1.5v5.4c0,0.3,0.1,0.4,0.3,0.4c0.2,0,0.4-0.1,0.4-0.2v1.1
			c-0.1,0.1-0.4,0.3-0.9,0.3C284.6,17.9,284.2,17.4,284.2,16.5z"/>
		<path id="XMLID_58_" class="st0" d="M287,11.6c0-0.4,0.3-0.7,0.8-0.7c0.5,0,0.8,0.3,0.8,0.7c0,0.4-0.3,0.7-0.8,0.7
			C287.3,12.3,287,12,287,11.6z M287.1,12.8h1.5v5h-1.5V12.8z"/>
		<path id="XMLID_56_" class="st0" d="M289.5,17.5v-1.3c0.3,0.3,0.8,0.6,1.5,0.6c0.6,0,0.8-0.2,0.8-0.5c0-0.3-0.1-0.4-0.7-0.5
			l-0.3,0c-1-0.1-1.5-0.7-1.5-1.5c0-0.9,0.6-1.6,2.1-1.6c0.8,0,1.3,0.2,1.6,0.4v1.3c-0.3-0.4-0.8-0.5-1.5-0.5
			c-0.6,0-0.8,0.2-0.8,0.4s0.1,0.4,0.6,0.5l0.3,0c1.1,0.2,1.6,0.6,1.6,1.5c0,0.9-0.6,1.7-2.2,1.7C290.2,17.9,289.7,17.7,289.5,17.5z
			"/>
		<path id="XMLID_54_" class="st0" d="M294,11h1.5v2.2c0.2-0.3,0.7-0.5,1.3-0.5c1.3,0,1.8,0.7,1.8,2v3.1H297v-2.9
			c0-0.8-0.2-1.1-0.8-1.1c-0.4,0-0.7,0.2-0.8,0.4v3.6H294V11z"/>
		<path id="XMLID_51_" class="st0" d="M299.3,15.3c0-1.8,1.2-2.6,2.4-2.6c1.2,0,2.3,0.5,2.3,2.4v0.6h-3.2c0.1,0.6,0.4,1,1.4,1
			c0.8,0,1.4-0.3,1.6-0.6v1.2c-0.3,0.3-0.9,0.6-1.9,0.6C300.2,17.9,299.3,17.1,299.3,15.3z M302.6,14.8L302.6,14.8
			c0-0.6-0.3-1-0.9-1c-0.6,0-0.9,0.5-0.9,1H302.6z"/>
		<path id="XMLID_48_" class="st0" d="M304.6,15.3c0-1.8,0.9-2.7,2.2-2.7c0.4,0,0.8,0.1,1.1,0.3v-2h1.5v6.8H308l-0.1-0.4
			c-0.2,0.3-0.6,0.6-1.3,0.6C305.4,17.9,304.6,17.1,304.6,15.3z M307.8,14.1c-0.2-0.2-0.5-0.3-0.8-0.3c-0.7,0-1,0.7-1,1.6
			s0.2,1.4,0.9,1.4c0.4,0,0.7-0.2,0.8-0.4V14.1z"/>
		<path id="XMLID_45_" class="st0" d="M312.5,11.6c0-0.4,0.3-0.7,0.8-0.7c0.5,0,0.8,0.3,0.8,0.7c0,0.4-0.3,0.7-0.8,0.7
			C312.8,12.3,312.5,12,312.5,11.6z M312.5,12.8h1.5v5h-1.5V12.8z"/>
		<path id="XMLID_43_" class="st0" d="M315,12.8h1.3l0.1,0.4c0.2-0.3,0.7-0.6,1.3-0.6c1.3,0,1.8,0.7,1.8,2v3.1h-1.5v-2.9
			c0-0.8-0.2-1.1-0.8-1.1c-0.4,0-0.7,0.2-0.8,0.4v3.6H315V12.8z"/>
		<path id="XMLID_41_" class="st0" d="M322.5,14.7c0-2.1,1.3-3.2,3-3.2c1,0,1.5,0.3,1.8,0.5v1.5c-0.3-0.5-0.8-0.7-1.6-0.7
			c-1.1,0-1.6,0.7-1.6,1.9c0,1.2,0.6,2,1.6,2c0.7,0,1.3-0.2,1.6-0.7v1.4c-0.3,0.3-1,0.6-1.8,0.6C323.7,17.9,322.5,16.8,322.5,14.7z"
			/>
		<path id="XMLID_39_" class="st0" d="M328.2,12.2l-0.4-0.6h1.8l2.5,3.6h0v-3.6h1.3v6.2h-1.2l-2.7-3.8h0v3.8h-1.4V12.2z"/>
		<path id="XMLID_37_" class="st0" d="M334.5,17.5V16c0.3,0.4,0.9,0.7,1.6,0.7c0.7,0,1-0.3,1-0.7c0-0.4-0.2-0.5-0.8-0.6l-0.2,0
			c-1-0.2-1.6-0.8-1.6-1.9c0-1.2,0.9-2,2.3-2c0.9,0,1.4,0.2,1.7,0.4v1.5c-0.3-0.4-0.9-0.7-1.7-0.7c-0.6,0-0.9,0.2-0.9,0.6
			c0,0.4,0.1,0.5,0.7,0.7l0.2,0c1,0.2,1.7,0.7,1.7,1.8c0,1.2-0.9,2.1-2.4,2.1C335.2,17.9,334.7,17.7,334.5,17.5z"/>
		<path id="XMLID_35_" class="st0" d="M341.5,17.5v-1.3c0.3,0.3,0.8,0.6,1.5,0.6c0.6,0,0.8-0.2,0.8-0.5c0-0.3-0.1-0.4-0.7-0.5
			l-0.3,0c-1-0.1-1.5-0.7-1.5-1.5c0-0.9,0.6-1.6,2.1-1.6c0.8,0,1.3,0.2,1.6,0.4v1.3c-0.3-0.4-0.8-0.5-1.5-0.5
			c-0.6,0-0.8,0.2-0.8,0.4s0.1,0.4,0.6,0.5l0.3,0c1.1,0.2,1.6,0.6,1.6,1.5c0,0.9-0.6,1.7-2.2,1.7C342.3,17.9,341.7,17.7,341.5,17.5z
			"/>
		<path id="XMLID_32_" class="st0" d="M346,12.8h1.3l0.1,0.4c0.2-0.3,0.6-0.6,1.3-0.6c1.3,0,2,0.7,2,2.5c0,1.8-1,2.8-2.2,2.8
			c-0.4,0-0.8-0.1-1.1-0.3v1.9H346V12.8z M349.2,15.2c0-0.9-0.2-1.4-0.9-1.4c-0.4,0-0.7,0.2-0.8,0.4v2.3c0.2,0.2,0.5,0.3,0.8,0.3
			C349,16.8,349.2,16.1,349.2,15.2z"/>
		<path id="XMLID_29_" class="st0" d="M351.3,15.3c0-1.8,1.2-2.6,2.4-2.6c1.2,0,2.3,0.5,2.3,2.4v0.6h-3.2c0.1,0.6,0.4,1,1.4,1
			c0.8,0,1.4-0.3,1.6-0.6v1.2c-0.3,0.3-0.9,0.6-1.9,0.6C352.3,17.9,351.3,17.1,351.3,15.3z M354.6,14.8L354.6,14.8
			c0-0.6-0.3-1-0.9-1c-0.6,0-0.9,0.5-0.9,1H354.6z"/>
		<path id="XMLID_27_" class="st0" d="M356.6,15.3c0-1.8,1.2-2.6,2.5-2.6c0.7,0,1.3,0.2,1.5,0.4v1.3c-0.3-0.4-0.7-0.5-1.3-0.5
			c-0.8,0-1.2,0.5-1.2,1.4c0,0.9,0.4,1.4,1.2,1.4c0.6,0,1-0.2,1.3-0.5v1.3c-0.2,0.2-0.8,0.5-1.5,0.5
			C357.6,17.9,356.6,17.1,356.6,15.3z"/>
		<path id="XMLID_25_" class="st0" d="M361.7,16.3v-2.4h-0.6v-0.5l0.5-0.6l0.9-1.2h0.7v1.2h1.2v1.2h-1.2v2.3c0,0.4,0.1,0.5,0.4,0.5
			c0.3,0,0.6-0.2,0.7-0.4v1.2c-0.2,0.2-0.5,0.4-1.1,0.4C362.1,17.9,361.7,17.3,361.7,16.3z"/>
		<path id="XMLID_23_" class="st0" d="M365.1,12.8h1.2l0.1,0.7c0.1-0.5,0.5-0.8,1-0.8c0.3,0,0.4,0.1,0.5,0.1v1.3
			c-0.1-0.1-0.3-0.1-0.6-0.1c-0.4,0-0.6,0.2-0.7,0.4v3.4h-1.5V12.8z"/>
		<path id="XMLID_21_" class="st0" d="M368.5,15.9v-3.1h1.5v2.8c0,0.8,0.2,1.1,0.7,1.1c0.4,0,0.7-0.2,0.8-0.4v-3.6h1.5v5h-1.3
			l-0.1-0.4c-0.2,0.3-0.7,0.6-1.3,0.6C369,17.9,368.5,17.2,368.5,15.9z"/>
		<path id="XMLID_19_" class="st0" d="M374,12.8h1.3l0.1,0.4c0.2-0.3,0.7-0.6,1.3-0.6c0.7,0,1.2,0.2,1.4,0.7
			c0.3-0.3,0.7-0.7,1.5-0.7c1.2,0,1.7,0.7,1.7,2v3.1h-1.5v-2.9c0-0.8-0.2-1.1-0.7-1.1c-0.4,0-0.7,0.2-0.8,0.4c0,0.1,0,0.3,0,0.5v3.1
			h-1.5v-2.9c0-0.8-0.2-1.1-0.7-1.1c-0.4,0-0.6,0.2-0.7,0.4v3.6H374V12.8z"/>
		<path id="XMLID_17_" class="st0" d="M382.2,17.5v-1.3c0.3,0.3,0.8,0.6,1.5,0.6c0.6,0,0.8-0.2,0.8-0.5c0-0.3-0.1-0.4-0.7-0.5
			l-0.3,0c-1-0.1-1.5-0.7-1.5-1.5c0-0.9,0.6-1.6,2.1-1.6c0.8,0,1.3,0.2,1.6,0.4v1.3c-0.3-0.4-0.8-0.5-1.5-0.5
			c-0.6,0-0.8,0.2-0.8,0.4s0.1,0.4,0.6,0.5l0.3,0c1.1,0.2,1.6,0.6,1.6,1.5c0,0.9-0.6,1.7-2.2,1.7C383,17.9,382.4,17.7,382.2,17.5z"
			/>
		<path id="XMLID_15_" class="st0" d="M386.5,19.1c0.2-0.3,0.4-0.9,0.5-1.3c-0.3-0.1-0.5-0.5-0.5-0.8c0-0.5,0.4-0.9,0.9-0.9
			c0.5,0,0.9,0.4,0.9,1c0,0.9-0.7,1.8-1.1,2.1L386.5,19.1z"/>
		<path id="XMLID_13_" class="st0" d="M389,17.4l1.8-2.3c0.4-0.4,0.7-0.9,0.7-1.5c0-0.6-0.3-0.9-1-0.9c-0.6,0-1.2,0.3-1.5,0.7v-1.3
			c0.3-0.3,0.9-0.6,1.8-0.6c1.5,0,2.2,0.7,2.2,2c0,1-0.6,1.8-1.2,2.4l-0.5,0.6h1.8v1.3h-4V17.4z"/>
		<path id="XMLID_10_" class="st0" d="M393.6,14.7c0-2.1,1.5-3.2,3.2-3.2c1.9,0,3.1,1.1,3.1,3.2c0,2.1-1.4,3.2-3.1,3.2
			C394.8,17.9,393.6,16.7,393.6,14.7z M398.4,14.7c0-1.3-0.7-2-1.6-2s-1.6,0.7-1.6,2c0,1.3,0.7,2,1.6,2S398.4,16,398.4,14.7z"/>
		<path id="XMLID_8_" class="st0" d="M401.7,13.4c-0.2,0.2-0.8,0.3-1.3,0.3v-1.3c0.9,0,1.5-0.2,2-0.8h0.8v6.2h-1.4V13.4z"/>
		<path id="XMLID_6_" class="st0" d="M406.3,12.9h-2.5v-1.3h4.2v0.3l-2.1,5.9h-1.5L406.3,12.9z"/>
		<path id="XMLID_4_" class="st0" d="M408.1,17c0-0.5,0.4-0.9,0.9-0.9c0.5,0,0.9,0.4,0.9,0.9c0,0.5-0.4,0.9-0.9,0.9
			C408.4,17.9,408.1,17.5,408.1,17z"/>
	</g>
</g>
</svg>
