<!-- Generator: Adobe Illustrator 22.1.0, SVG Export Plug-In  -->
<svg version="1.1"
	 xmlns="http://www.w3.org/2000/svg" xmlns:xlink="http://www.w3.org/1999/xlink" xmlns:a="http://ns.adobe.com/AdobeSVGViewerExtensions/3.0/"
	 x="0px" y="0px" width="670.4px" height="8.9px" viewBox="0 0 670.4 8.9" style="enable-background:new 0 0 670.4 8.9;"
	 xml:space="preserve">
<style type="text/css">
	.st0{fill:#231F20;}
</style>
<defs>
</defs>
<g id="XMLID_1_">
	<g id="XMLID_3_">
		<path id="XMLID_330_" class="st0" d="M0,6.7V5.2c0.3,0.4,0.9,0.7,1.6,0.7c0.7,0,1-0.3,1-0.7c0-0.4-0.2-0.5-0.8-0.6l-0.2,0
			C0.7,4.3,0,3.7,0,2.6c0-1.2,0.9-2,2.3-2c0.9,0,1.4,0.2,1.7,0.4v1.5C3.7,2.2,3.1,1.9,2.3,1.9c-0.6,0-0.9,0.2-0.9,0.6
			c0,0.4,0.1,0.5,0.7,0.7l0.2,0c1,0.2,1.7,0.7,1.7,1.8c0,1.2-0.9,2.1-2.4,2.1C0.8,7.1,0.3,6.9,0,6.7z"/>
		<path id="XMLID_328_" class="st0" d="M4.7,4.5c0-1.8,1.2-2.6,2.5-2.6C8,1.8,8.5,2,8.7,2.3v1.3C8.4,3.2,8,3.1,7.5,3.1
			c-0.8,0-1.2,0.5-1.2,1.4c0,0.9,0.4,1.4,1.2,1.4c0.6,0,1-0.2,1.3-0.5v1.3C8.5,6.8,8,7.1,7.2,7.1C5.8,7.1,4.7,6.3,4.7,4.5z"/>
		<path id="XMLID_326_" class="st0" d="M9.6,0.2h1.5v2.2c0.2-0.3,0.7-0.5,1.3-0.5c1.3,0,1.8,0.7,1.8,2V7h-1.5V4.1
			c0-0.8-0.2-1.1-0.8-1.1c-0.4,0-0.7,0.2-0.8,0.4V7H9.6V0.2z"/>
		<path id="XMLID_323_" class="st0" d="M14.9,4.5c0-1.8,1.2-2.6,2.6-2.6c1.4,0,2.5,0.8,2.5,2.6c0,1.9-1.2,2.6-2.6,2.6
			C15.9,7.1,14.9,6.3,14.9,4.5z M18.4,4.5c0-0.9-0.3-1.4-1-1.4c-0.7,0-1,0.6-1,1.4c0,0.9,0.3,1.4,1,1.4C18.1,5.9,18.4,5.3,18.4,4.5z
			"/>
		<path id="XMLID_320_" class="st0" d="M20.5,4.5c0-1.8,1.2-2.6,2.4-2.6c1.2,0,2.3,0.5,2.3,2.4v0.6H22c0.1,0.6,0.4,1,1.4,1
			c0.8,0,1.4-0.3,1.6-0.6v1.2c-0.3,0.3-0.9,0.6-1.9,0.6C21.5,7.1,20.5,6.3,20.5,4.5z M23.8,4L23.8,4c0-0.6-0.3-1-0.9-1
			C22.3,3,22,3.4,22,4H23.8z"/>
		<path id="XMLID_318_" class="st0" d="M26,2h1.3l0.1,0.4c0.2-0.3,0.7-0.6,1.3-0.6c0.7,0,1.2,0.2,1.4,0.7c0.3-0.3,0.7-0.7,1.5-0.7
			c1.2,0,1.7,0.7,1.7,2V7h-1.5V4.1c0-0.8-0.2-1.1-0.7-1.1c-0.4,0-0.7,0.2-0.8,0.4c0,0.1,0,0.3,0,0.5V7h-1.5V4.1
			c0-0.8-0.2-1.1-0.7-1.1c-0.4,0-0.6,0.2-0.7,0.4V7H26V2z"/>
		<path id="XMLID_315_" class="st0" d="M34,5.6c0-1,0.7-1.4,2.1-1.6l0.7-0.1c0-0.7-0.3-0.9-1-0.9c-0.7,0-1.4,0.4-1.6,0.9V2.5
			c0.2-0.3,0.8-0.7,1.9-0.7c1.4,0,2.2,0.6,2.2,2.1v3H37l-0.1-0.4c-0.1,0.3-0.5,0.6-1.2,0.6C34.7,7.1,34,6.6,34,5.6z M36.9,4.8
			l-0.6,0.1c-0.7,0.1-0.9,0.3-0.9,0.7c0,0.3,0.2,0.5,0.6,0.5c0.4,0,0.7-0.2,0.9-0.3V4.8z"/>
		<path id="XMLID_313_" class="st0" d="M41.3,4.9c-0.3,0.2-0.5,0.4-0.5,0.4V7h-1.5V0.2h1.5v3.6c0,0,1-0.8,1.7-1.8h1.5
			c-0.4,0.7-1,1.4-1.5,1.9L44.2,7h-1.7L41.3,4.9z"/>
		<path id="XMLID_310_" class="st0" d="M44.3,4.5c0-1.8,1.2-2.6,2.4-2.6c1.2,0,2.3,0.5,2.3,2.4v0.6h-3.2c0.1,0.6,0.4,1,1.4,1
			c0.8,0,1.4-0.3,1.6-0.6v1.2c-0.3,0.3-0.9,0.6-1.9,0.6C45.3,7.1,44.3,6.3,44.3,4.5z M47.6,4L47.6,4c0-0.6-0.3-1-0.9-1
			c-0.6,0-0.9,0.5-0.9,1H47.6z"/>
		<path id="XMLID_308_" class="st0" d="M49.8,2H51l0.1,0.7c0.1-0.5,0.5-0.8,1-0.8c0.3,0,0.4,0.1,0.5,0.1v1.3
			c-0.1-0.1-0.3-0.1-0.6-0.1c-0.4,0-0.6,0.2-0.7,0.4V7h-1.5V2z"/>
		<path id="XMLID_306_" class="st0" d="M55.1,6.8V5.3c0.2,0.3,0.6,0.5,1,0.5c0.6,0,0.9-0.3,0.9-1.1v-4h1.5v4.1c0,1.6-1,2.2-2.2,2.2
			C55.7,7.1,55.3,6.9,55.1,6.8z"/>
		<path id="XMLID_304_" class="st0" d="M61.4,5c0-0.8,0.6-1.4,1.2-1.7C62.3,3.1,62,2.7,62,2.2c0-1,0.9-1.6,2.1-1.6
			c0.8,0,1.3,0.3,1.4,0.5v1.4c-0.2-0.3-0.7-0.6-1.3-0.6c-0.5,0-0.8,0.1-0.8,0.4c0,0.3,0.1,0.4,0.4,0.7l0.7,0.6V4h-1.2
			C63.2,4.2,63,4.4,63,4.8c0,0.6,0.4,1,1.5,1c1.1,0,1.8-0.4,1.8-1.3c0-0.2,0-0.3-0.1-0.5h-0.6V2.7h2.7V4h-0.6c0,0.2,0.1,0.4,0.1,0.5
			c0,1.7-1.4,2.6-3.3,2.6C62.4,7.1,61.4,6.4,61.4,5z"/>
		<path id="XMLID_301_" class="st0" d="M70.8,4.5c0-1.8,1.2-2.6,2.4-2.6c1.2,0,2.3,0.5,2.3,2.4v0.6h-3.2c0.1,0.6,0.4,1,1.4,1
			c0.8,0,1.4-0.3,1.6-0.6v1.2c-0.3,0.3-0.9,0.6-1.9,0.6C71.8,7.1,70.8,6.3,70.8,4.5z M74.2,4L74.2,4c0-0.6-0.3-1-0.9-1
			c-0.6,0-0.9,0.5-0.9,1H74.2z"/>
		<path id="XMLID_299_" class="st0" d="M76.6,5.5V3.1H76V2.6L76.5,2l0.9-1.2h0.7V2h1.2v1.2h-1.2v2.3c0,0.4,0.1,0.5,0.4,0.5
			c0.3,0,0.6-0.2,0.7-0.4v1.2c-0.2,0.2-0.5,0.4-1.1,0.4C77,7.1,76.6,6.5,76.6,5.5z"/>
		<path id="XMLID_297_" class="st0" d="M79.8,6.2c0-0.5,0.4-0.9,0.9-0.9c0.5,0,0.9,0.4,0.9,0.9c0,0.5-0.4,0.9-0.9,0.9
			C80.2,7.1,79.8,6.7,79.8,6.2z"/>
		<path id="XMLID_294_" class="st0" d="M86.4,1.4l-0.2-0.6h1.6c0.2,0.5,2.2,5.6,2.5,6.2h-1.6l-0.4-1.1H86L85.6,7h-1.4L86.4,1.4z
			 M86.4,4.8h1.4l-0.5-1.4l-0.2-0.5l-0.2,0.5L86.4,4.8z"/>
		<path id="XMLID_292_" class="st0" d="M90.6,5.7V0.2h1.5v5.4c0,0.3,0.1,0.4,0.3,0.4c0.2,0,0.4-0.1,0.4-0.2v1.1
			c-0.1,0.1-0.4,0.3-0.9,0.3C91.1,7.1,90.6,6.6,90.6,5.7z"/>
		<path id="XMLID_289_" class="st0" d="M97.1,0.2c-0.1,0.3-0.3,0.8-0.4,1.2c0.3,0.1,0.4,0.4,0.4,0.7c0,0.5-0.3,0.8-0.8,0.8
			c-0.5,0-0.8-0.3-0.8-0.8c0-0.8,0.6-1.6,1-1.9L97.1,0.2z M98.9,0.2c-0.1,0.3-0.3,0.8-0.4,1.2c0.3,0.1,0.4,0.4,0.4,0.7
			c0,0.5-0.3,0.8-0.8,0.8c-0.5,0-0.8-0.3-0.8-0.8c0-0.8,0.6-1.6,1-1.9L98.9,0.2z"/>
		<path id="XMLID_287_" class="st0" d="M99.9,0.8h1.5v4.9h2.2V7h-3.7V0.8z"/>
		<path id="XMLID_284_" class="st0" d="M103.9,4.5c0-1.8,1.2-2.6,2.6-2.6c1.4,0,2.5,0.8,2.5,2.6c0,1.9-1.2,2.6-2.6,2.6
			C105,7.1,103.9,6.3,103.9,4.5z M107.5,4.5c0-0.9-0.3-1.4-1-1.4c-0.7,0-1,0.6-1,1.4c0,0.9,0.3,1.4,1,1.4
			C107.2,5.9,107.5,5.3,107.5,4.5z"/>
		<path id="XMLID_282_" class="st0" d="M109.8,2h1.3l0.1,0.4c0.2-0.3,0.7-0.6,1.3-0.6c1.3,0,1.8,0.7,1.8,2V7h-1.5V4.1
			c0-0.8-0.2-1.1-0.8-1.1c-0.4,0-0.7,0.2-0.8,0.4V7h-1.5V2z"/>
		<path id="XMLID_279_" class="st0" d="M115.1,8.4V7.3c0.5,0.3,1.1,0.5,2.1,0.5c1.2,0,1.7-0.1,1.7-0.5c0-0.3-0.3-0.4-1-0.4
			c-0.7,0-1.9,0.2-2.2,0.3v-1l0.7-1c-0.7-0.2-1.2-0.8-1.2-1.6c0-1.1,0.9-1.8,2.2-1.8c0.6,0,1.1,0.1,1.4,0.4c0.2-0.3,0.5-0.4,1-0.4
			c0.1,0,0.3,0,0.4,0.1V3c-0.1-0.1-0.2-0.1-0.3-0.1c-0.2,0-0.3,0.1-0.4,0.1c0.1,0.2,0.1,0.4,0.1,0.6c0,1.1-0.9,1.7-2.2,1.7h-0.1
			l-0.4,0.6c0.2-0.1,0.8-0.1,1.3-0.1c1.3,0,2.1,0.3,2.1,1.4c0,1.1-1,1.7-2.9,1.7C116.3,8.9,115.5,8.7,115.1,8.4z M118.1,3.6
			c0-0.4-0.3-0.7-0.8-0.7c-0.5,0-0.8,0.2-0.8,0.7c0,0.4,0.3,0.7,0.8,0.7C117.8,4.2,118.1,4,118.1,3.6z"/>
		<path id="XMLID_277_" class="st0" d="M120.7,3.6h2.4v1.2h-2.4V3.6z"/>
		<path id="XMLID_275_" class="st0" d="M124.4,5.5V3.1h-0.6V2.6l0.5-0.6l0.9-1.2h0.7V2h1.2v1.2h-1.2v2.3c0,0.4,0.1,0.5,0.4,0.5
			c0.3,0,0.6-0.2,0.7-0.4v1.2c-0.2,0.2-0.5,0.4-1.1,0.4C124.8,7.1,124.4,6.5,124.4,5.5z"/>
		<path id="XMLID_272_" class="st0" d="M127.6,4.5c0-1.8,1.2-2.6,2.4-2.6c1.2,0,2.3,0.5,2.3,2.4v0.6h-3.2c0.1,0.6,0.4,1,1.4,1
			c0.8,0,1.4-0.3,1.6-0.6v1.2c-0.3,0.3-0.9,0.6-1.9,0.6C128.6,7.1,127.6,6.3,127.6,4.5z M130.9,4L130.9,4c0-0.6-0.3-1-0.9-1
			c-0.6,0-0.9,0.5-0.9,1H130.9z"/>
		<path id="XMLID_270_" class="st0" d="M133.1,2h1.2l0.1,0.7c0.1-0.5,0.5-0.8,1-0.8c0.3,0,0.4,0.1,0.5,0.1v1.3
			c-0.1-0.1-0.3-0.1-0.6-0.1c-0.4,0-0.6,0.2-0.7,0.4V7h-1.5V2z"/>
		<path id="XMLID_268_" class="st0" d="M136.6,2h1.3l0.1,0.4c0.2-0.3,0.7-0.6,1.3-0.6c0.7,0,1.2,0.2,1.4,0.7
			c0.3-0.3,0.7-0.7,1.5-0.7c1.2,0,1.7,0.7,1.7,2V7h-1.5V4.1c0-0.8-0.2-1.1-0.7-1.1c-0.4,0-0.7,0.2-0.8,0.4c0,0.1,0,0.3,0,0.5V7h-1.5
			V4.1c0-0.8-0.2-1.1-0.7-1.1c-0.4,0-0.6,0.2-0.7,0.4V7h-1.5V2z"/>
		<path id="XMLID_265_" class="st0" d="M146.7,5.6c0-1,0.7-1.4,2.1-1.6l0.7-0.1c0-0.7-0.3-0.9-1-0.9c-0.7,0-1.4,0.4-1.6,0.9V2.5
			c0.2-0.3,0.8-0.7,1.9-0.7c1.4,0,2.2,0.6,2.2,2.1v3h-1.3l-0.1-0.4c-0.1,0.3-0.5,0.6-1.2,0.6C147.4,7.1,146.7,6.6,146.7,5.6z
			 M149.6,4.8L149,4.9c-0.7,0.1-0.9,0.3-0.9,0.7c0,0.3,0.2,0.5,0.6,0.5c0.4,0,0.7-0.2,0.9-0.3V4.8z"/>
		<path id="XMLID_263_" class="st0" d="M151.9,6.7V5.4c0.3,0.3,0.8,0.6,1.5,0.6c0.6,0,0.8-0.2,0.8-0.5c0-0.3-0.1-0.4-0.7-0.5l-0.3,0
			c-1-0.1-1.5-0.7-1.5-1.5c0-0.9,0.6-1.6,2.1-1.6c0.8,0,1.3,0.2,1.6,0.4v1.3c-0.3-0.4-0.8-0.5-1.5-0.5c-0.6,0-0.8,0.2-0.8,0.4
			s0.1,0.4,0.6,0.5l0.3,0c1.1,0.2,1.6,0.6,1.6,1.5c0,0.9-0.6,1.7-2.2,1.7C152.7,7.1,152.2,6.9,151.9,6.7z"/>
		<path id="XMLID_261_" class="st0" d="M156.3,6.7V5.4c0.3,0.3,0.8,0.6,1.5,0.6c0.6,0,0.8-0.2,0.8-0.5c0-0.3-0.1-0.4-0.7-0.5l-0.3,0
			c-1-0.1-1.5-0.7-1.5-1.5c0-0.9,0.6-1.6,2.1-1.6c0.8,0,1.3,0.2,1.6,0.4v1.3C159.5,3.2,159,3,158.3,3c-0.6,0-0.8,0.2-0.8,0.4
			s0.1,0.4,0.6,0.5l0.3,0c1.1,0.2,1.6,0.6,1.6,1.5c0,0.9-0.6,1.7-2.2,1.7C157.1,7.1,156.6,6.9,156.3,6.7z"/>
		<path id="XMLID_258_" class="st0" d="M160.5,4.5c0-1.8,1.2-2.6,2.4-2.6c1.2,0,2.3,0.5,2.3,2.4v0.6h-3.2c0.1,0.6,0.4,1,1.4,1
			c0.8,0,1.4-0.3,1.6-0.6v1.2c-0.3,0.3-0.9,0.6-1.9,0.6C161.5,7.1,160.5,6.3,160.5,4.5z M163.9,4L163.9,4c0-0.6-0.3-1-0.9-1
			c-0.6,0-0.9,0.5-0.9,1H163.9z"/>
		<path id="XMLID_256_" class="st0" d="M165.9,6.7V5.4c0.3,0.3,0.8,0.6,1.5,0.6c0.6,0,0.8-0.2,0.8-0.5c0-0.3-0.1-0.4-0.7-0.5l-0.3,0
			c-1-0.1-1.5-0.7-1.5-1.5c0-0.9,0.6-1.6,2.1-1.6c0.8,0,1.3,0.2,1.6,0.4v1.3C169.2,3.2,168.6,3,168,3c-0.6,0-0.8,0.2-0.8,0.4
			s0.1,0.4,0.6,0.5l0.3,0c1.1,0.2,1.6,0.6,1.6,1.5c0,0.9-0.6,1.7-2.2,1.7C166.7,7.1,166.2,6.9,165.9,6.7z"/>
		<path id="XMLID_254_" class="st0" d="M170.3,6.7V5.4c0.3,0.3,0.8,0.6,1.5,0.6c0.6,0,0.8-0.2,0.8-0.5c0-0.3-0.1-0.4-0.7-0.5l-0.3,0
			c-1-0.1-1.5-0.7-1.5-1.5c0-0.9,0.6-1.6,2.1-1.6c0.8,0,1.3,0.2,1.6,0.4v1.3C173.5,3.2,173,3,172.3,3c-0.6,0-0.8,0.2-0.8,0.4
			s0.1,0.4,0.6,0.5l0.3,0c1.1,0.2,1.6,0.6,1.6,1.5c0,0.9-0.6,1.7-2.2,1.7C171.1,7.1,170.6,6.9,170.3,6.7z"/>
		<path id="XMLID_252_" class="st0" d="M174.8,2h1.3l0.1,0.4c0.2-0.3,0.7-0.6,1.3-0.6c0.7,0,1.2,0.2,1.4,0.7
			c0.3-0.3,0.7-0.7,1.5-0.7c1.2,0,1.7,0.7,1.7,2V7h-1.5V4.1c0-0.8-0.2-1.1-0.7-1.1c-0.4,0-0.7,0.2-0.8,0.4c0,0.1,0,0.3,0,0.5V7h-1.5
			V4.1c0-0.8-0.2-1.1-0.7-1.1c-0.4,0-0.6,0.2-0.7,0.4V7h-1.5V2z"/>
		<path id="XMLID_249_" class="st0" d="M182.8,4.5c0-1.8,1.2-2.6,2.4-2.6c1.2,0,2.3,0.5,2.3,2.4v0.6h-3.2c0.1,0.6,0.4,1,1.4,1
			c0.8,0,1.4-0.3,1.6-0.6v1.2c-0.3,0.3-0.9,0.6-1.9,0.6C183.8,7.1,182.8,6.3,182.8,4.5z M186.2,4L186.2,4c0-0.6-0.3-1-0.9-1
			c-0.6,0-0.9,0.5-0.9,1H186.2z"/>
		<path id="XMLID_247_" class="st0" d="M188.4,2h1.3l0.1,0.4c0.2-0.3,0.7-0.6,1.3-0.6c1.3,0,1.8,0.7,1.8,2V7h-1.5V4.1
			c0-0.8-0.2-1.1-0.8-1.1c-0.4,0-0.7,0.2-0.8,0.4V7h-1.5V2z"/>
		<path id="XMLID_245_" class="st0" d="M194.2,5.5V3.1h-0.6V2.6l0.5-0.6l0.9-1.2h0.7V2h1.2v1.2h-1.2v2.3c0,0.4,0.1,0.5,0.4,0.5
			c0.3,0,0.6-0.2,0.7-0.4v1.2c-0.2,0.2-0.5,0.4-1.1,0.4C194.6,7.1,194.2,6.5,194.2,5.5z"/>
		<path id="XMLID_242_" class="st0" d="M199.5,4.5c0-1.8,1.2-2.6,2.6-2.6c1.4,0,2.5,0.8,2.5,2.6c0,1.9-1.2,2.6-2.6,2.6
			C200.5,7.1,199.5,6.3,199.5,4.5z M203.1,4.5c0-0.9-0.3-1.4-1-1.4c-0.7,0-1,0.6-1,1.4c0,0.9,0.3,1.4,1,1.4
			C202.7,5.9,203.1,5.3,203.1,4.5z"/>
		<path id="XMLID_240_" class="st0" d="M205.6,3.1H205V2.6l0.5-0.5c-0.1-0.2-0.2-0.4-0.2-0.7c0-0.9,0.8-1.4,1.8-1.4
			c0.7,0,1.1,0.2,1.2,0.3v1.2c-0.2-0.3-0.5-0.4-0.9-0.4c-0.4,0-0.6,0.2-0.6,0.5c0,0.2,0.1,0.3,0.1,0.4h1v1.2h-0.9V7h-1.5V3.1z"/>
		<path id="XMLID_237_" class="st0" d="M212.6,1.4l-0.2-0.6h1.6c0.2,0.5,2.2,5.6,2.5,6.2h-1.6l-0.4-1.1h-2.2L211.8,7h-1.4L212.6,1.4
			z M212.6,4.8h1.4l-0.5-1.4l-0.2-0.5l-0.2,0.5L212.6,4.8z"/>
		<path id="XMLID_235_" class="st0" d="M216.8,6.7V5.4c0.3,0.3,0.8,0.6,1.5,0.6c0.6,0,0.8-0.2,0.8-0.5c0-0.3-0.1-0.4-0.7-0.5l-0.3,0
			c-1-0.1-1.5-0.7-1.5-1.5c0-0.9,0.6-1.6,2.1-1.6c0.8,0,1.3,0.2,1.6,0.4v1.3C220,3.2,219.5,3,218.8,3c-0.6,0-0.8,0.2-0.8,0.4
			s0.1,0.4,0.6,0.5l0.3,0c1.1,0.2,1.6,0.6,1.6,1.5c0,0.9-0.6,1.7-2.2,1.7C217.6,7.1,217.1,6.9,216.8,6.7z"/>
		<path id="XMLID_232_" class="st0" d="M221,4.5c0-1.8,1.2-2.6,2.4-2.6c1.2,0,2.3,0.5,2.3,2.4v0.6h-3.2c0.1,0.6,0.4,1,1.4,1
			c0.8,0,1.4-0.3,1.6-0.6v1.2c-0.3,0.3-0.9,0.6-1.9,0.6C222,7.1,221,6.3,221,4.5z M224.4,4L224.4,4c0-0.6-0.3-1-0.9-1
			c-0.6,0-0.9,0.5-0.9,1H224.4z"/>
		<path id="XMLID_230_" class="st0" d="M226.6,2h1.3l0.1,0.4c0.2-0.3,0.7-0.6,1.3-0.6c1.3,0,1.8,0.7,1.8,2V7h-1.5V4.1
			c0-0.8-0.2-1.1-0.8-1.1c-0.4,0-0.7,0.2-0.8,0.4V7h-1.5V2z"/>
		<path id="XMLID_227_" class="st0" d="M231.9,5.6c0-1,0.7-1.4,2.1-1.6l0.7-0.1c0-0.7-0.3-0.9-1-0.9c-0.7,0-1.4,0.4-1.6,0.9V2.5
			c0.2-0.3,0.8-0.7,1.9-0.7c1.4,0,2.2,0.6,2.2,2.1v3h-1.3l-0.1-0.4c-0.1,0.3-0.5,0.6-1.2,0.6C232.6,7.1,231.9,6.6,231.9,5.6z
			 M234.7,4.8l-0.6,0.1c-0.7,0.1-0.9,0.3-0.9,0.7c0,0.3,0.2,0.5,0.6,0.5c0.4,0,0.7-0.2,0.9-0.3V4.8z"/>
		<path id="XMLID_224_" class="st0" d="M237.2,2h1.3l0.1,0.4c0.2-0.3,0.6-0.6,1.3-0.6c1.3,0,2,0.7,2,2.5c0,1.8-1,2.8-2.2,2.8
			c-0.4,0-0.8-0.1-1.1-0.3v1.9h-1.5V2z M240.4,4.4c0-0.9-0.2-1.4-0.9-1.4c-0.4,0-0.7,0.2-0.8,0.4v2.3c0.2,0.2,0.5,0.3,0.8,0.3
			C240.2,6,240.4,5.3,240.4,4.4z"/>
		<path id="XMLID_221_" class="st0" d="M242.7,0.8c0-0.4,0.3-0.7,0.8-0.7c0.5,0,0.8,0.3,0.8,0.7c0,0.4-0.3,0.7-0.8,0.7
			C243,1.5,242.7,1.2,242.7,0.8z M242.8,2h1.5v5h-1.5V2z"/>
		<path id="XMLID_219_" class="st0" d="M245.3,2h1.3l0.1,0.4c0.2-0.3,0.7-0.6,1.3-0.6c1.3,0,1.8,0.7,1.8,2V7h-1.5V4.1
			c0-0.8-0.2-1.1-0.8-1.1c-0.4,0-0.7,0.2-0.8,0.4V7h-1.5V2z"/>
		<path id="XMLID_216_" class="st0" d="M250.6,4.5c0-1.8,1.2-2.6,2.4-2.6c1.2,0,2.3,0.5,2.3,2.4v0.6h-3.2c0.1,0.6,0.4,1,1.4,1
			c0.8,0,1.4-0.3,1.6-0.6v1.2c-0.3,0.3-0.9,0.6-1.9,0.6C251.6,7.1,250.6,6.3,250.6,4.5z M253.9,4L253.9,4c0-0.6-0.3-1-0.9-1
			c-0.6,0-0.9,0.5-0.9,1H253.9z"/>
		<path id="XMLID_214_" class="st0" d="M257.8,2h1.6l0.8,2.4l0.2,0.5c0-0.1,0.1-0.4,0.2-0.5l0.8-2.4h1.4l-2,5h-1L257.8,2z"/>
		<path id="XMLID_212_" class="st0" d="M263.1,6.7V5.4c0.3,0.3,0.8,0.6,1.5,0.6c0.6,0,0.8-0.2,0.8-0.5c0-0.3-0.1-0.4-0.7-0.5l-0.3,0
			c-1-0.1-1.5-0.7-1.5-1.5c0-0.9,0.6-1.6,2.1-1.6c0.8,0,1.3,0.2,1.6,0.4v1.3c-0.3-0.4-0.8-0.5-1.5-0.5c-0.6,0-0.8,0.2-0.8,0.4
			s0.1,0.4,0.6,0.5l0.3,0c1.1,0.2,1.6,0.6,1.6,1.5c0,0.9-0.6,1.7-2.2,1.7C263.9,7.1,263.4,6.9,263.1,6.7z"/>
		<path id="XMLID_210_" class="st0" d="M267.4,6.2c0-0.5,0.4-0.9,0.9-0.9c0.5,0,0.9,0.4,0.9,0.9c0,0.5-0.4,0.9-0.9,0.9
			C267.8,7.1,267.4,6.7,267.4,6.2z"/>
		<path id="XMLID_207_" class="st0" d="M272,3.9c0-2.1,1.5-3.2,3.2-3.2c1.8,0,3.1,1.1,3.1,3.2s-1.5,3.2-3.2,3.2
			C273.3,7.1,272,6,272,3.9z M276.7,3.9c0-1.3-0.6-2-1.6-2c-1,0-1.6,0.7-1.6,1.9c0,1.3,0.6,2,1.6,2C276.1,5.8,276.7,5.1,276.7,3.9z"
			/>
		<path id="XMLID_205_" class="st0" d="M279.1,5.7V0.2h1.5v5.4c0,0.3,0.1,0.4,0.3,0.4c0.2,0,0.4-0.1,0.4-0.2v1.1
			c-0.1,0.1-0.4,0.3-0.9,0.3C279.5,7.1,279.1,6.6,279.1,5.7z"/>
		<path id="XMLID_202_" class="st0" d="M281.7,5.6c0-1,0.7-1.4,2.1-1.6l0.7-0.1c0-0.7-0.3-0.9-1-0.9c-0.7,0-1.4,0.4-1.6,0.9V2.5
			c0.2-0.3,0.8-0.7,1.9-0.7c1.4,0,2.2,0.6,2.2,2.1v3h-1.3l-0.1-0.4c-0.1,0.3-0.5,0.6-1.2,0.6C282.4,7.1,281.7,6.6,281.7,5.6z
			 M284.5,4.8L284,4.9c-0.7,0.1-0.9,0.3-0.9,0.7c0,0.3,0.2,0.5,0.6,0.5c0.4,0,0.7-0.2,0.9-0.3V4.8z"/>
		<path id="XMLID_200_" class="st0" d="M287,2h1.3l0.1,0.4c0.2-0.3,0.7-0.6,1.3-0.6c1.3,0,1.8,0.7,1.8,2V7h-1.5V4.1
			c0-0.8-0.2-1.1-0.8-1.1c-0.4,0-0.7,0.2-0.8,0.4V7H287V2z"/>
		<path id="XMLID_198_" class="st0" d="M292.3,6.5l2.1-3.4h-2.1V2h3.9v0.5l-2,3.4h2V7h-3.9V6.5z"/>
		<path id="XMLID_195_" class="st0" d="M296.8,5.6c0-1,0.7-1.4,2.1-1.6l0.7-0.1c0-0.7-0.3-0.9-1-0.9c-0.7,0-1.4,0.4-1.6,0.9V2.5
			c0.2-0.3,0.8-0.7,1.9-0.7c1.4,0,2.2,0.6,2.2,2.1v3h-1.3l-0.1-0.4c-0.1,0.3-0.5,0.6-1.2,0.6C297.5,7.1,296.8,6.6,296.8,5.6z
			 M299.6,4.8l-0.6,0.1c-0.7,0.1-0.9,0.3-0.9,0.7c0,0.3,0.2,0.5,0.6,0.5c0.4,0,0.7-0.2,0.9-0.3V4.8z"/>
		<path id="XMLID_192_" class="st0" d="M302.1,2h1.3l0.1,0.4c0.2-0.3,0.6-0.6,1.3-0.6c1.3,0,2,0.7,2,2.5c0,1.8-1,2.8-2.2,2.8
			c-0.4,0-0.8-0.1-1.1-0.3v1.9h-1.5V2z M305.4,4.4c0-0.9-0.2-1.4-0.9-1.4c-0.4,0-0.7,0.2-0.8,0.4v2.3c0.2,0.2,0.5,0.3,0.8,0.3
			C305.1,6,305.4,5.3,305.4,4.4z"/>
		<path id="XMLID_189_" class="st0" d="M307.6,0.8c0-0.4,0.3-0.7,0.8-0.7c0.5,0,0.8,0.3,0.8,0.7c0,0.4-0.3,0.7-0.8,0.7
			C307.9,1.5,307.6,1.2,307.6,0.8z M307.7,2h1.5v5h-1.5V2z"/>
		<path id="XMLID_187_" class="st0" d="M310.2,2h1.3l0.1,0.4c0.2-0.3,0.7-0.6,1.3-0.6c1.3,0,1.8,0.7,1.8,2V7h-1.5V4.1
			c0-0.8-0.2-1.1-0.8-1.1c-0.4,0-0.7,0.2-0.8,0.4V7h-1.5V2z"/>
		<path id="XMLID_184_" class="st0" d="M315.5,4.5c0-1.8,1.2-2.6,2.4-2.6c1.2,0,2.3,0.5,2.3,2.4v0.6H317c0.1,0.6,0.4,1,1.4,1
			c0.8,0,1.4-0.3,1.6-0.6v1.2c-0.3,0.3-0.9,0.6-1.9,0.6C316.5,7.1,315.5,6.3,315.5,4.5z M318.8,4L318.8,4c0-0.6-0.3-1-0.9-1
			c-0.6,0-0.9,0.5-0.9,1H318.8z"/>
		<path id="XMLID_181_" class="st0" d="M323.2,0.8c0-0.4,0.3-0.7,0.8-0.7c0.5,0,0.8,0.3,0.8,0.7c0,0.4-0.3,0.7-0.8,0.7
			C323.4,1.5,323.2,1.2,323.2,0.8z M323.2,2h1.5v5h-1.5V2z"/>
		<path id="XMLID_179_" class="st0" d="M325.7,2h1.3l0.1,0.4c0.2-0.3,0.7-0.6,1.3-0.6c1.3,0,1.8,0.7,1.8,2V7h-1.5V4.1
			c0-0.8-0.2-1.1-0.8-1.1c-0.4,0-0.7,0.2-0.8,0.4V7h-1.5V2z"/>
		<path id="XMLID_176_" class="st0" d="M333.4,2h1.3l0.1,0.4c0.2-0.3,0.6-0.6,1.3-0.6c1.3,0,2,0.7,2,2.5c0,1.8-1,2.8-2.2,2.8
			c-0.4,0-0.8-0.1-1.1-0.3v1.9h-1.5V2z M336.7,4.4c0-0.9-0.2-1.4-0.9-1.4c-0.4,0-0.7,0.2-0.8,0.4v2.3c0.2,0.2,0.5,0.3,0.8,0.3
			C336.4,6,336.7,5.3,336.7,4.4z"/>
		<path id="XMLID_173_" class="st0" d="M338.7,5.6c0-1,0.7-1.4,2.1-1.6l0.7-0.1c0-0.7-0.3-0.9-1-0.9c-0.7,0-1.4,0.4-1.6,0.9V2.5
			c0.2-0.3,0.8-0.7,1.9-0.7c1.4,0,2.2,0.6,2.2,2.1v3h-1.3l-0.1-0.4c-0.1,0.3-0.5,0.6-1.2,0.6C339.4,7.1,338.7,6.6,338.7,5.6z
			 M341.6,4.8L341,4.9c-0.7,0.1-0.9,0.3-0.9,0.7c0,0.3,0.2,0.5,0.6,0.5c0.4,0,0.7-0.2,0.9-0.3V4.8z"/>
		<path id="XMLID_171_" class="st0" d="M344.3,5.5V3.1h-0.6V2.6l0.5-0.6l0.9-1.2h0.7V2h1.2v1.2h-1.2v2.3c0,0.4,0.1,0.5,0.4,0.5
			c0.3,0,0.6-0.2,0.7-0.4v1.2c-0.2,0.2-0.5,0.4-1.1,0.4C344.7,7.1,344.3,6.5,344.3,5.5z"/>
		<path id="XMLID_168_" class="st0" d="M347.7,0.8c0-0.4,0.3-0.7,0.8-0.7c0.5,0,0.8,0.3,0.8,0.7c0,0.4-0.3,0.7-0.8,0.7
			C348,1.5,347.7,1.2,347.7,0.8z M347.7,2h1.5v5h-1.5V2z"/>
		<path id="XMLID_165_" class="st0" d="M350,4.5c0-1.8,1.2-2.6,2.4-2.6c1.2,0,2.3,0.5,2.3,2.4v0.6h-3.2c0.1,0.6,0.4,1,1.4,1
			c0.8,0,1.4-0.3,1.6-0.6v1.2c-0.3,0.3-0.9,0.6-1.9,0.6C351,7.1,350,6.3,350,4.5z M353.3,4L353.3,4c0-0.6-0.3-1-0.9-1
			c-0.6,0-0.9,0.5-0.9,1H353.3z"/>
		<path id="XMLID_163_" class="st0" d="M355.5,2h1.3l0.1,0.4c0.2-0.3,0.7-0.6,1.3-0.6c1.3,0,1.8,0.7,1.8,2V7h-1.5V4.1
			c0-0.8-0.2-1.1-0.8-1.1c-0.4,0-0.7,0.2-0.8,0.4V7h-1.5V2z"/>
		<path id="XMLID_161_" class="st0" d="M361.3,5.5V3.1h-0.6V2.6l0.5-0.6l0.9-1.2h0.7V2h1.2v1.2h-1.2v2.3c0,0.4,0.1,0.5,0.4,0.5
			c0.3,0,0.6-0.2,0.7-0.4v1.2c-0.2,0.2-0.5,0.4-1.1,0.4C361.7,7.1,361.3,6.5,361.3,5.5z"/>
		<path id="XMLID_159_" class="st0" d="M364.6,6.7V5.4c0.3,0.3,0.8,0.6,1.5,0.6c0.6,0,0.8-0.2,0.8-0.5c0-0.3-0.1-0.4-0.7-0.5L366,5
			c-1-0.1-1.5-0.7-1.5-1.5c0-0.9,0.6-1.6,2.1-1.6c0.8,0,1.3,0.2,1.6,0.4v1.3c-0.3-0.4-0.8-0.5-1.5-0.5c-0.6,0-0.8,0.2-0.8,0.4
			s0.1,0.4,0.6,0.5l0.3,0c1.1,0.2,1.6,0.6,1.6,1.5c0,0.9-0.6,1.7-2.2,1.7C365.4,7.1,364.9,6.9,364.6,6.7z"/>
		<path id="XMLID_157_" class="st0" d="M370.9,2h1.5l0.7,2.6l1-2.6h0.5l1,2.6l0.6-2.6h1.4l-1.4,5h-0.9l-1.1-2.7L373.2,7h-0.9
			L370.9,2z"/>
		<path id="XMLID_154_" class="st0" d="M378.2,0.8c0-0.4,0.3-0.7,0.8-0.7c0.5,0,0.8,0.3,0.8,0.7c0,0.4-0.3,0.7-0.8,0.7
			C378.5,1.5,378.2,1.2,378.2,0.8z M378.2,2h1.5v5h-1.5V2z"/>
		<path id="XMLID_152_" class="st0" d="M381,5.5V3.1h-0.6V2.6l0.5-0.6l0.9-1.2h0.7V2h1.2v1.2h-1.2v2.3c0,0.4,0.1,0.5,0.4,0.5
			c0.3,0,0.6-0.2,0.7-0.4v1.2c-0.2,0.2-0.5,0.4-1.1,0.4C381.4,7.1,381,6.5,381,5.5z"/>
		<path id="XMLID_150_" class="st0" d="M384.4,0.2h1.5v2.2c0.2-0.3,0.7-0.5,1.3-0.5c1.3,0,1.8,0.7,1.8,2V7h-1.5V4.1
			c0-0.8-0.2-1.1-0.8-1.1c-0.4,0-0.7,0.2-0.8,0.4V7h-1.5V0.2z"/>
		<path id="XMLID_148_" class="st0" d="M392,6.7V5.4c0.3,0.3,0.8,0.6,1.5,0.6c0.6,0,0.8-0.2,0.8-0.5c0-0.3-0.1-0.4-0.7-0.5l-0.3,0
			c-1-0.1-1.5-0.7-1.5-1.5c0-0.9,0.6-1.6,2.1-1.6c0.8,0,1.3,0.2,1.6,0.4v1.3C395.2,3.2,394.7,3,394,3c-0.6,0-0.8,0.2-0.8,0.4
			s0.1,0.4,0.6,0.5l0.3,0c1.1,0.2,1.6,0.6,1.6,1.5c0,0.9-0.6,1.7-2.2,1.7C392.8,7.1,392.3,6.9,392,6.7z"/>
		<path id="XMLID_146_" class="st0" d="M396.3,4.5c0-1.8,1.2-2.6,2.5-2.6c0.7,0,1.3,0.2,1.5,0.4v1.3c-0.3-0.4-0.7-0.5-1.3-0.5
			c-0.8,0-1.2,0.5-1.2,1.4c0,0.9,0.4,1.4,1.2,1.4c0.6,0,1-0.2,1.3-0.5v1.3c-0.2,0.2-0.8,0.5-1.5,0.5C397.3,7.1,396.3,6.3,396.3,4.5z
			"/>
		<path id="XMLID_144_" class="st0" d="M401.1,0.2h1.5v2.2c0.2-0.3,0.7-0.5,1.3-0.5c1.3,0,1.8,0.7,1.8,2V7h-1.5V4.1
			c0-0.8-0.2-1.1-0.8-1.1c-0.4,0-0.7,0.2-0.8,0.4V7h-1.5V0.2z"/>
		<path id="XMLID_141_" class="st0" d="M406.6,0.8c0-0.4,0.3-0.7,0.8-0.7c0.5,0,0.8,0.3,0.8,0.7c0,0.4-0.3,0.7-0.8,0.7
			C406.9,1.5,406.6,1.2,406.6,0.8z M406.6,2h1.5v5h-1.5V2z"/>
		<path id="XMLID_139_" class="st0" d="M408.9,6.5l2.1-3.4h-2.1V2h3.9v0.5l-2,3.4h2V7h-3.9V6.5z"/>
		<path id="XMLID_136_" class="st0" d="M413.4,4.5c0-1.8,1.2-2.6,2.6-2.6c1.4,0,2.5,0.8,2.5,2.6c0,1.9-1.2,2.6-2.6,2.6
			C414.4,7.1,413.4,6.3,413.4,4.5z M416.9,4.5c0-0.9-0.3-1.4-1-1.4c-0.7,0-1,0.6-1,1.4c0,0.9,0.3,1.4,1,1.4
			C416.6,5.9,416.9,5.3,416.9,4.5z"/>
		<path id="XMLID_133_" class="st0" d="M419.2,2h1.3l0.1,0.4c0.2-0.3,0.6-0.6,1.3-0.6c1.3,0,2,0.7,2,2.5c0,1.8-1,2.8-2.2,2.8
			c-0.4,0-0.8-0.1-1.1-0.3v1.9h-1.5V2z M422.5,4.4c0-0.9-0.2-1.4-0.9-1.4c-0.4,0-0.7,0.2-0.8,0.4v2.3c0.2,0.2,0.5,0.3,0.8,0.3
			C422.2,6,422.5,5.3,422.5,4.4z"/>
		<path id="XMLID_131_" class="st0" d="M424.8,0.2h1.5v2.2c0.2-0.3,0.7-0.5,1.3-0.5c1.3,0,1.8,0.7,1.8,2V7h-1.5V4.1
			c0-0.8-0.2-1.1-0.8-1.1c-0.4,0-0.7,0.2-0.8,0.4V7h-1.5V0.2z"/>
		<path id="XMLID_129_" class="st0" d="M430.3,2h1.2l0.1,0.7c0.1-0.5,0.5-0.8,1-0.8c0.3,0,0.4,0.1,0.5,0.1v1.3
			c-0.1-0.1-0.3-0.1-0.6-0.1c-0.4,0-0.6,0.2-0.7,0.4V7h-1.5V2z"/>
		<path id="XMLID_126_" class="st0" d="M433.4,4.5c0-1.8,1.2-2.6,2.4-2.6c1.2,0,2.3,0.5,2.3,2.4v0.6H435c0.1,0.6,0.4,1,1.4,1
			c0.8,0,1.4-0.3,1.6-0.6v1.2c-0.3,0.3-0.9,0.6-1.9,0.6C434.4,7.1,433.4,6.3,433.4,4.5z M436.8,4L436.8,4c0-0.6-0.3-1-0.9-1
			c-0.6,0-0.9,0.5-0.9,1H436.8z"/>
		<path id="XMLID_124_" class="st0" d="M439,2h1.3l0.1,0.4c0.2-0.3,0.7-0.6,1.3-0.6c1.3,0,1.8,0.7,1.8,2V7H442V4.1
			c0-0.8-0.2-1.1-0.8-1.1c-0.4,0-0.7,0.2-0.8,0.4V7H439V2z"/>
		<path id="XMLID_121_" class="st0" d="M444.5,0.8c0-0.4,0.3-0.7,0.8-0.7c0.5,0,0.8,0.3,0.8,0.7c0,0.4-0.3,0.7-0.8,0.7
			C444.8,1.5,444.5,1.2,444.5,0.8z M444.5,2h1.5v5h-1.5V2z"/>
		<path id="XMLID_118_" class="st0" d="M446.8,5.6c0-1,0.7-1.4,2.1-1.6l0.7-0.1c0-0.7-0.3-0.9-1-0.9c-0.7,0-1.4,0.4-1.6,0.9V2.5
			c0.2-0.3,0.8-0.7,1.9-0.7c1.4,0,2.2,0.6,2.2,2.1v3h-1.3l-0.1-0.4c-0.1,0.3-0.5,0.6-1.2,0.6C447.5,7.1,446.8,6.6,446.8,5.6z
			 M449.6,4.8l-0.6,0.1c-0.7,0.1-0.9,0.3-0.9,0.7c0,0.3,0.2,0.5,0.6,0.5c0.4,0,0.7-0.2,0.9-0.3V4.8z"/>
		<path id="XMLID_115_" class="st0" d="M454,4.5c0-1.8,1.2-2.6,2.6-2.6c1.5,0,2.5,0.8,2.5,2.6c0,1.9-1.2,2.6-2.6,2.6
			C455,7.1,454,6.3,454,4.5z M457.5,4.5c0-0.9-0.3-1.4-1-1.4c-0.7,0-1,0.6-1,1.4c0,0.9,0.3,1.4,1,1.4C457.2,5.9,457.5,5.3,457.5,4.5
			z"/>
		<path id="XMLID_113_" class="st0" d="M459.8,2h1.2l0.1,0.7c0.1-0.5,0.5-0.8,1-0.8c0.3,0,0.4,0.1,0.5,0.1v1.3
			c-0.1-0.1-0.3-0.1-0.6-0.1c-0.4,0-0.6,0.2-0.7,0.4V7h-1.5V2z"/>
		<path id="XMLID_111_" class="st0" d="M465.3,6.7V5.4c0.3,0.3,0.8,0.6,1.5,0.6c0.6,0,0.8-0.2,0.8-0.5c0-0.3-0.1-0.4-0.7-0.5l-0.3,0
			c-1-0.1-1.5-0.7-1.5-1.5c0-0.9,0.6-1.6,2.1-1.6c0.8,0,1.3,0.2,1.6,0.4v1.3C468.5,3.2,468,3,467.3,3c-0.6,0-0.8,0.2-0.8,0.4
			s0.1,0.4,0.6,0.5l0.3,0c1.1,0.2,1.6,0.6,1.6,1.5c0,0.9-0.6,1.7-2.2,1.7C466.1,7.1,465.6,6.9,465.3,6.7z"/>
		<path id="XMLID_109_" class="st0" d="M469.6,4.5c0-1.8,1.2-2.6,2.5-2.6c0.7,0,1.3,0.2,1.5,0.4v1.3c-0.3-0.4-0.7-0.5-1.3-0.5
			c-0.8,0-1.2,0.5-1.2,1.4c0,0.9,0.4,1.4,1.2,1.4c0.6,0,1-0.2,1.3-0.5v1.3c-0.2,0.2-0.8,0.5-1.5,0.5C470.6,7.1,469.6,6.3,469.6,4.5z
			"/>
		<path id="XMLID_107_" class="st0" d="M474.4,0.2h1.5v2.2c0.2-0.3,0.7-0.5,1.3-0.5c1.3,0,1.8,0.7,1.8,2V7h-1.5V4.1
			c0-0.8-0.2-1.1-0.8-1.1c-0.4,0-0.7,0.2-0.8,0.4V7h-1.5V0.2z"/>
		<path id="XMLID_104_" class="st0" d="M479.9,0.8c0-0.4,0.3-0.7,0.8-0.7c0.5,0,0.8,0.3,0.8,0.7c0,0.4-0.3,0.7-0.8,0.7
			C480.2,1.5,479.9,1.2,479.9,0.8z M480,2h1.5v5H480V2z"/>
		<path id="XMLID_102_" class="st0" d="M482.2,6.5l2.1-3.4h-2.1V2h3.9v0.5l-2,3.4h2V7h-3.9V6.5z"/>
		<path id="XMLID_99_" class="st0" d="M486.7,4.5c0-1.8,1.2-2.6,2.6-2.6c1.5,0,2.5,0.8,2.5,2.6c0,1.9-1.2,2.6-2.6,2.6
			C487.7,7.1,486.7,6.3,486.7,4.5z M490.2,4.5c0-0.9-0.3-1.4-1-1.4c-0.7,0-1,0.6-1,1.4c0,0.9,0.3,1.4,1,1.4
			C489.9,5.9,490.2,5.3,490.2,4.5z"/>
		<path id="XMLID_96_" class="st0" d="M492.3,5.6c0-1,0.7-1.4,2.1-1.6l0.7-0.1c0-0.7-0.3-0.9-1-0.9c-0.7,0-1.4,0.4-1.6,0.9V2.5
			c0.2-0.3,0.8-0.7,1.9-0.7c1.4,0,2.2,0.6,2.2,2.1v3h-1.3l-0.1-0.4c-0.1,0.3-0.5,0.6-1.2,0.6C493,7.1,492.3,6.6,492.3,5.6z
			 M495.1,4.8l-0.6,0.1c-0.7,0.1-0.9,0.3-0.9,0.7c0,0.3,0.2,0.5,0.6,0.5c0.4,0,0.7-0.2,0.9-0.3V4.8z"/>
		<path id="XMLID_94_" class="st0" d="M497.8,3.1h-0.6V2.6l0.5-0.5c-0.1-0.2-0.2-0.4-0.2-0.7c0-0.9,0.8-1.4,1.6-1.4
			c0.6,0,0.9,0.2,1,0.3v1.2c-0.1-0.2-0.4-0.4-0.7-0.4c-0.3,0-0.5,0.2-0.5,0.5c0,0.2,0.1,0.3,0.1,0.4h1.5c-0.1-0.1-0.1-0.3-0.1-0.6
			c0-0.9,0.8-1.4,1.7-1.4c0.7,0,1.1,0.2,1.2,0.3v1.2c-0.2-0.3-0.5-0.4-0.9-0.4c-0.4,0-0.6,0.2-0.6,0.5c0,0.2,0.1,0.3,0.1,0.4h1v1.1
			h-1V7h-1.5V3.1h-1.5V7h-1.5V3.1z"/>
		<path id="XMLID_91_" class="st0" d="M503.6,4.5c0-1.8,1.2-2.6,2.4-2.6c1.2,0,2.3,0.5,2.3,2.4v0.6h-3.2c0.1,0.6,0.4,1,1.3,1
			c0.8,0,1.4-0.3,1.6-0.6v1.2c-0.3,0.3-0.9,0.6-1.9,0.6C504.6,7.1,503.6,6.3,503.6,4.5z M506.9,4L506.9,4c0-0.6-0.3-1-0.9-1
			c-0.6,0-0.9,0.5-0.9,1H506.9z"/>
		<path id="XMLID_89_" class="st0" d="M508.9,4.5c0-1.8,1.2-2.6,2.5-2.6c0.7,0,1.3,0.2,1.5,0.4v1.3c-0.3-0.4-0.7-0.5-1.3-0.5
			c-0.8,0-1.2,0.5-1.2,1.4c0,0.9,0.4,1.4,1.2,1.4c0.6,0,1-0.2,1.3-0.5v1.3c-0.2,0.2-0.8,0.5-1.5,0.5C509.9,7.1,508.9,6.3,508.9,4.5z
			"/>
		<path id="XMLID_87_" class="st0" d="M514,5.5V3.1h-0.6V2.6l0.5-0.6l0.9-1.2h0.7V2h1.2v1.2h-1.2v2.3c0,0.4,0.1,0.5,0.4,0.5
			c0.3,0,0.6-0.2,0.7-0.4v1.2c-0.2,0.2-0.5,0.4-1.1,0.4C514.4,7.1,514,6.5,514,5.5z"/>
		<path id="XMLID_84_" class="st0" d="M517.4,0.8c0-0.4,0.3-0.7,0.8-0.7c0.5,0,0.8,0.3,0.8,0.7c0,0.4-0.3,0.7-0.8,0.7
			C517.7,1.5,517.4,1.2,517.4,0.8z M517.4,2h1.5v5h-1.5V2z"/>
		<path id="XMLID_82_" class="st0" d="M519.4,2h1.6l0.8,2.4l0.2,0.5c0-0.1,0.1-0.4,0.2-0.5L523,2h1.4l-2,5h-1L519.4,2z"/>
		<path id="XMLID_79_" class="st0" d="M524.6,4.5c0-1.8,1.2-2.6,2.4-2.6c1.2,0,2.3,0.5,2.3,2.4v0.6h-3.2c0.1,0.6,0.4,1,1.3,1
			c0.8,0,1.4-0.3,1.6-0.6v1.2c-0.3,0.3-0.9,0.6-1.9,0.6C525.5,7.1,524.6,6.3,524.6,4.5z M527.9,4L527.9,4c0-0.6-0.3-1-0.9-1
			c-0.6,0-0.9,0.5-0.9,1H527.9z"/>
		<path id="XMLID_76_" class="st0" d="M532,4.5c0-1.8,0.9-2.7,2.2-2.7c0.4,0,0.8,0.1,1.1,0.3v-2h1.5V7h-1.3l-0.1-0.4
			c-0.2,0.3-0.6,0.6-1.3,0.6C532.9,7.1,532,6.3,532,4.5z M535.3,3.3c-0.2-0.2-0.5-0.3-0.8-0.3c-0.7,0-1,0.7-1,1.6s0.2,1.4,0.9,1.4
			c0.4,0,0.7-0.2,0.8-0.4V3.3z"/>
		<path id="XMLID_73_" class="st0" d="M537.8,0.8c0-0.4,0.3-0.7,0.8-0.7c0.5,0,0.8,0.3,0.8,0.7c0,0.4-0.3,0.7-0.8,0.7
			C538.1,1.5,537.8,1.2,537.8,0.8z M537.8,2h1.5v5h-1.5V2z"/>
		<path id="XMLID_71_" class="st0" d="M540.2,6.7V5.4c0.3,0.3,0.8,0.6,1.5,0.6c0.6,0,0.8-0.2,0.8-0.5c0-0.3-0.1-0.4-0.7-0.5l-0.3,0
			c-1-0.1-1.5-0.7-1.5-1.5c0-0.9,0.6-1.6,2.1-1.6c0.8,0,1.3,0.2,1.6,0.4v1.3c-0.3-0.4-0.8-0.5-1.5-0.5c-0.6,0-0.8,0.2-0.8,0.4
			s0.1,0.4,0.6,0.5l0.3,0c1.1,0.2,1.6,0.6,1.6,1.5c0,0.9-0.6,1.7-2.2,1.7C541,7.1,540.5,6.9,540.2,6.7z"/>
		<path id="XMLID_68_" class="st0" d="M544.5,4.5c0-1.8,1.2-2.6,2.6-2.6c1.5,0,2.5,0.8,2.5,2.6c0,1.9-1.2,2.6-2.6,2.6
			C545.5,7.1,544.5,6.3,544.5,4.5z M548,4.5c0-0.9-0.3-1.4-1-1.4c-0.7,0-1,0.6-1,1.4c0,0.9,0.3,1.4,1,1.4C547.7,5.9,548,5.3,548,4.5
			z"/>
		<path id="XMLID_66_" class="st0" d="M550.3,2h1.2l0.1,0.7c0.1-0.5,0.5-0.8,1-0.8c0.3,0,0.4,0.1,0.5,0.1v1.3
			c-0.1-0.1-0.3-0.1-0.6-0.1c-0.4,0-0.6,0.2-0.7,0.4V7h-1.5V2z"/>
		<path id="XMLID_63_" class="st0" d="M553.5,4.5c0-1.8,0.9-2.7,2.2-2.7c0.4,0,0.8,0.1,1.1,0.3v-2h1.5V7h-1.3l-0.1-0.4
			c-0.2,0.3-0.6,0.6-1.3,0.6C554.3,7.1,553.5,6.3,553.5,4.5z M556.7,3.3c-0.2-0.2-0.5-0.3-0.8-0.3c-0.7,0-1,0.7-1,1.6
			s0.2,1.4,0.9,1.4c0.4,0,0.7-0.2,0.8-0.4V3.3z"/>
		<path id="XMLID_60_" class="st0" d="M559,4.5c0-1.8,1.2-2.6,2.4-2.6c1.2,0,2.3,0.5,2.3,2.4v0.6h-3.2c0.1,0.6,0.4,1,1.3,1
			c0.8,0,1.4-0.3,1.6-0.6v1.2c-0.3,0.3-0.9,0.6-1.9,0.6C560,7.1,559,6.3,559,4.5z M562.3,4L562.3,4c0-0.6-0.3-1-0.9-1
			c-0.6,0-0.9,0.5-0.9,1H562.3z"/>
		<path id="XMLID_58_" class="st0" d="M564.5,2h1.2l0.1,0.7c0.1-0.5,0.5-0.8,1-0.8c0.3,0,0.4,0.1,0.5,0.1v1.3
			c-0.1-0.1-0.3-0.1-0.6-0.1c-0.4,0-0.6,0.2-0.7,0.4V7h-1.5V2z"/>
		<path id="XMLID_56_" class="st0" d="M567.5,6.2c0-0.5,0.4-0.9,0.9-0.9c0.5,0,0.9,0.4,0.9,0.9c0,0.5-0.4,0.9-0.9,0.9
			C567.8,7.1,567.5,6.7,567.5,6.2z"/>
		<path id="XMLID_53_" class="st0" d="M568.9,2.7c0.1-0.3,0.3-0.8,0.4-1.2c-0.3-0.1-0.4-0.4-0.4-0.7c0-0.5,0.3-0.8,0.8-0.8
			c0.5,0,0.8,0.3,0.8,0.8c0,0.8-0.6,1.6-1,1.9L568.9,2.7z M570.7,2.7c0.1-0.3,0.3-0.8,0.4-1.2c-0.3-0.1-0.4-0.4-0.4-0.7
			c0-0.5,0.3-0.8,0.8-0.8c0.5,0,0.8,0.3,0.8,0.8c0,0.8-0.6,1.6-1,1.9L570.7,2.7z"/>
		<path id="XMLID_51_" class="st0" d="M575.1,6.6l1.8-2.3c0.4-0.4,0.7-0.9,0.7-1.5c0-0.6-0.3-0.9-1-0.9c-0.6,0-1.2,0.3-1.5,0.7V1.3
			c0.3-0.3,0.9-0.6,1.8-0.6c1.5,0,2.2,0.7,2.2,2c0,1-0.6,1.8-1.2,2.4l-0.5,0.6h1.8V7h-4V6.6z"/>
		<path id="XMLID_48_" class="st0" d="M579.7,3.9c0-2.1,1.5-3.2,3.2-3.2c1.9,0,3.1,1.1,3.1,3.2c0,2.1-1.4,3.2-3.1,3.2
			C581,7.1,579.7,5.9,579.7,3.9z M584.5,3.9c0-1.3-0.7-2-1.6-2s-1.6,0.7-1.6,2c0,1.3,0.7,2,1.6,2S584.5,5.2,584.5,3.9z"/>
		<path id="XMLID_46_" class="st0" d="M587.8,2.6c-0.2,0.2-0.8,0.3-1.3,0.3V1.6c0.9,0,1.5-0.2,2-0.8h0.8V7h-1.4V2.6z"/>
		<path id="XMLID_43_" class="st0" d="M590.2,3.9c0-2.1,1.5-3.2,3.2-3.2c1.9,0,3.1,1.1,3.1,3.2c0,2.1-1.4,3.2-3.1,3.2
			C591.4,7.1,590.2,5.9,590.2,3.9z M594.9,3.9c0-1.3-0.7-2-1.6-2s-1.6,0.7-1.6,2c0,1.3,0.7,2,1.6,2S594.9,5.2,594.9,3.9z"/>
		<path id="XMLID_41_" class="st0" d="M599.1,6.8V5.3c0.2,0.3,0.6,0.5,1,0.5c0.6,0,0.9-0.3,0.9-1.1v-4h1.5v4.1c0,1.6-1,2.2-2.2,2.2
			C599.7,7.1,599.3,6.9,599.1,6.8z"/>
		<path id="XMLID_39_" class="st0" d="M603.5,5.1V2h1.5v2.8c0,0.8,0.2,1.1,0.7,1.1c0.4,0,0.7-0.2,0.8-0.4V2h1.5v5h-1.3l-0.1-0.4
			c-0.2,0.3-0.7,0.6-1.3,0.6C604,7.1,603.5,6.4,603.5,5.1z"/>
		<path id="XMLID_37_" class="st0" d="M609,2h1.3l0.1,0.4c0.2-0.3,0.7-0.6,1.3-0.6c1.3,0,1.8,0.7,1.8,2V7h-1.5V4.1
			c0-0.8-0.2-1.1-0.8-1.1c-0.4,0-0.7,0.2-0.8,0.4V7H609V2z"/>
		<path id="XMLID_34_" class="st0" d="M614.5,8.3c0.2-0.3,0.4-0.8,0.5-1.3c-0.3-0.1-0.5-0.4-0.5-0.8c0-0.5,0.4-0.9,0.9-0.9
			c0.5,0,0.8,0.4,0.8,0.9c0,0.8-0.7,1.8-1.1,2.1L614.5,8.3z M614.6,3c0-0.5,0.4-0.9,0.9-0.9c0.5,0,0.9,0.4,0.9,0.9
			c0,0.5-0.4,0.9-0.9,0.9C614.9,3.8,614.6,3.5,614.6,3z"/>
		<path id="XMLID_32_" class="st0" d="M619.8,5.8h-3V5.5l1.8-4.7h1.4l-1.3,3.7h1.2l0.2-2.1h1.2v2.1h0.6v1.3h-0.6V7h-1.4V5.8z"/>
		<path id="XMLID_30_" class="st0" d="M622.5,6.8V5.4c0.3,0.2,0.7,0.5,1.3,0.5c0.9,0,1.3-0.3,1.3-0.9c0-0.5-0.3-0.8-1.1-0.8h-0.5V4
			l1.1-1.9h-2.1V0.8h4v0.3l-1.3,2.2c0.7,0.1,1.4,0.5,1.4,1.7c0,1.1-0.8,2.1-2.6,2.1C623.1,7.1,622.7,7,622.5,6.8z"/>
		<path id="XMLID_28_" class="st0" d="M627.1,4.2c0-1.6,0.8-3.1,1.9-3.7h1.3c-1.1,0.6-1.9,1.9-1.9,3.7c0,1.8,0.9,3.2,1.8,3.9H629
			C627.9,7.5,627.1,5.9,627.1,4.2z"/>
		<path id="XMLID_26_" class="st0" d="M632.9,5.8h-3V5.5l1.8-4.7h1.4l-1.3,3.7h1.2l0.2-2.1h1.2v2.1h0.6v1.3h-0.6V7h-1.4V5.8z"/>
		<path id="XMLID_24_" class="st0" d="M636.5,4.3c0-1.8-0.8-3.2-1.8-3.8h1.2c1.1,0.6,1.9,2.2,1.9,3.8c0,1.6-0.8,3.1-1.9,3.7h-1.3
			C635.7,7.4,636.5,6.1,636.5,4.3z"/>
		<path id="XMLID_21_" class="st0" d="M638.5,3c0-0.5,0.4-0.9,0.9-0.9c0.5,0,0.9,0.4,0.9,0.9c0,0.5-0.4,0.9-0.9,0.9
			C638.8,3.8,638.5,3.5,638.5,3z M638.5,6.2c0-0.5,0.4-0.9,0.9-0.9c0.5,0,0.9,0.4,0.9,0.9c0,0.5-0.4,0.9-0.9,0.9
			C638.8,7.1,638.5,6.8,638.5,6.2z"/>
		<path id="XMLID_19_" class="st0" d="M642.1,2.6c-0.2,0.2-0.8,0.3-1.3,0.3V1.6c0.9,0,1.5-0.2,2-0.8h0.8V7h-1.4V2.6z"/>
		<path id="XMLID_17_" class="st0" d="M644.6,6.8V5.4c0.3,0.2,0.7,0.5,1.3,0.5c0.9,0,1.3-0.3,1.3-0.9c0-0.5-0.3-0.8-1.1-0.8h-0.5V4
			l1.1-1.9h-2.1V0.8h4v0.3l-1.3,2.2c0.7,0.1,1.4,0.5,1.4,1.7c0,1.1-0.8,2.1-2.6,2.1C645.3,7.1,644.8,7,644.6,6.8z"/>
		<path id="XMLID_13_" class="st0" d="M649.3,5.3c0-0.7,0.4-1.2,1-1.4c-0.4-0.2-0.8-0.7-0.8-1.4c0-1.1,0.9-1.8,2.3-1.8
			c1.4,0,2.1,0.7,2.1,1.8c0,0.7-0.4,1.1-0.8,1.4c0.5,0.2,0.9,0.7,0.9,1.5c0,1-0.8,1.8-2.4,1.8C650,7.1,649.3,6.3,649.3,5.3z
			 M652.5,5.2c0-0.4-0.3-0.7-0.8-0.7c-0.6,0-0.8,0.3-0.8,0.7c0,0.4,0.3,0.7,0.8,0.7C652.2,5.9,652.5,5.6,652.5,5.2z M652.4,2.6
			c0-0.4-0.3-0.7-0.8-0.7c-0.5,0-0.7,0.3-0.7,0.7c0,0.4,0.3,0.7,0.7,0.7C652.1,3.3,652.4,3,652.4,2.6z"/>
		<path id="XMLID_11_" class="st0" d="M654.8,3.6h2.4v1.2h-2.4V3.6z"/>
		<path id="XMLID_9_" class="st0" d="M660.8,5.8h-3V5.5l1.8-4.7h1.4l-1.3,3.7h1.2l0.2-2.1h1.2v2.1h0.6v1.3h-0.6V7h-1.4V5.8z"/>
		<path id="XMLID_6_" class="st0" d="M663.4,4.6c0-2.1,1.2-3.3,2.3-3.8h1.9v0.1c-0.9,0.4-1.8,1-2.3,2c0.2-0.1,0.5-0.2,0.8-0.2
			c1.2,0,2,0.7,2,2.1c0,1.4-0.9,2.3-2.4,2.3C664.2,7.1,663.4,6.2,663.4,4.6z M666.6,4.9c0-0.6-0.3-1-0.8-1c-0.4,0-0.7,0.2-0.8,0.3
			c0,0.2,0,0.4,0,0.6c0,0.7,0.3,1.1,0.8,1.1C666.3,5.9,666.6,5.5,666.6,4.9z"/>
		<path id="XMLID_4_" class="st0" d="M668.6,6.2c0-0.5,0.4-0.9,0.9-0.9c0.5,0,0.9,0.4,0.9,0.9c0,0.5-0.4,0.9-0.9,0.9
			C669,7.1,668.6,6.7,668.6,6.2z"/>
	</g>
</g>
</svg>
