<!-- Generator: Adobe Illustrator 22.1.0, SVG Export Plug-In  -->
<svg version="1.1"
	 xmlns="http://www.w3.org/2000/svg" xmlns:xlink="http://www.w3.org/1999/xlink" xmlns:a="http://ns.adobe.com/AdobeSVGViewerExtensions/3.0/"
	 x="0px" y="0px" width="439.1px" height="8.9px" viewBox="0 0 439.1 8.9" style="enable-background:new 0 0 439.1 8.9;"
	 xml:space="preserve">
<style type="text/css">
	.st0{fill:#231F20;}
</style>
<defs>
</defs>
<g id="XMLID_1_">
	<g id="XMLID_3_">
		<path id="XMLID_221_" class="st0" d="M1.1,5.9l0.1-0.5H0V4.5h1.3L1.1,4V3.1l0.2-0.5H0V1.6h1.3L1.1,1.1V0h1v1.1L2,1.6h1.3v0.9H2
			l0.1,0.5V4L2,4.5h1.3v0.9H2l0.1,0.5V7h-1V5.9z"/>
		<path id="XMLID_218_" class="st0" d="M4.2,0.9h2c2.1,0,3.3,0.8,3.3,3.1C9.5,6.2,8.1,7,6.2,7h-2V0.9z M6.2,5.8C7.6,5.8,8,5.3,8,4
			S7.6,2.1,6.2,2.1H5.7v3.7H6.2z"/>
		<path id="XMLID_215_" class="st0" d="M10.4,0.8c0-0.4,0.3-0.7,0.8-0.7c0.5,0,0.8,0.3,0.8,0.7c0,0.4-0.3,0.7-0.8,0.7
			C10.6,1.5,10.4,1.3,10.4,0.8z M10.4,2h1.5v5h-1.5V2z"/>
		<path id="XMLID_213_" class="st0" d="M12.8,6.8V5.5C13.1,5.8,13.6,6,14.3,6c0.6,0,0.8-0.2,0.8-0.5c0-0.3-0.1-0.4-0.7-0.5l-0.3,0
			c-1-0.1-1.5-0.7-1.5-1.5c0-0.9,0.6-1.6,2.1-1.6c0.8,0,1.3,0.2,1.6,0.4v1.3C16,3.2,15.5,3,14.8,3C14.2,3,14,3.2,14,3.5
			s0.1,0.4,0.6,0.5l0.3,0c1.1,0.2,1.6,0.6,1.6,1.5c0,0.9-0.6,1.7-2.2,1.7C13.6,7.2,13,7,12.8,6.8z"/>
		<path id="XMLID_211_" class="st0" d="M17,4.5c0-1.8,1.2-2.6,2.5-2.6c0.7,0,1.3,0.2,1.5,0.4v1.3c-0.3-0.4-0.7-0.5-1.3-0.5
			c-0.8,0-1.2,0.5-1.2,1.4c0,0.9,0.4,1.4,1.2,1.4c0.6,0,1-0.2,1.3-0.5v1.3c-0.2,0.2-0.8,0.5-1.5,0.5C18,7.2,17,6.4,17,4.5z"/>
		<path id="XMLID_208_" class="st0" d="M21.6,4.5c0-1.8,1.2-2.6,2.6-2.6c1.5,0,2.5,0.8,2.5,2.6c0,1.9-1.2,2.6-2.6,2.6
			C22.6,7.2,21.6,6.4,21.6,4.5z M25.2,4.5c0-0.9-0.3-1.4-1-1.4c-0.7,0-1,0.6-1,1.4c0,0.9,0.3,1.4,1,1.4C24.8,6,25.2,5.4,25.2,4.5z"
			/>
		<path id="XMLID_206_" class="st0" d="M27.5,2h1.3l0.1,0.4c0.2-0.3,0.7-0.6,1.3-0.6c1.3,0,1.8,0.7,1.8,2V7h-1.5V4.2
			c0-0.8-0.2-1.1-0.8-1.1c-0.4,0-0.7,0.2-0.8,0.4V7h-1.5V2z"/>
		<path id="XMLID_204_" class="st0" d="M33.3,5.6V3.2h-0.6V2.7L33.2,2l0.9-1.2h0.7V2h1.2v1.2h-1.2v2.3c0,0.4,0.1,0.5,0.4,0.5
			c0.3,0,0.6-0.2,0.7-0.4v1.2c-0.2,0.2-0.5,0.4-1.1,0.4C33.7,7.2,33.3,6.6,33.3,5.6z"/>
		<path id="XMLID_201_" class="st0" d="M36.7,0.8c0-0.4,0.3-0.7,0.8-0.7c0.5,0,0.8,0.3,0.8,0.7c0,0.4-0.3,0.7-0.8,0.7
			C36.9,1.5,36.7,1.3,36.7,0.8z M36.7,2h1.5v5h-1.5V2z"/>
		<path id="XMLID_199_" class="st0" d="M39.2,2h1.3l0.1,0.4c0.2-0.3,0.7-0.6,1.3-0.6c1.3,0,1.8,0.7,1.8,2V7h-1.5V4.2
			c0-0.8-0.2-1.1-0.8-1.1c-0.4,0-0.7,0.2-0.8,0.4V7h-1.5V2z"/>
		<path id="XMLID_197_" class="st0" d="M44.7,5.1V2h1.5v2.8c0,0.8,0.2,1.1,0.7,1.1c0.4,0,0.7-0.2,0.8-0.4V2h1.5v5h-1.3l-0.1-0.4
			c-0.2,0.3-0.7,0.6-1.3,0.6C45.2,7.2,44.7,6.5,44.7,5.1z"/>
		<path id="XMLID_194_" class="st0" d="M50,5.7c0-1,0.7-1.4,2.1-1.6L52.8,4c0-0.7-0.3-0.9-1-0.9c-0.7,0-1.4,0.4-1.6,0.9V2.6
			c0.2-0.3,0.8-0.7,1.9-0.7c1.4,0,2.2,0.6,2.2,2.1v3H53l-0.1-0.4c-0.1,0.3-0.5,0.6-1.2,0.6C50.7,7.2,50,6.7,50,5.7z M52.8,4.9
			L52.3,5c-0.7,0.1-0.9,0.3-0.9,0.7c0,0.3,0.2,0.5,0.6,0.5c0.4,0,0.7-0.2,0.9-0.3V4.9z"/>
		<path id="XMLID_192_" class="st0" d="M55.5,5.6V3.2H55V2.7L55.4,2l0.9-1.2H57V2h1.2v1.2H57v2.3C57,5.8,57.1,6,57.4,6
			c0.3,0,0.6-0.2,0.7-0.4v1.2C58,7,57.7,7.2,57,7.2C56,7.2,55.5,6.6,55.5,5.6z"/>
		<path id="XMLID_189_" class="st0" d="M58.9,0.8c0-0.4,0.3-0.7,0.8-0.7c0.5,0,0.8,0.3,0.8,0.7c0,0.4-0.3,0.7-0.8,0.7
			C59.2,1.5,58.9,1.3,58.9,0.8z M59,2h1.5v5H59V2z"/>
		<path id="XMLID_186_" class="st0" d="M61.2,4.5c0-1.8,1.2-2.6,2.6-2.6c1.5,0,2.5,0.8,2.5,2.6c0,1.9-1.2,2.6-2.6,2.6
			C62.3,7.2,61.2,6.4,61.2,4.5z M64.8,4.5c0-0.9-0.3-1.4-1-1.4c-0.7,0-1,0.6-1,1.4c0,0.9,0.3,1.4,1,1.4C64.5,6,64.8,5.4,64.8,4.5z"
			/>
		<path id="XMLID_184_" class="st0" d="M67.1,2h1.3l0.1,0.4c0.2-0.3,0.7-0.6,1.3-0.6c1.3,0,1.8,0.7,1.8,2V7h-1.5V4.2
			c0-0.8-0.2-1.1-0.8-1.1c-0.4,0-0.7,0.2-0.8,0.4V7h-1.5V2z"/>
		<path id="XMLID_182_" class="st0" d="M74.8,2H76l0.1,0.7c0.1-0.5,0.5-0.8,1-0.8c0.3,0,0.4,0.1,0.5,0.1v1.3
			c-0.1-0.1-0.3-0.1-0.6-0.1c-0.4,0-0.6,0.2-0.7,0.4V7h-1.5V2z"/>
		<path id="XMLID_179_" class="st0" d="M77.9,5.7c0-1,0.7-1.4,2.1-1.6L80.8,4c0-0.7-0.3-0.9-1-0.9c-0.7,0-1.4,0.4-1.6,0.9V2.6
			c0.2-0.3,0.8-0.7,1.9-0.7c1.4,0,2.2,0.6,2.2,2.1v3H81l-0.1-0.4c-0.1,0.3-0.5,0.6-1.2,0.6C78.6,7.2,77.9,6.7,77.9,5.7z M80.8,4.9
			L80.2,5c-0.7,0.1-0.9,0.3-0.9,0.7c0,0.3,0.2,0.5,0.6,0.5c0.4,0,0.7-0.2,0.9-0.3V4.9z"/>
		<path id="XMLID_177_" class="st0" d="M83.5,5.6V3.2h-0.6V2.7L83.4,2l0.9-1.2H85V2h1.2v1.2H85v2.3C85,5.8,85.1,6,85.4,6
			c0.3,0,0.6-0.2,0.7-0.4v1.2C86,7,85.6,7.2,85,7.2C83.9,7.2,83.5,6.6,83.5,5.6z"/>
		<path id="XMLID_174_" class="st0" d="M86.7,4.5c0-1.8,1.2-2.6,2.4-2.6c1.2,0,2.3,0.5,2.3,2.4V5h-3.2c0.1,0.6,0.4,1,1.3,1
			c0.8,0,1.4-0.3,1.6-0.6v1.2c-0.3,0.3-0.9,0.6-1.9,0.6C87.7,7.2,86.7,6.3,86.7,4.5z M90,4L90,4c0-0.6-0.3-1-0.9-1
			c-0.6,0-0.9,0.5-0.9,1H90z"/>
		<path id="XMLID_172_" class="st0" d="M92.1,6.8V5.5C92.4,5.8,92.9,6,93.6,6c0.6,0,0.8-0.2,0.8-0.5c0-0.3-0.1-0.4-0.7-0.5l-0.3,0
			c-1-0.1-1.5-0.7-1.5-1.5c0-0.9,0.6-1.6,2.1-1.6c0.8,0,1.3,0.2,1.6,0.4v1.3C95.3,3.2,94.8,3,94.1,3c-0.6,0-0.8,0.2-0.8,0.4
			s0.1,0.4,0.6,0.5l0.3,0c1.1,0.2,1.6,0.6,1.6,1.5c0,0.9-0.6,1.7-2.2,1.7C92.9,7.2,92.3,7,92.1,6.8z"/>
		<path id="XMLID_169_" class="st0" d="M98.5,5.7c0-1,0.7-1.4,2.1-1.6l0.7-0.1c0-0.7-0.3-0.9-1-0.9c-0.7,0-1.4,0.4-1.6,0.9V2.6
			c0.2-0.3,0.8-0.7,1.9-0.7c1.4,0,2.2,0.6,2.2,2.1v3h-1.3l-0.1-0.4c-0.1,0.3-0.5,0.6-1.2,0.6C99.2,7.2,98.5,6.7,98.5,5.7z
			 M101.3,4.9L100.8,5c-0.7,0.1-0.9,0.3-0.9,0.7c0,0.3,0.2,0.5,0.6,0.5c0.4,0,0.7-0.2,0.9-0.3V4.9z"/>
		<path id="XMLID_167_" class="st0" d="M103.8,2h1.2l0.1,0.7c0.1-0.5,0.5-0.8,1-0.8c0.3,0,0.4,0.1,0.5,0.1v1.3
			c-0.1-0.1-0.3-0.1-0.6-0.1c-0.4,0-0.6,0.2-0.7,0.4V7h-1.5V2z"/>
		<path id="XMLID_164_" class="st0" d="M106.9,4.5c0-1.8,1.2-2.6,2.4-2.6c1.2,0,2.3,0.5,2.3,2.4V5h-3.2c0.1,0.6,0.4,1,1.3,1
			c0.8,0,1.4-0.3,1.6-0.6v1.2c-0.3,0.3-0.9,0.6-1.9,0.6C107.9,7.2,106.9,6.3,106.9,4.5z M110.3,4L110.3,4c0-0.6-0.3-1-0.9-1
			c-0.6,0-0.9,0.5-0.9,1H110.3z"/>
		<path id="XMLID_161_" class="st0" d="M114.4,5.7c0-1,0.7-1.4,2.1-1.6l0.7-0.1c0-0.7-0.3-0.9-1-0.9c-0.7,0-1.4,0.4-1.6,0.9V2.6
			c0.2-0.3,0.8-0.7,1.9-0.7c1.4,0,2.2,0.6,2.2,2.1v3h-1.3l-0.1-0.4c-0.1,0.3-0.5,0.6-1.2,0.6C115.1,7.2,114.4,6.7,114.4,5.7z
			 M117.2,4.9L116.6,5c-0.7,0.1-0.9,0.3-0.9,0.7c0,0.3,0.2,0.5,0.6,0.5c0.4,0,0.7-0.2,0.9-0.3V4.9z"/>
		<path id="XMLID_159_" class="st0" d="M119.9,5.6V3.2h-0.6V2.7l0.5-0.6l0.9-1.2h0.7V2h1.2v1.2h-1.2v2.3c0,0.4,0.1,0.5,0.4,0.5
			c0.3,0,0.6-0.2,0.7-0.4v1.2c-0.2,0.2-0.5,0.4-1.1,0.4C120.3,7.2,119.9,6.6,119.9,5.6z"/>
		<path id="XMLID_157_" class="st0" d="M125.8,5.6V3.2h-0.6V2.7l0.5-0.6l0.9-1.2h0.7V2h1.2v1.2h-1.2v2.3c0,0.4,0.1,0.5,0.4,0.5
			c0.3,0,0.6-0.2,0.7-0.4v1.2c-0.2,0.2-0.5,0.4-1.1,0.4C126.2,7.2,125.8,6.6,125.8,5.6z"/>
		<path id="XMLID_155_" class="st0" d="M129.2,0.2h1.5v2.2c0.2-0.3,0.7-0.5,1.3-0.5c1.3,0,1.8,0.7,1.8,2V7h-1.5V4.2
			c0-0.8-0.2-1.1-0.8-1.1c-0.4,0-0.7,0.2-0.8,0.4V7h-1.5V0.2z"/>
		<path id="XMLID_152_" class="st0" d="M134.5,4.5c0-1.8,1.2-2.6,2.4-2.6c1.2,0,2.3,0.5,2.3,2.4V5H136c0.1,0.6,0.4,1,1.3,1
			c0.8,0,1.4-0.3,1.6-0.6v1.2c-0.3,0.3-0.9,0.6-1.9,0.6C135.5,7.2,134.5,6.3,134.5,4.5z M137.8,4L137.8,4c0-0.6-0.3-1-0.9-1
			c-0.6,0-0.9,0.5-0.9,1H137.8z"/>
		<path id="XMLID_150_" class="st0" d="M141.9,4.5c0-1.8,1.2-2.6,2.5-2.6c0.7,0,1.3,0.2,1.5,0.4v1.3c-0.3-0.4-0.7-0.5-1.3-0.5
			c-0.8,0-1.2,0.5-1.2,1.4c0,0.9,0.4,1.4,1.2,1.4c0.6,0,1-0.2,1.3-0.5v1.3c-0.2,0.2-0.8,0.5-1.5,0.5C142.9,7.2,141.9,6.4,141.9,4.5z
			"/>
		<path id="XMLID_147_" class="st0" d="M146.5,4.5c0-1.8,1.2-2.6,2.6-2.6c1.5,0,2.5,0.8,2.5,2.6c0,1.9-1.2,2.6-2.6,2.6
			C147.5,7.2,146.5,6.4,146.5,4.5z M150.1,4.5c0-0.9-0.3-1.4-1-1.4c-0.7,0-1,0.6-1,1.4c0,0.9,0.3,1.4,1,1.4
			C149.7,6,150.1,5.4,150.1,4.5z"/>
		<path id="XMLID_145_" class="st0" d="M152.3,2h1.3l0.1,0.4c0.2-0.3,0.7-0.6,1.3-0.6c0.7,0,1.2,0.2,1.4,0.7
			c0.3-0.3,0.7-0.7,1.5-0.7c1.2,0,1.7,0.7,1.7,2V7h-1.5V4.2c0-0.8-0.2-1.1-0.7-1.1c-0.4,0-0.7,0.2-0.8,0.4c0,0.1,0,0.3,0,0.5V7h-1.5
			V4.2c0-0.8-0.2-1.1-0.7-1.1c-0.4,0-0.6,0.2-0.7,0.4V7h-1.5V2z"/>
		<path id="XMLID_142_" class="st0" d="M160.6,2h1.3l0.1,0.4c0.2-0.3,0.6-0.6,1.3-0.6c1.3,0,2,0.7,2,2.5c0,1.8-1,2.8-2.2,2.8
			c-0.4,0-0.8-0.1-1.1-0.3v1.9h-1.5V2z M163.9,4.5c0-0.9-0.2-1.4-0.9-1.4c-0.4,0-0.7,0.2-0.8,0.4v2.3c0.2,0.2,0.5,0.3,0.8,0.3
			C163.6,6,163.9,5.3,163.9,4.5z"/>
		<path id="XMLID_140_" class="st0" d="M166.2,5.8V0.2h1.5v5.4c0,0.3,0.1,0.4,0.3,0.4c0.2,0,0.4-0.1,0.4-0.2v1.1
			c-0.1,0.1-0.4,0.3-0.9,0.3C166.6,7.2,166.2,6.7,166.2,5.8z"/>
		<path id="XMLID_137_" class="st0" d="M168.8,4.5c0-1.8,1.2-2.6,2.4-2.6c1.2,0,2.3,0.5,2.3,2.4V5h-3.2c0.1,0.6,0.4,1,1.3,1
			c0.8,0,1.4-0.3,1.6-0.6v1.2c-0.3,0.3-0.9,0.6-1.9,0.6C169.8,7.2,168.8,6.3,168.8,4.5z M172.1,4L172.1,4c0-0.6-0.3-1-0.9-1
			c-0.6,0-0.9,0.5-0.9,1H172.1z"/>
		<path id="XMLID_135_" class="st0" d="M174.6,5.6V3.2H174V2.7l0.5-0.6l0.9-1.2h0.7V2h1.2v1.2h-1.2v2.3c0,0.4,0.1,0.5,0.4,0.5
			c0.3,0,0.6-0.2,0.7-0.4v1.2c-0.2,0.2-0.5,0.4-1.1,0.4C175,7.2,174.6,6.6,174.6,5.6z"/>
		<path id="XMLID_132_" class="st0" d="M177.8,4.5c0-1.8,1.2-2.6,2.4-2.6c1.2,0,2.3,0.5,2.3,2.4V5h-3.2c0.1,0.6,0.4,1,1.3,1
			c0.8,0,1.4-0.3,1.6-0.6v1.2c-0.3,0.3-0.9,0.6-1.9,0.6C178.7,7.2,177.8,6.3,177.8,4.5z M181.1,4L181.1,4c0-0.6-0.3-1-0.9-1
			c-0.6,0-0.9,0.5-0.9,1H181.1z"/>
		<path id="XMLID_130_" class="st0" d="M185.3,6.8V5.5c0.3,0.3,0.8,0.6,1.5,0.6c0.6,0,0.8-0.2,0.8-0.5c0-0.3-0.1-0.4-0.7-0.5l-0.3,0
			c-1-0.1-1.5-0.7-1.5-1.5c0-0.9,0.6-1.6,2.1-1.6c0.8,0,1.3,0.2,1.6,0.4v1.3C188.5,3.2,188,3,187.3,3c-0.6,0-0.8,0.2-0.8,0.4
			s0.1,0.4,0.6,0.5l0.3,0c1.1,0.2,1.6,0.6,1.6,1.5c0,0.9-0.6,1.7-2.2,1.7C186.1,7.2,185.6,7,185.3,6.8z"/>
		<path id="XMLID_128_" class="st0" d="M190.1,5.6V3.2h-0.6V2.7L190,2l0.9-1.2h0.7V2h1.2v1.2h-1.2v2.3c0,0.4,0.1,0.5,0.4,0.5
			c0.3,0,0.6-0.2,0.7-0.4v1.2c-0.2,0.2-0.5,0.4-1.1,0.4C190.5,7.2,190.1,6.6,190.1,5.6z"/>
		<path id="XMLID_126_" class="st0" d="M193.5,5.1V2h1.5v2.8c0,0.8,0.2,1.1,0.7,1.1c0.4,0,0.7-0.2,0.8-0.4V2h1.5v5h-1.3l-0.1-0.4
			c-0.2,0.3-0.7,0.6-1.3,0.6C193.9,7.2,193.5,6.5,193.5,5.1z"/>
		<path id="XMLID_123_" class="st0" d="M198.8,4.6c0-1.8,0.9-2.7,2.2-2.7c0.4,0,0.8,0.1,1.1,0.3v-2h1.5V7h-1.3l-0.1-0.4
			c-0.2,0.3-0.6,0.6-1.3,0.6C199.6,7.2,198.8,6.4,198.8,4.6z M202,3.4c-0.2-0.2-0.5-0.3-0.8-0.3c-0.7,0-1,0.7-1,1.6s0.2,1.4,0.9,1.4
			c0.4,0,0.7-0.2,0.8-0.4V3.4z"/>
		<path id="XMLID_121_" class="st0" d="M204.3,8.6V7.5c0.2,0.2,0.5,0.4,0.9,0.4c0.3,0,0.6-0.1,0.9-0.7l-2-5.1h1.6l1,3.3l0.9-3.3h1.4
			l-1.4,4.7c-0.4,1.2-1,2.2-2.3,2.2C204.8,8.9,204.5,8.8,204.3,8.6z"/>
		<path id="XMLID_118_" class="st0" d="M211.5,4.6c0-1.8,0.9-2.7,2.2-2.7c0.4,0,0.8,0.1,1.1,0.3v-2h1.5V7H215l-0.1-0.4
			c-0.2,0.3-0.6,0.6-1.3,0.6C212.4,7.2,211.5,6.4,211.5,4.6z M214.8,3.4C214.6,3.1,214.3,3,214,3c-0.7,0-1,0.7-1,1.6
			s0.2,1.4,0.9,1.4c0.4,0,0.7-0.2,0.8-0.4V3.4z"/>
		<path id="XMLID_116_" class="st0" d="M217.3,5.1V2h1.5v2.8c0,0.8,0.2,1.1,0.7,1.1c0.4,0,0.7-0.2,0.8-0.4V2h1.5v5h-1.3l-0.1-0.4
			c-0.2,0.3-0.7,0.6-1.3,0.6C217.7,7.2,217.3,6.5,217.3,5.1z"/>
		<path id="XMLID_114_" class="st0" d="M222.8,2h1.2l0.1,0.7c0.1-0.5,0.5-0.8,1-0.8c0.3,0,0.4,0.1,0.5,0.1v1.3
			c-0.1-0.1-0.3-0.1-0.6-0.1c-0.4,0-0.6,0.2-0.7,0.4V7h-1.5V2z"/>
		<path id="XMLID_111_" class="st0" d="M225.9,5.7c0-1,0.7-1.4,2.1-1.6l0.7-0.1c0-0.7-0.3-0.9-1-0.9c-0.7,0-1.4,0.4-1.6,0.9V2.6
			c0.2-0.3,0.8-0.7,1.9-0.7c1.4,0,2.2,0.6,2.2,2.1v3H229l-0.1-0.4c-0.1,0.3-0.5,0.6-1.2,0.6C226.6,7.2,225.9,6.7,225.9,5.7z
			 M228.8,4.9L228.2,5c-0.7,0.1-0.9,0.3-0.9,0.7c0,0.3,0.2,0.5,0.6,0.5c0.4,0,0.7-0.2,0.9-0.3V4.9z"/>
		<path id="XMLID_109_" class="st0" d="M231.5,5.6V3.2h-0.6V2.7l0.5-0.6l0.9-1.2h0.7V2h1.2v1.2H233v2.3c0,0.4,0.1,0.5,0.4,0.5
			c0.3,0,0.6-0.2,0.7-0.4v1.2C234,7,233.6,7.2,233,7.2C231.9,7.2,231.5,6.6,231.5,5.6z"/>
		<path id="XMLID_106_" class="st0" d="M234.9,0.8c0-0.4,0.3-0.7,0.8-0.7c0.5,0,0.8,0.3,0.8,0.7c0,0.4-0.3,0.7-0.8,0.7
			C235.2,1.5,234.9,1.3,234.9,0.8z M234.9,2h1.5v5h-1.5V2z"/>
		<path id="XMLID_103_" class="st0" d="M237.2,4.5c0-1.8,1.2-2.6,2.6-2.6c1.5,0,2.5,0.8,2.5,2.6c0,1.9-1.2,2.6-2.6,2.6
			C238.2,7.2,237.2,6.4,237.2,4.5z M240.7,4.5c0-0.9-0.3-1.4-1-1.4c-0.7,0-1,0.6-1,1.4c0,0.9,0.3,1.4,1,1.4
			C240.4,6,240.7,5.4,240.7,4.5z"/>
		<path id="XMLID_101_" class="st0" d="M243,2h1.3l0.1,0.4c0.2-0.3,0.7-0.6,1.3-0.6c1.3,0,1.8,0.7,1.8,2V7h-1.5V4.2
			c0-0.8-0.2-1.1-0.8-1.1c-0.4,0-0.7,0.2-0.8,0.4V7H243V2z"/>
		<path id="XMLID_98_" class="st0" d="M248.5,3c0-0.5,0.4-0.9,0.9-0.9c0.5,0,0.9,0.4,0.9,0.9c0,0.5-0.4,0.9-0.9,0.9
			C248.9,3.9,248.5,3.5,248.5,3z M248.5,6.3c0-0.5,0.4-0.9,0.9-0.9c0.5,0,0.9,0.4,0.9,0.9c0,0.5-0.4,0.9-0.9,0.9
			C248.9,7.2,248.5,6.8,248.5,6.3z"/>
		<path id="XMLID_95_" class="st0" d="M253.1,4.7c0-2.1,1.2-3.3,2.3-3.8h1.9v0.1c-0.9,0.4-1.8,1-2.3,2c0.2-0.1,0.5-0.2,0.8-0.2
			c1.2,0,2,0.7,2,2.1c0,1.4-0.9,2.3-2.4,2.3C254,7.2,253.1,6.2,253.1,4.7z M256.4,4.9c0-0.6-0.3-1-0.8-1c-0.4,0-0.7,0.2-0.8,0.3
			c0,0.2,0,0.4,0,0.6c0,0.7,0.3,1.1,0.8,1.1C256.1,5.9,256.4,5.5,256.4,4.9z"/>
		<path id="XMLID_93_" class="st0" d="M260.4,2h1.5l0.7,2.6l1-2.6h0.5l1,2.6l0.6-2.6h1.4l-1.4,5h-0.9l-1.1-2.7L262.7,7h-0.9L260.4,2
			z"/>
		<path id="XMLID_89_" class="st0" d="M267.4,4.5c0-1.8,1.2-2.6,2.4-2.6c1.2,0,2.3,0.5,2.3,2.4V5h-3.2c0.1,0.6,0.4,1,1.3,1
			c0.8,0,1.4-0.3,1.6-0.6v1.2c-0.3,0.3-0.9,0.6-1.9,0.6C268.4,7.2,267.4,6.3,267.4,4.5z M270.7,4L270.7,4c0-0.6-0.3-1-0.9-1
			c-0.6,0-0.9,0.5-0.9,1H270.7z"/>
		<path id="XMLID_86_" class="st0" d="M272.7,4.5c0-1.8,1.2-2.6,2.4-2.6c1.2,0,2.3,0.5,2.3,2.4V5h-3.2c0.1,0.6,0.4,1,1.3,1
			c0.8,0,1.4-0.3,1.6-0.6v1.2c-0.3,0.3-0.9,0.6-1.9,0.6C273.7,7.2,272.7,6.3,272.7,4.5z M276,4L276,4c0-0.6-0.3-1-0.9-1
			c-0.6,0-0.9,0.5-0.9,1H276z"/>
		<path id="XMLID_84_" class="st0" d="M280.2,5c-0.3,0.2-0.5,0.4-0.5,0.4V7h-1.5V0.2h1.5v3.6c0,0,1-0.8,1.7-1.8h1.5
			c-0.4,0.7-1,1.4-1.5,1.9l1.8,3.1h-1.7L280.2,5z"/>
		<path id="XMLID_81_" class="st0" d="M283.5,6.8V5.5c0.3,0.3,0.8,0.6,1.5,0.6c0.6,0,0.8-0.2,0.8-0.5c0-0.3-0.1-0.4-0.7-0.5l-0.3,0
			c-1-0.1-1.5-0.7-1.5-1.5c0-0.9,0.6-1.6,2.1-1.6c0.8,0,1.3,0.2,1.6,0.4v1.3c-0.3-0.4-0.8-0.5-1.5-0.5c-0.6,0-0.8,0.2-0.8,0.4
			s0.1,0.4,0.6,0.5l0.3,0c1.1,0.2,1.6,0.6,1.6,1.5c0,0.9-0.6,1.7-2.2,1.7C284.3,7.2,283.8,7,283.5,6.8z"/>
		<path id="XMLID_79_" class="st0" d="M290.4,3.2h-0.6V2.7l0.5-0.5c-0.1-0.2-0.2-0.4-0.2-0.7c0-0.9,0.8-1.4,1.8-1.4
			c0.7,0,1.1,0.2,1.2,0.3v1.2c-0.2-0.3-0.5-0.4-0.9-0.4c-0.4,0-0.6,0.2-0.6,0.5c0,0.2,0.1,0.3,0.1,0.4h1v1.2h-0.9V7h-1.5V3.2z"/>
		<path id="XMLID_76_" class="st0" d="M293.2,4.5c0-1.8,1.2-2.6,2.6-2.6c1.5,0,2.5,0.8,2.5,2.6c0,1.9-1.2,2.6-2.6,2.6
			C294.2,7.2,293.2,6.4,293.2,4.5z M296.7,4.5c0-0.9-0.3-1.4-1-1.4c-0.7,0-1,0.6-1,1.4c0,0.9,0.3,1.4,1,1.4
			C296.4,6,296.7,5.4,296.7,4.5z"/>
		<path id="XMLID_74_" class="st0" d="M299,2h1.2l0.1,0.7c0.1-0.5,0.5-0.8,1-0.8c0.3,0,0.4,0.1,0.5,0.1v1.3
			c-0.1-0.1-0.3-0.1-0.6-0.1c-0.4,0-0.6,0.2-0.7,0.4V7H299V2z"/>
		<path id="XMLID_72_" class="st0" d="M304.5,6.8V5.5c0.3,0.3,0.8,0.6,1.5,0.6c0.6,0,0.8-0.2,0.8-0.5c0-0.3-0.1-0.4-0.7-0.5l-0.3,0
			c-1-0.1-1.5-0.7-1.5-1.5c0-0.9,0.6-1.6,2.1-1.6c0.8,0,1.3,0.2,1.6,0.4v1.3c-0.3-0.4-0.8-0.5-1.5-0.5c-0.6,0-0.8,0.2-0.8,0.4
			s0.1,0.4,0.6,0.5l0.3,0c1.1,0.2,1.6,0.6,1.6,1.5c0,0.9-0.6,1.7-2.2,1.7C305.3,7.2,304.8,7,304.5,6.8z"/>
		<path id="XMLID_70_" class="st0" d="M309,0.2h1.5v2.2c0.2-0.3,0.7-0.5,1.3-0.5c1.3,0,1.8,0.7,1.8,2V7h-1.5V4.2
			c0-0.8-0.2-1.1-0.8-1.1c-0.4,0-0.7,0.2-0.8,0.4V7H309V0.2z"/>
		<path id="XMLID_67_" class="st0" d="M314.3,4.5c0-1.8,1.2-2.6,2.6-2.6c1.5,0,2.5,0.8,2.5,2.6c0,1.9-1.2,2.6-2.6,2.6
			C315.3,7.2,314.3,6.4,314.3,4.5z M317.8,4.5c0-0.9-0.3-1.4-1-1.4c-0.7,0-1,0.6-1,1.4c0,0.9,0.3,1.4,1,1.4
			C317.5,6,317.8,5.4,317.8,4.5z"/>
		<path id="XMLID_65_" class="st0" d="M320.1,2h1.2l0.1,0.7c0.1-0.5,0.5-0.8,1-0.8c0.3,0,0.4,0.1,0.5,0.1v1.3
			c-0.1-0.1-0.3-0.1-0.6-0.1c-0.4,0-0.6,0.2-0.7,0.4V7h-1.5V2z"/>
		<path id="XMLID_63_" class="st0" d="M323.8,5.6V3.2h-0.6V2.7l0.5-0.6l0.9-1.2h0.7V2h1.2v1.2h-1.2v2.3c0,0.4,0.1,0.5,0.4,0.5
			c0.3,0,0.6-0.2,0.7-0.4v1.2c-0.2,0.2-0.5,0.4-1.1,0.4C324.3,7.2,323.8,6.6,323.8,5.6z"/>
		<path id="XMLID_61_" class="st0" d="M327.2,3.6h2.4v1.2h-2.4V3.6z"/>
		<path id="XMLID_59_" class="st0" d="M330.9,5.6V3.2h-0.6V2.7l0.5-0.6l0.9-1.2h0.7V2h1.2v1.2h-1.2v2.3c0,0.4,0.1,0.5,0.4,0.5
			c0.3,0,0.6-0.2,0.7-0.4v1.2c-0.2,0.2-0.5,0.4-1.1,0.4C331.3,7.2,330.9,6.6,330.9,5.6z"/>
		<path id="XMLID_56_" class="st0" d="M334.1,4.5c0-1.8,1.2-2.6,2.4-2.6c1.2,0,2.3,0.5,2.3,2.4V5h-3.2c0.1,0.6,0.4,1,1.3,1
			c0.8,0,1.4-0.3,1.6-0.6v1.2c-0.3,0.3-0.9,0.6-1.9,0.6C335.1,7.2,334.1,6.3,334.1,4.5z M337.4,4L337.4,4c0-0.6-0.3-1-0.9-1
			c-0.6,0-0.9,0.5-0.9,1H337.4z"/>
		<path id="XMLID_54_" class="st0" d="M339.6,2h1.2l0.1,0.7c0.1-0.5,0.5-0.8,1-0.8c0.3,0,0.4,0.1,0.5,0.1v1.3
			c-0.1-0.1-0.3-0.1-0.6-0.1c-0.4,0-0.6,0.2-0.7,0.4V7h-1.5V2z"/>
		<path id="XMLID_52_" class="st0" d="M343.1,2h1.3l0.1,0.4c0.2-0.3,0.7-0.6,1.3-0.6c0.7,0,1.2,0.2,1.4,0.7c0.3-0.3,0.7-0.7,1.5-0.7
			c1.2,0,1.7,0.7,1.7,2V7h-1.5V4.2c0-0.8-0.2-1.1-0.7-1.1c-0.4,0-0.7,0.2-0.8,0.4c0,0.1,0,0.3,0,0.5V7h-1.5V4.2
			c0-0.8-0.2-1.1-0.7-1.1c-0.4,0-0.6,0.2-0.7,0.4V7h-1.5V2z"/>
		<path id="XMLID_50_" class="st0" d="M353.4,6.8V5.5c0.3,0.3,0.8,0.6,1.5,0.6c0.6,0,0.8-0.2,0.8-0.5c0-0.3-0.1-0.4-0.7-0.5l-0.3,0
			c-1-0.1-1.5-0.7-1.5-1.5c0-0.9,0.6-1.6,2.1-1.6c0.8,0,1.3,0.2,1.6,0.4v1.3C356.6,3.2,356,3,355.4,3c-0.6,0-0.8,0.2-0.8,0.4
			s0.1,0.4,0.6,0.5l0.3,0c1.1,0.2,1.6,0.6,1.6,1.5c0,0.9-0.6,1.7-2.2,1.7C354.1,7.2,353.6,7,353.4,6.8z"/>
		<path id="XMLID_48_" class="st0" d="M357.6,4.5c0-1.8,1.2-2.6,2.5-2.6c0.7,0,1.3,0.2,1.5,0.4v1.3c-0.3-0.4-0.7-0.5-1.3-0.5
			c-0.8,0-1.2,0.5-1.2,1.4c0,0.9,0.4,1.4,1.2,1.4c0.6,0,1-0.2,1.3-0.5v1.3c-0.2,0.2-0.8,0.5-1.5,0.5C358.6,7.2,357.6,6.4,357.6,4.5z
			"/>
		<path id="XMLID_46_" class="st0" d="M362.5,0.2h1.5v2.2c0.2-0.3,0.7-0.5,1.3-0.5c1.3,0,1.8,0.7,1.8,2V7h-1.5V4.2
			c0-0.8-0.2-1.1-0.8-1.1c-0.4,0-0.7,0.2-0.8,0.4V7h-1.5V0.2z"/>
		<path id="XMLID_43_" class="st0" d="M368,0.8c0-0.4,0.3-0.7,0.8-0.7c0.5,0,0.8,0.3,0.8,0.7c0,0.4-0.3,0.7-0.8,0.7
			C368.3,1.5,368,1.3,368,0.8z M368,2h1.5v5H368V2z"/>
		<path id="XMLID_41_" class="st0" d="M370.3,6.6l2.1-3.4h-2.1V2h3.9v0.5l-2,3.4h2V7h-3.9V6.6z"/>
		<path id="XMLID_38_" class="st0" d="M374.7,4.5c0-1.8,1.2-2.6,2.6-2.6c1.5,0,2.5,0.8,2.5,2.6c0,1.9-1.2,2.6-2.6,2.6
			C375.7,7.2,374.7,6.4,374.7,4.5z M378.3,4.5c0-0.9-0.3-1.4-1-1.4c-0.7,0-1,0.6-1,1.4c0,0.9,0.3,1.4,1,1.4
			C377.9,6,378.3,5.4,378.3,4.5z"/>
		<path id="XMLID_35_" class="st0" d="M380.6,2h1.3l0.1,0.4c0.2-0.3,0.6-0.6,1.3-0.6c1.3,0,2,0.7,2,2.5c0,1.8-1,2.8-2.2,2.8
			c-0.4,0-0.8-0.1-1.1-0.3v1.9h-1.5V2z M383.8,4.5c0-0.9-0.2-1.4-0.9-1.4c-0.4,0-0.7,0.2-0.8,0.4v2.3c0.2,0.2,0.5,0.3,0.8,0.3
			C383.5,6,383.8,5.3,383.8,4.5z"/>
		<path id="XMLID_33_" class="st0" d="M386.1,0.2h1.5v2.2c0.2-0.3,0.7-0.5,1.3-0.5c1.3,0,1.8,0.7,1.8,2V7h-1.5V4.2
			c0-0.8-0.2-1.1-0.8-1.1c-0.4,0-0.7,0.2-0.8,0.4V7h-1.5V0.2z"/>
		<path id="XMLID_31_" class="st0" d="M391.7,2h1.2l0.1,0.7c0.1-0.5,0.5-0.8,1-0.8c0.3,0,0.4,0.1,0.5,0.1v1.3
			c-0.1-0.1-0.3-0.1-0.6-0.1c-0.4,0-0.6,0.2-0.7,0.4V7h-1.5V2z"/>
		<path id="XMLID_28_" class="st0" d="M394.8,4.5c0-1.8,1.2-2.6,2.4-2.6c1.2,0,2.3,0.5,2.3,2.4V5h-3.2c0.1,0.6,0.4,1,1.3,1
			c0.8,0,1.4-0.3,1.6-0.6v1.2c-0.3,0.3-0.9,0.6-1.9,0.6C395.8,7.2,394.8,6.3,394.8,4.5z M398.1,4L398.1,4c0-0.6-0.3-1-0.9-1
			c-0.6,0-0.9,0.5-0.9,1H398.1z"/>
		<path id="XMLID_26_" class="st0" d="M400.3,2h1.3l0.1,0.4c0.2-0.3,0.7-0.6,1.3-0.6c1.3,0,1.8,0.7,1.8,2V7h-1.5V4.2
			c0-0.8-0.2-1.1-0.8-1.1c-0.4,0-0.7,0.2-0.8,0.4V7h-1.5V2z"/>
		<path id="XMLID_23_" class="st0" d="M405.9,0.8c0-0.4,0.3-0.7,0.8-0.7c0.5,0,0.8,0.3,0.8,0.7c0,0.4-0.3,0.7-0.8,0.7
			C406.1,1.5,405.9,1.3,405.9,0.8z M405.9,2h1.5v5h-1.5V2z"/>
		<path id="XMLID_20_" class="st0" d="M408.2,5.7c0-1,0.7-1.4,2.1-1.6L411,4c0-0.7-0.3-0.9-1-0.9c-0.7,0-1.4,0.4-1.6,0.9V2.6
			c0.2-0.3,0.8-0.7,1.9-0.7c1.4,0,2.2,0.6,2.2,2.1v3h-1.3l-0.1-0.4c-0.1,0.3-0.5,0.6-1.2,0.6C408.9,7.2,408.2,6.7,408.2,5.7z
			 M411,4.9L410.4,5c-0.7,0.1-0.9,0.3-0.9,0.7c0,0.3,0.2,0.5,0.6,0.5c0.4,0,0.7-0.2,0.9-0.3V4.9z"/>
		<path id="XMLID_18_" class="st0" d="M415.9,5.6V3.2h-0.6V2.7l0.5-0.6l0.9-1.2h0.7V2h1.2v1.2h-1.2v2.3c0,0.4,0.1,0.5,0.4,0.5
			c0.3,0,0.6-0.2,0.7-0.4v1.2c-0.2,0.2-0.5,0.4-1.1,0.4C416.3,7.2,415.9,6.6,415.9,5.6z"/>
		<path id="XMLID_16_" class="st0" d="M419.3,2h1.2l0.1,0.7c0.1-0.5,0.5-0.8,1-0.8c0.3,0,0.4,0.1,0.5,0.1v1.3
			c-0.1-0.1-0.3-0.1-0.6-0.1c-0.4,0-0.6,0.2-0.7,0.4V7h-1.5V2z"/>
		<path id="XMLID_13_" class="st0" d="M422.7,0.8c0-0.4,0.3-0.7,0.8-0.7c0.5,0,0.8,0.3,0.8,0.7c0,0.4-0.3,0.7-0.8,0.7
			C423,1.5,422.7,1.3,422.7,0.8z M422.7,2h1.5v5h-1.5V2z"/>
		<path id="XMLID_10_" class="st0" d="M425,5.7c0-1,0.7-1.4,2.1-1.6l0.7-0.1c0-0.7-0.3-0.9-1-0.9c-0.7,0-1.4,0.4-1.6,0.9V2.6
			c0.2-0.3,0.8-0.7,1.9-0.7c1.4,0,2.2,0.6,2.2,2.1v3H428l-0.1-0.4c-0.1,0.3-0.5,0.6-1.2,0.6C425.7,7.2,425,6.7,425,5.7z M427.8,4.9
			L427.3,5c-0.7,0.1-0.9,0.3-0.9,0.7c0,0.3,0.2,0.5,0.6,0.5c0.4,0,0.7-0.2,0.9-0.3V4.9z"/>
		<path id="XMLID_8_" class="st0" d="M430.3,5.8V0.2h1.5v5.4c0,0.3,0.1,0.4,0.3,0.4c0.2,0,0.4-0.1,0.4-0.2v1.1
			c-0.1,0.1-0.4,0.3-0.9,0.3C430.7,7.2,430.3,6.7,430.3,5.8z"/>
		<path id="XMLID_6_" class="st0" d="M433,6.8V5.5c0.3,0.3,0.8,0.6,1.5,0.6c0.6,0,0.8-0.2,0.8-0.5c0-0.3-0.1-0.4-0.7-0.5l-0.3,0
			c-1-0.1-1.5-0.7-1.5-1.5c0-0.9,0.6-1.6,2.1-1.6c0.8,0,1.3,0.2,1.6,0.4v1.3c-0.3-0.4-0.8-0.5-1.5-0.5c-0.6,0-0.8,0.2-0.8,0.4
			s0.1,0.4,0.6,0.5l0.3,0c1.1,0.2,1.6,0.6,1.6,1.5c0,0.9-0.6,1.7-2.2,1.7C433.8,7.2,433.3,7,433,6.8z"/>
		<path id="XMLID_4_" class="st0" d="M437.4,6.3c0-0.5,0.4-0.9,0.9-0.9c0.5,0,0.9,0.4,0.9,0.9c0,0.5-0.4,0.9-0.9,0.9
			C437.7,7.2,437.4,6.8,437.4,6.3z"/>
	</g>
</g>
</svg>
