<!-- Generator: Adobe Illustrator 22.1.0, SVG Export Plug-In  -->
<svg version="1.1"
	 xmlns="http://www.w3.org/2000/svg" xmlns:xlink="http://www.w3.org/1999/xlink" xmlns:a="http://ns.adobe.com/AdobeSVGViewerExtensions/3.0/"
	 x="0px" y="0px" width="514.3px" height="8.9px" viewBox="0 0 514.3 8.9" style="enable-background:new 0 0 514.3 8.9;"
	 xml:space="preserve">
<style type="text/css">
	.st0{fill:#231F20;}
</style>
<defs>
</defs>
<g id="XMLID_1_">
	<g id="XMLID_3_">
		<path id="XMLID_260_" class="st0" d="M0,0.8h1.5v4.9h2.2V7H0V0.8z"/>
		<path id="XMLID_257_" class="st0" d="M4.1,4.5c0-1.8,1.2-2.6,2.4-2.6c1.2,0,2.3,0.5,2.3,2.4v0.6H5.6c0.1,0.6,0.4,1,1.4,1
			c0.8,0,1.4-0.3,1.6-0.6v1.2C8.3,6.8,7.7,7.1,6.7,7.1C5.1,7.1,4.1,6.3,4.1,4.5z M7.4,4L7.4,4c0-0.6-0.3-1-0.9-1C6,3,5.6,3.4,5.6,4
			H7.4z"/>
		<path id="XMLID_255_" class="st0" d="M9.5,6.7V5.4C9.8,5.7,10.3,6,11,6c0.6,0,0.8-0.2,0.8-0.5c0-0.3-0.1-0.4-0.7-0.5l-0.3,0
			c-1-0.1-1.5-0.7-1.5-1.5c0-0.9,0.6-1.6,2.1-1.6c0.8,0,1.3,0.2,1.6,0.4v1.3C12.7,3.2,12.2,3,11.5,3c-0.6,0-0.8,0.2-0.8,0.4
			s0.1,0.4,0.6,0.5l0.3,0c1.1,0.2,1.6,0.6,1.6,1.5c0,0.9-0.6,1.7-2.2,1.7C10.3,7.1,9.8,6.9,9.5,6.7z"/>
		<path id="XMLID_253_" class="st0" d="M14,5.7V0.2h1.5v5.4c0,0.3,0.1,0.4,0.3,0.4c0.2,0,0.4-0.1,0.4-0.2v1.1
			c-0.1,0.1-0.4,0.3-0.9,0.3C14.4,7.1,14,6.6,14,5.7z"/>
		<path id="XMLID_250_" class="st0" d="M16.8,0.8c0-0.4,0.3-0.7,0.8-0.7c0.5,0,0.8,0.3,0.8,0.7c0,0.4-0.3,0.7-0.8,0.7
			C17.1,1.5,16.8,1.2,16.8,0.8z M16.8,2h1.5v5h-1.5V2z"/>
		<path id="XMLID_247_" class="st0" d="M19.1,4.5c0-1.8,1.2-2.6,2.4-2.6c1.2,0,2.3,0.5,2.3,2.4v0.6h-3.2c0.1,0.6,0.4,1,1.4,1
			c0.8,0,1.4-0.3,1.6-0.6v1.2c-0.3,0.3-0.9,0.6-1.9,0.6C20.1,7.1,19.1,6.3,19.1,4.5z M22.5,4L22.5,4c0-0.6-0.3-1-0.9-1
			c-0.6,0-0.9,0.5-0.9,1H22.5z"/>
		<path id="XMLID_245_" class="st0" d="M26.6,3.9c0-2.1,1.3-3.2,3-3.2c1,0,1.5,0.3,1.8,0.5v1.5c-0.3-0.5-0.8-0.7-1.6-0.7
			c-1.1,0-1.6,0.7-1.6,1.9c0,1.2,0.6,2,1.6,2c0.7,0,1.3-0.2,1.6-0.7v1.4c-0.3,0.3-1,0.6-1.8,0.6C27.7,7.1,26.6,6,26.6,3.9z"/>
		<path id="XMLID_242_" class="st0" d="M32.2,0.8c0-0.4,0.3-0.7,0.8-0.7c0.5,0,0.8,0.3,0.8,0.7c0,0.4-0.3,0.7-0.8,0.7
			C32.5,1.5,32.2,1.2,32.2,0.8z M32.2,2h1.5v5h-1.5V2z"/>
		<path id="XMLID_240_" class="st0" d="M35,5.5V3.1h-0.6V2.6L34.9,2l0.9-1.2h0.7V2h1.2v1.2h-1.2v2.3c0,0.4,0.1,0.5,0.4,0.5
			c0.3,0,0.6-0.2,0.7-0.4v1.2c-0.2,0.2-0.5,0.4-1.1,0.4C35.4,7.1,35,6.5,35,5.5z"/>
		<path id="XMLID_238_" class="st0" d="M38.4,2h1.2l0.1,0.7c0.1-0.5,0.5-0.8,1-0.8c0.3,0,0.4,0.1,0.5,0.1v1.3
			c-0.1-0.1-0.3-0.1-0.6-0.1c-0.4,0-0.6,0.2-0.7,0.4V7h-1.5V2z"/>
		<path id="XMLID_235_" class="st0" d="M41.6,4.5c0-1.8,1.2-2.6,2.6-2.6c1.4,0,2.5,0.8,2.5,2.6c0,1.9-1.2,2.6-2.6,2.6
			C42.6,7.1,41.6,6.3,41.6,4.5z M45.1,4.5c0-0.9-0.3-1.4-1-1.4c-0.7,0-1,0.6-1,1.4c0,0.9,0.3,1.4,1,1.4C44.8,5.9,45.1,5.3,45.1,4.5z
			"/>
		<path id="XMLID_233_" class="st0" d="M47.4,2h1.3l0.1,0.4c0.2-0.3,0.7-0.6,1.3-0.6c0.7,0,1.2,0.2,1.4,0.7c0.3-0.3,0.7-0.7,1.5-0.7
			c1.2,0,1.7,0.7,1.7,2V7h-1.5V4.1C53.2,3.3,53,3,52.5,3c-0.4,0-0.7,0.2-0.8,0.4c0,0.1,0,0.3,0,0.5V7h-1.5V4.1
			c0-0.8-0.2-1.1-0.7-1.1c-0.4,0-0.6,0.2-0.7,0.4V7h-1.5V2z"/>
		<path id="XMLID_230_" class="st0" d="M55.4,4.5c0-1.8,1.2-2.6,2.4-2.6c1.2,0,2.3,0.5,2.3,2.4v0.6h-3.2c0.1,0.6,0.4,1,1.4,1
			c0.8,0,1.4-0.3,1.6-0.6v1.2c-0.3,0.3-0.9,0.6-1.9,0.6C56.4,7.1,55.4,6.3,55.4,4.5z M58.8,4L58.8,4c0-0.6-0.3-1-0.9-1
			C57.3,3,57,3.4,57,4H58.8z"/>
		<path id="XMLID_228_" class="st0" d="M60.8,8.3C60.9,8,61.2,7.4,61.2,7c-0.3-0.1-0.5-0.5-0.5-0.8c0-0.5,0.4-0.9,0.9-0.9
			c0.5,0,0.9,0.4,0.9,1c0,0.9-0.7,1.8-1.1,2.1L60.8,8.3z"/>
		<path id="XMLID_225_" class="st0" d="M62.2,2.7c0.1-0.3,0.3-0.8,0.4-1.2c-0.3-0.1-0.4-0.4-0.4-0.7c0-0.5,0.3-0.8,0.8-0.8
			c0.5,0,0.8,0.3,0.8,0.8c0,0.8-0.6,1.6-1,1.9L62.2,2.7z M64,2.7c0.1-0.3,0.3-0.8,0.4-1.2C64.2,1.4,64,1.2,64,0.9
			c0-0.5,0.3-0.8,0.8-0.8c0.5,0,0.8,0.3,0.8,0.8c0,0.8-0.6,1.6-1,1.9L64,2.7z"/>
		<path id="XMLID_222_" class="st0" d="M70.2,4.8L70.2,4.8L70.1,7h-1.5V0.8h2.1c1.4,0,2.4,0.5,2.4,1.9c0,1-0.6,1.7-1.5,1.9L73.6,7
			h-1.7L70.2,4.8z M70.6,3.8c0.7,0,1-0.3,1-0.9c0-0.6-0.4-0.9-1-0.9h-0.5v1.8H70.6z"/>
		<path id="XMLID_219_" class="st0" d="M73.9,4.5c0-1.8,1.2-2.6,2.6-2.6c1.4,0,2.5,0.8,2.5,2.6c0,1.9-1.2,2.6-2.6,2.6
			C74.9,7.1,73.9,6.3,73.9,4.5z M77.4,4.5c0-0.9-0.3-1.4-1-1.4c-0.7,0-1,0.6-1,1.4c0,0.9,0.3,1.4,1,1.4C77.1,5.9,77.4,5.3,77.4,4.5z
			"/>
		<path id="XMLID_217_" class="st0" d="M79.7,5.7V0.2h1.5v5.4c0,0.3,0.1,0.4,0.3,0.4c0.2,0,0.4-0.1,0.4-0.2v1.1
			C81.8,7,81.5,7.1,81,7.1C80.1,7.1,79.7,6.6,79.7,5.7z"/>
		<path id="XMLID_214_" class="st0" d="M82.3,4.5c0-1.8,1.2-2.6,2.4-2.6c1.2,0,2.3,0.5,2.3,2.4v0.6h-3.2c0.1,0.6,0.4,1,1.4,1
			c0.8,0,1.4-0.3,1.6-0.6v1.2c-0.3,0.3-0.9,0.6-1.9,0.6C83.3,7.1,82.3,6.3,82.3,4.5z M85.7,4L85.7,4c0-0.6-0.3-1-0.9-1
			c-0.6,0-0.9,0.5-0.9,1H85.7z"/>
		<path id="XMLID_211_" class="st0" d="M89.8,4.5c0-1.8,1.2-2.6,2.6-2.6c1.4,0,2.5,0.8,2.5,2.6c0,1.9-1.2,2.6-2.6,2.6
			C90.8,7.1,89.8,6.3,89.8,4.5z M93.3,4.5c0-0.9-0.3-1.4-1-1.4c-0.7,0-1,0.6-1,1.4c0,0.9,0.3,1.4,1,1.4C93,5.9,93.3,5.3,93.3,4.5z"
			/>
		<path id="XMLID_209_" class="st0" d="M95.8,3.1h-0.6V2.6l0.5-0.5c-0.1-0.2-0.2-0.4-0.2-0.7c0-0.9,0.8-1.4,1.8-1.4
			c0.7,0,1.1,0.2,1.2,0.3v1.2c-0.2-0.3-0.5-0.4-0.9-0.4c-0.4,0-0.6,0.2-0.6,0.5c0,0.2,0.1,0.3,0.1,0.4h1v1.2h-0.9V7h-1.5V3.1z"/>
		<path id="XMLID_207_" class="st0" d="M100.9,6.7V5.4c0.3,0.3,0.8,0.6,1.5,0.6c0.6,0,0.8-0.2,0.8-0.5c0-0.3-0.1-0.4-0.7-0.5l-0.3,0
			c-1-0.1-1.5-0.7-1.5-1.5c0-0.9,0.6-1.6,2.1-1.6c0.8,0,1.3,0.2,1.6,0.4v1.3C104.2,3.2,103.6,3,103,3c-0.6,0-0.8,0.2-0.8,0.4
			s0.1,0.4,0.6,0.5l0.3,0c1.1,0.2,1.6,0.6,1.6,1.5c0,0.9-0.6,1.7-2.2,1.7C101.7,7.1,101.2,6.9,100.9,6.7z"/>
		<path id="XMLID_205_" class="st0" d="M105.4,5.1V2h1.5v2.8c0,0.8,0.2,1.1,0.7,1.1c0.4,0,0.7-0.2,0.8-0.4V2h1.5v5h-1.3l-0.1-0.4
			c-0.2,0.3-0.7,0.6-1.3,0.6C105.9,7.1,105.4,6.4,105.4,5.1z"/>
		<path id="XMLID_202_" class="st0" d="M112.2,6.6L112,7h-1.1V0.2h1.5v2.2c0.1-0.2,0.6-0.5,1.3-0.5c1.2,0,2,0.7,2,2.5
			c0,1.8-1,2.8-2.2,2.8C112.8,7.1,112.4,6.9,112.2,6.6z M112.4,5.6c0.2,0.2,0.5,0.3,0.8,0.3c0.7,0,1-0.7,1-1.6S113.9,3,113.2,3
			c-0.4,0-0.7,0.2-0.8,0.4V5.6z"/>
		<path id="XMLID_200_" class="st0" d="M116.5,5.7V0.2h1.5v5.4c0,0.3,0.1,0.4,0.3,0.4c0.2,0,0.4-0.1,0.4-0.2v1.1
			c-0.1,0.1-0.4,0.3-0.9,0.3C116.9,7.1,116.5,6.6,116.5,5.7z"/>
		<path id="XMLID_197_" class="st0" d="M119.3,0.8c0-0.4,0.3-0.7,0.8-0.7c0.5,0,0.8,0.3,0.8,0.7c0,0.4-0.3,0.7-0.8,0.7
			C119.6,1.5,119.3,1.2,119.3,0.8z M119.4,2h1.5v5h-1.5V2z"/>
		<path id="XMLID_195_" class="st0" d="M121.9,2h1.3l0.1,0.4c0.2-0.3,0.7-0.6,1.3-0.6c1.3,0,1.8,0.7,1.8,2V7h-1.5V4.1
			c0-0.8-0.2-1.1-0.8-1.1c-0.4,0-0.7,0.2-0.8,0.4V7h-1.5V2z"/>
		<path id="XMLID_192_" class="st0" d="M127.2,8.4V7.3c0.5,0.3,1.1,0.5,2.1,0.5c1.2,0,1.7-0.1,1.7-0.5c0-0.3-0.3-0.4-1-0.4
			c-0.7,0-1.9,0.2-2.2,0.3v-1l0.7-1c-0.7-0.2-1.2-0.8-1.2-1.6c0-1.1,0.9-1.8,2.2-1.8c0.6,0,1.1,0.1,1.4,0.4c0.2-0.3,0.5-0.4,1-0.4
			c0.1,0,0.3,0,0.4,0.1V3c-0.1-0.1-0.2-0.1-0.3-0.1c-0.2,0-0.3,0.1-0.4,0.1c0.1,0.2,0.1,0.4,0.1,0.6c0,1.1-0.9,1.7-2.2,1.7h-0.1
			l-0.4,0.6c0.2-0.1,0.8-0.1,1.3-0.1c1.3,0,2.1,0.3,2.1,1.4c0,1.1-1,1.7-2.9,1.7C128.4,8.9,127.6,8.7,127.2,8.4z M130.2,3.6
			c0-0.4-0.3-0.7-0.8-0.7c-0.5,0-0.8,0.2-0.8,0.7c0,0.4,0.3,0.7,0.8,0.7C129.9,4.2,130.2,4,130.2,3.6z"/>
		<path id="XMLID_190_" class="st0" d="M132.8,5.1V2h1.5v2.8c0,0.8,0.2,1.1,0.7,1.1c0.4,0,0.7-0.2,0.8-0.4V2h1.5v5H136l-0.1-0.4
			c-0.2,0.3-0.7,0.6-1.3,0.6C133.3,7.1,132.8,6.4,132.8,5.1z"/>
		<path id="XMLID_187_" class="st0" d="M138.1,5.6c0-1,0.7-1.4,2.1-1.6l0.7-0.1c0-0.7-0.3-0.9-1-0.9c-0.7,0-1.4,0.4-1.6,0.9V2.5
			c0.2-0.3,0.8-0.7,1.9-0.7c1.4,0,2.2,0.6,2.2,2.1v3h-1.3L141,6.5c-0.1,0.3-0.5,0.6-1.2,0.6C138.8,7.1,138.1,6.6,138.1,5.6z
			 M140.9,4.8l-0.6,0.1c-0.7,0.1-0.9,0.3-0.9,0.7c0,0.3,0.2,0.5,0.6,0.5c0.4,0,0.7-0.2,0.9-0.3V4.8z"/>
		<path id="XMLID_185_" class="st0" d="M143.4,5.7V0.2h1.5v5.4c0,0.3,0.1,0.4,0.3,0.4c0.2,0,0.4-0.1,0.4-0.2v1.1
			c-0.1,0.1-0.4,0.3-0.9,0.3C143.8,7.1,143.4,6.6,143.4,5.7z"/>
		<path id="XMLID_182_" class="st0" d="M150.2,1.4l-0.2-0.6h1.6c0.2,0.5,2.2,5.6,2.5,6.2h-1.6L152,5.9h-2.2L149.4,7h-1.4L150.2,1.4z
			 M150.2,4.8h1.4L151,3.4l-0.2-0.5l-0.2,0.5L150.2,4.8z"/>
		<path id="XMLID_180_" class="st0" d="M154.4,6.7V5.4c0.3,0.3,0.8,0.6,1.5,0.6c0.6,0,0.8-0.2,0.8-0.5c0-0.3-0.1-0.4-0.7-0.5l-0.3,0
			c-1-0.1-1.5-0.7-1.5-1.5c0-0.9,0.6-1.6,2.1-1.6c0.8,0,1.3,0.2,1.6,0.4v1.3c-0.3-0.4-0.8-0.5-1.5-0.5c-0.6,0-0.8,0.2-0.8,0.4
			s0.1,0.4,0.6,0.5l0.3,0c1.1,0.2,1.6,0.6,1.6,1.5c0,0.9-0.6,1.7-2.2,1.7C155.2,7.1,154.6,6.9,154.4,6.7z"/>
		<path id="XMLID_177_" class="st0" d="M158.6,4.5c0-1.8,1.2-2.6,2.4-2.6c1.2,0,2.3,0.5,2.3,2.4v0.6h-3.2c0.1,0.6,0.4,1,1.4,1
			c0.8,0,1.4-0.3,1.6-0.6v1.2c-0.3,0.3-0.9,0.6-1.9,0.6C159.6,7.1,158.6,6.3,158.6,4.5z M162,4L162,4c0-0.6-0.3-1-0.9-1
			c-0.6,0-0.9,0.5-0.9,1H162z"/>
		<path id="XMLID_175_" class="st0" d="M164.2,2h1.3l0.1,0.4c0.2-0.3,0.7-0.6,1.3-0.6c1.3,0,1.8,0.7,1.8,2V7h-1.5V4.1
			c0-0.8-0.2-1.1-0.8-1.1c-0.4,0-0.7,0.2-0.8,0.4V7h-1.5V2z"/>
		<path id="XMLID_172_" class="st0" d="M169.5,5.6c0-1,0.7-1.4,2.1-1.6l0.7-0.1c0-0.7-0.3-0.9-1-0.9c-0.7,0-1.4,0.4-1.6,0.9V2.5
			c0.2-0.3,0.8-0.7,1.9-0.7c1.4,0,2.2,0.6,2.2,2.1v3h-1.3l-0.1-0.4c-0.1,0.3-0.5,0.6-1.2,0.6C170.2,7.1,169.5,6.6,169.5,5.6z
			 M172.3,4.8l-0.6,0.1c-0.7,0.1-0.9,0.3-0.9,0.7c0,0.3,0.2,0.5,0.6,0.5c0.4,0,0.7-0.2,0.9-0.3V4.8z"/>
		<path id="XMLID_169_" class="st0" d="M174.8,2h1.3l0.1,0.4c0.2-0.3,0.6-0.6,1.3-0.6c1.3,0,2,0.7,2,2.5c0,1.8-1,2.8-2.2,2.8
			c-0.4,0-0.8-0.1-1.1-0.3v1.9h-1.5V2z M178,4.4c0-0.9-0.2-1.4-0.9-1.4c-0.4,0-0.7,0.2-0.8,0.4v2.3c0.2,0.2,0.5,0.3,0.8,0.3
			C177.8,6,178,5.3,178,4.4z"/>
		<path id="XMLID_166_" class="st0" d="M180.3,0.8c0-0.4,0.3-0.7,0.8-0.7c0.5,0,0.8,0.3,0.8,0.7c0,0.4-0.3,0.7-0.8,0.7
			C180.6,1.5,180.3,1.2,180.3,0.8z M180.3,2h1.5v5h-1.5V2z"/>
		<path id="XMLID_164_" class="st0" d="M182.9,2h1.3l0.1,0.4c0.2-0.3,0.7-0.6,1.3-0.6c1.3,0,1.8,0.7,1.8,2V7h-1.5V4.1
			c0-0.8-0.2-1.1-0.8-1.1c-0.4,0-0.7,0.2-0.8,0.4V7h-1.5V2z"/>
		<path id="XMLID_161_" class="st0" d="M188.2,4.5c0-1.8,1.2-2.6,2.4-2.6c1.2,0,2.3,0.5,2.3,2.4v0.6h-3.2c0.1,0.6,0.4,1,1.4,1
			c0.8,0,1.4-0.3,1.6-0.6v1.2c-0.3,0.3-0.9,0.6-1.9,0.6C189.1,7.1,188.2,6.3,188.2,4.5z M191.5,4L191.5,4c0-0.6-0.3-1-0.9-1
			c-0.6,0-0.9,0.5-0.9,1H191.5z"/>
		<path id="XMLID_158_" class="st0" d="M195.8,0.8c0-0.4,0.3-0.7,0.8-0.7c0.5,0,0.8,0.3,0.8,0.7c0,0.4-0.3,0.7-0.8,0.7
			C196.1,1.5,195.8,1.2,195.8,0.8z M195.9,2h1.5v5h-1.5V2z"/>
		<path id="XMLID_156_" class="st0" d="M198.4,2h1.3l0.1,0.4c0.2-0.3,0.7-0.6,1.3-0.6c1.3,0,1.8,0.7,1.8,2V7h-1.5V4.1
			c0-0.8-0.2-1.1-0.8-1.1c-0.4,0-0.7,0.2-0.8,0.4V7h-1.5V2z"/>
		<path id="XMLID_154_" class="st0" d="M206.3,5.5V3.1h-0.6V2.6l0.5-0.6l0.9-1.2h0.7V2h1.2v1.2h-1.2v2.3c0,0.4,0.1,0.5,0.4,0.5
			c0.3,0,0.6-0.2,0.7-0.4v1.2c-0.2,0.2-0.5,0.4-1.1,0.4C206.8,7.1,206.3,6.5,206.3,5.5z"/>
		<path id="XMLID_152_" class="st0" d="M209.8,2h1.2l0.1,0.7c0.1-0.5,0.5-0.8,1-0.8c0.3,0,0.4,0.1,0.5,0.1v1.3
			c-0.1-0.1-0.3-0.1-0.6-0.1c-0.4,0-0.6,0.2-0.7,0.4V7h-1.5V2z"/>
		<path id="XMLID_149_" class="st0" d="M212.9,4.5c0-1.8,1.2-2.6,2.4-2.6c1.2,0,2.3,0.5,2.3,2.4v0.6h-3.2c0.1,0.6,0.4,1,1.4,1
			c0.8,0,1.4-0.3,1.6-0.6v1.2c-0.3,0.3-0.9,0.6-1.9,0.6C213.9,7.1,212.9,6.3,212.9,4.5z M216.2,4L216.2,4c0-0.6-0.3-1-0.9-1
			c-0.6,0-0.9,0.5-0.9,1H216.2z"/>
		<path id="XMLID_146_" class="st0" d="M218.2,5.6c0-1,0.7-1.4,2.1-1.6l0.7-0.1c0-0.7-0.3-0.9-1-0.9c-0.7,0-1.4,0.4-1.6,0.9V2.5
			c0.2-0.3,0.8-0.7,1.9-0.7c1.4,0,2.2,0.6,2.2,2.1v3h-1.3l-0.1-0.4c-0.1,0.3-0.5,0.6-1.2,0.6C218.9,7.1,218.2,6.6,218.2,5.6z
			 M221,4.8l-0.6,0.1c-0.7,0.1-0.9,0.3-0.9,0.7c0,0.3,0.2,0.5,0.6,0.5c0.4,0,0.7-0.2,0.9-0.3V4.8z"/>
		<path id="XMLID_144_" class="st0" d="M223.7,5.5V3.1h-0.6V2.6l0.5-0.6l0.9-1.2h0.7V2h1.2v1.2h-1.2v2.3c0,0.4,0.1,0.5,0.4,0.5
			c0.3,0,0.6-0.2,0.7-0.4v1.2c-0.2,0.2-0.5,0.4-1.1,0.4C224.1,7.1,223.7,6.5,223.7,5.5z"/>
		<path id="XMLID_142_" class="st0" d="M227.1,2h1.3l0.1,0.4c0.2-0.3,0.7-0.6,1.3-0.6c0.7,0,1.2,0.2,1.4,0.7
			c0.3-0.3,0.7-0.7,1.5-0.7c1.2,0,1.7,0.7,1.7,2V7h-1.5V4.1c0-0.8-0.2-1.1-0.7-1.1c-0.4,0-0.7,0.2-0.8,0.4c0,0.1,0,0.3,0,0.5V7H230
			V4.1c0-0.8-0.2-1.1-0.7-1.1c-0.4,0-0.6,0.2-0.7,0.4V7h-1.5V2z"/>
		<path id="XMLID_139_" class="st0" d="M235.2,4.5c0-1.8,1.2-2.6,2.4-2.6c1.2,0,2.3,0.5,2.3,2.4v0.6h-3.2c0.1,0.6,0.4,1,1.4,1
			c0.8,0,1.4-0.3,1.6-0.6v1.2c-0.3,0.3-0.9,0.6-1.9,0.6C236.2,7.1,235.2,6.3,235.2,4.5z M238.5,4L238.5,4c0-0.6-0.3-1-0.9-1
			c-0.6,0-0.9,0.5-0.9,1H238.5z"/>
		<path id="XMLID_137_" class="st0" d="M240.7,2h1.3l0.1,0.4c0.2-0.3,0.7-0.6,1.3-0.6c1.3,0,1.8,0.7,1.8,2V7h-1.5V4.1
			c0-0.8-0.2-1.1-0.8-1.1c-0.4,0-0.7,0.2-0.8,0.4V7h-1.5V2z"/>
		<path id="XMLID_135_" class="st0" d="M246.5,5.5V3.1h-0.6V2.6l0.5-0.6l0.9-1.2h0.7V2h1.2v1.2H248v2.3c0,0.4,0.1,0.5,0.4,0.5
			c0.3,0,0.6-0.2,0.7-0.4v1.2c-0.2,0.2-0.5,0.4-1.1,0.4C246.9,7.1,246.5,6.5,246.5,5.5z"/>
		<path id="XMLID_132_" class="st0" d="M251.8,4.5c0-1.8,1.2-2.6,2.6-2.6c1.4,0,2.5,0.8,2.5,2.6c0,1.9-1.2,2.6-2.6,2.6
			C252.9,7.1,251.8,6.3,251.8,4.5z M255.4,4.5c0-0.9-0.3-1.4-1-1.4c-0.7,0-1,0.6-1,1.4c0,0.9,0.3,1.4,1,1.4
			C255.1,5.9,255.4,5.3,255.4,4.5z"/>
		<path id="XMLID_130_" class="st0" d="M257.9,3.1h-0.6V2.6l0.5-0.5c-0.1-0.2-0.2-0.4-0.2-0.7c0-0.9,0.8-1.4,1.8-1.4
			c0.7,0,1.1,0.2,1.2,0.3v1.2c-0.2-0.3-0.5-0.4-0.9-0.4c-0.4,0-0.6,0.2-0.6,0.5c0,0.2,0.1,0.3,0.1,0.4h1v1.2h-0.9V7h-1.5V3.1z"/>
		<path id="XMLID_128_" class="st0" d="M263,6.7V5.4c0.3,0.3,0.8,0.6,1.5,0.6c0.6,0,0.8-0.2,0.8-0.5c0-0.3-0.1-0.4-0.7-0.5l-0.3,0
			c-1-0.1-1.5-0.7-1.5-1.5c0-0.9,0.6-1.6,2.1-1.6c0.8,0,1.3,0.2,1.6,0.4v1.3C266.2,3.2,265.7,3,265,3c-0.6,0-0.8,0.2-0.8,0.4
			s0.1,0.4,0.6,0.5l0.3,0c1.1,0.2,1.6,0.6,1.6,1.5c0,0.9-0.6,1.7-2.2,1.7C263.8,7.1,263.3,6.9,263,6.7z"/>
		<path id="XMLID_126_" class="st0" d="M267.3,4.5c0-1.8,1.2-2.6,2.5-2.6c0.7,0,1.3,0.2,1.5,0.4v1.3c-0.3-0.4-0.7-0.5-1.3-0.5
			c-0.8,0-1.2,0.5-1.2,1.4c0,0.9,0.4,1.4,1.2,1.4c0.6,0,1-0.2,1.3-0.5v1.3c-0.2,0.2-0.8,0.5-1.5,0.5C268.3,7.1,267.3,6.3,267.3,4.5z
			"/>
		<path id="XMLID_124_" class="st0" d="M272.1,0.2h1.5v2.2c0.2-0.3,0.7-0.5,1.3-0.5c1.3,0,1.8,0.7,1.8,2V7h-1.5V4.1
			c0-0.8-0.2-1.1-0.8-1.1c-0.4,0-0.7,0.2-0.8,0.4V7h-1.5V0.2z"/>
		<path id="XMLID_121_" class="st0" d="M277.6,0.8c0-0.4,0.3-0.7,0.8-0.7c0.5,0,0.8,0.3,0.8,0.7c0,0.4-0.3,0.7-0.8,0.7
			C277.9,1.5,277.6,1.2,277.6,0.8z M277.7,2h1.5v5h-1.5V2z"/>
		<path id="XMLID_119_" class="st0" d="M279.9,6.5l2.1-3.4H280V2h3.9v0.5l-2,3.4h2V7h-3.9V6.5z"/>
		<path id="XMLID_116_" class="st0" d="M284.4,4.5c0-1.8,1.2-2.6,2.6-2.6c1.4,0,2.5,0.8,2.5,2.6c0,1.9-1.2,2.6-2.6,2.6
			C285.4,7.1,284.4,6.3,284.4,4.5z M287.9,4.5c0-0.9-0.3-1.4-1-1.4c-0.7,0-1,0.6-1,1.4c0,0.9,0.3,1.4,1,1.4
			C287.6,5.9,287.9,5.3,287.9,4.5z"/>
		<path id="XMLID_113_" class="st0" d="M290.2,2h1.3l0.1,0.4c0.2-0.3,0.6-0.6,1.3-0.6c1.3,0,2,0.7,2,2.5c0,1.8-1,2.8-2.2,2.8
			c-0.4,0-0.8-0.1-1.1-0.3v1.9h-1.5V2z M293.5,4.4c0-0.9-0.2-1.4-0.9-1.4c-0.4,0-0.7,0.2-0.8,0.4v2.3c0.2,0.2,0.5,0.3,0.8,0.3
			C293.2,6,293.5,5.3,293.5,4.4z"/>
		<path id="XMLID_111_" class="st0" d="M295.8,0.2h1.5v2.2c0.2-0.3,0.7-0.5,1.3-0.5c1.3,0,1.8,0.7,1.8,2V7h-1.5V4.1
			c0-0.8-0.2-1.1-0.8-1.1c-0.4,0-0.7,0.2-0.8,0.4V7h-1.5V0.2z"/>
		<path id="XMLID_109_" class="st0" d="M301.3,2h1.2l0.1,0.7c0.1-0.5,0.5-0.8,1-0.8c0.3,0,0.4,0.1,0.5,0.1v1.3
			c-0.1-0.1-0.3-0.1-0.6-0.1c-0.4,0-0.6,0.2-0.7,0.4V7h-1.5V2z"/>
		<path id="XMLID_106_" class="st0" d="M304.5,4.5c0-1.8,1.2-2.6,2.4-2.6c1.2,0,2.3,0.5,2.3,2.4v0.6H306c0.1,0.6,0.4,1,1.4,1
			c0.8,0,1.4-0.3,1.6-0.6v1.2c-0.3,0.3-0.9,0.6-1.9,0.6C305.4,7.1,304.5,6.3,304.5,4.5z M307.8,4L307.8,4c0-0.6-0.3-1-0.9-1
			c-0.6,0-0.9,0.5-0.9,1H307.8z"/>
		<path id="XMLID_104_" class="st0" d="M310,2h1.3l0.1,0.4c0.2-0.3,0.7-0.6,1.3-0.6c1.3,0,1.8,0.7,1.8,2V7h-1.5V4.1
			c0-0.8-0.2-1.1-0.8-1.1c-0.4,0-0.7,0.2-0.8,0.4V7H310V2z"/>
		<path id="XMLID_101_" class="st0" d="M315.5,0.8c0-0.4,0.3-0.7,0.8-0.7c0.5,0,0.8,0.3,0.8,0.7c0,0.4-0.3,0.7-0.8,0.7
			C315.8,1.5,315.5,1.2,315.5,0.8z M315.5,2h1.5v5h-1.5V2z"/>
		<path id="XMLID_98_" class="st0" d="M317.8,5.6c0-1,0.7-1.4,2.1-1.6l0.7-0.1c0-0.7-0.3-0.9-1-0.9c-0.7,0-1.4,0.4-1.6,0.9V2.5
			c0.2-0.3,0.8-0.7,1.9-0.7c1.4,0,2.2,0.6,2.2,2.1v3h-1.3l-0.1-0.4c-0.1,0.3-0.5,0.6-1.2,0.6C318.5,7.1,317.8,6.6,317.8,5.6z
			 M320.6,4.8l-0.6,0.1c-0.7,0.1-0.9,0.3-0.9,0.7c0,0.3,0.2,0.5,0.6,0.5c0.4,0,0.7-0.2,0.9-0.3V4.8z"/>
		<path id="XMLID_95_" class="st0" d="M322.9,2.7c0.1-0.3,0.3-0.8,0.4-1.2c-0.3-0.1-0.4-0.4-0.4-0.7c0-0.5,0.3-0.8,0.8-0.8
			c0.5,0,0.8,0.3,0.8,0.8c0,0.8-0.6,1.6-1,1.9L322.9,2.7z M324.8,2.7c0.1-0.3,0.3-0.8,0.4-1.2c-0.3-0.1-0.4-0.4-0.4-0.7
			c0-0.5,0.3-0.8,0.8-0.8c0.5,0,0.8,0.3,0.8,0.8c0,0.8-0.6,1.6-1,1.9L324.8,2.7z"/>
		<path id="XMLID_93_" class="st0" d="M329.3,1.4L329,0.8h1.8l2.5,3.6h0V0.8h1.3V7h-1.2l-2.7-3.8h0V7h-1.4V1.4z"/>
		<path id="XMLID_90_" class="st0" d="M335.5,4.5c0-1.8,1.2-2.6,2.4-2.6c1.2,0,2.3,0.5,2.3,2.4v0.6H337c0.1,0.6,0.4,1,1.4,1
			c0.8,0,1.4-0.3,1.6-0.6v1.2c-0.3,0.3-0.9,0.6-1.9,0.6C336.4,7.1,335.5,6.3,335.5,4.5z M338.8,4L338.8,4c0-0.6-0.3-1-0.9-1
			c-0.6,0-0.9,0.5-0.9,1H338.8z"/>
		<path id="XMLID_88_" class="st0" d="M341,5.1V2h1.5v2.8c0,0.8,0.2,1.1,0.7,1.1c0.4,0,0.7-0.2,0.8-0.4V2h1.5v5h-1.3L344,6.5
			c-0.2,0.3-0.7,0.6-1.3,0.6C341.4,7.1,341,6.4,341,5.1z"/>
		<path id="XMLID_86_" class="st0" d="M346.5,2h1.2l0.1,0.7c0.1-0.5,0.5-0.8,1-0.8c0.3,0,0.4,0.1,0.5,0.1v1.3
			c-0.1-0.1-0.3-0.1-0.6-0.1c-0.4,0-0.6,0.2-0.7,0.4V7h-1.5V2z"/>
		<path id="XMLID_83_" class="st0" d="M349.6,4.5c0-1.8,1.2-2.6,2.6-2.6c1.4,0,2.5,0.8,2.5,2.6c0,1.9-1.2,2.6-2.6,2.6
			C350.6,7.1,349.6,6.3,349.6,4.5z M353.1,4.5c0-0.9-0.3-1.4-1-1.4c-0.7,0-1,0.6-1,1.4c0,0.9,0.3,1.4,1,1.4
			C352.8,5.9,353.1,5.3,353.1,4.5z"/>
		<path id="XMLID_80_" class="st0" d="M355.4,2h1.3l0.1,0.4c0.2-0.3,0.6-0.6,1.3-0.6c1.3,0,2,0.7,2,2.5c0,1.8-1,2.8-2.2,2.8
			c-0.4,0-0.8-0.1-1.1-0.3v1.9h-1.5V2z M358.7,4.4c0-0.9-0.2-1.4-0.9-1.4c-0.4,0-0.7,0.2-0.8,0.4v2.3c0.2,0.2,0.5,0.3,0.8,0.3
			C358.4,6,358.7,5.3,358.7,4.4z"/>
		<path id="XMLID_78_" class="st0" d="M360.9,6.7V5.4c0.3,0.3,0.8,0.6,1.5,0.6c0.6,0,0.8-0.2,0.8-0.5c0-0.3-0.1-0.4-0.7-0.5l-0.3,0
			c-1-0.1-1.5-0.7-1.5-1.5c0-0.9,0.6-1.6,2.1-1.6c0.8,0,1.3,0.2,1.6,0.4v1.3c-0.3-0.4-0.8-0.5-1.5-0.5c-0.6,0-0.8,0.2-0.8,0.4
			s0.1,0.4,0.6,0.5l0.3,0c1.1,0.2,1.6,0.6,1.6,1.5c0,0.9-0.6,1.7-2.2,1.7C361.7,7.1,361.1,6.9,360.9,6.7z"/>
		<path id="XMLID_76_" class="st0" d="M365.1,8.6V7.4c0.2,0.2,0.5,0.4,0.9,0.4c0.3,0,0.6-0.1,0.9-0.7l-2-5.1h1.6l1,3.3l0.9-3.3h1.4
			l-1.4,4.7c-0.4,1.2-1,2.2-2.3,2.2C365.7,8.9,365.3,8.7,365.1,8.6z"/>
		<path id="XMLID_74_" class="st0" d="M370.1,4.5c0-1.8,1.2-2.6,2.5-2.6c0.7,0,1.3,0.2,1.5,0.4v1.3c-0.3-0.4-0.7-0.5-1.3-0.5
			c-0.8,0-1.2,0.5-1.2,1.4c0,0.9,0.4,1.4,1.2,1.4c0.6,0,1-0.2,1.3-0.5v1.3c-0.2,0.2-0.8,0.5-1.5,0.5C371.1,7.1,370.1,6.3,370.1,4.5z
			"/>
		<path id="XMLID_72_" class="st0" d="M374.9,0.2h1.5v2.2c0.2-0.3,0.7-0.5,1.3-0.5c1.3,0,1.8,0.7,1.8,2V7H378V4.1
			c0-0.8-0.2-1.1-0.8-1.1c-0.4,0-0.7,0.2-0.8,0.4V7h-1.5V0.2z"/>
		<path id="XMLID_69_" class="st0" d="M380.4,0.8c0-0.4,0.3-0.7,0.8-0.7c0.5,0,0.8,0.3,0.8,0.7c0,0.4-0.3,0.7-0.8,0.7
			C380.7,1.5,380.4,1.2,380.4,0.8z M380.5,2h1.5v5h-1.5V2z"/>
		<path id="XMLID_66_" class="st0" d="M382.7,5.6c0-1,0.7-1.4,2.1-1.6l0.7-0.1c0-0.7-0.3-0.9-1-0.9c-0.7,0-1.4,0.4-1.6,0.9V2.5
			c0.2-0.3,0.8-0.7,1.9-0.7c1.4,0,2.2,0.6,2.2,2.1v3h-1.3l-0.1-0.4c-0.1,0.3-0.5,0.6-1.2,0.6C383.4,7.1,382.7,6.6,382.7,5.6z
			 M385.6,4.8L385,4.9c-0.7,0.1-0.9,0.3-0.9,0.7c0,0.3,0.2,0.5,0.6,0.5c0.4,0,0.7-0.2,0.9-0.3V4.8z"/>
		<path id="XMLID_64_" class="st0" d="M388.3,5.5V3.1h-0.6V2.6l0.5-0.6l0.9-1.2h0.7V2h1.2v1.2h-1.2v2.3c0,0.4,0.1,0.5,0.4,0.5
			c0.3,0,0.6-0.2,0.7-0.4v1.2c-0.2,0.2-0.5,0.4-1.1,0.4C388.7,7.1,388.3,6.5,388.3,5.5z"/>
		<path id="XMLID_62_" class="st0" d="M391.7,2h1.2l0.1,0.7c0.1-0.5,0.5-0.8,1-0.8c0.3,0,0.4,0.1,0.5,0.1v1.3
			c-0.1-0.1-0.3-0.1-0.6-0.1c-0.4,0-0.6,0.2-0.7,0.4V7h-1.5V2z"/>
		<path id="XMLID_60_" class="st0" d="M395,8.6V7.4c0.2,0.2,0.5,0.4,0.9,0.4c0.3,0,0.6-0.1,0.9-0.7l-2-5.1h1.6l1,3.3l0.9-3.3h1.4
			l-1.4,4.7c-0.4,1.2-1,2.2-2.3,2.2C395.5,8.9,395.2,8.7,395,8.6z"/>
		<path id="XMLID_57_" class="st0" d="M402.5,0.8h2c2.1,0,3.3,0.8,3.3,3.1c0,2.3-1.5,3.1-3.3,3.1h-2V0.8z M404.5,5.7
			c1.4,0,1.8-0.5,1.8-1.8s-0.4-1.9-1.8-1.9H404v3.7H404.5z"/>
		<path id="XMLID_54_" class="st0" d="M408.6,0.8c0-0.4,0.3-0.7,0.8-0.7c0.5,0,0.8,0.3,0.8,0.7c0,0.4-0.3,0.7-0.8,0.7
			C408.9,1.5,408.6,1.2,408.6,0.8z M408.6,2h1.5v5h-1.5V2z"/>
		<path id="XMLID_52_" class="st0" d="M411,6.7V5.4c0.3,0.3,0.8,0.6,1.5,0.6c0.6,0,0.8-0.2,0.8-0.5c0-0.3-0.1-0.4-0.7-0.5l-0.3,0
			c-1-0.1-1.5-0.7-1.5-1.5c0-0.9,0.6-1.6,2.1-1.6c0.8,0,1.3,0.2,1.6,0.4v1.3c-0.3-0.4-0.8-0.5-1.5-0.5c-0.6,0-0.8,0.2-0.8,0.4
			s0.1,0.4,0.6,0.5l0.3,0c1.1,0.2,1.6,0.6,1.6,1.5c0,0.9-0.6,1.7-2.2,1.7C411.8,7.1,411.3,6.9,411,6.7z"/>
		<path id="XMLID_50_" class="st0" d="M419,2.1h-1.7V0.8h4.9v1.3h-1.7V7H419V2.1z"/>
		<path id="XMLID_48_" class="st0" d="M422.8,2h1.2l0.1,0.7c0.1-0.5,0.5-0.8,1-0.8c0.3,0,0.4,0.1,0.5,0.1v1.3
			c-0.1-0.1-0.3-0.1-0.6-0.1c-0.4,0-0.6,0.2-0.7,0.4V7h-1.5V2z"/>
		<path id="XMLID_45_" class="st0" d="M425.9,4.5c0-1.8,1.2-2.6,2.4-2.6c1.2,0,2.3,0.5,2.3,2.4v0.6h-3.2c0.1,0.6,0.4,1,1.4,1
			c0.8,0,1.4-0.3,1.6-0.6v1.2c-0.3,0.3-0.9,0.6-1.9,0.6C426.9,7.1,425.9,6.3,425.9,4.5z M429.2,4L429.2,4c0-0.6-0.3-1-0.9-1
			c-0.6,0-0.9,0.5-0.9,1H429.2z"/>
		<path id="XMLID_42_" class="st0" d="M431.2,5.6c0-1,0.7-1.4,2.1-1.6l0.7-0.1c0-0.7-0.3-0.9-1-0.9c-0.7,0-1.4,0.4-1.6,0.9V2.5
			c0.2-0.3,0.8-0.7,1.9-0.7c1.4,0,2.2,0.6,2.2,2.1v3h-1.3l-0.1-0.4c-0.1,0.3-0.5,0.6-1.2,0.6C431.9,7.1,431.2,6.6,431.2,5.6z
			 M434,4.8l-0.6,0.1c-0.7,0.1-0.9,0.3-0.9,0.7c0,0.3,0.2,0.5,0.6,0.5c0.4,0,0.7-0.2,0.9-0.3V4.8z"/>
		<path id="XMLID_40_" class="st0" d="M436.7,5.5V3.1h-0.6V2.6l0.5-0.6l0.9-1.2h0.7V2h1.2v1.2h-1.2v2.3c0,0.4,0.1,0.5,0.4,0.5
			c0.3,0,0.6-0.2,0.7-0.4v1.2c-0.2,0.2-0.5,0.4-1.1,0.4C437.1,7.1,436.7,6.5,436.7,5.5z"/>
		<path id="XMLID_38_" class="st0" d="M440,6.2c0-0.5,0.4-0.9,0.9-0.9c0.5,0,0.9,0.4,0.9,0.9c0,0.5-0.4,0.9-0.9,0.9
			C440.3,7.1,440,6.7,440,6.2z"/>
		<path id="XMLID_36_" class="st0" d="M444.6,6.6l1.8-2.3c0.4-0.4,0.7-0.9,0.7-1.5c0-0.6-0.3-0.9-1-0.9c-0.6,0-1.2,0.3-1.5,0.7V1.3
			c0.3-0.3,0.9-0.6,1.8-0.6c1.5,0,2.2,0.7,2.2,2c0,1-0.6,1.8-1.2,2.4l-0.5,0.6h1.8V7h-4V6.6z"/>
		<path id="XMLID_33_" class="st0" d="M449.2,3.9c0-2.1,1.5-3.2,3.2-3.2c1.9,0,3.1,1.1,3.1,3.2c0,2.1-1.4,3.2-3.1,3.2
			C450.5,7.1,449.2,5.9,449.2,3.9z M454,3.9c0-1.3-0.7-2-1.6-2s-1.6,0.7-1.6,2c0,1.3,0.7,2,1.6,2S454,5.2,454,3.9z"/>
		<path id="XMLID_31_" class="st0" d="M457.3,2.6c-0.2,0.2-0.8,0.3-1.3,0.3V1.6c0.9,0,1.5-0.2,2-0.8h0.8V7h-1.4V2.6z"/>
		<path id="XMLID_29_" class="st0" d="M460.8,2.6c-0.2,0.2-0.8,0.3-1.3,0.3V1.6c0.9,0,1.5-0.2,2-0.8h0.8V7h-1.4V2.6z"/>
		<path id="XMLID_26_" class="st0" d="M463.3,8.3c0.2-0.3,0.4-0.8,0.4-1.3c-0.3-0.1-0.4-0.4-0.4-0.8c0-0.5,0.4-0.9,0.9-0.9
			c0.5,0,0.8,0.4,0.8,0.9c0,0.8-0.7,1.8-1.1,2.1L463.3,8.3z M463.4,3c0-0.5,0.4-0.9,0.9-0.9c0.5,0,0.9,0.4,0.9,0.9
			c0,0.5-0.4,0.9-0.9,0.9C463.7,3.8,463.4,3.5,463.4,3z"/>
		<path id="XMLID_24_" class="st0" d="M470.3,2.1h-2.5V0.8h4.2v0.3L470,7h-1.5L470.3,2.1z"/>
		<path id="XMLID_21_" class="st0" d="M472.5,3c0-0.5,0.4-0.9,0.9-0.9c0.5,0,0.9,0.4,0.9,0.9c0,0.5-0.4,0.9-0.9,0.9
			C472.9,3.8,472.5,3.5,472.5,3z M472.5,6.2c0-0.5,0.4-0.9,0.9-0.9c0.5,0,0.9,0.4,0.9,0.9c0,0.5-0.4,0.9-0.9,0.9
			C472.9,7.1,472.5,6.8,472.5,6.2z"/>
		<path id="XMLID_19_" class="st0" d="M477.3,6.8V5.4c0.3,0.2,0.7,0.5,1.3,0.5c0.9,0,1.3-0.3,1.3-0.9c0-0.5-0.3-0.8-1.1-0.8h-0.5V4
			l1.1-1.9h-2.1V0.8h4v0.3l-1.3,2.2c0.7,0.1,1.4,0.5,1.4,1.7c0,1.1-0.8,2.1-2.6,2.1C478,7.1,477.5,7,477.3,6.8z"/>
		<path id="XMLID_17_" class="st0" d="M482.1,6.6l1.8-2.3c0.4-0.4,0.7-0.9,0.7-1.5c0-0.6-0.3-0.9-1-0.9c-0.6,0-1.2,0.3-1.5,0.7V1.3
			c0.3-0.3,0.9-0.6,1.8-0.6c1.5,0,2.2,0.7,2.2,2c0,1-0.6,1.8-1.2,2.4l-0.5,0.6h1.8V7h-4V6.6z"/>
		<path id="XMLID_15_" class="st0" d="M486.8,6.8V5.5c0.3,0.2,0.7,0.4,1.4,0.4c0.8,0,1.2-0.3,1.2-0.8c0-0.5-0.3-0.7-1.2-0.7
			c-0.5,0-0.9,0.1-1.2,0.2l0.1-3.8h3.6v1.3h-2.3l0,1.2c0.1,0,0.3,0,0.4,0c1.4,0,2.1,0.6,2.1,1.8c0,1.3-1.1,2.1-2.6,2.1
			C487.4,7.1,487,7,486.8,6.8z"/>
		<path id="XMLID_13_" class="st0" d="M491.6,3.6h5.4v1.1h-5.4V3.6z"/>
		<path id="XMLID_11_" class="st0" d="M497.9,6.8V5.4c0.3,0.2,0.7,0.5,1.3,0.5c0.9,0,1.3-0.3,1.3-0.9c0-0.5-0.3-0.8-1.1-0.8h-0.5V4
			l1.1-1.9h-2.1V0.8h4v0.3l-1.3,2.2c0.7,0.1,1.4,0.5,1.4,1.7c0,1.1-0.8,2.1-2.6,2.1C498.6,7.1,498.2,7,497.9,6.8z"/>
		<path id="XMLID_9_" class="st0" d="M502.8,6.8V5.4c0.3,0.2,0.7,0.5,1.3,0.5c0.9,0,1.3-0.3,1.3-0.9c0-0.5-0.3-0.8-1.1-0.8h-0.5V4
			l1.1-1.9h-2.1V0.8h4v0.3l-1.3,2.2c0.7,0.1,1.4,0.5,1.4,1.7c0,1.1-0.8,2.1-2.6,2.1C503.5,7.1,503,7,502.8,6.8z"/>
		<path id="XMLID_6_" class="st0" d="M507.9,6.9c0.9-0.4,1.8-1,2.3-2c-0.2,0.1-0.5,0.2-0.8,0.2c-1.2,0-2-0.7-2-2.1s0.9-2.3,2.4-2.3
			c1.4,0,2.3,0.9,2.3,2.5c0,2.1-1.2,3.4-2.2,3.8L507.9,6.9L507.9,6.9z M510.5,3.5c0-0.2,0-0.4,0-0.6c0-0.7-0.3-1.1-0.8-1.1
			c-0.5,0-0.8,0.4-0.8,1c0,0.6,0.3,1,0.8,1C510.1,3.9,510.4,3.7,510.5,3.5z"/>
		<path id="XMLID_4_" class="st0" d="M512.6,6.2c0-0.5,0.4-0.9,0.9-0.9c0.5,0,0.9,0.4,0.9,0.9c0,0.5-0.4,0.9-0.9,0.9
			C512.9,7.1,512.6,6.7,512.6,6.2z"/>
	</g>
</g>
</svg>
