<!-- Generator: Adobe Illustrator 22.1.0, SVG Export Plug-In  -->
<svg version="1.1"
	 xmlns="http://www.w3.org/2000/svg" xmlns:xlink="http://www.w3.org/1999/xlink" xmlns:a="http://ns.adobe.com/AdobeSVGViewerExtensions/3.0/"
	 x="0px" y="0px" width="507.5px" height="19.7px" viewBox="0 0 507.5 19.7" style="enable-background:new 0 0 507.5 19.7;"
	 xml:space="preserve">
<style type="text/css">
	.st0{fill:#231F20;}
</style>
<defs>
</defs>
<g id="XMLID_1_">
	<path id="XMLID_385_" class="st0" d="M1.6,4.8L1.6,4.8L1.5,7H0V0.8h2.1c1.4,0,2.4,0.5,2.4,1.9c0,1-0.6,1.7-1.5,1.9L5,7H3.3L1.6,4.8
		z M2,3.8c0.7,0,1-0.3,1-0.9C3,2.2,2.7,2,2,2H1.5v1.8H2z"/>
	<path id="XMLID_382_" class="st0" d="M5.2,4.5c0-1.8,1.2-2.6,2.4-2.6c1.2,0,2.3,0.5,2.3,2.4v0.6H6.7c0.1,0.6,0.4,1,1.4,1
		c0.8,0,1.4-0.3,1.6-0.6v1.2C9.5,6.8,8.9,7.1,7.9,7.1C6.2,7.1,5.2,6.3,5.2,4.5z M8.6,4L8.6,4c0-0.6-0.3-1-0.9-1C7.1,3,6.8,3.4,6.8,4
		H8.6z"/>
	<path id="XMLID_380_" class="st0" d="M11,3.1h-0.6V2.6L11,2.1c-0.1-0.2-0.2-0.4-0.2-0.7c0-0.9,0.8-1.4,1.8-1.4
		c0.7,0,1.1,0.2,1.2,0.3v1.2c-0.2-0.3-0.5-0.4-0.9-0.4c-0.4,0-0.6,0.2-0.6,0.5c0,0.2,0.1,0.3,0.1,0.4h1v1.2h-0.9V7H11V3.1z"/>
	<path id="XMLID_378_" class="st0" d="M13.7,6.2c0-0.5,0.4-0.9,0.9-0.9c0.5,0,0.9,0.4,0.9,0.9c0,0.5-0.4,0.9-0.9,0.9
		C14.1,7.1,13.7,6.7,13.7,6.2z"/>
	<path id="XMLID_376_" class="st0" d="M18.6,0.8h2.1c1.8,0,2.6,0.8,2.6,2.1c0,1.3-0.8,2.3-2.6,2.3h-0.3V4.1h0.3
		c0.7,0,1.1-0.4,1.1-1.1c0-0.7-0.4-1-1.1-1h-0.5v5h-1.5V0.8z"/>
	<path id="XMLID_373_" class="st0" d="M23.7,4.5c0-1.8,1.2-2.6,2.6-2.6c1.4,0,2.5,0.8,2.5,2.6c0,1.9-1.2,2.6-2.6,2.6
		C24.7,7.1,23.7,6.3,23.7,4.5z M27.2,4.5c0-0.9-0.3-1.4-1-1.4c-0.7,0-1,0.6-1,1.4c0,0.9,0.3,1.4,1,1.4C26.9,5.9,27.2,5.3,27.2,4.5z"
		/>
	<path id="XMLID_371_" class="st0" d="M29.8,5.5V3.1h-0.6V2.6L29.7,2l0.9-1.2h0.7V2h1.2v1.2h-1.2v2.3c0,0.4,0.1,0.5,0.4,0.5
		c0.3,0,0.6-0.2,0.7-0.4v1.2c-0.2,0.2-0.5,0.4-1.1,0.4C30.2,7.1,29.8,6.5,29.8,5.5z"/>
	<path id="XMLID_369_" class="st0" d="M35.2,4.9c-0.3,0.2-0.5,0.4-0.5,0.4V7h-1.5V0.2h1.5v3.6c0,0,1-0.8,1.7-1.8h1.5
		c-0.4,0.7-1,1.4-1.5,1.9L38.1,7h-1.7L35.2,4.9z"/>
	<path id="XMLID_366_" class="st0" d="M38.6,0.8c0-0.4,0.3-0.7,0.8-0.7c0.5,0,0.8,0.3,0.8,0.7c0,0.4-0.3,0.7-0.8,0.7
		C38.9,1.5,38.6,1.2,38.6,0.8z M38.6,2h1.5v5h-1.5V2z"/>
	<path id="XMLID_364_" class="st0" d="M41.2,2h1.3l0.1,0.4c0.2-0.3,0.7-0.6,1.3-0.6c1.3,0,1.8,0.7,1.8,2V7h-1.5V4.1
		C44.2,3.3,44,3,43.5,3c-0.4,0-0.7,0.2-0.8,0.4V7h-1.5V2z"/>
	<path id="XMLID_362_" class="st0" d="M48.8,6.7V5.2c0.3,0.4,0.9,0.7,1.6,0.7c0.7,0,1-0.3,1-0.7c0-0.4-0.2-0.5-0.8-0.6l-0.2,0
		c-1-0.2-1.6-0.8-1.6-1.9c0-1.2,0.9-2,2.3-2c0.9,0,1.4,0.2,1.7,0.4v1.5c-0.3-0.4-0.9-0.7-1.7-0.7c-0.6,0-0.9,0.2-0.9,0.6
		c0,0.4,0.1,0.5,0.7,0.7l0.2,0c1,0.2,1.7,0.7,1.7,1.8c0,1.2-0.9,2.1-2.4,2.1C49.5,7.1,49,6.9,48.8,6.7z"/>
	<path id="XMLID_360_" class="st0" d="M53.5,3.9c0-2.1,1.4-3.2,3.1-3.2c1.1,0,1.7,0.3,2,0.6v1.5c-0.4-0.5-1-0.9-1.8-0.9
		c-1.1,0-1.8,0.7-1.8,1.9c0,1.3,0.6,2,1.5,2c0.3,0,0.5,0,0.7-0.1V4.1h1.4v2.4c-0.4,0.3-1.1,0.6-2.2,0.6C54.7,7.1,53.5,6,53.5,3.9z"
		/>
	<path id="XMLID_358_" class="st0" d="M59.4,8.3C59.6,8,59.8,7.4,59.9,7c-0.3-0.1-0.5-0.5-0.5-0.8c0-0.5,0.4-0.9,0.9-0.9
		c0.5,0,0.9,0.4,0.9,1c0,0.9-0.7,1.8-1.1,2.1L59.4,8.3z"/>
	<path id="XMLID_356_" class="st0" d="M64,3.9c0-2.1,1.3-3.2,3-3.2c1,0,1.5,0.3,1.8,0.5v1.5c-0.3-0.5-0.8-0.7-1.6-0.7
		c-1.1,0-1.6,0.7-1.6,1.9c0,1.2,0.6,2,1.6,2c0.7,0,1.3-0.2,1.6-0.7v1.4c-0.3,0.3-1,0.6-1.8,0.6C65.2,7.1,64,6,64,3.9z"/>
	<path id="XMLID_353_" class="st0" d="M69.4,4.5c0-1.8,1.2-2.6,2.6-2.6c1.4,0,2.5,0.8,2.5,2.6c0,1.9-1.2,2.6-2.6,2.6
		C70.4,7.1,69.4,6.3,69.4,4.5z M73,4.5c0-0.9-0.3-1.4-1-1.4c-0.7,0-1,0.6-1,1.4c0,0.9,0.3,1.4,1,1.4C72.6,5.9,73,5.3,73,4.5z"/>
	<path id="XMLID_351_" class="st0" d="M75.2,0.2h1.5v2.2c0.2-0.3,0.7-0.5,1.3-0.5c1.3,0,1.8,0.7,1.8,2V7h-1.5V4.1
		c0-0.8-0.2-1.1-0.8-1.1c-0.4,0-0.7,0.2-0.8,0.4V7h-1.5V0.2z"/>
	<path id="XMLID_348_" class="st0" d="M80.5,4.5c0-1.8,1.2-2.6,2.4-2.6c1.2,0,2.3,0.5,2.3,2.4v0.6h-3.2c0.1,0.6,0.4,1,1.4,1
		c0.8,0,1.4-0.3,1.6-0.6v1.2c-0.3,0.3-0.9,0.6-1.9,0.6C81.5,7.1,80.5,6.3,80.5,4.5z M83.9,4L83.9,4c0-0.6-0.3-1-0.9-1
		c-0.6,0-0.9,0.5-0.9,1H83.9z"/>
	<path id="XMLID_346_" class="st0" d="M86.1,2h1.3l0.1,0.4c0.2-0.3,0.7-0.6,1.3-0.6c1.3,0,1.8,0.7,1.8,2V7h-1.5V4.1
		c0-0.8-0.2-1.1-0.8-1.1c-0.4,0-0.7,0.2-0.8,0.4V7h-1.5V2z"/>
	<path id="XMLID_344_" class="st0" d="M93.9,0.8h1.4l1.8,2.6l1.7-2.6h1.4V7h-1.5V3.1l-1.6,2.4H97l-1.6-2.4V7h-1.5V0.8z"/>
	<path id="XMLID_342_" class="st0" d="M101.1,8.3c0.2-0.3,0.4-0.9,0.5-1.3c-0.3-0.1-0.5-0.5-0.5-0.8c0-0.5,0.4-0.9,0.9-0.9
		c0.5,0,0.9,0.4,0.9,1c0,0.9-0.7,1.8-1.1,2.1L101.1,8.3z"/>
	<path id="XMLID_340_" class="st0" d="M106,0.8h2.1c1.8,0,2.6,0.8,2.6,2.1c0,1.3-0.8,2.3-2.6,2.3h-0.3V4.1h0.3
		c0.7,0,1.1-0.4,1.1-1.1c0-0.7-0.4-1-1.1-1h-0.5v5H106V0.8z"/>
	<path id="XMLID_337_" class="st0" d="M111.1,5.6c0-1,0.7-1.4,2.1-1.6l0.7-0.1c0-0.7-0.3-0.9-1-0.9c-0.7,0-1.4,0.4-1.6,0.9V2.5
		c0.2-0.3,0.8-0.7,1.9-0.7c1.4,0,2.2,0.6,2.2,2.1v3h-1.3L114,6.5c-0.1,0.3-0.5,0.6-1.2,0.6C111.8,7.1,111.1,6.6,111.1,5.6z
		 M113.9,4.8l-0.6,0.1c-0.7,0.1-0.9,0.3-0.9,0.7c0,0.3,0.2,0.5,0.6,0.5c0.4,0,0.7-0.2,0.9-0.3V4.8z"/>
	<path id="XMLID_335_" class="st0" d="M116.4,2h1.3l0.1,0.4c0.2-0.3,0.7-0.6,1.3-0.6c1.3,0,1.8,0.7,1.8,2V7h-1.5V4.1
		c0-0.8-0.2-1.1-0.8-1.1c-0.4,0-0.7,0.2-0.8,0.4V7h-1.5V2z"/>
	<path id="XMLID_332_" class="st0" d="M121.7,5.6c0-1,0.7-1.4,2.1-1.6l0.7-0.1c0-0.7-0.3-0.9-1-0.9c-0.7,0-1.4,0.4-1.6,0.9V2.5
		c0.2-0.3,0.8-0.7,1.9-0.7c1.4,0,2.2,0.6,2.2,2.1v3h-1.3l-0.1-0.4c-0.1,0.3-0.5,0.6-1.2,0.6C122.4,7.1,121.7,6.6,121.7,5.6z
		 M124.5,4.8l-0.6,0.1c-0.7,0.1-0.9,0.3-0.9,0.7c0,0.3,0.2,0.5,0.6,0.5c0.4,0,0.7-0.2,0.9-0.3V4.8z"/>
	<path id="XMLID_329_" class="st0" d="M126.7,8.4V7.3c0.5,0.3,1.1,0.5,2.1,0.5c1.2,0,1.7-0.1,1.7-0.5c0-0.3-0.3-0.4-1-0.4
		c-0.7,0-1.9,0.2-2.2,0.3v-1l0.7-1c-0.7-0.2-1.2-0.8-1.2-1.6c0-1.1,0.9-1.8,2.2-1.8c0.6,0,1.1,0.1,1.4,0.4c0.2-0.3,0.5-0.4,1-0.4
		c0.1,0,0.3,0,0.4,0.1V3c-0.1-0.1-0.2-0.1-0.3-0.1c-0.2,0-0.3,0.1-0.4,0.1c0.1,0.2,0.1,0.4,0.1,0.6c0,1.1-0.9,1.7-2.2,1.7h-0.1
		l-0.4,0.6c0.2-0.1,0.8-0.1,1.3-0.1c1.3,0,2.1,0.3,2.1,1.4c0,1.1-1,1.7-2.9,1.7C127.9,8.9,127.1,8.7,126.7,8.4z M129.8,3.6
		c0-0.4-0.3-0.7-0.8-0.7c-0.5,0-0.8,0.2-0.8,0.7c0,0.4,0.3,0.7,0.8,0.7C129.5,4.2,129.8,4,129.8,3.6z"/>
	<path id="XMLID_326_" class="st0" d="M132.4,0.8c0-0.4,0.3-0.7,0.8-0.7c0.5,0,0.8,0.3,0.8,0.7c0,0.4-0.3,0.7-0.8,0.7
		C132.7,1.5,132.4,1.2,132.4,0.8z M132.4,2h1.5v5h-1.5V2z"/>
	<path id="XMLID_323_" class="st0" d="M134.7,4.5c0-1.8,0.9-2.7,2.2-2.7c0.4,0,0.8,0.1,1.1,0.3v-2h1.5V7h-1.3L138,6.5
		c-0.2,0.3-0.6,0.6-1.3,0.6C135.6,7.1,134.7,6.3,134.7,4.5z M138,3.3c-0.2-0.2-0.5-0.3-0.8-0.3c-0.7,0-1,0.7-1,1.6s0.2,1.4,0.9,1.4
		c0.4,0,0.7-0.2,0.8-0.4V3.3z"/>
	<path id="XMLID_320_" class="st0" d="M140.3,4.5c0-1.8,1.2-2.6,2.4-2.6c1.2,0,2.3,0.5,2.3,2.4v0.6h-3.2c0.1,0.6,0.4,1,1.4,1
		c0.8,0,1.4-0.3,1.6-0.6v1.2c-0.3,0.3-0.9,0.6-1.9,0.6C141.2,7.1,140.3,6.3,140.3,4.5z M143.6,4L143.6,4c0-0.6-0.3-1-0.9-1
		c-0.6,0-0.9,0.5-0.9,1H143.6z"/>
	<path id="XMLID_318_" class="st0" d="M145.7,6.7V5.4c0.3,0.3,0.8,0.6,1.5,0.6c0.6,0,0.8-0.2,0.8-0.5c0-0.3-0.1-0.4-0.7-0.5l-0.3,0
		c-1-0.1-1.5-0.7-1.5-1.5c0-0.9,0.6-1.6,2.1-1.6c0.8,0,1.3,0.2,1.6,0.4v1.3c-0.3-0.4-0.8-0.5-1.5-0.5c-0.6,0-0.8,0.2-0.8,0.4
		s0.1,0.4,0.6,0.5l0.3,0c1.1,0.2,1.6,0.6,1.6,1.5c0,0.9-0.6,1.7-2.2,1.7C146.4,7.1,145.9,6.9,145.7,6.7z"/>
	<path id="XMLID_316_" class="st0" d="M152,6.8V5.3c0.2,0.3,0.6,0.5,1,0.5c0.6,0,0.9-0.3,0.9-1.1v-4h1.5v4.1c0,1.6-1,2.2-2.2,2.2
		C152.5,7.1,152.2,6.9,152,6.8z"/>
	<path id="XMLID_314_" class="st0" d="M156.2,6.2c0-0.5,0.4-0.9,0.9-0.9c0.5,0,0.9,0.4,0.9,0.9c0,0.5-0.4,0.9-0.9,0.9
		C156.6,7.1,156.2,6.7,156.2,6.2z"/>
	<path id="XMLID_312_" class="st0" d="M161.1,0.8h4.2V2h-2.7v1.2h1.7v1.2h-1.7v1.3h2.7V7h-4.2V0.8z"/>
	<path id="XMLID_309_" class="st0" d="M166.4,3.1h-0.6V2.6l0.5-0.5c-0.1-0.2-0.2-0.4-0.2-0.7c0-0.9,0.8-1.4,1.6-1.4
		c0.6,0,0.9,0.2,1,0.3v1.2c-0.1-0.2-0.4-0.4-0.7-0.4c-0.3,0-0.5,0.2-0.5,0.5c0,0.2,0.1,0.3,0.1,0.4h1.5c-0.1-0.1-0.1-0.3-0.1-0.6
		c0-0.9,0.8-1.4,1.7-1.4c0.6,0,0.9,0.2,1,0.3v1.2c-0.1-0.2-0.4-0.4-0.7-0.4c-0.3,0-0.5,0.2-0.5,0.5c0,0.2,0.1,0.3,0.1,0.4h3.1v5
		h-1.5V3.1h-1.5V7h-1.5V3.1h-1.5V7h-1.5V3.1z M172.3,0.8c0-0.4,0.3-0.7,0.8-0.7c0.5,0,0.8,0.3,0.8,0.7c0,0.4-0.3,0.7-0.8,0.7
		C172.6,1.5,172.3,1.3,172.3,0.8z"/>
	<path id="XMLID_307_" class="st0" d="M174.6,4.5c0-1.8,1.2-2.6,2.5-2.6c0.7,0,1.3,0.2,1.5,0.4v1.3c-0.3-0.4-0.7-0.5-1.3-0.5
		c-0.8,0-1.2,0.5-1.2,1.4c0,0.9,0.4,1.4,1.2,1.4c0.6,0,1-0.2,1.3-0.5v1.3c-0.2,0.2-0.8,0.5-1.5,0.5C175.6,7.1,174.6,6.3,174.6,4.5z"
		/>
	<path id="XMLID_304_" class="st0" d="M179.2,5.6c0-1,0.7-1.4,2.1-1.6l0.7-0.1c0-0.7-0.3-0.9-1-0.9c-0.7,0-1.4,0.4-1.6,0.9V2.5
		c0.2-0.3,0.8-0.7,1.9-0.7c1.4,0,2.2,0.6,2.2,2.1v3h-1.3l-0.1-0.4c-0.1,0.3-0.5,0.6-1.2,0.6C179.9,7.1,179.2,6.6,179.2,5.6z
		 M182,4.8l-0.6,0.1c-0.7,0.1-0.9,0.3-0.9,0.7c0,0.3,0.2,0.5,0.6,0.5c0.4,0,0.7-0.2,0.9-0.3V4.8z"/>
	<path id="XMLID_302_" class="st0" d="M184.3,4.5c0-1.8,1.2-2.6,2.5-2.6c0.7,0,1.3,0.2,1.5,0.4v1.3c-0.3-0.4-0.7-0.5-1.3-0.5
		c-0.8,0-1.2,0.5-1.2,1.4c0,0.9,0.4,1.4,1.2,1.4c0.6,0,1-0.2,1.3-0.5v1.3c-0.2,0.2-0.8,0.5-1.5,0.5C185.3,7.1,184.3,6.3,184.3,4.5z"
		/>
	<path id="XMLID_300_" class="st0" d="M188.9,8.6V7.4c0.2,0.2,0.5,0.4,0.9,0.4c0.3,0,0.6-0.1,0.9-0.7l-2-5.1h1.6l1,3.3l0.9-3.3h1.4
		l-1.4,4.7c-0.4,1.2-1,2.2-2.3,2.2C189.4,8.9,189,8.7,188.9,8.6z"/>
	<path id="XMLID_297_" class="st0" d="M196.1,5.6c0-1,0.7-1.4,2.1-1.6l0.7-0.1c0-0.7-0.3-0.9-1-0.9c-0.7,0-1.4,0.4-1.6,0.9V2.5
		c0.2-0.3,0.8-0.7,1.9-0.7c1.4,0,2.2,0.6,2.2,2.1v3h-1.3l-0.1-0.4c-0.1,0.3-0.5,0.6-1.2,0.6C196.8,7.1,196.1,6.6,196.1,5.6z
		 M198.9,4.8l-0.6,0.1c-0.7,0.1-0.9,0.3-0.9,0.7c0,0.3,0.2,0.5,0.6,0.5c0.4,0,0.7-0.2,0.9-0.3V4.8z"/>
	<path id="XMLID_295_" class="st0" d="M201.4,2h1.3l0.1,0.4c0.2-0.3,0.7-0.6,1.3-0.6c1.3,0,1.8,0.7,1.8,2V7h-1.5V4.1
		c0-0.8-0.2-1.1-0.8-1.1c-0.4,0-0.7,0.2-0.8,0.4V7h-1.5V2z"/>
	<path id="XMLID_292_" class="st0" d="M206.7,4.5c0-1.8,0.9-2.7,2.2-2.7c0.4,0,0.8,0.1,1.1,0.3v-2h1.5V7h-1.3L210,6.5
		c-0.2,0.3-0.6,0.6-1.3,0.6C207.5,7.1,206.7,6.3,206.7,4.5z M210,3.3c-0.2-0.2-0.5-0.3-0.8-0.3c-0.7,0-1,0.7-1,1.6s0.2,1.4,0.9,1.4
		c0.4,0,0.7-0.2,0.8-0.4V3.3z"/>
	<path id="XMLID_290_" class="st0" d="M214.9,5.5V3.1h-0.6V2.6l0.5-0.6l0.9-1.2h0.7V2h1.2v1.2h-1.2v2.3c0,0.4,0.1,0.5,0.4,0.5
		c0.3,0,0.6-0.2,0.7-0.4v1.2c-0.2,0.2-0.5,0.4-1.1,0.4C215.3,7.1,214.9,6.5,214.9,5.5z"/>
	<path id="XMLID_287_" class="st0" d="M218.1,4.5c0-1.8,1.2-2.6,2.6-2.6c1.4,0,2.5,0.8,2.5,2.6c0,1.9-1.2,2.6-2.6,2.6
		C219.1,7.1,218.1,6.3,218.1,4.5z M221.6,4.5c0-0.9-0.3-1.4-1-1.4c-0.7,0-1,0.6-1,1.4c0,0.9,0.3,1.4,1,1.4
		C221.3,5.9,221.6,5.3,221.6,4.5z"/>
	<path id="XMLID_285_" class="st0" d="M223.9,5.7V0.2h1.5v5.4c0,0.3,0.1,0.4,0.3,0.4c0.2,0,0.4-0.1,0.4-0.2v1.1
		c-0.1,0.1-0.4,0.3-0.9,0.3C224.3,7.1,223.9,6.6,223.9,5.7z"/>
	<path id="XMLID_282_" class="st0" d="M226.5,4.5c0-1.8,1.2-2.6,2.4-2.6c1.2,0,2.3,0.5,2.3,2.4v0.6H228c0.1,0.6,0.4,1,1.4,1
		c0.8,0,1.4-0.3,1.6-0.6v1.2c-0.3,0.3-0.9,0.6-1.9,0.6C227.5,7.1,226.5,6.3,226.5,4.5z M229.9,4L229.9,4c0-0.6-0.3-1-0.9-1
		c-0.6,0-0.9,0.5-0.9,1H229.9z"/>
	<path id="XMLID_280_" class="st0" d="M232,2h1.2l0.1,0.7c0.1-0.5,0.5-0.8,1-0.8c0.3,0,0.4,0.1,0.5,0.1v1.3
		c-0.1-0.1-0.3-0.1-0.6-0.1c-0.4,0-0.6,0.2-0.7,0.4V7H232V2z"/>
	<path id="XMLID_277_" class="st0" d="M235.2,5.6c0-1,0.7-1.4,2.1-1.6l0.7-0.1c0-0.7-0.3-0.9-1-0.9c-0.7,0-1.4,0.4-1.6,0.9V2.5
		c0.2-0.3,0.8-0.7,1.9-0.7c1.4,0,2.2,0.6,2.2,2.1v3h-1.3l-0.1-0.4c-0.1,0.3-0.5,0.6-1.2,0.6C235.9,7.1,235.2,6.6,235.2,5.6z
		 M238,4.8l-0.6,0.1c-0.7,0.1-0.9,0.3-0.9,0.7c0,0.3,0.2,0.5,0.6,0.5c0.4,0,0.7-0.2,0.9-0.3V4.8z"/>
	<path id="XMLID_274_" class="st0" d="M241.8,6.6L241.6,7h-1.1V0.2h1.5v2.2c0.1-0.2,0.6-0.5,1.3-0.5c1.2,0,2,0.7,2,2.5
		c0,1.8-1,2.8-2.2,2.8C242.3,7.1,242,6.9,241.8,6.6z M242,5.6c0.2,0.2,0.5,0.3,0.8,0.3c0.7,0,1-0.7,1-1.6S243.5,3,242.8,3
		c-0.4,0-0.7,0.2-0.8,0.4V5.6z"/>
	<path id="XMLID_271_" class="st0" d="M246.1,0.8c0-0.4,0.3-0.7,0.8-0.7c0.5,0,0.8,0.3,0.8,0.7c0,0.4-0.3,0.7-0.8,0.7
		C246.3,1.5,246.1,1.2,246.1,0.8z M246.1,2h1.5v5h-1.5V2z"/>
	<path id="XMLID_269_" class="st0" d="M248.6,5.7V0.2h1.5v5.4c0,0.3,0.1,0.4,0.3,0.4c0.2,0,0.4-0.1,0.4-0.2v1.1
		c-0.1,0.1-0.4,0.3-0.9,0.3C249,7.1,248.6,6.6,248.6,5.7z"/>
	<path id="XMLID_266_" class="st0" d="M251.4,0.8c0-0.4,0.3-0.7,0.8-0.7c0.5,0,0.8,0.3,0.8,0.7c0,0.4-0.3,0.7-0.8,0.7
		C251.7,1.5,251.4,1.2,251.4,0.8z M251.5,2h1.5v5h-1.5V2z"/>
	<path id="XMLID_264_" class="st0" d="M254.2,5.5V3.1h-0.6V2.6l0.5-0.6l0.9-1.2h0.7V2h1.2v1.2h-1.2v2.3c0,0.4,0.1,0.5,0.4,0.5
		c0.3,0,0.6-0.2,0.7-0.4v1.2c-0.2,0.2-0.5,0.4-1.1,0.4C254.6,7.1,254.2,6.5,254.2,5.5z"/>
	<path id="XMLID_262_" class="st0" d="M257.4,8.6V7.4c0.2,0.2,0.5,0.4,0.9,0.4c0.3,0,0.6-0.1,0.9-0.7l-2-5.1h1.6l1,3.3l0.9-3.3h1.4
		l-1.4,4.7c-0.4,1.2-1,2.2-2.3,2.2C257.9,8.9,257.6,8.7,257.4,8.6z"/>
	<path id="XMLID_259_" class="st0" d="M1.8,15.3c0-1.8,1.2-2.6,2.6-2.6c1.4,0,2.5,0.8,2.5,2.6c0,1.9-1.2,2.6-2.6,2.6
		C2.9,17.9,1.8,17.1,1.8,15.3z M5.4,15.3c0-0.9-0.3-1.4-1-1.4c-0.7,0-1,0.6-1,1.4c0,0.9,0.3,1.4,1,1.4C5.1,16.7,5.4,16.1,5.4,15.3z"
		/>
	<path id="XMLID_257_" class="st0" d="M7.9,13.9H7.4v-0.5l0.5-0.5c-0.1-0.2-0.2-0.4-0.2-0.7c0-0.9,0.8-1.4,1.8-1.4
		c0.7,0,1.1,0.2,1.2,0.3v1.2c-0.2-0.3-0.5-0.4-0.9-0.4c-0.4,0-0.6,0.2-0.6,0.5c0,0.2,0.1,0.3,0.1,0.4h1v1.2H9.4v3.8H7.9V13.9z"/>
	<path id="XMLID_254_" class="st0" d="M14.9,12.2l-0.2-0.6h1.6c0.2,0.5,2.2,5.6,2.5,6.2h-1.6l-0.4-1.1h-2.2l-0.4,1.1h-1.4L14.9,12.2
		z M14.9,15.6h1.4l-0.5-1.4l-0.2-0.5l-0.2,0.5L14.9,15.6z"/>
	<path id="XMLID_252_" class="st0" d="M19.1,17.5v-1.3c0.3,0.3,0.8,0.6,1.5,0.6c0.6,0,0.8-0.2,0.8-0.5c0-0.3-0.1-0.4-0.7-0.5l-0.3,0
		c-1-0.1-1.5-0.7-1.5-1.5c0-0.9,0.6-1.6,2.1-1.6c0.8,0,1.3,0.2,1.6,0.4v1.3c-0.3-0.4-0.8-0.5-1.5-0.5c-0.6,0-0.8,0.2-0.8,0.4
		s0.1,0.4,0.6,0.5l0.3,0c1.1,0.2,1.6,0.6,1.6,1.5c0,0.9-0.6,1.7-2.2,1.7C19.9,17.9,19.4,17.7,19.1,17.5z"/>
	<path id="XMLID_249_" class="st0" d="M23.4,15.3c0-1.8,1.2-2.6,2.4-2.6c1.2,0,2.3,0.5,2.3,2.4v0.6h-3.2c0.1,0.6,0.4,1,1.4,1
		c0.8,0,1.4-0.3,1.6-0.6v1.2c-0.3,0.3-0.9,0.6-1.9,0.6C24.4,17.9,23.4,17.1,23.4,15.3z M26.7,14.8L26.7,14.8c0-0.6-0.3-1-0.9-1
		c-0.6,0-0.9,0.5-0.9,1H26.7z"/>
	<path id="XMLID_247_" class="st0" d="M28.9,12.8h1.3l0.1,0.4c0.2-0.3,0.7-0.6,1.3-0.6c1.3,0,1.8,0.7,1.8,2v3.1H32v-2.9
		c0-0.8-0.2-1.1-0.8-1.1c-0.4,0-0.7,0.2-0.8,0.4v3.6h-1.5V12.8z"/>
	<path id="XMLID_244_" class="st0" d="M34.2,16.4c0-1,0.7-1.4,2.1-1.6l0.7-0.1c0-0.7-0.3-0.9-1-0.9c-0.7,0-1.4,0.4-1.6,0.9v-1.4
		c0.2-0.3,0.8-0.7,1.9-0.7c1.4,0,2.2,0.6,2.2,2.1v3h-1.3l-0.1-0.4c-0.1,0.3-0.5,0.6-1.2,0.6C34.9,17.9,34.2,17.4,34.2,16.4z
		 M37,15.6l-0.6,0.1c-0.7,0.1-0.9,0.3-0.9,0.7c0,0.3,0.2,0.5,0.6,0.5c0.4,0,0.7-0.2,0.9-0.3V15.6z"/>
	<path id="XMLID_241_" class="st0" d="M39.5,12.8h1.3l0.1,0.4c0.2-0.3,0.6-0.6,1.3-0.6c1.3,0,2,0.7,2,2.5c0,1.8-1,2.8-2.2,2.8
		c-0.4,0-0.8-0.1-1.1-0.3v1.9h-1.5V12.8z M42.8,15.2c0-0.9-0.2-1.4-0.9-1.4c-0.4,0-0.7,0.2-0.8,0.4v2.3c0.2,0.2,0.5,0.3,0.8,0.3
		C42.5,16.8,42.8,16.1,42.8,15.2z"/>
	<path id="XMLID_238_" class="st0" d="M45.1,11.6c0-0.4,0.3-0.7,0.8-0.7c0.5,0,0.8,0.3,0.8,0.7c0,0.4-0.3,0.7-0.8,0.7
		C45.3,12.3,45.1,12,45.1,11.6z M45.1,12.8h1.5v5h-1.5V12.8z"/>
	<path id="XMLID_236_" class="st0" d="M47.6,12.8h1.3l0.1,0.4c0.2-0.3,0.7-0.6,1.3-0.6c1.3,0,1.8,0.7,1.8,2v3.1h-1.5v-2.9
		c0-0.8-0.2-1.1-0.8-1.1c-0.4,0-0.7,0.2-0.8,0.4v3.6h-1.5V12.8z"/>
	<path id="XMLID_233_" class="st0" d="M52.9,15.3c0-1.8,1.2-2.6,2.4-2.6c1.2,0,2.3,0.5,2.3,2.4v0.6h-3.2c0.1,0.6,0.4,1,1.4,1
		c0.8,0,1.4-0.3,1.6-0.6v1.2c-0.3,0.3-0.9,0.6-1.9,0.6C53.9,17.9,52.9,17.1,52.9,15.3z M56.2,14.8L56.2,14.8c0-0.6-0.3-1-0.9-1
		c-0.6,0-0.9,0.5-0.9,1H56.2z"/>
	<path id="XMLID_230_" class="st0" d="M60.6,11.6c0-0.4,0.3-0.7,0.8-0.7c0.5,0,0.8,0.3,0.8,0.7c0,0.4-0.3,0.7-0.8,0.7
		C60.9,12.3,60.6,12,60.6,11.6z M60.6,12.8h1.5v5h-1.5V12.8z"/>
	<path id="XMLID_228_" class="st0" d="M63.1,12.8h1.3l0.1,0.4c0.2-0.3,0.7-0.6,1.3-0.6c1.3,0,1.8,0.7,1.8,2v3.1h-1.5v-2.9
		c0-0.8-0.2-1.1-0.8-1.1c-0.4,0-0.7,0.2-0.8,0.4v3.6h-1.5V12.8z"/>
	<path id="XMLID_225_" class="st0" d="M70.6,16.4c0-1,0.7-1.4,2.1-1.6l0.7-0.1c0-0.7-0.3-0.9-1-0.9c-0.7,0-1.4,0.4-1.6,0.9v-1.4
		c0.2-0.3,0.8-0.7,1.9-0.7c1.4,0,2.2,0.6,2.2,2.1v3h-1.3l-0.1-0.4c-0.1,0.3-0.5,0.6-1.2,0.6C71.3,17.9,70.6,17.4,70.6,16.4z
		 M73.4,15.6l-0.6,0.1C72.2,15.9,72,16,72,16.4c0,0.3,0.2,0.5,0.6,0.5c0.4,0,0.7-0.2,0.9-0.3V15.6z"/>
	<path id="XMLID_223_" class="st0" d="M75.6,15.3c0-1.8,1.2-2.6,2.5-2.6c0.7,0,1.3,0.2,1.5,0.4v1.3c-0.3-0.4-0.7-0.5-1.3-0.5
		c-0.8,0-1.2,0.5-1.2,1.4c0,0.9,0.4,1.4,1.2,1.4c0.6,0,1-0.2,1.3-0.5v1.3c-0.2,0.2-0.8,0.5-1.5,0.5C76.7,17.9,75.6,17.1,75.6,15.3z"
		/>
	<path id="XMLID_221_" class="st0" d="M80.4,15.9v-3.1h1.5v2.8c0,0.8,0.2,1.1,0.7,1.1c0.4,0,0.7-0.2,0.8-0.4v-3.6h1.5v5h-1.3
		l-0.1-0.4c-0.2,0.3-0.7,0.6-1.3,0.6C80.9,17.9,80.4,17.2,80.4,15.9z"/>
	<path id="XMLID_219_" class="st0" d="M86.2,16.3v-2.4h-0.6v-0.5l0.5-0.6l0.9-1.2h0.7v1.2h1.2v1.2h-1.2v2.3c0,0.4,0.1,0.5,0.4,0.5
		c0.3,0,0.6-0.2,0.7-0.4v1.2c-0.2,0.2-0.5,0.4-1.1,0.4C86.6,17.9,86.2,17.3,86.2,16.3z"/>
	<path id="XMLID_216_" class="st0" d="M89.4,15.3c0-1.8,1.2-2.6,2.4-2.6c1.2,0,2.3,0.5,2.3,2.4v0.6h-3.2c0.1,0.6,0.4,1,1.4,1
		c0.8,0,1.4-0.3,1.6-0.6v1.2c-0.3,0.3-0.9,0.6-1.9,0.6C90.4,17.9,89.4,17.1,89.4,15.3z M92.7,14.8L92.7,14.8c0-0.6-0.3-1-0.9-1
		c-0.6,0-0.9,0.5-0.9,1H92.7z"/>
	<path id="XMLID_214_" class="st0" d="M97,17.5v-1.3c0.3,0.3,0.8,0.6,1.5,0.6c0.6,0,0.8-0.2,0.8-0.5c0-0.3-0.1-0.4-0.7-0.5l-0.3,0
		c-1-0.1-1.5-0.7-1.5-1.5c0-0.9,0.6-1.6,2.1-1.6c0.8,0,1.3,0.2,1.6,0.4v1.3c-0.3-0.4-0.8-0.5-1.5-0.5c-0.6,0-0.8,0.2-0.8,0.4
		s0.1,0.4,0.6,0.5l0.3,0c1.1,0.2,1.6,0.6,1.6,1.5c0,0.9-0.6,1.7-2.2,1.7C97.7,17.9,97.2,17.7,97,17.5z"/>
	<path id="XMLID_212_" class="st0" d="M101.2,15.3c0-1.8,1.2-2.6,2.5-2.6c0.7,0,1.3,0.2,1.5,0.4v1.3c-0.3-0.4-0.7-0.5-1.3-0.5
		c-0.8,0-1.2,0.5-1.2,1.4c0,0.9,0.4,1.4,1.2,1.4c0.6,0,1-0.2,1.3-0.5v1.3c-0.2,0.2-0.8,0.5-1.5,0.5
		C102.2,17.9,101.2,17.1,101.2,15.3z"/>
	<path id="XMLID_210_" class="st0" d="M106.1,11h1.5v2.2c0.2-0.3,0.7-0.5,1.3-0.5c1.3,0,1.8,0.7,1.8,2v3.1h-1.5v-2.9
		c0-0.8-0.2-1.1-0.8-1.1c-0.4,0-0.7,0.2-0.8,0.4v3.6h-1.5V11z"/>
	<path id="XMLID_207_" class="st0" d="M111.6,11.6c0-0.4,0.3-0.7,0.8-0.7c0.5,0,0.8,0.3,0.8,0.7c0,0.4-0.3,0.7-0.8,0.7
		C111.9,12.3,111.6,12,111.6,11.6z M111.6,12.8h1.5v5h-1.5V12.8z"/>
	<path id="XMLID_205_" class="st0" d="M113.9,17.3l2.1-3.4h-2.1v-1.2h3.9v0.5l-2,3.4h2v1.2h-3.9V17.3z"/>
	<path id="XMLID_202_" class="st0" d="M118.3,15.3c0-1.8,1.2-2.6,2.6-2.6c1.4,0,2.5,0.8,2.5,2.6c0,1.9-1.2,2.6-2.6,2.6
		C119.3,17.9,118.3,17.1,118.3,15.3z M121.8,15.3c0-0.9-0.3-1.4-1-1.4c-0.7,0-1,0.6-1,1.4c0,0.9,0.3,1.4,1,1.4
		C121.5,16.7,121.8,16.1,121.8,15.3z"/>
	<path id="XMLID_199_" class="st0" d="M124.1,12.8h1.3l0.1,0.4c0.2-0.3,0.6-0.6,1.3-0.6c1.3,0,2,0.7,2,2.5c0,1.8-1,2.8-2.2,2.8
		c-0.4,0-0.8-0.1-1.1-0.3v1.9h-1.5V12.8z M127.4,15.2c0-0.9-0.2-1.4-0.9-1.4c-0.4,0-0.7,0.2-0.8,0.4v2.3c0.2,0.2,0.5,0.3,0.8,0.3
		C127.1,16.8,127.4,16.1,127.4,15.2z"/>
	<path id="XMLID_197_" class="st0" d="M129.7,11h1.5v2.2c0.2-0.3,0.7-0.5,1.3-0.5c1.3,0,1.8,0.7,1.8,2v3.1h-1.5v-2.9
		c0-0.8-0.2-1.1-0.8-1.1c-0.4,0-0.7,0.2-0.8,0.4v3.6h-1.5V11z"/>
	<path id="XMLID_195_" class="st0" d="M135.3,12.8h1.2l0.1,0.7c0.1-0.5,0.5-0.8,1-0.8c0.3,0,0.4,0.1,0.5,0.1v1.3
		c-0.1-0.1-0.3-0.1-0.6-0.1c-0.4,0-0.6,0.2-0.7,0.4v3.4h-1.5V12.8z"/>
	<path id="XMLID_192_" class="st0" d="M138.4,15.3c0-1.8,1.2-2.6,2.4-2.6c1.2,0,2.3,0.5,2.3,2.4v0.6h-3.2c0.1,0.6,0.4,1,1.4,1
		c0.8,0,1.4-0.3,1.6-0.6v1.2c-0.3,0.3-0.9,0.6-1.9,0.6C139.4,17.9,138.4,17.1,138.4,15.3z M141.7,14.8L141.7,14.8c0-0.6-0.3-1-0.9-1
		c-0.6,0-0.9,0.5-0.9,1H141.7z"/>
	<path id="XMLID_190_" class="st0" d="M143.9,12.8h1.3l0.1,0.4c0.2-0.3,0.7-0.6,1.3-0.6c1.3,0,1.8,0.7,1.8,2v3.1H147v-2.9
		c0-0.8-0.2-1.1-0.8-1.1c-0.4,0-0.7,0.2-0.8,0.4v3.6h-1.5V12.8z"/>
	<path id="XMLID_187_" class="st0" d="M149.4,11.6c0-0.4,0.3-0.7,0.8-0.7c0.5,0,0.8,0.3,0.8,0.7c0,0.4-0.3,0.7-0.8,0.7
		C149.7,12.3,149.4,12,149.4,11.6z M149.5,12.8h1.5v5h-1.5V12.8z"/>
	<path id="XMLID_184_" class="st0" d="M151.7,16.4c0-1,0.7-1.4,2.1-1.6l0.7-0.1c0-0.7-0.3-0.9-1-0.9c-0.7,0-1.4,0.4-1.6,0.9v-1.4
		c0.2-0.3,0.8-0.7,1.9-0.7c1.4,0,2.2,0.6,2.2,2.1v3h-1.3l-0.1-0.4c-0.1,0.3-0.5,0.6-1.2,0.6C152.4,17.9,151.7,17.4,151.7,16.4z
		 M154.6,15.6l-0.6,0.1c-0.7,0.1-0.9,0.3-0.9,0.7c0,0.3,0.2,0.5,0.6,0.5c0.4,0,0.7-0.2,0.9-0.3V15.6z"/>
	<path id="XMLID_181_" class="st0" d="M157,13.8c0-0.5,0.4-0.9,0.9-0.9c0.5,0,0.9,0.4,0.9,0.9c0,0.5-0.4,0.9-0.9,0.9
		C157.3,14.6,157,14.3,157,13.8z M157,17c0-0.5,0.4-0.9,0.9-0.9c0.5,0,0.9,0.4,0.9,0.9c0,0.5-0.4,0.9-0.9,0.9
		C157.3,17.9,157,17.6,157,17z"/>
	<path id="XMLID_178_" class="st0" d="M161.6,16.4c0-1,0.7-1.4,2.1-1.6l0.7-0.1c0-0.7-0.3-0.9-1-0.9c-0.7,0-1.4,0.4-1.6,0.9v-1.4
		c0.2-0.3,0.8-0.7,1.9-0.7c1.4,0,2.2,0.6,2.2,2.1v3h-1.3l-0.1-0.4c-0.1,0.3-0.5,0.6-1.2,0.6C162.3,17.9,161.6,17.4,161.6,16.4z
		 M164.4,15.6l-0.6,0.1c-0.7,0.1-0.9,0.3-0.9,0.7c0,0.3,0.2,0.5,0.6,0.5c0.4,0,0.7-0.2,0.9-0.3V15.6z"/>
	<path id="XMLID_175_" class="st0" d="M169,12.8h1.3l0.1,0.4c0.2-0.3,0.6-0.6,1.3-0.6c1.3,0,2,0.7,2,2.5c0,1.8-1,2.8-2.2,2.8
		c-0.4,0-0.8-0.1-1.1-0.3v1.9H169V12.8z M172.3,15.2c0-0.9-0.2-1.4-0.9-1.4c-0.4,0-0.7,0.2-0.8,0.4v2.3c0.2,0.2,0.5,0.3,0.8,0.3
		C172,16.8,172.3,16.1,172.3,15.2z"/>
	<path id="XMLID_173_" class="st0" d="M174.6,16.5V11h1.5v5.4c0,0.3,0.1,0.4,0.3,0.4c0.2,0,0.4-0.1,0.4-0.2v1.1
		c-0.1,0.1-0.4,0.3-0.9,0.3C175,17.9,174.6,17.4,174.6,16.5z"/>
	<path id="XMLID_170_" class="st0" d="M177.2,16.4c0-1,0.7-1.4,2.1-1.6l0.7-0.1c0-0.7-0.3-0.9-1-0.9c-0.7,0-1.4,0.4-1.6,0.9v-1.4
		c0.2-0.3,0.8-0.7,1.9-0.7c1.4,0,2.2,0.6,2.2,2.1v3h-1.3l-0.1-0.4c-0.1,0.3-0.5,0.6-1.2,0.6C177.9,17.9,177.2,17.4,177.2,16.4z
		 M180.1,15.6l-0.6,0.1c-0.7,0.1-0.9,0.3-0.9,0.7c0,0.3,0.2,0.5,0.6,0.5c0.4,0,0.7-0.2,0.9-0.3V15.6z"/>
	<path id="XMLID_168_" class="st0" d="M182.3,15.3c0-1.8,1.2-2.6,2.5-2.6c0.7,0,1.3,0.2,1.5,0.4v1.3c-0.3-0.4-0.7-0.5-1.3-0.5
		c-0.8,0-1.2,0.5-1.2,1.4c0,0.9,0.4,1.4,1.2,1.4c0.6,0,1-0.2,1.3-0.5v1.3c-0.2,0.2-0.8,0.5-1.5,0.5
		C183.3,17.9,182.3,17.1,182.3,15.3z"/>
	<path id="XMLID_165_" class="st0" d="M186.9,15.3c0-1.8,1.2-2.6,2.4-2.6c1.2,0,2.3,0.5,2.3,2.4v0.6h-3.2c0.1,0.6,0.4,1,1.4,1
		c0.8,0,1.4-0.3,1.6-0.6v1.2c-0.3,0.3-0.9,0.6-1.9,0.6C187.9,17.9,186.9,17.1,186.9,15.3z M190.2,14.8L190.2,14.8c0-0.6-0.3-1-0.9-1
		c-0.6,0-0.9,0.5-0.9,1H190.2z"/>
	<path id="XMLID_162_" class="st0" d="M193.7,17.4l-0.2,0.4h-1.1V11h1.5v2.2c0.1-0.2,0.6-0.5,1.3-0.5c1.2,0,2,0.7,2,2.5
		c0,1.8-1,2.8-2.2,2.8C194.3,17.9,193.9,17.7,193.7,17.4z M193.9,16.4c0.2,0.2,0.5,0.3,0.8,0.3c0.7,0,1-0.7,1-1.6s-0.2-1.4-0.9-1.4
		c-0.4,0-0.7,0.2-0.8,0.4V16.4z"/>
	<path id="XMLID_159_" class="st0" d="M197.7,15.3c0-1.8,1.2-2.6,2.6-2.6c1.4,0,2.5,0.8,2.5,2.6c0,1.9-1.2,2.6-2.6,2.6
		C198.8,17.9,197.7,17.1,197.7,15.3z M201.3,15.3c0-0.9-0.3-1.4-1-1.4c-0.7,0-1,0.6-1,1.4c0,0.9,0.3,1.4,1,1.4
		C201,16.7,201.3,16.1,201.3,15.3z"/>
	<path id="XMLID_157_" class="st0" d="M203.5,14.4h2.4v1.2h-2.4V14.4z"/>
	<path id="XMLID_154_" class="st0" d="M208.9,16.4c0-1,0.7-1.4,2.1-1.6l0.7-0.1c0-0.7-0.3-0.9-1-0.9c-0.7,0-1.4,0.4-1.6,0.9v-1.4
		c0.2-0.3,0.8-0.7,1.9-0.7c1.4,0,2.2,0.6,2.2,2.1v3h-1.3l-0.1-0.4c-0.1,0.3-0.5,0.6-1.2,0.6C209.6,17.9,208.9,17.4,208.9,16.4z
		 M211.7,15.6l-0.6,0.1c-0.7,0.1-0.9,0.3-0.9,0.7c0,0.3,0.2,0.5,0.6,0.5c0.4,0,0.7-0.2,0.9-0.3V15.6z"/>
	<path id="XMLID_152_" class="st0" d="M214.2,12.8h1.3l0.1,0.4c0.2-0.3,0.7-0.6,1.3-0.6c1.3,0,1.8,0.7,1.8,2v3.1h-1.5v-2.9
		c0-0.8-0.2-1.1-0.8-1.1c-0.4,0-0.7,0.2-0.8,0.4v3.6h-1.5V12.8z"/>
	<path id="XMLID_149_" class="st0" d="M219.5,15.3c0-1.8,0.9-2.7,2.2-2.7c0.4,0,0.8,0.1,1.1,0.3v-2h1.5v6.8H223l-0.1-0.4
		c-0.2,0.3-0.6,0.6-1.3,0.6C220.4,17.9,219.5,17.1,219.5,15.3z M222.8,14.1c-0.2-0.2-0.5-0.3-0.8-0.3c-0.7,0-1,0.7-1,1.6
		s0.2,1.4,0.9,1.4c0.4,0,0.7-0.2,0.8-0.4V14.1z"/>
	<path id="XMLID_147_" class="st0" d="M227.5,12.8h1.2l0.1,0.7c0.1-0.5,0.5-0.8,1-0.8c0.3,0,0.4,0.1,0.5,0.1v1.3
		c-0.1-0.1-0.3-0.1-0.6-0.1c-0.4,0-0.6,0.2-0.7,0.4v3.4h-1.5V12.8z"/>
	<path id="XMLID_144_" class="st0" d="M230.9,11.6c0-0.4,0.3-0.7,0.8-0.7c0.5,0,0.8,0.3,0.8,0.7c0,0.4-0.3,0.7-0.8,0.7
		C231.2,12.3,230.9,12,230.9,11.6z M230.9,12.8h1.5v5h-1.5V12.8z"/>
	<path id="XMLID_142_" class="st0" d="M233.3,17.5v-1.3c0.3,0.3,0.8,0.6,1.5,0.6c0.6,0,0.8-0.2,0.8-0.5c0-0.3-0.1-0.4-0.7-0.5
		l-0.3,0c-1-0.1-1.5-0.7-1.5-1.5c0-0.9,0.6-1.6,2.1-1.6c0.8,0,1.3,0.2,1.6,0.4v1.3c-0.3-0.4-0.8-0.5-1.5-0.5c-0.6,0-0.8,0.2-0.8,0.4
		s0.1,0.4,0.6,0.5l0.3,0c1.1,0.2,1.6,0.6,1.6,1.5c0,0.9-0.6,1.7-2.2,1.7C234.1,17.9,233.6,17.7,233.3,17.5z"/>
	<path id="XMLID_139_" class="st0" d="M237.8,12.8h1.3l0.1,0.4c0.2-0.3,0.6-0.6,1.3-0.6c1.3,0,2,0.7,2,2.5c0,1.8-1,2.8-2.2,2.8
		c-0.4,0-0.8-0.1-1.1-0.3v1.9h-1.5V12.8z M241.1,15.2c0-0.9-0.2-1.4-0.9-1.4c-0.4,0-0.7,0.2-0.8,0.4v2.3c0.2,0.2,0.5,0.3,0.8,0.3
		C240.8,16.8,241.1,16.1,241.1,15.2z"/>
	<path id="XMLID_136_" class="st0" d="M243.1,15.3c0-1.8,1.2-2.6,2.4-2.6c1.2,0,2.3,0.5,2.3,2.4v0.6h-3.2c0.1,0.6,0.4,1,1.4,1
		c0.8,0,1.4-0.3,1.6-0.6v1.2c-0.3,0.3-0.9,0.6-1.9,0.6C244.1,17.9,243.1,17.1,243.1,15.3z M246.5,14.8L246.5,14.8c0-0.6-0.3-1-0.9-1
		c-0.6,0-0.9,0.5-0.9,1H246.5z"/>
	<path id="XMLID_134_" class="st0" d="M248.7,12.8h1.2l0.1,0.7c0.1-0.5,0.5-0.8,1-0.8c0.3,0,0.4,0.1,0.5,0.1v1.3
		c-0.1-0.1-0.3-0.1-0.6-0.1c-0.4,0-0.6,0.2-0.7,0.4v3.4h-1.5V12.8z"/>
	<path id="XMLID_131_" class="st0" d="M252.1,11.6c0-0.4,0.3-0.7,0.8-0.7c0.5,0,0.8,0.3,0.8,0.7c0,0.4-0.3,0.7-0.8,0.7
		C252.4,12.3,252.1,12,252.1,11.6z M252.1,12.8h1.5v5h-1.5V12.8z"/>
	<path id="XMLID_128_" class="st0" d="M254.4,15.3c0-1.8,0.9-2.7,2.2-2.7c0.4,0,0.8,0.1,1.1,0.3v-2h1.5v6.8h-1.3l-0.1-0.4
		c-0.2,0.3-0.6,0.6-1.3,0.6C255.3,17.9,254.4,17.1,254.4,15.3z M257.7,14.1c-0.2-0.2-0.5-0.3-0.8-0.3c-0.7,0-1,0.7-1,1.6
		s0.2,1.4,0.9,1.4c0.4,0,0.7-0.2,0.8-0.4V14.1z"/>
	<path id="XMLID_125_" class="st0" d="M260,15.3c0-1.8,1.2-2.6,2.6-2.6c1.4,0,2.5,0.8,2.5,2.6c0,1.9-1.2,2.6-2.6,2.6
		C261,17.9,260,17.1,260,15.3z M263.5,15.3c0-0.9-0.3-1.4-1-1.4c-0.7,0-1,0.6-1,1.4c0,0.9,0.3,1.4,1,1.4
		C263.2,16.7,263.5,16.1,263.5,15.3z"/>
	<path id="XMLID_123_" class="st0" d="M265.8,12.8h1.3l0.1,0.4c0.2-0.3,0.7-0.6,1.3-0.6c1.3,0,1.8,0.7,1.8,2v3.1h-1.5v-2.9
		c0-0.8-0.2-1.1-0.8-1.1c-0.4,0-0.7,0.2-0.8,0.4v3.6h-1.5V12.8z"/>
	<path id="XMLID_120_" class="st0" d="M271.1,15.3c0-1.8,1.2-2.6,2.4-2.6c1.2,0,2.3,0.5,2.3,2.4v0.6h-3.2c0.1,0.6,0.4,1,1.4,1
		c0.8,0,1.4-0.3,1.6-0.6v1.2c-0.3,0.3-0.9,0.6-1.9,0.6C272.1,17.9,271.1,17.1,271.1,15.3z M274.4,14.8L274.4,14.8c0-0.6-0.3-1-0.9-1
		c-0.6,0-0.9,0.5-0.9,1H274.4z"/>
	<path id="XMLID_118_" class="st0" d="M276.6,14.4h2.4v1.2h-2.4V14.4z"/>
	<path id="XMLID_116_" class="st0" d="M279.8,15.3c0-1.8,1.2-2.6,2.5-2.6c0.7,0,1.3,0.2,1.5,0.4v1.3c-0.3-0.4-0.7-0.5-1.3-0.5
		c-0.8,0-1.2,0.5-1.2,1.4c0,0.9,0.4,1.4,1.2,1.4c0.6,0,1-0.2,1.3-0.5v1.3c-0.2,0.2-0.8,0.5-1.5,0.5
		C280.8,17.9,279.8,17.1,279.8,15.3z"/>
	<path id="XMLID_113_" class="st0" d="M284.4,15.3c0-1.8,1.2-2.6,2.6-2.6c1.4,0,2.5,0.8,2.5,2.6c0,1.9-1.2,2.6-2.6,2.6
		C285.4,17.9,284.4,17.1,284.4,15.3z M287.9,15.3c0-0.9-0.3-1.4-1-1.4c-0.7,0-1,0.6-1,1.4c0,0.9,0.3,1.4,1,1.4
		C287.6,16.7,287.9,16.1,287.9,15.3z"/>
	<path id="XMLID_111_" class="st0" d="M290.2,12.8h1.3l0.1,0.4c0.2-0.3,0.7-0.6,1.3-0.6c1.3,0,1.8,0.7,1.8,2v3.1h-1.5v-2.9
		c0-0.8-0.2-1.1-0.8-1.1c-0.4,0-0.7,0.2-0.8,0.4v3.6h-1.5V12.8z"/>
	<path id="XMLID_109_" class="st0" d="M296,16.3v-2.4h-0.6v-0.5l0.5-0.6l0.9-1.2h0.7v1.2h1.2v1.2h-1.2v2.3c0,0.4,0.1,0.5,0.4,0.5
		c0.3,0,0.6-0.2,0.7-0.4v1.2c-0.2,0.2-0.5,0.4-1.1,0.4C296.5,17.9,296,17.3,296,16.3z"/>
	<path id="XMLID_107_" class="st0" d="M299.4,12.8h1.2l0.1,0.7c0.1-0.5,0.5-0.8,1-0.8c0.3,0,0.4,0.1,0.5,0.1v1.3
		c-0.1-0.1-0.3-0.1-0.6-0.1c-0.4,0-0.6,0.2-0.7,0.4v3.4h-1.5V12.8z"/>
	<path id="XMLID_104_" class="st0" d="M302.6,15.3c0-1.8,1.2-2.6,2.6-2.6c1.4,0,2.5,0.8,2.5,2.6c0,1.9-1.2,2.6-2.6,2.6
		C303.6,17.9,302.6,17.1,302.6,15.3z M306.1,15.3c0-0.9-0.3-1.4-1-1.4c-0.7,0-1,0.6-1,1.4c0,0.9,0.3,1.4,1,1.4
		C305.8,16.7,306.1,16.1,306.1,15.3z"/>
	<path id="XMLID_102_" class="st0" d="M308.4,16.5V11h1.5v5.4c0,0.3,0.1,0.4,0.3,0.4c0.2,0,0.4-0.1,0.4-0.2v1.1
		c-0.1,0.1-0.4,0.3-0.9,0.3C308.8,17.9,308.4,17.4,308.4,16.5z"/>
	<path id="XMLID_100_" class="st0" d="M311.2,16.5V11h1.5v5.4c0,0.3,0.1,0.4,0.3,0.4c0.2,0,0.4-0.1,0.4-0.2v1.1
		c-0.1,0.1-0.4,0.3-0.9,0.3C311.7,17.9,311.2,17.4,311.2,16.5z"/>
	<path id="XMLID_97_" class="st0" d="M313.9,15.3c0-1.8,1.2-2.6,2.4-2.6c1.2,0,2.3,0.5,2.3,2.4v0.6h-3.2c0.1,0.6,0.4,1,1.4,1
		c0.8,0,1.4-0.3,1.6-0.6v1.2c-0.3,0.3-0.9,0.6-1.9,0.6C314.9,17.9,313.9,17.1,313.9,15.3z M317.2,14.8L317.2,14.8c0-0.6-0.3-1-0.9-1
		c-0.6,0-0.9,0.5-0.9,1H317.2z"/>
	<path id="XMLID_94_" class="st0" d="M319.2,15.3c0-1.8,0.9-2.7,2.2-2.7c0.4,0,0.8,0.1,1.1,0.3v-2h1.5v6.8h-1.3l-0.1-0.4
		c-0.2,0.3-0.6,0.6-1.3,0.6C320,17.9,319.2,17.1,319.2,15.3z M322.5,14.1c-0.2-0.2-0.5-0.3-0.8-0.3c-0.7,0-1,0.7-1,1.6
		s0.2,1.4,0.9,1.4c0.4,0,0.7-0.2,0.8-0.4V14.1z"/>
	<path id="XMLID_92_" class="st0" d="M327.4,16.3v-2.4h-0.6v-0.5l0.5-0.6l0.9-1.2h0.7v1.2h1.2v1.2h-1.2v2.3c0,0.4,0.1,0.5,0.4,0.5
		c0.3,0,0.6-0.2,0.7-0.4v1.2c-0.2,0.2-0.5,0.4-1.1,0.4C327.8,17.9,327.4,17.3,327.4,16.3z"/>
	<path id="XMLID_90_" class="st0" d="M330.8,12.8h1.2l0.1,0.7c0.1-0.5,0.5-0.8,1-0.8c0.3,0,0.4,0.1,0.5,0.1v1.3
		c-0.1-0.1-0.3-0.1-0.6-0.1c-0.4,0-0.6,0.2-0.7,0.4v3.4h-1.5V12.8z"/>
	<path id="XMLID_87_" class="st0" d="M334.3,11.6c0-0.4,0.3-0.7,0.8-0.7c0.5,0,0.8,0.3,0.8,0.7c0,0.4-0.3,0.7-0.8,0.7
		C334.5,12.3,334.3,12,334.3,11.6z M334.3,12.8h1.5v5h-1.5V12.8z"/>
	<path id="XMLID_84_" class="st0" d="M336.5,16.4c0-1,0.7-1.4,2.1-1.6l0.7-0.1c0-0.7-0.3-0.9-1-0.9c-0.7,0-1.4,0.4-1.6,0.9v-1.4
		c0.2-0.3,0.8-0.7,1.9-0.7c1.4,0,2.2,0.6,2.2,2.1v3h-1.3l-0.1-0.4c-0.1,0.3-0.5,0.6-1.2,0.6C337.2,17.9,336.5,17.4,336.5,16.4z
		 M339.4,15.6l-0.6,0.1c-0.7,0.1-0.9,0.3-0.9,0.7c0,0.3,0.2,0.5,0.6,0.5c0.4,0,0.7-0.2,0.9-0.3V15.6z"/>
	<path id="XMLID_82_" class="st0" d="M341.8,16.5V11h1.5v5.4c0,0.3,0.1,0.4,0.3,0.4c0.2,0,0.4-0.1,0.4-0.2v1.1
		c-0.1,0.1-0.4,0.3-0.9,0.3C342.3,17.9,341.8,17.4,341.8,16.5z"/>
	<path id="XMLID_80_" class="st0" d="M344.5,17c0-0.5,0.4-0.9,0.9-0.9c0.5,0,0.9,0.4,0.9,0.9c0,0.5-0.4,0.9-0.9,0.9
		C344.9,17.9,344.5,17.5,344.5,17z"/>
	<path id="XMLID_78_" class="st0" d="M349,17.6v-1.5c0.2,0.3,0.6,0.5,1,0.5c0.6,0,0.9-0.3,0.9-1.1v-4h1.5v4.1c0,1.6-1,2.2-2.2,2.2
		C349.5,17.9,349.2,17.7,349,17.6z"/>
	<path id="XMLID_76_" class="st0" d="M355.4,14.7c0-2.1,1.3-3.2,3-3.2c1,0,1.5,0.3,1.8,0.5v1.5c-0.3-0.5-0.8-0.7-1.6-0.7
		c-1.1,0-1.6,0.7-1.6,1.9c0,1.2,0.6,2,1.6,2c0.7,0,1.3-0.2,1.6-0.7v1.4c-0.3,0.3-1,0.6-1.8,0.6C356.5,17.9,355.4,16.8,355.4,14.7z"
		/>
	<path id="XMLID_74_" class="st0" d="M361,16.5V11h1.5v5.4c0,0.3,0.1,0.4,0.3,0.4c0.2,0,0.4-0.1,0.4-0.2v1.1
		c-0.1,0.1-0.4,0.3-0.9,0.3C361.4,17.9,361,17.4,361,16.5z"/>
	<path id="XMLID_71_" class="st0" d="M363.8,11.6c0-0.4,0.3-0.7,0.8-0.7c0.5,0,0.8,0.3,0.8,0.7c0,0.4-0.3,0.7-0.8,0.7
		C364.1,12.3,363.8,12,363.8,11.6z M363.9,12.8h1.5v5h-1.5V12.8z"/>
	<path id="XMLID_69_" class="st0" d="M366.4,12.8h1.3l0.1,0.4c0.2-0.3,0.7-0.6,1.3-0.6c1.3,0,1.8,0.7,1.8,2v3.1h-1.5v-2.9
		c0-0.8-0.2-1.1-0.8-1.1c-0.4,0-0.7,0.2-0.8,0.4v3.6h-1.5V12.8z"/>
	<path id="XMLID_67_" class="st0" d="M374.2,11.6h2.1c1.8,0,2.6,0.8,2.6,2.1c0,1.3-0.8,2.3-2.6,2.3h-0.3v-1.1h0.3
		c0.7,0,1.1-0.4,1.1-1.1c0-0.7-0.4-1-1.1-1h-0.5v5h-1.5V11.6z"/>
	<path id="XMLID_65_" class="st0" d="M379.4,17.5v-1.3c0.3,0.3,0.8,0.6,1.5,0.6c0.6,0,0.8-0.2,0.8-0.5c0-0.3-0.1-0.4-0.7-0.5l-0.3,0
		c-1-0.1-1.5-0.7-1.5-1.5c0-0.9,0.6-1.6,2.1-1.6c0.8,0,1.3,0.2,1.6,0.4v1.3c-0.3-0.4-0.8-0.5-1.5-0.5c-0.6,0-0.8,0.2-0.8,0.4
		s0.1,0.4,0.6,0.5l0.3,0c1.1,0.2,1.6,0.6,1.6,1.5c0,0.9-0.6,1.7-2.2,1.7C380.2,17.9,379.7,17.7,379.4,17.5z"/>
	<path id="XMLID_63_" class="st0" d="M383.7,19.4v-1.2c0.2,0.2,0.5,0.4,0.9,0.4c0.3,0,0.6-0.1,0.9-0.7l-2-5.1h1.6l1,3.3l0.9-3.3h1.4
		l-1.4,4.7c-0.4,1.2-1,2.2-2.3,2.2C384.2,19.7,383.8,19.5,383.7,19.4z"/>
	<path id="XMLID_61_" class="st0" d="M388.6,15.3c0-1.8,1.2-2.6,2.5-2.6c0.7,0,1.3,0.2,1.5,0.4v1.3c-0.3-0.4-0.7-0.5-1.3-0.5
		c-0.8,0-1.2,0.5-1.2,1.4c0,0.9,0.4,1.4,1.2,1.4c0.6,0,1-0.2,1.3-0.5v1.3c-0.2,0.2-0.8,0.5-1.5,0.5
		C389.6,17.9,388.6,17.1,388.6,15.3z"/>
	<path id="XMLID_59_" class="st0" d="M393.4,11h1.5v2.2c0.2-0.3,0.7-0.5,1.3-0.5c1.3,0,1.8,0.7,1.8,2v3.1h-1.5v-2.9
		c0-0.8-0.2-1.1-0.8-1.1c-0.4,0-0.7,0.2-0.8,0.4v3.6h-1.5V11z"/>
	<path id="XMLID_57_" class="st0" d="M398.8,17c0-0.5,0.4-0.9,0.9-0.9c0.5,0,0.9,0.4,0.9,0.9c0,0.5-0.4,0.9-0.9,0.9
		C399.2,17.9,398.8,17.5,398.8,17z"/>
	<path id="XMLID_55_" class="st0" d="M403.5,17.4l1.8-2.3c0.4-0.4,0.7-0.9,0.7-1.5c0-0.6-0.3-0.9-1-0.9c-0.6,0-1.2,0.3-1.5,0.7v-1.3
		c0.3-0.3,0.9-0.6,1.8-0.6c1.5,0,2.2,0.7,2.2,2c0,1-0.6,1.8-1.2,2.4l-0.5,0.6h1.8v1.3h-4V17.4z"/>
	<path id="XMLID_52_" class="st0" d="M408.1,14.7c0-2.1,1.5-3.2,3.2-3.2c1.9,0,3.1,1.1,3.1,3.2c0,2.1-1.4,3.2-3.1,3.2
		C409.3,17.9,408.1,16.7,408.1,14.7z M412.8,14.7c0-1.3-0.7-2-1.6-2s-1.6,0.7-1.6,2c0,1.3,0.7,2,1.6,2S412.8,16,412.8,14.7z"/>
	<path id="XMLID_49_" class="st0" d="M415,14.7c0-2.1,1.5-3.2,3.2-3.2c1.9,0,3.1,1.1,3.1,3.2c0,2.1-1.4,3.2-3.1,3.2
		C416.2,17.9,415,16.7,415,14.7z M419.7,14.7c0-1.3-0.7-2-1.6-2s-1.6,0.7-1.6,2c0,1.3,0.7,2,1.6,2S419.7,16,419.7,14.7z"/>
	<path id="XMLID_47_" class="st0" d="M424.2,12.9h-2.5v-1.3h4.2v0.3l-2.1,5.9h-1.5L424.2,12.9z"/>
	<path id="XMLID_44_" class="st0" d="M426.4,19.1c0.2-0.3,0.4-0.8,0.5-1.3c-0.3-0.1-0.5-0.4-0.5-0.8c0-0.5,0.4-0.9,0.9-0.9
		c0.5,0,0.8,0.4,0.8,0.9c0,0.8-0.7,1.8-1.1,2.1L426.4,19.1z M426.5,13.8c0-0.5,0.4-0.9,0.9-0.9c0.5,0,0.9,0.4,0.9,0.9
		c0,0.5-0.4,0.9-0.9,0.9C426.8,14.6,426.5,14.3,426.5,13.8z"/>
	<path id="XMLID_41_" class="st0" d="M428.9,15.4c0-2.1,1.2-3.3,2.3-3.8h1.9v0.1c-0.9,0.4-1.8,1-2.3,2c0.2-0.1,0.5-0.2,0.8-0.2
		c1.2,0,2,0.7,2,2.1c0,1.4-0.9,2.3-2.4,2.3C429.8,17.9,428.9,17,428.9,15.4z M432.1,15.7c0-0.6-0.3-1-0.8-1c-0.4,0-0.7,0.2-0.8,0.3
		c0,0.2,0,0.4,0,0.6c0,0.7,0.3,1.1,0.8,1.1C431.9,16.7,432.1,16.3,432.1,15.7z"/>
	<path id="XMLID_37_" class="st0" d="M434.2,16.1c0-0.7,0.4-1.2,1-1.4c-0.4-0.2-0.8-0.7-0.8-1.4c0-1.1,0.9-1.8,2.3-1.8
		c1.4,0,2.1,0.7,2.1,1.8c0,0.7-0.4,1.1-0.8,1.4c0.5,0.2,0.9,0.7,0.9,1.5c0,1-0.8,1.8-2.4,1.8C434.9,17.9,434.2,17.1,434.2,16.1z
		 M437.4,16c0-0.4-0.3-0.7-0.8-0.7c-0.6,0-0.8,0.3-0.8,0.7c0,0.4,0.3,0.7,0.8,0.7C437.1,16.7,437.4,16.4,437.4,16z M437.3,13.4
		c0-0.4-0.3-0.7-0.8-0.7c-0.5,0-0.7,0.3-0.7,0.7c0,0.4,0.3,0.7,0.7,0.7C437,14.1,437.3,13.8,437.3,13.4z"/>
	<path id="XMLID_35_" class="st0" d="M439.5,15c0-1.6,0.8-3.1,1.9-3.7h1.3c-1.1,0.6-1.9,1.9-1.9,3.7c0,1.8,0.9,3.2,1.8,3.9h-1.3
		C440.3,18.3,439.5,16.7,439.5,15z"/>
	<path id="XMLID_33_" class="st0" d="M443.8,13.4c-0.2,0.2-0.8,0.3-1.3,0.3v-1.3c0.9,0,1.5-0.2,2-0.8h0.8v6.2h-1.4V13.4z"/>
	<path id="XMLID_30_" class="st0" d="M446.1,14.7c0-2.1,1.5-3.2,3.2-3.2c1.9,0,3.1,1.1,3.1,3.2c0,2.1-1.4,3.2-3.1,3.2
		C447.3,17.9,446.1,16.7,446.1,14.7z M450.9,14.7c0-1.3-0.7-2-1.6-2s-1.6,0.7-1.6,2c0,1.3,0.7,2,1.6,2S450.9,16,450.9,14.7z"/>
	<path id="XMLID_28_" class="st0" d="M454.1,15.1c0-1.8-0.8-3.2-1.8-3.8h1.2c1.1,0.6,1.9,2.2,1.9,3.8c0,1.6-0.8,3.1-1.9,3.7h-1.3
		C453.3,18.2,454.1,16.9,454.1,15.1z"/>
	<path id="XMLID_25_" class="st0" d="M456.1,13.8c0-0.5,0.4-0.9,0.9-0.9c0.5,0,0.9,0.4,0.9,0.9c0,0.5-0.4,0.9-0.9,0.9
		C456.4,14.6,456.1,14.3,456.1,13.8z M456.1,17c0-0.5,0.4-0.9,0.9-0.9c0.5,0,0.9,0.4,0.9,0.9c0,0.5-0.4,0.9-0.9,0.9
		C456.4,17.9,456.1,17.6,456.1,17z"/>
	<path id="XMLID_23_" class="st0" d="M459.7,13.4c-0.2,0.2-0.8,0.3-1.3,0.3v-1.3c0.9,0,1.5-0.2,2-0.8h0.8v6.2h-1.4V13.4z"/>
	<path id="XMLID_21_" class="st0" d="M464.8,16.6h-3v-0.3l1.8-4.7h1.4l-1.3,3.7h1.2l0.2-2.1h1.2v2.1h0.6v1.3h-0.6v1.2h-1.4V16.6z"/>
	<path id="XMLID_18_" class="st0" d="M467.8,17.7c0.9-0.4,1.8-1,2.3-2c-0.2,0.1-0.5,0.2-0.8,0.2c-1.2,0-2-0.7-2-2.1s0.9-2.3,2.4-2.3
		c1.4,0,2.3,0.9,2.3,2.5c0,2.1-1.2,3.4-2.2,3.8L467.8,17.7L467.8,17.7z M470.5,14.3c0-0.2,0-0.4,0-0.6c0-0.7-0.3-1.1-0.8-1.1
		c-0.5,0-0.8,0.4-0.8,1c0,0.6,0.3,1,0.8,1C470.1,14.7,470.3,14.5,470.5,14.3z"/>
	<path id="XMLID_16_" class="st0" d="M472.7,17.4l1.8-2.3c0.4-0.4,0.7-0.9,0.7-1.5c0-0.6-0.3-0.9-1-0.9c-0.6,0-1.2,0.3-1.5,0.7v-1.3
		c0.3-0.3,0.9-0.6,1.8-0.6c1.5,0,2.2,0.7,2.2,2c0,1-0.6,1.8-1.2,2.4l-0.5,0.6h1.8v1.3h-4V17.4z"/>
	<path id="XMLID_14_" class="st0" d="M477.5,14.4h5.4v1.1h-5.4V14.4z"/>
	<path id="XMLID_12_" class="st0" d="M484.9,13.4c-0.2,0.2-0.8,0.3-1.3,0.3v-1.3c0.9,0,1.5-0.2,2-0.8h0.8v6.2h-1.4V13.4z"/>
	<path id="XMLID_10_" class="st0" d="M487.3,17.6v-1.3c0.3,0.2,0.7,0.4,1.4,0.4c0.8,0,1.2-0.3,1.2-0.8c0-0.5-0.3-0.7-1.2-0.7
		c-0.5,0-0.9,0.1-1.2,0.2l0.1-3.8h3.6v1.3h-2.3l0,1.2c0.1,0,0.3,0,0.4,0c1.4,0,2.1,0.6,2.1,1.8c0,1.3-1.1,2.1-2.6,2.1
		C488,17.9,487.5,17.8,487.3,17.6z"/>
	<path id="XMLID_7_" class="st0" d="M492,14.7c0-2.1,1.5-3.2,3.2-3.2c1.9,0,3.1,1.1,3.1,3.2c0,2.1-1.4,3.2-3.1,3.2
		C493.2,17.9,492,16.7,492,14.7z M496.8,14.7c0-1.3-0.7-2-1.6-2s-1.6,0.7-1.6,2c0,1.3,0.7,2,1.6,2S496.8,16,496.8,14.7z"/>
	<path id="XMLID_4_" class="st0" d="M498.9,14.7c0-2.1,1.5-3.2,3.2-3.2c1.9,0,3.1,1.1,3.1,3.2c0,2.1-1.4,3.2-3.1,3.2
		C500.1,17.9,498.9,16.7,498.9,14.7z M503.7,14.7c0-1.3-0.7-2-1.6-2s-1.6,0.7-1.6,2c0,1.3,0.7,2,1.6,2S503.7,16,503.7,14.7z"/>
	<path id="XMLID_2_" class="st0" d="M505.7,17c0-0.5,0.4-0.9,0.9-0.9c0.5,0,0.9,0.4,0.9,0.9c0,0.5-0.4,0.9-0.9,0.9
		C506.1,17.9,505.7,17.5,505.7,17z"/>
</g>
</svg>
