<!-- Generator: Adobe Illustrator 22.1.0, SVG Export Plug-In  -->
<svg version="1.1"
	 xmlns="http://www.w3.org/2000/svg" xmlns:xlink="http://www.w3.org/1999/xlink" xmlns:a="http://ns.adobe.com/AdobeSVGViewerExtensions/3.0/"
	 x="0px" y="0px" width="153.2px" height="23.4px" viewBox="0 0 153.2 23.4" style="enable-background:new 0 0 153.2 23.4;"
	 xml:space="preserve">
<style type="text/css">
	.st0{fill:#231F20;}
</style>
<defs>
</defs>
<g id="XMLID_1_">
	<path id="XMLID_251_" class="st0" d="M1.1,1.9L0.5,2.3L0.1,1.7l0.7-0.4L0.1,1l0.5-0.6l0.6,0.4l0-0.7h0.8l0,0.7l0.6-0.4L3,0.9
		L2.2,1.3L3,1.7L2.5,2.3L1.9,1.9l0,0.7H1.1L1.1,1.9z"/>
	<path id="XMLID_249_" class="st0" d="M4.6,1.9L4,2.3L3.6,1.7l0.7-0.4L3.5,1L4,0.3l0.6,0.4l0-0.7h0.8l0,0.7L6,0.3l0.4,0.6L5.7,1.3
		l0.7,0.4L6,2.3L5.4,1.9l0,0.7H4.6L4.6,1.9z"/>
	<path id="XMLID_246_" class="st0" d="M9.1,1.5h1.1l0.1,0.3c0.1-0.2,0.5-0.4,1.1-0.4c1.1,0,1.8,0.5,1.8,1.9c0,1.4-0.8,2.1-1.9,2.1
		c-0.3,0-0.7-0.1-0.9-0.3v1.5H9.1V1.5z M11.9,3.3c0-0.7-0.2-1.1-0.8-1.1c-0.4,0-0.6,0.1-0.7,0.3v1.7c0.2,0.2,0.4,0.2,0.7,0.2
		C11.6,4.6,11.9,4,11.9,3.3z"/>
	<path id="XMLID_244_" class="st0" d="M13.6,2.9L13.6,2.9l3.7-2.1v1.1l-1.8,1l1.8,1v1L13.6,2.9z"/>
	<path id="XMLID_241_" class="st0" d="M18.1,2.9c0-1.6,1.3-2.5,2.7-2.5c1.7,0,2.7,0.9,2.7,2.5c0,1.6-1.3,2.5-2.7,2.5
		C19.2,5.4,18.1,4.5,18.1,2.9z M22.2,2.9c0-1-0.6-1.5-1.4-1.5s-1.4,0.5-1.4,1.5c0,1,0.6,1.5,1.4,1.5S22.2,3.9,22.2,2.9z"/>
	<path id="XMLID_239_" class="st0" d="M24,4.7C24,4.4,24.3,4,24.8,4c0.4,0,0.8,0.3,0.8,0.7s-0.3,0.7-0.8,0.7C24.3,5.4,24,5.1,24,4.7
		z"/>
	<path id="XMLID_236_" class="st0" d="M26.1,2.9c0-1.6,1.3-2.5,2.7-2.5c1.7,0,2.7,0.9,2.7,2.5c0,1.6-1.3,2.5-2.7,2.5
		C27.2,5.4,26.1,4.5,26.1,2.9z M30.2,2.9c0-1-0.6-1.5-1.4-1.5s-1.4,0.5-1.4,1.5c0,1,0.6,1.5,1.4,1.5S30.2,3.9,30.2,2.9z"/>
	<path id="XMLID_234_" class="st0" d="M32.1,5.2v-1c0.2,0.1,0.6,0.3,1.2,0.3c0.7,0,1-0.2,1-0.6c0-0.3-0.2-0.5-1-0.5
		c-0.5,0-0.8,0.1-1,0.2l0.1-2.9h3.1v1h-2l0,0.9c0.1,0,0.2,0,0.4,0c1.2,0,1.8,0.4,1.8,1.4c0,1-0.9,1.6-2.3,1.6
		C32.7,5.4,32.4,5.3,32.1,5.2z"/>
	<path id="XMLID_232_" class="st0" d="M36.3,6.3c0.1-0.2,0.3-0.7,0.4-1c-0.2-0.1-0.4-0.3-0.4-0.6c0-0.4,0.3-0.7,0.8-0.7
		c0.4,0,0.7,0.3,0.7,0.7c0,0.7-0.6,1.4-0.9,1.6L36.3,6.3z"/>
	<path id="XMLID_229_" class="st0" d="M40.2,4.3c0-0.8,0.6-1.1,1.8-1.3L42.7,3c0-0.5-0.3-0.7-0.9-0.7c-0.6,0-1.2,0.3-1.4,0.7V1.9
		c0.2-0.2,0.7-0.5,1.6-0.5c1.2,0,1.9,0.5,1.9,1.7v2.3h-1.1L42.7,5c-0.1,0.2-0.5,0.4-1.1,0.4C40.8,5.4,40.2,5.1,40.2,4.3z M42.7,3.7
		l-0.5,0.1c-0.6,0.1-0.8,0.2-0.8,0.5c0,0.3,0.2,0.4,0.5,0.4c0.3,0,0.6-0.1,0.7-0.3V3.7z"/>
	<path id="XMLID_227_" class="st0" d="M44.7,5.1v-1C45,4.3,45.4,4.5,46,4.5c0.6,0,0.7-0.2,0.7-0.4c0-0.2-0.1-0.3-0.6-0.3l-0.2,0
		c-0.9-0.1-1.3-0.5-1.3-1.2c0-0.7,0.5-1.3,1.8-1.3c0.7,0,1.1,0.1,1.3,0.3v1c-0.3-0.3-0.7-0.4-1.3-0.4c-0.5,0-0.7,0.1-0.7,0.3
		s0.1,0.3,0.5,0.4l0.2,0c1,0.1,1.4,0.4,1.4,1.2c0,0.7-0.5,1.3-1.9,1.3C45.4,5.4,44.9,5.3,44.7,5.1z"/>
	<path id="XMLID_224_" class="st0" d="M48.4,3.4c0-1.4,1-2,2.1-2c1,0,2,0.4,2,1.9v0.5h-2.8c0,0.4,0.4,0.8,1.2,0.8
		c0.7,0,1.2-0.2,1.4-0.4v1c-0.2,0.2-0.7,0.4-1.6,0.4C49.2,5.4,48.4,4.8,48.4,3.4z M51.3,3L51.3,3c0-0.5-0.2-0.8-0.8-0.8
		c-0.5,0-0.8,0.4-0.8,0.8H51.3z"/>
	<path id="XMLID_222_" class="st0" d="M53.2,1.5h1.1l0.1,0.3c0.2-0.3,0.6-0.4,1.1-0.4c1.1,0,1.6,0.5,1.6,1.6v2.4h-1.3V3.1
		c0-0.6-0.2-0.9-0.7-0.9c-0.4,0-0.6,0.2-0.7,0.3v2.8h-1.3V1.5z"/>
	<path id="XMLID_219_" class="st0" d="M57.8,4.3c0-0.8,0.6-1.1,1.8-1.3L60.2,3c0-0.5-0.3-0.7-0.9-0.7c-0.6,0-1.2,0.3-1.4,0.7V1.9
		c0.2-0.2,0.7-0.5,1.6-0.5c1.2,0,1.9,0.5,1.9,1.7v2.3h-1.1L60.3,5c-0.1,0.2-0.5,0.4-1.1,0.4C58.4,5.4,57.8,5.1,57.8,4.3z M60.2,3.7
		l-0.5,0.1C59.2,3.9,59,4,59,4.3c0,0.3,0.2,0.4,0.5,0.4c0.3,0,0.6-0.1,0.7-0.3V3.7z"/>
	<path id="XMLID_216_" class="st0" d="M62.4,1.5h1.1l0.1,0.3c0.1-0.2,0.5-0.4,1.1-0.4c1.1,0,1.8,0.5,1.8,1.9c0,1.4-0.8,2.1-1.9,2.1
		c-0.3,0-0.7-0.1-0.9-0.3v1.5h-1.3V1.5z M65.2,3.3c0-0.7-0.2-1.1-0.8-1.1c-0.4,0-0.6,0.1-0.7,0.3v1.7c0.2,0.2,0.4,0.2,0.7,0.2
		C65,4.6,65.2,4,65.2,3.3z"/>
	<path id="XMLID_213_" class="st0" d="M67.2,0.5c0-0.3,0.2-0.5,0.7-0.5c0.4,0,0.7,0.2,0.7,0.5c0,0.3-0.3,0.5-0.7,0.5
		C67.4,1.1,67.2,0.9,67.2,0.5z M67.2,1.5h1.3v3.9h-1.3V1.5z"/>
	<path id="XMLID_211_" class="st0" d="M69.4,1.5h1.1l0.1,0.3c0.2-0.3,0.6-0.4,1.1-0.4c1.1,0,1.6,0.5,1.6,1.6v2.4H72V3.1
		c0-0.6-0.2-0.9-0.7-0.9c-0.4,0-0.6,0.2-0.7,0.3v2.8h-1.3V1.5z"/>
	<path id="XMLID_208_" class="st0" d="M74,3.4c0-1.4,1-2,2.1-2c1,0,2,0.4,2,1.9v0.5h-2.8c0,0.4,0.4,0.8,1.2,0.8
		c0.7,0,1.2-0.2,1.4-0.4v1c-0.2,0.2-0.7,0.4-1.6,0.4C74.8,5.4,74,4.8,74,3.4z M76.9,3L76.9,3c0-0.5-0.2-0.8-0.8-0.8
		c-0.5,0-0.8,0.4-0.8,0.8H76.9z"/>
	<path id="XMLID_206_" class="st0" d="M80.2,1.5h1.4l0.7,1.8l0.1,0.4c0-0.1,0.1-0.3,0.1-0.4l0.7-1.8h1.2l-1.7,3.9h-0.9L80.2,1.5z"/>
	<path id="XMLID_203_" class="st0" d="M84.6,3.4c0-1.4,1-2,2.1-2c1,0,2,0.4,2,1.9v0.5H86c0,0.4,0.4,0.8,1.2,0.8
		c0.7,0,1.2-0.2,1.4-0.4v1c-0.2,0.2-0.7,0.4-1.6,0.4C85.5,5.4,84.6,4.8,84.6,3.4z M87.5,3L87.5,3c0-0.5-0.2-0.8-0.8-0.8
		C86.3,2.2,86,2.6,86,3H87.5z"/>
	<path id="XMLID_201_" class="st0" d="M89.4,1.5h1.1L90.6,2c0.1-0.4,0.4-0.6,0.8-0.6c0.2,0,0.4,0.1,0.4,0.1v1
		c-0.1-0.1-0.3-0.1-0.5-0.1c-0.3,0-0.5,0.1-0.6,0.3v2.6h-1.3V1.5z"/>
	<path id="XMLID_199_" class="st0" d="M92.3,5.1v-1c0.3,0.2,0.7,0.4,1.3,0.4c0.6,0,0.7-0.2,0.7-0.4c0-0.2-0.1-0.3-0.6-0.3l-0.2,0
		c-0.9-0.1-1.3-0.5-1.3-1.2c0-0.7,0.5-1.3,1.8-1.3c0.7,0,1.1,0.1,1.3,0.3v1c-0.3-0.3-0.7-0.4-1.3-0.4c-0.5,0-0.7,0.1-0.7,0.3
		s0.1,0.3,0.5,0.4l0.2,0c1,0.1,1.4,0.4,1.4,1.2c0,0.7-0.5,1.3-1.9,1.3C93,5.4,92.5,5.3,92.3,5.1z"/>
	<path id="XMLID_197_" class="st0" d="M96.2,3.9V1.5h1.3v2.2c0,0.6,0.1,0.9,0.6,0.9c0.4,0,0.6-0.2,0.7-0.3V1.5h1.3v3.9h-1.1L98.8,5
		c-0.2,0.2-0.6,0.4-1.1,0.4C96.6,5.4,96.2,4.9,96.2,3.9z"/>
	<path id="XMLID_195_" class="st0" d="M100.8,5.1v-1c0.3,0.2,0.7,0.4,1.3,0.4c0.6,0,0.7-0.2,0.7-0.4c0-0.2-0.1-0.3-0.6-0.3l-0.2,0
		c-0.9-0.1-1.3-0.5-1.3-1.2c0-0.7,0.5-1.3,1.8-1.3c0.7,0,1.1,0.1,1.3,0.3v1c-0.3-0.3-0.7-0.4-1.3-0.4c-0.5,0-0.7,0.1-0.7,0.3
		s0.1,0.3,0.5,0.4l0.2,0c1,0.1,1.4,0.4,1.4,1.2c0,0.7-0.5,1.3-1.9,1.3C101.5,5.4,101.1,5.3,100.8,5.1z"/>
	<path id="XMLID_192_" class="st0" d="M106.6,1.5h1.1l0.1,0.3c0.1-0.2,0.5-0.4,1.1-0.4c1.1,0,1.8,0.5,1.8,1.9c0,1.4-0.8,2.1-1.9,2.1
		c-0.3,0-0.7-0.1-0.9-0.3v1.5h-1.3V1.5z M109.4,3.3c0-0.7-0.2-1.1-0.8-1.1c-0.4,0-0.6,0.1-0.7,0.3v1.7c0.2,0.2,0.4,0.2,0.7,0.2
		C109.2,4.6,109.4,4,109.4,3.3z"/>
	<path id="XMLID_190_" class="st0" d="M111.4,4.4V0.1h1.3v4.2c0,0.2,0.1,0.3,0.3,0.3s0.3-0.1,0.4-0.2v0.9c-0.1,0.1-0.4,0.2-0.8,0.2
		C111.8,5.4,111.4,5.1,111.4,4.4z"/>
	<path id="XMLID_187_" class="st0" d="M113.7,4.3c0-0.8,0.6-1.1,1.8-1.3l0.6-0.1c0-0.5-0.3-0.7-0.9-0.7c-0.6,0-1.2,0.3-1.4,0.7V1.9
		c0.2-0.2,0.7-0.5,1.6-0.5c1.2,0,1.9,0.5,1.9,1.7v2.3h-1.1L116.2,5c-0.1,0.2-0.5,0.4-1.1,0.4C114.3,5.4,113.7,5.1,113.7,4.3z
		 M116.1,3.7l-0.5,0.1c-0.6,0.1-0.8,0.2-0.8,0.5c0,0.3,0.2,0.4,0.5,0.4c0.3,0,0.6-0.1,0.7-0.3V3.7z"/>
	<path id="XMLID_185_" class="st0" d="M118.1,3.4c0-1.4,1-2,2.2-2c0.6,0,1.1,0.2,1.3,0.3v1c-0.3-0.3-0.6-0.4-1.1-0.4
		c-0.7,0-1,0.4-1,1.1c0,0.7,0.4,1.1,1,1.1c0.5,0,0.8-0.2,1.1-0.4v1c-0.2,0.2-0.7,0.4-1.3,0.4C119,5.4,118.1,4.8,118.1,3.4z"/>
	<path id="XMLID_182_" class="st0" d="M122.1,3.4c0-1.4,1-2,2.1-2c1,0,2,0.4,2,1.9v0.5h-2.8c0,0.4,0.4,0.8,1.2,0.8
		c0.7,0,1.2-0.2,1.4-0.4v1c-0.2,0.2-0.7,0.4-1.6,0.4C122.9,5.4,122.1,4.8,122.1,3.4z M125,3L125,3c0-0.5-0.2-0.8-0.8-0.8
		c-0.5,0-0.8,0.4-0.8,0.8H125z"/>
	<path id="XMLID_179_" class="st0" d="M128,5.1l-0.2,0.3h-1V0.1h1.3v1.7c0.1-0.2,0.5-0.4,1.1-0.4c1.1,0,1.7,0.5,1.7,1.9
		c0,1.4-0.8,2.1-1.9,2.1C128.5,5.4,128.2,5.2,128,5.1z M128.1,4.3c0.2,0.2,0.4,0.3,0.7,0.3c0.6,0,0.8-0.5,0.8-1.2
		c0-0.7-0.2-1.1-0.8-1.1c-0.4,0-0.6,0.1-0.7,0.3V4.3z"/>
	<path id="XMLID_176_" class="st0" d="M131.5,3.4c0-1.4,1-2,2.2-2c1.3,0,2.1,0.6,2.1,2c0,1.4-1,2-2.2,2
		C132.3,5.4,131.5,4.8,131.5,3.4z M134.5,3.4c0-0.7-0.3-1.1-0.9-1.1c-0.6,0-0.9,0.4-0.9,1.1c0,0.7,0.3,1.1,0.9,1.1
		C134.3,4.5,134.5,4.1,134.5,3.4z"/>
	<path id="XMLID_174_" class="st0" d="M138.2,3.2c0-1.2,0.7-2.4,1.6-2.8h1.1c-1,0.5-1.6,1.5-1.6,2.8c0,1.4,0.7,2.5,1.6,3h-1.1
		C138.8,5.7,138.2,4.5,138.2,3.2z"/>
	<path id="XMLID_172_" class="st0" d="M141.4,1L141,0.6h1.6l2.1,2.8h0V0.6h1.2v4.8h-1l-2.3-3h0v3h-1.2V1z"/>
	<path id="XMLID_170_" class="st0" d="M146.8,5.1V3.9c0.3,0.3,0.8,0.5,1.4,0.5c0.6,0,0.9-0.2,0.9-0.5c0-0.3-0.2-0.4-0.7-0.5l-0.2,0
		c-0.9-0.2-1.4-0.6-1.4-1.4c0-1,0.8-1.5,2-1.5c0.8,0,1.2,0.2,1.5,0.3V2c-0.3-0.3-0.8-0.5-1.5-0.5c-0.5,0-0.7,0.1-0.7,0.5
		c0,0.3,0.1,0.4,0.6,0.5l0.2,0c0.9,0.2,1.5,0.5,1.5,1.4c0,1-0.7,1.6-2.1,1.6C147.4,5.4,147,5.2,146.8,5.1z"/>
	<path id="XMLID_168_" class="st0" d="M152.1,3.3c0-1.4-0.7-2.4-1.6-2.9h1.1c1,0.4,1.6,1.7,1.6,2.9c0,1.2-0.7,2.4-1.6,2.9h-1.1
		C151.4,5.7,152.1,4.7,152.1,3.3z"/>
	<path id="XMLID_165_" class="st0" d="M0.2,14.4v-1.1c0.3,0.3,0.7,0.5,1.4,0.5c0.6,0,0.9-0.1,0.9-0.4c0-0.2-0.3-0.3-0.8-0.4l-0.2,0
		c-0.8-0.1-1.5-0.4-1.5-1.2c0-0.5,0.3-0.8,0.7-1c-0.3-0.2-0.5-0.4-0.5-0.9c0-0.9,0.8-1.3,2-1.3c0.7,0,1.2,0.1,1.4,0.3v1.1
		C3.4,9.7,2.9,9.5,2.2,9.5c-0.5,0-0.8,0-0.8,0.3c0,0.2,0.2,0.3,0.7,0.4l0.2,0c0.9,0.1,1.5,0.4,1.5,1.2c0,0.5-0.3,0.9-0.7,1.1
		c0.3,0.1,0.5,0.4,0.5,0.8c0,0.9-0.8,1.4-2.2,1.4C0.9,14.7,0.4,14.6,0.2,14.4z M2.1,12.1l0.2,0c0.1,0,0.4-0.2,0.4-0.5
		c0-0.3-0.2-0.4-0.5-0.4l-0.4-0.1c-0.1,0-0.2,0-0.2,0c-0.1,0.1-0.3,0.2-0.3,0.5c0,0.3,0.2,0.4,0.4,0.4L2.1,12.1z"/>
	<path id="XMLID_162_" class="st0" d="M4.6,14.4v-1.1c0.3,0.3,0.7,0.5,1.4,0.5c0.6,0,0.9-0.1,0.9-0.4c0-0.2-0.3-0.3-0.8-0.4L6,13
		c-0.8-0.1-1.5-0.4-1.5-1.2c0-0.5,0.3-0.8,0.7-1c-0.3-0.2-0.5-0.4-0.5-0.9c0-0.9,0.8-1.3,2-1.3c0.7,0,1.2,0.1,1.4,0.3v1.1
		C7.8,9.7,7.3,9.5,6.6,9.5c-0.5,0-0.8,0-0.8,0.3c0,0.2,0.2,0.3,0.7,0.4l0.2,0c0.9,0.1,1.5,0.4,1.5,1.2c0,0.5-0.3,0.9-0.7,1.1
		c0.3,0.1,0.5,0.4,0.5,0.8c0,0.9-0.8,1.4-2.2,1.4C5.3,14.7,4.8,14.6,4.6,14.4z M6.5,12.1l0.2,0c0.1,0,0.4-0.2,0.4-0.5
		c0-0.3-0.2-0.4-0.5-0.4l-0.4-0.1c-0.1,0-0.2,0-0.2,0c-0.1,0.1-0.3,0.2-0.3,0.5c0,0.3,0.2,0.4,0.4,0.4L6.5,12.1z"/>
	<path id="XMLID_159_" class="st0" d="M10.9,9.8H12l0.1,0.3c0.1-0.2,0.5-0.4,1.1-0.4c1.1,0,1.8,0.5,1.8,1.9c0,1.4-0.8,2.1-1.9,2.1
		c-0.3,0-0.7-0.1-0.9-0.3V15h-1.3V9.8z M13.7,11.7c0-0.7-0.2-1.1-0.8-1.1c-0.4,0-0.6,0.1-0.7,0.3v1.7c0.2,0.2,0.4,0.2,0.7,0.2
		C13.5,12.9,13.7,12.4,13.7,11.7z"/>
	<path id="XMLID_156_" class="st0" d="M15.5,10.8L15.5,10.8l3.7-1.7v1l-1.6,0.7l1.6,0.7v1.1L15.5,10.8z M15.7,12.8h3.6v0.9h-3.6
		V12.8z"/>
	<path id="XMLID_153_" class="st0" d="M20,11.3c0-1.6,1.3-2.5,2.7-2.5c1.7,0,2.7,0.9,2.7,2.5c0,1.6-1.3,2.5-2.7,2.5
		C21,13.8,20,12.9,20,11.3z M24.1,11.3c0-1-0.6-1.5-1.4-1.5s-1.4,0.5-1.4,1.5c0,1,0.6,1.5,1.4,1.5S24.1,12.3,24.1,11.3z"/>
	<path id="XMLID_151_" class="st0" d="M25.9,13.1c0-0.4,0.3-0.7,0.8-0.7c0.4,0,0.8,0.3,0.8,0.7s-0.3,0.7-0.8,0.7
		C26.2,13.8,25.9,13.5,25.9,13.1z"/>
	<path id="XMLID_148_" class="st0" d="M28,11.3c0-1.6,1.3-2.5,2.7-2.5c1.7,0,2.7,0.9,2.7,2.5c0,1.6-1.3,2.5-2.7,2.5
		C29,13.8,28,12.9,28,11.3z M32.1,11.3c0-1-0.6-1.5-1.4-1.5s-1.4,0.5-1.4,1.5c0,1,0.6,1.5,1.4,1.5S32.1,12.3,32.1,11.3z"/>
	<path id="XMLID_145_" class="st0" d="M34,11.3c0-1.6,1.3-2.5,2.7-2.5c1.7,0,2.7,0.9,2.7,2.5c0,1.6-1.3,2.5-2.7,2.5
		C35,13.8,34,12.9,34,11.3z M38.1,11.3c0-1-0.6-1.5-1.4-1.5s-1.4,0.5-1.4,1.5c0,1,0.6,1.5,1.4,1.5S38.1,12.3,38.1,11.3z"/>
	<path id="XMLID_143_" class="st0" d="M40,13.6v-1c0.2,0.1,0.6,0.3,1.2,0.3c0.7,0,1-0.2,1-0.6c0-0.3-0.2-0.5-1-0.5
		c-0.5,0-0.8,0.1-1,0.2l0.1-2.9h3.1v1h-2l0,0.9c0.1,0,0.2,0,0.4,0c1.2,0,1.8,0.4,1.8,1.4c0,1-0.9,1.6-2.3,1.6
		C40.6,13.8,40.2,13.7,40,13.6z"/>
	<path id="XMLID_141_" class="st0" d="M44.1,14.7c0.1-0.2,0.3-0.7,0.4-1c-0.2-0.1-0.4-0.3-0.4-0.6c0-0.4,0.3-0.7,0.8-0.7
		c0.4,0,0.7,0.3,0.7,0.7c0,0.7-0.6,1.4-0.9,1.6L44.1,14.7z"/>
	<path id="XMLID_138_" class="st0" d="M48.1,12.6c0-0.8,0.6-1.1,1.8-1.3l0.6-0.1c0-0.5-0.3-0.7-0.9-0.7c-0.6,0-1.2,0.3-1.4,0.7v-1.1
		c0.2-0.2,0.7-0.5,1.6-0.5c1.2,0,1.9,0.5,1.9,1.7v2.3h-1.1l-0.1-0.3c-0.1,0.2-0.5,0.4-1.1,0.4C48.7,13.8,48.1,13.4,48.1,12.6z
		 M50.5,12L50,12.1c-0.6,0.1-0.8,0.2-0.8,0.5c0,0.3,0.2,0.4,0.5,0.4c0.3,0,0.6-0.1,0.7-0.3V12z"/>
	<path id="XMLID_136_" class="st0" d="M52.6,13.5v-1c0.3,0.2,0.7,0.4,1.3,0.4c0.6,0,0.7-0.2,0.7-0.4c0-0.2-0.1-0.3-0.6-0.3l-0.2,0
		c-0.9-0.1-1.3-0.5-1.3-1.2c0-0.7,0.5-1.3,1.8-1.3c0.7,0,1.1,0.1,1.3,0.3v1c-0.3-0.3-0.7-0.4-1.3-0.4c-0.5,0-0.7,0.1-0.7,0.3
		s0.1,0.3,0.5,0.4l0.2,0c1,0.1,1.4,0.4,1.4,1.2c0,0.7-0.5,1.3-1.9,1.3C53.2,13.8,52.8,13.6,52.6,13.5z"/>
	<path id="XMLID_133_" class="st0" d="M56.2,11.7c0-1.4,1-2,2.1-2c1,0,2,0.4,2,1.9v0.5h-2.8c0,0.4,0.4,0.8,1.2,0.8
		c0.7,0,1.2-0.2,1.4-0.4v1c-0.2,0.2-0.7,0.4-1.6,0.4C57.1,13.8,56.2,13.1,56.2,11.7z M59.1,11.4L59.1,11.4c0-0.5-0.2-0.8-0.8-0.8
		c-0.5,0-0.8,0.4-0.8,0.8H59.1z"/>
	<path id="XMLID_131_" class="st0" d="M61,9.8h1.1l0.1,0.3c0.2-0.3,0.6-0.4,1.1-0.4c1.1,0,1.6,0.5,1.6,1.6v2.4h-1.3v-2.2
		c0-0.6-0.2-0.9-0.7-0.9c-0.4,0-0.6,0.2-0.7,0.3v2.8H61V9.8z"/>
	<path id="XMLID_128_" class="st0" d="M65.6,12.6c0-0.8,0.6-1.1,1.8-1.3l0.6-0.1c0-0.5-0.3-0.7-0.9-0.7c-0.6,0-1.2,0.3-1.4,0.7v-1.1
		c0.2-0.2,0.7-0.5,1.6-0.5c1.2,0,1.9,0.5,1.9,1.7v2.3h-1.1l-0.1-0.3c-0.1,0.2-0.5,0.4-1.1,0.4C66.2,13.8,65.6,13.4,65.6,12.6z
		 M68.1,12l-0.5,0.1c-0.6,0.1-0.8,0.2-0.8,0.5c0,0.3,0.2,0.4,0.5,0.4c0.3,0,0.6-0.1,0.7-0.3V12z"/>
	<path id="XMLID_125_" class="st0" d="M70.2,9.8h1.1l0.1,0.3c0.1-0.2,0.5-0.4,1.1-0.4c1.1,0,1.8,0.5,1.8,1.9c0,1.4-0.8,2.1-1.9,2.1
		c-0.3,0-0.7-0.1-0.9-0.3V15h-1.3V9.8z M73,11.7c0-0.7-0.2-1.1-0.8-1.1c-0.4,0-0.6,0.1-0.7,0.3v1.7c0.2,0.2,0.4,0.2,0.7,0.2
		C72.8,12.9,73,12.4,73,11.7z"/>
	<path id="XMLID_122_" class="st0" d="M75,8.9c0-0.3,0.2-0.5,0.7-0.5c0.4,0,0.7,0.2,0.7,0.5c0,0.3-0.3,0.5-0.7,0.5
		C75.3,9.4,75,9.2,75,8.9z M75,9.8h1.3v3.9H75V9.8z"/>
	<path id="XMLID_120_" class="st0" d="M77.2,9.8h1.1l0.1,0.3c0.2-0.3,0.6-0.4,1.1-0.4c1.1,0,1.6,0.5,1.6,1.6v2.4h-1.3v-2.2
		c0-0.6-0.2-0.9-0.7-0.9c-0.4,0-0.6,0.2-0.7,0.3v2.8h-1.3V9.8z"/>
	<path id="XMLID_117_" class="st0" d="M81.8,11.7c0-1.4,1-2,2.1-2c1,0,2,0.4,2,1.9v0.5h-2.8c0,0.4,0.4,0.8,1.2,0.8
		c0.7,0,1.2-0.2,1.4-0.4v1c-0.2,0.2-0.7,0.4-1.6,0.4C82.7,13.8,81.8,13.1,81.8,11.7z M84.7,11.4L84.7,11.4c0-0.5-0.2-0.8-0.8-0.8
		c-0.5,0-0.8,0.4-0.8,0.8H84.7z"/>
	<path id="XMLID_115_" class="st0" d="M88.1,9.8h1.4l0.7,1.8l0.1,0.4c0-0.1,0.1-0.3,0.1-0.4l0.7-1.8h1.2l-1.7,3.9h-0.9L88.1,9.8z"/>
	<path id="XMLID_112_" class="st0" d="M92.5,11.7c0-1.4,1-2,2.1-2c1,0,2,0.4,2,1.9v0.5h-2.8c0,0.4,0.4,0.8,1.2,0.8
		c0.7,0,1.2-0.2,1.4-0.4v1c-0.2,0.2-0.7,0.4-1.6,0.4C93.3,13.8,92.5,13.1,92.5,11.7z M95.4,11.4L95.4,11.4c0-0.5-0.2-0.8-0.8-0.8
		c-0.5,0-0.8,0.4-0.8,0.8H95.4z"/>
	<path id="XMLID_110_" class="st0" d="M97.3,9.8h1.1l0.1,0.5c0.1-0.4,0.4-0.6,0.8-0.6c0.2,0,0.4,0.1,0.4,0.1v1
		c-0.1-0.1-0.3-0.1-0.5-0.1c-0.3,0-0.5,0.1-0.6,0.3v2.6h-1.3V9.8z"/>
	<path id="XMLID_108_" class="st0" d="M100.1,13.5v-1c0.3,0.2,0.7,0.4,1.3,0.4c0.6,0,0.7-0.2,0.7-0.4c0-0.2-0.1-0.3-0.6-0.3l-0.2,0
		c-0.9-0.1-1.3-0.5-1.3-1.2c0-0.7,0.5-1.3,1.8-1.3c0.7,0,1.1,0.1,1.3,0.3v1c-0.3-0.3-0.7-0.4-1.3-0.4c-0.5,0-0.7,0.1-0.7,0.3
		s0.1,0.3,0.5,0.4l0.2,0c1,0.1,1.4,0.4,1.4,1.2c0,0.7-0.5,1.3-1.9,1.3C100.8,13.8,100.4,13.6,100.1,13.5z"/>
	<path id="XMLID_106_" class="st0" d="M104,12.2V9.8h1.3V12c0,0.6,0.1,0.9,0.6,0.9c0.4,0,0.6-0.2,0.7-0.3V9.8h1.3v3.9h-1.1l-0.1-0.3
		c-0.2,0.2-0.6,0.4-1.1,0.4C104.4,13.8,104,13.3,104,12.2z"/>
	<path id="XMLID_104_" class="st0" d="M108.7,13.5v-1c0.3,0.2,0.7,0.4,1.3,0.4c0.6,0,0.7-0.2,0.7-0.4c0-0.2-0.1-0.3-0.6-0.3l-0.2,0
		c-0.9-0.1-1.3-0.5-1.3-1.2c0-0.7,0.5-1.3,1.8-1.3c0.7,0,1.1,0.1,1.3,0.3v1c-0.3-0.3-0.7-0.4-1.3-0.4c-0.5,0-0.7,0.1-0.7,0.3
		s0.1,0.3,0.5,0.4l0.2,0c1,0.1,1.4,0.4,1.4,1.2c0,0.7-0.5,1.3-1.9,1.3C109.4,13.8,108.9,13.6,108.7,13.5z"/>
	<path id="XMLID_101_" class="st0" d="M114.5,9.8h1.1l0.1,0.3c0.1-0.2,0.5-0.4,1.1-0.4c1.1,0,1.8,0.5,1.8,1.9c0,1.4-0.8,2.1-1.9,2.1
		c-0.3,0-0.7-0.1-0.9-0.3V15h-1.3V9.8z M117.3,11.7c0-0.7-0.2-1.1-0.8-1.1c-0.4,0-0.6,0.1-0.7,0.3v1.7c0.2,0.2,0.4,0.2,0.7,0.2
		C117,12.9,117.3,12.4,117.3,11.7z"/>
	<path id="XMLID_99_" class="st0" d="M119.3,12.7V8.4h1.3v4.2c0,0.2,0.1,0.3,0.3,0.3s0.3-0.1,0.4-0.2v0.9c-0.1,0.1-0.4,0.2-0.8,0.2
		C119.6,13.8,119.3,13.4,119.3,12.7z"/>
	<path id="XMLID_96_" class="st0" d="M121.5,12.6c0-0.8,0.6-1.1,1.8-1.3l0.6-0.1c0-0.5-0.3-0.7-0.9-0.7c-0.6,0-1.2,0.3-1.4,0.7v-1.1
		c0.2-0.2,0.7-0.5,1.6-0.5c1.2,0,1.9,0.5,1.9,1.7v2.3h-1.1l-0.1-0.3c-0.1,0.2-0.5,0.4-1.1,0.4C122.2,13.8,121.5,13.4,121.5,12.6z
		 M124,12l-0.5,0.1c-0.6,0.1-0.8,0.2-0.8,0.5c0,0.3,0.2,0.4,0.5,0.4c0.3,0,0.6-0.1,0.7-0.3V12z"/>
	<path id="XMLID_94_" class="st0" d="M125.9,11.7c0-1.4,1-2,2.2-2c0.6,0,1.1,0.2,1.3,0.3v1c-0.3-0.3-0.6-0.4-1.1-0.4
		c-0.7,0-1,0.4-1,1.1c0,0.7,0.4,1.1,1,1.1c0.5,0,0.8-0.2,1.1-0.4v1c-0.2,0.2-0.7,0.4-1.3,0.4C126.8,13.8,125.9,13.1,125.9,11.7z"/>
	<path id="XMLID_91_" class="st0" d="M129.9,11.7c0-1.4,1-2,2.1-2c1,0,2,0.4,2,1.9v0.5h-2.8c0,0.4,0.4,0.8,1.2,0.8
		c0.7,0,1.2-0.2,1.4-0.4v1c-0.2,0.2-0.7,0.4-1.6,0.4C130.8,13.8,129.9,13.1,129.9,11.7z M132.8,11.4L132.8,11.4
		c0-0.5-0.2-0.8-0.8-0.8c-0.5,0-0.8,0.4-0.8,0.8H132.8z"/>
	<path id="XMLID_88_" class="st0" d="M135.8,13.4l-0.2,0.3h-1V8.4h1.3v1.7c0.1-0.2,0.5-0.4,1.1-0.4c1.1,0,1.7,0.5,1.7,1.9
		c0,1.4-0.8,2.1-1.9,2.1C136.3,13.8,136,13.6,135.8,13.4z M136,12.6c0.2,0.2,0.4,0.3,0.7,0.3c0.6,0,0.8-0.5,0.8-1.2
		c0-0.7-0.2-1.1-0.8-1.1c-0.4,0-0.6,0.1-0.7,0.3V12.6z"/>
	<path id="XMLID_85_" class="st0" d="M139.3,11.7c0-1.4,1-2,2.2-2c1.3,0,2.1,0.6,2.1,2c0,1.4-1,2-2.2,2
		C140.2,13.8,139.3,13.2,139.3,11.7z M142.4,11.7c0-0.7-0.3-1.1-0.9-1.1c-0.6,0-0.9,0.4-0.9,1.1c0,0.7,0.3,1.1,0.9,1.1
		C142.1,12.8,142.4,12.4,142.4,11.7z"/>
	<path id="XMLID_82_" class="st0" d="M0.4,18.5h1.1l0.3-1.3h0.7l-0.3,1.3h0.9l0.3-1.3h0.7l-0.3,1.3H5L4.9,19H3.8l-0.2,1.1h1.1
		l-0.1,0.5H3.5L3.2,22H2.5l0.3-1.4H1.8L1.5,22H0.8l0.3-1.4H0l0.1-0.5h1.1L1.4,19H0.3L0.4,18.5z M1.9,20.1h0.9L3.1,19H2.2L1.9,20.1z"
		/>
	<path id="XMLID_79_" class="st0" d="M5.9,18.5H7l0.3-1.3H8l-0.3,1.3h0.9l0.3-1.3h0.7l-0.3,1.3h1.1L10.4,19H9.3L9,20.1h1.1L10,20.6
		H8.9L8.6,22H7.9l0.3-1.4H7.3L7,22H6.3l0.3-1.4H5.5l0.1-0.5h1.1L6.9,19H5.8L5.9,18.5z M7.4,20.1h0.9L8.6,19H7.6L7.4,20.1z"/>
	<path id="XMLID_76_" class="st0" d="M13,18.1h1.1l0.1,0.3c0.1-0.2,0.5-0.4,1.1-0.4c1.1,0,1.8,0.5,1.8,1.9c0,1.4-0.8,2.1-1.9,2.1
		c-0.3,0-0.7-0.1-0.9-0.3v1.5H13V18.1z M15.9,20c0-0.7-0.2-1.1-0.8-1.1c-0.4,0-0.6,0.1-0.7,0.3V21c0.2,0.2,0.4,0.2,0.7,0.2
		C15.6,21.2,15.9,20.7,15.9,20z"/>
	<path id="XMLID_73_" class="st0" d="M17.8,18.2h3.5v0.9h-3.5V18.2z M17.8,19.8h3.5v0.9h-3.5V19.8z"/>
	<path id="XMLID_70_" class="st0" d="M23.9,19.6c0-1.6,1.3-2.5,2.7-2.5c1.7,0,2.7,0.9,2.7,2.5c0,1.6-1.3,2.5-2.7,2.5
		C25,22.1,23.9,21.2,23.9,19.6z M28,19.6c0-1-0.6-1.5-1.4-1.5s-1.4,0.5-1.4,1.5c0,1,0.6,1.5,1.4,1.5S28,20.6,28,19.6z"/>
	<path id="XMLID_68_" class="st0" d="M29.8,21.4c0-0.4,0.3-0.7,0.8-0.7c0.4,0,0.8,0.3,0.8,0.7s-0.3,0.7-0.8,0.7
		C30.2,22.1,29.8,21.8,29.8,21.4z"/>
	<path id="XMLID_65_" class="st0" d="M31.9,19.6c0-1.6,1.3-2.5,2.7-2.5c1.7,0,2.7,0.9,2.7,2.5c0,1.6-1.3,2.5-2.7,2.5
		C33,22.1,31.9,21.2,31.9,19.6z M36,19.6c0-1-0.6-1.5-1.4-1.5s-1.4,0.5-1.4,1.5c0,1,0.6,1.5,1.4,1.5S36,20.6,36,19.6z"/>
	<path id="XMLID_62_" class="st0" d="M37.9,19.6c0-1.6,1.3-2.5,2.7-2.5c1.7,0,2.7,0.9,2.7,2.5c0,1.6-1.3,2.5-2.7,2.5
		C39,22.1,37.9,21.2,37.9,19.6z M42,19.6c0-1-0.6-1.5-1.4-1.5s-1.4,0.5-1.4,1.5c0,1,0.6,1.5,1.4,1.5S42,20.6,42,19.6z"/>
	<path id="XMLID_60_" class="st0" d="M44.9,18.6c-0.2,0.2-0.7,0.2-1.1,0.2v-1c0.8,0,1.3-0.2,1.7-0.6h0.7V22h-1.3V18.6z"/>
	<path id="XMLID_58_" class="st0" d="M47,23c0.1-0.2,0.3-0.7,0.4-1c-0.2-0.1-0.4-0.3-0.4-0.6c0-0.4,0.3-0.7,0.8-0.7
		c0.4,0,0.7,0.3,0.7,0.7c0,0.7-0.6,1.4-0.9,1.6L47,23z"/>
	<path id="XMLID_55_" class="st0" d="M50.9,21c0-0.8,0.6-1.1,1.8-1.3l0.6-0.1c0-0.5-0.3-0.7-0.9-0.7c-0.6,0-1.2,0.3-1.4,0.7v-1.1
		c0.2-0.2,0.7-0.5,1.6-0.5c1.2,0,1.9,0.5,1.9,1.7V22h-1.1l-0.1-0.3c-0.1,0.2-0.5,0.4-1.1,0.4C51.5,22.1,50.9,21.7,50.9,21z
		 M53.4,20.3l-0.5,0.1c-0.6,0.1-0.8,0.2-0.8,0.5c0,0.3,0.2,0.4,0.5,0.4c0.3,0,0.6-0.1,0.7-0.3V20.3z"/>
	<path id="XMLID_53_" class="st0" d="M55.4,21.8v-1c0.3,0.2,0.7,0.4,1.3,0.4c0.6,0,0.7-0.2,0.7-0.4c0-0.2-0.1-0.3-0.6-0.3l-0.2,0
		c-0.9-0.1-1.3-0.5-1.3-1.2c0-0.7,0.5-1.3,1.8-1.3c0.7,0,1.1,0.1,1.3,0.3v1c-0.3-0.3-0.7-0.4-1.3-0.4c-0.5,0-0.7,0.1-0.7,0.3
		s0.1,0.3,0.5,0.4l0.2,0c1,0.1,1.4,0.4,1.4,1.2c0,0.7-0.5,1.3-1.9,1.3C56.1,22.1,55.6,22,55.4,21.8z"/>
	<path id="XMLID_50_" class="st0" d="M59.1,20.1c0-1.4,1-2,2.1-2c1,0,2,0.4,2,1.9v0.5h-2.8c0,0.4,0.4,0.8,1.2,0.8
		c0.7,0,1.2-0.2,1.4-0.4v1c-0.2,0.2-0.7,0.4-1.6,0.4C59.9,22.1,59.1,21.5,59.1,20.1z M62,19.7L62,19.7c0-0.5-0.2-0.8-0.8-0.8
		c-0.5,0-0.8,0.4-0.8,0.8H62z"/>
	<path id="XMLID_48_" class="st0" d="M63.9,18.1H65l0.1,0.3c0.2-0.3,0.6-0.4,1.1-0.4c1.1,0,1.6,0.5,1.6,1.6V22h-1.3v-2.2
		c0-0.6-0.2-0.9-0.7-0.9c-0.4,0-0.6,0.2-0.7,0.3V22h-1.3V18.1z"/>
	<path id="XMLID_45_" class="st0" d="M68.5,21c0-0.8,0.6-1.1,1.8-1.3l0.6-0.1c0-0.5-0.3-0.7-0.9-0.7c-0.6,0-1.2,0.3-1.4,0.7v-1.1
		c0.2-0.2,0.7-0.5,1.6-0.5c1.2,0,1.9,0.5,1.9,1.7V22h-1.1L71,21.7c-0.1,0.2-0.5,0.4-1.1,0.4C69.1,22.1,68.5,21.7,68.5,21z
		 M70.9,20.3l-0.5,0.1c-0.6,0.1-0.8,0.2-0.8,0.5c0,0.3,0.2,0.4,0.5,0.4c0.3,0,0.6-0.1,0.7-0.3V20.3z"/>
	<path id="XMLID_42_" class="st0" d="M73.1,18.1h1.1l0.1,0.3c0.1-0.2,0.5-0.4,1.1-0.4c1.1,0,1.8,0.5,1.8,1.9c0,1.4-0.8,2.1-1.9,2.1
		c-0.3,0-0.7-0.1-0.9-0.3v1.5h-1.3V18.1z M75.9,20c0-0.7-0.2-1.1-0.8-1.1c-0.4,0-0.6,0.1-0.7,0.3V21c0.2,0.2,0.4,0.2,0.7,0.2
		C75.6,21.2,75.9,20.7,75.9,20z"/>
	<path id="XMLID_39_" class="st0" d="M77.9,17.2c0-0.3,0.2-0.5,0.7-0.5c0.4,0,0.7,0.2,0.7,0.5c0,0.3-0.3,0.5-0.7,0.5
		C78.1,17.8,77.9,17.6,77.9,17.2z M77.9,18.1h1.3V22h-1.3V18.1z"/>
	<path id="XMLID_37_" class="st0" d="M80.1,18.1h1.1l0.1,0.3c0.2-0.3,0.6-0.4,1.1-0.4c1.1,0,1.6,0.5,1.6,1.6V22h-1.3v-2.2
		c0-0.6-0.2-0.9-0.7-0.9c-0.4,0-0.6,0.2-0.7,0.3V22h-1.3V18.1z"/>
	<path id="XMLID_34_" class="st0" d="M84.7,20.1c0-1.4,1-2,2.1-2c1,0,2,0.4,2,1.9v0.5H86c0,0.4,0.4,0.8,1.2,0.8
		c0.7,0,1.2-0.2,1.4-0.4v1c-0.2,0.2-0.7,0.4-1.6,0.4C85.5,22.1,84.7,21.5,84.7,20.1z M87.6,19.7L87.6,19.7c0-0.5-0.2-0.8-0.8-0.8
		c-0.5,0-0.8,0.4-0.8,0.8H87.6z"/>
	<path id="XMLID_32_" class="st0" d="M90.9,18.1h1.4L93,20l0.1,0.4c0-0.1,0.1-0.3,0.1-0.4l0.7-1.8h1.2L93.5,22h-0.9L90.9,18.1z"/>
	<path id="XMLID_29_" class="st0" d="M95.3,20.1c0-1.4,1-2,2.1-2c1,0,2,0.4,2,1.9v0.5h-2.8c0,0.4,0.4,0.8,1.2,0.8
		c0.7,0,1.2-0.2,1.4-0.4v1c-0.2,0.2-0.7,0.4-1.6,0.4C96.2,22.1,95.3,21.5,95.3,20.1z M98.2,19.7L98.2,19.7c0-0.5-0.2-0.8-0.8-0.8
		c-0.5,0-0.8,0.4-0.8,0.8H98.2z"/>
	<path id="XMLID_27_" class="st0" d="M100.1,18.1h1.1l0.1,0.5c0.1-0.4,0.4-0.6,0.8-0.6c0.2,0,0.4,0.1,0.4,0.1v1
		c-0.1-0.1-0.3-0.1-0.5-0.1c-0.3,0-0.5,0.1-0.6,0.3V22h-1.3V18.1z"/>
	<path id="XMLID_25_" class="st0" d="M103,21.8v-1c0.3,0.2,0.7,0.4,1.3,0.4c0.6,0,0.7-0.2,0.7-0.4c0-0.2-0.1-0.3-0.6-0.3l-0.2,0
		c-0.9-0.1-1.3-0.5-1.3-1.2c0-0.7,0.5-1.3,1.8-1.3c0.7,0,1.1,0.1,1.3,0.3v1c-0.3-0.3-0.7-0.4-1.3-0.4c-0.5,0-0.7,0.1-0.7,0.3
		s0.1,0.3,0.5,0.4l0.2,0c1,0.1,1.4,0.4,1.4,1.2c0,0.7-0.5,1.3-1.9,1.3C103.7,22.1,103.2,22,103,21.8z"/>
	<path id="XMLID_23_" class="st0" d="M106.9,20.5v-2.4h1.3v2.2c0,0.6,0.1,0.9,0.6,0.9c0.4,0,0.6-0.2,0.7-0.3v-2.8h1.3V22h-1.1
		l-0.1-0.3c-0.2,0.2-0.6,0.4-1.1,0.4C107.3,22.1,106.9,21.6,106.9,20.5z"/>
	<path id="XMLID_21_" class="st0" d="M111.5,21.8v-1c0.3,0.2,0.7,0.4,1.3,0.4c0.6,0,0.7-0.2,0.7-0.4c0-0.2-0.1-0.3-0.6-0.3l-0.2,0
		c-0.9-0.1-1.3-0.5-1.3-1.2c0-0.7,0.5-1.3,1.8-1.3c0.7,0,1.1,0.1,1.3,0.3v1c-0.3-0.3-0.7-0.4-1.3-0.4c-0.5,0-0.7,0.1-0.7,0.3
		s0.1,0.3,0.5,0.4l0.2,0c1,0.1,1.4,0.4,1.4,1.2c0,0.7-0.5,1.3-1.9,1.3C112.2,22.1,111.8,22,111.5,21.8z"/>
	<path id="XMLID_18_" class="st0" d="M117.3,18.1h1.1l0.1,0.3c0.1-0.2,0.5-0.4,1.1-0.4c1.1,0,1.8,0.5,1.8,1.9c0,1.4-0.8,2.1-1.9,2.1
		c-0.3,0-0.7-0.1-0.9-0.3v1.5h-1.3V18.1z M120.1,20c0-0.7-0.2-1.1-0.8-1.1c-0.4,0-0.6,0.1-0.7,0.3V21c0.2,0.2,0.4,0.2,0.7,0.2
		C119.9,21.2,120.1,20.7,120.1,20z"/>
	<path id="XMLID_16_" class="st0" d="M122.1,21v-4.3h1.3v4.2c0,0.2,0.1,0.3,0.3,0.3s0.3-0.1,0.4-0.2v0.9c-0.1,0.1-0.4,0.2-0.8,0.2
		C122.5,22.1,122.1,21.7,122.1,21z"/>
	<path id="XMLID_13_" class="st0" d="M124.4,21c0-0.8,0.6-1.1,1.8-1.3l0.6-0.1c0-0.5-0.3-0.7-0.9-0.7c-0.6,0-1.2,0.3-1.4,0.7v-1.1
		c0.2-0.2,0.7-0.5,1.6-0.5c1.2,0,1.9,0.5,1.9,1.7V22H127l-0.1-0.3c-0.1,0.2-0.5,0.4-1.1,0.4C125,22.1,124.4,21.7,124.4,21z
		 M126.8,20.3l-0.5,0.1c-0.6,0.1-0.8,0.2-0.8,0.5c0,0.3,0.2,0.4,0.5,0.4c0.3,0,0.6-0.1,0.7-0.3V20.3z"/>
	<path id="XMLID_11_" class="st0" d="M128.8,20.1c0-1.4,1-2,2.2-2c0.6,0,1.1,0.2,1.3,0.3v1c-0.3-0.3-0.6-0.4-1.1-0.4
		c-0.7,0-1,0.4-1,1.1c0,0.7,0.4,1.1,1,1.1c0.5,0,0.8-0.2,1.1-0.4v1c-0.2,0.2-0.7,0.4-1.3,0.4C129.6,22.1,128.8,21.5,128.8,20.1z"/>
	<path id="XMLID_8_" class="st0" d="M132.8,20.1c0-1.4,1-2,2.1-2c1,0,2,0.4,2,1.9v0.5h-2.8c0,0.4,0.4,0.8,1.2,0.8
		c0.7,0,1.2-0.2,1.4-0.4v1c-0.2,0.2-0.7,0.4-1.6,0.4C133.6,22.1,132.8,21.5,132.8,20.1z M135.6,19.7L135.6,19.7
		c0-0.5-0.2-0.8-0.8-0.8c-0.5,0-0.8,0.4-0.8,0.8H135.6z"/>
	<path id="XMLID_5_" class="st0" d="M138.7,21.7l-0.2,0.3h-1v-5.3h1.3v1.7c0.1-0.2,0.5-0.4,1.1-0.4c1.1,0,1.7,0.5,1.7,1.9
		c0,1.4-0.8,2.1-1.9,2.1C139.1,22.1,138.8,21.9,138.7,21.7z M138.8,21c0.2,0.2,0.4,0.3,0.7,0.3c0.6,0,0.8-0.5,0.8-1.2
		c0-0.7-0.2-1.1-0.8-1.1c-0.4,0-0.6,0.1-0.7,0.3V21z"/>
	<path id="XMLID_2_" class="st0" d="M142.2,20.1c0-1.4,1-2,2.2-2c1.3,0,2.1,0.6,2.1,2c0,1.4-1,2-2.2,2
		C143,22.1,142.2,21.5,142.2,20.1z M145.2,20.1c0-0.7-0.3-1.1-0.9-1.1c-0.6,0-0.9,0.4-0.9,1.1c0,0.7,0.3,1.1,0.9,1.1
		C144.9,21.2,145.2,20.7,145.2,20.1z"/>
</g>
</svg>
