<!-- Generator: Adobe Illustrator 22.1.0, SVG Export Plug-In  -->
<svg version="1.1"
	 xmlns="http://www.w3.org/2000/svg" xmlns:xlink="http://www.w3.org/1999/xlink" xmlns:a="http://ns.adobe.com/AdobeSVGViewerExtensions/3.0/"
	 x="0px" y="0px" width="550.7px" height="8.9px" viewBox="0 0 550.7 8.9" style="enable-background:new 0 0 550.7 8.9;"
	 xml:space="preserve">
<style type="text/css">
	.st0{fill:#231F20;}
</style>
<defs>
</defs>
<g id="XMLID_1_">
	<g id="XMLID_3_">
		<path id="XMLID_275_" class="st0" d="M1.2,2.5L0.5,3.1L0,2.3l0.9-0.5L0,1.3l0.5-0.8L1.3,1L1.2,0.2h1l0,0.9l0.7-0.5l0.5,0.8
			L2.5,1.8l0.8,0.5L2.8,3.1L2.1,2.6l0,0.8h-1L1.2,2.5z"/>
		<path id="XMLID_273_" class="st0" d="M5.6,2.1H3.9V0.8h4.9v1.3H7.1V7H5.6V2.1z"/>
		<path id="XMLID_270_" class="st0" d="M9.5,0.8c0-0.4,0.3-0.7,0.8-0.7c0.5,0,0.8,0.3,0.8,0.7c0,0.4-0.3,0.7-0.8,0.7
			C9.7,1.5,9.5,1.2,9.5,0.8z M9.5,2H11v5H9.5V2z"/>
		<path id="XMLID_268_" class="st0" d="M12,2h1.3l0.1,0.4c0.2-0.3,0.7-0.6,1.3-0.6c0.7,0,1.2,0.2,1.4,0.7c0.3-0.3,0.7-0.7,1.5-0.7
			c1.2,0,1.7,0.7,1.7,2V7h-1.5V4.1c0-0.8-0.2-1.1-0.7-1.1c-0.4,0-0.7,0.2-0.8,0.4c0,0.1,0,0.3,0,0.5V7h-1.5V4.1
			c0-0.8-0.2-1.1-0.7-1.1c-0.4,0-0.6,0.2-0.7,0.4V7H12V2z"/>
		<path id="XMLID_265_" class="st0" d="M20,4.5c0-1.8,1.2-2.6,2.4-2.6c1.2,0,2.3,0.5,2.3,2.4v0.6h-3.2c0.1,0.6,0.4,1,1.4,1
			c0.8,0,1.4-0.3,1.6-0.6v1.2c-0.3,0.3-0.9,0.6-1.9,0.6C21,7.1,20,6.3,20,4.5z M23.4,4L23.4,4c0-0.6-0.3-1-0.9-1
			c-0.6,0-0.9,0.5-0.9,1H23.4z"/>
		<path id="XMLID_263_" class="st0" d="M27.5,4.2c0-1.6,0.8-3.1,1.9-3.7h1.3c-1.1,0.6-1.9,1.9-1.9,3.7c0,1.8,0.9,3.2,1.8,3.9h-1.3
			C28.2,7.5,27.5,5.9,27.5,4.2z"/>
		<path id="XMLID_260_" class="st0" d="M30.5,4.5c0-1.8,0.9-2.7,2.2-2.7c0.4,0,0.8,0.1,1.1,0.3v-2h1.5V7h-1.3l-0.1-0.4
			c-0.2,0.3-0.6,0.6-1.3,0.6C31.3,7.1,30.5,6.3,30.5,4.5z M33.8,3.3C33.6,3.1,33.3,3,33,3c-0.7,0-1,0.7-1,1.6s0.2,1.4,0.9,1.4
			c0.4,0,0.7-0.2,0.8-0.4V3.3z"/>
		<path id="XMLID_257_" class="st0" d="M36,5.6c0-1,0.7-1.4,2.1-1.6l0.7-0.1c0-0.7-0.3-0.9-1-0.9c-0.7,0-1.4,0.4-1.6,0.9V2.5
			c0.2-0.3,0.8-0.7,1.9-0.7c1.4,0,2.2,0.6,2.2,2.1v3h-1.3l-0.1-0.4c-0.1,0.3-0.5,0.6-1.2,0.6C36.7,7.1,36,6.6,36,5.6z M38.9,4.8
			l-0.6,0.1c-0.7,0.1-0.9,0.3-0.9,0.7c0,0.3,0.2,0.5,0.6,0.5c0.4,0,0.7-0.2,0.9-0.3V4.8z"/>
		<path id="XMLID_255_" class="st0" d="M40.9,8.6V7.4c0.2,0.2,0.5,0.4,0.9,0.4c0.3,0,0.6-0.1,0.9-0.7l-2-5.1h1.6l1,3.3L44.2,2h1.4
			l-1.4,4.7c-0.4,1.2-1,2.2-2.3,2.2C41.5,8.9,41.1,8.7,40.9,8.6z"/>
		<path id="XMLID_253_" class="st0" d="M46,6.7V5.4C46.4,5.7,46.9,6,47.5,6c0.6,0,0.8-0.2,0.8-0.5c0-0.3-0.1-0.4-0.7-0.5l-0.3,0
			c-1-0.1-1.5-0.7-1.5-1.5c0-0.9,0.6-1.6,2.1-1.6c0.8,0,1.3,0.2,1.6,0.4v1.3C49.3,3.2,48.7,3,48.1,3c-0.6,0-0.8,0.2-0.8,0.4
			s0.1,0.4,0.6,0.5l0.3,0c1.1,0.2,1.6,0.6,1.6,1.5c0,0.9-0.6,1.7-2.2,1.7C46.8,7.1,46.3,6.9,46,6.7z"/>
		<path id="XMLID_251_" class="st0" d="M51.5,4.3c0-1.8-0.8-3.2-1.8-3.8h1.2c1.1,0.6,1.9,2.2,1.9,3.8c0,1.6-0.8,3.1-1.9,3.7h-1.3
			C50.8,7.4,51.5,6.1,51.5,4.3z"/>
		<path id="XMLID_248_" class="st0" d="M55.7,0.8c0-0.4,0.3-0.7,0.8-0.7c0.5,0,0.8,0.3,0.8,0.7c0,0.4-0.3,0.7-0.8,0.7
			C56,1.5,55.7,1.2,55.7,0.8z M55.8,2h1.5v5h-1.5V2z"/>
		<path id="XMLID_246_" class="st0" d="M58.3,2h1.3l0.1,0.4c0.2-0.3,0.7-0.6,1.3-0.6c1.3,0,1.8,0.7,1.8,2V7h-1.5V4.1
			c0-0.8-0.2-1.1-0.8-1.1c-0.4,0-0.7,0.2-0.8,0.4V7h-1.5V2z"/>
		<path id="XMLID_244_" class="st0" d="M66.2,5.5V3.1h-0.6V2.6L66.1,2L67,0.8h0.7V2h1.2v1.2h-1.2v2.3c0,0.4,0.1,0.5,0.4,0.5
			c0.3,0,0.6-0.2,0.7-0.4v1.2c-0.2,0.2-0.5,0.4-1.1,0.4C66.7,7.1,66.2,6.5,66.2,5.5z"/>
		<path id="XMLID_242_" class="st0" d="M69.7,0.2h1.5v2.2c0.2-0.3,0.7-0.5,1.3-0.5c1.3,0,1.8,0.7,1.8,2V7h-1.5V4.1
			C72.7,3.3,72.5,3,72,3c-0.4,0-0.7,0.2-0.8,0.4V7h-1.5V0.2z"/>
		<path id="XMLID_239_" class="st0" d="M75.2,0.8c0-0.4,0.3-0.7,0.8-0.7c0.5,0,0.8,0.3,0.8,0.7c0,0.4-0.3,0.7-0.8,0.7
			C75.5,1.5,75.2,1.2,75.2,0.8z M75.2,2h1.5v5h-1.5V2z"/>
		<path id="XMLID_237_" class="st0" d="M77.6,6.7V5.4C77.9,5.7,78.4,6,79.1,6c0.6,0,0.8-0.2,0.8-0.5c0-0.3-0.1-0.4-0.7-0.5L79,5
			c-1-0.1-1.5-0.7-1.5-1.5c0-0.9,0.6-1.6,2.1-1.6c0.8,0,1.3,0.2,1.6,0.4v1.3C80.8,3.2,80.3,3,79.6,3c-0.6,0-0.8,0.2-0.8,0.4
			s0.1,0.4,0.6,0.5l0.3,0c1.1,0.2,1.6,0.6,1.6,1.5c0,0.9-0.6,1.7-2.2,1.7C78.4,7.1,77.9,6.9,77.6,6.7z"/>
		<path id="XMLID_235_" class="st0" d="M84.3,0.8h1.5v2.5L88,0.8h1.5l-2.1,2.4L89.7,7H88l-1.5-2.7L85.8,5V7h-1.5V0.8z"/>
		<path id="XMLID_232_" class="st0" d="M90,5.6c0-1,0.7-1.4,2.1-1.6l0.7-0.1c0-0.7-0.3-0.9-1-0.9c-0.7,0-1.4,0.4-1.6,0.9V2.5
			c0.2-0.3,0.8-0.7,1.9-0.7c1.4,0,2.2,0.6,2.2,2.1v3H93l-0.1-0.4c-0.1,0.3-0.5,0.6-1.2,0.6C90.7,7.1,90,6.6,90,5.6z M92.8,4.8
			l-0.6,0.1c-0.7,0.1-0.9,0.3-0.9,0.7c0,0.3,0.2,0.5,0.6,0.5c0.4,0,0.7-0.2,0.9-0.3V4.8z"/>
		<path id="XMLID_229_" class="st0" d="M95.3,2h1.3l0.1,0.4c0.2-0.3,0.6-0.6,1.3-0.6c1.3,0,2,0.7,2,2.5c0,1.8-1,2.8-2.2,2.8
			c-0.4,0-0.8-0.1-1.1-0.3v1.9h-1.5V2z M98.5,4.4c0-0.9-0.2-1.4-0.9-1.4c-0.4,0-0.7,0.2-0.8,0.4v2.3C96.9,5.9,97.2,6,97.5,6
			C98.2,6,98.5,5.3,98.5,4.4z"/>
		<path id="XMLID_227_" class="st0" d="M100.8,5.7V0.2h1.5v5.4c0,0.3,0.1,0.4,0.3,0.4c0.2,0,0.4-0.1,0.4-0.2v1.1
			c-0.1,0.1-0.4,0.3-0.9,0.3C101.3,7.1,100.8,6.6,100.8,5.7z"/>
		<path id="XMLID_224_" class="st0" d="M103.4,5.6c0-1,0.7-1.4,2.1-1.6l0.7-0.1c0-0.7-0.3-0.9-1-0.9c-0.7,0-1.4,0.4-1.6,0.9V2.5
			c0.2-0.3,0.8-0.7,1.9-0.7c1.4,0,2.2,0.6,2.2,2.1v3h-1.3l-0.1-0.4c-0.1,0.3-0.5,0.6-1.2,0.6C104.1,7.1,103.4,6.6,103.4,5.6z
			 M106.3,4.8l-0.6,0.1c-0.7,0.1-0.9,0.3-0.9,0.7c0,0.3,0.2,0.5,0.6,0.5c0.4,0,0.7-0.2,0.9-0.3V4.8z"/>
		<path id="XMLID_222_" class="st0" d="M108.7,2h1.3l0.1,0.4c0.2-0.3,0.7-0.6,1.3-0.6c1.3,0,1.8,0.7,1.8,2V7h-1.5V4.1
			c0-0.8-0.2-1.1-0.8-1.1c-0.4,0-0.7,0.2-0.8,0.4V7h-1.5V2z"/>
		<path id="XMLID_220_" class="st0" d="M114.3,3.6h2.4v1.2h-2.4V3.6z"/>
		<path id="XMLID_218_" class="st0" d="M117.8,0.8h1.4l1.8,2.6l1.7-2.6h1.4V7h-1.5V3.1L121,5.5h-0.1l-1.6-2.4V7h-1.5V0.8z"/>
		<path id="XMLID_215_" class="st0" d="M124.9,4.5c0-1.8,1.2-2.6,2.4-2.6c1.2,0,2.3,0.5,2.3,2.4v0.6h-3.2c0.1,0.6,0.4,1,1.4,1
			c0.8,0,1.4-0.3,1.6-0.6v1.2c-0.3,0.3-0.9,0.6-1.9,0.6C125.9,7.1,124.9,6.3,124.9,4.5z M128.3,4L128.3,4c0-0.6-0.3-1-0.9-1
			c-0.6,0-0.9,0.5-0.9,1H128.3z"/>
		<path id="XMLID_212_" class="st0" d="M130.4,0.8c0-0.4,0.3-0.7,0.8-0.7c0.5,0,0.8,0.3,0.8,0.7c0,0.4-0.3,0.7-0.8,0.7
			C130.7,1.5,130.4,1.2,130.4,0.8z M130.5,2h1.5v5h-1.5V2z"/>
		<path id="XMLID_209_" class="st0" d="M132.7,4.5c0-1.8,1.2-2.6,2.4-2.6c1.2,0,2.3,0.5,2.3,2.4v0.6h-3.2c0.1,0.6,0.4,1,1.4,1
			c0.8,0,1.4-0.3,1.6-0.6v1.2c-0.3,0.3-0.9,0.6-1.9,0.6C133.7,7.1,132.7,6.3,132.7,4.5z M136.1,4L136.1,4c0-0.6-0.3-1-0.9-1
			c-0.6,0-0.9,0.5-0.9,1H136.1z"/>
		<path id="XMLID_207_" class="st0" d="M138.3,2h1.2l0.1,0.7c0.1-0.5,0.5-0.8,1-0.8c0.3,0,0.4,0.1,0.5,0.1v1.3
			c-0.1-0.1-0.3-0.1-0.6-0.1c-0.4,0-0.6,0.2-0.7,0.4V7h-1.5V2z"/>
		<path id="XMLID_204_" class="st0" d="M143.6,4.5c0-1.8,1.2-2.6,2.4-2.6c1.2,0,2.3,0.5,2.3,2.4v0.6h-3.2c0.1,0.6,0.4,1,1.4,1
			c0.8,0,1.4-0.3,1.6-0.6v1.2c-0.3,0.3-0.9,0.6-1.9,0.6C144.6,7.1,143.6,6.3,143.6,4.5z M147,4L147,4c0-0.6-0.3-1-0.9-1
			c-0.6,0-0.9,0.5-0.9,1H147z"/>
		<path id="XMLID_202_" class="st0" d="M149,6.7V5.4c0.3,0.3,0.8,0.6,1.5,0.6c0.6,0,0.8-0.2,0.8-0.5c0-0.3-0.1-0.4-0.7-0.5l-0.3,0
			c-1-0.1-1.5-0.7-1.5-1.5c0-0.9,0.6-1.6,2.1-1.6c0.8,0,1.3,0.2,1.6,0.4v1.3C152.2,3.2,151.7,3,151,3c-0.6,0-0.8,0.2-0.8,0.4
			s0.1,0.4,0.6,0.5l0.3,0c1.1,0.2,1.6,0.6,1.6,1.5c0,0.9-0.6,1.7-2.2,1.7C149.8,7.1,149.3,6.9,149,6.7z"/>
		<path id="XMLID_200_" class="st0" d="M153.8,5.5V3.1h-0.6V2.6l0.5-0.6l0.9-1.2h0.7V2h1.2v1.2h-1.2v2.3c0,0.4,0.1,0.5,0.4,0.5
			c0.3,0,0.6-0.2,0.7-0.4v1.2c-0.2,0.2-0.5,0.4-1.1,0.4C154.2,7.1,153.8,6.5,153.8,5.5z"/>
		<path id="XMLID_197_" class="st0" d="M157.2,0.8c0-0.4,0.3-0.7,0.8-0.7c0.5,0,0.8,0.3,0.8,0.7c0,0.4-0.3,0.7-0.8,0.7
			C157.5,1.5,157.2,1.2,157.2,0.8z M157.2,2h1.5v5h-1.5V2z"/>
		<path id="XMLID_195_" class="st0" d="M159.7,2h1.3l0.1,0.4c0.2-0.3,0.7-0.6,1.3-0.6c0.7,0,1.2,0.2,1.4,0.7
			c0.3-0.3,0.7-0.7,1.5-0.7c1.2,0,1.7,0.7,1.7,2V7h-1.5V4.1c0-0.8-0.2-1.1-0.7-1.1c-0.4,0-0.7,0.2-0.8,0.4c0,0.1,0,0.3,0,0.5V7h-1.5
			V4.1c0-0.8-0.2-1.1-0.7-1.1c-0.4,0-0.6,0.2-0.7,0.4V7h-1.5V2z"/>
		<path id="XMLID_192_" class="st0" d="M167.7,5.6c0-1,0.7-1.4,2.1-1.6l0.7-0.1c0-0.7-0.3-0.9-1-0.9c-0.7,0-1.4,0.4-1.6,0.9V2.5
			c0.2-0.3,0.8-0.7,1.9-0.7c1.4,0,2.2,0.6,2.2,2.1v3h-1.3l-0.1-0.4c-0.1,0.3-0.5,0.6-1.2,0.6C168.4,7.1,167.7,6.6,167.7,5.6z
			 M170.6,4.8L170,4.9c-0.7,0.1-0.9,0.3-0.9,0.7c0,0.3,0.2,0.5,0.6,0.5c0.4,0,0.7-0.2,0.9-0.3V4.8z"/>
		<path id="XMLID_190_" class="st0" d="M173.3,5.5V3.1h-0.6V2.6l0.5-0.6l0.9-1.2h0.7V2h1.2v1.2h-1.2v2.3c0,0.4,0.1,0.5,0.4,0.5
			c0.3,0,0.6-0.2,0.7-0.4v1.2c-0.2,0.2-0.5,0.4-1.1,0.4C173.7,7.1,173.3,6.5,173.3,5.5z"/>
		<path id="XMLID_187_" class="st0" d="M176.7,0.8c0-0.4,0.3-0.7,0.8-0.7c0.5,0,0.8,0.3,0.8,0.7c0,0.4-0.3,0.7-0.8,0.7
			C177,1.5,176.7,1.2,176.7,0.8z M176.7,2h1.5v5h-1.5V2z"/>
		<path id="XMLID_184_" class="st0" d="M179,4.5c0-1.8,1.2-2.6,2.6-2.6c1.4,0,2.5,0.8,2.5,2.6c0,1.9-1.2,2.6-2.6,2.6
			C180,7.1,179,6.3,179,4.5z M182.5,4.5c0-0.9-0.3-1.4-1-1.4c-0.7,0-1,0.6-1,1.4c0,0.9,0.3,1.4,1,1.4C182.2,5.9,182.5,5.3,182.5,4.5
			z"/>
		<path id="XMLID_182_" class="st0" d="M184.8,2h1.3l0.1,0.4c0.2-0.3,0.7-0.6,1.3-0.6c1.3,0,1.8,0.7,1.8,2V7h-1.5V4.1
			c0-0.8-0.2-1.1-0.8-1.1c-0.4,0-0.7,0.2-0.8,0.4V7h-1.5V2z"/>
		<path id="XMLID_180_" class="st0" d="M192.5,2h1.2l0.1,0.7c0.1-0.5,0.5-0.8,1-0.8c0.3,0,0.4,0.1,0.5,0.1v1.3
			c-0.1-0.1-0.3-0.1-0.6-0.1c-0.4,0-0.6,0.2-0.7,0.4V7h-1.5V2z"/>
		<path id="XMLID_177_" class="st0" d="M195.7,4.5c0-1.8,1.2-2.6,2.4-2.6c1.2,0,2.3,0.5,2.3,2.4v0.6h-3.2c0.1,0.6,0.4,1,1.4,1
			c0.8,0,1.4-0.3,1.6-0.6v1.2c-0.3,0.3-0.9,0.6-1.9,0.6C196.6,7.1,195.7,6.3,195.7,4.5z M199,4L199,4c0-0.6-0.3-1-0.9-1
			c-0.6,0-0.9,0.5-0.9,1H199z"/>
		<path id="XMLID_174_" class="st0" d="M201.2,2h1.3l0.1,0.4c0.2-0.3,0.6-0.6,1.3-0.6c1.3,0,2,0.7,2,2.5c0,1.8-1,2.8-2.2,2.8
			c-0.4,0-0.8-0.1-1.1-0.3v1.9h-1.5V2z M204.4,4.4c0-0.9-0.2-1.4-0.9-1.4c-0.4,0-0.7,0.2-0.8,0.4v2.3c0.2,0.2,0.5,0.3,0.8,0.3
			C204.2,6,204.4,5.3,204.4,4.4z"/>
		<path id="XMLID_172_" class="st0" d="M206.8,2h1.2l0.1,0.7c0.1-0.5,0.5-0.8,1-0.8c0.3,0,0.4,0.1,0.5,0.1v1.3
			c-0.1-0.1-0.3-0.1-0.6-0.1c-0.4,0-0.6,0.2-0.7,0.4V7h-1.5V2z"/>
		<path id="XMLID_169_" class="st0" d="M209.9,4.5c0-1.8,1.2-2.6,2.4-2.6c1.2,0,2.3,0.5,2.3,2.4v0.6h-3.2c0.1,0.6,0.4,1,1.4,1
			c0.8,0,1.4-0.3,1.6-0.6v1.2c-0.3,0.3-0.9,0.6-1.9,0.6C210.9,7.1,209.9,6.3,209.9,4.5z M213.2,4L213.2,4c0-0.6-0.3-1-0.9-1
			c-0.6,0-0.9,0.5-0.9,1H213.2z"/>
		<path id="XMLID_167_" class="st0" d="M215.3,6.7V5.4c0.3,0.3,0.8,0.6,1.5,0.6c0.6,0,0.8-0.2,0.8-0.5c0-0.3-0.1-0.4-0.7-0.5l-0.3,0
			c-1-0.1-1.5-0.7-1.5-1.5c0-0.9,0.6-1.6,2.1-1.6c0.8,0,1.3,0.2,1.6,0.4v1.3C218.5,3.2,218,3,217.3,3c-0.6,0-0.8,0.2-0.8,0.4
			s0.1,0.4,0.6,0.5l0.3,0c1.1,0.2,1.6,0.6,1.6,1.5c0,0.9-0.6,1.7-2.2,1.7C216.1,7.1,215.6,6.9,215.3,6.7z"/>
		<path id="XMLID_164_" class="st0" d="M219.5,4.5c0-1.8,1.2-2.6,2.4-2.6c1.2,0,2.3,0.5,2.3,2.4v0.6h-3.2c0.1,0.6,0.4,1,1.4,1
			c0.8,0,1.4-0.3,1.6-0.6v1.2c-0.3,0.3-0.9,0.6-1.9,0.6C220.5,7.1,219.5,6.3,219.5,4.5z M222.9,4L222.9,4c0-0.6-0.3-1-0.9-1
			c-0.6,0-0.9,0.5-0.9,1H222.9z"/>
		<path id="XMLID_162_" class="st0" d="M225.1,2h1.3l0.1,0.4c0.2-0.3,0.7-0.6,1.3-0.6c1.3,0,1.8,0.7,1.8,2V7h-1.5V4.1
			c0-0.8-0.2-1.1-0.8-1.1c-0.4,0-0.7,0.2-0.8,0.4V7h-1.5V2z"/>
		<path id="XMLID_160_" class="st0" d="M230.9,5.5V3.1h-0.6V2.6l0.5-0.6l0.9-1.2h0.7V2h1.2v1.2h-1.2v2.3c0,0.4,0.1,0.5,0.4,0.5
			c0.3,0,0.6-0.2,0.7-0.4v1.2c-0.2,0.2-0.5,0.4-1.1,0.4C231.3,7.1,230.9,6.5,230.9,5.5z"/>
		<path id="XMLID_158_" class="st0" d="M234.2,6.7V5.4c0.3,0.3,0.8,0.6,1.5,0.6c0.6,0,0.8-0.2,0.8-0.5c0-0.3-0.1-0.4-0.7-0.5l-0.3,0
			c-1-0.1-1.5-0.7-1.5-1.5c0-0.9,0.6-1.6,2.1-1.6c0.8,0,1.3,0.2,1.6,0.4v1.3c-0.3-0.4-0.8-0.5-1.5-0.5c-0.6,0-0.8,0.2-0.8,0.4
			s0.1,0.4,0.6,0.5l0.3,0c1.1,0.2,1.6,0.6,1.6,1.5c0,0.9-0.6,1.7-2.2,1.7C235,7.1,234.4,6.9,234.2,6.7z"/>
		<path id="XMLID_156_" class="st0" d="M241.1,5.5V3.1h-0.6V2.6L241,2l0.9-1.2h0.7V2h1.2v1.2h-1.2v2.3c0,0.4,0.1,0.5,0.4,0.5
			c0.3,0,0.6-0.2,0.7-0.4v1.2c-0.2,0.2-0.5,0.4-1.1,0.4C241.5,7.1,241.1,6.5,241.1,5.5z"/>
		<path id="XMLID_154_" class="st0" d="M244.5,0.2h1.5v2.2c0.2-0.3,0.7-0.5,1.3-0.5c1.3,0,1.8,0.7,1.8,2V7h-1.5V4.1
			c0-0.8-0.2-1.1-0.8-1.1c-0.4,0-0.7,0.2-0.8,0.4V7h-1.5V0.2z"/>
		<path id="XMLID_151_" class="st0" d="M249.8,4.5c0-1.8,1.2-2.6,2.4-2.6c1.2,0,2.3,0.5,2.3,2.4v0.6h-3.2c0.1,0.6,0.4,1,1.4,1
			c0.8,0,1.4-0.3,1.6-0.6v1.2c-0.3,0.3-0.9,0.6-1.9,0.6C250.8,7.1,249.8,6.3,249.8,4.5z M253.1,4L253.1,4c0-0.6-0.3-1-0.9-1
			c-0.6,0-0.9,0.5-0.9,1H253.1z"/>
		<path id="XMLID_149_" class="st0" d="M257.5,2h1.3l0.1,0.4c0.2-0.3,0.7-0.6,1.3-0.6c1.3,0,1.8,0.7,1.8,2V7h-1.5V4.1
			c0-0.8-0.2-1.1-0.8-1.1c-0.4,0-0.7,0.2-0.8,0.4V7h-1.5V2z"/>
		<path id="XMLID_147_" class="st0" d="M263,5.1V2h1.5v2.8c0,0.8,0.2,1.1,0.7,1.1c0.4,0,0.7-0.2,0.8-0.4V2h1.5v5h-1.3l-0.1-0.4
			c-0.2,0.3-0.7,0.6-1.3,0.6C263.5,7.1,263,6.4,263,5.1z"/>
		<path id="XMLID_145_" class="st0" d="M268.5,2h1.3l0.1,0.4c0.2-0.3,0.7-0.6,1.3-0.6c0.7,0,1.2,0.2,1.4,0.7
			c0.3-0.3,0.7-0.7,1.5-0.7c1.2,0,1.7,0.7,1.7,2V7h-1.5V4.1c0-0.8-0.2-1.1-0.7-1.1c-0.4,0-0.7,0.2-0.8,0.4c0,0.1,0,0.3,0,0.5V7h-1.5
			V4.1c0-0.8-0.2-1.1-0.7-1.1c-0.4,0-0.6,0.2-0.7,0.4V7h-1.5V2z"/>
		<path id="XMLID_142_" class="st0" d="M278.1,6.6L277.9,7h-1.1V0.2h1.5v2.2c0.1-0.2,0.6-0.5,1.3-0.5c1.2,0,2,0.7,2,2.5
			c0,1.8-1,2.8-2.2,2.8C278.6,7.1,278.3,6.9,278.1,6.6z M278.3,5.6c0.2,0.2,0.5,0.3,0.8,0.3c0.7,0,1-0.7,1-1.6S279.8,3,279.1,3
			c-0.4,0-0.7,0.2-0.8,0.4V5.6z"/>
		<path id="XMLID_139_" class="st0" d="M282.1,4.5c0-1.8,1.2-2.6,2.4-2.6c1.2,0,2.3,0.5,2.3,2.4v0.6h-3.2c0.1,0.6,0.4,1,1.4,1
			c0.8,0,1.4-0.3,1.6-0.6v1.2c-0.3,0.3-0.9,0.6-1.9,0.6C283.1,7.1,282.1,6.3,282.1,4.5z M285.5,4L285.5,4c0-0.6-0.3-1-0.9-1
			c-0.6,0-0.9,0.5-0.9,1H285.5z"/>
		<path id="XMLID_137_" class="st0" d="M287.7,2h1.2l0.1,0.7c0.1-0.5,0.5-0.8,1-0.8c0.3,0,0.4,0.1,0.5,0.1v1.3
			c-0.1-0.1-0.3-0.1-0.6-0.1c-0.4,0-0.6,0.2-0.7,0.4V7h-1.5V2z"/>
		<path id="XMLID_134_" class="st0" d="M293,4.5c0-1.8,1.2-2.6,2.6-2.6c1.4,0,2.5,0.8,2.5,2.6c0,1.9-1.2,2.6-2.6,2.6
			C294,7.1,293,6.3,293,4.5z M296.6,4.5c0-0.9-0.3-1.4-1-1.4c-0.7,0-1,0.6-1,1.4c0,0.9,0.3,1.4,1,1.4C296.2,5.9,296.6,5.3,296.6,4.5
			z"/>
		<path id="XMLID_132_" class="st0" d="M299.1,3.1h-0.6V2.6l0.5-0.5c-0.1-0.2-0.2-0.4-0.2-0.7c0-0.9,0.8-1.4,1.8-1.4
			c0.7,0,1.1,0.2,1.2,0.3v1.2c-0.2-0.3-0.5-0.4-0.9-0.4c-0.4,0-0.6,0.2-0.6,0.5c0,0.2,0.1,0.3,0.1,0.4h1v1.2h-0.9V7h-1.5V3.1z"/>
		<path id="XMLID_129_" class="st0" d="M304.1,4.5c0-1.8,0.9-2.7,2.2-2.7c0.4,0,0.8,0.1,1.1,0.3v-2h1.5V7h-1.3l-0.1-0.4
			c-0.2,0.3-0.6,0.6-1.3,0.6C304.9,7.1,304.1,6.3,304.1,4.5z M307.4,3.3c-0.2-0.2-0.5-0.3-0.8-0.3c-0.7,0-1,0.7-1,1.6
			s0.2,1.4,0.9,1.4c0.4,0,0.7-0.2,0.8-0.4V3.3z"/>
		<path id="XMLID_126_" class="st0" d="M309.7,5.6c0-1,0.7-1.4,2.1-1.6l0.7-0.1c0-0.7-0.3-0.9-1-0.9c-0.7,0-1.4,0.4-1.6,0.9V2.5
			c0.2-0.3,0.8-0.7,1.9-0.7c1.4,0,2.2,0.6,2.2,2.1v3h-1.3l-0.1-0.4c-0.1,0.3-0.5,0.6-1.2,0.6C310.4,7.1,309.7,6.6,309.7,5.6z
			 M312.5,4.8l-0.6,0.1c-0.7,0.1-0.9,0.3-0.9,0.7c0,0.3,0.2,0.5,0.6,0.5c0.4,0,0.7-0.2,0.9-0.3V4.8z"/>
		<path id="XMLID_124_" class="st0" d="M314.6,8.6V7.4c0.2,0.2,0.5,0.4,0.9,0.4c0.3,0,0.6-0.1,0.9-0.7l-2-5.1h1.6l1,3.3l0.9-3.3h1.4
			l-1.4,4.7c-0.4,1.2-1,2.2-2.3,2.2C315.1,8.9,314.7,8.7,314.6,8.6z"/>
		<path id="XMLID_122_" class="st0" d="M319.7,6.7V5.4c0.3,0.3,0.8,0.6,1.5,0.6c0.6,0,0.8-0.2,0.8-0.5c0-0.3-0.1-0.4-0.7-0.5l-0.3,0
			c-1-0.1-1.5-0.7-1.5-1.5c0-0.9,0.6-1.6,2.1-1.6c0.8,0,1.3,0.2,1.6,0.4v1.3c-0.3-0.4-0.8-0.5-1.5-0.5c-0.6,0-0.8,0.2-0.8,0.4
			s0.1,0.4,0.6,0.5l0.3,0c1.1,0.2,1.6,0.6,1.6,1.5c0,0.9-0.6,1.7-2.2,1.7C320.4,7.1,319.9,6.9,319.7,6.7z"/>
		<path id="XMLID_120_" class="st0" d="M326.6,3.1H326V2.6l0.5-0.5c-0.1-0.2-0.2-0.4-0.2-0.7c0-0.9,0.8-1.4,1.8-1.4
			c0.7,0,1.1,0.2,1.2,0.3v1.2c-0.2-0.3-0.5-0.4-0.9-0.4c-0.4,0-0.6,0.2-0.6,0.5c0,0.2,0.1,0.3,0.1,0.4h1v1.2H328V7h-1.5V3.1z"/>
		<path id="XMLID_118_" class="st0" d="M329.6,2h1.2l0.1,0.7c0.1-0.5,0.5-0.8,1-0.8c0.3,0,0.4,0.1,0.5,0.1v1.3
			c-0.1-0.1-0.3-0.1-0.6-0.1c-0.4,0-0.6,0.2-0.7,0.4V7h-1.5V2z"/>
		<path id="XMLID_115_" class="st0" d="M332.8,4.5c0-1.8,1.2-2.6,2.6-2.6c1.4,0,2.5,0.8,2.5,2.6c0,1.9-1.2,2.6-2.6,2.6
			C333.8,7.1,332.8,6.3,332.8,4.5z M336.3,4.5c0-0.9-0.3-1.4-1-1.4c-0.7,0-1,0.6-1,1.4c0,0.9,0.3,1.4,1,1.4
			C336,5.9,336.3,5.3,336.3,4.5z"/>
		<path id="XMLID_113_" class="st0" d="M338.6,2h1.3l0.1,0.4c0.2-0.3,0.7-0.6,1.3-0.6c0.7,0,1.2,0.2,1.4,0.7
			c0.3-0.3,0.7-0.7,1.5-0.7c1.2,0,1.7,0.7,1.7,2V7h-1.5V4.1c0-0.8-0.2-1.1-0.7-1.1c-0.4,0-0.7,0.2-0.8,0.4c0,0.1,0,0.3,0,0.5V7h-1.5
			V4.1c0-0.8-0.2-1.1-0.7-1.1c-0.4,0-0.6,0.2-0.7,0.4V7h-1.5V2z"/>
		<path id="XMLID_111_" class="st0" d="M349,2h1.2l0.1,0.7c0.1-0.5,0.5-0.8,1-0.8c0.3,0,0.4,0.1,0.5,0.1v1.3
			c-0.1-0.1-0.3-0.1-0.6-0.1c-0.4,0-0.6,0.2-0.7,0.4V7H349V2z"/>
		<path id="XMLID_108_" class="st0" d="M352.2,5.6c0-1,0.7-1.4,2.1-1.6l0.7-0.1c0-0.7-0.3-0.9-1-0.9c-0.7,0-1.4,0.4-1.6,0.9V2.5
			c0.2-0.3,0.8-0.7,1.9-0.7c1.4,0,2.2,0.6,2.2,2.1v3h-1.3l-0.1-0.4c-0.1,0.3-0.5,0.6-1.2,0.6C352.9,7.1,352.2,6.6,352.2,5.6z
			 M355,4.8l-0.6,0.1c-0.7,0.1-0.9,0.3-0.9,0.7c0,0.3,0.2,0.5,0.6,0.5c0.4,0,0.7-0.2,0.9-0.3V4.8z"/>
		<path id="XMLID_106_" class="st0" d="M357.5,2h1.3l0.1,0.4c0.2-0.3,0.7-0.6,1.3-0.6c1.3,0,1.8,0.7,1.8,2V7h-1.5V4.1
			c0-0.8-0.2-1.1-0.8-1.1c-0.4,0-0.7,0.2-0.8,0.4V7h-1.5V2z"/>
		<path id="XMLID_103_" class="st0" d="M362.8,4.5c0-1.8,0.9-2.7,2.2-2.7c0.4,0,0.8,0.1,1.1,0.3v-2h1.5V7h-1.3l-0.1-0.4
			c-0.2,0.3-0.6,0.6-1.3,0.6C363.7,7.1,362.8,6.3,362.8,4.5z M366.1,3.3c-0.2-0.2-0.5-0.3-0.8-0.3c-0.7,0-1,0.7-1,1.6
			s0.2,1.4,0.9,1.4c0.4,0,0.7-0.2,0.8-0.4V3.3z"/>
		<path id="XMLID_100_" class="st0" d="M368.4,4.5c0-1.8,1.2-2.6,2.6-2.6c1.4,0,2.5,0.8,2.5,2.6c0,1.9-1.2,2.6-2.6,2.6
			C369.4,7.1,368.4,6.3,368.4,4.5z M371.9,4.5c0-0.9-0.3-1.4-1-1.4c-0.7,0-1,0.6-1,1.4c0,0.9,0.3,1.4,1,1.4
			C371.6,5.9,371.9,5.3,371.9,4.5z"/>
		<path id="XMLID_98_" class="st0" d="M374.2,2h1.3l0.1,0.4c0.2-0.3,0.7-0.6,1.3-0.6c0.7,0,1.2,0.2,1.4,0.7c0.3-0.3,0.7-0.7,1.5-0.7
			c1.2,0,1.7,0.7,1.7,2V7H380V4.1c0-0.8-0.2-1.1-0.7-1.1c-0.4,0-0.7,0.2-0.8,0.4c0,0.1,0,0.3,0,0.5V7h-1.5V4.1
			c0-0.8-0.2-1.1-0.7-1.1c-0.4,0-0.6,0.2-0.7,0.4V7h-1.5V2z"/>
		<path id="XMLID_95_" class="st0" d="M382.5,0.8c0-0.4,0.3-0.7,0.8-0.7c0.5,0,0.8,0.3,0.8,0.7c0,0.4-0.3,0.7-0.8,0.7
			C382.7,1.5,382.5,1.2,382.5,0.8z M382.5,2h1.5v5h-1.5V2z"/>
		<path id="XMLID_93_" class="st0" d="M384.7,6.5l2.1-3.4h-2.1V2h3.9v0.5l-2,3.4h2V7h-3.9V6.5z"/>
		<path id="XMLID_90_" class="st0" d="M389.2,5.6c0-1,0.7-1.4,2.1-1.6l0.7-0.1c0-0.7-0.3-0.9-1-0.9c-0.7,0-1.4,0.4-1.6,0.9V2.5
			c0.2-0.3,0.8-0.7,1.9-0.7c1.4,0,2.2,0.6,2.2,2.1v3h-1.3l-0.1-0.4c-0.1,0.3-0.5,0.6-1.2,0.6C389.9,7.1,389.2,6.6,389.2,5.6z
			 M392.1,4.8l-0.6,0.1c-0.7,0.1-0.9,0.3-0.9,0.7c0,0.3,0.2,0.5,0.6,0.5c0.4,0,0.7-0.2,0.9-0.3V4.8z"/>
		<path id="XMLID_88_" class="st0" d="M394.8,5.5V3.1h-0.6V2.6l0.5-0.6l0.9-1.2h0.7V2h1.2v1.2h-1.2v2.3c0,0.4,0.1,0.5,0.4,0.5
			c0.3,0,0.6-0.2,0.7-0.4v1.2c-0.2,0.2-0.5,0.4-1.1,0.4C395.2,7.1,394.8,6.5,394.8,5.5z"/>
		<path id="XMLID_85_" class="st0" d="M398.2,0.8c0-0.4,0.3-0.7,0.8-0.7c0.5,0,0.8,0.3,0.8,0.7c0,0.4-0.3,0.7-0.8,0.7
			C398.5,1.5,398.2,1.2,398.2,0.8z M398.2,2h1.5v5h-1.5V2z"/>
		<path id="XMLID_82_" class="st0" d="M400.5,4.5c0-1.8,1.2-2.6,2.6-2.6c1.4,0,2.5,0.8,2.5,2.6c0,1.9-1.2,2.6-2.6,2.6
			C401.5,7.1,400.5,6.3,400.5,4.5z M404,4.5c0-0.9-0.3-1.4-1-1.4c-0.7,0-1,0.6-1,1.4c0,0.9,0.3,1.4,1,1.4C403.7,5.9,404,5.3,404,4.5
			z"/>
		<path id="XMLID_80_" class="st0" d="M406.3,2h1.3l0.1,0.4c0.2-0.3,0.7-0.6,1.3-0.6c1.3,0,1.8,0.7,1.8,2V7h-1.5V4.1
			c0-0.8-0.2-1.1-0.8-1.1c-0.4,0-0.7,0.2-0.8,0.4V7h-1.5V2z"/>
		<path id="XMLID_78_" class="st0" d="M413.8,4.2c0-1.6,0.8-3.1,1.9-3.7h1.3c-1.1,0.6-1.9,1.9-1.9,3.7c0,1.8,0.9,3.2,1.8,3.9h-1.3
			C414.6,7.5,413.8,5.9,413.8,4.2z"/>
		<path id="XMLID_75_" class="st0" d="M417.3,2h1.3l0.1,0.4c0.2-0.3,0.6-0.6,1.3-0.6c1.3,0,2,0.7,2,2.5c0,1.8-1,2.8-2.2,2.8
			c-0.4,0-0.8-0.1-1.1-0.3v1.9h-1.5V2z M420.5,4.4c0-0.9-0.2-1.4-0.9-1.4c-0.4,0-0.7,0.2-0.8,0.4v2.3c0.2,0.2,0.5,0.3,0.8,0.3
			C420.3,6,420.5,5.3,420.5,4.4z"/>
		<path id="XMLID_72_" class="st0" d="M422.6,4.5c0-1.8,1.2-2.6,2.6-2.6c1.4,0,2.5,0.8,2.5,2.6c0,1.9-1.2,2.6-2.6,2.6
			C423.6,7.1,422.6,6.3,422.6,4.5z M426.1,4.5c0-0.9-0.3-1.4-1-1.4c-0.7,0-1,0.6-1,1.4c0,0.9,0.3,1.4,1,1.4
			C425.8,5.9,426.1,5.3,426.1,4.5z"/>
		<path id="XMLID_70_" class="st0" d="M428.3,6.7V5.4c0.3,0.3,0.8,0.6,1.5,0.6c0.6,0,0.8-0.2,0.8-0.5c0-0.3-0.1-0.4-0.7-0.5l-0.3,0
			c-1-0.1-1.5-0.7-1.5-1.5c0-0.9,0.6-1.6,2.1-1.6c0.8,0,1.3,0.2,1.6,0.4v1.3C431.5,3.2,431,3,430.3,3c-0.6,0-0.8,0.2-0.8,0.4
			s0.1,0.4,0.6,0.5l0.3,0c1.1,0.2,1.6,0.6,1.6,1.5c0,0.9-0.6,1.7-2.2,1.7C429.1,7.1,428.6,6.9,428.3,6.7z"/>
		<path id="XMLID_68_" class="st0" d="M433.1,5.5V3.1h-0.6V2.6L433,2l0.9-1.2h0.7V2h1.2v1.2h-1.2v2.3c0,0.4,0.1,0.5,0.4,0.5
			c0.3,0,0.6-0.2,0.7-0.4v1.2c-0.2,0.2-0.5,0.4-1.1,0.4C433.5,7.1,433.1,6.5,433.1,5.5z"/>
		<path id="XMLID_66_" class="st0" d="M436.4,6.7V5.4c0.3,0.3,0.8,0.6,1.5,0.6c0.6,0,0.8-0.2,0.8-0.5c0-0.3-0.1-0.4-0.7-0.5l-0.3,0
			c-1-0.1-1.5-0.7-1.5-1.5c0-0.9,0.6-1.6,2.1-1.6c0.8,0,1.3,0.2,1.6,0.4v1.3C439.6,3.2,439,3,438.4,3c-0.6,0-0.8,0.2-0.8,0.4
			s0.1,0.4,0.6,0.5l0.3,0c1.1,0.2,1.6,0.6,1.6,1.5c0,0.9-0.6,1.7-2.2,1.7C437.1,7.1,436.6,6.9,436.4,6.7z"/>
		<path id="XMLID_64_" class="st0" d="M441.1,5.5V3.1h-0.6V2.6L441,2l0.9-1.2h0.7V2h1.2v1.2h-1.2v2.3c0,0.4,0.1,0.5,0.4,0.5
			c0.3,0,0.6-0.2,0.7-0.4v1.2c-0.2,0.2-0.5,0.4-1.1,0.4C441.5,7.1,441.1,6.5,441.1,5.5z"/>
		<path id="XMLID_61_" class="st0" d="M444.3,5.6c0-1,0.7-1.4,2.1-1.6l0.7-0.1c0-0.7-0.3-0.9-1-0.9c-0.7,0-1.4,0.4-1.6,0.9V2.5
			c0.2-0.3,0.8-0.7,1.9-0.7c1.4,0,2.2,0.6,2.2,2.1v3h-1.3l-0.1-0.4c-0.1,0.3-0.5,0.6-1.2,0.6C445,7.1,444.3,6.6,444.3,5.6z
			 M447.1,4.8l-0.6,0.1c-0.7,0.1-0.9,0.3-0.9,0.7c0,0.3,0.2,0.5,0.6,0.5c0.4,0,0.7-0.2,0.9-0.3V4.8z"/>
		<path id="XMLID_58_" class="st0" d="M450.9,6.6L450.7,7h-1.1V0.2h1.5v2.2c0.1-0.2,0.6-0.5,1.3-0.5c1.2,0,2,0.7,2,2.5
			c0,1.8-1,2.8-2.2,2.8C451.4,7.1,451.1,6.9,450.9,6.6z M451.1,5.6c0.2,0.2,0.5,0.3,0.8,0.3c0.7,0,1-0.7,1-1.6S452.6,3,451.9,3
			c-0.4,0-0.7,0.2-0.8,0.4V5.6z"/>
		<path id="XMLID_55_" class="st0" d="M455.1,0.8c0-0.4,0.3-0.7,0.8-0.7c0.5,0,0.8,0.3,0.8,0.7c0,0.4-0.3,0.7-0.8,0.7
			C455.4,1.5,455.1,1.2,455.1,0.8z M455.2,2h1.5v5h-1.5V2z"/>
		<path id="XMLID_53_" class="st0" d="M457.6,5.7V0.2h1.5v5.4c0,0.3,0.1,0.4,0.3,0.4c0.2,0,0.4-0.1,0.4-0.2v1.1
			c-0.1,0.1-0.4,0.3-0.9,0.3C458.1,7.1,457.6,6.6,457.6,5.7z"/>
		<path id="XMLID_50_" class="st0" d="M460.5,0.8c0-0.4,0.3-0.7,0.8-0.7c0.5,0,0.8,0.3,0.8,0.7c0,0.4-0.3,0.7-0.8,0.7
			C460.8,1.5,460.5,1.2,460.5,0.8z M460.5,2h1.5v5h-1.5V2z"/>
		<path id="XMLID_48_" class="st0" d="M462.8,6.5l2.1-3.4h-2.1V2h3.9v0.5l-2,3.4h2V7h-3.9V6.5z"/>
		<path id="XMLID_45_" class="st0" d="M467.3,5.6c0-1,0.7-1.4,2.1-1.6l0.7-0.1c0-0.7-0.3-0.9-1-0.9c-0.7,0-1.4,0.4-1.6,0.9V2.5
			c0.2-0.3,0.8-0.7,1.9-0.7c1.4,0,2.2,0.6,2.2,2.1v3h-1.3l-0.1-0.4c-0.1,0.3-0.5,0.6-1.2,0.6C468,7.1,467.3,6.6,467.3,5.6z
			 M470.1,4.8l-0.6,0.1c-0.7,0.1-0.9,0.3-0.9,0.7c0,0.3,0.2,0.5,0.6,0.5c0.4,0,0.7-0.2,0.9-0.3V4.8z"/>
		<path id="XMLID_43_" class="st0" d="M472.8,5.5V3.1h-0.6V2.6l0.5-0.6l0.9-1.2h0.7V2h1.2v1.2h-1.2v2.3c0,0.4,0.1,0.5,0.4,0.5
			c0.3,0,0.6-0.2,0.7-0.4v1.2c-0.2,0.2-0.5,0.4-1.1,0.4C473.3,7.1,472.8,6.5,472.8,5.5z"/>
		<path id="XMLID_40_" class="st0" d="M476.2,0.8c0-0.4,0.3-0.7,0.8-0.7c0.5,0,0.8,0.3,0.8,0.7c0,0.4-0.3,0.7-0.8,0.7
			C476.5,1.5,476.2,1.2,476.2,0.8z M476.3,2h1.5v5h-1.5V2z"/>
		<path id="XMLID_37_" class="st0" d="M478.5,4.5c0-1.8,1.2-2.6,2.6-2.6c1.4,0,2.5,0.8,2.5,2.6c0,1.9-1.2,2.6-2.6,2.6
			C479.6,7.1,478.5,6.3,478.5,4.5z M482.1,4.5c0-0.9-0.3-1.4-1-1.4c-0.7,0-1,0.6-1,1.4c0,0.9,0.3,1.4,1,1.4
			C481.8,5.9,482.1,5.3,482.1,4.5z"/>
		<path id="XMLID_35_" class="st0" d="M484.4,2h1.3l0.1,0.4c0.2-0.3,0.7-0.6,1.3-0.6c1.3,0,1.8,0.7,1.8,2V7h-1.5V4.1
			c0-0.8-0.2-1.1-0.8-1.1c-0.4,0-0.7,0.2-0.8,0.4V7h-1.5V2z"/>
		<path id="XMLID_32_" class="st0" d="M491.8,4.5c0-1.8,1.2-2.6,2.6-2.6c1.5,0,2.5,0.8,2.5,2.6c0,1.9-1.2,2.6-2.6,2.6
			C492.9,7.1,491.8,6.3,491.8,4.5z M495.4,4.5c0-0.9-0.3-1.4-1-1.4c-0.7,0-1,0.6-1,1.4c0,0.9,0.3,1.4,1,1.4
			C495.1,5.9,495.4,5.3,495.4,4.5z"/>
		<path id="XMLID_30_" class="st0" d="M497.9,3.1h-0.6V2.6l0.5-0.5c-0.1-0.2-0.2-0.4-0.2-0.7c0-0.9,0.8-1.4,1.8-1.4
			c0.7,0,1.1,0.2,1.2,0.3v1.2c-0.2-0.3-0.5-0.4-0.9-0.4c-0.4,0-0.6,0.2-0.6,0.5c0,0.2,0.1,0.3,0.1,0.4h1v1.2h-0.9V7h-1.5V3.1z"/>
		<path id="XMLID_27_" class="st0" d="M504.9,1.4l-0.2-0.6h1.6c0.2,0.5,2.2,5.6,2.5,6.2h-1.6l-0.4-1.1h-2.2L504.1,7h-1.5L504.9,1.4z
			 M504.9,4.8h1.4l-0.5-1.4l-0.2-0.5l-0.2,0.5L504.9,4.8z"/>
		<path id="XMLID_25_" class="st0" d="M509.1,6.7V5.4c0.3,0.3,0.8,0.6,1.5,0.6c0.6,0,0.8-0.2,0.8-0.5c0-0.3-0.1-0.4-0.7-0.5l-0.3,0
			c-1-0.1-1.5-0.7-1.5-1.5c0-0.9,0.6-1.6,2.1-1.6c0.8,0,1.3,0.2,1.6,0.4v1.3c-0.3-0.4-0.8-0.5-1.5-0.5c-0.6,0-0.8,0.2-0.8,0.4
			s0.1,0.4,0.6,0.5l0.3,0c1.1,0.2,1.6,0.6,1.6,1.5c0,0.9-0.6,1.7-2.2,1.7C509.9,7.1,509.4,6.9,509.1,6.7z"/>
		<path id="XMLID_22_" class="st0" d="M513.4,4.5c0-1.8,1.2-2.6,2.4-2.6c1.2,0,2.3,0.5,2.3,2.4v0.6h-3.2c0.1,0.6,0.4,1,1.3,1
			c0.8,0,1.4-0.3,1.6-0.6v1.2c-0.3,0.3-0.9,0.6-1.9,0.6C514.4,7.1,513.4,6.3,513.4,4.5z M516.7,4L516.7,4c0-0.6-0.3-1-0.9-1
			c-0.6,0-0.9,0.5-0.9,1H516.7z"/>
		<path id="XMLID_20_" class="st0" d="M518.9,2h1.3l0.1,0.4c0.2-0.3,0.7-0.6,1.3-0.6c1.3,0,1.8,0.7,1.8,2V7H522V4.1
			c0-0.8-0.2-1.1-0.8-1.1c-0.4,0-0.7,0.2-0.8,0.4V7h-1.5V2z"/>
		<path id="XMLID_17_" class="st0" d="M524.2,5.6c0-1,0.7-1.4,2.1-1.6l0.7-0.1c0-0.7-0.3-0.9-1-0.9c-0.7,0-1.4,0.4-1.6,0.9V2.5
			c0.2-0.3,0.8-0.7,1.9-0.7c1.4,0,2.2,0.6,2.2,2.1v3h-1.3l-0.1-0.4c-0.1,0.3-0.5,0.6-1.2,0.6C524.9,7.1,524.2,6.6,524.2,5.6z
			 M527,4.8l-0.6,0.1c-0.7,0.1-0.9,0.3-0.9,0.7c0,0.3,0.2,0.5,0.6,0.5c0.4,0,0.7-0.2,0.9-0.3V4.8z"/>
		<path id="XMLID_14_" class="st0" d="M529.5,2h1.3l0.1,0.4c0.2-0.3,0.6-0.6,1.3-0.6c1.3,0,2,0.7,2,2.5c0,1.8-1,2.8-2.2,2.8
			c-0.4,0-0.8-0.1-1.1-0.3v1.9h-1.5V2z M532.8,4.4c0-0.9-0.2-1.4-0.9-1.4c-0.4,0-0.7,0.2-0.8,0.4v2.3c0.2,0.2,0.5,0.3,0.8,0.3
			C532.5,6,532.8,5.3,532.8,4.4z"/>
		<path id="XMLID_11_" class="st0" d="M535.1,0.8c0-0.4,0.3-0.7,0.8-0.7c0.5,0,0.8,0.3,0.8,0.7c0,0.4-0.3,0.7-0.8,0.7
			C535.3,1.5,535.1,1.2,535.1,0.8z M535.1,2h1.5v5h-1.5V2z"/>
		<path id="XMLID_9_" class="st0" d="M537.6,2h1.3l0.1,0.4c0.2-0.3,0.7-0.6,1.3-0.6c1.3,0,1.8,0.7,1.8,2V7h-1.5V4.1
			c0-0.8-0.2-1.1-0.8-1.1c-0.4,0-0.7,0.2-0.8,0.4V7h-1.5V2z"/>
		<path id="XMLID_6_" class="st0" d="M542.9,4.5c0-1.8,1.2-2.6,2.4-2.6c1.2,0,2.3,0.5,2.3,2.4v0.6h-3.2c0.1,0.6,0.4,1,1.3,1
			c0.8,0,1.4-0.3,1.6-0.6v1.2c-0.3,0.3-0.9,0.6-1.9,0.6C543.9,7.1,542.9,6.3,542.9,4.5z M546.3,4L546.3,4c0-0.6-0.3-1-0.9-1
			c-0.6,0-0.9,0.5-0.9,1H546.3z"/>
		<path id="XMLID_4_" class="st0" d="M549.4,4.3c0-1.8-0.8-3.2-1.8-3.8h1.2c1.1,0.6,1.9,2.2,1.9,3.8c0,1.6-0.8,3.1-1.9,3.7h-1.3
			C548.6,7.4,549.4,6.1,549.4,4.3z"/>
	</g>
</g>
</svg>
