<!-- Generator: Adobe Illustrator 22.1.0, SVG Export Plug-In  -->
<svg version="1.1"
	 xmlns="http://www.w3.org/2000/svg" xmlns:xlink="http://www.w3.org/1999/xlink" xmlns:a="http://ns.adobe.com/AdobeSVGViewerExtensions/3.0/"
	 x="0px" y="0px" width="691.4px" height="19.7px" viewBox="0 0 691.4 19.7" style="enable-background:new 0 0 691.4 19.7;"
	 xml:space="preserve">
<style type="text/css">
	.st0{fill:#231F20;}
</style>
<defs>
</defs>
<g id="XMLID_1_">
	<g id="XMLID_3_">
		<path id="XMLID_477_" class="st0" d="M0.3,0.8h1.5v2.5L4,0.8h1.5L3.5,3.2L5.7,7H4L2.5,4.3L1.8,5V7H0.3V0.8z"/>
		<path id="XMLID_474_" class="st0" d="M5.9,5.6c0-1,0.7-1.4,2.1-1.6l0.7-0.1c0-0.7-0.3-0.9-1-0.9C7.1,3,6.4,3.3,6.1,3.9V2.5
			C6.4,2.2,6.9,1.8,8,1.8c1.4,0,2.2,0.6,2.2,2.1v3H8.9L8.8,6.5C8.7,6.8,8.3,7.1,7.6,7.1C6.6,7.1,5.9,6.6,5.9,5.6z M8.8,4.8L8.2,4.9
			C7.5,5.1,7.3,5.2,7.3,5.6c0,0.3,0.2,0.5,0.6,0.5c0.4,0,0.7-0.2,0.9-0.3V4.8z"/>
		<path id="XMLID_472_" class="st0" d="M11.2,2h1.3l0.1,0.4c0.2-0.3,0.7-0.6,1.3-0.6c1.3,0,1.8,0.7,1.8,2V7h-1.5V4.1
			c0-0.8-0.2-1.1-0.8-1.1c-0.4,0-0.7,0.2-0.8,0.4V7h-1.5V2z"/>
		<path id="XMLID_469_" class="st0" d="M16.5,4.5c0-1.8,1.2-2.6,2.4-2.6c1.2,0,2.3,0.5,2.3,2.4v0.6h-3.2c0.1,0.6,0.4,1,1.4,1
			c0.8,0,1.4-0.3,1.6-0.6v1.2c-0.3,0.3-0.9,0.6-1.9,0.6C17.5,7.1,16.5,6.3,16.5,4.5z M19.9,4L19.9,4c0-0.6-0.3-1-0.9-1
			c-0.6,0-0.9,0.5-0.9,1H19.9z"/>
		<path id="XMLID_467_" class="st0" d="M23.9,6.8V5.3c0.2,0.3,0.6,0.5,1,0.5c0.6,0,0.9-0.3,0.9-1.1v-4h1.5v4.1c0,1.6-1,2.2-2.2,2.2
			C24.5,7.1,24.1,6.9,23.9,6.8z"/>
		<path id="XMLID_465_" class="st0" d="M28.4,0.8h1.4l1.8,2.6l1.7-2.6h1.4V7h-1.5V3.1l-1.6,2.4h-0.1l-1.6-2.4V7h-1.5V0.8z"/>
		<path id="XMLID_463_" class="st0" d="M35.6,8.3C35.8,8,36,7.4,36.1,7c-0.3-0.1-0.5-0.5-0.5-0.8c0-0.5,0.4-0.9,0.9-0.9
			c0.5,0,0.9,0.4,0.9,1c0,0.9-0.7,1.8-1.1,2.1L35.6,8.3z"/>
		<path id="XMLID_461_" class="st0" d="M40.2,3.9c0-2.1,1.3-3.2,3-3.2c1,0,1.5,0.3,1.8,0.5v1.5c-0.3-0.5-0.8-0.7-1.6-0.7
			c-1.1,0-1.6,0.7-1.6,1.9c0,1.2,0.6,2,1.6,2c0.7,0,1.3-0.2,1.6-0.7v1.4c-0.3,0.3-1,0.6-1.8,0.6C41.4,7.1,40.2,6,40.2,3.9z"/>
		<path id="XMLID_458_" class="st0" d="M45.6,4.5c0-1.8,1.2-2.6,2.6-2.6c1.4,0,2.5,0.8,2.5,2.6c0,1.9-1.2,2.6-2.6,2.6
			C46.6,7.1,45.6,6.3,45.6,4.5z M49.1,4.5c0-0.9-0.3-1.4-1-1.4c-0.7,0-1,0.6-1,1.4c0,0.9,0.3,1.4,1,1.4C48.8,5.9,49.1,5.3,49.1,4.5z
			"/>
		<path id="XMLID_456_" class="st0" d="M51.4,0.2h1.5v2.2c0.2-0.3,0.7-0.5,1.3-0.5c1.3,0,1.8,0.7,1.8,2V7h-1.5V4.1
			c0-0.8-0.2-1.1-0.8-1.1c-0.4,0-0.7,0.2-0.8,0.4V7h-1.5V0.2z"/>
		<path id="XMLID_453_" class="st0" d="M56.7,4.5c0-1.8,1.2-2.6,2.4-2.6c1.2,0,2.3,0.5,2.3,2.4v0.6h-3.2c0.1,0.6,0.4,1,1.4,1
			c0.8,0,1.4-0.3,1.6-0.6v1.2c-0.3,0.3-0.9,0.6-1.9,0.6C57.7,7.1,56.7,6.3,56.7,4.5z M60.1,4L60.1,4c0-0.6-0.3-1-0.9-1
			c-0.6,0-0.9,0.5-0.9,1H60.1z"/>
		<path id="XMLID_451_" class="st0" d="M62.3,2h1.3l0.1,0.4c0.2-0.3,0.7-0.6,1.3-0.6c1.3,0,1.8,0.7,1.8,2V7h-1.5V4.1
			c0-0.8-0.2-1.1-0.8-1.1c-0.4,0-0.7,0.2-0.8,0.4V7h-1.5V2z"/>
		<path id="XMLID_449_" class="st0" d="M70.1,0.8h1.4l1.8,2.6L75,0.8h1.4V7h-1.5V3.1l-1.6,2.4h-0.1l-1.6-2.4V7h-1.5V0.8z"/>
		<path id="XMLID_447_" class="st0" d="M77.3,8.3C77.4,8,77.7,7.4,77.7,7c-0.3-0.1-0.5-0.5-0.5-0.8c0-0.5,0.4-0.9,0.9-0.9
			c0.5,0,0.9,0.4,0.9,1c0,0.9-0.7,1.8-1.1,2.1L77.3,8.3z"/>
		<path id="XMLID_445_" class="st0" d="M81.8,6.6L84.2,2h-2.3V0.8h4.2v0.4l-2.4,4.5h2.4V7h-4.3V6.6z"/>
		<path id="XMLID_443_" class="st0" d="M86.9,0.2h1.5v2.2c0.2-0.3,0.7-0.5,1.3-0.5c1.3,0,1.8,0.7,1.8,2V7h-1.5V4.1
			c0-0.8-0.2-1.1-0.8-1.1c-0.4,0-0.7,0.2-0.8,0.4V7h-1.5V0.2z"/>
		<path id="XMLID_440_" class="st0" d="M92.2,5.6c0-1,0.7-1.4,2.1-1.6L95,3.9C95,3.2,94.7,3,94,3c-0.7,0-1.4,0.4-1.6,0.9V2.5
			c0.2-0.3,0.8-0.7,1.9-0.7c1.4,0,2.2,0.6,2.2,2.1v3h-1.3l-0.1-0.4c-0.1,0.3-0.5,0.6-1.2,0.6C92.9,7.1,92.2,6.6,92.2,5.6z M95,4.8
			l-0.6,0.1c-0.7,0.1-0.9,0.3-0.9,0.7c0,0.3,0.2,0.5,0.6,0.5c0.4,0,0.7-0.2,0.9-0.3V4.8z"/>
		<path id="XMLID_437_" class="st0" d="M97.2,4.5c0-1.8,1.2-2.6,2.6-2.6c1.4,0,2.5,0.8,2.5,2.6c0,1.9-1.2,2.6-2.6,2.6
			C98.2,7.1,97.2,6.3,97.2,4.5z M100.8,4.5c0-0.9-0.3-1.4-1-1.4c-0.7,0-1,0.6-1,1.4c0,0.9,0.3,1.4,1,1.4
			C100.5,5.9,100.8,5.3,100.8,4.5z"/>
		<path id="XMLID_435_" class="st0" d="M104.9,6.8V5.3c0.2,0.3,0.6,0.5,1,0.5c0.6,0,0.9-0.3,0.9-1.1v-4h1.5v4.1c0,1.6-1,2.2-2.2,2.2
			C105.4,7.1,105.1,6.9,104.9,6.8z"/>
		<path id="XMLID_433_" class="st0" d="M109.1,8.3c0.2-0.3,0.4-0.9,0.5-1.3c-0.3-0.1-0.5-0.5-0.5-0.8c0-0.5,0.4-0.9,0.9-0.9
			c0.5,0,0.9,0.4,0.9,1c0,0.9-0.7,1.8-1.1,2.1L109.1,8.3z"/>
		<path id="XMLID_430_" class="st0" d="M115.7,1.4l-0.2-0.6h1.6c0.2,0.5,2.2,5.6,2.5,6.2h-1.6l-0.4-1.1h-2.2L114.9,7h-1.4L115.7,1.4
			z M115.7,4.8h1.4l-0.5-1.4l-0.2-0.5l-0.2,0.5L115.7,4.8z"/>
		<path id="XMLID_428_" class="st0" d="M119.9,5.7V0.2h1.5v5.4c0,0.3,0.1,0.4,0.3,0.4c0.2,0,0.4-0.1,0.4-0.2v1.1
			c-0.1,0.1-0.4,0.3-0.9,0.3C120.4,7.1,119.9,6.6,119.9,5.7z"/>
		<path id="XMLID_425_" class="st0" d="M122.8,2h1.3l0.1,0.4c0.2-0.3,0.6-0.6,1.3-0.6c1.3,0,2,0.7,2,2.5c0,1.8-1,2.8-2.2,2.8
			c-0.4,0-0.8-0.1-1.1-0.3v1.9h-1.5V2z M126.1,4.4c0-0.9-0.2-1.4-0.9-1.4c-0.4,0-0.7,0.2-0.8,0.4v2.3c0.2,0.2,0.5,0.3,0.8,0.3
			C125.8,6,126.1,5.3,126.1,4.4z"/>
		<path id="XMLID_423_" class="st0" d="M128.4,0.2h1.5v2.2c0.2-0.3,0.7-0.5,1.3-0.5c1.3,0,1.8,0.7,1.8,2V7h-1.5V4.1
			c0-0.8-0.2-1.1-0.8-1.1c-0.4,0-0.7,0.2-0.8,0.4V7h-1.5V0.2z"/>
		<path id="XMLID_421_" class="st0" d="M133.8,6.7V5.4c0.3,0.3,0.8,0.6,1.5,0.6c0.6,0,0.8-0.2,0.8-0.5c0-0.3-0.1-0.4-0.7-0.5l-0.3,0
			c-1-0.1-1.5-0.7-1.5-1.5c0-0.9,0.6-1.6,2.1-1.6c0.8,0,1.3,0.2,1.6,0.4v1.3C137,3.2,136.5,3,135.8,3c-0.6,0-0.8,0.2-0.8,0.4
			s0.1,0.4,0.6,0.5l0.3,0c1.1,0.2,1.6,0.6,1.6,1.5c0,0.9-0.6,1.7-2.2,1.7C134.6,7.1,134.1,6.9,133.8,6.7z"/>
		<path id="XMLID_419_" class="st0" d="M140.5,0.8h1.5v4.9h2.2V7h-3.7V0.8z"/>
		<path id="XMLID_417_" class="st0" d="M144.7,8.3c0.2-0.3,0.4-0.9,0.5-1.3c-0.3-0.1-0.5-0.5-0.5-0.8c0-0.5,0.4-0.9,0.9-0.9
			c0.5,0,0.9,0.4,0.9,1c0,0.9-0.7,1.8-1.1,2.1L144.7,8.3z"/>
		<path id="XMLID_415_" class="st0" d="M149.6,0.8h2.1c1.8,0,2.6,0.8,2.6,2.1c0,1.3-0.8,2.3-2.6,2.3h-0.3V4.1h0.3
			c0.7,0,1.1-0.4,1.1-1.1c0-0.7-0.4-1-1.1-1h-0.5v5h-1.5V0.8z"/>
		<path id="XMLID_412_" class="st0" d="M154.7,5.6c0-1,0.7-1.4,2.1-1.6l0.7-0.1c0-0.7-0.3-0.9-1-0.9c-0.7,0-1.4,0.4-1.6,0.9V2.5
			c0.2-0.3,0.8-0.7,1.9-0.7c1.4,0,2.2,0.6,2.2,2.1v3h-1.3l-0.1-0.4c-0.1,0.3-0.5,0.6-1.2,0.6C155.4,7.1,154.7,6.6,154.7,5.6z
			 M157.6,4.8L157,4.9c-0.7,0.1-0.9,0.3-0.9,0.7c0,0.3,0.2,0.5,0.6,0.5c0.4,0,0.7-0.2,0.9-0.3V4.8z"/>
		<path id="XMLID_410_" class="st0" d="M160,2h1.3l0.1,0.4c0.2-0.3,0.7-0.6,1.3-0.6c1.3,0,1.8,0.7,1.8,2V7h-1.5V4.1
			c0-0.8-0.2-1.1-0.8-1.1c-0.4,0-0.7,0.2-0.8,0.4V7H160V2z"/>
		<path id="XMLID_407_" class="st0" d="M165.3,5.6c0-1,0.7-1.4,2.1-1.6l0.7-0.1c0-0.7-0.3-0.9-1-0.9c-0.7,0-1.4,0.4-1.6,0.9V2.5
			c0.2-0.3,0.8-0.7,1.9-0.7c1.4,0,2.2,0.6,2.2,2.1v3h-1.3l-0.1-0.4c-0.1,0.3-0.5,0.6-1.2,0.6C166,7.1,165.3,6.6,165.3,5.6z
			 M168.2,4.8l-0.6,0.1c-0.7,0.1-0.9,0.3-0.9,0.7c0,0.3,0.2,0.5,0.6,0.5c0.4,0,0.7-0.2,0.9-0.3V4.8z"/>
		<path id="XMLID_404_" class="st0" d="M170.4,8.4V7.3c0.5,0.3,1.1,0.5,2.1,0.5c1.2,0,1.7-0.1,1.7-0.5c0-0.3-0.3-0.4-1-0.4
			c-0.7,0-1.9,0.2-2.2,0.3v-1l0.7-1c-0.7-0.2-1.2-0.8-1.2-1.6c0-1.1,0.9-1.8,2.2-1.8c0.6,0,1.1,0.1,1.4,0.4c0.2-0.3,0.5-0.4,1-0.4
			c0.1,0,0.3,0,0.4,0.1V3c-0.1-0.1-0.2-0.1-0.3-0.1c-0.2,0-0.3,0.1-0.4,0.1c0.1,0.2,0.1,0.4,0.1,0.6c0,1.1-0.9,1.7-2.2,1.7h-0.1
			l-0.4,0.6c0.2-0.1,0.8-0.1,1.3-0.1c1.3,0,2.1,0.3,2.1,1.4c0,1.1-1,1.7-2.9,1.7C171.6,8.9,170.8,8.7,170.4,8.4z M173.4,3.6
			c0-0.4-0.3-0.7-0.8-0.7c-0.5,0-0.8,0.2-0.8,0.7c0,0.4,0.3,0.7,0.8,0.7C173.1,4.2,173.4,4,173.4,3.6z"/>
		<path id="XMLID_401_" class="st0" d="M176.1,0.8c0-0.4,0.3-0.7,0.8-0.7c0.5,0,0.8,0.3,0.8,0.7c0,0.4-0.3,0.7-0.8,0.7
			C176.3,1.5,176.1,1.2,176.1,0.8z M176.1,2h1.5v5h-1.5V2z"/>
		<path id="XMLID_398_" class="st0" d="M178.4,4.5c0-1.8,0.9-2.7,2.2-2.7c0.4,0,0.8,0.1,1.1,0.3v-2h1.5V7h-1.3l-0.1-0.4
			c-0.2,0.3-0.6,0.6-1.3,0.6C179.2,7.1,178.4,6.3,178.4,4.5z M181.6,3.3c-0.2-0.2-0.5-0.3-0.8-0.3c-0.7,0-1,0.7-1,1.6
			s0.2,1.4,0.9,1.4c0.4,0,0.7-0.2,0.8-0.4V3.3z"/>
		<path id="XMLID_395_" class="st0" d="M183.9,4.5c0-1.8,1.2-2.6,2.4-2.6c1.2,0,2.3,0.5,2.3,2.4v0.6h-3.2c0.1,0.6,0.4,1,1.4,1
			c0.8,0,1.4-0.3,1.6-0.6v1.2c-0.3,0.3-0.9,0.6-1.9,0.6C184.9,7.1,183.9,6.3,183.9,4.5z M187.3,4L187.3,4c0-0.6-0.3-1-0.9-1
			c-0.6,0-0.9,0.5-0.9,1H187.3z"/>
		<path id="XMLID_393_" class="st0" d="M189.3,6.7V5.4c0.3,0.3,0.8,0.6,1.5,0.6c0.6,0,0.8-0.2,0.8-0.5c0-0.3-0.1-0.4-0.7-0.5l-0.3,0
			c-1-0.1-1.5-0.7-1.5-1.5c0-0.9,0.6-1.6,2.1-1.6c0.8,0,1.3,0.2,1.6,0.4v1.3C192.5,3.2,192,3,191.3,3c-0.6,0-0.8,0.2-0.8,0.4
			s0.1,0.4,0.6,0.5l0.3,0c1.1,0.2,1.6,0.6,1.6,1.5c0,0.9-0.6,1.7-2.2,1.7C190.1,7.1,189.6,6.9,189.3,6.7z"/>
		<path id="XMLID_391_" class="st0" d="M195.6,6.8V5.3c0.2,0.3,0.6,0.5,1,0.5c0.6,0,0.9-0.3,0.9-1.1v-4h1.5v4.1c0,1.6-1,2.2-2.2,2.2
			C196.2,7.1,195.8,6.9,195.6,6.8z"/>
		<path id="XMLID_389_" class="st0" d="M199.9,6.2c0-0.5,0.4-0.9,0.9-0.9c0.5,0,0.9,0.4,0.9,0.9c0,0.5-0.4,0.9-0.9,0.9
			C200.3,7.1,199.9,6.7,199.9,6.2z"/>
		<path id="XMLID_387_" class="st0" d="M204.8,0.8h4.2V2h-2.7v1.2h1.7v1.2h-1.7v1.3h2.7V7h-4.2V0.8z"/>
		<path id="XMLID_384_" class="st0" d="M210.1,3.1h-0.6V2.6l0.5-0.5c-0.1-0.2-0.2-0.4-0.2-0.7c0-0.9,0.8-1.4,1.6-1.4
			c0.6,0,0.9,0.2,1,0.3v1.2c-0.1-0.2-0.4-0.4-0.7-0.4c-0.3,0-0.5,0.2-0.5,0.5c0,0.2,0.1,0.3,0.1,0.4h1.5c-0.1-0.1-0.1-0.3-0.1-0.6
			c0-0.9,0.8-1.4,1.7-1.4c0.6,0,0.9,0.2,1,0.3v1.2c-0.1-0.2-0.4-0.4-0.7-0.4c-0.3,0-0.5,0.2-0.5,0.5c0,0.2,0.1,0.3,0.1,0.4h3.1v5
			H216V3.1h-1.5V7H213V3.1h-1.5V7h-1.5V3.1z M216,0.8c0-0.4,0.3-0.7,0.8-0.7c0.5,0,0.8,0.3,0.8,0.7c0,0.4-0.3,0.7-0.8,0.7
			C216.2,1.5,216,1.3,216,0.8z"/>
		<path id="XMLID_382_" class="st0" d="M218.3,4.5c0-1.8,1.2-2.6,2.5-2.6c0.7,0,1.3,0.2,1.5,0.4v1.3c-0.3-0.4-0.7-0.5-1.3-0.5
			c-0.8,0-1.2,0.5-1.2,1.4c0,0.9,0.4,1.4,1.2,1.4c0.6,0,1-0.2,1.3-0.5v1.3c-0.2,0.2-0.8,0.5-1.5,0.5C219.3,7.1,218.3,6.3,218.3,4.5z
			"/>
		<path id="XMLID_379_" class="st0" d="M222.9,5.6c0-1,0.7-1.4,2.1-1.6l0.7-0.1c0-0.7-0.3-0.9-1-0.9c-0.7,0-1.4,0.4-1.6,0.9V2.5
			c0.2-0.3,0.8-0.7,1.9-0.7c1.4,0,2.2,0.6,2.2,2.1v3h-1.3l-0.1-0.4c-0.1,0.3-0.5,0.6-1.2,0.6C223.6,7.1,222.9,6.6,222.9,5.6z
			 M225.7,4.8l-0.6,0.1c-0.7,0.1-0.9,0.3-0.9,0.7c0,0.3,0.2,0.5,0.6,0.5c0.4,0,0.7-0.2,0.9-0.3V4.8z"/>
		<path id="XMLID_377_" class="st0" d="M227.9,4.5c0-1.8,1.2-2.6,2.5-2.6c0.7,0,1.3,0.2,1.5,0.4v1.3c-0.3-0.4-0.7-0.5-1.3-0.5
			c-0.8,0-1.2,0.5-1.2,1.4c0,0.9,0.4,1.4,1.2,1.4c0.6,0,1-0.2,1.3-0.5v1.3c-0.2,0.2-0.8,0.5-1.5,0.5C228.9,7.1,227.9,6.3,227.9,4.5z
			"/>
		<path id="XMLID_375_" class="st0" d="M232.5,8.6V7.4c0.2,0.2,0.5,0.4,0.9,0.4c0.3,0,0.6-0.1,0.9-0.7l-2-5.1h1.6l1,3.3l0.9-3.3h1.4
			l-1.4,4.7c-0.4,1.2-1,2.2-2.3,2.2C233.1,8.9,232.7,8.7,232.5,8.6z"/>
		<path id="XMLID_372_" class="st0" d="M239.7,5.6c0-1,0.7-1.4,2.1-1.6l0.7-0.1c0-0.7-0.3-0.9-1-0.9c-0.7,0-1.4,0.4-1.6,0.9V2.5
			c0.2-0.3,0.8-0.7,1.9-0.7c1.4,0,2.2,0.6,2.2,2.1v3h-1.3l-0.1-0.4c-0.1,0.3-0.5,0.6-1.2,0.6C240.4,7.1,239.7,6.6,239.7,5.6z
			 M242.5,4.8L242,4.9c-0.7,0.1-0.9,0.3-0.9,0.7c0,0.3,0.2,0.5,0.6,0.5c0.4,0,0.7-0.2,0.9-0.3V4.8z"/>
		<path id="XMLID_370_" class="st0" d="M245,2h1.3l0.1,0.4c0.2-0.3,0.7-0.6,1.3-0.6c1.3,0,1.8,0.7,1.8,2V7h-1.5V4.1
			c0-0.8-0.2-1.1-0.8-1.1c-0.4,0-0.7,0.2-0.8,0.4V7H245V2z"/>
		<path id="XMLID_367_" class="st0" d="M250.3,4.5c0-1.8,0.9-2.7,2.2-2.7c0.4,0,0.8,0.1,1.1,0.3v-2h1.5V7h-1.3l-0.1-0.4
			c-0.2,0.3-0.6,0.6-1.3,0.6C251.2,7.1,250.3,6.3,250.3,4.5z M253.6,3.3c-0.2-0.2-0.5-0.3-0.8-0.3c-0.7,0-1,0.7-1,1.6
			s0.2,1.4,0.9,1.4c0.4,0,0.7-0.2,0.8-0.4V3.3z"/>
		<path id="XMLID_365_" class="st0" d="M258.2,6.7V5.4c0.3,0.3,0.8,0.6,1.5,0.6c0.6,0,0.8-0.2,0.8-0.5c0-0.3-0.1-0.4-0.7-0.5l-0.3,0
			c-1-0.1-1.5-0.7-1.5-1.5c0-0.9,0.6-1.6,2.1-1.6c0.8,0,1.3,0.2,1.6,0.4v1.3c-0.3-0.4-0.8-0.5-1.5-0.5c-0.6,0-0.8,0.2-0.8,0.4
			s0.1,0.4,0.6,0.5l0.3,0c1.1,0.2,1.6,0.6,1.6,1.5c0,0.9-0.6,1.7-2.2,1.7C259,7.1,258.4,6.9,258.2,6.7z"/>
		<path id="XMLID_362_" class="st0" d="M262.4,5.6c0-1,0.7-1.4,2.1-1.6l0.7-0.1c0-0.7-0.3-0.9-1-0.9c-0.7,0-1.4,0.4-1.6,0.9V2.5
			c0.2-0.3,0.8-0.7,1.9-0.7c1.4,0,2.2,0.6,2.2,2.1v3h-1.3l-0.1-0.4c-0.1,0.3-0.5,0.6-1.2,0.6C263.1,7.1,262.4,6.6,262.4,5.6z
			 M265.3,4.8l-0.6,0.1c-0.7,0.1-0.9,0.3-0.9,0.7c0,0.3,0.2,0.5,0.6,0.5c0.4,0,0.7-0.2,0.9-0.3V4.8z"/>
		<path id="XMLID_360_" class="st0" d="M268,3.1h-0.6V2.6l0.5-0.5c-0.1-0.2-0.2-0.4-0.2-0.7c0-0.9,0.8-1.4,1.8-1.4
			c0.7,0,1.1,0.2,1.2,0.3v1.2c-0.2-0.3-0.5-0.4-0.9-0.4c-0.4,0-0.6,0.2-0.6,0.5c0,0.2,0.1,0.3,0.1,0.4h1v1.2h-0.9V7H268V3.1z"/>
		<path id="XMLID_357_" class="st0" d="M270.7,4.5c0-1.8,1.2-2.6,2.4-2.6c1.2,0,2.3,0.5,2.3,2.4v0.6h-3.2c0.1,0.6,0.4,1,1.4,1
			c0.8,0,1.4-0.3,1.6-0.6v1.2c-0.3,0.3-0.9,0.6-1.9,0.6C271.7,7.1,270.7,6.3,270.7,4.5z M274.1,4L274.1,4c0-0.6-0.3-1-0.9-1
			c-0.6,0-0.9,0.5-0.9,1H274.1z"/>
		<path id="XMLID_355_" class="st0" d="M276.5,5.5V3.1h-0.6V2.6l0.5-0.6l0.9-1.2h0.7V2h1.2v1.2H278v2.3c0,0.4,0.1,0.5,0.4,0.5
			c0.3,0,0.6-0.2,0.7-0.4v1.2c-0.2,0.2-0.5,0.4-1.1,0.4C276.9,7.1,276.5,6.5,276.5,5.5z"/>
		<path id="XMLID_353_" class="st0" d="M279.7,8.6V7.4c0.2,0.2,0.5,0.4,0.9,0.4c0.3,0,0.6-0.1,0.9-0.7l-2-5.1h1.6l1,3.3l0.9-3.3h1.4
			L283,6.7c-0.4,1.2-1,2.2-2.3,2.2C280.2,8.9,279.9,8.7,279.7,8.6z"/>
		<path id="XMLID_350_" class="st0" d="M286.9,4.5c0-1.8,1.2-2.6,2.6-2.6c1.4,0,2.5,0.8,2.5,2.6c0,1.9-1.2,2.6-2.6,2.6
			C287.9,7.1,286.9,6.3,286.9,4.5z M290.4,4.5c0-0.9-0.3-1.4-1-1.4c-0.7,0-1,0.6-1,1.4c0,0.9,0.3,1.4,1,1.4
			C290.1,5.9,290.4,5.3,290.4,4.5z"/>
		<path id="XMLID_348_" class="st0" d="M293,3.1h-0.6V2.6l0.5-0.5c-0.1-0.2-0.2-0.4-0.2-0.7c0-0.9,0.8-1.4,1.8-1.4
			c0.7,0,1.1,0.2,1.2,0.3v1.2c-0.2-0.3-0.5-0.4-0.9-0.4c-0.4,0-0.6,0.2-0.6,0.5c0,0.2,0.1,0.3,0.1,0.4h1v1.2h-0.9V7H293V3.1z"/>
		<path id="XMLID_345_" class="st0" d="M297.9,5.6c0-1,0.7-1.4,2.1-1.6l0.7-0.1c0-0.7-0.3-0.9-1-0.9c-0.7,0-1.4,0.4-1.6,0.9V2.5
			c0.2-0.3,0.8-0.7,1.9-0.7c1.4,0,2.2,0.6,2.2,2.1v3H301l-0.1-0.4c-0.1,0.3-0.5,0.6-1.2,0.6C298.6,7.1,297.9,6.6,297.9,5.6z
			 M300.8,4.8l-0.6,0.1c-0.7,0.1-0.9,0.3-0.9,0.7c0,0.3,0.2,0.5,0.6,0.5c0.4,0,0.7-0.2,0.9-0.3V4.8z"/>
		<path id="XMLID_343_" class="st0" d="M303.1,6.7V5.4c0.3,0.3,0.8,0.6,1.5,0.6c0.6,0,0.8-0.2,0.8-0.5c0-0.3-0.1-0.4-0.7-0.5l-0.3,0
			c-1-0.1-1.5-0.7-1.5-1.5c0-0.9,0.6-1.6,2.1-1.6c0.8,0,1.3,0.2,1.6,0.4v1.3c-0.3-0.4-0.8-0.5-1.5-0.5c-0.6,0-0.8,0.2-0.8,0.4
			s0.1,0.4,0.6,0.5l0.3,0c1.1,0.2,1.6,0.6,1.6,1.5c0,0.9-0.6,1.7-2.2,1.7C303.9,7.1,303.4,6.9,303.1,6.7z"/>
		<path id="XMLID_340_" class="st0" d="M307.4,4.5c0-1.8,1.2-2.6,2.4-2.6c1.2,0,2.3,0.5,2.3,2.4v0.6h-3.2c0.1,0.6,0.4,1,1.4,1
			c0.8,0,1.4-0.3,1.6-0.6v1.2c-0.3,0.3-0.9,0.6-1.9,0.6C308.4,7.1,307.4,6.3,307.4,4.5z M310.7,4L310.7,4c0-0.6-0.3-1-0.9-1
			c-0.6,0-0.9,0.5-0.9,1H310.7z"/>
		<path id="XMLID_338_" class="st0" d="M312.9,2h1.3l0.1,0.4c0.2-0.3,0.7-0.6,1.3-0.6c1.3,0,1.8,0.7,1.8,2V7H316V4.1
			c0-0.8-0.2-1.1-0.8-1.1c-0.4,0-0.7,0.2-0.8,0.4V7h-1.5V2z"/>
		<path id="XMLID_335_" class="st0" d="M318.2,5.6c0-1,0.7-1.4,2.1-1.6l0.7-0.1c0-0.7-0.3-0.9-1-0.9c-0.7,0-1.4,0.4-1.6,0.9V2.5
			c0.2-0.3,0.8-0.7,1.9-0.7c1.4,0,2.2,0.6,2.2,2.1v3h-1.3l-0.1-0.4c-0.1,0.3-0.5,0.6-1.2,0.6C318.9,7.1,318.2,6.6,318.2,5.6z
			 M321,4.8l-0.6,0.1c-0.7,0.1-0.9,0.3-0.9,0.7c0,0.3,0.2,0.5,0.6,0.5c0.4,0,0.7-0.2,0.9-0.3V4.8z"/>
		<path id="XMLID_332_" class="st0" d="M323.5,2h1.3l0.1,0.4c0.2-0.3,0.6-0.6,1.3-0.6c1.3,0,2,0.7,2,2.5c0,1.8-1,2.8-2.2,2.8
			c-0.4,0-0.8-0.1-1.1-0.3v1.9h-1.5V2z M326.8,4.4c0-0.9-0.2-1.4-0.9-1.4c-0.4,0-0.7,0.2-0.8,0.4v2.3c0.2,0.2,0.5,0.3,0.8,0.3
			C326.5,6,326.8,5.3,326.8,4.4z"/>
		<path id="XMLID_329_" class="st0" d="M329.1,0.8c0-0.4,0.3-0.7,0.8-0.7c0.5,0,0.8,0.3,0.8,0.7c0,0.4-0.3,0.7-0.8,0.7
			C329.3,1.5,329.1,1.2,329.1,0.8z M329.1,2h1.5v5h-1.5V2z"/>
		<path id="XMLID_327_" class="st0" d="M331.6,2h1.3l0.1,0.4c0.2-0.3,0.7-0.6,1.3-0.6c1.3,0,1.8,0.7,1.8,2V7h-1.5V4.1
			c0-0.8-0.2-1.1-0.8-1.1c-0.4,0-0.7,0.2-0.8,0.4V7h-1.5V2z"/>
		<path id="XMLID_324_" class="st0" d="M336.9,4.5c0-1.8,1.2-2.6,2.4-2.6c1.2,0,2.3,0.5,2.3,2.4v0.6h-3.2c0.1,0.6,0.4,1,1.4,1
			c0.8,0,1.4-0.3,1.6-0.6v1.2c-0.3,0.3-0.9,0.6-1.9,0.6C337.9,7.1,336.9,6.3,336.9,4.5z M340.3,4L340.3,4c0-0.6-0.3-1-0.9-1
			c-0.6,0-0.9,0.5-0.9,1H340.3z"/>
		<path id="XMLID_321_" class="st0" d="M344.6,0.8c0-0.4,0.3-0.7,0.8-0.7c0.5,0,0.8,0.3,0.8,0.7c0,0.4-0.3,0.7-0.8,0.7
			C344.9,1.5,344.6,1.2,344.6,0.8z M344.6,2h1.5v5h-1.5V2z"/>
		<path id="XMLID_319_" class="st0" d="M347.1,2h1.3l0.1,0.4c0.2-0.3,0.7-0.6,1.3-0.6c1.3,0,1.8,0.7,1.8,2V7h-1.5V4.1
			c0-0.8-0.2-1.1-0.8-1.1c-0.4,0-0.7,0.2-0.8,0.4V7h-1.5V2z"/>
		<path id="XMLID_316_" class="st0" d="M354.6,5.6c0-1,0.7-1.4,2.1-1.6l0.7-0.1c0-0.7-0.3-0.9-1-0.9c-0.7,0-1.4,0.4-1.6,0.9V2.5
			c0.2-0.3,0.8-0.7,1.9-0.7c1.4,0,2.2,0.6,2.2,2.1v3h-1.3l-0.1-0.4c-0.1,0.3-0.5,0.6-1.2,0.6C355.3,7.1,354.6,6.6,354.6,5.6z
			 M357.4,4.8l-0.6,0.1c-0.7,0.1-0.9,0.3-0.9,0.7c0,0.3,0.2,0.5,0.6,0.5c0.4,0,0.7-0.2,0.9-0.3V4.8z"/>
		<path id="XMLID_313_" class="st0" d="M362.1,2h1.3l0.1,0.4c0.2-0.3,0.6-0.6,1.3-0.6c1.3,0,2,0.7,2,2.5c0,1.8-1,2.8-2.2,2.8
			c-0.4,0-0.8-0.1-1.1-0.3v1.9h-1.5V2z M365.3,4.4c0-0.9-0.2-1.4-0.9-1.4c-0.4,0-0.7,0.2-0.8,0.4v2.3c0.2,0.2,0.5,0.3,0.8,0.3
			C365,6,365.3,5.3,365.3,4.4z"/>
		<path id="XMLID_311_" class="st0" d="M367.6,5.7V0.2h1.5v5.4c0,0.3,0.1,0.4,0.3,0.4c0.2,0,0.4-0.1,0.4-0.2v1.1
			c-0.1,0.1-0.4,0.3-0.9,0.3C368.1,7.1,367.6,6.6,367.6,5.7z"/>
		<path id="XMLID_308_" class="st0" d="M370.2,5.6c0-1,0.7-1.4,2.1-1.6l0.7-0.1c0-0.7-0.3-0.9-1-0.9c-0.7,0-1.4,0.4-1.6,0.9V2.5
			c0.2-0.3,0.8-0.7,1.9-0.7c1.4,0,2.2,0.6,2.2,2.1v3h-1.3l-0.1-0.4c-0.1,0.3-0.5,0.6-1.2,0.6C370.9,7.1,370.2,6.6,370.2,5.6z
			 M373.1,4.8l-0.6,0.1c-0.7,0.1-0.9,0.3-0.9,0.7c0,0.3,0.2,0.5,0.6,0.5c0.4,0,0.7-0.2,0.9-0.3V4.8z"/>
		<path id="XMLID_306_" class="st0" d="M375.3,4.5c0-1.8,1.2-2.6,2.5-2.6c0.7,0,1.3,0.2,1.5,0.4v1.3c-0.3-0.4-0.7-0.5-1.3-0.5
			c-0.8,0-1.2,0.5-1.2,1.4c0,0.9,0.4,1.4,1.2,1.4c0.6,0,1-0.2,1.3-0.5v1.3c-0.2,0.2-0.8,0.5-1.5,0.5C376.3,7.1,375.3,6.3,375.3,4.5z
			"/>
		<path id="XMLID_303_" class="st0" d="M379.9,4.5c0-1.8,1.2-2.6,2.4-2.6c1.2,0,2.3,0.5,2.3,2.4v0.6h-3.2c0.1,0.6,0.4,1,1.4,1
			c0.8,0,1.4-0.3,1.6-0.6v1.2c-0.3,0.3-0.9,0.6-1.9,0.6C380.9,7.1,379.9,6.3,379.9,4.5z M383.2,4L383.2,4c0-0.6-0.3-1-0.9-1
			c-0.6,0-0.9,0.5-0.9,1H383.2z"/>
		<path id="XMLID_300_" class="st0" d="M386.7,6.6L386.5,7h-1.1V0.2h1.5v2.2c0.1-0.2,0.6-0.5,1.3-0.5c1.2,0,2,0.7,2,2.5
			c0,1.8-1,2.8-2.2,2.8C387.3,7.1,386.9,6.9,386.7,6.6z M386.9,5.6c0.2,0.2,0.5,0.3,0.8,0.3c0.7,0,1-0.7,1-1.6S388.4,3,387.7,3
			c-0.4,0-0.7,0.2-0.8,0.4V5.6z"/>
		<path id="XMLID_297_" class="st0" d="M390.8,4.5c0-1.8,1.2-2.6,2.6-2.6c1.4,0,2.5,0.8,2.5,2.6c0,1.9-1.2,2.6-2.6,2.6
			C391.8,7.1,390.8,6.3,390.8,4.5z M394.3,4.5c0-0.9-0.3-1.4-1-1.4c-0.7,0-1,0.6-1,1.4c0,0.9,0.3,1.4,1,1.4
			C394,5.9,394.3,5.3,394.3,4.5z"/>
		<path id="XMLID_295_" class="st0" d="M396.5,3.6h2.4v1.2h-2.4V3.6z"/>
		<path id="XMLID_292_" class="st0" d="M401.9,5.6c0-1,0.7-1.4,2.1-1.6l0.7-0.1c0-0.7-0.3-0.9-1-0.9c-0.7,0-1.4,0.4-1.6,0.9V2.5
			c0.2-0.3,0.8-0.7,1.9-0.7c1.4,0,2.2,0.6,2.2,2.1v3h-1.3l-0.1-0.4c-0.1,0.3-0.5,0.6-1.2,0.6C402.6,7.1,401.9,6.6,401.9,5.6z
			 M404.7,4.8l-0.6,0.1c-0.7,0.1-0.9,0.3-0.9,0.7c0,0.3,0.2,0.5,0.6,0.5c0.4,0,0.7-0.2,0.9-0.3V4.8z"/>
		<path id="XMLID_290_" class="st0" d="M407.2,2h1.3l0.1,0.4c0.2-0.3,0.7-0.6,1.3-0.6c1.3,0,1.8,0.7,1.8,2V7h-1.5V4.1
			c0-0.8-0.2-1.1-0.8-1.1c-0.4,0-0.7,0.2-0.8,0.4V7h-1.5V2z"/>
		<path id="XMLID_287_" class="st0" d="M412.5,4.5c0-1.8,0.9-2.7,2.2-2.7c0.4,0,0.8,0.1,1.1,0.3v-2h1.5V7H416l-0.1-0.4
			c-0.2,0.3-0.6,0.6-1.3,0.6C413.4,7.1,412.5,6.3,412.5,4.5z M415.8,3.3C415.6,3.1,415.3,3,415,3c-0.7,0-1,0.7-1,1.6
			s0.2,1.4,0.9,1.4c0.4,0,0.7-0.2,0.8-0.4V3.3z"/>
		<path id="XMLID_285_" class="st0" d="M420.5,0.2h1.5v2.2c0.2-0.3,0.7-0.5,1.3-0.5c1.3,0,1.8,0.7,1.8,2V7h-1.5V4.1
			c0-0.8-0.2-1.1-0.8-1.1c-0.4,0-0.7,0.2-0.8,0.4V7h-1.5V0.2z"/>
		<path id="XMLID_282_" class="st0" d="M425.8,5.6c0-1,0.7-1.4,2.1-1.6l0.7-0.1c0-0.7-0.3-0.9-1-0.9c-0.7,0-1.4,0.4-1.6,0.9V2.5
			c0.2-0.3,0.8-0.7,1.9-0.7c1.4,0,2.2,0.6,2.2,2.1v3h-1.3l-0.1-0.4c-0.1,0.3-0.5,0.6-1.2,0.6C426.5,7.1,425.8,6.6,425.8,5.6z
			 M428.6,4.8L428,4.9c-0.7,0.1-0.9,0.3-0.9,0.7c0,0.3,0.2,0.5,0.6,0.5c0.4,0,0.7-0.2,0.9-0.3V4.8z"/>
		<path id="XMLID_280_" class="st0" d="M431.1,5.7V0.2h1.5v5.4c0,0.3,0.1,0.4,0.3,0.4c0.2,0,0.4-0.1,0.4-0.2v1.1
			c-0.1,0.1-0.4,0.3-0.9,0.3C431.5,7.1,431.1,6.6,431.1,5.7z"/>
		<path id="XMLID_277_" class="st0" d="M433.7,4.5c0-1.8,1.2-2.6,2.6-2.6c1.5,0,2.5,0.8,2.5,2.6c0,1.9-1.2,2.6-2.6,2.6
			C434.7,7.1,433.7,6.3,433.7,4.5z M437.2,4.5c0-0.9-0.3-1.4-1-1.4c-0.7,0-1,0.6-1,1.4c0,0.9,0.3,1.4,1,1.4
			C436.9,5.9,437.2,5.3,437.2,4.5z"/>
		<path id="XMLID_274_" class="st0" d="M439.5,2h1.3l0.1,0.4c0.2-0.3,0.6-0.6,1.3-0.6c1.3,0,2,0.7,2,2.5c0,1.8-1,2.8-2.2,2.8
			c-0.4,0-0.8-0.1-1.1-0.3v1.9h-1.5V2z M442.8,4.4c0-0.9-0.2-1.4-0.9-1.4c-0.4,0-0.7,0.2-0.8,0.4v2.3c0.2,0.2,0.5,0.3,0.8,0.3
			C442.5,6,442.8,5.3,442.8,4.4z"/>
		<path id="XMLID_271_" class="st0" d="M444.9,4.5c0-1.8,1.2-2.6,2.4-2.6c1.2,0,2.3,0.5,2.3,2.4v0.6h-3.2c0.1,0.6,0.4,1,1.3,1
			c0.8,0,1.4-0.3,1.6-0.6v1.2c-0.3,0.3-0.9,0.6-1.9,0.6C445.9,7.1,444.9,6.3,444.9,4.5z M448.2,4L448.2,4c0-0.6-0.3-1-0.9-1
			c-0.6,0-0.9,0.5-0.9,1H448.2z"/>
		<path id="XMLID_269_" class="st0" d="M450.4,2h1.2l0.1,0.7c0.1-0.5,0.5-0.8,1-0.8c0.3,0,0.4,0.1,0.5,0.1v1.3
			c-0.1-0.1-0.3-0.1-0.6-0.1c-0.4,0-0.6,0.2-0.7,0.4V7h-1.5V2z"/>
		<path id="XMLID_266_" class="st0" d="M453.8,0.8c0-0.4,0.3-0.7,0.8-0.7c0.5,0,0.8,0.3,0.8,0.7c0,0.4-0.3,0.7-0.8,0.7
			C454.1,1.5,453.8,1.2,453.8,0.8z M453.8,2h1.5v5h-1.5V2z"/>
		<path id="XMLID_263_" class="st0" d="M456.1,4.5c0-1.8,0.9-2.7,2.2-2.7c0.4,0,0.8,0.1,1.1,0.3v-2h1.5V7h-1.3l-0.1-0.4
			c-0.2,0.3-0.6,0.6-1.3,0.6C457,7.1,456.1,6.3,456.1,4.5z M459.4,3.3c-0.2-0.2-0.5-0.3-0.8-0.3c-0.7,0-1,0.7-1,1.6s0.2,1.4,0.9,1.4
			c0.4,0,0.7-0.2,0.8-0.4V3.3z"/>
		<path id="XMLID_260_" class="st0" d="M461.7,4.5c0-1.8,1.2-2.6,2.6-2.6c1.5,0,2.5,0.8,2.5,2.6c0,1.9-1.2,2.6-2.6,2.6
			C462.7,7.1,461.7,6.3,461.7,4.5z M465.2,4.5c0-0.9-0.3-1.4-1-1.4c-0.7,0-1,0.6-1,1.4c0,0.9,0.3,1.4,1,1.4
			C464.9,5.9,465.2,5.3,465.2,4.5z"/>
		<path id="XMLID_258_" class="st0" d="M467.5,5.7V0.2h1.5v5.4c0,0.3,0.1,0.4,0.3,0.4c0.2,0,0.4-0.1,0.4-0.2v1.1
			c-0.1,0.1-0.4,0.3-0.9,0.3C468,7.1,467.5,6.6,467.5,5.7z"/>
		<path id="XMLID_256_" class="st0" d="M470.2,3.6h2.4v1.2h-2.4V3.6z"/>
		<path id="XMLID_254_" class="st0" d="M473.4,4.5c0-1.8,1.2-2.6,2.5-2.6c0.7,0,1.3,0.2,1.5,0.4v1.3c-0.3-0.4-0.7-0.5-1.3-0.5
			c-0.8,0-1.2,0.5-1.2,1.4c0,0.9,0.4,1.4,1.2,1.4c0.6,0,1-0.2,1.3-0.5v1.3c-0.2,0.2-0.8,0.5-1.5,0.5C474.4,7.1,473.4,6.3,473.4,4.5z
			"/>
		<path id="XMLID_251_" class="st0" d="M478,4.5c0-1.8,1.2-2.6,2.6-2.6c1.5,0,2.5,0.8,2.5,2.6c0,1.9-1.2,2.6-2.6,2.6
			C479.1,7.1,478,6.3,478,4.5z M481.6,4.5c0-0.9-0.3-1.4-1-1.4c-0.7,0-1,0.6-1,1.4c0,0.9,0.3,1.4,1,1.4
			C481.3,5.9,481.6,5.3,481.6,4.5z"/>
		<path id="XMLID_249_" class="st0" d="M483.9,2h1.3l0.1,0.4c0.2-0.3,0.7-0.6,1.3-0.6c1.3,0,1.8,0.7,1.8,2V7h-1.5V4.1
			c0-0.8-0.2-1.1-0.8-1.1c-0.4,0-0.7,0.2-0.8,0.4V7h-1.5V2z"/>
		<path id="XMLID_247_" class="st0" d="M489.7,5.5V3.1h-0.6V2.6l0.5-0.6l0.9-1.2h0.7V2h1.2v1.2h-1.2v2.3c0,0.4,0.1,0.5,0.4,0.5
			c0.3,0,0.6-0.2,0.7-0.4v1.2c-0.2,0.2-0.5,0.4-1.1,0.4C490.1,7.1,489.7,6.5,489.7,5.5z"/>
		<path id="XMLID_245_" class="st0" d="M493.1,2h1.2l0.1,0.7c0.1-0.5,0.5-0.8,1-0.8c0.3,0,0.4,0.1,0.5,0.1v1.3
			c-0.1-0.1-0.3-0.1-0.6-0.1c-0.4,0-0.6,0.2-0.7,0.4V7h-1.5V2z"/>
		<path id="XMLID_242_" class="st0" d="M496.2,4.5c0-1.8,1.2-2.6,2.6-2.6c1.5,0,2.5,0.8,2.5,2.6c0,1.9-1.2,2.6-2.6,2.6
			C497.2,7.1,496.2,6.3,496.2,4.5z M499.8,4.5c0-0.9-0.3-1.4-1-1.4c-0.7,0-1,0.6-1,1.4c0,0.9,0.3,1.4,1,1.4
			C499.4,5.9,499.8,5.3,499.8,4.5z"/>
		<path id="XMLID_240_" class="st0" d="M502,5.7V0.2h1.5v5.4c0,0.3,0.1,0.4,0.3,0.4c0.2,0,0.4-0.1,0.4-0.2v1.1
			c-0.1,0.1-0.4,0.3-0.9,0.3C502.5,7.1,502,6.6,502,5.7z"/>
		<path id="XMLID_238_" class="st0" d="M504.9,5.7V0.2h1.5v5.4c0,0.3,0.1,0.4,0.3,0.4c0.2,0,0.4-0.1,0.4-0.2v1.1
			c-0.1,0.1-0.4,0.3-0.9,0.3C505.4,7.1,504.9,6.6,504.9,5.7z"/>
		<path id="XMLID_235_" class="st0" d="M507.5,4.5c0-1.8,1.2-2.6,2.4-2.6c1.2,0,2.3,0.5,2.3,2.4v0.6h-3.2c0.1,0.6,0.4,1,1.3,1
			c0.8,0,1.4-0.3,1.6-0.6v1.2c-0.3,0.3-0.9,0.6-1.9,0.6C508.5,7.1,507.5,6.3,507.5,4.5z M510.9,4L510.9,4c0-0.6-0.3-1-0.9-1
			c-0.6,0-0.9,0.5-0.9,1H510.9z"/>
		<path id="XMLID_232_" class="st0" d="M512.8,4.5c0-1.8,0.9-2.7,2.2-2.7c0.4,0,0.8,0.1,1.1,0.3v-2h1.5V7h-1.3l-0.1-0.4
			c-0.2,0.3-0.6,0.6-1.3,0.6C513.7,7.1,512.8,6.3,512.8,4.5z M516.1,3.3c-0.2-0.2-0.5-0.3-0.8-0.3c-0.7,0-1,0.7-1,1.6
			s0.2,1.4,0.9,1.4c0.4,0,0.7-0.2,0.8-0.4V3.3z"/>
		<path id="XMLID_230_" class="st0" d="M521,5.5V3.1h-0.6V2.6l0.5-0.6l0.9-1.2h0.7V2h1.2v1.2h-1.2v2.3c0,0.4,0.1,0.5,0.4,0.5
			c0.3,0,0.6-0.2,0.7-0.4v1.2c-0.2,0.2-0.5,0.4-1.1,0.4C521.5,7.1,521,6.5,521,5.5z"/>
		<path id="XMLID_228_" class="st0" d="M524.5,2h1.2l0.1,0.7c0.1-0.5,0.5-0.8,1-0.8c0.3,0,0.4,0.1,0.5,0.1v1.3
			c-0.1-0.1-0.3-0.1-0.6-0.1c-0.4,0-0.6,0.2-0.7,0.4V7h-1.5V2z"/>
		<path id="XMLID_225_" class="st0" d="M527.9,0.8c0-0.4,0.3-0.7,0.8-0.7c0.5,0,0.8,0.3,0.8,0.7c0,0.4-0.3,0.7-0.8,0.7
			C528.2,1.5,527.9,1.2,527.9,0.8z M527.9,2h1.5v5h-1.5V2z"/>
		<path id="XMLID_222_" class="st0" d="M530.2,5.6c0-1,0.7-1.4,2.1-1.6l0.7-0.1c0-0.7-0.3-0.9-1-0.9c-0.7,0-1.4,0.4-1.6,0.9V2.5
			c0.2-0.3,0.8-0.7,1.9-0.7c1.4,0,2.2,0.6,2.2,2.1v3h-1.3l-0.1-0.4c-0.1,0.3-0.5,0.6-1.2,0.6C530.9,7.1,530.2,6.6,530.2,5.6z
			 M533,4.8l-0.6,0.1c-0.7,0.1-0.9,0.3-0.9,0.7c0,0.3,0.2,0.5,0.6,0.5c0.4,0,0.7-0.2,0.9-0.3V4.8z"/>
		<path id="XMLID_220_" class="st0" d="M535.5,5.7V0.2h1.5v5.4c0,0.3,0.1,0.4,0.3,0.4c0.2,0,0.4-0.1,0.4-0.2v1.1
			c-0.1,0.1-0.4,0.3-0.9,0.3C535.9,7.1,535.5,6.6,535.5,5.7z"/>
		<path id="XMLID_217_" class="st0" d="M540.5,0.8c0-0.4,0.3-0.7,0.8-0.7c0.5,0,0.8,0.3,0.8,0.7c0,0.4-0.3,0.7-0.8,0.7
			C540.8,1.5,540.5,1.2,540.5,0.8z M540.5,2h1.5v5h-1.5V2z"/>
		<path id="XMLID_215_" class="st0" d="M543,2h1.3l0.1,0.4c0.2-0.3,0.7-0.6,1.3-0.6c1.3,0,1.8,0.7,1.8,2V7h-1.5V4.1
			c0-0.8-0.2-1.1-0.8-1.1c-0.4,0-0.7,0.2-0.8,0.4V7H543V2z"/>
		<path id="XMLID_212_" class="st0" d="M550.7,2h1.3l0.1,0.4c0.2-0.3,0.6-0.6,1.3-0.6c1.3,0,2,0.7,2,2.5c0,1.8-1,2.8-2.2,2.8
			c-0.4,0-0.8-0.1-1.1-0.3v1.9h-1.5V2z M554,4.4c0-0.9-0.2-1.4-0.9-1.4c-0.4,0-0.7,0.2-0.8,0.4v2.3c0.2,0.2,0.5,0.3,0.8,0.3
			C553.7,6,554,5.3,554,4.4z"/>
		<path id="XMLID_209_" class="st0" d="M556.1,5.6c0-1,0.7-1.4,2.1-1.6l0.7-0.1c0-0.7-0.3-0.9-1-0.9c-0.7,0-1.4,0.4-1.6,0.9V2.5
			c0.2-0.3,0.8-0.7,1.9-0.7c1.4,0,2.2,0.6,2.2,2.1v3h-1.3L559,6.5c-0.1,0.3-0.5,0.6-1.2,0.6C556.8,7.1,556.1,6.6,556.1,5.6z
			 M558.9,4.8l-0.6,0.1c-0.7,0.1-0.9,0.3-0.9,0.7c0,0.3,0.2,0.5,0.6,0.5c0.4,0,0.7-0.2,0.9-0.3V4.8z"/>
		<path id="XMLID_207_" class="st0" d="M561.6,5.5V3.1H561V2.6l0.5-0.6l0.9-1.2h0.7V2h1.2v1.2h-1.2v2.3c0,0.4,0.1,0.5,0.4,0.5
			c0.3,0,0.6-0.2,0.7-0.4v1.2c-0.2,0.2-0.5,0.4-1.1,0.4C562.1,7.1,561.6,6.5,561.6,5.5z"/>
		<path id="XMLID_204_" class="st0" d="M565,0.8c0-0.4,0.3-0.7,0.8-0.7c0.5,0,0.8,0.3,0.8,0.7c0,0.4-0.3,0.7-0.8,0.7
			C565.3,1.5,565,1.2,565,0.8z M565,2h1.5v5H565V2z"/>
		<path id="XMLID_201_" class="st0" d="M567.3,4.5c0-1.8,1.2-2.6,2.4-2.6c1.2,0,2.3,0.5,2.3,2.4v0.6h-3.2c0.1,0.6,0.4,1,1.3,1
			c0.8,0,1.4-0.3,1.6-0.6v1.2c-0.3,0.3-0.9,0.6-1.9,0.6C568.3,7.1,567.3,6.3,567.3,4.5z M570.7,4L570.7,4c0-0.6-0.3-1-0.9-1
			c-0.6,0-0.9,0.5-0.9,1H570.7z"/>
		<path id="XMLID_199_" class="st0" d="M572.9,2h1.3l0.1,0.4c0.2-0.3,0.7-0.6,1.3-0.6c1.3,0,1.8,0.7,1.8,2V7h-1.5V4.1
			c0-0.8-0.2-1.1-0.8-1.1c-0.4,0-0.7,0.2-0.8,0.4V7h-1.5V2z"/>
		<path id="XMLID_197_" class="st0" d="M578.7,5.5V3.1h-0.6V2.6l0.5-0.6l0.9-1.2h0.7V2h1.2v1.2h-1.2v2.3c0,0.4,0.1,0.5,0.4,0.5
			c0.3,0,0.6-0.2,0.7-0.4v1.2c-0.2,0.2-0.5,0.4-1.1,0.4C579.1,7.1,578.7,6.5,578.7,5.5z"/>
		<path id="XMLID_195_" class="st0" d="M581.9,6.7V5.4c0.3,0.3,0.8,0.6,1.5,0.6c0.6,0,0.8-0.2,0.8-0.5c0-0.3-0.1-0.4-0.7-0.5l-0.3,0
			c-1-0.1-1.5-0.7-1.5-1.5c0-0.9,0.6-1.6,2.1-1.6c0.8,0,1.3,0.2,1.6,0.4v1.3C585.2,3.2,584.6,3,584,3c-0.6,0-0.8,0.2-0.8,0.4
			s0.1,0.4,0.6,0.5l0.3,0c1.1,0.2,1.6,0.6,1.6,1.5c0,0.9-0.6,1.7-2.2,1.7C582.7,7.1,582.2,6.9,581.9,6.7z"/>
		<path id="XMLID_193_" class="st0" d="M588.2,2h1.5l0.7,2.6l1-2.6h0.5l1,2.6l0.6-2.6h1.4l-1.4,5h-0.9l-1.1-2.7L590.5,7h-0.9
			L588.2,2z"/>
		<path id="XMLID_190_" class="st0" d="M595.5,0.8c0-0.4,0.3-0.7,0.8-0.7c0.5,0,0.8,0.3,0.8,0.7c0,0.4-0.3,0.7-0.8,0.7
			C595.8,1.5,595.5,1.2,595.5,0.8z M595.6,2h1.5v5h-1.5V2z"/>
		<path id="XMLID_188_" class="st0" d="M598.3,5.5V3.1h-0.6V2.6l0.5-0.6l0.9-1.2h0.7V2h1.2v1.2h-1.2v2.3c0,0.4,0.1,0.5,0.4,0.5
			c0.3,0,0.6-0.2,0.7-0.4v1.2c-0.2,0.2-0.5,0.4-1.1,0.4C598.8,7.1,598.3,6.5,598.3,5.5z"/>
		<path id="XMLID_186_" class="st0" d="M601.8,0.2h1.5v2.2c0.2-0.3,0.7-0.5,1.3-0.5c1.3,0,1.8,0.7,1.8,2V7h-1.5V4.1
			c0-0.8-0.2-1.1-0.8-1.1c-0.4,0-0.7,0.2-0.8,0.4V7h-1.5V0.2z"/>
		<path id="XMLID_183_" class="st0" d="M609.2,5.6c0-1,0.7-1.4,2.1-1.6l0.7-0.1c0-0.7-0.3-0.9-1-0.9c-0.7,0-1.4,0.4-1.6,0.9V2.5
			c0.2-0.3,0.8-0.7,1.9-0.7c1.4,0,2.2,0.6,2.2,2.1v3h-1.3l-0.1-0.4c-0.1,0.3-0.5,0.6-1.2,0.6C609.9,7.1,609.2,6.6,609.2,5.6z
			 M612,4.8l-0.6,0.1c-0.7,0.1-0.9,0.3-0.9,0.7c0,0.3,0.2,0.5,0.6,0.5c0.4,0,0.7-0.2,0.9-0.3V4.8z"/>
		<path id="XMLID_181_" class="st0" d="M614.3,4.5c0-1.8,1.2-2.6,2.5-2.6c0.7,0,1.3,0.2,1.5,0.4v1.3c-0.3-0.4-0.7-0.5-1.3-0.5
			c-0.8,0-1.2,0.5-1.2,1.4c0,0.9,0.4,1.4,1.2,1.4c0.6,0,1-0.2,1.3-0.5v1.3c-0.2,0.2-0.8,0.5-1.5,0.5C615.3,7.1,614.3,6.3,614.3,4.5z
			"/>
		<path id="XMLID_179_" class="st0" d="M619.1,5.1V2h1.5v2.8c0,0.8,0.2,1.1,0.7,1.1c0.4,0,0.7-0.2,0.8-0.4V2h1.5v5h-1.3l-0.1-0.4
			c-0.2,0.3-0.7,0.6-1.3,0.6C619.6,7.1,619.1,6.4,619.1,5.1z"/>
		<path id="XMLID_177_" class="st0" d="M624.9,5.5V3.1h-0.6V2.6l0.5-0.6l0.9-1.2h0.7V2h1.2v1.2h-1.2v2.3c0,0.4,0.1,0.5,0.4,0.5
			c0.3,0,0.6-0.2,0.7-0.4v1.2c-0.2,0.2-0.5,0.4-1.1,0.4C625.3,7.1,624.9,6.5,624.9,5.5z"/>
		<path id="XMLID_174_" class="st0" d="M628,4.5c0-1.8,1.2-2.6,2.4-2.6c1.2,0,2.3,0.5,2.3,2.4v0.6h-3.2c0.1,0.6,0.4,1,1.3,1
			c0.8,0,1.4-0.3,1.6-0.6v1.2c-0.3,0.3-0.9,0.6-1.9,0.6C629,7.1,628,6.3,628,4.5z M631.4,4L631.4,4c0-0.6-0.3-1-0.9-1
			c-0.6,0-0.9,0.5-0.9,1H631.4z"/>
		<path id="XMLID_171_" class="st0" d="M635.5,4.5c0-1.8,1.2-2.6,2.4-2.6c1.2,0,2.3,0.5,2.3,2.4v0.6H637c0.1,0.6,0.4,1,1.3,1
			c0.8,0,1.4-0.3,1.6-0.6v1.2c-0.3,0.3-0.9,0.6-1.9,0.6C636.5,7.1,635.5,6.3,635.5,4.5z M638.8,4L638.8,4c0-0.6-0.3-1-0.9-1
			c-0.6,0-0.9,0.5-0.9,1H638.8z"/>
		<path id="XMLID_169_" class="st0" d="M642.2,4.3L640.6,2h1.6l0.9,1.4l0.8-1.4h1.5l-1.6,2.3l1.8,2.7h-1.6l-1-1.6l-1,1.6h-1.5
			L642.2,4.3z"/>
		<path id="XMLID_166_" class="st0" d="M645.8,5.6c0-1,0.7-1.4,2.1-1.6l0.7-0.1c0-0.7-0.3-0.9-1-0.9c-0.7,0-1.4,0.4-1.6,0.9V2.5
			c0.2-0.3,0.8-0.7,1.9-0.7c1.4,0,2.2,0.6,2.2,2.1v3h-1.3l-0.1-0.4c-0.1,0.3-0.5,0.6-1.2,0.6C646.5,7.1,645.8,6.6,645.8,5.6z
			 M648.6,4.8L648,4.9c-0.7,0.1-0.9,0.3-0.9,0.7c0,0.3,0.2,0.5,0.6,0.5c0.4,0,0.7-0.2,0.9-0.3V4.8z"/>
		<path id="XMLID_164_" class="st0" d="M650.8,4.5c0-1.8,1.2-2.6,2.5-2.6c0.7,0,1.3,0.2,1.5,0.4v1.3c-0.3-0.4-0.7-0.5-1.3-0.5
			c-0.8,0-1.2,0.5-1.2,1.4c0,0.9,0.4,1.4,1.2,1.4c0.6,0,1-0.2,1.3-0.5v1.3c-0.2,0.2-0.8,0.5-1.5,0.5C651.9,7.1,650.8,6.3,650.8,4.5z
			"/>
		<path id="XMLID_161_" class="st0" d="M655.4,4.5c0-1.8,1.2-2.6,2.4-2.6c1.2,0,2.3,0.5,2.3,2.4v0.6H657c0.1,0.6,0.4,1,1.3,1
			c0.8,0,1.4-0.3,1.6-0.6v1.2c-0.3,0.3-0.9,0.6-1.9,0.6C656.4,7.1,655.4,6.3,655.4,4.5z M658.8,4L658.8,4c0-0.6-0.3-1-0.9-1
			c-0.6,0-0.9,0.5-0.9,1H658.8z"/>
		<path id="XMLID_159_" class="st0" d="M661,2h1.2l0.1,0.7c0.1-0.5,0.5-0.8,1-0.8c0.3,0,0.4,0.1,0.5,0.1v1.3
			c-0.1-0.1-0.3-0.1-0.6-0.1c-0.4,0-0.6,0.2-0.7,0.4V7H661V2z"/>
		<path id="XMLID_156_" class="st0" d="M665.7,6.6L665.5,7h-1.1V0.2h1.5v2.2c0.1-0.2,0.6-0.5,1.3-0.5c1.2,0,2,0.7,2,2.5
			c0,1.8-1,2.8-2.2,2.8C666.3,7.1,665.9,6.9,665.7,6.6z M665.9,5.6c0.2,0.2,0.5,0.3,0.8,0.3c0.7,0,1-0.7,1-1.6S667.4,3,666.7,3
			c-0.4,0-0.7,0.2-0.8,0.4V5.6z"/>
		<path id="XMLID_153_" class="st0" d="M669.7,5.6c0-1,0.7-1.4,2.1-1.6l0.7-0.1c0-0.7-0.3-0.9-1-0.9c-0.7,0-1.4,0.4-1.6,0.9V2.5
			c0.2-0.3,0.8-0.7,1.9-0.7c1.4,0,2.2,0.6,2.2,2.1v3h-1.3l-0.1-0.4c-0.1,0.3-0.5,0.6-1.2,0.6C670.4,7.1,669.7,6.6,669.7,5.6z
			 M672.6,4.8L672,4.9c-0.7,0.1-0.9,0.3-0.9,0.7c0,0.3,0.2,0.5,0.6,0.5c0.4,0,0.7-0.2,0.9-0.3V4.8z"/>
		<path id="XMLID_151_" class="st0" d="M675.3,5.5V3.1h-0.6V2.6l0.5-0.6l0.9-1.2h0.7V2h1.2v1.2h-1.2v2.3c0,0.4,0.1,0.5,0.4,0.5
			c0.3,0,0.6-0.2,0.7-0.4v1.2c-0.2,0.2-0.5,0.4-1.1,0.4C675.7,7.1,675.3,6.5,675.3,5.5z"/>
		<path id="XMLID_148_" class="st0" d="M678.7,0.8c0-0.4,0.3-0.7,0.8-0.7c0.5,0,0.8,0.3,0.8,0.7c0,0.4-0.3,0.7-0.8,0.7
			C679,1.5,678.7,1.2,678.7,0.8z M678.7,2h1.5v5h-1.5V2z"/>
		<path id="XMLID_145_" class="st0" d="M681,4.5c0-1.8,1.2-2.6,2.6-2.6c1.5,0,2.5,0.8,2.5,2.6c0,1.9-1.2,2.6-2.6,2.6
			C682,7.1,681,6.3,681,4.5z M684.5,4.5c0-0.9-0.3-1.4-1-1.4c-0.7,0-1,0.6-1,1.4c0,0.9,0.3,1.4,1,1.4C684.2,5.9,684.5,5.3,684.5,4.5
			z"/>
		<path id="XMLID_143_" class="st0" d="M686.8,2h1.3l0.1,0.4c0.2-0.3,0.7-0.6,1.3-0.6c1.3,0,1.8,0.7,1.8,2V7h-1.5V4.1
			c0-0.8-0.2-1.1-0.8-1.1c-0.4,0-0.7,0.2-0.8,0.4V7h-1.5V2z"/>
		<path id="XMLID_140_" class="st0" d="M0,15.3c0-1.8,1.2-2.6,2.6-2.6C4,12.6,5,13.4,5,15.3c0,1.9-1.2,2.6-2.6,2.6
			C1,17.9,0,17.1,0,15.3z M3.5,15.3c0-0.9-0.3-1.4-1-1.4c-0.7,0-1,0.6-1,1.4c0,0.9,0.3,1.4,1,1.4C3.2,16.7,3.5,16.1,3.5,15.3z"/>
		<path id="XMLID_138_" class="st0" d="M6.1,13.9H5.5v-0.5l0.5-0.5c-0.1-0.2-0.2-0.4-0.2-0.7c0-0.9,0.8-1.4,1.8-1.4
			c0.7,0,1.1,0.2,1.2,0.3v1.2c-0.2-0.3-0.5-0.4-0.9-0.4c-0.4,0-0.6,0.2-0.6,0.5c0,0.2,0.1,0.3,0.1,0.4h1v1.2H7.6v3.8H6.1V13.9z"/>
		<path id="XMLID_136_" class="st0" d="M11.2,17.5v-1.3c0.3,0.3,0.8,0.6,1.5,0.6c0.6,0,0.8-0.2,0.8-0.5c0-0.3-0.1-0.4-0.7-0.5
			l-0.3,0c-1-0.1-1.5-0.7-1.5-1.5c0-0.9,0.6-1.6,2.1-1.6c0.8,0,1.3,0.2,1.6,0.4v1.3c-0.3-0.4-0.8-0.5-1.5-0.5
			c-0.6,0-0.8,0.2-0.8,0.4s0.1,0.4,0.6,0.5l0.3,0c1.1,0.2,1.6,0.6,1.6,1.5c0,0.9-0.6,1.7-2.2,1.7C12,17.9,11.5,17.7,11.2,17.5z"/>
		<path id="XMLID_134_" class="st0" d="M15.4,15.3c0-1.8,1.2-2.6,2.5-2.6c0.7,0,1.3,0.2,1.5,0.4v1.3c-0.3-0.4-0.7-0.5-1.3-0.5
			c-0.8,0-1.2,0.5-1.2,1.4c0,0.9,0.4,1.4,1.2,1.4c0.6,0,1-0.2,1.3-0.5v1.3c-0.2,0.2-0.8,0.5-1.5,0.5C16.5,17.9,15.4,17.1,15.4,15.3z
			"/>
		<path id="XMLID_132_" class="st0" d="M20.3,11h1.5v2.2c0.2-0.3,0.7-0.5,1.3-0.5c1.3,0,1.8,0.7,1.8,2v3.1h-1.5v-2.9
			c0-0.8-0.2-1.1-0.8-1.1c-0.4,0-0.7,0.2-0.8,0.4v3.6h-1.5V11z"/>
		<path id="XMLID_129_" class="st0" d="M25.8,11.6c0-0.4,0.3-0.7,0.8-0.7c0.5,0,0.8,0.3,0.8,0.7c0,0.4-0.3,0.7-0.8,0.7
			C26.1,12.3,25.8,12,25.8,11.6z M25.8,12.8h1.5v5h-1.5V12.8z"/>
		<path id="XMLID_127_" class="st0" d="M28.1,17.3l2.1-3.4h-2.1v-1.2H32v0.5l-2,3.4h2v1.2h-3.9V17.3z"/>
		<path id="XMLID_124_" class="st0" d="M32.5,15.3c0-1.8,1.2-2.6,2.6-2.6c1.4,0,2.5,0.8,2.5,2.6c0,1.9-1.2,2.6-2.6,2.6
			C33.6,17.9,32.5,17.1,32.5,15.3z M36.1,15.3c0-0.9-0.3-1.4-1-1.4c-0.7,0-1,0.6-1,1.4c0,0.9,0.3,1.4,1,1.4
			C35.8,16.7,36.1,16.1,36.1,15.3z"/>
		<path id="XMLID_121_" class="st0" d="M38.4,12.8h1.3l0.1,0.4c0.2-0.3,0.6-0.6,1.3-0.6c1.3,0,2,0.7,2,2.5c0,1.8-1,2.8-2.2,2.8
			c-0.4,0-0.8-0.1-1.1-0.3v1.9h-1.5V12.8z M41.6,15.2c0-0.9-0.2-1.4-0.9-1.4c-0.4,0-0.7,0.2-0.8,0.4v2.3c0.2,0.2,0.5,0.3,0.8,0.3
			C41.4,16.8,41.6,16.1,41.6,15.2z"/>
		<path id="XMLID_119_" class="st0" d="M43.9,11h1.5v2.2c0.2-0.3,0.7-0.5,1.3-0.5c1.3,0,1.8,0.7,1.8,2v3.1H47v-2.9
			c0-0.8-0.2-1.1-0.8-1.1c-0.4,0-0.7,0.2-0.8,0.4v3.6h-1.5V11z"/>
		<path id="XMLID_117_" class="st0" d="M49.5,12.8h1.2l0.1,0.7c0.1-0.5,0.5-0.8,1-0.8c0.3,0,0.4,0.1,0.5,0.1v1.3
			c-0.1-0.1-0.3-0.1-0.6-0.1c-0.4,0-0.6,0.2-0.7,0.4v3.4h-1.5V12.8z"/>
		<path id="XMLID_114_" class="st0" d="M52.6,15.3c0-1.8,1.2-2.6,2.4-2.6c1.2,0,2.3,0.5,2.3,2.4v0.6h-3.2c0.1,0.6,0.4,1,1.4,1
			c0.8,0,1.4-0.3,1.6-0.6v1.2c-0.3,0.3-0.9,0.6-1.9,0.6C53.6,17.9,52.6,17.1,52.6,15.3z M56,14.8L56,14.8c0-0.6-0.3-1-0.9-1
			c-0.6,0-0.9,0.5-0.9,1H56z"/>
		<path id="XMLID_112_" class="st0" d="M58.1,12.8h1.3l0.1,0.4c0.2-0.3,0.7-0.6,1.3-0.6c1.3,0,1.8,0.7,1.8,2v3.1h-1.5v-2.9
			c0-0.8-0.2-1.1-0.8-1.1c-0.4,0-0.7,0.2-0.8,0.4v3.6h-1.5V12.8z"/>
		<path id="XMLID_109_" class="st0" d="M63.7,11.6c0-0.4,0.3-0.7,0.8-0.7c0.5,0,0.8,0.3,0.8,0.7c0,0.4-0.3,0.7-0.8,0.7
			C64,12.3,63.7,12,63.7,11.6z M63.7,12.8h1.5v5h-1.5V12.8z"/>
		<path id="XMLID_106_" class="st0" d="M66,16.4c0-1,0.7-1.4,2.1-1.6l0.7-0.1c0-0.7-0.3-0.9-1-0.9c-0.7,0-1.4,0.4-1.6,0.9v-1.4
			c0.2-0.3,0.8-0.7,1.9-0.7c1.4,0,2.2,0.6,2.2,2.1v3H69l-0.1-0.4c-0.1,0.3-0.5,0.6-1.2,0.6C66.7,17.9,66,17.4,66,16.4z M68.8,15.6
			l-0.6,0.1c-0.7,0.1-0.9,0.3-0.9,0.7c0,0.3,0.2,0.5,0.6,0.5c0.4,0,0.7-0.2,0.9-0.3V15.6z"/>
		<path id="XMLID_104_" class="st0" d="M71.1,17c0-0.5,0.4-0.9,0.9-0.9c0.5,0,0.9,0.4,0.9,0.9c0,0.5-0.4,0.9-0.9,0.9
			C71.5,17.9,71.1,17.5,71.1,17z"/>
		<path id="XMLID_102_" class="st0" d="M75.5,17.6v-1.5c0.2,0.3,0.6,0.5,1,0.5c0.6,0,0.9-0.3,0.9-1.1v-4h1.5v4.1
			c0,1.6-1,2.2-2.2,2.2C76.1,17.9,75.7,17.7,75.5,17.6z"/>
		<path id="XMLID_100_" class="st0" d="M81.9,14.7c0-2.1,1.3-3.2,3-3.2c1,0,1.5,0.3,1.8,0.5v1.5c-0.3-0.5-0.8-0.7-1.6-0.7
			c-1.1,0-1.6,0.7-1.6,1.9c0,1.2,0.6,2,1.6,2c0.7,0,1.3-0.2,1.6-0.7v1.4c-0.3,0.3-1,0.6-1.8,0.6C83.1,17.9,81.9,16.8,81.9,14.7z"/>
		<path id="XMLID_98_" class="st0" d="M87.5,16.5V11H89v5.4c0,0.3,0.1,0.4,0.3,0.4c0.2,0,0.4-0.1,0.4-0.2v1.1
			c-0.1,0.1-0.4,0.3-0.9,0.3C88,17.9,87.5,17.4,87.5,16.5z"/>
		<path id="XMLID_95_" class="st0" d="M90.4,11.6c0-0.4,0.3-0.7,0.8-0.7c0.5,0,0.8,0.3,0.8,0.7c0,0.4-0.3,0.7-0.8,0.7
			C90.7,12.3,90.4,12,90.4,11.6z M90.4,12.8h1.5v5h-1.5V12.8z"/>
		<path id="XMLID_93_" class="st0" d="M93,12.8h1.3l0.1,0.4c0.2-0.3,0.7-0.6,1.3-0.6c1.3,0,1.8,0.7,1.8,2v3.1H96v-2.9
			c0-0.8-0.2-1.1-0.8-1.1c-0.4,0-0.7,0.2-0.8,0.4v3.6H93V12.8z"/>
		<path id="XMLID_91_" class="st0" d="M100.7,11.6h2.1c1.8,0,2.6,0.8,2.6,2.1c0,1.3-0.8,2.3-2.6,2.3h-0.3v-1.1h0.3
			c0.7,0,1.1-0.4,1.1-1.1c0-0.7-0.4-1-1.1-1h-0.5v5h-1.5V11.6z"/>
		<path id="XMLID_89_" class="st0" d="M106,17.5v-1.3c0.3,0.3,0.8,0.6,1.5,0.6c0.6,0,0.8-0.2,0.8-0.5c0-0.3-0.1-0.4-0.7-0.5l-0.3,0
			c-1-0.1-1.5-0.7-1.5-1.5c0-0.9,0.6-1.6,2.1-1.6c0.8,0,1.3,0.2,1.6,0.4v1.3c-0.3-0.4-0.8-0.5-1.5-0.5c-0.6,0-0.8,0.2-0.8,0.4
			s0.1,0.4,0.6,0.5l0.3,0c1.1,0.2,1.6,0.6,1.6,1.5c0,0.9-0.6,1.7-2.2,1.7C106.8,17.9,106.3,17.7,106,17.5z"/>
		<path id="XMLID_87_" class="st0" d="M110.2,19.4v-1.2c0.2,0.2,0.5,0.4,0.9,0.4c0.3,0,0.6-0.1,0.9-0.7l-2-5.1h1.6l1,3.3l0.9-3.3
			h1.4l-1.4,4.7c-0.4,1.2-1,2.2-2.3,2.2C110.8,19.7,110.4,19.5,110.2,19.4z"/>
		<path id="XMLID_85_" class="st0" d="M115.2,15.3c0-1.8,1.2-2.6,2.5-2.6c0.7,0,1.3,0.2,1.5,0.4v1.3c-0.3-0.4-0.7-0.5-1.3-0.5
			c-0.8,0-1.2,0.5-1.2,1.4c0,0.9,0.4,1.4,1.2,1.4c0.6,0,1-0.2,1.3-0.5v1.3c-0.2,0.2-0.8,0.5-1.5,0.5
			C116.2,17.9,115.2,17.1,115.2,15.3z"/>
		<path id="XMLID_83_" class="st0" d="M120,11h1.5v2.2c0.2-0.3,0.7-0.5,1.3-0.5c1.3,0,1.8,0.7,1.8,2v3.1h-1.5v-2.9
			c0-0.8-0.2-1.1-0.8-1.1c-0.4,0-0.7,0.2-0.8,0.4v3.6H120V11z"/>
		<path id="XMLID_80_" class="st0" d="M125.3,15.3c0-1.8,1.2-2.6,2.6-2.6c1.4,0,2.5,0.8,2.5,2.6c0,1.9-1.2,2.6-2.6,2.6
			C126.3,17.9,125.3,17.1,125.3,15.3z M128.9,15.3c0-0.9-0.3-1.4-1-1.4c-0.7,0-1,0.6-1,1.4c0,0.9,0.3,1.4,1,1.4
			C128.5,16.7,128.9,16.1,128.9,15.3z"/>
		<path id="XMLID_77_" class="st0" d="M131.1,12.8h1.3l0.1,0.4c0.2-0.3,0.6-0.6,1.3-0.6c1.3,0,2,0.7,2,2.5c0,1.8-1,2.8-2.2,2.8
			c-0.4,0-0.8-0.1-1.1-0.3v1.9h-1.5V12.8z M134.4,15.2c0-0.9-0.2-1.4-0.9-1.4c-0.4,0-0.7,0.2-0.8,0.4v2.3c0.2,0.2,0.5,0.3,0.8,0.3
			C134.1,16.8,134.4,16.1,134.4,15.2z"/>
		<path id="XMLID_75_" class="st0" d="M136.7,11h1.5v2.2c0.2-0.3,0.7-0.5,1.3-0.5c1.3,0,1.8,0.7,1.8,2v3.1h-1.5v-2.9
			c0-0.8-0.2-1.1-0.8-1.1c-0.4,0-0.7,0.2-0.8,0.4v3.6h-1.5V11z"/>
		<path id="XMLID_72_" class="st0" d="M142,16.4c0-1,0.7-1.4,2.1-1.6l0.7-0.1c0-0.7-0.3-0.9-1-0.9c-0.7,0-1.4,0.4-1.6,0.9v-1.4
			c0.2-0.3,0.8-0.7,1.9-0.7c1.4,0,2.2,0.6,2.2,2.1v3H145l-0.1-0.4c-0.1,0.3-0.5,0.6-1.2,0.6C142.7,17.9,142,17.4,142,16.4z
			 M144.8,15.6l-0.6,0.1c-0.7,0.1-0.9,0.3-0.9,0.7c0,0.3,0.2,0.5,0.6,0.5c0.4,0,0.7-0.2,0.9-0.3V15.6z"/>
		<path id="XMLID_70_" class="st0" d="M147.3,12.8h1.2l0.1,0.7c0.1-0.5,0.5-0.8,1-0.8c0.3,0,0.4,0.1,0.5,0.1v1.3
			c-0.1-0.1-0.3-0.1-0.6-0.1c-0.4,0-0.6,0.2-0.7,0.4v3.4h-1.5V12.8z"/>
		<path id="XMLID_68_" class="st0" d="M150.8,12.8h1.3l0.1,0.4c0.2-0.3,0.7-0.6,1.3-0.6c0.7,0,1.2,0.2,1.4,0.7
			c0.3-0.3,0.7-0.7,1.5-0.7c1.2,0,1.7,0.7,1.7,2v3.1h-1.5v-2.9c0-0.8-0.2-1.1-0.7-1.1c-0.4,0-0.7,0.2-0.8,0.4c0,0.1,0,0.3,0,0.5v3.1
			h-1.5v-2.9c0-0.8-0.2-1.1-0.7-1.1c-0.4,0-0.6,0.2-0.7,0.4v3.6h-1.5V12.8z"/>
		<path id="XMLID_65_" class="st0" d="M158.8,16.4c0-1,0.7-1.4,2.1-1.6l0.7-0.1c0-0.7-0.3-0.9-1-0.9c-0.7,0-1.4,0.4-1.6,0.9v-1.4
			c0.2-0.3,0.8-0.7,1.9-0.7c1.4,0,2.2,0.6,2.2,2.1v3h-1.3l-0.1-0.4c-0.1,0.3-0.5,0.6-1.2,0.6C159.5,17.9,158.8,17.4,158.8,16.4z
			 M161.6,15.6l-0.6,0.1c-0.7,0.1-0.9,0.3-0.9,0.7c0,0.3,0.2,0.5,0.6,0.5c0.4,0,0.7-0.2,0.9-0.3V15.6z"/>
		<path id="XMLID_63_" class="st0" d="M163.9,15.3c0-1.8,1.2-2.6,2.5-2.6c0.7,0,1.3,0.2,1.5,0.4v1.3c-0.3-0.4-0.7-0.5-1.3-0.5
			c-0.8,0-1.2,0.5-1.2,1.4c0,0.9,0.4,1.4,1.2,1.4c0.6,0,1-0.2,1.3-0.5v1.3c-0.2,0.2-0.8,0.5-1.5,0.5
			C164.9,17.9,163.9,17.1,163.9,15.3z"/>
		<path id="XMLID_60_" class="st0" d="M168.4,15.3c0-1.8,1.2-2.6,2.6-2.6c1.4,0,2.5,0.8,2.5,2.6c0,1.9-1.2,2.6-2.6,2.6
			C169.5,17.9,168.4,17.1,168.4,15.3z M172,15.3c0-0.9-0.3-1.4-1-1.4c-0.7,0-1,0.6-1,1.4c0,0.9,0.3,1.4,1,1.4
			C171.7,16.7,172,16.1,172,15.3z"/>
		<path id="XMLID_58_" class="st0" d="M174.3,16.5V11h1.5v5.4c0,0.3,0.1,0.4,0.3,0.4c0.2,0,0.4-0.1,0.4-0.2v1.1
			c-0.1,0.1-0.4,0.3-0.9,0.3C174.7,17.9,174.3,17.4,174.3,16.5z"/>
		<path id="XMLID_55_" class="st0" d="M176.9,15.3c0-1.8,1.2-2.6,2.6-2.6c1.4,0,2.5,0.8,2.5,2.6c0,1.9-1.2,2.6-2.6,2.6
			C177.9,17.9,176.9,17.1,176.9,15.3z M180.4,15.3c0-0.9-0.3-1.4-1-1.4c-0.7,0-1,0.6-1,1.4c0,0.9,0.3,1.4,1,1.4
			C180.1,16.7,180.4,16.1,180.4,15.3z"/>
		<path id="XMLID_52_" class="st0" d="M182.5,19.2v-1.1c0.5,0.3,1.1,0.5,2.1,0.5c1.2,0,1.7-0.1,1.7-0.5c0-0.3-0.3-0.4-1-0.4
			c-0.7,0-1.9,0.2-2.2,0.3v-1l0.7-1c-0.7-0.2-1.2-0.8-1.2-1.6c0-1.1,0.9-1.8,2.2-1.8c0.6,0,1.1,0.1,1.4,0.4c0.2-0.3,0.5-0.4,1-0.4
			c0.1,0,0.3,0,0.4,0.1v1.1c-0.1-0.1-0.2-0.1-0.3-0.1c-0.2,0-0.3,0.1-0.4,0.1c0.1,0.2,0.1,0.4,0.1,0.6c0,1.1-0.9,1.7-2.2,1.7h-0.1
			l-0.4,0.6c0.2-0.1,0.8-0.1,1.3-0.1c1.3,0,2.1,0.3,2.1,1.4c0,1.1-1,1.7-2.9,1.7C183.7,19.7,182.9,19.5,182.5,19.2z M185.5,14.4
			c0-0.4-0.3-0.7-0.8-0.7c-0.5,0-0.8,0.2-0.8,0.7c0,0.4,0.3,0.7,0.8,0.7C185.2,15,185.5,14.8,185.5,14.4z"/>
		<path id="XMLID_50_" class="st0" d="M187.9,19.4v-1.2c0.2,0.2,0.5,0.4,0.9,0.4c0.3,0,0.6-0.1,0.9-0.7l-2-5.1h1.6l1,3.3l0.9-3.3
			h1.4l-1.4,4.7c-0.4,1.2-1,2.2-2.3,2.2C188.5,19.7,188.1,19.5,187.9,19.4z"/>
		<path id="XMLID_48_" class="st0" d="M192.7,17c0-0.5,0.4-0.9,0.9-0.9c0.5,0,0.9,0.4,0.9,0.9c0,0.5-0.4,0.9-0.9,0.9
			C193.1,17.9,192.7,17.5,192.7,17z"/>
		<path id="XMLID_46_" class="st0" d="M197.4,17.6v-1.4c0.3,0.2,0.7,0.5,1.3,0.5c0.9,0,1.3-0.3,1.3-0.9c0-0.5-0.3-0.8-1.1-0.8h-0.5
			v-0.3l1.1-1.9h-2.1v-1.3h4v0.3l-1.3,2.2c0.7,0.1,1.4,0.5,1.4,1.7c0,1.1-0.8,2.1-2.6,2.1C198.1,17.9,197.7,17.8,197.4,17.6z"/>
		<path id="XMLID_43_" class="st0" d="M202.1,14.7c0-2.1,1.5-3.2,3.2-3.2c1.9,0,3.1,1.1,3.1,3.2c0,2.1-1.4,3.2-3.1,3.2
			C203.4,17.9,202.1,16.7,202.1,14.7z M206.9,14.7c0-1.3-0.7-2-1.6-2s-1.6,0.7-1.6,2c0,1.3,0.7,2,1.6,2S206.9,16,206.9,14.7z"/>
		<path id="XMLID_41_" class="st0" d="M209,15c0-1.6,0.8-3.1,1.9-3.7h1.3c-1.1,0.6-1.9,1.9-1.9,3.7c0,1.8,0.9,3.2,1.8,3.9h-1.3
			C209.8,18.3,209,16.7,209,15z"/>
		<path id="XMLID_39_" class="st0" d="M212.5,17.4l1.8-2.3c0.4-0.4,0.7-0.9,0.7-1.5c0-0.6-0.3-0.9-1-0.9c-0.6,0-1.2,0.3-1.5,0.7
			v-1.3c0.3-0.3,0.9-0.6,1.8-0.6c1.5,0,2.2,0.7,2.2,2c0,1-0.6,1.8-1.2,2.4l-0.5,0.6h1.8v1.3h-4V17.4z"/>
		<path id="XMLID_37_" class="st0" d="M218.4,15.1c0-1.8-0.8-3.2-1.8-3.8h1.2c1.1,0.6,1.9,2.2,1.9,3.8c0,1.6-0.8,3.1-1.9,3.7h-1.3
			C217.6,18.2,218.4,16.9,218.4,15.1z"/>
		<path id="XMLID_34_" class="st0" d="M220.4,13.8c0-0.5,0.4-0.9,0.9-0.9c0.5,0,0.9,0.4,0.9,0.9c0,0.5-0.4,0.9-0.9,0.9
			C220.8,14.6,220.4,14.3,220.4,13.8z M220.4,17c0-0.5,0.4-0.9,0.9-0.9c0.5,0,0.9,0.4,0.9,0.9c0,0.5-0.4,0.9-0.9,0.9
			C220.8,17.9,220.4,17.6,220.4,17z"/>
		<path id="XMLID_32_" class="st0" d="M224.1,13.4c-0.2,0.2-0.8,0.3-1.3,0.3v-1.3c0.9,0,1.5-0.2,2-0.8h0.8v6.2h-1.4V13.4z"/>
		<path id="XMLID_29_" class="st0" d="M226.4,14.7c0-2.1,1.5-3.2,3.2-3.2c1.9,0,3.1,1.1,3.1,3.2c0,2.1-1.4,3.2-3.1,3.2
			C227.6,17.9,226.4,16.7,226.4,14.7z M231.2,14.7c0-1.3-0.7-2-1.6-2s-1.6,0.7-1.6,2c0,1.3,0.7,2,1.6,2S231.2,16,231.2,14.7z"/>
		<path id="XMLID_26_" class="st0" d="M233.3,15.4c0-2.1,1.2-3.3,2.3-3.8h1.9v0.1c-0.9,0.4-1.8,1-2.3,2c0.2-0.1,0.5-0.2,0.8-0.2
			c1.2,0,2,0.7,2,2.1c0,1.4-0.9,2.3-2.4,2.3C234.2,17.9,233.3,17,233.3,15.4z M236.5,15.7c0-0.6-0.3-1-0.8-1c-0.4,0-0.7,0.2-0.8,0.3
			c0,0.2,0,0.4,0,0.6c0,0.7,0.3,1.1,0.8,1.1C236.2,16.7,236.5,16.3,236.5,15.7z"/>
		<path id="XMLID_24_" class="st0" d="M238.7,14.4h5.4v1.1h-5.4V14.4z"/>
		<path id="XMLID_22_" class="st0" d="M246.1,13.4c-0.2,0.2-0.8,0.3-1.3,0.3v-1.3c0.9,0,1.5-0.2,2-0.8h0.8v6.2h-1.4V13.4z"/>
		<path id="XMLID_20_" class="st0" d="M249.6,13.4c-0.2,0.2-0.8,0.3-1.3,0.3v-1.3c0.9,0,1.5-0.2,2-0.8h0.8v6.2h-1.4V13.4z"/>
		<path id="XMLID_18_" class="st0" d="M252,17.6v-1.3c0.3,0.2,0.7,0.4,1.4,0.4c0.8,0,1.2-0.3,1.2-0.8c0-0.5-0.3-0.7-1.2-0.7
			c-0.5,0-0.9,0.1-1.2,0.2l0.1-3.8h3.6v1.3h-2.3l0,1.2c0.1,0,0.3,0,0.4,0c1.4,0,2.1,0.6,2.1,1.8c0,1.3-1.1,2.1-2.6,2.1
			C252.7,17.9,252.3,17.8,252,17.6z"/>
		<path id="XMLID_16_" class="st0" d="M256.9,14.4h2.4v1.2h-2.4V14.4z"/>
		<path id="XMLID_14_" class="st0" d="M260,17.4l1.8-2.3c0.4-0.4,0.7-0.9,0.7-1.5c0-0.6-0.3-0.9-1-0.9c-0.6,0-1.2,0.3-1.5,0.7v-1.3
			c0.3-0.3,0.9-0.6,1.8-0.6c1.5,0,2.2,0.7,2.2,2c0,1-0.6,1.8-1.2,2.4l-0.5,0.6h1.8v1.3h-4V17.4z"/>
		<path id="XMLID_11_" class="st0" d="M264.6,14.7c0-2.1,1.5-3.2,3.2-3.2c1.9,0,3.1,1.1,3.1,3.2c0,2.1-1.4,3.2-3.1,3.2
			C265.8,17.9,264.6,16.7,264.6,14.7z M269.3,14.7c0-1.3-0.7-2-1.6-2s-1.6,0.7-1.6,2c0,1.3,0.7,2,1.6,2S269.3,16,269.3,14.7z"/>
		<path id="XMLID_9_" class="st0" d="M272.7,13.4c-0.2,0.2-0.8,0.3-1.3,0.3v-1.3c0.9,0,1.5-0.2,2-0.8h0.8v6.2h-1.4V13.4z"/>
		<path id="XMLID_6_" class="st0" d="M275,14.7c0-2.1,1.5-3.2,3.2-3.2c1.9,0,3.1,1.1,3.1,3.2c0,2.1-1.4,3.2-3.1,3.2
			C276.2,17.9,275,16.7,275,14.7z M279.8,14.7c0-1.3-0.7-2-1.6-2s-1.6,0.7-1.6,2c0,1.3,0.7,2,1.6,2S279.8,16,279.8,14.7z"/>
		<path id="XMLID_4_" class="st0" d="M281.9,17c0-0.5,0.4-0.9,0.9-0.9c0.5,0,0.9,0.4,0.9,0.9c0,0.5-0.4,0.9-0.9,0.9
			C282.2,17.9,281.9,17.5,281.9,17z"/>
	</g>
</g>
</svg>
