<!-- Generator: Adobe Illustrator 22.1.0, SVG Export Plug-In  -->
<svg version="1.1"
	 xmlns="http://www.w3.org/2000/svg" xmlns:xlink="http://www.w3.org/1999/xlink" xmlns:a="http://ns.adobe.com/AdobeSVGViewerExtensions/3.0/"
	 x="0px" y="0px" width="536.4px" height="25.9px" viewBox="0 0 536.4 25.9" style="enable-background:new 0 0 536.4 25.9;"
	 xml:space="preserve">
<style type="text/css">
	.st0{fill:#FFFFFF;}
</style>
<defs>
</defs>
<g id="XMLID_1_">
	<g id="XMLID_3_">
		<path id="XMLID_88_" class="st0" d="M0,2.3h6.1c5.4,0,7.6,2.2,7.6,6.1c0,3.9-2.3,6.7-7.6,6.7H5.2v-3.2h0.8c2.2,0,3.2-1.2,3.2-3.1
			c0-2-1.1-3.1-3.3-3.1H4.4v14.7H0V2.3z"/>
		<path id="XMLID_86_" class="st0" d="M15.7,5.7h3.6l0.3,1.9c0.2-1.5,1.4-2.4,2.8-2.4c0.8,0,1.2,0.2,1.5,0.4v3.9
			c-0.4-0.3-0.9-0.4-1.7-0.4c-1.1,0-1.8,0.4-2.2,1.2v10h-4.3V5.7z"/>
		<path id="XMLID_83_" class="st0" d="M24.8,13.1c0-5.4,3.5-7.7,7.5-7.7c4.2,0,7.2,2.3,7.2,7.7c0,5.4-3.5,7.7-7.5,7.7
			C27.8,20.8,24.8,18.5,24.8,13.1z M35.2,13.1c0-2.5-0.9-4.2-3-4.2c-2,0-2.9,1.7-2.9,4.2c0,2.6,0.9,4.2,2.9,4.2
			C34.3,17.3,35.2,15.6,35.2,13.1z"/>
		<path id="XMLID_81_" class="st0" d="M40,5.7h4.6l2.4,6.9l0.4,1.6c0.1-0.4,0.4-1.2,0.4-1.6l2.4-6.9h4.2l-5.9,14.6h-2.9L40,5.7z"/>
		<path id="XMLID_78_" class="st0" d="M55,13.1c0-5.4,3.5-7.7,7.1-7.7c3.5,0,6.7,1.5,6.7,7.1v1.9h-9.4c0.2,1.7,1.2,3,3.9,3
			c2.4,0,3.9-0.9,4.8-1.7v3.6c-0.8,0.7-2.5,1.6-5.4,1.6C57.9,20.8,55,18.3,55,13.1z M64.8,11.6v-0.1c0-1.8-0.8-2.8-2.6-2.8
			c-1.7,0-2.6,1.4-2.7,2.9H64.8z"/>
		<path id="XMLID_76_" class="st0" d="M71.2,5.7H75L75.3,7c0.6-1,1.9-1.7,3.9-1.7c3.8,0,5.3,2,5.3,6v9.1h-4.3V12
			c0-2.4-0.6-3.3-2.2-3.3c-1.3,0-2.1,0.6-2.4,1.2v10.4h-4.3V5.7z"/>
		<path id="XMLID_74_" class="st0" d="M93.9,2.3h12.2V6h-7.8v3.4h5.1v3.4h-5.1v3.9h7.8v3.6H93.9V2.3z"/>
		<path id="XMLID_71_" class="st0" d="M109.5,9.1h-1.7V7.7l1.6-1.4c-0.3-0.5-0.5-1.2-0.5-2.1c0-2.7,2.3-4.1,4.8-4.1
			c1.8,0,2.6,0.5,3,0.9v3.5c-0.4-0.7-1.1-1.1-1.9-1.1c-0.9,0-1.5,0.5-1.5,1.4c0,0.5,0.2,0.8,0.3,1.1h4.5c-0.2-0.4-0.3-1-0.3-1.7
			c0-2.7,2.3-4.1,4.9-4.1c1.7,0,2.5,0.5,2.9,0.8v3.6c-0.4-0.7-1.1-1.1-2-1.1c-0.9,0-1.6,0.5-1.6,1.5c0,0.5,0.2,0.8,0.3,1.1h8.9v14.5
			h-4.3V9.1h-4.3v11.3h-4.3V9.1h-4.3v11.3h-4.3V9.1z M126.7,2.4c0-1.3,0.8-2.1,2.2-2.1c1.4,0,2.3,0.8,2.3,2.1s-0.9,2-2.3,2
			C127.5,4.4,126.7,3.7,126.7,2.4z"/>
		<path id="XMLID_69_" class="st0" d="M133.4,13.1c0-5.3,3.4-7.7,7.3-7.7c2.1,0,3.7,0.6,4.3,1.3v3.9C144.1,9.4,143,9,141.4,9
			c-2.3,0-3.5,1.5-3.5,4.1c0,2.6,1.2,4.1,3.5,4.1c1.6,0,2.8-0.6,3.8-1.6v3.7c-0.7,0.7-2.3,1.6-4.4,1.6
			C136.4,20.8,133.4,18.4,133.4,13.1z"/>
		<path id="XMLID_66_" class="st0" d="M146.9,16.5c0-2.9,2.1-4.2,6.1-4.8l2.1-0.3c0-2-1-2.6-2.9-2.6c-2.1,0-4,1-4.7,2.6V7.3
			c0.6-0.8,2.2-1.9,5.4-1.9c4.2,0,6.5,1.9,6.5,6.3v8.8h-3.7l-0.3-1.2c-0.4,0.8-1.6,1.7-3.6,1.7C148.9,20.8,146.9,19.4,146.9,16.5z
			 M155.1,14.1l-1.7,0.4c-1.9,0.4-2.6,0.9-2.6,1.9c0,1,0.7,1.4,1.8,1.4c1.2,0,2.1-0.4,2.5-1V14.1z"/>
		<path id="XMLID_64_" class="st0" d="M161.7,13.1c0-5.3,3.4-7.7,7.3-7.7c2.1,0,3.7,0.6,4.3,1.3v3.9c-0.9-1.1-2.1-1.5-3.7-1.5
			c-2.3,0-3.5,1.5-3.5,4.1c0,2.6,1.2,4.1,3.5,4.1c1.6,0,2.8-0.6,3.8-1.6v3.7c-0.7,0.7-2.3,1.6-4.4,1.6
			C164.6,20.8,161.7,18.4,161.7,13.1z"/>
		<path id="XMLID_62_" class="st0" d="M175.1,25.1v-3.4c0.6,0.6,1.5,1,2.5,1c1,0,1.9-0.3,2.6-1.9l-5.8-15h4.7l3,9.5l2.5-9.5h4.2
			l-4.1,13.8c-1.1,3.6-2.9,6.3-6.7,6.3C176.7,25.9,175.6,25.5,175.1,25.1z"/>
		<path id="XMLID_59_" class="st0" d="M196.8,2.2c0-1.3,0.8-2.1,2.2-2.1c1.4,0,2.3,0.8,2.3,2.1c0,1.3-0.9,2-2.3,2
			C197.6,4.3,196.8,3.5,196.8,2.2z M196.8,5.7h4.3v14.6h-4.3V5.7z"/>
		<path id="XMLID_57_" class="st0" d="M204.2,5.7h3.8l0.3,1.3c0.6-1,1.9-1.7,3.9-1.7c3.8,0,5.3,2,5.3,6v9.1h-4.3V12
			c0-2.4-0.6-3.3-2.2-3.3c-1.3,0-2.1,0.6-2.4,1.2v10.4h-4.3V5.7z"/>
		<path id="XMLID_54_" class="st0" d="M231.8,4.2l-0.7-1.8h4.6c0.6,1.6,6.6,16.5,7.2,18h-4.6l-1.2-3.3h-6.4l-1.2,3.3h-4.2L231.8,4.2
			z M231.9,14h4.1l-1.6-4.1l-0.5-1.5l-0.5,1.5L231.9,14z"/>
		<path id="XMLID_51_" class="st0" d="M243.6,13.2c0-5.3,2.6-7.9,6.5-7.9c1.2,0,2.4,0.2,3.1,0.9V0.4h4.3v19.9h-3.8l-0.3-1.3
			c-0.5,0.8-1.7,1.7-3.8,1.7C246,20.8,243.6,18.6,243.6,13.2z M253.1,9.6c-0.5-0.7-1.4-0.9-2.4-0.9c-2.1,0-2.8,2-2.8,4.6
			c0,2.5,0.7,4.1,2.7,4.1c1.2,0,2.1-0.5,2.4-1.1V9.6z"/>
		<path id="XMLID_49_" class="st0" d="M260.4,14.8V5.7h4.3v8.3c0,2.4,0.5,3.3,2.1,3.3c1.3,0,1.9-0.6,2.3-1.2V5.7h4.3v14.6h-3.8
			l-0.3-1.3c-0.6,0.9-1.9,1.7-3.8,1.7C261.8,20.8,260.4,18.8,260.4,14.8z"/>
		<path id="XMLID_47_" class="st0" d="M276.4,16.7V0.4h4.3v15.7c0,0.8,0.3,1.1,0.9,1.1s1-0.3,1.3-0.6V20c-0.3,0.3-1.2,0.8-2.6,0.8
			C277.8,20.8,276.4,19.4,276.4,16.7z"/>
		<path id="XMLID_45_" class="st0" d="M285.4,16.2V9.1h-1.7V7.6l1.4-1.8l2.6-3.4h2v3.4h3.4v3.4h-3.4v6.6c0,1.1,0.3,1.6,1.2,1.6
			c1,0,1.7-0.5,2.1-1.2v3.5c-0.5,0.6-1.5,1.2-3.3,1.2C286.6,20.8,285.4,19.1,285.4,16.2z"/>
		<path id="XMLID_43_" class="st0" d="M300.5,5.7h4.3l1.9,7.7l2.9-7.7h1.6l3,7.7l1.9-7.7h4l-4,14.6h-2.7l-3.1-8l-3.1,8h-2.7
			L300.5,5.7z"/>
		<path id="XMLID_40_" class="st0" d="M322,2.2c0-1.3,0.8-2.1,2.2-2.1c1.4,0,2.3,0.8,2.3,2.1c0,1.3-0.9,2-2.3,2
			C322.8,4.3,322,3.5,322,2.2z M322.1,5.7h4.3v14.6h-4.3V5.7z"/>
		<path id="XMLID_38_" class="st0" d="M330.2,16.2V9.1h-1.7V7.6l1.4-1.8l2.6-3.4h2v3.4h3.4v3.4h-3.4v6.6c0,1.1,0.3,1.6,1.2,1.6
			c1,0,1.7-0.5,2.1-1.2v3.5c-0.5,0.6-1.5,1.2-3.3,1.2C331.4,20.8,330.2,19.1,330.2,16.2z"/>
		<path id="XMLID_36_" class="st0" d="M340.2,0.4h4.3v6.4c0.7-0.8,2-1.5,3.7-1.5c3.8,0,5.2,2,5.2,6v9.1h-4.3V12
			c0-2.4-0.6-3.3-2.2-3.3c-1.3,0-2.1,0.6-2.4,1.1v10.5h-4.3V0.4z"/>
		<path id="XMLID_34_" class="st0" d="M362.3,19.5v-4.4c0.9,1.1,2.6,2.1,4.8,2.1c2,0,2.9-0.8,2.9-2.1c0-1.1-0.7-1.5-2.4-1.9
			l-0.7-0.1c-2.9-0.6-4.8-2.2-4.8-5.4c0-3.6,2.6-5.8,6.7-5.8c2.7,0,4.2,0.7,4.9,1.3v4.4c-0.9-1.1-2.6-2-4.9-2
			c-1.6,0-2.5,0.6-2.5,1.7c0,1.1,0.4,1.6,2.1,1.9l0.7,0.1c3.1,0.6,5.1,1.9,5.1,5.3c0,3.6-2.5,6.1-7.2,6.1
			C364.5,20.8,363,20.1,362.3,19.5z"/>
		<path id="XMLID_32_" class="st0" d="M376.1,13.1c0-5.3,3.4-7.7,7.3-7.7c2.1,0,3.7,0.6,4.3,1.3v3.9C386.8,9.4,385.7,9,384,9
			c-2.3,0-3.5,1.5-3.5,4.1c0,2.6,1.2,4.1,3.5,4.1c1.6,0,2.8-0.6,3.8-1.6v3.7c-0.7,0.7-2.3,1.6-4.4,1.6
			C379,20.8,376.1,18.4,376.1,13.1z"/>
		<path id="XMLID_30_" class="st0" d="M390.3,0.4h4.3v6.4c0.7-0.8,2-1.5,3.7-1.5c3.8,0,5.2,2,5.2,6v9.1h-4.3V12
			c0-2.4-0.6-3.3-2.2-3.3c-1.3,0-2.1,0.6-2.4,1.1v10.5h-4.3V0.4z"/>
		<path id="XMLID_27_" class="st0" d="M406.4,2.2c0-1.3,0.8-2.1,2.2-2.1c1.4,0,2.3,0.8,2.3,2.1c0,1.3-0.9,2-2.3,2
			C407.2,4.3,406.4,3.5,406.4,2.2z M406.5,5.7h4.3v14.6h-4.3V5.7z"/>
		<path id="XMLID_25_" class="st0" d="M413.1,19.1l6.2-9.9h-6.1V5.7h11.5v1.3l-5.9,9.9h5.9v3.4h-11.5V19.1z"/>
		<path id="XMLID_22_" class="st0" d="M426.1,13.1c0-5.4,3.5-7.7,7.5-7.7c4.2,0,7.2,2.3,7.2,7.7c0,5.4-3.5,7.7-7.5,7.7
			C429.1,20.8,426.1,18.5,426.1,13.1z M436.4,13.1c0-2.5-0.9-4.2-3-4.2c-2,0-2.9,1.7-2.9,4.2c0,2.6,0.9,4.2,2.9,4.2
			C435.5,17.3,436.4,15.6,436.4,13.1z"/>
		<path id="XMLID_19_" class="st0" d="M443.1,5.7h3.8l0.3,1.3c0.5-0.8,1.7-1.7,3.8-1.7c3.7,0,5.9,2,5.9,7.3c0,5.3-2.8,8.1-6.5,8.1
			c-1.2,0-2.4-0.2-3.1-0.9v5.6h-4.3V5.7z M452.7,12.9c0-2.5-0.7-4.1-2.8-4.1c-1.2,0-2.1,0.5-2.4,1.2v6.6c0.5,0.7,1.4,0.9,2.4,0.9
			C451.9,17.5,452.7,15.4,452.7,12.9z"/>
		<path id="XMLID_17_" class="st0" d="M459.4,0.4h4.3v6.4c0.7-0.8,2-1.5,3.7-1.5c3.8,0,5.2,2,5.2,6v9.1h-4.3V12
			c0-2.4-0.6-3.3-2.2-3.3c-1.3,0-2.1,0.6-2.4,1.1v10.5h-4.3V0.4z"/>
		<path id="XMLID_15_" class="st0" d="M475.6,5.7h3.6l0.3,1.9c0.2-1.5,1.4-2.4,2.8-2.4c0.8,0,1.2,0.2,1.5,0.4v3.9
			c-0.4-0.3-0.9-0.4-1.7-0.4c-1.1,0-1.8,0.4-2.2,1.2v10h-4.3V5.7z"/>
		<path id="XMLID_12_" class="st0" d="M484.8,13.1c0-5.4,3.5-7.7,7.1-7.7c3.5,0,6.7,1.5,6.7,7.1v1.9h-9.4c0.2,1.7,1.2,3,3.9,3
			c2.4,0,3.9-0.9,4.8-1.7v3.6c-0.8,0.7-2.5,1.6-5.4,1.6C487.7,20.8,484.8,18.3,484.8,13.1z M494.6,11.6v-0.1c0-1.8-0.8-2.8-2.6-2.8
			c-1.7,0-2.6,1.4-2.7,2.9H494.6z"/>
		<path id="XMLID_10_" class="st0" d="M501,5.7h3.8l0.3,1.3c0.6-1,1.9-1.7,3.9-1.7c3.8,0,5.3,2,5.3,6v9.1h-4.3V12
			c0-2.4-0.6-3.3-2.2-3.3c-1.3,0-2.1,0.6-2.4,1.2v10.4H501V5.7z"/>
		<path id="XMLID_7_" class="st0" d="M517.1,2.2c0-1.3,0.8-2.1,2.2-2.1c1.4,0,2.3,0.8,2.3,2.1c0,1.3-0.9,2-2.3,2
			C518,4.3,517.1,3.5,517.1,2.2z M517.2,5.7h4.3v14.6h-4.3V5.7z"/>
		<path id="XMLID_4_" class="st0" d="M523.8,16.5c0-2.9,2.1-4.2,6.1-4.8l2.1-0.3c0-2-1-2.6-2.9-2.6c-2.1,0-4,1-4.7,2.6V7.3
			c0.6-0.8,2.2-1.9,5.4-1.9c4.2,0,6.5,1.9,6.5,6.3v8.8h-3.7l-0.3-1.2c-0.4,0.8-1.6,1.7-3.6,1.7C525.9,20.8,523.8,19.4,523.8,16.5z
			 M532.1,14.1l-1.7,0.4c-1.9,0.4-2.6,0.9-2.6,1.9c0,1,0.7,1.4,1.8,1.4c1.2,0,2.1-0.4,2.5-1V14.1z"/>
	</g>
</g>
</svg>
