<!-- Generator: Adobe Illustrator 22.1.0, SVG Export Plug-In  -->
<svg version="1.1"
	 xmlns="http://www.w3.org/2000/svg" xmlns:xlink="http://www.w3.org/1999/xlink" xmlns:a="http://ns.adobe.com/AdobeSVGViewerExtensions/3.0/"
	 x="0px" y="0px" width="421.5px" height="56.4px" viewBox="0 0 421.5 56.4" style="enable-background:new 0 0 421.5 56.4;"
	 xml:space="preserve">
<style type="text/css">
	.st0{fill:#FFFFFF;}
</style>
<defs>
</defs>
<g id="XMLID_1_">
	<g id="XMLID_3_">
		<path id="XMLID_114_" class="st0" d="M0,2.3h12v3.6H4.3v3.4h5v3.4h-5v3.8H12V20H0V2.3z"/>
		<path id="XMLID_112_" class="st0" d="M14.7,2.3h5.9c5.3,0,7.5,2.2,7.5,5.9c0,3.8-2.2,6.6-7.5,6.6h-0.9v-3.2h0.7
			c2.1,0,3.2-1.1,3.2-3.1c0-2-1-3-3.2-3H19V20h-4.3V2.3z"/>
		<path id="XMLID_110_" class="st0" d="M29.8,19.1v-4.3c0.9,1,2.6,2,4.7,2c1.9,0,2.9-0.7,2.9-2c0-1.1-0.6-1.5-2.4-1.8l-0.7-0.1
			c-2.8-0.6-4.7-2.2-4.7-5.3c0-3.5,2.5-5.7,6.6-5.7c2.6,0,4.1,0.7,4.8,1.3v4.3c-0.9-1.1-2.6-2-4.8-2c-1.6,0-2.5,0.5-2.5,1.7
			c0,1,0.4,1.5,2.1,1.9l0.7,0.1c3,0.6,5,1.9,5,5.2c0,3.5-2.5,6-7,6C31.9,20.4,30.5,19.7,29.8,19.1z"/>
		<path id="XMLID_108_" class="st0" d="M50.4,2.3h5.9c5.3,0,7.5,2.2,7.5,5.9c0,3.8-2.2,6.6-7.5,6.6h-0.9v-3.2h0.7
			c2.1,0,3.2-1.1,3.2-3.1c0-2-1-3-3.2-3h-1.5V20h-4.3V2.3z"/>
		<path id="XMLID_106_" class="st0" d="M65.8,5.6h3.5l0.3,1.9C69.8,6,71,5.2,72.4,5.2c0.7,0,1.2,0.2,1.4,0.4v3.8
			C73.5,9.2,72.9,9,72.2,9c-1.1,0-1.7,0.4-2.1,1.2V20h-4.2V5.6z"/>
		<path id="XMLID_103_" class="st0" d="M74.8,12.8c0-5.3,3.4-7.6,7.4-7.6c4.2,0,7.1,2.3,7.1,7.6c0,5.3-3.4,7.6-7.4,7.6
			C77.7,20.4,74.8,18.1,74.8,12.8z M85,12.8c0-2.5-0.9-4.1-2.9-4.1c-2,0-2.9,1.7-2.9,4.1c0,2.5,0.9,4.1,2.9,4.1
			C84.1,16.9,85,15.3,85,12.8z"/>
		<path id="XMLID_100_" class="st0" d="M92.3,8.9h-1.7V7.6l1.6-1.4c-0.3-0.5-0.5-1.2-0.5-2.1C91.7,1.5,94,0,96.6,0
			c1.6,0,2.5,0.5,2.8,0.8v3.5c-0.4-0.6-1.1-1-2-1c-0.9,0-1.5,0.5-1.5,1.4c0,0.5,0.2,0.8,0.3,1.1h8.8V20h-4.2V8.9h-4.3V20h-4.2V8.9z
			 M100.7,2.3c0-1.3,0.8-2,2.2-2c1.3,0,2.2,0.7,2.2,2s-0.9,2-2.2,2C101.5,4.3,100.7,3.6,100.7,2.3z"/>
		<path id="XMLID_98_" class="st0" d="M107.9,16.4v-16h4.2v15.4c0,0.8,0.3,1.1,0.9,1.1s1-0.3,1.2-0.6v3.3c-0.3,0.3-1.2,0.8-2.5,0.8
			C109.2,20.4,107.9,19,107.9,16.4z"/>
		<path id="XMLID_95_" class="st0" d="M115.5,12.8c0-5.3,3.4-7.6,7-7.6c3.4,0,6.6,1.5,6.6,6.9V14h-9.2c0.2,1.6,1.2,2.9,3.9,2.9
			c2.4,0,3.9-0.9,4.7-1.7v3.5c-0.8,0.7-2.5,1.6-5.3,1.6C118.3,20.4,115.5,18,115.5,12.8z M125.1,11.4v-0.1c0-1.7-0.8-2.7-2.6-2.7
			c-1.7,0-2.6,1.4-2.6,2.9H125.1z"/>
		<path id="XMLID_92_" class="st0" d="M137.5,2.2c0-1.3,0.8-2,2.2-2c1.3,0,2.2,0.8,2.2,2s-0.9,2-2.2,2
			C138.3,4.2,137.5,3.5,137.5,2.2z M137.6,5.6h4.2V20h-4.2V5.6z"/>
		<path id="XMLID_90_" class="st0" d="M144.5,19.2v-3.8c0.9,0.9,2.3,1.6,4.3,1.6c1.9,0,2.4-0.6,2.4-1.3c0-0.8-0.3-1.1-1.9-1.3
			l-0.7-0.1c-3-0.4-4.3-1.9-4.3-4.4c0-2.5,1.7-4.7,5.9-4.7c2.2,0,3.7,0.5,4.5,1.2v3.7c-0.9-1-2.4-1.6-4.3-1.6
			c-1.7,0-2.2,0.5-2.2,1.2s0.3,1.1,1.8,1.3l0.8,0.1c3.2,0.5,4.5,1.6,4.5,4.3c0,2.5-1.7,4.9-6.2,4.9
			C146.7,20.4,145.2,19.9,144.5,19.2z"/>
		<path id="XMLID_88_" class="st0" d="M163,11.1c0-6.1,3.8-9.2,8.5-9.2c2.9,0,4.4,0.8,5.1,1.4v4.4c-1-1.4-2.4-2.1-4.5-2.1
			c-3,0-4.7,1.9-4.7,5.5c0,3.5,1.6,5.7,4.7,5.7c2,0,3.6-0.7,4.5-2v4c-1,1-2.8,1.7-5,1.7C166.3,20.4,163,17.3,163,11.1z"/>
		<path id="XMLID_85_" class="st0" d="M178.5,12.8c0-5.3,3.4-7.6,7.4-7.6c4.2,0,7.1,2.3,7.1,7.6c0,5.3-3.4,7.6-7.4,7.6
			C181.4,20.4,178.5,18.1,178.5,12.8z M188.6,12.8c0-2.5-0.9-4.1-2.9-4.1c-2,0-2.9,1.7-2.9,4.1c0,2.5,0.9,4.1,2.9,4.1
			C187.7,16.9,188.6,15.3,188.6,12.8z"/>
		<path id="XMLID_83_" class="st0" d="M195.2,5.6h3.8l0.2,1.2c0.6-1,1.9-1.7,3.6-1.7c2,0,3.4,0.7,4.1,2c0.7-1,2.1-2,4.2-2
			c3.5,0,4.9,1.9,4.9,5.9V20h-4.2v-8.2c0-2.3-0.5-3.2-1.9-3.2c-1,0-1.9,0.5-2.2,1.2c0.1,0.4,0.1,0.9,0.1,1.3V20h-4.2v-8.2
			c0-2.3-0.5-3.2-1.9-3.2c-1.1,0-1.8,0.5-2.1,1.2V20h-4.2V5.6z"/>
		<path id="XMLID_80_" class="st0" d="M219,5.6h3.7l0.3,1.2c0.5-0.8,1.7-1.7,3.8-1.7c3.6,0,5.8,2,5.8,7.2c0,5.2-2.8,8-6.4,8
			c-1.1,0-2.4-0.2-3-0.9V25H219V5.6z M228.3,12.6c0-2.5-0.7-4-2.7-4c-1.2,0-2,0.5-2.4,1.1v6.5c0.5,0.6,1.4,0.9,2.3,0.9
			C227.5,17.1,228.3,15.1,228.3,12.6z"/>
		<path id="XMLID_77_" class="st0" d="M234.3,16.2c0-2.9,2-4.1,6-4.7l2.1-0.3c0-1.9-1-2.6-2.8-2.6c-2,0-3.9,1-4.6,2.6v-4
			c0.6-0.8,2.2-1.9,5.3-1.9c4.1,0,6.4,1.8,6.4,6.1V20h-3.7l-0.3-1.2c-0.4,0.8-1.5,1.6-3.5,1.6C236.3,20.4,234.3,19,234.3,16.2z
			 M242.4,13.8l-1.6,0.4c-1.9,0.4-2.6,0.9-2.6,1.9c0,1,0.7,1.4,1.7,1.4c1.1,0,2.1-0.4,2.5-1V13.8z"/>
		<path id="XMLID_75_" class="st0" d="M249.5,5.6h3.5l0.3,1.9c0.2-1.5,1.4-2.3,2.8-2.3c0.8,0,1.2,0.2,1.4,0.4v3.8
			c-0.4-0.3-0.9-0.4-1.7-0.4c-1.1,0-1.7,0.4-2.1,1.2V20h-4.2V5.6z"/>
		<path id="XMLID_72_" class="st0" d="M258.5,16.2c0-2.9,2-4.1,6-4.7l2.1-0.3c0-1.9-1-2.6-2.8-2.6c-2,0-3.9,1-4.6,2.6v-4
			c0.6-0.8,2.2-1.9,5.3-1.9c4.1,0,6.4,1.8,6.4,6.1V20h-3.7l-0.3-1.2c-0.4,0.8-1.5,1.6-3.5,1.6C260.6,20.4,258.5,19,258.5,16.2z
			 M266.7,13.8l-1.6,0.4c-1.9,0.4-2.6,0.9-2.6,1.9c0,1,0.7,1.4,1.7,1.4c1.1,0,2.1-0.4,2.5-1V13.8z"/>
		<path id="XMLID_69_" class="st0" d="M277.5,19l-0.5,1h-3.2V0.4h4.2v6.4c0.4-0.7,1.7-1.6,3.7-1.6c3.5,0,5.8,2,5.8,7.2
			c0,5.2-2.8,8-6.4,8C279.1,20.4,278.1,19.7,277.5,19z M278,16.2c0.6,0.7,1.4,0.9,2.3,0.9c2,0,2.8-2,2.8-4.5c0-2.5-0.7-4-2.7-4
			c-1.2,0-2,0.5-2.4,1.1V16.2z"/>
		<path id="XMLID_67_" class="st0" d="M289.7,16.4v-16h4.2v15.4c0,0.8,0.3,1.1,0.9,1.1s1-0.3,1.2-0.6v3.3c-0.3,0.3-1.2,0.8-2.5,0.8
			C291,20.4,289.7,19,289.7,16.4z"/>
		<path id="XMLID_64_" class="st0" d="M297.3,12.8c0-5.3,3.4-7.6,7-7.6c3.4,0,6.6,1.5,6.6,6.9V14h-9.2c0.2,1.6,1.2,2.9,3.9,2.9
			c2.4,0,3.9-0.9,4.7-1.7v3.5c-0.8,0.7-2.5,1.6-5.3,1.6C300.1,20.4,297.3,18,297.3,12.8z M306.9,11.4v-0.1c0-1.7-0.8-2.7-2.6-2.7
			c-1.7,0-2.6,1.4-2.6,2.9H306.9z"/>
		<path id="XMLID_62_" class="st0" d="M320.1,15.9V8.9h-1.7V7.4l1.4-1.8l2.6-3.4h2v3.4h3.4v3.3h-3.4v6.5c0,1,0.3,1.5,1.2,1.5
			c1,0,1.7-0.5,2.1-1.2v3.5c-0.5,0.6-1.5,1.2-3.3,1.2C321.3,20.4,320.1,18.7,320.1,15.9z"/>
		<path id="XMLID_59_" class="st0" d="M329.2,12.8c0-5.3,3.4-7.6,7.4-7.6c4.2,0,7.1,2.3,7.1,7.6c0,5.3-3.4,7.6-7.4,7.6
			C332.1,20.4,329.2,18.1,329.2,12.8z M339.3,12.8c0-2.5-0.9-4.1-2.9-4.1c-2,0-2.9,1.7-2.9,4.1c0,2.5,0.9,4.1,2.9,4.1
			C338.4,16.9,339.3,15.3,339.3,12.8z"/>
		<path id="XMLID_56_" class="st0" d="M351.5,11.1c0-6.1,4.3-9.2,9.1-9.2c5.3,0,9,3.1,9,9.2c0,6.1-4.3,9.3-9.1,9.3
			C355.2,20.4,351.5,17.3,351.5,11.1z M365.1,11.2c0-3.6-1.7-5.7-4.6-5.7c-2.8,0-4.6,2-4.6,5.5c0,3.6,1.7,5.7,4.6,5.7
			C363.3,16.7,365.1,14.7,365.1,11.2z"/>
		<path id="XMLID_54_" class="st0" d="M372.6,15.9V8.9h-1.7V7.4l1.4-1.8l2.6-3.4h2v3.4h3.4v3.3h-3.4v6.5c0,1,0.3,1.5,1.2,1.5
			c1,0,1.7-0.5,2.1-1.2v3.5c-0.5,0.6-1.5,1.2-3.3,1.2C373.8,20.4,372.6,18.7,372.6,15.9z"/>
		<path id="XMLID_52_" class="st0" d="M382.4,0.4h4.2v6.3c0.6-0.8,1.9-1.5,3.6-1.5c3.7,0,5.1,1.9,5.1,5.9V20h-4.2v-8.2
			c0-2.4-0.6-3.2-2.2-3.2c-1.2,0-2,0.6-2.4,1.1V20h-4.2V0.4z"/>
		<path id="XMLID_49_" class="st0" d="M397.6,12.8c0-5.3,3.4-7.6,7-7.6c3.4,0,6.6,1.5,6.6,6.9V14H402c0.2,1.6,1.2,2.9,3.9,2.9
			c2.4,0,3.9-0.9,4.7-1.7v3.5c-0.8,0.7-2.5,1.6-5.3,1.6C400.4,20.4,397.6,18,397.6,12.8z M407.2,11.4v-0.1c0-1.7-0.8-2.7-2.6-2.7
			c-1.7,0-2.6,1.4-2.6,2.9H407.2z"/>
		<path id="XMLID_47_" class="st0" d="M413.5,5.6h3.5l0.3,1.9c0.2-1.5,1.4-2.3,2.8-2.3c0.8,0,1.2,0.2,1.4,0.4v3.8
			c-0.4-0.3-0.9-0.4-1.7-0.4c-1.1,0-1.7,0.4-2.1,1.2V20h-4.2V5.6z"/>
		<path id="XMLID_44_" class="st0" d="M95.8,35.1l-0.7-1.8h4.5c0.6,1.5,6.4,16.2,7.1,17.7h-4.5l-1.2-3.2h-6.3L93.5,51h-4.2
			L95.8,35.1z M95.8,44.8h4l-1.5-4l-0.5-1.5l-0.5,1.5L95.8,44.8z"/>
		<path id="XMLID_42_" class="st0" d="M108.2,36.6h3.7l0.3,1.2c0.6-1,1.9-1.7,3.8-1.7c3.7,0,5.2,1.9,5.2,5.9V51H117v-8.2
			c0-2.4-0.6-3.2-2.2-3.2c-1.3,0-2,0.6-2.4,1.2V51h-4.2V36.6z"/>
		<path id="XMLID_40_" class="st0" d="M124.9,46.9v-6.9h-1.7v-1.5l1.4-1.8l2.6-3.4h2v3.4h3.4v3.3h-3.4v6.5c0,1,0.3,1.5,1.2,1.5
			c1,0,1.7-0.5,2.1-1.2v3.5c-0.5,0.6-1.5,1.2-3.3,1.2C126.1,51.4,124.9,49.7,124.9,46.9z"/>
		<path id="XMLID_37_" class="st0" d="M134.6,33.2c0-1.3,0.8-2,2.2-2c1.3,0,2.2,0.8,2.2,2s-0.9,2-2.2,2
			C135.4,35.2,134.6,34.5,134.6,33.2z M134.7,36.6h4.2V51h-4.2V36.6z"/>
		<path id="XMLID_34_" class="st0" d="M141.9,36.6h3.7l0.3,1.2c0.5-0.8,1.7-1.7,3.8-1.7c3.6,0,5.8,2,5.8,7.2c0,5.2-2.8,8-6.4,8
			c-1.1,0-2.4-0.2-3-0.9V56h-4.2V36.6z M151.3,43.6c0-2.5-0.7-4-2.7-4c-1.2,0-2,0.5-2.4,1.1v6.5c0.5,0.6,1.4,0.9,2.3,0.9
			C150.5,48.1,151.3,46.1,151.3,43.6z"/>
		<path id="XMLID_32_" class="st0" d="M157.6,50.3v-3.8c0.9,0.9,2.3,1.6,4.3,1.6c1.9,0,2.4-0.6,2.4-1.3c0-0.8-0.3-1.1-1.9-1.3
			l-0.7-0.1c-3-0.4-4.3-1.9-4.3-4.4c0-2.5,1.7-4.7,5.9-4.7c2.2,0,3.7,0.5,4.5,1.2v3.7c-0.9-1-2.4-1.6-4.3-1.6
			c-1.7,0-2.2,0.5-2.2,1.2s0.3,1.1,1.8,1.3l0.8,0.1c3.2,0.5,4.5,1.6,4.5,4.3c0,2.5-1.7,4.9-6.2,4.9
			C159.8,51.4,158.3,50.9,157.6,50.3z"/>
		<path id="XMLID_30_" class="st0" d="M169.8,55.6v-3.4c0.6,0.6,1.5,1,2.5,1c1,0,1.9-0.3,2.5-1.9l-5.7-14.7h4.6l2.9,9.4l2.5-9.4h4.1
			l-4,13.6c-1.1,3.5-2.8,6.2-6.6,6.2C171.3,56.4,170.3,56.1,169.8,55.6z"/>
		<path id="XMLID_28_" class="st0" d="M183.9,43.8c0-5.2,3.3-7.6,7.2-7.6c2.1,0,3.6,0.6,4.3,1.2v3.8c-0.9-1-2-1.5-3.6-1.5
			c-2.2,0-3.4,1.5-3.4,4c0,2.6,1.2,4,3.4,4c1.6,0,2.8-0.6,3.7-1.6v3.6c-0.6,0.7-2.3,1.5-4.4,1.5C186.8,51.4,183.9,49.1,183.9,43.8z"
			/>
		<path id="XMLID_26_" class="st0" d="M197.8,31.4h4.2v6.3c0.6-0.8,1.9-1.5,3.6-1.5c3.7,0,5.1,1.9,5.1,5.9V51h-4.2v-8.2
			c0-2.4-0.6-3.2-2.2-3.2c-1.2,0-2,0.6-2.4,1.1V51h-4.2V31.4z"/>
		<path id="XMLID_23_" class="st0" d="M213.1,43.8c0-5.3,3.4-7.6,7.4-7.6c4.2,0,7.1,2.3,7.1,7.6c0,5.3-3.4,7.6-7.4,7.6
			C216,51.4,213.1,49.1,213.1,43.8z M223.2,43.8c0-2.5-0.9-4.1-2.9-4.1c-2,0-2.9,1.7-2.9,4.1c0,2.5,0.9,4.1,2.9,4.1
			C222.3,48,223.2,46.3,223.2,43.8z"/>
		<path id="XMLID_21_" class="st0" d="M230.5,46.9v-6.9h-1.7v-1.5l1.4-1.8l2.6-3.4h2v3.4h3.4v3.3h-3.4v6.5c0,1,0.3,1.5,1.2,1.5
			c1,0,1.7-0.5,2.1-1.2v3.5c-0.5,0.6-1.5,1.2-3.3,1.2C231.7,51.4,230.5,49.7,230.5,46.9z"/>
		<path id="XMLID_18_" class="st0" d="M240.3,33.2c0-1.3,0.8-2,2.2-2c1.3,0,2.2,0.8,2.2,2s-0.9,2-2.2,2
			C241.1,35.2,240.3,34.5,240.3,33.2z M240.4,36.6h4.2V51h-4.2V36.6z"/>
		<path id="XMLID_16_" class="st0" d="M246.9,43.8c0-5.2,3.3-7.6,7.2-7.6c2.1,0,3.6,0.6,4.3,1.2v3.8c-0.9-1-2-1.5-3.6-1.5
			c-2.2,0-3.4,1.5-3.4,4c0,2.6,1.2,4,3.4,4c1.6,0,2.8-0.6,3.7-1.6v3.6c-0.6,0.7-2.3,1.5-4.4,1.5C249.8,51.4,246.9,49.1,246.9,43.8z"
			/>
		<path id="XMLID_13_" class="st0" d="M267.2,33.3h5.7c6,0,9.5,2.3,9.5,8.8s-4.2,8.9-9.5,8.9h-5.7V33.3z M272.9,47.4
			c3.9,0,5.1-1.5,5.1-5.2s-1.2-5.3-5.1-5.3h-1.4v10.5H272.9z"/>
		<path id="XMLID_11_" class="st0" d="M284.9,36.6h3.5l0.3,1.9c0.2-1.5,1.4-2.3,2.8-2.3c0.8,0,1.2,0.2,1.4,0.4v3.8
			c-0.4-0.3-0.9-0.4-1.7-0.4c-1.1,0-1.7,0.4-2.1,1.2V51h-4.2V36.6z"/>
		<path id="XMLID_9_" class="st0" d="M294.7,45.6v-8.9h4.2v8.2c0,2.4,0.5,3.3,2.1,3.3c1.3,0,1.9-0.6,2.3-1.2V36.6h4.2V51h-3.7
			l-0.3-1.2c-0.6,0.9-1.9,1.7-3.7,1.7C296,51.4,294.7,49.5,294.7,45.6z"/>
		<path id="XMLID_6_" class="st0" d="M309.8,55.1V52c1.4,0.8,3.1,1.3,6.1,1.3c3.4,0,4.8-0.4,4.8-1.5c0-0.9-0.9-1.1-3-1.1
			c-2.1,0-5.4,0.4-6.3,0.9v-2.8l2-3c-2.1-0.7-3.4-2.3-3.4-4.5c0-3.2,2.5-5,6.4-5c1.7,0,3,0.4,4.1,1c0.4-0.7,1.6-1.1,2.7-1.1
			c0.4,0,0.9,0.1,1.2,0.2v3.2c-0.3-0.2-0.6-0.2-1-0.2c-0.5,0-1,0.2-1.2,0.4c0.2,0.5,0.3,1,0.3,1.6c0,3.1-2.5,4.9-6.4,4.9h-0.3
			l-1.1,1.8c0.6-0.2,2.3-0.4,3.7-0.4c3.6,0,5.9,0.8,5.9,3.9c0,3-2.8,4.9-8.2,4.9C313.2,56.4,311,55.9,309.8,55.1z M318.5,41.2
			c0-1.3-0.9-2-2.3-2c-1.4,0-2.3,0.7-2.3,2s0.9,1.9,2.3,1.9C317.6,43.2,318.5,42.5,318.5,41.2z"/>
		<path id="XMLID_4_" class="st0" d="M325.7,50.3v-3.8c0.9,0.9,2.3,1.6,4.3,1.6c1.9,0,2.4-0.6,2.4-1.3c0-0.8-0.3-1.1-1.9-1.3
			l-0.7-0.1c-3-0.4-4.3-1.9-4.3-4.4c0-2.5,1.7-4.7,5.9-4.7c2.2,0,3.7,0.5,4.5,1.2v3.7c-0.9-1-2.4-1.6-4.3-1.6
			c-1.7,0-2.2,0.5-2.2,1.2s0.3,1.1,1.8,1.3l0.8,0.1c3.2,0.5,4.5,1.6,4.5,4.3c0,2.5-1.7,4.9-6.2,4.9C328,51.4,326.5,50.9,325.7,50.3z
			"/>
	</g>
</g>
</svg>
