<!-- Generator: Adobe Illustrator 22.1.0, SVG Export Plug-In  -->
<svg version="1.1"
	 xmlns="http://www.w3.org/2000/svg" xmlns:xlink="http://www.w3.org/1999/xlink" xmlns:a="http://ns.adobe.com/AdobeSVGViewerExtensions/3.0/"
	 x="0px" y="0px" width="518.3px" height="25.7px" viewBox="0 0 518.3 25.7" style="enable-background:new 0 0 518.3 25.7;"
	 xml:space="preserve">
<style type="text/css">
	.st0{fill:#FFFFFF;}
</style>
<defs>
</defs>
<g id="XMLID_1_">
	<g id="XMLID_3_">
		<path id="XMLID_84_" class="st0" d="M0.1,19.4V15c0.9,1,2.6,2,4.8,2c2,0,2.9-0.8,2.9-2c0-1.1-0.7-1.5-2.4-1.9L4.8,13
			C1.9,12.4,0,10.8,0,7.6c0-3.6,2.5-5.7,6.7-5.7c2.7,0,4.2,0.7,4.9,1.3v4.3c-0.9-1.1-2.6-2-4.9-2c-1.6,0-2.5,0.5-2.5,1.7
			c0,1,0.4,1.5,2.1,1.9L7,9.3c3,0.6,5,1.9,5,5.3c0,3.6-2.5,6.1-7.1,6.1C2.3,20.6,0.8,19.9,0.1,19.4z"/>
		<path id="XMLID_82_" class="st0" d="M14.5,0.4h4.3v6.3c0.7-0.8,2-1.5,3.7-1.5c3.8,0,5.2,2,5.2,5.9v9h-4.3v-8.3
			c0-2.4-0.6-3.3-2.2-3.3c-1.3,0-2,0.6-2.4,1.1v10.4h-4.3V0.4z"/>
		<path id="XMLID_79_" class="st0" d="M29.9,13c0-5.4,3.5-7.7,7.5-7.7c4.2,0,7.1,2.3,7.1,7.7c0,5.4-3.5,7.7-7.5,7.7
			C32.8,20.6,29.9,18.3,29.9,13z M40.1,13c0-2.5-0.9-4.2-3-4.2c-2,0-2.9,1.7-2.9,4.2c0,2.5,0.9,4.2,2.9,4.2
			C39.2,17.1,40.1,15.5,40.1,13z"/>
		<path id="XMLID_77_" class="st0" d="M45.4,5.7h4.3l1.9,7.7l2.9-7.7h1.6l3,7.7l1.9-7.7h3.9l-3.9,14.5h-2.6l-3.1-7.9l-3.1,7.9h-2.6
			L45.4,5.7z"/>
		<path id="XMLID_75_" class="st0" d="M66.4,19.5v-3.8c0.9,0.9,2.4,1.6,4.3,1.6c1.9,0,2.5-0.6,2.5-1.3c0-0.8-0.3-1.1-2-1.3l-0.7-0.1
			c-3-0.4-4.3-1.9-4.3-4.5c0-2.5,1.7-4.8,6-4.8c2.2,0,3.8,0.5,4.5,1.2v3.8c-0.9-1-2.5-1.6-4.4-1.6c-1.7,0-2.2,0.5-2.2,1.2
			s0.3,1.1,1.8,1.3l0.8,0.1c3.2,0.5,4.6,1.6,4.6,4.3c0,2.5-1.8,5-6.3,5C68.7,20.6,67.2,20.1,66.4,19.5z"/>
		<path id="XMLID_73_" class="st0" d="M86,2.3h12.2v3.6h-7.8v3.4h5.1v3.4h-5.1v3.9h7.8v3.6H86V2.3z"/>
		<path id="XMLID_70_" class="st0" d="M101.4,9h-1.7V7.6l1.6-1.4c-0.3-0.5-0.5-1.2-0.5-2.1c0-2.7,2.3-4.1,4.7-4.1
			c1.8,0,2.6,0.5,3,0.9v3.5c-0.4-0.7-1.1-1-1.9-1c-0.9,0-1.5,0.5-1.5,1.4c0,0.5,0.2,0.8,0.3,1.1h4.4c-0.2-0.4-0.3-1-0.3-1.7
			c0-2.7,2.3-4.1,4.8-4.1c1.6,0,2.5,0.5,2.8,0.8v3.5c-0.4-0.7-1.1-1-2-1c-0.9,0-1.6,0.5-1.6,1.5c0,0.5,0.2,0.8,0.3,1.1h8.9v14.4
			h-4.3V9h-4.3v11.2H110V9h-4.3v11.2h-4.3V9z M118.5,2.4c0-1.3,0.8-2,2.2-2c1.4,0,2.2,0.8,2.2,2c0,1.3-0.9,2-2.2,2
			C119.3,4.4,118.5,3.6,118.5,2.4z"/>
		<path id="XMLID_68_" class="st0" d="M125.2,13c0-5.3,3.3-7.7,7.2-7.7c2.1,0,3.7,0.6,4.3,1.3v3.9c-0.9-1-2.1-1.5-3.7-1.5
			c-2.2,0-3.5,1.5-3.5,4.1c0,2.6,1.2,4.1,3.5,4.1c1.6,0,2.8-0.6,3.8-1.6v3.7c-0.7,0.7-2.3,1.5-4.4,1.5
			C128.1,20.6,125.2,18.3,125.2,13z"/>
		<path id="XMLID_65_" class="st0" d="M138.5,16.4c0-2.9,2-4.1,6.1-4.8l2.1-0.3c0-2-1-2.6-2.9-2.6c-2.1,0-4,1-4.7,2.6V7.2
			c0.6-0.8,2.2-1.9,5.4-1.9c4.2,0,6.5,1.9,6.5,6.2v8.7h-3.7L147,19c-0.4,0.8-1.5,1.6-3.6,1.6C140.6,20.6,138.5,19.3,138.5,16.4z
			 M146.7,14l-1.6,0.4c-1.9,0.4-2.6,0.9-2.6,1.9c0,1,0.7,1.4,1.8,1.4c1.2,0,2.1-0.4,2.5-1V14z"/>
		<path id="XMLID_63_" class="st0" d="M153.2,13c0-5.3,3.3-7.7,7.2-7.7c2.1,0,3.7,0.6,4.3,1.3v3.9c-0.9-1-2.1-1.5-3.7-1.5
			c-2.2,0-3.5,1.5-3.5,4.1c0,2.6,1.2,4.1,3.5,4.1c1.6,0,2.8-0.6,3.8-1.6v3.7c-0.7,0.7-2.3,1.5-4.4,1.5
			C156.2,20.6,153.2,18.3,153.2,13z"/>
		<path id="XMLID_61_" class="st0" d="M166.6,24.9v-3.4c0.6,0.6,1.5,1,2.5,1c1,0,1.9-0.3,2.6-1.9l-5.8-14.8h4.7l3,9.5l2.5-9.5h4.1
			l-4.1,13.7c-1.1,3.5-2.9,6.3-6.7,6.3C168.1,25.7,167.1,25.4,166.6,24.9z"/>
		<path id="XMLID_59_" class="st0" d="M187.5,11.3c0-6.2,3.9-9.4,8.6-9.4c3,0,4.4,0.8,5.2,1.5v4.4c-1-1.4-2.5-2.2-4.6-2.2
			c-3.1,0-4.8,1.9-4.8,5.5c0,3.6,1.6,5.7,4.8,5.7c2.1,0,3.6-0.7,4.6-2V19c-1,1-2.8,1.7-5.1,1.7C190.9,20.6,187.5,17.5,187.5,11.3z"
			/>
		<path id="XMLID_56_" class="st0" d="M203.2,13c0-5.4,3.5-7.7,7.5-7.7c4.2,0,7.1,2.3,7.1,7.7c0,5.4-3.5,7.7-7.5,7.7
			C206.1,20.6,203.2,18.3,203.2,13z M213.5,13c0-2.5-0.9-4.2-3-4.2c-2,0-2.9,1.7-2.9,4.2c0,2.5,0.9,4.2,2.9,4.2
			C212.6,17.1,213.5,15.5,213.5,13z"/>
		<path id="XMLID_54_" class="st0" d="M220.1,5.7h3.9l0.2,1.3c0.6-1,2-1.7,3.6-1.7c2.1,0,3.4,0.7,4.2,2c0.7-1,2.1-2,4.3-2
			c3.6,0,4.9,2,4.9,5.9v9h-4.3v-8.3c0-2.3-0.5-3.2-2-3.2c-1,0-1.9,0.5-2.3,1.2c0.1,0.4,0.1,0.9,0.1,1.4v9h-4.3v-8.3
			c0-2.3-0.5-3.2-1.9-3.2c-1.1,0-1.8,0.5-2.2,1.2v10.4h-4.3V5.7z"/>
		<path id="XMLID_51_" class="st0" d="M244.1,5.7h3.8l0.3,1.3c0.5-0.8,1.7-1.7,3.8-1.7c3.6,0,5.9,2,5.9,7.3c0,5.3-2.8,8.1-6.5,8.1
			c-1.1,0-2.4-0.2-3.1-0.9v5.6h-4.3V5.7z M253.6,12.8c0-2.5-0.7-4.1-2.7-4.1c-1.2,0-2,0.5-2.4,1.2v6.5c0.5,0.7,1.4,0.9,2.4,0.9
			C252.8,17.3,253.6,15.3,253.6,12.8z"/>
		<path id="XMLID_48_" class="st0" d="M259.6,16.4c0-2.9,2-4.1,6.1-4.8l2.1-0.3c0-2-1-2.6-2.9-2.6c-2.1,0-4,1-4.7,2.6V7.2
			c0.6-0.8,2.2-1.9,5.4-1.9c4.2,0,6.5,1.9,6.5,6.2v8.7h-3.7L268,19c-0.4,0.8-1.5,1.6-3.6,1.6C261.7,20.6,259.6,19.3,259.6,16.4z
			 M267.8,14l-1.6,0.4c-1.9,0.4-2.6,0.9-2.6,1.9c0,1,0.7,1.4,1.8,1.4c1.2,0,2.1-0.4,2.5-1V14z"/>
		<path id="XMLID_46_" class="st0" d="M275,5.7h3.5l0.3,1.9c0.2-1.5,1.4-2.4,2.8-2.4c0.8,0,1.2,0.2,1.5,0.4v3.9
			c-0.4-0.3-0.9-0.4-1.7-0.4c-1.1,0-1.8,0.4-2.1,1.2v9.9H275V5.7z"/>
		<path id="XMLID_43_" class="st0" d="M284.2,16.4c0-2.9,2-4.1,6.1-4.8l2.1-0.3c0-2-1-2.6-2.9-2.6c-2.1,0-4,1-4.7,2.6V7.2
			c0.6-0.8,2.2-1.9,5.4-1.9c4.2,0,6.5,1.9,6.5,6.2v8.7h-3.7l-0.3-1.2c-0.4,0.8-1.5,1.6-3.6,1.6C286.2,20.6,284.2,19.3,284.2,16.4z
			 M292.4,14l-1.6,0.4c-1.9,0.4-2.6,0.9-2.6,1.9c0,1,0.7,1.4,1.8,1.4c1.2,0,2.1-0.4,2.5-1V14z"/>
		<path id="XMLID_40_" class="st0" d="M303.4,19.2l-0.5,1h-3.3V0.4h4.3v6.4c0.4-0.7,1.7-1.6,3.7-1.6c3.6,0,5.8,2,5.8,7.3
			c0,5.3-2.8,8.1-6.5,8.1C304.9,20.6,304,19.9,303.4,19.2z M303.9,16.4c0.6,0.7,1.4,0.9,2.4,0.9c2,0,2.8-2,2.8-4.5
			c0-2.5-0.7-4.1-2.7-4.1c-1.2,0-2,0.5-2.4,1.2V16.4z"/>
		<path id="XMLID_38_" class="st0" d="M315.7,16.6V0.4h4.3v15.6c0,0.8,0.3,1.1,0.9,1.1c0.6,0,1-0.3,1.3-0.6v3.3
			c-0.3,0.3-1.2,0.8-2.5,0.8C317,20.6,315.7,19.2,315.7,16.6z"/>
		<path id="XMLID_35_" class="st0" d="M323.4,13c0-5.3,3.5-7.7,7.1-7.7c3.5,0,6.7,1.5,6.7,7v1.9h-9.4c0.2,1.6,1.2,3,3.9,3
			c2.4,0,3.9-0.9,4.7-1.7V19c-0.8,0.7-2.5,1.6-5.4,1.6C326.2,20.6,323.4,18.2,323.4,13z M333.1,11.5v-0.1c0-1.8-0.8-2.8-2.6-2.8
			c-1.7,0-2.6,1.4-2.7,2.9H333.1z"/>
		<path id="XMLID_33_" class="st0" d="M346.4,16V9h-1.7V7.5l1.4-1.8l2.6-3.4h2v3.4h3.4V9h-3.4v6.6c0,1,0.3,1.6,1.2,1.6
			c1,0,1.7-0.5,2.1-1.2v3.5c-0.5,0.6-1.5,1.2-3.3,1.2C347.6,20.6,346.4,18.9,346.4,16z"/>
		<path id="XMLID_30_" class="st0" d="M355.6,13c0-5.4,3.5-7.7,7.5-7.7c4.2,0,7.1,2.3,7.1,7.7c0,5.4-3.5,7.7-7.5,7.7
			C358.6,20.6,355.6,18.3,355.6,13z M365.9,13c0-2.5-0.9-4.2-3-4.2c-2,0-2.9,1.7-2.9,4.2c0,2.5,0.9,4.2,2.9,4.2
			C365,17.1,365.9,15.5,365.9,13z"/>
		<path id="XMLID_27_" class="st0" d="M378.2,11.3c0-6.2,4.4-9.4,9.2-9.4c5.4,0,9.1,3.2,9.1,9.4c0,6.2-4.4,9.4-9.2,9.4
			C381.9,20.6,378.2,17.5,378.2,11.3z M392,11.4c0-3.7-1.8-5.8-4.7-5.8c-2.9,0-4.7,2-4.7,5.5c0,3.7,1.8,5.8,4.7,5.8
			C390.2,16.9,392,14.8,392,11.4z"/>
		<path id="XMLID_25_" class="st0" d="M398.7,16.6V0.4h4.3v15.6c0,0.8,0.3,1.1,0.9,1.1c0.6,0,1-0.3,1.3-0.6v3.3
			c-0.3,0.3-1.2,0.8-2.5,0.8C400.1,20.6,398.7,19.2,398.7,16.6z"/>
		<path id="XMLID_22_" class="st0" d="M406.4,16.4c0-2.9,2-4.1,6.1-4.8l2.1-0.3c0-2-1-2.6-2.9-2.6c-2.1,0-4,1-4.7,2.6V7.2
			c0.6-0.8,2.2-1.9,5.4-1.9c4.2,0,6.5,1.9,6.5,6.2v8.7h-3.7l-0.3-1.2c-0.4,0.8-1.5,1.6-3.6,1.6C408.5,20.6,406.4,19.3,406.4,16.4z
			 M414.6,14l-1.6,0.4c-1.9,0.4-2.6,0.9-2.6,1.9c0,1,0.7,1.4,1.8,1.4c1.2,0,2.1-0.4,2.5-1V14z"/>
		<path id="XMLID_20_" class="st0" d="M421.8,5.7h3.8l0.3,1.3c0.6-1,1.9-1.7,3.8-1.7c3.8,0,5.3,2,5.3,5.9v9h-4.3v-8.3
			c0-2.4-0.6-3.3-2.2-3.3c-1.3,0-2.1,0.6-2.4,1.2v10.4h-4.3V5.7z"/>
		<path id="XMLID_18_" class="st0" d="M437.2,18.9l6.1-9.9h-6.1V5.7h11.4V7l-5.9,9.9h5.8v3.3h-11.4V18.9z"/>
		<path id="XMLID_15_" class="st0" d="M450.2,16.4c0-2.9,2-4.1,6.1-4.8l2.1-0.3c0-2-1-2.6-2.9-2.6c-2.1,0-4,1-4.7,2.6V7.2
			c0.6-0.8,2.2-1.9,5.4-1.9c4.2,0,6.5,1.9,6.5,6.2v8.7H459l-0.3-1.2c-0.4,0.8-1.5,1.6-3.6,1.6C452.3,20.6,450.2,19.3,450.2,16.4z
			 M458.5,14l-1.6,0.4c-1.9,0.4-2.6,0.9-2.6,1.9c0,1,0.7,1.4,1.8,1.4c1.2,0,2.1-0.4,2.5-1V14z"/>
		<path id="XMLID_12_" class="st0" d="M465.6,5.7h3.8l0.3,1.3c0.5-0.8,1.7-1.7,3.8-1.7c3.6,0,5.9,2,5.9,7.3c0,5.3-2.8,8.1-6.5,8.1
			c-1.1,0-2.4-0.2-3.1-0.9v5.6h-4.3V5.7z M475.1,12.8c0-2.5-0.7-4.1-2.7-4.1c-1.2,0-2,0.5-2.4,1.2v6.5c0.5,0.7,1.4,0.9,2.4,0.9
			C474.3,17.3,475.1,15.3,475.1,12.8z"/>
		<path id="XMLID_9_" class="st0" d="M481.8,2.2c0-1.3,0.8-2,2.2-2c1.4,0,2.2,0.8,2.2,2c0,1.3-0.9,2-2.2,2
			C482.6,4.2,481.8,3.5,481.8,2.2z M481.8,5.7h4.3v14.5h-4.3V5.7z"/>
		<path id="XMLID_7_" class="st0" d="M489.1,5.7h3.8l0.3,1.3c0.6-1,1.9-1.7,3.8-1.7c3.8,0,5.3,2,5.3,5.9v9H498v-8.3
			c0-2.4-0.6-3.3-2.2-3.3c-1.3,0-2.1,0.6-2.4,1.2v10.4h-4.3V5.7z"/>
		<path id="XMLID_4_" class="st0" d="M504.6,13c0-5.3,3.5-7.7,7.1-7.7c3.5,0,6.7,1.5,6.7,7v1.9h-9.4c0.2,1.6,1.2,3,3.9,3
			c2.4,0,3.9-0.9,4.7-1.7V19c-0.8,0.7-2.5,1.6-5.4,1.6C507.4,20.6,504.6,18.2,504.6,13z M514.3,11.5v-0.1c0-1.8-0.8-2.8-2.6-2.8
			c-1.7,0-2.6,1.4-2.7,2.9H514.3z"/>
	</g>
</g>
</svg>
