<!-- Generator: Adobe Illustrator 22.1.0, SVG Export Plug-In  -->
<svg version="1.1"
	 xmlns="http://www.w3.org/2000/svg" xmlns:xlink="http://www.w3.org/1999/xlink" xmlns:a="http://ns.adobe.com/AdobeSVGViewerExtensions/3.0/"
	 x="0px" y="0px" width="577.1px" height="25.8px" viewBox="0 0 577.1 25.8" style="enable-background:new 0 0 577.1 25.8;"
	 xml:space="preserve">
<style type="text/css">
	.st0{fill:#FFFFFF;}
</style>
<defs>
</defs>
<g id="XMLID_1_">
	<g id="XMLID_3_">
		<path id="XMLID_97_" class="st0" d="M0,2.2h4.4v18.1H0V2.2z"/>
		<path id="XMLID_95_" class="st0" d="M7.7,5.6h3.8l0.3,1.3c0.6-1,2-1.7,3.9-1.7c3.8,0,5.3,2,5.3,6v9.1h-4.3v-8.4
			c0-2.4-0.6-3.3-2.2-3.3c-1.3,0-2.1,0.6-2.4,1.2v10.5H7.7V5.6z"/>
		<path id="XMLID_93_" class="st0" d="M23.6,19.5v-3.8c0.9,0.9,2.4,1.7,4.4,1.7c1.9,0,2.5-0.6,2.5-1.3c0-0.8-0.3-1.1-2-1.3l-0.7-0.1
			c-3-0.4-4.4-1.9-4.4-4.5c0-2.5,1.7-4.8,6-4.8c2.2,0,3.8,0.5,4.6,1.2v3.8c-0.9-1-2.5-1.6-4.4-1.6c-1.7,0-2.3,0.5-2.3,1.2
			s0.3,1.1,1.8,1.3l0.8,0.1c3.2,0.5,4.6,1.7,4.6,4.4c0,2.5-1.8,5-6.4,5C25.9,20.6,24.4,20.1,23.6,19.5z"/>
		<path id="XMLID_91_" class="st0" d="M36.7,14.7V5.6H41v8.3c0,2.4,0.5,3.3,2.1,3.3c1.3,0,2-0.6,2.3-1.2V5.6h4.3v14.7h-3.8L45.6,19
			c-0.6,0.9-2,1.7-3.8,1.7C38.1,20.6,36.7,18.7,36.7,14.7z"/>
		<path id="XMLID_89_" class="st0" d="M52.8,5.6h3.6l0.3,2c0.2-1.5,1.5-2.4,2.8-2.4c0.8,0,1.2,0.2,1.5,0.4v3.9
			C60.6,9.2,60.1,9,59.3,9c-1.1,0-1.8,0.4-2.2,1.2v10h-4.3V5.6z"/>
		<path id="XMLID_86_" class="st0" d="M62,12.9c0-5.4,3.5-7.8,7.1-7.8c3.5,0,6.8,1.5,6.8,7.1v1.9h-9.4c0.2,1.7,1.2,3,4,3
			c2.5,0,4-0.9,4.8-1.7V19c-0.8,0.7-2.5,1.6-5.4,1.6C64.9,20.6,62,18.2,62,12.9z M71.8,11.4v-0.1c0-1.8-0.8-2.8-2.6-2.8
			c-1.7,0-2.6,1.4-2.7,2.9H71.8z"/>
		<path id="XMLID_84_" class="st0" d="M84.7,2.2h4.4v6.9h6.5V2.2h4.4v18.1h-4.4v-7.4h-6.5v7.4h-4.4V2.2z"/>
		<path id="XMLID_81_" class="st0" d="M103.3,2.1c0-1.3,0.8-2.1,2.2-2.1c1.4,0,2.3,0.8,2.3,2.1s-0.9,2-2.3,2
			C104.1,4.1,103.3,3.3,103.3,2.1z M103.4,5.6h4.3v14.7h-4.3V5.6z"/>
		<path id="XMLID_78_" class="st0" d="M110.1,24.4v-3.2c1.4,0.8,3.2,1.3,6.2,1.3c3.5,0,4.9-0.4,4.9-1.5c0-0.9-0.9-1.1-3-1.1
			c-2.2,0-5.5,0.4-6.5,0.9V18l2-3c-2.2-0.7-3.4-2.3-3.4-4.6c0-3.2,2.6-5.1,6.5-5.1c1.7,0,3.1,0.4,4.1,1.1c0.4-0.7,1.6-1.2,2.8-1.2
			c0.4,0,0.9,0.1,1.3,0.2v3.3c-0.3-0.2-0.6-0.2-1-0.2c-0.5,0-1,0.2-1.3,0.4c0.2,0.5,0.3,1.1,0.3,1.7c0,3.2-2.5,5-6.5,5h-0.3
			l-1.1,1.8c0.6-0.2,2.3-0.4,3.8-0.4c3.7,0,6,0.8,6,4c0,3.1-2.8,5-8.4,5C113.6,25.8,111.2,25.2,110.1,24.4z M118.9,10.3
			c0-1.3-0.9-2-2.3-2c-1.5,0-2.3,0.7-2.3,2s0.9,2,2.3,2C118,12.2,118.9,11.5,118.9,10.3z"/>
		<path id="XMLID_76_" class="st0" d="M126.7,0.3h4.3v6.4c0.7-0.8,2-1.5,3.7-1.5c3.8,0,5.2,2,5.2,6v9.1h-4.3v-8.4
			c0-2.4-0.6-3.3-2.2-3.3c-1.3,0-2.1,0.6-2.4,1.1v10.5h-4.3V0.3z"/>
		<path id="XMLID_74_" class="st0" d="M148.6,11.2c0-6.2,3.9-9.4,8.7-9.4c3,0,4.5,0.8,5.2,1.5v4.5c-1-1.4-2.5-2.2-4.6-2.2
			c-3.1,0-4.8,2-4.8,5.6c0,3.6,1.7,5.8,4.8,5.8c2.1,0,3.7-0.7,4.6-2v4.1c-1,1-2.8,1.7-5.1,1.7C152,20.6,148.6,17.5,148.6,11.2z"/>
		<path id="XMLID_71_" class="st0" d="M164.4,12.9c0-5.4,3.5-7.8,7.5-7.8c4.2,0,7.2,2.3,7.2,7.8c0,5.4-3.5,7.8-7.5,7.8
			C167.4,20.6,164.4,18.3,164.4,12.9z M174.8,12.9c0-2.5-0.9-4.2-3-4.2c-2,0-3,1.7-3,4.2c0,2.6,0.9,4.2,3,4.2
			C173.9,17.1,174.8,15.5,174.8,12.9z"/>
		<path id="XMLID_69_" class="st0" d="M181.5,5.6h3.9l0.2,1.3c0.6-1,2-1.7,3.7-1.7c2.1,0,3.5,0.7,4.2,2c0.7-1,2.1-2,4.3-2
			c3.6,0,5,2,5,6v9.1h-4.3v-8.4c0-2.3-0.6-3.2-2-3.2c-1.1,0-1.9,0.6-2.3,1.2c0.1,0.4,0.1,0.9,0.1,1.4v9.1H190v-8.4
			c0-2.3-0.6-3.2-2-3.2c-1.1,0-1.8,0.6-2.2,1.2v10.5h-4.3V5.6z"/>
		<path id="XMLID_66_" class="st0" d="M205.8,5.6h3.8l0.3,1.3c0.5-0.8,1.7-1.7,3.8-1.7c3.7,0,6,2,6,7.4c0,5.4-2.8,8.1-6.5,8.1
			c-1.2,0-2.5-0.2-3.1-0.9v5.6h-4.3V5.6z M215.3,12.7c0-2.5-0.7-4.1-2.8-4.1c-1.2,0-2.1,0.5-2.5,1.2v6.6c0.5,0.7,1.4,0.9,2.4,0.9
			C214.5,17.3,215.3,15.2,215.3,12.7z"/>
		<path id="XMLID_64_" class="st0" d="M222,16.6V0.3h4.3V16c0,0.8,0.3,1.1,0.9,1.1s1-0.3,1.3-0.6v3.3c-0.3,0.3-1.2,0.8-2.6,0.8
			C223.4,20.6,222,19.2,222,16.6z"/>
		<path id="XMLID_61_" class="st0" d="M230.4,2.1c0-1.3,0.8-2.1,2.2-2.1c1.4,0,2.3,0.8,2.3,2.1s-0.9,2-2.3,2
			C231.2,4.1,230.4,3.3,230.4,2.1z M230.5,5.6h4.3v14.7h-4.3V5.6z"/>
		<path id="XMLID_58_" class="st0" d="M237.2,16.3c0-3,2.1-4.2,6.1-4.8l2.1-0.3c0-2-1-2.6-2.9-2.6c-2.1,0-4,1-4.7,2.6V7.1
			c0.6-0.8,2.2-2,5.4-2c4.2,0,6.5,1.9,6.5,6.3v8.8H246l-0.3-1.2c-0.4,0.8-1.6,1.7-3.6,1.7C239.2,20.6,237.2,19.2,237.2,16.3z
			 M245.4,13.9l-1.7,0.4c-1.9,0.4-2.6,0.9-2.6,1.9c0,1,0.7,1.4,1.8,1.4c1.2,0,2.1-0.4,2.5-1V13.9z"/>
		<path id="XMLID_56_" class="st0" d="M252.7,5.6h3.8l0.3,1.3c0.6-1,2-1.7,3.9-1.7c3.8,0,5.3,2,5.3,6v9.1h-4.3v-8.4
			c0-2.4-0.6-3.3-2.2-3.3c-1.3,0-2.1,0.6-2.4,1.2v10.5h-4.3V5.6z"/>
		<path id="XMLID_54_" class="st0" d="M268.2,12.9c0-5.3,3.4-7.8,7.3-7.8c2.1,0,3.7,0.6,4.4,1.3v3.9c-0.9-1.1-2.1-1.5-3.7-1.5
			c-2.3,0-3.5,1.5-3.5,4.1c0,2.6,1.2,4.1,3.5,4.1c1.6,0,2.8-0.6,3.8-1.6v3.7c-0.7,0.7-2.3,1.6-4.5,1.6
			C271.2,20.6,268.2,18.2,268.2,12.9z"/>
		<path id="XMLID_51_" class="st0" d="M281.7,12.9c0-5.4,3.5-7.8,7.1-7.8c3.5,0,6.8,1.5,6.8,7.1v1.9h-9.4c0.2,1.7,1.2,3,4,3
			c2.5,0,4-0.9,4.8-1.7V19c-0.8,0.7-2.5,1.6-5.4,1.6C284.6,20.6,281.7,18.2,281.7,12.9z M291.5,11.4v-0.1c0-1.8-0.8-2.8-2.6-2.8
			c-1.7,0-2.6,1.4-2.7,2.9H291.5z"/>
		<path id="XMLID_48_" class="st0" d="M303.5,16.3c0-3,2.1-4.2,6.1-4.8l2.1-0.3c0-2-1-2.6-2.9-2.6c-2.1,0-4,1-4.7,2.6V7.1
			c0.6-0.8,2.2-2,5.4-2c4.2,0,6.5,1.9,6.5,6.3v8.8h-3.7L312,19c-0.4,0.8-1.6,1.7-3.6,1.7C305.6,20.6,303.5,19.2,303.5,16.3z
			 M311.8,13.9l-1.7,0.4c-1.9,0.4-2.6,0.9-2.6,1.9c0,1,0.7,1.4,1.8,1.4c1.2,0,2.1-0.4,2.5-1V13.9z"/>
		<path id="XMLID_46_" class="st0" d="M319.1,5.6h3.8l0.3,1.3c0.6-1,2-1.7,3.9-1.7c3.8,0,5.3,2,5.3,6v9.1h-4.3v-8.4
			c0-2.4-0.6-3.3-2.2-3.3c-1.3,0-2.1,0.6-2.4,1.2v10.5h-4.3V5.6z"/>
		<path id="XMLID_43_" class="st0" d="M334.7,13.1c0-5.3,2.6-7.9,6.5-7.9c1.2,0,2.5,0.2,3.1,0.9V0.3h4.3v20h-3.8l-0.3-1.3
			c-0.5,0.8-1.7,1.7-3.8,1.7C337.2,20.6,334.7,18.4,334.7,13.1z M344.3,9.5c-0.5-0.7-1.4-0.9-2.4-0.9c-2.1,0-2.8,2-2.8,4.6
			s0.7,4.1,2.7,4.1c1.2,0,2.1-0.5,2.5-1.1V9.5z"/>
		<path id="XMLID_39_" class="st0" d="M358.2,2.2h6.1c5.2,0,7.3,1.6,7.3,4.6c0,2.5-1.5,3.7-3.4,4.1v0c2,0.3,3.6,1.3,3.6,4.2
			c0,3-2.1,5.1-7.4,5.1h-6.2V2.2z M364.5,9.4c2.1,0,2.8-0.7,2.8-2c0-1.3-0.8-1.8-2.8-1.8h-1.9v3.8H364.5z M364.7,16.8
			c2.1,0,2.8-0.7,2.8-2s-0.7-2-2.8-2h-2.1v4.1H364.7z"/>
		<path id="XMLID_36_" class="st0" d="M373.6,12.9c0-5.4,3.5-7.8,7.1-7.8c3.5,0,6.8,1.5,6.8,7.1v1.9h-9.4c0.2,1.7,1.2,3,4,3
			c2.5,0,4-0.9,4.8-1.7V19c-0.8,0.7-2.5,1.6-5.4,1.6C376.5,20.6,373.6,18.2,373.6,12.9z M383.4,11.4v-0.1c0-1.8-0.8-2.8-2.6-2.8
			c-1.7,0-2.6,1.4-2.7,2.9H383.4z"/>
		<path id="XMLID_34_" class="st0" d="M390.6,16V8.9h-1.7V7.4l1.4-1.8l2.6-3.5h2v3.5h3.4v3.4h-3.4v6.6c0,1.1,0.3,1.6,1.2,1.6
			c1,0,1.7-0.5,2.1-1.2v3.5c-0.5,0.6-1.5,1.2-3.3,1.2C391.8,20.6,390.6,18.9,390.6,16z"/>
		<path id="XMLID_32_" class="st0" d="M401.3,16V8.9h-1.7V7.4l1.4-1.8l2.6-3.5h2v3.5h3.4v3.4h-3.4v6.6c0,1.1,0.3,1.6,1.2,1.6
			c1,0,1.7-0.5,2.1-1.2v3.5c-0.5,0.6-1.5,1.2-3.3,1.2C402.6,20.6,401.3,18.9,401.3,16z"/>
		<path id="XMLID_29_" class="st0" d="M410.6,12.9c0-5.4,3.5-7.8,7.1-7.8c3.5,0,6.8,1.5,6.8,7.1v1.9h-9.4c0.2,1.7,1.2,3,4,3
			c2.5,0,4-0.9,4.8-1.7V19c-0.8,0.7-2.5,1.6-5.4,1.6C413.5,20.6,410.6,18.2,410.6,12.9z M420.4,11.4v-0.1c0-1.8-0.8-2.8-2.6-2.8
			c-1.7,0-2.6,1.4-2.7,2.9H420.4z"/>
		<path id="XMLID_27_" class="st0" d="M426.8,5.6h3.6l0.3,2c0.2-1.5,1.5-2.4,2.8-2.4c0.8,0,1.2,0.2,1.5,0.4v3.9
			c-0.4-0.3-0.9-0.4-1.7-0.4c-1.1,0-1.8,0.4-2.2,1.2v10h-4.3V5.6z"/>
		<path id="XMLID_24_" class="st0" d="M448.4,4l-0.7-1.8h4.6c0.6,1.6,6.6,16.5,7.2,18.1h-4.6l-1.2-3.3h-6.4l-1.2,3.3h-4.2L448.4,4z
			 M448.4,13.8h4.1l-1.6-4.1l-0.5-1.5l-0.5,1.5L448.4,13.8z"/>
		<path id="XMLID_21_" class="st0" d="M460.1,13.1c0-5.3,2.6-7.9,6.5-7.9c1.2,0,2.5,0.2,3.1,0.9V0.3h4.3v20h-3.8l-0.3-1.3
			c-0.5,0.8-1.7,1.7-3.8,1.7C462.6,20.6,460.1,18.4,460.1,13.1z M469.7,9.5c-0.5-0.7-1.4-0.9-2.4-0.9c-2.1,0-2.8,2-2.8,4.6
			s0.7,4.1,2.7,4.1c1.2,0,2.1-0.5,2.5-1.1V9.5z"/>
		<path id="XMLID_19_" class="st0" d="M477.1,0.3h4.3v6.4c0.7-0.8,2-1.5,3.7-1.5c3.8,0,5.2,2,5.2,6v9.1h-4.3v-8.4
			c0-2.4-0.6-3.3-2.2-3.3c-1.3,0-2.1,0.6-2.4,1.1v10.5h-4.3V0.3z"/>
		<path id="XMLID_16_" class="st0" d="M492.6,12.9c0-5.4,3.5-7.8,7.1-7.8c3.5,0,6.8,1.5,6.8,7.1v1.9h-9.4c0.2,1.7,1.2,3,4,3
			c2.5,0,4-0.9,4.8-1.7V19c-0.8,0.7-2.5,1.6-5.4,1.6C495.5,20.6,492.6,18.2,492.6,12.9z M502.4,11.4v-0.1c0-1.8-0.8-2.8-2.6-2.8
			c-1.7,0-2.6,1.4-2.7,2.9H502.4z"/>
		<path id="XMLID_14_" class="st0" d="M508.8,5.6h3.6l0.3,2c0.2-1.5,1.5-2.4,2.8-2.4c0.8,0,1.2,0.2,1.5,0.4v3.9
			c-0.4-0.3-0.9-0.4-1.7-0.4c-1.1,0-1.8,0.4-2.2,1.2v10h-4.3V5.6z"/>
		<path id="XMLID_11_" class="st0" d="M518,12.9c0-5.4,3.5-7.8,7.1-7.8c3.5,0,6.8,1.5,6.8,7.1v1.9h-9.4c0.2,1.7,1.2,3,4,3
			c2.5,0,4-0.9,4.8-1.7V19c-0.8,0.7-2.5,1.6-5.4,1.6C520.9,20.6,518,18.2,518,12.9z M527.8,11.4v-0.1c0-1.8-0.8-2.8-2.6-2.8
			c-1.7,0-2.6,1.4-2.7,2.9H527.8z"/>
		<path id="XMLID_9_" class="st0" d="M534.2,5.6h3.8l0.3,1.3c0.6-1,2-1.7,3.9-1.7c3.8,0,5.3,2,5.3,6v9.1h-4.3v-8.4
			c0-2.4-0.6-3.3-2.2-3.3c-1.3,0-2.1,0.6-2.4,1.2v10.5h-4.3V5.6z"/>
		<path id="XMLID_7_" class="st0" d="M549.8,12.9c0-5.3,3.4-7.8,7.3-7.8c2.1,0,3.7,0.6,4.4,1.3v3.9c-0.9-1.1-2.1-1.5-3.7-1.5
			c-2.3,0-3.5,1.5-3.5,4.1c0,2.6,1.2,4.1,3.5,4.1c1.6,0,2.8-0.6,3.8-1.6v3.7c-0.7,0.7-2.3,1.6-4.5,1.6
			C552.7,20.6,549.8,18.2,549.8,12.9z"/>
		<path id="XMLID_4_" class="st0" d="M563.2,12.9c0-5.4,3.5-7.8,7.1-7.8c3.5,0,6.8,1.5,6.8,7.1v1.9h-9.4c0.2,1.7,1.2,3,4,3
			c2.5,0,4-0.9,4.8-1.7V19c-0.8,0.7-2.5,1.6-5.4,1.6C566.1,20.6,563.2,18.2,563.2,12.9z M573,11.4v-0.1c0-1.8-0.8-2.8-2.6-2.8
			c-1.7,0-2.6,1.4-2.7,2.9H573z"/>
	</g>
</g>
</svg>
