<!-- Generator: Adobe Illustrator 22.1.0, SVG Export Plug-In  -->
<svg version="1.1"
	 xmlns="http://www.w3.org/2000/svg" xmlns:xlink="http://www.w3.org/1999/xlink" xmlns:a="http://ns.adobe.com/AdobeSVGViewerExtensions/3.0/"
	 x="0px" y="0px" width="439.9px" height="56.4px" viewBox="0 0 439.9 56.4" style="enable-background:new 0 0 439.9 56.4;"
	 xml:space="preserve">
<style type="text/css">
	.st0{fill:#FFFFFF;}
</style>
<defs>
</defs>
<g id="XMLID_1_">
	<g id="XMLID_3_">
		<path id="XMLID_111_" class="st0" d="M0,2.3h12.1v3.6H4.4v3.4h5v3.4h-5v3.9h7.7v3.6H0V2.3z"/>
		<path id="XMLID_109_" class="st0" d="M15.3,9h-1.7V7.6l1.6-1.4C15,5.7,14.8,5,14.8,4.1c0-2.7,2.3-4.1,4.7-4.1
			c1.7,0,2.5,0.5,2.9,0.9v3.5c-0.4-0.7-1.1-1-1.9-1c-0.9,0-1.5,0.5-1.5,1.4c0,0.5,0.2,0.8,0.3,1.1h4.4c-0.2-0.4-0.3-1-0.3-1.7
			c0-2.7,2.2-4.1,5-4.1c2,0,3.1,0.5,3.5,0.9v3.5c-0.5-0.7-1.5-1.1-2.5-1.1c-1.2,0-1.8,0.5-1.8,1.4c0,0.5,0.2,0.8,0.3,1.1h3V9h-2.8
			v11.2h-4.3V9h-4.3v11.2h-4.3V9z"/>
		<path id="XMLID_106_" class="st0" d="M32.1,12.9c0-5.3,3.5-7.6,7-7.6c3.4,0,6.7,1.5,6.7,7v1.9h-9.3c0.2,1.6,1.2,2.9,3.9,2.9
			c2.4,0,3.9-0.9,4.7-1.7v3.6c-0.8,0.7-2.5,1.6-5.4,1.6C34.9,20.6,32.1,18.1,32.1,12.9z M41.7,11.5v-0.1c0-1.7-0.8-2.8-2.6-2.8
			c-1.7,0-2.6,1.4-2.7,2.9H41.7z"/>
		<path id="XMLID_104_" class="st0" d="M47.3,12.9c0-5.3,3.3-7.6,7.2-7.6c2.1,0,3.6,0.6,4.3,1.2v3.9c-0.9-1-2.1-1.5-3.7-1.5
			c-2.2,0-3.4,1.5-3.4,4c0,2.6,1.2,4,3.4,4c1.6,0,2.8-0.6,3.7-1.6V19c-0.7,0.7-2.3,1.5-4.4,1.5C50.3,20.6,47.3,18.2,47.3,12.9z"/>
		<path id="XMLID_102_" class="st0" d="M62.1,16V9h-1.7V7.5l1.4-1.8l2.6-3.4h2v3.4h3.4V9h-3.4v6.6c0,1,0.3,1.6,1.2,1.6
			c1,0,1.7-0.5,2.1-1.2v3.5c-0.5,0.6-1.5,1.2-3.3,1.2C63.3,20.6,62.1,18.8,62.1,16z"/>
		<path id="XMLID_99_" class="st0" d="M71.9,2.2c0-1.3,0.8-2,2.2-2c1.4,0,2.2,0.8,2.2,2c0,1.3-0.9,2-2.2,2
			C72.7,4.2,71.9,3.5,71.9,2.2z M72,5.7h4.3v14.5H72V5.7z"/>
		<path id="XMLID_97_" class="st0" d="M77.8,5.7h4.6l2.3,6.9l0.4,1.6c0.1-0.4,0.4-1.2,0.4-1.6L88,5.7h4.2l-5.8,14.5h-2.8L77.8,5.7z"
			/>
		<path id="XMLID_94_" class="st0" d="M92.6,12.9c0-5.3,3.5-7.6,7-7.6c3.4,0,6.7,1.5,6.7,7v1.9H97c0.2,1.6,1.2,2.9,3.9,2.9
			c2.4,0,3.9-0.9,4.7-1.7v3.6c-0.8,0.7-2.5,1.6-5.4,1.6C95.4,20.6,92.6,18.1,92.6,12.9z M102.3,11.5v-0.1c0-1.7-0.8-2.8-2.6-2.8
			c-1.7,0-2.6,1.4-2.7,2.9H102.3z"/>
		<path id="XMLID_91_" class="st0" d="M114.8,2.2c0-1.3,0.8-2,2.2-2c1.4,0,2.2,0.8,2.2,2c0,1.3-0.9,2-2.2,2
			C115.6,4.2,114.8,3.5,114.8,2.2z M114.8,5.7h4.3v14.5h-4.3V5.7z"/>
		<path id="XMLID_89_" class="st0" d="M122.1,5.7h3.8l0.3,1.2c0.6-1,1.9-1.7,3.8-1.7c3.7,0,5.2,2,5.2,5.9v9H131v-8.2
			c0-2.4-0.6-3.3-2.2-3.3c-1.3,0-2.1,0.6-2.4,1.2v10.3h-4.3V5.7z"/>
		<path id="XMLID_87_" class="st0" d="M144.6,2.3h4l5.3,7.6l4.9-7.6h4v17.8h-4.4V8.9l-4.6,6.9h-0.2L149,8.9v11.2h-4.4V2.3z"/>
		<path id="XMLID_84_" class="st0" d="M165.3,16.3c0-2.9,2-4.1,6.1-4.7l2.1-0.3c0-2-1-2.6-2.9-2.6c-2.1,0-4,1-4.7,2.6V7.2
			c0.6-0.8,2.2-1.9,5.4-1.9c4.1,0,6.4,1.8,6.4,6.2v8.7H174l-0.3-1.2c-0.4,0.8-1.5,1.6-3.6,1.6C167.3,20.6,165.3,19.2,165.3,16.3z
			 M173.5,13.9l-1.6,0.4c-1.9,0.4-2.6,0.9-2.6,1.9c0,1,0.7,1.4,1.7,1.4c1.1,0,2.1-0.4,2.5-1V13.9z"/>
		<path id="XMLID_81_" class="st0" d="M180.6,2.2c0-1.3,0.8-2,2.2-2c1.4,0,2.2,0.8,2.2,2c0,1.3-0.9,2-2.2,2
			C181.4,4.2,180.6,3.5,180.6,2.2z M180.6,5.7h4.3v14.5h-4.3V5.7z"/>
		<path id="XMLID_79_" class="st0" d="M187.9,5.7h3.8l0.3,1.2c0.6-1,1.9-1.7,3.8-1.7c3.7,0,5.2,2,5.2,5.9v9h-4.3v-8.2
			c0-2.4-0.6-3.3-2.2-3.3c-1.3,0-2.1,0.6-2.4,1.2v10.3h-4.3V5.7z"/>
		<path id="XMLID_77_" class="st0" d="M204.7,16V9H203V7.5l1.4-1.8l2.6-3.4h2v3.4h3.4V9h-3.4v6.6c0,1,0.3,1.6,1.2,1.6
			c1,0,1.7-0.5,2.1-1.2v3.5c-0.5,0.6-1.5,1.2-3.3,1.2C205.9,20.6,204.7,18.8,204.7,16z"/>
		<path id="XMLID_74_" class="st0" d="M213.9,12.9c0-5.3,3.5-7.6,7-7.6c3.4,0,6.7,1.5,6.7,7v1.9h-9.3c0.2,1.6,1.2,2.9,3.9,2.9
			c2.4,0,3.9-0.9,4.7-1.7v3.6c-0.8,0.7-2.5,1.6-5.4,1.6C216.7,20.6,213.9,18.1,213.9,12.9z M223.5,11.5v-0.1c0-1.7-0.8-2.8-2.6-2.8
			c-1.7,0-2.6,1.4-2.7,2.9H223.5z"/>
		<path id="XMLID_72_" class="st0" d="M229.8,5.7h3.8l0.3,1.2c0.6-1,1.9-1.7,3.8-1.7c3.7,0,5.2,2,5.2,5.9v9h-4.3v-8.2
			c0-2.4-0.6-3.3-2.2-3.3c-1.3,0-2.1,0.6-2.4,1.2v10.3h-4.3V5.7z"/>
		<path id="XMLID_69_" class="st0" d="M245.2,16.3c0-2.9,2-4.1,6.1-4.7l2.1-0.3c0-2-1-2.6-2.9-2.6c-2.1,0-4,1-4.7,2.6V7.2
			c0.6-0.8,2.2-1.9,5.4-1.9c4.1,0,6.4,1.8,6.4,6.2v8.7h-3.7l-0.3-1.2c-0.4,0.8-1.5,1.6-3.6,1.6C247.2,20.6,245.2,19.2,245.2,16.3z
			 M253.4,13.9l-1.6,0.4c-1.9,0.4-2.6,0.9-2.6,1.9c0,1,0.7,1.4,1.7,1.4c1.1,0,2.1-0.4,2.5-1V13.9z"/>
		<path id="XMLID_67_" class="st0" d="M260.5,5.7h3.8l0.3,1.2c0.6-1,1.9-1.7,3.8-1.7c3.7,0,5.2,2,5.2,5.9v9h-4.3v-8.2
			c0-2.4-0.6-3.3-2.2-3.3c-1.3,0-2.1,0.6-2.4,1.2v10.3h-4.3V5.7z"/>
		<path id="XMLID_65_" class="st0" d="M275.9,12.9c0-5.3,3.3-7.6,7.2-7.6c2.1,0,3.6,0.6,4.3,1.2v3.9c-0.9-1-2.1-1.5-3.7-1.5
			c-2.2,0-3.4,1.5-3.4,4c0,2.6,1.2,4,3.4,4c1.6,0,2.8-0.6,3.7-1.6V19c-0.7,0.7-2.3,1.5-4.4,1.5C278.8,20.6,275.9,18.2,275.9,12.9z"
			/>
		<path id="XMLID_62_" class="st0" d="M289.2,12.9c0-5.3,3.5-7.6,7-7.6c3.4,0,6.7,1.5,6.7,7v1.9h-9.3c0.2,1.6,1.2,2.9,3.9,2.9
			c2.4,0,3.9-0.9,4.7-1.7v3.6c-0.8,0.7-2.5,1.6-5.4,1.6C292,20.6,289.2,18.1,289.2,12.9z M298.8,11.5v-0.1c0-1.7-0.8-2.8-2.6-2.8
			c-1.7,0-2.6,1.4-2.7,2.9H298.8z"/>
		<path id="XMLID_60_" class="st0" d="M315.3,6h-4.9V2.3h14.1V6h-4.8v14.2h-4.4V6z"/>
		<path id="XMLID_58_" class="st0" d="M326,5.7h3.5l0.3,1.9c0.2-1.5,1.4-2.3,2.8-2.3c0.8,0,1.2,0.2,1.5,0.4v3.9
			c-0.4-0.3-0.9-0.4-1.7-0.4c-1.1,0-1.7,0.4-2.1,1.2v9.9H326V5.7z"/>
		<path id="XMLID_55_" class="st0" d="M335,12.9c0-5.3,3.5-7.6,7-7.6c3.4,0,6.7,1.5,6.7,7v1.9h-9.3c0.2,1.6,1.2,2.9,3.9,2.9
			c2.4,0,3.9-0.9,4.7-1.7v3.6c-0.8,0.7-2.5,1.6-5.4,1.6C337.9,20.6,335,18.1,335,12.9z M344.7,11.5v-0.1c0-1.7-0.8-2.8-2.6-2.8
			c-1.7,0-2.6,1.4-2.7,2.9H344.7z"/>
		<path id="XMLID_52_" class="st0" d="M350.3,16.3c0-2.9,2-4.1,6.1-4.7l2.1-0.3c0-2-1-2.6-2.9-2.6c-2.1,0-4,1-4.7,2.6V7.2
			c0.6-0.8,2.2-1.9,5.4-1.9c4.1,0,6.4,1.8,6.4,6.2v8.7H359l-0.3-1.2c-0.4,0.8-1.5,1.6-3.6,1.6C352.3,20.6,350.3,19.2,350.3,16.3z
			 M358.5,13.9l-1.6,0.4c-1.9,0.4-2.6,0.9-2.6,1.9c0,1,0.7,1.4,1.7,1.4c1.1,0,2.1-0.4,2.5-1V13.9z"/>
		<path id="XMLID_50_" class="st0" d="M366.4,16V9h-1.7V7.5l1.4-1.8l2.6-3.4h2v3.4h3.4V9h-3.4v6.6c0,1,0.3,1.6,1.2,1.6
			c1,0,1.7-0.5,2.1-1.2v3.5c-0.5,0.6-1.5,1.2-3.3,1.2C367.6,20.6,366.4,18.8,366.4,16z"/>
		<path id="XMLID_48_" class="st0" d="M376.2,5.7h3.9l0.2,1.2c0.6-1,2-1.7,3.6-1.7c2.1,0,3.4,0.7,4.1,2c0.7-1,2.1-2,4.2-2
			c3.5,0,4.9,2,4.9,5.9v9H393v-8.3c0-2.3-0.5-3.2-2-3.2c-1,0-1.9,0.5-2.3,1.2c0.1,0.4,0.1,0.9,0.1,1.4v9h-4.3v-8.3
			c0-2.3-0.5-3.2-1.9-3.2c-1.1,0-1.8,0.5-2.2,1.2v10.3h-4.3V5.7z"/>
		<path id="XMLID_45_" class="st0" d="M399.5,12.9c0-5.3,3.5-7.6,7-7.6c3.4,0,6.7,1.5,6.7,7v1.9h-9.3c0.2,1.6,1.2,2.9,3.9,2.9
			c2.4,0,3.9-0.9,4.7-1.7v3.6c-0.8,0.7-2.5,1.6-5.4,1.6C402.3,20.6,399.5,18.1,399.5,12.9z M409.1,11.5v-0.1c0-1.7-0.8-2.8-2.6-2.8
			c-1.7,0-2.6,1.4-2.7,2.9H409.1z"/>
		<path id="XMLID_43_" class="st0" d="M415.4,5.7h3.8l0.3,1.2c0.6-1,1.9-1.7,3.8-1.7c3.7,0,5.2,2,5.2,5.9v9h-4.3v-8.2
			c0-2.4-0.6-3.3-2.2-3.3c-1.3,0-2.1,0.6-2.4,1.2v10.3h-4.3V5.7z"/>
		<path id="XMLID_41_" class="st0" d="M432.2,16V9h-1.7V7.5l1.4-1.8l2.6-3.4h2v3.4h3.4V9h-3.4v6.6c0,1,0.3,1.6,1.2,1.6
			c1,0,1.7-0.5,2.1-1.2v3.5c-0.5,0.6-1.5,1.2-3.3,1.2C433.4,20.6,432.2,18.8,432.2,16z"/>
		<path id="XMLID_38_" class="st0" d="M116.9,44.1c0-5.3,3.4-7.6,7.4-7.6c4.2,0,7.1,2.3,7.1,7.6c0,5.4-3.4,7.6-7.4,7.6
			C119.9,51.8,116.9,49.5,116.9,44.1z M127.1,44.1c0-2.5-0.9-4.2-2.9-4.2c-2,0-2.9,1.7-2.9,4.2c0,2.5,0.9,4.2,2.9,4.2
			C126.2,48.3,127.1,46.6,127.1,44.1z"/>
		<path id="XMLID_36_" class="st0" d="M134.5,40.3h-1.7v-1.5l1.6-1.4c-0.3-0.5-0.5-1.2-0.5-2.1c0-2.7,2.4-4.1,5.1-4.1
			c2,0,3.1,0.5,3.5,0.9v3.5c-0.5-0.7-1.5-1.1-2.6-1.1c-1.2,0-1.8,0.5-1.8,1.4c0,0.4,0.2,0.8,0.3,1h2.8v3.3h-2.5v11.1h-4.3V40.3z"/>
		<path id="XMLID_34_" class="st0" d="M149.3,50.5v-4.3c0.9,1,2.6,2,4.8,2c2,0,2.9-0.8,2.9-2c0-1.1-0.7-1.5-2.4-1.8l-0.7-0.1
			c-2.8-0.6-4.7-2.2-4.7-5.4c0-3.6,2.5-5.7,6.7-5.7c2.7,0,4.2,0.7,4.8,1.3v4.3c-0.9-1.1-2.6-2-4.8-2c-1.6,0-2.5,0.5-2.5,1.7
			c0,1,0.4,1.5,2.1,1.9l0.7,0.1c3,0.6,5,1.9,5,5.2c0,3.6-2.5,6.1-7.1,6.1C151.4,51.8,149.9,51.1,149.3,50.5z"/>
		<path id="XMLID_32_" class="st0" d="M162.9,44.1c0-5.3,3.3-7.6,7.2-7.6c2.1,0,3.6,0.6,4.3,1.2v3.9c-0.9-1-2.1-1.5-3.7-1.5
			c-2.2,0-3.4,1.5-3.4,4c0,2.6,1.2,4,3.4,4c1.6,0,2.8-0.6,3.7-1.6v3.7c-0.7,0.7-2.3,1.5-4.4,1.5C165.8,51.8,162.9,49.4,162.9,44.1z"
			/>
		<path id="XMLID_30_" class="st0" d="M176.9,31.7h4.3V38c0.7-0.8,2-1.5,3.7-1.5c3.7,0,5.2,2,5.2,5.9v9h-4.3v-8.2
			c0-2.4-0.6-3.3-2.2-3.3c-1.2,0-2,0.6-2.4,1.1v10.4h-4.3V31.7z"/>
		<path id="XMLID_27_" class="st0" d="M192.8,33.4c0-1.3,0.8-2,2.2-2c1.4,0,2.2,0.8,2.2,2c0,1.3-0.9,2-2.2,2
			C193.7,35.4,192.8,34.7,192.8,33.4z M192.9,36.9h4.3v14.5h-4.3V36.9z"/>
		<path id="XMLID_25_" class="st0" d="M199.5,50.1l6.1-9.8h-6v-3.3h11.3v1.3L205,48h5.8v3.3h-11.3V50.1z"/>
		<path id="XMLID_22_" class="st0" d="M212.3,44.1c0-5.3,3.4-7.6,7.4-7.6c4.2,0,7.1,2.3,7.1,7.6c0,5.4-3.4,7.6-7.4,7.6
			C215.2,51.8,212.3,49.5,212.3,44.1z M222.5,44.1c0-2.5-0.9-4.2-2.9-4.2c-2,0-2.9,1.7-2.9,4.2c0,2.5,0.9,4.2,2.9,4.2
			C221.6,48.3,222.5,46.6,222.5,44.1z"/>
		<path id="XMLID_19_" class="st0" d="M229.2,36.9h3.8l0.3,1.2c0.5-0.8,1.7-1.7,3.8-1.7c3.6,0,5.9,2,5.9,7.3c0,5.3-2.8,8-6.4,8
			c-1.1,0-2.4-0.2-3.1-0.9v5.6h-4.3V36.9z M238.6,43.9c0-2.5-0.7-4-2.7-4c-1.2,0-2,0.5-2.4,1.1v6.5c0.5,0.7,1.4,0.9,2.3,0.9
			C237.8,48.5,238.6,46.4,238.6,43.9z"/>
		<path id="XMLID_17_" class="st0" d="M245.3,31.7h4.3V38c0.7-0.8,2-1.5,3.7-1.5c3.7,0,5.2,2,5.2,5.9v9h-4.3v-8.2
			c0-2.4-0.6-3.3-2.2-3.3c-1.2,0-2,0.6-2.4,1.1v10.4h-4.3V31.7z"/>
		<path id="XMLID_15_" class="st0" d="M261.3,36.9h3.5l0.3,1.9c0.2-1.5,1.4-2.3,2.8-2.3c0.8,0,1.2,0.2,1.5,0.4v3.9
			c-0.4-0.3-0.9-0.4-1.7-0.4c-1.1,0-1.7,0.4-2.1,1.2v9.9h-4.3V36.9z"/>
		<path id="XMLID_12_" class="st0" d="M270.3,44.1c0-5.3,3.5-7.6,7-7.6c3.4,0,6.7,1.5,6.7,7v1.9h-9.3c0.2,1.6,1.2,2.9,3.9,2.9
			c2.4,0,3.9-0.9,4.7-1.7v3.6c-0.8,0.7-2.5,1.6-5.4,1.6C273.2,51.8,270.3,49.4,270.3,44.1z M280,42.7v-0.1c0-1.7-0.8-2.8-2.6-2.8
			c-1.7,0-2.6,1.4-2.7,2.9H280z"/>
		<path id="XMLID_10_" class="st0" d="M286.3,36.9h3.8l0.3,1.2c0.6-1,1.9-1.7,3.8-1.7c3.7,0,5.2,2,5.2,5.9v9h-4.3v-8.2
			c0-2.4-0.6-3.3-2.2-3.3c-1.3,0-2.1,0.6-2.4,1.2v10.3h-4.3V36.9z"/>
		<path id="XMLID_7_" class="st0" d="M302.3,33.4c0-1.3,0.8-2,2.2-2c1.4,0,2.2,0.8,2.2,2c0,1.3-0.9,2-2.2,2
			C303.1,35.4,302.3,34.7,302.3,33.4z M302.4,36.9h4.3v14.5h-4.3V36.9z"/>
		<path id="XMLID_4_" class="st0" d="M309,47.5c0-2.9,2-4.1,6.1-4.7l2.1-0.3c0-2-1-2.6-2.9-2.6c-2.1,0-4,1-4.7,2.6v-4.1
			c0.6-0.8,2.2-1.9,5.4-1.9c4.1,0,6.4,1.8,6.4,6.2v8.7h-3.7l-0.3-1.2c-0.4,0.8-1.5,1.6-3.6,1.6C311,51.8,309,50.4,309,47.5z
			 M317.1,45.1l-1.6,0.4c-1.9,0.4-2.6,0.9-2.6,1.9c0,1,0.7,1.4,1.7,1.4c1.1,0,2.1-0.4,2.5-1V45.1z"/>
	</g>
</g>
</svg>
