<!-- Generator: Adobe Illustrator 22.1.0, SVG Export Plug-In  -->
<svg version="1.1"
	 xmlns="http://www.w3.org/2000/svg" xmlns:xlink="http://www.w3.org/1999/xlink" xmlns:a="http://ns.adobe.com/AdobeSVGViewerExtensions/3.0/"
	 x="0px" y="0px" width="502.6px" height="56.3px" viewBox="0 0 502.6 56.3" style="enable-background:new 0 0 502.6 56.3;"
	 xml:space="preserve">
<style type="text/css">
	.st0{fill:#FFFFFF;}
</style>
<defs>
</defs>
<g id="XMLID_1_">
	<g id="XMLID_3_">
		<path id="XMLID_145_" class="st0" d="M58.1,2.1h5.7c6,0,9.5,2.3,9.5,8.8s-4.2,8.9-9.5,8.9h-5.7V2.1z M63.8,16.3
			c3.9,0,5.1-1.5,5.1-5.2s-1.2-5.3-5.1-5.3h-1.4v10.5H63.8z"/>
		<path id="XMLID_142_" class="st0" d="M75.7,2c0-1.3,0.8-2,2.2-2c1.3,0,2.2,0.8,2.2,2c0,1.3-0.9,2-2.2,2C76.5,4,75.7,3.3,75.7,2z
			 M75.8,5.5H80v14.4h-4.2V5.5z"/>
		<path id="XMLID_140_" class="st0" d="M82.6,19.1v-3.8c0.9,0.9,2.3,1.6,4.3,1.6c1.9,0,2.4-0.6,2.4-1.3c0-0.8-0.3-1.1-1.9-1.3
			l-0.7-0.1c-3-0.4-4.3-1.9-4.3-4.4c0-2.5,1.7-4.7,5.9-4.7c2.2,0,3.7,0.5,4.5,1.2v3.7c-0.9-1-2.4-1.6-4.3-1.6
			c-1.7,0-2.2,0.5-2.2,1.2s0.3,1.1,1.8,1.3l0.8,0.1c3.2,0.5,4.6,1.6,4.6,4.3c0,2.5-1.7,4.9-6.2,4.9C84.9,20.3,83.4,19.7,82.6,19.1z"
			/>
		<path id="XMLID_137_" class="st0" d="M95.6,5.5h3.8l0.3,1.2c0.5-0.8,1.7-1.7,3.8-1.7c3.6,0,5.8,2,5.8,7.2c0,5.3-2.8,8-6.4,8
			c-1.1,0-2.4-0.2-3.1-0.9v5.5h-4.2V5.5z M105,12.5c0-2.5-0.7-4-2.7-4c-1.2,0-2,0.5-2.4,1.1v6.5c0.5,0.6,1.4,0.9,2.3,0.9
			C104.2,17,105,15,105,12.5z"/>
		<path id="XMLID_135_" class="st0" d="M111.5,16.3v-16h4.2v15.5c0,0.8,0.3,1.1,0.9,1.1s1-0.3,1.2-0.6v3.3c-0.3,0.3-1.2,0.8-2.5,0.8
			C112.9,20.3,111.5,18.9,111.5,16.3z"/>
		<path id="XMLID_132_" class="st0" d="M119.1,16c0-2.9,2-4.1,6-4.7l2.1-0.3c0-1.9-1-2.6-2.8-2.6c-2,0-3.9,1-4.7,2.6V7
			c0.6-0.8,2.2-1.9,5.3-1.9c4.1,0,6.4,1.8,6.4,6.2v8.6h-3.7l-0.3-1.2c-0.4,0.8-1.5,1.6-3.5,1.6C121.2,20.3,119.1,18.9,119.1,16z
			 M127.3,13.6l-1.6,0.4c-1.9,0.4-2.6,0.9-2.6,1.9c0,1,0.7,1.4,1.7,1.4c1.1,0,2.1-0.4,2.5-1V13.6z"/>
		<path id="XMLID_130_" class="st0" d="M133.2,24.5v-3.4c0.6,0.6,1.5,1,2.5,1c1,0,1.9-0.3,2.5-1.9l-5.7-14.7h4.6l3,9.4l2.5-9.4h4.1
			l-4,13.6c-1.1,3.5-2.8,6.2-6.6,6.2C134.8,25.3,133.7,24.9,133.2,24.5z"/>
		<path id="XMLID_128_" class="st0" d="M147.9,19.1v-3.8c0.9,0.9,2.3,1.6,4.3,1.6c1.9,0,2.4-0.6,2.4-1.3c0-0.8-0.3-1.1-1.9-1.3
			l-0.7-0.1c-3-0.4-4.3-1.9-4.3-4.4c0-2.5,1.7-4.7,5.9-4.7c2.2,0,3.7,0.5,4.5,1.2v3.7c-0.9-1-2.4-1.6-4.3-1.6
			c-1.7,0-2.2,0.5-2.2,1.2s0.3,1.1,1.8,1.3L154,11c3.2,0.5,4.6,1.6,4.6,4.3c0,2.5-1.7,4.9-6.2,4.9C150.2,20.3,148.7,19.7,147.9,19.1
			z"/>
		<path id="XMLID_126_" class="st0" d="M167.3,2.1h6c5.3,0,7.5,2.2,7.5,6c0,3.8-2.2,6.6-7.5,6.6h-0.9v-3.2h0.8
			c2.1,0,3.2-1.1,3.2-3.1c0-2-1-3-3.2-3h-1.5v14.4h-4.3V2.1z"/>
		<path id="XMLID_123_" class="st0" d="M182,12.7c0-5.3,3.4-7.6,7.4-7.6c4.2,0,7.1,2.3,7.1,7.6c0,5.3-3.4,7.6-7.4,7.6
			C184.9,20.3,182,18,182,12.7z M192.2,12.7c0-2.5-0.9-4.1-2.9-4.1c-2,0-2.9,1.7-2.9,4.1c0,2.5,0.9,4.1,2.9,4.1
			C191.3,16.8,192.2,15.2,192.2,12.7z"/>
		<path id="XMLID_121_" class="st0" d="M199.5,15.7V8.8h-1.7V7.2l1.4-1.8l2.6-3.4h2v3.4h3.4v3.3h-3.4v6.5c0,1,0.3,1.6,1.2,1.6
			c1,0,1.7-0.5,2.1-1.2v3.5c-0.5,0.6-1.5,1.2-3.3,1.2C200.7,20.3,199.5,18.6,199.5,15.7z"/>
		<path id="XMLID_118_" class="st0" d="M208.6,12.7c0-5.3,3.4-7.6,7-7.6c3.4,0,6.6,1.5,6.6,6.9v1.9H213c0.2,1.6,1.2,2.9,3.9,2.9
			c2.4,0,3.9-0.9,4.7-1.7v3.5c-0.8,0.7-2.5,1.6-5.3,1.6C211.5,20.3,208.6,17.9,208.6,12.7z M218.2,11.2v-0.1c0-1.7-0.8-2.7-2.6-2.7
			c-1.7,0-2.6,1.4-2.6,2.9H218.2z"/>
		<path id="XMLID_116_" class="st0" d="M224.5,5.5h3.8l0.3,1.2c0.6-1,1.9-1.7,3.8-1.7c3.7,0,5.2,1.9,5.2,5.9v8.9h-4.2v-8.2
			c0-2.4-0.6-3.2-2.2-3.2c-1.3,0-2,0.6-2.4,1.2v10.3h-4.2V5.5z"/>
		<path id="XMLID_114_" class="st0" d="M241.2,15.7V8.8h-1.7V7.2l1.4-1.8l2.6-3.4h2v3.4h3.4v3.3h-3.4v6.5c0,1,0.3,1.6,1.2,1.6
			c1,0,1.7-0.5,2.1-1.2v3.5c-0.5,0.6-1.5,1.2-3.3,1.2C242.4,20.3,241.2,18.6,241.2,15.7z"/>
		<path id="XMLID_112_" class="st0" d="M257.5,2.1h4l5.2,7.6l4.9-7.6h4v17.7h-4.3V8.6l-4.6,6.9h-0.2l-4.6-6.9v11.2h-4.3V2.1z"/>
		<path id="XMLID_110_" class="st0" d="M278.6,14.4V5.5h4.2v8.2c0,2.4,0.5,3.3,2.1,3.3c1.3,0,1.9-0.6,2.3-1.2V5.5h4.2v14.4h-3.8
			l-0.3-1.2c-0.6,0.9-1.9,1.7-3.8,1.7C280,20.3,278.6,18.3,278.6,14.4z"/>
		<path id="XMLID_108_" class="st0" d="M294.4,16.3v-16h4.2v15.5c0,0.8,0.3,1.1,0.9,1.1s1-0.3,1.2-0.6v3.3c-0.3,0.3-1.2,0.8-2.5,0.8
			C295.8,20.3,294.4,18.9,294.4,16.3z"/>
		<path id="XMLID_106_" class="st0" d="M303.2,15.7V8.8h-1.7V7.2l1.4-1.8l2.6-3.4h2v3.4h3.4v3.3h-3.4v6.5c0,1,0.3,1.6,1.2,1.6
			c1,0,1.7-0.5,2.1-1.2v3.5c-0.5,0.6-1.5,1.2-3.3,1.2C304.5,20.3,303.2,18.6,303.2,15.7z"/>
		<path id="XMLID_103_" class="st0" d="M313,2c0-1.3,0.8-2,2.2-2c1.3,0,2.2,0.8,2.2,2c0,1.3-0.9,2-2.2,2C313.8,4,313,3.3,313,2z
			 M313.1,5.5h4.2v14.4h-4.2V5.5z"/>
		<path id="XMLID_101_" class="st0" d="M320.2,10.1h7v3.5h-7V10.1z"/>
		<path id="XMLID_98_" class="st0" d="M334.9,13.6h-0.2v6.3h-4.3V2.1h6.1c4.2,0,7,1.5,7,5.5c0,2.9-1.6,4.8-4.2,5.6l5.4,6.7h-5
			L334.9,13.6z M336.1,10.6c1.9,0,2.9-0.9,2.9-2.7c0-1.8-1-2.5-2.9-2.5h-1.4v5.2H336.1z"/>
		<path id="XMLID_95_" class="st0" d="M345.4,12.7c0-5.3,3.4-7.6,7-7.6c3.4,0,6.6,1.5,6.6,6.9v1.9h-9.3c0.2,1.6,1.2,2.9,3.9,2.9
			c2.4,0,3.9-0.9,4.7-1.7v3.5c-0.8,0.7-2.5,1.6-5.3,1.6C348.2,20.3,345.4,17.9,345.4,12.7z M355,11.2v-0.1c0-1.7-0.8-2.7-2.6-2.7
			c-1.7,0-2.6,1.4-2.6,2.9H355z"/>
		<path id="XMLID_93_" class="st0" d="M360.5,12.7c0-5.2,3.3-7.6,7.2-7.6c2.1,0,3.6,0.6,4.3,1.2v3.8c-0.9-1-2-1.5-3.6-1.5
			c-2.2,0-3.4,1.5-3.4,4c0,2.6,1.2,4,3.4,4c1.6,0,2.8-0.6,3.7-1.6v3.6c-0.6,0.7-2.3,1.5-4.4,1.5C363.4,20.3,360.5,17.9,360.5,12.7z"
			/>
		<path id="XMLID_90_" class="st0" d="M373.8,12.7c0-5.3,3.4-7.6,7-7.6c3.4,0,6.6,1.5,6.6,6.9v1.9h-9.3c0.2,1.6,1.2,2.9,3.9,2.9
			c2.4,0,3.9-0.9,4.7-1.7v3.5c-0.8,0.7-2.5,1.6-5.3,1.6C376.6,20.3,373.8,17.9,373.8,12.7z M383.4,11.2v-0.1c0-1.7-0.8-2.7-2.6-2.7
			c-1.7,0-2.6,1.4-2.6,2.9H383.4z"/>
		<path id="XMLID_87_" class="st0" d="M389.7,5.5h3.8l0.3,1.2c0.5-0.8,1.7-1.7,3.8-1.7c3.6,0,5.8,2,5.8,7.2c0,5.3-2.8,8-6.4,8
			c-1.1,0-2.4-0.2-3.1-0.9v5.5h-4.2V5.5z M399,12.5c0-2.5-0.7-4-2.7-4c-1.2,0-2,0.5-2.4,1.1v6.5c0.5,0.6,1.4,0.9,2.3,0.9
			C398.3,17,399,15,399,12.5z"/>
		<path id="XMLID_85_" class="st0" d="M406.4,15.7V8.8h-1.7V7.2l1.4-1.8l2.6-3.4h2v3.4h3.4v3.3h-3.4v6.5c0,1,0.3,1.6,1.2,1.6
			c1,0,1.7-0.5,2.1-1.2v3.5c-0.5,0.6-1.5,1.2-3.3,1.2C407.6,20.3,406.4,18.6,406.4,15.7z"/>
		<path id="XMLID_82_" class="st0" d="M415.6,12.7c0-5.3,3.4-7.6,7.4-7.6c4.2,0,7.1,2.3,7.1,7.6c0,5.3-3.4,7.6-7.4,7.6
			C418.5,20.3,415.6,18,415.6,12.7z M425.7,12.7c0-2.5-0.9-4.1-2.9-4.1c-2,0-2.9,1.7-2.9,4.1c0,2.5,0.9,4.1,2.9,4.1
			C424.8,16.8,425.7,15.2,425.7,12.7z"/>
		<path id="XMLID_80_" class="st0" d="M432.3,5.5h3.5l0.3,1.9c0.2-1.5,1.4-2.3,2.8-2.3c0.8,0,1.2,0.2,1.4,0.4v3.9
			c-0.4-0.3-0.9-0.4-1.7-0.4c-1.1,0-1.7,0.4-2.1,1.2v9.8h-4.2V5.5z"/>
		<path id="XMLID_77_" class="st0" d="M6.5,35l-0.7-1.8h4.5c0.6,1.5,6.4,16.2,7.1,17.7h-4.5l-1.2-3.2H5.4l-1.2,3.2H0L6.5,35z
			 M6.5,44.6h4l-1.5-4l-0.5-1.5L8,40.6L6.5,44.6z"/>
		<path id="XMLID_75_" class="st0" d="M18.9,36.5h3.8l0.3,1.2c0.6-1,1.9-1.7,3.8-1.7c3.7,0,5.2,1.9,5.2,5.9v8.9h-4.2v-8.2
			c0-2.4-0.6-3.2-2.2-3.2c-1.3,0-2,0.6-2.4,1.2v10.3h-4.2V36.5z"/>
		<path id="XMLID_73_" class="st0" d="M35.6,46.8v-6.9H34v-1.5l1.4-1.8l2.6-3.4h2v3.4h3.4v3.3h-3.4v6.5c0,1,0.3,1.6,1.2,1.6
			c1,0,1.7-0.5,2.1-1.2v3.5c-0.5,0.6-1.5,1.2-3.3,1.2C36.9,51.3,35.6,49.6,35.6,46.8z"/>
		<path id="XMLID_70_" class="st0" d="M44.8,47.1c0-2.9,2-4.1,6-4.7l2.1-0.3c0-1.9-1-2.6-2.8-2.6c-2,0-3.9,1-4.7,2.6v-4
			c0.6-0.8,2.2-1.9,5.3-1.9c4.1,0,6.4,1.8,6.4,6.2v8.6h-3.7l-0.3-1.2c-0.4,0.8-1.5,1.6-3.5,1.6C46.8,51.3,44.8,50,44.8,47.1z
			 M52.9,44.7l-1.6,0.4c-1.9,0.4-2.6,0.9-2.6,1.9c0,1,0.7,1.4,1.7,1.4c1.1,0,2.1-0.4,2.5-1V44.7z"/>
		<path id="XMLID_67_" class="st0" d="M59.3,55v-3.2c1.4,0.8,3.1,1.3,6.1,1.3c3.4,0,4.8-0.4,4.8-1.5c0-0.9-0.9-1.1-3-1.1
			c-2.1,0-5.4,0.4-6.3,0.9v-2.8l2-3c-2.1-0.7-3.4-2.3-3.4-4.6c0-3.2,2.5-5,6.4-5c1.7,0,3.1,0.4,4.1,1c0.4-0.7,1.6-1.1,2.7-1.1
			c0.4,0,0.9,0.1,1.2,0.2v3.2c-0.3-0.2-0.6-0.2-1-0.2c-0.5,0-1,0.2-1.2,0.4c0.2,0.5,0.3,1,0.3,1.6c0,3.1-2.5,4.9-6.4,4.9h-0.3
			l-1.1,1.8c0.6-0.2,2.3-0.4,3.8-0.4c3.6,0,5.9,0.8,5.9,3.9c0,3.1-2.8,4.9-8.2,4.9C62.8,56.3,60.5,55.8,59.3,55z M68,41.1
			c0-1.3-0.9-2-2.3-2c-1.4,0-2.3,0.7-2.3,2s0.9,1.9,2.3,1.9C67.2,43.1,68,42.4,68,41.1z"/>
		<path id="XMLID_64_" class="st0" d="M74.9,43.7c0-5.3,3.4-7.6,7.4-7.6c4.2,0,7.1,2.3,7.1,7.6c0,5.3-3.4,7.6-7.4,7.6
			C77.9,51.3,74.9,49,74.9,43.7z M85.1,43.7c0-2.5-0.9-4.1-2.9-4.1c-2,0-2.9,1.7-2.9,4.1c0,2.5,0.9,4.1,2.9,4.1
			C84.2,47.9,85.1,46.2,85.1,43.7z"/>
		<path id="XMLID_62_" class="st0" d="M91.7,36.5h3.8l0.3,1.2c0.6-1,1.9-1.7,3.8-1.7c3.7,0,5.2,1.9,5.2,5.9v8.9h-4.2v-8.2
			c0-2.4-0.6-3.2-2.2-3.2c-1.3,0-2,0.6-2.4,1.2v10.3h-4.2V36.5z"/>
		<path id="XMLID_59_" class="st0" d="M107.6,33.1c0-1.3,0.8-2,2.2-2c1.3,0,2.2,0.8,2.2,2c0,1.3-0.9,2-2.2,2
			C108.4,35.1,107.6,34.3,107.6,33.1z M107.7,36.5h4.2v14.4h-4.2V36.5z"/>
		<path id="XMLID_57_" class="st0" d="M114.6,50.2v-3.8c0.9,0.9,2.3,1.6,4.3,1.6c1.9,0,2.4-0.6,2.4-1.3c0-0.8-0.3-1.1-1.9-1.3
			l-0.7-0.1c-3-0.4-4.3-1.9-4.3-4.4c0-2.5,1.7-4.7,5.9-4.7c2.2,0,3.7,0.5,4.5,1.2V41c-0.9-1-2.4-1.6-4.3-1.6c-1.7,0-2.2,0.5-2.2,1.2
			s0.3,1.1,1.8,1.3l0.8,0.1c3.2,0.5,4.6,1.6,4.6,4.3c0,2.5-1.7,4.9-6.2,4.9C116.8,51.3,115.3,50.8,114.6,50.2z"/>
		<path id="XMLID_55_" class="st0" d="M127.5,36.5h3.8l0.2,1.2c0.6-1,1.9-1.7,3.6-1.7c2,0,3.4,0.7,4.1,2c0.7-1,2.1-2,4.2-2
			c3.5,0,4.9,1.9,4.9,5.9v8.9h-4.2v-8.3c0-2.3-0.5-3.2-1.9-3.2c-1,0-1.9,0.5-2.3,1.2c0.1,0.4,0.1,0.9,0.1,1.3v8.9h-4.2v-8.3
			c0-2.3-0.5-3.2-1.9-3.2c-1.1,0-1.8,0.5-2.1,1.2v10.3h-4.2V36.5z"/>
		<path id="XMLID_53_" class="st0" d="M158.2,39.9h-1.7v-1.4l1.6-1.4c-0.3-0.5-0.5-1.2-0.5-2.1c0-2.7,2.4-4.1,5.1-4.1
			c2,0,3.1,0.5,3.5,0.9v3.5c-0.5-0.7-1.5-1.1-2.6-1.1c-1.2,0-1.8,0.5-1.8,1.4c0,0.4,0.2,0.8,0.3,1h2.8v3.3h-2.5v11h-4.2V39.9z"/>
		<path id="XMLID_50_" class="st0" d="M166.2,43.7c0-5.3,3.4-7.6,7.4-7.6c4.2,0,7.1,2.3,7.1,7.6c0,5.3-3.4,7.6-7.4,7.6
			C169.1,51.3,166.2,49,166.2,43.7z M176.4,43.7c0-2.5-0.9-4.1-2.9-4.1c-2,0-2.9,1.7-2.9,4.1c0,2.5,0.9,4.1,2.9,4.1
			C175.4,47.9,176.4,46.2,176.4,43.7z"/>
		<path id="XMLID_48_" class="st0" d="M183,36.5h3.5l0.3,1.9c0.2-1.5,1.4-2.3,2.8-2.3c0.8,0,1.2,0.2,1.4,0.4v3.9
			c-0.4-0.3-0.9-0.4-1.7-0.4c-1.1,0-1.7,0.4-2.1,1.2v9.8H183V36.5z"/>
		<path id="XMLID_46_" class="st0" d="M198.6,50.5v-3.9c0.7,0.5,2,1.2,4,1.2c2.3,0,3.4-0.8,3.4-2.2c0-1.3-0.8-2-3.3-2
			c-1.5,0-2.6,0.2-3.4,0.6l0.4-10.9h10.3v3.6h-6.6l-0.1,3.4c0.2-0.1,0.8-0.1,1.2-0.1c4.1,0,6.1,1.6,6.1,5.2c0,3.7-3,6-7.6,6
			C200.6,51.3,199.3,50.9,198.6,50.5z"/>
		<path id="XMLID_44_" class="st0" d="M213.1,33.2h4.3V40h6.4v-6.8h4.3v17.7h-4.3v-7.2h-6.4v7.2h-4.3V33.2z"/>
		<path id="XMLID_42_" class="st0" d="M235.3,36.8h-4.9v-3.6h14v3.6h-4.8v14.1h-4.3V36.8z"/>
		<path id="XMLID_40_" class="st0" d="M244.2,54.7c0.5-0.9,1.1-2.5,1.3-3.7c-0.8-0.4-1.3-1.3-1.3-2.3c0-1.5,1.1-2.6,2.6-2.6
			c1.5,0,2.5,1.1,2.5,2.8c0,2.5-2,5.2-3.1,6.1L244.2,54.7z"/>
		<path id="XMLID_37_" class="st0" d="M258.3,33.2h5.7c6,0,9.5,2.3,9.5,8.8s-4.2,8.9-9.5,8.9h-5.7V33.2z M264,47.3
			c3.9,0,5.1-1.5,5.1-5.2s-1.2-5.3-5.1-5.3h-1.4v10.5H264z"/>
		<path id="XMLID_35_" class="st0" d="M275.2,54.7c0.5-0.9,1.1-2.5,1.3-3.7c-0.8-0.4-1.3-1.3-1.3-2.3c0-1.5,1.1-2.6,2.6-2.6
			c1.5,0,2.5,1.1,2.5,2.8c0,2.5-2,5.2-3.1,6.1L275.2,54.7z"/>
		<path id="XMLID_33_" class="st0" d="M289.2,34.8l-1.1-1.6h5.2l7.1,10.3h0.1V33.2h3.9v17.7h-3.5l-7.7-11h-0.1v11h-3.9V34.8z"/>
		<path id="XMLID_31_" class="st0" d="M307.7,33.2h12v3.6h-7.7v3.4h5v3.4h-5v3.8h7.7v3.6h-12V33.2z"/>
		<path id="XMLID_29_" class="st0" d="M327.7,45.4c0-2.4,1.6-4.1,3.4-4.8c-0.9-0.8-1.6-1.9-1.6-3.3c0-2.9,2.5-4.5,6.1-4.5
			c2.3,0,3.7,0.8,4.1,1.3V38c-0.6-0.8-2-1.6-3.6-1.6c-1.4,0-2.2,0.4-2.2,1.3c0,0.8,0.4,1.2,1.2,1.9l2,1.7v1.2h-3.4
			c-0.8,0.5-1.5,1.2-1.5,2.4c0,1.6,1,2.8,4.2,2.8c3.3,0,5.2-1.2,5.2-3.9c0-0.4-0.1-0.9-0.2-1.4h-1.8v-3.6h7.7v3.6h-1.8
			c0.1,0.5,0.2,1.1,0.2,1.5c0,4.9-4.1,7.5-9.6,7.5C330.5,51.3,327.7,49.3,327.7,45.4z"/>
		<path id="XMLID_27_" class="st0" d="M355.6,33.2h4.3V40h6.4v-6.8h4.3v17.7h-4.3v-7.2H360v7.2h-4.3V33.2z"/>
		<path id="XMLID_24_" class="st0" d="M384.9,44.6h-0.2v6.3h-4.3V33.2h6.1c4.2,0,7,1.5,7,5.5c0,2.9-1.6,4.8-4.2,5.6l5.4,6.7h-5
			L384.9,44.6z M386.1,41.7c1.9,0,2.9-0.9,2.9-2.7c0-1.8-1-2.5-2.9-2.5h-1.4v5.2H386.1z"/>
		<path id="XMLID_21_" class="st0" d="M395.4,43.7c0-5.3,3.4-7.6,7-7.6c3.4,0,6.6,1.5,6.6,6.9v1.9h-9.3c0.2,1.6,1.2,2.9,3.9,2.9
			c2.4,0,3.9-0.9,4.7-1.7v3.5c-0.8,0.7-2.5,1.6-5.3,1.6C398.2,51.3,395.4,48.9,395.4,43.7z M405,42.3v-0.1c0-1.7-0.8-2.7-2.6-2.7
			c-1.7,0-2.6,1.4-2.6,2.9H405z"/>
		<path id="XMLID_19_" class="st0" d="M410.6,43.7c0-5.2,3.3-7.6,7.2-7.6c2.1,0,3.6,0.6,4.3,1.2v3.8c-0.9-1-2-1.5-3.6-1.5
			c-2.2,0-3.4,1.5-3.4,4c0,2.6,1.2,4,3.4,4c1.6,0,2.8-0.6,3.7-1.6v3.6c-0.6,0.7-2.3,1.5-4.4,1.5C413.5,51.3,410.6,49,410.6,43.7z"/>
		<path id="XMLID_16_" class="st0" d="M423.8,43.7c0-5.3,3.4-7.6,7-7.6c3.4,0,6.6,1.5,6.6,6.9v1.9h-9.3c0.2,1.6,1.2,2.9,3.9,2.9
			c2.4,0,3.9-0.9,4.7-1.7v3.5c-0.8,0.7-2.5,1.6-5.3,1.6C426.6,51.3,423.8,48.9,423.8,43.7z M433.4,42.3v-0.1c0-1.7-0.8-2.7-2.6-2.7
			c-1.7,0-2.6,1.4-2.6,2.9H433.4z"/>
		<path id="XMLID_13_" class="st0" d="M439.7,36.5h3.8l0.3,1.2c0.5-0.8,1.7-1.7,3.8-1.7c3.6,0,5.8,2,5.8,7.2c0,5.3-2.8,8-6.4,8
			c-1.1,0-2.4-0.2-3.1-0.9v5.5h-4.2V36.5z M449.1,43.5c0-2.5-0.7-4-2.7-4c-1.2,0-2,0.5-2.4,1.1v6.5c0.5,0.6,1.4,0.9,2.3,0.9
			C448.3,48,449.1,46,449.1,43.5z"/>
		<path id="XMLID_11_" class="st0" d="M456.4,46.8v-6.9h-1.7v-1.5l1.4-1.8l2.6-3.4h2v3.4h3.4v3.3h-3.4v6.5c0,1,0.3,1.6,1.2,1.6
			c1,0,1.7-0.5,2.1-1.2v3.5c-0.5,0.6-1.5,1.2-3.3,1.2C457.7,51.3,456.4,49.6,456.4,46.8z"/>
		<path id="XMLID_8_" class="st0" d="M465.6,43.7c0-5.3,3.4-7.6,7.4-7.6c4.2,0,7.1,2.3,7.1,7.6c0,5.3-3.4,7.6-7.4,7.6
			C468.5,51.3,465.6,49,465.6,43.7z M475.8,43.7c0-2.5-0.9-4.1-2.9-4.1c-2,0-2.9,1.7-2.9,4.1c0,2.5,0.9,4.1,2.9,4.1
			C474.8,47.9,475.8,46.2,475.8,43.7z"/>
		<path id="XMLID_6_" class="st0" d="M482.4,36.5h3.5l0.3,1.9c0.2-1.5,1.4-2.3,2.8-2.3c0.8,0,1.2,0.2,1.4,0.4v3.9
			c-0.4-0.3-0.9-0.4-1.7-0.4c-1.1,0-1.7,0.4-2.1,1.2v9.8h-4.2V36.5z"/>
		<path id="XMLID_4_" class="st0" d="M491.9,50.2v-3.8c0.9,0.9,2.3,1.6,4.3,1.6c1.9,0,2.4-0.6,2.4-1.3c0-0.8-0.3-1.1-1.9-1.3
			l-0.7-0.1c-3-0.4-4.3-1.9-4.3-4.4c0-2.5,1.7-4.7,5.9-4.7c2.2,0,3.7,0.5,4.5,1.2V41c-0.9-1-2.4-1.6-4.3-1.6c-1.7,0-2.2,0.5-2.2,1.2
			s0.3,1.1,1.8,1.3l0.8,0.1c3.2,0.5,4.6,1.6,4.6,4.3c0,2.5-1.7,4.9-6.2,4.9C494.2,51.3,492.7,50.8,491.9,50.2z"/>
	</g>
</g>
</svg>
