<!-- Generator: Adobe Illustrator 22.1.0, SVG Export Plug-In  -->
<svg version="1.1"
	 xmlns="http://www.w3.org/2000/svg" xmlns:xlink="http://www.w3.org/1999/xlink" xmlns:a="http://ns.adobe.com/AdobeSVGViewerExtensions/3.0/"
	 x="0px" y="0px" width="581.3px" height="25.3px" viewBox="0 0 581.3 25.3" style="enable-background:new 0 0 581.3 25.3;"
	 xml:space="preserve">
<style type="text/css">
	.st0{fill:#FFFFFF;}
</style>
<defs>
</defs>
<g>
	<g>
		<path class="st0" d="M0,2.1h11.8v3.6H4.4v3.5h4.7v3.3H4.4v7.3H0V2.1z"/>
		<path class="st0" d="M12.1,12.7c0-5.3,3.4-7.6,7.4-7.6c4.2,0,7.1,2.3,7.1,7.6c0,5.3-3.4,7.6-7.4,7.6C15,20.3,12.1,18,12.1,12.7z
			 M22.3,12.7c0-2.5-0.9-4.1-2.9-4.1c-2,0-2.9,1.7-2.9,4.1c0,2.5,0.9,4.1,2.9,4.1C21.4,16.8,22.3,15.2,22.3,12.7z"/>
		<path class="st0" d="M28.9,5.5h3.5l0.3,1.9C32.9,5.9,34.1,5,35.4,5c0.8,0,1.2,0.2,1.5,0.4v3.9C36.5,9,36,8.9,35.2,8.9
			c-1.1,0-1.7,0.4-2.1,1.2v9.8h-4.2V5.5z"/>
		<path class="st0" d="M44.3,24.5v-3.4c0.6,0.6,1.5,1,2.5,1c1,0,1.9-0.3,2.5-1.9L43.6,5.5h4.6l3,9.4l2.5-9.4h4.1l-4,13.6
			c-1.1,3.5-2.8,6.2-6.6,6.2C45.9,25.3,44.8,24.9,44.3,24.5z"/>
		<path class="st0" d="M58.5,12.7c0-5.3,3.4-7.6,7.4-7.6c4.2,0,7.1,2.3,7.1,7.6c0,5.3-3.4,7.6-7.4,7.6C61.4,20.3,58.5,18,58.5,12.7z
			 M68.7,12.7c0-2.5-0.9-4.1-2.9-4.1c-2,0-2.9,1.7-2.9,4.1c0,2.5,0.9,4.1,2.9,4.1C67.8,16.8,68.7,15.2,68.7,12.7z"/>
		<path class="st0" d="M75.2,14.4V5.5h4.2v8.2c0,2.4,0.5,3.3,2.1,3.3c1.3,0,1.9-0.6,2.3-1.2V5.5H88v14.4h-3.8L84,18.6
			c-0.6,0.9-1.9,1.7-3.8,1.7C76.5,20.3,75.2,18.3,75.2,14.4z"/>
		<path class="st0" d="M91,5.5h3.5l0.3,1.9C95.1,5.9,96.3,5,97.6,5c0.8,0,1.2,0.2,1.5,0.4v3.9c-0.4-0.3-0.9-0.4-1.7-0.4
			c-1.1,0-1.7,0.4-2.1,1.2v9.8H91V5.5z"/>
		<path class="st0" d="M107.4,2.1h6c5.3,0,7.5,2.2,7.5,6c0,3.8-2.2,6.6-7.5,6.6h-0.9v-3.2h0.8c2.1,0,3.2-1.1,3.2-3.1c0-2-1-3-3.2-3
			h-1.5v14.4h-4.3V2.1z"/>
		<path class="st0" d="M122.1,16.1c0-2.9,2-4.1,6-4.7l2.1-0.3c0-1.9-1-2.6-2.8-2.6c-2,0-3.9,1-4.7,2.6V7c0.6-0.8,2.2-1.9,5.3-1.9
			c4.1,0,6.4,1.8,6.4,6.2v8.6h-3.7l-0.3-1.2c-0.4,0.8-1.5,1.6-3.5,1.6C124.1,20.3,122.1,18.9,122.1,16.1z M130.2,13.6l-1.6,0.4
			c-1.9,0.4-2.6,0.9-2.6,1.9c0,1,0.7,1.4,1.7,1.4c1.1,0,2.1-0.4,2.5-1V13.6z"/>
		<path class="st0" d="M138.1,15.7V8.8h-1.7V7.3l1.4-1.8l2.6-3.4h2v3.4h3.4v3.3h-3.4v6.5c0,1,0.3,1.6,1.2,1.6c1,0,1.7-0.5,2.1-1.2
			v3.5c-0.5,0.6-1.5,1.2-3.3,1.2C139.3,20.3,138.1,18.6,138.1,15.7z"/>
		<path class="st0" d="M147.9,2c0-1.3,0.8-2,2.2-2c1.3,0,2.2,0.8,2.2,2c0,1.3-0.9,2-2.2,2C148.7,4,147.9,3.3,147.9,2z M147.9,5.5
			h4.2v14.4h-4.2V5.5z"/>
		<path class="st0" d="M154.5,12.7c0-5.3,3.4-7.6,7-7.6c3.4,0,6.6,1.5,6.6,6.9v1.9h-9.3c0.2,1.6,1.2,2.9,3.9,2.9
			c2.4,0,3.9-0.9,4.7-1.7v3.5c-0.8,0.7-2.5,1.6-5.3,1.6C157.3,20.3,154.5,17.9,154.5,12.7z M164.1,11.2v-0.1c0-1.7-0.8-2.7-2.6-2.7
			c-1.7,0-2.6,1.4-2.6,2.9H164.1z"/>
		<path class="st0" d="M170.4,5.5h3.8l0.3,1.2c0.6-1,1.9-1.7,3.8-1.7c3.7,0,5.2,1.9,5.2,5.9v8.9h-4.2v-8.2c0-2.4-0.6-3.2-2.2-3.2
			c-1.3,0-2,0.6-2.4,1.2v10.3h-4.2V5.5z"/>
		<path class="st0" d="M187.1,15.7V8.8h-1.7V7.3l1.4-1.8l2.6-3.4h2v3.4h3.4v3.3h-3.4v6.5c0,1,0.3,1.6,1.2,1.6c1,0,1.7-0.5,2.1-1.2
			v3.5c-0.5,0.6-1.5,1.2-3.3,1.2C188.3,20.3,187.1,18.6,187.1,15.7z"/>
		<path class="st0" d="M196.6,19.1v-3.8c0.9,0.9,2.3,1.6,4.3,1.6c1.9,0,2.4-0.6,2.4-1.3c0-0.8-0.3-1.1-1.9-1.3l-0.7-0.1
			c-3-0.4-4.3-1.9-4.3-4.4c0-2.5,1.7-4.7,5.9-4.7c2.2,0,3.7,0.5,4.5,1.2v3.7c-0.9-1-2.4-1.6-4.4-1.6c-1.7,0-2.2,0.5-2.2,1.2
			c0,0.7,0.3,1.1,1.8,1.3l0.8,0.1c3.2,0.5,4.6,1.6,4.6,4.3c0,2.5-1.7,4.9-6.2,4.9C198.8,20.3,197.3,19.7,196.6,19.1z"/>
		<path class="st0" d="M215.4,19v-4.3c0.9,1,2.6,2,4.7,2c1.9,0,2.9-0.8,2.9-2c0-1.1-0.6-1.5-2.4-1.8l-0.7-0.1
			c-2.8-0.6-4.7-2.2-4.7-5.3c0-3.5,2.5-5.7,6.6-5.7c2.6,0,4.1,0.7,4.8,1.3v4.3c-0.9-1.1-2.6-2-4.8-2c-1.6,0-2.5,0.5-2.5,1.7
			c0,1,0.4,1.5,2.1,1.9l0.7,0.1c3,0.6,5,1.9,5,5.2c0,3.5-2.5,6-7,6C217.5,20.3,216.1,19.6,215.4,19z"/>
		<path class="st0" d="M230.3,15.7V8.8h-1.7V7.3l1.4-1.8l2.6-3.4h2v3.4h3.4v3.3h-3.4v6.5c0,1,0.3,1.6,1.2,1.6c1,0,1.7-0.5,2.1-1.2
			v3.5c-0.5,0.6-1.5,1.2-3.3,1.2C231.6,20.3,230.3,18.6,230.3,15.7z"/>
		<path class="st0" d="M240.2,5.5h3.5l0.3,1.9c0.2-1.5,1.4-2.3,2.8-2.3c0.8,0,1.2,0.2,1.5,0.4v3.9c-0.4-0.3-0.9-0.4-1.7-0.4
			c-1.1,0-1.7,0.4-2.1,1.2v9.8h-4.2V5.5z"/>
		<path class="st0" d="M250,14.4V5.5h4.2v8.2c0,2.4,0.5,3.3,2.1,3.3c1.3,0,1.9-0.6,2.3-1.2V5.5h4.2v14.4h-3.8l-0.3-1.2
			c-0.6,0.9-1.9,1.7-3.8,1.7C251.4,20.3,250,18.3,250,14.4z"/>
		<path class="st0" d="M265.2,24v-3.2c1.4,0.8,3.1,1.3,6.1,1.3c3.4,0,4.8-0.4,4.8-1.5c0-0.9-0.9-1.1-3-1.1c-2.1,0-5.4,0.4-6.3,0.9
			v-2.8l2-3c-2.1-0.7-3.4-2.3-3.4-4.6c0-3.2,2.5-5,6.4-5c1.7,0,3.1,0.4,4.1,1c0.4-0.7,1.6-1.1,2.7-1.1c0.4,0,0.9,0.1,1.2,0.2v3.2
			c-0.3-0.2-0.6-0.2-1-0.2c-0.5,0-1,0.2-1.2,0.4c0.2,0.5,0.3,1,0.3,1.6c0,3.1-2.5,4.9-6.4,4.9h-0.3l-1.1,1.8
			c0.6-0.2,2.3-0.4,3.8-0.4c3.6,0,5.9,0.8,5.9,3.9c0,3.1-2.8,4.9-8.2,4.9C268.6,25.3,266.3,24.8,265.2,24z M273.9,10.1
			c0-1.3-0.9-2-2.3-2c-1.5,0-2.3,0.7-2.3,2s0.9,1.9,2.3,1.9C273,12,273.9,11.3,273.9,10.1z"/>
		<path class="st0" d="M280.8,24v-3.2c1.4,0.8,3.1,1.3,6.1,1.3c3.4,0,4.8-0.4,4.8-1.5c0-0.9-0.9-1.1-3-1.1c-2.1,0-5.4,0.4-6.3,0.9
			v-2.8l2-3c-2.1-0.7-3.4-2.3-3.4-4.6c0-3.2,2.5-5,6.4-5c1.7,0,3.1,0.4,4.1,1c0.4-0.7,1.6-1.1,2.7-1.1c0.4,0,0.9,0.1,1.2,0.2v3.2
			c-0.3-0.2-0.6-0.2-1-0.2c-0.5,0-1,0.2-1.2,0.4c0.2,0.5,0.3,1,0.3,1.6c0,3.1-2.5,4.9-6.4,4.9h-0.3l-1.1,1.8
			c0.6-0.2,2.3-0.4,3.8-0.4c3.6,0,5.9,0.8,5.9,3.9c0,3.1-2.8,4.9-8.2,4.9C284.2,25.3,282,24.8,280.8,24z M289.5,10.1
			c0-1.3-0.9-2-2.3-2c-1.5,0-2.3,0.7-2.3,2s0.9,1.9,2.3,1.9C288.6,12,289.5,11.3,289.5,10.1z"/>
		<path class="st0" d="M297,16.3v-16h4.2v15.5c0,0.8,0.3,1.1,0.9,1.1c0.6,0,1-0.3,1.2-0.6v3.3c-0.3,0.3-1.2,0.8-2.5,0.8
			C298.3,20.3,297,18.9,297,16.3z"/>
		<path class="st0" d="M305.3,2c0-1.3,0.8-2,2.2-2c1.3,0,2.2,0.8,2.2,2c0,1.3-0.9,2-2.2,2C306.1,4,305.3,3.3,305.3,2z M305.3,5.5
			h4.2v14.4h-4.2V5.5z"/>
		<path class="st0" d="M312.6,5.5h3.8l0.3,1.2c0.6-1,1.9-1.7,3.8-1.7c3.7,0,5.2,1.9,5.2,5.9v8.9h-4.2v-8.2c0-2.4-0.6-3.2-2.2-3.2
			c-1.3,0-2,0.6-2.4,1.2v10.3h-4.2V5.5z"/>
		<path class="st0" d="M327.9,24v-3.2c1.4,0.8,3.1,1.3,6.1,1.3c3.4,0,4.8-0.4,4.8-1.5c0-0.9-0.9-1.1-3-1.1c-2.1,0-5.4,0.4-6.3,0.9
			v-2.8l2-3c-2.1-0.7-3.4-2.3-3.4-4.6c0-3.2,2.5-5,6.4-5c1.7,0,3.1,0.4,4.1,1c0.4-0.7,1.6-1.1,2.7-1.1c0.4,0,0.9,0.1,1.2,0.2v3.2
			c-0.3-0.2-0.6-0.2-1-0.2c-0.5,0-1,0.2-1.2,0.4c0.2,0.5,0.3,1,0.3,1.6c0,3.1-2.5,4.9-6.4,4.9h-0.3l-1.1,1.8
			c0.6-0.2,2.3-0.4,3.8-0.4c3.6,0,5.9,0.8,5.9,3.9c0,3.1-2.8,4.9-8.2,4.9C331.3,25.3,329,24.8,327.9,24z M336.6,10.1
			c0-1.3-0.9-2-2.3-2c-1.5,0-2.3,0.7-2.3,2s0.9,1.9,2.3,1.9C335.7,12,336.6,11.3,336.6,10.1z"/>
		<path class="st0" d="M349.2,5.5h4.2l1.9,7.6l2.9-7.6h1.6l3,7.6l1.9-7.6h3.9l-3.9,14.4H362L359,12l-3.1,7.8h-2.6L349.2,5.5z"/>
		<path class="st0" d="M370.4,2c0-1.3,0.8-2,2.2-2c1.3,0,2.2,0.8,2.2,2c0,1.3-0.9,2-2.2,2C371.2,4,370.4,3.3,370.4,2z M370.4,5.5
			h4.2v14.4h-4.2V5.5z"/>
		<path class="st0" d="M378.4,15.7V8.8h-1.7V7.3l1.4-1.8l2.6-3.4h2v3.4h3.4v3.3h-3.4v6.5c0,1,0.3,1.6,1.2,1.6c1,0,1.7-0.5,2.1-1.2
			v3.5c-0.5,0.6-1.5,1.2-3.3,1.2C379.6,20.3,378.4,18.6,378.4,15.7z"/>
		<path class="st0" d="M388.2,0.3h4.2v6.3c0.6-0.8,1.9-1.5,3.7-1.5c3.7,0,5.2,1.9,5.2,5.9v8.9H397v-8.2c0-2.4-0.6-3.2-2.2-3.2
			c-1.2,0-2,0.6-2.4,1.1v10.3h-4.2V0.3z"/>
		<path class="st0" d="M410,19v-4.3c0.9,1,2.6,2,4.7,2c1.9,0,2.9-0.8,2.9-2c0-1.1-0.6-1.5-2.4-1.8l-0.7-0.1
			c-2.8-0.6-4.7-2.2-4.7-5.3c0-3.5,2.5-5.7,6.6-5.7c2.6,0,4.1,0.7,4.8,1.3v4.3c-0.9-1.1-2.6-2-4.8-2c-1.6,0-2.5,0.5-2.5,1.7
			c0,1,0.4,1.5,2.1,1.9l0.7,0.1c3,0.6,5,1.9,5,5.2c0,3.5-2.5,6-7,6C412.2,20.3,410.7,19.6,410,19z"/>
		<path class="st0" d="M423.6,12.7c0-5.2,3.3-7.6,7.2-7.6c2.1,0,3.6,0.6,4.3,1.2v3.8c-0.9-1-2-1.5-3.7-1.5c-2.2,0-3.4,1.5-3.4,4
			c0,2.6,1.2,4,3.4,4c1.6,0,2.8-0.6,3.7-1.6v3.7c-0.6,0.7-2.3,1.5-4.4,1.5C426.5,20.3,423.6,17.9,423.6,12.7z"/>
		<path class="st0" d="M437.5,0.3h4.2v6.3c0.6-0.8,1.9-1.5,3.7-1.5c3.7,0,5.2,1.9,5.2,5.9v8.9h-4.2v-8.2c0-2.4-0.6-3.2-2.2-3.2
			c-1.2,0-2,0.6-2.4,1.1v10.3h-4.2V0.3z"/>
		<path class="st0" d="M453.4,2c0-1.3,0.8-2,2.2-2c1.3,0,2.2,0.8,2.2,2c0,1.3-0.9,2-2.2,2C454.2,4,453.4,3.3,453.4,2z M453.5,5.5
			h4.2v14.4h-4.2V5.5z"/>
		<path class="st0" d="M460,18.6l6.1-9.8h-6V5.5h11.3v1.3l-5.8,9.8h5.8v3.3H460V18.6z"/>
		<path class="st0" d="M472.8,12.7c0-5.3,3.4-7.6,7.4-7.6c4.2,0,7.1,2.3,7.1,7.6c0,5.3-3.4,7.6-7.4,7.6
			C475.7,20.3,472.8,18,472.8,12.7z M483,12.7c0-2.5-0.9-4.1-2.9-4.1c-2,0-2.9,1.7-2.9,4.1c0,2.5,0.9,4.1,2.9,4.1
			C482.1,16.8,483,15.2,483,12.7z"/>
		<path class="st0" d="M489.6,5.5h3.8l0.3,1.2c0.5-0.8,1.7-1.7,3.8-1.7c3.6,0,5.9,2,5.9,7.2c0,5.3-2.8,8-6.4,8
			c-1.1,0-2.4-0.2-3.1-0.9v5.5h-4.2V5.5z M498.9,12.5c0-2.5-0.7-4-2.7-4c-1.2,0-2,0.5-2.4,1.1v6.5c0.5,0.6,1.4,0.9,2.3,0.9
			C498.2,17,498.9,15,498.9,12.5z"/>
		<path class="st0" d="M505.6,0.3h4.2v6.3c0.6-0.8,1.9-1.5,3.7-1.5c3.7,0,5.2,1.9,5.2,5.9v8.9h-4.2v-8.2c0-2.4-0.6-3.2-2.2-3.2
			c-1.2,0-2,0.6-2.4,1.1v10.3h-4.2V0.3z"/>
		<path class="st0" d="M521.5,5.5h3.5l0.3,1.9c0.2-1.5,1.4-2.3,2.8-2.3c0.8,0,1.2,0.2,1.5,0.4v3.9c-0.4-0.3-0.9-0.4-1.7-0.4
			c-1.1,0-1.7,0.4-2.1,1.2v9.8h-4.2V5.5z"/>
		<path class="st0" d="M530.6,12.7c0-5.3,3.4-7.6,7-7.6c3.4,0,6.6,1.5,6.6,6.9v1.9h-9.3c0.2,1.6,1.2,2.9,3.9,2.9
			c2.4,0,3.9-0.9,4.7-1.7v3.5c-0.8,0.7-2.5,1.6-5.3,1.6C533.4,20.3,530.6,17.9,530.6,12.7z M540.2,11.2v-0.1c0-1.7-0.8-2.7-2.6-2.7
			c-1.7,0-2.6,1.4-2.6,2.9H540.2z"/>
		<path class="st0" d="M546.5,5.5h3.8l0.3,1.2c0.6-1,1.9-1.7,3.8-1.7c3.7,0,5.2,1.9,5.2,5.9v8.9h-4.2v-8.2c0-2.4-0.6-3.2-2.2-3.2
			c-1.3,0-2,0.6-2.4,1.2v10.3h-4.2V5.5z"/>
		<path class="st0" d="M562.4,2c0-1.3,0.8-2,2.2-2c1.3,0,2.2,0.8,2.2,2c0,1.3-0.9,2-2.2,2C563.2,4,562.4,3.3,562.4,2z M562.4,5.5
			h4.2v14.4h-4.2V5.5z"/>
		<path class="st0" d="M569,16.1c0-2.9,2-4.1,6-4.7l2.1-0.3c0-1.9-1-2.6-2.8-2.6c-2,0-3.9,1-4.7,2.6V7c0.6-0.8,2.2-1.9,5.3-1.9
			c4.1,0,6.4,1.8,6.4,6.2v8.6h-3.7l-0.3-1.2c-0.4,0.8-1.5,1.6-3.5,1.6C571,20.3,569,18.9,569,16.1z M577.1,13.6l-1.6,0.4
			c-1.9,0.4-2.6,0.9-2.6,1.9c0,1,0.7,1.4,1.7,1.4c1.1,0,2.1-0.4,2.5-1V13.6z"/>
	</g>
</g>
</svg>
