<!-- Generator: Adobe Illustrator 22.1.0, SVG Export Plug-In  -->
<svg version="1.1"
	 xmlns="http://www.w3.org/2000/svg" xmlns:xlink="http://www.w3.org/1999/xlink" xmlns:a="http://ns.adobe.com/AdobeSVGViewerExtensions/3.0/"
	 x="0px" y="0px" width="279.2px" height="56.9px" viewBox="0 0 279.2 56.9" style="enable-background:new 0 0 279.2 56.9;"
	 xml:space="preserve">
<style type="text/css">
	.st0{fill:#FFFFFF;}
</style>
<defs>
</defs>
<g id="XMLID_1_">
	<g id="XMLID_3_">
		<path id="XMLID_97_" class="st0" d="M0,2.3h12.1v3.6H4.4v3.4h5.1v3.4H4.4v3.9h7.7v3.6H0V2.3z"/>
		<path id="XMLID_95_" class="st0" d="M14,19.4v-3.8c0.9,0.9,2.3,1.6,4.3,1.6c1.9,0,2.5-0.6,2.5-1.3c0-0.8-0.3-1.1-2-1.3l-0.7-0.1
			c-3-0.4-4.3-1.9-4.3-4.5c0-2.5,1.7-4.8,6-4.8c2.2,0,3.8,0.5,4.5,1.2v3.8c-0.9-1-2.5-1.6-4.4-1.6c-1.7,0-2.2,0.5-2.2,1.2
			s0.3,1.1,1.8,1.3l0.8,0.1c3.2,0.5,4.6,1.6,4.6,4.3c0,2.5-1.7,5-6.3,5C16.3,20.6,14.8,20.1,14,19.4z"/>
		<path id="XMLID_93_" class="st0" d="M27.8,16V9h-1.7V7.5l1.4-1.8l2.6-3.4h2v3.4h3.4V9h-3.4v6.6c0,1,0.3,1.6,1.2,1.6
			c1,0,1.7-0.5,2.1-1.2v3.5c-0.5,0.6-1.5,1.2-3.3,1.2C29,20.6,27.8,18.9,27.8,16z"/>
		<path id="XMLID_90_" class="st0" d="M37,16.4c0-2.9,2-4.1,6.1-4.7l2.1-0.3c0-2-1-2.6-2.9-2.6c-2.1,0-4,1-4.7,2.6V7.2
			c0.6-0.8,2.2-1.9,5.4-1.9c4.1,0,6.4,1.9,6.4,6.2v8.7h-3.7L45.4,19c-0.4,0.8-1.5,1.6-3.6,1.6C39,20.6,37,19.2,37,16.4z M45.2,13.9
			l-1.6,0.4c-1.9,0.4-2.6,0.9-2.6,1.9c0,1,0.7,1.4,1.7,1.4c1.1,0,2.1-0.4,2.5-1V13.9z"/>
		<path id="XMLID_87_" class="st0" d="M56.1,19.2l-0.5,1h-3.3V0.4h4.3v6.4c0.4-0.7,1.7-1.6,3.7-1.6c3.5,0,5.8,2,5.8,7.3
			c0,5.3-2.8,8.1-6.4,8.1C57.7,20.6,56.7,19.8,56.1,19.2z M56.6,16.4c0.6,0.7,1.4,0.9,2.3,0.9c2,0,2.8-2,2.8-4.5c0-2.5-0.7-4-2.7-4
			c-1.2,0-2,0.5-2.4,1.1V16.4z"/>
		<path id="XMLID_85_" class="st0" d="M68.4,16.6V0.4h4.3V16c0,0.8,0.3,1.1,0.9,1.1s1-0.3,1.3-0.6v3.3c-0.3,0.3-1.2,0.8-2.5,0.8
			C69.7,20.6,68.4,19.2,68.4,16.6z"/>
		<path id="XMLID_82_" class="st0" d="M76.7,2.2c0-1.3,0.8-2,2.2-2c1.4,0,2.2,0.8,2.2,2c0,1.3-0.9,2-2.2,2
			C77.5,4.2,76.7,3.5,76.7,2.2z M76.8,5.7h4.3v14.5h-4.3V5.7z"/>
		<path id="XMLID_80_" class="st0" d="M83.7,19.4v-3.8c0.9,0.9,2.3,1.6,4.3,1.6c1.9,0,2.5-0.6,2.5-1.3c0-0.8-0.3-1.1-2-1.3l-0.7-0.1
			c-3-0.4-4.3-1.9-4.3-4.5c0-2.5,1.7-4.8,6-4.8c2.2,0,3.8,0.5,4.5,1.2v3.8c-0.9-1-2.5-1.6-4.4-1.6c-1.7,0-2.2,0.5-2.2,1.2
			s0.3,1.1,1.8,1.3l0.8,0.1c3.2,0.5,4.6,1.6,4.6,4.3c0,2.5-1.7,5-6.3,5C86,20.6,84.5,20.1,83.7,19.4z"/>
		<path id="XMLID_78_" class="st0" d="M96.8,0.4h4.3v6.3c0.7-0.8,2-1.5,3.7-1.5c3.8,0,5.2,2,5.2,5.9v9h-4.3v-8.3
			c0-2.4-0.6-3.3-2.2-3.3c-1.3,0-2,0.6-2.4,1.1v10.4h-4.3V0.4z"/>
		<path id="XMLID_75_" class="st0" d="M112.1,12.9c0-5.3,3.5-7.7,7-7.7c3.4,0,6.7,1.5,6.7,7v1.9h-9.3c0.2,1.6,1.2,2.9,3.9,2.9
			c2.4,0,3.9-0.9,4.7-1.7V19c-0.8,0.7-2.5,1.6-5.4,1.6C115,20.6,112.1,18.2,112.1,12.9z M121.8,11.5v-0.1c0-1.7-0.8-2.8-2.6-2.8
			c-1.7,0-2.6,1.4-2.7,2.9H121.8z"/>
		<path id="XMLID_72_" class="st0" d="M127.5,13.1c0-5.3,2.6-7.8,6.4-7.8c1.1,0,2.4,0.2,3.1,0.9V0.4h4.3v19.7h-3.8l-0.3-1.3
			c-0.5,0.8-1.7,1.7-3.8,1.7C129.9,20.6,127.5,18.4,127.5,13.1z M137,9.5c-0.5-0.7-1.4-0.9-2.3-0.9c-2,0-2.8,2-2.8,4.5
			c0,2.5,0.7,4.1,2.7,4.1c1.2,0,2.1-0.5,2.4-1.1V9.5z"/>
		<path id="XMLID_70_" class="st0" d="M150.2,19.3V15c0.9,1,2.6,2,4.8,2c2,0,2.9-0.8,2.9-2c0-1.1-0.7-1.5-2.4-1.9l-0.7-0.1
			c-2.8-0.6-4.7-2.2-4.7-5.4c0-3.6,2.5-5.7,6.7-5.7c2.7,0,4.2,0.7,4.9,1.3v4.3c-0.9-1.1-2.6-2-4.9-2c-1.6,0-2.5,0.5-2.5,1.7
			c0,1,0.4,1.5,2.1,1.9l0.7,0.1c3,0.6,5,1.9,5,5.2c0,3.6-2.5,6.1-7.1,6.1C152.3,20.6,150.9,19.9,150.2,19.3z"/>
		<path id="XMLID_67_" class="st0" d="M163.8,16.4c0-2.9,2-4.1,6.1-4.7l2.1-0.3c0-2-1-2.6-2.9-2.6c-2.1,0-4,1-4.7,2.6V7.2
			c0.6-0.8,2.2-1.9,5.4-1.9c4.1,0,6.4,1.9,6.4,6.2v8.7h-3.7l-0.3-1.2c-0.4,0.8-1.5,1.6-3.6,1.6C165.8,20.6,163.8,19.2,163.8,16.4z
			 M172,13.9l-1.6,0.4c-1.9,0.4-2.6,0.9-2.6,1.9c0,1,0.7,1.4,1.7,1.4c1.1,0,2.1-0.4,2.5-1V13.9z"/>
		<path id="XMLID_65_" class="st0" d="M179.9,9.1h-1.7V7.6l1.6-1.4c-0.3-0.5-0.5-1.2-0.5-2.1c0-2.7,2.4-4.1,5.1-4.1
			c2,0,3.1,0.5,3.5,0.9v3.5c-0.5-0.7-1.5-1.1-2.6-1.1c-1.3,0-1.8,0.5-1.8,1.4c0,0.4,0.2,0.8,0.3,1h2.8v3.3h-2.6v11.1h-4.3V9.1z"/>
		<path id="XMLID_62_" class="st0" d="M187.9,12.9c0-5.3,3.5-7.7,7-7.7c3.4,0,6.7,1.5,6.7,7v1.9h-9.3c0.2,1.6,1.2,2.9,3.9,2.9
			c2.4,0,3.9-0.9,4.7-1.7V19c-0.8,0.7-2.5,1.6-5.4,1.6C190.7,20.6,187.9,18.2,187.9,12.9z M197.6,11.5v-0.1c0-1.7-0.8-2.8-2.6-2.8
			c-1.7,0-2.6,1.4-2.7,2.9H197.6z"/>
		<path id="XMLID_60_" class="st0" d="M204.6,16V9h-1.7V7.5l1.4-1.8l2.6-3.4h2v3.4h3.4V9h-3.4v6.6c0,1,0.3,1.6,1.2,1.6
			c1,0,1.7-0.5,2.1-1.2v3.5c-0.5,0.6-1.5,1.2-3.3,1.2C205.9,20.6,204.6,18.9,204.6,16z"/>
		<path id="XMLID_58_" class="st0" d="M213.8,24.8v-3.4c0.6,0.6,1.5,1,2.5,1c1,0,1.9-0.3,2.6-1.9l-5.7-14.8h4.7l3,9.4l2.5-9.4h4.1
			l-4.1,13.7c-1.1,3.5-2.9,6.3-6.6,6.3C215.4,25.7,214.3,25.3,213.8,24.8z"/>
		<path id="XMLID_55_" class="st0" d="M234.7,16.4c0-2.9,2-4.1,6.1-4.7l2.1-0.3c0-2-1-2.6-2.9-2.6c-2.1,0-4,1-4.7,2.6V7.2
			c0.6-0.8,2.2-1.9,5.4-1.9c4.1,0,6.4,1.9,6.4,6.2v8.7h-3.7L243,19c-0.4,0.8-1.5,1.6-3.6,1.6C236.7,20.6,234.7,19.2,234.7,16.4z
			 M242.8,13.9l-1.6,0.4c-1.9,0.4-2.6,0.9-2.6,1.9c0,1,0.7,1.4,1.7,1.4c1.1,0,2.1-0.4,2.5-1V13.9z"/>
		<path id="XMLID_53_" class="st0" d="M250,5.7h3.8l0.3,1.3c0.6-1,1.9-1.7,3.8-1.7c3.8,0,5.2,2,5.2,5.9v9h-4.3v-8.3
			c0-2.4-0.6-3.3-2.2-3.3c-1.3,0-2.1,0.6-2.4,1.2v10.4H250V5.7z"/>
		<path id="XMLID_50_" class="st0" d="M265.4,13.1c0-5.3,2.6-7.8,6.4-7.8c1.1,0,2.4,0.2,3.1,0.9V0.4h4.3v19.7h-3.8l-0.3-1.3
			c-0.5,0.8-1.7,1.7-3.8,1.7C267.9,20.6,265.4,18.4,265.4,13.1z M274.9,9.5c-0.5-0.7-1.4-0.9-2.3-0.9c-2,0-2.8,2-2.8,4.5
			c0,2.5,0.7,4.1,2.7,4.1c1.2,0,2.1-0.5,2.4-1.1V9.5z"/>
		<path id="XMLID_48_" class="st0" d="M29.5,37.3h-4.9v-3.7h14.1v3.7h-4.9v14.2h-4.4V37.3z"/>
		<path id="XMLID_45_" class="st0" d="M38.6,44.2c0-5.3,3.4-7.7,7.5-7.7c4.2,0,7.1,2.3,7.1,7.7c0,5.4-3.4,7.7-7.5,7.7
			C41.6,51.9,38.6,49.6,38.6,44.2z M48.9,44.2c0-2.5-0.9-4.2-2.9-4.2c-2,0-2.9,1.7-2.9,4.2c0,2.5,0.9,4.2,2.9,4.2
			C47.9,48.4,48.9,46.8,48.9,44.2z"/>
		<path id="XMLID_43_" class="st0" d="M55.4,47.9V31.7h4.3v15.6c0,0.8,0.3,1.1,0.9,1.1s1-0.3,1.3-0.6v3.3c-0.3,0.3-1.2,0.8-2.5,0.8
			C56.8,51.9,55.4,50.5,55.4,47.9z"/>
		<path id="XMLID_40_" class="st0" d="M63.1,44.2c0-5.3,3.5-7.7,7-7.7c3.4,0,6.7,1.5,6.7,7v1.9h-9.3c0.2,1.6,1.2,2.9,3.9,2.9
			c2.4,0,3.9-0.9,4.7-1.7v3.6c-0.8,0.7-2.5,1.6-5.4,1.6C65.9,51.9,63.1,49.5,63.1,44.2z M72.8,42.8v-0.1c0-1.7-0.8-2.8-2.6-2.8
			c-1.7,0-2.6,1.4-2.7,2.9H72.8z"/>
		<path id="XMLID_38_" class="st0" d="M79.1,37h3.5l0.3,1.9c0.2-1.5,1.4-2.3,2.8-2.3c0.8,0,1.2,0.2,1.5,0.4v3.9
			c-0.4-0.3-0.9-0.4-1.7-0.4c-1.1,0-1.7,0.4-2.1,1.2v9.9h-4.3V37z"/>
		<path id="XMLID_35_" class="st0" d="M88.3,47.6c0-2.9,2-4.1,6.1-4.7l2.1-0.3c0-2-1-2.6-2.9-2.6c-2.1,0-4,1-4.7,2.6v-4.1
			c0.6-0.8,2.2-1.9,5.4-1.9c4.1,0,6.4,1.9,6.4,6.2v8.7H97l-0.3-1.2c-0.4,0.8-1.5,1.6-3.6,1.6C90.3,51.9,88.3,50.5,88.3,47.6z
			 M96.4,45.2l-1.6,0.4c-1.9,0.4-2.6,0.9-2.6,1.9c0,1,0.7,1.4,1.7,1.4c1.1,0,2.1-0.4,2.5-1V45.2z"/>
		<path id="XMLID_32_" class="st0" d="M107.4,50.5l-0.5,1h-3.3V31.7h4.3v6.4c0.4-0.7,1.7-1.6,3.7-1.6c3.5,0,5.8,2,5.8,7.3
			c0,5.3-2.8,8.1-6.4,8.1C109,51.9,108,51.1,107.4,50.5z M107.9,47.6c0.6,0.7,1.4,0.9,2.3,0.9c2,0,2.8-2,2.8-4.5c0-2.5-0.7-4-2.7-4
			c-1.2,0-2,0.5-2.4,1.1V47.6z"/>
		<path id="XMLID_29_" class="st0" d="M119.7,33.5c0-1.3,0.8-2,2.2-2c1.4,0,2.2,0.8,2.2,2c0,1.3-0.9,2-2.2,2
			C120.5,35.5,119.7,34.8,119.7,33.5z M119.7,37h4.3v14.5h-4.3V37z"/>
		<path id="XMLID_27_" class="st0" d="M127,47.9V31.7h4.3v15.6c0,0.8,0.3,1.1,0.9,1.1s1-0.3,1.3-0.6v3.3c-0.3,0.3-1.2,0.8-2.5,0.8
			C128.3,51.9,127,50.5,127,47.9z"/>
		<path id="XMLID_24_" class="st0" d="M135.3,33.5c0-1.3,0.8-2,2.2-2c1.4,0,2.2,0.8,2.2,2c0,1.3-0.9,2-2.2,2
			C136.1,35.5,135.3,34.8,135.3,33.5z M135.3,37h4.3v14.5h-4.3V37z"/>
		<path id="XMLID_22_" class="st0" d="M143.4,47.3v-7h-1.7v-1.5l1.4-1.8l2.6-3.4h2V37h3.4v3.3h-3.4v6.6c0,1,0.3,1.6,1.2,1.6
			c1,0,1.7-0.5,2.1-1.2v3.5c-0.5,0.6-1.5,1.2-3.3,1.2C144.6,51.9,143.4,50.2,143.4,47.3z"/>
		<path id="XMLID_20_" class="st0" d="M152.5,56.1v-3.4c0.6,0.6,1.5,1,2.5,1c1,0,1.9-0.3,2.6-1.9L151.8,37h4.7l3,9.4L162,37h4.1
			L162,50.7c-1.1,3.5-2.9,6.3-6.6,6.3C154.1,56.9,153.1,56.6,152.5,56.1z"/>
		<path id="XMLID_17_" class="st0" d="M174.1,37h3.8l0.3,1.3c0.5-0.8,1.7-1.7,3.8-1.7c3.6,0,5.9,2,5.9,7.3c0,5.3-2.8,8.1-6.4,8.1
			c-1.1,0-2.4-0.2-3.1-0.9v5.6h-4.3V37z M183.5,44c0-2.5-0.7-4-2.7-4c-1.2,0-2,0.5-2.4,1.1v6.5c0.5,0.7,1.4,0.9,2.3,0.9
			C182.7,48.6,183.5,46.5,183.5,44z"/>
		<path id="XMLID_15_" class="st0" d="M190.2,37h3.5l0.3,1.9c0.2-1.5,1.4-2.3,2.8-2.3c0.8,0,1.2,0.2,1.5,0.4v3.9
			c-0.4-0.3-0.9-0.4-1.7-0.4c-1.1,0-1.7,0.4-2.1,1.2v9.9h-4.3V37z"/>
		<path id="XMLID_12_" class="st0" d="M199.3,44.2c0-5.3,3.4-7.7,7.5-7.7c4.2,0,7.1,2.3,7.1,7.7c0,5.4-3.4,7.7-7.5,7.7
			C202.2,51.9,199.3,49.6,199.3,44.2z M209.5,44.2c0-2.5-0.9-4.2-2.9-4.2c-2,0-2.9,1.7-2.9,4.2c0,2.5,0.9,4.2,2.9,4.2
			C208.6,48.4,209.5,46.8,209.5,44.2z"/>
		<path id="XMLID_9_" class="st0" d="M216.9,40.3h-1.7V39l1.6-1.4c-0.3-0.5-0.5-1.2-0.5-2.1c0-2.7,2.3-4.1,4.9-4.1
			c1.6,0,2.5,0.5,2.8,0.8v3.5c-0.4-0.7-1.1-1-2-1c-0.9,0-1.6,0.5-1.6,1.5c0,0.5,0.2,0.8,0.3,1.1h8.9v14.4h-4.3V40.3h-4.3v11.2h-4.3
			V40.3z M225.4,33.6c0-1.3,0.8-2,2.2-2c1.4,0,2.2,0.8,2.2,2c0,1.3-0.9,2-2.2,2C226.2,35.6,225.4,34.9,225.4,33.6z"/>
		<path id="XMLID_7_" class="st0" d="M232.7,47.9V31.7h4.3v15.6c0,0.8,0.3,1.1,0.9,1.1s1-0.3,1.3-0.6v3.3c-0.3,0.3-1.2,0.8-2.5,0.8
			C234,51.9,232.7,50.5,232.7,47.9z"/>
		<path id="XMLID_4_" class="st0" d="M240.4,44.2c0-5.3,3.5-7.7,7-7.7c3.4,0,6.7,1.5,6.7,7v1.9h-9.3c0.2,1.6,1.2,2.9,3.9,2.9
			c2.4,0,3.9-0.9,4.7-1.7v3.6c-0.8,0.7-2.5,1.6-5.4,1.6C243.2,51.9,240.4,49.5,240.4,44.2z M250.1,42.8v-0.1c0-1.7-0.8-2.8-2.6-2.8
			c-1.7,0-2.6,1.4-2.7,2.9H250.1z"/>
	</g>
</g>
</svg>
