<!-- Generator: Adobe Illustrator 22.1.0, SVG Export Plug-In  -->
<svg version="1.1"
	 xmlns="http://www.w3.org/2000/svg" xmlns:xlink="http://www.w3.org/1999/xlink" xmlns:a="http://ns.adobe.com/AdobeSVGViewerExtensions/3.0/"
	 x="0px" y="0px" width="522.9px" height="26px" viewBox="0 0 522.9 26" style="enable-background:new 0 0 522.9 26;"
	 xml:space="preserve">
<style type="text/css">
	.st0{fill:#FFFFFF;}
</style>
<defs>
</defs>
<g id="XMLID_1_">
	<g id="XMLID_3_">
		<path id="XMLID_96_" class="st0" d="M0,2.3h12.3V6H4.4v3.4h5.1v3.5H4.4v3.9h7.8v3.6H0V2.3z"/>
		<path id="XMLID_94_" class="st0" d="M14.2,19.7v-3.9c0.9,0.9,2.4,1.7,4.4,1.7c1.9,0,2.5-0.6,2.5-1.3c0-0.8-0.3-1.1-2-1.3l-0.7-0.1
			c-3-0.4-4.4-1.9-4.4-4.5c0-2.5,1.7-4.8,6-4.8c2.2,0,3.8,0.5,4.6,1.2v3.8c-0.9-1-2.5-1.6-4.4-1.6c-1.7,0-2.3,0.5-2.3,1.2
			c0,0.7,0.3,1.1,1.8,1.3l0.8,0.1c3.2,0.5,4.6,1.7,4.6,4.4c0,2.5-1.8,5-6.4,5C16.5,20.9,15,20.3,14.2,19.7z"/>
		<path id="XMLID_92_" class="st0" d="M28.1,16.2V9.1h-1.7V7.6l1.4-1.8l2.6-3.5h2v3.5h3.4v3.4h-3.4v6.7c0,1.1,0.3,1.6,1.2,1.6
			c1,0,1.7-0.5,2.1-1.2v3.5c-0.5,0.6-1.5,1.2-3.4,1.2C29.4,20.9,28.1,19.1,28.1,16.2z"/>
		<path id="XMLID_89_" class="st0" d="M37.4,16.6c0-3,2.1-4.2,6.2-4.8l2.1-0.3c0-2-1-2.6-2.9-2.6c-2.1,0-4,1-4.8,2.6V7.3
			c0.6-0.8,2.2-2,5.4-2c4.2,0,6.5,1.9,6.5,6.3v8.8h-3.7l-0.3-1.2c-0.4,0.8-1.6,1.7-3.6,1.7C39.5,20.9,37.4,19.5,37.4,16.6z
			 M45.7,14.1l-1.7,0.4c-1.9,0.4-2.6,0.9-2.6,1.9c0,1,0.7,1.4,1.8,1.4c1.2,0,2.1-0.4,2.5-1V14.1z"/>
		<path id="XMLID_86_" class="st0" d="M56.8,19.4l-0.5,1H53v-20h4.3v6.5c0.4-0.7,1.7-1.6,3.7-1.6c3.6,0,5.9,2,5.9,7.4
			c0,5.4-2.8,8.2-6.5,8.2C58.4,20.9,57.4,20.1,56.8,19.4z M57.3,16.6c0.6,0.7,1.4,1,2.4,1c2.1,0,2.9-2.1,2.9-4.6s-0.7-4.1-2.8-4.1
			c-1.2,0-2,0.5-2.5,1.2V16.6z"/>
		<path id="XMLID_84_" class="st0" d="M69.3,16.8V0.4h4.3v15.8c0,0.8,0.3,1.1,0.9,1.1c0.6,0,1-0.3,1.3-0.6v3.3
			c-0.3,0.3-1.2,0.8-2.6,0.8C70.6,20.9,69.3,19.4,69.3,16.8z"/>
		<path id="XMLID_81_" class="st0" d="M77.7,2.2c0-1.3,0.8-2.1,2.2-2.1c1.4,0,2.3,0.8,2.3,2.1c0,1.3-0.9,2-2.3,2
			C78.5,4.3,77.7,3.5,77.7,2.2z M77.7,5.8h4.3v14.7h-4.3V5.8z"/>
		<path id="XMLID_79_" class="st0" d="M84.7,19.7v-3.9c0.9,0.9,2.4,1.7,4.4,1.7c1.9,0,2.5-0.6,2.5-1.3c0-0.8-0.3-1.1-2-1.3l-0.7-0.1
			c-3-0.4-4.4-1.9-4.4-4.5c0-2.5,1.7-4.8,6-4.8c2.2,0,3.8,0.5,4.6,1.2v3.8c-0.9-1-2.5-1.6-4.4-1.6c-1.7,0-2.3,0.5-2.3,1.2
			c0,0.7,0.3,1.1,1.8,1.3l0.8,0.1c3.2,0.5,4.6,1.7,4.6,4.4c0,2.5-1.8,5-6.4,5C87,20.9,85.5,20.3,84.7,19.7z"/>
		<path id="XMLID_77_" class="st0" d="M97.9,0.4h4.3v6.4c0.7-0.8,2-1.5,3.7-1.5c3.8,0,5.3,2,5.3,6v9.1h-4.3v-8.4
			c0-2.4-0.6-3.3-2.2-3.3c-1.3,0-2.1,0.6-2.4,1.1v10.5h-4.3V0.4z"/>
		<path id="XMLID_74_" class="st0" d="M113.5,13.1c0-5.4,3.5-7.8,7.1-7.8c3.5,0,6.8,1.5,6.8,7.1v1.9h-9.5c0.2,1.7,1.2,3,4,3
			c2.5,0,4-0.9,4.8-1.7v3.6c-0.8,0.7-2.5,1.6-5.4,1.6C116.4,20.9,113.5,18.4,113.5,13.1z M123.3,11.6v-0.1c0-1.8-0.8-2.8-2.6-2.8
			c-1.7,0-2.6,1.4-2.7,2.9H123.3z"/>
		<path id="XMLID_71_" class="st0" d="M129,13.3c0-5.3,2.6-7.9,6.5-7.9c1.2,0,2.5,0.2,3.1,0.9V0.4h4.3v20h-3.8l-0.3-1.3
			c-0.5,0.8-1.7,1.7-3.8,1.7C131.5,20.9,129,18.6,129,13.3z M138.6,9.7c-0.5-0.7-1.4-1-2.4-1c-2.1,0-2.8,2-2.8,4.6s0.7,4.1,2.7,4.1
			c1.2,0,2.1-0.5,2.5-1.1V9.7z"/>
		<path id="XMLID_69_" class="st0" d="M152,19.6v-4.4c0.9,1.1,2.6,2.1,4.8,2.1c2,0,3-0.8,3-2.1c0-1.1-0.7-1.5-2.4-1.9l-0.7-0.1
			c-2.9-0.6-4.8-2.2-4.8-5.4c0-3.6,2.6-5.8,6.8-5.8c2.7,0,4.2,0.7,4.9,1.3v4.4c-0.9-1.1-2.6-2-4.9-2c-1.6,0-2.5,0.6-2.5,1.7
			c0,1.1,0.4,1.6,2.1,1.9l0.7,0.1c3.1,0.6,5.1,2,5.1,5.3c0,3.6-2.5,6.2-7.2,6.2C154.2,20.9,152.7,20.1,152,19.6z"/>
		<path id="XMLID_66_" class="st0" d="M165.8,16.6c0-3,2.1-4.2,6.2-4.8l2.1-0.3c0-2-1-2.6-2.9-2.6c-2.1,0-4,1-4.8,2.6V7.3
			c0.6-0.8,2.2-2,5.4-2c4.2,0,6.5,1.9,6.5,6.3v8.8h-3.7l-0.3-1.2c-0.4,0.8-1.6,1.7-3.6,1.7C167.9,20.9,165.8,19.5,165.8,16.6z
			 M174.1,14.1l-1.7,0.4c-1.9,0.4-2.6,0.9-2.6,1.9c0,1,0.7,1.4,1.8,1.4c1.2,0,2.1-0.4,2.5-1V14.1z"/>
		<path id="XMLID_64_" class="st0" d="M182.1,9.2h-1.7V7.7l1.6-1.4c-0.3-0.5-0.5-1.2-0.5-2.1c0-2.7,2.4-4.1,5.2-4.1
			c2,0,3.1,0.5,3.6,0.9v3.6c-0.5-0.7-1.5-1.1-2.7-1.1c-1.3,0-1.8,0.5-1.8,1.4c0,0.4,0.2,0.8,0.3,1.1h2.9v3.4h-2.6v11.2h-4.3V9.2z"/>
		<path id="XMLID_61_" class="st0" d="M190.2,13.1c0-5.4,3.5-7.8,7.1-7.8c3.5,0,6.8,1.5,6.8,7.1v1.9h-9.5c0.2,1.7,1.2,3,4,3
			c2.5,0,4-0.9,4.8-1.7v3.6c-0.8,0.7-2.5,1.6-5.4,1.6C193.1,20.9,190.2,18.4,190.2,13.1z M200,11.6v-0.1c0-1.8-0.8-2.8-2.6-2.8
			c-1.7,0-2.6,1.4-2.7,2.9H200z"/>
		<path id="XMLID_59_" class="st0" d="M207.1,16.2V9.1h-1.7V7.6l1.4-1.8l2.6-3.5h2v3.5h3.4v3.4h-3.4v6.7c0,1.1,0.3,1.6,1.2,1.6
			c1,0,1.7-0.5,2.1-1.2v3.5c-0.5,0.6-1.5,1.2-3.4,1.2C208.4,20.9,207.1,19.1,207.1,16.2z"/>
		<path id="XMLID_57_" class="st0" d="M216.4,25.1v-3.5c0.6,0.6,1.5,1,2.5,1c1,0,1.9-0.3,2.6-2l-5.8-15h4.7l3,9.6l2.5-9.6h4.2
			L226,19.6c-1.1,3.6-2.9,6.3-6.7,6.3C218,26,217,25.6,216.4,25.1z"/>
		<path id="XMLID_54_" class="st0" d="M237.5,16.6c0-3,2.1-4.2,6.2-4.8l2.1-0.3c0-2-1-2.6-2.9-2.6c-2.1,0-4,1-4.8,2.6V7.3
			c0.6-0.8,2.2-2,5.4-2c4.2,0,6.5,1.9,6.5,6.3v8.8h-3.7l-0.3-1.2c-0.4,0.8-1.6,1.7-3.6,1.7C239.6,20.9,237.5,19.5,237.5,16.6z
			 M245.8,14.1l-1.7,0.4c-1.9,0.4-2.6,0.9-2.6,1.9c0,1,0.7,1.4,1.8,1.4c1.2,0,2.1-0.4,2.5-1V14.1z"/>
		<path id="XMLID_52_" class="st0" d="M253.1,5.8h3.8l0.3,1.3c0.6-1,2-1.7,3.9-1.7c3.8,0,5.3,2,5.3,6v9.1h-4.3v-8.4
			c0-2.4-0.6-3.3-2.2-3.3c-1.3,0-2.1,0.6-2.4,1.2v10.5h-4.3V5.8z"/>
		<path id="XMLID_49_" class="st0" d="M268.7,13.3c0-5.3,2.6-7.9,6.5-7.9c1.2,0,2.5,0.2,3.1,0.9V0.4h4.3v20h-3.8l-0.3-1.3
			c-0.5,0.8-1.7,1.7-3.8,1.7C271.2,20.9,268.7,18.6,268.7,13.3z M278.3,9.7c-0.5-0.7-1.4-1-2.4-1c-2.1,0-2.8,2-2.8,4.6
			s0.7,4.1,2.7,4.1c1.2,0,2.1-0.5,2.5-1.1V9.7z"/>
		<path id="XMLID_47_" class="st0" d="M296,6.1h-5V2.3h14.3v3.7h-4.9v14.4H296V6.1z"/>
		<path id="XMLID_44_" class="st0" d="M305.2,13.1c0-5.4,3.5-7.8,7.5-7.8c4.3,0,7.2,2.3,7.2,7.8c0,5.4-3.5,7.8-7.5,7.8
			C308.1,20.9,305.2,18.5,305.2,13.1z M315.5,13.1c0-2.5-0.9-4.2-3-4.2c-2,0-3,1.7-3,4.2c0,2.6,0.9,4.2,3,4.2
			C314.6,17.3,315.5,15.7,315.5,13.1z"/>
		<path id="XMLID_42_" class="st0" d="M322.2,16.8V0.4h4.3v15.8c0,0.8,0.3,1.1,0.9,1.1s1-0.3,1.3-0.6v3.3c-0.3,0.3-1.2,0.8-2.6,0.8
			C323.5,20.9,322.2,19.4,322.2,16.8z"/>
		<path id="XMLID_39_" class="st0" d="M329.9,13.1c0-5.4,3.5-7.8,7.1-7.8c3.5,0,6.8,1.5,6.8,7.1v1.9h-9.5c0.2,1.7,1.2,3,4,3
			c2.5,0,4-0.9,4.8-1.7v3.6c-0.8,0.7-2.5,1.6-5.4,1.6C332.8,20.9,329.9,18.4,329.9,13.1z M339.7,11.6v-0.1c0-1.8-0.8-2.8-2.6-2.8
			c-1.7,0-2.6,1.4-2.7,2.9H339.7z"/>
		<path id="XMLID_37_" class="st0" d="M346.1,5.8h3.6l0.3,2c0.2-1.5,1.5-2.4,2.8-2.4c0.8,0,1.2,0.2,1.5,0.4v3.9
			c-0.4-0.3-0.9-0.4-1.7-0.4c-1.1,0-1.8,0.4-2.2,1.2v10h-4.3V5.8z"/>
		<path id="XMLID_34_" class="st0" d="M355.4,16.6c0-3,2.1-4.2,6.2-4.8l2.1-0.3c0-2-1-2.6-2.9-2.6c-2.1,0-4,1-4.8,2.6V7.3
			c0.6-0.8,2.2-2,5.4-2c4.2,0,6.5,1.9,6.5,6.3v8.8h-3.7l-0.3-1.2c-0.4,0.8-1.6,1.7-3.6,1.7C357.5,20.9,355.4,19.5,355.4,16.6z
			 M363.7,14.1l-1.7,0.4c-1.9,0.4-2.6,0.9-2.6,1.9c0,1,0.7,1.4,1.8,1.4c1.2,0,2.1-0.4,2.5-1V14.1z"/>
		<path id="XMLID_31_" class="st0" d="M374.8,19.4l-0.5,1H371v-20h4.3v6.5c0.4-0.7,1.7-1.6,3.7-1.6c3.6,0,5.9,2,5.9,7.4
			c0,5.4-2.8,8.2-6.5,8.2C376.4,20.9,375.4,20.1,374.8,19.4z M375.3,16.6c0.6,0.7,1.4,1,2.4,1c2.1,0,2.9-2.1,2.9-4.6
			s-0.7-4.1-2.8-4.1c-1.2,0-2,0.5-2.5,1.2V16.6z"/>
		<path id="XMLID_28_" class="st0" d="M387.2,2.2c0-1.3,0.8-2.1,2.2-2.1c1.4,0,2.3,0.8,2.3,2.1c0,1.3-0.9,2-2.3,2
			C388.1,4.3,387.2,3.5,387.2,2.2z M387.3,5.8h4.3v14.7h-4.3V5.8z"/>
		<path id="XMLID_26_" class="st0" d="M394.6,16.8V0.4h4.3v15.8c0,0.8,0.3,1.1,0.9,1.1s1-0.3,1.3-0.6v3.3c-0.3,0.3-1.2,0.8-2.6,0.8
			C395.9,20.9,394.6,19.4,394.6,16.8z"/>
		<path id="XMLID_23_" class="st0" d="M403,2.2c0-1.3,0.8-2.1,2.2-2.1c1.4,0,2.3,0.8,2.3,2.1c0,1.3-0.9,2-2.3,2
			C403.8,4.3,403,3.5,403,2.2z M403.1,5.8h4.3v14.7h-4.3V5.8z"/>
		<path id="XMLID_21_" class="st0" d="M411.2,16.2V9.1h-1.7V7.6l1.4-1.8l2.6-3.5h2v3.5h3.4v3.4h-3.4v6.7c0,1.1,0.3,1.6,1.2,1.6
			c1,0,1.7-0.5,2.1-1.2v3.5c-0.5,0.6-1.5,1.2-3.4,1.2C412.4,20.9,411.2,19.1,411.2,16.2z"/>
		<path id="XMLID_19_" class="st0" d="M420.5,25.1v-3.5c0.6,0.6,1.5,1,2.5,1c1,0,1.9-0.3,2.6-2l-5.8-15h4.7l3,9.6l2.5-9.6h4.2
			l-4.1,13.9c-1.1,3.6-2.9,6.3-6.7,6.3C422.1,26,421,25.6,420.5,25.1z"/>
		<path id="XMLID_17_" class="st0" d="M442.5,2.3h6.1c5.4,0,7.7,2.2,7.7,6.1c0,3.9-2.3,6.8-7.7,6.8h-0.9v-3.2h0.8
			c2.2,0,3.2-1.2,3.2-3.1c0-2-1.1-3.1-3.3-3.1h-1.5v14.7h-4.4V2.3z"/>
		<path id="XMLID_15_" class="st0" d="M458.2,5.8h3.6l0.3,2c0.2-1.5,1.5-2.4,2.8-2.4c0.8,0,1.2,0.2,1.5,0.4v3.9
			c-0.4-0.3-0.9-0.4-1.7-0.4c-1.1,0-1.8,0.4-2.2,1.2v10h-4.3V5.8z"/>
		<path id="XMLID_12_" class="st0" d="M467.4,13.1c0-5.4,3.5-7.8,7.5-7.8c4.3,0,7.2,2.3,7.2,7.8c0,5.4-3.5,7.8-7.5,7.8
			C470.4,20.9,467.4,18.5,467.4,13.1z M477.8,13.1c0-2.5-0.9-4.2-3-4.2c-2,0-3,1.7-3,4.2c0,2.6,0.9,4.2,3,4.2
			C476.9,17.3,477.8,15.7,477.8,13.1z"/>
		<path id="XMLID_9_" class="st0" d="M485.3,9.1h-1.7V7.8l1.6-1.4c-0.3-0.5-0.5-1.2-0.5-2.2c0-2.7,2.3-4.2,5-4.2
			c1.7,0,2.5,0.5,2.9,0.8v3.6c-0.4-0.7-1.1-1.1-2-1.1c-1,0-1.6,0.5-1.6,1.5c0,0.5,0.2,0.8,0.3,1.1h9v14.5h-4.3V9.1h-4.4v11.4h-4.3
			V9.1z M493.9,2.4c0-1.3,0.8-2.1,2.2-2.1c1.4,0,2.3,0.8,2.3,2.1c0,1.3-0.9,2-2.3,2C494.7,4.4,493.9,3.7,493.9,2.4z"/>
		<path id="XMLID_7_" class="st0" d="M501.2,16.8V0.4h4.3v15.8c0,0.8,0.3,1.1,0.9,1.1s1-0.3,1.3-0.6v3.3c-0.3,0.3-1.2,0.8-2.6,0.8
			C502.6,20.9,501.2,19.4,501.2,16.8z"/>
		<path id="XMLID_4_" class="st0" d="M509,13.1c0-5.4,3.5-7.8,7.1-7.8c3.5,0,6.8,1.5,6.8,7.1v1.9h-9.5c0.2,1.7,1.2,3,4,3
			c2.5,0,4-0.9,4.8-1.7v3.6c-0.8,0.7-2.5,1.6-5.4,1.6C511.9,20.9,509,18.4,509,13.1z M518.8,11.6v-0.1c0-1.8-0.8-2.8-2.6-2.8
			c-1.7,0-2.6,1.4-2.7,2.9H518.8z"/>
	</g>
</g>
</svg>
