<!-- Generator: Adobe Illustrator 22.1.0, SVG Export Plug-In  -->
<svg version="1.1"
	 xmlns="http://www.w3.org/2000/svg" xmlns:xlink="http://www.w3.org/1999/xlink" xmlns:a="http://ns.adobe.com/AdobeSVGViewerExtensions/3.0/"
	 x="0px" y="0px" width="458.2px" height="53.4px" viewBox="0 0 458.2 53.4" style="enable-background:new 0 0 458.2 53.4;"
	 xml:space="preserve">
<style type="text/css">
	.st0{fill:#FFFFFF;}
</style>
<defs>
</defs>
<g id="XMLID_1_">
	<g>
		<path id="XMLID_95_" class="st0" d="M0.1,19.8v-4.5C1,16.4,2.8,17.4,5,17.4c2,0,3-0.8,3-2.1c0-1.1-0.7-1.5-2.5-1.9l-0.7-0.1
			C2,12.6,0,11,0,7.7C0,4,2.6,1.8,6.9,1.8c2.7,0,4.3,0.7,5,1.3v4.5c-0.9-1.1-2.7-2-5-2c-1.7,0-2.6,0.6-2.6,1.8c0,1.1,0.4,1.6,2.2,2
			l0.7,0.1c3.1,0.6,5.2,2,5.2,5.4c0,3.7-2.6,6.3-7.3,6.3C2.3,21.1,0.8,20.4,0.1,19.8z"/>
		<path id="XMLID_93_" class="st0" d="M14.9,0.3h4.4v6.5c0.7-0.8,2-1.5,3.8-1.5c3.9,0,5.4,2,5.4,6.1v9.3h-4.4v-8.5
			c0-2.5-0.6-3.4-2.3-3.4c-1.3,0-2.1,0.6-2.5,1.2v10.8h-4.4V0.3z"/>
		<path id="XMLID_90_" class="st0" d="M30.8,13.2c0-5.5,3.6-7.9,7.7-7.9c4.3,0,7.4,2.4,7.4,7.9c0,5.6-3.6,7.9-7.7,7.9
			C33.8,21.1,30.8,18.7,30.8,13.2z M41.4,13.2c0-2.6-0.9-4.3-3-4.3c-2.1,0-3,1.7-3,4.3c0,2.6,0.9,4.3,3,4.3
			C40.4,17.5,41.4,15.8,41.4,13.2z"/>
		<path id="XMLID_88_" class="st0" d="M46.8,5.7h4.4l2,7.9l3-7.9h1.6l3.1,7.9l1.9-7.9h4.1l-4.1,15h-2.7l-3.2-8.2l-3.2,8.2H51
			L46.8,5.7z"/>
		<path id="XMLID_86_" class="st0" d="M68.5,19.9V16c0.9,0.9,2.4,1.7,4.4,1.7c1.9,0,2.5-0.6,2.5-1.4c0-0.8-0.4-1.1-2-1.3l-0.8-0.1
			c-3.1-0.4-4.5-2-4.5-4.6c0-2.6,1.8-4.9,6.2-4.9c2.3,0,3.9,0.5,4.7,1.2v3.9c-0.9-1.1-2.5-1.6-4.5-1.6c-1.8,0-2.3,0.5-2.3,1.3
			c0,0.8,0.3,1.1,1.9,1.4l0.8,0.1c3.3,0.5,4.7,1.7,4.7,4.5c0,2.6-1.8,5.1-6.5,5.1C70.8,21.1,69.3,20.5,68.5,19.9z"/>
		<path id="XMLID_84_" class="st0" d="M88.6,2.2h4.1l5.4,7.9l5.1-7.9h4.1v18.5h-4.5V9l-4.7,7.2H98L93.1,9v11.6h-4.5V2.2z"/>
		<path id="XMLID_81_" class="st0" d="M110.7,2.1c0-1.3,0.8-2.1,2.3-2.1c1.4,0,2.3,0.8,2.3,2.1s-0.9,2.1-2.3,2.1
			C111.5,4.2,110.7,3.4,110.7,2.1z M110.8,5.7h4.4v15h-4.4V5.7z"/>
		<path id="XMLID_79_" class="st0" d="M118.3,5.7h3.9l0.3,1.3c0.6-1,2-1.7,4-1.7c3.9,0,5.4,2,5.4,6.1v9.3h-4.4v-8.5
			c0-2.5-0.6-3.4-2.3-3.4c-1.3,0-2.1,0.6-2.5,1.2v10.7h-4.4V5.7z"/>
		<path id="XMLID_76_" class="st0" d="M134.9,2.1c0-1.3,0.8-2.1,2.3-2.1c1.4,0,2.3,0.8,2.3,2.1s-0.9,2.1-2.3,2.1
			C135.7,4.2,134.9,3.4,134.9,2.1z M134.9,5.7h4.4v15h-4.4V5.7z"/>
		<path id="XMLID_74_" class="st0" d="M142.5,5.7h4l0.2,1.3c0.6-1,2-1.7,3.7-1.7c2.1,0,3.5,0.7,4.3,2.1c0.8-1,2.2-2.1,4.4-2.1
			c3.7,0,5.1,2,5.1,6.1v9.3h-4.4v-8.6c0-2.4-0.6-3.3-2-3.3c-1.1,0-2,0.6-2.3,1.2c0.1,0.4,0.1,0.9,0.1,1.4v9.3h-4.4v-8.6
			c0-2.4-0.6-3.3-2-3.3c-1.1,0-1.9,0.6-2.2,1.2v10.7h-4.4V5.7z"/>
		<path id="XMLID_71_" class="st0" d="M166.5,16.7c0-3,2.1-4.3,6.3-4.9l2.2-0.4c0-2-1-2.7-3-2.7c-2.1,0-4.1,1.1-4.9,2.7V7.2
			c0.6-0.9,2.3-2,5.6-2c4.3,0,6.7,1.9,6.7,6.4v9h-3.8l-0.3-1.3c-0.4,0.8-1.6,1.7-3.7,1.7C168.6,21.1,166.5,19.7,166.5,16.7z
			 M175,14.2l-1.7,0.4c-2,0.4-2.7,0.9-2.7,2c0,1,0.7,1.5,1.8,1.5c1.2,0,2.2-0.5,2.6-1V14.2z"/>
		<path id="XMLID_69_" class="st0" d="M182.3,16.9V0.3h4.4v16.1c0,0.8,0.3,1.2,0.9,1.2s1.1-0.3,1.3-0.6v3.4
			c-0.4,0.4-1.2,0.8-2.6,0.8C183.7,21.1,182.3,19.6,182.3,16.9z"/>
		<path id="XMLID_67_" class="st0" d="M197.6,2.2h4.5v18.5h-4.5V2.2z"/>
		<path id="XMLID_65_" class="st0" d="M205.5,5.7h4l0.2,1.3c0.6-1,2-1.7,3.7-1.7c2.1,0,3.5,0.7,4.3,2.1c0.8-1,2.2-2.1,4.4-2.1
			c3.7,0,5.1,2,5.1,6.1v9.3h-4.4v-8.6c0-2.4-0.6-3.3-2-3.3c-1.1,0-2,0.6-2.3,1.2c0.1,0.4,0.1,0.9,0.1,1.4v9.3h-4.4v-8.6
			c0-2.4-0.6-3.3-2-3.3c-1.1,0-1.9,0.6-2.2,1.2v10.7h-4.4V5.7z"/>
		<path id="XMLID_62_" class="st0" d="M230.2,5.7h3.9l0.3,1.3c0.5-0.8,1.7-1.7,3.9-1.7c3.7,0,6.1,2.1,6.1,7.5c0,5.5-2.9,8.3-6.7,8.3
			c-1.2,0-2.5-0.2-3.2-1v5.8h-4.4V5.7z M240,13c0-2.6-0.7-4.2-2.8-4.2c-1.3,0-2.1,0.5-2.5,1.2v6.7c0.5,0.7,1.4,0.9,2.4,0.9
			C239.2,17.7,240,15.6,240,13z"/>
		<path id="XMLID_59_" class="st0" d="M246.2,16.7c0-3,2.1-4.3,6.3-4.9l2.2-0.4c0-2-1-2.7-3-2.7c-2.1,0-4.1,1.1-4.9,2.7V7.2
			c0.6-0.9,2.3-2,5.6-2c4.3,0,6.7,1.9,6.7,6.4v9h-3.8l-0.3-1.3c-0.4,0.8-1.6,1.7-3.7,1.7C248.3,21.1,246.2,19.7,246.2,16.7z
			 M254.6,14.2l-1.7,0.4c-2,0.4-2.7,0.9-2.7,2c0,1,0.7,1.5,1.8,1.5c1.2,0,2.2-0.5,2.6-1V14.2z"/>
		<path id="XMLID_57_" class="st0" d="M261.3,13.2c0-5.4,3.4-7.9,7.5-7.9c2.2,0,3.8,0.6,4.4,1.3v4c-1-1.1-2.1-1.5-3.8-1.5
			c-2.3,0-3.6,1.5-3.6,4.2c0,2.7,1.3,4.2,3.6,4.2c1.7,0,2.9-0.6,3.9-1.6v3.8c-0.7,0.7-2.4,1.6-4.6,1.6
			C264.3,21.1,261.3,18.6,261.3,13.2z"/>
		<path id="XMLID_55_" class="st0" d="M276.6,16.4V9.1h-1.8V7.5l1.5-1.9l2.7-3.5h2v3.5h3.5v3.4H281v6.8c0,1.1,0.4,1.6,1.3,1.6
			c1,0,1.8-0.5,2.2-1.3v3.6c-0.5,0.6-1.5,1.2-3.4,1.2C277.8,21.1,276.6,19.3,276.6,16.4z"/>
		<path id="XMLID_52_" class="st0" d="M292.5,13.2c0-5.5,3.6-7.9,7.7-7.9c4.3,0,7.4,2.4,7.4,7.9c0,5.6-3.6,7.9-7.7,7.9
			C295.6,21.1,292.5,18.7,292.5,13.2z M303.1,13.2c0-2.6-0.9-4.3-3-4.3c-2.1,0-3,1.7-3,4.3c0,2.6,0.9,4.3,3,4.3
			C302.2,17.5,303.1,15.8,303.1,13.2z"/>
		<path id="XMLID_50_" class="st0" d="M310,5.7h3.9l0.3,1.3c0.6-1,2-1.7,4-1.7c3.9,0,5.4,2,5.4,6.1v9.3h-4.4v-8.5
			c0-2.5-0.6-3.4-2.3-3.4c-1.3,0-2.1,0.6-2.5,1.2v10.7H310V5.7z"/>
		<path id="XMLID_48_" class="st0" d="M333.3,2.2h4.1l5.4,7.9l5.1-7.9h4.1v18.5h-4.5V9l-4.7,7.2h-0.2L337.8,9v11.6h-4.5V2.2z"/>
		<path id="XMLID_45_" class="st0" d="M354.7,13.2c0-5.5,3.6-7.9,7.3-7.9c3.6,0,6.9,1.5,6.9,7.2v1.9h-9.6c0.2,1.7,1.2,3,4,3
			c2.5,0,4-0.9,4.9-1.7v3.7c-0.8,0.8-2.6,1.7-5.6,1.7C357.7,21.1,354.7,18.6,354.7,13.2z M364.7,11.7v-0.1c0-1.8-0.8-2.9-2.7-2.9
			c-1.7,0-2.7,1.4-2.7,3H364.7z"/>
		<path id="XMLID_43_" class="st0" d="M372,16.4V9.1h-1.8V7.5l1.5-1.9l2.7-3.5h2v3.5h3.5v3.4h-3.5v6.8c0,1.1,0.4,1.6,1.3,1.6
			c1,0,1.8-0.5,2.2-1.3v3.6c-0.5,0.6-1.5,1.2-3.4,1.2C373.3,21.1,372,19.3,372,16.4z"/>
		<path id="XMLID_40_" class="st0" d="M381.5,16.7c0-3,2.1-4.3,6.3-4.9l2.2-0.4c0-2-1-2.7-3-2.7c-2.1,0-4.1,1.1-4.9,2.7V7.2
			c0.6-0.9,2.3-2,5.6-2c4.3,0,6.7,1.9,6.7,6.4v9h-3.8l-0.3-1.3c-0.4,0.8-1.6,1.7-3.7,1.7C383.6,21.1,381.5,19.7,381.5,16.7z
			 M390,14.2l-1.7,0.4c-2,0.4-2.7,0.9-2.7,2c0,1,0.7,1.5,1.8,1.5c1.2,0,2.2-0.5,2.6-1V14.2z"/>
		<path id="XMLID_37_" class="st0" d="M401.3,19.6l-0.5,1.1h-3.4V0.3h4.4v6.6c0.4-0.7,1.7-1.6,3.8-1.6c3.7,0,6,2.1,6,7.5
			c0,5.5-2.9,8.3-6.7,8.3C402.9,21.1,401.9,20.3,401.3,19.6z M401.8,16.7c0.6,0.7,1.5,1,2.4,1c2.1,0,2.9-2.1,2.9-4.7
			s-0.7-4.2-2.8-4.2c-1.2,0-2,0.5-2.5,1.2V16.7z"/>
		<path id="XMLID_34_" class="st0" d="M413.4,13.2c0-5.5,3.6-7.9,7.7-7.9c4.3,0,7.4,2.4,7.4,7.9c0,5.6-3.6,7.9-7.7,7.9
			C416.4,21.1,413.4,18.7,413.4,13.2z M423.9,13.2c0-2.6-0.9-4.3-3-4.3c-2.1,0-3,1.7-3,4.3c0,2.6,0.9,4.3,3,4.3
			C423,17.5,423.9,15.8,423.9,13.2z"/>
		<path id="XMLID_32_" class="st0" d="M430.7,16.9V0.3h4.4v16.1c0,0.8,0.3,1.2,0.9,1.2s1.1-0.3,1.3-0.6v3.4
			c-0.4,0.4-1.2,0.8-2.6,0.8C432.1,21.1,430.7,19.6,430.7,16.9z"/>
		<path id="XMLID_29_" class="st0" d="M439.3,2.1c0-1.3,0.8-2.1,2.3-2.1c1.4,0,2.3,0.8,2.3,2.1s-0.9,2.1-2.3,2.1
			C440.2,4.2,439.3,3.4,439.3,2.1z M439.4,5.7h4.4v15h-4.4V5.7z"/>
		<path id="XMLID_27_" class="st0" d="M446.2,13.2c0-5.4,3.4-7.9,7.5-7.9c2.2,0,3.8,0.6,4.4,1.3v4c-1-1.1-2.1-1.5-3.8-1.5
			c-2.3,0-3.6,1.5-3.6,4.2c0,2.7,1.3,4.2,3.6,4.2c1.7,0,2.9-0.6,3.9-1.6v3.8c-0.7,0.7-2.4,1.6-4.6,1.6
			C449.2,21.1,446.2,18.6,446.2,13.2z"/>
		<path id="XMLID_25_" class="st0" d="M157,34.5h6.2c5.5,0,7.8,2.3,7.8,6.2c0,4-2.3,6.9-7.8,6.9h-0.9v-3.3h0.8
			c2.2,0,3.3-1.2,3.3-3.2c0-2.1-1.1-3.1-3.3-3.1h-1.5v15H157V34.5z"/>
		<path id="XMLID_22_" class="st0" d="M172.4,49c0-3,2.1-4.3,6.3-4.9l2.2-0.4c0-2-1-2.7-3-2.7c-2.1,0-4.1,1.1-4.9,2.7v-4.2
			c0.6-0.9,2.3-2,5.6-2c4.3,0,6.7,1.9,6.7,6.4v9h-3.8l-0.3-1.3c-0.4,0.8-1.6,1.7-3.7,1.7C174.5,53.4,172.4,52,172.4,49z M180.8,46.5
			l-1.7,0.4c-2,0.4-2.7,0.9-2.7,2c0,1,0.7,1.5,1.8,1.5c1.2,0,2.2-0.5,2.6-1V46.5z"/>
		<path id="XMLID_20_" class="st0" d="M188.2,38h3.6l0.3,2c0.2-1.6,1.5-2.4,2.9-2.4c0.8,0,1.3,0.2,1.5,0.4v4
			c-0.4-0.3-0.9-0.4-1.7-0.4c-1.1,0-1.8,0.5-2.2,1.2V53h-4.4V38z"/>
		<path id="XMLID_17_" class="st0" d="M197.7,49c0-3,2.1-4.3,6.3-4.9l2.2-0.4c0-2-1-2.7-3-2.7c-2.1,0-4.1,1.1-4.9,2.7v-4.2
			c0.6-0.9,2.3-2,5.6-2c4.3,0,6.7,1.9,6.7,6.4v9h-3.8l-0.3-1.3c-0.4,0.8-1.6,1.7-3.7,1.7C199.8,53.4,197.7,52,197.7,49z M206.1,46.5
			l-1.7,0.4c-2,0.4-2.7,0.9-2.7,2c0,1,0.7,1.5,1.8,1.5c1.2,0,2.2-0.5,2.6-1V46.5z"/>
		<path id="XMLID_15_" class="st0" d="M213.6,38h4l0.2,1.3c0.6-1,2-1.7,3.7-1.7c2.1,0,3.5,0.7,4.3,2.1c0.8-1,2.2-2.1,4.4-2.1
			c3.7,0,5.1,2,5.1,6.1V53h-4.4v-8.6c0-2.4-0.6-3.3-2-3.3c-1.1,0-2,0.6-2.3,1.2c0.1,0.4,0.1,0.9,0.1,1.4V53h-4.4v-8.6
			c0-2.4-0.6-3.3-2-3.3c-1.1,0-1.9,0.6-2.2,1.2V53h-4.4V38z"/>
		<path id="XMLID_12_" class="st0" d="M237.6,45.5c0-5.5,3.6-7.9,7.3-7.9c3.6,0,6.9,1.5,6.9,7.2v1.9h-9.6c0.2,1.7,1.2,3,4,3
			c2.5,0,4-0.9,4.9-1.7v3.7c-0.8,0.8-2.6,1.7-5.6,1.7C240.5,53.4,237.6,50.9,237.6,45.5z M247.6,44v-0.1c0-1.8-0.8-2.9-2.7-2.9
			c-1.7,0-2.7,1.4-2.7,3H247.6z"/>
		<path id="XMLID_10_" class="st0" d="M254.9,48.7v-7.2h-1.8v-1.6l1.5-1.9l2.7-3.5h2V38h3.5v3.4h-3.5v6.8c0,1.1,0.4,1.6,1.3,1.6
			c1,0,1.8-0.5,2.2-1.3v3.6c-0.5,0.6-1.5,1.2-3.4,1.2C256.1,53.4,254.9,51.7,254.9,48.7z"/>
		<path id="XMLID_7_" class="st0" d="M264.4,45.5c0-5.5,3.6-7.9,7.3-7.9c3.6,0,6.9,1.5,6.9,7.2v1.9h-9.6c0.2,1.7,1.2,3,4,3
			c2.5,0,4-0.9,4.9-1.7v3.7c-0.8,0.8-2.6,1.7-5.6,1.7C267.3,53.4,264.4,50.9,264.4,45.5z M274.4,44v-0.1c0-1.8-0.8-2.9-2.7-2.9
			c-1.7,0-2.7,1.4-2.7,3H274.4z"/>
		<path id="XMLID_5_" class="st0" d="M280.9,38h3.6l0.3,2c0.2-1.6,1.5-2.4,2.9-2.4c0.8,0,1.3,0.2,1.5,0.4v4
			c-0.4-0.3-0.9-0.4-1.7-0.4c-1.1,0-1.8,0.5-2.2,1.2V53h-4.4V38z"/>
		<path id="XMLID_3_" class="st0" d="M290.9,52.2v-3.9c0.9,0.9,2.4,1.7,4.4,1.7c1.9,0,2.5-0.6,2.5-1.4c0-0.8-0.4-1.1-2-1.3l-0.8-0.1
			c-3.1-0.4-4.5-2-4.5-4.6c0-2.6,1.8-4.9,6.2-4.9c2.3,0,3.9,0.5,4.7,1.2v3.9c-0.9-1.1-2.5-1.6-4.5-1.6c-1.8,0-2.3,0.5-2.3,1.3
			c0,0.8,0.3,1.1,1.9,1.4l0.8,0.1c3.3,0.5,4.7,1.7,4.7,4.5c0,2.6-1.8,5.1-6.5,5.1C293.2,53.4,291.7,52.9,290.9,52.2z"/>
	</g>
</g>
</svg>
