<!-- Generator: Adobe Illustrator 22.1.0, SVG Export Plug-In  -->
<svg version="1.1"
	 xmlns="http://www.w3.org/2000/svg" xmlns:xlink="http://www.w3.org/1999/xlink" xmlns:a="http://ns.adobe.com/AdobeSVGViewerExtensions/3.0/"
	 x="0px" y="0px" width="570.7px" height="56.5px" viewBox="0 0 570.7 56.5" style="enable-background:new 0 0 570.7 56.5;"
	 xml:space="preserve">
<style type="text/css">
	.st0{fill:#FFFFFF;}
</style>
<defs>
</defs>
<g id="XMLID_1_">
	<g id="XMLID_3_">
		<path id="XMLID_182_" class="st0" d="M6.5,3.9L5.8,2.1h4.5c0.6,1.5,6.5,16.2,7.1,17.8h-4.5l-1.2-3.2H5.4l-1.2,3.2H0L6.5,3.9z
			 M6.5,13.6h4L9,9.6L8.5,8.1L8,9.6L6.5,13.6z"/>
		<path id="XMLID_180_" class="st0" d="M17.9,12.7c0-5.2,3.3-7.6,7.2-7.6c2.1,0,3.6,0.6,4.3,1.2v3.8c-0.9-1-2-1.5-3.7-1.5
			c-2.2,0-3.4,1.5-3.4,4c0,2.6,1.2,4,3.4,4c1.6,0,2.8-0.6,3.7-1.6v3.7c-0.6,0.7-2.3,1.5-4.4,1.5C20.8,20.3,17.9,18,17.9,12.7z"/>
		<path id="XMLID_178_" class="st0" d="M31.9,0.3h4.3v6.3c0.6-0.8,1.9-1.5,3.7-1.5c3.7,0,5.2,1.9,5.2,5.9v8.9h-4.3v-8.2
			c0-2.4-0.6-3.2-2.2-3.2c-1.2,0-2,0.6-2.4,1.1v10.3h-4.3V0.3z"/>
		<path id="XMLID_175_" class="st0" d="M47.8,2c0-1.3,0.8-2,2.2-2c1.3,0,2.2,0.8,2.2,2c0,1.3-0.9,2-2.2,2C48.6,4,47.8,3.3,47.8,2z
			 M47.9,5.5h4.3v14.4h-4.3V5.5z"/>
		<path id="XMLID_172_" class="st0" d="M54.4,12.7c0-5.3,3.4-7.6,7-7.6c3.4,0,6.6,1.5,6.6,7v1.9h-9.3c0.2,1.6,1.2,2.9,3.9,2.9
			c2.4,0,3.9-0.9,4.7-1.7v3.6c-0.8,0.7-2.5,1.6-5.3,1.6C57.3,20.3,54.4,17.9,54.4,12.7z M64,11.3v-0.1c0-1.7-0.8-2.8-2.6-2.8
			c-1.7,0-2.6,1.4-2.6,2.9H64z"/>
		<path id="XMLID_170_" class="st0" d="M68.6,5.5h4.6l2.3,6.8l0.4,1.6c0.1-0.4,0.4-1.2,0.4-1.6l2.4-6.8h4.2l-5.8,14.4h-2.8L68.6,5.5
			z"/>
		<path id="XMLID_167_" class="st0" d="M84.4,2c0-1.3,0.8-2,2.2-2c1.3,0,2.2,0.8,2.2,2c0,1.3-0.9,2-2.2,2C85.2,4,84.4,3.3,84.4,2z
			 M84.5,5.5h4.3v14.4h-4.3V5.5z"/>
		<path id="XMLID_165_" class="st0" d="M91.8,5.5h3.8l0.3,1.2c0.6-1,1.9-1.7,3.8-1.7c3.7,0,5.2,1.9,5.2,5.9v8.9h-4.3v-8.2
			c0-2.4-0.6-3.2-2.2-3.2c-1.3,0-2,0.6-2.4,1.2v10.3h-4.3V5.5z"/>
		<path id="XMLID_162_" class="st0" d="M107.1,24v-3.2c1.4,0.8,3.1,1.3,6.1,1.3c3.4,0,4.8-0.4,4.8-1.5c0-0.9-0.9-1.1-3-1.1
			c-2.2,0-5.4,0.4-6.4,0.9v-2.9l2-3c-2.2-0.7-3.4-2.3-3.4-4.6c0-3.2,2.5-5.1,6.4-5.1c1.7,0,3.1,0.4,4.1,1c0.4-0.7,1.6-1.1,2.7-1.1
			c0.4,0,0.9,0.1,1.2,0.2v3.2c-0.3-0.2-0.6-0.2-1-0.2c-0.5,0-1,0.2-1.2,0.4c0.2,0.5,0.3,1,0.3,1.6c0,3.1-2.5,5-6.4,5h-0.3l-1.1,1.8
			c0.6-0.2,2.3-0.4,3.8-0.4c3.6,0,5.9,0.8,5.9,3.9c0,3.1-2.8,5-8.2,5C110.5,25.3,108.2,24.8,107.1,24z M115.8,10.1
			c0-1.3-0.9-2-2.3-2c-1.5,0-2.3,0.7-2.3,2c0,1.3,0.9,1.9,2.3,1.9C114.9,12,115.8,11.4,115.8,10.1z"/>
		<path id="XMLID_160_" class="st0" d="M128.3,2.1h4.6l3.8,11.4h0.1l3.8-11.4h4.3c-0.6,1.5-5.9,16.2-6.5,17.8h-3.6L128.3,2.1z"/>
		<path id="XMLID_157_" class="st0" d="M144.6,12.7c0-5.3,3.4-7.6,7-7.6c3.4,0,6.6,1.5,6.6,7v1.9H149c0.2,1.6,1.2,2.9,3.9,2.9
			c2.4,0,3.9-0.9,4.7-1.7v3.6c-0.8,0.7-2.5,1.6-5.3,1.6C147.4,20.3,144.6,17.9,144.6,12.7z M154.2,11.3v-0.1c0-1.7-0.8-2.8-2.6-2.8
			c-1.7,0-2.6,1.4-2.6,2.9H154.2z"/>
		<path id="XMLID_155_" class="st0" d="M160.5,5.5h3.5l0.3,1.9c0.2-1.5,1.4-2.3,2.8-2.3c0.8,0,1.2,0.2,1.5,0.4v3.9
			c-0.4-0.3-0.9-0.4-1.7-0.4c-1.1,0-1.7,0.4-2.1,1.2v9.9h-4.3V5.5z"/>
		<path id="XMLID_153_" class="st0" d="M170,24.5v-3.4c0.6,0.6,1.5,1,2.5,1c1,0,1.9-0.3,2.5-1.9l-5.7-14.7h4.6l3,9.4l2.5-9.4h4.1
			l-4,13.6c-1.1,3.5-2.9,6.2-6.6,6.2C171.5,25.3,170.5,25,170,24.5z"/>
		<path id="XMLID_151_" class="st0" d="M191.6,2.1h4.4v17.8h-4.4V2.1z"/>
		<path id="XMLID_149_" class="st0" d="M199.2,5.5h3.8l0.3,1.2c0.6-1,1.9-1.7,3.8-1.7c3.7,0,5.2,1.9,5.2,5.9v8.9H208v-8.2
			c0-2.4-0.6-3.2-2.2-3.2c-1.3,0-2,0.6-2.4,1.2v10.3h-4.3V5.5z"/>
		<path id="XMLID_147_" class="st0" d="M215.9,15.7v-7h-1.7V7.3l1.4-1.8l2.6-3.4h2v3.4h3.4v3.3h-3.4v6.5c0,1,0.3,1.6,1.2,1.6
			c1,0,1.7-0.5,2.1-1.2v3.5c-0.5,0.6-1.5,1.2-3.3,1.2C217.1,20.3,215.9,18.6,215.9,15.7z"/>
		<path id="XMLID_144_" class="st0" d="M225,12.7c0-5.3,3.5-7.6,7-7.6c3.4,0,6.6,1.5,6.6,7v1.9h-9.3c0.2,1.6,1.2,2.9,3.9,2.9
			c2.4,0,3.9-0.9,4.7-1.7v3.6c-0.8,0.7-2.5,1.6-5.3,1.6C227.9,20.3,225,17.9,225,12.7z M234.7,11.3v-0.1c0-1.7-0.8-2.8-2.6-2.8
			c-1.7,0-2.6,1.4-2.6,2.9H234.7z"/>
		<path id="XMLID_142_" class="st0" d="M241,5.5h3.5l0.3,1.9c0.2-1.5,1.4-2.3,2.8-2.3c0.8,0,1.2,0.2,1.5,0.4v3.9
			c-0.4-0.3-0.9-0.4-1.7-0.4c-1.1,0-1.7,0.4-2.1,1.2v9.9H241V5.5z"/>
		<path id="XMLID_139_" class="st0" d="M250,12.7c0-5.3,3.5-7.6,7-7.6c3.4,0,6.6,1.5,6.6,7v1.9h-9.3c0.2,1.6,1.2,2.9,3.9,2.9
			c2.4,0,3.9-0.9,4.7-1.7v3.6c-0.8,0.7-2.5,1.6-5.3,1.6C252.8,20.3,250,17.9,250,12.7z M259.6,11.3v-0.1c0-1.7-0.8-2.8-2.6-2.8
			c-1.7,0-2.6,1.4-2.6,2.9H259.6z"/>
		<path id="XMLID_137_" class="st0" d="M265.6,19.1v-3.8c0.9,0.9,2.3,1.6,4.3,1.6c1.9,0,2.4-0.6,2.4-1.3c0-0.8-0.3-1.1-1.9-1.3
			l-0.7-0.1c-3-0.4-4.3-1.9-4.3-4.4c0-2.5,1.7-4.7,5.9-4.7c2.2,0,3.7,0.5,4.5,1.2V10c-0.9-1-2.4-1.6-4.4-1.6c-1.7,0-2.2,0.5-2.2,1.2
			c0,0.7,0.3,1.1,1.8,1.3l0.8,0.1c3.2,0.5,4.6,1.6,4.6,4.3c0,2.5-1.7,5-6.3,5C267.8,20.3,266.3,19.8,265.6,19.1z"/>
		<path id="XMLID_135_" class="st0" d="M279.3,15.7v-7h-1.7V7.3l1.4-1.8l2.6-3.4h2v3.4h3.4v3.3h-3.4v6.5c0,1,0.3,1.6,1.2,1.6
			c1,0,1.7-0.5,2.1-1.2v3.5c-0.5,0.6-1.5,1.2-3.3,1.2C280.5,20.3,279.3,18.6,279.3,15.7z"/>
		<path id="XMLID_132_" class="st0" d="M289.1,2c0-1.3,0.8-2,2.2-2c1.3,0,2.2,0.8,2.2,2c0,1.3-0.9,2-2.2,2
			C289.9,4,289.1,3.3,289.1,2z M289.1,5.5h4.3v14.4h-4.3V5.5z"/>
		<path id="XMLID_130_" class="st0" d="M296.4,5.5h3.8l0.3,1.2c0.6-1,1.9-1.7,3.8-1.7c3.7,0,5.2,1.9,5.2,5.9v8.9h-4.3v-8.2
			c0-2.4-0.6-3.2-2.2-3.2c-1.3,0-2,0.6-2.4,1.2v10.3h-4.3V5.5z"/>
		<path id="XMLID_127_" class="st0" d="M311.7,24v-3.2c1.4,0.8,3.1,1.3,6.1,1.3c3.4,0,4.8-0.4,4.8-1.5c0-0.9-0.9-1.1-3-1.1
			c-2.2,0-5.4,0.4-6.4,0.9v-2.9l2-3c-2.2-0.7-3.4-2.3-3.4-4.6c0-3.2,2.5-5.1,6.4-5.1c1.7,0,3.1,0.4,4.1,1c0.4-0.7,1.6-1.1,2.8-1.1
			c0.4,0,0.9,0.1,1.2,0.2v3.2c-0.3-0.2-0.6-0.2-1-0.2c-0.5,0-1,0.2-1.2,0.4c0.2,0.5,0.3,1,0.3,1.6c0,3.1-2.5,5-6.4,5h-0.3l-1.1,1.8
			c0.6-0.2,2.3-0.4,3.8-0.4c3.6,0,5.9,0.8,5.9,3.9c0,3.1-2.8,5-8.2,5C315.1,25.3,312.9,24.8,311.7,24z M320.4,10.1
			c0-1.3-0.9-2-2.3-2c-1.5,0-2.3,0.7-2.3,2c0,1.3,0.9,1.9,2.3,1.9C319.5,12,320.4,11.4,320.4,10.1z"/>
		<path id="XMLID_124_" class="st0" d="M339.1,13.6h-0.2v6.3h-4.4V2.1h6.1c4.2,0,7.1,1.5,7.1,5.5c0,2.9-1.6,4.8-4.2,5.6l5.4,6.7h-5
			L339.1,13.6z M340.3,10.7c1.9,0,2.9-0.9,2.9-2.7c0-1.8-1-2.5-3-2.5h-1.4v5.2H340.3z"/>
		<path id="XMLID_121_" class="st0" d="M349.5,12.7c0-5.3,3.5-7.6,7-7.6c3.4,0,6.6,1.5,6.6,7v1.9h-9.3c0.2,1.6,1.2,2.9,3.9,2.9
			c2.4,0,3.9-0.9,4.7-1.7v3.6c-0.8,0.7-2.5,1.6-5.3,1.6C352.4,20.3,349.5,17.9,349.5,12.7z M359.2,11.3v-0.1c0-1.7-0.8-2.8-2.6-2.8
			c-1.7,0-2.6,1.4-2.6,2.9H359.2z"/>
		<path id="XMLID_119_" class="st0" d="M365.1,19.1v-3.8c0.9,0.9,2.3,1.6,4.3,1.6c1.9,0,2.4-0.6,2.4-1.3c0-0.8-0.3-1.1-1.9-1.3
			l-0.7-0.1c-3-0.4-4.3-1.9-4.3-4.4c0-2.5,1.7-4.7,5.9-4.7c2.2,0,3.7,0.5,4.5,1.2V10c-0.9-1-2.4-1.6-4.4-1.6c-1.7,0-2.2,0.5-2.2,1.2
			c0,0.7,0.3,1.1,1.8,1.3l0.8,0.1c3.2,0.5,4.6,1.6,4.6,4.3c0,2.5-1.7,5-6.3,5C367.4,20.3,365.9,19.8,365.1,19.1z"/>
		<path id="XMLID_117_" class="st0" d="M378,14.4V5.5h4.3v8.2c0,2.4,0.5,3.3,2.1,3.3c1.3,0,1.9-0.6,2.3-1.2V5.5h4.2v14.4h-3.8
			l-0.3-1.2c-0.6,0.9-1.9,1.7-3.8,1.7C379.3,20.3,378,18.4,378,14.4z"/>
		<path id="XMLID_115_" class="st0" d="M393.8,16.3V0.3h4.3v15.5c0,0.8,0.3,1.1,0.9,1.1c0.6,0,1-0.3,1.2-0.6v3.3
			c-0.3,0.3-1.2,0.8-2.5,0.8C395.1,20.3,393.8,18.9,393.8,16.3z"/>
		<path id="XMLID_113_" class="st0" d="M402.6,15.7v-7h-1.7V7.3l1.4-1.8l2.6-3.4h2v3.4h3.4v3.3h-3.4v6.5c0,1,0.3,1.6,1.2,1.6
			c1,0,1.7-0.5,2.1-1.2v3.5c-0.5,0.6-1.5,1.2-3.3,1.2C403.8,20.3,402.6,18.6,402.6,15.7z"/>
		<path id="XMLID_111_" class="st0" d="M412.1,19.1v-3.8c0.9,0.9,2.3,1.6,4.3,1.6c1.9,0,2.4-0.6,2.4-1.3c0-0.8-0.3-1.1-1.9-1.3
			l-0.7-0.1c-3-0.4-4.3-1.9-4.3-4.4c0-2.5,1.7-4.7,5.9-4.7c2.2,0,3.7,0.5,4.5,1.2V10c-0.9-1-2.4-1.6-4.4-1.6c-1.7,0-2.2,0.5-2.2,1.2
			c0,0.7,0.3,1.1,1.8,1.3l0.8,0.1c3.2,0.5,4.6,1.6,4.6,4.3c0,2.5-1.7,5-6.3,5C414.4,20.3,412.9,19.8,412.1,19.1z"/>
		<path id="XMLID_109_" class="st0" d="M430.7,11c0-6.1,3.9-9.3,8.6-9.3c2.9,0,4.4,0.8,5.2,1.5v4.4c-1-1.4-2.4-2.2-4.6-2.2
			c-3,0-4.7,1.9-4.7,5.5c0,3.5,1.6,5.7,4.7,5.7c2,0,3.6-0.7,4.6-2v4c-1,1-2.8,1.7-5.1,1.7C434,20.3,430.7,17.2,430.7,11z"/>
		<path id="XMLID_106_" class="st0" d="M446.2,12.7c0-5.3,3.4-7.6,7.4-7.6c4.2,0,7.1,2.3,7.1,7.6c0,5.3-3.4,7.6-7.4,7.6
			C449.2,20.3,446.2,18,446.2,12.7z M456.4,12.7c0-2.5-0.9-4.2-2.9-4.2c-2,0-2.9,1.7-2.9,4.2c0,2.5,0.9,4.2,2.9,4.2
			C455.5,16.8,456.4,15.2,456.4,12.7z"/>
		<path id="XMLID_104_" class="st0" d="M463,5.5h3.8l0.3,1.2c0.6-1,1.9-1.7,3.8-1.7c3.7,0,5.2,1.9,5.2,5.9v8.9h-4.3v-8.2
			c0-2.4-0.6-3.2-2.2-3.2c-1.3,0-2,0.6-2.4,1.2v10.3H463V5.5z"/>
		<path id="XMLID_102_" class="st0" d="M478.4,12.7c0-5.2,3.3-7.6,7.2-7.6c2.1,0,3.6,0.6,4.3,1.2v3.8c-0.9-1-2-1.5-3.7-1.5
			c-2.2,0-3.4,1.5-3.4,4c0,2.6,1.2,4,3.4,4c1.6,0,2.8-0.6,3.7-1.6v3.7c-0.6,0.7-2.3,1.5-4.4,1.5C481.3,20.3,478.4,18,478.4,12.7z"/>
		<path id="XMLID_99_" class="st0" d="M491.6,12.7c0-5.3,3.5-7.6,7-7.6c3.4,0,6.6,1.5,6.6,7v1.9H496c0.2,1.6,1.2,2.9,3.9,2.9
			c2.4,0,3.9-0.9,4.7-1.7v3.6c-0.8,0.7-2.5,1.6-5.3,1.6C494.4,20.3,491.6,17.9,491.6,12.7z M501.2,11.3v-0.1c0-1.7-0.8-2.8-2.6-2.8
			c-1.7,0-2.6,1.4-2.6,2.9H501.2z"/>
		<path id="XMLID_97_" class="st0" d="M507.5,5.5h3.5l0.3,1.9c0.2-1.5,1.4-2.3,2.8-2.3c0.8,0,1.2,0.2,1.5,0.4v3.9
			c-0.4-0.3-0.9-0.4-1.7-0.4c-1.1,0-1.7,0.4-2.1,1.2v9.9h-4.3V5.5z"/>
		<path id="XMLID_95_" class="st0" d="M517.5,5.5h3.8l0.3,1.2c0.6-1,1.9-1.7,3.8-1.7c3.7,0,5.2,1.9,5.2,5.9v8.9h-4.3v-8.2
			c0-2.4-0.6-3.2-2.2-3.2c-1.3,0-2,0.6-2.4,1.2v10.3h-4.3V5.5z"/>
		<path id="XMLID_92_" class="st0" d="M533.4,2c0-1.3,0.8-2,2.2-2c1.3,0,2.2,0.8,2.2,2c0,1.3-0.9,2-2.2,2C534.2,4,533.4,3.3,533.4,2
			z M533.5,5.5h4.3v14.4h-4.3V5.5z"/>
		<path id="XMLID_90_" class="st0" d="M540.7,5.5h3.8l0.3,1.2c0.6-1,1.9-1.7,3.8-1.7c3.7,0,5.2,1.9,5.2,5.9v8.9h-4.3v-8.2
			c0-2.4-0.6-3.2-2.2-3.2c-1.3,0-2,0.6-2.4,1.2v10.3h-4.3V5.5z"/>
		<path id="XMLID_87_" class="st0" d="M556,24v-3.2c1.4,0.8,3.1,1.3,6.1,1.3c3.4,0,4.8-0.4,4.8-1.5c0-0.9-0.9-1.1-3-1.1
			c-2.2,0-5.4,0.4-6.4,0.9v-2.9l2-3c-2.2-0.7-3.4-2.3-3.4-4.6c0-3.2,2.5-5.1,6.4-5.1c1.7,0,3.1,0.4,4.1,1c0.4-0.7,1.6-1.1,2.8-1.1
			c0.4,0,0.9,0.1,1.2,0.2v3.2c-0.3-0.2-0.6-0.2-1-0.2c-0.5,0-1,0.2-1.2,0.4c0.2,0.5,0.3,1,0.3,1.6c0,3.1-2.5,5-6.4,5h-0.3l-1.1,1.8
			c0.6-0.2,2.3-0.4,3.8-0.4c3.6,0,5.9,0.8,5.9,3.9c0,3.1-2.8,5-8.2,5C559.5,25.3,557.2,24.8,556,24z M564.8,10.1c0-1.3-0.9-2-2.3-2
			c-1.5,0-2.3,0.7-2.3,2c0,1.3,0.9,1.9,2.3,1.9C563.9,12,564.8,11.4,564.8,10.1z"/>
		<path id="XMLID_85_" class="st0" d="M28.5,34.9l-1.1-1.6h5.2l7.1,10.3h0.1V33.3h3.9V51h-3.5L32.4,40h-0.1V51h-3.9V34.9z"/>
		<path id="XMLID_82_" class="st0" d="M46.1,43.8c0-5.3,3.4-7.6,7-7.6c3.4,0,6.6,1.5,6.6,7V45h-9.3c0.2,1.6,1.2,2.9,3.9,2.9
			c2.4,0,3.9-0.9,4.7-1.7v3.6c-0.8,0.7-2.5,1.6-5.3,1.6C49,51.4,46.1,49,46.1,43.8z M55.8,42.4v-0.1c0-1.7-0.8-2.8-2.6-2.8
			c-1.7,0-2.6,1.4-2.6,2.9H55.8z"/>
		<path id="XMLID_79_" class="st0" d="M61.4,55.1V52c1.4,0.8,3.1,1.3,6.1,1.3c3.4,0,4.8-0.4,4.8-1.5c0-0.9-0.9-1.1-3-1.1
			c-2.2,0-5.4,0.4-6.4,0.9v-2.9l2-3c-2.2-0.7-3.4-2.3-3.4-4.6c0-3.2,2.5-5.1,6.4-5.1c1.7,0,3.1,0.4,4.1,1c0.4-0.7,1.6-1.1,2.7-1.1
			c0.4,0,0.9,0.1,1.2,0.2v3.2c-0.3-0.2-0.6-0.2-1-0.2c-0.5,0-1,0.2-1.2,0.4c0.2,0.5,0.3,1,0.3,1.6c0,3.1-2.5,5-6.4,5h-0.3L66.3,48
			c0.6-0.2,2.3-0.4,3.8-0.4c3.6,0,5.9,0.8,5.9,3.9c0,3.1-2.8,5-8.2,5C64.8,56.5,62.5,56,61.4,55.1z M70.1,41.2c0-1.3-0.9-2-2.3-2
			c-1.5,0-2.3,0.7-2.3,2c0,1.3,0.9,1.9,2.3,1.9C69.2,43.2,70.1,42.5,70.1,41.2z"/>
		<path id="XMLID_76_" class="st0" d="M77,47.2c0-2.9,2-4.1,6-4.7l2.1-0.3c0-1.9-1-2.6-2.9-2.6c-2,0-3.9,1-4.7,2.6v-4
			c0.6-0.8,2.2-1.9,5.3-1.9c4.1,0,6.4,1.8,6.4,6.2V51h-3.7l-0.3-1.2c-0.4,0.8-1.5,1.6-3.6,1.6C79,51.4,77,50.1,77,47.2z M85.2,44.8
			l-1.6,0.4c-1.9,0.4-2.6,0.9-2.6,1.9c0,1,0.7,1.4,1.7,1.4c1.1,0,2.1-0.4,2.5-1V44.8z"/>
		<path id="XMLID_74_" class="st0" d="M93,46.9v-7h-1.7v-1.5l1.4-1.8l2.6-3.4h2v3.4h3.4v3.3h-3.4v6.5c0,1,0.3,1.6,1.2,1.6
			c1,0,1.7-0.5,2.1-1.2v3.5c-0.5,0.6-1.5,1.2-3.3,1.2C94.2,51.4,93,49.7,93,46.9z"/>
		<path id="XMLID_71_" class="st0" d="M102.8,33.2c0-1.3,0.8-2,2.2-2c1.3,0,2.2,0.8,2.2,2c0,1.3-0.9,2-2.2,2
			C103.6,35.2,102.8,34.4,102.8,33.2z M102.9,36.6h4.3V51h-4.3V36.6z"/>
		<path id="XMLID_69_" class="st0" d="M108.7,36.6h4.6l2.3,6.8L116,45c0.1-0.4,0.4-1.2,0.4-1.6l2.4-6.8h4.2L117.3,51h-2.8
			L108.7,36.6z"/>
		<path id="XMLID_66_" class="st0" d="M123.5,43.8c0-5.3,3.4-7.6,7-7.6c3.4,0,6.6,1.5,6.6,7V45h-9.3c0.2,1.6,1.2,2.9,3.9,2.9
			c2.4,0,3.9-0.9,4.7-1.7v3.6c-0.8,0.7-2.5,1.6-5.3,1.6C126.3,51.4,123.5,49,123.5,43.8z M133.1,42.4v-0.1c0-1.7-0.8-2.8-2.6-2.8
			c-1.7,0-2.6,1.4-2.6,2.9H133.1z"/>
		<path id="XMLID_63_" class="st0" d="M144.9,47.2c0-2.9,2-4.1,6-4.7l2.1-0.3c0-1.9-1-2.6-2.9-2.6c-2,0-3.9,1-4.7,2.6v-4
			c0.6-0.8,2.2-1.9,5.3-1.9c4.1,0,6.4,1.8,6.4,6.2V51h-3.7l-0.3-1.2c-0.4,0.8-1.5,1.6-3.6,1.6C146.9,51.4,144.9,50.1,144.9,47.2z
			 M153.1,44.8l-1.6,0.4c-1.9,0.4-2.6,0.9-2.6,1.9c0,1,0.7,1.4,1.7,1.4c1.1,0,2.1-0.4,2.5-1V44.8z"/>
		<path id="XMLID_61_" class="st0" d="M160.2,36.6h3.8l0.3,1.2c0.6-1,1.9-1.7,3.8-1.7c3.7,0,5.2,1.9,5.2,5.9V51H169v-8.2
			c0-2.4-0.6-3.2-2.2-3.2c-1.3,0-2,0.6-2.4,1.2V51h-4.3V36.6z"/>
		<path id="XMLID_58_" class="st0" d="M175.6,44c0-5.2,2.6-7.8,6.4-7.8c1.1,0,2.4,0.2,3.1,0.9v-5.7h4.3V51h-3.8l-0.3-1.2
			c-0.5,0.8-1.7,1.7-3.8,1.7C178,51.4,175.6,49.2,175.6,44z M185,40.4c-0.5-0.6-1.4-0.9-2.3-0.9c-2,0-2.8,2-2.8,4.5s0.7,4,2.7,4
			c1.2,0,2-0.5,2.4-1.1V40.4z"/>
		<path id="XMLID_56_" class="st0" d="M204.9,33.3h6c5.3,0,7.5,2.2,7.5,6c0,3.8-2.2,6.6-7.5,6.6H210v-3.2h0.8c2.2,0,3.2-1.1,3.2-3.1
			c0-2-1-3-3.2-3h-1.5V51h-4.3V33.3z"/>
		<path id="XMLID_54_" class="st0" d="M220,50.3v-3.8c0.9,0.9,2.3,1.6,4.3,1.6c1.9,0,2.4-0.6,2.4-1.3c0-0.8-0.3-1.1-1.9-1.3
			l-0.7-0.1c-3-0.4-4.3-1.9-4.3-4.4c0-2.5,1.7-4.7,5.9-4.7c2.2,0,3.7,0.5,4.5,1.2v3.7c-0.9-1-2.4-1.6-4.4-1.6
			c-1.7,0-2.2,0.5-2.2,1.2c0,0.7,0.3,1.1,1.8,1.3l0.8,0.1c3.2,0.5,4.6,1.6,4.6,4.3c0,2.5-1.7,5-6.3,5
			C222.3,51.4,220.8,50.9,220,50.3z"/>
		<path id="XMLID_52_" class="st0" d="M232.3,55.6v-3.4c0.6,0.6,1.5,1,2.5,1c1,0,1.9-0.3,2.5-1.9l-5.7-14.7h4.6l3,9.4l2.5-9.4h4.1
			l-4,13.6c-1.1,3.5-2.9,6.2-6.6,6.2C233.8,56.5,232.8,56.1,232.3,55.6z"/>
		<path id="XMLID_50_" class="st0" d="M246.5,43.8c0-5.2,3.3-7.6,7.2-7.6c2.1,0,3.6,0.6,4.3,1.2v3.8c-0.9-1-2-1.5-3.7-1.5
			c-2.2,0-3.4,1.5-3.4,4c0,2.6,1.2,4,3.4,4c1.6,0,2.8-0.6,3.7-1.6v3.7c-0.6,0.7-2.3,1.5-4.4,1.5C249.4,51.4,246.5,49.1,246.5,43.8z"
			/>
		<path id="XMLID_48_" class="st0" d="M260.5,31.4h4.3v6.3c0.6-0.8,1.9-1.5,3.7-1.5c3.7,0,5.2,1.9,5.2,5.9V51h-4.3v-8.2
			c0-2.4-0.6-3.2-2.2-3.2c-1.2,0-2,0.6-2.4,1.1V51h-4.3V31.4z"/>
		<path id="XMLID_45_" class="st0" d="M275.7,43.8c0-5.3,3.4-7.6,7.4-7.6c4.2,0,7.1,2.3,7.1,7.6c0,5.3-3.4,7.6-7.4,7.6
			C278.7,51.4,275.7,49.2,275.7,43.8z M285.9,43.8c0-2.5-0.9-4.2-2.9-4.2c-2,0-2.9,1.7-2.9,4.2c0,2.5,0.9,4.2,2.9,4.2
			C285,48,285.9,46.3,285.9,43.8z"/>
		<path id="XMLID_42_" class="st0" d="M292.6,36.6h3.8l0.3,1.2c0.5-0.8,1.7-1.7,3.8-1.7c3.6,0,5.9,2,5.9,7.2c0,5.3-2.8,8-6.4,8
			c-1.1,0-2.4-0.2-3.1-0.9v5.6h-4.3V36.6z M301.9,43.6c0-2.5-0.7-4-2.7-4c-1.2,0-2,0.5-2.4,1.1v6.5c0.5,0.6,1.4,0.9,2.3,0.9
			C301.2,48.1,301.9,46.1,301.9,43.6z"/>
		<path id="XMLID_39_" class="st0" d="M307.9,47.2c0-2.9,2-4.1,6-4.7l2.1-0.3c0-1.9-1-2.6-2.9-2.6c-2,0-3.9,1-4.7,2.6v-4
			c0.6-0.8,2.2-1.9,5.3-1.9c4.1,0,6.4,1.8,6.4,6.2V51h-3.7l-0.3-1.2c-0.4,0.8-1.5,1.6-3.6,1.6C309.9,51.4,307.9,50.1,307.9,47.2z
			 M316.1,44.8l-1.6,0.4c-1.9,0.4-2.6,0.9-2.6,1.9c0,1,0.7,1.4,1.7,1.4c1.1,0,2.1-0.4,2.5-1V44.8z"/>
		<path id="XMLID_37_" class="st0" d="M323.9,46.9v-7h-1.7v-1.5l1.4-1.8l2.6-3.4h2v3.4h3.4v3.3h-3.4v6.5c0,1,0.3,1.6,1.2,1.6
			c1,0,1.7-0.5,2.1-1.2v3.5c-0.5,0.6-1.5,1.2-3.3,1.2C325.1,51.4,323.9,49.7,323.9,46.9z"/>
		<path id="XMLID_35_" class="st0" d="M333.8,31.4h4.3v6.3c0.6-0.8,1.9-1.5,3.7-1.5c3.7,0,5.2,1.9,5.2,5.9V51h-4.3v-8.2
			c0-2.4-0.6-3.2-2.2-3.2c-1.2,0-2,0.6-2.4,1.1V51h-4.3V31.4z"/>
		<path id="XMLID_32_" class="st0" d="M349,43.8c0-5.3,3.4-7.6,7.4-7.6c4.2,0,7.1,2.3,7.1,7.6c0,5.3-3.4,7.6-7.4,7.6
			C352,51.4,349,49.2,349,43.8z M359.2,43.8c0-2.5-0.9-4.2-2.9-4.2c-2,0-2.9,1.7-2.9,4.2c0,2.5,0.9,4.2,2.9,4.2
			C358.3,48,359.2,46.3,359.2,43.8z"/>
		<path id="XMLID_30_" class="st0" d="M365.8,47.4V31.4h4.3v15.5c0,0.8,0.3,1.1,0.9,1.1c0.6,0,1-0.3,1.2-0.6v3.3
			c-0.3,0.3-1.2,0.8-2.5,0.8C367.1,51.4,365.8,50,365.8,47.4z"/>
		<path id="XMLID_27_" class="st0" d="M373.4,43.8c0-5.3,3.4-7.6,7.4-7.6c4.2,0,7.1,2.3,7.1,7.6c0,5.3-3.4,7.6-7.4,7.6
			C376.3,51.4,373.4,49.2,373.4,43.8z M383.6,43.8c0-2.5-0.9-4.2-2.9-4.2c-2,0-2.9,1.7-2.9,4.2c0,2.5,0.9,4.2,2.9,4.2
			C382.7,48,383.6,46.3,383.6,43.8z"/>
		<path id="XMLID_24_" class="st0" d="M389.5,55.1V52c1.4,0.8,3.1,1.3,6.1,1.3c3.4,0,4.8-0.4,4.8-1.5c0-0.9-0.9-1.1-3-1.1
			c-2.2,0-5.4,0.4-6.4,0.9v-2.9l2-3c-2.2-0.7-3.4-2.3-3.4-4.6c0-3.2,2.5-5.1,6.4-5.1c1.7,0,3.1,0.4,4.1,1c0.4-0.7,1.6-1.1,2.8-1.1
			c0.4,0,0.9,0.1,1.2,0.2v3.2c-0.3-0.2-0.6-0.2-1-0.2c-0.5,0-1,0.2-1.2,0.4c0.2,0.5,0.3,1,0.3,1.6c0,3.1-2.5,5-6.4,5h-0.3l-1.1,1.8
			c0.6-0.2,2.3-0.4,3.8-0.4c3.6,0,5.9,0.8,5.9,3.9c0,3.1-2.8,5-8.2,5C393,56.5,390.7,56,389.5,55.1z M398.2,41.2c0-1.3-0.9-2-2.3-2
			c-1.5,0-2.3,0.7-2.3,2c0,1.3,0.9,1.9,2.3,1.9C397.4,43.2,398.2,42.5,398.2,41.2z"/>
		<path id="XMLID_22_" class="st0" d="M405.1,55.6v-3.4c0.6,0.6,1.5,1,2.5,1c1,0,1.9-0.3,2.5-1.9l-5.7-14.7h4.6l3,9.4l2.5-9.4h4.1
			l-4,13.6c-1.1,3.5-2.9,6.2-6.6,6.2C406.7,56.5,405.7,56.1,405.1,55.6z"/>
		<path id="XMLID_20_" class="st0" d="M426.2,50.2v-4.3c0.9,1,2.6,2,4.7,2c1.9,0,2.9-0.8,2.9-2c0-1.1-0.6-1.5-2.4-1.8l-0.7-0.1
			c-2.8-0.6-4.7-2.2-4.7-5.3c0-3.6,2.5-5.7,6.6-5.7c2.6,0,4.2,0.7,4.8,1.3v4.3c-0.9-1.1-2.6-2-4.8-2c-1.6,0-2.5,0.5-2.5,1.7
			c0,1,0.4,1.5,2.1,1.9l0.7,0.1c3,0.6,5,1.9,5,5.2c0,3.6-2.5,6-7.1,6C428.4,51.4,426.9,50.7,426.2,50.2z"/>
		<path id="XMLID_18_" class="st0" d="M439.8,55.6v-3.4c0.6,0.6,1.5,1,2.5,1c1,0,1.9-0.3,2.5-1.9l-5.7-14.7h4.6l3,9.4l2.5-9.4h4.1
			l-4,13.6c-1.1,3.5-2.9,6.2-6.6,6.2C441.3,56.5,440.3,56.1,439.8,55.6z"/>
		<path id="XMLID_16_" class="st0" d="M455,36.6h3.8l0.2,1.2c0.6-1,1.9-1.7,3.6-1.7c2,0,3.4,0.7,4.1,2c0.7-1,2.1-2,4.2-2
			c3.5,0,4.9,1.9,4.9,5.9V51h-4.3v-8.3c0-2.3-0.5-3.2-1.9-3.2c-1,0-1.9,0.5-2.3,1.2c0.1,0.4,0.1,0.9,0.1,1.3V51h-4.3v-8.3
			c0-2.3-0.5-3.2-1.9-3.2c-1.1,0-1.8,0.5-2.2,1.2V51H455V36.6z"/>
		<path id="XMLID_13_" class="st0" d="M478.8,36.6h3.8l0.3,1.2c0.5-0.8,1.7-1.7,3.8-1.7c3.6,0,5.9,2,5.9,7.2c0,5.3-2.8,8-6.4,8
			c-1.1,0-2.4-0.2-3.1-0.9v5.6h-4.3V36.6z M488.2,43.6c0-2.5-0.7-4-2.7-4c-1.2,0-2,0.5-2.4,1.1v6.5c0.5,0.6,1.4,0.9,2.3,0.9
			C487.4,48.1,488.2,46.1,488.2,43.6z"/>
		<path id="XMLID_11_" class="st0" d="M495.6,46.9v-7h-1.7v-1.5l1.4-1.8l2.6-3.4h2v3.4h3.4v3.3h-3.4v6.5c0,1,0.3,1.6,1.2,1.6
			c1,0,1.7-0.5,2.1-1.2v3.5c-0.5,0.6-1.5,1.2-3.3,1.2C496.8,51.4,495.6,49.7,495.6,46.9z"/>
		<path id="XMLID_8_" class="st0" d="M504.7,43.8c0-5.3,3.4-7.6,7.4-7.6c4.2,0,7.1,2.3,7.1,7.6c0,5.3-3.4,7.6-7.4,7.6
			C507.7,51.4,504.7,49.2,504.7,43.8z M514.9,43.8c0-2.5-0.9-4.2-2.9-4.2c-2,0-2.9,1.7-2.9,4.2c0,2.5,0.9,4.2,2.9,4.2
			C514,48,514.9,46.3,514.9,43.8z"/>
		<path id="XMLID_6_" class="st0" d="M521.6,36.6h3.8l0.2,1.2c0.6-1,1.9-1.7,3.6-1.7c2,0,3.4,0.7,4.1,2c0.7-1,2.1-2,4.2-2
			c3.5,0,4.9,1.9,4.9,5.9V51h-4.3v-8.3c0-2.3-0.5-3.2-1.9-3.2c-1,0-1.9,0.5-2.3,1.2c0.1,0.4,0.1,0.9,0.1,1.3V51h-4.3v-8.3
			c0-2.3-0.5-3.2-1.9-3.2c-1.1,0-1.8,0.5-2.2,1.2V51h-4.3V36.6z"/>
		<path id="XMLID_4_" class="st0" d="M545,50.3v-3.8c0.9,0.9,2.3,1.6,4.3,1.6c1.9,0,2.4-0.6,2.4-1.3c0-0.8-0.3-1.1-1.9-1.3l-0.7-0.1
			c-3-0.4-4.3-1.9-4.3-4.4c0-2.5,1.7-4.7,5.9-4.7c2.2,0,3.7,0.5,4.5,1.2v3.7c-0.9-1-2.4-1.6-4.4-1.6c-1.7,0-2.2,0.5-2.2,1.2
			c0,0.7,0.3,1.1,1.8,1.3l0.8,0.1c3.2,0.5,4.6,1.6,4.6,4.3c0,2.5-1.7,5-6.3,5C547.3,51.4,545.8,50.9,545,50.3z"/>
	</g>
</g>
</svg>
