<!-- Generator: Adobe Illustrator 22.1.0, SVG Export Plug-In  -->
<svg version="1.1"
	 xmlns="http://www.w3.org/2000/svg" xmlns:xlink="http://www.w3.org/1999/xlink" xmlns:a="http://ns.adobe.com/AdobeSVGViewerExtensions/3.0/"
	 x="0px" y="0px" width="448.6px" height="56.8px" viewBox="0 0 448.6 56.8" style="enable-background:new 0 0 448.6 56.8;"
	 xml:space="preserve">
<style type="text/css">
	.st0{fill:#FFFFFF;}
</style>
<defs>
</defs>
<g id="XMLID_1_">
	<g id="XMLID_3_">
		<path id="XMLID_121_" class="st0" d="M0.1,19.3v-4.3c0.9,1,2.6,2,4.8,2c2,0,2.9-0.8,2.9-2c0-1.1-0.7-1.5-2.4-1.8L4.7,13
			C1.9,12.4,0,10.8,0,7.6C0,4,2.5,1.9,6.7,1.9c2.7,0,4.2,0.7,4.8,1.3v4.3c-0.9-1.1-2.6-2-4.8-2C5,5.5,4.2,6.1,4.2,7.2
			c0,1,0.4,1.5,2.1,1.9l0.7,0.1c3,0.6,5,1.9,5,5.2c0,3.6-2.5,6.1-7.1,6.1C2.3,20.6,0.8,19.9,0.1,19.3z"/>
		<path id="XMLID_119_" class="st0" d="M14.4,0.4h4.3v6.3c0.7-0.8,2-1.5,3.7-1.5c3.7,0,5.2,2,5.2,5.9v9h-4.3v-8.2
			c0-2.4-0.6-3.3-2.2-3.3c-1.2,0-2,0.6-2.4,1.1v10.4h-4.3V0.4z"/>
		<path id="XMLID_116_" class="st0" d="M29.7,12.9c0-5.3,3.4-7.6,7.4-7.6c4.2,0,7.1,2.3,7.1,7.6c0,5.4-3.4,7.6-7.4,7.6
			C32.7,20.6,29.7,18.3,29.7,12.9z M40,12.9c0-2.5-0.9-4.2-2.9-4.2c-2,0-2.9,1.7-2.9,4.2c0,2.5,0.9,4.2,2.9,4.2
			C39.1,17.1,40,15.4,40,12.9z"/>
		<path id="XMLID_114_" class="st0" d="M45.2,5.7h4.2l1.9,7.6l2.9-7.6h1.6l3,7.6l1.9-7.6h3.9l-3.9,14.5h-2.6L55,12.3l-3.1,7.9h-2.6
			L45.2,5.7z"/>
		<path id="XMLID_112_" class="st0" d="M66.1,19.4v-3.8c0.9,0.9,2.3,1.6,4.3,1.6c1.9,0,2.4-0.6,2.4-1.3c0-0.8-0.3-1.1-2-1.3
			l-0.7-0.1c-3-0.4-4.3-1.9-4.3-4.4c0-2.5,1.7-4.8,6-4.8c2.2,0,3.7,0.5,4.5,1.2v3.7c-0.9-1-2.4-1.6-4.4-1.6c-1.7,0-2.2,0.5-2.2,1.2
			s0.3,1.1,1.8,1.3l0.8,0.1c3.2,0.5,4.6,1.6,4.6,4.3c0,2.5-1.7,5-6.3,5C68.4,20.6,66.9,20,66.1,19.4z"/>
		<path id="XMLID_110_" class="st0" d="M84.8,11.2c0-6.2,4-9.3,9-9.3c3.1,0,4.9,0.9,5.9,1.7v4.4c-1-1.4-2.8-2.5-5.3-2.5
			c-3.3,0-5.1,2-5.1,5.5c0,3.7,1.7,5.9,4.3,5.9c0.7,0,1.5-0.1,2-0.3v-4.9h4.1v7c-1.2,0.9-3.3,1.7-6.2,1.7
			C88.2,20.6,84.8,17.5,84.8,11.2z"/>
		<path id="XMLID_108_" class="st0" d="M102.4,5.7h3.5l0.3,1.9c0.2-1.5,1.4-2.3,2.8-2.3c0.8,0,1.2,0.2,1.5,0.4v3.9
			c-0.4-0.3-0.9-0.4-1.7-0.4c-1.1,0-1.7,0.4-2.1,1.2v9.9h-4.3V5.7z"/>
		<path id="XMLID_105_" class="st0" d="M111.5,12.9c0-5.3,3.5-7.6,7-7.6c3.4,0,6.7,1.5,6.7,7v1.9h-9.3c0.2,1.6,1.2,2.9,3.9,2.9
			c2.4,0,3.9-0.9,4.7-1.7v3.6c-0.8,0.7-2.5,1.6-5.4,1.6C114.3,20.6,111.5,18.1,111.5,12.9z M121.2,11.5v-0.1c0-1.7-0.8-2.8-2.6-2.8
			c-1.7,0-2.6,1.4-2.7,2.9H121.2z"/>
		<path id="XMLID_102_" class="st0" d="M126.8,16.3c0-2.9,2-4.1,6.1-4.7l2.1-0.3c0-2-1-2.6-2.9-2.6c-2.1,0-4,1-4.7,2.6V7.2
			c0.6-0.8,2.2-1.9,5.4-1.9c4.1,0,6.4,1.8,6.4,6.2v8.7h-3.7l-0.3-1.2c-0.4,0.8-1.5,1.6-3.6,1.6C128.8,20.6,126.8,19.2,126.8,16.3z
			 M134.9,13.9l-1.6,0.4c-1.9,0.4-2.6,0.9-2.6,1.9c0,1,0.7,1.4,1.7,1.4c1.1,0,2.1-0.4,2.5-1V13.9z"/>
		<path id="XMLID_100_" class="st0" d="M142.8,16V9h-1.7V7.5l1.4-1.8l2.6-3.4h2v3.4h3.4V9h-3.4v6.6c0,1,0.3,1.6,1.2,1.6
			c1,0,1.7-0.5,2.1-1.2v3.5c-0.5,0.6-1.5,1.2-3.3,1.2C144.1,20.6,142.8,18.8,142.8,16z"/>
		<path id="XMLID_98_" class="st0" d="M159.2,2.3h12.1v3.6h-7.7v3.4h5v3.4h-5v3.9h7.7v3.6h-12.1V2.3z"/>
		<path id="XMLID_95_" class="st0" d="M174.5,9h-1.7V7.6l1.6-1.4C174.2,5.7,174,5,174,4.1c0-2.7,2.3-4.1,4.7-4.1
			c1.7,0,2.5,0.5,2.9,0.9v3.5c-0.4-0.7-1.1-1-1.9-1c-0.9,0-1.5,0.5-1.5,1.4c0,0.5,0.2,0.8,0.3,1.1h4.4c-0.2-0.4-0.3-1-0.3-1.7
			c0-2.7,2.3-4.1,4.8-4.1c1.6,0,2.5,0.5,2.8,0.8v3.5c-0.4-0.7-1.1-1-2-1c-0.9,0-1.6,0.5-1.6,1.5c0,0.5,0.2,0.8,0.3,1.1h8.8v14.3
			h-4.3V9h-4.3v11.2h-4.3V9h-4.3v11.2h-4.3V9z M191.6,2.3c0-1.3,0.8-2,2.2-2c1.4,0,2.2,0.8,2.2,2c0,1.3-0.9,2-2.2,2
			C192.4,4.3,191.6,3.6,191.6,2.3z"/>
		<path id="XMLID_93_" class="st0" d="M198.2,12.9c0-5.3,3.3-7.6,7.2-7.6c2.1,0,3.6,0.6,4.3,1.2v3.9c-0.9-1-2.1-1.5-3.7-1.5
			c-2.2,0-3.4,1.5-3.4,4c0,2.6,1.2,4,3.4,4c1.6,0,2.8-0.6,3.7-1.6V19c-0.7,0.7-2.3,1.5-4.4,1.5C201.2,20.6,198.2,18.2,198.2,12.9z"
			/>
		<path id="XMLID_90_" class="st0" d="M211.5,16.3c0-2.9,2-4.1,6.1-4.7l2.1-0.3c0-2-1-2.6-2.9-2.6c-2.1,0-4,1-4.7,2.6V7.2
			c0.6-0.8,2.2-1.9,5.4-1.9c4.1,0,6.4,1.8,6.4,6.2v8.7h-3.7l-0.3-1.2c-0.4,0.8-1.5,1.6-3.6,1.6C213.6,20.6,211.5,19.2,211.5,16.3z
			 M219.7,13.9l-1.6,0.4c-1.9,0.4-2.6,0.9-2.6,1.9c0,1,0.7,1.4,1.7,1.4c1.1,0,2.1-0.4,2.5-1V13.9z"/>
		<path id="XMLID_88_" class="st0" d="M226.2,12.9c0-5.3,3.3-7.6,7.2-7.6c2.1,0,3.6,0.6,4.3,1.2v3.9c-0.9-1-2.1-1.5-3.7-1.5
			c-2.2,0-3.4,1.5-3.4,4c0,2.6,1.2,4,3.4,4c1.6,0,2.8-0.6,3.7-1.6V19c-0.7,0.7-2.3,1.5-4.4,1.5C229.1,20.6,226.2,18.2,226.2,12.9z"
			/>
		<path id="XMLID_86_" class="st0" d="M239.4,24.8v-3.4c0.6,0.6,1.5,1,2.5,1c1,0,1.9-0.3,2.5-1.9l-5.7-14.8h4.7l3,9.4l2.5-9.4h4.1
			l-4.1,13.7c-1.1,3.5-2.9,6.2-6.6,6.2C241,25.6,239.9,25.2,239.4,24.8z"/>
		<path id="XMLID_83_" class="st0" d="M260.9,2.2c0-1.3,0.8-2,2.2-2c1.4,0,2.2,0.8,2.2,2c0,1.3-0.9,2-2.2,2
			C261.7,4.2,260.9,3.5,260.9,2.2z M260.9,5.7h4.3v14.5h-4.3V5.7z"/>
		<path id="XMLID_81_" class="st0" d="M268.2,5.7h3.8l0.3,1.2c0.6-1,1.9-1.7,3.8-1.7c3.7,0,5.2,2,5.2,5.9v9h-4.3v-8.2
			c0-2.4-0.6-3.3-2.2-3.3c-1.3,0-2.1,0.6-2.4,1.2v10.3h-4.3V5.7z"/>
		<path id="XMLID_79_" class="st0" d="M290.7,2.3h4.4v17.8h-4.4V2.3z"/>
		<path id="XMLID_77_" class="st0" d="M298.3,5.7h3.9l0.2,1.2c0.6-1,2-1.7,3.6-1.7c2.1,0,3.4,0.7,4.1,2c0.7-1,2.1-2,4.2-2
			c3.5,0,4.9,2,4.9,5.9v9H315v-8.3c0-2.3-0.5-3.2-2-3.2c-1,0-1.9,0.5-2.3,1.2c0.1,0.4,0.1,0.9,0.1,1.4v9h-4.3v-8.3
			c0-2.3-0.5-3.2-1.9-3.2c-1.1,0-1.8,0.5-2.2,1.2v10.3h-4.3V5.7z"/>
		<path id="XMLID_74_" class="st0" d="M322.2,5.7h3.8l0.3,1.2c0.5-0.8,1.7-1.7,3.8-1.7c3.6,0,5.9,2,5.9,7.3c0,5.3-2.8,8-6.4,8
			c-1.1,0-2.4-0.2-3.1-0.9v5.6h-4.3V5.7z M331.6,12.7c0-2.5-0.7-4-2.7-4c-1.2,0-2,0.5-2.4,1.1v6.5c0.5,0.7,1.4,0.9,2.3,0.9
			C330.8,17.2,331.6,15.2,331.6,12.7z"/>
		<path id="XMLID_72_" class="st0" d="M338.3,5.7h3.5l0.3,1.9c0.2-1.5,1.4-2.3,2.8-2.3c0.8,0,1.2,0.2,1.5,0.4v3.9
			c-0.4-0.3-0.9-0.4-1.7-0.4c-1.1,0-1.7,0.4-2.1,1.2v9.9h-4.3V5.7z"/>
		<path id="XMLID_69_" class="st0" d="M347.4,12.9c0-5.3,3.4-7.6,7.4-7.6c4.2,0,7.1,2.3,7.1,7.6c0,5.4-3.4,7.6-7.4,7.6
			C350.3,20.6,347.4,18.3,347.4,12.9z M357.6,12.9c0-2.5-0.9-4.2-2.9-4.2c-2,0-2.9,1.7-2.9,4.2c0,2.5,0.9,4.2,2.9,4.2
			C356.7,17.1,357.6,15.4,357.6,12.9z"/>
		<path id="XMLID_67_" class="st0" d="M362.4,5.7h4.6l2.3,6.9l0.4,1.6c0.1-0.4,0.4-1.2,0.4-1.6l2.4-6.9h4.2L371,20.1h-2.8L362.4,5.7
			z"/>
		<path id="XMLID_64_" class="st0" d="M378.3,2.2c0-1.3,0.8-2,2.2-2c1.4,0,2.2,0.8,2.2,2c0,1.3-0.9,2-2.2,2
			C379.1,4.2,378.3,3.5,378.3,2.2z M378.4,5.7h4.3v14.5h-4.3V5.7z"/>
		<path id="XMLID_62_" class="st0" d="M385.6,5.7h3.8l0.3,1.2c0.6-1,1.9-1.7,3.8-1.7c3.7,0,5.2,2,5.2,5.9v9h-4.3v-8.2
			c0-2.4-0.6-3.3-2.2-3.3c-1.3,0-2.1,0.6-2.4,1.2v10.3h-4.3V5.7z"/>
		<path id="XMLID_59_" class="st0" d="M401,24.3v-3.2c1.4,0.8,3.1,1.3,6.1,1.3c3.4,0,4.8-0.4,4.8-1.5c0-0.9-0.9-1.1-3-1.1
			c-2.2,0-5.4,0.4-6.4,0.9v-2.9l2-3c-2.2-0.7-3.4-2.3-3.4-4.6c0-3.2,2.5-5.1,6.4-5.1c1.7,0,3.1,0.4,4.1,1c0.4-0.7,1.6-1.1,2.8-1.1
			c0.4,0,0.9,0.1,1.2,0.2v3.2c-0.3-0.2-0.6-0.2-1-0.2c-0.5,0-1,0.2-1.2,0.4c0.2,0.5,0.3,1,0.3,1.6c0,3.1-2.5,5-6.4,5h-0.3l-1.1,1.8
			c0.6-0.2,2.3-0.4,3.8-0.4c3.6,0,6,0.8,6,3.9c0,3.1-2.8,5-8.2,5C404.5,25.6,402.2,25.1,401,24.3z M409.7,10.3c0-1.3-0.9-2-2.3-2
			c-1.5,0-2.3,0.7-2.3,2c0,1.3,0.9,2,2.3,2C408.9,12.3,409.7,11.6,409.7,10.3z"/>
		<path id="XMLID_56_" class="st0" d="M422.9,12.9c0-5.3,3.4-7.6,7.4-7.6c4.2,0,7.1,2.3,7.1,7.6c0,5.4-3.4,7.6-7.4,7.6
			C425.9,20.6,422.9,18.3,422.9,12.9z M433.2,12.9c0-2.5-0.9-4.2-2.9-4.2c-2,0-2.9,1.7-2.9,4.2c0,2.5,0.9,4.2,2.9,4.2
			C432.2,17.1,433.2,15.4,433.2,12.9z"/>
		<path id="XMLID_54_" class="st0" d="M440.5,9.1h-1.7V7.6l1.6-1.4C440.2,5.7,440,5,440,4.1c0-2.7,2.4-4.1,5.1-4.1
			c2,0,3.1,0.5,3.5,0.9v3.5c-0.5-0.7-1.5-1.1-2.6-1.1c-1.2,0-1.8,0.5-1.8,1.4c0,0.4,0.2,0.8,0.3,1h2.8v3.3h-2.5v11.1h-4.3V9.1z"/>
		<path id="XMLID_52_" class="st0" d="M71.3,50.5v-4.3c0.9,1,2.6,2,4.8,2c2,0,2.9-0.8,2.9-2c0-1.1-0.7-1.5-2.4-1.8l-0.7-0.1
			c-2.8-0.6-4.7-2.2-4.7-5.4c0-3.6,2.5-5.7,6.7-5.7c2.7,0,4.2,0.7,4.8,1.3v4.3c-0.9-1.1-2.6-2-4.8-2c-1.6,0-2.5,0.5-2.5,1.7
			c0,1,0.4,1.5,2.1,1.9l0.7,0.1c3,0.6,5,1.9,5,5.2c0,3.6-2.5,6.1-7.1,6.1C73.5,51.8,72,51.1,71.3,50.5z"/>
		<path id="XMLID_50_" class="st0" d="M84.9,44.1c0-5.3,3.3-7.6,7.2-7.6c2.1,0,3.6,0.6,4.3,1.2v3.9c-0.9-1-2.1-1.5-3.7-1.5
			c-2.2,0-3.4,1.5-3.4,4c0,2.6,1.2,4,3.4,4c1.6,0,2.8-0.6,3.7-1.6v3.7c-0.7,0.7-2.3,1.5-4.4,1.5C87.8,51.8,84.9,49.4,84.9,44.1z"/>
		<path id="XMLID_48_" class="st0" d="M98.9,31.7h4.3V38c0.7-0.8,2-1.5,3.7-1.5c3.7,0,5.2,2,5.2,5.9v9h-4.3v-8.2
			c0-2.4-0.6-3.3-2.2-3.3c-1.2,0-2,0.6-2.4,1.1v10.4h-4.3V31.7z"/>
		<path id="XMLID_45_" class="st0" d="M114.9,33.4c0-1.3,0.8-2,2.2-2c1.4,0,2.2,0.8,2.2,2c0,1.3-0.9,2-2.2,2
			C115.7,35.4,114.9,34.7,114.9,33.4z M114.9,36.9h4.3v14.5h-4.3V36.9z"/>
		<path id="XMLID_43_" class="st0" d="M121.5,50.1l6.1-9.8h-6v-3.3h11.3v1.3L127,48h5.8v3.3h-11.3V50.1z"/>
		<path id="XMLID_40_" class="st0" d="M134.4,44.1c0-5.3,3.4-7.6,7.4-7.6c4.2,0,7.1,2.3,7.1,7.6c0,5.4-3.4,7.6-7.4,7.6
			C137.3,51.8,134.4,49.5,134.4,44.1z M144.6,44.1c0-2.5-0.9-4.2-2.9-4.2c-2,0-2.9,1.7-2.9,4.2c0,2.5,0.9,4.2,2.9,4.2
			C143.7,48.3,144.6,46.7,144.6,44.1z"/>
		<path id="XMLID_37_" class="st0" d="M151.2,36.9h3.8l0.3,1.2c0.5-0.8,1.7-1.7,3.8-1.7c3.6,0,5.9,2,5.9,7.3c0,5.3-2.8,8-6.4,8
			c-1.1,0-2.4-0.2-3.1-0.9v5.6h-4.3V36.9z M160.6,43.9c0-2.5-0.7-4-2.7-4c-1.2,0-2,0.5-2.4,1.1v6.5c0.5,0.7,1.4,0.9,2.3,0.9
			C159.9,48.5,160.6,46.4,160.6,43.9z"/>
		<path id="XMLID_35_" class="st0" d="M167.3,31.7h4.3V38c0.7-0.8,2-1.5,3.7-1.5c3.7,0,5.2,2,5.2,5.9v9h-4.3v-8.2
			c0-2.4-0.6-3.3-2.2-3.3c-1.2,0-2,0.6-2.4,1.1v10.4h-4.3V31.7z"/>
		<path id="XMLID_33_" class="st0" d="M183.3,36.9h3.5l0.3,1.9c0.2-1.5,1.4-2.3,2.8-2.3c0.8,0,1.2,0.2,1.5,0.4v3.9
			c-0.4-0.3-0.9-0.4-1.7-0.4c-1.1,0-1.7,0.4-2.1,1.2v9.9h-4.3V36.9z"/>
		<path id="XMLID_30_" class="st0" d="M192.4,44.1c0-5.3,3.5-7.6,7-7.6c3.4,0,6.7,1.5,6.7,7v1.9h-9.3c0.2,1.6,1.2,2.9,3.9,2.9
			c2.4,0,3.9-0.9,4.7-1.7v3.6c-0.8,0.7-2.5,1.6-5.4,1.6C195.2,51.8,192.4,49.4,192.4,44.1z M202.1,42.7v-0.1c0-1.7-0.8-2.8-2.6-2.8
			c-1.7,0-2.6,1.4-2.7,2.9H202.1z"/>
		<path id="XMLID_28_" class="st0" d="M208.4,36.9h3.8l0.3,1.2c0.6-1,1.9-1.7,3.8-1.7c3.7,0,5.2,2,5.2,5.9v9h-4.3v-8.2
			c0-2.4-0.6-3.3-2.2-3.3c-1.3,0-2.1,0.6-2.4,1.2v10.3h-4.3V36.9z"/>
		<path id="XMLID_25_" class="st0" d="M224.4,33.4c0-1.3,0.8-2,2.2-2c1.4,0,2.2,0.8,2.2,2c0,1.3-0.9,2-2.2,2
			C225.2,35.4,224.4,34.7,224.4,33.4z M224.4,36.9h4.3v14.5h-4.3V36.9z"/>
		<path id="XMLID_22_" class="st0" d="M231,47.5c0-2.9,2-4.1,6.1-4.7l2.1-0.3c0-2-1-2.6-2.9-2.6c-2.1,0-4,1-4.7,2.6v-4.1
			c0.6-0.8,2.2-1.9,5.4-1.9c4.1,0,6.4,1.8,6.4,6.2v8.7h-3.7l-0.3-1.2c-0.4,0.8-1.5,1.6-3.6,1.6C233.1,51.8,231,50.4,231,47.5z
			 M239.2,45.1l-1.6,0.4c-1.9,0.4-2.6,0.9-2.6,1.9c0,1,0.7,1.4,1.7,1.4c1.1,0,2.1-0.4,2.5-1V45.1z"/>
		<path id="XMLID_20_" class="st0" d="M252.3,50.5v-4.3c0.9,1,2.6,2,4.8,2c2,0,2.9-0.8,2.9-2c0-1.1-0.7-1.5-2.4-1.8l-0.7-0.1
			c-2.8-0.6-4.7-2.2-4.7-5.4c0-3.6,2.5-5.7,6.7-5.7c2.7,0,4.2,0.7,4.8,1.3v4.3c-0.9-1.1-2.6-2-4.8-2c-1.6,0-2.5,0.5-2.5,1.7
			c0,1,0.4,1.5,2.1,1.9l0.7,0.1c3,0.6,5,1.9,5,5.2c0,3.6-2.5,6.1-7.1,6.1C254.4,51.8,252.9,51.1,252.3,50.5z"/>
		<path id="XMLID_18_" class="st0" d="M265.8,56v-3.4c0.6,0.6,1.5,1,2.5,1c1,0,1.9-0.3,2.5-1.9l-5.7-14.8h4.7l3,9.4l2.5-9.4h4.1
			l-4.1,13.7c-1.1,3.5-2.9,6.2-6.6,6.2C267.4,56.8,266.4,56.5,265.8,56z"/>
		<path id="XMLID_16_" class="st0" d="M281.1,36.9h3.9l0.2,1.2c0.6-1,2-1.7,3.6-1.7c2.1,0,3.4,0.7,4.1,2c0.7-1,2.1-2,4.2-2
			c3.5,0,4.9,2,4.9,5.9v9h-4.3v-8.3c0-2.3-0.5-3.2-2-3.2c-1,0-1.9,0.5-2.3,1.2c0.1,0.4,0.1,0.9,0.1,1.4v9h-4.3v-8.3
			c0-2.3-0.5-3.2-1.9-3.2c-1.1,0-1.8,0.5-2.2,1.2v10.3h-4.3V36.9z"/>
		<path id="XMLID_13_" class="st0" d="M305,36.9h3.8l0.3,1.2c0.5-0.8,1.7-1.7,3.8-1.7c3.6,0,5.9,2,5.9,7.3c0,5.3-2.8,8-6.4,8
			c-1.1,0-2.4-0.2-3.1-0.9v5.6H305V36.9z M314.4,43.9c0-2.5-0.7-4-2.7-4c-1.2,0-2,0.5-2.4,1.1v6.5c0.5,0.7,1.4,0.9,2.3,0.9
			C313.6,48.5,314.4,46.4,314.4,43.9z"/>
		<path id="XMLID_11_" class="st0" d="M321.8,47.2v-7h-1.7v-1.5l1.4-1.8l2.6-3.4h2v3.4h3.4v3.3h-3.4v6.6c0,1,0.3,1.6,1.2,1.6
			c1,0,1.7-0.5,2.1-1.2v3.5c-0.5,0.6-1.5,1.2-3.3,1.2C323.1,51.8,321.8,50.1,321.8,47.2z"/>
		<path id="XMLID_8_" class="st0" d="M331,44.1c0-5.3,3.4-7.6,7.4-7.6c4.2,0,7.1,2.3,7.1,7.6c0,5.4-3.4,7.6-7.4,7.6
			C334,51.8,331,49.5,331,44.1z M341.2,44.1c0-2.5-0.9-4.2-2.9-4.2c-2,0-2.9,1.7-2.9,4.2c0,2.5,0.9,4.2,2.9,4.2
			C340.3,48.3,341.2,46.7,341.2,44.1z"/>
		<path id="XMLID_6_" class="st0" d="M347.9,36.9h3.9l0.2,1.2c0.6-1,2-1.7,3.6-1.7c2.1,0,3.4,0.7,4.1,2c0.7-1,2.1-2,4.2-2
			c3.5,0,4.9,2,4.9,5.9v9h-4.3v-8.3c0-2.3-0.5-3.2-2-3.2c-1,0-1.9,0.5-2.3,1.2c0.1,0.4,0.1,0.9,0.1,1.4v9h-4.3v-8.3
			c0-2.3-0.5-3.2-1.9-3.2c-1.1,0-1.8,0.5-2.2,1.2v10.3h-4.3V36.9z"/>
		<path id="XMLID_4_" class="st0" d="M371.4,50.6v-3.8c0.9,0.9,2.3,1.6,4.3,1.6c1.9,0,2.4-0.6,2.4-1.3c0-0.8-0.3-1.1-2-1.3l-0.7-0.1
			c-3-0.4-4.3-1.9-4.3-4.4c0-2.5,1.7-4.8,6-4.8c2.2,0,3.7,0.5,4.5,1.2v3.7c-0.9-1-2.4-1.6-4.4-1.6c-1.7,0-2.2,0.5-2.2,1.2
			s0.3,1.1,1.8,1.3l0.8,0.1c3.2,0.5,4.6,1.6,4.6,4.3c0,2.5-1.7,5-6.3,5C373.7,51.8,372.2,51.2,371.4,50.6z"/>
	</g>
</g>
</svg>
