<!-- Generator: Adobe Illustrator 22.1.0, SVG Export Plug-In  -->
<svg version="1.1"
	 xmlns="http://www.w3.org/2000/svg" xmlns:xlink="http://www.w3.org/1999/xlink" xmlns:a="http://ns.adobe.com/AdobeSVGViewerExtensions/3.0/"
	 x="0px" y="0px" width="488.3px" height="25.5px" viewBox="0 0 488.3 25.5" style="enable-background:new 0 0 488.3 25.5;"
	 xml:space="preserve">
<style type="text/css">
	.st0{fill:#FFFFFF;}
</style>
<defs>
</defs>
<g id="XMLID_1_">
	<g id="XMLID_3_">
		<path id="XMLID_83_" class="st0" d="M4.6,13.7H4.4V20H0V2.1h6.2c4.2,0,7.1,1.5,7.1,5.6c0,2.9-1.6,4.9-4.3,5.6l5.5,6.7H9.4
			L4.6,13.7z M5.8,10.7c1.9,0,2.9-0.9,2.9-2.7c0-1.8-1-2.5-3-2.5H4.4v5.2H5.8z"/>
		<path id="XMLID_80_" class="st0" d="M15.2,12.8c0-5.3,3.5-7.7,7-7.7c3.4,0,6.7,1.5,6.7,7V14h-9.3c0.2,1.6,1.2,2.9,3.9,2.9
			c2.4,0,3.9-0.9,4.7-1.7v3.6c-0.8,0.7-2.5,1.6-5.4,1.6C18,20.4,15.2,18,15.2,12.8z M24.8,11.3v-0.1c0-1.7-0.8-2.8-2.6-2.8
			c-1.7,0-2.6,1.4-2.7,2.9H24.8z"/>
		<path id="XMLID_78_" class="st0" d="M30.5,12.8c0-5.3,3.3-7.7,7.2-7.7c2.1,0,3.7,0.6,4.3,1.3v3.9c-0.9-1-2.1-1.5-3.7-1.5
			c-2.2,0-3.4,1.5-3.4,4c0,2.6,1.2,4,3.4,4c1.6,0,2.8-0.6,3.8-1.6v3.7c-0.7,0.7-2.3,1.5-4.4,1.5C33.4,20.4,30.5,18.1,30.5,12.8z"/>
		<path id="XMLID_75_" class="st0" d="M43.8,12.8c0-5.3,3.4-7.7,7.5-7.7c4.2,0,7.1,2.3,7.1,7.7c0,5.4-3.4,7.7-7.5,7.7
			C46.8,20.4,43.8,18.1,43.8,12.8z M54.1,12.8c0-2.5-0.9-4.2-2.9-4.2c-2,0-2.9,1.7-2.9,4.2c0,2.5,0.9,4.2,2.9,4.2
			C53.2,16.9,54.1,15.3,54.1,12.8z"/>
		<path id="XMLID_73_" class="st0" d="M60.7,5.5h3.9l0.2,1.3c0.6-1,2-1.7,3.6-1.7c2.1,0,3.4,0.7,4.1,2c0.7-1,2.1-2,4.3-2
			c3.5,0,4.9,2,4.9,5.9v9h-4.3v-8.3c0-2.3-0.5-3.2-2-3.2c-1,0-1.9,0.5-2.3,1.2c0.1,0.4,0.1,0.9,0.1,1.4v9h-4.3v-8.3
			c0-2.3-0.5-3.2-1.9-3.2c-1.1,0-1.8,0.5-2.2,1.2V20h-4.3V5.5z"/>
		<path id="XMLID_71_" class="st0" d="M84.7,5.5h3.9l0.2,1.3c0.6-1,2-1.7,3.6-1.7c2.1,0,3.4,0.7,4.1,2c0.7-1,2.1-2,4.3-2
			c3.5,0,4.9,2,4.9,5.9v9h-4.3v-8.3c0-2.3-0.5-3.2-2-3.2c-1,0-1.9,0.5-2.3,1.2c0.1,0.4,0.1,0.9,0.1,1.4v9h-4.3v-8.3
			c0-2.3-0.5-3.2-1.9-3.2c-1.1,0-1.8,0.5-2.2,1.2V20h-4.3V5.5z"/>
		<path id="XMLID_68_" class="st0" d="M108,12.8c0-5.3,3.5-7.7,7-7.7c3.4,0,6.7,1.5,6.7,7V14h-9.3c0.2,1.6,1.2,2.9,3.9,2.9
			c2.4,0,3.9-0.9,4.7-1.7v3.6c-0.8,0.7-2.5,1.6-5.4,1.6C110.8,20.4,108,18,108,12.8z M117.7,11.3v-0.1c0-1.7-0.8-2.8-2.6-2.8
			c-1.7,0-2.6,1.4-2.7,2.9H117.7z"/>
		<path id="XMLID_66_" class="st0" d="M124,5.5h3.8l0.3,1.3c0.6-1,1.9-1.7,3.8-1.7c3.8,0,5.2,2,5.2,5.9v9h-4.3v-8.3
			c0-2.4-0.6-3.3-2.2-3.3c-1.3,0-2.1,0.6-2.4,1.2V20H124V5.5z"/>
		<path id="XMLID_63_" class="st0" d="M139.5,12.9c0-5.3,2.6-7.9,6.4-7.9c1.1,0,2.4,0.2,3.1,0.9V0.3h4.3V20h-3.8l-0.3-1.3
			c-0.5,0.8-1.7,1.7-3.8,1.7C141.9,20.4,139.5,18.2,139.5,12.9z M149,9.4c-0.5-0.7-1.4-0.9-2.3-0.9c-2,0-2.8,2-2.8,4.5
			s0.7,4.1,2.7,4.1c1.2,0,2.1-0.5,2.4-1.1V9.4z"/>
		<path id="XMLID_60_" class="st0" d="M155.6,12.8c0-5.3,3.5-7.7,7-7.7c3.4,0,6.7,1.5,6.7,7V14H160c0.2,1.6,1.2,2.9,3.9,2.9
			c2.4,0,3.9-0.9,4.7-1.7v3.6c-0.8,0.7-2.5,1.6-5.4,1.6C158.4,20.4,155.6,18,155.6,12.8z M165.2,11.3v-0.1c0-1.7-0.8-2.8-2.6-2.8
			c-1.7,0-2.6,1.4-2.7,2.9H165.2z"/>
		<path id="XMLID_57_" class="st0" d="M170.9,12.9c0-5.3,2.6-7.9,6.4-7.9c1.1,0,2.4,0.2,3.1,0.9V0.3h4.3V20h-3.8l-0.3-1.3
			c-0.5,0.8-1.7,1.7-3.8,1.7C173.4,20.4,170.9,18.2,170.9,12.9z M180.4,9.4c-0.5-0.7-1.4-0.9-2.3-0.9c-2,0-2.8,2-2.8,4.5
			S176,17,178,17c1.2,0,2.1-0.5,2.4-1.1V9.4z"/>
		<path id="XMLID_54_" class="st0" d="M194.2,2.1h5.8c6.1,0,9.6,2.3,9.6,8.9s-4.3,9-9.6,9h-5.8V2.1z M200,16.4
			c3.9,0,5.2-1.5,5.2-5.2s-1.3-5.4-5.2-5.4h-1.4v10.6H200z"/>
		<path id="XMLID_51_" class="st0" d="M211.4,12.8c0-5.3,3.4-7.7,7.5-7.7c4.2,0,7.1,2.3,7.1,7.7c0,5.4-3.4,7.7-7.5,7.7
			C214.3,20.4,211.4,18.1,211.4,12.8z M221.6,12.8c0-2.5-0.9-4.2-2.9-4.2c-2,0-2.9,1.7-2.9,4.2c0,2.5,0.9,4.2,2.9,4.2
			C220.7,16.9,221.6,15.3,221.6,12.8z"/>
		<path id="XMLID_49_" class="st0" d="M227.9,19.3v-3.8c0.9,0.9,2.3,1.6,4.3,1.6c1.9,0,2.5-0.6,2.5-1.3c0-0.8-0.3-1.1-2-1.3
			l-0.7-0.1c-3-0.4-4.3-1.9-4.3-4.5c0-2.5,1.7-4.8,6-4.8c2.2,0,3.8,0.5,4.5,1.2V10c-0.9-1-2.5-1.6-4.4-1.6c-1.7,0-2.2,0.5-2.2,1.2
			s0.3,1.1,1.8,1.3l0.8,0.1c3.2,0.5,4.6,1.6,4.6,4.3c0,2.5-1.7,5-6.3,5C230.2,20.4,228.7,19.9,227.9,19.3z"/>
		<path id="XMLID_46_" class="st0" d="M240.9,2c0-1.3,0.8-2,2.2-2c1.4,0,2.2,0.8,2.2,2s-0.9,2-2.2,2C241.7,4,240.9,3.3,240.9,2z
			 M241,5.5h4.3V20H241V5.5z"/>
		<path id="XMLID_44_" class="st0" d="M248.3,5.5h3.8l0.3,1.3c0.6-1,1.9-1.7,3.8-1.7c3.8,0,5.2,2,5.2,5.9v9h-4.3v-8.3
			c0-2.4-0.6-3.3-2.2-3.3c-1.3,0-2.1,0.6-2.4,1.2V20h-4.3V5.5z"/>
		<path id="XMLID_41_" class="st0" d="M263.7,24.2V21c1.4,0.8,3.1,1.3,6.1,1.3c3.4,0,4.8-0.4,4.8-1.5c0-0.9-0.9-1.1-3-1.1
			c-2.2,0-5.4,0.4-6.4,0.9v-2.9l2-3c-2.2-0.7-3.4-2.3-3.4-4.6c0-3.2,2.5-5.1,6.4-5.1c1.7,0,3.1,0.4,4.1,1c0.4-0.7,1.6-1.1,2.8-1.1
			c0.4,0,0.9,0.1,1.3,0.2v3.2c-0.3-0.2-0.6-0.2-1-0.2c-0.5,0-1,0.2-1.3,0.4c0.2,0.5,0.3,1,0.3,1.6c0,3.2-2.5,5-6.4,5h-0.3l-1.1,1.8
			c0.6-0.2,2.3-0.4,3.8-0.4c3.6,0,6,0.8,6,3.9c0,3.1-2.8,5-8.3,5C267.1,25.5,264.8,25,263.7,24.2z M272.4,10.1c0-1.3-0.9-2-2.3-2
			c-1.5,0-2.3,0.7-2.3,2c0,1.3,0.9,2,2.3,2C271.6,12.1,272.4,11.4,272.4,10.1z"/>
		<path id="XMLID_38_" class="st0" d="M286.3,2c0-1.3,0.8-2,2.2-2c1.4,0,2.2,0.8,2.2,2s-0.9,2-2.2,2C287.1,4,286.3,3.3,286.3,2z
			 M286.4,5.5h4.3V20h-4.3V5.5z"/>
		<path id="XMLID_36_" class="st0" d="M293.7,5.5h3.8l0.3,1.3c0.6-1,1.9-1.7,3.8-1.7c3.8,0,5.2,2,5.2,5.9v9h-4.3v-8.3
			c0-2.4-0.6-3.3-2.2-3.3c-1.3,0-2.1,0.6-2.4,1.2V20h-4.3V5.5z"/>
		<path id="XMLID_34_" class="st0" d="M315.7,19.2v-4.4c0.9,1,2.6,2,4.8,2c2,0,2.9-0.8,2.9-2c0-1.1-0.7-1.5-2.4-1.9l-0.7-0.1
			c-2.8-0.6-4.7-2.2-4.7-5.4c0-3.6,2.5-5.7,6.7-5.7c2.7,0,4.2,0.7,4.9,1.3v4.3c-0.9-1.1-2.6-2-4.9-2c-1.6,0-2.5,0.5-2.5,1.7
			c0,1,0.4,1.5,2.1,1.9l0.7,0.1c3,0.6,5,1.9,5,5.2c0,3.6-2.5,6.1-7.1,6.1C317.9,20.4,316.4,19.7,315.7,19.2z"/>
		<path id="XMLID_32_" class="st0" d="M329.4,12.8c0-5.3,3.3-7.7,7.2-7.7c2.1,0,3.7,0.6,4.3,1.3v3.9c-0.9-1-2.1-1.5-3.7-1.5
			c-2.2,0-3.4,1.5-3.4,4c0,2.6,1.2,4,3.4,4c1.6,0,2.8-0.6,3.8-1.6v3.7c-0.7,0.7-2.3,1.5-4.4,1.5C332.3,20.4,329.4,18.1,329.4,12.8z"
			/>
		<path id="XMLID_30_" class="st0" d="M343.4,0.3h4.3v6.3c0.7-0.8,2-1.5,3.7-1.5c3.8,0,5.2,2,5.2,5.9v9h-4.3v-8.3
			c0-2.4-0.6-3.3-2.2-3.3c-1.3,0-2,0.6-2.4,1.1V20h-4.3V0.3z"/>
		<path id="XMLID_27_" class="st0" d="M359.4,2c0-1.3,0.8-2,2.2-2c1.4,0,2.2,0.8,2.2,2s-0.9,2-2.2,2C360.2,4,359.4,3.3,359.4,2z
			 M359.5,5.5h4.3V20h-4.3V5.5z"/>
		<path id="XMLID_25_" class="st0" d="M366,18.7l6.1-9.9h-6.1V5.5h11.4v1.3l-5.8,9.9h5.8V20H366V18.7z"/>
		<path id="XMLID_22_" class="st0" d="M378.9,12.8c0-5.3,3.4-7.7,7.5-7.7c4.2,0,7.1,2.3,7.1,7.7c0,5.4-3.4,7.7-7.5,7.7
			C381.9,20.4,378.9,18.1,378.9,12.8z M389.2,12.8c0-2.5-0.9-4.2-2.9-4.2c-2,0-2.9,1.7-2.9,4.2c0,2.5,0.9,4.2,2.9,4.2
			C388.3,16.9,389.2,15.3,389.2,12.8z"/>
		<path id="XMLID_19_" class="st0" d="M395.9,5.5h3.8l0.3,1.3c0.5-0.8,1.7-1.7,3.8-1.7c3.6,0,5.9,2,5.9,7.3c0,5.3-2.8,8.1-6.4,8.1
			c-1.1,0-2.4-0.2-3.1-0.9v5.6h-4.3V5.5z M405.3,12.6c0-2.5-0.7-4-2.7-4c-1.2,0-2,0.5-2.4,1.1v6.5c0.5,0.7,1.4,0.9,2.3,0.9
			C404.5,17.1,405.3,15.1,405.3,12.6z"/>
		<path id="XMLID_17_" class="st0" d="M412,0.3h4.3v6.3c0.7-0.8,2-1.5,3.7-1.5c3.8,0,5.2,2,5.2,5.9v9h-4.3v-8.3
			c0-2.4-0.6-3.3-2.2-3.3c-1.3,0-2,0.6-2.4,1.1V20H412V0.3z"/>
		<path id="XMLID_15_" class="st0" d="M428.1,5.5h3.5l0.3,1.9c0.2-1.5,1.4-2.3,2.8-2.3c0.8,0,1.2,0.2,1.5,0.4v3.9
			c-0.4-0.3-0.9-0.4-1.7-0.4c-1.1,0-1.7,0.4-2.1,1.2V20h-4.3V5.5z"/>
		<path id="XMLID_12_" class="st0" d="M437.2,12.8c0-5.3,3.5-7.7,7-7.7c3.4,0,6.7,1.5,6.7,7V14h-9.3c0.2,1.6,1.2,2.9,3.9,2.9
			c2.4,0,3.9-0.9,4.7-1.7v3.6c-0.8,0.7-2.5,1.6-5.4,1.6C440,20.4,437.2,18,437.2,12.8z M446.8,11.3v-0.1c0-1.7-0.8-2.8-2.6-2.8
			c-1.7,0-2.6,1.4-2.7,2.9H446.8z"/>
		<path id="XMLID_10_" class="st0" d="M453.2,5.5h3.8l0.3,1.3c0.6-1,1.9-1.7,3.8-1.7c3.8,0,5.2,2,5.2,5.9v9h-4.3v-8.3
			c0-2.4-0.6-3.3-2.2-3.3c-1.3,0-2.1,0.6-2.4,1.2V20h-4.3V5.5z"/>
		<path id="XMLID_7_" class="st0" d="M469.2,2c0-1.3,0.8-2,2.2-2c1.4,0,2.2,0.8,2.2,2s-0.9,2-2.2,2C470,4,469.2,3.3,469.2,2z
			 M469.3,5.5h4.3V20h-4.3V5.5z"/>
		<path id="XMLID_4_" class="st0" d="M475.9,16.2c0-2.9,2-4.1,6.1-4.7l2.1-0.3c0-2-1-2.6-2.9-2.6c-2.1,0-4,1-4.7,2.6V7
			c0.6-0.8,2.2-1.9,5.4-1.9c4.1,0,6.4,1.9,6.4,6.2V20h-3.7l-0.3-1.2c-0.4,0.8-1.5,1.6-3.6,1.6C477.9,20.4,475.9,19,475.9,16.2z
			 M484.1,13.8l-1.6,0.4c-1.9,0.4-2.6,0.9-2.6,1.9c0,1,0.7,1.4,1.7,1.4c1.1,0,2.1-0.4,2.5-1V13.8z"/>
	</g>
</g>
</svg>
